<?xml version="1.0" encoding="UTF-8"?><svg xmlns="http://www.w3.org/2000/svg" xmlns:xlink="http://www.w3.org/1999/xlink" contentScriptType="text/ecmascript" fill="#000000" width="520" zoomAndPan="magnify" contentStyleType="text/css" viewBox="5.0 1.6 520.0 96.8" height="96.8" preserveAspectRatio="xMidYMid meet" version="1"><g fill="#d93732"><g id="change1_1"><path fill="inherit" d="M-13.45 48.39H120.29V51.6H-13.45z" transform="rotate(-45.001 53.42 50)"/><path fill="inherit" d="M51.81 -16.87H55.02V116.87H51.81z" transform="rotate(-45.001 53.42 50)"/></g><g id="change1_2"><path fill="inherit" d="M92.34 48.39H226.08V51.6H92.34z" transform="rotate(-45.001 159.21 50.002)"/><path fill="inherit" d="M157.6 -16.87H160.81V116.87H157.6z" transform="rotate(-45.001 159.21 50.002)"/></g><g id="change1_4"><path fill="inherit" d="M198.13 48.39H331.87V51.6H198.13z" transform="rotate(-45.001 265 50.003)"/><path fill="inherit" d="M263.39 -16.87H266.59999999999997V116.87H263.39z" transform="rotate(-45.001 265 50.003)"/></g><g id="change1_5"><path fill="inherit" d="M303.92 48.39H437.66V51.6H303.92z" transform="rotate(-45.001 370.79 50.005)"/><path fill="inherit" d="M369.18 -16.87H372.39V116.87H369.18z" transform="rotate(-45.001 370.79 50.005)"/></g><g id="change1_3"><path fill="inherit" d="M409.71 48.39H543.45V51.6H409.71z" transform="rotate(-45.001 476.581 50.006)"/><path fill="inherit" d="M474.97 -16.87H478.18V116.87H474.97z" transform="rotate(-45.001 476.581 50.006)"/></g></g></svg>