<svg width="520" height="96.8" viewBox="5 1.6 520 96.8" xmlns="http://www.w3.org/2000/svg" xmlns:xlink="http://www.w3.org/1999/xlink" overflow="hidden"><style>
.MsftOfcResponsive_Stroke_ff0000 {
 stroke:#FF0000; 
}
</style>
<g fill="#D93732"><g id="change1_1"><path d="M-13.45 48.39 120.29 48.39 120.29 51.6-13.45 51.6Z" class="MsftOfcResponsive_Stroke_ff0000" stroke="#FF0000" stroke-width="32" transform="matrix(0.707094 -0.707119 0.707119 0.707094 -19.7089 52.4196)"/><path d="M51.81-16.87 55.02-16.87 55.02 116.87 51.81 116.87Z" class="MsftOfcResponsive_Stroke_ff0000" stroke="#FF0000" stroke-width="32" transform="matrix(0.707094 -0.707119 0.707119 0.707094 -19.7089 52.4196)"/></g><g id="change1_2"><path d="M92.34 48.39 226.08 48.39 226.08 51.6 92.34 51.6Z" class="MsftOfcResponsive_Stroke_ff0000" stroke="#FF0000" stroke-width="32" transform="matrix(0.707094 -0.707119 0.707119 0.707094 11.2761 127.226)"/><path d="M157.6-16.87 160.81-16.87 160.81 116.87 157.6 116.87Z" class="MsftOfcResponsive_Stroke_ff0000" stroke="#FF0000" stroke-width="32" transform="matrix(0.707094 -0.707119 0.707119 0.707094 11.2761 127.226)"/></g><g id="change1_4"><path d="M198.13 48.39 331.87 48.39 331.87 51.6 198.13 51.6Z" class="MsftOfcResponsive_Stroke_ff0000" stroke="#FF0000" stroke-width="32" transform="matrix(0.707094 -0.707119 0.707119 0.707094 42.2619 202.033)"/><path d="M263.39-16.87 266.6-16.87 266.6 116.87 263.39 116.87Z" class="MsftOfcResponsive_Stroke_ff0000" stroke="#FF0000" stroke-width="32" transform="matrix(0.707094 -0.707119 0.707119 0.707094 42.2619 202.033)"/></g><g id="change1_5"><path d="M303.92 48.39 437.66 48.39 437.66 51.6 303.92 51.6Z" class="MsftOfcResponsive_Stroke_ff0000" stroke="#FF0000" stroke-width="32" transform="matrix(0.707094 -0.707119 0.707119 0.707094 73.247 276.839)"/><path d="M369.18-16.87 372.39-16.87 372.39 116.87 369.18 116.87Z" class="MsftOfcResponsive_Stroke_ff0000" stroke="#FF0000" stroke-width="32" transform="matrix(0.707094 -0.707119 0.707119 0.707094 73.247 276.839)"/></g><g id="change1_3"><path d="M409.71 48.39 543.45 48.39 543.45 51.6 409.71 51.6Z" class="MsftOfcResponsive_Stroke_ff0000" stroke="#FF0000" stroke-width="32" transform="matrix(0.707094 -0.707119 0.707119 0.707094 104.233 351.647)"/><path d="M474.97-16.87 478.18-16.87 478.18 116.87 474.97 116.87Z" class="MsftOfcResponsive_Stroke_ff0000" stroke="#FF0000" stroke-width="32" transform="matrix(0.707094 -0.707119 0.707119 0.707094 104.233 351.647)"/></g></g></svg>