<?xml version="1.0" encoding="UTF-8"?><svg xmlns="http://www.w3.org/2000/svg" xmlns:xlink="http://www.w3.org/1999/xlink" contentScriptType="text/ecmascript" zoomAndPan="magnify" contentStyleType="text/css" id="Layer_1" version="1.1" xml:space="preserve" width="65.8" fill="#000000" preserveAspectRatio="xMidYMid meet" viewBox="15.1 21.6 65.8 52.8" height="52.8" x="0" y="0"><g id="change1_1"><path fill="#ef4136" d="M21.92 24.7L18.83 24.7 18.83 21.62 18.16 21.62 18.16 24.7 15.08 24.7 15.08 25.37 18.16 25.37 18.16 28.46 18.83 28.46 18.83 25.37 21.92 25.37z"/></g><g id="change1_2"><path fill="#ef4136" d="M33.72 24.7L30.64 24.7 30.64 21.62 29.96 21.62 29.96 24.7 26.88 24.7 26.88 25.37 29.96 25.37 29.96 28.46 30.64 28.46 30.64 25.37 33.72 25.37z"/></g><g id="change1_3"><path fill="#ef4136" d="M45.52 24.7L42.44 24.7 42.44 21.62 41.76 21.62 41.76 24.7 38.68 24.7 38.68 25.37 41.76 25.37 41.76 28.46 42.44 28.46 42.44 25.37 45.52 25.37z"/></g><g id="change1_4"><path fill="#ef4136" d="M57.32 24.7L54.24 24.7 54.24 21.62 53.56 21.62 53.56 24.7 50.48 24.7 50.48 25.37 53.56 25.37 53.56 28.46 54.24 28.46 54.24 25.37 57.32 25.37z"/></g><g id="change1_5"><path fill="#ef4136" d="M69.12 24.7L66.04 24.7 66.04 21.62 65.36 21.62 65.36 24.7 62.28 24.7 62.28 25.37 65.36 25.37 65.36 28.46 66.04 28.46 66.04 25.37 69.12 25.37z"/></g><g id="change1_6"><path fill="#ef4136" d="M80.92 24.7L77.84 24.7 77.84 21.62 77.17 21.62 77.17 24.7 74.08 24.7 74.08 25.37 77.17 25.37 77.17 28.46 77.84 28.46 77.84 25.37 80.92 25.37z"/></g><g id="change1_7"><path fill="#ef4136" d="M21.92 36.18L18.83 36.18 18.83 33.1 18.16 33.1 18.16 36.18 15.08 36.18 15.08 36.86 18.16 36.86 18.16 39.94 18.83 39.94 18.83 36.86 21.92 36.86z"/></g><g id="change1_8"><path fill="#ef4136" d="M33.72 36.18L30.64 36.18 30.64 33.1 29.96 33.1 29.96 36.18 26.88 36.18 26.88 36.86 29.96 36.86 29.96 39.94 30.64 39.94 30.64 36.86 33.72 36.86z"/></g><g id="change1_9"><path fill="#ef4136" d="M45.52 36.18L42.44 36.18 42.44 33.1 41.76 33.1 41.76 36.18 38.68 36.18 38.68 36.86 41.76 36.86 41.76 39.94 42.44 39.94 42.44 36.86 45.52 36.86z"/></g><g id="change1_10"><path fill="#ef4136" d="M57.32 36.18L54.24 36.18 54.24 33.1 53.56 33.1 53.56 36.18 50.48 36.18 50.48 36.86 53.56 36.86 53.56 39.94 54.24 39.94 54.24 36.86 57.32 36.86z"/></g><g id="change1_11"><path fill="#ef4136" d="M69.12 36.18L66.04 36.18 66.04 33.1 65.36 33.1 65.36 36.18 62.28 36.18 62.28 36.86 65.36 36.86 65.36 39.94 66.04 39.94 66.04 36.86 69.12 36.86z"/></g><g id="change1_12"><path fill="#ef4136" d="M80.92 36.18L77.84 36.18 77.84 33.1 77.17 33.1 77.17 36.18 74.08 36.18 74.08 36.86 77.17 36.86 77.17 39.94 77.84 39.94 77.84 36.86 80.92 36.86z"/></g><g id="change1_13"><path fill="#ef4136" d="M21.92 47.66L18.83 47.66 18.83 44.58 18.16 44.58 18.16 47.66 15.08 47.66 15.08 48.34 18.16 48.34 18.16 51.42 18.83 51.42 18.83 48.34 21.92 48.34z"/></g><g id="change1_14"><path fill="#ef4136" d="M33.72 47.66L30.64 47.66 30.64 44.58 29.96 44.58 29.96 47.66 26.88 47.66 26.88 48.34 29.96 48.34 29.96 51.42 30.64 51.42 30.64 48.34 33.72 48.34z"/></g><g id="change1_15"><path fill="#ef4136" d="M45.52 47.66L42.44 47.66 42.44 44.58 41.76 44.58 41.76 47.66 38.68 47.66 38.68 48.34 41.76 48.34 41.76 51.42 42.44 51.42 42.44 48.34 45.52 48.34z"/></g><g id="change1_16"><path fill="#ef4136" d="M57.32 47.66L54.24 47.66 54.24 44.58 53.56 44.58 53.56 47.66 50.48 47.66 50.48 48.34 53.56 48.34 53.56 51.42 54.24 51.42 54.24 48.34 57.32 48.34z"/></g><g id="change1_17"><path fill="#ef4136" d="M69.12 47.66L66.04 47.66 66.04 44.58 65.36 44.58 65.36 47.66 62.28 47.66 62.28 48.34 65.36 48.34 65.36 51.42 66.04 51.42 66.04 48.34 69.12 48.34z"/></g><g id="change1_18"><path fill="#ef4136" d="M80.92 47.66L77.84 47.66 77.84 44.58 77.17 44.58 77.17 47.66 74.08 47.66 74.08 48.34 77.17 48.34 77.17 51.42 77.84 51.42 77.84 48.34 80.92 48.34z"/></g><g id="change1_19"><path fill="#ef4136" d="M21.92 59.14L18.83 59.14 18.83 56.06 18.16 56.06 18.16 59.14 15.08 59.14 15.08 59.82 18.16 59.82 18.16 62.9 18.83 62.9 18.83 59.82 21.92 59.82z"/></g><g id="change1_20"><path fill="#ef4136" d="M33.72 59.14L30.64 59.14 30.64 56.06 29.96 56.06 29.96 59.14 26.88 59.14 26.88 59.82 29.96 59.82 29.96 62.9 30.64 62.9 30.64 59.82 33.72 59.82z"/></g><g id="change1_21"><path fill="#ef4136" d="M45.52 59.14L42.44 59.14 42.44 56.06 41.76 56.06 41.76 59.14 38.68 59.14 38.68 59.82 41.76 59.82 41.76 62.9 42.44 62.9 42.44 59.82 45.52 59.82z"/></g><g id="change1_22"><path fill="#ef4136" d="M57.32 59.14L54.24 59.14 54.24 56.06 53.56 56.06 53.56 59.14 50.48 59.14 50.48 59.82 53.56 59.82 53.56 62.9 54.24 62.9 54.24 59.82 57.32 59.82z"/></g><g id="change1_23"><path fill="#ef4136" d="M69.12 59.14L66.04 59.14 66.04 56.06 65.36 56.06 65.36 59.14 62.28 59.14 62.28 59.82 65.36 59.82 65.36 62.9 66.04 62.9 66.04 59.82 69.12 59.82z"/></g><g id="change1_24"><path fill="#ef4136" d="M80.92 59.14L77.84 59.14 77.84 56.06 77.17 56.06 77.17 59.14 74.08 59.14 74.08 59.82 77.17 59.82 77.17 62.9 77.84 62.9 77.84 59.82 80.92 59.82z"/></g><g id="change1_25"><path fill="#ef4136" d="M21.92 70.63L18.83 70.63 18.83 67.54 18.16 67.54 18.16 70.63 15.08 70.63 15.08 71.3 18.16 71.3 18.16 74.38 18.83 74.38 18.83 71.3 21.92 71.3z"/></g><g id="change1_26"><path fill="#ef4136" d="M33.72 70.63L30.64 70.63 30.64 67.54 29.96 67.54 29.96 70.63 26.88 70.63 26.88 71.3 29.96 71.3 29.96 74.38 30.64 74.38 30.64 71.3 33.72 71.3z"/></g><g id="change1_27"><path fill="#ef4136" d="M45.52 70.63L42.44 70.63 42.44 67.54 41.76 67.54 41.76 70.63 38.68 70.63 38.68 71.3 41.76 71.3 41.76 74.38 42.44 74.38 42.44 71.3 45.52 71.3z"/></g><g id="change1_28"><path fill="#ef4136" d="M57.32 70.63L54.24 70.63 54.24 67.54 53.56 67.54 53.56 70.63 50.48 70.63 50.48 71.3 53.56 71.3 53.56 74.38 54.24 74.38 54.24 71.3 57.32 71.3z"/></g><g id="change1_29"><path fill="#ef4136" d="M69.12 70.63L66.04 70.63 66.04 67.54 65.36 67.54 65.36 70.63 62.28 70.63 62.28 71.3 65.36 71.3 65.36 74.38 66.04 74.38 66.04 71.3 69.12 71.3z"/></g><g id="change1_30"><path fill="#ef4136" d="M80.92 70.63L77.84 70.63 77.84 67.54 77.17 67.54 77.17 70.63 74.08 70.63 74.08 71.3 77.17 71.3 77.17 74.38 77.84 74.38 77.84 71.3 80.92 71.3z"/></g></svg>