<?xml version="1.0" encoding="UTF-8"?><svg xmlns="http://www.w3.org/2000/svg" xmlns:xlink="http://www.w3.org/1999/xlink" contentScriptType="text/ecmascript" fill="#000000" width="91.4" zoomAndPan="magnify" contentStyleType="text/css" viewBox="4.3 4.3 91.4 91.4" height="91.4" preserveAspectRatio="xMidYMid meet" version="1"><g id="change1_1"><path fill="#d8bc16" d="M5.29,6.26c0.54,0,0.97-0.44,0.97-0.97S5.82,4.31,5.29,4.31S4.31,4.75,4.31,5.29S4.75,6.26,5.29,6.26 z"/></g><g id="change1_2"><path fill="#d8bc16" d="M20.19,4.31c-0.54,0-0.97,0.44-0.97,0.97s0.44,0.97,0.97,0.97s0.97-0.44,0.97-0.97 S20.73,4.31,20.19,4.31z"/></g><g id="change1_3"><path fill="#d8bc16" d="M35.1,4.31c-0.54,0-0.97,0.44-0.97,0.97s0.44,0.97,0.97,0.97s0.97-0.44,0.97-0.97 S35.63,4.31,35.1,4.31z"/></g><g id="change1_4"><path fill="#d8bc16" d="M50,4.31c-0.54,0-0.97,0.44-0.97,0.97S49.46,6.26,50,6.26s0.97-0.44,0.97-0.97S50.54,4.31,50,4.31z"/></g><g id="change1_5"><path fill="#d8bc16" d="M64.9,4.31c-0.54,0-0.97,0.44-0.97,0.97s0.44,0.97,0.97,0.97s0.97-0.44,0.97-0.97 S65.44,4.31,64.9,4.31z"/></g><g id="change1_6"><path fill="#d8bc16" d="M79.81,4.31c-0.54,0-0.97,0.44-0.97,0.97s0.44,0.97,0.97,0.97s0.97-0.44,0.97-0.97 S80.35,4.31,79.81,4.31z"/></g><g id="change1_7"><path fill="#d8bc16" d="M94.71,4.31c-0.54,0-0.97,0.44-0.97,0.97s0.44,0.97,0.97,0.97s0.97-0.44,0.97-0.97 S95.25,4.31,94.71,4.31z"/></g><g id="change1_8"><path fill="#d8bc16" d="M5.29,21.17c0.54,0,0.97-0.44,0.97-0.97c0-0.54-0.44-0.97-0.97-0.97s-0.97,0.44-0.97,0.97 C4.31,20.73,4.75,21.17,5.29,21.17z"/></g><g id="change1_9"><path fill="#d8bc16" d="M20.19,19.22c-0.54,0-0.97,0.44-0.97,0.97c0,0.54,0.44,0.97,0.97,0.97s0.97-0.44,0.97-0.97 C21.17,19.65,20.73,19.22,20.19,19.22z"/></g><g id="change1_10"><path fill="#d8bc16" d="M35.1,19.22c-0.54,0-0.97,0.44-0.97,0.97c0,0.54,0.44,0.97,0.97,0.97s0.97-0.44,0.97-0.97 C36.07,19.65,35.63,19.22,35.1,19.22z"/></g><g id="change1_11"><path fill="#d8bc16" d="M50,19.22c-0.54,0-0.97,0.44-0.97,0.97c0,0.54,0.44,0.97,0.97,0.97s0.97-0.44,0.97-0.97 C50.97,19.65,50.54,19.22,50,19.22z"/></g><g id="change1_12"><path fill="#d8bc16" d="M64.9,19.22c-0.54,0-0.97,0.44-0.97,0.97c0,0.54,0.44,0.97,0.97,0.97s0.97-0.44,0.97-0.97 C65.88,19.65,65.44,19.22,64.9,19.22z"/></g><g id="change1_13"><path fill="#d8bc16" d="M79.81,19.22c-0.54,0-0.97,0.44-0.97,0.97c0,0.54,0.44,0.97,0.97,0.97s0.97-0.44,0.97-0.97 C80.78,19.65,80.35,19.22,79.81,19.22z"/></g><g id="change1_14"><path fill="#d8bc16" d="M94.71,19.22c-0.54,0-0.97,0.44-0.97,0.97c0,0.54,0.44,0.97,0.97,0.97s0.97-0.44,0.97-0.97 C95.69,19.65,95.25,19.22,94.71,19.22z"/></g><g id="change1_15"><path fill="#d8bc16" d="M5.29,36.07c0.54,0,0.97-0.44,0.97-0.97s-0.44-0.97-0.97-0.97s-0.97,0.44-0.97,0.97 S4.75,36.07,5.29,36.07z"/></g><g id="change1_16"><path fill="#d8bc16" d="M20.19,34.12c-0.54,0-0.97,0.44-0.97,0.97s0.44,0.97,0.97,0.97s0.97-0.44,0.97-0.97 S20.73,34.12,20.19,34.12z"/></g><g id="change1_17"><path fill="#d8bc16" d="M35.1,34.12c-0.54,0-0.97,0.44-0.97,0.97s0.44,0.97,0.97,0.97s0.97-0.44,0.97-0.97 S35.63,34.12,35.1,34.12z"/></g><g id="change1_18"><path fill="#d8bc16" d="M50,34.12c-0.54,0-0.97,0.44-0.97,0.97s0.44,0.97,0.97,0.97s0.97-0.44,0.97-0.97 S50.54,34.12,50,34.12z"/></g><g id="change1_19"><path fill="#d8bc16" d="M64.9,34.12c-0.54,0-0.97,0.44-0.97,0.97s0.44,0.97,0.97,0.97s0.97-0.44,0.97-0.97 S65.44,34.12,64.9,34.12z"/></g><g id="change1_20"><path fill="#d8bc16" d="M79.81,34.12c-0.54,0-0.97,0.44-0.97,0.97s0.44,0.97,0.97,0.97s0.97-0.44,0.97-0.97 S80.35,34.12,79.81,34.12z"/></g><g id="change1_21"><path fill="#d8bc16" d="M94.71,34.12c-0.54,0-0.97,0.44-0.97,0.97s0.44,0.97,0.97,0.97s0.97-0.44,0.97-0.97 S95.25,34.12,94.71,34.12z"/></g><g id="change1_22"><path fill="#d8bc16" d="M5.29,50.97c0.54,0,0.97-0.44,0.97-0.97s-0.44-0.97-0.97-0.97S4.31,49.46,4.31,50 S4.75,50.97,5.29,50.97z"/></g><g id="change1_23"><path fill="#d8bc16" d="M20.19,49.03c-0.54,0-0.97,0.44-0.97,0.97s0.44,0.97,0.97,0.97s0.97-0.44,0.97-0.97 S20.73,49.03,20.19,49.03z"/></g><g id="change1_24"><path fill="#d8bc16" d="M35.1,49.03c-0.54,0-0.97,0.44-0.97,0.97s0.44,0.97,0.97,0.97s0.97-0.44,0.97-0.97 S35.63,49.03,35.1,49.03z"/></g><g id="change1_25"><path fill="#d8bc16" d="M50,49.03c-0.54,0-0.97,0.44-0.97,0.97s0.44,0.97,0.97,0.97s0.97-0.44,0.97-0.97 S50.54,49.03,50,49.03z"/></g><g id="change1_26"><path fill="#d8bc16" d="M64.9,49.03c-0.54,0-0.97,0.44-0.97,0.97s0.44,0.97,0.97,0.97s0.97-0.44,0.97-0.97 S65.44,49.03,64.9,49.03z"/></g><g id="change1_27"><path fill="#d8bc16" d="M79.81,49.03c-0.54,0-0.97,0.44-0.97,0.97s0.44,0.97,0.97,0.97s0.97-0.44,0.97-0.97 S80.35,49.03,79.81,49.03z"/></g><g id="change1_28"><path fill="#d8bc16" d="M94.71,49.03c-0.54,0-0.97,0.44-0.97,0.97s0.44,0.97,0.97,0.97s0.97-0.44,0.97-0.97 S95.25,49.03,94.71,49.03z"/></g><g id="change1_29"><path fill="#d8bc16" d="M5.29,65.88c0.54,0,0.97-0.44,0.97-0.97s-0.44-0.97-0.97-0.97s-0.97,0.44-0.97,0.97 S4.75,65.88,5.29,65.88z"/></g><g id="change1_30"><path fill="#d8bc16" d="M20.19,63.93c-0.54,0-0.97,0.44-0.97,0.97s0.44,0.97,0.97,0.97s0.97-0.44,0.97-0.97 S20.73,63.93,20.19,63.93z"/></g><g id="change1_31"><path fill="#d8bc16" d="M35.1,63.93c-0.54,0-0.97,0.44-0.97,0.97s0.44,0.97,0.97,0.97s0.97-0.44,0.97-0.97 S35.63,63.93,35.1,63.93z"/></g><g id="change1_32"><path fill="#d8bc16" d="M50,63.93c-0.54,0-0.97,0.44-0.97,0.97s0.44,0.97,0.97,0.97s0.97-0.44,0.97-0.97 S50.54,63.93,50,63.93z"/></g><g id="change1_33"><path fill="#d8bc16" d="M64.9,63.93c-0.54,0-0.97,0.44-0.97,0.97s0.44,0.97,0.97,0.97s0.97-0.44,0.97-0.97 S65.44,63.93,64.9,63.93z"/></g><g id="change1_34"><path fill="#d8bc16" d="M79.81,63.93c-0.54,0-0.97,0.44-0.97,0.97s0.44,0.97,0.97,0.97s0.97-0.44,0.97-0.97 S80.35,63.93,79.81,63.93z"/></g><g id="change1_35"><path fill="#d8bc16" d="M94.71,63.93c-0.54,0-0.97,0.44-0.97,0.97s0.44,0.97,0.97,0.97s0.97-0.44,0.97-0.97 S95.25,63.93,94.71,63.93z"/></g><g id="change1_36"><circle fill="#d8bc16" r="0.97" cx="5.29" cy="79.81"/></g><g id="change1_37"><path fill="#d8bc16" d="M20.19,78.83c-0.54,0-0.97,0.44-0.97,0.97s0.44,0.97,0.97,0.97s0.97-0.44,0.97-0.97 S20.73,78.83,20.19,78.83z"/></g><g id="change1_38"><path fill="#d8bc16" d="M35.1,78.83c-0.54,0-0.97,0.44-0.97,0.97s0.44,0.97,0.97,0.97s0.97-0.44,0.97-0.97 S35.63,78.83,35.1,78.83z"/></g><g id="change1_39"><circle fill="#d8bc16" r="0.97" cx="50" cy="79.81"/></g><g id="change1_40"><path fill="#d8bc16" d="M64.9,78.83c-0.54,0-0.97,0.44-0.97,0.97s0.44,0.97,0.97,0.97s0.97-0.44,0.97-0.97 S65.44,78.83,64.9,78.83z"/></g><g id="change1_41"><path fill="#d8bc16" d="M79.81,78.83c-0.54,0-0.97,0.44-0.97,0.97s0.44,0.97,0.97,0.97s0.97-0.44,0.97-0.97 S80.35,78.83,79.81,78.83z"/></g><g id="change1_42"><circle fill="#d8bc16" r="0.97" cx="94.71" cy="79.81"/></g><g id="change1_43"><path fill="#d8bc16" d="M5.29,93.74c-0.54,0-0.97,0.44-0.97,0.97s0.44,0.97,0.97,0.97s0.97-0.44,0.97-0.97 S5.82,93.74,5.29,93.74z"/></g><g id="change1_44"><path fill="#d8bc16" d="M20.19,93.74c-0.54,0-0.97,0.44-0.97,0.97s0.44,0.97,0.97,0.97s0.97-0.44,0.97-0.97 S20.73,93.74,20.19,93.74z"/></g><g id="change1_45"><path fill="#d8bc16" d="M35.1,93.74c-0.54,0-0.97,0.44-0.97,0.97s0.44,0.97,0.97,0.97s0.97-0.44,0.97-0.97 S35.63,93.74,35.1,93.74z"/></g><g id="change1_46"><path fill="#d8bc16" d="M50,93.74c-0.54,0-0.97,0.44-0.97,0.97s0.44,0.97,0.97,0.97s0.97-0.44,0.97-0.97 S50.54,93.74,50,93.74z"/></g><g id="change1_47"><path fill="#d8bc16" d="M64.9,93.74c-0.54,0-0.97,0.44-0.97,0.97s0.44,0.97,0.97,0.97s0.97-0.44,0.97-0.97 S65.44,93.74,64.9,93.74z"/></g><g id="change1_48"><path fill="#d8bc16" d="M79.81,93.74c-0.54,0-0.97,0.44-0.97,0.97s0.44,0.97,0.97,0.97s0.97-0.44,0.97-0.97 S80.35,93.74,79.81,93.74z"/></g><g id="change1_49"><path fill="#d8bc16" d="M94.71,93.74c-0.54,0-0.97,0.44-0.97,0.97s0.44,0.97,0.97,0.97s0.97-0.44,0.97-0.97 S95.25,93.74,94.71,93.74z"/></g></svg>