<svg width="16" height="114.3" viewBox="0 0 16 114.3" xmlns="http://www.w3.org/2000/svg" xmlns:xlink="http://www.w3.org/1999/xlink" fill="#160044" overflow="hidden"><style>
.MsftOfcThm_Background1_lumMod_85_Fill_v2 {
 fill:#D9D9D9; 
}
</style>
<g id="change1_1"><path d="M9 47 7 47 7 17.1 9 17.1 9 47ZM9 97.2 7 97.2 7 67.3 9 67.3 9 97.2Z" class="MsftOfcThm_Background1_lumMod_85_Fill_v2" fill="#D9D9D9"/></g><g id="change1_2"><path d="M16 6.9 12 13.8 4 13.8 0 6.9 4 0 12 0 16 6.9ZM12 50.2 4 50.2 0 57.1 4 64 12 64 16 57.1 12 50.2ZM12 100.5 4 100.5 0 107.4 4 114.3 12 114.3 16 107.4 12 100.5Z" class="MsftOfcThm_Background1_lumMod_85_Fill_v2" fill="#D9D9D9"/></g></svg>