<?xml version="1.0" encoding="UTF-8"?><svg xmlns="http://www.w3.org/2000/svg" xmlns:xlink="http://www.w3.org/1999/xlink" contentScriptType="text/ecmascript" fill="#000000" width="30.2" zoomAndPan="magnify" contentStyleType="text/css" viewBox="8.5 9.3 30.2 29.5" height="29.5" preserveAspectRatio="xMidYMid meet" version="1"><g><g><g><linearGradient x1="8.319" xmlns:xlink="http://www.w3.org/1999/xlink" y1="25.794" x2="39.22" gradientUnits="userSpaceOnUse" y2="25.794" xlink:type="simple" xlink:actuate="onLoad" id="a" xlink:show="other"><stop stop-color="#fd6700" offset="0"/><stop stop-color="#ffce00" offset="1"/></linearGradient><path fill="url(#a)" d="M26.47748,38.73216c-1.27026,0.00544-2.54646-0.26233-3.72601-0.82591 c-5.04017-2.41786-9.30407-6.43836-11.98683-11.34564c-0.23553-0.43082-0.45838-0.86874-0.6704-1.31159 c-1.58643-3.31982-0.8916-7.31104,1.729-9.93213c0,0,1.68369-1.6832,1.68506-1.68457 c1.25891-1.25855,3.48839-0.93896,4.34863,0.60889l1.51514,2.72754c0.59326,1.06738,0.4043,2.41602-0.45947,3.27979 l-1.43311,1.43311c-0.41797,0.41797-0.47998,1.09082-0.14746,1.6001c1.93652,2.96436,4.42188,5.44971,7.38623,7.38623 c0.51758,0.33984,1.17627,0.27734,1.59961-0.14746l1.43359-1.43262c0.86328-0.86523,2.21387-1.05273,3.28027-0.45898 c0,0,2.72423,1.51308,2.72705,1.51465c1.57456,0.87453,1.88111,3.07641,0.60889,4.34863c0,0-1.68445,1.68445-1.68457,1.68457 C31.03332,37.82654,28.76504,38.72237,26.47748,38.73216z M15.44914,14.34125c-0.31853-0.00268-0.63864,0.10997-0.88029,0.35162 l-1.68506,1.68457c-2.17188,2.17236-2.74902,5.47754-1.43604,8.22461c2.23007,4.67398,5.9087,8.60227,10.41406,11.15283 c0.50098,0.28223,1.01367,0.54785,1.53711,0.79785c2.74707,1.3125,6.05225,0.73633,8.22363-1.43652 c0,0,1.68225-1.68225,1.68457-1.68457c0.55541-0.55541,0.43552-1.58167-0.27685-1.97754l-2.72754-1.51465 c-0.48535-0.27051-1.09814-0.18457-1.49023,0.20898l-1.43359,1.43262c-0.9165,0.91602-2.38135,1.05957-3.48096,0.34277 c-3.13916-2.05078-5.771-4.68262-7.82178-7.82178c-0.71875-1.09961-0.57471-2.56396,0.34277-3.48096l1.43311-1.43311 c0.39258-0.39258,0.47852-1.00537,0.2085-1.49072c0,0-1.5132-2.72406-1.51513-2.72754 C16.32128,14.56624,15.8867,14.34494,15.44914,14.34125z"/></g></g><g><linearGradient x1="8.319" xmlns:xlink="http://www.w3.org/1999/xlink" y1="15.5" x2="39.22" gradientUnits="userSpaceOnUse" y2="15.5" xlink:type="simple" xlink:actuate="onLoad" id="b" xlink:show="other"><stop stop-color="#fd6700" offset="0"/><stop stop-color="#ffce00" offset="1"/></linearGradient><path fill="url(#b)" d="M38,21.75c-0.41406,0-0.75-0.33594-0.75-0.75c0-5.65186-4.59814-10.25-10.25-10.25 c-0.41406,0-0.75-0.33594-0.75-0.75S26.58594,9.25,27,9.25c6.479,0,11.75,5.271,11.75,11.75 C38.75,21.41406,38.41406,21.75,38,21.75z"/></g><g><linearGradient x1="8.319" xmlns:xlink="http://www.w3.org/1999/xlink" y1="17.75" x2="39.22" gradientUnits="userSpaceOnUse" y2="17.75" xlink:type="simple" xlink:actuate="onLoad" id="c" xlink:show="other"><stop stop-color="#fd6700" offset="0"/><stop stop-color="#ffce00" offset="1"/></linearGradient><path fill="url(#c)" d="M33.5,21.75c-0.41406,0-0.75-0.33594-0.75-0.75c0-3.17041-2.57959-5.75-5.75-5.75 c-0.41406,0-0.75-0.33594-0.75-0.75s0.33594-0.75,0.75-0.75c3.99756,0,7.25,3.25244,7.25,7.25 C34.25,21.41406,33.91406,21.75,33.5,21.75z"/></g><g><linearGradient x1="8.319" xmlns:xlink="http://www.w3.org/1999/xlink" y1="20" x2="39.22" gradientUnits="userSpaceOnUse" y2="20" xlink:type="simple" xlink:actuate="onLoad" id="d" xlink:show="other"><stop stop-color="#fd6700" offset="0"/><stop stop-color="#ffce00" offset="1"/></linearGradient><path fill="url(#d)" d="M29,21.75c-0.41406,0-0.75-0.33594-0.75-0.75c0-0.68945-0.56055-1.25-1.25-1.25 c-0.41406,0-0.75-0.33594-0.75-0.75s0.33594-0.75,0.75-0.75c1.5166,0,2.75,1.2334,2.75,2.75 C29.75,21.41406,29.41406,21.75,29,21.75z"/></g></g></svg>