<?xml version="1.0" encoding="UTF-8"?><svg xmlns="http://www.w3.org/2000/svg" xmlns:xlink="http://www.w3.org/1999/xlink" contentScriptType="text/ecmascript" fill="#000000" width="260.7" zoomAndPan="magnify" contentStyleType="text/css" viewBox="84.5 111.5 260.7 198.3" height="198.3" preserveAspectRatio="xMidYMid meet" version="1"><g id="change1_1"><path fill="#767676" d="M195.03,288.279c-0.667-5.323-7.465-9.507-15.759-9.507h-55.228c-8.294,0-15.092,4.184-15.758,9.507 H195.03z"/></g><g id="change1_2"><path fill="#767676" d="M218.841,309.743c-1.032-12.582-11.563-22.473-24.411-22.473h-85.547 c-12.848,0-23.379,9.891-24.411,22.473H218.841z"/></g><g><g id="change1_3"><path fill="#767676" d="M196.41,215.775c18.76,14.787,32.402,24.713,60.802,41.773c64.895,38.986,75.896,43.062,81.908,33.051 c6.015-10.009-2.43-18.341-67.323-57.327c-28.403-17.059-43.75-24.146-65.615-33.765L196.41,215.775z"/></g><g id="change2_1"><path fill="#e8cc3b" d="M162.329,270.162c-3.312,0-6.572-0.902-9.427-2.607l-37.513-22.413 c-4.221-2.521-7.208-6.536-8.409-11.304s-0.475-9.719,2.047-13.94l0.516-0.862c3.304-5.531,9.365-8.967,15.816-8.967 c0.345,0,0.69,0.01,1.034,0.029c-0.937-4.208-1.167-9.384,1.419-13.712l28.843-48.276c2.584-4.326,7.248-6.577,11.396-7.747 c-0.962-1.572-1.691-3.298-2.154-5.137c-1.202-4.768-0.475-9.718,2.047-13.939l0.517-0.863c3.304-5.53,9.364-8.967,15.814-8.967 c3.312,0,6.572,0.902,9.427,2.607l37.513,22.412c8.713,5.207,11.567,16.531,6.362,25.245l-0.517,0.863 c-3.304,5.53-9.364,8.966-15.814,8.966c0,0,0,0-0.001,0c-0.346,0-0.69-0.01-1.034-0.029c0.937,4.208,1.167,9.384-1.42,13.713 l-28.842,48.276c-2.587,4.329-7.257,6.579-11.408,7.748c3.459,5.655,3.748,12.999,0.119,19.074l-0.515,0.862 C174.839,266.725,168.779,270.162,162.329,270.162z M125.358,218.068c-3.706,0-7.052,1.896-8.95,5.072l-0.516,0.862 c-1.425,2.385-1.836,5.184-1.156,7.88c0.68,2.696,2.368,4.966,4.755,6.392l37.513,22.413c1.615,0.965,3.457,1.475,5.324,1.475 c3.706,0,7.051-1.896,8.948-5.072l0.515-0.861c2.942-4.926,1.329-11.33-3.597-14.273c-1.532-0.916-2.272-2.736-1.813-4.46 c0.458-1.725,2.004-2.938,3.788-2.972c2.587-0.062,10.532-1.134,12.911-5.116l28.842-48.276 c2.402-4.02-0.43-11.493-1.612-13.793c-0.815-1.588-0.48-3.524,0.822-4.745c1.302-1.222,3.255-1.432,4.788-0.517 c1.615,0.965,3.457,1.475,5.325,1.475c0,0,0,0,0.001,0c3.705,0,7.05-1.896,8.947-5.071l0.517-0.863 c2.941-4.924,1.328-11.328-3.599-14.272l-37.513-22.411c-1.616-0.965-3.457-1.476-5.324-1.476c-3.706,0-7.051,1.896-8.948,5.072 l-0.517,0.864c-1.424,2.384-1.835,5.183-1.156,7.878c0.679,2.696,2.368,4.965,4.754,6.391c1.533,0.916,2.273,2.736,1.814,4.461 c-0.458,1.726-2.004,2.938-3.789,2.972c-2.586,0.062-10.53,1.133-12.911,5.117l-28.843,48.276 c-2.38,3.984,0.441,11.487,1.617,13.801c0.807,1.589,0.468,3.523-0.834,4.74c-1.302,1.217-3.25,1.429-4.779,0.515 C129.067,218.579,127.227,218.068,125.358,218.068z"/></g><g id="change2_2"><path fill="#e8cc3b" d="M202.901,162.52c-0.682,0-1.373-0.174-2.005-0.542l-26.549-15.424c-1.91-1.109-2.559-3.558-1.449-5.468 c1.109-1.911,3.558-2.56,5.468-1.449l26.549,15.424c1.91,1.109,2.559,3.558,1.449,5.468 C205.621,161.807,204.279,162.52,202.901,162.52z"/></g><g id="change2_3"><path fill="#e8cc3b" d="M159.589,236.005c-0.702,0-1.413-0.185-2.058-0.573l-15.611-9.391c-1.893-1.139-2.504-3.597-1.366-5.49 c1.139-1.892,3.596-2.505,5.49-1.366l15.611,9.391c1.893,1.139,2.504,3.597,1.366,5.49 C162.271,235.314,160.947,236.005,159.589,236.005z"/></g></g></svg>