<?xml version="1.0" encoding="UTF-8"?><svg xmlns="http://www.w3.org/2000/svg" xmlns:xlink="http://www.w3.org/1999/xlink" contentScriptType="text/ecmascript" zoomAndPan="magnify" contentStyleType="text/css" id="Bounds" enable-background="new 0 0 500 417.6748962" version="1.1" xml:space="preserve" width="549.1" fill="#000000" preserveAspectRatio="xMidYMid meet" viewBox="-24.6 -17.1 549.1 451.2" height="451.2" x="0" y="0"><filter xlink:actuate="onLoad" xlink:type="simple" id="AI_GaussianBlur_4" xlink:show="other" xmlns:xlink="http://www.w3.org/1999/xlink"><feGaussianBlur stdDeviation="4"/></filter><g filter="url(#AI_GaussianBlur_4)"><g id="change1_1"><path fill="#1378ec" d="M382.1536865,396.4768677c-4.683136,0-8.4792175-3.7960815-8.4792175-8.4792175V192.1502075 c0-4.683136,3.7960815-8.4792175,8.4792175-8.4792175s8.4792175,3.7960815,8.4792175,8.4792175v195.8474426 C390.6329041,392.6807861,386.8368225,396.4768677,382.1536865,396.4768677z"/></g><g id="change1_2"><path fill="#1378ec" d="M120.3765106,396.4768677c-4.6831284,0-8.4792099-3.7960815-8.4792099-8.4792175V198.7937469 c0-4.683136,3.7960815-8.4792175,8.4792099-8.4792175c4.683136,0,8.4792175,3.7960815,8.4792175,8.4792175v189.2039032 C128.8557281,392.6807861,125.0596466,396.4768677,120.3765106,396.4768677z"/></g><g id="change2_1"><path fill="#ee8aa8" d="M333.4432373,380.3340454c-4.683136,0-8.4792175-3.7960815-8.4792175-8.4792175v-95.8476257h-40.1769409 v95.8476257c0,4.683136-3.7960815,8.4792175-8.479187,8.4792175c-4.683136,0-8.4792175-3.7960815-8.4792175-8.4792175V267.5279846 c0-4.683136,3.7960815-8.4792175,8.4792175-8.4792175h57.1353455c4.6831055,0,8.479187,3.7960815,8.479187,8.4792175v104.3268433 C341.9224243,376.5379639,338.1263428,380.3340454,333.4432373,380.3340454z"/></g><g id="change2_2"><path fill="#ee8aa8" d="M216.9223022,339.8523254h-57.1348267c-4.6831207,0-8.4792175-3.7960815-8.4792175-8.4792175v-63.8451233 c0-4.683136,3.7960968-8.4792175,8.4792175-8.4792175h57.1348267c4.683136,0,8.4792175,3.7960815,8.4792175,8.4792175v63.8451233 C225.4015198,336.0562439,221.6054382,339.8523254,216.9223022,339.8523254z M168.2666931,322.8938904H208.4431v-46.8866882 h-40.1764069V322.8938904z"/></g><g id="change2_3"><path fill="#ee8aa8" d="M448.5134888,219.3893738h-36.9060974c-4.683136,0-8.4792175-3.7960815-8.4792175-8.4792175 c0-4.6831207,3.7960815-8.4792175,8.4792175-8.4792175h15.144989L251.2651062,41.1923065L75.7778244,202.4309387h15.1450043 c4.6831284,0,8.4792175,3.7960968,8.4792175,8.4792175c0,4.683136-3.7960892,8.4792175-8.4792175,8.4792175H54.0167084 c-3.4948807,0-6.6316338-2.1441193-7.9006195-5.4009399c-1.2689819-3.2563019-0.4098816-6.9576874,2.1637955-9.3222809 L245.5282745,23.4332542c3.2438812-2.9799385,8.2297668-2.9799385,11.4736481,0L454.2503357,204.666153 c2.5736694,2.3645935,3.4327698,6.065979,2.1637878,9.3222809 C455.1451416,217.2452545,452.0083923,219.3893738,448.5134888,219.3893738z"/></g><g id="change3_1"><path fill="#7cede7" d="M251.2651062,175.7388c-15.7163696,0-28.5024719-12.7861023-28.5024719-28.5024567 s12.7861023-28.5024719,28.5024719-28.5024719s28.5024719,12.7861023,28.5024719,28.5024719 S266.9814758,175.7388,251.2651062,175.7388z M251.2651062,135.6923065c-6.3656311,0-11.5440369,5.1784058-11.5440369,11.5440369 c0,6.3656158,5.1784058,11.5440216,11.5440369,11.5440216s11.5440369-5.1784058,11.5440369-11.5440216 C262.8091431,140.8707123,257.6307373,135.6923065,251.2651062,135.6923065z"/></g><g id="change1_3"><path fill="#1378ec" d="M382.1536865,396.4768677H120.3765106c-4.6831284,0-8.4792099-3.7960815-8.4792099-8.4792175 s3.7960815-8.4792175,8.4792099-8.4792175h261.7771606c4.683136,0,8.4792175,3.7960815,8.4792175,8.4792175 S386.8368225,396.4768677,382.1536865,396.4768677z"/></g><g id="change3_2"><path fill="#7cede7" d="M468.0192261,396.4768677h-67.85495c-4.683136,0-8.4792175-3.7960815-8.4792175-8.4792175 s3.7960815-8.4792175,8.4792175-8.4792175h61.5353699c0.0957642-0.7488708,0.1438904-1.5070496,0.1438904-2.2724915 c0-9.778717-7.9363403-17.7393799-17.7057495-17.7792358l-0.2235718,0.0062256 c-2.5141602,0.0217285-4.828064-1.0179749-6.4613647-2.8686829c-1.6333313-1.8511963-2.3790894-4.3224182-2.0421753-6.7677307 c0.1159058-0.8410034,0.1749268-1.6674805,0.1749268-2.4572449c0-9.8030396-7.9756775-17.778717-17.7792358-17.778717 c-4.4274902,0-8.6691589,1.6369629-11.9430542,4.6086121c-3.4674683,3.1491699-8.8301086,2.8878174-11.9772034-0.5791016 c-3.1476135-3.4674683-2.8883362-8.8301086,0.5791016-11.9772339c6.4008179-5.8108215,14.6906128-9.0107117,23.341156-9.0107117 c17.8439026,0,32.5883484,13.5235901,34.5228882,30.859314c15.1776123,3.717926,26.4727173,17.436615,26.4727173,33.7445068 c0,4.9413757-1.0257568,9.7290649-3.0493164,14.2290039C474.3837891,394.519043,471.356781,396.4768677,468.0192261,396.4768677z"/></g><g id="change3_3"><path fill="#7cede7" d="M99.8357391,396.4768677h-67.85495c-3.337553,0-6.3645878-1.9578247-7.7334557-5.0019226 c-2.0235443-4.499939-3.0492878-9.2876282-3.0492878-14.2290039c0-16.3078918,11.2950993-30.0265808,26.4727077-33.7445068 c1.9345284-17.3357239,16.6789665-30.859314,34.522892-30.859314c8.6505203,0,16.9403229,3.1998901,23.3411407,9.0107117 c3.467453,3.1471252,3.7267303,8.5097656,0.5791168,11.9772339c-3.1476212,3.4684753-8.5102692,3.7272339-11.9772034,0.5791016 c-3.2739029-2.9716492-7.5155792-4.6086121-11.9430542-4.6086121c-9.8035736,0-17.7792358,7.9756775-17.7792358,17.778717 c0,0.7897644,0.0589981,1.6162415,0.1749268,2.4572449c0.3369141,2.4453125-0.408844,4.9165344-2.0421715,6.7677307 c-1.6338425,1.8512268-3.9999924,2.8821411-6.4613686,2.8686829l-0.2271957-0.0062256 c-9.7678642,0.0419312-17.7021217,8.0015564-17.7021217,17.7792358c0,0.7654419,0.04813,1.5236206,0.1438713,2.2724915h61.5353928 c4.6831284,0,8.4792099,3.7960815,8.4792099,8.4792175S104.5188675,396.4768677,99.8357391,396.4768677z"/></g><g id="change1_4"><path fill="#1378ec" d="M382.1536865,135.6923065c-4.683136,0-8.4792175-3.7960815-8.4792175-8.4792175V60.8589745h-31.7520447 v15.5906029c0,4.6831284-3.7960815,8.4792175-8.479187,8.4792175c-4.683136,0-8.4792175-3.7960892-8.4792175-8.4792175V52.3797607 c0-4.6831322,3.7960815-8.4792175,8.4792175-8.4792175h48.7104492c4.683136,0,8.4792175,3.7960854,8.4792175,8.4792175v74.8333282 C390.6329041,131.896225,386.8368225,135.6923065,382.1536865,135.6923065z"/></g><g id="change1_5"><path fill="#1378ec" d="M382.1536865,396.4768677c-4.683136,0-8.4792175-3.7960815-8.4792175-8.4792175V192.1502075 c0-4.683136,3.7960815-8.4792175,8.4792175-8.4792175s8.4792175,3.7960815,8.4792175,8.4792175v195.8474426 C390.6329041,392.6807861,386.8368225,396.4768677,382.1536865,396.4768677z"/></g><g id="change1_6"><path fill="#1378ec" d="M120.3765106,396.4768677c-4.6831284,0-8.4792099-3.7960815-8.4792099-8.4792175V198.7937469 c0-4.683136,3.7960815-8.4792175,8.4792099-8.4792175c4.683136,0,8.4792175,3.7960815,8.4792175,8.4792175v189.2039032 C128.8557281,392.6807861,125.0596466,396.4768677,120.3765106,396.4768677z"/></g><g id="change2_4"><path fill="#ee8aa8" d="M333.4432373,380.3340454c-4.683136,0-8.4792175-3.7960815-8.4792175-8.4792175v-95.8476257h-40.1769409 v95.8476257c0,4.683136-3.7960815,8.4792175-8.479187,8.4792175c-4.683136,0-8.4792175-3.7960815-8.4792175-8.4792175V267.5279846 c0-4.683136,3.7960815-8.4792175,8.4792175-8.4792175h57.1353455c4.6831055,0,8.479187,3.7960815,8.479187,8.4792175v104.3268433 C341.9224243,376.5379639,338.1263428,380.3340454,333.4432373,380.3340454z"/></g><g id="change2_5"><path fill="#ee8aa8" d="M216.9223022,339.8523254h-57.1348267c-4.6831207,0-8.4792175-3.7960815-8.4792175-8.4792175v-63.8451233 c0-4.683136,3.7960968-8.4792175,8.4792175-8.4792175h57.1348267c4.683136,0,8.4792175,3.7960815,8.4792175,8.4792175v63.8451233 C225.4015198,336.0562439,221.6054382,339.8523254,216.9223022,339.8523254z M168.2666931,322.8938904H208.4431v-46.8866882 h-40.1764069V322.8938904z"/></g><g id="change2_6"><path fill="#ee8aa8" d="M448.5134888,219.3893738h-36.9060974c-4.683136,0-8.4792175-3.7960815-8.4792175-8.4792175 c0-4.6831207,3.7960815-8.4792175,8.4792175-8.4792175h15.144989L251.2651062,41.1923065L75.7778244,202.4309387h15.1450043 c4.6831284,0,8.4792175,3.7960968,8.4792175,8.4792175c0,4.683136-3.7960892,8.4792175-8.4792175,8.4792175H54.0167084 c-3.4948807,0-6.6316338-2.1441193-7.9006195-5.4009399c-1.2689819-3.2563019-0.4098816-6.9576874,2.1637955-9.3222809 L245.5282745,23.4332542c3.2438812-2.9799385,8.2297668-2.9799385,11.4736481,0L454.2503357,204.666153 c2.5736694,2.3645935,3.4327698,6.065979,2.1637878,9.3222809 C455.1451416,217.2452545,452.0083923,219.3893738,448.5134888,219.3893738z"/></g><g id="change3_4"><path fill="#7cede7" d="M251.2651062,175.7388c-15.7163696,0-28.5024719-12.7861023-28.5024719-28.5024567 s12.7861023-28.5024719,28.5024719-28.5024719s28.5024719,12.7861023,28.5024719,28.5024719 S266.9814758,175.7388,251.2651062,175.7388z M251.2651062,135.6923065c-6.3656311,0-11.5440369,5.1784058-11.5440369,11.5440369 c0,6.3656158,5.1784058,11.5440216,11.5440369,11.5440216s11.5440369-5.1784058,11.5440369-11.5440216 C262.8091431,140.8707123,257.6307373,135.6923065,251.2651062,135.6923065z"/></g><g id="change1_7"><path fill="#1378ec" d="M382.1536865,396.4768677H120.3765106c-4.6831284,0-8.4792099-3.7960815-8.4792099-8.4792175 s3.7960815-8.4792175,8.4792099-8.4792175h261.7771606c4.683136,0,8.4792175,3.7960815,8.4792175,8.4792175 S386.8368225,396.4768677,382.1536865,396.4768677z"/></g><g id="change3_5"><path fill="#7cede7" d="M468.0192261,396.4768677h-67.85495c-4.683136,0-8.4792175-3.7960815-8.4792175-8.4792175 s3.7960815-8.4792175,8.4792175-8.4792175h61.5353699c0.0957642-0.7488708,0.1438904-1.5070496,0.1438904-2.2724915 c0-9.778717-7.9363403-17.7393799-17.7057495-17.7792358l-0.2235718,0.0062256 c-2.5141602,0.0217285-4.828064-1.0179749-6.4613647-2.8686829c-1.6333313-1.8511963-2.3790894-4.3224182-2.0421753-6.7677307 c0.1159058-0.8410034,0.1749268-1.6674805,0.1749268-2.4572449c0-9.8030396-7.9756775-17.778717-17.7792358-17.778717 c-4.4274902,0-8.6691589,1.6369629-11.9430542,4.6086121c-3.4674683,3.1491699-8.8301086,2.8878174-11.9772034-0.5791016 c-3.1476135-3.4674683-2.8883362-8.8301086,0.5791016-11.9772339c6.4008179-5.8108215,14.6906128-9.0107117,23.341156-9.0107117 c17.8439026,0,32.5883484,13.5235901,34.5228882,30.859314c15.1776123,3.717926,26.4727173,17.436615,26.4727173,33.7445068 c0,4.9413757-1.0257568,9.7290649-3.0493164,14.2290039C474.3837891,394.519043,471.356781,396.4768677,468.0192261,396.4768677z"/></g><g id="change3_6"><path fill="#7cede7" d="M99.8357391,396.4768677h-67.85495c-3.337553,0-6.3645878-1.9578247-7.7334557-5.0019226 c-2.0235443-4.499939-3.0492878-9.2876282-3.0492878-14.2290039c0-16.3078918,11.2950993-30.0265808,26.4727077-33.7445068 c1.9345284-17.3357239,16.6789665-30.859314,34.522892-30.859314c8.6505203,0,16.9403229,3.1998901,23.3411407,9.0107117 c3.467453,3.1471252,3.7267303,8.5097656,0.5791168,11.9772339c-3.1476212,3.4684753-8.5102692,3.7272339-11.9772034,0.5791016 c-3.2739029-2.9716492-7.5155792-4.6086121-11.9430542-4.6086121c-9.8035736,0-17.7792358,7.9756775-17.7792358,17.778717 c0,0.7897644,0.0589981,1.6162415,0.1749268,2.4572449c0.3369141,2.4453125-0.408844,4.9165344-2.0421715,6.7677307 c-1.6338425,1.8512268-3.9999924,2.8821411-6.4613686,2.8686829l-0.2271957-0.0062256 c-9.7678642,0.0419312-17.7021217,8.0015564-17.7021217,17.7792358c0,0.7654419,0.04813,1.5236206,0.1438713,2.2724915h61.5353928 c4.6831284,0,8.4792099,3.7960815,8.4792099,8.4792175S104.5188675,396.4768677,99.8357391,396.4768677z"/></g><g id="change1_8"><path fill="#1378ec" d="M382.1536865,135.6923065c-4.683136,0-8.4792175-3.7960815-8.4792175-8.4792175V60.8589745h-31.7520447 v15.5906029c0,4.6831284-3.7960815,8.4792175-8.479187,8.4792175c-4.683136,0-8.4792175-3.7960892-8.4792175-8.4792175V52.3797607 c0-4.6831322,3.7960815-8.4792175,8.4792175-8.4792175h48.7104492c4.683136,0,8.4792175,3.7960854,8.4792175,8.4792175v74.8333282 C390.6329041,131.896225,386.8368225,135.6923065,382.1536865,135.6923065z"/></g></g><g id="change4_1"><path fill="#000000" d="M385.333374,192.1501923v195.8474274c0,1.7558594-1.4237061,3.1796875-3.1796875,3.1796875H120.3764648 c-1.7558594,0-3.1796875-1.4238281-3.1796875-3.1796875V198.7937469c0-1.7561035,1.4238281-3.1796875,3.1796875-3.1796875 c1.7561035,0,3.1796875,1.423584,3.1796875,3.1796875v186.0241852H378.973999V192.1501923 c0-1.7561035,1.4237061-3.1796875,3.1796875-3.1796875S385.333374,190.3940887,385.333374,192.1501923z M333.4432373,375.0344849 c1.7559814,0,3.1796875-1.423584,3.1796875-3.1796875V267.5278931c0-1.7558594-1.4237061-3.1796875-3.1796875-3.1796875h-57.135376 c-1.7559814,0-3.1796875,1.4238281-3.1796875,3.1796875v104.3269043c0,1.7561035,1.4237061,3.1796875,3.1796875,3.1796875 s3.1796875-1.423584,3.1796875-3.1796875V270.7075806h50.7758789v101.1472168 C330.2634277,373.6109009,331.6872559,375.0344849,333.4432373,375.0344849z M216.9223633,264.3482056 c1.7558594,0,3.1796875,1.4238281,3.1796875,3.1796875v63.8452148c0,1.7558594-1.4238281,3.1796875-3.1796875,3.1796875h-57.1348877 c-1.7559814,0-3.1796875-1.4238281-3.1796875-3.1796875v-63.8452148c0-1.7558594,1.4237061-3.1796875,3.1796875-3.1796875 H216.9223633z M213.7426758,270.7075806h-50.7755127v57.4858398h50.7755127V270.7075806z M54.0167236,214.0898895h36.9061279 c1.7559814,0,3.1796875-1.4238281,3.1796875-3.1796875c0-1.7561035-1.4237061-3.1796875-3.1796875-3.1796875H62.177124 L251.2651367,33.9956551l189.0878906,173.7348633h-28.7456055c-1.7561035,0-3.1796875,1.423584-3.1796875,3.1796875 c0,1.7558594,1.423584,3.1796875,3.1796875,3.1796875h36.9060059c1.3105469,0,2.4868164-0.8041992,2.9628906-2.0251465 c0.4755859-1.2214355,0.1538086-2.609375-0.8115234-3.4958496L253.4165039,27.3359852 c-1.2163086-1.1179199-3.0865479-1.1179199-4.3027344,0L51.8653564,208.5688934 c-0.96521,0.8864746-1.2871094,2.2744141-0.8115234,3.4958496 C51.5300293,213.2856903,52.7062988,214.0898895,54.0167236,214.0898895z M274.4680176,147.2363739 c0,12.7944336-10.4084473,23.2028809-23.2028809,23.2028809s-23.2030029-10.4084473-23.2030029-23.2028809 s10.4085693-23.203125,23.2030029-23.203125S274.4680176,134.4419403,274.4680176,147.2363739z M268.1086426,147.2363739 c0-9.2875977-7.5559082-16.8435059-16.8435059-16.8435059s-16.8435059,7.5559082-16.8435059,16.8435059 s7.5559082,16.8435059,16.8435059,16.8435059S268.1086426,156.5239716,268.1086426,147.2363739z M447.237793,347.9776001 c0.0046387-0.2001953,0.0067139-0.3996582,0.0067139-0.5983887c0-16.2316895-13.2058105-29.4375-29.4381104-29.4375 c-7.3308105,0-14.3552246,2.7111816-19.779541,7.6350098c-1.3000488,1.1799316-1.3973389,3.1911621-0.2167969,4.4916992 c1.1799316,1.2995605,3.19104,1.3974609,4.4915771,0.2167969c4.2510986-3.8586426,9.7575684-5.9841309,15.5047607-5.9841309 c12.7255859,0,23.0786133,10.3527832,23.0786133,23.078125c0,1.0310059-0.0754395,2.1013184-0.223999,3.1809082 c-0.1268311,0.9169922,0.15271,1.84375,0.7655029,2.5378418c0.6126709,0.6945801,1.5095215,1.076416,2.4229736,1.0759277 l0.215332-0.0068359c12.7254639,0,23.0782471,10.3532715,23.0782471,23.0788574c0,2.604248-0.4284668,5.1428223-1.2762451,7.5720215 h-65.7025146c-1.7561035,0-3.1796875,1.4238281-3.1796875,3.1796875s1.423584,3.1796875,3.1796875,3.1796875h67.8549805 c1.2513428,0,2.3867188-0.734375,2.9001465-1.8754883c1.7141113-3.8125,2.5830078-7.8686523,2.5830078-12.0559082 C473.5024414,362.0855103,461.9832764,349.5652466,447.237793,347.9776001z M99.8356934,384.8179321H34.1331787 c-0.8477783-2.4291992-1.2762451-4.9677734-1.2762451-7.5720215c0-12.7248535,10.3516846-23.0776367,23.0979004-23.0776367 c0.0009766,0,0.0020752,0,0.0026855,0l0.1929932,0.0056152c0.9180908,0.0087891,1.8103027-0.3813477,2.4229736-1.0759277 c0.612793-0.6940918,0.892334-1.6208496,0.7655029-2.5378418c-0.1485596-1.0795898-0.223999-2.1499023-0.223999-3.1809082 c0-12.7253418,10.3530273-23.078125,23.0786133-23.078125c5.7471924,0,11.2536621,2.1254883,15.5047607,5.9841309 c1.2999268,1.1794434,3.3111572,1.081543,4.4915771-0.2167969c1.180542-1.3005371,1.083252-3.3117676-0.2167969-4.4916992 c-5.4243164-4.9238281-12.4487305-7.6350098-19.779541-7.6350098c-16.2322998,0-29.4381104,13.2058105-29.4381104,29.4375 c0,0.1987305,0.0020752,0.3981934,0.0067139,0.5983887c-14.7454834,1.5876465-26.2646484,14.1079102-26.2646484,29.2683105 c0,4.1872559,0.8688965,8.2434082,2.5830078,12.0559082c0.5134277,1.1411133,1.6488037,1.8754883,2.9001465,1.8754883h67.8549805 c1.7561035,0,3.1796875-1.4238281,3.1796875-3.1796875S101.5917969,384.8179321,99.8356934,384.8179321z M333.4432373,79.6291962 c1.7559814,0,3.1796875-1.423584,3.1796875-3.1796875V55.5593758h42.3510742v71.6535645 c0,1.7561035,1.4237061,3.1799316,3.1796875,3.1799316s3.1796875-1.4238281,3.1796875-3.1799316v-74.833252 c0-1.7558594-1.4237061-3.1796875-3.1796875-3.1796875h-48.7104492c-1.7559814,0-3.1798096,1.4238281-3.1798096,3.1796875 v24.0698204C330.2634277,78.2056122,331.6872559,79.6291962,333.4432373,79.6291962z"/></g></svg>