<?xml version="1.0" encoding="UTF-8"?><svg xmlns="http://www.w3.org/2000/svg" xmlns:xlink="http://www.w3.org/1999/xlink" contentScriptType="text/ecmascript" zoomAndPan="magnify" contentStyleType="text/css" id="Bounds" enable-background="new 0 0 500 368.4894104" version="1.1" xml:space="preserve" width="552" fill="#000000" preserveAspectRatio="xMidYMid meet" viewBox="-26.0 -12.9 552.0 394.2" height="394.2" x="0" y="0"><filter xlink:actuate="onLoad" xlink:type="simple" id="AI_GaussianBlur_4" xlink:show="other" xmlns:xlink="http://www.w3.org/1999/xlink"><feGaussianBlur stdDeviation="4"/></filter><g filter="url(#AI_GaussianBlur_4)"><g id="change1_1"><path fill="#fffdf0" d="M451.5218811,348.5048523H48.4781303c-15.711483,0-28.4935875-12.7825928-28.4935875-28.4940491V48.4786186 c0-15.711483,12.7821045-28.4940758,28.4935875-28.4940758h403.0437622c15.7114563,0,28.4935608,12.7825928,28.4935608,28.4940758 v271.532196C480.0154419,335.7222595,467.2333374,348.5048523,451.5218811,348.5048523z M48.4781303,35.9721794 c-6.8960342,0-12.5059509,5.610405-12.5059509,12.5064392v271.532196c0,6.8960266,5.6099167,12.5064392,12.5059509,12.5064392 h403.0437622c6.8960266,0,12.5059509-5.6104126,12.5059509-12.5064392V48.4786186 c0-6.8960342-5.6099243-12.5064392-12.5059509-12.5064392H48.4781303z"/></g><g id="change2_1"><path fill="#ffee0e" d="M417.096344,322.5249634H80.1957855c-4.4145508,0-7.9938202-3.5787659-7.9938202-7.9938049V53.9582672 c0-4.4150429,3.5792694-7.9938164,7.9938202-7.9938164H417.096344c4.4145508,0,7.9938354,3.5787735,7.9938354,7.9938164v260.572876 C425.0901794,318.9461975,421.5108948,322.5249634,417.096344,322.5249634z M88.1896057,306.537323h320.9129333V61.9520836 H88.1896057V306.537323z"/></g><g id="change3_1"><path fill="#7cede7" d="M56.3431396,223.6980743c-4.4145546,0-7.9938164-3.5787659-7.9938164-7.9938202v-62.9190979 c0-4.4150543,3.5792618-7.9938202,7.9938164-7.9938202s7.9938202,3.5787659,7.9938202,7.9938202v62.9190979 C64.3369598,220.1193085,60.7576942,223.6980743,56.3431396,223.6980743z"/></g><g id="change3_2"><path fill="#7cede7" d="M444.3799438,202.9577637c-10.3182068,0-18.7130737-8.3948669-18.7130737-18.7130585 s8.3948669-18.7125702,18.7130737-18.7125702c10.3181763,0,18.7130432,8.3943787,18.7130432,18.7125702 S454.6981201,202.9577637,444.3799438,202.9577637z M444.3799438,181.5197601 c-1.5027466,0-2.7254333,1.2221985-2.7254333,2.7249451s1.2226868,2.7254333,2.7254333,2.7254333 s2.7254333-1.2226868,2.7254333-2.7254333S445.8826904,181.5197601,444.3799438,181.5197601z"/></g><g id="change3_3"><path fill="#7cede7" d="M307.5199585,255.1576385h-115.039917c-3.4046021,0-6.4364319-2.1570282-7.5527649-5.3742676 l-30.4120178-87.6738892c-0.8470001-2.4439087-0.4605865-5.1464081,1.0392303-7.2541504s3.926651-3.3592224,6.5135193-3.3592224 h175.8639679c2.5868835,0,5.0137024,1.2514801,6.5135193,3.3592224s1.886261,4.8102417,1.0392456,7.2541504l-30.4120178,87.6738892 C313.9563904,253.0006104,310.9245605,255.1576385,307.5199585,255.1576385z M198.1680145,239.1699982h103.6639557 l24.8665161-71.6862488H173.3015137L198.1680145,239.1699982z"/></g><g id="change3_4"><path fill="#7cede7" d="M204.1018982,145.6222382c-1.2363434,0-2.4912262-0.287384-3.6651306-0.8948212 c-3.9217682-2.0282135-5.4567108-6.8511505-3.428009-10.7729187l18.5666962-35.8989868 c2.0277252-3.9212875,6.8491974-5.4572067,10.7719421-3.4280167c3.9217682,2.0282135,5.4567108,6.8511505,3.428009,10.7729187 l-18.5666962,35.8989944C209.7879333,144.0463104,206.9951782,145.6222382,204.1018982,145.6222382z"/></g><g id="change3_5"><path fill="#7cede7" d="M295.8981018,145.6222382c-2.8942566,0-5.6860352-1.5754395-7.1068115-4.3228302l-18.5667114-35.8989944 c-2.0286865-3.9217682-0.4937439-8.7447052,3.4280396-10.7729187c3.9217529-2.0282135,8.7442017-0.4927826,10.7719421,3.4280167 l18.5666809,35.8989868c2.028717,3.9217682,0.4937439,8.7447052-3.428009,10.7729187 C298.3893433,145.3343658,297.1344299,145.6222382,295.8981018,145.6222382z"/></g><g id="change3_6"><path fill="#7cede7" d="M212.3201599,239.9872437c-3.7080688,0-7.0326538-2.5937042-7.8181763-6.3666687l-9.669281-46.4606476 c-0.8996887-4.3223419,1.874527-8.5553894,6.1973572-9.4546051c4.327713-0.9026184,8.5549164,1.8750153,9.4546051,6.1973572 l9.669281,46.4606476c0.8996887,4.3223419-1.874527,8.5554047-6.1973572,9.4546051 C213.4072113,239.9325867,212.859787,239.9872437,212.3201599,239.9872437z"/></g><g id="change3_7"><path fill="#7cede7" d="M237.4345245,239.9862671c-4.1637726,0-7.6747284-3.2250519-7.9664917-7.4410248l-3.2230988-46.4606476 c-0.3054199-4.4043121,3.0171967-8.2221527,7.4210205-8.5280762c4.4145508-0.2907867,8.2231293,3.0176849,8.5275879,7.4215088 l3.2230835,46.4606476c0.3054352,4.4043121-3.0171967,8.222641-7.4210205,8.5280762 C237.8072815,239.9794312,237.6199341,239.9862671,237.4345245,239.9862671z"/></g><g id="change3_8"><path fill="#7cede7" d="M262.5654907,239.9862671c-0.1854248,0-0.3727722-0.0063477-0.5610962-0.019516 c-4.4038391-0.3054352-7.7264557-4.123764-7.4210205-8.5280762l3.2230835-46.4606476 c0.3044434-4.4033356,4.1228027-7.7288818,8.5275879-7.4215088c4.4038086,0.3059235,7.7264404,4.123764,7.4210205,8.5280762 l-3.2230835,46.4606476C270.2402039,236.7612152,266.7282715,239.9862671,262.5654907,239.9862671z"/></g><g id="change3_9"><path fill="#7cede7" d="M287.6798401,239.9872437c-0.5396118,0-1.0870361-0.054657-1.6364136-0.1693115 c-4.3228455-0.8992004-7.0970764-5.1322632-6.1973572-9.4546051l9.669281-46.4606476 c0.8987122-4.3218536,5.1278687-7.1014404,9.4545898-6.1973572c4.3228149,0.8992157,7.0970459,5.1322632,6.1973572,9.4546051 l-9.669281,46.4606476C294.7134705,237.3935394,291.3869324,239.9872437,287.6798401,239.9872437z"/></g><g id="change3_10"><path fill="#7cede7" d="M337.9319763,167.4837494H162.0680084c-4.4145508,0-7.9938202-3.5787811-7.9938202-7.9938202v-21.8629761 c0-4.4150391,3.5792694-7.9938202,7.9938202-7.9938202h175.8639679c4.4145813,0,7.9938354,3.5787811,7.9938354,7.9938202 v21.8629761C345.9258118,163.9049683,342.3465576,167.4837494,337.9319763,167.4837494z M170.0618286,151.496109h159.8763428 v-5.8753357H170.0618286V151.496109z"/></g><g id="change1_2"><path fill="#fffdf0" d="M451.5218811,348.5048523H48.4781303c-15.711483,0-28.4935875-12.7825928-28.4935875-28.4940491V48.4786186 c0-15.711483,12.7821045-28.4940758,28.4935875-28.4940758h403.0437622c15.7114563,0,28.4935608,12.7825928,28.4935608,28.4940758 v271.532196C480.0154419,335.7222595,467.2333374,348.5048523,451.5218811,348.5048523z M48.4781303,35.9721794 c-6.8960342,0-12.5059509,5.610405-12.5059509,12.5064392v271.532196c0,6.8960266,5.6099167,12.5064392,12.5059509,12.5064392 h403.0437622c6.8960266,0,12.5059509-5.6104126,12.5059509-12.5064392V48.4786186 c0-6.8960342-5.6099243-12.5064392-12.5059509-12.5064392H48.4781303z"/></g><g id="change2_2"><path fill="#ffee0e" d="M417.096344,322.5249634H80.1957855c-4.4145508,0-7.9938202-3.5787659-7.9938202-7.9938049V53.9582672 c0-4.4150429,3.5792694-7.9938164,7.9938202-7.9938164H417.096344c4.4145508,0,7.9938354,3.5787735,7.9938354,7.9938164v260.572876 C425.0901794,318.9461975,421.5108948,322.5249634,417.096344,322.5249634z M88.1896057,306.537323h320.9129333V61.9520836 H88.1896057V306.537323z"/></g><g id="change3_11"><path fill="#7cede7" d="M56.3431396,223.6980743c-4.4145546,0-7.9938164-3.5787659-7.9938164-7.9938202v-62.9190979 c0-4.4150543,3.5792618-7.9938202,7.9938164-7.9938202s7.9938202,3.5787659,7.9938202,7.9938202v62.9190979 C64.3369598,220.1193085,60.7576942,223.6980743,56.3431396,223.6980743z"/></g><g id="change3_12"><path fill="#7cede7" d="M444.3799438,202.9577637c-10.3182068,0-18.7130737-8.3948669-18.7130737-18.7130585 s8.3948669-18.7125702,18.7130737-18.7125702c10.3181763,0,18.7130432,8.3943787,18.7130432,18.7125702 S454.6981201,202.9577637,444.3799438,202.9577637z M444.3799438,181.5197601 c-1.5027466,0-2.7254333,1.2221985-2.7254333,2.7249451s1.2226868,2.7254333,2.7254333,2.7254333 s2.7254333-1.2226868,2.7254333-2.7254333S445.8826904,181.5197601,444.3799438,181.5197601z"/></g><g id="change3_13"><path fill="#7cede7" d="M307.5199585,255.1576385h-115.039917c-3.4046021,0-6.4364319-2.1570282-7.5527649-5.3742676 l-30.4120178-87.6738892c-0.8470001-2.4439087-0.4605865-5.1464081,1.0392303-7.2541504s3.926651-3.3592224,6.5135193-3.3592224 h175.8639679c2.5868835,0,5.0137024,1.2514801,6.5135193,3.3592224s1.886261,4.8102417,1.0392456,7.2541504l-30.4120178,87.6738892 C313.9563904,253.0006104,310.9245605,255.1576385,307.5199585,255.1576385z M198.1680145,239.1699982h103.6639557 l24.8665161-71.6862488H173.3015137L198.1680145,239.1699982z"/></g><g id="change3_14"><path fill="#7cede7" d="M204.1018982,145.6222382c-1.2363434,0-2.4912262-0.287384-3.6651306-0.8948212 c-3.9217682-2.0282135-5.4567108-6.8511505-3.428009-10.7729187l18.5666962-35.8989868 c2.0277252-3.9212875,6.8491974-5.4572067,10.7719421-3.4280167c3.9217682,2.0282135,5.4567108,6.8511505,3.428009,10.7729187 l-18.5666962,35.8989944C209.7879333,144.0463104,206.9951782,145.6222382,204.1018982,145.6222382z"/></g><g id="change3_15"><path fill="#7cede7" d="M295.8981018,145.6222382c-2.8942566,0-5.6860352-1.5754395-7.1068115-4.3228302l-18.5667114-35.8989944 c-2.0286865-3.9217682-0.4937439-8.7447052,3.4280396-10.7729187c3.9217529-2.0282135,8.7442017-0.4927826,10.7719421,3.4280167 l18.5666809,35.8989868c2.028717,3.9217682,0.4937439,8.7447052-3.428009,10.7729187 C298.3893433,145.3343658,297.1344299,145.6222382,295.8981018,145.6222382z"/></g><g id="change3_16"><path fill="#7cede7" d="M212.3201599,239.9872437c-3.7080688,0-7.0326538-2.5937042-7.8181763-6.3666687l-9.669281-46.4606476 c-0.8996887-4.3223419,1.874527-8.5553894,6.1973572-9.4546051c4.327713-0.9026184,8.5549164,1.8750153,9.4546051,6.1973572 l9.669281,46.4606476c0.8996887,4.3223419-1.874527,8.5554047-6.1973572,9.4546051 C213.4072113,239.9325867,212.859787,239.9872437,212.3201599,239.9872437z"/></g><g id="change3_17"><path fill="#7cede7" d="M237.4345245,239.9862671c-4.1637726,0-7.6747284-3.2250519-7.9664917-7.4410248l-3.2230988-46.4606476 c-0.3054199-4.4043121,3.0171967-8.2221527,7.4210205-8.5280762c4.4145508-0.2907867,8.2231293,3.0176849,8.5275879,7.4215088 l3.2230835,46.4606476c0.3054352,4.4043121-3.0171967,8.222641-7.4210205,8.5280762 C237.8072815,239.9794312,237.6199341,239.9862671,237.4345245,239.9862671z"/></g><g id="change3_18"><path fill="#7cede7" d="M262.5654907,239.9862671c-0.1854248,0-0.3727722-0.0063477-0.5610962-0.019516 c-4.4038391-0.3054352-7.7264557-4.123764-7.4210205-8.5280762l3.2230835-46.4606476 c0.3044434-4.4033356,4.1228027-7.7288818,8.5275879-7.4215088c4.4038086,0.3059235,7.7264404,4.123764,7.4210205,8.5280762 l-3.2230835,46.4606476C270.2402039,236.7612152,266.7282715,239.9862671,262.5654907,239.9862671z"/></g><g id="change3_19"><path fill="#7cede7" d="M287.6798401,239.9872437c-0.5396118,0-1.0870361-0.054657-1.6364136-0.1693115 c-4.3228455-0.8992004-7.0970764-5.1322632-6.1973572-9.4546051l9.669281-46.4606476 c0.8987122-4.3218536,5.1278687-7.1014404,9.4545898-6.1973572c4.3228149,0.8992157,7.0970459,5.1322632,6.1973572,9.4546051 l-9.669281,46.4606476C294.7134705,237.3935394,291.3869324,239.9872437,287.6798401,239.9872437z"/></g><g id="change3_20"><path fill="#7cede7" d="M337.9319763,167.4837494H162.0680084c-4.4145508,0-7.9938202-3.5787811-7.9938202-7.9938202v-21.8629761 c0-4.4150391,3.5792694-7.9938202,7.9938202-7.9938202h175.8639679c4.4145813,0,7.9938354,3.5787811,7.9938354,7.9938202 v21.8629761C345.9258118,163.9049683,342.3465576,167.4837494,337.9319763,167.4837494z M170.0618286,151.496109h159.8763428 v-5.8753357H170.0618286V151.496109z"/></g></g><g id="change4_1"><path fill="#000000" d="M451.5219727,24.9806671H48.4780273c-12.956543,0-23.4973145,10.5411377-23.4973145,23.4979248v271.5322266 c0,12.9567871,10.5407715,23.4979248,23.4973145,23.4979248h403.0439453c12.956543,0,23.4973145-10.5411377,23.4973145-23.4979248 V48.4785919C475.0192871,35.5218048,464.4785156,24.9806671,451.5219727,24.9806671z M469.0239258,320.0108337 c0,9.6506348-7.8513184,17.5025635-17.5019531,17.5025635H48.4780273c-9.6506348,0-17.5019531-7.8519287-17.5019531-17.5025635 V48.4785919c0-9.6507568,7.8513184-17.5025635,17.5019531-17.5025635h403.0439453 c9.6506348,0,17.5019531,7.8518066,17.5019531,17.5025635V320.0108337z M417.0964355,50.9605255H80.1958008 c-1.6560059,0-2.9975586,1.3422852-2.9975586,2.9978027v260.5727539c0,1.6555176,1.3415527,2.9978027,2.9975586,2.9978027 h336.9006348c1.6560059,0,2.9975586-1.3422852,2.9975586-2.9978027V53.9583282 C420.0939941,52.3028107,418.7524414,50.9605255,417.0964355,50.9605255z M414.0986328,311.5335388H83.1933594V56.9558868 h330.9052734V311.5335388z M59.3408203,152.7851105v62.9190674c0,1.6555176-1.3417969,2.9978027-2.9975586,2.9978027 c-1.6560059,0-2.9978027-1.3422852-2.9978027-2.9978027v-62.9190674c0-1.6553955,1.3417969-2.9976807,2.9978027-2.9976807 C57.9990234,149.7874298,59.3408203,151.129715,59.3408203,152.7851105z M444.3798828,170.5282745 c-7.5634766,0-13.7167969,6.1529541-13.7167969,13.7164307s6.1533203,13.7169189,13.7167969,13.7169189 s13.717041-6.1534424,13.717041-13.7169189S451.9433594,170.5282745,444.3798828,170.5282745z M444.3798828,191.9662628 c-4.2573242,0-7.7214355-3.4641113-7.7214355-7.7215576s3.4641113-7.7210693,7.7214355-7.7210693 c4.2575684,0,7.7216797,3.463623,7.7216797,7.7210693S448.6374512,191.9662628,444.3798828,191.9662628z M159.1115723,159.8999786 c0.020752,0.1503906,0.0529785,0.2954102,0.095459,0.4379883c0.0129395,0.0444336,0.013916,0.0905762,0.0292969,0.1345215 l30.4118652,87.6739502c0.4187012,1.2061768,1.5544434,2.0150146,2.8317871,2.0150146h115.0400391 c1.2773438,0,2.4130859-0.8088379,2.8317871-2.0150146l30.4118652-87.6739502 c0.0153809-0.0439453,0.0163574-0.0900879,0.0292969-0.1345215c0.0424805-0.1425781,0.074707-0.2875977,0.095459-0.4379883 c0.0114746-0.0830078,0.0202637-0.1645508,0.0249023-0.2478027c0.0029297-0.0548096,0.0163574-0.1066895,0.0163574-0.1623535 v-21.862915c0-1.6553955-1.3417969-2.9976807-2.9975586-2.9976807h-40.2163086l-17.7282715-34.2780762 c-0.7609863-1.4707031-2.5693359-2.0473633-4.0397949-1.2856445c-1.4707031,0.7606201-2.0463867,2.5688477-1.2861328,4.0393066 l16.3041992,31.5244141h-81.9316406l16.3041992-31.5244141c0.7602539-1.470459,0.1845703-3.2786865-1.2861328-4.0393066 c-1.4694824-0.7617188-3.2797852-0.1850586-4.0397949,1.2856445l-17.7282715,34.2780762h-40.2163086 c-1.6557617,0-2.9975586,1.3422852-2.9975586,2.9976807v21.862915c0,0.0556641,0.0134277,0.1075439,0.0163574,0.1623535 C159.0913086,159.7354279,159.1000977,159.8169708,159.1115723,159.8999786z M305.3867188,244.1660919H194.6132813 l-28.3327637-81.6784668h167.4389648L305.3867188,244.1660919z M165.0656738,140.624588h39.0366211 c0.0012207,0,0.0021973,0.0004883,0.0036621,0.0004883c0.0009766,0,0.0019531-0.0004883,0.0029297-0.0004883h91.7822266 c0.0009766,0,0.0019531,0.0004883,0.0029297,0.0004883c0.0014648,0,0.0024414-0.0004883,0.0036621-0.0004883h39.0366211v15.8676758 H165.0656738V140.624588z M199.7233887,186.1421661c-0.3366699-1.6208496,0.7036133-3.2084961,2.3244629-3.5456543 c1.6208496-0.3391113,3.2084961,0.7036133,3.5461426,2.3239746l9.6691895,46.4605713 c0.3366699,1.6208496-0.7036133,3.2084961-2.3242188,3.5456543c-0.2060547,0.0428467-0.4118652,0.0633545-0.6140137,0.0633545 c-1.3903809,0-2.6374512-0.9724121-2.9321289-2.387207L199.7233887,186.1421661z M234.451416,232.199295l-3.2229004-46.4606934 c-0.1142578-1.6514893,1.1318359-3.0830078,2.782959-3.1977539c1.6791992-0.1135254,3.0834961,1.1315918,3.1984863,2.7830811 l3.2231445,46.4605713c0.1142578,1.6516113-1.1318359,3.0831299-2.782959,3.1977539 c-0.0712891,0.0048828-0.1413574,0.0073242-0.2106934,0.0073242 C235.8781738,234.9895782,234.5617676,233.7805939,234.451416,232.199295z M259.5668945,231.7845001l3.2231445-46.4605713 c0.1149902-1.651001,1.517334-2.8961182,3.1984863-2.7830811c1.651123,0.1147461,2.8972168,1.5462646,2.782959,3.1977539 l-3.2229004,46.4606934c-0.1103516,1.5808105-1.4267578,2.7902832-2.9880371,2.7902832 c-0.0693359,0-0.1394043-0.0024414-0.2106934-0.0073242C260.6987305,234.86763,259.4526367,233.4361115,259.5668945,231.7845001z M284.7368164,231.3810577l9.6691895-46.4605713c0.3366699-1.6203613,1.9213867-2.6630859,3.5461426-2.3239746 c1.6208496,0.3371582,2.6611328,1.9248047,2.3244629,3.5456543l-9.6694336,46.4606934 c-0.2946777,1.4147949-1.541748,2.387207-2.9321289,2.387207c-0.2021484,0-0.407959-0.0205078-0.6140137-0.0633545 C285.4404297,234.5895538,284.4001465,233.0019073,284.7368164,231.3810577z"/></g></svg>