<?xml version="1.0" encoding="UTF-8"?><svg xmlns="http://www.w3.org/2000/svg" xmlns:xlink="http://www.w3.org/1999/xlink" contentScriptType="text/ecmascript" zoomAndPan="magnify" contentStyleType="text/css" id="Bounds" enable-background="new 0 0 500 449.407196" version="1.1" xml:space="preserve" width="551.9" fill="#000000" preserveAspectRatio="xMidYMid meet" viewBox="-26.0 -21.9 551.9 492.1" height="492.1" x="0" y="0"><filter xlink:actuate="onLoad" xlink:type="simple" id="AI_GaussianBlur_4" xlink:show="other" xmlns:xlink="http://www.w3.org/1999/xlink"><feGaussianBlur stdDeviation="4"/></filter><g><g filter="url(#AI_GaussianBlur_4)"><g id="change1_1"><path fill="#ffee0e" d="M263.8775635,373.3646545H117.7693024c-4.4590912,0-8.0735703-3.6144714-8.0735703-8.0735779V152.4260864 l-24.1088486,20.8954773c-3.2863007,2.8467407-8.235199,2.5811462-11.1967621-0.5992126l-52.042099-55.8945847 c-1.5364628-1.6502914-2.3130703-3.8677673-2.1415863-6.1162796c0.171978-2.248024,1.2757854-4.3220978,3.044836-5.7200928 l80.6997223-63.7666168c17.1701355-13.5674782,38.6776505-21.0393753,60.5611343-21.0393753h24.0344391 c3.345932,0,6.3449402,2.0637283,7.54039,5.1883926c0.5193939,1.3176708,13.514267,33.1221352,53.912674,33.1221352 c40.7674866,0,53.7860107-32.7909927,53.9126587-33.1221352c1.1954651-3.1246643,4.194458-5.1883926,7.5403748-5.1883926 h24.0344543c21.8834839,0,43.3909912,7.4718971,60.5611267,21.0393753l80.6997375,63.7666168 c1.769043,1.397995,2.8728638,3.4720688,3.0448303,5.7200928c0.1714783,2.2485123-0.6051331,4.4659882-2.141571,6.1162796 l-52.0421143,55.8945847c-2.9630432,3.1808472-7.9119263,3.4454651-11.1967468,0.5992126l-24.1088562-20.8954773v118.1483765 c0,4.4591064-3.6144714,8.0735779-8.0735779,8.0735779c-4.4590759,0-8.0735779-3.6144714-8.0735779-8.0735779V134.7449493 c0-3.1611328,1.8449402-6.0310364,4.7202759-7.3442764c2.8753357-1.3132324,6.2513123-0.8268661,8.6412354,1.2432632 l31.5827332,27.3729706l40.7664795-43.784729l-73.8299866-58.3382416 c-14.3317566-11.3248787-32.2839355-17.5613937-50.5499878-17.5613937h-18.9524841 c-6.2330627,11.5806236-25.1096802,38.310524-66.5350037,38.310524s-60.3019409-26.7299004-66.5350037-38.310524h-18.9524994 c-18.2660522,0-36.2182159,6.236515-50.5499802,17.5613937l-73.8300018,58.3382416l40.7665024,43.784729l31.5827179-27.3729706 c2.3899384-2.0706253,5.7669067-2.5545273,8.641243-1.2432632c2.8753204,1.3132401,4.7202606,4.1831436,4.7202606,7.3442764 v222.47258h138.0346985c4.4590759,0,8.0735474,3.6144714,8.0735474,8.0735474 C271.9511108,369.7501831,268.3366394,373.3646545,263.8775635,373.3646545z"/></g><g id="change1_2"><path fill="#ffee0e" d="M418.3511047,429.2232666H263.3093872c-4.4590759,0-8.0735626-3.6144714-8.0735626-8.0735779 c0-35.2523804,28.6797943-63.9321594,63.9316864-63.9321594h11.6594849v-57.4995728 c0-4.4590759,3.6144714-8.0735474,8.0735474-8.0735474h79.4505615c4.4590759,0,8.0735779,3.6144714,8.0735779,8.0735474 v121.4317322C426.4246826,425.6087952,422.8101807,429.2232666,418.3511047,429.2232666z M272.0649414,413.0761414h138.2125854 V307.7915344h-63.3034058v57.4995422c0,4.4591064-3.6144714,8.0735779-8.0735779,8.0735779H319.167511 C295.5706482,373.3646545,275.9135132,390.5594177,272.0649414,413.0761414z"/></g><g id="change2_1"><path fill="#ffee0e" d="M249.9996338,96.1535339c-47.2829132,0-71.9052429-27.8366699-82.3741608-44.4302559 c-2.3791046-3.7706909-1.2506561-8.7565536,2.5205231-11.1361465c3.7716675-2.3781166,8.7580261-1.2501602,11.1361389,2.5205269 c8.6939697,13.7803574,29.1829224,36.898735,68.7174988,36.898735c39.5360413,0,60.0235291-23.1188698,68.7174988-36.8997192 c2.3786011-3.770195,7.3629761-4.8996277,11.1361389-2.5205269c3.7711792,2.3791008,4.8996277,7.3649635,2.5205078,11.1361427 C321.905365,68.3158798,297.2840271,96.1535339,249.9996338,96.1535339z"/></g><g id="change1_3"><path fill="#ffee0e" d="M249.9996338,74.6430664c-51.7548218,0-68.3139191-41.7229691-68.993454-43.4989166 c-1.5936127-4.1644115,0.490799-8.8324375,4.6552124-10.4255676c4.1634369-1.5921459,8.8329315,0.490799,10.4255676,4.6552124 c0.5193939,1.3176708,13.514267,33.1221352,53.912674,33.1221352s53.39328-31.8044643,53.9264526-33.1585999 c1.6290894-4.1338615,6.2986145-6.1946316,10.4413452-4.5857334c4.1422424,1.608408,6.2133484,6.2424316,4.6256409,10.3925533 C318.3135376,32.9200974,301.7544556,74.6430664,249.9996338,74.6430664z"/></g><g id="change2_2"><path fill="#ffee0e" d="M210.2664642,215.6363525c-6.7494812,0.0004883-13.500946-2.4850464-18.6716003-7.4664764 l-0.3444519-0.3321228c-4.1713104-4.0170746-10.918335-3.9751892-15.0379028,0.0955963 c-3.1724701,3.1350098-8.2844849,3.1024933-11.4175262-0.0680084c-3.1340179-3.1719666-3.1034698-8.2834778,0.0680084-11.417511 c10.3003998-10.1777039,27.1630402-10.2826691,37.5920563-0.2365265l0.3444519,0.3321228 c4.1708221,4.0180664,10.918335,3.9751892,15.0379181-0.0955963 c10.2999115-10.1767273,27.1630402-10.2826691,37.5920563-0.2365265l0.3410034,0.3276825 c4.1747742,4.0225067,10.9212952,3.9791412,15.0418396-0.091156 c10.2994385-10.1777039,27.1625671-10.2836456,37.5915833-0.2365265l0.3410034,0.3276825 c4.1747437,4.0225067,10.9212952,3.9791412,15.0418396-0.091156c3.1724854-3.1345215,8.2839966-3.102005,11.4175415,0.0680084 c3.1340027,3.1719666,3.1034546,8.2834778-0.0680237,11.417511c-10.299408,10.1772156-27.1630554,10.2846375-37.5920715,0.2365265 l-0.3409729-0.3276825c-4.1752625-4.0225067-10.9223022-3.9801178-15.0413818,0.091156 c-10.3003845,10.1772156-27.1640167,10.2836456-37.5920563,0.2365265l-0.3410034-0.3276825 c-4.1752472-4.0225067-10.9227753-3.9801178-15.0418549,0.091156 C223.9940948,213.0650787,217.1307831,215.6363525,210.2664642,215.6363525z"/></g><g id="change2_3"><path fill="#ffee0e" d="M197.1089783,254.2883759c-6.7499847,0-13.5009613-2.4850464-18.6716156-7.4664764l-0.3409882-0.3276978 c-4.1752625-4.0234833-10.9227753-3.9801178-15.0418549,0.0911713c-3.1729584,3.1350098-8.2839813,3.1034698-11.4175262-0.0680084 c-3.1340179-3.1719666-3.1034698-8.283493,0.0680084-11.417511c10.2994232-10.1772156,27.1630402-10.2846375,37.5920715-0.2365417 l0.3409882,0.3276978c4.1747589,4.0215149,10.9208069,3.979126,15.0413666-0.091156 c10.2999115-10.1782074,27.164032-10.2836609,37.5920563-0.2365417l0.3410034,0.3276978 c4.1747589,4.0215149,10.9212952,3.979126,15.0418396-0.091156c10.2979431-10.1777039,27.1620789-10.2841492,37.5920715-0.2365417 l0.3444519,0.3321381c4.1713257,4.0170746,10.918335,3.9761658,15.0379028-0.0955963 c10.2999268-10.1782074,27.1630554-10.2826691,37.5920715-0.2365417 c3.2113953,3.0931396,3.3065186,8.2041626,0.2128906,11.4155579c-3.0931396,3.21138-8.2036743,3.3074799-11.4155579,0.2128754 c-4.1727905-4.019043-10.9193115-3.9786377-15.0398865,0.0936279 c-10.2998962,10.1781769-27.1630249,10.2826691-37.592041,0.2365265l-0.3444519-0.3321228 c-4.1713257-4.0180664-10.9183655-3.9751892-15.0379333,0.0955963 c-10.3003845,10.1772003-27.1635284,10.2826691-37.5920563,0.2365265l-0.3409882-0.3276978 c-4.1732941-4.0224915-10.9213104-3.9796143-15.0418549,0.0911713 C210.8361206,251.7170868,203.9732819,254.2878876,197.1089783,254.2883759z"/></g></g><g><g id="change3_1"><path fill="#000000" d="M263.8775635,368.3186646H117.7693024c-1.6719742,0-3.0275879-1.3555908-3.0275879-3.0275879V141.3751831 l-32.4598541,28.133316c-1.231926,1.0678406-3.0886917,0.967804-4.1989059-0.2247009l-52.042099-55.8945923 c-0.5760498-0.6189194-0.8672771-1.4507217-0.8027248-2.2938538c0.0640602-0.8426361,0.4784813-1.6207199,1.1417522-2.1450348 l80.6997223-63.766613c16.2831421-12.8662643,36.6794586-19.9523201,57.4325256-19.9523201h24.0344391 c1.2546082,0,2.3791046,0.7736511,2.8275299,1.9454613c0.5726013,1.4802856,14.5697784,36.3650665,58.6255341,36.3650665 s58.0529175-34.8847809,58.6275024-36.3699951c0.4508667-1.1663914,1.5748901-1.9405346,2.825531-1.9405346h24.0344543 c20.7530823,0,41.1493835,7.0860558,57.4325256,19.9523201l80.6997375,63.766613 c0.663269,0.5243149,1.0776978,1.3023987,1.1417542,2.1450348c0.0645447,0.843132-0.2266846,1.6749344-0.8027344,2.2938538 l-52.0421143,55.8945923c-1.1111755,1.1929932-2.96698,1.2930298-4.1988831,0.2247009l-32.4598694-28.133316v129.1992798 c0,1.6719971-1.3556213,3.0275879-3.0275879,3.0275879s-3.0275879-1.3555908-3.0275879-3.0275879V134.7449493 c0-1.1856232,0.691864-2.2618256,1.77005-2.7541046c1.0776978-0.4932709,2.3446045-0.3094635,3.240448,0.466156 l35.2627563,30.5621948l47.8136292-51.3532104L389.1657104,49.935009 c-15.21875-12.0255966-34.2821045-18.6484489-53.6785889-18.6484489h-22.0574341 c-1.6133423,3.42033-5.6245117,10.8286552-13.0076904,18.2611313 c-9.0852356,9.1468239-25.2082214,20.0494003-50.4223633,20.0494003s-41.3371429-10.9025764-50.4223633-20.0494003 c-7.383194-7.432476-11.3943634-14.8408012-13.0076904-18.2611313h-22.0574493 c-19.3964691,0-38.4598312,6.6228523-53.6785889,18.6484489l-78.1235199,61.7309761l47.8136253,51.3532104l35.2627335-30.5621948 c0.8953705-0.7756195,2.1608047-0.9594269,3.2404709-0.466156c1.0781784,0.4922791,1.7700348,1.5684814,1.7700348,2.7541046 v227.5185394h143.0806732c1.6719666,0,3.0275879,1.3556213,3.0275879,3.0275879 C266.9051514,366.9630737,265.54953,368.3186646,263.8775635,368.3186646z"/></g><g id="change3_2"><path fill="#000000" d="M418.3511047,424.1772766H263.3093872c-1.6719666,0-3.0275879-1.3555908-3.0275879-3.0275879 c0-32.469696,26.4160156-58.8862,58.8857117-58.8862h16.7054443v-62.5455322c0-1.6719666,1.3556213-3.0275879,3.0275879-3.0275879 h79.4505615c1.6719666,0,3.0275879,1.3556213,3.0275879,3.0275879v121.4317322 C421.3786926,422.8216858,420.0230713,424.1772766,418.3511047,424.1772766z M266.4227295,418.1221008h148.9007874V302.745575 h-73.3953857v62.5455017c0,1.6719971-1.3556213,3.0275879-3.0275879,3.0275879H319.167511 C291.0519409,368.3186646,267.995636,390.3928833,266.4227295,418.1221008z"/></g><g id="change3_3"><path fill="#000000" d="M249.9996338,91.1075516c-44.8614349,0-68.1921997-26.3622894-78.1062775-42.0767784 c-0.8924103-1.4137611-0.4691162-3.2838287,0.9451447-4.1757469c1.4147491-0.8914223,3.2838287-0.468132,4.1757355,0.945137 c9.2488403,14.659462,31.0293427,39.2522125,72.9853973,39.2522125c41.9570313,0,63.73703-24.5932426,72.9853821-39.2532005 c0.8909302-1.4147453,2.7595215-1.8395157,4.1757507-0.9451332c1.4142456,0.8919144,1.8375244,2.7614899,0.9451294,4.1757469 C318.1923218,64.7447662,294.8625488,91.1075516,249.9996338,91.1075516z"/></g><g id="change3_4"><path fill="#000000" d="M249.9996338,69.5970917c-25.2141418,0-41.3371429-10.9030685-50.4223633-20.0494003 c-9.8519897-9.9175224-13.6995392-19.7911854-13.8582153-20.2065926 c-0.5977325-1.5620861,0.1838074-3.3124104,1.7453918-3.9096489c1.5630798-0.5992107,3.3119202,0.1833096,3.9096527,1.7453957 c0.5726013,1.4802856,14.5697784,36.3650665,58.6255341,36.3650665s58.0529175-34.8847809,58.6275024-36.3699951 c0.6021729-1.5571594,2.3505249-2.3367233,3.9116211-1.7360344c1.5586243,0.5992088,2.3381958,2.3450985,1.7414551,3.9052143 c-0.1586914,0.4154072-4.0062561,10.2890701-13.8582153,20.2065926 C291.3367615,58.6940231,275.2137756,69.5970917,249.9996338,69.5970917z"/></g><g id="change3_5"><path fill="#000000" d="M210.2674561,210.6026917c-5.4845428,0.0004883-10.9705811-2.0193787-15.1719513-6.0665131 l-0.3429565-0.3311462c-6.127121-5.9014282-16.0352936-5.8398285-22.0870209,0.1389618 c-1.1890564,1.1752625-3.1059265,1.1644287-4.281189-0.0256195c-1.1752625-1.1890564-1.1639252-3.1059418,0.0256195-4.2812042 c8.3677521-8.2687073,22.0702515-8.355423,30.5444489-0.1921692l0.3429718,0.331131 c6.1266174,5.9019318,16.03479,5.840332,22.0865173-0.1389618c8.3687286-8.2691956,22.071228-8.3549347,30.5449371-0.1921692 l0.34198,0.3296661c6.1290894,5.9043884,16.037262,5.8417969,22.088501-0.1374969 c8.3677368-8.2687073,22.0697327-8.355423,30.5439453-0.1921692l0.34198,0.3296661 c6.1290894,5.9043884,16.0377502,5.8417969,22.0884705-0.1374969c1.1895752-1.1752472,3.105957-1.1644135,4.2812195,0.0256348 c1.1752625,1.1890564,1.1639099,3.1059418-0.0256348,4.281189c-8.3687439,8.2701874-22.0707397,8.3554382-30.5444336,0.1921844 l-0.34198-0.3296661c-6.1276245-5.9029083-16.0362854-5.8423004-22.0875244,0.1374817 c-8.3697205,8.2692108-22.0707397,8.3554382-30.5449219,0.1921844l-0.3419952-0.3296661 c-6.1276093-5.9029083-16.0362549-5.8417969-22.0884857,0.1374817 C221.4208527,208.5138397,215.8446503,210.6026917,210.2674561,210.6026917z"/></g><g id="change3_6"><path fill="#000000" d="M197.1094666,249.254715c-5.4840546,0-10.9700775-2.0193787-15.1714478-6.0665131l-0.34198-0.3296661 c-6.1281128-5.9033966-16.0367584-5.8413086-22.0884857,0.1374817c-1.1890717,1.1752625-3.1059418,1.1644135-4.2812042-0.0256195 c-1.1752625-1.1890564-1.1639252-3.1059418,0.0256195-4.2812042c8.3687439-8.2696838,22.0702515-8.3549347,30.5444489-0.1921844 l0.34198,0.3296661c6.1276245,5.9029083,16.0362701,5.8423004,22.0875092-0.1374817 c8.3697205-8.2696838,22.0707397-8.3549347,30.5449371-0.1921844l0.34198,0.3296661 c6.1286011,5.9039001,16.0372467,5.8423004,22.088501-0.1374817c8.3682251-8.2701874,22.0707397-8.3549347,30.5444336-0.1921844 l0.3429565,0.3311462c6.1281128,5.90242,16.0362854,5.8408203,22.0870361-0.1389618 c8.3677368-8.2687073,22.0702515-8.3549347,30.5444336-0.1921844c1.2038269,1.1599884,1.2398071,3.0768738,0.079834,4.2812042 c-1.1600037,1.2033539-3.0768738,1.2398071-4.2812195,0.079834c-6.1271057-5.9039001-16.0357666-5.8413239-22.0874939,0.13797 c-8.3672485,8.2687073-22.0702515,8.3559265-30.5444336,0.1921844l-0.3429871-0.3311462 c-6.1271057-5.90242-16.0362549-5.8413086-22.0865173,0.1389618c-8.3687134,8.2687073-22.071228,8.35495-30.5449219,0.1921844 l-0.3419952-0.3296661c-6.1280975-5.9033966-16.0362549-5.8413086-22.0884857,0.1374817 C208.2628632,247.1653595,202.687149,249.254715,197.1094666,249.254715z"/></g><g id="change4_1" filter="url(#AI_GaussianBlur_4)"><path fill="#ffee0e" d="M400.8305969,406.6715698H261.6729126c-4.3224182,0-8.1148224-3.2604675-8.3739624-7.5751038 c-0.2814026-4.6850281,3.4344482-8.5720215,8.0585632-8.5720215h139.1577148 c4.3224182,0,8.1148071,3.2604675,8.3739624,7.5751343C409.1705627,402.7846069,405.4547424,406.6715698,400.8305969,406.6715698 z"/></g><g id="change3_7"><path fill="#000000" d="M400.8305969,401.6256104H261.3575134c-1.6719666,0-3.0275879-1.3556213-3.0275879-3.0275879 c0-1.6719971,1.3556213-3.0275879,3.0275879-3.0275879h139.4730835c1.6719971,0,3.0275879,1.3555908,3.0275879,3.0275879 C403.8581848,400.269989,402.502594,401.6256104,400.8305969,401.6256104z"/></g></g></g></svg>