<?xml version="1.0" encoding="UTF-8"?><svg xmlns="http://www.w3.org/2000/svg" xmlns:xlink="http://www.w3.org/1999/xlink" contentScriptType="text/ecmascript" fill="#000000" width="44" zoomAndPan="magnify" contentStyleType="text/css" viewBox="0.0 -0.0 44.0 36.2" height="36.2" preserveAspectRatio="xMidYMid meet" version="1"><defs><clipPath id="a"><path d="M 21 9 L 40 9 L 40 36.171875 L 21 36.171875 Z M 21 9"/></clipPath><clipPath id="b"><path d="M 0 16 L 24 16 L 24 36.171875 L 0 36.171875 Z M 0 16"/></clipPath></defs><g><g id="change1_2"><path fill="#100f0d" d="M 10.609375 16.246094 L 10.609375 16.335938 L 21.429688 16.335938 L 21.429688 14.871094 L 11.75 14.871094 L 9.160156 5.519531 L 7.746094 5.910156 L 10.609375 16.246094"/></g><g id="change1_3"><path fill="#100f0d" d="M 32.464844 -0.00390625 C 34.820312 -0.00390625 36.722656 1.902344 36.722656 4.257812 C 36.722656 6.609375 34.820312 8.515625 32.464844 8.515625 C 30.109375 8.515625 28.207031 6.609375 28.207031 4.257812 C 28.207031 1.902344 30.109375 -0.00390625 32.464844 -0.00390625"/></g><g id="change1_4"><path fill="#100f0d" d="M 29.449219 29.421875 L 44 29.421875 L 44 13.871094 L 40.722656 13.871094 L 40.722656 26.144531 L 29.449219 26.144531 L 29.449219 29.421875"/></g><g id="change1_1" clip-path="url(#a)"><path fill="#100f0d" d="M 38.679688 25.550781 L 39.164062 25.550781 C 39.621094 25.550781 39.992188 24.648438 39.992188 23.53125 L 36.855469 9.5625 L 33.535156 9.5625 L 33.097656 10.546875 L 29.460938 12.609375 L 23.09375 12.609375 C 22.238281 12.609375 21.546875 13.230469 21.546875 13.996094 C 21.546875 14.761719 22.238281 15.382812 23.09375 15.382812 L 29.644531 15.382812 L 30.511719 15.339844 L 33.09375 13.871094 L 33.09375 21.449219 L 25.652344 21.449219 L 25.652344 21.476562 C 24.679688 21.625 23.933594 22.457031 23.933594 23.472656 L 23.933594 34.144531 C 23.933594 35.265625 24.84375 36.171875 25.960938 36.171875 C 27.078125 36.171875 27.984375 35.265625 27.984375 34.144531 L 27.984375 25.550781 L 38.679688 25.550781"/></g><g id="change1_5" clip-path="url(#b)"><path fill="#100f0d" d="M 18.996094 36.171875 L 23.21875 36.171875 L 23.21875 16.765625 L 0 16.765625 L 0 36.171875 L 4.21875 36.171875 L 4.21875 20.988281 L 18.996094 20.988281 L 18.996094 36.171875"/></g></g></svg>