<?xml version="1.0" encoding="UTF-8"?><svg xmlns="http://www.w3.org/2000/svg" xmlns:xlink="http://www.w3.org/1999/xlink" contentScriptType="text/ecmascript" fill="#000000" width="934.6" zoomAndPan="magnify" contentStyleType="text/css" viewBox="0.0 0.0 934.6 502.0" height="502" preserveAspectRatio="xMidYMid meet" version="1"><g id="change1_1"><path fill="#000000" d="M934.6,502H0v-69.4h298.1l-274-117.4l27.3-63.8l0.9,0.4l262.9,112.6l-203-203l49.1-49.1l210.8,210.8 L261.4,46.3l64.5-25.8L432.6,287V0H502v298.1l117.4-274l63.8,27.3l-113,263.9l203-203l49.1,49.1L611.5,372.2l276.7-110.7l25.8,64.5 l-0.9,0.4L647.5,432.6h287V502z M2,500h930.6v-65.4H637.1l274.3-109.8L887.1,264L603.2,377.7l216.2-216.2l-46.3-46.3L564.2,324 L680.6,52.5l-60.2-25.8L500,307.8V2h-65.4v295.4L324.8,23.1L264,47.5l113.6,283.9L161.4,115.1l-46.3,46.3L324,370.3L52.5,254 l-25.8,60.2l281.1,120.4H2V500z"/></g></svg>