<svg width="1241.9" height="1631.6" viewBox="378.5 184.9 1241.9 1631.6" xmlns="http://www.w3.org/2000/svg" xmlns:xlink="http://www.w3.org/1999/xlink" overflow="hidden"><style>
.MsftOfcThm_Accent1_lumMod_20_lumOff_80_Fill_v2 {
 fill:#DCE6F2; 
}
</style>
<g id="change1_1" fill="#393536"><path d="M629.152 1743.39C621.09 1748.32 611.992 1751.49 607.383 1760.49 603.281 1768.49 603.367 1778.66 609.5 1785.63 614.758 1791.61 623.078 1793.56 630.695 1791.94 641.141 1789.7 647.863 1781.25 655.23 1774.11L629.152 1743.39" class="MsftOfcThm_Accent1_lumMod_20_lumOff_80_Fill_v2" fill="#DCE6F2"/><path d="M712.188 1730.91C720.746 1720.23 726.898 1707.36 727.125 1693.48 727.23 1686.95 724.73 1680.62 720.062 1676.04 699.875 1656.26 667.637 1694.58 658.352 1710.11 654.891 1715.91 652.242 1722.19 647.926 1727.45 644.91 1731.12 641.375 1734.4 637.625 1737.37L663.246 1767.56C668.066 1764.45 673.297 1762.31 678.332 1759.35 691.027 1751.89 702.945 1742.43 712.188 1730.91" class="MsftOfcThm_Accent1_lumMod_20_lumOff_80_Fill_v2" fill="#DCE6F2"/><path d="M511.23 1785.87C507.527 1794.57 505.719 1804.03 497.48 1809.9 490.16 1815.11 480.086 1816.51 472.297 1811.45 465.621 1807.12 462.477 1799.17 462.98 1791.4 463.676 1780.74 471.059 1772.86 477.051 1764.53L511.23 1785.87" class="MsftOfcThm_Accent1_lumMod_20_lumOff_80_Fill_v2" fill="#DCE6F2"/><path d="M511.531 1701.91C520.848 1691.89 532.688 1683.93 546.387 1681.69 552.836 1680.64 559.465 1682.2 564.664 1686.15 587.176 1703.25 553.945 1740.71 539.922 1752.15 534.688 1756.42 528.855 1759.95 524.281 1764.99 521.082 1768.5 518.355 1772.47 515.957 1776.62L482.375 1755.65C484.742 1750.43 486.109 1744.95 488.305 1739.54 493.84 1725.89 501.473 1712.72 511.531 1701.91" class="MsftOfcThm_Accent1_lumMod_20_lumOff_80_Fill_v2" fill="#DCE6F2"/><path d="M745.723 1537.91C740.234 1545.6 733.105 1552.08 732.395 1562.17 731.762 1571.14 735.828 1580.46 744.203 1584.47 751.383 1587.91 759.801 1586.45 766.172 1581.96 774.906 1575.81 777.777 1565.4 781.758 1555.95L745.723 1537.91" class="MsftOfcThm_Accent1_lumMod_20_lumOff_80_Fill_v2" fill="#DCE6F2"/><path d="M817.211 1493.87C820.902 1480.69 821.52 1466.44 816.285 1453.58 813.82 1447.53 809.035 1442.69 802.949 1440.31 776.621 1430.02 761.984 1477.91 759.535 1495.84 758.621 1502.54 758.652 1509.35 756.742 1515.88 755.406 1520.44 753.441 1524.84 751.156 1529.05L786.559 1546.77C789.777 1542.03 793.746 1538 797.219 1533.31 805.977 1521.47 813.227 1508.09 817.211 1493.87" class="MsftOfcThm_Accent1_lumMod_20_lumOff_80_Fill_v2" fill="#DCE6F2"/><path d="M630.656 1589.45C628.32 1598.61 627.973 1608.23 620.727 1615.29 614.285 1621.56 604.539 1624.47 596.07 1620.66 588.812 1617.39 584.496 1610.02 583.812 1602.26 582.875 1591.62 588.973 1582.71 593.625 1573.56L630.656 1589.45" class="MsftOfcThm_Accent1_lumMod_20_lumOff_80_Fill_v2" fill="#DCE6F2"/><path d="M618.168 1506.42C625.852 1495.1 636.34 1485.43 649.543 1481.13 655.754 1479.11 662.543 1479.64 668.285 1482.75 693.133 1496.23 665.996 1538.31 653.879 1551.75 649.355 1556.77 644.129 1561.15 640.375 1566.82 637.75 1570.78 635.66 1575.12 633.918 1579.58L597.535 1563.97C599.082 1558.46 599.598 1552.83 600.941 1547.14 604.336 1532.81 609.875 1518.64 618.168 1506.42" class="MsftOfcThm_Accent1_lumMod_20_lumOff_80_Fill_v2" fill="#DCE6F2"/><path d="M798.609 1292.58C799.172 1302.02 797.691 1311.53 803.473 1319.83 808.609 1327.21 817.629 1331.91 826.66 1329.77 834.406 1327.94 840.043 1321.52 842.184 1314.02 845.117 1303.75 840.816 1293.85 837.98 1283.99L798.609 1292.58" class="MsftOfcThm_Accent1_lumMod_20_lumOff_80_Fill_v2" fill="#DCE6F2"/><path d="M826.594 1213.42C821.191 1200.84 812.723 1189.37 800.574 1182.65 794.859 1179.48 788.09 1178.72 781.863 1180.69 754.91 1189.22 773.59 1235.68 782.945 1251.17 786.438 1256.95 790.742 1262.24 793.355 1268.52 795.18 1272.91 796.41 1277.57 797.273 1282.27L835.953 1273.84C835.48 1268.13 836.043 1262.5 835.797 1256.67 835.18 1241.95 832.422 1226.99 826.594 1213.42" class="MsftOfcThm_Accent1_lumMod_20_lumOff_80_Fill_v2" fill="#DCE6F2"/><path d="M704.734 1367.43C706.605 1376.7 710.469 1385.52 707.004 1395.02 703.922 1403.47 696.406 1410.32 687.125 1410.56 679.168 1410.77 672.078 1406 668.094 1399.31 662.629 1390.13 664.254 1379.45 664.477 1369.2L704.734 1367.43" class="MsftOfcThm_Accent1_lumMod_20_lumOff_80_Fill_v2" fill="#DCE6F2"/><path d="M657.438 1298.05C659.441 1284.52 664.695 1271.26 674.723 1261.65 679.438 1257.14 685.785 1254.66 692.309 1254.98 720.547 1256.33 714.367 1306.02 709.289 1323.39 707.391 1329.87 704.582 1336.09 703.66 1342.83 703.02 1347.54 703.02 1352.35 703.391 1357.13L663.836 1358.86C662.836 1353.22 660.852 1347.92 659.598 1342.22 656.434 1327.84 655.27 1312.67 657.438 1298.05" class="MsftOfcThm_Accent1_lumMod_20_lumOff_80_Fill_v2" fill="#DCE6F2"/><path d="M726.254 1026.14C727.027 1035.56 725.762 1045.1 731.727 1053.27 737.027 1060.53 746.148 1065.03 755.133 1062.69 762.836 1060.68 768.328 1054.14 770.301 1046.6 773.004 1036.26 768.48 1026.46 765.422 1016.67L726.254 1026.14" class="MsftOfcThm_Accent1_lumMod_20_lumOff_80_Fill_v2" fill="#DCE6F2"/><path d="M752.457 946.359C746.777 933.922 738.051 922.629 725.758 916.18 719.973 913.148 713.188 912.539 707.008 914.648 680.254 923.781 699.969 969.809 709.664 985.09 713.285 990.789 717.707 995.98 720.461 1002.2 722.383 1006.55 723.723 1011.17 724.688 1015.86L763.172 1006.56C762.57 1000.86 763.004 995.219 762.629 989.398 761.68 974.699 758.59 959.801 752.457 946.359" class="MsftOfcThm_Accent1_lumMod_20_lumOff_80_Fill_v2" fill="#DCE6F2"/><path d="M614.141 857.961C614.914 867.371 613.648 876.922 619.613 885.09 624.914 892.352 634.035 896.852 643.02 894.512 650.723 892.5 656.215 885.949 658.188 878.422 660.891 868.078 656.367 858.281 653.312 848.488L614.141 857.961" class="MsftOfcThm_Accent1_lumMod_20_lumOff_80_Fill_v2" fill="#DCE6F2"/><path d="M640.348 778.18C634.664 765.73 625.941 754.449 613.645 748 607.859 744.969 601.074 744.359 594.895 746.461 568.141 755.59 587.855 801.621 597.555 816.898 601.176 822.609 605.598 827.801 608.348 834.02 610.273 838.359 611.609 842.988 612.578 847.68L651.059 838.379C650.457 832.68 650.895 827.039 650.516 821.211 649.57 806.52 646.477 791.621 640.348 778.18" class="MsftOfcThm_Accent1_lumMod_20_lumOff_80_Fill_v2" fill="#DCE6F2"/><path d="M660.672 1154.06C666.273 1161.67 673.5 1168.04 674.363 1178.11 675.137 1187.07 671.211 1196.45 662.895 1200.59 655.77 1204.13 647.328 1202.8 640.891 1198.41 632.066 1192.39 629.039 1182.03 624.914 1172.64L660.672 1154.06" class="MsftOfcThm_Accent1_lumMod_20_lumOff_80_Fill_v2" fill="#DCE6F2"/><path d="M588.523 1111.1C584.633 1097.98 583.805 1083.74 588.844 1070.81 591.215 1064.72 595.926 1059.8 601.973 1057.33 628.145 1046.65 643.504 1094.31 646.223 1112.2 647.238 1118.88 647.312 1125.7 649.32 1132.2 650.727 1136.74 652.758 1141.11 655.105 1145.28L619.973 1163.53C616.688 1158.84 612.656 1154.88 609.113 1150.23 600.176 1138.53 592.723 1125.26 588.523 1111.1" class="MsftOfcThm_Accent1_lumMod_20_lumOff_80_Fill_v2" fill="#DCE6F2"/><path d="M563.242 960.25C570.969 965.691 579.836 969.449 583.848 978.73 587.414 986.98 586.664 997.121 580.086 1003.68 574.449 1009.3 566.02 1010.71 558.523 1008.58 548.246 1005.67 542.094 996.801 535.207 989.191L563.242 960.25" class="MsftOfcThm_Accent1_lumMod_20_lumOff_80_Fill_v2" fill="#DCE6F2"/><path d="M481.207 942.352C473.363 931.141 468.066 917.891 468.75 904.031 469.07 897.5 471.984 891.34 476.938 887.09 498.383 868.672 528.039 909.012 536.285 925.121 539.363 931.129 541.594 937.578 545.555 943.109 548.324 946.969 551.637 950.469 555.184 953.68L527.641 982.121C523.035 978.711 517.957 976.23 513.125 972.949 500.945 964.672 489.672 954.449 481.207 942.352" class="MsftOfcThm_Accent1_lumMod_20_lumOff_80_Fill_v2" fill="#DCE6F2"/><path d="M535.852 657.48C534.348 666.809 530.832 675.781 534.668 685.141 538.078 693.461 545.859 700.012 555.141 699.879 563.102 699.781 570 694.738 573.719 687.891 578.816 678.5 576.773 667.898 576.145 657.66L535.852 657.48" class="MsftOfcThm_Accent1_lumMod_20_lumOff_80_Fill_v2" fill="#DCE6F2"/><path d="M580.387 586.301C577.852 572.852 572.078 559.809 561.684 550.609 556.793 546.281 550.352 544.059 543.848 544.621 515.684 547.09 523.809 596.5 529.57 613.648 531.719 620.059 534.77 626.16 535.953 632.852 536.781 637.531 536.973 642.352 536.789 647.129L576.379 647.309C577.16 641.629 578.934 636.262 579.961 630.52 582.559 616.02 583.121 600.809 580.387 586.301" class="MsftOfcThm_Accent1_lumMod_20_lumOff_80_Fill_v2" fill="#DCE6F2"/><path d="M461.949 744.621C468.145 751.762 475.859 757.52 477.531 767.5 479.02 776.359 475.859 786.031 467.906 790.82 461.09 794.93 452.566 794.281 445.797 790.422 436.516 785.129 432.664 775.039 427.801 766.012L461.949 744.621" class="MsftOfcThm_Accent1_lumMod_20_lumOff_80_Fill_v2" fill="#DCE6F2"/><path d="M386.578 707.609C381.645 694.84 379.676 680.719 383.656 667.422 385.531 661.16 389.832 655.879 395.66 652.93 420.891 640.18 440.031 686.449 444.18 704.059 445.73 710.641 446.352 717.43 448.875 723.75 450.641 728.16 453.016 732.352 455.691 736.32L422.145 757.34C418.488 752.93 414.152 749.301 410.246 744.961 400.398 734.012 391.902 721.379 386.578 707.609" class="MsftOfcThm_Accent1_lumMod_20_lumOff_80_Fill_v2" fill="#DCE6F2"/><path d="M550.203 437.488C542.547 443.031 533.723 446.891 529.828 456.219 526.363 464.52 527.242 474.648 533.898 481.129 539.605 486.672 548.051 487.98 555.52 485.762 565.762 482.719 571.805 473.77 578.594 466.078L550.203 437.488" class="MsftOfcThm_Accent1_lumMod_20_lumOff_80_Fill_v2" fill="#DCE6F2"/><path d="M632.012 418.574C639.715 407.266 644.848 393.953 643.992 380.098 643.59 373.578 640.602 367.457 635.594 363.262 613.926 345.109 584.77 385.82 576.723 402.027 573.723 408.078 571.57 414.555 567.676 420.129 564.957 424.027 561.688 427.57 558.184 430.828L586.074 458.922C590.637 455.449 595.684 452.902 600.473 449.57 612.555 441.145 623.695 430.777 632.012 418.574" class="MsftOfcThm_Accent1_lumMod_20_lumOff_80_Fill_v2" fill="#DCE6F2"/><path d="M769.379 318.145C760.059 316.59 751.109 313.031 741.73 316.82 733.395 320.184 726.805 327.934 726.879 337.219 726.941 345.176 731.949 352.102 738.773 355.859 748.137 361 758.75 359.016 768.992 358.434L769.379 318.145" class="MsftOfcThm_Accent1_lumMod_20_lumOff_80_Fill_v2" fill="#DCE6F2"/><path d="M840.328 363.055C853.785 360.594 866.859 354.883 876.117 344.539 880.473 339.672 882.727 333.242 882.191 326.73 879.875 298.559 830.422 306.426 813.238 312.094 806.824 314.215 800.707 317.23 794.004 318.379 789.316 319.184 784.504 319.352 779.723 319.141L779.34 358.734C785.012 359.547 790.371 361.344 796.113 362.398 810.598 365.07 825.801 365.719 840.328 363.055" class="MsftOfcThm_Accent1_lumMod_20_lumOff_80_Fill_v2" fill="#DCE6F2"/><path d="M425.156 510.559C424.5 519.98 425.883 529.512 420.02 537.762 414.809 545.078 405.742 549.691 396.73 547.461 389.004 545.551 383.434 539.07 381.367 531.559 378.535 521.262 382.934 511.398 385.871 501.57L425.156 510.559" class="MsftOfcThm_Accent1_lumMod_20_lumOff_80_Fill_v2" fill="#DCE6F2"/><path d="M397.965 431.109C403.488 418.602 412.074 407.199 424.289 400.609 430.035 397.5 436.812 396.801 443.02 398.828 469.883 407.629 450.738 453.898 441.23 469.301 437.684 475.051 433.324 480.289 430.648 486.551 428.781 490.922 427.504 495.559 426.594 500.262L387.996 491.441C388.527 485.73 388.023 480.102 388.328 474.27 389.094 459.559 392 444.621 397.965 431.109" class="MsftOfcThm_Accent1_lumMod_20_lumOff_80_Fill_v2" fill="#DCE6F2"/><path d="M523.07 316.879C518.121 324.934 514.93 334.016 505.918 338.609 497.902 342.676 487.73 342.57 480.777 336.418 474.816 331.141 472.883 322.816 474.531 315.203 476.797 304.77 485.262 298.066 492.422 290.719L523.07 316.879" class="MsftOfcThm_Accent1_lumMod_20_lumOff_80_Fill_v2" fill="#DCE6F2"/><path d="M535.785 233.891C546.484 225.355 559.371 219.238 573.254 219.051 579.781 218.965 586.109 221.488 590.668 226.164 610.398 246.41 571.992 278.535 556.434 287.781 550.625 291.223 544.332 293.855 539.062 298.16 535.379 301.164 532.098 304.684 529.113 308.43L499 282.723C502.117 277.914 504.277 272.691 507.246 267.664 514.742 254.988 524.238 243.102 535.785 233.891" class="MsftOfcThm_Accent1_lumMod_20_lumOff_80_Fill_v2" fill="#DCE6F2"/><path d="M694.02 239.836C685.004 242.672 676.641 247.453 666.828 245.004 658.102 242.836 650.496 236.078 649.273 226.879 648.227 218.996 652.219 211.43 658.453 206.762 667.008 200.367 677.793 200.852 688.012 199.992L694.02 239.836" class="MsftOfcThm_Accent1_lumMod_20_lumOff_80_Fill_v2" fill="#DCE6F2"/><path d="M758.016 185.477C771.688 186.035 785.43 189.863 796.039 198.816 801.027 203.039 804.156 209.086 804.535 215.598 806.172 243.828 756.105 242.926 738.297 239.707 731.648 238.504 725.176 236.367 718.375 236.168 713.625 236.023 708.832 236.535 704.125 237.402L698.227 198.262C703.73 196.668 708.785 194.141 714.324 192.281 728.293 187.625 743.258 184.863 758.016 185.477" class="MsftOfcThm_Accent1_lumMod_20_lumOff_80_Fill_v2" fill="#DCE6F2"/><path d="M998.586 379.074C991.777 372.516 986.414 364.508 976.543 362.324 967.766 360.383 957.945 363.039 952.75 370.734 948.301 377.332 948.508 385.871 952.012 392.832 956.812 402.379 966.688 406.746 975.457 412.066L998.586 379.074" class="MsftOfcThm_Accent1_lumMod_20_lumOff_80_Fill_v2" fill="#DCE6F2"/><path d="M1031.66 456.238C1044.15 461.828 1058.16 464.531 1071.65 461.238 1077.99 459.691 1083.49 455.66 1086.73 449.988 1100.77 425.461 1055.55 403.949 1038.17 398.898 1031.69 397.02 1024.94 396.039 1018.76 393.199 1014.44 391.211 1010.38 388.621 1006.55 385.738L983.828 418.16C988.047 422.039 991.445 426.559 995.582 430.68 1006.01 441.078 1018.18 450.211 1031.66 456.238" class="MsftOfcThm_Accent1_lumMod_20_lumOff_80_Fill_v2" fill="#DCE6F2"/><path d="M1231.23 434.691C1223.12 429.84 1216.09 423.262 1205.98 423.359 1196.98 423.441 1188.02 428.25 1184.69 436.91 1181.85 444.352 1183.98 452.621 1188.96 458.609 1195.79 466.82 1206.4 468.852 1216.14 472.059L1231.23 434.691" class="MsftOfcThm_Accent1_lumMod_20_lumOff_80_Fill_v2" fill="#DCE6F2"/><path d="M1280.86 502.422C1294.29 505.039 1308.54 504.512 1320.94 498.262 1326.77 495.32 1331.22 490.16 1333.1 483.91 1341.24 456.84 1292.33 446.09 1274.27 445.09 1267.52 444.711 1260.73 445.289 1254.07 443.91 1249.41 442.949 1244.87 441.34 1240.49 439.398L1225.67 476.109C1230.65 478.941 1234.99 482.57 1239.94 485.66 1252.45 493.441 1266.36 499.59 1280.86 502.422" class="MsftOfcThm_Accent1_lumMod_20_lumOff_80_Fill_v2" fill="#DCE6F2"/><path d="M1506.21 450.238C1496.76 450.352 1487.32 448.422 1478.76 453.801 1471.15 458.578 1466.02 467.359 1467.73 476.488 1469.19 484.309 1475.34 490.25 1482.72 492.738 1492.84 496.16 1502.94 492.34 1512.92 489.969L1506.21 450.238" class="MsftOfcThm_Accent1_lumMod_20_lumOff_80_Fill_v2" fill="#DCE6F2"/><path d="M1583.96 481.961C1596.77 477.16 1608.64 469.25 1615.93 457.43 1619.36 451.871 1620.45 445.148 1618.77 438.828 1611.54 411.512 1564.24 427.961 1548.32 436.559 1542.38 439.77 1536.89 443.82 1530.49 446.129 1526.02 447.75 1521.31 448.762 1516.57 449.398L1523.16 488.43C1528.88 488.23 1534.48 489.059 1540.32 489.09 1555.04 489.18 1570.12 487.129 1583.96 481.961" class="MsftOfcThm_Accent1_lumMod_20_lumOff_80_Fill_v2" fill="#DCE6F2"/><path d="M938.816 251.656C929.676 249.242 920.055 248.812 913.059 241.52 906.84 235.016 904.008 225.254 907.891 216.812 911.215 209.586 918.621 205.332 926.387 204.703 937.039 203.855 945.898 210.023 955 214.754L938.816 251.656" class="MsftOfcThm_Accent1_lumMod_20_lumOff_80_Fill_v2" fill="#DCE6F2"/><path d="M1021.95 239.828C1033.21 247.609 1042.79 258.176 1046.98 271.41 1048.96 277.629 1048.37 284.414 1045.21 290.141 1031.54 314.879 989.672 287.398 976.328 275.18 971.348 270.609 967.012 265.355 961.367 261.551 957.426 258.895 953.105 256.766 948.66 254.996L964.559 218.734C970.062 220.332 975.691 220.891 981.363 222.277 995.664 225.785 1009.79 231.434 1021.95 239.828" class="MsftOfcThm_Accent1_lumMod_20_lumOff_80_Fill_v2" fill="#DCE6F2"/><path d="M1145.21 319.125C1135.78 319.527 1126.46 321.973 1117.62 317.059 1109.75 312.695 1104.16 304.203 1105.36 295 1106.4 287.113 1112.21 280.844 1119.46 277.953 1129.37 273.992 1139.66 277.266 1149.75 279.086L1145.21 319.125" class="MsftOfcThm_Accent1_lumMod_20_lumOff_80_Fill_v2" fill="#DCE6F2"/><path d="M1221.12 283.238C1234.18 287.328 1246.46 294.586 1254.39 305.988 1258.12 311.355 1259.56 318.004 1258.23 324.406 1252.5 352.082 1204.37 338.227 1188 330.492 1181.91 327.609 1176.2 323.867 1169.68 321.902 1165.14 320.539 1160.37 319.789 1155.61 319.41L1160.07 280.066C1165.79 279.953 1171.33 278.82 1177.16 278.473 1191.86 277.594 1207.04 278.809 1221.12 283.238" class="MsftOfcThm_Accent1_lumMod_20_lumOff_80_Fill_v2" fill="#DCE6F2"/><path d="M1394.55 361.203C1386.24 365.688 1378.93 371.953 1368.82 371.406 1359.84 370.914 1351.11 365.719 1348.18 356.914 1345.66 349.363 1348.16 341.184 1353.39 335.422 1360.59 327.523 1371.27 325.969 1381.16 323.203L1394.55 361.203" class="MsftOfcThm_Accent1_lumMod_20_lumOff_80_Fill_v2" fill="#DCE6F2"/><path d="M1447.17 295.754C1460.7 293.73 1474.92 294.895 1487.03 301.699 1492.72 304.891 1496.93 310.25 1498.53 316.582 1505.46 343.988 1456.12 352.539 1438.02 352.73 1431.28 352.801 1424.52 351.922 1417.79 353.012 1413.11 353.766 1408.49 355.168 1404.03 356.906L1390.86 319.566C1395.97 316.973 1400.46 313.539 1405.55 310.668 1418.39 303.457 1432.56 297.93 1447.17 295.754" class="MsftOfcThm_Accent1_lumMod_20_lumOff_80_Fill_v2" fill="#DCE6F2"/></g></svg>