<?xml version="1.0" encoding="UTF-8"?><svg xmlns="http://www.w3.org/2000/svg" xmlns:xlink="http://www.w3.org/1999/xlink" contentScriptType="text/ecmascript" fill="#000000" width="338.8" zoomAndPan="magnify" contentStyleType="text/css" viewBox="128.3 152.0 338.8 291.2" height="291.2" preserveAspectRatio="xMidYMid meet" version="1"><g><g id="change1_1"><path fill="#f68712" d="M 249.574219 204.195312 L 249.574219 265.042969 L 258.269531 265.042969 L 258.269531 186.808594 L 249.574219 186.808594 L 249.574219 204.195312"/></g><g id="change1_2"><path fill="#f68712" d="M 240.882812 273.738281 L 249.574219 273.738281 L 249.574219 265.042969 L 240.882812 265.042969 L 240.882812 273.738281"/></g><g id="change1_3"><path fill="#f68712" d="M 249.574219 186.808594 L 249.574219 178.117188 L 240.882812 178.117188 L 240.882812 186.808594 L 249.574219 186.808594"/></g><g id="change1_4"><path fill="#f68712" d="M 232.175781 282.429688 L 240.882812 282.429688 L 240.882812 273.738281 L 232.175781 273.738281 L 232.175781 282.429688"/></g><g id="change1_5"><path fill="#f68712" d="M 240.882812 169.425781 L 232.175781 169.425781 L 232.175781 178.117188 L 240.882812 178.117188 L 240.882812 169.425781"/></g><g id="change1_6"><path fill="#f68712" d="M 206.082031 265.042969 L 223.480469 265.042969 L 223.480469 256.351562 L 232.175781 256.351562 L 232.175781 195.503906 L 223.480469 195.503906 L 223.480469 186.808594 L 197.390625 186.808594 L 197.390625 195.503906 L 188.695312 195.503906 L 188.695312 265.042969 L 206.082031 265.042969"/></g><g id="change1_7"><path fill="#f68712" d="M 397.425781 286.777344 L 397.425781 365.011719 L 406.117188 365.011719 L 406.117188 286.777344 L 397.425781 286.777344"/></g><g id="change1_8"><path fill="#f68712" d="M 388.734375 373.703125 L 397.425781 373.703125 L 397.425781 365.011719 L 388.734375 365.011719 L 388.734375 373.703125"/></g><g id="change1_9"><path fill="#f68712" d="M 388.734375 278.082031 L 388.734375 286.777344 L 397.425781 286.777344 L 397.425781 278.082031 L 388.734375 278.082031"/></g><g id="change1_10"><path fill="#f68712" d="M 380.023438 382.394531 L 388.734375 382.394531 L 388.734375 373.703125 L 380.023438 373.703125 L 380.023438 382.394531"/></g><g id="change1_11"><path fill="#f68712" d="M 380.023438 269.390625 L 380.023438 278.082031 L 388.734375 278.082031 L 388.734375 269.390625 L 380.023438 269.390625"/></g><g id="change1_12"><path fill="#f68712" d="M 380.023438 347.625 L 380.023438 295.46875 L 371.332031 295.46875 L 371.332031 286.777344 L 345.238281 286.777344 L 345.238281 295.46875 L 336.546875 295.46875 L 336.546875 365.011719 L 371.332031 365.011719 L 371.332031 356.316406 L 380.023438 356.316406 L 380.023438 347.625"/></g><g id="change1_13"><path fill="#f68712" d="M 253.921875 347.625 L 253.921875 417.167969 L 262.613281 417.167969 L 262.613281 338.933594 L 253.921875 338.933594 L 253.921875 347.625"/></g><g id="change1_14"><path fill="#f68712" d="M 245.230469 425.859375 L 253.921875 425.859375 L 253.921875 417.167969 L 245.230469 417.167969 L 245.230469 425.859375"/></g><g id="change1_15"><path fill="#f68712" d="M 245.230469 330.238281 L 245.230469 338.933594 L 253.921875 338.933594 L 253.921875 330.238281 L 245.230469 330.238281"/></g><g id="change1_16"><path fill="#f68712" d="M 236.519531 434.554688 L 245.230469 434.554688 L 245.230469 425.859375 L 236.519531 425.859375 L 236.519531 434.554688"/></g><g id="change1_17"><path fill="#f68712" d="M 236.519531 321.546875 L 236.519531 330.238281 L 245.230469 330.238281 L 245.230469 321.546875 L 236.519531 321.546875"/></g><g id="change1_18"><path fill="#f68712" d="M 236.519531 399.78125 L 236.519531 347.625 L 227.828125 347.625 L 227.828125 338.933594 L 201.734375 338.933594 L 201.734375 347.625 L 193.042969 347.625 L 193.042969 417.167969 L 227.828125 417.167969 L 227.828125 408.472656 L 236.519531 408.472656 L 236.519531 399.78125"/></g><g id="change2_1"><path fill="#d76f1b" d="M 214.789062 186.808594 L 223.480469 186.808594 L 223.480469 178.117188 L 197.390625 178.117188 L 197.390625 186.808594 L 214.789062 186.808594"/></g><g id="change2_2"><path fill="#d76f1b" d="M 197.390625 273.738281 L 214.789062 273.738281 L 214.789062 265.042969 L 188.695312 265.042969 L 188.695312 273.738281 L 197.390625 273.738281"/></g><g id="change2_3"><path fill="#d76f1b" d="M 197.390625 186.808594 L 188.695312 186.808594 L 188.695312 195.503906 L 197.390625 195.503906 L 197.390625 186.808594"/></g><g id="change2_4"><path fill="#d76f1b" d="M 188.695312 256.351562 L 188.695312 195.503906 L 179.988281 195.503906 L 179.988281 265.042969 L 188.695312 265.042969 L 188.695312 256.351562"/></g><g id="change2_5"><path fill="#d76f1b" d="M 362.640625 278.082031 L 345.238281 278.082031 L 345.238281 286.777344 L 371.332031 286.777344 L 371.332031 278.082031 L 362.640625 278.082031"/></g><g id="change2_6"><path fill="#d76f1b" d="M 345.238281 373.703125 L 362.640625 373.703125 L 362.640625 365.011719 L 336.546875 365.011719 L 336.546875 373.703125 L 345.238281 373.703125"/></g><g id="change2_7"><path fill="#d76f1b" d="M 336.546875 295.46875 L 345.238281 295.46875 L 345.238281 286.777344 L 336.546875 286.777344 L 336.546875 295.46875"/></g><g id="change2_8"><path fill="#d76f1b" d="M 327.839844 304.160156 L 327.839844 365.011719 L 336.546875 365.011719 L 336.546875 295.46875 L 327.839844 295.46875 L 327.839844 304.160156"/></g><g id="change2_9"><path fill="#d76f1b" d="M 210.429688 330.238281 L 201.734375 330.238281 L 201.734375 338.933594 L 227.828125 338.933594 L 227.828125 330.238281 L 210.429688 330.238281"/></g><g id="change2_10"><path fill="#d76f1b" d="M 201.734375 425.859375 L 219.136719 425.859375 L 219.136719 417.167969 L 193.042969 417.167969 L 193.042969 425.859375 L 201.734375 425.859375"/></g><g id="change2_11"><path fill="#d76f1b" d="M 193.042969 347.625 L 201.734375 347.625 L 201.734375 338.933594 L 193.042969 338.933594 L 193.042969 347.625"/></g><g id="change2_12"><path fill="#d76f1b" d="M 184.335938 356.316406 L 184.335938 417.167969 L 193.042969 417.167969 L 193.042969 347.625 L 184.335938 347.625 L 184.335938 356.316406"/></g><g id="change3_1"><path fill="#393536" d="M 258.269531 204.195312 L 258.269531 265.042969 L 266.976562 265.042969 L 266.976562 186.808594 L 258.269531 186.808594 L 258.269531 204.195312"/></g><g id="change3_2"><path fill="#393536" d="M 249.574219 273.738281 L 258.269531 273.738281 L 258.269531 265.042969 L 249.574219 265.042969 L 249.574219 273.738281"/></g><g id="change3_3"><path fill="#393536" d="M 258.269531 186.808594 L 258.269531 178.117188 L 249.574219 178.117188 L 249.574219 186.808594 L 258.269531 186.808594"/></g><g id="change3_4"><path fill="#393536" d="M 240.882812 282.429688 L 249.574219 282.429688 L 249.574219 273.738281 L 240.882812 273.738281 L 240.882812 282.429688"/></g><g id="change3_5"><path fill="#393536" d="M 249.574219 256.351562 L 249.574219 186.808594 L 240.882812 186.808594 L 240.882812 265.042969 L 249.574219 265.042969 L 249.574219 256.351562"/></g><g id="change3_6"><path fill="#393536" d="M 249.574219 178.117188 L 249.574219 169.425781 L 240.882812 169.425781 L 240.882812 178.117188 L 249.574219 178.117188"/></g><g id="change3_7"><path fill="#393536" d="M 240.882812 265.042969 L 232.175781 265.042969 L 232.175781 273.738281 L 240.882812 273.738281 L 240.882812 265.042969"/></g><g id="change3_8"><path fill="#393536" d="M 232.175781 178.117188 L 232.175781 186.808594 L 240.882812 186.808594 L 240.882812 178.117188 L 232.175781 178.117188"/></g><g id="change3_9"><path fill="#393536" d="M 232.175781 273.738281 L 223.480469 273.738281 L 223.480469 282.429688 L 188.695312 282.429688 L 188.695312 291.121094 L 240.882812 291.121094 L 240.882812 282.429688 L 232.175781 282.429688 L 232.175781 273.738281"/></g><g id="change3_10"><path fill="#393536" d="M 206.082031 169.425781 L 223.480469 169.425781 L 223.480469 178.117188 L 232.175781 178.117188 L 232.175781 169.425781 L 240.882812 169.425781 L 240.882812 160.730469 L 188.695312 160.730469 L 188.695312 169.425781 L 206.082031 169.425781"/></g><g id="change3_11"><path fill="#393536" d="M 179.988281 273.738281 L 179.988281 282.429688 L 188.695312 282.429688 L 188.695312 273.738281 L 179.988281 273.738281"/></g><g id="change3_12"><path fill="#393536" d="M 188.695312 169.425781 L 179.988281 169.425781 L 179.988281 178.117188 L 188.695312 178.117188 L 188.695312 169.425781"/></g><g id="change3_13"><path fill="#393536" d="M 171.296875 265.042969 L 171.296875 273.738281 L 179.988281 273.738281 L 179.988281 265.042969 L 171.296875 265.042969"/></g><g id="change3_14"><path fill="#393536" d="M 179.988281 178.117188 L 171.296875 178.117188 L 171.296875 186.808594 L 179.988281 186.808594 L 179.988281 178.117188"/></g><g id="change3_15"><path fill="#393536" d="M 171.296875 256.351562 L 171.296875 186.808594 L 162.589844 186.808594 L 162.589844 265.042969 L 171.296875 265.042969 L 171.296875 256.351562"/></g><g id="change3_16"><path fill="#393536" d="M 406.117188 286.777344 L 406.117188 365.011719 L 414.824219 365.011719 L 414.824219 286.777344 L 406.117188 286.777344"/></g><g id="change3_17"><path fill="#393536" d="M 397.425781 373.703125 L 406.117188 373.703125 L 406.117188 365.011719 L 397.425781 365.011719 L 397.425781 373.703125"/></g><g id="change3_18"><path fill="#393536" d="M 406.117188 286.777344 L 406.117188 278.082031 L 397.425781 278.082031 L 397.425781 286.777344 L 406.117188 286.777344"/></g><g id="change3_19"><path fill="#393536" d="M 388.734375 382.394531 L 397.425781 382.394531 L 397.425781 373.703125 L 388.734375 373.703125 L 388.734375 382.394531"/></g><g id="change3_20"><path fill="#393536" d="M 388.734375 295.46875 L 388.734375 365.011719 L 397.425781 365.011719 L 397.425781 286.777344 L 388.734375 286.777344 L 388.734375 295.46875"/></g><g id="change3_21"><path fill="#393536" d="M 397.425781 278.082031 L 397.425781 269.390625 L 388.734375 269.390625 L 388.734375 278.082031 L 397.425781 278.082031"/></g><g id="change3_22"><path fill="#393536" d="M 380.023438 373.703125 L 388.734375 373.703125 L 388.734375 365.011719 L 380.023438 365.011719 L 380.023438 373.703125"/></g><g id="change3_23"><path fill="#393536" d="M 380.023438 278.082031 L 380.023438 286.777344 L 388.734375 286.777344 L 388.734375 278.082031 L 380.023438 278.082031"/></g><g id="change3_24"><path fill="#393536" d="M 380.023438 373.703125 L 371.332031 373.703125 L 371.332031 382.394531 L 336.546875 382.394531 L 336.546875 391.089844 L 388.734375 391.089844 L 388.734375 382.394531 L 380.023438 382.394531 L 380.023438 373.703125"/></g><g id="change3_25"><path fill="#393536" d="M 353.933594 269.390625 L 371.332031 269.390625 L 371.332031 278.082031 L 380.023438 278.082031 L 380.023438 269.390625 L 388.734375 269.390625 L 388.734375 260.699219 L 336.546875 260.699219 L 336.546875 269.390625 L 353.933594 269.390625"/></g><g id="change3_26"><path fill="#393536" d="M 327.839844 373.703125 L 327.839844 382.394531 L 336.546875 382.394531 L 336.546875 373.703125 L 327.839844 373.703125"/></g><g id="change3_27"><path fill="#393536" d="M 336.546875 269.390625 L 327.839844 269.390625 L 327.839844 278.082031 L 336.546875 278.082031 L 336.546875 269.390625"/></g><g id="change3_28"><path fill="#393536" d="M 319.144531 365.011719 L 319.144531 373.703125 L 327.839844 373.703125 L 327.839844 365.011719 L 319.144531 365.011719"/></g><g id="change3_29"><path fill="#393536" d="M 327.839844 278.082031 L 319.144531 278.082031 L 319.144531 286.777344 L 327.839844 286.777344 L 327.839844 278.082031"/></g><g id="change3_30"><path fill="#393536" d="M 319.144531 347.625 L 319.144531 286.777344 L 310.4375 286.777344 L 310.4375 365.011719 L 319.144531 365.011719 L 319.144531 347.625"/></g><g id="change3_31"><path fill="#393536" d="M 262.613281 347.625 L 262.613281 417.167969 L 271.320312 417.167969 L 271.320312 338.933594 L 262.613281 338.933594 L 262.613281 347.625"/></g><g id="change3_32"><path fill="#393536" d="M 253.921875 425.859375 L 262.613281 425.859375 L 262.613281 417.167969 L 253.921875 417.167969 L 253.921875 425.859375"/></g><g id="change3_33"><path fill="#393536" d="M 262.613281 338.933594 L 262.613281 330.238281 L 253.921875 330.238281 L 253.921875 338.933594 L 262.613281 338.933594"/></g><g id="change3_34"><path fill="#393536" d="M 245.230469 434.554688 L 253.921875 434.554688 L 253.921875 425.859375 L 245.230469 425.859375 L 245.230469 434.554688"/></g><g id="change3_35"><path fill="#393536" d="M 245.230469 347.625 L 245.230469 417.167969 L 253.921875 417.167969 L 253.921875 338.933594 L 245.230469 338.933594 L 245.230469 347.625"/></g><g id="change3_36"><path fill="#393536" d="M 253.921875 330.238281 L 253.921875 321.546875 L 245.230469 321.546875 L 245.230469 330.238281 L 253.921875 330.238281"/></g><g id="change3_37"><path fill="#393536" d="M 236.519531 425.859375 L 245.230469 425.859375 L 245.230469 417.167969 L 236.519531 417.167969 L 236.519531 425.859375"/></g><g id="change3_38"><path fill="#393536" d="M 236.519531 330.238281 L 236.519531 338.933594 L 245.230469 338.933594 L 245.230469 330.238281 L 236.519531 330.238281"/></g><g id="change3_39"><path fill="#393536" d="M 236.519531 425.859375 L 227.828125 425.859375 L 227.828125 434.554688 L 193.042969 434.554688 L 193.042969 443.246094 L 245.230469 443.246094 L 245.230469 434.554688 L 236.519531 434.554688 L 236.519531 425.859375"/></g><g id="change3_40"><path fill="#393536" d="M 210.429688 321.546875 L 227.828125 321.546875 L 227.828125 330.238281 L 236.519531 330.238281 L 236.519531 321.546875 L 245.230469 321.546875 L 245.230469 312.855469 L 193.042969 312.855469 L 193.042969 321.546875 L 210.429688 321.546875"/></g><g id="change3_41"><path fill="#393536" d="M 184.335938 425.859375 L 184.335938 434.554688 L 193.042969 434.554688 L 193.042969 425.859375 L 184.335938 425.859375"/></g><g id="change3_42"><path fill="#393536" d="M 193.042969 321.546875 L 184.335938 321.546875 L 184.335938 330.238281 L 193.042969 330.238281 L 193.042969 321.546875"/></g><g id="change3_43"><path fill="#393536" d="M 175.640625 417.167969 L 175.640625 425.859375 L 184.335938 425.859375 L 184.335938 417.167969 L 175.640625 417.167969"/></g><g id="change3_44"><path fill="#393536" d="M 184.335938 330.238281 L 175.640625 330.238281 L 175.640625 338.933594 L 184.335938 338.933594 L 184.335938 330.238281"/></g><g id="change3_45"><path fill="#393536" d="M 175.640625 399.78125 L 175.640625 338.933594 L 166.933594 338.933594 L 166.933594 417.167969 L 175.640625 417.167969 L 175.640625 399.78125"/></g><g id="change4_1"><path fill="#f9a72b" d="M 275.667969 178.117188 L 284.375 178.117188 L 284.375 169.425781 L 293.066406 169.425781 L 293.066406 160.730469 L 284.375 160.730469 L 284.375 152.039062 L 275.667969 152.039062 L 275.667969 160.730469 L 266.976562 160.730469 L 266.976562 169.425781 L 275.667969 169.425781 L 275.667969 178.117188"/></g><g id="change4_2"><path fill="#f9a72b" d="M 223.480469 195.503906 L 232.175781 195.503906 L 232.175781 256.351562 L 223.480469 256.351562 L 223.480469 265.042969 L 214.789062 265.042969 L 214.789062 273.738281 L 188.695312 273.738281 L 188.695312 282.429688 L 223.480469 282.429688 L 223.480469 273.738281 L 232.175781 273.738281 L 232.175781 265.042969 L 240.882812 265.042969 L 240.882812 186.808594 L 232.175781 186.808594 L 232.175781 178.117188 L 223.480469 178.117188 L 223.480469 195.503906"/></g><g id="change4_3"><path fill="#f9a72b" d="M 179.988281 265.042969 L 179.988281 273.738281 L 188.695312 273.738281 L 188.695312 265.042969 L 179.988281 265.042969"/></g><g id="change4_4"><path fill="#f9a72b" d="M 179.988281 256.351562 L 179.988281 195.503906 L 188.695312 195.503906 L 188.695312 186.808594 L 197.390625 186.808594 L 197.390625 178.117188 L 223.480469 178.117188 L 223.480469 169.425781 L 188.695312 169.425781 L 188.695312 178.117188 L 179.988281 178.117188 L 179.988281 186.808594 L 171.296875 186.808594 L 171.296875 265.042969 L 179.988281 265.042969 L 179.988281 256.351562"/></g><g id="change4_5"><path fill="#f9a72b" d="M 137.339844 271.667969 L 146.03125 271.667969 L 146.03125 262.976562 L 154.722656 262.976562 L 154.722656 254.28125 L 146.03125 254.28125 L 146.03125 245.589844 L 137.339844 245.589844 L 137.339844 254.28125 L 128.632812 254.28125 L 128.632812 262.976562 L 137.339844 262.976562 L 137.339844 271.667969"/></g><g id="change4_6"><path fill="#f9a72b" d="M 145.203125 160.730469 L 153.894531 160.730469 L 153.894531 169.425781 L 145.203125 169.425781 Z M 153.894531 178.117188 L 162.589844 178.117188 L 162.589844 152.039062 L 136.496094 152.039062 L 136.496094 178.117188 L 153.894531 178.117188"/></g><g id="change4_7"><path fill="#f9a72b" d="M 458.320312 373.703125 L 458.320312 365.011719 L 449.613281 365.011719 L 449.613281 373.703125 L 440.917969 373.703125 L 440.917969 382.394531 L 449.613281 382.394531 L 449.613281 391.089844 L 458.320312 391.089844 L 458.320312 382.394531 L 467.011719 382.394531 L 467.011719 373.703125 L 458.320312 373.703125"/></g><g id="change4_8"><path fill="#f9a72b" d="M 440.917969 260.699219 L 432.226562 260.699219 L 432.226562 252.003906 L 423.519531 252.003906 L 423.519531 260.699219 L 414.824219 260.699219 L 414.824219 269.390625 L 423.519531 269.390625 L 423.519531 278.082031 L 432.226562 278.082031 L 432.226562 269.390625 L 440.917969 269.390625 L 440.917969 260.699219"/></g><g id="change4_9"><path fill="#f9a72b" d="M 380.023438 278.082031 L 371.332031 278.082031 L 371.332031 295.46875 L 380.023438 295.46875 L 380.023438 356.316406 L 371.332031 356.316406 L 371.332031 365.011719 L 362.640625 365.011719 L 362.640625 373.703125 L 336.546875 373.703125 L 336.546875 382.394531 L 371.332031 382.394531 L 371.332031 373.703125 L 380.023438 373.703125 L 380.023438 365.011719 L 388.734375 365.011719 L 388.734375 286.777344 L 380.023438 286.777344 L 380.023438 278.082031"/></g><g id="change4_10"><path fill="#f9a72b" d="M 327.839844 365.011719 L 327.839844 373.703125 L 336.546875 373.703125 L 336.546875 365.011719 L 327.839844 365.011719"/></g><g id="change4_11"><path fill="#f9a72b" d="M 327.839844 347.625 L 327.839844 295.46875 L 336.546875 295.46875 L 336.546875 286.777344 L 345.238281 286.777344 L 345.238281 278.082031 L 371.332031 278.082031 L 371.332031 269.390625 L 336.546875 269.390625 L 336.546875 278.082031 L 327.839844 278.082031 L 327.839844 286.777344 L 319.144531 286.777344 L 319.144531 365.011719 L 327.839844 365.011719 L 327.839844 347.625"/></g><g id="change4_12"><path fill="#f9a72b" d="M 301.746094 260.699219 L 301.746094 269.390625 L 293.054688 269.390625 L 293.054688 260.699219 Z M 284.347656 252.003906 L 284.347656 278.082031 L 310.4375 278.082031 L 310.4375 252.003906 L 284.347656 252.003906"/></g><g id="change4_13"><path fill="#f9a72b" d="M 314.816406 417.167969 L 306.105469 417.167969 L 306.105469 425.859375 L 297.414062 425.859375 L 297.414062 434.554688 L 306.105469 434.554688 L 306.105469 443.246094 L 314.816406 443.246094 L 314.816406 434.554688 L 323.507812 434.554688 L 323.507812 425.859375 L 314.816406 425.859375 L 314.816406 417.167969"/></g><g id="change4_14"><path fill="#f9a72b" d="M 297.414062 312.855469 L 288.722656 312.855469 L 288.722656 304.160156 L 280.015625 304.160156 L 280.015625 312.855469 L 271.320312 312.855469 L 271.320312 321.546875 L 280.015625 321.546875 L 280.015625 330.238281 L 288.722656 330.238281 L 288.722656 321.546875 L 297.414062 321.546875 L 297.414062 312.855469"/></g><g id="change4_15"><path fill="#f9a72b" d="M 236.519531 330.238281 L 227.828125 330.238281 L 227.828125 347.625 L 236.519531 347.625 L 236.519531 408.472656 L 227.828125 408.472656 L 227.828125 417.167969 L 219.136719 417.167969 L 219.136719 425.859375 L 193.042969 425.859375 L 193.042969 434.554688 L 227.828125 434.554688 L 227.828125 425.859375 L 236.519531 425.859375 L 236.519531 417.167969 L 245.230469 417.167969 L 245.230469 338.933594 L 236.519531 338.933594 L 236.519531 330.238281"/></g><g id="change4_16"><path fill="#f9a72b" d="M 184.335938 417.167969 L 184.335938 425.859375 L 193.042969 425.859375 L 193.042969 417.167969 L 184.335938 417.167969"/></g><g id="change4_17"><path fill="#f9a72b" d="M 184.335938 399.78125 L 184.335938 347.625 L 193.042969 347.625 L 193.042969 338.933594 L 201.734375 338.933594 L 201.734375 330.238281 L 227.828125 330.238281 L 227.828125 321.546875 L 193.042969 321.546875 L 193.042969 330.238281 L 184.335938 330.238281 L 184.335938 338.933594 L 175.640625 338.933594 L 175.640625 417.167969 L 184.335938 417.167969 L 184.335938 399.78125"/></g><g id="change4_18"><path fill="#f9a72b" d="M 145.664062 399.78125 L 136.972656 399.78125 L 136.972656 408.472656 L 128.261719 408.472656 L 128.261719 417.167969 L 136.972656 417.167969 L 136.972656 425.859375 L 145.664062 425.859375 L 145.664062 417.167969 L 154.355469 417.167969 L 154.355469 408.472656 L 145.664062 408.472656 L 145.664062 399.78125"/></g><g id="change4_19"><path fill="#f9a72b" d="M 158.242188 321.546875 L 149.550781 321.546875 L 149.550781 312.855469 L 158.242188 312.855469 Z M 149.550781 304.160156 L 140.839844 304.160156 L 140.839844 330.238281 L 166.933594 330.238281 L 166.933594 304.160156 L 149.550781 304.160156"/></g></g></svg>