<?xml version="1.0" encoding="UTF-8"?><svg xmlns="http://www.w3.org/2000/svg" xmlns:xlink="http://www.w3.org/1999/xlink" contentScriptType="text/ecmascript" fill="#507335" width="211.9" zoomAndPan="magnify" contentStyleType="text/css" viewBox="144.1 59.3 211.9 381.3" height="381.3" data-name="Layer 1" preserveAspectRatio="xMidYMid meet" version="1"><g id="change1_1"><path d="M313.56 59.33L313.56 101.7 271.19 101.7 271.19 144.07 228.81 144.07 228.81 186.44 186.44 186.44 186.44 228.81 144.07 228.81 144.07 271.19 186.44 271.19 186.44 313.56 228.81 313.56 228.81 355.93 271.19 355.93 271.19 398.3 313.56 398.3 313.56 440.67 355.93 440.67 355.93 398.3 355.93 355.93 355.93 313.56 355.93 271.19 355.93 228.81 355.93 186.44 355.93 144.07 355.93 101.7 355.93 59.33 313.56 59.33z"/></g></svg>