<?xml version="1.0" encoding="UTF-8"?><svg xmlns="http://www.w3.org/2000/svg" xmlns:xlink="http://www.w3.org/1999/xlink" contentScriptType="text/ecmascript" fill="#000000" width="465.6" zoomAndPan="magnify" contentStyleType="text/css" viewBox="-0.3 -0.3 465.6 85.1" height="85.1" data-name="Layer 1" preserveAspectRatio="xMidYMid meet" version="1"><g id="change1_1"><path fill="#d33c2d" d="M454.4,31.93V21.44H443.85V10.94H84.54V.43H52.83V10.94H42.26V.43H10.56V10.94H0V42.43H10.56v10.5H21.12v10.5H31.69v10.5H42.26v10.5H52.83V73.93h391V63.43H454.4V52.93H465v-21ZM53.21,42.38H63.76v-21H74.32v21H63.76V52.89H53.21Z"/></g><g id="change2_1"><path fill="#ffffff" d="M444.48 31.21L444.48 20.65 433.41 20.65 422.83 20.65 412.27 20.65 401.69 20.65 391.12 20.65 380.56 20.65 369.98 20.65 359.41 20.65 348.84 20.65 338.27 20.65 327.7 20.65 317.13 20.65 306.56 20.65 295.98 20.65 285.42 20.65 274.85 20.65 264.27 20.65 253.71 20.65 243.13 20.65 232.56 20.65 222 20.65 211.42 20.65 200.85 20.65 190.29 20.65 179.71 20.65 169.14 20.65 158.56 20.65 148 20.65 136.93 20.65 136.93 32.21 147.5 32.21 147.5 42.29 147.5 52.36 136.93 52.36 136.93 63.93 148 63.93 158.56 63.93 169.14 63.93 179.71 63.93 190.29 63.93 200.85 63.93 211.42 63.93 222 63.93 232.56 63.93 243.13 63.93 253.71 63.93 264.27 63.93 274.85 63.93 285.42 63.93 295.98 63.93 306.56 63.93 317.13 63.93 327.7 63.93 338.27 63.93 348.84 63.93 359.41 63.93 369.98 63.93 380.56 63.93 391.12 63.93 401.69 63.93 412.27 63.93 422.83 63.93 433.41 63.93 444.48 63.93 444.48 53.36 455.04 53.36 455.04 42.29 455.04 31.21 444.48 31.21z"/></g><g id="change3_1"><path fill="#d33c2d" d="M127.35 31.21L127.35 20.65 116.29 20.65 105.71 20.65 94.64 20.65 94.64 31.71 94.64 41.79 84.08 41.79 84.08 52.36 73.5 52.36 73.5 63.93 84.58 63.93 95.14 63.93 105.71 63.93 116.29 63.93 127.35 63.93 127.35 53.36 137.93 53.36 137.93 42.29 137.93 31.21 127.35 31.21z"/></g><g id="change4_1"><path fill="#d33c2d" d="M42.39 52.76L42.39 42.19 31.82 42.19 31.82 31.61 21.25 31.61 21.25 21.15 21.25 10.48 10.48 10.48 10.48 21.15 10.48 31.71 10.48 42.39 21.05 42.39 21.05 52.96 31.62 52.96 31.62 63.53 42.19 63.53 42.19 74.1 52.96 74.1 52.96 63.43 52.96 52.76 42.39 52.76z"/></g><g id="change5_1"><path fill="#000000" d="M454.79,31.46V20.9H444.23V10.33H84.83V-.25H52.61V10.33H42.54V-.25H10.33V10.33H-.25V42.54H10.33V53.11H20.9V63.68H31.47V74.25H42V84.82H53.11V74.25H444.23V63.68h10.56V53.11h10.58V31.46ZM73.75,42V52.61H63.18V63.18H52.61V73.75H42.54V63.18H32V52.61H21.4V42H10.83V10.83H42V21.4H53.11V10.83H84.33V42Zm63.43,10.57H126.6V63.18H74.25V53.11H84.83V42.54H95.39V21.4H126.6V32h10.58V52.61ZM454.29,42.29V52.61H443.73V63.18h-306V53.11h10.57V31.46H137.68V21.4H443.73V32h10.56Z"/></g></svg>