<?xml version="1.0" encoding="UTF-8"?><svg xmlns="http://www.w3.org/2000/svg" xmlns:xlink="http://www.w3.org/1999/xlink" contentScriptType="text/ecmascript" fill="#000000" width="2216.6" zoomAndPan="magnify" contentStyleType="text/css" viewBox="0.0 -0.0 2216.6 2030.2" height="2030.2" preserveAspectRatio="xMidYMid meet" version="1"><g><g><path fill="#52c6f3" d="M 2216.570312 2030.167969 L 0 2030.167969 L 0 -0.00390625 L 2216.570312 -0.00390625 L 2216.570312 2030.167969"/></g><g><path fill="#69ceef" d="M 2216.570312 1562.628906 L 2216.570312 467.527344 L 2200.566406 467.527344 L 2200.566406 556.097656 L 2170.730469 556.097656 L 2170.730469 467.527344 L 2122.523438 467.527344 L 2122.523438 525.554688 L 2044.46875 525.554688 L 2044.46875 614.109375 L 1975.589844 614.109375 L 1975.589844 467.527344 L 1920.503906 467.527344 L 1920.503906 553.035156 L 1844.746094 553.035156 L 1844.746094 467.527344 L 1791.941406 467.527344 L 1791.941406 546.929688 L 1727.660156 546.929688 L 1727.660156 467.527344 L 1651.902344 467.527344 L 1651.902344 504.175781 L 1546.296875 504.175781 L 1546.296875 467.527344 L 1482.015625 467.527344 L 1482.015625 574.414062 L 1420.046875 574.414062 L 1420.046875 467.527344 L 1371.828125 467.527344 L 1371.828125 525.554688 L 1282.300781 525.554688 L 1282.300781 595.789062 L 1197.351562 595.789062 L 1197.351562 498.070312 L 1139.960938 498.070312 L 1139.960938 549.976562 L 1089.460938 549.976562 L 1089.460938 488.90625 L 1018.289062 488.90625 L 1018.289062 562.203125 L 912.691406 562.203125 L 912.691406 467.527344 L 827.753906 467.527344 L 827.753906 513.34375 L 756.582031 513.34375 L 756.582031 467.527344 L 692.304688 467.527344 L 692.304688 510.28125 L 595.886719 510.28125 L 595.886719 586.625 L 533.902344 586.625 L 533.902344 467.527344 L 478.808594 467.527344 L 478.808594 531.660156 L 400.753906 531.660156 L 400.753906 467.527344 L 361.722656 467.527344 L 361.722656 507.234375 L 242.351562 507.234375 L 242.351562 604.957031 L 187.253906 604.957031 L 187.253906 467.527344 L 104.609375 467.527344 L 104.609375 522.492188 L 0 522.492188 L 0 1562.628906 L 2216.570312 1562.628906"/></g><g><path fill="#85d7f0" d="M 2216.570312 2030.167969 L 2216.570312 935.0625 L 2200.566406 935.0625 L 2200.566406 1023.621094 L 2170.730469 1023.621094 L 2170.730469 935.0625 L 2122.523438 935.0625 L 2122.523438 993.085938 L 2044.46875 993.085938 L 2044.46875 1081.648438 L 1975.589844 1081.648438 L 1975.589844 935.0625 L 1920.503906 935.0625 L 1920.503906 1020.570312 L 1844.746094 1020.570312 L 1844.746094 935.0625 L 1791.941406 935.0625 L 1791.941406 1014.460938 L 1727.660156 1014.460938 L 1727.660156 935.0625 L 1651.902344 935.0625 L 1651.902344 971.710938 L 1546.296875 971.710938 L 1546.296875 935.0625 L 1482.015625 935.0625 L 1482.015625 1041.949219 L 1420.046875 1041.949219 L 1420.046875 935.0625 L 1371.828125 935.0625 L 1371.828125 993.085938 L 1282.300781 993.085938 L 1282.300781 1063.328125 L 1197.351562 1063.328125 L 1197.351562 965.605469 L 1139.960938 965.605469 L 1139.960938 1017.519531 L 1089.460938 1017.519531 L 1089.460938 956.441406 L 1018.289062 956.441406 L 1018.289062 1029.730469 L 912.691406 1029.730469 L 912.691406 935.0625 L 827.753906 935.0625 L 827.753906 980.871094 L 756.582031 980.871094 L 756.582031 935.0625 L 692.304688 935.0625 L 692.304688 977.816406 L 595.886719 977.816406 L 595.886719 1054.160156 L 533.902344 1054.160156 L 533.902344 935.0625 L 478.808594 935.0625 L 478.808594 999.195312 L 400.753906 999.195312 L 400.753906 935.0625 L 361.722656 935.0625 L 361.722656 974.769531 L 242.351562 974.769531 L 242.351562 1072.488281 L 187.253906 1072.488281 L 187.253906 935.0625 L 104.609375 935.0625 L 104.609375 990.035156 L 0 990.035156 L 0 2030.167969 L 2216.570312 2030.167969"/></g><g><path fill="#8eca4d" d="M 2216.570312 1416.660156 L 1575.601562 1416.660156 L 1575.601562 1701.5 L 2216.570312 1701.5 L 2216.570312 1416.660156"/></g><g><path fill="#75a73f" d="M 2216.570312 1465.390625 L 2168.148438 1465.390625 L 2168.148438 1523.820312 L 2070.820312 1523.820312 L 2070.820312 1563.988281 L 1929.558594 1563.988281 L 1929.558594 1666.25 L 1866.773438 1666.25 L 1866.773438 1523.820312 L 1785.15625 1523.820312 L 1785.15625 1574.949219 L 1678.433594 1574.949219 L 1678.433594 1647.988281 L 1575.601562 1647.988281 L 1575.601562 1701.5 L 2216.570312 1701.5 L 2216.570312 1465.390625"/></g><g><path fill="#70402b" d="M 2216.570312 1701.5 L 1575.601562 1701.5 L 1575.601562 2030.167969 L 2216.570312 2030.167969 L 2216.570312 1701.5"/></g><g><path fill="#874b32" d="M 2216.570312 1954.757812 L 2216.570312 1797.71875 L 2202.675781 1797.71875 L 2202.675781 1852.5 L 2124.195312 1852.5 L 2124.195312 1790.421875 L 2051.988281 1790.421875 L 2051.988281 1739.289062 L 2023.742188 1739.289062 L 2023.742188 1779.460938 L 1998.628906 1779.460938 L 1998.628906 1837.890625 L 1945.265625 1837.890625 L 1945.265625 1779.460938 L 1876.199219 1779.460938 L 1876.199219 1852.5 L 1822.839844 1852.5 L 1822.839844 1757.550781 L 1722.386719 1757.550781 L 1722.386719 1797.71875 L 1637.625 1797.71875 L 1637.625 1863.460938 L 1575.601562 1863.460938 L 1575.601562 1929.199219 L 1650.175781 1929.199219 L 1650.175781 2030.167969 L 1690.984375 2030.167969 L 1690.984375 1896.328125 L 1750.628906 1896.328125 L 1750.628906 1962.070312 L 1794.578125 1962.070312 L 1794.578125 1918.238281 L 1891.890625 1918.238281 L 1891.890625 1976.679688 L 1938.984375 1976.679688 L 1938.984375 1921.890625 L 2030.011719 1921.890625 L 2030.011719 1987.628906 L 2099.078125 1987.628906 L 2099.078125 1940.160156 L 2158.722656 1940.160156 L 2158.722656 1954.757812 L 2216.570312 1954.757812"/></g><g><path fill="#70402b" d="M 2063.757812 1842.101562 L 2022.167969 1842.101562 L 2022.167969 1889.570312 L 2063.757812 1889.570312 L 2063.757812 1842.101562"/></g><g><path fill="#70402b" d="M 2157.140625 1879.230469 L 2115.546875 1879.230469 L 2115.546875 1926.699219 L 2157.140625 1926.699219 L 2157.140625 1879.230469"/></g><g><path fill="#70402b" d="M 1980.5625 1889.570312 L 1938.972656 1889.570312 L 1938.972656 1937.050781 L 1980.5625 1937.050781 L 1980.5625 1889.570312"/></g><g><path fill="#70402b" d="M 1836.164062 1892.992188 L 1794.574219 1892.992188 L 1794.574219 1940.46875 L 1836.164062 1940.46875 L 1836.164062 1892.992188"/></g><g><path fill="#70402b" d="M 1762.925781 1794.617188 L 1721.339844 1794.617188 L 1721.339844 1842.101562 L 1762.925781 1842.101562 L 1762.925781 1794.617188"/></g><g><path fill="#70402b" d="M 1654.109375 1862.179688 L 1612.511719 1862.179688 L 1612.511719 1909.660156 L 1654.109375 1909.660156 L 1654.109375 1862.179688"/></g><g><path fill="#70402b" d="M 2058.265625 1657.679688 L 2008.035156 1657.679688 L 2008.035156 1705.152344 L 2058.265625 1705.152344 L 2058.265625 1657.679688"/></g><g><path fill="#70402b" d="M 1816.554688 1677.757812 L 1766.324219 1677.757812 L 1766.324219 1725.238281 L 1816.554688 1725.238281 L 1816.554688 1677.757812"/></g><g><path fill="#75a73f" d="M 2008.046875 1681.410156 L 1957.820312 1681.410156 L 1957.820312 1728.890625 L 2008.046875 1728.890625 L 2008.046875 1681.410156"/></g><g><path fill="#75a73f" d="M 2157.140625 1679.03125 L 2106.917969 1679.03125 L 2106.917969 1726.511719 L 2157.140625 1726.511719 L 2157.140625 1679.03125"/></g><g><path fill="#75a73f" d="M 1902.878906 1691.460938 L 1852.644531 1691.460938 L 1852.644531 1738.929688 L 1902.878906 1738.929688 L 1902.878906 1691.460938"/></g><g><path fill="#75a73f" d="M 1706.675781 1677.761719 L 1656.449219 1677.761719 L 1656.449219 1725.242188 L 1706.675781 1725.242188 L 1706.675781 1677.761719"/></g><g><path fill="#8eca4d" d="M 1615.03125 1701.5 L 0 1701.5 L 0 1416.660156 L 1615.03125 1416.660156 L 1615.03125 1701.5"/></g><g><path fill="#75a73f" d="M 1568.820312 1490.949219 L 1568.820312 1534.78125 L 1537.429688 1534.78125 L 1537.429688 1578.601562 L 1465.230469 1578.601562 L 1465.230469 1615.121094 L 1396.171875 1615.121094 L 1396.171875 1553.039062 L 1364.78125 1553.039062 L 1364.78125 1534.78125 L 1301.988281 1534.78125 L 1301.988281 1512.859375 L 1245.488281 1512.859375 L 1245.488281 1567.648438 L 1217.238281 1567.648438 L 1217.238281 1647.988281 L 1185.851562 1647.988281 L 1185.851562 1567.648438 L 1135.621094 1567.648438 L 1135.621094 1494.601562 L 1101.089844 1494.601562 L 1101.089844 1596.859375 L 988.074219 1596.859375 L 988.074219 1498.261719 L 884.480469 1498.261719 L 884.480469 1571.300781 L 827.976562 1571.300781 L 827.976562 1607.820312 L 755.773438 1607.820312 L 755.773438 1560.339844 L 730.660156 1560.339844 L 730.660156 1582.25 L 658.460938 1582.25 L 658.460938 1465.390625 L 592.535156 1465.390625 L 592.535156 1523.820312 L 495.222656 1523.820312 L 495.222656 1563.988281 L 353.957031 1563.988281 L 353.957031 1666.25 L 291.171875 1666.25 L 291.171875 1523.820312 L 209.554688 1523.820312 L 209.554688 1574.949219 L 102.820312 1574.949219 L 102.820312 1647.988281 L 0 1647.988281 L 0 1701.5 L 1615.03125 1701.5 L 1615.03125 1490.949219 L 1568.820312 1490.949219"/></g><g><path fill="#70402b" d="M 1615.03125 2030.171875 L 0 2030.171875 L 0 1701.5 L 1615.03125 1701.5 L 1615.03125 2030.171875"/></g><g><path fill="#874b32" d="M 1562.550781 1870.769531 L 1615.03125 1870.769531 L 1615.03125 1837.890625 L 1581.378906 1837.890625 L 1581.378906 1735.640625 L 1493.480469 1735.640625 L 1493.480469 1794.070312 L 1396.171875 1794.070312 L 1396.171875 1701.5 L 1361.640625 1701.5 L 1361.640625 1779.460938 L 1317.691406 1779.460938 L 1317.691406 1808.679688 L 1261.191406 1808.679688 L 1261.191406 1779.460938 L 1176.429688 1779.460938 L 1176.429688 1823.289062 L 1094.808594 1823.289062 L 1094.808594 1701.5 L 1079.109375 1701.5 L 1079.109375 1772.160156 L 981.796875 1772.160156 L 981.796875 1848.851562 L 862.507812 1848.851562 L 862.507812 1790.421875 L 784.027344 1790.421875 L 784.027344 1757.550781 L 758.914062 1757.550781 L 758.914062 1870.769531 L 671.015625 1870.769531 L 671.015625 1797.71875 L 627.066406 1797.71875 L 627.066406 1852.5 L 548.589844 1852.5 L 548.589844 1790.421875 L 476.386719 1790.421875 L 476.386719 1739.289062 L 448.132812 1739.289062 L 448.132812 1779.460938 L 423.019531 1779.460938 L 423.019531 1837.890625 L 369.652344 1837.890625 L 369.652344 1779.460938 L 300.589844 1779.460938 L 300.589844 1852.5 L 247.226562 1852.5 L 247.226562 1757.550781 L 146.769531 1757.550781 L 146.769531 1797.71875 L 62.011719 1797.71875 L 62.011719 1863.460938 L 0 1863.460938 L 0 1929.199219 L 74.570312 1929.199219 L 74.570312 2030.171875 L 115.378906 2030.171875 L 115.378906 1896.328125 L 175.023438 1896.328125 L 175.023438 1962.070312 L 218.972656 1962.070312 L 218.972656 1918.238281 L 316.285156 1918.238281 L 316.285156 1976.679688 L 363.375 1976.679688 L 363.375 1921.890625 L 454.410156 1921.890625 L 454.410156 1987.628906 L 523.472656 1987.628906 L 523.472656 1940.160156 L 583.117188 1940.160156 L 583.117188 1954.761719 L 671.015625 1954.761719 L 671.015625 1918.238281 L 824.835938 1918.238281 L 824.835938 1896.328125 L 1016.328125 1896.328125 L 1016.328125 1976.679688 L 1044.578125 1976.679688 L 1044.578125 1932.851562 L 1198.398438 1932.851562 L 1198.398438 2030.171875 L 1258.050781 2030.171875 L 1258.050781 1870.769531 L 1320.828125 1870.769531 L 1320.828125 1947.460938 L 1367.921875 1947.460938 L 1367.921875 1892.679688 L 1477.789062 1892.679688 L 1477.789062 2002.238281 L 1553.128906 2002.238281 L 1553.128906 1954.761719 L 1562.550781 1954.761719 L 1562.550781 1870.769531"/></g><g><path fill="#95644d" d="M 1555.570312 1763.570312 L 1571.089844 1763.570312 L 1571.089844 1762.738281 C 1565.910156 1762.921875 1560.738281 1763.199219 1555.570312 1763.570312"/></g><g><path fill="#70402b" d="M 1462.089844 1657.679688 L 1411.871094 1657.679688 L 1411.871094 1705.148438 L 1462.089844 1705.148438 L 1462.089844 1657.679688"/></g><g><path fill="#70402b" d="M 962.960938 1657.679688 L 912.734375 1657.679688 L 912.734375 1705.148438 L 962.960938 1705.148438 L 962.960938 1657.679688"/></g><g><path fill="#70402b" d="M 699.269531 1657.679688 L 649.042969 1657.679688 L 649.042969 1705.148438 L 699.269531 1705.148438 L 699.269531 1657.679688"/></g><g><path fill="#70402b" d="M 488.15625 1842.101562 L 446.5625 1842.101562 L 446.5625 1889.570312 L 488.15625 1889.570312 L 488.15625 1842.101562"/></g><g><path fill="#70402b" d="M 581.546875 1879.230469 L 539.953125 1879.230469 L 539.953125 1926.699219 L 581.546875 1926.699219 L 581.546875 1879.230469"/></g><g><path fill="#70402b" d="M 835.300781 1813.488281 L 793.707031 1813.488281 L 793.707031 1860.96875 L 835.300781 1860.96875 L 835.300781 1813.488281"/></g><g><path fill="#70402b" d="M 794.230469 1883.480469 L 752.636719 1883.480469 L 752.636719 1930.960938 L 794.230469 1930.960938 L 794.230469 1883.480469"/></g><g><path fill="#70402b" d="M 949.617188 1828.710938 L 908.023438 1828.710938 L 908.023438 1876.179688 L 949.617188 1876.179688 L 949.617188 1828.710938"/></g><g><path fill="#70402b" d="M 1075.191406 1842.101562 L 1033.589844 1842.101562 L 1033.589844 1889.570312 L 1075.191406 1889.570312 L 1075.191406 1842.101562"/></g><g><path fill="#70402b" d="M 1145.820312 1865.839844 L 1104.230469 1865.839844 L 1104.230469 1913.308594 L 1145.820312 1913.308594 L 1145.820312 1865.839844"/></g><g><path fill="#70402b" d="M 1243.921875 1804.96875 L 1202.320312 1804.96875 L 1202.320312 1852.441406 L 1243.921875 1852.441406 L 1243.921875 1804.96875"/></g><g><path fill="#70402b" d="M 1351.828125 1821.398438 L 1310.238281 1821.398438 L 1310.238281 1868.878906 L 1351.828125 1868.878906 L 1351.828125 1821.398438"/></g><g><path fill="#70402b" d="M 1519.25 1804.96875 L 1477.660156 1804.96875 L 1477.660156 1852.441406 L 1519.25 1852.441406 L 1519.25 1804.96875"/></g><g><path fill="#70402b" d="M 1551.171875 1889.570312 L 1509.570312 1889.570312 L 1509.570312 1937.050781 L 1551.171875 1937.050781 L 1551.171875 1889.570312"/></g><g><path fill="#70402b" d="M 1453.460938 1865.839844 L 1411.871094 1865.839844 L 1411.871094 1913.308594 L 1453.460938 1913.308594 L 1453.460938 1865.839844"/></g><g><path fill="#70402b" d="M 1273.421875 1943.140625 L 1231.820312 1943.140625 L 1231.820312 1990.609375 L 1273.421875 1990.609375 L 1273.421875 1943.140625"/></g><g><path fill="#70402b" d="M 404.96875 1889.570312 L 363.375 1889.570312 L 363.375 1937.050781 L 404.96875 1937.050781 L 404.96875 1889.570312"/></g><g><path fill="#70402b" d="M 260.566406 1892.988281 L 218.972656 1892.988281 L 218.972656 1940.46875 L 260.566406 1940.46875 L 260.566406 1892.988281"/></g><g><path fill="#70402b" d="M 187.320312 1794.621094 L 145.722656 1794.621094 L 145.722656 1842.101562 L 187.320312 1842.101562 L 187.320312 1794.621094"/></g><g><path fill="#70402b" d="M 78.492188 1862.179688 L 36.898438 1862.179688 L 36.898438 1909.660156 L 78.492188 1909.660156 L 78.492188 1862.179688"/></g><g><path fill="#70402b" d="M 482.664062 1657.679688 L 432.4375 1657.679688 L 432.4375 1705.148438 L 482.664062 1705.148438 L 482.664062 1657.679688"/></g><g><path fill="#70402b" d="M 1113.640625 1679.03125 L 1063.421875 1679.03125 L 1063.421875 1726.511719 L 1113.640625 1726.511719 L 1113.640625 1679.03125"/></g><g><path fill="#70402b" d="M 1277.738281 1677.761719 L 1227.511719 1677.761719 L 1227.511719 1725.238281 L 1277.738281 1725.238281 L 1277.738281 1677.761719"/></g><g><path fill="#70402b" d="M 240.945312 1677.761719 L 190.722656 1677.761719 L 190.722656 1725.238281 L 240.945312 1725.238281 L 240.945312 1677.761719"/></g><g><path fill="#75a73f" d="M 432.4375 1681.410156 L 382.210938 1681.410156 L 382.210938 1728.890625 L 432.4375 1728.890625 L 432.4375 1681.410156"/></g><g><path fill="#75a73f" d="M 581.546875 1679.03125 L 531.320312 1679.03125 L 531.320312 1726.511719 L 581.546875 1726.511719 L 581.546875 1679.03125"/></g><g><path fill="#75a73f" d="M 777.746094 1691.460938 L 727.519531 1691.460938 L 727.519531 1738.929688 L 777.746094 1738.929688 L 777.746094 1691.460938"/></g><g><path fill="#75a73f" d="M 879.773438 1679.03125 L 829.546875 1679.03125 L 829.546875 1726.511719 L 879.773438 1726.511719 L 879.773438 1679.03125"/></g><g><path fill="#75a73f" d="M 1063.421875 1691.460938 L 1013.191406 1691.460938 L 1013.191406 1738.929688 L 1063.421875 1738.929688 L 1063.421875 1691.460938"/></g><g><path fill="#75a73f" d="M 1202.320312 1691.460938 L 1152.101562 1691.460938 L 1152.101562 1738.929688 L 1202.320312 1738.929688 L 1202.320312 1691.460938"/></g><g><path fill="#75a73f" d="M 1356.140625 1691.460938 L 1305.921875 1691.460938 L 1305.921875 1738.929688 L 1356.140625 1738.929688 L 1356.140625 1691.460938"/></g><g><path fill="#75a73f" d="M 1541.359375 1663.160156 L 1491.128906 1663.160156 L 1491.128906 1710.628906 L 1541.359375 1710.628906 L 1541.359375 1663.160156"/></g><g><path fill="#75a73f" d="M 327.273438 1691.460938 L 277.046875 1691.460938 L 277.046875 1738.929688 L 327.273438 1738.929688 L 327.273438 1691.460938"/></g><g><path fill="#75a73f" d="M 131.074219 1677.761719 L 80.847656 1677.761719 L 80.847656 1725.238281 L 131.074219 1725.238281 L 131.074219 1677.761719"/></g><g><path fill="#b7e7f2" d="M 792.488281 645.550781 L 792.488281 637.058594 L 782.515625 637.058594 L 782.515625 628.578125 L 772.550781 628.578125 L 772.550781 611.601562 L 762.582031 611.601562 L 762.582031 552.171875 L 752.613281 552.171875 L 752.613281 560.660156 L 742.644531 560.660156 L 742.644531 569.148438 L 682.832031 569.148438 L 682.832031 560.660156 L 672.863281 560.660156 L 672.863281 552.171875 L 662.898438 552.171875 L 662.898438 543.679688 L 652.929688 543.679688 L 652.929688 552.171875 L 642.960938 552.171875 L 642.960938 569.148438 L 632.992188 569.148438 L 632.992188 577.640625 L 623.023438 577.640625 L 623.023438 586.128906 L 613.054688 586.128906 L 613.054688 594.621094 L 593.117188 594.621094 L 593.117188 603.109375 L 513.371094 603.109375 L 513.371094 594.621094 L 493.433594 594.621094 L 493.433594 586.128906 L 483.464844 586.128906 L 483.464844 577.640625 L 473.496094 577.640625 L 473.496094 569.148438 L 453.558594 569.148438 L 453.558594 577.640625 L 443.589844 577.640625 L 443.589844 586.128906 L 383.777344 586.128906 L 383.777344 577.640625 L 373.8125 577.640625 L 373.8125 569.148438 L 363.84375 569.148438 L 363.84375 552.171875 L 353.875 552.171875 L 353.875 518.210938 L 343.90625 518.210938 L 343.90625 543.679688 L 333.9375 543.679688 L 333.9375 594.621094 L 343.90625 594.621094 L 343.90625 620.089844 L 353.875 620.089844 L 353.875 637.058594 L 363.84375 637.058594 L 363.84375 645.550781 L 373.8125 645.550781 L 373.8125 654.039062 L 393.75 654.039062 L 393.75 662.539062 L 792.488281 662.539062 L 792.488281 654.039062 L 802.453125 654.039062 L 802.453125 645.550781 L 792.488281 645.550781"/></g><g><path fill="#ffffff" d="M 822.390625 569.148438 L 822.390625 552.171875 L 812.421875 552.171875 L 812.421875 543.679688 L 802.453125 543.679688 L 802.453125 535.191406 L 792.488281 535.191406 L 792.488281 526.699219 L 762.582031 526.699219 L 762.582031 501.230469 L 752.613281 501.230469 L 752.613281 475.761719 L 742.644531 475.761719 L 742.644531 467.269531 L 732.675781 467.269531 L 732.675781 458.78125 L 722.707031 458.78125 L 722.707031 450.289062 L 712.738281 450.289062 L 712.738281 441.800781 L 632.992188 441.800781 L 632.992188 450.289062 L 623.023438 450.289062 L 623.023438 433.308594 L 613.054688 433.308594 L 613.054688 424.828125 L 593.117188 424.828125 L 593.117188 416.339844 L 583.148438 416.339844 L 583.148438 407.851562 L 523.339844 407.851562 L 523.339844 416.339844 L 503.402344 416.339844 L 503.402344 424.828125 L 493.433594 424.828125 L 493.433594 433.308594 L 483.464844 433.308594 L 483.464844 441.800781 L 473.496094 441.800781 L 473.496094 450.289062 L 463.527344 450.289062 L 463.527344 475.761719 L 393.75 475.761719 L 393.75 484.25 L 373.8125 484.25 L 373.8125 492.75 L 363.84375 492.75 L 363.84375 501.230469 L 353.875 501.230469 L 353.875 552.171875 L 363.84375 552.171875 L 363.84375 569.148438 L 373.8125 569.148438 L 373.8125 577.640625 L 383.777344 577.640625 L 383.777344 586.128906 L 443.589844 586.128906 L 443.589844 577.640625 L 453.558594 577.640625 L 453.558594 569.148438 L 473.496094 569.148438 L 473.496094 577.640625 L 483.464844 577.640625 L 483.464844 586.128906 L 493.433594 586.128906 L 493.433594 594.621094 L 513.371094 594.621094 L 513.371094 603.109375 L 593.117188 603.109375 L 593.117188 594.621094 L 613.054688 594.621094 L 613.054688 586.128906 L 623.023438 586.128906 L 623.023438 577.640625 L 632.992188 577.640625 L 632.992188 569.148438 L 642.960938 569.148438 L 642.960938 552.171875 L 652.929688 552.171875 L 652.929688 543.679688 L 662.898438 543.679688 L 662.898438 552.171875 L 672.863281 552.171875 L 672.863281 560.660156 L 682.832031 560.660156 L 682.832031 569.148438 L 742.644531 569.148438 L 742.644531 560.660156 L 752.613281 560.660156 L 752.613281 552.171875 L 762.582031 552.171875 L 762.582031 611.601562 L 772.550781 611.601562 L 772.550781 628.578125 L 782.515625 628.578125 L 782.515625 637.058594 L 792.488281 637.058594 L 792.488281 645.550781 L 802.453125 645.550781 L 802.453125 654.039062 L 812.421875 654.039062 L 812.421875 637.058594 L 822.390625 637.058594 L 822.390625 628.578125 L 832.359375 628.578125 L 832.359375 569.148438 L 822.390625 569.148438"/></g><g><path fill="#b7e7f2" d="M 1954.820312 648.574219 L 1954.820312 639.53125 L 1944.207031 639.53125 L 1944.207031 630.476562 L 1933.574219 630.476562 L 1933.574219 612.375 L 1922.949219 612.375 L 1922.949219 549.035156 L 1912.328125 549.035156 L 1912.328125 558.089844 L 1901.703125 558.089844 L 1901.703125 567.148438 L 1837.941406 567.148438 L 1837.941406 558.089844 L 1827.328125 558.089844 L 1827.328125 549.035156 L 1816.695312 549.035156 L 1816.695312 539.992188 L 1806.070312 539.992188 L 1806.070312 549.035156 L 1795.449219 549.035156 L 1795.449219 567.148438 L 1784.824219 567.148438 L 1784.824219 576.191406 L 1774.191406 576.191406 L 1774.191406 585.234375 L 1763.578125 585.234375 L 1763.578125 594.289062 L 1742.308594 594.289062 L 1742.308594 603.332031 L 1657.3125 603.332031 L 1657.3125 594.289062 L 1636.066406 594.289062 L 1636.066406 585.234375 L 1625.441406 585.234375 L 1625.441406 576.191406 L 1614.820312 576.191406 L 1614.820312 567.148438 L 1593.5625 567.148438 L 1593.5625 576.191406 L 1582.9375 576.191406 L 1582.9375 585.234375 L 1519.1875 585.234375 L 1519.1875 576.191406 L 1508.5625 576.191406 L 1508.5625 567.148438 L 1497.929688 567.148438 L 1497.929688 549.035156 L 1487.316406 549.035156 L 1487.316406 512.847656 L 1476.683594 512.847656 L 1476.683594 539.992188 L 1466.058594 539.992188 L 1466.058594 594.289062 L 1476.683594 594.289062 L 1476.683594 621.433594 L 1487.316406 621.433594 L 1487.316406 639.53125 L 1497.929688 639.53125 L 1497.929688 648.574219 L 1508.5625 648.574219 L 1508.5625 657.628906 L 1529.808594 657.628906 L 1529.808594 666.671875 L 1954.820312 666.671875 L 1954.820312 657.628906 L 1965.453125 657.628906 L 1965.453125 648.574219 L 1954.820312 648.574219"/></g><g><path fill="#ffffff" d="M 1986.695312 567.148438 L 1986.695312 549.050781 L 1976.074219 549.050781 L 1976.074219 539.992188 L 1965.449219 539.992188 L 1965.449219 530.9375 L 1954.824219 530.9375 L 1954.824219 521.894531 L 1922.941406 521.894531 L 1922.941406 494.742188 L 1912.316406 494.742188 L 1912.316406 467.601562 L 1901.707031 467.601562 L 1901.707031 458.558594 L 1891.070312 458.558594 L 1891.070312 449.503906 L 1880.433594 449.503906 L 1880.433594 440.457031 L 1869.824219 440.457031 L 1869.824219 431.402344 L 1784.820312 431.402344 L 1784.820312 440.457031 L 1774.183594 440.457031 L 1774.183594 422.359375 L 1763.574219 422.359375 L 1763.574219 413.304688 L 1742.3125 413.304688 L 1742.3125 404.261719 L 1731.6875 404.261719 L 1731.6875 395.207031 L 1667.945312 395.207031 L 1667.945312 404.261719 L 1646.6875 404.261719 L 1646.6875 413.304688 L 1636.0625 413.304688 L 1636.0625 422.359375 L 1625.4375 422.359375 L 1625.4375 431.402344 L 1614.816406 431.402344 L 1614.816406 440.457031 L 1604.191406 440.457031 L 1604.191406 467.601562 L 1529.8125 467.601562 L 1529.8125 476.65625 L 1508.566406 476.65625 L 1508.566406 485.699219 L 1497.929688 485.699219 L 1497.929688 494.742188 L 1487.304688 494.742188 L 1487.304688 549.050781 L 1497.929688 549.050781 L 1497.929688 567.148438 L 1508.566406 567.148438 L 1508.566406 576.191406 L 1519.175781 576.191406 L 1519.175781 585.234375 L 1582.929688 585.234375 L 1582.929688 576.191406 L 1593.554688 576.191406 L 1593.554688 567.148438 L 1614.816406 567.148438 L 1614.816406 576.191406 L 1625.4375 576.191406 L 1625.4375 585.234375 L 1636.0625 585.234375 L 1636.0625 594.289062 L 1657.308594 594.289062 L 1657.308594 603.332031 L 1742.3125 603.332031 L 1742.3125 594.289062 L 1763.574219 594.289062 L 1763.574219 585.234375 L 1774.183594 585.234375 L 1774.183594 576.191406 L 1784.820312 576.191406 L 1784.820312 567.148438 L 1795.445312 567.148438 L 1795.445312 549.050781 L 1806.066406 549.050781 L 1806.066406 539.992188 L 1816.691406 539.992188 L 1816.691406 549.050781 L 1827.316406 549.050781 L 1827.316406 558.09375 L 1837.9375 558.09375 L 1837.9375 567.148438 L 1901.707031 567.148438 L 1901.707031 558.09375 L 1912.316406 558.09375 L 1912.316406 549.050781 L 1922.941406 549.050781 L 1922.941406 612.386719 L 1933.566406 612.386719 L 1933.566406 630.484375 L 1944.203125 630.484375 L 1944.203125 639.53125 L 1954.824219 639.53125 L 1954.824219 648.585938 L 1965.449219 648.585938 L 1965.449219 657.628906 L 1976.074219 657.628906 L 1976.074219 639.53125 L 1986.695312 639.53125 L 1986.695312 630.484375 L 1997.320312 630.484375 L 1997.320312 567.148438 L 1986.695312 567.148438"/></g><g><path fill="#914c28" d="M 463.90625 920.300781 L 266.691406 920.300781 L 266.691406 1074.609375 L 463.90625 1074.609375 L 463.90625 920.300781"/></g><g><path fill="#a1532b" d="M 463.90625 984.179688 L 446.316406 984.179688 L 446.316406 935.851562 L 373.332031 935.851562 L 373.332031 956.300781 L 311.746094 956.300781 L 311.746094 989.761719 L 266.691406 989.761719 L 266.691406 1023.21875 L 320.871094 1023.21875 L 320.871094 1074.609375 L 350.523438 1074.609375 L 350.523438 1006.488281 L 393.859375 1006.488281 L 393.859375 1039.949219 L 425.789062 1039.949219 L 425.789062 1017.640625 L 463.90625 1017.640625 L 463.90625 984.179688"/></g><g><path fill="#794125" d="M 456.011719 1004.789062 L 425.789062 1004.789062 L 425.789062 1028.960938 L 456.011719 1028.960938 L 456.011719 1004.789062"/></g><g><path fill="#794125" d="M 402.789062 954.71875 L 372.570312 954.71875 L 372.570312 978.890625 L 402.789062 978.890625 L 402.789062 954.71875"/></g><g><path fill="#794125" d="M 323.722656 989.109375 L 293.503906 989.109375 L 293.503906 1013.269531 L 323.722656 1013.269531 L 323.722656 989.109375"/></g><path fill="none" stroke-width="99.456" stroke-miterlimit="10" d="M 2666.914062 10595.507812 L 4639.0625 10595.507812" transform="matrix(.1 0 0 -.1 0 2031)" stroke="#432317"/><path fill="none" stroke-width="99.456" stroke-miterlimit="10" d="M 2666.914062 9983.90625 L 4639.0625 9983.90625" transform="matrix(.1 0 0 -.1 0 2031)" stroke="#432317"/><path fill="none" stroke-width="99.456" stroke-miterlimit="10" d="M 3686.367188 11106.992188 L 3686.367188 10595.507812" transform="matrix(.1 0 0 -.1 0 2031)" stroke="#432317"/><path fill="none" stroke-width="99.456" stroke-miterlimit="10" d="M 3686.367188 10008.984375 L 3686.367188 9563.90625" transform="matrix(.1 0 0 -.1 0 2031)" stroke="#432317"/><path fill="none" stroke-width="99.456" stroke-miterlimit="10" d="M 3052.773438 10587.1875 L 3052.773438 10008.984375" transform="matrix(.1 0 0 -.1 0 2031)" stroke="#432317"/><path fill="none" stroke-width="99.456" stroke-miterlimit="10" d="M 4277.65625 10587.1875 L 4277.65625 10008.984375" transform="matrix(.1 0 0 -.1 0 2031)" stroke="#432317"/><path fill="none" stroke-width="99.456" stroke-miterlimit="10" d="M 4639.0625 11106.992188 L 2666.914062 11106.992188 L 2666.914062 9563.90625 L 4639.0625 9563.90625 Z M 4639.0625 11106.992188" transform="matrix(.1 0 0 -.1 0 2031)" stroke="#432317"/><g><path fill="#914c28" d="M 665.421875 920.300781 L 468.210938 920.300781 L 468.210938 1074.609375 L 665.421875 1074.609375 L 665.421875 920.300781"/></g><g><path fill="#a1532b" d="M 665.421875 984.179688 L 647.835938 984.179688 L 647.835938 935.851562 L 574.847656 935.851562 L 574.847656 956.300781 L 513.265625 956.300781 L 513.265625 989.761719 L 468.210938 989.761719 L 468.210938 1023.21875 L 522.390625 1023.21875 L 522.390625 1074.609375 L 552.042969 1074.609375 L 552.042969 1006.488281 L 595.375 1006.488281 L 595.375 1039.949219 L 627.308594 1039.949219 L 627.308594 1017.640625 L 665.421875 1017.640625 L 665.421875 984.179688"/></g><g><path fill="#794125" d="M 657.527344 1004.789062 L 627.308594 1004.789062 L 627.308594 1028.960938 L 657.527344 1028.960938 L 657.527344 1004.789062"/></g><g><path fill="#794125" d="M 604.308594 954.71875 L 574.089844 954.71875 L 574.089844 978.890625 L 604.308594 978.890625 L 604.308594 954.71875"/></g><g><path fill="#794125" d="M 525.242188 989.109375 L 495.019531 989.109375 L 495.019531 1013.269531 L 525.242188 1013.269531 L 525.242188 989.109375"/></g><path fill="none" stroke-width="99.456" stroke-miterlimit="10" d="M 4682.109375 10595.507812 L 6654.21875 10595.507812" transform="matrix(.1 0 0 -.1 0 2031)" stroke="#432317"/><path fill="none" stroke-width="99.456" stroke-miterlimit="10" d="M 4682.109375 9983.90625 L 6654.21875 9983.90625" transform="matrix(.1 0 0 -.1 0 2031)" stroke="#432317"/><path fill="none" stroke-width="99.456" stroke-miterlimit="10" d="M 5701.523438 11106.992188 L 5701.523438 10595.507812" transform="matrix(.1 0 0 -.1 0 2031)" stroke="#432317"/><path fill="none" stroke-width="99.456" stroke-miterlimit="10" d="M 5701.523438 10008.984375 L 5701.523438 9563.90625" transform="matrix(.1 0 0 -.1 0 2031)" stroke="#432317"/><path fill="none" stroke-width="99.456" stroke-miterlimit="10" d="M 5067.96875 10587.1875 L 5067.96875 10008.984375" transform="matrix(.1 0 0 -.1 0 2031)" stroke="#432317"/><path fill="none" stroke-width="99.456" stroke-miterlimit="10" d="M 6292.8125 10587.1875 L 6292.8125 10008.984375" transform="matrix(.1 0 0 -.1 0 2031)" stroke="#432317"/><path fill="none" stroke-width="99.456" stroke-miterlimit="10" d="M 6654.21875 11106.992188 L 4682.109375 11106.992188 L 4682.109375 9563.90625 L 6654.21875 9563.90625 Z M 6654.21875 11106.992188" transform="matrix(.1 0 0 -.1 0 2031)" stroke="#432317"/><g><path fill="#914c28" d="M 1757.089844 920.292969 L 1559.875 920.292969 L 1559.875 1074.609375 L 1757.089844 1074.609375 L 1757.089844 920.292969"/></g><g><path fill="#a1532b" d="M 1757.089844 984.179688 L 1739.507812 984.179688 L 1739.507812 935.847656 L 1666.519531 935.847656 L 1666.519531 956.300781 L 1604.9375 956.300781 L 1604.9375 989.757812 L 1559.875 989.757812 L 1559.875 1023.21875 L 1614.066406 1023.21875 L 1614.066406 1074.609375 L 1643.710938 1074.609375 L 1643.710938 1006.488281 L 1687.054688 1006.488281 L 1687.054688 1039.949219 L 1718.984375 1039.949219 L 1718.984375 1017.640625 L 1757.089844 1017.640625 L 1757.089844 984.179688"/></g><g><path fill="#794125" d="M 1749.203125 1004.789062 L 1718.984375 1004.789062 L 1718.984375 1028.957031 L 1749.203125 1028.957031 L 1749.203125 1004.789062"/></g><g><path fill="#794125" d="M 1695.980469 954.71875 L 1665.765625 954.71875 L 1665.765625 978.886719 L 1695.980469 978.886719 L 1695.980469 954.71875"/></g><g><path fill="#794125" d="M 1616.910156 989.109375 L 1586.691406 989.109375 L 1586.691406 1013.269531 L 1616.910156 1013.269531 L 1616.910156 989.109375"/></g><path fill="none" stroke-width="92.263" stroke-miterlimit="10" d="M 14470.486192 9829.166744 L 16299.988346 9829.166744" transform="matrix(.1078 0 0 -.1078 0 2031)" stroke="#432317"/><path fill="none" stroke-width="92.263" stroke-miterlimit="10" d="M 14470.486192 9261.766329 L 16299.988346 9261.766329" transform="matrix(.1078 0 0 -.1078 0 2031)" stroke="#432317"/><path fill="none" stroke-width="97.552" stroke-miterlimit="10" d="M 16299.988291 10894.411402 L 16299.988291 10392.605098" transform="matrix(.10195 0 0 -.10195 0 2031)" stroke="#432317"/><path fill="none" stroke-width="97.552" stroke-miterlimit="10" d="M 16299.988291 9817.349709 L 16299.988291 9380.793167" transform="matrix(.10195 0 0 -.10195 0 2031)" stroke="#432317"/><path fill="none" stroke-width="99.456" stroke-miterlimit="10" d="M 15984.6875 10587.1875 L 15984.6875 10008.984375" transform="matrix(.1 0 0 -.1 0 2031)" stroke="#432317"/><path fill="none" stroke-width="94.2" stroke-miterlimit="10" d="M 16299.991712 10027.681912 L 16299.991712 9480.037353" transform="matrix(.10558 0 0 -.10558 0 2031)" stroke="#432317"/><path fill="none" stroke-width="92.263" stroke-miterlimit="10" d="M 16299.988346 10303.691487 L 14470.486192 10303.691487 L 14470.486192 8872.145097 L 16299.988346 8872.145097 Z M 16299.988346 10303.691487" transform="matrix(.1078 0 0 -.1078 0 2031)" stroke="#432317"/><g><path fill="#914c28" d="M 1958.609375 920.296875 L 1761.402344 920.296875 L 1761.402344 1074.609375 L 1958.609375 1074.609375 L 1958.609375 920.296875"/></g><g><path fill="#a1532b" d="M 1958.609375 984.183594 L 1941.015625 984.183594 L 1941.015625 935.851562 L 1868.042969 935.851562 L 1868.042969 956.300781 L 1806.460938 956.300781 L 1806.460938 989.761719 L 1761.402344 989.761719 L 1761.402344 1023.21875 L 1815.582031 1023.21875 L 1815.582031 1074.609375 L 1845.226562 1074.609375 L 1845.226562 1006.492188 L 1888.554688 1006.492188 L 1888.554688 1039.953125 L 1920.492188 1039.953125 L 1920.492188 1017.640625 L 1958.609375 1017.640625 L 1958.609375 984.183594"/></g><g><path fill="#794125" d="M 1950.71875 1004.789062 L 1920.5 1004.789062 L 1920.5 1028.960938 L 1950.71875 1028.960938 L 1950.71875 1004.789062"/></g><g><path fill="#794125" d="M 1897.5 954.722656 L 1867.277344 954.722656 L 1867.277344 978.886719 L 1897.5 978.886719 L 1897.5 954.722656"/></g><g><path fill="#794125" d="M 1818.429688 989.109375 L 1788.207031 989.109375 L 1788.207031 1013.273438 L 1818.429688 1013.273438 L 1818.429688 989.109375"/></g><path fill="none" stroke-width="82.77" stroke-miterlimit="10" d="M 14658.807788 8817.832733 L 16300.011443 8817.832733" transform="matrix(.12016 0 0 -.12016 0 2031)" stroke="#432317"/><path fill="none" stroke-width="82.77" stroke-miterlimit="10" d="M 14658.807788 8308.843417 L 16300.011443 8308.843417" transform="matrix(.12016 0 0 -.12016 0 2031)" stroke="#432317"/><path fill="none" stroke-width="87.002" stroke-miterlimit="10" d="M 16300.012575 9716.128406 L 16300.012575 9268.694233" transform="matrix(.11431 0 0 -.11431 0 2031)" stroke="#432317"/><path fill="none" stroke-width="87.002" stroke-miterlimit="10" d="M 16300.012575 8755.58353 L 16300.012575 8366.23994" transform="matrix(.11431 0 0 -.11431 0 2031)" stroke="#432317"/><path fill="none" stroke-width="90.064" stroke-miterlimit="10" d="M 16300.001472 9587.376786 L 16300.001472 9063.810243" transform="matrix(.11043 0 0 -.11043 0 2031)" stroke="#432317"/><path fill="none" stroke-width="84.326" stroke-miterlimit="10" d="M 16300.014891 8976.528917 L 16300.014891 8486.322577" transform="matrix(.11794 0 0 -.11794 0 2031)" stroke="#432317"/><path fill="none" stroke-width="82.77" stroke-miterlimit="10" d="M 16300.011443 9243.534662 L 14658.807788 9243.534662 L 14658.807788 7959.309462 L 16300.011443 7959.309462 Z M 16300.011443 9243.534662" transform="matrix(.12016 0 0 -.12016 0 2031)" stroke="#432317"/></g></svg>