<?xml version="1.0" encoding="UTF-8"?><svg xmlns="http://www.w3.org/2000/svg" xmlns:xlink="http://www.w3.org/1999/xlink" contentScriptType="text/ecmascript" fill="#000000" width="446.2" zoomAndPan="magnify" contentStyleType="text/css" viewBox="-0.2 -0.2 446.2 191.8" height="191.8" data-name="Layer 1" preserveAspectRatio="xMidYMid meet" version="1"><g id="change1_1"><path fill="#1e60d1" d="M445,38.4v-.8H433.82V26.81h-.44V26H420.87V13.94h-.45v-.8H407.91V1.08h-.45V.28H38.24V13.14H26.58V25.63h-.3V26H13.63V37.6H.67V152.15h.45v.8H13.63V165h.44v.8H26.58V176.6H27v.81H38.24v12.07h.44v.8H407.91V177.41h-.14v-.81h.14v.81h13V165.83h12.95V153h11.66V38.4ZM407.46,165.23h0Zm13-13.08h0v-.35h0Z"/></g><g id="change1_2"><path fill="#1e60d1" d="M433.48,38.39V26.82h-13V39h-.4V26.82h.4V14h-13V26.44h-.14V14h.14V1.11H38.25V14H26.59V26.44h-.3v.38H13.63V38.39H.67V152.82h13v-.34h.45v.34h-.45v12.86h13v11.57H38.25v12.86H407.56V177.25h-.14V165.89h.14v11.36h13V165.68h13V152.82h11.66V38.39ZM420.07,165.13V153.88h.4v11.25Zm12.08-11.7H420.52v-.35h11.63Z"/></g><g id="change2_1"><path fill="#1e60d1" d="M127.75 51.28H140.49V64.02H127.75z"/></g><g id="change2_2"><path fill="#1e60d1" d="M102.29 51.28H115.03V64.02H102.29z"/></g><g id="change2_3"><path fill="#1e60d1" d="M89.56 38.55L76.84 38.55 76.84 51.27 76.84 64.02 76.84 76.73 76.84 89.46 76.84 102.2 76.84 114.92 76.84 127.66 76.84 140.39 89.56 140.39 89.56 127.66 89.56 114.92 89.56 102.2 89.56 89.46 89.56 76.73 89.56 64.02 89.56 51.27 102.29 51.27 102.29 38.55 89.56 38.55z"/></g><g id="change2_4"><path fill="#1e60d1" d="M140.49 38.55L140.49 51.27 153.21 51.27 153.21 64.02 153.21 76.73 153.21 89.46 153.21 102.2 153.21 114.92 153.21 127.66 153.21 140.39 165.93 140.39 165.93 127.66 165.93 114.92 165.93 102.2 165.93 89.46 165.93 76.73 165.93 64.02 165.93 51.27 165.93 38.55 153.21 38.55 140.49 38.55z"/></g><g id="change2_5"><path fill="#1e60d1" d="M115.03 76.73L115.03 89.46 127.75 89.46 127.75 76.73 127.75 64.02 115.03 64.02 115.03 76.73z"/></g><g id="change2_6"><path fill="#1e60d1" d="M344.14 127.66L331.42 127.66 331.42 140.39 344.14 140.39 356.87 140.39 369.61 140.39 369.61 127.66 356.87 127.66 344.14 127.66z"/></g><g id="change2_7"><path fill="#1e60d1" d="M369.61 38.55L369.61 51.27 369.61 64.02 369.61 76.73 369.61 89.46 369.61 102.2 369.61 114.92 369.61 127.66 382.33 127.66 382.33 114.92 382.33 102.2 382.33 89.46 382.33 76.73 382.33 64.02 382.33 51.27 382.33 38.55 369.61 38.55z"/></g><g id="change2_8"><path fill="#1e60d1" d="M204.13 38.55L191.39 38.55 178.67 38.55 178.67 51.27 178.67 64.02 178.67 76.73 178.67 89.46 178.67 102.2 178.67 114.92 178.67 127.66 178.67 140.39 191.39 140.39 204.13 140.39 216.86 140.39 229.58 140.39 229.58 127.66 216.86 127.66 204.13 127.66 191.39 127.66 191.39 114.92 191.39 102.2 191.39 89.46 204.13 89.46 216.86 89.46 216.86 76.73 204.13 76.73 191.39 76.73 191.39 64.02 191.39 51.27 204.13 51.27 216.86 51.27 229.58 51.27 229.58 38.55 216.86 38.55 204.13 38.55z"/></g><g id="change2_9"><path fill="#1e60d1" d="M331.42 102.2L331.42 89.46 331.42 76.73 331.42 64.02 331.42 51.27 331.42 38.55 318.69 38.55 318.69 51.27 318.69 64.02 318.69 76.73 318.69 89.46 318.69 102.2 318.69 114.92 318.69 127.66 331.42 127.66 331.42 114.92 331.42 102.2z"/></g><g id="change2_10"><path fill="#1e60d1" d="M293.23 51.27L293.23 64.02 293.23 76.73 280.5 76.73 280.5 64.02 267.76 64.02 267.76 51.27 255.04 51.27 255.04 38.55 242.32 38.55 242.32 51.27 242.32 64.02 242.32 76.73 242.32 89.46 242.32 102.2 242.32 114.92 242.32 127.66 242.32 140.39 255.04 140.39 255.04 127.66 255.04 114.92 255.04 102.2 255.04 89.46 255.04 76.73 267.76 76.73 267.76 89.46 280.5 89.46 280.5 102.2 293.23 102.2 293.23 114.92 293.23 127.66 293.23 140.39 305.96 140.39 305.96 127.66 305.96 114.92 305.96 102.2 305.96 89.46 305.96 76.73 305.96 64.02 305.96 51.27 305.96 38.55 293.23 38.55 293.23 51.27z"/></g><g id="change3_1"><path fill="#1e60d1" d="M293.43 64.02L293.43 51.27 293.43 38.35 280.3 38.35 280.3 51.27 280.3 64.02 280.3 76.93 293.43 76.93 293.43 64.02z"/></g><g id="change3_2"><path fill="#1e60d1" d="M267.56 102.4L280.3 102.4 280.3 114.92 280.3 127.66 280.3 140.59 293.43 140.59 293.43 127.66 293.43 114.92 293.43 102 280.7 102 280.7 89.26 267.96 89.26 267.96 76.53 267.76 76.53 254.84 76.53 254.84 89.66 267.56 89.66 267.56 102.4z"/></g><g id="change3_3"><path fill="#1e60d1" d="M369.81 114.92L369.81 102.2 369.81 89.46 369.81 76.73 369.81 64.02 369.81 51.27 369.81 38.35 356.67 38.35 356.67 51.27 356.67 64.02 356.67 76.73 356.67 89.46 356.67 102.2 356.67 114.92 356.67 127.86 369.81 127.86 369.81 114.92z"/></g><g id="change3_4"><path fill="#1e60d1" d="M242.52 127.66L242.52 114.92 242.52 102.2 242.52 89.46 242.52 76.73 242.52 64.02 242.52 51.27 242.52 38.35 229.38 38.35 229.38 51.27 229.38 64.02 229.38 76.73 229.38 89.46 229.38 102.2 229.38 114.92 229.38 127.66 229.38 140.59 242.52 140.59 242.52 127.66z"/></g><g id="change3_5"><path fill="#1e60d1" d="M318.49 140.59L331.62 140.59 331.62 140.39 331.62 127.46 318.89 127.46 318.89 114.92 318.89 102.2 318.89 89.46 318.89 76.73 318.89 64.02 318.89 51.27 318.89 38.35 305.76 38.35 305.76 51.27 305.76 64.02 305.76 76.73 305.76 89.46 305.76 102.2 305.76 114.92 305.76 127.86 318.49 127.86 318.49 140.59z"/></g><g id="change3_6"><path fill="#1e60d1" d="M77.04 127.66L77.04 114.92 77.04 102.2 77.04 89.46 77.04 76.73 77.04 64.02 77.04 51.27 77.04 38.35 63.91 38.35 63.91 51.27 63.91 64.02 63.91 76.73 63.91 89.46 63.91 102.2 63.91 114.92 63.91 127.66 63.91 140.59 77.04 140.59 77.04 127.66z"/></g><g id="change3_7"><path fill="#1e60d1" d="M421.22 39.01L421.22 38.55 421.22 38.35 420.61 38.35 420.41 38.35 420.41 51.5 420.41 64.46 420.41 77.4 420.41 90.35 420.41 103.31 420.41 116.25 420.41 129.22 420.41 142.17 420.41 152.9 407.69 152.9 407.69 165.64 395.14 165.64 382.4 165.64 369.68 165.64 356.94 165.64 344.2 165.64 331.46 165.64 318.73 165.64 305.99 165.64 293.26 165.64 280.52 165.64 267.78 165.64 255.06 165.64 242.32 165.64 229.57 165.64 216.85 165.64 204.11 165.64 191.37 165.64 178.64 165.64 165.9 165.64 153.16 165.64 140.44 165.64 127.69 165.64 114.97 165.64 102.22 165.64 89.49 165.64 76.76 165.64 64.02 165.64 51.28 165.64 38.9 165.64 38.9 178.32 50.79 178.32 51.28 178.32 63.78 178.32 64.02 178.32 76.76 178.32 76.77 178.32 89.49 178.32 89.77 178.32 101.45 178.32 102.22 178.32 102.75 178.32 114.44 178.32 114.97 178.32 127.44 178.32 127.69 178.32 140.43 178.32 140.44 178.32 153.16 178.32 153.42 178.32 165.9 178.32 166.4 178.32 178.1 178.32 178.64 178.32 179.39 178.32 191.09 178.32 191.37 178.32 204.08 178.32 204.11 178.32 216.85 178.32 217.06 178.32 229.57 178.32 230.06 178.32 241.75 178.32 242.32 178.32 243.05 178.32 254.74 178.32 255.06 178.32 267.73 178.32 267.78 178.32 280.52 178.32 280.72 178.32 293.26 178.32 293.71 178.32 305.4 178.32 305.99 178.32 306.7 178.32 318.39 178.32 318.73 178.32 331.38 178.32 331.46 178.32 344.2 178.32 344.37 178.32 356.94 178.32 357.36 178.32 369.05 178.32 369.68 178.32 370.36 178.32 382.04 178.32 382.4 178.32 395.03 178.32 395.14 178.32 408.09 178.32 408.09 166.31 408.26 166.31 408.26 165.6 423.96 165.6 423.96 155.31 432.9 155.31 432.9 142.26 432.9 142.17 432.9 129.22 432.9 129.04 432.9 116.25 432.9 115.84 432.9 103.95 432.9 103.31 432.9 102.63 432.9 90.73 432.9 90.35 432.9 77.52 432.9 77.4 432.9 64.46 432.9 64.31 432.9 51.5 432.9 51.11 432.9 39.01 421.22 39.01z"/></g><g id="change3_8"><path fill="#1e60d1" d="M102.09 76.73L102.09 89.66 102.29 89.66 115.23 89.66 115.23 76.73 115.23 63.81 102.49 63.81 102.49 51.08 102.29 51.08 89.36 51.08 89.36 64.22 102.09 64.22 102.09 76.73z"/></g><g id="change3_9"><path fill="#1e60d1" d="M153.41 127.66L153.41 114.92 153.41 102.2 153.41 89.46 153.41 76.73 153.41 64.02 153.41 51.08 140.29 51.08 140.29 64.02 140.29 76.73 140.29 89.46 140.29 102.2 140.29 114.92 140.29 127.66 140.29 140.59 153.41 140.59 153.41 127.66z"/></g><g id="change3_10"><path fill="#1e60d1" d="M178.87 127.66L178.87 114.92 178.87 102.2 178.87 89.46 178.87 76.73 178.87 64.02 178.87 51.27 178.87 38.35 165.73 38.35 165.73 51.27 165.73 64.02 165.73 76.73 165.73 89.46 165.73 102.2 165.73 114.92 165.73 127.66 165.73 140.59 178.87 140.59 178.87 127.66z"/></g><g id="change4_1"><path fill="#4889f8" d="M13.23 50.89L13.23 51.27 25.92 51.27 25.92 39.2 13.23 39.2 13.23 50.89z"/></g><g id="change4_2"><path fill="#4889f8" d="M395.2 13.23L395.1 13.23 382.47 13.23 382.1 13.23 370.42 13.23 369.75 13.23 369.11 13.23 357.43 13.23 357 13.23 344.44 13.23 344.27 13.23 331.54 13.23 331.45 13.23 318.8 13.23 318.46 13.23 306.77 13.23 306.07 13.23 305.48 13.23 293.79 13.23 293.33 13.23 280.79 13.23 280.6 13.23 267.86 13.23 267.8 13.23 255.13 13.23 254.82 13.23 243.13 13.23 242.4 13.23 241.83 13.23 230.14 13.23 229.66 13.23 217.15 13.23 216.94 13.23 204.2 13.23 204.17 13.23 191.46 13.23 191.18 13.23 179.49 13.23 178.74 13.23 178.19 13.23 166.49 13.23 165.99 13.23 153.51 13.23 153.26 13.23 140.53 13.23 140.52 13.23 127.79 13.23 127.53 13.23 115.07 13.23 114.54 13.23 102.85 13.23 102.32 13.23 101.55 13.23 89.87 13.23 89.59 13.23 76.88 13.23 76.87 13.23 64.12 13.23 63.89 13.23 51.39 13.23 50.9 13.23 39.22 13.23 39.22 25.83 39.22 26.21 38.65 26.21 26.22 26.21 26.22 38.55 38.65 38.55 51.39 38.55 51.39 25.83 64.12 25.83 76.87 25.83 89.59 25.83 102.32 25.83 115.07 25.83 127.79 25.83 140.53 25.83 153.26 25.83 165.99 25.83 178.74 25.83 191.46 25.83 204.2 25.83 216.94 25.83 229.66 25.83 242.4 25.83 255.13 25.83 267.86 25.83 280.6 25.83 293.33 25.83 306.07 25.83 318.8 25.83 331.54 25.83 344.27 25.83 357 25.83 369.75 25.83 382.47 25.83 395.2 25.83 407.95 25.83 407.95 13.23 395.2 13.23z"/></g><g id="change4_3"><path fill="#4889f8" d="M408.08 26.21L408.08 25.83 407.95 25.83 407.95 38.55 420.67 38.55 420.67 26.21 408.08 26.21z"/></g><g id="change5_1"><path fill="#000000" d="M434.36,37.45V25.76h-13v-13h-13V-.2H37.45v13H25.77v13h-13V37.45H-.2V153.91h13v13h13v11.68H37.45v13H408.39v-13h13V166.89h13v-13H446V37.45Zm-2.21,13.44V153H420.47V164.7h-13v13H39.65v-13h-13V153h-13V39.65h13v-13h13v-13H407.49v13h13v13h11.68Z"/></g></svg>