<?xml version="1.0" encoding="UTF-8"?><svg xmlns="http://www.w3.org/2000/svg" xmlns:xlink="http://www.w3.org/1999/xlink" contentScriptType="text/ecmascript" fill="#000000" width="600" zoomAndPan="magnify" contentStyleType="text/css" viewBox="0.0 -0.0 600.0 485.8" height="485.8" preserveAspectRatio="xMidYMid meet" version="1"><defs><clipPath id="a"><path d="M 571 457 L 600 457 L 600 485.789062 L 571 485.789062 Z M 571 457"/></clipPath><clipPath id="b"><path d="M 542 457 L 572 457 L 572 485.789062 L 542 485.789062 Z M 542 457"/></clipPath><clipPath id="c"><path d="M 514 457 L 543 457 L 543 485.789062 L 514 485.789062 Z M 514 457"/></clipPath><clipPath id="d"><path d="M 485 457 L 515 457 L 515 485.789062 L 485 485.789062 Z M 485 457"/></clipPath><clipPath id="e"><path d="M 457 457 L 486 457 L 486 485.789062 L 457 485.789062 Z M 457 457"/></clipPath><clipPath id="f"><path d="M 428 457 L 458 457 L 458 485.789062 L 428 485.789062 Z M 428 457"/></clipPath><clipPath id="g"><path d="M 399 457 L 429 457 L 429 485.789062 L 399 485.789062 Z M 399 457"/></clipPath><clipPath id="h"><path d="M 371 457 L 400 457 L 400 485.789062 L 371 485.789062 Z M 371 457"/></clipPath><clipPath id="i"><path d="M 342 457 L 372 457 L 372 485.789062 L 342 485.789062 Z M 342 457"/></clipPath><clipPath id="j"><path d="M 314 457 L 343 457 L 343 485.789062 L 314 485.789062 Z M 314 457"/></clipPath><clipPath id="k"><path d="M 285 457 L 315 457 L 315 485.789062 L 285 485.789062 Z M 285 457"/></clipPath><clipPath id="l"><path d="M 257 457 L 286 457 L 286 485.789062 L 257 485.789062 Z M 257 457"/></clipPath><clipPath id="m"><path d="M 228 457 L 258 457 L 258 485.789062 L 228 485.789062 Z M 228 457"/></clipPath><clipPath id="n"><path d="M 200 457 L 229 457 L 229 485.789062 L 200 485.789062 Z M 200 457"/></clipPath><clipPath id="o"><path d="M 171 457 L 201 457 L 201 485.789062 L 171 485.789062 Z M 171 457"/></clipPath><clipPath id="p"><path d="M 142 457 L 172 457 L 172 485.789062 L 142 485.789062 Z M 142 457"/></clipPath><clipPath id="q"><path d="M 114 457 L 143 457 L 143 485.789062 L 114 485.789062 Z M 114 457"/></clipPath><clipPath id="r"><path d="M 85 457 L 115 457 L 115 485.789062 L 85 485.789062 Z M 85 457"/></clipPath><clipPath id="s"><path d="M 57 457 L 86 457 L 86 485.789062 L 57 485.789062 Z M 57 457"/></clipPath><clipPath id="t"><path d="M 28 457 L 58 457 L 58 485.789062 L 28 485.789062 Z M 28 457"/></clipPath><clipPath id="u"><path d="M 0 457 L 29 457 L 29 485.789062 L 0 485.789062 Z M 0 457"/></clipPath></defs><g><g id="change1_1" clip-path="url(#a)"><path fill="#fea52a" d="M 600 457.238281 L 600 485.789062 L 571.453125 485.789062 L 571.453125 457.238281 L 600 457.238281"/></g><g id="change1_4"><path fill="#fea52a" d="M 600 428.691406 L 600 457.238281 L 571.453125 457.238281 L 571.453125 428.691406 L 600 428.691406"/></g><g id="change2_2"><path fill="#702412" d="M 600 400.054688 L 600 428.691406 L 571.453125 428.691406 L 571.453125 400.054688 L 600 400.054688"/></g><g id="change2_3"><path fill="#702412" d="M 600 371.503906 L 600 400.054688 L 571.453125 400.054688 L 571.453125 371.503906 L 600 371.503906"/></g><g id="change2_4"><path fill="#702412" d="M 600 342.953125 L 600 371.503906 L 571.453125 371.503906 L 571.453125 342.953125 L 600 342.953125"/></g><g id="change2_5"><path fill="#702412" d="M 600 314.3125 L 600 342.953125 L 571.453125 342.953125 L 571.453125 314.3125 L 600 314.3125"/></g><g id="change2_6"><path fill="#702412" d="M 600 285.761719 L 600 314.3125 L 571.453125 314.3125 L 571.453125 285.761719 L 600 285.761719"/></g><g id="change2_7"><path fill="#702412" d="M 600 257.214844 L 600 285.761719 L 571.453125 285.761719 L 571.453125 257.214844 L 600 257.214844"/></g><g id="change1_5"><path fill="#fea52a" d="M 600 228.664062 L 600 257.214844 L 571.453125 257.214844 L 571.453125 228.664062 L 600 228.664062"/></g><g id="change1_6"><path fill="#fea52a" d="M 600 200.027344 L 600 228.664062 L 571.453125 228.664062 L 571.453125 200.027344 L 600 200.027344"/></g><g id="change3_4"><path fill="#fee670" d="M 600 171.476562 L 600 200.027344 L 571.453125 200.027344 L 571.453125 171.476562 L 600 171.476562"/></g><g id="change2_8"><path fill="#702412" d="M 600 142.921875 L 600 171.476562 L 571.453125 171.476562 L 571.453125 142.921875 L 600 142.921875"/></g><g id="change4_1"><path fill="#47170b" d="M 600 114.371094 L 600 142.921875 L 571.453125 142.921875 L 571.453125 114.371094 L 600 114.371094"/></g><g id="change4_2"><path fill="#47170b" d="M 600 85.734375 L 600 114.371094 L 571.453125 114.371094 L 571.453125 85.734375 L 600 85.734375"/></g><g id="change4_3"><path fill="#47170b" d="M 600 57.1875 L 600 85.734375 L 571.453125 85.734375 L 571.453125 57.1875 L 600 57.1875"/></g><g id="change1_2" clip-path="url(#b)"><path fill="#fea52a" d="M 571.453125 457.238281 L 571.453125 485.789062 L 542.894531 485.789062 L 542.894531 457.238281 L 571.453125 457.238281"/></g><g id="change4_4"><path fill="#47170b" d="M 571.453125 428.691406 L 571.453125 457.238281 L 542.894531 457.238281 L 542.894531 428.691406 L 571.453125 428.691406"/></g><g id="change4_5"><path fill="#47170b" d="M 571.453125 400.054688 L 571.453125 428.691406 L 542.894531 428.691406 L 542.894531 400.054688 L 571.453125 400.054688"/></g><g id="change4_6"><path fill="#47170b" d="M 571.453125 371.503906 L 571.453125 400.054688 L 542.894531 400.054688 L 542.894531 371.503906 L 571.453125 371.503906"/></g><g id="change4_7"><path fill="#47170b" d="M 571.453125 342.953125 L 571.453125 371.503906 L 542.894531 371.503906 L 542.894531 342.953125 L 571.453125 342.953125"/></g><g id="change4_8"><path fill="#47170b" d="M 571.453125 314.3125 L 571.453125 342.953125 L 542.894531 342.953125 L 542.894531 314.3125 L 571.453125 314.3125"/></g><g id="change4_9"><path fill="#47170b" d="M 571.453125 285.761719 L 571.453125 314.3125 L 542.894531 314.3125 L 542.894531 285.761719 L 571.453125 285.761719"/></g><g id="change4_10"><path fill="#47170b" d="M 571.453125 257.214844 L 571.453125 285.761719 L 542.894531 285.761719 L 542.894531 257.214844 L 571.453125 257.214844"/></g><g id="change4_11"><path fill="#47170b" d="M 571.453125 228.664062 L 571.453125 257.214844 L 542.894531 257.214844 L 542.894531 228.664062 L 571.453125 228.664062"/></g><g id="change1_7"><path fill="#fea52a" d="M 571.453125 200.027344 L 571.453125 228.664062 L 542.894531 228.664062 L 542.894531 200.027344 L 571.453125 200.027344"/></g><g id="change5_12"><path fill="#c74424" d="M 571.453125 171.476562 L 571.453125 200.027344 L 542.894531 200.027344 L 542.894531 171.476562 L 571.453125 171.476562"/></g><g id="change1_8"><path fill="#fea52a" d="M 571.453125 142.921875 L 571.453125 171.476562 L 542.894531 171.476562 L 542.894531 142.921875 L 571.453125 142.921875"/></g><g id="change2_9"><path fill="#702412" d="M 571.453125 114.371094 L 571.453125 142.921875 L 542.894531 142.921875 L 542.894531 114.371094 L 571.453125 114.371094"/></g><g id="change2_10"><path fill="#702412" d="M 571.453125 85.734375 L 571.453125 114.371094 L 542.894531 114.371094 L 542.894531 85.734375 L 571.453125 85.734375"/></g><g id="change4_12"><path fill="#47170b" d="M 571.453125 57.1875 L 571.453125 85.734375 L 542.894531 85.734375 L 542.894531 57.1875 L 571.453125 57.1875"/></g><g id="change4_13"><path fill="#47170b" d="M 571.453125 28.636719 L 571.453125 57.1875 L 542.894531 57.1875 L 542.894531 28.636719 L 571.453125 28.636719"/></g><g id="change2_1" clip-path="url(#c)"><path fill="#702412" d="M 542.894531 457.238281 L 542.894531 485.789062 L 514.351562 485.789062 L 514.351562 457.238281 L 542.894531 457.238281"/></g><g id="change2_11"><path fill="#702412" d="M 542.894531 428.691406 L 542.894531 457.238281 L 514.351562 457.238281 L 514.351562 428.691406 L 542.894531 428.691406"/></g><g id="change4_14"><path fill="#47170b" d="M 542.894531 400.054688 L 542.894531 428.691406 L 514.351562 428.691406 L 514.351562 400.054688 L 542.894531 400.054688"/></g><g id="change2_12"><path fill="#702412" d="M 542.894531 371.503906 L 542.894531 400.054688 L 514.351562 400.054688 L 514.351562 371.503906 L 542.894531 371.503906"/></g><g id="change4_15"><path fill="#47170b" d="M 542.894531 342.953125 L 542.894531 371.503906 L 514.351562 371.503906 L 514.351562 342.953125 L 542.894531 342.953125"/></g><g id="change2_13"><path fill="#702412" d="M 542.894531 314.3125 L 542.894531 342.953125 L 514.351562 342.953125 L 514.351562 314.3125 L 542.894531 314.3125"/></g><g id="change4_16"><path fill="#47170b" d="M 542.894531 285.761719 L 542.894531 314.3125 L 514.351562 314.3125 L 514.351562 285.761719 L 542.894531 285.761719"/></g><g id="change2_14"><path fill="#702412" d="M 542.894531 257.214844 L 542.894531 285.761719 L 514.351562 285.761719 L 514.351562 257.214844 L 542.894531 257.214844"/></g><g id="change4_17"><path fill="#47170b" d="M 542.894531 228.664062 L 542.894531 257.214844 L 514.351562 257.214844 L 514.351562 228.664062 L 542.894531 228.664062"/></g><g id="change2_15"><path fill="#702412" d="M 542.894531 200.027344 L 542.894531 228.664062 L 514.351562 228.664062 L 514.351562 200.027344 L 542.894531 200.027344"/></g><g id="change4_18"><path fill="#47170b" d="M 542.894531 171.476562 L 542.894531 200.027344 L 514.351562 200.027344 L 514.351562 171.476562 L 542.894531 171.476562"/></g><g id="change5_13"><path fill="#c74424" d="M 542.894531 142.921875 L 542.894531 171.476562 L 514.351562 171.476562 L 514.351562 142.921875 L 542.894531 142.921875"/></g><g id="change1_9"><path fill="#fea52a" d="M 542.894531 114.371094 L 542.894531 142.921875 L 514.351562 142.921875 L 514.351562 114.371094 L 542.894531 114.371094"/></g><g id="change2_16"><path fill="#702412" d="M 542.894531 85.734375 L 542.894531 114.371094 L 514.351562 114.371094 L 514.351562 85.734375 L 542.894531 85.734375"/></g><g id="change2_17"><path fill="#702412" d="M 542.894531 57.1875 L 542.894531 85.734375 L 514.351562 85.734375 L 514.351562 57.1875 L 542.894531 57.1875"/></g><g id="change4_19"><path fill="#47170b" d="M 542.894531 28.636719 L 542.894531 57.1875 L 514.351562 57.1875 L 514.351562 28.636719 L 542.894531 28.636719"/></g><g id="change4_20"><path fill="#47170b" d="M 542.894531 -0.00390625 L 542.894531 28.636719 L 514.351562 28.636719 L 514.351562 -0.00390625 L 542.894531 -0.00390625"/></g><g id="change1_3" clip-path="url(#d)"><path fill="#fea52a" d="M 514.351562 457.238281 L 514.351562 485.789062 L 485.707031 485.789062 L 485.707031 457.238281 L 514.351562 457.238281"/></g><g id="change2_18"><path fill="#702412" d="M 514.351562 428.691406 L 514.351562 457.238281 L 485.707031 457.238281 L 485.707031 428.691406 L 514.351562 428.691406"/></g><g id="change4_21"><path fill="#47170b" d="M 514.351562 400.054688 L 514.351562 428.691406 L 485.707031 428.691406 L 485.707031 400.054688 L 514.351562 400.054688"/></g><g id="change2_19"><path fill="#702412" d="M 514.351562 371.503906 L 514.351562 400.054688 L 485.707031 400.054688 L 485.707031 371.503906 L 514.351562 371.503906"/></g><g id="change4_22"><path fill="#47170b" d="M 514.351562 342.953125 L 514.351562 371.503906 L 485.707031 371.503906 L 485.707031 342.953125 L 514.351562 342.953125"/></g><g id="change2_20"><path fill="#702412" d="M 514.351562 314.3125 L 514.351562 342.953125 L 485.707031 342.953125 L 485.707031 314.3125 L 514.351562 314.3125"/></g><g id="change4_23"><path fill="#47170b" d="M 514.351562 285.761719 L 514.351562 314.3125 L 485.707031 314.3125 L 485.707031 285.761719 L 514.351562 285.761719"/></g><g id="change2_21"><path fill="#702412" d="M 514.351562 257.214844 L 514.351562 285.761719 L 485.707031 285.761719 L 485.707031 257.214844 L 514.351562 257.214844"/></g><g id="change4_24"><path fill="#47170b" d="M 514.351562 228.664062 L 514.351562 257.214844 L 485.707031 257.214844 L 485.707031 228.664062 L 514.351562 228.664062"/></g><g id="change1_10"><path fill="#fea52a" d="M 514.351562 200.027344 L 514.351562 228.664062 L 485.707031 228.664062 L 485.707031 200.027344 L 514.351562 200.027344"/></g><g id="change2_22"><path fill="#702412" d="M 514.351562 171.476562 L 514.351562 200.027344 L 485.707031 200.027344 L 485.707031 171.476562 L 514.351562 171.476562"/></g><g id="change4_25"><path fill="#47170b" d="M 514.351562 142.921875 L 514.351562 171.476562 L 485.707031 171.476562 L 485.707031 142.921875 L 514.351562 142.921875"/></g><g id="change5_14"><path fill="#c74424" d="M 514.351562 114.371094 L 514.351562 142.921875 L 485.707031 142.921875 L 485.707031 114.371094 L 514.351562 114.371094"/></g><g id="change1_11"><path fill="#fea52a" d="M 514.351562 85.734375 L 514.351562 114.371094 L 485.707031 114.371094 L 485.707031 85.734375 L 514.351562 85.734375"/></g><g id="change2_23"><path fill="#702412" d="M 514.351562 57.1875 L 514.351562 85.734375 L 485.707031 85.734375 L 485.707031 57.1875 L 514.351562 57.1875"/></g><g id="change4_26"><path fill="#47170b" d="M 514.351562 28.636719 L 514.351562 57.1875 L 485.707031 57.1875 L 485.707031 28.636719 L 514.351562 28.636719"/></g><g id="change4_27"><path fill="#47170b" d="M 514.351562 -0.00390625 L 514.351562 28.636719 L 485.707031 28.636719 L 485.707031 -0.00390625 L 514.351562 -0.00390625"/></g><g id="change1_30" clip-path="url(#e)"><path fill="#fea52a" d="M 485.707031 457.238281 L 485.707031 485.789062 L 457.160156 485.789062 L 457.160156 457.238281 L 485.707031 457.238281"/></g><g id="change1_12"><path fill="#fea52a" d="M 485.707031 428.691406 L 485.707031 457.238281 L 457.160156 457.238281 L 457.160156 428.691406 L 485.707031 428.691406"/></g><g id="change2_24"><path fill="#702412" d="M 485.707031 400.054688 L 485.707031 428.691406 L 457.160156 428.691406 L 457.160156 400.054688 L 485.707031 400.054688"/></g><g id="change2_25"><path fill="#702412" d="M 485.707031 371.503906 L 485.707031 400.054688 L 457.160156 400.054688 L 457.160156 371.503906 L 485.707031 371.503906"/></g><g id="change2_26"><path fill="#702412" d="M 485.707031 342.953125 L 485.707031 371.503906 L 457.160156 371.503906 L 457.160156 342.953125 L 485.707031 342.953125"/></g><g id="change2_27"><path fill="#702412" d="M 485.707031 314.3125 L 485.707031 342.953125 L 457.160156 342.953125 L 457.160156 314.3125 L 485.707031 314.3125"/></g><g id="change2_28"><path fill="#702412" d="M 485.707031 285.761719 L 485.707031 314.3125 L 457.160156 314.3125 L 457.160156 285.761719 L 485.707031 285.761719"/></g><g id="change2_29"><path fill="#702412" d="M 485.707031 257.214844 L 485.707031 285.761719 L 457.160156 285.761719 L 457.160156 257.214844 L 485.707031 257.214844"/></g><g id="change1_13"><path fill="#fea52a" d="M 485.707031 228.664062 L 485.707031 257.214844 L 457.160156 257.214844 L 457.160156 228.664062 L 485.707031 228.664062"/></g><g id="change1_14"><path fill="#fea52a" d="M 485.707031 200.027344 L 485.707031 228.664062 L 457.160156 228.664062 L 457.160156 200.027344 L 485.707031 200.027344"/></g><g id="change2_30"><path fill="#702412" d="M 485.707031 171.476562 L 485.707031 200.027344 L 457.160156 200.027344 L 457.160156 171.476562 L 485.707031 171.476562"/></g><g id="change6_1"><path fill="#571c0e" d="M 485.707031 142.921875 L 485.707031 171.476562 L 457.160156 171.476562 L 457.160156 142.921875 L 485.707031 142.921875"/></g><g id="change4_28"><path fill="#47170b" d="M 485.707031 114.371094 L 485.707031 142.921875 L 457.160156 142.921875 L 457.160156 114.371094 L 485.707031 114.371094"/></g><g id="change5_15"><path fill="#c74424" d="M 485.707031 85.734375 L 485.707031 114.371094 L 457.160156 114.371094 L 457.160156 85.734375 L 485.707031 85.734375"/></g><g id="change3_5"><path fill="#fee670" d="M 485.707031 57.1875 L 485.707031 85.734375 L 457.160156 85.734375 L 457.160156 57.1875 L 485.707031 57.1875"/></g><g id="change5_16"><path fill="#c74424" d="M 485.707031 28.636719 L 485.707031 57.1875 L 457.160156 57.1875 L 457.160156 28.636719 L 485.707031 28.636719"/></g><g id="change4_29"><path fill="#47170b" d="M 485.707031 -0.00390625 L 485.707031 28.636719 L 457.160156 28.636719 L 457.160156 -0.00390625 L 485.707031 -0.00390625"/></g><g id="change3_2" clip-path="url(#f)"><path fill="#fee670" d="M 457.160156 457.238281 L 457.160156 485.789062 L 428.613281 485.789062 L 428.613281 457.238281 L 457.160156 457.238281"/></g><g id="change3_6"><path fill="#fee670" d="M 457.160156 428.691406 L 457.160156 457.238281 L 428.613281 457.238281 L 428.613281 428.691406 L 457.160156 428.691406"/></g><g id="change5_17"><path fill="#c74424" d="M 457.160156 400.054688 L 457.160156 428.691406 L 428.613281 428.691406 L 428.613281 400.054688 L 457.160156 400.054688"/></g><g id="change5_18"><path fill="#c74424" d="M 457.160156 371.503906 L 457.160156 400.054688 L 428.613281 400.054688 L 428.613281 371.503906 L 457.160156 371.503906"/></g><g id="change5_19"><path fill="#c74424" d="M 457.160156 342.953125 L 457.160156 371.503906 L 428.613281 371.503906 L 428.613281 342.953125 L 457.160156 342.953125"/></g><g id="change5_20"><path fill="#c74424" d="M 457.160156 314.3125 L 457.160156 342.953125 L 428.613281 342.953125 L 428.613281 314.3125 L 457.160156 314.3125"/></g><g id="change5_21"><path fill="#c74424" d="M 457.160156 285.761719 L 457.160156 314.3125 L 428.613281 314.3125 L 428.613281 285.761719 L 457.160156 285.761719"/></g><g id="change5_22"><path fill="#c74424" d="M 457.160156 257.214844 L 457.160156 285.761719 L 428.613281 285.761719 L 428.613281 257.214844 L 457.160156 257.214844"/></g><g id="change3_7"><path fill="#fee670" d="M 457.160156 228.664062 L 457.160156 257.214844 L 428.613281 257.214844 L 428.613281 228.664062 L 457.160156 228.664062"/></g><g id="change3_8"><path fill="#fee670" d="M 457.160156 200.027344 L 457.160156 228.664062 L 428.613281 228.664062 L 428.613281 200.027344 L 457.160156 200.027344"/></g><g id="change2_31"><path fill="#702412" d="M 457.160156 171.476562 L 457.160156 200.027344 L 428.613281 200.027344 L 428.613281 171.476562 L 457.160156 171.476562"/></g><g id="change6_2"><path fill="#571c0e" d="M 457.160156 142.921875 L 457.160156 171.476562 L 428.613281 171.476562 L 428.613281 142.921875 L 457.160156 142.921875"/></g><g id="change2_32"><path fill="#702412" d="M 457.160156 114.371094 L 457.160156 142.921875 L 428.613281 142.921875 L 428.613281 114.371094 L 457.160156 114.371094"/></g><g id="change4_30"><path fill="#47170b" d="M 457.160156 85.734375 L 457.160156 114.371094 L 428.613281 114.371094 L 428.613281 85.734375 L 457.160156 85.734375"/></g><g id="change1_15"><path fill="#fea52a" d="M 457.160156 57.1875 L 457.160156 85.734375 L 428.613281 85.734375 L 428.613281 57.1875 L 457.160156 57.1875"/></g><g id="change2_33"><path fill="#702412" d="M 457.160156 28.636719 L 457.160156 57.1875 L 428.613281 57.1875 L 428.613281 28.636719 L 457.160156 28.636719"/></g><g id="change4_31"><path fill="#47170b" d="M 457.160156 -0.00390625 L 457.160156 28.636719 L 428.613281 28.636719 L 428.613281 -0.00390625 L 457.160156 -0.00390625"/></g><g id="change3_1" clip-path="url(#g)"><path fill="#fee670" d="M 428.613281 457.238281 L 428.613281 485.789062 L 399.972656 485.789062 L 399.972656 457.238281 L 428.613281 457.238281"/></g><g id="change7_1"><path fill="#9e3117" d="M 428.613281 428.691406 L 428.613281 457.238281 L 399.972656 457.238281 L 399.972656 428.691406 L 428.613281 428.691406"/></g><g id="change2_34"><path fill="#702412" d="M 428.613281 400.054688 L 428.613281 428.691406 L 399.972656 428.691406 L 399.972656 400.054688 L 428.613281 400.054688"/></g><g id="change7_2"><path fill="#9e3117" d="M 428.613281 371.503906 L 428.613281 400.054688 L 399.972656 400.054688 L 399.972656 371.503906 L 428.613281 371.503906"/></g><g id="change2_35"><path fill="#702412" d="M 428.613281 342.953125 L 428.613281 371.503906 L 399.972656 371.503906 L 399.972656 342.953125 L 428.613281 342.953125"/></g><g id="change7_3"><path fill="#9e3117" d="M 428.613281 314.3125 L 428.613281 342.953125 L 399.972656 342.953125 L 399.972656 314.3125 L 428.613281 314.3125"/></g><g id="change2_36"><path fill="#702412" d="M 428.613281 285.761719 L 428.613281 314.3125 L 399.972656 314.3125 L 399.972656 285.761719 L 428.613281 285.761719"/></g><g id="change7_4"><path fill="#9e3117" d="M 428.613281 257.214844 L 428.613281 285.761719 L 399.972656 285.761719 L 399.972656 257.214844 L 428.613281 257.214844"/></g><g id="change2_37"><path fill="#702412" d="M 428.613281 228.664062 L 428.613281 257.214844 L 399.972656 257.214844 L 399.972656 228.664062 L 428.613281 228.664062"/></g><g id="change3_9"><path fill="#fee670" d="M 428.613281 200.027344 L 428.613281 228.664062 L 399.972656 228.664062 L 399.972656 200.027344 L 428.613281 200.027344"/></g><g id="change2_38"><path fill="#702412" d="M 428.613281 171.476562 L 428.613281 200.027344 L 399.972656 200.027344 L 399.972656 171.476562 L 428.613281 171.476562"/></g><g id="change6_3"><path fill="#571c0e" d="M 428.613281 142.921875 L 428.613281 171.476562 L 399.972656 171.476562 L 399.972656 142.921875 L 428.613281 142.921875"/></g><g id="change2_39"><path fill="#702412" d="M 428.613281 114.371094 L 428.613281 142.921875 L 399.972656 142.921875 L 399.972656 114.371094 L 428.613281 114.371094"/></g><g id="change6_4"><path fill="#571c0e" d="M 428.613281 85.734375 L 428.613281 114.371094 L 399.972656 114.371094 L 399.972656 85.734375 L 428.613281 85.734375"/></g><g id="change1_16"><path fill="#fea52a" d="M 428.613281 57.1875 L 428.613281 85.734375 L 399.972656 85.734375 L 399.972656 57.1875 L 428.613281 57.1875"/></g><g id="change2_40"><path fill="#702412" d="M 428.613281 28.636719 L 428.613281 57.1875 L 399.972656 57.1875 L 399.972656 28.636719 L 428.613281 28.636719"/></g><g id="change4_32"><path fill="#47170b" d="M 428.613281 -0.00390625 L 428.613281 28.636719 L 399.972656 28.636719 L 399.972656 -0.00390625 L 428.613281 -0.00390625"/></g><g id="change5_46" clip-path="url(#h)"><path fill="#c74424" d="M 399.972656 457.238281 L 399.972656 485.789062 L 371.425781 485.789062 L 371.425781 457.238281 L 399.972656 457.238281"/></g><g id="change7_5"><path fill="#9e3117" d="M 399.972656 428.691406 L 399.972656 457.238281 L 371.425781 457.238281 L 371.425781 428.691406 L 399.972656 428.691406"/></g><g id="change2_41"><path fill="#702412" d="M 399.972656 400.054688 L 399.972656 428.691406 L 371.425781 428.691406 L 371.425781 400.054688 L 399.972656 400.054688"/></g><g id="change7_6"><path fill="#9e3117" d="M 399.972656 371.503906 L 399.972656 400.054688 L 371.425781 400.054688 L 371.425781 371.503906 L 399.972656 371.503906"/></g><g id="change2_42"><path fill="#702412" d="M 399.972656 342.953125 L 399.972656 371.503906 L 371.425781 371.503906 L 371.425781 342.953125 L 399.972656 342.953125"/></g><g id="change7_7"><path fill="#9e3117" d="M 399.972656 314.3125 L 399.972656 342.953125 L 371.425781 342.953125 L 371.425781 314.3125 L 399.972656 314.3125"/></g><g id="change2_43"><path fill="#702412" d="M 399.972656 285.761719 L 399.972656 314.3125 L 371.425781 314.3125 L 371.425781 285.761719 L 399.972656 285.761719"/></g><g id="change7_8"><path fill="#9e3117" d="M 399.972656 257.214844 L 399.972656 285.761719 L 371.425781 285.761719 L 371.425781 257.214844 L 399.972656 257.214844"/></g><g id="change2_44"><path fill="#702412" d="M 399.972656 228.664062 L 399.972656 257.214844 L 371.425781 257.214844 L 371.425781 228.664062 L 399.972656 228.664062"/></g><g id="change5_23"><path fill="#c74424" d="M 399.972656 200.027344 L 399.972656 228.664062 L 371.425781 228.664062 L 371.425781 200.027344 L 399.972656 200.027344"/></g><g id="change2_45"><path fill="#702412" d="M 399.972656 171.476562 L 399.972656 200.027344 L 371.425781 200.027344 L 371.425781 171.476562 L 399.972656 171.476562"/></g><g id="change6_5"><path fill="#571c0e" d="M 399.972656 142.921875 L 399.972656 171.476562 L 371.425781 171.476562 L 371.425781 142.921875 L 399.972656 142.921875"/></g><g id="change2_46"><path fill="#702412" d="M 399.972656 114.371094 L 399.972656 142.921875 L 371.425781 142.921875 L 371.425781 114.371094 L 399.972656 114.371094"/></g><g id="change6_6"><path fill="#571c0e" d="M 399.972656 85.734375 L 399.972656 114.371094 L 371.425781 114.371094 L 371.425781 85.734375 L 399.972656 85.734375"/></g><g id="change1_17"><path fill="#fea52a" d="M 399.972656 57.1875 L 399.972656 85.734375 L 371.425781 85.734375 L 371.425781 57.1875 L 399.972656 57.1875"/></g><g id="change2_47"><path fill="#702412" d="M 399.972656 28.636719 L 399.972656 57.1875 L 371.425781 57.1875 L 371.425781 28.636719 L 399.972656 28.636719"/></g><g id="change4_33"><path fill="#47170b" d="M 399.972656 -0.00390625 L 399.972656 28.636719 L 371.425781 28.636719 L 371.425781 -0.00390625 L 399.972656 -0.00390625"/></g><g id="change5_3" clip-path="url(#i)"><path fill="#c74424" d="M 371.425781 457.238281 L 371.425781 485.789062 L 342.867188 485.789062 L 342.867188 457.238281 L 371.425781 457.238281"/></g><g id="change7_9"><path fill="#9e3117" d="M 371.425781 428.691406 L 371.425781 457.238281 L 342.867188 457.238281 L 342.867188 428.691406 L 371.425781 428.691406"/></g><g id="change2_48"><path fill="#702412" d="M 371.425781 400.054688 L 371.425781 428.691406 L 342.867188 428.691406 L 342.867188 400.054688 L 371.425781 400.054688"/></g><g id="change7_10"><path fill="#9e3117" d="M 371.425781 371.503906 L 371.425781 400.054688 L 342.867188 400.054688 L 342.867188 371.503906 L 371.425781 371.503906"/></g><g id="change2_49"><path fill="#702412" d="M 371.425781 342.953125 L 371.425781 371.503906 L 342.867188 371.503906 L 342.867188 342.953125 L 371.425781 342.953125"/></g><g id="change7_11"><path fill="#9e3117" d="M 371.425781 314.3125 L 371.425781 342.953125 L 342.867188 342.953125 L 342.867188 314.3125 L 371.425781 314.3125"/></g><g id="change2_50"><path fill="#702412" d="M 371.425781 285.761719 L 371.425781 314.3125 L 342.867188 314.3125 L 342.867188 285.761719 L 371.425781 285.761719"/></g><g id="change7_12"><path fill="#9e3117" d="M 371.425781 257.214844 L 371.425781 285.761719 L 342.867188 285.761719 L 342.867188 257.214844 L 371.425781 257.214844"/></g><g id="change2_51"><path fill="#702412" d="M 371.425781 228.664062 L 371.425781 257.214844 L 342.867188 257.214844 L 342.867188 228.664062 L 371.425781 228.664062"/></g><g id="change5_24"><path fill="#c74424" d="M 371.425781 200.027344 L 371.425781 228.664062 L 342.867188 228.664062 L 342.867188 200.027344 L 371.425781 200.027344"/></g><g id="change2_52"><path fill="#702412" d="M 371.425781 171.476562 L 371.425781 200.027344 L 342.867188 200.027344 L 342.867188 171.476562 L 371.425781 171.476562"/></g><g id="change6_7"><path fill="#571c0e" d="M 371.425781 142.921875 L 371.425781 171.476562 L 342.867188 171.476562 L 342.867188 142.921875 L 371.425781 142.921875"/></g><g id="change2_53"><path fill="#702412" d="M 371.425781 114.371094 L 371.425781 142.921875 L 342.867188 142.921875 L 342.867188 114.371094 L 371.425781 114.371094"/></g><g id="change6_8"><path fill="#571c0e" d="M 371.425781 85.734375 L 371.425781 114.371094 L 342.867188 114.371094 L 342.867188 85.734375 L 371.425781 85.734375"/></g><g id="change1_18"><path fill="#fea52a" d="M 371.425781 57.1875 L 371.425781 85.734375 L 342.867188 85.734375 L 342.867188 57.1875 L 371.425781 57.1875"/></g><g id="change2_54"><path fill="#702412" d="M 371.425781 28.636719 L 371.425781 57.1875 L 342.867188 57.1875 L 342.867188 28.636719 L 371.425781 28.636719"/></g><g id="change4_34"><path fill="#47170b" d="M 371.425781 -0.00390625 L 371.425781 28.636719 L 342.867188 28.636719 L 342.867188 -0.00390625 L 371.425781 -0.00390625"/></g><g id="change5_8" clip-path="url(#j)"><path fill="#c74424" d="M 342.867188 457.238281 L 342.867188 485.789062 L 314.320312 485.789062 L 314.320312 457.238281 L 342.867188 457.238281"/></g><g id="change7_13"><path fill="#9e3117" d="M 342.867188 428.691406 L 342.867188 457.238281 L 314.320312 457.238281 L 314.320312 428.691406 L 342.867188 428.691406"/></g><g id="change2_55"><path fill="#702412" d="M 342.867188 400.054688 L 342.867188 428.691406 L 314.320312 428.691406 L 314.320312 400.054688 L 342.867188 400.054688"/></g><g id="change7_14"><path fill="#9e3117" d="M 342.867188 371.503906 L 342.867188 400.054688 L 314.320312 400.054688 L 314.320312 371.503906 L 342.867188 371.503906"/></g><g id="change2_56"><path fill="#702412" d="M 342.867188 342.953125 L 342.867188 371.503906 L 314.320312 371.503906 L 314.320312 342.953125 L 342.867188 342.953125"/></g><g id="change7_15"><path fill="#9e3117" d="M 342.867188 314.3125 L 342.867188 342.953125 L 314.320312 342.953125 L 314.320312 314.3125 L 342.867188 314.3125"/></g><g id="change2_57"><path fill="#702412" d="M 342.867188 285.761719 L 342.867188 314.3125 L 314.320312 314.3125 L 314.320312 285.761719 L 342.867188 285.761719"/></g><g id="change7_16"><path fill="#9e3117" d="M 342.867188 257.214844 L 342.867188 285.761719 L 314.320312 285.761719 L 314.320312 257.214844 L 342.867188 257.214844"/></g><g id="change2_58"><path fill="#702412" d="M 342.867188 228.664062 L 342.867188 257.214844 L 314.320312 257.214844 L 314.320312 228.664062 L 342.867188 228.664062"/></g><g id="change5_25"><path fill="#c74424" d="M 342.867188 200.027344 L 342.867188 228.664062 L 314.320312 228.664062 L 314.320312 200.027344 L 342.867188 200.027344"/></g><g id="change2_59"><path fill="#702412" d="M 342.867188 171.476562 L 342.867188 200.027344 L 314.320312 200.027344 L 314.320312 171.476562 L 342.867188 171.476562"/></g><g id="change6_9"><path fill="#571c0e" d="M 342.867188 142.921875 L 342.867188 171.476562 L 314.320312 171.476562 L 314.320312 142.921875 L 342.867188 142.921875"/></g><g id="change2_60"><path fill="#702412" d="M 342.867188 114.371094 L 342.867188 142.921875 L 314.320312 142.921875 L 314.320312 114.371094 L 342.867188 114.371094"/></g><g id="change6_10"><path fill="#571c0e" d="M 342.867188 85.734375 L 342.867188 114.371094 L 314.320312 114.371094 L 314.320312 85.734375 L 342.867188 85.734375"/></g><g id="change1_19"><path fill="#fea52a" d="M 342.867188 57.1875 L 342.867188 85.734375 L 314.320312 85.734375 L 314.320312 57.1875 L 342.867188 57.1875"/></g><g id="change2_61"><path fill="#702412" d="M 342.867188 28.636719 L 342.867188 57.1875 L 314.320312 57.1875 L 314.320312 28.636719 L 342.867188 28.636719"/></g><g id="change4_35"><path fill="#47170b" d="M 342.867188 -0.00390625 L 342.867188 28.636719 L 314.320312 28.636719 L 314.320312 -0.00390625 L 342.867188 -0.00390625"/></g><g id="change5_9" clip-path="url(#k)"><path fill="#c74424" d="M 314.320312 457.238281 L 314.320312 485.789062 L 285.675781 485.789062 L 285.675781 457.238281 L 314.320312 457.238281"/></g><g id="change7_17"><path fill="#9e3117" d="M 314.320312 428.691406 L 314.320312 457.238281 L 285.675781 457.238281 L 285.675781 428.691406 L 314.320312 428.691406"/></g><g id="change2_62"><path fill="#702412" d="M 314.320312 400.054688 L 314.320312 428.691406 L 285.675781 428.691406 L 285.675781 400.054688 L 314.320312 400.054688"/></g><g id="change7_18"><path fill="#9e3117" d="M 314.320312 371.503906 L 314.320312 400.054688 L 285.675781 400.054688 L 285.675781 371.503906 L 314.320312 371.503906"/></g><g id="change2_63"><path fill="#702412" d="M 314.320312 342.953125 L 314.320312 371.503906 L 285.675781 371.503906 L 285.675781 342.953125 L 314.320312 342.953125"/></g><g id="change7_19"><path fill="#9e3117" d="M 314.320312 314.3125 L 314.320312 342.953125 L 285.675781 342.953125 L 285.675781 314.3125 L 314.320312 314.3125"/></g><g id="change2_64"><path fill="#702412" d="M 314.320312 285.761719 L 314.320312 314.3125 L 285.675781 314.3125 L 285.675781 285.761719 L 314.320312 285.761719"/></g><g id="change7_20"><path fill="#9e3117" d="M 314.320312 257.214844 L 314.320312 285.761719 L 285.675781 285.761719 L 285.675781 257.214844 L 314.320312 257.214844"/></g><g id="change2_65"><path fill="#702412" d="M 314.320312 228.664062 L 314.320312 257.214844 L 285.675781 257.214844 L 285.675781 228.664062 L 314.320312 228.664062"/></g><g id="change5_26"><path fill="#c74424" d="M 314.320312 200.027344 L 314.320312 228.664062 L 285.675781 228.664062 L 285.675781 200.027344 L 314.320312 200.027344"/></g><g id="change2_66"><path fill="#702412" d="M 314.320312 171.476562 L 314.320312 200.027344 L 285.675781 200.027344 L 285.675781 171.476562 L 314.320312 171.476562"/></g><g id="change6_11"><path fill="#571c0e" d="M 314.320312 142.921875 L 314.320312 171.476562 L 285.675781 171.476562 L 285.675781 142.921875 L 314.320312 142.921875"/></g><g id="change2_67"><path fill="#702412" d="M 314.320312 114.371094 L 314.320312 142.921875 L 285.675781 142.921875 L 285.675781 114.371094 L 314.320312 114.371094"/></g><g id="change6_12"><path fill="#571c0e" d="M 314.320312 85.734375 L 314.320312 114.371094 L 285.675781 114.371094 L 285.675781 85.734375 L 314.320312 85.734375"/></g><g id="change1_20"><path fill="#fea52a" d="M 314.320312 57.1875 L 314.320312 85.734375 L 285.675781 85.734375 L 285.675781 57.1875 L 314.320312 57.1875"/></g><g id="change2_68"><path fill="#702412" d="M 314.320312 28.636719 L 314.320312 57.1875 L 285.675781 57.1875 L 285.675781 28.636719 L 314.320312 28.636719"/></g><g id="change4_36"><path fill="#47170b" d="M 314.320312 -0.00390625 L 314.320312 28.636719 L 285.675781 28.636719 L 285.675781 -0.00390625 L 314.320312 -0.00390625"/></g><g id="change5_10" clip-path="url(#l)"><path fill="#c74424" d="M 285.675781 457.238281 L 285.675781 485.789062 L 257.132812 485.789062 L 257.132812 457.238281 L 285.675781 457.238281"/></g><g id="change7_21"><path fill="#9e3117" d="M 285.675781 428.691406 L 285.675781 457.238281 L 257.132812 457.238281 L 257.132812 428.691406 L 285.675781 428.691406"/></g><g id="change2_69"><path fill="#702412" d="M 285.675781 400.054688 L 285.675781 428.691406 L 257.132812 428.691406 L 257.132812 400.054688 L 285.675781 400.054688"/></g><g id="change7_22"><path fill="#9e3117" d="M 285.675781 371.503906 L 285.675781 400.054688 L 257.132812 400.054688 L 257.132812 371.503906 L 285.675781 371.503906"/></g><g id="change2_70"><path fill="#702412" d="M 285.675781 342.953125 L 285.675781 371.503906 L 257.132812 371.503906 L 257.132812 342.953125 L 285.675781 342.953125"/></g><g id="change7_23"><path fill="#9e3117" d="M 285.675781 314.3125 L 285.675781 342.953125 L 257.132812 342.953125 L 257.132812 314.3125 L 285.675781 314.3125"/></g><g id="change2_71"><path fill="#702412" d="M 285.675781 285.761719 L 285.675781 314.3125 L 257.132812 314.3125 L 257.132812 285.761719 L 285.675781 285.761719"/></g><g id="change7_24"><path fill="#9e3117" d="M 285.675781 257.214844 L 285.675781 285.761719 L 257.132812 285.761719 L 257.132812 257.214844 L 285.675781 257.214844"/></g><g id="change2_72"><path fill="#702412" d="M 285.675781 228.664062 L 285.675781 257.214844 L 257.132812 257.214844 L 257.132812 228.664062 L 285.675781 228.664062"/></g><g id="change5_27"><path fill="#c74424" d="M 285.675781 200.027344 L 285.675781 228.664062 L 257.132812 228.664062 L 257.132812 200.027344 L 285.675781 200.027344"/></g><g id="change2_73"><path fill="#702412" d="M 285.675781 171.476562 L 285.675781 200.027344 L 257.132812 200.027344 L 257.132812 171.476562 L 285.675781 171.476562"/></g><g id="change6_13"><path fill="#571c0e" d="M 285.675781 142.921875 L 285.675781 171.476562 L 257.132812 171.476562 L 257.132812 142.921875 L 285.675781 142.921875"/></g><g id="change2_74"><path fill="#702412" d="M 285.675781 114.371094 L 285.675781 142.921875 L 257.132812 142.921875 L 257.132812 114.371094 L 285.675781 114.371094"/></g><g id="change6_14"><path fill="#571c0e" d="M 285.675781 85.734375 L 285.675781 114.371094 L 257.132812 114.371094 L 257.132812 85.734375 L 285.675781 85.734375"/></g><g id="change1_21"><path fill="#fea52a" d="M 285.675781 57.1875 L 285.675781 85.734375 L 257.132812 85.734375 L 257.132812 57.1875 L 285.675781 57.1875"/></g><g id="change2_75"><path fill="#702412" d="M 285.675781 28.636719 L 285.675781 57.1875 L 257.132812 57.1875 L 257.132812 28.636719 L 285.675781 28.636719"/></g><g id="change4_37"><path fill="#47170b" d="M 285.675781 -0.00390625 L 285.675781 28.636719 L 257.132812 28.636719 L 257.132812 -0.00390625 L 285.675781 -0.00390625"/></g><g id="change5_2" clip-path="url(#m)"><path fill="#c74424" d="M 257.132812 457.238281 L 257.132812 485.789062 L 228.585938 485.789062 L 228.585938 457.238281 L 257.132812 457.238281"/></g><g id="change7_25"><path fill="#9e3117" d="M 257.132812 428.691406 L 257.132812 457.238281 L 228.585938 457.238281 L 228.585938 428.691406 L 257.132812 428.691406"/></g><g id="change2_76"><path fill="#702412" d="M 257.132812 400.054688 L 257.132812 428.691406 L 228.585938 428.691406 L 228.585938 400.054688 L 257.132812 400.054688"/></g><g id="change7_26"><path fill="#9e3117" d="M 257.132812 371.503906 L 257.132812 400.054688 L 228.585938 400.054688 L 228.585938 371.503906 L 257.132812 371.503906"/></g><g id="change2_77"><path fill="#702412" d="M 257.132812 342.953125 L 257.132812 371.503906 L 228.585938 371.503906 L 228.585938 342.953125 L 257.132812 342.953125"/></g><g id="change7_27"><path fill="#9e3117" d="M 257.132812 314.3125 L 257.132812 342.953125 L 228.585938 342.953125 L 228.585938 314.3125 L 257.132812 314.3125"/></g><g id="change2_78"><path fill="#702412" d="M 257.132812 285.761719 L 257.132812 314.3125 L 228.585938 314.3125 L 228.585938 285.761719 L 257.132812 285.761719"/></g><g id="change2_79"><path fill="#702412" d="M 257.132812 257.214844 L 257.132812 285.761719 L 228.585938 285.761719 L 228.585938 257.214844 L 257.132812 257.214844"/></g><g id="change8_1"><path fill="#571b0c" d="M 257.132812 228.664062 L 257.132812 257.214844 L 228.585938 257.214844 L 228.585938 228.664062 L 257.132812 228.664062"/></g><g id="change5_28"><path fill="#c74424" d="M 257.132812 200.027344 L 257.132812 228.664062 L 228.585938 228.664062 L 228.585938 200.027344 L 257.132812 200.027344"/></g><g id="change2_80"><path fill="#702412" d="M 257.132812 171.476562 L 257.132812 200.027344 L 228.585938 200.027344 L 228.585938 171.476562 L 257.132812 171.476562"/></g><g id="change6_15"><path fill="#571c0e" d="M 257.132812 142.921875 L 257.132812 171.476562 L 228.585938 171.476562 L 228.585938 142.921875 L 257.132812 142.921875"/></g><g id="change2_81"><path fill="#702412" d="M 257.132812 114.371094 L 257.132812 142.921875 L 228.585938 142.921875 L 228.585938 114.371094 L 257.132812 114.371094"/></g><g id="change1_22"><path fill="#fea52a" d="M 257.132812 85.734375 L 257.132812 114.371094 L 228.585938 114.371094 L 228.585938 85.734375 L 257.132812 85.734375"/></g><g id="change1_23"><path fill="#fea52a" d="M 257.132812 57.1875 L 257.132812 85.734375 L 228.585938 85.734375 L 228.585938 57.1875 L 257.132812 57.1875"/></g><g id="change2_82"><path fill="#702412" d="M 257.132812 28.636719 L 257.132812 57.1875 L 228.585938 57.1875 L 228.585938 28.636719 L 257.132812 28.636719"/></g><g id="change4_38"><path fill="#47170b" d="M 257.132812 -0.00390625 L 257.132812 28.636719 L 228.585938 28.636719 L 228.585938 -0.00390625 L 257.132812 -0.00390625"/></g><g id="change5_5" clip-path="url(#n)"><path fill="#c74424" d="M 228.585938 457.238281 L 228.585938 485.789062 L 200.027344 485.789062 L 200.027344 457.238281 L 228.585938 457.238281"/></g><g id="change7_28"><path fill="#9e3117" d="M 228.585938 428.691406 L 228.585938 457.238281 L 200.027344 457.238281 L 200.027344 428.691406 L 228.585938 428.691406"/></g><g id="change2_83"><path fill="#702412" d="M 228.585938 400.054688 L 228.585938 428.691406 L 200.027344 428.691406 L 200.027344 400.054688 L 228.585938 400.054688"/></g><g id="change7_29"><path fill="#9e3117" d="M 228.585938 371.503906 L 228.585938 400.054688 L 200.027344 400.054688 L 200.027344 371.503906 L 228.585938 371.503906"/></g><g id="change2_84"><path fill="#702412" d="M 228.585938 342.953125 L 228.585938 371.503906 L 200.027344 371.503906 L 200.027344 342.953125 L 228.585938 342.953125"/></g><g id="change7_30"><path fill="#9e3117" d="M 228.585938 314.3125 L 228.585938 342.953125 L 200.027344 342.953125 L 200.027344 314.3125 L 228.585938 314.3125"/></g><g id="change2_85"><path fill="#702412" d="M 228.585938 285.761719 L 228.585938 314.3125 L 200.027344 314.3125 L 200.027344 285.761719 L 228.585938 285.761719"/></g><g id="change1_24"><path fill="#fea52a" d="M 228.585938 257.214844 L 228.585938 285.761719 L 200.027344 285.761719 L 200.027344 257.214844 L 228.585938 257.214844"/></g><g id="change3_10"><path fill="#fee670" d="M 228.585938 228.664062 L 228.585938 257.214844 L 200.027344 257.214844 L 200.027344 228.664062 L 228.585938 228.664062"/></g><g id="change5_29"><path fill="#c74424" d="M 228.585938 200.027344 L 228.585938 228.664062 L 200.027344 228.664062 L 200.027344 200.027344 L 228.585938 200.027344"/></g><g id="change2_86"><path fill="#702412" d="M 228.585938 171.476562 L 228.585938 200.027344 L 200.027344 200.027344 L 200.027344 171.476562 L 228.585938 171.476562"/></g><g id="change6_16"><path fill="#571c0e" d="M 228.585938 142.921875 L 228.585938 171.476562 L 200.027344 171.476562 L 200.027344 142.921875 L 228.585938 142.921875"/></g><g id="change2_87"><path fill="#702412" d="M 228.585938 114.371094 L 228.585938 142.921875 L 200.027344 142.921875 L 200.027344 114.371094 L 228.585938 114.371094"/></g><g id="change6_17"><path fill="#571c0e" d="M 228.585938 85.734375 L 228.585938 114.371094 L 200.027344 114.371094 L 200.027344 85.734375 L 228.585938 85.734375"/></g><g id="change1_25"><path fill="#fea52a" d="M 228.585938 57.1875 L 228.585938 85.734375 L 200.027344 85.734375 L 200.027344 57.1875 L 228.585938 57.1875"/></g><g id="change2_88"><path fill="#702412" d="M 228.585938 28.636719 L 228.585938 57.1875 L 200.027344 57.1875 L 200.027344 28.636719 L 228.585938 28.636719"/></g><g id="change4_39"><path fill="#47170b" d="M 228.585938 -0.00390625 L 228.585938 28.636719 L 200.027344 28.636719 L 200.027344 -0.00390625 L 228.585938 -0.00390625"/></g><g id="change5_11" clip-path="url(#o)"><path fill="#c74424" d="M 200.027344 457.238281 L 200.027344 485.789062 L 171.398438 485.789062 L 171.398438 457.238281 L 200.027344 457.238281"/></g><g id="change7_31"><path fill="#9e3117" d="M 200.027344 428.691406 L 200.027344 457.238281 L 171.398438 457.238281 L 171.398438 428.691406 L 200.027344 428.691406"/></g><g id="change2_89"><path fill="#702412" d="M 200.027344 400.054688 L 200.027344 428.691406 L 171.398438 428.691406 L 171.398438 400.054688 L 200.027344 400.054688"/></g><g id="change7_32"><path fill="#9e3117" d="M 200.027344 371.503906 L 200.027344 400.054688 L 171.398438 400.054688 L 171.398438 371.503906 L 200.027344 371.503906"/></g><g id="change2_90"><path fill="#702412" d="M 200.027344 342.953125 L 200.027344 371.503906 L 171.398438 371.503906 L 171.398438 342.953125 L 200.027344 342.953125"/></g><g id="change7_33"><path fill="#9e3117" d="M 200.027344 314.3125 L 200.027344 342.953125 L 171.398438 342.953125 L 171.398438 314.3125 L 200.027344 314.3125"/></g><g id="change2_91"><path fill="#702412" d="M 200.027344 285.761719 L 200.027344 314.3125 L 171.398438 314.3125 L 171.398438 285.761719 L 200.027344 285.761719"/></g><g id="change7_34"><path fill="#9e3117" d="M 200.027344 257.214844 L 200.027344 285.761719 L 171.398438 285.761719 L 171.398438 257.214844 L 200.027344 257.214844"/></g><g id="change2_92"><path fill="#702412" d="M 200.027344 228.664062 L 200.027344 257.214844 L 171.398438 257.214844 L 171.398438 228.664062 L 200.027344 228.664062"/></g><g id="change5_30"><path fill="#c74424" d="M 200.027344 200.027344 L 200.027344 228.664062 L 171.398438 228.664062 L 171.398438 200.027344 L 200.027344 200.027344"/></g><g id="change2_93"><path fill="#702412" d="M 200.027344 171.476562 L 200.027344 200.027344 L 171.398438 200.027344 L 171.398438 171.476562 L 200.027344 171.476562"/></g><g id="change6_18"><path fill="#571c0e" d="M 200.027344 142.921875 L 200.027344 171.476562 L 171.398438 171.476562 L 171.398438 142.921875 L 200.027344 142.921875"/></g><g id="change2_94"><path fill="#702412" d="M 200.027344 114.371094 L 200.027344 142.921875 L 171.398438 142.921875 L 171.398438 114.371094 L 200.027344 114.371094"/></g><g id="change6_19"><path fill="#571c0e" d="M 200.027344 85.734375 L 200.027344 114.371094 L 171.398438 114.371094 L 171.398438 85.734375 L 200.027344 85.734375"/></g><g id="change1_26"><path fill="#fea52a" d="M 200.027344 57.1875 L 200.027344 85.734375 L 171.398438 85.734375 L 171.398438 57.1875 L 200.027344 57.1875"/></g><g id="change2_95"><path fill="#702412" d="M 200.027344 28.636719 L 200.027344 57.1875 L 171.398438 57.1875 L 171.398438 28.636719 L 200.027344 28.636719"/></g><g id="change4_40"><path fill="#47170b" d="M 200.027344 -0.00390625 L 200.027344 28.636719 L 171.398438 28.636719 L 171.398438 -0.00390625 L 200.027344 -0.00390625"/></g><g id="change5_4" clip-path="url(#p)"><path fill="#c74424" d="M 171.398438 457.238281 L 171.398438 485.789062 L 142.839844 485.789062 L 142.839844 457.238281 L 171.398438 457.238281"/></g><g id="change7_35"><path fill="#9e3117" d="M 171.398438 428.691406 L 171.398438 457.238281 L 142.839844 457.238281 L 142.839844 428.691406 L 171.398438 428.691406"/></g><g id="change2_96"><path fill="#702412" d="M 171.398438 400.054688 L 171.398438 428.691406 L 142.839844 428.691406 L 142.839844 400.054688 L 171.398438 400.054688"/></g><g id="change7_36"><path fill="#9e3117" d="M 171.398438 371.503906 L 171.398438 400.054688 L 142.839844 400.054688 L 142.839844 371.503906 L 171.398438 371.503906"/></g><g id="change2_97"><path fill="#702412" d="M 171.398438 342.953125 L 171.398438 371.503906 L 142.839844 371.503906 L 142.839844 342.953125 L 171.398438 342.953125"/></g><g id="change7_37"><path fill="#9e3117" d="M 171.398438 314.3125 L 171.398438 342.953125 L 142.839844 342.953125 L 142.839844 314.3125 L 171.398438 314.3125"/></g><g id="change2_98"><path fill="#702412" d="M 171.398438 285.761719 L 171.398438 314.3125 L 142.839844 314.3125 L 142.839844 285.761719 L 171.398438 285.761719"/></g><g id="change7_38"><path fill="#9e3117" d="M 171.398438 257.214844 L 171.398438 285.761719 L 142.839844 285.761719 L 142.839844 257.214844 L 171.398438 257.214844"/></g><g id="change2_99"><path fill="#702412" d="M 171.398438 228.664062 L 171.398438 257.214844 L 142.839844 257.214844 L 142.839844 228.664062 L 171.398438 228.664062"/></g><g id="change5_31"><path fill="#c74424" d="M 171.398438 200.027344 L 171.398438 228.664062 L 142.839844 228.664062 L 142.839844 200.027344 L 171.398438 200.027344"/></g><g id="change4_41"><path fill="#47170b" d="M 171.398438 171.476562 L 171.398438 200.027344 L 142.839844 200.027344 L 142.839844 171.476562 L 171.398438 171.476562"/></g><g id="change6_20"><path fill="#571c0e" d="M 171.398438 142.921875 L 171.398438 171.476562 L 142.839844 171.476562 L 142.839844 142.921875 L 171.398438 142.921875"/></g><g id="change2_100"><path fill="#702412" d="M 171.398438 114.371094 L 171.398438 142.921875 L 142.839844 142.921875 L 142.839844 114.371094 L 171.398438 114.371094"/></g><g id="change6_21"><path fill="#571c0e" d="M 171.398438 85.734375 L 171.398438 114.371094 L 142.839844 114.371094 L 142.839844 85.734375 L 171.398438 85.734375"/></g><g id="change1_27"><path fill="#fea52a" d="M 171.398438 57.1875 L 171.398438 85.734375 L 142.839844 85.734375 L 142.839844 57.1875 L 171.398438 57.1875"/></g><g id="change2_101"><path fill="#702412" d="M 171.398438 28.636719 L 171.398438 57.1875 L 142.839844 57.1875 L 142.839844 28.636719 L 171.398438 28.636719"/></g><g id="change4_42"><path fill="#47170b" d="M 171.398438 -0.00390625 L 171.398438 28.636719 L 142.839844 28.636719 L 142.839844 -0.00390625 L 171.398438 -0.00390625"/></g><g id="change5_1" clip-path="url(#q)"><path fill="#c74424" d="M 142.839844 457.238281 L 142.839844 485.789062 L 114.292969 485.789062 L 114.292969 457.238281 L 142.839844 457.238281"/></g><g id="change7_39"><path fill="#9e3117" d="M 142.839844 428.691406 L 142.839844 457.238281 L 114.292969 457.238281 L 114.292969 428.691406 L 142.839844 428.691406"/></g><g id="change2_102"><path fill="#702412" d="M 142.839844 400.054688 L 142.839844 428.691406 L 114.292969 428.691406 L 114.292969 400.054688 L 142.839844 400.054688"/></g><g id="change7_40"><path fill="#9e3117" d="M 142.839844 371.503906 L 142.839844 400.054688 L 114.292969 400.054688 L 114.292969 371.503906 L 142.839844 371.503906"/></g><g id="change2_103"><path fill="#702412" d="M 142.839844 342.953125 L 142.839844 371.503906 L 114.292969 371.503906 L 114.292969 342.953125 L 142.839844 342.953125"/></g><g id="change7_41"><path fill="#9e3117" d="M 142.839844 314.3125 L 142.839844 342.953125 L 114.292969 342.953125 L 114.292969 314.3125 L 142.839844 314.3125"/></g><g id="change2_104"><path fill="#702412" d="M 142.839844 285.761719 L 142.839844 314.3125 L 114.292969 314.3125 L 114.292969 285.761719 L 142.839844 285.761719"/></g><g id="change7_42"><path fill="#9e3117" d="M 142.839844 257.214844 L 142.839844 285.761719 L 114.292969 285.761719 L 114.292969 257.214844 L 142.839844 257.214844"/></g><g id="change2_105"><path fill="#702412" d="M 142.839844 228.664062 L 142.839844 257.214844 L 114.292969 257.214844 L 114.292969 228.664062 L 142.839844 228.664062"/></g><g id="change5_32"><path fill="#c74424" d="M 142.839844 200.027344 L 142.839844 228.664062 L 114.292969 228.664062 L 114.292969 200.027344 L 142.839844 200.027344"/></g><g id="change5_33"><path fill="#c74424" d="M 142.839844 171.476562 L 142.839844 200.027344 L 114.292969 200.027344 L 114.292969 171.476562 L 142.839844 171.476562"/></g><g id="change4_43"><path fill="#47170b" d="M 142.839844 142.921875 L 142.839844 171.476562 L 114.292969 171.476562 L 114.292969 142.921875 L 142.839844 142.921875"/></g><g id="change2_106"><path fill="#702412" d="M 142.839844 114.371094 L 142.839844 142.921875 L 114.292969 142.921875 L 114.292969 114.371094 L 142.839844 114.371094"/></g><g id="change6_22"><path fill="#571c0e" d="M 142.839844 85.734375 L 142.839844 114.371094 L 114.292969 114.371094 L 114.292969 85.734375 L 142.839844 85.734375"/></g><g id="change1_28"><path fill="#fea52a" d="M 142.839844 57.1875 L 142.839844 85.734375 L 114.292969 85.734375 L 114.292969 57.1875 L 142.839844 57.1875"/></g><g id="change2_107"><path fill="#702412" d="M 142.839844 28.636719 L 142.839844 57.1875 L 114.292969 57.1875 L 114.292969 28.636719 L 142.839844 28.636719"/></g><g id="change4_44"><path fill="#47170b" d="M 142.839844 -0.00390625 L 142.839844 28.636719 L 114.292969 28.636719 L 114.292969 -0.00390625 L 142.839844 -0.00390625"/></g><g id="change5_7" clip-path="url(#r)"><path fill="#c74424" d="M 114.292969 457.238281 L 114.292969 485.789062 L 85.648438 485.789062 L 85.648438 457.238281 L 114.292969 457.238281"/></g><g id="change7_43"><path fill="#9e3117" d="M 114.292969 428.691406 L 114.292969 457.238281 L 85.648438 457.238281 L 85.648438 428.691406 L 114.292969 428.691406"/></g><g id="change2_108"><path fill="#702412" d="M 114.292969 400.054688 L 114.292969 428.691406 L 85.648438 428.691406 L 85.648438 400.054688 L 114.292969 400.054688"/></g><g id="change7_44"><path fill="#9e3117" d="M 114.292969 371.503906 L 114.292969 400.054688 L 85.648438 400.054688 L 85.648438 371.503906 L 114.292969 371.503906"/></g><g id="change2_109"><path fill="#702412" d="M 114.292969 342.953125 L 114.292969 371.503906 L 85.648438 371.503906 L 85.648438 342.953125 L 114.292969 342.953125"/></g><g id="change7_45"><path fill="#9e3117" d="M 114.292969 314.3125 L 114.292969 342.953125 L 85.648438 342.953125 L 85.648438 314.3125 L 114.292969 314.3125"/></g><g id="change2_110"><path fill="#702412" d="M 114.292969 285.761719 L 114.292969 314.3125 L 85.648438 314.3125 L 85.648438 285.761719 L 114.292969 285.761719"/></g><g id="change7_46"><path fill="#9e3117" d="M 114.292969 257.214844 L 114.292969 285.761719 L 85.648438 285.761719 L 85.648438 257.214844 L 114.292969 257.214844"/></g><g id="change2_111"><path fill="#702412" d="M 114.292969 228.664062 L 114.292969 257.214844 L 85.648438 257.214844 L 85.648438 228.664062 L 114.292969 228.664062"/></g><g id="change5_34"><path fill="#c74424" d="M 114.292969 200.027344 L 114.292969 228.664062 L 85.648438 228.664062 L 85.648438 200.027344 L 114.292969 200.027344"/></g><g id="change5_35"><path fill="#c74424" d="M 114.292969 142.921875 L 114.292969 171.476562 L 85.648438 171.476562 L 85.648438 142.921875 L 114.292969 142.921875"/></g><g id="change4_45"><path fill="#47170b" d="M 114.292969 114.371094 L 114.292969 142.921875 L 85.648438 142.921875 L 85.648438 114.371094 L 114.292969 114.371094"/></g><g id="change6_23"><path fill="#571c0e" d="M 114.292969 85.734375 L 114.292969 114.371094 L 85.648438 114.371094 L 85.648438 85.734375 L 114.292969 85.734375"/></g><g id="change1_29"><path fill="#fea52a" d="M 114.292969 57.1875 L 114.292969 85.734375 L 85.648438 85.734375 L 85.648438 57.1875 L 114.292969 57.1875"/></g><g id="change2_112"><path fill="#702412" d="M 114.292969 28.636719 L 114.292969 57.1875 L 85.648438 57.1875 L 85.648438 28.636719 L 114.292969 28.636719"/></g><g id="change4_46"><path fill="#47170b" d="M 114.292969 -0.00390625 L 114.292969 28.636719 L 85.648438 28.636719 L 85.648438 -0.00390625 L 114.292969 -0.00390625"/></g><g id="change5_6" clip-path="url(#s)"><path fill="#c74424" d="M 85.648438 457.238281 L 85.648438 485.789062 L 57.101562 485.789062 L 57.101562 457.238281 L 85.648438 457.238281"/></g><g id="change7_47"><path fill="#9e3117" d="M 85.648438 428.691406 L 85.648438 457.238281 L 57.101562 457.238281 L 57.101562 428.691406 L 85.648438 428.691406"/></g><g id="change2_113"><path fill="#702412" d="M 85.648438 400.054688 L 85.648438 428.691406 L 57.101562 428.691406 L 57.101562 400.054688 L 85.648438 400.054688"/></g><g id="change7_48"><path fill="#9e3117" d="M 85.648438 371.503906 L 85.648438 400.054688 L 57.101562 400.054688 L 57.101562 371.503906 L 85.648438 371.503906"/></g><g id="change2_114"><path fill="#702412" d="M 85.648438 342.953125 L 85.648438 371.503906 L 57.101562 371.503906 L 57.101562 342.953125 L 85.648438 342.953125"/></g><g id="change7_49"><path fill="#9e3117" d="M 85.648438 314.3125 L 85.648438 342.953125 L 57.101562 342.953125 L 57.101562 314.3125 L 85.648438 314.3125"/></g><g id="change2_115"><path fill="#702412" d="M 85.648438 285.761719 L 85.648438 314.3125 L 57.101562 314.3125 L 57.101562 285.761719 L 85.648438 285.761719"/></g><g id="change7_50"><path fill="#9e3117" d="M 85.648438 257.214844 L 85.648438 285.761719 L 57.101562 285.761719 L 57.101562 257.214844 L 85.648438 257.214844"/></g><g id="change2_116"><path fill="#702412" d="M 85.648438 228.664062 L 85.648438 257.214844 L 57.101562 257.214844 L 57.101562 228.664062 L 85.648438 228.664062"/></g><g id="change5_36"><path fill="#c74424" d="M 85.648438 200.027344 L 85.648438 228.664062 L 57.101562 228.664062 L 57.101562 200.027344 L 85.648438 200.027344"/></g><g id="change5_37"><path fill="#c74424" d="M 85.648438 114.371094 L 85.648438 142.921875 L 57.101562 142.921875 L 57.101562 114.371094 L 85.648438 114.371094"/></g><g id="change4_47"><path fill="#47170b" d="M 85.648438 85.734375 L 85.648438 114.371094 L 57.101562 114.371094 L 57.101562 85.734375 L 85.648438 85.734375"/></g><g id="change3_11"><path fill="#fee670" d="M 85.648438 57.1875 L 85.648438 85.734375 L 57.101562 85.734375 L 57.101562 57.1875 L 85.648438 57.1875"/></g><g id="change2_117"><path fill="#702412" d="M 85.648438 28.636719 L 85.648438 57.1875 L 57.101562 57.1875 L 57.101562 28.636719 L 85.648438 28.636719"/></g><g id="change4_48"><path fill="#47170b" d="M 85.648438 -0.00390625 L 85.648438 28.636719 L 57.101562 28.636719 L 57.101562 -0.00390625 L 85.648438 -0.00390625"/></g><g id="change3_3" clip-path="url(#t)"><path fill="#fee670" d="M 57.101562 457.238281 L 57.101562 485.789062 L 28.558594 485.789062 L 28.558594 457.238281 L 57.101562 457.238281"/></g><g id="change2_118"><path fill="#702412" d="M 57.101562 428.691406 L 57.101562 457.238281 L 28.558594 457.238281 L 28.558594 428.691406 L 57.101562 428.691406"/></g><g id="change2_119"><path fill="#702412" d="M 57.101562 400.054688 L 57.101562 428.691406 L 28.558594 428.691406 L 28.558594 400.054688 L 57.101562 400.054688"/></g><g id="change2_120"><path fill="#702412" d="M 57.101562 371.503906 L 57.101562 400.054688 L 28.558594 400.054688 L 28.558594 371.503906 L 57.101562 371.503906"/></g><g id="change2_121"><path fill="#702412" d="M 57.101562 342.953125 L 57.101562 371.503906 L 28.558594 371.503906 L 28.558594 342.953125 L 57.101562 342.953125"/></g><g id="change2_122"><path fill="#702412" d="M 57.101562 314.3125 L 57.101562 342.953125 L 28.558594 342.953125 L 28.558594 314.3125 L 57.101562 314.3125"/></g><g id="change2_123"><path fill="#702412" d="M 57.101562 285.761719 L 57.101562 314.3125 L 28.558594 314.3125 L 28.558594 285.761719 L 57.101562 285.761719"/></g><g id="change2_124"><path fill="#702412" d="M 57.101562 257.214844 L 57.101562 285.761719 L 28.558594 285.761719 L 28.558594 257.214844 L 57.101562 257.214844"/></g><g id="change2_125"><path fill="#702412" d="M 57.101562 228.664062 L 57.101562 257.214844 L 28.558594 257.214844 L 28.558594 228.664062 L 57.101562 228.664062"/></g><g id="change3_12"><path fill="#fee670" d="M 57.101562 200.027344 L 57.101562 228.664062 L 28.558594 228.664062 L 28.558594 200.027344 L 57.101562 200.027344"/></g><g id="change5_38"><path fill="#c74424" d="M 57.101562 85.734375 L 57.101562 114.371094 L 28.558594 114.371094 L 28.558594 85.734375 L 57.101562 85.734375"/></g><g id="change3_13"><path fill="#fee670" d="M 57.101562 57.1875 L 57.101562 85.734375 L 28.558594 85.734375 L 28.558594 57.1875 L 57.101562 57.1875"/></g><g id="change5_39"><path fill="#c74424" d="M 57.101562 28.636719 L 57.101562 57.1875 L 28.558594 57.1875 L 28.558594 28.636719 L 57.101562 28.636719"/></g><g id="change3_17" clip-path="url(#u)"><path fill="#fee670" d="M 28.558594 457.238281 L 28.558594 485.789062 L 0 485.789062 L 0 457.238281 L 28.558594 457.238281"/></g><g id="change3_14"><path fill="#fee670" d="M 28.558594 428.691406 L 28.558594 457.238281 L 0 457.238281 L 0 428.691406 L 28.558594 428.691406"/></g><g id="change5_40"><path fill="#c74424" d="M 28.558594 400.054688 L 28.558594 428.691406 L 0 428.691406 L 0 400.054688 L 28.558594 400.054688"/></g><g id="change5_41"><path fill="#c74424" d="M 28.558594 371.503906 L 28.558594 400.054688 L 0 400.054688 L 0 371.503906 L 28.558594 371.503906"/></g><g id="change5_42"><path fill="#c74424" d="M 28.558594 342.953125 L 28.558594 371.503906 L 0 371.503906 L 0 342.953125 L 28.558594 342.953125"/></g><g id="change5_43"><path fill="#c74424" d="M 28.558594 314.3125 L 28.558594 342.953125 L 0 342.953125 L 0 314.3125 L 28.558594 314.3125"/></g><g id="change5_44"><path fill="#c74424" d="M 28.558594 285.761719 L 28.558594 314.3125 L 0 314.3125 L 0 285.761719 L 28.558594 285.761719"/></g><g id="change5_45"><path fill="#c74424" d="M 28.558594 257.214844 L 28.558594 285.761719 L 0 285.761719 L 0 257.214844 L 28.558594 257.214844"/></g><g id="change3_15"><path fill="#fee670" d="M 28.558594 228.664062 L 28.558594 257.214844 L 0 257.214844 L 0 228.664062 L 28.558594 228.664062"/></g><g id="change3_16"><path fill="#fee670" d="M 28.558594 200.027344 L 28.558594 228.664062 L 0 228.664062 L 0 200.027344 L 28.558594 200.027344"/></g></g></svg>