<?xml version="1.0" encoding="UTF-8"?><svg xmlns="http://www.w3.org/2000/svg" xmlns:xlink="http://www.w3.org/1999/xlink" contentScriptType="text/ecmascript" fill="#000000" width="337.9" zoomAndPan="magnify" contentStyleType="text/css" viewBox="43.6 52.3 337.9 320.7" height="320.7" preserveAspectRatio="xMidYMid meet" version="1"><g><g id="change1_1"><path fill="#f7cf1b" d="M 273.664062 176.492188 L 273.664062 160.03125 L 263.910156 160.03125 L 263.910156 141.472656 L 254.15625 141.472656 L 254.15625 122.914062 L 245.160156 122.914062 L 244.402344 121.117188 L 244.402344 104.355469 L 243.980469 104.355469 L 243.980469 103.15625 L 234.226562 103.15625 L 234.226562 86.394531 L 224.050781 86.394531 L 224.050781 52.269531 L 210.480469 52.269531 L 210.480469 64.242188 L 209.722656 66.039062 L 206.636719 66.039062 L 206.636719 84.597656 L 196.886719 84.597656 L 196.886719 103.15625 L 187.132812 103.15625 L 187.132812 104.355469 L 186.707031 104.355469 L 186.707031 121.117188 L 185.949219 122.914062 L 176.953125 122.914062 L 176.953125 141.472656 L 167.203125 141.472656 L 167.203125 160.03125 L 157.449219 160.03125 L 157.449219 176.492188 L 43.625 176.492188 L 43.625 195.652344 L 60.390625 195.652344 L 62.183594 196.722656 L 62.183594 209.421875 L 80.742188 209.421875 L 80.742188 223.1875 L 99.300781 223.1875 L 99.300781 236.960938 L 100.5 236.960938 L 100.5 237.558594 L 117.261719 237.558594 L 119.058594 238.628906 L 119.058594 251.324219 L 137.617188 251.324219 L 137.617188 262.636719 L 132.214844 267.144531 L 140.351562 276.894531 L 139.65625 278.867188 L 126.789062 289.605469 L 127.171875 290.066406 L 126.253906 290.835938 L 135.074219 301.40625 L 120.824219 313.296875 L 129.644531 323.867188 L 115.398438 335.757812 L 123.535156 345.511719 L 122.839844 347.480469 L 109.972656 358.222656 L 122.242188 372.929688 L 211.328125 298.921875 L 227.785156 332.554688 L 238.992188 326.582031 L 240.78125 327.664062 L 248.667969 342.457031 L 249.195312 342.175781 L 249.757812 343.230469 L 261.910156 336.753906 L 270.640625 353.128906 L 282.789062 346.652344 L 291.519531 363.03125 L 302.726562 357.054688 L 304.515625 358.136719 L 312.402344 372.929688 L 329.308594 363.917969 L 276.628906 265.097656 L 287.585938 265.097656 L 287.585938 251.324219 L 306.140625 251.324219 L 306.140625 238.628906 L 307.9375 237.558594 L 324.699219 237.558594 L 324.699219 236.960938 L 325.898438 236.960938 L 325.898438 223.1875 L 344.457031 223.1875 L 344.457031 209.421875 L 363.015625 209.421875 L 363.015625 196.722656 L 364.8125 195.652344 L 381.574219 195.652344 L 381.574219 176.492188 L 273.664062 176.492188"/></g><g id="change2_1"><path fill="#fbe26c" d="M 216.457031 91.546875 L 204.484375 91.796875 L 204.730469 103.46875 L 198.144531 103.605469 L 198.390625 115.277344 L 191.804688 115.414062 L 192.050781 127.085938 L 185.464844 127.222656 L 185.707031 138.894531 L 179.125 139.03125 L 179.367188 150.703125 L 172.78125 150.839844 L 173.019531 162.214844 L 165.839844 162.363281 L 166.089844 174.332031 L 178.058594 174.085938 L 177.820312 162.710938 L 185.003906 162.5625 L 184.761719 150.890625 L 191.34375 150.753906 L 191.101562 139.082031 L 197.6875 138.945312 L 197.441406 127.273438 L 204.027344 127.136719 L 203.78125 115.464844 L 210.363281 115.328125 L 210.121094 103.65625 L 216.707031 103.519531 L 216.457031 91.546875"/></g><g id="change2_2"><path fill="#fbe26c" d="M 72.023438 189.472656 L 71.476562 201.433594 L 83.140625 201.964844 L 82.839844 208.546875 L 94.5 209.078125 L 94.199219 215.65625 L 105.859375 216.1875 L 105.5625 222.769531 L 117.222656 223.300781 L 116.921875 229.878906 L 128.582031 230.410156 L 128.28125 236.988281 L 139.644531 237.511719 L 139.316406 244.6875 L 151.277344 245.230469 L 151.824219 233.273438 L 140.460938 232.753906 L 140.789062 225.574219 L 129.128906 225.042969 L 129.429688 218.464844 L 117.769531 217.933594 L 118.066406 211.351562 L 106.40625 210.820312 L 106.707031 204.242188 L 95.042969 203.710938 L 95.34375 197.128906 L 83.683594 196.597656 L 83.984375 190.019531 L 72.023438 189.472656"/></g><g id="change3_1"><path fill="#f2911e" d="M 263.910156 160.03125 L 263.910156 141.472656 L 254.15625 141.472656 L 254.15625 122.914062 L 245.160156 122.914062 L 244.402344 121.117188 L 244.402344 106.148438 L 229.886719 106.148438 L 229.886719 141.472656 L 236.371094 141.472656 L 236.371094 160.03125 L 246.125 160.03125 L 246.125 176.492188 L 273.664062 176.492188 L 273.664062 160.03125 L 263.910156 160.03125"/></g><g id="change3_2"><path fill="#f2911e" d="M 354.035156 176.492188 L 354.035156 195.652344 L 337.273438 195.652344 L 335.476562 196.722656 L 335.476562 209.421875 L 316.917969 209.421875 L 316.917969 223.1875 L 298.359375 223.1875 L 298.359375 236.960938 L 297.164062 236.960938 L 297.164062 237.558594 L 280.398438 237.558594 L 278.605469 238.628906 L 278.605469 251.324219 L 260.046875 251.324219 L 260.046875 265.097656 L 249.089844 265.097656 L 299.132812 358.972656 L 302.726562 357.054688 L 304.515625 358.136719 L 312.402344 372.929688 L 329.308594 363.917969 L 276.628906 265.097656 L 287.585938 265.097656 L 287.585938 251.324219 L 306.140625 251.324219 L 306.140625 238.628906 L 307.9375 237.558594 L 324.699219 237.558594 L 324.699219 236.960938 L 325.898438 236.960938 L 325.898438 223.1875 L 344.457031 223.1875 L 344.457031 209.421875 L 363.015625 209.421875 L 363.015625 196.722656 L 364.8125 195.652344 L 381.574219 195.652344 L 381.574219 176.492188 L 354.035156 176.492188"/></g></g></svg>