<?xml version="1.0" encoding="UTF-8"?><svg xmlns="http://www.w3.org/2000/svg" xmlns:xlink="http://www.w3.org/1999/xlink" contentScriptType="text/ecmascript" fill="#000000" width="452.9" zoomAndPan="magnify" contentStyleType="text/css" viewBox="-0.3 -0.3 452.9 175.7" height="175.7" data-name="Layer 1" preserveAspectRatio="xMidYMid meet" version="1"><g id="change1_1"><path fill="#ffd07f" d="M437.77,58.38V43.89H146.15V29.39H131.56V14.88H117V.39H44.08V14.88H29.5V29.39H14.91v29H.34v58H14.91v29H29.5v14.49H44.08v14.51H117V159.88h14.58V145.39h14.59v-29H306.53v43.49h14.58v14.51H335.7V159.88h14.57V116.39H394v43.49H408.6v14.51h14.58V159.88h14.59v-58h14.57V58.38ZM87.54,131.32H58.35V43.78h43.77v87.54Z"/></g><g id="change2_1"><path fill="#f8b44e" d="M102.03 145.82L87.55 145.82 72.96 145.82 58.46 145.82 58.46 131.22 43.67 131.22 43.67 131.32 43.67 146.02 58.26 146.02 58.26 160.6 72.96 160.6 87.55 160.6 102.23 160.6 102.23 146.02 116.83 146.02 116.83 131.22 102.03 131.22 102.03 145.82z"/></g><g id="change2_2"><path fill="#f8b44e" d="M43.87 102.15L43.87 87.55 43.87 72.96 43.87 58.26 29.09 58.26 29.09 72.96 29.09 87.55 29.09 102.15 29.09 116.83 43.87 116.83 43.87 102.15z"/></g><g id="change2_3"><path fill="#f8b44e" d="M423.15 58.26L408.57 58.26 393.97 58.26 379.38 58.26 364.8 58.26 350.19 58.26 335.61 58.26 321.01 58.26 306.42 58.26 291.84 58.26 277.24 58.26 262.65 58.26 248.05 58.26 233.46 58.26 218.88 58.26 204.28 58.26 189.69 58.26 175.09 58.26 160.5 58.26 145.92 58.26 131.22 58.26 131.22 73.06 145.92 73.06 160.5 73.06 175.09 73.06 189.69 73.06 204.28 73.06 218.88 73.06 233.46 73.06 248.05 73.06 262.65 73.06 277.24 73.06 291.84 73.06 306.42 73.06 321.01 73.06 335.61 73.06 350.19 73.06 364.8 73.06 379.38 73.06 393.97 73.06 408.57 73.06 423.15 73.06 437.85 73.06 437.85 58.26 423.15 58.26z"/></g><g id="change2_4"><path fill="#f8b44e" d="M43.87 43.87L43.87 29.29 58.36 29.29 72.96 29.29 87.55 29.29 102.13 29.29 116.63 29.29 116.63 43.87 131.42 43.87 131.42 43.77 131.42 29.09 116.83 29.09 116.83 14.49 102.13 14.49 87.55 14.49 72.96 14.49 58.36 14.49 43.67 14.49 43.67 29.09 29.09 29.09 29.09 43.87 29.19 43.87 43.87 43.87z"/></g><g id="change3_1"><path fill="#383c50" d="M438.05,58.06V43.47H146.22V28.89h-14.6V14.29H117V-.3H43.47V14.29H28.89v14.6H14.29V58.06H-.3v59H14.29v29.19h14.6V160.8H43.47v14.61H117V160.8h14.59V146.22h14.6V117h159.9V160.8h14.59v14.61h15.2V160.8h14.58V117h43.18V160.8h14.6v14.61h15.18V160.8h14.6V102.45h14.59V58.06Zm-.6,14.9v28.89h-14.6V160.2h-14V101.85H335.31V160.2h-14V101.85H131v43.77H116.43V160.2H44.07V145.62H29.49V116.43H14.89V58.66h14.6V29.49H44.07V14.89h72.36v14.6H131V58.66H437.45Z"/></g><g id="change3_2"><path fill="#383c50" d="M102.43,28.89H58.06V43.47H43.47v88.15H58.06v14.6h44.37v-14.6H117V43.47h-14.6Zm-.6,29.47V131H58.66v-87h43.17Z"/></g></svg>