<?xml version="1.0" encoding="UTF-8"?><svg xmlns="http://www.w3.org/2000/svg" xmlns:xlink="http://www.w3.org/1999/xlink" contentScriptType="text/ecmascript" fill="#000000" width="205.1" zoomAndPan="magnify" contentStyleType="text/css" viewBox="110.0 56.6 205.1 368.6" height="368.6" preserveAspectRatio="xMidYMid meet" version="1"><defs><clipPath id="a"><path d="M 135 273 L 290 273 L 290 425.199219 L 135 425.199219 Z M 135 273"/></clipPath></defs><g><g clip-path="url(#a)"><g id="change1_2"><path fill="#8f939b" d="M 279.242188 273.269531 L 135.683594 273.269531 L 135.683594 425.207031 L 289.496094 425.207031 L 289.496094 273.269531 L 279.242188 273.269531"/></g><g id="change2_2"><path fill="#636670" d="M 279.242188 273.269531 L 268.988281 273.269531 L 268.988281 364.433594 L 258.730469 364.433594 L 258.730469 384.695312 L 248.480469 384.695312 L 248.480469 404.949219 L 135.683594 404.949219 L 135.683594 425.207031 L 289.496094 425.207031 L 289.496094 273.269531 L 279.242188 273.269531"/></g></g><g id="change3_1"><path fill="#bababf" d="M 258.730469 273.269531 L 135.683594 273.269531 L 135.683594 404.949219 L 156.1875 404.949219 L 156.1875 334.042969 L 166.441406 334.042969 L 166.441406 313.785156 L 176.699219 313.785156 L 176.699219 293.527344 L 268.988281 293.527344 L 268.988281 273.269531 L 258.730469 273.269531"/></g><g id="change1_1"><path fill="#8f939b" d="M 308.300781 232.75 L 110.039062 232.75 L 110.039062 273.269531 L 315.136719 273.269531 L 315.136719 232.75 L 308.300781 232.75"/></g><g id="change3_2"><path fill="#bababf" d="M 294.625 232.75 L 110.039062 232.75 L 110.039062 266.515625 L 123.714844 266.515625 L 123.714844 253.007812 L 144.21875 253.007812 L 144.21875 246.257812 L 164.730469 246.257812 L 164.730469 239.503906 L 301.460938 239.503906 L 301.460938 232.75 L 294.625 232.75"/></g><g id="change2_1"><path fill="#636670" d="M 308.300781 232.75 L 301.460938 232.75 L 301.460938 253.007812 L 260.441406 253.007812 L 260.441406 259.761719 L 212.589844 259.761719 L 212.589844 266.515625 L 110.039062 266.515625 L 110.039062 273.269531 L 315.136719 273.269531 L 315.136719 232.75 L 308.300781 232.75"/></g><g id="change4_1"><path fill="#46484e" d="M 268.988281 394.820312 L 135.683594 394.820312 L 135.683594 415.078125 L 289.496094 415.078125 L 289.496094 394.820312 L 268.988281 394.820312"/></g><g id="change4_2"><path fill="#46484e" d="M 279.242188 283.398438 L 135.683594 283.398438 L 135.683594 303.660156 L 289.496094 303.660156 L 289.496094 283.398438 L 279.242188 283.398438"/></g><g id="change5_1"><path fill="#f9a618" d="M 236.3125 167.039062 L 236.3125 159.570312 L 232.605469 159.570312 L 232.605469 155.839844 L 228.894531 155.839844 L 228.894531 152.105469 L 221.476562 152.105469 L 221.476562 148.375 L 202.929688 148.375 L 202.929688 152.105469 L 195.511719 152.105469 L 195.511719 155.839844 L 191.800781 155.839844 L 191.800781 159.570312 L 188.09375 159.570312 L 188.09375 167.039062 L 184.382812 167.039062 L 184.382812 185.695312 L 188.09375 185.695312 L 188.09375 193.160156 L 191.800781 193.160156 L 191.800781 196.894531 L 195.511719 196.894531 L 195.511719 200.628906 L 202.929688 200.628906 L 202.929688 204.363281 L 221.476562 204.363281 L 221.476562 200.628906 L 228.894531 200.628906 L 228.894531 196.894531 L 232.605469 196.894531 L 232.605469 193.160156 L 236.3125 193.160156 L 236.3125 185.695312 L 240.019531 185.695312 L 240.019531 167.039062 L 236.3125 167.039062"/></g><g id="change6_1"><path fill="#fdd820" d="M 228.894531 167.039062 L 228.894531 163.304688 L 225.1875 163.304688 L 225.1875 159.570312 L 221.476562 159.570312 L 221.476562 155.839844 L 202.929688 155.839844 L 202.929688 159.570312 L 199.222656 159.570312 L 199.222656 163.304688 L 195.511719 163.304688 L 195.511719 167.039062 L 191.800781 167.039062 L 191.800781 185.695312 L 195.511719 185.695312 L 195.511719 189.425781 L 199.222656 189.425781 L 199.222656 193.160156 L 202.929688 193.160156 L 202.929688 196.894531 L 221.476562 196.894531 L 221.476562 193.160156 L 225.1875 193.160156 L 225.1875 189.425781 L 228.894531 189.425781 L 228.894531 185.695312 L 232.605469 185.695312 L 232.605469 167.039062 L 228.894531 167.039062"/></g><g id="change7_1"><path fill="#ffffff" d="M 202.929688 159.570312 L 195.511719 159.570312 L 195.511719 170.769531 L 206.640625 170.769531 L 206.640625 159.570312 L 202.929688 159.570312"/></g><g id="change8_1"><path fill="#e18417" d="M 217.769531 170.800781 L 217.769531 167.070312 L 214.066406 167.070312 L 214.066406 163.371094 L 210.335938 163.371094 L 210.335938 167.070312 L 206.636719 167.070312 L 206.636719 178.265625 L 214.035156 178.265625 L 214.035156 181.933594 L 206.636719 181.933594 L 206.636719 185.664062 L 210.335938 185.664062 L 210.335938 189.363281 L 214.066406 189.363281 L 214.066406 185.664062 L 217.769531 185.664062 L 217.769531 174.535156 L 210.371094 174.535156 L 210.371094 170.800781 L 217.769531 170.800781"/></g><g id="change5_2"><path fill="#f9a618" d="M 236.3125 75.300781 L 236.3125 67.835938 L 232.605469 67.835938 L 232.605469 64.105469 L 228.894531 64.105469 L 228.894531 60.371094 L 221.476562 60.371094 L 221.476562 56.636719 L 202.929688 56.636719 L 202.929688 60.371094 L 195.511719 60.371094 L 195.511719 64.105469 L 191.800781 64.105469 L 191.800781 67.835938 L 188.09375 67.835938 L 188.09375 75.300781 L 184.382812 75.300781 L 184.382812 93.960938 L 188.09375 93.960938 L 188.09375 101.425781 L 191.800781 101.425781 L 191.800781 105.160156 L 195.511719 105.160156 L 195.511719 108.890625 L 202.929688 108.890625 L 202.929688 112.625 L 221.476562 112.625 L 221.476562 108.890625 L 228.894531 108.890625 L 228.894531 105.160156 L 232.605469 105.160156 L 232.605469 101.425781 L 236.3125 101.425781 L 236.3125 93.960938 L 240.019531 93.960938 L 240.019531 75.300781 L 236.3125 75.300781"/></g><g id="change6_2"><path fill="#fdd820" d="M 228.894531 75.300781 L 228.894531 71.566406 L 225.1875 71.566406 L 225.1875 67.835938 L 221.476562 67.835938 L 221.476562 64.105469 L 202.929688 64.105469 L 202.929688 67.835938 L 199.222656 67.835938 L 199.222656 71.566406 L 195.511719 71.566406 L 195.511719 75.300781 L 191.800781 75.300781 L 191.800781 93.960938 L 195.511719 93.960938 L 195.511719 97.691406 L 199.222656 97.691406 L 199.222656 101.425781 L 202.929688 101.425781 L 202.929688 105.160156 L 221.476562 105.160156 L 221.476562 101.425781 L 225.1875 101.425781 L 225.1875 97.691406 L 228.894531 97.691406 L 228.894531 93.960938 L 232.605469 93.960938 L 232.605469 75.300781 L 228.894531 75.300781"/></g><g id="change7_2"><path fill="#ffffff" d="M 202.929688 67.835938 L 195.511719 67.835938 L 195.511719 79.03125 L 206.640625 79.03125 L 206.640625 67.835938 L 202.929688 67.835938"/></g><g id="change8_2"><path fill="#e18417" d="M 217.769531 79.066406 L 217.769531 75.335938 L 214.066406 75.335938 L 214.066406 71.636719 L 210.335938 71.636719 L 210.335938 75.335938 L 206.636719 75.335938 L 206.636719 86.53125 L 214.035156 86.53125 L 214.035156 90.195312 L 206.636719 90.195312 L 206.636719 93.929688 L 210.335938 93.929688 L 210.335938 97.628906 L 214.066406 97.628906 L 214.066406 93.929688 L 217.769531 93.929688 L 217.769531 82.800781 L 210.371094 82.800781 L 210.371094 79.066406 L 217.769531 79.066406"/></g></g></svg>