<?xml version="1.0" encoding="UTF-8"?><svg xmlns="http://www.w3.org/2000/svg" xmlns:xlink="http://www.w3.org/1999/xlink" contentScriptType="text/ecmascript" fill="#000000" width="471.4" zoomAndPan="magnify" contentStyleType="text/css" viewBox="0.0 0.0 471.4 538.7" height="538.7" preserveAspectRatio="xMidYMid meet" version="1"><defs><clipPath id="a"><path d="M 437 370 L 471.421875 370 L 471.421875 405 L 437 405 Z M 437 370"/></clipPath><clipPath id="b"><path d="M 437 336 L 471.421875 336 L 471.421875 371 L 437 371 Z M 437 336"/></clipPath><clipPath id="c"><path d="M 437 302 L 471.421875 302 L 471.421875 337 L 437 337 Z M 437 302"/></clipPath><clipPath id="d"><path d="M 437 269 L 471.421875 269 L 471.421875 303 L 437 303 Z M 437 269"/></clipPath><clipPath id="e"><path d="M 437 235 L 471.421875 235 L 471.421875 270 L 437 270 Z M 437 235"/></clipPath><clipPath id="f"><path d="M 437 201 L 471.421875 201 L 471.421875 236 L 437 236 Z M 437 201"/></clipPath><clipPath id="g"><path d="M 437 168 L 471.421875 168 L 471.421875 202 L 437 202 Z M 437 168"/></clipPath><clipPath id="h"><path d="M 437 134 L 471.421875 134 L 471.421875 169 L 437 169 Z M 437 134"/></clipPath><clipPath id="i"><path d="M 336 505 L 371 505 L 371 538.699219 L 336 538.699219 Z M 336 505"/></clipPath><clipPath id="j"><path d="M 303 505 L 337 505 L 337 538.699219 L 303 538.699219 Z M 303 505"/></clipPath><clipPath id="k"><path d="M 269 505 L 303 505 L 303 538.699219 L 269 538.699219 Z M 269 505"/></clipPath><clipPath id="l"><path d="M 235 505 L 270 505 L 270 538.699219 L 235 538.699219 Z M 235 505"/></clipPath><clipPath id="m"><path d="M 201 505 L 236 505 L 236 538.699219 L 201 538.699219 Z M 201 505"/></clipPath><clipPath id="n"><path d="M 168 505 L 202 505 L 202 538.699219 L 168 538.699219 Z M 168 505"/></clipPath><clipPath id="o"><path d="M 134 505 L 169 505 L 169 538.699219 L 134 538.699219 Z M 134 505"/></clipPath><clipPath id="p"><path d="M 101 505 L 135 505 L 135 538.699219 L 101 538.699219 Z M 101 505"/></clipPath></defs><g><g id="change1_1" clip-path="url(#a)"><path fill="#702412" d="M 471.414062 370.382812 L 471.414062 404.027344 L 437.679688 404.027344 L 437.679688 370.382812 L 471.414062 370.382812"/></g><g id="change2_1" clip-path="url(#b)"><path fill="#c74424" d="M 471.414062 336.738281 L 471.414062 370.382812 L 437.679688 370.382812 L 437.679688 336.738281 L 471.414062 336.738281"/></g><g id="change2_40" clip-path="url(#c)"><path fill="#c74424" d="M 471.414062 302.992188 L 471.414062 336.738281 L 437.679688 336.738281 L 437.679688 302.992188 L 471.414062 302.992188"/></g><g id="change3_7" clip-path="url(#d)"><path fill="#ed7239" d="M 471.414062 269.355469 L 471.414062 302.992188 L 437.679688 302.992188 L 437.679688 269.355469 L 471.414062 269.355469"/></g><g id="change2_38" clip-path="url(#e)"><path fill="#c74424" d="M 471.414062 235.710938 L 471.414062 269.355469 L 437.679688 269.355469 L 437.679688 235.710938 L 471.414062 235.710938"/></g><g id="change3_8" clip-path="url(#f)"><path fill="#ed7239" d="M 471.414062 201.964844 L 471.414062 235.710938 L 437.679688 235.710938 L 437.679688 201.964844 L 471.414062 201.964844"/></g><g id="change3_1" clip-path="url(#g)"><path fill="#ed7239" d="M 471.414062 168.320312 L 471.414062 201.964844 L 437.679688 201.964844 L 437.679688 168.320312 L 471.414062 168.320312"/></g><g id="change2_37" clip-path="url(#h)"><path fill="#c74424" d="M 471.414062 134.675781 L 471.414062 168.320312 L 437.679688 168.320312 L 437.679688 134.675781 L 471.414062 134.675781"/></g><g id="change1_2"><path fill="#702412" d="M 437.679688 437.671875 L 437.679688 471.417969 L 404.027344 471.417969 L 404.027344 437.671875 L 437.679688 437.671875"/></g><g id="change2_2"><path fill="#c74424" d="M 437.679688 404.027344 L 437.679688 437.671875 L 404.027344 437.671875 L 404.027344 404.027344 L 437.679688 404.027344"/></g><g id="change2_3"><path fill="#c74424" d="M 437.679688 370.382812 L 437.679688 404.027344 L 404.027344 404.027344 L 404.027344 370.382812 L 437.679688 370.382812"/></g><g id="change2_4"><path fill="#c74424" d="M 437.679688 336.738281 L 437.679688 370.382812 L 404.027344 370.382812 L 404.027344 336.738281 L 437.679688 336.738281"/></g><g id="change2_5"><path fill="#c74424" d="M 437.679688 302.992188 L 437.679688 336.738281 L 404.027344 336.738281 L 404.027344 302.992188 L 437.679688 302.992188"/></g><g id="change3_2"><path fill="#ed7239" d="M 437.679688 269.355469 L 437.679688 302.992188 L 404.027344 302.992188 L 404.027344 269.355469 L 437.679688 269.355469"/></g><g id="change2_6"><path fill="#c74424" d="M 437.679688 235.710938 L 437.679688 269.355469 L 404.027344 269.355469 L 404.027344 235.710938 L 437.679688 235.710938"/></g><g id="change3_3"><path fill="#ed7239" d="M 437.679688 201.964844 L 437.679688 235.710938 L 404.027344 235.710938 L 404.027344 201.964844 L 437.679688 201.964844"/></g><g id="change3_4"><path fill="#ed7239" d="M 437.679688 168.320312 L 437.679688 201.964844 L 404.027344 201.964844 L 404.027344 168.320312 L 437.679688 168.320312"/></g><g id="change2_7"><path fill="#c74424" d="M 437.679688 134.675781 L 437.679688 168.320312 L 404.027344 168.320312 L 404.027344 134.675781 L 437.679688 134.675781"/></g><g id="change2_8"><path fill="#c74424" d="M 437.679688 101.027344 L 437.679688 134.675781 L 404.027344 134.675781 L 404.027344 101.027344 L 437.679688 101.027344"/></g><g id="change3_5"><path fill="#ed7239" d="M 437.679688 67.285156 L 437.679688 101.027344 L 404.027344 101.027344 L 404.027344 67.285156 L 437.679688 67.285156"/></g><g id="change1_3"><path fill="#702412" d="M 404.027344 471.417969 L 404.027344 505.054688 L 370.390625 505.054688 L 370.390625 471.417969 L 404.027344 471.417969"/></g><g id="change2_9"><path fill="#c74424" d="M 404.027344 437.671875 L 404.027344 471.417969 L 370.390625 471.417969 L 370.390625 437.671875 L 404.027344 437.671875"/></g><g id="change2_10"><path fill="#c74424" d="M 404.027344 404.027344 L 404.027344 437.671875 L 370.390625 437.671875 L 370.390625 404.027344 L 404.027344 404.027344"/></g><g id="change4_1"><path fill="#fee670" d="M 404.027344 370.382812 L 404.027344 404.027344 L 370.390625 404.027344 L 370.390625 370.382812 L 404.027344 370.382812"/></g><g id="change4_2"><path fill="#fee670" d="M 404.027344 336.738281 L 404.027344 370.382812 L 370.390625 370.382812 L 370.390625 336.738281 L 404.027344 336.738281"/></g><g id="change4_3"><path fill="#fee670" d="M 404.027344 302.992188 L 404.027344 336.738281 L 370.390625 336.738281 L 370.390625 302.992188 L 404.027344 302.992188"/></g><g id="change4_4"><path fill="#fee670" d="M 404.027344 269.355469 L 404.027344 302.992188 L 370.390625 302.992188 L 370.390625 269.355469 L 404.027344 269.355469"/></g><g id="change4_5"><path fill="#fee670" d="M 404.027344 235.710938 L 404.027344 269.355469 L 370.390625 269.355469 L 370.390625 235.710938 L 404.027344 235.710938"/></g><g id="change4_6"><path fill="#fee670" d="M 404.027344 201.964844 L 404.027344 235.710938 L 370.390625 235.710938 L 370.390625 201.964844 L 404.027344 201.964844"/></g><g id="change4_7"><path fill="#fee670" d="M 404.027344 168.320312 L 404.027344 201.964844 L 370.390625 201.964844 L 370.390625 168.320312 L 404.027344 168.320312"/></g><g id="change4_8"><path fill="#fee670" d="M 404.027344 134.675781 L 404.027344 168.320312 L 370.390625 168.320312 L 370.390625 134.675781 L 404.027344 134.675781"/></g><g id="change2_11"><path fill="#c74424" d="M 404.027344 101.027344 L 404.027344 134.675781 L 370.390625 134.675781 L 370.390625 101.027344 L 404.027344 101.027344"/></g><g id="change3_6"><path fill="#ed7239" d="M 404.027344 67.285156 L 404.027344 101.027344 L 370.390625 101.027344 L 370.390625 67.285156 L 404.027344 67.285156"/></g><g id="change2_12"><path fill="#c74424" d="M 404.027344 33.648438 L 404.027344 67.285156 L 370.390625 67.285156 L 370.390625 33.648438 L 404.027344 33.648438"/></g><g id="change1_4" clip-path="url(#i)"><path fill="#702412" d="M 370.390625 505.054688 L 370.390625 538.699219 L 336.636719 538.699219 L 336.636719 505.054688 L 370.390625 505.054688"/></g><g id="change2_13"><path fill="#c74424" d="M 370.390625 471.417969 L 370.390625 505.054688 L 336.636719 505.054688 L 336.636719 471.417969 L 370.390625 471.417969"/></g><g id="change4_9"><path fill="#fee670" d="M 370.390625 437.671875 L 370.390625 471.417969 L 336.636719 471.417969 L 336.636719 437.671875 L 370.390625 437.671875"/></g><g id="change4_10"><path fill="#fee670" d="M 370.390625 404.027344 L 370.390625 437.671875 L 336.636719 437.671875 L 336.636719 404.027344 L 370.390625 404.027344"/></g><g id="change5_1"><path fill="#fec447" d="M 370.390625 370.382812 L 370.390625 404.027344 L 336.636719 404.027344 L 336.636719 370.382812 L 370.390625 370.382812"/></g><g id="change6_1"><path fill="#fea52a" d="M 370.390625 336.738281 L 370.390625 370.382812 L 336.636719 370.382812 L 336.636719 336.738281 L 370.390625 336.738281"/></g><g id="change6_2"><path fill="#fea52a" d="M 370.390625 302.992188 L 370.390625 336.738281 L 336.636719 336.738281 L 336.636719 302.992188 L 370.390625 302.992188"/></g><g id="change6_3"><path fill="#fea52a" d="M 370.390625 269.355469 L 370.390625 302.992188 L 336.636719 302.992188 L 336.636719 269.355469 L 370.390625 269.355469"/></g><g id="change5_2"><path fill="#fec447" d="M 370.390625 235.710938 L 370.390625 269.355469 L 336.636719 269.355469 L 336.636719 235.710938 L 370.390625 235.710938"/></g><g id="change5_3"><path fill="#fec447" d="M 370.390625 201.964844 L 370.390625 235.710938 L 336.636719 235.710938 L 336.636719 201.964844 L 370.390625 201.964844"/></g><g id="change6_4"><path fill="#fea52a" d="M 370.390625 168.320312 L 370.390625 201.964844 L 336.636719 201.964844 L 336.636719 168.320312 L 370.390625 168.320312"/></g><g id="change5_4"><path fill="#fec447" d="M 370.390625 134.675781 L 370.390625 168.320312 L 336.636719 168.320312 L 336.636719 134.675781 L 370.390625 134.675781"/></g><g id="change4_11"><path fill="#fee670" d="M 370.390625 101.027344 L 370.390625 134.675781 L 336.636719 134.675781 L 336.636719 101.027344 L 370.390625 101.027344"/></g><g id="change4_12"><path fill="#fee670" d="M 370.390625 67.285156 L 370.390625 101.027344 L 336.636719 101.027344 L 336.636719 67.285156 L 370.390625 67.285156"/></g><g id="change2_14"><path fill="#c74424" d="M 370.390625 33.648438 L 370.390625 67.285156 L 336.636719 67.285156 L 336.636719 33.648438 L 370.390625 33.648438"/></g><g id="change2_15"><path fill="#c74424" d="M 370.390625 0.00390625 L 370.390625 33.648438 L 336.636719 33.648438 L 336.636719 0.00390625 L 370.390625 0.00390625"/></g><g id="change2_39" clip-path="url(#j)"><path fill="#c74424" d="M 336.636719 505.054688 L 336.636719 538.699219 L 303 538.699219 L 303 505.054688 L 336.636719 505.054688"/></g><g id="change4_13"><path fill="#fee670" d="M 336.636719 471.417969 L 336.636719 505.054688 L 303 505.054688 L 303 471.417969 L 336.636719 471.417969"/></g><g id="change5_5"><path fill="#fec447" d="M 336.636719 437.671875 L 336.636719 471.417969 L 303 471.417969 L 303 437.671875 L 336.636719 437.671875"/></g><g id="change6_5"><path fill="#fea52a" d="M 336.636719 404.027344 L 336.636719 437.671875 L 303 437.671875 L 303 404.027344 L 336.636719 404.027344"/></g><g id="change6_6"><path fill="#fea52a" d="M 336.636719 370.382812 L 336.636719 404.027344 L 303 404.027344 L 303 370.382812 L 336.636719 370.382812"/></g><g id="change6_7"><path fill="#fea52a" d="M 336.636719 336.738281 L 336.636719 370.382812 L 303 370.382812 L 303 336.738281 L 336.636719 336.738281"/></g><g id="change5_6"><path fill="#fec447" d="M 336.636719 302.992188 L 336.636719 336.738281 L 303 336.738281 L 303 302.992188 L 336.636719 302.992188"/></g><g id="change5_7"><path fill="#fec447" d="M 336.636719 269.355469 L 336.636719 302.992188 L 303 302.992188 L 303 269.355469 L 336.636719 269.355469"/></g><g id="change6_8"><path fill="#fea52a" d="M 336.636719 235.710938 L 336.636719 269.355469 L 303 269.355469 L 303 235.710938 L 336.636719 235.710938"/></g><g id="change6_9"><path fill="#fea52a" d="M 336.636719 201.964844 L 336.636719 235.710938 L 303 235.710938 L 303 201.964844 L 336.636719 201.964844"/></g><g id="change6_10"><path fill="#fea52a" d="M 336.636719 168.320312 L 336.636719 201.964844 L 303 201.964844 L 303 168.320312 L 336.636719 168.320312"/></g><g id="change6_11"><path fill="#fea52a" d="M 336.636719 134.675781 L 336.636719 168.320312 L 303 168.320312 L 303 134.675781 L 336.636719 134.675781"/></g><g id="change5_8"><path fill="#fec447" d="M 336.636719 101.027344 L 336.636719 134.675781 L 303 134.675781 L 303 101.027344 L 336.636719 101.027344"/></g><g id="change6_12"><path fill="#fea52a" d="M 336.636719 67.285156 L 336.636719 101.027344 L 303 101.027344 L 303 67.285156 L 336.636719 67.285156"/></g><g id="change4_14"><path fill="#fee670" d="M 336.636719 33.648438 L 336.636719 67.285156 L 303 67.285156 L 303 33.648438 L 336.636719 33.648438"/></g><g id="change2_16"><path fill="#c74424" d="M 336.636719 0.00390625 L 336.636719 33.648438 L 303 33.648438 L 303 0.00390625 L 336.636719 0.00390625"/></g><g id="change4_26" clip-path="url(#k)"><path fill="#fee670" d="M 303 505.054688 L 303 538.699219 L 269.359375 538.699219 L 269.359375 505.054688 L 303 505.054688"/></g><g id="change5_9"><path fill="#fec447" d="M 303 471.417969 L 303 505.054688 L 269.359375 505.054688 L 269.359375 471.417969 L 303 471.417969"/></g><g id="change6_13"><path fill="#fea52a" d="M 303 437.671875 L 303 471.417969 L 269.359375 471.417969 L 269.359375 437.671875 L 303 437.671875"/></g><g id="change6_14"><path fill="#fea52a" d="M 303 404.027344 L 303 437.671875 L 269.359375 437.671875 L 269.359375 404.027344 L 303 404.027344"/></g><g id="change5_10"><path fill="#fec447" d="M 303 370.382812 L 303 404.027344 L 269.359375 404.027344 L 269.359375 370.382812 L 303 370.382812"/></g><g id="change5_11"><path fill="#fec447" d="M 303 336.738281 L 303 370.382812 L 269.359375 370.382812 L 269.359375 336.738281 L 303 336.738281"/></g><g id="change6_15"><path fill="#fea52a" d="M 303 302.992188 L 303 336.738281 L 269.359375 336.738281 L 269.359375 302.992188 L 303 302.992188"/></g><g id="change6_16"><path fill="#fea52a" d="M 303 269.355469 L 303 302.992188 L 269.359375 302.992188 L 269.359375 269.355469 L 303 269.355469"/></g><g id="change6_17"><path fill="#fea52a" d="M 303 235.710938 L 303 269.355469 L 269.359375 269.355469 L 269.359375 235.710938 L 303 235.710938"/></g><g id="change6_18"><path fill="#fea52a" d="M 303 201.964844 L 303 235.710938 L 269.359375 235.710938 L 269.359375 201.964844 L 303 201.964844"/></g><g id="change5_12"><path fill="#fec447" d="M 303 168.320312 L 303 201.964844 L 269.359375 201.964844 L 269.359375 168.320312 L 303 168.320312"/></g><g id="change5_13"><path fill="#fec447" d="M 303 134.675781 L 303 168.320312 L 269.359375 168.320312 L 269.359375 134.675781 L 303 134.675781"/></g><g id="change4_15"><path fill="#fee670" d="M 303 101.027344 L 303 134.675781 L 269.359375 134.675781 L 269.359375 101.027344 L 303 101.027344"/></g><g id="change2_17"><path fill="#c74424" d="M 303 67.285156 L 303 101.027344 L 269.359375 101.027344 L 269.359375 67.285156 L 303 67.285156"/></g><g id="change5_14"><path fill="#fec447" d="M 303 33.648438 L 303 67.285156 L 269.359375 67.285156 L 269.359375 33.648438 L 303 33.648438"/></g><g id="change4_16"><path fill="#fee670" d="M 303 0.00390625 L 303 33.648438 L 269.359375 33.648438 L 269.359375 0.00390625 L 303 0.00390625"/></g><g id="change5_45" clip-path="url(#l)"><path fill="#fec447" d="M 269.359375 505.054688 L 269.359375 538.699219 L 235.707031 538.699219 L 235.707031 505.054688 L 269.359375 505.054688"/></g><g id="change6_19"><path fill="#fea52a" d="M 269.359375 471.417969 L 269.359375 505.054688 L 235.707031 505.054688 L 235.707031 471.417969 L 269.359375 471.417969"/></g><g id="change5_15"><path fill="#fec447" d="M 269.359375 437.671875 L 269.359375 471.417969 L 235.707031 471.417969 L 235.707031 437.671875 L 269.359375 437.671875"/></g><g id="change5_16"><path fill="#fec447" d="M 269.359375 404.027344 L 269.359375 437.671875 L 235.707031 437.671875 L 235.707031 404.027344 L 269.359375 404.027344"/></g><g id="change6_20"><path fill="#fea52a" d="M 269.359375 370.382812 L 269.359375 404.027344 L 235.707031 404.027344 L 235.707031 370.382812 L 269.359375 370.382812"/></g><g id="change6_21"><path fill="#fea52a" d="M 269.359375 336.738281 L 269.359375 370.382812 L 235.707031 370.382812 L 235.707031 336.738281 L 269.359375 336.738281"/></g><g id="change6_22"><path fill="#fea52a" d="M 269.359375 302.992188 L 269.359375 336.738281 L 235.707031 336.738281 L 235.707031 302.992188 L 269.359375 302.992188"/></g><g id="change6_23"><path fill="#fea52a" d="M 269.359375 269.355469 L 269.359375 302.992188 L 235.707031 302.992188 L 235.707031 269.355469 L 269.359375 269.355469"/></g><g id="change5_17"><path fill="#fec447" d="M 269.359375 235.710938 L 269.359375 269.355469 L 235.707031 269.355469 L 235.707031 235.710938 L 269.359375 235.710938"/></g><g id="change5_18"><path fill="#fec447" d="M 269.359375 201.964844 L 269.359375 235.710938 L 235.707031 235.710938 L 235.707031 201.964844 L 269.359375 201.964844"/></g><g id="change4_17"><path fill="#fee670" d="M 269.359375 168.320312 L 269.359375 201.964844 L 235.707031 201.964844 L 235.707031 168.320312 L 269.359375 168.320312"/></g><g id="change4_18"><path fill="#fee670" d="M 269.359375 134.675781 L 269.359375 168.320312 L 235.707031 168.320312 L 235.707031 134.675781 L 269.359375 134.675781"/></g><g id="change5_19"><path fill="#fec447" d="M 269.359375 101.027344 L 269.359375 134.675781 L 235.707031 134.675781 L 235.707031 101.027344 L 269.359375 101.027344"/></g><g id="change6_24"><path fill="#fea52a" d="M 269.359375 67.285156 L 269.359375 101.027344 L 235.707031 101.027344 L 235.707031 67.285156 L 269.359375 67.285156"/></g><g id="change2_18"><path fill="#c74424" d="M 269.359375 33.648438 L 269.359375 67.285156 L 235.707031 67.285156 L 235.707031 33.648438 L 269.359375 33.648438"/></g><g id="change5_20"><path fill="#fec447" d="M 269.359375 0.00390625 L 269.359375 33.648438 L 235.707031 33.648438 L 235.707031 0.00390625 L 269.359375 0.00390625"/></g><g id="change6_71" clip-path="url(#m)"><path fill="#fea52a" d="M 235.707031 505.054688 L 235.707031 538.699219 L 201.972656 538.699219 L 201.972656 505.054688 L 235.707031 505.054688"/></g><g id="change2_19"><path fill="#c74424" d="M 235.707031 471.417969 L 235.707031 505.054688 L 201.972656 505.054688 L 201.972656 471.417969 L 235.707031 471.417969"/></g><g id="change6_25"><path fill="#fea52a" d="M 235.707031 437.671875 L 235.707031 471.417969 L 201.972656 471.417969 L 201.972656 437.671875 L 235.707031 437.671875"/></g><g id="change6_26"><path fill="#fea52a" d="M 235.707031 404.027344 L 235.707031 437.671875 L 201.972656 437.671875 L 201.972656 404.027344 L 235.707031 404.027344"/></g><g id="change6_27"><path fill="#fea52a" d="M 235.707031 370.382812 L 235.707031 404.027344 L 201.972656 404.027344 L 201.972656 370.382812 L 235.707031 370.382812"/></g><g id="change6_28"><path fill="#fea52a" d="M 235.707031 336.738281 L 235.707031 370.382812 L 201.972656 370.382812 L 201.972656 336.738281 L 235.707031 336.738281"/></g><g id="change5_21"><path fill="#fec447" d="M 235.707031 302.992188 L 235.707031 336.738281 L 201.972656 336.738281 L 201.972656 302.992188 L 235.707031 302.992188"/></g><g id="change5_22"><path fill="#fec447" d="M 235.707031 269.355469 L 235.707031 302.992188 L 201.972656 302.992188 L 201.972656 269.355469 L 235.707031 269.355469"/></g><g id="change4_19"><path fill="#fee670" d="M 235.707031 235.710938 L 235.707031 269.355469 L 201.972656 269.355469 L 201.972656 235.710938 L 235.707031 235.710938"/></g><g id="change4_20"><path fill="#fee670" d="M 235.707031 201.964844 L 235.707031 235.710938 L 201.972656 235.710938 L 201.972656 201.964844 L 235.707031 201.964844"/></g><g id="change5_23"><path fill="#fec447" d="M 235.707031 168.320312 L 235.707031 201.964844 L 201.972656 201.964844 L 201.972656 168.320312 L 235.707031 168.320312"/></g><g id="change5_24"><path fill="#fec447" d="M 235.707031 134.675781 L 235.707031 168.320312 L 201.972656 168.320312 L 201.972656 134.675781 L 235.707031 134.675781"/></g><g id="change6_29"><path fill="#fea52a" d="M 235.707031 101.027344 L 235.707031 134.675781 L 201.972656 134.675781 L 201.972656 101.027344 L 235.707031 101.027344"/></g><g id="change6_30"><path fill="#fea52a" d="M 235.707031 67.285156 L 235.707031 101.027344 L 201.972656 101.027344 L 201.972656 67.285156 L 235.707031 67.285156"/></g><g id="change2_20"><path fill="#c74424" d="M 235.707031 33.648438 L 235.707031 67.285156 L 201.972656 67.285156 L 201.972656 33.648438 L 235.707031 33.648438"/></g><g id="change6_31"><path fill="#fea52a" d="M 235.707031 0.00390625 L 235.707031 33.648438 L 201.972656 33.648438 L 201.972656 0.00390625 L 235.707031 0.00390625"/></g><g id="change6_72" clip-path="url(#n)"><path fill="#fea52a" d="M 201.972656 505.054688 L 201.972656 538.699219 L 168.316406 538.699219 L 168.316406 505.054688 L 201.972656 505.054688"/></g><g id="change2_21"><path fill="#c74424" d="M 201.972656 471.417969 L 201.972656 505.054688 L 168.316406 505.054688 L 168.316406 471.417969 L 201.972656 471.417969"/></g><g id="change6_32"><path fill="#fea52a" d="M 201.972656 437.671875 L 201.972656 471.417969 L 168.316406 471.417969 L 168.316406 437.671875 L 201.972656 437.671875"/></g><g id="change6_33"><path fill="#fea52a" d="M 201.972656 404.027344 L 201.972656 437.671875 L 168.316406 437.671875 L 168.316406 404.027344 L 201.972656 404.027344"/></g><g id="change5_25"><path fill="#fec447" d="M 201.972656 370.382812 L 201.972656 404.027344 L 168.316406 404.027344 L 168.316406 370.382812 L 201.972656 370.382812"/></g><g id="change5_26"><path fill="#fec447" d="M 201.972656 336.738281 L 201.972656 370.382812 L 168.316406 370.382812 L 168.316406 336.738281 L 201.972656 336.738281"/></g><g id="change4_21"><path fill="#fee670" d="M 201.972656 302.992188 L 201.972656 336.738281 L 168.316406 336.738281 L 168.316406 302.992188 L 201.972656 302.992188"/></g><g id="change4_22"><path fill="#fee670" d="M 201.972656 269.355469 L 201.972656 302.992188 L 168.316406 302.992188 L 168.316406 269.355469 L 201.972656 269.355469"/></g><g id="change5_27"><path fill="#fec447" d="M 201.972656 235.710938 L 201.972656 269.355469 L 168.316406 269.355469 L 168.316406 235.710938 L 201.972656 235.710938"/></g><g id="change5_28"><path fill="#fec447" d="M 201.972656 201.964844 L 201.972656 235.710938 L 168.316406 235.710938 L 168.316406 201.964844 L 201.972656 201.964844"/></g><g id="change6_34"><path fill="#fea52a" d="M 201.972656 168.320312 L 201.972656 201.964844 L 168.316406 201.964844 L 168.316406 168.320312 L 201.972656 168.320312"/></g><g id="change6_35"><path fill="#fea52a" d="M 201.972656 134.675781 L 201.972656 168.320312 L 168.316406 168.320312 L 168.316406 134.675781 L 201.972656 134.675781"/></g><g id="change6_36"><path fill="#fea52a" d="M 201.972656 101.027344 L 201.972656 134.675781 L 168.316406 134.675781 L 168.316406 101.027344 L 201.972656 101.027344"/></g><g id="change6_37"><path fill="#fea52a" d="M 201.972656 67.285156 L 201.972656 101.027344 L 168.316406 101.027344 L 168.316406 67.285156 L 201.972656 67.285156"/></g><g id="change2_22"><path fill="#c74424" d="M 201.972656 33.648438 L 201.972656 67.285156 L 168.316406 67.285156 L 168.316406 33.648438 L 201.972656 33.648438"/></g><g id="change6_38"><path fill="#fea52a" d="M 201.972656 0.00390625 L 201.972656 33.648438 L 168.316406 33.648438 L 168.316406 0.00390625 L 201.972656 0.00390625"/></g><g id="change6_70" clip-path="url(#o)"><path fill="#fea52a" d="M 168.316406 505.054688 L 168.316406 538.699219 L 134.679688 538.699219 L 134.679688 505.054688 L 168.316406 505.054688"/></g><g id="change2_23"><path fill="#c74424" d="M 168.316406 471.417969 L 168.316406 505.054688 L 134.679688 505.054688 L 134.679688 471.417969 L 168.316406 471.417969"/></g><g id="change5_29"><path fill="#fec447" d="M 168.316406 437.671875 L 168.316406 471.417969 L 134.679688 471.417969 L 134.679688 437.671875 L 168.316406 437.671875"/></g><g id="change5_30"><path fill="#fec447" d="M 168.316406 404.027344 L 168.316406 437.671875 L 134.679688 437.671875 L 134.679688 404.027344 L 168.316406 404.027344"/></g><g id="change4_23"><path fill="#fee670" d="M 168.316406 370.382812 L 168.316406 404.027344 L 134.679688 404.027344 L 134.679688 370.382812 L 168.316406 370.382812"/></g><g id="change4_24"><path fill="#fee670" d="M 168.316406 336.738281 L 168.316406 370.382812 L 134.679688 370.382812 L 134.679688 336.738281 L 168.316406 336.738281"/></g><g id="change5_31"><path fill="#fec447" d="M 168.316406 302.992188 L 168.316406 336.738281 L 134.679688 336.738281 L 134.679688 302.992188 L 168.316406 302.992188"/></g><g id="change5_32"><path fill="#fec447" d="M 168.316406 269.355469 L 168.316406 302.992188 L 134.679688 302.992188 L 134.679688 269.355469 L 168.316406 269.355469"/></g><g id="change6_39"><path fill="#fea52a" d="M 168.316406 235.710938 L 168.316406 269.355469 L 134.679688 269.355469 L 134.679688 235.710938 L 168.316406 235.710938"/></g><g id="change6_40"><path fill="#fea52a" d="M 168.316406 201.964844 L 168.316406 235.710938 L 134.679688 235.710938 L 134.679688 201.964844 L 168.316406 201.964844"/></g><g id="change6_41"><path fill="#fea52a" d="M 168.316406 168.320312 L 168.316406 201.964844 L 134.679688 201.964844 L 134.679688 168.320312 L 168.316406 168.320312"/></g><g id="change6_42"><path fill="#fea52a" d="M 168.316406 134.675781 L 168.316406 168.320312 L 134.679688 168.320312 L 134.679688 134.675781 L 168.316406 134.675781"/></g><g id="change5_33"><path fill="#fec447" d="M 168.316406 101.027344 L 168.316406 134.675781 L 134.679688 134.675781 L 134.679688 101.027344 L 168.316406 101.027344"/></g><g id="change5_34"><path fill="#fec447" d="M 168.316406 67.285156 L 168.316406 101.027344 L 134.679688 101.027344 L 134.679688 67.285156 L 168.316406 67.285156"/></g><g id="change2_24"><path fill="#c74424" d="M 168.316406 33.648438 L 168.316406 67.285156 L 134.679688 67.285156 L 134.679688 33.648438 L 168.316406 33.648438"/></g><g id="change6_43"><path fill="#fea52a" d="M 168.316406 0.00390625 L 168.316406 33.648438 L 134.679688 33.648438 L 134.679688 0.00390625 L 168.316406 0.00390625"/></g><g id="change6_73" clip-path="url(#p)"><path fill="#fea52a" d="M 134.679688 505.054688 L 134.679688 538.699219 L 101.035156 538.699219 L 101.035156 505.054688 L 134.679688 505.054688"/></g><g id="change6_44"><path fill="#fea52a" d="M 134.679688 471.417969 L 134.679688 505.054688 L 101.035156 505.054688 L 101.035156 471.417969 L 134.679688 471.417969"/></g><g id="change2_25"><path fill="#c74424" d="M 134.679688 437.671875 L 134.679688 471.417969 L 101.035156 471.417969 L 101.035156 437.671875 L 134.679688 437.671875"/></g><g id="change4_25"><path fill="#fee670" d="M 134.679688 404.027344 L 134.679688 437.671875 L 101.035156 437.671875 L 101.035156 404.027344 L 134.679688 404.027344"/></g><g id="change5_35"><path fill="#fec447" d="M 134.679688 370.382812 L 134.679688 404.027344 L 101.035156 404.027344 L 101.035156 370.382812 L 134.679688 370.382812"/></g><g id="change5_36"><path fill="#fec447" d="M 134.679688 336.738281 L 134.679688 370.382812 L 101.035156 370.382812 L 101.035156 336.738281 L 134.679688 336.738281"/></g><g id="change6_45"><path fill="#fea52a" d="M 134.679688 302.992188 L 134.679688 336.738281 L 101.035156 336.738281 L 101.035156 302.992188 L 134.679688 302.992188"/></g><g id="change6_46"><path fill="#fea52a" d="M 134.679688 269.355469 L 134.679688 302.992188 L 101.035156 302.992188 L 101.035156 269.355469 L 134.679688 269.355469"/></g><g id="change6_47"><path fill="#fea52a" d="M 134.679688 235.710938 L 134.679688 269.355469 L 101.035156 269.355469 L 101.035156 235.710938 L 134.679688 235.710938"/></g><g id="change6_48"><path fill="#fea52a" d="M 134.679688 201.964844 L 134.679688 235.710938 L 101.035156 235.710938 L 101.035156 201.964844 L 134.679688 201.964844"/></g><g id="change5_37"><path fill="#fec447" d="M 134.679688 168.320312 L 134.679688 201.964844 L 101.035156 201.964844 L 101.035156 168.320312 L 134.679688 168.320312"/></g><g id="change5_38"><path fill="#fec447" d="M 134.679688 134.675781 L 134.679688 168.320312 L 101.035156 168.320312 L 101.035156 134.675781 L 134.679688 134.675781"/></g><g id="change6_49"><path fill="#fea52a" d="M 134.679688 101.027344 L 134.679688 134.675781 L 101.035156 134.675781 L 101.035156 101.027344 L 134.679688 101.027344"/></g><g id="change2_26"><path fill="#c74424" d="M 134.679688 67.285156 L 134.679688 101.027344 L 101.035156 101.027344 L 101.035156 67.285156 L 134.679688 67.285156"/></g><g id="change6_50"><path fill="#fea52a" d="M 134.679688 33.648438 L 134.679688 67.285156 L 101.035156 67.285156 L 101.035156 33.648438 L 134.679688 33.648438"/></g><g id="change5_39"><path fill="#fec447" d="M 134.679688 0.00390625 L 134.679688 33.648438 L 101.035156 33.648438 L 101.035156 0.00390625 L 134.679688 0.00390625"/></g><g id="change6_51"><path fill="#fea52a" d="M 101.035156 471.417969 L 101.035156 505.054688 L 67.289062 505.054688 L 67.289062 471.417969 L 101.035156 471.417969"/></g><g id="change6_52"><path fill="#fea52a" d="M 101.035156 437.671875 L 101.035156 471.417969 L 67.289062 471.417969 L 67.289062 437.671875 L 101.035156 437.671875"/></g><g id="change2_27"><path fill="#c74424" d="M 101.035156 404.027344 L 101.035156 437.671875 L 67.289062 437.671875 L 67.289062 404.027344 L 101.035156 404.027344"/></g><g id="change2_28"><path fill="#c74424" d="M 101.035156 370.382812 L 101.035156 404.027344 L 67.289062 404.027344 L 67.289062 370.382812 L 101.035156 370.382812"/></g><g id="change6_53"><path fill="#fea52a" d="M 101.035156 336.738281 L 101.035156 370.382812 L 67.289062 370.382812 L 67.289062 336.738281 L 101.035156 336.738281"/></g><g id="change6_54"><path fill="#fea52a" d="M 101.035156 302.992188 L 101.035156 336.738281 L 67.289062 336.738281 L 67.289062 302.992188 L 101.035156 302.992188"/></g><g id="change6_55"><path fill="#fea52a" d="M 101.035156 269.355469 L 101.035156 302.992188 L 67.289062 302.992188 L 67.289062 269.355469 L 101.035156 269.355469"/></g><g id="change5_40"><path fill="#fec447" d="M 101.035156 235.710938 L 101.035156 269.355469 L 67.289062 269.355469 L 67.289062 235.710938 L 101.035156 235.710938"/></g><g id="change5_41"><path fill="#fec447" d="M 101.035156 201.964844 L 101.035156 235.710938 L 67.289062 235.710938 L 67.289062 201.964844 L 101.035156 201.964844"/></g><g id="change6_56"><path fill="#fea52a" d="M 101.035156 168.320312 L 101.035156 201.964844 L 67.289062 201.964844 L 67.289062 168.320312 L 101.035156 168.320312"/></g><g id="change2_29"><path fill="#c74424" d="M 101.035156 134.675781 L 101.035156 168.320312 L 67.289062 168.320312 L 67.289062 134.675781 L 101.035156 134.675781"/></g><g id="change2_30"><path fill="#c74424" d="M 101.035156 101.027344 L 101.035156 134.675781 L 67.289062 134.675781 L 67.289062 101.027344 L 101.035156 101.027344"/></g><g id="change6_57"><path fill="#fea52a" d="M 101.035156 67.285156 L 101.035156 101.027344 L 67.289062 101.027344 L 67.289062 67.285156 L 101.035156 67.285156"/></g><g id="change5_42"><path fill="#fec447" d="M 101.035156 33.648438 L 101.035156 67.285156 L 67.289062 67.285156 L 67.289062 33.648438 L 101.035156 33.648438"/></g><g id="change6_58"><path fill="#fea52a" d="M 67.289062 437.671875 L 67.289062 471.417969 L 33.652344 471.417969 L 33.652344 437.671875 L 67.289062 437.671875"/></g><g id="change6_59"><path fill="#fea52a" d="M 67.289062 404.027344 L 67.289062 437.671875 L 33.652344 437.671875 L 33.652344 404.027344 L 67.289062 404.027344"/></g><g id="change6_60"><path fill="#fea52a" d="M 67.289062 370.382812 L 67.289062 404.027344 L 33.652344 404.027344 L 33.652344 370.382812 L 67.289062 370.382812"/></g><g id="change2_31"><path fill="#c74424" d="M 67.289062 336.738281 L 67.289062 370.382812 L 33.652344 370.382812 L 33.652344 336.738281 L 67.289062 336.738281"/></g><g id="change2_32"><path fill="#c74424" d="M 67.289062 302.992188 L 67.289062 336.738281 L 33.652344 336.738281 L 33.652344 302.992188 L 67.289062 302.992188"/></g><g id="change2_33"><path fill="#c74424" d="M 67.289062 269.355469 L 67.289062 302.992188 L 33.652344 302.992188 L 33.652344 269.355469 L 67.289062 269.355469"/></g><g id="change2_34"><path fill="#c74424" d="M 67.289062 235.710938 L 67.289062 269.355469 L 33.652344 269.355469 L 33.652344 235.710938 L 67.289062 235.710938"/></g><g id="change2_35"><path fill="#c74424" d="M 67.289062 201.964844 L 67.289062 235.710938 L 33.652344 235.710938 L 33.652344 201.964844 L 67.289062 201.964844"/></g><g id="change2_36"><path fill="#c74424" d="M 67.289062 168.320312 L 67.289062 201.964844 L 33.652344 201.964844 L 33.652344 168.320312 L 67.289062 168.320312"/></g><g id="change6_61"><path fill="#fea52a" d="M 67.289062 134.675781 L 67.289062 168.320312 L 33.652344 168.320312 L 33.652344 134.675781 L 67.289062 134.675781"/></g><g id="change6_62"><path fill="#fea52a" d="M 67.289062 101.027344 L 67.289062 134.675781 L 33.652344 134.675781 L 33.652344 101.027344 L 67.289062 101.027344"/></g><g id="change5_43"><path fill="#fec447" d="M 67.289062 67.285156 L 67.289062 101.027344 L 33.652344 101.027344 L 33.652344 67.285156 L 67.289062 67.285156"/></g><g id="change6_63"><path fill="#fea52a" d="M 33.652344 370.382812 L 33.652344 404.027344 L 0 404.027344 L 0 370.382812 L 33.652344 370.382812"/></g><g id="change6_64"><path fill="#fea52a" d="M 33.652344 336.738281 L 33.652344 370.382812 L 0 370.382812 L 0 336.738281 L 33.652344 336.738281"/></g><g id="change6_65"><path fill="#fea52a" d="M 33.652344 302.992188 L 33.652344 336.738281 L 0 336.738281 L 0 302.992188 L 33.652344 302.992188"/></g><g id="change6_66"><path fill="#fea52a" d="M 33.652344 269.355469 L 33.652344 302.992188 L 0 302.992188 L 0 269.355469 L 33.652344 269.355469"/></g><g id="change6_67"><path fill="#fea52a" d="M 33.652344 235.710938 L 33.652344 269.355469 L 0 269.355469 L 0 235.710938 L 33.652344 235.710938"/></g><g id="change6_68"><path fill="#fea52a" d="M 33.652344 201.964844 L 33.652344 235.710938 L 0 235.710938 L 0 201.964844 L 33.652344 201.964844"/></g><g id="change6_69"><path fill="#fea52a" d="M 33.652344 168.320312 L 33.652344 201.964844 L 0 201.964844 L 0 168.320312 L 33.652344 168.320312"/></g><g id="change5_44"><path fill="#fec447" d="M 33.652344 134.675781 L 33.652344 168.320312 L 0 168.320312 L 0 134.675781 L 33.652344 134.675781"/></g></g></svg>