<?xml version="1.0" encoding="UTF-8"?><svg xmlns="http://www.w3.org/2000/svg" xmlns:xlink="http://www.w3.org/1999/xlink" contentScriptType="text/ecmascript" fill="#000000" width="277.8" zoomAndPan="magnify" contentStyleType="text/css" viewBox="-0.3 0.1 277.8 400.6" height="400.6" data-name="Layer 1" preserveAspectRatio="xMidYMid meet" version="1"><g id="change1_1"><path fill="#fdd181" d="M277.12,48.12V78.59H261.73V93.83H246.32v15.22h-15.4v15.23H215.51v15.24H200.12V170h15.39v15.23h15.41v15.22h15.4V230.9h15.41v76.15H246.32v15.24h-15.4v30.45H215.51V368H200.12v15.23H169.31v15.22h-77V383.21H61.51V368H46.1V352.74H30.71V322.29H15.3V307.05H-.1V230.9H15.3V200.43H30.71V185.21H46.1V170H61.51V154.74h15.4V139.52H61.51V124.28H46.1V109.05H30.71V93.83H15.3V78.59H-.1V48.12H15.3V32.9H30.71V17.67H46.1V2.43H230.92V17.67h15.4V32.9h15.41V48.12Z"/></g><g id="change2_1"><path fill="#fab357" d="M77.01 184.82H92.41000000000001V200.22H77.01z"/></g><g id="change2_2"><path fill="#fab357" d="M107.81 292.63H123.21000000000001V308.03H107.81z"/></g><g id="change2_3"><path fill="#fab357" d="M169.41 184.82H184.82V200.22H169.41z"/></g><g id="change2_4"><path fill="#fab357" d="M123.21 184.82L138.6 184.82 154.01 184.82 169.41 184.82 169.41 169.43 154.01 169.43 138.6 169.43 123.21 169.43 107.81 169.43 92.4 169.43 92.4 184.82 107.81 184.82 123.21 184.82z"/></g><g id="change2_5"><path fill="#fab357" d="M138.6 261.83H154.01V277.22999999999996H138.6z"/></g><g id="change2_6"><path fill="#fab357" d="M154.01 246.43H169.41V261.83H154.01z"/></g><g id="change2_7"><path fill="#fab357" d="M123.21 277.22H138.60999999999999V292.63000000000005H123.21z"/></g><g id="change2_8"><path fill="#fab357" d="M169.41 323.44H184.82V338.84H169.41z"/></g><g id="change2_9"><path fill="#fab357" d="M184.82 308.03L184.82 323.44 200.22 323.44 200.22 308.03 200.22 292.63 184.82 292.63 184.82 308.03z"/></g><g id="change2_10"><path fill="#fab357" d="M200.22 231.02L200.22 215.63 200.22 200.22 184.82 200.22 184.82 215.63 184.82 231.02 169.41 231.02 169.41 246.43 184.82 246.43 200.22 246.43 200.22 261.83 200.22 277.22 200.22 292.63 215.61 292.63 215.61 277.22 215.61 261.83 215.61 246.43 215.61 231.02 200.22 231.02z"/></g><g id="change2_11"><path fill="#fab357" d="M61.61 261.83L61.61 246.43 61.61 231.02 46.2 231.02 46.2 246.43 46.2 261.83 46.2 277.22 46.2 292.63 61.61 292.63 61.61 277.22 61.61 261.83z"/></g><g id="change2_12"><path fill="#fab357" d="M77.01 215.63L77.01 200.22 61.61 200.22 61.61 215.63 61.61 231.02 77.01 231.02 77.01 215.63z"/></g><g id="change2_13"><path fill="#fab357" d="M138.6 338.83L123.21 338.83 107.81 338.83 92.4 338.83 92.4 354.23 107.81 354.23 123.21 354.23 138.6 354.23 154.01 354.23 169.41 354.23 169.41 338.83 154.01 338.83 138.6 338.83z"/></g><g id="change2_14"><path fill="#fab357" d="M107.81 323.44L107.81 308.03 92.4 308.03 77.01 308.03 77.01 292.63 61.61 292.63 61.61 308.03 61.61 323.44 77.01 323.44 77.01 338.83 92.4 338.83 92.4 323.44 107.81 323.44z"/></g><g id="change3_1"><path fill="#f38ab5" d="M92.65 45.95L92.4 45.95 77.26 45.95 77.26 30.56 61.86 30.56 61.86 15.16 45.95 15.16 45.95 30.56 30.56 30.56 30.56 46.2 30.56 61.86 45.95 61.86 45.95 77.26 61.36 77.26 61.36 92.67 76.76 92.67 76.76 108.06 92.65 108.06 92.65 92.67 108.06 92.67 108.06 77.01 108.06 61.36 92.65 61.36 92.65 45.95z"/></g><g id="change3_2"><path fill="#f38ab5" d="M231.27 30.56L231.27 15.16 215.36 15.16 215.36 30.56 199.97 30.56 199.97 45.95 184.57 45.95 184.57 61.36 169.16 61.36 169.16 76.76 153.76 76.76 153.76 92.17 138.35 92.17 138.35 107.56 122.96 107.56 122.96 123.46 138.6 123.46 154.01 123.46 169.41 123.46 185.07 123.46 185.07 108.06 200.46 108.06 200.46 92.67 215.86 92.67 215.86 77.26 231.27 77.26 231.27 61.86 246.66 61.86 246.66 46.2 246.66 30.56 231.27 30.56z"/></g><g id="change4_1"><path fill="#da689d" d="M245.97 45.95L245.97 46.15 245.97 46.4 245.97 61.33 230.57 61.33 230.57 76.69 215.16 76.69 215.16 92.07 199.76 92.07 199.76 107.43 184.37 107.43 184.37 122.79 169.41 122.79 154.01 122.79 138.6 122.79 123.21 122.79 108.26 122.79 108.26 108.33 123.66 108.33 123.66 107.88 123.66 92.52 123.66 77.59 138.6 77.59 154.46 77.59 154.46 77.14 154.46 62.23 169.86 62.23 169.86 46.85 185.27 46.85 185.27 31.49 200.66 31.49 200.66 15.23 184.82 15.23 169.41 15.23 154.01 15.23 138.6 15.23 123.21 15.23 107.81 15.23 92.4 15.23 76.56 15.23 76.56 31.49 91.95 31.49 91.95 46.85 107.36 46.85 107.36 62.23 122.76 62.23 122.76 76.69 107.36 76.69 107.36 92.07 91.95 92.07 91.95 107.43 77.46 107.43 77.46 92.07 62.06 92.07 62.06 76.69 46.65 76.69 46.65 61.33 31.25 61.33 31.26 45.95 14.95 45.95 14.95 61.78 14.95 77.59 30.36 77.59 30.36 92.97 45.75 92.97 45.75 108.33 61.16 108.33 61.16 123.69 76.56 123.69 76.56 139.07 92.85 139.07 92.85 123.69 107.36 123.69 107.36 139.07 123.21 139.07 138.6 139.07 154.01 139.07 169.41 139.07 184.82 139.07 200.66 139.07 200.66 123.69 216.06 123.69 216.06 108.33 231.47 108.33 231.47 92.97 246.87 92.97 246.87 77.59 262.28 77.59 262.28 61.78 262.28 45.95 245.97 45.95z"/></g><g id="change5_1"><path fill="#3d3b52" d="M262.13,46.28V30.9H246.72V15.52h-15.4V.13H45.9V15.52H30.51V30.9H15.09V46.28H-.3V78.73H15.09v15H30.51v16H45.9v15H61.31v15h15.4V154H61.31v15.39H45.9v15.38H30.51v15.38H15.09V230.9H-.3v77.53H15.09v15.39H30.51v30.76H45.9V370H61.31v15.38H92.1v15.38h77.61V385.35h30.8V370h15.4V354.58h15.41V323.82h15.4V308.43h15.41V230.9H246.72V200.13h-15.4V184.75H215.91V169.37h-15.4V139.2h15.4V123.81h15.41V108.73h15.4v-15h15.41v-15h15.39V46.28ZM77.31,16.12h122.6V30.9H184.52V46.28H169.11v15.4h-15.4V77.05h-30.2V61.68h-15.4V46.28H92.7V30.9H77.31ZM61.91,123.21V107.83H46.5V92.45H31.11V77.05H15.7V46.88H31.11V31.5H46.5V16.12H61.31V31.5h15.4V46.88H92.1v15.4h15.41V77.65h15.4v30.18h-15.4v15.38H92.1V138.6H77.31V123.21Zm153.4,62.14v15.38h15.41V231.5h15.4v76.33h-15.4v15.39H215.31V354h-15.4v15.39h-30.8v15.38H92.7V369.37H61.91V354H46.5V323.22H31.11V307.83H15.7V231.5H31.11V200.73H46.5V185.35H61.91V170h15.4V154.58H184.52V170h15.39v15.38ZM261.53,62.51V77.05H246.12v15.4h-15.4v15.38H215.31v15.38h-15.4V138.6h-91.8V123.81h15.4V108.43H138.9V93.05h15.41V77.65h15.4V62.28h15.41V46.88h15.39V31.5h15.4V16.12h14.81V31.5h15.4V46.88h15.41Z"/></g></svg>