<?xml version="1.0" encoding="UTF-8"?><svg xmlns="http://www.w3.org/2000/svg" xmlns:xlink="http://www.w3.org/1999/xlink" contentScriptType="text/ecmascript" fill="#000000" width="420" zoomAndPan="magnify" contentStyleType="text/css" viewBox="90.0 278.3 420.0 43.6" height="43.6" preserveAspectRatio="xMidYMid meet" version="1"><g fill="#507335" id="change1_1"><path fill="inherit" d="M 472.328125 309.417969 L 472.320312 303.214844 L 478.625 303.210938 L 478.625 309.414062 Z M 459.726562 315.628906 L 453.421875 315.632812 L 453.417969 309.429688 L 459.722656 309.425781 L 459.71875 303.21875 L 466.019531 303.214844 L 466.023438 309.421875 L 459.722656 309.425781 Z M 184.03125 315.632812 L 177.730469 315.628906 L 177.730469 309.425781 L 171.429688 309.421875 L 171.433594 303.214844 L 177.734375 303.21875 L 177.730469 309.425781 L 184.035156 309.429688 Z M 165.128906 309.417969 L 158.828125 309.414062 L 158.828125 303.210938 L 165.132812 303.214844 Z M 491.230469 309.40625 L 491.226562 303.203125 L 484.925781 303.203125 L 484.921875 297.003906 L 478.617188 297.003906 L 478.617188 290.800781 L 484.917969 290.796875 L 484.914062 284.59375 L 478.613281 284.59375 L 478.609375 278.390625 L 472.308594 278.394531 L 472.3125 284.597656 L 466.011719 284.601562 L 466.011719 290.808594 L 472.316406 290.804688 L 472.320312 297.007812 L 466.015625 297.011719 L 466.011719 290.808594 L 459.710938 290.808594 L 459.714844 297.015625 L 453.410156 297.019531 L 453.410156 290.8125 L 459.710938 290.808594 L 459.707031 284.605469 L 466.011719 284.601562 L 466.007812 278.398438 L 171.445312 278.398438 L 171.441406 284.601562 L 177.746094 284.605469 L 177.742188 290.808594 L 184.046875 290.8125 L 184.042969 297.019531 L 177.738281 297.015625 L 177.742188 290.808594 L 171.441406 290.808594 L 171.4375 297.011719 L 165.136719 297.007812 L 165.136719 290.804688 L 171.441406 290.808594 L 171.441406 284.601562 L 165.140625 284.597656 L 165.144531 278.394531 L 158.84375 278.390625 L 158.839844 284.59375 L 152.539062 284.59375 L 152.535156 290.796875 L 158.835938 290.800781 L 158.835938 297.003906 L 152.53125 297.003906 L 152.527344 303.203125 L 146.226562 303.203125 L 146.222656 309.40625 L 152.523438 309.410156 L 152.519531 315.617188 L 158.824219 315.617188 L 158.820312 321.824219 L 165.121094 321.828125 L 165.125 315.621094 L 171.425781 315.625 L 171.425781 321.832031 L 466.03125 321.832031 L 466.027344 315.625 L 472.328125 315.621094 L 472.332031 321.828125 L 478.632812 321.824219 L 478.632812 315.617188 L 484.933594 315.617188 L 484.929688 309.410156 L 491.230469 309.40625"/><path fill="inherit" d="M 497.53125 303.199219 L 497.523438 296.992188 L 491.222656 296.996094 L 491.226562 303.203125 L 497.53125 303.199219"/><path fill="inherit" d="M 497.53125 309.402344 L 491.230469 309.40625 L 491.234375 315.613281 L 497.535156 315.609375 L 497.53125 309.402344"/><path fill="inherit" d="M 503.8125 296.890625 L 503.808594 290.757812 L 497.507812 290.757812 L 497.511719 296.964844 L 503.695312 296.960938 L 503.699219 303.097656 L 510 303.089844 L 509.996094 296.886719 L 503.8125 296.890625"/><path fill="inherit" d="M 496.730469 278.273438 L 484.910156 278.273438 L 484.914062 284.480469 L 491.042969 284.476562 L 491.046875 290.277344 L 496.730469 290.273438 L 496.730469 278.273438"/><path fill="inherit" d="M 510 290.71875 L 509.996094 284.515625 L 503.695312 284.515625 L 503.699219 290.722656 L 510 290.71875"/><path fill="inherit" d="M 491.222656 296.996094 L 491.21875 290.789062 L 484.917969 290.796875 L 484.921875 297.003906 L 491.222656 296.996094"/><path fill="inherit" d="M 484.9375 321.820312 L 491.238281 321.816406 L 491.234375 315.613281 L 484.933594 315.617188 L 484.9375 321.820312"/><path fill="inherit" d="M 139.929688 296.992188 L 139.925781 303.199219 L 146.226562 303.203125 L 146.230469 296.996094 L 139.929688 296.992188"/><path fill="inherit" d="M 139.921875 309.402344 L 139.917969 315.609375 L 146.21875 315.613281 L 146.222656 309.40625 L 139.921875 309.402344"/><path fill="inherit" d="M 139.945312 290.757812 L 133.644531 290.757812 L 133.640625 296.890625 L 127.457031 296.886719 L 127.453125 303.089844 L 133.753906 303.097656 L 133.761719 296.960938 L 139.941406 296.964844 L 139.945312 290.757812"/><path fill="inherit" d="M 114.863281 296.910156 L 114.863281 290.773438 L 121.105469 290.777344 L 121.109375 284.644531 L 127.402344 284.648438 L 127.40625 278.441406 L 121.105469 278.4375 L 121.101562 284.574219 L 114.804688 284.570312 L 114.800781 290.703125 L 108.617188 290.699219 L 108.621094 284.515625 L 102.320312 284.515625 L 102.316406 290.71875 L 108.5625 290.722656 L 108.558594 296.90625 L 114.863281 296.910156"/><path fill="inherit" d="M 140.105469 290.273438 L 146.40625 290.277344 L 146.410156 284.476562 L 152.539062 284.480469 L 152.542969 278.273438 L 133.8125 278.273438 L 133.808594 284.476562 L 140.109375 284.480469 L 140.105469 290.273438"/><path fill="inherit" d="M 90 302.980469 L 96.300781 302.984375 L 96.304688 296.777344 L 90.003906 296.777344 L 90 302.980469"/><path fill="inherit" d="M 127.453125 321.816406 L 133.753906 321.820312 L 133.757812 315.613281 L 127.457031 315.613281 L 127.453125 321.816406"/><path fill="inherit" d="M 127.199219 303.132812 L 121.160156 303.128906 L 121.15625 309.207031 L 114.972656 309.171875 L 114.976562 303.089844 L 121.214844 303.097656 L 121.21875 296.890625 L 114.917969 296.886719 L 114.914062 302.964844 L 108.675781 302.960938 L 108.738281 315.34375 L 127.199219 315.320312 L 127.199219 303.132812"/><path fill="inherit" d="M 133.761719 284.515625 L 127.457031 284.515625 L 127.453125 290.71875 L 133.753906 290.722656 L 133.761719 284.515625"/><path fill="inherit" d="M 152.535156 290.796875 L 146.234375 290.789062 L 146.230469 296.996094 L 152.53125 297.003906 L 152.535156 290.796875"/><path fill="inherit" d="M 146.214844 321.816406 L 152.515625 321.820312 L 152.519531 315.617188 L 146.21875 315.613281 L 146.214844 321.816406"/></g></svg>