<?xml version="1.0" encoding="UTF-8"?><svg xmlns="http://www.w3.org/2000/svg" xmlns:xlink="http://www.w3.org/1999/xlink" contentScriptType="text/ecmascript" fill="#ffd07f" width="676.9" zoomAndPan="magnify" contentStyleType="text/css" viewBox="0.0 0.0 676.9 617.4" height="617.4" preserveAspectRatio="xMidYMid meet" version="1"><g><g><g><g id="change1_80"><path d="M645.408 224.551L645.408 196.484 617.348 196.484 617.348 168.424 617.348 140.363 589.288 140.363 589.288 112.303 589.288 84.243 561.228 84.243 561.228 56.182 561.228 28.115 533.167 28.115 533.167 0.055 505.107 0.055 477.047 0.055 448.979 0.055 420.919 0.055 392.858 0.055 364.798 0.055 336.738 0.055 308.678 0.055 280.61 0.055 252.55 0.055 224.489 0.055 196.429 0.055 168.369 0.055 140.309 0.055 140.309 28.115 112.248 28.115 112.248 56.182 112.248 84.243 84.181 84.243 84.181 112.303 84.181 140.363 56.121 140.363 56.121 168.424 56.121 196.484 28.06 196.484 28.06 224.551 0 224.551 0 252.612 0 280.672 0 308.732 0 336.793 0 364.853 28.06 364.853 28.06 392.913 28.06 420.981 56.121 420.981 56.121 449.041 56.121 477.101 84.181 477.101 84.181 505.162 84.181 533.222 112.248 533.222 112.248 561.282 112.248 589.35 140.309 589.35 140.309 617.41 168.369 617.41 196.429 617.41 224.489 617.41 252.55 617.41 280.61 617.41 308.678 617.41 336.738 617.41 364.798 617.41 392.858 617.41 420.919 617.41 448.979 617.41 477.047 617.41 505.107 617.41 533.167 617.41 533.167 589.35 561.228 589.35 561.228 561.282 561.228 533.222 589.288 533.222 589.288 505.162 589.288 477.101 617.348 477.101 617.348 449.041 617.348 420.981 645.408 420.981 645.408 392.913 673.476 392.913 673.476 364.853 673.476 336.793 673.476 308.732 673.476 280.672 673.476 252.612 673.476 224.551 645.408 224.551z"/></g><g><g id="change1_1"><path d="M648.793 364.798H676.861V392.858H648.793z"/></g><g id="change1_2"><path d="M648.793 336.738H676.861V364.798H648.793z"/></g><g id="change1_3"><path d="M648.793 308.678H676.861V336.738H648.793z"/></g><g id="change1_4"><path d="M648.793 280.617H676.861V308.677H648.793z"/></g><g id="change1_5"><path d="M648.793 252.557H676.861V280.61699999999996H648.793z"/></g><g id="change1_6"><path d="M648.793 224.497H676.861V252.55700000000002H648.793z"/></g><g id="change1_7"><path d="M620.733 392.859H648.7929999999999V420.92699999999996H620.733z"/></g><g id="change1_8"><path d="M620.733 364.798H648.7929999999999V392.858H620.733z"/></g><g id="change2_1"><path fill="#f9a72b" d="M620.733 336.738H648.7929999999999V364.798H620.733z"/></g><g id="change2_2"><path fill="#f9a72b" d="M620.733 308.678H648.7929999999999V336.738H620.733z"/></g><g id="change2_3"><path fill="#f9a72b" d="M620.733 280.617H648.7929999999999V308.677H620.733z"/></g><g id="change2_4"><path fill="#f9a72b" d="M620.733 252.557H648.7929999999999V280.61699999999996H620.733z"/></g><g id="change1_9"><path d="M620.733 224.497H648.7929999999999V252.55700000000002H620.733z"/></g><g id="change1_10"><path d="M620.733 196.429H648.7929999999999V224.497H620.733z"/></g><g id="change1_11"><path d="M592.672 448.986H620.732V477.046H592.672z"/></g><g id="change1_12"><path d="M592.672 420.926H620.732V448.986H592.672z"/></g><g id="change2_5"><path fill="#f9a72b" d="M592.672 392.859H620.732V420.92699999999996H592.672z"/></g><g id="change2_6"><path fill="#f9a72b" d="M592.672 364.798H620.732V392.858H592.672z"/></g><g id="change2_7"><path fill="#f9a72b" d="M592.672 336.738H620.732V364.798H592.672z"/></g><g id="change2_8"><path fill="#f9a72b" d="M592.672 308.678H620.732V336.738H592.672z"/></g><g id="change2_9"><path fill="#f9a72b" d="M592.672 280.617H620.732V308.677H592.672z"/></g><g id="change2_10"><path fill="#f9a72b" d="M592.672 252.557H620.732V280.61699999999996H592.672z"/></g><g id="change2_11"><path fill="#f9a72b" d="M592.672 224.497H620.732V252.55700000000002H592.672z"/></g><g id="change2_12"><path fill="#f9a72b" d="M592.672 196.429H620.732V224.497H592.672z"/></g><g id="change1_13"><path d="M592.672 168.369H620.732V196.429H592.672z"/></g><g id="change1_14"><path d="M592.672 140.309H620.732V168.369H592.672z"/></g><g id="change1_15"><path d="M564.612 505.107H592.6719999999999V533.167H564.612z"/></g><g id="change1_16"><path d="M564.612 477.047H592.6719999999999V505.107H564.612z"/></g><g id="change1_17"><path d="M564.612 448.986H592.6719999999999V477.046H564.612z"/></g><g id="change2_13"><path fill="#f9a72b" d="M564.612 420.926H592.6719999999999V448.986H564.612z"/></g><g id="change2_14"><path fill="#f9a72b" d="M564.612 392.859H592.6719999999999V420.92699999999996H564.612z"/></g><g id="change2_15"><path fill="#f9a72b" d="M564.612 364.798H592.6719999999999V392.858H564.612z"/></g><g id="change2_16"><path fill="#f9a72b" d="M564.612 336.738H592.6719999999999V364.798H564.612z"/></g><g id="change2_17"><path fill="#f9a72b" d="M564.612 308.678H592.6719999999999V336.738H564.612z"/></g><g id="change2_18"><path fill="#f9a72b" d="M564.612 280.617H592.6719999999999V308.677H564.612z"/></g><g id="change2_19"><path fill="#f9a72b" d="M564.612 252.557H592.6719999999999V280.61699999999996H564.612z"/></g><g id="change2_20"><path fill="#f9a72b" d="M564.612 224.497H592.6719999999999V252.55700000000002H564.612z"/></g><g id="change2_21"><path fill="#f9a72b" d="M564.612 196.429H592.6719999999999V224.497H564.612z"/></g><g id="change2_22"><path fill="#f9a72b" d="M564.612 168.369H592.6719999999999V196.429H564.612z"/></g><g id="change2_23"><path fill="#f9a72b" d="M564.612 140.309H592.6719999999999V168.369H564.612z"/></g><g id="change1_18"><path d="M564.612 112.248H592.6719999999999V140.308H564.612z"/></g><g id="change1_19"><path d="M564.612 84.188H592.6719999999999V112.248H564.612z"/></g><g id="change1_20"><path d="M536.552 561.228H564.612V589.2959999999999H536.552z"/></g><g id="change1_21"><path d="M536.552 533.167H564.612V561.227H536.552z"/></g><g id="change1_22"><path d="M536.552 505.107H564.612V533.167H536.552z"/></g><g id="change2_24"><path fill="#f9a72b" d="M536.552 477.047H564.612V505.107H536.552z"/></g><g id="change2_25"><path fill="#f9a72b" d="M536.552 448.986H564.612V477.046H536.552z"/></g><g id="change2_26"><path fill="#f9a72b" d="M536.552 420.926H564.612V448.986H536.552z"/></g><g id="change2_27"><path fill="#f9a72b" d="M536.552 392.859H564.612V420.92699999999996H536.552z"/></g><g id="change2_28"><path fill="#f9a72b" d="M536.552 364.798H564.612V392.858H536.552z"/></g><g id="change2_29"><path fill="#f9a72b" d="M536.552 336.738H564.612V364.798H536.552z"/></g><g id="change2_30"><path fill="#f9a72b" d="M536.552 308.678H564.612V336.738H536.552z"/></g><g id="change2_31"><path fill="#f9a72b" d="M536.552 280.617H564.612V308.677H536.552z"/></g><g id="change2_32"><path fill="#f9a72b" d="M536.552 252.557H564.612V280.61699999999996H536.552z"/></g><g id="change2_33"><path fill="#f9a72b" d="M536.552 224.497H564.612V252.55700000000002H536.552z"/></g><g id="change2_34"><path fill="#f9a72b" d="M536.552 196.429H564.612V224.497H536.552z"/></g><g id="change2_35"><path fill="#f9a72b" d="M536.552 168.369H564.612V196.429H536.552z"/></g><g id="change2_36"><path fill="#f9a72b" d="M536.552 140.309H564.612V168.369H536.552z"/></g><g id="change2_37"><path fill="#f9a72b" d="M536.552 112.248H564.612V140.308H536.552z"/></g><g id="change1_23"><path d="M536.552 84.188H564.612V112.248H536.552z"/></g><g id="change1_24"><path d="M536.552 56.128H564.612V84.188H536.552z"/></g><g id="change1_25"><path d="M536.552 28.06H564.612V56.128H536.552z"/></g><g id="change1_26"><path d="M508.492 589.295H536.552V617.3549999999999H508.492z"/></g><g id="change1_27"><path d="M508.492 561.228H536.552V589.2959999999999H508.492z"/></g><g id="change2_38"><path fill="#f9a72b" d="M508.492 533.167H536.552V561.227H508.492z"/></g><g id="change2_39"><path fill="#f9a72b" d="M508.492 505.107H536.552V533.167H508.492z"/></g><g id="change2_40"><path fill="#f9a72b" d="M508.492 477.047H536.552V505.107H508.492z"/></g><g id="change2_41"><path fill="#f9a72b" d="M508.492 448.986H536.552V477.046H508.492z"/></g><g id="change2_42"><path fill="#f9a72b" d="M508.492 420.926H536.552V448.986H508.492z"/></g><g id="change2_43"><path fill="#f9a72b" d="M508.492 392.859H536.552V420.92699999999996H508.492z"/></g><g id="change2_44"><path fill="#f9a72b" d="M508.492 364.798H536.552V392.858H508.492z"/></g><g id="change2_45"><path fill="#f9a72b" d="M508.492 336.738H536.552V364.798H508.492z"/></g><g id="change2_46"><path fill="#f9a72b" d="M508.492 308.678H536.552V336.738H508.492z"/></g><g id="change2_47"><path fill="#f9a72b" d="M508.492 280.617H536.552V308.677H508.492z"/></g><g id="change2_48"><path fill="#f9a72b" d="M508.492 252.557H536.552V280.61699999999996H508.492z"/></g><g id="change2_49"><path fill="#f9a72b" d="M508.492 224.497H536.552V252.55700000000002H508.492z"/></g><g id="change2_50"><path fill="#f9a72b" d="M508.492 196.429H536.552V224.497H508.492z"/></g><g id="change2_51"><path fill="#f9a72b" d="M508.492 168.369H536.552V196.429H508.492z"/></g><g id="change2_52"><path fill="#f9a72b" d="M508.492 140.309H536.552V168.369H508.492z"/></g><g id="change2_53"><path fill="#f9a72b" d="M508.492 112.248H536.552V140.308H508.492z"/></g><g id="change2_54"><path fill="#f9a72b" d="M508.492 84.188H536.552V112.248H508.492z"/></g><g id="change2_55"><path fill="#f9a72b" d="M508.492 56.128H536.552V84.188H508.492z"/></g><g id="change1_28"><path d="M508.492 28.06H536.552V56.128H508.492z"/></g><g id="change1_29"><path d="M508.492 0H536.552V28.06H508.492z"/></g><g id="change1_30"><path d="M480.431 589.295H508.491V617.3549999999999H480.431z"/></g><g id="change2_56"><path fill="#f9a72b" d="M480.431 561.228H508.491V589.2959999999999H480.431z"/></g><g id="change2_57"><path fill="#f9a72b" d="M480.431 533.167H508.491V561.227H480.431z"/></g><g id="change2_58"><path fill="#f9a72b" d="M480.431 505.107H508.491V533.167H480.431z"/></g><g id="change2_59"><path fill="#f9a72b" d="M480.431 477.047H508.491V505.107H480.431z"/></g><g id="change2_60"><path fill="#f9a72b" d="M480.431 448.986H508.491V477.046H480.431z"/></g><g id="change2_61"><path fill="#f9a72b" d="M480.431 420.926H508.491V448.986H480.431z"/></g><g id="change2_62"><path fill="#f9a72b" d="M480.431 392.859H508.491V420.92699999999996H480.431z"/></g><g id="change2_63"><path fill="#f9a72b" d="M480.431 364.798H508.491V392.858H480.431z"/></g><g id="change2_64"><path fill="#f9a72b" d="M480.431 336.738H508.491V364.798H480.431z"/></g><g id="change2_65"><path fill="#f9a72b" d="M480.431 308.678H508.491V336.738H480.431z"/></g><g id="change2_66"><path fill="#f9a72b" d="M480.431 280.617H508.491V308.677H480.431z"/></g><g id="change2_67"><path fill="#f9a72b" d="M480.431 252.557H508.491V280.61699999999996H480.431z"/></g><g id="change2_68"><path fill="#f9a72b" d="M480.431 224.497H508.491V252.55700000000002H480.431z"/></g><g id="change2_69"><path fill="#f9a72b" d="M480.431 196.429H508.491V224.497H480.431z"/></g><g id="change2_70"><path fill="#f9a72b" d="M480.431 168.369H508.491V196.429H480.431z"/></g><g id="change2_71"><path fill="#f9a72b" d="M480.431 140.309H508.491V168.369H480.431z"/></g><g id="change2_72"><path fill="#f9a72b" d="M480.431 112.248H508.491V140.308H480.431z"/></g><g id="change2_73"><path fill="#f9a72b" d="M480.431 84.188H508.491V112.248H480.431z"/></g><g id="change2_74"><path fill="#f9a72b" d="M480.431 56.128H508.491V84.188H480.431z"/></g><g id="change2_75"><path fill="#f9a72b" d="M480.431 28.06H508.491V56.128H480.431z"/></g><g id="change1_31"><path d="M480.431 0H508.491V28.06H480.431z"/></g><g id="change1_32"><path d="M452.364 589.295H480.43199999999996V617.3549999999999H452.364z"/></g><g id="change2_76"><path fill="#f9a72b" d="M452.364 561.228H480.43199999999996V589.2959999999999H452.364z"/></g><g id="change2_77"><path fill="#f9a72b" d="M452.364 533.167H480.43199999999996V561.227H452.364z"/></g><g id="change2_78"><path fill="#f9a72b" d="M452.364 505.107H480.43199999999996V533.167H452.364z"/></g><g id="change2_79"><path fill="#f9a72b" d="M452.364 477.047H480.43199999999996V505.107H452.364z"/></g><g id="change2_80"><path fill="#f9a72b" d="M452.364 448.986H480.43199999999996V477.046H452.364z"/></g><g id="change2_81"><path fill="#f9a72b" d="M452.364 420.926H480.43199999999996V448.986H452.364z"/></g><g id="change2_82"><path fill="#f9a72b" d="M452.364 392.859H480.43199999999996V420.92699999999996H452.364z"/></g><g id="change2_83"><path fill="#f9a72b" d="M452.364 364.798H480.43199999999996V392.858H452.364z"/></g><g id="change2_84"><path fill="#f9a72b" d="M452.364 336.738H480.43199999999996V364.798H452.364z"/></g><g id="change2_85"><path fill="#f9a72b" d="M452.364 308.678H480.43199999999996V336.738H452.364z"/></g><g id="change2_86"><path fill="#f9a72b" d="M452.364 280.617H480.43199999999996V308.677H452.364z"/></g><g id="change2_87"><path fill="#f9a72b" d="M452.364 252.557H480.43199999999996V280.61699999999996H452.364z"/></g><g id="change2_88"><path fill="#f9a72b" d="M452.364 224.497H480.43199999999996V252.55700000000002H452.364z"/></g><g id="change2_89"><path fill="#f9a72b" d="M452.364 196.429H480.43199999999996V224.497H452.364z"/></g><g id="change2_90"><path fill="#f9a72b" d="M452.364 168.369H480.43199999999996V196.429H452.364z"/></g><g id="change2_91"><path fill="#f9a72b" d="M452.364 140.309H480.43199999999996V168.369H452.364z"/></g><g id="change2_92"><path fill="#f9a72b" d="M452.364 112.248H480.43199999999996V140.308H452.364z"/></g><g id="change2_93"><path fill="#f9a72b" d="M452.364 84.188H480.43199999999996V112.248H452.364z"/></g><g id="change2_94"><path fill="#f9a72b" d="M452.364 56.128H480.43199999999996V84.188H452.364z"/></g><g id="change2_95"><path fill="#f9a72b" d="M452.364 28.06H480.43199999999996V56.128H452.364z"/></g><g id="change1_33"><path d="M452.364 0H480.43199999999996V28.06H452.364z"/></g><g id="change1_34"><path d="M424.303 589.295H452.363V617.3549999999999H424.303z"/></g><g id="change2_96"><path fill="#f9a72b" d="M424.303 561.228H452.363V589.2959999999999H424.303z"/></g><g id="change2_97"><path fill="#f9a72b" d="M424.303 533.167H452.363V561.227H424.303z"/></g><g id="change2_98"><path fill="#f9a72b" d="M424.303 505.107H452.363V533.167H424.303z"/></g><g id="change2_99"><path fill="#f9a72b" d="M424.303 477.047H452.363V505.107H424.303z"/></g><g id="change2_100"><path fill="#f9a72b" d="M424.303 448.986H452.363V477.046H424.303z"/></g><g id="change2_101"><path fill="#f9a72b" d="M424.303 420.926H452.363V448.986H424.303z"/></g><g id="change2_102"><path fill="#f9a72b" d="M424.303 392.859H452.363V420.92699999999996H424.303z"/></g><g id="change2_103"><path fill="#f9a72b" d="M424.303 364.798H452.363V392.858H424.303z"/></g><g id="change2_104"><path fill="#f9a72b" d="M424.303 336.738H452.363V364.798H424.303z"/></g><g id="change2_105"><path fill="#f9a72b" d="M424.303 308.678H452.363V336.738H424.303z"/></g><g id="change2_106"><path fill="#f9a72b" d="M424.303 280.617H452.363V308.677H424.303z"/></g><g id="change2_107"><path fill="#f9a72b" d="M424.303 252.557H452.363V280.61699999999996H424.303z"/></g><g id="change2_108"><path fill="#f9a72b" d="M424.303 224.497H452.363V252.55700000000002H424.303z"/></g><g id="change2_109"><path fill="#f9a72b" d="M424.303 196.429H452.363V224.497H424.303z"/></g><g id="change2_110"><path fill="#f9a72b" d="M424.303 168.369H452.363V196.429H424.303z"/></g><g id="change2_111"><path fill="#f9a72b" d="M424.303 140.309H452.363V168.369H424.303z"/></g><g id="change2_112"><path fill="#f9a72b" d="M424.303 112.248H452.363V140.308H424.303z"/></g><g id="change2_113"><path fill="#f9a72b" d="M424.303 84.188H452.363V112.248H424.303z"/></g><g id="change2_114"><path fill="#f9a72b" d="M424.303 56.128H452.363V84.188H424.303z"/></g><g id="change2_115"><path fill="#f9a72b" d="M424.303 28.06H452.363V56.128H424.303z"/></g><g id="change1_35"><path d="M424.303 0H452.363V28.06H424.303z"/></g><g id="change1_36"><path d="M396.243 589.295H424.303V617.3549999999999H396.243z"/></g><g id="change2_116"><path fill="#f9a72b" d="M396.243 561.228H424.303V589.2959999999999H396.243z"/></g><g id="change2_117"><path fill="#f9a72b" d="M396.243 533.167H424.303V561.227H396.243z"/></g><g id="change2_118"><path fill="#f9a72b" d="M396.243 505.107H424.303V533.167H396.243z"/></g><g id="change2_119"><path fill="#f9a72b" d="M396.243 477.047H424.303V505.107H396.243z"/></g><g id="change2_120"><path fill="#f9a72b" d="M396.243 448.986H424.303V477.046H396.243z"/></g><g id="change2_121"><path fill="#f9a72b" d="M396.243 420.926H424.303V448.986H396.243z"/></g><g id="change2_122"><path fill="#f9a72b" d="M396.243 392.859H424.303V420.92699999999996H396.243z"/></g><g id="change2_123"><path fill="#f9a72b" d="M396.243 364.798H424.303V392.858H396.243z"/></g><g id="change2_124"><path fill="#f9a72b" d="M396.243 336.738H424.303V364.798H396.243z"/></g><g id="change2_125"><path fill="#f9a72b" d="M396.243 308.678H424.303V336.738H396.243z"/></g><g id="change2_126"><path fill="#f9a72b" d="M396.243 280.617H424.303V308.677H396.243z"/></g><g id="change2_127"><path fill="#f9a72b" d="M396.243 252.557H424.303V280.61699999999996H396.243z"/></g><g id="change2_128"><path fill="#f9a72b" d="M396.243 224.497H424.303V252.55700000000002H396.243z"/></g><g id="change2_129"><path fill="#f9a72b" d="M396.243 196.429H424.303V224.497H396.243z"/></g><g id="change2_130"><path fill="#f9a72b" d="M396.243 168.369H424.303V196.429H396.243z"/></g><g id="change2_131"><path fill="#f9a72b" d="M396.243 140.309H424.303V168.369H396.243z"/></g><g id="change2_132"><path fill="#f9a72b" d="M396.243 112.248H424.303V140.308H396.243z"/></g><g id="change2_133"><path fill="#f9a72b" d="M396.243 84.188H424.303V112.248H396.243z"/></g><g id="change2_134"><path fill="#f9a72b" d="M396.243 56.128H424.303V84.188H396.243z"/></g><g id="change2_135"><path fill="#f9a72b" d="M396.243 28.06H424.303V56.128H396.243z"/></g><g id="change1_37"><path d="M396.243 0H424.303V28.06H396.243z"/></g><g id="change1_38"><path d="M368.183 589.295H396.243V617.3549999999999H368.183z"/></g><g id="change2_136"><path fill="#f9a72b" d="M368.183 561.228H396.243V589.2959999999999H368.183z"/></g><g id="change2_137"><path fill="#f9a72b" d="M368.183 533.167H396.243V561.227H368.183z"/></g><g id="change2_138"><path fill="#f9a72b" d="M368.183 505.107H396.243V533.167H368.183z"/></g><g id="change2_139"><path fill="#f9a72b" d="M368.183 477.047H396.243V505.107H368.183z"/></g><g id="change2_140"><path fill="#f9a72b" d="M368.183 448.986H396.243V477.046H368.183z"/></g><g id="change2_141"><path fill="#f9a72b" d="M368.183 420.926H396.243V448.986H368.183z"/></g><g id="change2_142"><path fill="#f9a72b" d="M368.183 392.859H396.243V420.92699999999996H368.183z"/></g><g id="change2_143"><path fill="#f9a72b" d="M368.183 364.798H396.243V392.858H368.183z"/></g><g id="change2_144"><path fill="#f9a72b" d="M368.183 336.738H396.243V364.798H368.183z"/></g><g id="change2_145"><path fill="#f9a72b" d="M368.183 308.678H396.243V336.738H368.183z"/></g><g id="change2_146"><path fill="#f9a72b" d="M368.183 280.617H396.243V308.677H368.183z"/></g><g id="change2_147"><path fill="#f9a72b" d="M368.183 252.557H396.243V280.61699999999996H368.183z"/></g><g id="change2_148"><path fill="#f9a72b" d="M368.183 224.497H396.243V252.55700000000002H368.183z"/></g><g id="change2_149"><path fill="#f9a72b" d="M368.183 196.429H396.243V224.497H368.183z"/></g><g id="change2_150"><path fill="#f9a72b" d="M368.183 168.369H396.243V196.429H368.183z"/></g><g id="change2_151"><path fill="#f9a72b" d="M368.183 140.309H396.243V168.369H368.183z"/></g><g id="change2_152"><path fill="#f9a72b" d="M368.183 112.248H396.243V140.308H368.183z"/></g><g id="change2_153"><path fill="#f9a72b" d="M368.183 84.188H396.243V112.248H368.183z"/></g><g id="change2_154"><path fill="#f9a72b" d="M368.183 56.128H396.243V84.188H368.183z"/></g><g id="change2_155"><path fill="#f9a72b" d="M368.183 28.06H396.243V56.128H368.183z"/></g><g id="change1_39"><path d="M368.183 0H396.243V28.06H368.183z"/></g><g id="change1_40"><path d="M340.123 589.295H368.183V617.3549999999999H340.123z"/></g><g id="change2_156"><path fill="#f9a72b" d="M340.123 561.228H368.183V589.2959999999999H340.123z"/></g><g id="change2_157"><path fill="#f9a72b" d="M340.123 533.167H368.183V561.227H340.123z"/></g><g id="change2_158"><path fill="#f9a72b" d="M340.123 505.107H368.183V533.167H340.123z"/></g><g id="change2_159"><path fill="#f9a72b" d="M340.123 477.047H368.183V505.107H340.123z"/></g><g id="change2_160"><path fill="#f9a72b" d="M340.123 448.986H368.183V477.046H340.123z"/></g><g id="change2_161"><path fill="#f9a72b" d="M340.123 420.926H368.183V448.986H340.123z"/></g><g id="change2_162"><path fill="#f9a72b" d="M340.123 392.859H368.183V420.92699999999996H340.123z"/></g><g id="change2_163"><path fill="#f9a72b" d="M340.123 364.798H368.183V392.858H340.123z"/></g><g id="change2_164"><path fill="#f9a72b" d="M340.123 336.738H368.183V364.798H340.123z"/></g><g id="change2_165"><path fill="#f9a72b" d="M340.123 308.678H368.183V336.738H340.123z"/></g><g id="change2_166"><path fill="#f9a72b" d="M340.123 280.617H368.183V308.677H340.123z"/></g><g id="change2_167"><path fill="#f9a72b" d="M340.123 252.557H368.183V280.61699999999996H340.123z"/></g><g id="change2_168"><path fill="#f9a72b" d="M340.123 224.497H368.183V252.55700000000002H340.123z"/></g><g id="change2_169"><path fill="#f9a72b" d="M340.123 196.429H368.183V224.497H340.123z"/></g><g id="change2_170"><path fill="#f9a72b" d="M340.123 168.369H368.183V196.429H340.123z"/></g><g id="change2_171"><path fill="#f9a72b" d="M340.123 140.309H368.183V168.369H340.123z"/></g><g id="change2_172"><path fill="#f9a72b" d="M340.123 112.248H368.183V140.308H340.123z"/></g><g id="change2_173"><path fill="#f9a72b" d="M340.123 84.188H368.183V112.248H340.123z"/></g><g id="change2_174"><path fill="#f9a72b" d="M340.123 56.128H368.183V84.188H340.123z"/></g><g id="change2_175"><path fill="#f9a72b" d="M340.123 28.06H368.183V56.128H340.123z"/></g><g id="change1_41"><path d="M340.123 0H368.183V28.06H340.123z"/></g><g id="change1_42"><path d="M312.062 589.295H340.122V617.3549999999999H312.062z"/></g><g id="change2_176"><path fill="#f9a72b" d="M312.062 561.228H340.122V589.2959999999999H312.062z"/></g><g id="change2_177"><path fill="#f9a72b" d="M312.062 533.167H340.122V561.227H312.062z"/></g><g id="change2_178"><path fill="#f9a72b" d="M312.062 505.107H340.122V533.167H312.062z"/></g><g id="change2_179"><path fill="#f9a72b" d="M312.062 477.047H340.122V505.107H312.062z"/></g><g id="change2_180"><path fill="#f9a72b" d="M312.062 448.986H340.122V477.046H312.062z"/></g><g id="change2_181"><path fill="#f9a72b" d="M312.062 420.926H340.122V448.986H312.062z"/></g><g id="change2_182"><path fill="#f9a72b" d="M312.062 392.859H340.122V420.92699999999996H312.062z"/></g><g id="change2_183"><path fill="#f9a72b" d="M312.062 364.798H340.122V392.858H312.062z"/></g><g id="change2_184"><path fill="#f9a72b" d="M312.062 336.738H340.122V364.798H312.062z"/></g><g id="change2_185"><path fill="#f9a72b" d="M312.062 308.678H340.122V336.738H312.062z"/></g><g id="change2_186"><path fill="#f9a72b" d="M312.062 280.617H340.122V308.677H312.062z"/></g><g id="change2_187"><path fill="#f9a72b" d="M312.062 252.557H340.122V280.61699999999996H312.062z"/></g><g id="change2_188"><path fill="#f9a72b" d="M312.062 224.497H340.122V252.55700000000002H312.062z"/></g><g id="change2_189"><path fill="#f9a72b" d="M312.062 196.429H340.122V224.497H312.062z"/></g><g id="change2_190"><path fill="#f9a72b" d="M312.062 168.369H340.122V196.429H312.062z"/></g><g id="change2_191"><path fill="#f9a72b" d="M312.062 140.309H340.122V168.369H312.062z"/></g><g id="change2_192"><path fill="#f9a72b" d="M312.062 112.248H340.122V140.308H312.062z"/></g><g id="change2_193"><path fill="#f9a72b" d="M312.062 84.188H340.122V112.248H312.062z"/></g><g id="change2_194"><path fill="#f9a72b" d="M312.062 56.128H340.122V84.188H312.062z"/></g><g id="change2_195"><path fill="#f9a72b" d="M312.062 28.06H340.122V56.128H312.062z"/></g><g id="change1_43"><path d="M312.062 0H340.122V28.06H312.062z"/></g><g id="change1_44"><path d="M283.995 589.295H312.063V617.3549999999999H283.995z"/></g><g id="change2_196"><path fill="#f9a72b" d="M283.995 561.228H312.063V589.2959999999999H283.995z"/></g><g id="change2_197"><path fill="#f9a72b" d="M283.995 533.167H312.063V561.227H283.995z"/></g><g id="change2_198"><path fill="#f9a72b" d="M283.995 505.107H312.063V533.167H283.995z"/></g><g id="change2_199"><path fill="#f9a72b" d="M283.995 477.047H312.063V505.107H283.995z"/></g><g id="change2_200"><path fill="#f9a72b" d="M283.995 448.986H312.063V477.046H283.995z"/></g><g id="change2_201"><path fill="#f9a72b" d="M283.995 420.926H312.063V448.986H283.995z"/></g><g id="change2_202"><path fill="#f9a72b" d="M283.995 392.859H312.063V420.92699999999996H283.995z"/></g><g id="change2_203"><path fill="#f9a72b" d="M283.995 364.798H312.063V392.858H283.995z"/></g><g id="change2_204"><path fill="#f9a72b" d="M283.995 336.738H312.063V364.798H283.995z"/></g><g id="change2_205"><path fill="#f9a72b" d="M283.995 308.678H312.063V336.738H283.995z"/></g><g id="change2_206"><path fill="#f9a72b" d="M283.995 280.617H312.063V308.677H283.995z"/></g><g id="change2_207"><path fill="#f9a72b" d="M283.995 252.557H312.063V280.61699999999996H283.995z"/></g><g id="change2_208"><path fill="#f9a72b" d="M283.995 224.497H312.063V252.55700000000002H283.995z"/></g><g id="change2_209"><path fill="#f9a72b" d="M283.995 196.429H312.063V224.497H283.995z"/></g><g id="change2_210"><path fill="#f9a72b" d="M283.995 168.369H312.063V196.429H283.995z"/></g><g id="change2_211"><path fill="#f9a72b" d="M283.995 140.309H312.063V168.369H283.995z"/></g><g id="change2_212"><path fill="#f9a72b" d="M283.995 112.248H312.063V140.308H283.995z"/></g><g id="change2_213"><path fill="#f9a72b" d="M283.995 84.188H312.063V112.248H283.995z"/></g><g id="change2_214"><path fill="#f9a72b" d="M283.995 56.128H312.063V84.188H283.995z"/></g><g id="change2_215"><path fill="#f9a72b" d="M283.995 28.06H312.063V56.128H283.995z"/></g><g id="change1_45"><path d="M283.995 0H312.063V28.06H283.995z"/></g><g id="change1_46"><path d="M255.934 589.295H283.99399999999997V617.3549999999999H255.934z"/></g><g id="change2_216"><path fill="#f9a72b" d="M255.934 561.228H283.99399999999997V589.2959999999999H255.934z"/></g><g id="change2_217"><path fill="#f9a72b" d="M255.934 533.167H283.99399999999997V561.227H255.934z"/></g><g id="change2_218"><path fill="#f9a72b" d="M255.934 505.107H283.99399999999997V533.167H255.934z"/></g><g id="change2_219"><path fill="#f9a72b" d="M255.934 477.047H283.99399999999997V505.107H255.934z"/></g><g id="change2_220"><path fill="#f9a72b" d="M255.934 448.986H283.99399999999997V477.046H255.934z"/></g><g id="change2_221"><path fill="#f9a72b" d="M255.934 420.926H283.99399999999997V448.986H255.934z"/></g><g id="change2_222"><path fill="#f9a72b" d="M255.934 392.859H283.99399999999997V420.92699999999996H255.934z"/></g><g id="change2_223"><path fill="#f9a72b" d="M255.934 364.798H283.99399999999997V392.858H255.934z"/></g><g id="change2_224"><path fill="#f9a72b" d="M255.934 336.738H283.99399999999997V364.798H255.934z"/></g><g id="change2_225"><path fill="#f9a72b" d="M255.934 308.678H283.99399999999997V336.738H255.934z"/></g><g id="change2_226"><path fill="#f9a72b" d="M255.934 280.617H283.99399999999997V308.677H255.934z"/></g><g id="change2_227"><path fill="#f9a72b" d="M255.934 252.557H283.99399999999997V280.61699999999996H255.934z"/></g><g id="change2_228"><path fill="#f9a72b" d="M255.934 224.497H283.99399999999997V252.55700000000002H255.934z"/></g><g id="change2_229"><path fill="#f9a72b" d="M255.934 196.429H283.99399999999997V224.497H255.934z"/></g><g id="change2_230"><path fill="#f9a72b" d="M255.934 168.369H283.99399999999997V196.429H255.934z"/></g><g id="change2_231"><path fill="#f9a72b" d="M255.934 140.309H283.99399999999997V168.369H255.934z"/></g><g id="change2_232"><path fill="#f9a72b" d="M255.934 112.248H283.99399999999997V140.308H255.934z"/></g><g id="change2_233"><path fill="#f9a72b" d="M255.934 84.188H283.99399999999997V112.248H255.934z"/></g><g id="change2_234"><path fill="#f9a72b" d="M255.934 56.128H283.99399999999997V84.188H255.934z"/></g><g id="change2_235"><path fill="#f9a72b" d="M255.934 28.06H283.99399999999997V56.128H255.934z"/></g><g id="change1_47"><path d="M255.934 0H283.99399999999997V28.06H255.934z"/></g><g id="change1_48"><path d="M227.874 589.295H255.934V617.3549999999999H227.874z"/></g><g id="change2_236"><path fill="#f9a72b" d="M227.874 561.228H255.934V589.2959999999999H227.874z"/></g><g id="change2_237"><path fill="#f9a72b" d="M227.874 533.167H255.934V561.227H227.874z"/></g><g id="change2_238"><path fill="#f9a72b" d="M227.874 505.107H255.934V533.167H227.874z"/></g><g id="change2_239"><path fill="#f9a72b" d="M227.874 477.047H255.934V505.107H227.874z"/></g><g id="change2_240"><path fill="#f9a72b" d="M227.874 448.986H255.934V477.046H227.874z"/></g><g id="change2_241"><path fill="#f9a72b" d="M227.874 420.926H255.934V448.986H227.874z"/></g><g id="change2_242"><path fill="#f9a72b" d="M227.874 392.859H255.934V420.92699999999996H227.874z"/></g><g id="change2_243"><path fill="#f9a72b" d="M227.874 364.798H255.934V392.858H227.874z"/></g><g id="change2_244"><path fill="#f9a72b" d="M227.874 336.738H255.934V364.798H227.874z"/></g><g id="change2_245"><path fill="#f9a72b" d="M227.874 308.678H255.934V336.738H227.874z"/></g><g id="change2_246"><path fill="#f9a72b" d="M227.874 280.617H255.934V308.677H227.874z"/></g><g id="change2_247"><path fill="#f9a72b" d="M227.874 252.557H255.934V280.61699999999996H227.874z"/></g><g id="change2_248"><path fill="#f9a72b" d="M227.874 224.497H255.934V252.55700000000002H227.874z"/></g><g id="change2_249"><path fill="#f9a72b" d="M227.874 196.429H255.934V224.497H227.874z"/></g><g id="change2_250"><path fill="#f9a72b" d="M227.874 168.369H255.934V196.429H227.874z"/></g><g id="change2_251"><path fill="#f9a72b" d="M227.874 140.309H255.934V168.369H227.874z"/></g><g id="change2_252"><path fill="#f9a72b" d="M227.874 112.248H255.934V140.308H227.874z"/></g><g id="change2_253"><path fill="#f9a72b" d="M227.874 84.188H255.934V112.248H227.874z"/></g><g id="change2_254"><path fill="#f9a72b" d="M227.874 56.128H255.934V84.188H227.874z"/></g><g id="change2_255"><path fill="#f9a72b" d="M227.874 28.06H255.934V56.128H227.874z"/></g><g id="change1_49"><path d="M227.874 0H255.934V28.06H227.874z"/></g><g id="change1_50"><path d="M199.814 589.295H227.874V617.3549999999999H199.814z"/></g><g id="change2_256"><path fill="#f9a72b" d="M199.814 561.228H227.874V589.2959999999999H199.814z"/></g><g id="change2_257"><path fill="#f9a72b" d="M199.814 533.167H227.874V561.227H199.814z"/></g><g id="change2_258"><path fill="#f9a72b" d="M199.814 505.107H227.874V533.167H199.814z"/></g><g id="change2_259"><path fill="#f9a72b" d="M199.814 477.047H227.874V505.107H199.814z"/></g><g id="change2_260"><path fill="#f9a72b" d="M199.814 448.986H227.874V477.046H199.814z"/></g><g id="change2_261"><path fill="#f9a72b" d="M199.814 420.926H227.874V448.986H199.814z"/></g><g id="change2_262"><path fill="#f9a72b" d="M199.814 392.859H227.874V420.92699999999996H199.814z"/></g><g id="change2_263"><path fill="#f9a72b" d="M199.814 364.798H227.874V392.858H199.814z"/></g><g id="change2_264"><path fill="#f9a72b" d="M199.814 336.738H227.874V364.798H199.814z"/></g><g id="change2_265"><path fill="#f9a72b" d="M199.814 308.678H227.874V336.738H199.814z"/></g><g id="change2_266"><path fill="#f9a72b" d="M199.814 280.617H227.874V308.677H199.814z"/></g><g id="change2_267"><path fill="#f9a72b" d="M199.814 252.557H227.874V280.61699999999996H199.814z"/></g><g id="change2_268"><path fill="#f9a72b" d="M199.814 224.497H227.874V252.55700000000002H199.814z"/></g><g id="change2_269"><path fill="#f9a72b" d="M199.814 196.429H227.874V224.497H199.814z"/></g><g id="change2_270"><path fill="#f9a72b" d="M199.814 168.369H227.874V196.429H199.814z"/></g><g id="change2_271"><path fill="#f9a72b" d="M199.814 140.309H227.874V168.369H199.814z"/></g><g id="change2_272"><path fill="#f9a72b" d="M199.814 112.248H227.874V140.308H199.814z"/></g><g id="change2_273"><path fill="#f9a72b" d="M199.814 84.188H227.874V112.248H199.814z"/></g><g id="change2_274"><path fill="#f9a72b" d="M199.814 56.128H227.874V84.188H199.814z"/></g><g id="change2_275"><path fill="#f9a72b" d="M199.814 28.06H227.874V56.128H199.814z"/></g><g id="change1_51"><path d="M199.814 0H227.874V28.06H199.814z"/></g><g id="change1_52"><path d="M171.754 589.295H199.814V617.3549999999999H171.754z"/></g><g id="change2_276"><path fill="#f9a72b" d="M171.754 561.228H199.814V589.2959999999999H171.754z"/></g><g id="change2_277"><path fill="#f9a72b" d="M171.754 533.167H199.814V561.227H171.754z"/></g><g id="change2_278"><path fill="#f9a72b" d="M171.754 505.107H199.814V533.167H171.754z"/></g><g id="change2_279"><path fill="#f9a72b" d="M171.754 477.047H199.814V505.107H171.754z"/></g><g id="change2_280"><path fill="#f9a72b" d="M171.754 448.986H199.814V477.046H171.754z"/></g><g id="change2_281"><path fill="#f9a72b" d="M171.754 420.926H199.814V448.986H171.754z"/></g><g id="change2_282"><path fill="#f9a72b" d="M171.754 392.859H199.814V420.92699999999996H171.754z"/></g><g id="change2_283"><path fill="#f9a72b" d="M171.754 364.798H199.814V392.858H171.754z"/></g><g id="change2_284"><path fill="#f9a72b" d="M171.754 336.738H199.814V364.798H171.754z"/></g><g id="change2_285"><path fill="#f9a72b" d="M171.754 308.678H199.814V336.738H171.754z"/></g><g id="change2_286"><path fill="#f9a72b" d="M171.754 280.617H199.814V308.677H171.754z"/></g><g id="change2_287"><path fill="#f9a72b" d="M171.754 252.557H199.814V280.61699999999996H171.754z"/></g><g id="change2_288"><path fill="#f9a72b" d="M171.754 224.497H199.814V252.55700000000002H171.754z"/></g><g id="change2_289"><path fill="#f9a72b" d="M171.754 196.429H199.814V224.497H171.754z"/></g><g id="change2_290"><path fill="#f9a72b" d="M171.754 168.369H199.814V196.429H171.754z"/></g><g id="change2_291"><path fill="#f9a72b" d="M171.754 140.309H199.814V168.369H171.754z"/></g><g id="change2_292"><path fill="#f9a72b" d="M171.754 112.248H199.814V140.308H171.754z"/></g><g id="change2_293"><path fill="#f9a72b" d="M171.754 84.188H199.814V112.248H171.754z"/></g><g id="change2_294"><path fill="#f9a72b" d="M171.754 56.128H199.814V84.188H171.754z"/></g><g id="change2_295"><path fill="#f9a72b" d="M171.754 28.06H199.814V56.128H171.754z"/></g><g id="change1_53"><path d="M171.754 0H199.814V28.06H171.754z"/></g><g id="change1_54"><path d="M143.693 589.295H171.75300000000001V617.3549999999999H143.693z"/></g><g id="change1_55"><path d="M143.693 561.228H171.75300000000001V589.2959999999999H143.693z"/></g><g id="change2_296"><path fill="#f9a72b" d="M143.693 533.167H171.75300000000001V561.227H143.693z"/></g><g id="change2_297"><path fill="#f9a72b" d="M143.693 505.107H171.75300000000001V533.167H143.693z"/></g><g id="change2_298"><path fill="#f9a72b" d="M143.693 477.047H171.75300000000001V505.107H143.693z"/></g><g id="change2_299"><path fill="#f9a72b" d="M143.693 448.986H171.75300000000001V477.046H143.693z"/></g><g id="change2_300"><path fill="#f9a72b" d="M143.693 420.926H171.75300000000001V448.986H143.693z"/></g><g id="change2_301"><path fill="#f9a72b" d="M143.693 392.859H171.75300000000001V420.92699999999996H143.693z"/></g><g id="change2_302"><path fill="#f9a72b" d="M143.693 364.798H171.75300000000001V392.858H143.693z"/></g><g id="change2_303"><path fill="#f9a72b" d="M143.693 336.738H171.75300000000001V364.798H143.693z"/></g><g id="change2_304"><path fill="#f9a72b" d="M143.693 308.678H171.75300000000001V336.738H143.693z"/></g><g id="change2_305"><path fill="#f9a72b" d="M143.693 280.617H171.75300000000001V308.677H143.693z"/></g><g id="change2_306"><path fill="#f9a72b" d="M143.693 252.557H171.75300000000001V280.61699999999996H143.693z"/></g><g id="change2_307"><path fill="#f9a72b" d="M143.693 224.497H171.75300000000001V252.55700000000002H143.693z"/></g><g id="change2_308"><path fill="#f9a72b" d="M143.693 196.429H171.75300000000001V224.497H143.693z"/></g><g id="change2_309"><path fill="#f9a72b" d="M143.693 168.369H171.75300000000001V196.429H143.693z"/></g><g id="change2_310"><path fill="#f9a72b" d="M143.693 140.309H171.75300000000001V168.369H143.693z"/></g><g id="change2_311"><path fill="#f9a72b" d="M143.693 112.248H171.75300000000001V140.308H143.693z"/></g><g id="change2_312"><path fill="#f9a72b" d="M143.693 84.188H171.75300000000001V112.248H143.693z"/></g><g id="change2_313"><path fill="#f9a72b" d="M143.693 56.128H171.75300000000001V84.188H143.693z"/></g><g id="change1_56"><path d="M143.693 28.06H171.75300000000001V56.128H143.693z"/></g><g id="change1_57"><path d="M143.693 0H171.75300000000001V28.06H143.693z"/></g><g id="change1_58"><path d="M115.633 561.228H143.69299999999998V589.2959999999999H115.633z"/></g><g id="change1_59"><path d="M115.633 533.167H143.69299999999998V561.227H115.633z"/></g><g id="change2_314"><path fill="#f9a72b" d="M115.633 505.107H143.69299999999998V533.167H115.633z"/></g><g id="change2_315"><path fill="#f9a72b" d="M115.633 477.047H143.69299999999998V505.107H115.633z"/></g><g id="change2_316"><path fill="#f9a72b" d="M115.633 448.986H143.69299999999998V477.046H115.633z"/></g><g id="change2_317"><path fill="#f9a72b" d="M115.633 420.926H143.69299999999998V448.986H115.633z"/></g><g id="change2_318"><path fill="#f9a72b" d="M115.633 392.859H143.69299999999998V420.92699999999996H115.633z"/></g><g id="change2_319"><path fill="#f9a72b" d="M115.633 364.798H143.69299999999998V392.858H115.633z"/></g><g id="change2_320"><path fill="#f9a72b" d="M115.633 336.738H143.69299999999998V364.798H115.633z"/></g><g id="change2_321"><path fill="#f9a72b" d="M115.633 308.678H143.69299999999998V336.738H115.633z"/></g><g id="change2_322"><path fill="#f9a72b" d="M115.633 280.617H143.69299999999998V308.677H115.633z"/></g><g id="change2_323"><path fill="#f9a72b" d="M115.633 252.557H143.69299999999998V280.61699999999996H115.633z"/></g><g id="change2_324"><path fill="#f9a72b" d="M115.633 224.497H143.69299999999998V252.55700000000002H115.633z"/></g><g id="change2_325"><path fill="#f9a72b" d="M115.633 196.429H143.69299999999998V224.497H115.633z"/></g><g id="change2_326"><path fill="#f9a72b" d="M115.633 168.369H143.69299999999998V196.429H115.633z"/></g><g id="change2_327"><path fill="#f9a72b" d="M115.633 140.309H143.69299999999998V168.369H115.633z"/></g><g id="change2_328"><path fill="#f9a72b" d="M115.633 112.248H143.69299999999998V140.308H115.633z"/></g><g id="change1_60"><path d="M115.633 84.188H143.69299999999998V112.248H115.633z"/></g><g id="change1_61"><path d="M115.633 56.128H143.69299999999998V84.188H115.633z"/></g><g id="change1_62"><path d="M115.633 28.06H143.69299999999998V56.128H115.633z"/></g><g id="change1_63"><path d="M87.565 505.107H115.633V533.167H87.565z"/></g><g id="change1_64"><path d="M87.565 477.047H115.633V505.107H87.565z"/></g><g id="change2_329"><path fill="#f9a72b" d="M87.565 448.986H115.633V477.046H87.565z"/></g><g id="change2_330"><path fill="#f9a72b" d="M87.565 420.926H115.633V448.986H87.565z"/></g><g id="change2_331"><path fill="#f9a72b" d="M87.565 392.859H115.633V420.92699999999996H87.565z"/></g><g id="change2_332"><path fill="#f9a72b" d="M87.565 364.798H115.633V392.858H87.565z"/></g><g id="change2_333"><path fill="#f9a72b" d="M87.565 336.738H115.633V364.798H87.565z"/></g><g id="change2_334"><path fill="#f9a72b" d="M87.565 308.678H115.633V336.738H87.565z"/></g><g id="change2_335"><path fill="#f9a72b" d="M87.565 280.617H115.633V308.677H87.565z"/></g><g id="change2_336"><path fill="#f9a72b" d="M87.565 252.557H115.633V280.61699999999996H87.565z"/></g><g id="change2_337"><path fill="#f9a72b" d="M87.565 224.497H115.633V252.55700000000002H87.565z"/></g><g id="change2_338"><path fill="#f9a72b" d="M87.565 196.429H115.633V224.497H87.565z"/></g><g id="change2_339"><path fill="#f9a72b" d="M87.565 168.369H115.633V196.429H87.565z"/></g><g id="change2_340"><path fill="#f9a72b" d="M87.565 140.309H115.633V168.369H87.565z"/></g><g id="change1_65"><path d="M87.565 112.248H115.633V140.308H87.565z"/></g><g id="change1_66"><path d="M87.565 84.188H115.633V112.248H87.565z"/></g><g id="change1_67"><path d="M59.505 448.986H87.565V477.046H59.505z"/></g><g id="change1_68"><path d="M59.505 420.926H87.565V448.986H59.505z"/></g><g id="change2_341"><path fill="#f9a72b" d="M59.505 392.859H87.565V420.92699999999996H59.505z"/></g><g id="change2_342"><path fill="#f9a72b" d="M59.505 364.798H87.565V392.858H59.505z"/></g><g id="change2_343"><path fill="#f9a72b" d="M59.505 336.738H87.565V364.798H59.505z"/></g><g id="change2_344"><path fill="#f9a72b" d="M59.505 308.678H87.565V336.738H59.505z"/></g><g id="change2_345"><path fill="#f9a72b" d="M59.505 280.617H87.565V308.677H59.505z"/></g><g id="change2_346"><path fill="#f9a72b" d="M59.505 252.557H87.565V280.61699999999996H59.505z"/></g><g id="change2_347"><path fill="#f9a72b" d="M59.505 224.497H87.565V252.55700000000002H59.505z"/></g><g id="change2_348"><path fill="#f9a72b" d="M59.505 196.429H87.565V224.497H59.505z"/></g><g id="change1_69"><path d="M59.505 168.369H87.565V196.429H59.505z"/></g><g id="change1_70"><path d="M59.505 140.309H87.565V168.369H59.505z"/></g><g id="change1_71"><path d="M31.445 392.859H59.504999999999995V420.92699999999996H31.445z"/></g><g id="change1_72"><path d="M31.445 364.798H59.504999999999995V392.858H31.445z"/></g><g id="change2_349"><path fill="#f9a72b" d="M31.445 336.738H59.504999999999995V364.798H31.445z"/></g><g id="change2_350"><path fill="#f9a72b" d="M31.445 308.678H59.504999999999995V336.738H31.445z"/></g><g id="change2_351"><path fill="#f9a72b" d="M31.445 280.617H59.504999999999995V308.677H31.445z"/></g><g id="change2_352"><path fill="#f9a72b" d="M31.445 252.557H59.504999999999995V280.61699999999996H31.445z"/></g><g id="change1_73"><path d="M31.445 224.497H59.504999999999995V252.55700000000002H31.445z"/></g><g id="change1_74"><path d="M31.445 196.429H59.504999999999995V224.497H31.445z"/></g><g id="change1_75"><path d="M3.385 336.738H31.445V364.798H3.385z"/></g><g id="change1_76"><path d="M3.385 308.678H31.445V336.738H3.385z"/></g><g id="change1_77"><path d="M3.385 280.617H31.445V308.677H3.385z"/></g><g id="change1_78"><path d="M3.385 252.557H31.445V280.61699999999996H3.385z"/></g><g id="change1_79"><path d="M3.385 224.497H31.445V252.55700000000002H3.385z"/></g></g></g></g></g></svg>