<?xml version="1.0" encoding="UTF-8"?><svg xmlns="http://www.w3.org/2000/svg" xmlns:xlink="http://www.w3.org/1999/xlink" contentScriptType="text/ecmascript" fill="#000000" width="268.5" zoomAndPan="magnify" contentStyleType="text/css" viewBox="78.3 24.1 268.5 381.2" height="381.2" preserveAspectRatio="xMidYMid meet" version="1"><g><g id="change1_1"><path fill="#f79922" d="M 242.148438 63.886719 C 242.148438 67.394531 239.304688 70.238281 235.796875 70.238281 L 188.941406 70.238281 C 185.433594 70.238281 182.589844 67.394531 182.589844 63.886719 L 182.589844 57.796875 C 182.589844 54.289062 185.433594 51.445312 188.941406 51.445312 L 235.796875 51.445312 C 239.304688 51.445312 242.148438 54.289062 242.148438 57.796875 L 242.148438 63.886719"/></g><g id="change2_1"><path fill="#2e191a" d="M 242.148438 63.886719 L 240.5625 63.886719 C 240.558594 65.207031 240.03125 66.386719 239.164062 67.257812 C 238.296875 68.121094 237.117188 68.652344 235.796875 68.652344 L 188.941406 68.652344 C 187.621094 68.652344 186.4375 68.121094 185.570312 67.257812 C 184.707031 66.386719 184.175781 65.207031 184.175781 63.886719 L 184.175781 57.796875 C 184.175781 56.476562 184.707031 55.296875 185.570312 54.429688 C 186.4375 53.566406 187.621094 53.035156 188.941406 53.035156 L 235.796875 53.035156 C 237.117188 53.035156 238.296875 53.566406 239.164062 54.429688 C 240.03125 55.296875 240.558594 56.476562 240.5625 57.796875 L 240.5625 63.886719 L 243.738281 63.886719 L 243.738281 57.796875 C 243.738281 53.410156 240.183594 49.859375 235.796875 49.855469 L 188.941406 49.855469 C 184.554688 49.859375 181 53.410156 181 57.796875 L 181 63.886719 C 181 68.273438 184.554688 71.828125 188.941406 71.828125 L 235.796875 71.828125 C 240.183594 71.828125 243.738281 68.273438 243.738281 63.886719 L 242.148438 63.886719"/></g><g id="change3_1"><path fill="#804b3a" d="M 125.054688 198.757812 L 301.882812 198.757812 L 301.882812 64.28125 L 125.054688 64.28125 Z M 125.054688 198.757812"/></g><g id="change2_2"><path fill="#2e191a" d="M 305.058594 61.105469 L 121.878906 61.105469 L 121.878906 201.9375 L 305.058594 201.9375 L 305.058594 61.105469 M 298.707031 67.460938 L 298.707031 195.582031 L 128.230469 195.582031 L 128.230469 67.460938 L 298.707031 67.460938"/></g><g id="change4_1"><path fill="#552e25" d="M 137.320312 200.179688 C 136.535156 200.179688 135.898438 199.546875 135.898438 198.761719 L 135.898438 96.3125 C 135.898438 95.527344 136.535156 94.894531 137.320312 94.894531 L 289.613281 94.894531 C 290.398438 94.894531 291.035156 95.527344 291.035156 96.3125 L 291.035156 198.761719 C 291.035156 199.546875 290.398438 200.179688 289.613281 200.179688 L 137.320312 200.179688"/></g><g id="change2_3"><path fill="#2e191a" d="M 289.613281 93.472656 L 137.320312 93.472656 C 135.753906 93.472656 134.480469 94.746094 134.480469 96.3125 L 134.480469 198.761719 C 134.480469 200.328125 135.753906 201.601562 137.320312 201.601562 L 289.613281 201.601562 C 291.183594 201.601562 292.457031 200.328125 292.457031 198.761719 L 292.457031 96.3125 C 292.457031 94.746094 291.183594 93.472656 289.613281 93.472656 M 289.613281 96.3125 L 289.613281 198.761719 L 137.320312 198.761719 L 137.320312 96.3125 L 289.613281 96.3125"/></g><g id="change3_2"><path fill="#804b3a" d="M 81.863281 233.707031 C 81.152344 233.707031 80.527344 233.234375 80.332031 232.550781 C 80.136719 231.867188 80.417969 231.136719 81.023438 230.761719 L 134.628906 197.40625 C 134.878906 197.25 135.171875 197.167969 135.46875 197.167969 L 289.613281 197.167969 C 289.910156 197.167969 290.203125 197.25 290.453125 197.40625 L 344.175781 230.761719 C 344.78125 231.136719 345.0625 231.867188 344.867188 232.550781 C 344.671875 233.234375 344.046875 233.707031 343.335938 233.707031 L 81.863281 233.707031"/></g><g id="change2_4"><path fill="#2e191a" d="M 289.613281 195.574219 L 135.46875 195.574219 C 134.875 195.574219 134.289062 195.742188 133.785156 196.058594 L 80.179688 229.410156 C 78.972656 230.160156 78.410156 231.621094 78.800781 232.988281 C 79.191406 234.355469 80.441406 235.296875 81.863281 235.296875 L 343.335938 235.296875 C 344.757812 235.296875 346.007812 234.355469 346.398438 232.988281 C 346.789062 231.617188 346.226562 230.160156 345.015625 229.410156 L 291.292969 196.054688 C 290.789062 195.742188 290.207031 195.574219 289.613281 195.574219 M 289.613281 198.761719 L 343.335938 232.113281 L 81.863281 232.113281 L 135.46875 198.761719 L 289.613281 198.761719"/></g><g id="change5_1"><path fill="#623629" d="M 95.871094 233.535156 C 95.234375 233.535156 94.679688 233.113281 94.503906 232.503906 C 94.332031 231.894531 94.582031 231.242188 95.121094 230.90625 L 142.980469 201.125 C 143.207031 200.984375 143.46875 200.910156 143.730469 200.910156 L 281.363281 200.910156 C 281.628906 200.910156 281.886719 200.984375 282.113281 201.125 L 330.078125 230.90625 C 330.617188 231.242188 330.871094 231.894531 330.695312 232.503906 C 330.523438 233.113281 329.964844 233.535156 329.328125 233.535156 L 95.871094 233.535156"/></g><g id="change2_5"><path fill="#2e191a" d="M 281.363281 199.488281 L 143.730469 199.488281 C 143.203125 199.488281 142.683594 199.640625 142.230469 199.917969 L 94.367188 229.699219 C 93.292969 230.371094 92.789062 231.675781 93.136719 232.894531 C 93.484375 234.113281 94.601562 234.957031 95.871094 234.957031 L 329.328125 234.957031 C 330.597656 234.957031 331.714844 234.113281 332.0625 232.894531 C 332.410156 231.671875 331.90625 230.367188 330.828125 229.699219 L 282.863281 199.917969 C 282.414062 199.640625 281.894531 199.488281 281.363281 199.488281 M 281.363281 202.332031 L 329.328125 232.113281 L 95.871094 232.113281 L 143.730469 202.332031 L 281.363281 202.332031"/></g><g id="change3_3"><path fill="#804b3a" d="M 81.464844 402.0625 L 81.464844 234.496094 L 343.535156 234.496094 L 343.535156 402.0625 L 81.464844 402.0625"/></g><g id="change2_6"><path fill="#2e191a" d="M 346.710938 231.320312 L 78.289062 231.320312 L 78.289062 405.238281 L 346.710938 405.238281 Z M 340.359375 237.671875 L 340.359375 398.882812 L 84.644531 398.882812 L 84.644531 237.671875 L 340.359375 237.671875"/></g><g id="change1_2"><path fill="#f79922" d="M 340.359375 360.765625 L 312.5625 360.765625 L 312.5625 237.671875 L 298.269531 237.671875 L 298.269531 360.765625 L 122.761719 360.765625 L 122.761719 237.671875 L 108.46875 237.671875 L 108.46875 360.765625 L 84.644531 360.765625 L 84.644531 371.882812 L 108.46875 371.882812 L 108.46875 398.882812 L 122.761719 398.882812 L 122.761719 371.882812 L 298.269531 371.882812 L 298.269531 398.882812 L 312.5625 398.882812 L 312.5625 371.882812 L 340.359375 371.882812 L 340.359375 360.765625"/></g><g id="change2_7"><path fill="#2e191a" d="M 340.359375 360.765625 L 340.359375 359.175781 L 314.152344 359.175781 L 314.152344 236.085938 L 296.679688 236.085938 L 296.679688 359.175781 L 124.351562 359.175781 L 124.351562 236.085938 L 106.878906 236.085938 L 106.878906 359.175781 L 83.054688 359.175781 L 83.054688 373.472656 L 106.878906 373.472656 L 106.878906 400.472656 L 124.351562 400.472656 L 124.351562 373.472656 L 296.679688 373.472656 L 296.679688 400.472656 L 314.152344 400.472656 L 314.152344 373.472656 L 341.945312 373.472656 L 341.945312 359.175781 L 340.359375 359.175781 L 340.359375 360.765625 L 338.769531 360.765625 L 338.769531 370.292969 L 310.976562 370.292969 L 310.976562 397.296875 L 299.855469 397.296875 L 299.855469 370.292969 L 121.171875 370.292969 L 121.171875 397.296875 L 110.054688 397.296875 L 110.054688 370.292969 L 86.230469 370.292969 L 86.230469 362.355469 L 110.054688 362.355469 L 110.054688 239.261719 L 121.171875 239.261719 L 121.171875 362.355469 L 299.855469 362.355469 L 299.855469 239.261719 L 310.976562 239.261719 L 310.976562 362.355469 L 340.359375 362.355469 L 340.359375 360.765625 L 338.769531 360.765625 L 340.359375 360.765625"/></g><g id="change1_3"><path fill="#f79922" d="M 340.359375 247.203125 L 84.644531 247.203125 L 84.644531 237.671875 L 340.359375 237.671875 L 340.359375 247.203125"/></g><g id="change2_8"><path fill="#2e191a" d="M 340.359375 247.203125 L 340.359375 245.613281 L 86.230469 245.613281 L 86.230469 239.261719 L 338.769531 239.261719 L 338.769531 247.203125 L 340.359375 247.203125 L 340.359375 245.613281 L 340.359375 247.203125 L 341.945312 247.203125 L 341.945312 236.085938 L 83.054688 236.085938 L 83.054688 248.789062 L 341.945312 248.789062 L 341.945312 247.203125 L 340.359375 247.203125"/></g><g id="change1_4"><path fill="#f79922" d="M 190.265625 310.734375 L 190.265625 265.46875 L 232.355469 265.46875 L 232.355469 310.734375 L 190.265625 310.734375"/></g><g id="change2_9"><path fill="#2e191a" d="M 233.941406 263.878906 L 188.675781 263.878906 L 188.675781 312.324219 L 233.941406 312.324219 Z M 230.765625 267.058594 L 230.765625 309.144531 L 191.855469 309.144531 L 191.855469 267.058594 L 230.765625 267.058594"/></g><g id="change1_5"><path fill="#f79922" d="M 227.191406 288.894531 C 227.191406 291.746094 224.882812 294.058594 222.03125 294.058594 L 201.382812 294.058594 C 198.53125 294.058594 196.222656 291.746094 196.222656 288.894531 C 196.222656 286.042969 198.53125 283.734375 201.382812 283.734375 L 222.03125 283.734375 C 224.882812 283.734375 227.191406 286.042969 227.191406 288.894531"/></g><g id="change2_10"><path fill="#2e191a" d="M 227.191406 288.894531 L 225.605469 288.894531 C 225.601562 289.886719 225.207031 290.769531 224.558594 291.421875 C 223.90625 292.070312 223.023438 292.46875 222.03125 292.46875 L 201.382812 292.46875 C 200.390625 292.46875 199.507812 292.070312 198.855469 291.421875 C 198.207031 290.769531 197.808594 289.886719 197.808594 288.894531 C 197.808594 287.902344 198.207031 287.019531 198.855469 286.367188 C 199.507812 285.71875 200.390625 285.320312 201.382812 285.320312 L 222.03125 285.320312 C 223.023438 285.320312 223.90625 285.71875 224.558594 286.367188 C 225.207031 287.019531 225.601562 287.902344 225.605469 288.894531 L 228.78125 288.894531 C 228.78125 285.167969 225.757812 282.144531 222.03125 282.144531 L 201.382812 282.144531 C 197.652344 282.144531 194.632812 285.164062 194.632812 288.894531 C 194.632812 292.625 197.652344 295.644531 201.382812 295.644531 L 222.03125 295.644531 C 225.761719 295.644531 228.78125 292.621094 228.78125 288.894531 L 227.191406 288.894531"/></g><g id="change2_11"><path fill="#2e191a" d="M 142.3125 232.113281 L 145.152344 232.113281 L 145.152344 202.332031 L 142.3125 202.332031 Z M 142.3125 232.113281"/></g><g id="change2_12"><path fill="#2e191a" d="M 279.941406 231.714844 L 282.785156 231.714844 L 282.785156 202.332031 L 279.941406 202.332031 Z M 279.941406 231.714844"/></g><g id="change2_13"><path fill="#2e191a" d="M 134.609375 97.4375 L 152.808594 115.636719 L 152.808594 198.761719 L 155.984375 198.761719 L 155.984375 114.320312 L 136.855469 95.191406 L 134.609375 97.4375"/></g><g id="change2_14"><path fill="#2e191a" d="M 289.867188 95.191406 L 270.738281 114.320312 L 270.738281 198.761719 L 273.914062 198.761719 L 273.914062 115.636719 L 292.113281 97.4375 L 289.867188 95.191406"/></g><g id="change2_15"><path fill="#2e191a" d="M 154.394531 116.566406 L 272.328125 116.566406 L 272.328125 113.386719 L 154.394531 113.386719 Z M 154.394531 116.566406"/></g><g id="change6_1"><path fill="#ffffff" d="M 284.859375 131.519531 C 289.59375 139.277344 284.859375 144.019531 283.546875 145.128906 C 291.011719 139.402344 297.113281 146.726562 297.113281 146.726562 C 297.113281 146.726562 291.253906 139.207031 298.433594 133.128906 C 297.070312 134.179688 291.429688 137.796875 284.859375 131.519531"/></g><g id="change7_1"><path fill="#eef1f5" d="M 205.632812 203.464844 L 90.964844 79.472656 L 132.34375 26.234375 L 288.566406 26.234375 L 329.941406 79.472656 L 215.273438 203.464844 L 205.632812 203.464844"/></g><g id="change2_16"><path fill="#2e191a" d="M 289.628906 24.066406 L 131.28125 24.066406 L 129.976562 25.742188 L 90.382812 76.6875 L 88.125 79.59375 L 90.621094 82.296875 L 203.398438 204.242188 L 204.6875 205.632812 L 216.222656 205.632812 L 217.507812 204.242188 L 330.285156 82.296875 L 332.785156 79.59375 L 330.523438 76.6875 L 290.929688 25.742188 L 289.628906 24.066406 M 287.503906 28.402344 L 327.101562 79.351562 L 214.324219 201.296875 L 206.582031 201.296875 L 93.804688 79.351562 L 133.402344 28.402344 L 287.503906 28.402344"/></g><g id="change8_1"><path fill="#c2d1de" d="M 210.882812 201.296875 L 206.582031 201.296875 L 93.804688 79.351562 L 133.402344 28.402344 L 234.714844 28.402344 L 213.53125 78.6875 L 238.082031 78.6875 L 210.882812 201.296875"/></g><g id="change9_1"><path fill="#81aac2" d="M 133.402344 28.402344 L 93.804688 79.351562 L 206.582031 201.296875 L 209.632812 201.296875 L 167.039062 79.496094 L 115.339844 78.6875 C 115.339844 78.6875 170.648438 43.410156 194.378906 28.402344 L 133.402344 28.402344"/></g><g id="change2_17"><path fill="#2e191a" d="M 93.804688 81.519531 L 327.101562 81.519531 L 327.101562 77.183594 L 93.804688 77.183594 Z M 93.804688 81.519531"/></g><g id="change2_18"><path fill="#2e191a" d="M 131.75 27.632812 L 172.363281 80.671875 C 172.773438 81.203125 173.398438 81.515625 174.074219 81.519531 C 174.746094 81.523438 175.378906 81.21875 175.792969 80.6875 L 213.78125 32.085938 L 246.679688 80.570312 C 247.066406 81.144531 247.714844 81.5 248.410156 81.519531 C 249.105469 81.539062 249.769531 81.222656 250.195312 80.671875 L 289.226562 29.722656 L 285.785156 27.085938 L 248.578125 75.644531 L 215.699219 27.1875 C 215.308594 26.609375 214.671875 26.261719 213.976562 26.238281 C 213.28125 26.214844 212.625 26.519531 212.195312 27.070312 L 174.101562 75.808594 L 135.195312 24.996094 L 131.75 27.636719"/></g><g id="change2_19"><path fill="#2e191a" d="M 145.738281 80.285156 L 204.625 204.011719 L 208.539062 202.148438 L 149.65625 78.421875"/></g><g id="change2_20"><path fill="#2e191a" d="M 273.253906 78.40625 L 213.070312 202.691406 L 216.972656 204.582031 L 277.15625 80.296875"/></g><g id="change6_2"><path fill="#ffffff" d="M 134.570312 148.574219 C 145.265625 166.074219 134.578125 176.785156 131.613281 179.28125 C 148.460938 166.363281 162.234375 182.890625 162.234375 182.890625 C 162.234375 182.890625 149.007812 165.921875 165.207031 152.199219 C 162.140625 154.570312 149.40625 162.738281 134.570312 148.574219"/></g></g></svg>