<?xml version="1.0" encoding="UTF-8"?><svg xmlns="http://www.w3.org/2000/svg" xmlns:xlink="http://www.w3.org/1999/xlink" contentScriptType="text/ecmascript" fill="#000000" width="2390.8" zoomAndPan="magnify" contentStyleType="text/css" viewBox="0.0 -0.0 2390.8 1882.2" height="1882.2" preserveAspectRatio="xMidYMid meet" version="1"><g><g><path fill="#52c6f3" d="M 2390.769531 1882.238281 L 0 1882.238281 L 0 -0.00390625 L 2390.769531 -0.00390625 L 2390.769531 1882.238281"/></g><g><path fill="#69ceef" d="M 2390.769531 1448.769531 L 2390.769531 433.464844 L 2373.535156 433.464844 L 2373.535156 515.570312 L 2341.339844 515.570312 L 2341.339844 433.464844 L 2289.34375 433.464844 L 2289.34375 487.257812 L 2205.15625 487.257812 L 2205.15625 569.363281 L 2130.867188 569.363281 L 2130.867188 433.464844 L 2071.433594 433.464844 L 2071.433594 512.746094 L 1989.738281 512.746094 L 1989.738281 433.464844 L 1932.785156 433.464844 L 1932.785156 507.074219 L 1863.449219 507.074219 L 1863.449219 433.464844 L 1781.738281 433.464844 L 1781.738281 467.4375 L 1667.832031 467.4375 L 1667.832031 433.464844 L 1598.5 433.464844 L 1598.5 532.5625 L 1531.648438 532.5625 L 1531.648438 433.464844 L 1479.652344 433.464844 L 1479.652344 487.257812 L 1383.078125 487.257812 L 1383.078125 552.382812 L 1291.46875 552.382812 L 1291.46875 461.78125 L 1229.558594 461.78125 L 1229.558594 509.910156 L 1175.089844 509.910156 L 1175.089844 453.289062 L 1098.328125 453.289062 L 1098.328125 521.238281 L 984.429688 521.238281 L 984.429688 433.464844 L 892.8125 433.464844 L 892.8125 475.933594 L 816.054688 475.933594 L 816.054688 433.464844 L 746.722656 433.464844 L 746.722656 473.105469 L 642.726562 473.105469 L 642.726562 543.882812 L 575.871094 543.882812 L 575.871094 433.464844 L 516.445312 433.464844 L 516.445312 492.925781 L 432.253906 492.925781 L 432.253906 433.464844 L 390.160156 433.464844 L 390.160156 470.273438 L 261.402344 470.273438 L 261.402344 560.875 L 201.976562 560.875 L 201.976562 433.464844 L 112.835938 433.464844 L 112.835938 484.425781 L 0 484.425781 L 0 1448.769531 L 2390.769531 1448.769531"/></g><g><path fill="#85d7f0" d="M 2390.769531 1882.238281 L 2390.769531 866.933594 L 2373.535156 866.933594 L 2373.535156 949.039062 L 2341.339844 949.039062 L 2341.339844 866.933594 L 2289.34375 866.933594 L 2289.34375 920.726562 L 2205.15625 920.726562 L 2205.15625 1002.828125 L 2130.867188 1002.828125 L 2130.867188 866.933594 L 2071.433594 866.933594 L 2071.433594 946.207031 L 1989.738281 946.207031 L 1989.738281 866.933594 L 1932.785156 866.933594 L 1932.785156 940.546875 L 1863.449219 940.546875 L 1863.449219 866.933594 L 1781.738281 866.933594 L 1781.738281 900.910156 L 1667.832031 900.910156 L 1667.832031 866.933594 L 1598.5 866.933594 L 1598.5 966.027344 L 1531.648438 966.027344 L 1531.648438 866.933594 L 1479.652344 866.933594 L 1479.652344 920.726562 L 1383.078125 920.726562 L 1383.078125 985.84375 L 1291.46875 985.84375 L 1291.46875 895.246094 L 1229.558594 895.246094 L 1229.558594 943.375 L 1175.089844 943.375 L 1175.089844 886.75 L 1098.328125 886.75 L 1098.328125 954.699219 L 984.429688 954.699219 L 984.429688 866.933594 L 892.8125 866.933594 L 892.8125 909.398438 L 816.054688 909.398438 L 816.054688 866.933594 L 746.722656 866.933594 L 746.722656 906.570312 L 642.726562 906.570312 L 642.726562 977.351562 L 575.871094 977.351562 L 575.871094 866.933594 L 516.445312 866.933594 L 516.445312 926.390625 L 432.253906 926.390625 L 432.253906 866.933594 L 390.160156 866.933594 L 390.160156 903.738281 L 261.402344 903.738281 L 261.402344 994.335938 L 201.976562 994.335938 L 201.976562 866.933594 L 112.835938 866.933594 L 112.835938 917.898438 L 0 917.898438 L 0 1882.238281 L 2390.769531 1882.238281"/></g><g><path fill="#8eca4d" d="M 2390.769531 1313.429688 L 1699.425781 1313.429688 L 1699.425781 1577.519531 L 2390.769531 1577.519531 L 2390.769531 1313.429688"/></g><g><path fill="#75a73f" d="M 2390.769531 1358.609375 L 2338.539062 1358.609375 L 2338.539062 1412.789062 L 2233.582031 1412.789062 L 2233.582031 1450.03125 L 2081.214844 1450.03125 L 2081.214844 1544.839844 L 2013.484375 1544.839844 L 2013.484375 1412.789062 L 1925.464844 1412.789062 L 1925.464844 1460.191406 L 1810.339844 1460.191406 L 1810.339844 1527.910156 L 1699.425781 1527.910156 L 1699.425781 1577.519531 L 2390.769531 1577.519531 L 2390.769531 1358.609375"/></g><g><path fill="#70402b" d="M 2390.769531 1577.519531 L 1699.425781 1577.519531 L 1699.425781 1882.238281 L 2390.769531 1882.238281 L 2390.769531 1577.519531"/></g><g><path fill="#874b32" d="M 2390.769531 1812.320312 L 2390.769531 1666.730469 L 2375.792969 1666.730469 L 2375.792969 1717.519531 L 2291.136719 1717.519531 L 2291.136719 1659.960938 L 2213.265625 1659.960938 L 2213.265625 1612.550781 L 2182.789062 1612.550781 L 2182.789062 1649.800781 L 2155.710938 1649.800781 L 2155.710938 1703.980469 L 2098.15625 1703.980469 L 2098.15625 1649.800781 L 2023.648438 1649.800781 L 2023.648438 1717.519531 L 1966.09375 1717.519531 L 1966.09375 1629.480469 L 1857.746094 1629.480469 L 1857.746094 1666.730469 L 1766.324219 1666.730469 L 1766.324219 1727.679688 L 1699.425781 1727.679688 L 1699.425781 1788.621094 L 1779.875 1788.621094 L 1779.875 1882.238281 L 1823.894531 1882.238281 L 1823.894531 1758.148438 L 1888.222656 1758.148438 L 1888.222656 1819.101562 L 1935.613281 1819.101562 L 1935.613281 1778.460938 L 2040.589844 1778.460938 L 2040.589844 1832.640625 L 2091.382812 1832.640625 L 2091.382812 1781.851562 L 2189.5625 1781.851562 L 2189.5625 1842.800781 L 2264.058594 1842.800781 L 2264.058594 1798.78125 L 2328.390625 1798.78125 L 2328.390625 1812.320312 L 2390.769531 1812.320312"/></g><g><path fill="#70402b" d="M 2225.976562 1707.867188 L 2181.101562 1707.867188 L 2181.101562 1751.878906 L 2225.976562 1751.878906 L 2225.976562 1707.867188"/></g><g><path fill="#70402b" d="M 2326.695312 1742.289062 L 2281.832031 1742.289062 L 2281.832031 1786.308594 L 2326.695312 1786.308594 L 2326.695312 1742.289062"/></g><g><path fill="#70402b" d="M 2136.246094 1751.878906 L 2091.382812 1751.878906 L 2091.382812 1795.898438 L 2136.246094 1795.898438 L 2136.246094 1751.878906"/></g><g><path fill="#70402b" d="M 1980.484375 1755.058594 L 1935.625 1755.058594 L 1935.625 1799.070312 L 1980.484375 1799.070312 L 1980.484375 1755.058594"/></g><g><path fill="#70402b" d="M 1901.476562 1663.851562 L 1856.609375 1663.851562 L 1856.609375 1707.871094 L 1901.476562 1707.871094 L 1901.476562 1663.851562"/></g><g><path fill="#70402b" d="M 1784.101562 1726.488281 L 1739.234375 1726.488281 L 1739.234375 1770.507812 L 1784.101562 1770.507812 L 1784.101562 1726.488281"/></g><g><path fill="#70402b" d="M 2220.042969 1536.890625 L 2165.863281 1536.890625 L 2165.863281 1580.910156 L 2220.042969 1580.910156 L 2220.042969 1536.890625"/></g><g><path fill="#70402b" d="M 1959.324219 1555.507812 L 1905.148438 1555.507812 L 1905.148438 1599.519531 L 1959.324219 1599.519531 L 1959.324219 1555.507812"/></g><g><path fill="#75a73f" d="M 2165.863281 1558.898438 L 2111.6875 1558.898438 L 2111.6875 1602.910156 L 2165.863281 1602.910156 L 2165.863281 1558.898438"/></g><g><path fill="#75a73f" d="M 2326.695312 1556.6875 L 2272.523438 1556.6875 L 2272.523438 1600.699219 L 2326.695312 1600.699219 L 2326.695312 1556.6875"/></g><g><path fill="#75a73f" d="M 2052.445312 1568.207031 L 1998.265625 1568.207031 L 1998.265625 1612.21875 L 2052.445312 1612.21875 L 2052.445312 1568.207031"/></g><g><path fill="#75a73f" d="M 1840.824219 1555.507812 L 1786.648438 1555.507812 L 1786.648438 1599.519531 L 1840.824219 1599.519531 L 1840.824219 1555.507812"/></g><g><path fill="#8eca4d" d="M 1741.964844 1577.519531 L 0 1577.519531 L 0 1313.429688 L 1741.964844 1313.429688 L 1741.964844 1577.519531"/></g><g><path fill="#75a73f" d="M 1692.132812 1382.308594 L 1692.132812 1422.949219 L 1658.277344 1422.949219 L 1658.277344 1463.570312 L 1580.390625 1463.570312 L 1580.390625 1497.429688 L 1505.902344 1497.429688 L 1505.902344 1439.867188 L 1472.046875 1439.867188 L 1472.046875 1422.949219 L 1404.324219 1422.949219 L 1404.324219 1402.628906 L 1343.386719 1402.628906 L 1343.386719 1453.410156 L 1312.917969 1453.410156 L 1312.917969 1527.910156 L 1279.050781 1527.910156 L 1279.050781 1453.410156 L 1224.867188 1453.410156 L 1224.867188 1385.699219 L 1187.625 1385.699219 L 1187.625 1480.507812 L 1065.734375 1480.507812 L 1065.734375 1389.078125 L 954 1389.078125 L 954 1456.800781 L 893.054688 1456.800781 L 893.054688 1490.660156 L 815.175781 1490.660156 L 815.175781 1446.640625 L 788.09375 1446.640625 L 788.09375 1466.957031 L 710.210938 1466.957031 L 710.210938 1358.609375 L 639.109375 1358.609375 L 639.109375 1412.789062 L 534.144531 1412.789062 L 534.144531 1450.027344 L 381.777344 1450.027344 L 381.777344 1544.839844 L 314.0625 1544.839844 L 314.0625 1412.789062 L 226.023438 1412.789062 L 226.023438 1460.1875 L 110.902344 1460.1875 L 110.902344 1527.910156 L 0 1527.910156 L 0 1577.519531 L 1741.964844 1577.519531 L 1741.964844 1382.308594 L 1692.132812 1382.308594"/></g><g><path fill="#70402b" d="M 1741.964844 1882.238281 L 0 1882.238281 L 0 1577.519531 L 1741.964844 1577.519531 L 1741.964844 1882.238281"/></g><g><path fill="#874b32" d="M 1685.355469 1734.449219 L 1741.964844 1734.449219 L 1741.964844 1703.980469 L 1705.671875 1703.980469 L 1705.671875 1609.167969 L 1610.878906 1609.167969 L 1610.878906 1663.339844 L 1505.902344 1663.339844 L 1505.902344 1577.519531 L 1468.667969 1577.519531 L 1468.667969 1649.800781 L 1421.25 1649.800781 L 1421.25 1676.890625 L 1360.304688 1676.890625 L 1360.304688 1649.800781 L 1268.898438 1649.800781 L 1268.898438 1690.429688 L 1180.847656 1690.429688 L 1180.847656 1577.519531 L 1163.933594 1577.519531 L 1163.933594 1643.03125 L 1058.960938 1643.03125 L 1058.960938 1714.128906 L 930.292969 1714.128906 L 930.292969 1659.960938 L 845.652344 1659.960938 L 845.652344 1629.480469 L 818.558594 1629.480469 L 818.558594 1734.449219 L 723.761719 1734.449219 L 723.761719 1666.730469 L 676.359375 1666.730469 L 676.359375 1717.519531 L 591.707031 1717.519531 L 591.707031 1659.960938 L 513.832031 1659.960938 L 513.832031 1612.546875 L 483.355469 1612.546875 L 483.355469 1649.800781 L 456.273438 1649.800781 L 456.273438 1703.980469 L 398.714844 1703.980469 L 398.714844 1649.800781 L 324.21875 1649.800781 L 324.21875 1717.519531 L 266.65625 1717.519531 L 266.65625 1629.480469 L 158.308594 1629.480469 L 158.308594 1666.730469 L 66.882812 1666.730469 L 66.882812 1727.679688 L 0 1727.679688 L 0 1788.621094 L 80.433594 1788.621094 L 80.433594 1882.238281 L 124.453125 1882.238281 L 124.453125 1758.148438 L 188.785156 1758.148438 L 188.785156 1819.101562 L 236.1875 1819.101562 L 236.1875 1778.460938 L 341.152344 1778.460938 L 341.152344 1832.640625 L 391.941406 1832.640625 L 391.941406 1781.851562 L 490.125 1781.851562 L 490.125 1842.800781 L 564.621094 1842.800781 L 564.621094 1798.78125 L 628.953125 1798.78125 L 628.953125 1812.320312 L 723.761719 1812.320312 L 723.761719 1778.460938 L 889.671875 1778.460938 L 889.671875 1758.148438 L 1096.207031 1758.148438 L 1096.207031 1832.640625 L 1126.6875 1832.640625 L 1126.6875 1792.007812 L 1292.589844 1792.007812 L 1292.589844 1882.238281 L 1356.925781 1882.238281 L 1356.925781 1734.449219 L 1424.648438 1734.449219 L 1424.648438 1805.550781 L 1475.433594 1805.550781 L 1475.433594 1754.757812 L 1593.941406 1754.757812 L 1593.941406 1856.339844 L 1675.203125 1856.339844 L 1675.203125 1812.320312 L 1685.355469 1812.320312 L 1685.355469 1734.449219"/></g><g><path fill="#95644d" d="M 1677.828125 1635.070312 L 1694.5625 1635.070312 L 1694.5625 1634.289062 C 1688.972656 1634.460938 1683.410156 1634.71875 1677.828125 1635.070312"/></g><g><path fill="#70402b" d="M 1577 1536.890625 L 1522.828125 1536.890625 L 1522.828125 1580.910156 L 1577 1580.910156 L 1577 1536.890625"/></g><g><path fill="#70402b" d="M 1038.648438 1536.890625 L 984.46875 1536.890625 L 984.46875 1580.910156 L 1038.648438 1580.910156 L 1038.648438 1536.890625"/></g><g><path fill="#70402b" d="M 754.226562 1536.890625 L 700.054688 1536.890625 L 700.054688 1580.910156 L 754.226562 1580.910156 L 754.226562 1536.890625"/></g><g><path fill="#70402b" d="M 526.53125 1707.871094 L 481.660156 1707.871094 L 481.660156 1751.878906 L 526.53125 1751.878906 L 526.53125 1707.871094"/></g><g><path fill="#70402b" d="M 627.257812 1742.289062 L 582.398438 1742.289062 L 582.398438 1786.308594 L 627.257812 1786.308594 L 627.257812 1742.289062"/></g><g><path fill="#70402b" d="M 900.957031 1681.339844 L 856.085938 1681.339844 L 856.085938 1725.359375 L 900.957031 1725.359375 L 900.957031 1681.339844"/></g><g><path fill="#70402b" d="M 856.65625 1746.238281 L 811.785156 1746.238281 L 811.785156 1790.261719 L 856.65625 1790.261719 L 856.65625 1746.238281"/></g><g><path fill="#70402b" d="M 1024.261719 1695.449219 L 979.390625 1695.449219 L 979.390625 1739.46875 L 1024.261719 1739.46875 L 1024.261719 1695.449219"/></g><g><path fill="#70402b" d="M 1159.691406 1707.871094 L 1114.828125 1707.871094 L 1114.828125 1751.878906 L 1159.691406 1751.878906 L 1159.691406 1707.871094"/></g><g><path fill="#70402b" d="M 1235.878906 1729.878906 L 1191.011719 1729.878906 L 1191.011719 1773.898438 L 1235.878906 1773.898438 L 1235.878906 1729.878906"/></g><g><path fill="#70402b" d="M 1341.691406 1673.441406 L 1296.820312 1673.441406 L 1296.820312 1717.460938 L 1341.691406 1717.460938 L 1341.691406 1673.441406"/></g><g><path fill="#70402b" d="M 1458.070312 1688.679688 L 1413.210938 1688.679688 L 1413.210938 1732.699219 L 1458.070312 1732.699219 L 1458.070312 1688.679688"/></g><g><path fill="#70402b" d="M 1638.65625 1673.4375 L 1593.796875 1673.4375 L 1593.796875 1717.460938 L 1638.65625 1717.460938 L 1638.65625 1673.4375"/></g><g><path fill="#70402b" d="M 1673.082031 1751.878906 L 1628.214844 1751.878906 L 1628.214844 1795.898438 L 1673.082031 1795.898438 L 1673.082031 1751.878906"/></g><g><path fill="#70402b" d="M 1567.699219 1729.878906 L 1522.828125 1729.878906 L 1522.828125 1773.898438 L 1567.699219 1773.898438 L 1567.699219 1729.878906"/></g><g><path fill="#70402b" d="M 1373.511719 1801.539062 L 1328.640625 1801.539062 L 1328.640625 1845.558594 L 1373.511719 1845.558594 L 1373.511719 1801.539062"/></g><g><path fill="#70402b" d="M 436.800781 1751.878906 L 391.941406 1751.878906 L 391.941406 1795.898438 L 436.800781 1795.898438 L 436.800781 1751.878906"/></g><g><path fill="#70402b" d="M 281.050781 1755.058594 L 236.1875 1755.058594 L 236.1875 1799.070312 L 281.050781 1799.070312 L 281.050781 1755.058594"/></g><g><path fill="#70402b" d="M 202.046875 1663.851562 L 157.175781 1663.851562 L 157.175781 1707.871094 L 202.046875 1707.871094 L 202.046875 1663.851562"/></g><g><path fill="#70402b" d="M 84.660156 1726.488281 L 39.800781 1726.488281 L 39.800781 1770.511719 L 84.660156 1770.511719 L 84.660156 1726.488281"/></g><g><path fill="#70402b" d="M 520.601562 1536.890625 L 466.429688 1536.890625 L 466.429688 1580.910156 L 520.601562 1580.910156 L 520.601562 1536.890625"/></g><g><path fill="#70402b" d="M 1201.171875 1556.691406 L 1146.988281 1556.691406 L 1146.988281 1600.699219 L 1201.171875 1600.699219 L 1201.171875 1556.691406"/></g><g><path fill="#70402b" d="M 1378.160156 1555.511719 L 1323.980469 1555.511719 L 1323.980469 1599.519531 L 1378.160156 1599.519531 L 1378.160156 1555.511719"/></g><g><path fill="#70402b" d="M 259.886719 1555.511719 L 205.710938 1555.511719 L 205.710938 1599.519531 L 259.886719 1599.519531 L 259.886719 1555.511719"/></g><g><path fill="#75a73f" d="M 466.429688 1558.898438 L 412.253906 1558.898438 L 412.253906 1602.910156 L 466.429688 1602.910156 L 466.429688 1558.898438"/></g><g><path fill="#75a73f" d="M 627.257812 1556.691406 L 573.085938 1556.691406 L 573.085938 1600.699219 L 627.257812 1600.699219 L 627.257812 1556.691406"/></g><g><path fill="#75a73f" d="M 838.878906 1568.210938 L 784.703125 1568.210938 L 784.703125 1612.21875 L 838.878906 1612.21875 L 838.878906 1568.210938"/></g><g><path fill="#75a73f" d="M 948.921875 1556.691406 L 894.746094 1556.691406 L 894.746094 1600.699219 L 948.921875 1600.699219 L 948.921875 1556.691406"/></g><g><path fill="#75a73f" d="M 1146.988281 1568.210938 L 1092.820312 1568.210938 L 1092.820312 1612.21875 L 1146.988281 1612.21875 L 1146.988281 1568.210938"/></g><g><path fill="#75a73f" d="M 1296.820312 1568.210938 L 1242.648438 1568.210938 L 1242.648438 1612.21875 L 1296.820312 1612.21875 L 1296.820312 1568.210938"/></g><g><path fill="#75a73f" d="M 1462.730469 1568.210938 L 1408.558594 1568.210938 L 1408.558594 1612.21875 L 1462.730469 1612.21875 L 1462.730469 1568.210938"/></g><g><path fill="#75a73f" d="M 1662.503906 1541.960938 L 1608.332031 1541.960938 L 1608.332031 1585.980469 L 1662.503906 1585.980469 L 1662.503906 1541.960938"/></g><g><path fill="#75a73f" d="M 353 1568.210938 L 298.824219 1568.210938 L 298.824219 1612.21875 L 353 1612.21875 L 353 1568.210938"/></g><g><path fill="#75a73f" d="M 141.378906 1555.511719 L 87.207031 1555.511719 L 87.207031 1599.519531 L 141.378906 1599.519531 L 141.378906 1555.511719"/></g><g><path fill="#b7e7f2" d="M 651.488281 720.890625 L 651.488281 712.441406 L 641.566406 712.441406 L 641.566406 703.980469 L 631.640625 703.980469 L 631.640625 687.078125 L 621.707031 687.078125 L 621.707031 627.890625 L 611.78125 627.890625 L 611.78125 636.351562 L 601.859375 636.351562 L 601.859375 644.800781 L 542.289062 644.800781 L 542.289062 636.351562 L 532.363281 636.351562 L 532.363281 627.890625 L 522.441406 627.890625 L 522.441406 619.441406 L 512.507812 619.441406 L 512.507812 627.890625 L 502.582031 627.890625 L 502.582031 644.800781 L 492.660156 644.800781 L 492.660156 653.261719 L 482.726562 653.261719 L 482.726562 661.71875 L 472.800781 661.71875 L 472.800781 670.171875 L 452.945312 670.171875 L 452.945312 678.621094 L 373.535156 678.621094 L 373.535156 670.171875 L 353.679688 670.171875 L 353.679688 661.71875 L 343.742188 661.71875 L 343.742188 653.261719 L 333.820312 653.261719 L 333.820312 644.800781 L 313.972656 644.800781 L 313.972656 653.261719 L 304.039062 653.261719 L 304.039062 661.71875 L 244.476562 661.71875 L 244.476562 653.261719 L 234.554688 653.261719 L 234.554688 644.800781 L 224.621094 644.800781 L 224.621094 627.890625 L 214.695312 627.890625 L 214.695312 594.078125 L 204.773438 594.078125 L 204.773438 619.441406 L 194.839844 619.441406 L 194.839844 670.171875 L 204.773438 670.171875 L 204.773438 695.53125 L 214.695312 695.53125 L 214.695312 712.441406 L 224.621094 712.441406 L 224.621094 720.890625 L 234.554688 720.890625 L 234.554688 729.351562 L 254.402344 729.351562 L 254.402344 737.800781 L 651.488281 737.800781 L 651.488281 729.351562 L 661.421875 729.351562 L 661.421875 720.890625 L 651.488281 720.890625"/></g><g><path fill="#ffffff" d="M 681.269531 644.800781 L 681.269531 627.890625 L 671.347656 627.890625 L 671.347656 619.441406 L 661.421875 619.441406 L 661.421875 610.980469 L 651.488281 610.980469 L 651.488281 602.53125 L 621.707031 602.53125 L 621.707031 577.171875 L 611.78125 577.171875 L 611.78125 551.808594 L 601.859375 551.808594 L 601.859375 543.351562 L 591.925781 543.351562 L 591.925781 534.898438 L 582.003906 534.898438 L 582.003906 526.441406 L 572.078125 526.441406 L 572.078125 517.988281 L 492.660156 517.988281 L 492.660156 526.441406 L 482.726562 526.441406 L 482.726562 509.53125 L 472.800781 509.53125 L 472.800781 501.078125 L 452.945312 501.078125 L 452.945312 492.621094 L 443.019531 492.621094 L 443.019531 484.171875 L 383.460938 484.171875 L 383.460938 492.621094 L 363.601562 492.621094 L 363.601562 501.078125 L 353.679688 501.078125 L 353.679688 509.53125 L 343.742188 509.53125 L 343.742188 517.988281 L 333.820312 517.988281 L 333.820312 526.441406 L 323.898438 526.441406 L 323.898438 551.808594 L 254.402344 551.808594 L 254.402344 560.261719 L 234.554688 560.261719 L 234.554688 568.71875 L 224.621094 568.71875 L 224.621094 577.171875 L 214.695312 577.171875 L 214.695312 627.890625 L 224.621094 627.890625 L 224.621094 644.800781 L 234.554688 644.800781 L 234.554688 653.261719 L 244.476562 653.261719 L 244.476562 661.71875 L 304.039062 661.71875 L 304.039062 653.261719 L 313.972656 653.261719 L 313.972656 644.800781 L 333.820312 644.800781 L 333.820312 653.261719 L 343.742188 653.261719 L 343.742188 661.71875 L 353.679688 661.71875 L 353.679688 670.171875 L 373.535156 670.171875 L 373.535156 678.621094 L 452.945312 678.621094 L 452.945312 670.171875 L 472.800781 670.171875 L 472.800781 661.71875 L 482.726562 661.71875 L 482.726562 653.261719 L 492.660156 653.261719 L 492.660156 644.800781 L 502.582031 644.800781 L 502.582031 627.890625 L 512.507812 627.890625 L 512.507812 619.441406 L 522.441406 619.441406 L 522.441406 627.890625 L 532.363281 627.890625 L 532.363281 636.351562 L 542.289062 636.351562 L 542.289062 644.800781 L 601.859375 644.800781 L 601.859375 636.351562 L 611.78125 636.351562 L 611.78125 627.890625 L 621.707031 627.890625 L 621.707031 687.078125 L 631.640625 687.078125 L 631.640625 703.980469 L 641.566406 703.980469 L 641.566406 712.441406 L 651.488281 712.441406 L 651.488281 720.890625 L 661.421875 720.890625 L 661.421875 729.351562 L 671.347656 729.351562 L 671.347656 712.441406 L 681.269531 712.441406 L 681.269531 703.980469 L 691.203125 703.980469 L 691.203125 644.800781 L 681.269531 644.800781"/></g><g><path fill="#b7e7f2" d="M 2235.652344 583.507812 L 2235.652344 575.054688 L 2225.71875 575.054688 L 2225.71875 566.597656 L 2215.785156 566.597656 L 2215.785156 549.6875 L 2205.867188 549.6875 L 2205.867188 490.511719 L 2195.933594 490.511719 L 2195.933594 498.957031 L 2186.015625 498.957031 L 2186.015625 507.414062 L 2126.445312 507.414062 L 2126.445312 498.957031 L 2116.523438 498.957031 L 2116.523438 490.511719 L 2106.59375 490.511719 L 2106.59375 482.054688 L 2096.671875 482.054688 L 2096.671875 490.511719 L 2086.738281 490.511719 L 2086.738281 507.414062 L 2076.808594 507.414062 L 2076.808594 515.867188 L 2066.886719 515.867188 L 2066.886719 524.320312 L 2056.957031 524.320312 L 2056.957031 532.78125 L 2037.101562 532.78125 L 2037.101562 541.234375 L 1957.695312 541.234375 L 1957.695312 532.78125 L 1937.828125 532.78125 L 1937.828125 524.320312 L 1927.898438 524.320312 L 1927.898438 515.867188 L 1917.976562 515.867188 L 1917.976562 507.414062 L 1898.113281 507.414062 L 1898.113281 515.867188 L 1888.191406 515.867188 L 1888.191406 524.320312 L 1828.636719 524.320312 L 1828.636719 515.867188 L 1818.703125 515.867188 L 1818.703125 507.414062 L 1808.785156 507.414062 L 1808.785156 490.511719 L 1798.851562 490.511719 L 1798.851562 456.691406 L 1788.917969 456.691406 L 1788.917969 482.054688 L 1779 482.054688 L 1779 532.78125 L 1788.917969 532.78125 L 1788.917969 558.144531 L 1798.851562 558.144531 L 1798.851562 575.054688 L 1808.785156 575.054688 L 1808.785156 583.507812 L 1818.703125 583.507812 L 1818.703125 591.960938 L 1838.554688 591.960938 L 1838.554688 600.414062 L 2235.652344 600.414062 L 2235.652344 591.960938 L 2245.570312 591.960938 L 2245.570312 583.507812 L 2235.652344 583.507812"/></g><g><path fill="#ffffff" d="M 2265.425781 507.414062 L 2265.425781 490.507812 L 2255.511719 490.507812 L 2255.511719 482.054688 L 2245.574219 482.054688 L 2245.574219 473.59375 L 2235.648438 473.59375 L 2235.648438 465.148438 L 2205.875 465.148438 L 2205.875 439.785156 L 2195.9375 439.785156 L 2195.9375 414.410156 L 2186.011719 414.410156 L 2186.011719 405.964844 L 2176.085938 405.964844 L 2176.085938 397.503906 L 2166.148438 397.503906 L 2166.148438 389.058594 L 2156.234375 389.058594 L 2156.234375 380.597656 L 2076.808594 380.597656 L 2076.808594 389.058594 L 2066.882812 389.058594 L 2066.882812 372.152344 L 2056.957031 372.152344 L 2056.957031 363.695312 L 2037.09375 363.695312 L 2037.09375 355.234375 L 2027.183594 355.234375 L 2027.183594 346.777344 L 1967.617188 346.777344 L 1967.617188 355.234375 L 1947.753906 355.234375 L 1947.753906 363.695312 L 1937.832031 363.695312 L 1937.832031 372.152344 L 1927.90625 372.152344 L 1927.90625 380.597656 L 1917.980469 380.597656 L 1917.980469 389.058594 L 1908.054688 389.058594 L 1908.054688 414.410156 L 1838.566406 414.410156 L 1838.566406 422.867188 L 1818.703125 422.867188 L 1818.703125 431.328125 L 1808.777344 431.328125 L 1808.777344 439.785156 L 1798.851562 439.785156 L 1798.851562 490.507812 L 1808.777344 490.507812 L 1808.777344 507.414062 L 1818.703125 507.414062 L 1818.703125 515.867188 L 1828.640625 515.867188 L 1828.640625 524.320312 L 1888.207031 524.320312 L 1888.207031 515.867188 L 1898.117188 515.867188 L 1898.117188 507.414062 L 1917.980469 507.414062 L 1917.980469 515.867188 L 1927.90625 515.867188 L 1927.90625 524.320312 L 1937.832031 524.320312 L 1937.832031 532.78125 L 1957.695312 532.78125 L 1957.695312 541.234375 L 2037.09375 541.234375 L 2037.09375 532.78125 L 2056.957031 532.78125 L 2056.957031 524.320312 L 2066.882812 524.320312 L 2066.882812 515.867188 L 2076.808594 515.867188 L 2076.808594 507.414062 L 2086.734375 507.414062 L 2086.734375 490.507812 L 2096.671875 490.507812 L 2096.671875 482.054688 L 2106.582031 482.054688 L 2106.582031 490.507812 L 2116.523438 490.507812 L 2116.523438 498.960938 L 2126.445312 498.960938 L 2126.445312 507.414062 L 2186.011719 507.414062 L 2186.011719 498.960938 L 2195.9375 498.960938 L 2195.9375 490.507812 L 2205.875 490.507812 L 2205.875 549.6875 L 2215.785156 549.6875 L 2215.785156 566.597656 L 2225.726562 566.597656 L 2225.726562 575.054688 L 2235.648438 575.054688 L 2235.648438 583.507812 L 2245.574219 583.507812 L 2245.574219 591.960938 L 2255.511719 591.960938 L 2255.511719 575.054688 L 2265.425781 575.054688 L 2265.425781 566.597656 L 2275.347656 566.597656 L 2275.347656 507.414062 L 2265.425781 507.414062"/></g><g><path fill="#b7e7f2" d="M 1519.03125 435.878906 L 1519.03125 426.871094 L 1508.449219 426.871094 L 1508.449219 417.859375 L 1497.859375 417.859375 L 1497.859375 399.839844 L 1487.28125 399.839844 L 1487.28125 336.761719 L 1476.699219 336.761719 L 1476.699219 345.769531 L 1466.121094 345.769531 L 1466.121094 354.78125 L 1402.628906 354.78125 L 1402.628906 345.769531 L 1392.050781 345.769531 L 1392.050781 336.761719 L 1381.480469 336.761719 L 1381.480469 327.738281 L 1370.898438 327.738281 L 1370.898438 336.761719 L 1360.308594 336.761719 L 1360.308594 354.78125 L 1349.730469 354.78125 L 1349.730469 363.789062 L 1339.148438 363.789062 L 1339.148438 372.800781 L 1328.570312 372.800781 L 1328.570312 381.808594 L 1307.410156 381.808594 L 1307.410156 390.820312 L 1222.75 390.820312 L 1222.75 381.808594 L 1201.589844 381.808594 L 1201.589844 372.800781 L 1191.011719 372.800781 L 1191.011719 363.789062 L 1180.429688 363.789062 L 1180.429688 354.78125 L 1159.269531 354.78125 L 1159.269531 363.789062 L 1148.679688 363.789062 L 1148.679688 372.800781 L 1085.191406 372.800781 L 1085.191406 363.789062 L 1074.609375 363.789062 L 1074.609375 354.78125 L 1064.03125 354.78125 L 1064.03125 336.761719 L 1053.449219 336.761719 L 1053.449219 300.710938 L 1042.871094 300.710938 L 1042.871094 327.738281 L 1032.289062 327.738281 L 1032.289062 381.808594 L 1042.871094 381.808594 L 1042.871094 408.851562 L 1053.449219 408.851562 L 1053.449219 426.871094 L 1064.03125 426.871094 L 1064.03125 435.878906 L 1074.609375 435.878906 L 1074.609375 444.890625 L 1095.78125 444.890625 L 1095.78125 453.910156 L 1519.03125 453.910156 L 1519.03125 444.890625 L 1529.609375 444.890625 L 1529.609375 435.878906 L 1519.03125 435.878906"/></g><g><path fill="#ffffff" d="M 1550.773438 354.777344 L 1550.773438 336.761719 L 1540.191406 336.761719 L 1540.191406 327.742188 L 1529.609375 327.742188 L 1529.609375 318.734375 L 1519.027344 318.734375 L 1519.027344 309.726562 L 1487.28125 309.726562 L 1487.28125 282.691406 L 1476.695312 282.691406 L 1476.695312 255.65625 L 1466.113281 255.65625 L 1466.113281 246.640625 L 1455.542969 246.640625 L 1455.542969 237.632812 L 1444.960938 237.632812 L 1444.960938 228.625 L 1434.367188 228.625 L 1434.367188 219.605469 L 1349.730469 219.605469 L 1349.730469 228.625 L 1339.148438 228.625 L 1339.148438 210.597656 L 1328.5625 210.597656 L 1328.5625 201.589844 L 1307.410156 201.589844 L 1307.410156 192.570312 L 1296.816406 192.570312 L 1296.816406 183.5625 L 1233.34375 183.5625 L 1233.34375 192.570312 L 1212.167969 192.570312 L 1212.167969 201.589844 L 1201.585938 201.589844 L 1201.585938 210.597656 L 1191.015625 210.597656 L 1191.015625 219.605469 L 1180.433594 219.605469 L 1180.433594 228.625 L 1169.847656 228.625 L 1169.847656 255.65625 L 1095.78125 255.65625 L 1095.78125 264.664062 L 1074.609375 264.664062 L 1074.609375 273.675781 L 1064.027344 273.675781 L 1064.027344 282.691406 L 1053.453125 282.691406 L 1053.453125 336.761719 L 1064.027344 336.761719 L 1064.027344 354.777344 L 1074.609375 354.777344 L 1074.609375 363.785156 L 1085.191406 363.785156 L 1085.191406 372.804688 L 1148.683594 372.804688 L 1148.683594 363.785156 L 1159.265625 363.785156 L 1159.265625 354.777344 L 1180.433594 354.777344 L 1180.433594 363.785156 L 1191.015625 363.785156 L 1191.015625 372.804688 L 1201.585938 372.804688 L 1201.585938 381.8125 L 1222.75 381.8125 L 1222.75 390.820312 L 1307.410156 390.820312 L 1307.410156 381.8125 L 1328.5625 381.8125 L 1328.5625 372.804688 L 1339.148438 372.804688 L 1339.148438 363.785156 L 1349.730469 363.785156 L 1349.730469 354.777344 L 1360.3125 354.777344 L 1360.3125 336.761719 L 1370.90625 336.761719 L 1370.90625 327.742188 L 1381.476562 327.742188 L 1381.476562 336.761719 L 1392.046875 336.761719 L 1392.046875 345.769531 L 1402.628906 345.769531 L 1402.628906 354.777344 L 1466.113281 354.777344 L 1466.113281 345.769531 L 1476.695312 345.769531 L 1476.695312 336.761719 L 1487.28125 336.761719 L 1487.28125 399.839844 L 1497.863281 399.839844 L 1497.863281 417.855469 L 1508.445312 417.855469 L 1508.445312 426.875 L 1519.027344 426.875 L 1519.027344 435.882812 L 1529.609375 435.882812 L 1529.609375 444.890625 L 1540.191406 444.890625 L 1540.191406 426.875 L 1550.773438 426.875 L 1550.773438 417.855469 L 1561.34375 417.855469 L 1561.34375 354.777344 L 1550.773438 354.777344"/></g><g><path fill="#914c28" d="M 1193.238281 658.589844 L 996.847656 658.589844 L 996.847656 812.269531 L 1193.238281 812.269531 L 1193.238281 658.589844"/></g><g><path fill="#a1532b" d="M 1193.238281 722.210938 L 1175.730469 722.210938 L 1175.730469 674.078125 L 1103.050781 674.078125 L 1103.050781 694.441406 L 1041.71875 694.441406 L 1041.71875 727.761719 L 996.847656 727.761719 L 996.847656 761.078125 L 1050.800781 761.078125 L 1050.800781 812.269531 L 1080.328125 812.269531 L 1080.328125 744.421875 L 1123.488281 744.421875 L 1123.488281 777.75 L 1155.289062 777.75 L 1155.289062 755.53125 L 1193.238281 755.53125 L 1193.238281 722.210938"/></g><g><path fill="#794125" d="M 1185.378906 742.730469 L 1155.289062 742.730469 L 1155.289062 766.800781 L 1185.378906 766.800781 L 1185.378906 742.730469"/></g><g><path fill="#794125" d="M 1132.390625 692.871094 L 1102.289062 692.871094 L 1102.289062 716.941406 L 1132.390625 716.941406 L 1132.390625 692.871094"/></g><g><path fill="#794125" d="M 1053.640625 727.121094 L 1023.539062 727.121094 L 1023.539062 751.179688 L 1053.640625 751.179688 L 1053.640625 727.121094"/></g><path fill="none" stroke-width="99.044" stroke-miterlimit="10" d="M 9968.476562 11734.6875 L 11932.382812 11734.6875" transform="matrix(.1 0 0 -.1 0 1883)" stroke="#432317"/><path fill="none" stroke-width="99.044" stroke-miterlimit="10" d="M 9968.476562 11125.703125 L 11932.382812 11125.703125" transform="matrix(.1 0 0 -.1 0 1883)" stroke="#432317"/><path fill="none" stroke-width="99.044" stroke-miterlimit="10" d="M 10983.710938 12244.101562 L 10983.710938 11734.6875" transform="matrix(.1 0 0 -.1 0 1883)" stroke="#432317"/><path fill="none" stroke-width="99.044" stroke-miterlimit="10" d="M 10983.710938 11150.585938 L 10983.710938 10707.304688" transform="matrix(.1 0 0 -.1 0 1883)" stroke="#432317"/><path fill="none" stroke-width="99.044" stroke-miterlimit="10" d="M 10352.8125 11726.40625 L 10352.8125 11150.585938" transform="matrix(.1 0 0 -.1 0 1883)" stroke="#432317"/><path fill="none" stroke-width="99.044" stroke-miterlimit="10" d="M 11572.5 11726.40625 L 11572.5 11150.585938" transform="matrix(.1 0 0 -.1 0 1883)" stroke="#432317"/><path fill="none" stroke-width="99.044" stroke-miterlimit="10" d="M 11932.382812 12244.101562 L 9968.476562 12244.101562 L 9968.476562 10707.304688 L 11932.382812 10707.304688 Z M 11932.382812 12244.101562" transform="matrix(.1 0 0 -.1 0 1883)" stroke="#432317"/><g><path fill="#914c28" d="M 1393.929688 658.589844 L 1197.53125 658.589844 L 1197.53125 812.269531 L 1393.929688 812.269531 L 1393.929688 658.589844"/></g><g><path fill="#a1532b" d="M 1393.929688 722.210938 L 1376.421875 722.210938 L 1376.421875 674.078125 L 1303.730469 674.078125 L 1303.730469 694.441406 L 1242.398438 694.441406 L 1242.398438 727.761719 L 1197.53125 727.761719 L 1197.53125 761.078125 L 1251.488281 761.078125 L 1251.488281 812.269531 L 1281.019531 812.269531 L 1281.019531 744.421875 L 1324.171875 744.421875 L 1324.171875 777.75 L 1355.96875 777.75 L 1355.96875 755.53125 L 1393.929688 755.53125 L 1393.929688 722.210938"/></g><g><path fill="#794125" d="M 1386.070312 742.730469 L 1355.96875 742.730469 L 1355.96875 766.800781 L 1386.070312 766.800781 L 1386.070312 742.730469"/></g><g><path fill="#794125" d="M 1333.070312 692.871094 L 1302.980469 692.871094 L 1302.980469 716.941406 L 1333.070312 716.941406 L 1333.070312 692.871094"/></g><g><path fill="#794125" d="M 1254.320312 727.121094 L 1224.230469 727.121094 L 1224.230469 751.179688 L 1254.320312 751.179688 L 1254.320312 727.121094"/></g><path fill="none" stroke-width="99.044" stroke-miterlimit="10" d="M 11975.3125 11734.6875 L 13939.296875 11734.6875" transform="matrix(.1 0 0 -.1 0 1883)" stroke="#432317"/><path fill="none" stroke-width="99.044" stroke-miterlimit="10" d="M 11975.3125 11125.703125 L 13939.296875 11125.703125" transform="matrix(.1 0 0 -.1 0 1883)" stroke="#432317"/><path fill="none" stroke-width="99.044" stroke-miterlimit="10" d="M 12990.507812 12244.101562 L 12990.507812 11734.6875" transform="matrix(.1 0 0 -.1 0 1883)" stroke="#432317"/><path fill="none" stroke-width="99.044" stroke-miterlimit="10" d="M 12990.507812 11150.585938 L 12990.507812 10707.304688" transform="matrix(.1 0 0 -.1 0 1883)" stroke="#432317"/><path fill="none" stroke-width="99.044" stroke-miterlimit="10" d="M 12359.609375 11726.40625 L 12359.609375 11150.585938" transform="matrix(.1 0 0 -.1 0 1883)" stroke="#432317"/><path fill="none" stroke-width="99.044" stroke-miterlimit="10" d="M 13579.296875 11726.40625 L 13579.296875 11150.585938" transform="matrix(.1 0 0 -.1 0 1883)" stroke="#432317"/><path fill="none" stroke-width="99.044" stroke-miterlimit="10" d="M 13939.296875 12244.101562 L 11975.3125 12244.101562 L 11975.3125 10707.304688 L 13939.296875 10707.304688 Z M 13939.296875 12244.101562" transform="matrix(.1 0 0 -.1 0 1883)" stroke="#432317"/><g><path fill="#914c28" d="M 567.03125 803.96875 L 370.632812 803.96875 L 370.632812 957.640625 L 567.03125 957.640625 L 567.03125 803.96875"/></g><g><path fill="#a1532b" d="M 567.03125 867.589844 L 549.511719 867.589844 L 549.511719 819.460938 L 476.824219 819.460938 L 476.824219 839.820312 L 415.503906 839.820312 L 415.503906 873.140625 L 370.632812 873.140625 L 370.632812 906.464844 L 424.585938 906.464844 L 424.585938 957.640625 L 454.113281 957.640625 L 454.113281 889.800781 L 497.273438 889.800781 L 497.273438 923.121094 L 529.066406 923.121094 L 529.066406 900.90625 L 567.03125 900.90625 L 567.03125 867.589844"/></g><g><path fill="#794125" d="M 559.164062 888.109375 L 529.066406 888.109375 L 529.066406 912.179688 L 559.164062 912.179688 L 559.164062 888.109375"/></g><g><path fill="#794125" d="M 506.160156 838.25 L 476.070312 838.25 L 476.070312 862.308594 L 506.160156 862.308594 L 506.160156 838.25"/></g><g><path fill="#794125" d="M 427.429688 872.5 L 397.328125 872.5 L 397.328125 896.558594 L 427.429688 896.558594 L 427.429688 872.5"/></g><path fill="none" stroke-width="99.044" stroke-miterlimit="10" d="M 3706.328125 10281.015625 L 5670.3125 10281.015625" transform="matrix(.1 0 0 -.1 0 1883)" stroke="#432317"/><path fill="none" stroke-width="99.044" stroke-miterlimit="10" d="M 3706.328125 9671.914062 L 5670.3125 9671.914062" transform="matrix(.1 0 0 -.1 0 1883)" stroke="#432317"/><path fill="none" stroke-width="99.044" stroke-miterlimit="10" d="M 4721.523438 10790.3125 L 4721.523438 10281.015625" transform="matrix(.1 0 0 -.1 0 1883)" stroke="#432317"/><path fill="none" stroke-width="99.044" stroke-miterlimit="10" d="M 4721.523438 9696.835938 L 4721.523438 9253.59375" transform="matrix(.1 0 0 -.1 0 1883)" stroke="#432317"/><path fill="none" stroke-width="99.044" stroke-miterlimit="10" d="M 4090.507812 10272.695312 L 4090.507812 9696.835938" transform="matrix(.1 0 0 -.1 0 1883)" stroke="#432317"/><path fill="none" stroke-width="99.044" stroke-miterlimit="10" d="M 5310.390625 10272.695312 L 5310.390625 9696.835938" transform="matrix(.1 0 0 -.1 0 1883)" stroke="#432317"/><path fill="none" stroke-width="99.044" stroke-miterlimit="10" d="M 5670.3125 10790.3125 L 3706.328125 10790.3125 L 3706.328125 9253.59375 L 5670.3125 9253.59375 Z M 5670.3125 10790.3125" transform="matrix(.1 0 0 -.1 0 1883)" stroke="#432317"/><g><path fill="#914c28" d="M 767.710938 803.96875 L 571.3125 803.96875 L 571.3125 957.640625 L 767.710938 957.640625 L 767.710938 803.96875"/></g><g><path fill="#a1532b" d="M 767.710938 867.589844 L 750.195312 867.589844 L 750.195312 819.460938 L 677.507812 819.460938 L 677.507812 839.820312 L 616.183594 839.820312 L 616.183594 873.140625 L 571.3125 873.140625 L 571.3125 906.464844 L 625.265625 906.464844 L 625.265625 957.640625 L 654.796875 957.640625 L 654.796875 889.800781 L 697.953125 889.800781 L 697.953125 923.121094 L 729.757812 923.121094 L 729.757812 900.90625 L 767.710938 900.90625 L 767.710938 867.589844"/></g><g><path fill="#794125" d="M 759.847656 888.109375 L 729.757812 888.109375 L 729.757812 912.179688 L 759.847656 912.179688 L 759.847656 888.109375"/></g><g><path fill="#794125" d="M 706.851562 838.25 L 676.753906 838.25 L 676.753906 862.308594 L 706.851562 862.308594 L 706.851562 838.25"/></g><g><path fill="#794125" d="M 628.109375 872.5 L 598.011719 872.5 L 598.011719 896.558594 L 628.109375 896.558594 L 628.109375 872.5"/></g><path fill="none" stroke-width="99.044" stroke-miterlimit="10" d="M 5713.125 10281.015625 L 7677.109375 10281.015625" transform="matrix(.1 0 0 -.1 0 1883)" stroke="#432317"/><path fill="none" stroke-width="99.044" stroke-miterlimit="10" d="M 5713.125 9671.914062 L 7677.109375 9671.914062" transform="matrix(.1 0 0 -.1 0 1883)" stroke="#432317"/><path fill="none" stroke-width="99.044" stroke-miterlimit="10" d="M 6728.359375 10790.3125 L 6728.359375 10281.015625" transform="matrix(.1 0 0 -.1 0 1883)" stroke="#432317"/><path fill="none" stroke-width="99.044" stroke-miterlimit="10" d="M 6728.359375 9696.835938 L 6728.359375 9253.59375" transform="matrix(.1 0 0 -.1 0 1883)" stroke="#432317"/><path fill="none" stroke-width="99.044" stroke-miterlimit="10" d="M 6097.421875 10272.695312 L 6097.421875 9696.835938" transform="matrix(.1 0 0 -.1 0 1883)" stroke="#432317"/><path fill="none" stroke-width="99.044" stroke-miterlimit="10" d="M 7317.1875 10272.695312 L 7317.1875 9696.835938" transform="matrix(.1 0 0 -.1 0 1883)" stroke="#432317"/><path fill="none" stroke-width="99.044" stroke-miterlimit="10" d="M 7677.109375 10790.3125 L 5713.125 10790.3125 L 5713.125 9253.59375 L 7677.109375 9253.59375 Z M 7677.109375 10790.3125" transform="matrix(.1 0 0 -.1 0 1883)" stroke="#432317"/><g><path fill="#914c28" d="M 1784.492188 803.964844 L 1588.097656 803.964844 L 1588.097656 957.640625 L 1784.492188 957.640625 L 1784.492188 803.964844"/></g><g><path fill="#a1532b" d="M 1784.492188 867.585938 L 1766.984375 867.585938 L 1766.984375 819.457031 L 1694.304688 819.457031 L 1694.304688 839.820312 L 1632.972656 839.820312 L 1632.972656 873.140625 L 1588.097656 873.140625 L 1588.097656 906.464844 L 1642.058594 906.464844 L 1642.058594 957.640625 L 1671.574219 957.640625 L 1671.574219 889.796875 L 1714.742188 889.796875 L 1714.742188 923.117188 L 1746.546875 923.117188 L 1746.546875 900.90625 L 1784.492188 900.90625 L 1784.492188 867.585938"/></g><g><path fill="#794125" d="M 1776.636719 888.109375 L 1746.539062 888.109375 L 1746.539062 912.179688 L 1776.636719 912.179688 L 1776.636719 888.109375"/></g><g><path fill="#794125" d="M 1723.628906 838.25 L 1693.53125 838.25 L 1693.53125 862.3125 L 1723.628906 862.3125 L 1723.628906 838.25"/></g><g><path fill="#794125" d="M 1644.898438 872.488281 L 1614.804688 872.488281 L 1614.804688 896.554688 L 1644.898438 896.554688 L 1644.898438 872.488281"/></g><path fill="none" stroke-width="90.47" stroke-miterlimit="10" d="M 14506.089408 9390.906449 L 16300.007193 9390.906449" transform="matrix(.10948 0 0 -.10948 0 1883)" stroke="#432317"/><path fill="none" stroke-width="90.47" stroke-miterlimit="10" d="M 14506.089408 8834.573213 L 16300.007193 8834.573213" transform="matrix(.10948 0 0 -.10948 0 1883)" stroke="#432317"/><path fill="none" stroke-width="95.55" stroke-miterlimit="10" d="M 16299.996141 10409.607194 L 16299.996141 9918.207591" transform="matrix(.10366 0 0 -.10366 0 1883)" stroke="#432317"/><path fill="none" stroke-width="95.55" stroke-miterlimit="10" d="M 16299.996141 9354.643093 L 16299.996141 8927.080218" transform="matrix(.10366 0 0 -.10366 0 1883)" stroke="#432317"/><path fill="none" stroke-width="99.044" stroke-miterlimit="10" d="M 16265.3125 10272.695312 L 16265.3125 9696.835938" transform="matrix(.1 0 0 -.1 0 1883)" stroke="#432317"/><path fill="none" stroke-width="92.332" stroke-miterlimit="10" d="M 16299.990678 9576.484863 L 16299.990678 9039.653153" transform="matrix(.10727 0 0 -.10727 0 1883)" stroke="#432317"/><path fill="none" stroke-width="90.47" stroke-miterlimit="10" d="M 16300.007193 9856.182578 L 14506.089408 9856.182578 L 14506.089408 8452.468761 L 16300.007193 8452.468761 Z M 16300.007193 9856.182578" transform="matrix(.10948 0 0 -.10948 0 1883)" stroke="#432317"/><g><path fill="#914c28" d="M 1985.175781 803.964844 L 1788.789062 803.964844 L 1788.789062 957.636719 L 1985.175781 957.636719 L 1985.175781 803.964844"/></g><g><path fill="#a1532b" d="M 1985.175781 867.582031 L 1967.675781 867.582031 L 1967.675781 819.453125 L 1894.992188 819.453125 L 1894.992188 839.820312 L 1833.671875 839.820312 L 1833.671875 873.140625 L 1788.789062 873.140625 L 1788.789062 906.460938 L 1842.742188 906.460938 L 1842.742188 957.636719 L 1872.277344 957.636719 L 1872.277344 889.796875 L 1915.441406 889.796875 L 1915.441406 923.117188 L 1947.226562 923.117188 L 1947.226562 900.90625 L 1985.175781 900.90625 L 1985.175781 867.582031"/></g><g><path fill="#794125" d="M 1977.320312 888.109375 L 1947.222656 888.109375 L 1947.222656 912.179688 L 1977.320312 912.179688 L 1977.320312 888.109375"/></g><g><path fill="#794125" d="M 1924.3125 838.25 L 1894.21875 838.25 L 1894.21875 862.3125 L 1924.3125 862.3125 L 1924.3125 838.25"/></g><g><path fill="#794125" d="M 1845.582031 872.496094 L 1815.488281 872.496094 L 1815.488281 896.558594 L 1845.582031 896.558594 L 1845.582031 872.496094"/></g><path fill="none" stroke-width="81.324" stroke-miterlimit="10" d="M 14687.487171 8441.592598 L 16299.989993 8441.592598" transform="matrix(.12179 0 0 -.12179 0 1883)" stroke="#432317"/><path fill="none" stroke-width="81.324" stroke-miterlimit="10" d="M 14687.487171 7941.500226 L 16299.989993 7941.500226" transform="matrix(.12179 0 0 -.12179 0 1883)" stroke="#432317"/><path fill="none" stroke-width="85.405" stroke-miterlimit="10" d="M 16300.012934 9304.433528 L 16300.012934 8865.203555" transform="matrix(.11597 0 0 -.11597 0 1883)" stroke="#432317"/><path fill="none" stroke-width="85.405" stroke-miterlimit="10" d="M 16300.012934 8361.503783 L 16300.012934 7979.299603" transform="matrix(.11597 0 0 -.11597 0 1883)" stroke="#432317"/><path fill="none" stroke-width="88.355" stroke-miterlimit="10" d="M 16300.010203 9163.94911 L 16300.010203 8650.243033" transform="matrix(.1121 0 0 -.1121 0 1883)" stroke="#432317"/><path fill="none" stroke-width="82.826" stroke-miterlimit="10" d="M 16300.007526 8590.470347 L 16300.007526 8108.910099" transform="matrix(.11958 0 0 -.11958 0 1883)" stroke="#432317"/><path fill="none" stroke-width="81.324" stroke-miterlimit="10" d="M 16299.989993 8859.800938 L 14687.487171 8859.800938 L 14687.487171 7598.023493 L 16299.989993 7598.023493 Z M 16299.989993 8859.800938" transform="matrix(.12179 0 0 -.12179 0 1883)" stroke="#432317"/><g><path fill="#4d9544" d="M 390.585938 1316.039062 L 396.863281 1316.039062 L 396.863281 1303.320312 L 390.585938 1303.320312 L 390.585938 1316.039062"/></g><g><path fill="#4d9544" d="M 409.398438 1303.320312 L 415.667969 1303.320312 L 415.667969 1290.601562 L 409.398438 1290.601562 L 409.398438 1303.320312"/></g><g><path fill="#8eca4d" d="M 233.839844 1214.269531 L 240.105469 1214.269531 L 240.105469 1201.539062 L 233.839844 1201.539062 L 233.839844 1214.269531"/></g><g><path fill="#4d9544" d="M 83.355469 1188.820312 L 89.625 1188.820312 L 89.625 1176.101562 L 83.355469 1176.101562 L 83.355469 1188.820312"/></g><g><path fill="#4d9544" d="M 434.480469 1176.101562 L 440.746094 1176.101562 L 440.746094 1163.378906 L 434.480469 1163.378906 L 434.480469 1176.101562"/></g><g><path fill="#488959" d="M 403.132812 1163.378906 L 409.398438 1163.378906 L 409.398438 1150.660156 L 403.132812 1150.660156 L 403.132812 1163.378906"/></g><g><path fill="#8eca4d" d="M 120.972656 1163.378906 L 127.238281 1163.378906 L 127.238281 1150.660156 L 120.972656 1150.660156 L 120.972656 1163.378906"/></g><g><path fill="#4d9544" d="M 102.160156 1150.660156 L 108.4375 1150.660156 L 108.4375 1137.929688 L 102.160156 1137.929688 L 102.160156 1150.660156"/></g><g><path fill="#4d9544" d="M 89.625 1239.710938 L 108.4375 1239.710938 L 108.4375 1252.429688 L 95.890625 1252.429688 L 95.890625 1290.601562 L 102.160156 1290.601562 L 102.160156 1303.320312 L 114.703125 1303.320312 L 114.703125 1316.039062 L 158.597656 1316.039062 L 158.597656 1316.480469 L 365.507812 1316.480469 L 365.507812 1316.039062 L 390.585938 1316.039062 L 390.585938 1303.320312 L 340.425781 1303.320312 L 340.425781 1290.601562 L 327.890625 1290.601562 L 327.890625 1277.871094 L 321.613281 1277.871094 L 321.613281 1265.148438 L 315.347656 1265.148438 L 315.347656 1290.601562 L 302.8125 1290.601562 L 302.8125 1303.320312 L 252.652344 1303.320312 L 252.652344 1290.601562 L 240.105469 1290.601562 L 240.105469 1277.871094 L 233.839844 1277.871094 L 233.839844 1265.148438 L 171.132812 1265.148438 L 171.132812 1252.429688 L 158.597656 1252.429688 L 158.597656 1239.710938 L 146.050781 1239.710938 L 146.050781 1201.539062 L 127.238281 1201.539062 L 127.238281 1188.820312 L 108.4375 1188.820312 L 108.4375 1176.101562 L 102.160156 1176.101562 L 102.160156 1163.378906 L 95.890625 1163.378906 L 95.890625 1176.101562 L 89.625 1176.101562 L 89.625 1188.820312 L 83.355469 1188.820312 L 83.355469 1226.988281 L 89.625 1226.988281 L 89.625 1239.710938"/></g><g><path fill="#4d9544" d="M 265.1875 1265.148438 L 258.917969 1265.148438 L 258.917969 1277.871094 L 277.730469 1277.871094 L 277.730469 1265.148438 L 265.1875 1265.148438"/></g><g><path fill="#4d9544" d="M 158.597656 1201.539062 L 158.597656 1188.820312 L 146.050781 1188.820312 L 146.050781 1201.539062 L 158.597656 1201.539062"/></g><g><path fill="#4d9544" d="M 315.347656 1188.820312 L 371.773438 1188.820312 L 371.773438 1176.101562 L 309.078125 1176.101562 L 309.078125 1188.820312 L 315.347656 1188.820312"/></g><g><path fill="#4d9544" d="M 202.488281 1150.660156 L 265.1875 1150.660156 L 265.1875 1137.929688 L 196.214844 1137.929688 L 196.214844 1150.660156 L 202.488281 1150.660156"/></g><g><path fill="#8eca4d" d="M 378.050781 1239.710938 L 365.507812 1239.710938 L 365.507812 1265.148438 L 384.320312 1265.148438 L 384.320312 1239.710938 L 378.050781 1239.710938"/></g><g><path fill="#8eca4d" d="M 177.410156 1239.710938 L 171.132812 1239.710938 L 171.132812 1265.148438 L 189.945312 1265.148438 L 189.945312 1239.710938 L 177.410156 1239.710938"/></g><g><path fill="#8eca4d" d="M 240.105469 1188.820312 L 233.839844 1188.820312 L 233.839844 1201.539062 L 240.105469 1201.539062 L 240.105469 1214.269531 L 252.652344 1214.269531 L 252.652344 1188.820312 L 240.105469 1188.820312"/></g><g><path fill="#8eca4d" d="M 309.078125 1112.488281 L 302.8125 1112.488281 L 302.8125 1125.210938 L 321.613281 1125.210938 L 321.613281 1112.488281 L 309.078125 1112.488281"/></g><g><path fill="#4d9544" d="M 114.703125 1125.210938 L 120.972656 1125.210938 L 120.972656 1112.488281 L 114.703125 1112.488281 L 114.703125 1125.210938"/></g><g><path fill="#8eca4d" d="M 327.890625 1099.769531 L 334.160156 1099.769531 L 334.160156 1087.050781 L 327.890625 1087.050781 L 327.890625 1099.769531"/></g><g><path fill="#49885b" d="M 139.785156 1099.769531 L 146.050781 1099.769531 L 146.050781 1087.050781 L 139.785156 1087.050781 L 139.785156 1099.769531"/></g><g><path fill="#4d9544" d="M 164.863281 1087.050781 L 171.132812 1087.050781 L 171.132812 1074.328125 L 164.863281 1074.328125 L 164.863281 1087.050781"/></g><g><path fill="#8eca4d" d="M 258.917969 1265.148438 L 277.730469 1265.148438 L 277.730469 1277.871094 L 258.917969 1277.871094 Z M 321.613281 1125.210938 L 302.8125 1125.210938 L 302.8125 1112.488281 L 321.613281 1112.488281 Z M 365.507812 1252.429688 L 365.507812 1239.710938 L 384.320312 1239.710938 L 384.320312 1265.148438 L 365.507812 1265.148438 Z M 208.757812 1137.929688 L 265.1875 1137.929688 L 265.1875 1150.660156 L 196.214844 1150.660156 L 196.214844 1137.929688 Z M 233.839844 1201.539062 L 233.839844 1188.820312 L 252.652344 1188.820312 L 252.652344 1214.269531 L 233.839844 1214.269531 Z M 309.078125 1176.101562 L 371.773438 1176.101562 L 371.773438 1188.820312 L 309.078125 1188.820312 Z M 428.214844 1176.101562 L 428.214844 1163.378906 L 403.132812 1163.378906 L 403.132812 1112.488281 L 396.863281 1112.488281 L 396.863281 1099.769531 L 384.320312 1099.769531 L 384.320312 1087.050781 L 334.160156 1087.050781 L 334.160156 1099.769531 L 327.890625 1099.769531 L 327.890625 1087.050781 L 334.160156 1087.050781 L 334.160156 1074.328125 L 327.890625 1074.328125 L 327.890625 1061.601562 L 315.347656 1061.601562 L 315.347656 1048.878906 L 258.917969 1048.878906 L 258.917969 1061.601562 L 252.652344 1061.601562 L 252.652344 1048.878906 L 215.023438 1048.878906 L 215.023438 1061.601562 L 196.214844 1061.601562 L 196.214844 1074.328125 L 189.945312 1074.328125 L 189.945312 1099.769531 L 177.410156 1099.769531 L 177.410156 1087.050781 L 146.050781 1087.050781 L 146.050781 1099.769531 L 127.238281 1099.769531 L 127.238281 1112.488281 L 120.972656 1112.488281 L 120.972656 1125.210938 L 114.703125 1125.210938 L 114.703125 1150.660156 L 127.238281 1150.660156 L 127.238281 1163.378906 L 102.160156 1163.378906 L 102.160156 1176.101562 L 108.4375 1176.101562 L 108.4375 1188.820312 L 127.238281 1188.820312 L 127.238281 1201.539062 L 146.050781 1201.539062 L 146.050781 1188.820312 L 158.597656 1188.820312 L 158.597656 1201.539062 L 146.050781 1201.539062 L 146.050781 1239.710938 L 158.597656 1239.710938 L 158.597656 1252.429688 L 171.132812 1252.429688 L 171.132812 1239.710938 L 189.945312 1239.710938 L 189.945312 1265.148438 L 233.839844 1265.148438 L 233.839844 1277.871094 L 240.105469 1277.871094 L 240.105469 1290.601562 L 252.652344 1290.601562 L 252.652344 1303.320312 L 302.8125 1303.320312 L 302.8125 1290.601562 L 315.347656 1290.601562 L 315.347656 1265.148438 L 321.613281 1265.148438 L 321.613281 1277.871094 L 327.890625 1277.871094 L 327.890625 1290.601562 L 340.425781 1290.601562 L 340.425781 1303.320312 L 409.398438 1303.320312 L 409.398438 1290.601562 L 421.945312 1290.601562 L 421.945312 1252.429688 L 415.667969 1252.429688 L 415.667969 1239.710938 L 421.945312 1239.710938 L 421.945312 1226.988281 L 434.480469 1226.988281 L 434.480469 1176.101562 L 428.214844 1176.101562"/></g><g><path fill="#4d9544" d="M 447.023438 1214.269531 L 447.023438 1176.101562 L 434.480469 1176.101562 L 434.480469 1214.269531 L 440.746094 1214.269531 L 440.746094 1188.820312 L 440.746094 1214.269531 L 434.480469 1214.269531 L 434.480469 1226.988281 L 447.023438 1226.988281 L 447.023438 1214.269531"/></g><g><path fill="#4d9544" d="M 309.078125 1036.160156 L 258.917969 1036.160156 L 258.917969 1048.878906 L 315.347656 1048.878906 L 315.347656 1036.160156 L 309.078125 1036.160156"/></g><g><path fill="#4d9544" d="M 114.703125 1316.039062 L 114.703125 1316.480469 L 152.320312 1316.480469 L 152.320312 1316.039062 L 114.703125 1316.039062 L 114.703125 1303.320312 L 102.160156 1303.320312 L 102.160156 1316.039062 L 114.703125 1316.039062"/></g><g><path fill="#4d9544" d="M 378.050781 1316.480469 L 378.050781 1316.039062 L 365.507812 1316.039062 L 365.507812 1316.480469 L 378.050781 1316.480469"/></g><g><path fill="#4d9544" d="M 396.863281 1303.320312 L 396.863281 1316.039062 L 409.398438 1316.039062 L 409.398438 1303.320312 L 396.863281 1303.320312"/></g><g><path fill="#4d9544" d="M 95.890625 1290.601562 L 95.890625 1252.429688 L 108.4375 1252.429688 L 108.4375 1239.710938 L 89.625 1239.710938 L 89.625 1252.429688 L 83.355469 1252.429688 L 83.355469 1290.601562 L 89.625 1290.601562 L 89.625 1303.320312 L 102.160156 1303.320312 L 102.160156 1290.601562 L 95.890625 1290.601562"/></g><g><path fill="#4d9544" d="M 421.945312 1226.988281 L 421.945312 1239.710938 L 415.667969 1239.710938 L 415.667969 1252.429688 L 421.945312 1252.429688 L 421.945312 1290.601562 L 415.667969 1290.601562 L 415.667969 1303.320312 L 428.214844 1303.320312 L 428.214844 1290.601562 L 434.480469 1290.601562 L 434.480469 1252.429688 L 428.214844 1252.429688 L 428.214844 1239.710938 L 434.480469 1239.710938 L 434.480469 1226.988281 L 421.945312 1226.988281"/></g><g><path fill="#4d9544" d="M 83.355469 1226.988281 L 83.355469 1176.101562 L 77.078125 1176.101562 L 77.078125 1188.820312 L 70.8125 1188.820312 L 70.8125 1226.988281 L 77.078125 1226.988281 L 77.078125 1239.710938 L 89.625 1239.710938 L 89.625 1226.988281 L 83.355469 1226.988281"/></g><g><path fill="#4d9544" d="M 428.214844 1163.378906 L 428.214844 1176.101562 L 434.480469 1176.101562 L 434.480469 1163.378906 L 428.214844 1163.378906"/></g><g><path fill="#4d9544" d="M 95.890625 1176.101562 L 95.890625 1163.378906 L 120.972656 1163.378906 L 120.972656 1150.660156 L 114.703125 1150.660156 L 114.703125 1112.488281 L 108.4375 1112.488281 L 108.4375 1125.210938 L 102.160156 1125.210938 L 102.160156 1137.929688 L 108.4375 1137.929688 L 108.4375 1150.660156 L 95.890625 1150.660156 L 95.890625 1163.378906 L 83.355469 1163.378906 L 83.355469 1176.101562 L 95.890625 1176.101562"/></g><g><path fill="#4d9544" d="M 421.945312 1150.660156 L 409.398438 1150.660156 L 409.398438 1163.378906 L 428.214844 1163.378906 L 428.214844 1150.660156 L 421.945312 1150.660156"/></g><g><path fill="#4d9544" d="M 415.667969 1137.929688 L 415.667969 1125.210938 L 409.398438 1125.210938 L 409.398438 1099.769531 L 403.132812 1099.769531 L 403.132812 1087.050781 L 384.320312 1087.050781 L 384.320312 1099.769531 L 396.863281 1099.769531 L 396.863281 1112.488281 L 403.132812 1112.488281 L 403.132812 1150.660156 L 409.398438 1150.660156 L 409.398438 1137.929688 L 415.667969 1137.929688"/></g><g><path fill="#4d9544" d="M 127.238281 1112.488281 L 127.238281 1099.769531 L 114.703125 1099.769531 L 114.703125 1112.488281 L 127.238281 1112.488281"/></g><g><path fill="#4d9544" d="M 139.785156 1099.769531 L 139.785156 1087.050781 L 127.238281 1087.050781 L 127.238281 1099.769531 L 139.785156 1099.769531"/></g><g><path fill="#4d9544" d="M 378.050781 1074.328125 L 340.425781 1074.328125 L 340.425781 1061.601562 L 334.160156 1061.601562 L 334.160156 1048.878906 L 315.347656 1048.878906 L 315.347656 1061.601562 L 327.890625 1061.601562 L 327.890625 1074.328125 L 334.160156 1074.328125 L 334.160156 1087.050781 L 384.320312 1087.050781 L 384.320312 1074.328125 L 378.050781 1074.328125"/></g><g><path fill="#4d9544" d="M 152.320312 1074.328125 L 146.050781 1074.328125 L 146.050781 1087.050781 L 164.863281 1087.050781 L 164.863281 1074.328125 L 152.320312 1074.328125"/></g><g><path fill="#4d9544" d="M 252.652344 1061.601562 L 258.917969 1061.601562 L 258.917969 1048.878906 L 252.652344 1048.878906 L 252.652344 1061.601562"/></g><g><path fill="#4d9544" d="M 202.488281 1048.878906 L 189.945312 1048.878906 L 189.945312 1061.601562 L 183.675781 1061.601562 L 183.675781 1074.328125 L 177.410156 1074.328125 L 177.410156 1099.769531 L 189.945312 1099.769531 L 189.945312 1074.328125 L 196.214844 1074.328125 L 196.214844 1061.601562 L 215.023438 1061.601562 L 215.023438 1048.878906 L 202.488281 1048.878906"/></g><g><path fill="#4d9544" d="M 233.839844 1048.878906 L 246.371094 1048.878906 L 246.371094 1036.160156 L 221.292969 1036.160156 L 221.292969 1048.878906 L 233.839844 1048.878906"/></g><g><path fill="#4d9544" d="M 1028.410156 1315.480469 L 1034.691406 1315.480469 L 1034.691406 1302.761719 L 1028.410156 1302.761719 L 1028.410156 1315.480469"/></g><g><path fill="#4d9544" d="M 1047.21875 1302.761719 L 1053.488281 1302.761719 L 1053.488281 1290.039062 L 1047.21875 1290.039062 L 1047.21875 1302.761719"/></g><g><path fill="#8eca4d" d="M 871.660156 1213.710938 L 877.925781 1213.710938 L 877.925781 1200.988281 L 871.660156 1200.988281 L 871.660156 1213.710938"/></g><g><path fill="#4d9544" d="M 721.175781 1188.269531 L 727.445312 1188.269531 L 727.445312 1175.539062 L 721.175781 1175.539062 L 721.175781 1188.269531"/></g><g><path fill="#4d9544" d="M 1072.300781 1175.539062 L 1078.570312 1175.539062 L 1078.570312 1162.820312 L 1072.300781 1162.820312 L 1072.300781 1175.539062"/></g><g><path fill="#488959" d="M 1040.949219 1162.820312 L 1047.21875 1162.820312 L 1047.21875 1150.101562 L 1040.949219 1150.101562 L 1040.949219 1162.820312"/></g><g><path fill="#8eca4d" d="M 758.792969 1162.820312 L 765.070312 1162.820312 L 765.070312 1150.101562 L 758.792969 1150.101562 L 758.792969 1162.820312"/></g><g><path fill="#4d9544" d="M 739.988281 1150.101562 L 746.257812 1150.101562 L 746.257812 1137.378906 L 739.988281 1137.378906 L 739.988281 1150.101562"/></g><g><path fill="#4d9544" d="M 727.445312 1239.148438 L 746.257812 1239.148438 L 746.257812 1251.871094 L 733.714844 1251.871094 L 733.714844 1290.039062 L 739.988281 1290.039062 L 739.988281 1302.761719 L 752.523438 1302.761719 L 752.523438 1315.480469 L 796.417969 1315.480469 L 796.417969 1315.921875 L 1003.328125 1315.921875 L 1003.328125 1315.480469 L 1028.410156 1315.480469 L 1028.410156 1302.761719 L 978.246094 1302.761719 L 978.246094 1290.039062 L 965.714844 1290.039062 L 965.714844 1277.320312 L 959.445312 1277.320312 L 959.445312 1264.589844 L 953.167969 1264.589844 L 953.167969 1290.039062 L 940.632812 1290.039062 L 940.632812 1302.761719 L 890.472656 1302.761719 L 890.472656 1290.039062 L 877.925781 1290.039062 L 877.925781 1277.320312 L 871.660156 1277.320312 L 871.660156 1264.589844 L 808.953125 1264.589844 L 808.953125 1251.871094 L 796.417969 1251.871094 L 796.417969 1239.148438 L 783.871094 1239.148438 L 783.871094 1200.988281 L 765.070312 1200.988281 L 765.070312 1188.261719 L 746.257812 1188.261719 L 746.257812 1175.539062 L 739.988281 1175.539062 L 739.988281 1162.820312 L 733.714844 1162.820312 L 733.714844 1175.539062 L 727.445312 1175.539062 L 727.445312 1188.261719 L 721.175781 1188.261719 L 721.175781 1226.429688 L 727.445312 1226.429688 L 727.445312 1239.148438"/></g><g><path fill="#4d9544" d="M 903.007812 1264.589844 L 896.738281 1264.589844 L 896.738281 1277.320312 L 915.550781 1277.320312 L 915.550781 1264.589844 L 903.007812 1264.589844"/></g><g><path fill="#4d9544" d="M 796.417969 1200.988281 L 796.417969 1188.269531 L 783.871094 1188.269531 L 783.871094 1200.988281 L 796.417969 1200.988281"/></g><g><path fill="#4d9544" d="M 953.167969 1188.269531 L 1009.609375 1188.269531 L 1009.609375 1175.539062 L 946.898438 1175.539062 L 946.898438 1188.269531 L 953.167969 1188.269531"/></g><g><path fill="#4d9544" d="M 840.3125 1150.101562 L 903.007812 1150.101562 L 903.007812 1137.378906 L 834.035156 1137.378906 L 834.035156 1150.101562 L 840.3125 1150.101562"/></g><g><path fill="#8eca4d" d="M 1015.871094 1239.148438 L 1003.328125 1239.148438 L 1003.328125 1264.589844 L 1022.140625 1264.589844 L 1022.140625 1239.148438 L 1015.871094 1239.148438"/></g><g><path fill="#8eca4d" d="M 815.230469 1239.148438 L 808.953125 1239.148438 L 808.953125 1264.589844 L 827.765625 1264.589844 L 827.765625 1239.148438 L 815.230469 1239.148438"/></g><g><path fill="#8eca4d" d="M 877.925781 1188.269531 L 871.660156 1188.269531 L 871.660156 1200.988281 L 877.925781 1200.988281 L 877.925781 1213.710938 L 890.472656 1213.710938 L 890.472656 1188.269531 L 877.925781 1188.269531"/></g><g><path fill="#8eca4d" d="M 946.898438 1111.929688 L 940.632812 1111.929688 L 940.632812 1124.648438 L 959.445312 1124.648438 L 959.445312 1111.929688 L 946.898438 1111.929688"/></g><g><path fill="#4d9544" d="M 752.523438 1124.648438 L 758.792969 1124.648438 L 758.792969 1111.929688 L 752.523438 1111.929688 L 752.523438 1124.648438"/></g><g><path fill="#8eca4d" d="M 965.714844 1099.210938 L 971.980469 1099.210938 L 971.980469 1086.488281 L 965.714844 1086.488281 L 965.714844 1099.210938"/></g><g><path fill="#49885b" d="M 777.605469 1099.210938 L 783.871094 1099.210938 L 783.871094 1086.488281 L 777.605469 1086.488281 L 777.605469 1099.210938"/></g><g><path fill="#4d9544" d="M 802.6875 1086.488281 L 808.953125 1086.488281 L 808.953125 1073.769531 L 802.6875 1073.769531 L 802.6875 1086.488281"/></g><g><path fill="#8eca4d" d="M 896.738281 1264.589844 L 915.550781 1264.589844 L 915.550781 1277.320312 L 896.738281 1277.320312 Z M 959.445312 1124.648438 L 940.632812 1124.648438 L 940.632812 1111.929688 L 959.445312 1111.929688 Z M 1003.328125 1251.871094 L 1003.328125 1239.148438 L 1022.140625 1239.148438 L 1022.140625 1264.589844 L 1003.328125 1264.589844 Z M 846.578125 1137.378906 L 903.007812 1137.378906 L 903.007812 1150.101562 L 834.035156 1150.101562 L 834.035156 1137.378906 Z M 871.660156 1200.988281 L 871.660156 1188.269531 L 890.472656 1188.269531 L 890.472656 1213.710938 L 871.660156 1213.710938 Z M 946.898438 1175.539062 L 1009.609375 1175.539062 L 1009.609375 1188.269531 L 946.898438 1188.269531 Z M 1066.03125 1175.539062 L 1066.03125 1162.820312 L 1040.949219 1162.820312 L 1040.949219 1111.929688 L 1034.691406 1111.929688 L 1034.691406 1099.210938 L 1022.140625 1099.210938 L 1022.140625 1086.488281 L 971.980469 1086.488281 L 971.980469 1099.210938 L 965.714844 1099.210938 L 965.714844 1086.488281 L 971.980469 1086.488281 L 971.980469 1073.769531 L 965.714844 1073.769531 L 965.714844 1061.050781 L 953.167969 1061.050781 L 953.167969 1048.320312 L 896.738281 1048.320312 L 896.738281 1061.050781 L 890.472656 1061.050781 L 890.472656 1048.320312 L 852.847656 1048.320312 L 852.847656 1061.050781 L 834.035156 1061.050781 L 834.035156 1073.769531 L 827.765625 1073.769531 L 827.765625 1099.210938 L 815.230469 1099.210938 L 815.230469 1086.488281 L 783.871094 1086.488281 L 783.871094 1099.210938 L 765.070312 1099.210938 L 765.070312 1111.929688 L 758.792969 1111.929688 L 758.792969 1124.648438 L 752.523438 1124.648438 L 752.523438 1150.101562 L 765.070312 1150.101562 L 765.070312 1162.820312 L 739.988281 1162.820312 L 739.988281 1175.539062 L 746.257812 1175.539062 L 746.257812 1188.269531 L 765.070312 1188.269531 L 765.070312 1200.988281 L 783.871094 1200.988281 L 783.871094 1188.269531 L 796.417969 1188.269531 L 796.417969 1200.988281 L 783.871094 1200.988281 L 783.871094 1239.148438 L 796.417969 1239.148438 L 796.417969 1251.871094 L 808.953125 1251.871094 L 808.953125 1239.148438 L 827.765625 1239.148438 L 827.765625 1264.589844 L 871.660156 1264.589844 L 871.660156 1277.320312 L 877.925781 1277.320312 L 877.925781 1290.039062 L 890.472656 1290.039062 L 890.472656 1302.761719 L 940.632812 1302.761719 L 940.632812 1290.039062 L 953.167969 1290.039062 L 953.167969 1264.589844 L 959.445312 1264.589844 L 959.445312 1277.320312 L 965.714844 1277.320312 L 965.714844 1290.039062 L 978.246094 1290.039062 L 978.246094 1302.761719 L 1047.21875 1302.761719 L 1047.21875 1290.039062 L 1059.769531 1290.039062 L 1059.769531 1251.871094 L 1053.488281 1251.871094 L 1053.488281 1239.148438 L 1059.769531 1239.148438 L 1059.769531 1226.429688 L 1072.300781 1226.429688 L 1072.300781 1175.539062 L 1066.03125 1175.539062"/></g><g><path fill="#4d9544" d="M 1084.851562 1213.710938 L 1084.851562 1175.539062 L 1072.300781 1175.539062 L 1072.300781 1213.710938 L 1078.570312 1213.710938 L 1078.570312 1188.269531 L 1078.570312 1213.710938 L 1072.300781 1213.710938 L 1072.300781 1226.429688 L 1084.851562 1226.429688 L 1084.851562 1213.710938"/></g><g><path fill="#4d9544" d="M 946.898438 1035.601562 L 896.738281 1035.601562 L 896.738281 1048.320312 L 953.167969 1048.320312 L 953.167969 1035.601562 L 946.898438 1035.601562"/></g><g><path fill="#4d9544" d="M 752.523438 1315.480469 L 752.523438 1315.921875 L 790.152344 1315.921875 L 790.152344 1315.480469 L 752.523438 1315.480469 L 752.523438 1302.761719 L 739.988281 1302.761719 L 739.988281 1315.480469 L 752.523438 1315.480469"/></g><g><path fill="#4d9544" d="M 1015.871094 1315.921875 L 1015.871094 1315.480469 L 1003.328125 1315.480469 L 1003.328125 1315.921875 L 1015.871094 1315.921875"/></g><g><path fill="#4d9544" d="M 1034.691406 1302.761719 L 1034.691406 1315.480469 L 1047.21875 1315.480469 L 1047.21875 1302.761719 L 1034.691406 1302.761719"/></g><g><path fill="#4d9544" d="M 733.714844 1290.039062 L 733.714844 1251.871094 L 746.257812 1251.871094 L 746.257812 1239.148438 L 727.445312 1239.148438 L 727.445312 1251.871094 L 721.175781 1251.871094 L 721.175781 1290.039062 L 727.445312 1290.039062 L 727.445312 1302.761719 L 739.988281 1302.761719 L 739.988281 1290.039062 L 733.714844 1290.039062"/></g><g><path fill="#4d9544" d="M 1059.769531 1226.429688 L 1059.769531 1239.148438 L 1053.488281 1239.148438 L 1053.488281 1251.871094 L 1059.769531 1251.871094 L 1059.769531 1290.039062 L 1053.488281 1290.039062 L 1053.488281 1302.761719 L 1066.03125 1302.761719 L 1066.03125 1290.039062 L 1072.300781 1290.039062 L 1072.300781 1251.871094 L 1066.03125 1251.871094 L 1066.03125 1239.148438 L 1072.300781 1239.148438 L 1072.300781 1226.429688 L 1059.769531 1226.429688"/></g><g><path fill="#4d9544" d="M 721.175781 1226.429688 L 721.175781 1175.539062 L 714.910156 1175.539062 L 714.910156 1188.269531 L 708.632812 1188.269531 L 708.632812 1226.429688 L 714.910156 1226.429688 L 714.910156 1239.148438 L 727.445312 1239.148438 L 727.445312 1226.429688 L 721.175781 1226.429688"/></g><g><path fill="#4d9544" d="M 1066.03125 1162.820312 L 1066.03125 1175.539062 L 1072.300781 1175.539062 L 1072.300781 1162.820312 L 1066.03125 1162.820312"/></g><g><path fill="#4d9544" d="M 733.714844 1175.539062 L 733.714844 1162.820312 L 758.792969 1162.820312 L 758.792969 1150.101562 L 752.523438 1150.101562 L 752.523438 1111.929688 L 746.257812 1111.929688 L 746.257812 1124.648438 L 739.988281 1124.648438 L 739.988281 1137.378906 L 746.257812 1137.378906 L 746.257812 1150.101562 L 733.714844 1150.101562 L 733.714844 1162.820312 L 721.175781 1162.820312 L 721.175781 1175.539062 L 733.714844 1175.539062"/></g><g><path fill="#4d9544" d="M 1059.769531 1150.101562 L 1047.21875 1150.101562 L 1047.21875 1162.820312 L 1066.03125 1162.820312 L 1066.03125 1150.101562 L 1059.769531 1150.101562"/></g><g><path fill="#4d9544" d="M 1053.488281 1137.378906 L 1053.488281 1124.648438 L 1047.21875 1124.648438 L 1047.21875 1099.210938 L 1040.949219 1099.210938 L 1040.949219 1086.488281 L 1022.140625 1086.488281 L 1022.140625 1099.210938 L 1034.691406 1099.210938 L 1034.691406 1111.929688 L 1040.949219 1111.929688 L 1040.949219 1150.101562 L 1047.21875 1150.101562 L 1047.21875 1137.378906 L 1053.488281 1137.378906"/></g><g><path fill="#4d9544" d="M 765.070312 1111.929688 L 765.070312 1099.210938 L 752.523438 1099.210938 L 752.523438 1111.929688 L 765.070312 1111.929688"/></g><g><path fill="#4d9544" d="M 777.605469 1099.210938 L 777.605469 1086.488281 L 765.070312 1086.488281 L 765.070312 1099.210938 L 777.605469 1099.210938"/></g><g><path fill="#4d9544" d="M 1015.871094 1073.769531 L 978.246094 1073.769531 L 978.246094 1061.050781 L 971.980469 1061.050781 L 971.980469 1048.320312 L 953.167969 1048.320312 L 953.167969 1061.050781 L 965.714844 1061.050781 L 965.714844 1073.769531 L 971.980469 1073.769531 L 971.980469 1086.488281 L 1022.140625 1086.488281 L 1022.140625 1073.769531 L 1015.871094 1073.769531"/></g><g><path fill="#4d9544" d="M 790.152344 1073.769531 L 783.871094 1073.769531 L 783.871094 1086.488281 L 802.6875 1086.488281 L 802.6875 1073.769531 L 790.152344 1073.769531"/></g><g><path fill="#4d9544" d="M 890.472656 1061.050781 L 896.738281 1061.050781 L 896.738281 1048.320312 L 890.472656 1048.320312 L 890.472656 1061.050781"/></g><g><path fill="#4d9544" d="M 840.3125 1048.320312 L 827.765625 1048.320312 L 827.765625 1061.050781 L 821.5 1061.050781 L 821.5 1073.769531 L 815.230469 1073.769531 L 815.230469 1099.210938 L 827.765625 1099.210938 L 827.765625 1073.769531 L 834.035156 1073.769531 L 834.035156 1061.050781 L 852.847656 1061.050781 L 852.847656 1048.320312 L 840.3125 1048.320312"/></g><g><path fill="#4d9544" d="M 871.660156 1048.320312 L 884.195312 1048.320312 L 884.195312 1035.601562 L 859.113281 1035.601562 L 859.113281 1048.320312 L 871.660156 1048.320312"/></g><g><path fill="#4d9544" d="M 1625.703125 1315.542969 L 1631.972656 1315.542969 L 1631.972656 1302.824219 L 1625.703125 1302.824219 L 1625.703125 1315.542969"/></g><g><path fill="#4d9544" d="M 1644.511719 1302.824219 L 1650.78125 1302.824219 L 1650.78125 1290.101562 L 1644.511719 1290.101562 L 1644.511719 1302.824219"/></g><g><path fill="#8eca4d" d="M 1468.949219 1213.761719 L 1475.230469 1213.761719 L 1475.230469 1201.039062 L 1468.949219 1201.039062 L 1468.949219 1213.761719"/></g><g><path fill="#4d9544" d="M 1318.46875 1188.328125 L 1324.738281 1188.328125 L 1324.738281 1175.601562 L 1318.46875 1175.601562 L 1318.46875 1188.328125"/></g><g><path fill="#4d9544" d="M 1669.605469 1175.601562 L 1675.867188 1175.601562 L 1675.867188 1162.878906 L 1669.605469 1162.878906 L 1669.605469 1175.601562"/></g><g><path fill="#488959" d="M 1638.257812 1162.878906 L 1644.523438 1162.878906 L 1644.523438 1150.160156 L 1638.257812 1150.160156 L 1638.257812 1162.878906"/></g><g><path fill="#8eca4d" d="M 1356.101562 1162.878906 L 1362.359375 1162.878906 L 1362.359375 1150.160156 L 1356.101562 1150.160156 L 1356.101562 1162.878906"/></g><g><path fill="#4d9544" d="M 1337.28125 1150.160156 L 1343.550781 1150.160156 L 1343.550781 1137.429688 L 1337.28125 1137.429688 L 1337.28125 1150.160156"/></g><g><path fill="#4d9544" d="M 1324.738281 1239.210938 L 1343.550781 1239.210938 L 1343.550781 1251.929688 L 1331.019531 1251.929688 L 1331.019531 1290.101562 L 1337.28125 1290.101562 L 1337.28125 1302.820312 L 1349.828125 1302.820312 L 1349.828125 1315.539062 L 1393.710938 1315.539062 L 1393.710938 1315.980469 L 1600.628906 1315.980469 L 1600.628906 1315.539062 L 1625.710938 1315.539062 L 1625.710938 1302.820312 L 1575.550781 1302.820312 L 1575.550781 1290.101562 L 1563.011719 1290.101562 L 1563.011719 1277.378906 L 1556.738281 1277.378906 L 1556.738281 1264.648438 L 1550.46875 1264.648438 L 1550.46875 1290.101562 L 1537.929688 1290.101562 L 1537.929688 1302.820312 L 1487.769531 1302.820312 L 1487.769531 1290.101562 L 1475.230469 1290.101562 L 1475.230469 1277.378906 L 1468.949219 1277.378906 L 1468.949219 1264.648438 L 1406.261719 1264.648438 L 1406.261719 1251.929688 L 1393.710938 1251.929688 L 1393.710938 1239.210938 L 1381.179688 1239.210938 L 1381.179688 1201.039062 L 1362.359375 1201.039062 L 1362.359375 1188.328125 L 1343.550781 1188.328125 L 1343.550781 1175.601562 L 1337.28125 1175.601562 L 1337.28125 1162.878906 L 1331.019531 1162.878906 L 1331.019531 1175.601562 L 1324.738281 1175.601562 L 1324.738281 1188.328125 L 1318.46875 1188.328125 L 1318.46875 1226.488281 L 1324.738281 1226.488281 L 1324.738281 1239.210938"/></g><g><path fill="#4d9544" d="M 1500.308594 1264.648438 L 1494.03125 1264.648438 L 1494.03125 1277.378906 L 1512.851562 1277.378906 L 1512.851562 1264.648438 L 1500.308594 1264.648438"/></g><g><path fill="#4d9544" d="M 1393.710938 1201.039062 L 1393.710938 1188.328125 L 1381.179688 1188.328125 L 1381.179688 1201.039062 L 1393.710938 1201.039062"/></g><g><path fill="#4d9544" d="M 1550.46875 1188.328125 L 1606.898438 1188.328125 L 1606.898438 1175.601562 L 1544.199219 1175.601562 L 1544.199219 1188.328125 L 1550.46875 1188.328125"/></g><g><path fill="#4d9544" d="M 1437.609375 1150.160156 L 1500.308594 1150.160156 L 1500.308594 1137.441406 L 1431.339844 1137.441406 L 1431.339844 1150.160156 L 1437.609375 1150.160156"/></g><g><path fill="#8eca4d" d="M 1613.171875 1239.210938 L 1600.628906 1239.210938 L 1600.628906 1264.648438 L 1619.441406 1264.648438 L 1619.441406 1239.210938 L 1613.171875 1239.210938"/></g><g><path fill="#8eca4d" d="M 1412.53125 1239.210938 L 1406.261719 1239.210938 L 1406.261719 1264.648438 L 1425.070312 1264.648438 L 1425.070312 1239.210938 L 1412.53125 1239.210938"/></g><g><path fill="#8eca4d" d="M 1475.230469 1188.328125 L 1468.949219 1188.328125 L 1468.949219 1201.039062 L 1475.230469 1201.039062 L 1475.230469 1213.761719 L 1487.769531 1213.761719 L 1487.769531 1188.328125 L 1475.230469 1188.328125"/></g><g><path fill="#8eca4d" d="M 1544.199219 1111.988281 L 1537.929688 1111.988281 L 1537.929688 1124.710938 L 1556.738281 1124.710938 L 1556.738281 1111.988281 L 1544.199219 1111.988281"/></g><g><path fill="#4d9544" d="M 1349.828125 1124.710938 L 1356.101562 1124.710938 L 1356.101562 1111.988281 L 1349.828125 1111.988281 L 1349.828125 1124.710938"/></g><g><path fill="#8eca4d" d="M 1563.011719 1099.269531 L 1569.28125 1099.269531 L 1569.28125 1086.550781 L 1563.011719 1086.550781 L 1563.011719 1099.269531"/></g><g><path fill="#49885b" d="M 1374.910156 1099.269531 L 1381.179688 1099.269531 L 1381.179688 1086.550781 L 1374.910156 1086.550781 L 1374.910156 1099.269531"/></g><g><path fill="#4d9544" d="M 1399.988281 1086.550781 L 1406.261719 1086.550781 L 1406.261719 1073.820312 L 1399.988281 1073.820312 L 1399.988281 1086.550781"/></g><g><path fill="#8eca4d" d="M 1494.035156 1264.652344 L 1512.851562 1264.652344 L 1512.851562 1277.378906 L 1494.035156 1277.378906 Z M 1556.742188 1124.710938 L 1537.925781 1124.710938 L 1537.925781 1111.988281 L 1556.742188 1111.988281 Z M 1600.632812 1251.929688 L 1600.632812 1239.210938 L 1619.4375 1239.210938 L 1619.4375 1264.652344 L 1600.632812 1264.652344 Z M 1443.875 1137.441406 L 1500.3125 1137.441406 L 1500.3125 1150.160156 L 1431.335938 1150.160156 L 1431.335938 1137.441406 Z M 1468.949219 1201.039062 L 1468.949219 1188.332031 L 1487.765625 1188.332031 L 1487.765625 1213.761719 L 1468.949219 1213.761719 Z M 1544.203125 1175.601562 L 1606.902344 1175.601562 L 1606.902344 1188.332031 L 1544.203125 1188.332031 Z M 1663.328125 1175.601562 L 1663.328125 1162.878906 L 1638.246094 1162.878906 L 1638.246094 1111.988281 L 1631.976562 1111.988281 L 1631.976562 1099.269531 L 1619.4375 1099.269531 L 1619.4375 1086.550781 L 1569.277344 1086.550781 L 1569.277344 1099.269531 L 1563.011719 1099.269531 L 1563.011719 1086.550781 L 1569.277344 1086.550781 L 1569.277344 1073.820312 L 1563.011719 1073.820312 L 1563.011719 1061.109375 L 1550.472656 1061.109375 L 1550.472656 1048.382812 L 1494.035156 1048.382812 L 1494.035156 1061.109375 L 1487.765625 1061.109375 L 1487.765625 1048.382812 L 1450.152344 1048.382812 L 1450.152344 1061.109375 L 1431.335938 1061.109375 L 1431.335938 1073.820312 L 1425.066406 1073.820312 L 1425.066406 1099.269531 L 1412.53125 1099.269531 L 1412.53125 1086.550781 L 1381.175781 1086.550781 L 1381.175781 1099.269531 L 1362.359375 1099.269531 L 1362.359375 1111.988281 L 1356.101562 1111.988281 L 1356.101562 1124.710938 L 1349.832031 1124.710938 L 1349.832031 1150.160156 L 1362.359375 1150.160156 L 1362.359375 1162.878906 L 1337.273438 1162.878906 L 1337.273438 1175.601562 L 1343.554688 1175.601562 L 1343.554688 1188.332031 L 1362.359375 1188.332031 L 1362.359375 1201.039062 L 1381.175781 1201.039062 L 1381.175781 1188.332031 L 1393.714844 1188.332031 L 1393.714844 1201.039062 L 1381.175781 1201.039062 L 1381.175781 1239.210938 L 1393.714844 1239.210938 L 1393.714844 1251.929688 L 1406.261719 1251.929688 L 1406.261719 1239.210938 L 1425.066406 1239.210938 L 1425.066406 1264.652344 L 1468.949219 1264.652344 L 1468.949219 1277.378906 L 1475.226562 1277.378906 L 1475.226562 1290.101562 L 1487.765625 1290.101562 L 1487.765625 1302.820312 L 1537.925781 1302.820312 L 1537.925781 1290.101562 L 1550.472656 1290.101562 L 1550.472656 1264.652344 L 1556.742188 1264.652344 L 1556.742188 1277.378906 L 1563.011719 1277.378906 L 1563.011719 1290.101562 L 1575.546875 1290.101562 L 1575.546875 1302.820312 L 1644.523438 1302.820312 L 1644.523438 1290.101562 L 1657.0625 1290.101562 L 1657.0625 1251.929688 L 1650.792969 1251.929688 L 1650.792969 1239.210938 L 1657.0625 1239.210938 L 1657.0625 1226.492188 L 1669.609375 1226.492188 L 1669.609375 1175.601562 L 1663.328125 1175.601562"/></g><g><path fill="#4d9544" d="M 1682.144531 1213.757812 L 1682.144531 1175.597656 L 1669.617188 1175.597656 L 1669.617188 1213.757812 L 1675.871094 1213.757812 L 1675.871094 1188.328125 L 1675.871094 1213.757812 L 1669.617188 1213.757812 L 1669.617188 1226.488281 L 1682.144531 1226.488281 L 1682.144531 1213.757812"/></g><g><path fill="#4d9544" d="M 1544.199219 1035.660156 L 1494.03125 1035.660156 L 1494.03125 1048.378906 L 1544.199219 1048.378906 L 1544.199219 1048.390625 L 1550.46875 1048.390625 L 1550.46875 1035.660156 L 1544.199219 1035.660156"/></g><g><path fill="#4d9544" d="M 1349.828125 1315.539062 L 1349.828125 1315.980469 L 1387.441406 1315.980469 L 1387.441406 1315.539062 L 1349.828125 1315.539062 L 1349.828125 1302.820312 L 1337.28125 1302.820312 L 1337.28125 1315.539062 L 1349.828125 1315.539062"/></g><g><path fill="#4d9544" d="M 1613.171875 1315.980469 L 1613.171875 1315.539062 L 1600.628906 1315.539062 L 1600.628906 1315.980469 L 1613.171875 1315.980469"/></g><g><path fill="#4d9544" d="M 1631.984375 1302.816406 L 1631.984375 1315.539062 L 1644.523438 1315.539062 L 1644.523438 1302.816406 L 1631.984375 1302.816406"/></g><g><path fill="#4d9544" d="M 1331.019531 1290.101562 L 1331.019531 1251.929688 L 1343.550781 1251.929688 L 1343.550781 1239.210938 L 1324.738281 1239.210938 L 1324.738281 1251.929688 L 1318.46875 1251.929688 L 1318.46875 1290.101562 L 1324.738281 1290.101562 L 1324.738281 1302.820312 L 1337.28125 1302.820312 L 1337.28125 1290.101562 L 1331.019531 1290.101562"/></g><g><path fill="#4d9544" d="M 1657.0625 1226.492188 L 1657.0625 1239.210938 L 1650.792969 1239.210938 L 1650.792969 1251.929688 L 1657.0625 1251.929688 L 1657.0625 1290.101562 L 1650.792969 1290.101562 L 1650.792969 1302.820312 L 1663.328125 1302.820312 L 1663.328125 1290.101562 L 1669.609375 1290.101562 L 1669.609375 1251.929688 L 1663.328125 1251.929688 L 1663.328125 1239.210938 L 1669.609375 1239.210938 L 1669.609375 1226.492188 L 1657.0625 1226.492188"/></g><g><path fill="#4d9544" d="M 1318.46875 1226.488281 L 1318.46875 1175.601562 L 1312.199219 1175.601562 L 1312.199219 1188.328125 L 1305.941406 1188.328125 L 1305.941406 1226.488281 L 1312.199219 1226.488281 L 1312.199219 1239.210938 L 1324.738281 1239.210938 L 1324.738281 1226.488281 L 1318.46875 1226.488281"/></g><g><path fill="#4d9544" d="M 1663.328125 1162.878906 L 1663.328125 1175.601562 L 1669.609375 1175.601562 L 1669.609375 1162.878906 L 1663.328125 1162.878906"/></g><g><path fill="#4d9544" d="M 1331.019531 1175.601562 L 1331.019531 1162.878906 L 1356.101562 1162.878906 L 1356.101562 1150.160156 L 1349.828125 1150.160156 L 1349.828125 1111.988281 L 1343.550781 1111.988281 L 1343.550781 1124.710938 L 1337.28125 1124.710938 L 1337.28125 1137.441406 L 1343.550781 1137.441406 L 1343.550781 1150.160156 L 1331.019531 1150.160156 L 1331.019531 1162.878906 L 1318.46875 1162.878906 L 1318.46875 1175.601562 L 1331.019531 1175.601562"/></g><g><path fill="#4d9544" d="M 1657.066406 1150.160156 L 1644.527344 1150.160156 L 1644.527344 1162.878906 L 1663.332031 1162.878906 L 1663.332031 1150.160156 L 1657.066406 1150.160156"/></g><g><path fill="#4d9544" d="M 1650.78125 1137.445312 L 1650.78125 1124.714844 L 1644.511719 1124.714844 L 1644.511719 1099.273438 L 1638.246094 1099.273438 L 1638.246094 1086.554688 L 1619.429688 1086.554688 L 1619.429688 1099.273438 L 1631.976562 1099.273438 L 1631.976562 1111.992188 L 1638.246094 1111.992188 L 1638.246094 1150.164062 L 1644.511719 1150.164062 L 1644.511719 1137.445312 L 1650.78125 1137.445312"/></g><g><path fill="#4d9544" d="M 1362.359375 1111.988281 L 1362.359375 1099.269531 L 1349.828125 1099.269531 L 1349.828125 1111.988281 L 1362.359375 1111.988281"/></g><g><path fill="#4d9544" d="M 1374.910156 1099.269531 L 1374.910156 1086.550781 L 1362.359375 1086.550781 L 1362.359375 1099.269531 L 1374.910156 1099.269531"/></g><g><path fill="#4d9544" d="M 1613.171875 1073.820312 L 1575.550781 1073.820312 L 1575.550781 1061.109375 L 1569.28125 1061.109375 L 1569.28125 1048.378906 L 1556.738281 1048.378906 L 1556.738281 1048.390625 L 1550.46875 1048.390625 L 1550.46875 1061.109375 L 1563.011719 1061.109375 L 1563.011719 1073.820312 L 1569.28125 1073.820312 L 1569.28125 1086.550781 L 1619.441406 1086.550781 L 1619.441406 1073.820312 L 1613.171875 1073.820312"/></g><g><path fill="#4d9544" d="M 1387.441406 1073.820312 L 1381.179688 1073.820312 L 1381.179688 1086.550781 L 1399.988281 1086.550781 L 1399.988281 1073.820312 L 1387.441406 1073.820312"/></g><g><path fill="#4d9544" d="M 1487.769531 1061.109375 L 1494.03125 1061.109375 L 1494.03125 1048.378906 L 1487.769531 1048.378906 L 1487.769531 1061.109375"/></g><g><path fill="#4d9544" d="M 1437.609375 1048.378906 L 1425.070312 1048.378906 L 1425.070312 1061.109375 L 1418.789062 1061.109375 L 1418.789062 1073.820312 L 1412.53125 1073.820312 L 1412.53125 1099.269531 L 1425.070312 1099.269531 L 1425.070312 1073.820312 L 1431.339844 1073.820312 L 1431.339844 1061.109375 L 1450.148438 1061.109375 L 1450.148438 1048.378906 L 1437.609375 1048.378906"/></g><g><path fill="#4d9544" d="M 1468.949219 1048.378906 L 1481.5 1048.378906 L 1481.5 1035.660156 L 1456.421875 1035.660156 L 1456.421875 1048.378906 L 1468.949219 1048.378906"/></g><g><path fill="#4d9544" d="M 2263.542969 1314.980469 L 2269.808594 1314.980469 L 2269.808594 1302.269531 L 2263.542969 1302.269531 L 2263.542969 1314.980469"/></g><g><path fill="#4d9544" d="M 2282.355469 1302.269531 L 2288.617188 1302.269531 L 2288.617188 1289.539062 L 2282.355469 1289.539062 L 2282.355469 1302.269531"/></g><g><path fill="#8eca4d" d="M 2106.777344 1213.210938 L 2113.050781 1213.210938 L 2113.050781 1200.488281 L 2106.777344 1200.488281 L 2106.777344 1213.210938"/></g><g><path fill="#4d9544" d="M 1956.285156 1187.761719 L 1962.570312 1187.761719 L 1962.570312 1175.050781 L 1956.285156 1175.050781 L 1956.285156 1187.761719"/></g><g><path fill="#4d9544" d="M 2307.425781 1175.050781 L 2313.6875 1175.050781 L 2313.6875 1162.320312 L 2307.425781 1162.320312 L 2307.425781 1175.050781"/></g><g><path fill="#488959" d="M 2276.070312 1162.320312 L 2282.34375 1162.320312 L 2282.34375 1149.601562 L 2276.070312 1149.601562 L 2276.070312 1162.320312"/></g><g><path fill="#8eca4d" d="M 1993.917969 1162.320312 L 2000.1875 1162.320312 L 2000.1875 1149.601562 L 1993.917969 1149.601562 L 1993.917969 1162.320312"/></g><g><path fill="#4d9544" d="M 1975.101562 1149.601562 L 1981.363281 1149.601562 L 1981.363281 1136.882812 L 1975.101562 1136.882812 L 1975.101562 1149.601562"/></g><g><path fill="#4d9544" d="M 1962.566406 1238.648438 L 1981.367188 1238.648438 L 1981.367188 1251.367188 L 1968.84375 1251.367188 L 1968.84375 1289.539062 L 1975.105469 1289.539062 L 1975.105469 1302.269531 L 1987.644531 1302.269531 L 1987.644531 1314.980469 L 2031.539062 1314.980469 L 2031.539062 1315.421875 L 2238.453125 1315.421875 L 2238.453125 1314.980469 L 2263.53125 1314.980469 L 2263.53125 1302.269531 L 2213.375 1302.269531 L 2213.375 1289.539062 L 2200.832031 1289.539062 L 2200.832031 1276.820312 L 2194.558594 1276.820312 L 2194.558594 1264.097656 L 2188.292969 1264.097656 L 2188.292969 1289.539062 L 2175.753906 1289.539062 L 2175.753906 1302.269531 L 2125.59375 1302.269531 L 2125.59375 1289.539062 L 2113.054688 1289.539062 L 2113.054688 1276.820312 L 2106.777344 1276.820312 L 2106.777344 1264.097656 L 2044.082031 1264.097656 L 2044.082031 1251.367188 L 2031.539062 1251.367188 L 2031.539062 1238.648438 L 2019 1238.648438 L 2019 1200.488281 L 2000.183594 1200.488281 L 2000.183594 1187.757812 L 1981.367188 1187.757812 L 1981.367188 1175.050781 L 1975.105469 1175.050781 L 1975.105469 1162.320312 L 1968.84375 1162.320312 L 1968.84375 1175.050781 L 1962.566406 1175.050781 L 1962.566406 1187.757812 L 1956.289062 1187.757812 L 1956.289062 1225.929688 L 1962.566406 1225.929688 L 1962.566406 1238.648438"/></g><g><path fill="#4d9544" d="M 2138.136719 1264.101562 L 2131.855469 1264.101562 L 2131.855469 1276.820312 L 2150.671875 1276.820312 L 2150.671875 1264.101562 L 2138.136719 1264.101562"/></g><g><path fill="#4d9544" d="M 2031.535156 1200.492188 L 2031.535156 1187.761719 L 2018.996094 1187.761719 L 2018.996094 1200.492188 L 2031.535156 1200.492188"/></g><g><path fill="#4d9544" d="M 2188.289062 1187.757812 L 2244.722656 1187.757812 L 2244.722656 1175.050781 L 2182.019531 1175.050781 L 2182.019531 1187.757812 L 2188.289062 1187.757812"/></g><g><path fill="#4d9544" d="M 2075.433594 1149.597656 L 2138.136719 1149.597656 L 2138.136719 1136.878906 L 2069.164062 1136.878906 L 2069.164062 1149.597656 L 2075.433594 1149.597656"/></g><g><path fill="#8eca4d" d="M 2251 1238.648438 L 2238.453125 1238.648438 L 2238.453125 1264.097656 L 2257.273438 1264.097656 L 2257.273438 1238.648438 L 2251 1238.648438"/></g><g><path fill="#8eca4d" d="M 2050.351562 1238.648438 L 2044.089844 1238.648438 L 2044.089844 1264.097656 L 2062.894531 1264.097656 L 2062.894531 1238.648438 L 2050.351562 1238.648438"/></g><g><path fill="#8eca4d" d="M 2113.039062 1187.761719 L 2106.78125 1187.761719 L 2106.78125 1200.492188 L 2113.039062 1200.492188 L 2113.039062 1213.210938 L 2125.585938 1213.210938 L 2125.585938 1187.761719 L 2113.039062 1187.761719"/></g><g><path fill="#8eca4d" d="M 2182.03125 1111.4375 L 2175.757812 1111.4375 L 2175.757812 1124.15625 L 2194.566406 1124.15625 L 2194.566406 1111.4375 L 2182.03125 1111.4375"/></g><g><path fill="#4d9544" d="M 1987.636719 1124.164062 L 1993.914062 1124.164062 L 1993.914062 1111.441406 L 1987.636719 1111.441406 L 1987.636719 1124.164062"/></g><g><path fill="#8eca4d" d="M 2200.835938 1098.707031 L 2207.117188 1098.707031 L 2207.117188 1085.988281 L 2200.835938 1085.988281 L 2200.835938 1098.707031"/></g><g><path fill="#49885b" d="M 2012.730469 1098.710938 L 2019 1098.710938 L 2019 1085.992188 L 2012.730469 1085.992188 L 2012.730469 1098.710938"/></g><g><path fill="#4d9544" d="M 2037.816406 1085.988281 L 2044.085938 1085.988281 L 2044.085938 1073.269531 L 2037.816406 1073.269531 L 2037.816406 1085.988281"/></g><g><path fill="#8eca4d" d="M 2131.867188 1264.101562 L 2150.664062 1264.101562 L 2150.664062 1276.820312 L 2131.867188 1276.820312 Z M 2194.5625 1124.160156 L 2175.75 1124.160156 L 2175.75 1111.441406 L 2194.5625 1111.441406 Z M 2238.445312 1251.371094 L 2238.445312 1238.648438 L 2257.273438 1238.648438 L 2257.273438 1264.101562 L 2238.445312 1264.101562 Z M 2081.695312 1136.882812 L 2138.121094 1136.882812 L 2138.121094 1149.601562 L 2069.152344 1149.601562 L 2069.152344 1136.882812 Z M 2106.78125 1200.492188 L 2106.78125 1187.761719 L 2125.59375 1187.761719 L 2125.59375 1213.210938 L 2106.78125 1213.210938 Z M 2182.019531 1175.050781 L 2244.71875 1175.050781 L 2244.71875 1187.761719 L 2182.019531 1187.761719 Z M 2301.15625 1175.050781 L 2301.15625 1162.320312 L 2276.074219 1162.320312 L 2276.074219 1111.441406 L 2269.800781 1111.441406 L 2269.800781 1098.710938 L 2257.273438 1098.710938 L 2257.273438 1085.992188 L 2207.105469 1085.992188 L 2207.105469 1098.710938 L 2200.832031 1098.710938 L 2200.832031 1085.992188 L 2207.105469 1085.992188 L 2207.105469 1073.269531 L 2200.832031 1073.269531 L 2200.832031 1060.539062 L 2188.292969 1060.539062 L 2188.292969 1047.832031 L 2131.867188 1047.832031 L 2131.867188 1060.539062 L 2125.59375 1060.539062 L 2125.59375 1047.832031 L 2087.96875 1047.832031 L 2087.96875 1060.539062 L 2069.152344 1060.539062 L 2069.152344 1073.269531 L 2062.882812 1073.269531 L 2062.882812 1098.710938 L 2050.355469 1098.710938 L 2050.355469 1085.992188 L 2019 1085.992188 L 2019 1098.710938 L 2000.1875 1098.710938 L 2000.1875 1111.441406 L 1993.914062 1111.441406 L 1993.914062 1124.160156 L 1987.644531 1124.160156 L 1987.644531 1149.601562 L 2000.1875 1149.601562 L 2000.1875 1162.320312 L 1975.101562 1162.320312 L 1975.101562 1175.050781 L 1981.371094 1175.050781 L 1981.371094 1187.761719 L 2000.1875 1187.761719 L 2000.1875 1200.492188 L 2019 1200.492188 L 2019 1187.761719 L 2031.542969 1187.761719 L 2031.542969 1200.492188 L 2019 1200.492188 L 2019 1238.648438 L 2031.542969 1238.648438 L 2031.542969 1251.371094 L 2044.082031 1251.371094 L 2044.082031 1238.648438 L 2062.882812 1238.648438 L 2062.882812 1264.101562 L 2106.78125 1264.101562 L 2106.78125 1276.820312 L 2113.050781 1276.820312 L 2113.050781 1289.539062 L 2125.59375 1289.539062 L 2125.59375 1302.269531 L 2175.75 1302.269531 L 2175.75 1289.539062 L 2188.292969 1289.539062 L 2188.292969 1264.101562 L 2194.5625 1264.101562 L 2194.5625 1276.820312 L 2200.832031 1276.820312 L 2200.832031 1289.539062 L 2213.363281 1289.539062 L 2213.363281 1302.269531 L 2282.34375 1302.269531 L 2282.34375 1289.539062 L 2294.871094 1289.539062 L 2294.871094 1251.371094 L 2288.613281 1251.371094 L 2288.613281 1238.648438 L 2294.871094 1238.648438 L 2294.871094 1225.929688 L 2307.429688 1225.929688 L 2307.429688 1175.050781 L 2301.15625 1175.050781"/></g><g><path fill="#4d9544" d="M 2319.960938 1213.210938 L 2319.960938 1175.050781 L 2307.4375 1175.050781 L 2307.4375 1213.210938 L 2313.6875 1213.210938 L 2313.6875 1187.757812 L 2313.6875 1213.210938 L 2307.4375 1213.210938 L 2307.4375 1225.929688 L 2319.960938 1225.929688 L 2319.960938 1213.210938"/></g><g><path fill="#4d9544" d="M 2182.023438 1035.109375 L 2131.867188 1035.109375 L 2131.867188 1047.828125 L 2188.292969 1047.828125 L 2188.292969 1035.109375 L 2182.023438 1035.109375"/></g><g><path fill="#4d9544" d="M 1987.652344 1314.980469 L 1987.652344 1315.417969 L 2025.273438 1315.417969 L 2025.273438 1314.980469 L 1987.652344 1314.980469 L 1987.652344 1302.269531 L 1975.117188 1302.269531 L 1975.117188 1314.980469 L 1987.652344 1314.980469"/></g><g><path fill="#4d9544" d="M 2250.996094 1315.421875 L 2250.996094 1314.980469 L 2238.445312 1314.980469 L 2238.445312 1315.421875 L 2250.996094 1315.421875"/></g><g><path fill="#4d9544" d="M 2269.796875 1302.269531 L 2269.796875 1314.980469 L 2282.34375 1314.980469 L 2282.34375 1302.269531 L 2269.796875 1302.269531"/></g><g><path fill="#4d9544" d="M 1968.832031 1289.542969 L 1968.832031 1251.371094 L 1981.363281 1251.371094 L 1981.363281 1238.652344 L 1962.558594 1238.652344 L 1962.558594 1251.371094 L 1956.285156 1251.371094 L 1956.285156 1289.542969 L 1962.558594 1289.542969 L 1962.558594 1302.273438 L 1975.101562 1302.273438 L 1975.101562 1289.542969 L 1968.832031 1289.542969"/></g><g><path fill="#4d9544" d="M 2294.871094 1225.929688 L 2294.871094 1238.648438 L 2288.613281 1238.648438 L 2288.613281 1251.371094 L 2294.871094 1251.371094 L 2294.871094 1289.539062 L 2288.613281 1289.539062 L 2288.613281 1302.269531 L 2301.15625 1302.269531 L 2301.15625 1289.539062 L 2307.429688 1289.539062 L 2307.429688 1251.371094 L 2301.15625 1251.371094 L 2301.15625 1238.648438 L 2307.429688 1238.648438 L 2307.429688 1225.929688 L 2294.871094 1225.929688"/></g><g><path fill="#4d9544" d="M 1956.285156 1225.929688 L 1956.285156 1175.050781 L 1950.035156 1175.050781 L 1950.035156 1187.761719 L 1943.761719 1187.761719 L 1943.761719 1225.929688 L 1950.035156 1225.929688 L 1950.035156 1238.648438 L 1962.570312 1238.648438 L 1962.570312 1225.929688 L 1956.285156 1225.929688"/></g><g><path fill="#4d9544" d="M 2301.15625 1162.320312 L 2301.15625 1175.050781 L 2307.429688 1175.050781 L 2307.429688 1162.320312 L 2301.15625 1162.320312"/></g><g><path fill="#4d9544" d="M 1968.835938 1175.050781 L 1968.835938 1162.324219 L 1993.914062 1162.324219 L 1993.914062 1149.601562 L 1987.636719 1149.601562 L 1987.636719 1111.441406 L 1981.363281 1111.441406 L 1981.363281 1124.164062 L 1975.101562 1124.164062 L 1975.101562 1136.882812 L 1981.363281 1136.882812 L 1981.363281 1149.601562 L 1968.835938 1149.601562 L 1968.835938 1162.324219 L 1956.285156 1162.324219 L 1956.285156 1175.050781 L 1968.835938 1175.050781"/></g><g><path fill="#4d9544" d="M 2294.871094 1149.601562 L 2282.347656 1149.601562 L 2282.347656 1162.324219 L 2301.152344 1162.324219 L 2301.152344 1149.601562 L 2294.871094 1149.601562"/></g><g><path fill="#4d9544" d="M 2288.617188 1136.878906 L 2288.617188 1124.15625 L 2282.355469 1124.15625 L 2282.355469 1098.707031 L 2276.09375 1098.707031 L 2276.09375 1085.988281 L 2257.277344 1085.988281 L 2257.277344 1098.707031 L 2269.804688 1098.707031 L 2269.804688 1111.4375 L 2276.09375 1111.4375 L 2276.09375 1149.597656 L 2282.355469 1149.597656 L 2282.355469 1136.878906 L 2288.617188 1136.878906"/></g><g><path fill="#4d9544" d="M 2000.1875 1111.441406 L 2000.1875 1098.710938 L 1987.648438 1098.710938 L 1987.648438 1111.441406 L 2000.1875 1111.441406"/></g><g><path fill="#4d9544" d="M 2012.722656 1098.710938 L 2012.722656 1085.992188 L 2000.179688 1085.992188 L 2000.179688 1098.710938 L 2012.722656 1098.710938"/></g><g><path fill="#4d9544" d="M 2251 1073.269531 L 2213.375 1073.269531 L 2213.375 1060.539062 L 2207.113281 1060.539062 L 2207.113281 1047.828125 L 2188.292969 1047.828125 L 2188.292969 1060.539062 L 2200.828125 1060.539062 L 2200.828125 1073.269531 L 2207.113281 1073.269531 L 2207.113281 1085.988281 L 2257.273438 1085.988281 L 2257.273438 1073.269531 L 2251 1073.269531"/></g><g><path fill="#4d9544" d="M 2025.269531 1073.269531 L 2018.996094 1073.269531 L 2018.996094 1085.988281 L 2037.808594 1085.988281 L 2037.808594 1073.269531 L 2025.269531 1073.269531"/></g><g><path fill="#4d9544" d="M 2125.597656 1060.539062 L 2131.859375 1060.539062 L 2131.859375 1047.828125 L 2125.597656 1047.828125 L 2125.597656 1060.539062"/></g><g><path fill="#4d9544" d="M 2075.425781 1047.832031 L 2062.882812 1047.832031 L 2062.882812 1060.542969 L 2056.621094 1060.542969 L 2056.621094 1073.273438 L 2050.34375 1073.273438 L 2050.34375 1098.710938 L 2062.882812 1098.710938 L 2062.882812 1073.273438 L 2069.160156 1073.273438 L 2069.160156 1060.542969 L 2087.964844 1060.542969 L 2087.964844 1047.832031 L 2075.425781 1047.832031"/></g><g><path fill="#4d9544" d="M 2106.792969 1047.828125 L 2119.324219 1047.828125 L 2119.324219 1035.105469 L 2094.246094 1035.105469 L 2094.246094 1047.828125 L 2106.792969 1047.828125"/></g></g></svg>