<?xml version="1.0" encoding="UTF-8"?><svg xmlns="http://www.w3.org/2000/svg" xmlns:xlink="http://www.w3.org/1999/xlink" contentScriptType="text/ecmascript" fill="#000000" width="515.9" zoomAndPan="magnify" contentStyleType="text/css" viewBox="-2.0 -0.5 515.9 512.5" height="512.5" preserveAspectRatio="xMidYMid meet" version="1"><g><g id="change1_1"><path fill="#868eaf" d="m88.693 288.252c9.404 0 18.564 3.795 25.214 10.445l99.654 99.654c13.75 13.75 13.734 36.694 0 50.429-13.925 13.925-36.504 13.925-50.429 0-11.259-11.259-13.287-28.696-6.093-42.19l-51.371-51.371c-13.493 7.194-30.93 5.167-42.19-6.093-13.741-13.741-13.741-36.687 0-50.429 6.96-6.959 16.085-10.445 25.215-10.445z"/></g><g id="change2_1"><path fill="#c68986" d="m157.04 406.59-68.805 53.531-36.24-36.241 53.674-68.661z"/></g><g id="change3_6"><path fill="#ffffff" d="m255.959 304.717h.03l-68.029 68.029-48.443-48.443 46.218-46.218c18.688 16.575 43.283 26.632 70.224 26.632z"/></g><g id="change3_3"><path fill="#ffffff" d="m501.415 10-14.229 63.52-125.302 125.302v-.03c0-26.94-10.058-51.536-26.631-70.224l103.491-103.491z"/></g><g id="change3_1"><path fill="#ffffff" d="m93.884 465.723-47.035-47.035c-6.238-6.238-16.353-6.238-22.591 0l-9.011 9.011c-6.238 6.238-6.238 16.353 0 22.591l47.032 47.032c6.235 6.235 16.344 6.239 22.584.008l9.014-9.007c6.245-6.238 6.249-16.359.007-22.6z"/></g><g id="change1_2"><path fill="#868eaf" d="m423.289 288.252c-9.404 0-18.564 3.795-25.214 10.445l-99.654 99.654c-13.75 13.75-13.734 36.694 0 50.429 13.925 13.925 36.504 13.925 50.429 0 11.259-11.259 13.287-28.696 6.093-42.19l51.371-51.371c13.493 7.194 30.93 5.167 42.19-6.093 13.741-13.741 13.741-36.687 0-50.429-6.96-6.959-16.084-10.445-25.215-10.445z"/></g><g id="change2_2"><path fill="#c68986" d="m354.943 406.59 68.633 53.361 36.241-36.241-53.503-68.491z"/></g><g id="change3_2"><path fill="#ffffff" d="m176.694 128.528c-16.583 18.689-26.651 43.274-26.661 70.224l-125.232-125.232-14.229-63.52 62.671 15.077z"/></g><g id="change3_4"><path fill="#ffffff" d="m372.47 324.304-48.443 48.443-68.029-68.029c26.95-.01 51.536-10.078 70.224-26.661z"/></g><g id="change3_5"><path fill="#ffffff" d="m417.928 465.552 47.035-47.035c6.238-6.238 16.353-6.238 22.591 0l9.181 9.181c6.238 6.238 6.238 16.353 0 22.591l-47.032 47.032c-6.235 6.235-16.344 6.239-22.584.008l-9.185-9.178c-6.244-6.237-6.248-16.357-.006-22.599z"/></g><g id="change4_1"><circle fill="#ffce69" r="105.926" cx="255.959" cy="198.792"/></g><g id="change5_1"><path d="m15.042 75.706c.415 1.85 1.347 3.544 2.687 4.885l122.387 122.387c1.036 29.023 12.788 55.361 31.416 75.167l-32.017 32.017-18.537-18.537c-17.589-17.589-47.015-17.556-64.571 0-17.465 17.466-17.465 47.105 0 64.571 7.086 7.085 16.238 11.4 25.837 12.749l-31.334 40.086c-10.203-7.511-24.784-6.354-33.724 2.585l-9.011 9.011c-10.127 10.128-10.127 26.606 0 36.733l47.032 47.032c5.063 5.062 11.713 7.594 18.366 7.594 6.646 0 13.295-2.528 18.357-7.584l9.012-9.005c9.115-9.103 10.117-24.015 2.224-34.224l40.137-31.227c1.338 9.624 5.656 18.802 12.758 25.904 17.595 17.596 46.976 17.595 64.571 0 17.466-17.466 17.466-47.104 0-64.571l-18.532-18.532 53.893-53.893 53.891 53.89-18.534 18.536c-8.538 8.538-13.238 20.006-13.235 32.293.003 12.282 4.703 23.745 13.235 32.278 17.595 17.594 46.976 17.595 64.571 0 7.104-7.104 11.422-16.287 12.759-25.914l39.963 31.07c-7.889 10.207-6.89 25.118 2.224 34.219l9.187 9.18c5.062 5.055 11.708 7.582 18.354 7.582 6.652 0 13.305-2.532 18.367-7.594l47.032-47.032c10.127-10.127 10.127-26.605 0-36.734l-9.181-9.181c-8.939-8.939-23.518-10.097-33.721-2.588l-31.177-39.911c9.603-1.348 18.759-5.663 25.847-12.75 17.465-17.466 17.465-47.105 0-64.571-17.558-17.558-46.983-17.588-64.571 0l-18.535 18.535-32.051-32.051c18.593-19.786 30.327-46.082 31.38-75.059l122.459-122.461c1.34-1.341 2.272-3.035 2.687-4.885l14.229-63.52c.754-3.37-.282-6.89-2.743-9.312-2.46-2.422-5.998-3.404-9.354-2.596l-62.671 15.077c-1.792.431-3.429 1.349-4.732 2.651l-96.33 96.33c-9.353-8.805-20.24-16.144-32.384-21.537-5.045-2.24-10.956.034-13.198 5.082-2.241 5.047.034 10.956 5.082 13.198 34.344 15.25 57.042 50.211 57.042 87.746-.012 37.052-21.142 69.258-51.981 85.219-27.39 14.125-60.596 14.103-87.972-.044-30.803-15.981-51.898-48.175-51.898-85.207 0-37.595 22.808-72.607 57.245-87.803 5.053-2.229 7.341-8.133 5.112-13.186-2.229-5.052-8.131-7.34-13.186-5.112-12.23 5.396-23.188 12.761-32.596 21.607l-96.294-96.293c-1.303-1.303-2.941-2.22-4.732-2.651l-62.672-15.077c-3.357-.808-6.893.173-9.354 2.596s-3.498 5.943-2.743 9.312zm126.918 329.946-52.87 41.134-23.746-23.746 41.244-52.76 17.691 17.69zm-55.152 75.596-9.012 9.005c-2.33 2.325-6.119 2.326-8.446-.002l-47.032-47.033c-2.33-2.329-2.33-6.12 0-8.449l9.011-9.011c2.301-2.302 6.148-2.302 8.449 0l47.036 47.036c2.303 2.304 2.299 6.152-.006 8.454zm119.682-39.54c-9.879 9.88-26.406 9.881-36.286 0-7.895-7.894-9.679-20.4-4.34-30.414 2.04-3.832 1.321-8.703-1.753-11.776l-51.371-51.371c-3.075-3.074-7.941-3.785-11.776-1.752-10.013 5.338-22.52 3.555-30.414-4.34-9.752-9.751-9.753-26.534 0-36.286 9.866-9.867 26.408-9.879 36.286 0l99.654 99.654c9.835 9.834 9.835 26.451 0 36.285zm-18.531-83.104-34.301-34.3 32.76-32.76c13.979 10.495 30.365 17.766 47.53 21.071zm217.433 11.678 41.078 52.585-23.75 23.75-52.694-40.968zm70.867 53.559c1.53 0 3.06.583 4.225 1.748l9.181 9.181c2.33 2.33 2.33 6.12 0 8.449l-47.032 47.032c-2.328 2.328-6.117 2.329-8.444.005l-9.188-9.18c-2.304-2.301-2.305-6.149-.002-8.452l5.161-5.161c.164-.144.331-.284.488-.441l41.387-41.434c1.164-1.165 2.694-1.747 4.224-1.747zm-71.113-118.073c9.876-9.877 26.419-9.868 36.286 0 9.752 9.751 9.753 26.534 0 36.286-7.895 7.896-20.401 9.679-30.414 4.34-3.818-2.073-8.723-1.3-11.776 1.752l-51.371 51.371c-3.063 3.064-3.805 7.946-1.753 11.776 5.339 10.013 3.555 22.52-4.34 30.414-9.879 9.879-26.406 9.88-36.286 0-9.834-9.835-9.835-26.452 0-36.287zm-81.12 52.835-46-45.999c17.163-3.32 33.537-10.588 47.514-21.087l32.786 32.786zm119.796-324.463 44.326-10.663-10.085 45.024-108.281 108.281c-3.318-17.192-10.497-33.446-21.071-47.53zm-375.657 0 95.069 95.069c-10.499 13.975-17.767 30.352-21.087 47.514l-108.223-108.222-10.085-45.024z"/></g><g id="change5_2"><path d="m275.773 202.035c.441.288.905.541 1.387.755.38.169 9.425 4.196 19.608 7.953 3.905 1.44 7.896 3.994 7.388 6.841-.425 2.383-3.77 5.909-9.596 5.909-5.944 0-11.648-2.362-15.279-6.323-3.569-3.892-9.672-4.457-13.77-1.126-4.487 3.647-4.947 10.257-1.115 14.486 7.466 8.238 18.46 12.963 30.164 12.963 14.652 0 26.968-9.417 29.285-22.393 1.756-9.836-2.616-22.652-20.155-29.122-6.976-2.573-13.535-5.349-16.588-6.669-1.082-.468-1.768-1.589-1.608-2.756.001-.007.002-.014.003-.021.244-1.698 1.667-3.059 3.904-3.732 8.314-2.504 16.207 3.762 16.286 3.826l1.583.974c4.444 2.733 10.247 1.54 13.251-2.724l.051-.072c3.06-4.343 2.137-10.327-2.088-13.547-5.89-4.95-19.859-12.125-34.852-7.606-9.707 2.924-16.578 10.603-17.933 20.041-1.276 8.898 2.584 17.46 10.074 22.343z"/></g><g id="change5_3"><path d="m204.231 164.92c-1.812-5.217-7.508-7.978-12.727-6.168-5.217 1.811-7.979 7.509-6.168 12.727l22.348 64.381c1.625 4.574 5.963 7.633 10.812 7.633h.078c4.88-.033 9.214-3.16 10.808-7.846l21.319-64.175c1.741-5.241-1.096-10.902-6.337-12.643-5.24-1.74-10.902 1.096-12.643 6.337l-13.401 40.342z"/></g><g id="change5_4"><path d="m246.721 96.69c2.096 5.03 8.019 7.492 13.06 5.41 5.034-2.079 7.498-8.029 5.41-13.06-2.089-5.031-8.021-7.5-13.06-5.41-5.023 2.084-7.505 8.031-5.41 13.06z"/></g></g></svg>