<?xml version="1.0" encoding="UTF-8"?><svg xmlns="http://www.w3.org/2000/svg" xmlns:xlink="http://www.w3.org/1999/xlink" contentScriptType="text/ecmascript" fill="#000000" width="458.4" zoomAndPan="magnify" contentStyleType="text/css" viewBox="-0.7 -0.7 458.4 357.5" height="357.5" data-name="Layer 1" preserveAspectRatio="xMidYMid meet" version="1"><g id="change1_1"><path fill="#e4a211" d="M444.47,51.35h-.57v-3a11.32,11.32,0,0,1,0-2.4V39.73H432.25V26.82H380.48V1H76.36V26.82H25.88V39.73H20.47a36.66,36.66,0,0,1,2.68,9.18l-3.1.06a13.51,13.51,0,0,0-3.48.22c-2.27.67-2.42,3.3-2.89,5.25L12.84,58a23,23,0,0,0-.79,3.55c-.19,2.7,2.75,2.78,4.74,3a40.75,40.75,0,0,0,5.19.33c-.89,3.45-1.74,6.9-2.43,10.38-.06,1.12-.08,2.24-.08,3.35.74,2.86,1.67,5.67,2.45,8.53.12.45.22.91.34,1.36-2-.11-4-.7-6-.63-1.37,0-3.16.24-4,1.47s-.47,3.27-.35,4.65a12.15,12.15,0,0,0,2.6,7.14h-.65a1.51,1.51,0,0,0-.4,3,13.67,13.67,0,0,0,6.07,0c.71,0,1.42,0,2.13,0h.82a1.85,1.85,0,0,0,.15.37,7.46,7.46,0,0,0,.21.88,8.63,8.63,0,0,0,0,2,29.83,29.83,0,0,0-.54,6.32,22.6,22.6,0,0,0,.54,4,10.4,10.4,0,0,0-.29,3.69,6,6,0,0,0,1.41,3.21,1.19,1.19,0,0,0,.9.81l.13.08a3,3,0,0,0-.05,2.05c-.27,1.56-.57,3.11-.95,4.65a36.21,36.21,0,0,1,11,21.17h3.85v8a32.91,32.91,0,0,1,7.08,4.55c.41.1.81.2,1.21.33h3.36v1.23a34.09,34.09,0,0,1,16.21,15l2.62.47a22.33,22.33,0,0,1,2.78.74,33.89,33.89,0,0,1,10.13,4.71,11.55,11.55,0,0,1,4.59-1,86.47,86.47,0,0,1,13.25.93c3,.46,5.52,3,7.08,5.44a12,12,0,0,1,1.19,9.12,11.36,11.36,0,0,1-3.24,5.38,14.78,14.78,0,0,1,2.41,2.64l.09.06a24.66,24.66,0,0,1,2.39,1.51,17.85,17.85,0,0,1,6.85,8,15.82,15.82,0,0,1,1.27,6.26,27.14,27.14,0,0,1,5.94,2.79h2.8v1.84c3,2.08,5.83,4.4,8.55,6.24,1.76,1.19,3.53,2.36,5.37,3.43l.19.11H144a11.5,11.5,0,0,1,10.54.25h0a9.68,9.68,0,0,1,7.61,6.38A59.06,59.06,0,0,0,175.34,254h3.25v1.19a94.45,94.45,0,0,1,13.22,5.55,10.75,10.75,0,0,1,5.37,6.17h6v37.43H152.71v12.91h0v.21h0v-.21H139.77v12.91h0v.28h0v-.28H126.83v12.91H113.89V356h242V343.09H343V330.18H330V317.27H317.07V304.36H266.6V266.93h4.83a4.29,4.29,0,0,1,2.32-.54,27.29,27.29,0,0,1,3.56.54h12.22l.07-.07c1.41-1.64,1.38-5.4,2.2-7.44.21-.5.44-1,.68-1.41v-4h1.33a4.25,4.25,0,0,1,3.18-1.27h2a4.89,4.89,0,0,1,1.11.13,52,52,0,0,0,9.66.07c4.25-.56,4.89-2.94,6.44-6.43a13.5,13.5,0,0,1,.85-1.6v-3.81h3.33a18.89,18.89,0,0,1,3.29-2.12c3-1.54,3.88-2.76,5.55-5.8.24-.44.5-.87.77-1.28v-2.42h2.18a7.5,7.5,0,0,1,.88-.59c1.37-.76,3.28-.59,4.38-1.57,2.36-2.12,1.88-7,4.3-9.62a10.26,10.26,0,0,1,4.76-2.82c1.79-.53,4-.25,5-1.94s.71-4.37,1.06-6.17a20.39,20.39,0,0,1,1.64-4.81,4.21,4.21,0,0,1,.54-.91,13.3,13.3,0,0,1,1.18-9.77v-.53h.33a10.7,10.7,0,0,1,9.49-4.88c3.46,0,6.92.15,10.37.37a11.51,11.51,0,0,1,4.4-7.89v-.51h.68a14.76,14.76,0,0,1,6.78-2.59c4.39-.51,8.92,0,13.28-.64a14,14,0,0,0,2.19-.56,12.9,12.9,0,0,1,2.95-4.9v-2.92h3.38c.56-.4,1.12-.77,1.69-1.12a42.74,42.74,0,0,1,5.85-2.84,19.11,19.11,0,0,1,2-8.76v-.19h.09c3.2-6.42,9.49-11.44,15.09-16.07,1.89-1.56,3.74-3.15,5.47-4.88a5.33,5.33,0,0,1,.8-.73c.14-.22.31-.49.56-.86a26.82,26.82,0,0,0,2.38-4.08c1.89-4.28,2.36-8.69,2.55-13.14.5-12-.59-23.83,2-35.72a9.67,9.67,0,0,1,1.23-3C446.94,67.29,446.28,59.14,444.47,51.35ZM15,61.57c0,.07,0,.09,0,0Zm1.5-.07c-.45-.06-.94-.11-1.4-.21a1.38,1.38,0,0,0,.06-.16,4.32,4.32,0,0,0,.17-.71l.84-3.53.73-3.06a5.48,5.48,0,0,1,.37-1.51c.22-.36.39-.3.84-.32,1.79-.08,3.58-.09,5.37-.11a33.38,33.38,0,0,1-.75,10A40.55,40.55,0,0,1,16.51,61.5ZM14.91,91a2.7,2.7,0,0,1,.75-.15,13.79,13.79,0,0,1,3.51.2,27.48,27.48,0,0,0,3.83.4c.66,3,1.2,6,1.65,9h-.08a18.08,18.08,0,0,0-3.08.36,6.35,6.35,0,0,1-4.06-1c-2.07-1.52-2.5-4.36-2.61-6.74a9.15,9.15,0,0,1-.05-1.81.81.81,0,0,0,0-.21A.17.17,0,0,0,14.91,91ZM79,129.86A24.39,24.39,0,0,1,76.22,138v1.27h-.91a7.25,7.25,0,0,1-6.19,2.93,4.67,4.67,0,0,1-2.2-.64c-6.66-.14-8.24-8-4.79-11.86-3.28-.36-6.49-1.05-9.26-3-.13-.09-.24-.2-.36-.29H50.33v-1.94a24.15,24.15,0,0,1-2.29-2.8c-1.71-2.46-2.33-5.06-5.38-6.19-4.59-1.7-8.08-2.94-9.75-8-1.36-4.12-1.24-8.77-.95-13C32.27,89.68,33,85,33.54,80.27c.43-4,.57-8.17,2.43-11.81A11.68,11.68,0,0,1,38.68,65V63.18h2.65C45,61.38,49.62,61.27,54,61.25a4.16,4.16,0,0,1,3.67,1.93h5.64v1a3.83,3.83,0,0,1,1.22,1.36l.27.53a4.77,4.77,0,0,1-.38,5.2,3.83,3.83,0,0,1-.49,1,25,25,0,0,1,8.51,3.76h3.82v3.3A13.8,13.8,0,0,1,79.13,86c1.12,6.43,1,13.47,1.16,20C80.45,113.9,80.4,122,79,129.86ZM432.24,63.18H419.29v.23a4.51,4.51,0,0,1,1.53,3.44c-1,8.85,1.95,17.45,2.24,26.24a25.89,25.89,0,0,1-3.77,15.06v.27a5,5,0,0,1,0,3.81v1.24h-.8a4.42,4.42,0,0,1-2.05,1.26,32.68,32.68,0,0,1-6.27,1.17,4.34,4.34,0,0,1-1.52-.13,11,11,0,0,1-.5,4.1,4.58,4.58,0,0,1-.13,2.27,10.47,10.47,0,0,1-1.67,3.36v.86h-.74a12,12,0,0,1-4.4,2.77c-2.78,1.07-4,.73-4.31,3.79-.28,2.55-.27,5-2.31,6.93-2.73,2.54-6.6,1.92-9.89,1.15a4.06,4.06,0,0,1-2.49-1.75h-1.76V76.08h9.71a4.77,4.77,0,0,1-.08-2.36,11.7,11.7,0,0,1,3.32-6v-4.5h8.65a41.47,41.47,0,0,1,15.4-.75,3.28,3.28,0,0,1,1.56.75h13.23Z"/></g><g id="change2_1"><path fill="#ffca56" d="M279.74 317.08L279.64 317.08 266.69 317.08 253.75 317.08 242.09 317.08 229.15 317.08 216.1 317.08 216.1 330.23 229.05 330.23 229.05 343.17 242.09 343.17 253.75 343.17 266.69 343.17 279.64 343.17 292.68 343.17 292.68 330.03 279.74 330.03 279.74 317.08z"/></g><g id="change2_2"><path fill="#ffca56" d="M25.99 113.93L25.99 102.17 25.89 102.17 12.85 102.17 12.85 113.93 12.85 126.97 25.79 126.97 25.79 139.92 25.89 139.92 38.94 139.92 38.94 126.77 25.99 126.77 25.99 113.93z"/></g><g id="change2_3"><path fill="#ffca56" d="M242.19 292.58L242.19 279.64 242.19 266.59 229.05 266.59 229.05 279.64 229.05 292.58 229.05 304.33 242.19 304.33 242.19 292.58z"/></g><g id="change2_4"><path fill="#ffca56" d="M25.99 76.38L25.99 63.34 12.85 63.34 12.85 76.38 12.85 89.43 25.99 89.43 25.99 76.38z"/></g><g id="change2_5"><path fill="#ffca56" d="M305.43 343.17L305.53 343.17 317.28 343.17 317.28 330.03 305.43 330.03 305.43 343.17z"/></g><g id="change2_6"><path fill="#ffca56" d="M432.3 63.34L432.3 63.44 432.3 76.38 432.3 89.43 444.15 89.43 444.15 76.38 444.15 63.34 432.3 63.34z"/></g><g id="change2_7"><path fill="#ffca56" d="M432.3 113.93L432.3 126.77 419.36 126.77 419.36 139.92 419.46 139.92 432.5 139.92 432.5 126.97 444.15 126.97 444.15 113.93 444.15 102.17 432.3 102.17 432.3 113.93z"/></g><g id="change2_8"><path fill="#ffca56" d="M330.13,25.79H152.66v140h13v24.6h12.95V216.3h24.59v12.95H216.1V240.9h76.58V229.25h24.6V216.3h13V190.41h12.94V177.46h12.95V25.79h-26Zm12.84,114v12.84H317.28V127H343Zm0-89.33v51.68H317.28V38.94H343Z"/></g><g id="change3_1"><path fill="#ffffff" d="M25.89 38.84H38.84V50.49H25.89z"/></g><g id="change3_2"><path fill="#ffffff" d="M292.58 330.13H305.53V343.08H292.58z"/></g><g id="change3_3"><path fill="#ffffff" d="M242.09 279.64L242.09 292.58 242.09 304.24 253.75 304.24 253.75 292.58 253.75 279.64 253.75 266.69 242.09 266.69 242.09 279.64z"/></g><g id="change3_4"><path fill="#ffffff" d="M12.95 50.49H25.9V63.44H12.95z"/></g><g id="change3_5"><path fill="#ffffff" d="M12.95 89.33H25.9V102.28H12.95z"/></g><g id="change3_6"><path fill="#ffffff" d="M317.18 126.87L317.18 139.82 317.18 152.76 330.13 152.76 343.07 152.76 343.07 139.82 343.07 126.87 330.13 126.87 317.18 126.87z"/></g><g id="change3_7"><path fill="#ffffff" d="M432.4 50.49H444.04999999999995V63.44H432.4z"/></g><g id="change3_8"><path fill="#ffffff" d="M419.46 38.84H432.40999999999997V50.49H419.46z"/></g><g id="change3_9"><path fill="#ffffff" d="M432.4 89.33H444.04999999999995V102.28H432.4z"/></g><g id="change3_10"><path fill="#ffffff" d="M317.18 38.84L317.18 50.49 317.18 63.44 317.18 76.38 317.18 89.33 317.18 102.28 330.13 102.28 343.07 102.28 343.07 89.33 343.07 76.38 343.07 63.44 343.07 50.49 343.07 38.84 330.13 38.84 317.18 38.84z"/></g><g id="change3_11"><path fill="#ffffff" d="M279.64 317.18H292.59V330.13H279.64z"/></g><g id="change4_1"><path fill="#000000" d="M444.75,49.79V38.14H433.1V25.19H381.32V-.7H75.68V25.19H25.19v13H12.25V49.79H-.7v77.78h13v13H25.19v12.94h13v12.95H49.79v11.65h13V191h38.83V216.9h11.66v12.95h12.94V241.5h25.89v12.95H178v12.94h24.59v36.14H152.06v13H139.12v12.95h-13v12.94H113.23v14.35H356.72V342.37h-13V329.43H330.83V316.48H317.88v-13H267.39V267.39h25.89V254.45h24.6V241.5h12.95V229.85h12.94V216.9h13V191h24.6V178.06h25.89V166.41h13V153.46H433.1V140.52h11.65v-13H457.7V49.79ZM75.68,89.33v49.79H64.14v-13h-13V113.23H39.54V64.14h23.2V77.08H75.68Zm0-38.84V62.74H64.14v-13h-26v13H25.19v51.89h13v12.94H49.79v13h13v12.94H75.68v23.2H64.14V165h-13V152.06H39.54V139.12H26.59v-13H13.65v-75H26.59V39.54H75.68Zm204,267.39h36.84v12.95h12.95v11.54H140.52V330.83h12.95V317.88H279.64ZM216.9,303.53V267.39H253v36.14H216.9ZM368.26,25.89V176.66H355.32v13H342.37V215.5H329.43v12.95H316.48V240.1h-24.6V253H179.36V240.1H153.47V228.45h-25.9V215.5H114.63V189.61H103v-13H90v-163H368.26Zm13.06,113.23v-62h12.94V64.14h24.5v49.09H405.81v12.94H392.86v13Zm62-75.68v62.73H431.7v13H418.76v12.94H405.81V165H381.32V153.46h12.94V140.52h12.95v-13h13V114.63H433.1V62.74H420.16v-13h-27.3v13H381.32V39.54H431.7V51.19h11.65Z"/></g></svg>