<?xml version="1.0" encoding="UTF-8"?><svg xmlns="http://www.w3.org/2000/svg" xmlns:xlink="http://www.w3.org/1999/xlink" contentScriptType="text/ecmascript" fill="#000000" width="2390.8" zoomAndPan="magnify" contentStyleType="text/css" viewBox="0.0 -0.0 2390.8 1882.2" height="1882.2" preserveAspectRatio="xMidYMid meet" version="1"><g><g><path fill="#52c6f3" d="M 2390.769531 1882.238281 L 0 1882.238281 L 0 -0.00390625 L 2390.769531 -0.00390625 L 2390.769531 1882.238281"/></g><g><path fill="#69ceef" d="M 2390.769531 1448.769531 L 2390.769531 433.46875 L 2373.507812 433.46875 L 2373.507812 515.570312 L 2341.328125 515.570312 L 2341.328125 433.46875 L 2289.332031 433.46875 L 2289.332031 487.261719 L 2205.140625 487.261719 L 2205.140625 569.367188 L 2130.867188 569.367188 L 2130.867188 433.46875 L 2071.433594 433.46875 L 2071.433594 512.742188 L 1989.722656 512.742188 L 1989.722656 433.46875 L 1932.769531 433.46875 L 1932.769531 507.078125 L 1863.4375 507.078125 L 1863.4375 433.46875 L 1781.726562 433.46875 L 1781.726562 467.441406 L 1667.820312 467.441406 L 1667.820312 433.46875 L 1598.488281 433.46875 L 1598.488281 532.5625 L 1531.648438 532.5625 L 1531.648438 433.46875 L 1479.636719 433.46875 L 1479.636719 487.261719 L 1383.070312 487.261719 L 1383.070312 552.378906 L 1291.449219 552.378906 L 1291.449219 461.78125 L 1229.550781 461.78125 L 1229.550781 509.914062 L 1175.078125 509.914062 L 1175.078125 453.289062 L 1098.320312 453.289062 L 1098.320312 521.238281 L 984.417969 521.238281 L 984.417969 433.46875 L 892.800781 433.46875 L 892.800781 475.933594 L 816.042969 475.933594 L 816.042969 433.46875 L 746.710938 433.46875 L 746.710938 473.105469 L 642.714844 473.105469 L 642.714844 543.886719 L 575.859375 543.886719 L 575.859375 433.46875 L 516.433594 433.46875 L 516.433594 492.925781 L 432.246094 492.925781 L 432.246094 433.46875 L 390.152344 433.46875 L 390.152344 470.277344 L 261.394531 470.277344 L 261.394531 560.875 L 201.96875 560.875 L 201.96875 433.46875 L 112.828125 433.46875 L 112.828125 484.425781 L 0 484.425781 L 0 1448.769531 L 2390.769531 1448.769531"/></g><g><path fill="#85d7f0" d="M 2390.769531 1882.238281 L 2390.769531 866.9375 L 2373.507812 866.9375 L 2373.507812 949.039062 L 2341.328125 949.039062 L 2341.328125 866.9375 L 2289.332031 866.9375 L 2289.332031 920.726562 L 2205.140625 920.726562 L 2205.140625 1002.828125 L 2130.867188 1002.828125 L 2130.867188 866.9375 L 2071.433594 866.9375 L 2071.433594 946.210938 L 1989.722656 946.210938 L 1989.722656 866.9375 L 1932.769531 866.9375 L 1932.769531 940.542969 L 1863.4375 940.542969 L 1863.4375 866.9375 L 1781.726562 866.9375 L 1781.726562 900.90625 L 1667.820312 900.90625 L 1667.820312 866.9375 L 1598.488281 866.9375 L 1598.488281 966.03125 L 1531.648438 966.03125 L 1531.648438 866.9375 L 1479.636719 866.9375 L 1479.636719 920.726562 L 1383.070312 920.726562 L 1383.070312 985.847656 L 1291.449219 985.847656 L 1291.449219 895.25 L 1229.550781 895.25 L 1229.550781 943.378906 L 1175.078125 943.378906 L 1175.078125 886.757812 L 1098.320312 886.757812 L 1098.320312 954.703125 L 984.417969 954.703125 L 984.417969 866.9375 L 892.800781 866.9375 L 892.800781 909.398438 L 816.042969 909.398438 L 816.042969 866.9375 L 746.710938 866.9375 L 746.710938 906.574219 L 642.714844 906.574219 L 642.714844 977.351562 L 575.859375 977.351562 L 575.859375 866.9375 L 516.433594 866.9375 L 516.433594 926.394531 L 432.246094 926.394531 L 432.246094 866.9375 L 390.152344 866.9375 L 390.152344 903.742188 L 261.394531 903.742188 L 261.394531 994.339844 L 201.96875 994.339844 L 201.96875 866.9375 L 112.828125 866.9375 L 112.828125 917.894531 L 0 917.894531 L 0 1882.238281 L 2390.769531 1882.238281"/></g><g><path fill="#8eca4d" d="M 2390.769531 1313.429688 L 1699.425781 1313.429688 L 1699.425781 1577.519531 L 2390.769531 1577.519531 L 2390.769531 1313.429688"/></g><g><path fill="#75a73f" d="M 2390.769531 1358.609375 L 2338.523438 1358.609375 L 2338.523438 1412.78125 L 2233.582031 1412.78125 L 2233.582031 1450.03125 L 2081.214844 1450.03125 L 2081.214844 1544.839844 L 2013.484375 1544.839844 L 2013.484375 1412.78125 L 1925.449219 1412.78125 L 1925.449219 1460.191406 L 1810.324219 1460.191406 L 1810.324219 1527.910156 L 1699.425781 1527.910156 L 1699.425781 1577.519531 L 2390.769531 1577.519531 L 2390.769531 1358.609375"/></g><g><path fill="#70402b" d="M 2390.769531 1577.519531 L 1699.425781 1577.519531 L 1699.425781 1882.238281 L 2390.769531 1882.238281 L 2390.769531 1577.519531"/></g><g><path fill="#874b32" d="M 2390.769531 1812.328125 L 2390.769531 1666.730469 L 2375.78125 1666.730469 L 2375.78125 1717.519531 L 2291.136719 1717.519531 L 2291.136719 1659.960938 L 2213.25 1659.960938 L 2213.25 1612.558594 L 2182.789062 1612.558594 L 2182.789062 1649.800781 L 2155.695312 1649.800781 L 2155.695312 1703.980469 L 2098.128906 1703.980469 L 2098.128906 1649.800781 L 2023.648438 1649.800781 L 2023.648438 1717.519531 L 1966.09375 1717.519531 L 1966.09375 1629.492188 L 1857.746094 1629.492188 L 1857.746094 1666.730469 L 1766.324219 1666.730469 L 1766.324219 1727.679688 L 1699.425781 1727.679688 L 1699.425781 1788.621094 L 1779.863281 1788.621094 L 1779.863281 1882.238281 L 1823.878906 1882.238281 L 1823.878906 1758.148438 L 1888.210938 1758.148438 L 1888.210938 1819.101562 L 1935.613281 1819.101562 L 1935.613281 1778.460938 L 2040.574219 1778.460938 L 2040.574219 1832.640625 L 2091.367188 1832.640625 L 2091.367188 1781.851562 L 2189.5625 1781.851562 L 2189.5625 1842.800781 L 2264.042969 1842.800781 L 2264.042969 1798.78125 L 2328.375 1798.78125 L 2328.375 1812.328125 L 2390.769531 1812.328125"/></g><g><path fill="#70402b" d="M 2225.945312 1707.871094 L 2181.085938 1707.871094 L 2181.085938 1751.890625 L 2225.945312 1751.890625 L 2225.945312 1707.871094"/></g><g><path fill="#70402b" d="M 2326.695312 1742.289062 L 2281.832031 1742.289062 L 2281.832031 1786.308594 L 2326.695312 1786.308594 L 2326.695312 1742.289062"/></g><g><path fill="#70402b" d="M 2136.210938 1751.890625 L 2091.351562 1751.890625 L 2091.351562 1795.898438 L 2136.210938 1795.898438 L 2136.210938 1751.890625"/></g><g><path fill="#70402b" d="M 1980.484375 1755.058594 L 1935.613281 1755.058594 L 1935.613281 1799.078125 L 1980.484375 1799.078125 L 1980.484375 1755.058594"/></g><g><path fill="#70402b" d="M 1901.476562 1663.847656 L 1856.609375 1663.847656 L 1856.609375 1707.871094 L 1901.476562 1707.871094 L 1901.476562 1663.847656"/></g><g><path fill="#70402b" d="M 1784.082031 1726.5 L 1739.21875 1726.5 L 1739.21875 1770.507812 L 1784.082031 1770.507812 L 1784.082031 1726.5"/></g><g><path fill="#70402b" d="M 2220.027344 1536.890625 L 2165.847656 1536.890625 L 2165.847656 1580.910156 L 2220.027344 1580.910156 L 2220.027344 1536.890625"/></g><g><path fill="#70402b" d="M 1959.308594 1555.511719 L 1905.132812 1555.511719 L 1905.132812 1599.53125 L 1959.308594 1599.53125 L 1959.308594 1555.511719"/></g><g><path fill="#75a73f" d="M 2165.847656 1558.890625 L 2111.671875 1558.890625 L 2111.671875 1602.910156 L 2165.847656 1602.910156 L 2165.847656 1558.890625"/></g><g><path fill="#75a73f" d="M 2326.695312 1556.6875 L 2272.507812 1556.6875 L 2272.507812 1600.710938 L 2326.695312 1600.710938 L 2326.695312 1556.6875"/></g><g><path fill="#75a73f" d="M 2052.414062 1568.210938 L 1998.246094 1568.210938 L 1998.246094 1612.230469 L 2052.414062 1612.230469 L 2052.414062 1568.210938"/></g><g><path fill="#75a73f" d="M 1840.808594 1555.507812 L 1786.632812 1555.507812 L 1786.632812 1599.527344 L 1840.808594 1599.527344 L 1840.808594 1555.507812"/></g><g><path fill="#8eca4d" d="M 1741.964844 1577.519531 L 0 1577.519531 L 0 1313.429688 L 1741.964844 1313.429688 L 1741.964844 1577.519531"/></g><g><path fill="#75a73f" d="M 1692.121094 1382.320312 L 1692.121094 1422.9375 L 1658.265625 1422.9375 L 1658.265625 1463.570312 L 1580.390625 1463.570312 L 1580.390625 1497.4375 L 1505.890625 1497.4375 L 1505.890625 1439.878906 L 1472.046875 1439.878906 L 1472.046875 1422.9375 L 1404.324219 1422.9375 L 1404.324219 1402.628906 L 1343.375 1402.628906 L 1343.375 1453.417969 L 1312.90625 1453.417969 L 1312.90625 1527.910156 L 1279.039062 1527.910156 L 1279.039062 1453.417969 L 1224.867188 1453.417969 L 1224.867188 1385.699219 L 1187.625 1385.699219 L 1187.625 1480.5 L 1065.734375 1480.5 L 1065.734375 1389.089844 L 953.992188 1389.089844 L 953.992188 1456.800781 L 893.046875 1456.800781 L 893.046875 1490.667969 L 815.175781 1490.667969 L 815.175781 1446.648438 L 788.082031 1446.648438 L 788.082031 1466.957031 L 710.210938 1466.957031 L 710.210938 1358.609375 L 639.101562 1358.609375 L 639.101562 1412.777344 L 534.140625 1412.777344 L 534.140625 1450.027344 L 381.777344 1450.027344 L 381.777344 1544.839844 L 314.054688 1544.839844 L 314.054688 1412.777344 L 226.023438 1412.777344 L 226.023438 1460.1875 L 110.902344 1460.1875 L 110.902344 1527.910156 L 0 1527.910156 L 0 1577.519531 L 1741.964844 1577.519531 L 1741.964844 1382.320312 L 1692.121094 1382.320312"/></g><g><path fill="#70402b" d="M 1741.964844 1882.238281 L 0 1882.238281 L 0 1577.519531 L 1741.964844 1577.519531 L 1741.964844 1882.238281"/></g><g><path fill="#874b32" d="M 1685.355469 1734.449219 L 1741.964844 1734.449219 L 1741.964844 1703.980469 L 1705.660156 1703.980469 L 1705.660156 1609.167969 L 1610.867188 1609.167969 L 1610.867188 1663.347656 L 1505.890625 1663.347656 L 1505.890625 1577.519531 L 1468.65625 1577.519531 L 1468.65625 1649.800781 L 1421.25 1649.800781 L 1421.25 1676.890625 L 1360.304688 1676.890625 L 1360.304688 1649.800781 L 1268.886719 1649.800781 L 1268.886719 1690.429688 L 1180.847656 1690.429688 L 1180.847656 1577.519531 L 1163.921875 1577.519531 L 1163.921875 1643.03125 L 1058.953125 1643.03125 L 1058.953125 1714.128906 L 930.292969 1714.128906 L 930.292969 1659.960938 L 845.644531 1659.960938 L 845.644531 1629.488281 L 818.558594 1629.488281 L 818.558594 1734.449219 L 723.75 1734.449219 L 723.75 1666.730469 L 676.347656 1666.730469 L 676.347656 1717.519531 L 591.703125 1717.519531 L 591.703125 1659.960938 L 513.824219 1659.960938 L 513.824219 1612.558594 L 483.355469 1612.558594 L 483.355469 1649.800781 L 456.261719 1649.800781 L 456.261719 1703.980469 L 398.703125 1703.980469 L 398.703125 1649.800781 L 324.214844 1649.800781 L 324.214844 1717.519531 L 266.65625 1717.519531 L 266.65625 1629.488281 L 158.300781 1629.488281 L 158.300781 1666.730469 L 66.882812 1666.730469 L 66.882812 1727.679688 L 0 1727.679688 L 0 1788.621094 L 80.425781 1788.621094 L 80.425781 1882.238281 L 124.445312 1882.238281 L 124.445312 1758.148438 L 188.773438 1758.148438 L 188.773438 1819.101562 L 236.179688 1819.101562 L 236.179688 1778.460938 L 341.144531 1778.460938 L 341.144531 1832.640625 L 391.929688 1832.640625 L 391.929688 1781.851562 L 490.125 1781.851562 L 490.125 1842.800781 L 564.613281 1842.800781 L 564.613281 1798.78125 L 628.941406 1798.78125 L 628.941406 1812.328125 L 723.75 1812.328125 L 723.75 1778.460938 L 889.660156 1778.460938 L 889.660156 1758.148438 L 1096.199219 1758.148438 L 1096.199219 1832.640625 L 1126.675781 1832.640625 L 1126.675781 1792.007812 L 1292.582031 1792.007812 L 1292.582031 1882.238281 L 1356.925781 1882.238281 L 1356.925781 1734.449219 L 1424.636719 1734.449219 L 1424.636719 1805.550781 L 1475.421875 1805.550781 L 1475.421875 1754.769531 L 1593.929688 1754.769531 L 1593.929688 1856.339844 L 1675.191406 1856.339844 L 1675.191406 1812.328125 L 1685.355469 1812.328125 L 1685.355469 1734.449219"/></g><g><path fill="#95644d" d="M 1677.816406 1635.070312 L 1694.5625 1635.070312 L 1694.5625 1634.289062 C 1688.980469 1634.460938 1683.410156 1634.71875 1677.816406 1635.070312"/></g><g><path fill="#70402b" d="M 1577 1536.890625 L 1522.828125 1536.890625 L 1522.828125 1580.910156 L 1577 1580.910156 L 1577 1536.890625"/></g><g><path fill="#70402b" d="M 1038.640625 1536.890625 L 984.464844 1536.890625 L 984.464844 1580.910156 L 1038.640625 1580.910156 L 1038.640625 1536.890625"/></g><g><path fill="#70402b" d="M 754.226562 1536.890625 L 700.050781 1536.890625 L 700.050781 1580.910156 L 754.226562 1580.910156 L 754.226562 1536.890625"/></g><g><path fill="#70402b" d="M 526.519531 1707.871094 L 481.65625 1707.871094 L 481.65625 1751.890625 L 526.519531 1751.890625 L 526.519531 1707.871094"/></g><g><path fill="#70402b" d="M 627.25 1742.289062 L 582.390625 1742.289062 L 582.390625 1786.308594 L 627.25 1786.308594 L 627.25 1742.289062"/></g><g><path fill="#70402b" d="M 900.945312 1681.351562 L 856.085938 1681.351562 L 856.085938 1725.359375 L 900.945312 1725.359375 L 900.945312 1681.351562"/></g><g><path fill="#70402b" d="M 856.644531 1746.25 L 811.785156 1746.25 L 811.785156 1790.261719 L 856.644531 1790.261719 L 856.644531 1746.25"/></g><g><path fill="#70402b" d="M 1024.25 1695.460938 L 979.386719 1695.460938 L 979.386719 1739.46875 L 1024.25 1739.46875 L 1024.25 1695.460938"/></g><g><path fill="#70402b" d="M 1159.691406 1707.871094 L 1114.820312 1707.871094 L 1114.820312 1751.890625 L 1159.691406 1751.890625 L 1159.691406 1707.871094"/></g><g><path fill="#70402b" d="M 1235.871094 1729.878906 L 1191.011719 1729.878906 L 1191.011719 1773.890625 L 1235.871094 1773.890625 L 1235.871094 1729.878906"/></g><g><path fill="#70402b" d="M 1341.679688 1673.441406 L 1296.808594 1673.441406 L 1296.808594 1717.460938 L 1341.679688 1717.460938 L 1341.679688 1673.441406"/></g><g><path fill="#70402b" d="M 1458.070312 1688.679688 L 1413.210938 1688.679688 L 1413.210938 1732.699219 L 1458.070312 1732.699219 L 1458.070312 1688.679688"/></g><g><path fill="#70402b" d="M 1638.65625 1673.4375 L 1593.796875 1673.4375 L 1593.796875 1717.460938 L 1638.65625 1717.460938 L 1638.65625 1673.4375"/></g><g><path fill="#70402b" d="M 1673.082031 1751.890625 L 1628.214844 1751.890625 L 1628.214844 1795.898438 L 1673.082031 1795.898438 L 1673.082031 1751.890625"/></g><g><path fill="#70402b" d="M 1567.691406 1729.878906 L 1522.828125 1729.878906 L 1522.828125 1773.890625 L 1567.691406 1773.890625 L 1567.691406 1729.878906"/></g><g><path fill="#70402b" d="M 1373.5 1801.539062 L 1328.640625 1801.539062 L 1328.640625 1845.558594 L 1373.5 1845.558594 L 1373.5 1801.539062"/></g><g><path fill="#70402b" d="M 436.789062 1751.890625 L 391.929688 1751.890625 L 391.929688 1795.898438 L 436.789062 1795.898438 L 436.789062 1751.890625"/></g><g><path fill="#70402b" d="M 281.042969 1755.058594 L 236.179688 1755.058594 L 236.179688 1799.078125 L 281.042969 1799.078125 L 281.042969 1755.058594"/></g><g><path fill="#70402b" d="M 202.035156 1663.851562 L 157.175781 1663.851562 L 157.175781 1707.871094 L 202.035156 1707.871094 L 202.035156 1663.851562"/></g><g><path fill="#70402b" d="M 84.660156 1726.5 L 39.796875 1726.5 L 39.796875 1770.511719 L 84.660156 1770.511719 L 84.660156 1726.5"/></g><g><path fill="#70402b" d="M 520.59375 1536.890625 L 466.417969 1536.890625 L 466.417969 1580.910156 L 520.59375 1580.910156 L 520.59375 1536.890625"/></g><g><path fill="#70402b" d="M 1201.160156 1556.691406 L 1146.988281 1556.691406 L 1146.988281 1600.710938 L 1201.160156 1600.710938 L 1201.160156 1556.691406"/></g><g><path fill="#70402b" d="M 1378.148438 1555.511719 L 1323.980469 1555.511719 L 1323.980469 1599.53125 L 1378.148438 1599.53125 L 1378.148438 1555.511719"/></g><g><path fill="#70402b" d="M 259.878906 1555.511719 L 205.707031 1555.511719 L 205.707031 1599.53125 L 259.878906 1599.53125 L 259.878906 1555.511719"/></g><g><path fill="#75a73f" d="M 466.417969 1558.890625 L 412.242188 1558.890625 L 412.242188 1602.910156 L 466.417969 1602.910156 L 466.417969 1558.890625"/></g><g><path fill="#75a73f" d="M 627.25 1556.691406 L 573.074219 1556.691406 L 573.074219 1600.710938 L 627.25 1600.710938 L 627.25 1556.691406"/></g><g><path fill="#75a73f" d="M 838.867188 1568.210938 L 784.695312 1568.210938 L 784.695312 1612.230469 L 838.867188 1612.230469 L 838.867188 1568.210938"/></g><g><path fill="#75a73f" d="M 948.910156 1556.691406 L 894.734375 1556.691406 L 894.734375 1600.710938 L 948.910156 1600.710938 L 948.910156 1556.691406"/></g><g><path fill="#75a73f" d="M 1146.988281 1568.210938 L 1092.820312 1568.210938 L 1092.820312 1612.230469 L 1146.988281 1612.230469 L 1146.988281 1568.210938"/></g><g><path fill="#75a73f" d="M 1296.808594 1568.210938 L 1242.640625 1568.210938 L 1242.640625 1612.230469 L 1296.808594 1612.230469 L 1296.808594 1568.210938"/></g><g><path fill="#75a73f" d="M 1462.71875 1568.210938 L 1408.550781 1568.210938 L 1408.550781 1612.230469 L 1462.71875 1612.230469 L 1462.71875 1568.210938"/></g><g><path fill="#75a73f" d="M 1662.484375 1541.972656 L 1608.316406 1541.972656 L 1608.316406 1585.992188 L 1662.484375 1585.992188 L 1662.484375 1541.972656"/></g><g><path fill="#75a73f" d="M 352.992188 1568.210938 L 298.816406 1568.210938 L 298.816406 1612.230469 L 352.992188 1612.230469 L 352.992188 1568.210938"/></g><g><path fill="#75a73f" d="M 141.371094 1555.511719 L 87.195312 1555.511719 L 87.195312 1599.53125 L 141.371094 1599.53125 L 141.371094 1555.511719"/></g><g><path fill="#b7e7f2" d="M 861.976562 486.890625 L 861.976562 478.429688 L 852.050781 478.429688 L 852.050781 469.980469 L 842.121094 469.980469 L 842.121094 453.058594 L 832.195312 453.058594 L 832.195312 393.890625 L 822.269531 393.890625 L 822.269531 402.339844 L 812.34375 402.339844 L 812.34375 410.800781 L 752.78125 410.800781 L 752.78125 402.339844 L 742.851562 402.339844 L 742.851562 393.890625 L 732.929688 393.890625 L 732.929688 385.429688 L 723 385.429688 L 723 393.890625 L 713.070312 393.890625 L 713.070312 410.800781 L 703.148438 410.800781 L 703.148438 419.25 L 693.214844 419.25 L 693.214844 427.699219 L 683.289062 427.699219 L 683.289062 436.160156 L 663.433594 436.160156 L 663.433594 444.609375 L 584.019531 444.609375 L 584.019531 436.160156 L 564.164062 436.160156 L 564.164062 427.699219 L 554.238281 427.699219 L 554.238281 419.25 L 544.308594 419.25 L 544.308594 410.800781 L 524.457031 410.800781 L 524.457031 419.25 L 514.527344 419.25 L 514.527344 427.699219 L 454.964844 427.699219 L 454.964844 419.25 L 445.035156 419.25 L 445.035156 410.800781 L 435.109375 410.800781 L 435.109375 393.890625 L 425.183594 393.890625 L 425.183594 360.070312 L 415.257812 360.070312 L 415.257812 385.429688 L 405.328125 385.429688 L 405.328125 436.160156 L 415.257812 436.160156 L 415.257812 461.519531 L 425.183594 461.519531 L 425.183594 478.429688 L 435.109375 478.429688 L 435.109375 486.890625 L 445.035156 486.890625 L 445.035156 495.339844 L 464.890625 495.339844 L 464.890625 503.800781 L 861.976562 503.800781 L 861.976562 495.339844 L 871.90625 495.339844 L 871.90625 486.890625 L 861.976562 486.890625"/></g><g><path fill="#ffffff" d="M 891.753906 410.804688 L 891.753906 393.894531 L 881.832031 393.894531 L 881.832031 385.4375 L 871.902344 385.4375 L 871.902344 376.984375 L 861.972656 376.984375 L 861.972656 368.53125 L 832.191406 368.53125 L 832.191406 343.164062 L 822.269531 343.164062 L 822.269531 317.800781 L 812.339844 317.800781 L 812.339844 309.347656 L 802.410156 309.347656 L 802.410156 300.890625 L 792.488281 300.890625 L 792.488281 292.4375 L 782.558594 292.4375 L 782.558594 283.984375 L 703.144531 283.984375 L 703.144531 292.4375 L 693.210938 292.4375 L 693.210938 275.527344 L 683.289062 275.527344 L 683.289062 267.074219 L 663.429688 267.074219 L 663.429688 258.617188 L 653.507812 258.617188 L 653.507812 250.164062 L 593.945312 250.164062 L 593.945312 258.617188 L 574.089844 258.617188 L 574.089844 267.074219 L 564.164062 267.074219 L 564.164062 275.527344 L 554.234375 275.527344 L 554.234375 283.984375 L 544.308594 283.984375 L 544.308594 292.4375 L 534.382812 292.4375 L 534.382812 317.800781 L 464.886719 317.800781 L 464.886719 326.257812 L 445.035156 326.257812 L 445.035156 334.710938 L 435.105469 334.710938 L 435.105469 343.164062 L 425.183594 343.164062 L 425.183594 393.894531 L 435.105469 393.894531 L 435.105469 410.804688 L 445.035156 410.804688 L 445.035156 419.257812 L 454.964844 419.257812 L 454.964844 427.710938 L 514.527344 427.710938 L 514.527344 419.257812 L 524.453125 419.257812 L 524.453125 410.804688 L 544.308594 410.804688 L 544.308594 419.257812 L 554.234375 419.257812 L 554.234375 427.710938 L 564.164062 427.710938 L 564.164062 436.167969 L 584.015625 436.167969 L 584.015625 444.613281 L 663.429688 444.613281 L 663.429688 436.167969 L 683.289062 436.167969 L 683.289062 427.710938 L 693.210938 427.710938 L 693.210938 419.257812 L 703.144531 419.257812 L 703.144531 410.804688 L 713.070312 410.804688 L 713.070312 393.894531 L 722.996094 393.894531 L 722.996094 385.4375 L 732.925781 385.4375 L 732.925781 393.894531 L 742.847656 393.894531 L 742.847656 402.347656 L 752.777344 402.347656 L 752.777344 410.804688 L 812.339844 410.804688 L 812.339844 402.347656 L 822.269531 402.347656 L 822.269531 393.894531 L 832.191406 393.894531 L 832.191406 453.066406 L 842.121094 453.066406 L 842.121094 469.984375 L 852.050781 469.984375 L 852.050781 478.429688 L 861.972656 478.429688 L 861.972656 486.894531 L 871.902344 486.894531 L 871.902344 495.351562 L 881.832031 495.351562 L 881.832031 478.429688 L 891.753906 478.429688 L 891.753906 469.984375 L 901.6875 469.984375 L 901.6875 410.804688 L 891.753906 410.804688"/></g><g><path fill="#b7e7f2" d="M 2145.144531 518.808594 L 2145.144531 509.804688 L 2134.5625 509.804688 L 2134.5625 500.785156 L 2123.984375 500.785156 L 2123.984375 482.769531 L 2113.402344 482.769531 L 2113.402344 419.6875 L 2102.824219 419.6875 L 2102.824219 428.691406 L 2092.230469 428.691406 L 2092.230469 437.710938 L 2028.746094 437.710938 L 2028.746094 428.691406 L 2018.167969 428.691406 L 2018.167969 419.6875 L 2007.585938 419.6875 L 2007.585938 410.667969 L 1997.007812 410.667969 L 1997.007812 419.6875 L 1986.425781 419.6875 L 1986.425781 437.710938 L 1975.847656 437.710938 L 1975.847656 446.71875 L 1965.265625 446.71875 L 1965.265625 455.726562 L 1954.671875 455.726562 L 1954.671875 464.746094 L 1933.511719 464.746094 L 1933.511719 473.75 L 1848.855469 473.75 L 1848.855469 464.746094 L 1827.710938 464.746094 L 1827.710938 455.726562 L 1817.128906 455.726562 L 1817.128906 446.71875 L 1806.550781 446.71875 L 1806.550781 437.710938 L 1785.390625 437.710938 L 1785.390625 446.71875 L 1774.808594 446.71875 L 1774.808594 455.726562 L 1711.3125 455.726562 L 1711.3125 446.71875 L 1700.734375 446.71875 L 1700.734375 437.710938 L 1690.152344 437.710938 L 1690.152344 419.6875 L 1679.574219 419.6875 L 1679.574219 383.632812 L 1668.980469 383.632812 L 1668.980469 410.667969 L 1658.398438 410.667969 L 1658.398438 464.746094 L 1668.980469 464.746094 L 1668.980469 491.777344 L 1679.574219 491.777344 L 1679.574219 509.804688 L 1690.152344 509.804688 L 1690.152344 518.808594 L 1700.734375 518.808594 L 1700.734375 527.828125 L 1721.894531 527.828125 L 1721.894531 536.835938 L 2145.144531 536.835938 L 2145.144531 527.828125 L 2155.722656 527.828125 L 2155.722656 518.808594 L 2145.144531 518.808594"/></g><g><path fill="#ffffff" d="M 2176.902344 437.707031 L 2176.902344 419.6875 L 2166.3125 419.6875 L 2166.3125 410.667969 L 2155.722656 410.667969 L 2155.722656 401.664062 L 2145.148438 401.664062 L 2145.148438 392.644531 L 2113.410156 392.644531 L 2113.410156 365.617188 L 2102.824219 365.617188 L 2102.824219 338.574219 L 2092.234375 338.574219 L 2092.234375 329.570312 L 2081.660156 329.570312 L 2081.660156 320.566406 L 2071.070312 320.566406 L 2071.070312 311.546875 L 2060.496094 311.546875 L 2060.496094 302.527344 L 1975.839844 302.527344 L 1975.839844 311.546875 L 1965.265625 311.546875 L 1965.265625 293.523438 L 1954.679688 293.523438 L 1954.679688 284.503906 L 1933.515625 284.503906 L 1933.515625 275.5 L 1922.9375 275.5 L 1922.9375 266.480469 L 1859.449219 266.480469 L 1859.449219 275.5 L 1838.285156 275.5 L 1838.285156 284.503906 L 1827.710938 284.503906 L 1827.710938 293.523438 L 1817.121094 293.523438 L 1817.121094 302.527344 L 1806.546875 302.527344 L 1806.546875 311.546875 L 1795.972656 311.546875 L 1795.972656 338.574219 L 1721.894531 338.574219 L 1721.894531 347.59375 L 1700.730469 347.59375 L 1700.730469 356.597656 L 1690.152344 356.597656 L 1690.152344 365.617188 L 1679.578125 365.617188 L 1679.578125 419.6875 L 1690.152344 419.6875 L 1690.152344 437.707031 L 1700.730469 437.707031 L 1700.730469 446.714844 L 1711.316406 446.714844 L 1711.316406 455.730469 L 1774.808594 455.730469 L 1774.808594 446.714844 L 1785.382812 446.714844 L 1785.382812 437.707031 L 1806.546875 437.707031 L 1806.546875 446.714844 L 1817.121094 446.714844 L 1817.121094 455.730469 L 1827.710938 455.730469 L 1827.710938 464.738281 L 1848.859375 464.738281 L 1848.859375 473.753906 L 1933.515625 473.753906 L 1933.515625 464.738281 L 1954.679688 464.738281 L 1954.679688 455.730469 L 1965.265625 455.730469 L 1965.265625 446.714844 L 1975.839844 446.714844 L 1975.839844 437.707031 L 1986.429688 437.707031 L 1986.429688 419.6875 L 1997.003906 419.6875 L 1997.003906 410.667969 L 2007.578125 410.667969 L 2007.578125 419.6875 L 2018.167969 419.6875 L 2018.167969 428.691406 L 2028.757812 428.691406 L 2028.757812 437.707031 L 2092.234375 437.707031 L 2092.234375 428.691406 L 2102.824219 428.691406 L 2102.824219 419.6875 L 2113.410156 419.6875 L 2113.410156 482.761719 L 2123.984375 482.761719 L 2123.984375 500.785156 L 2134.5625 500.785156 L 2134.5625 509.800781 L 2145.148438 509.800781 L 2145.148438 518.804688 L 2155.722656 518.804688 L 2155.722656 527.824219 L 2166.3125 527.824219 L 2166.3125 509.800781 L 2176.902344 509.800781 L 2176.902344 500.785156 L 2187.476562 500.785156 L 2187.476562 437.707031 L 2176.902344 437.707031"/></g><g><path fill="#914c28" d="M 456.273438 841.171875 L 259.878906 841.171875 L 259.878906 994.847656 L 456.273438 994.847656 L 456.273438 841.171875"/></g><g><path fill="#a1532b" d="M 456.273438 904.796875 L 438.757812 904.796875 L 438.757812 856.660156 L 366.078125 856.660156 L 366.078125 877.03125 L 304.75 877.03125 L 304.75 910.347656 L 259.878906 910.347656 L 259.878906 943.667969 L 313.835938 943.667969 L 313.835938 994.847656 L 343.363281 994.847656 L 343.363281 927.003906 L 386.519531 927.003906 L 386.519531 960.328125 L 418.316406 960.328125 L 418.316406 938.117188 L 456.273438 938.117188 L 456.273438 904.796875"/></g><g><path fill="#794125" d="M 448.410156 925.320312 L 418.316406 925.320312 L 418.316406 949.386719 L 448.410156 949.386719 L 448.410156 925.320312"/></g><g><path fill="#794125" d="M 395.414062 875.449219 L 365.324219 875.449219 L 365.324219 899.515625 L 395.414062 899.515625 L 395.414062 875.449219"/></g><g><path fill="#794125" d="M 316.671875 909.699219 L 286.578125 909.699219 L 286.578125 933.765625 L 316.671875 933.765625 L 316.671875 909.699219"/></g><path fill="none" stroke-width="99.044" stroke-miterlimit="10" d="M 2598.789062 9908.90625 L 4562.734375 9908.90625" transform="matrix(.1 0 0 -.1 0 1883)" stroke="#432317"/><path fill="none" stroke-width="99.044" stroke-miterlimit="10" d="M 2598.789062 9299.882812 L 4562.734375 9299.882812" transform="matrix(.1 0 0 -.1 0 1883)" stroke="#432317"/><path fill="none" stroke-width="99.044" stroke-miterlimit="10" d="M 3613.984375 10418.28125 L 3613.984375 9908.90625" transform="matrix(.1 0 0 -.1 0 1883)" stroke="#432317"/><path fill="none" stroke-width="99.044" stroke-miterlimit="10" d="M 3613.984375 9324.804688 L 3613.984375 8881.523438" transform="matrix(.1 0 0 -.1 0 1883)" stroke="#432317"/><path fill="none" stroke-width="99.044" stroke-miterlimit="10" d="M 2983.046875 9900.625 L 2983.046875 9324.804688" transform="matrix(.1 0 0 -.1 0 1883)" stroke="#432317"/><path fill="none" stroke-width="99.044" stroke-miterlimit="10" d="M 4202.851562 9900.625 L 4202.851562 9324.804688" transform="matrix(.1 0 0 -.1 0 1883)" stroke="#432317"/><path fill="none" stroke-width="99.044" stroke-miterlimit="10" d="M 4562.734375 10418.28125 L 2598.789062 10418.28125 L 2598.789062 8881.523438 L 4562.734375 8881.523438 Z M 4562.734375 10418.28125" transform="matrix(.1 0 0 -.1 0 1883)" stroke="#432317"/><g><path fill="#914c28" d="M 656.957031 841.171875 L 460.566406 841.171875 L 460.566406 994.847656 L 656.957031 994.847656 L 656.957031 841.171875"/></g><g><path fill="#a1532b" d="M 656.957031 904.796875 L 639.445312 904.796875 L 639.445312 856.660156 L 566.757812 856.660156 L 566.757812 877.03125 L 505.4375 877.03125 L 505.4375 910.347656 L 460.566406 910.347656 L 460.566406 943.667969 L 514.519531 943.667969 L 514.519531 994.847656 L 544.046875 994.847656 L 544.046875 927.003906 L 587.203125 927.003906 L 587.203125 960.328125 L 618.996094 960.328125 L 618.996094 938.117188 L 656.957031 938.117188 L 656.957031 904.796875"/></g><g><path fill="#794125" d="M 649.097656 925.320312 L 618.996094 925.320312 L 618.996094 949.386719 L 649.097656 949.386719 L 649.097656 925.320312"/></g><g><path fill="#794125" d="M 596.097656 875.449219 L 566.003906 875.449219 L 566.003906 899.515625 L 596.097656 899.515625 L 596.097656 875.449219"/></g><g><path fill="#794125" d="M 517.363281 909.699219 L 487.261719 909.699219 L 487.261719 933.765625 L 517.363281 933.765625 L 517.363281 909.699219"/></g><path fill="none" stroke-width="99.044" stroke-miterlimit="10" d="M 4605.664062 9908.90625 L 6569.570312 9908.90625" transform="matrix(.1 0 0 -.1 0 1883)" stroke="#432317"/><path fill="none" stroke-width="99.044" stroke-miterlimit="10" d="M 4605.664062 9299.882812 L 6569.570312 9299.882812" transform="matrix(.1 0 0 -.1 0 1883)" stroke="#432317"/><path fill="none" stroke-width="99.044" stroke-miterlimit="10" d="M 5620.859375 10418.28125 L 5620.859375 9908.90625" transform="matrix(.1 0 0 -.1 0 1883)" stroke="#432317"/><path fill="none" stroke-width="99.044" stroke-miterlimit="10" d="M 5620.859375 9324.804688 L 5620.859375 8881.523438" transform="matrix(.1 0 0 -.1 0 1883)" stroke="#432317"/><path fill="none" stroke-width="99.044" stroke-miterlimit="10" d="M 4989.882812 9900.625 L 4989.882812 9324.804688" transform="matrix(.1 0 0 -.1 0 1883)" stroke="#432317"/><path fill="none" stroke-width="99.044" stroke-miterlimit="10" d="M 6209.726562 9900.625 L 6209.726562 9324.804688" transform="matrix(.1 0 0 -.1 0 1883)" stroke="#432317"/><path fill="none" stroke-width="99.044" stroke-miterlimit="10" d="M 6569.570312 10418.28125 L 4605.664062 10418.28125 L 4605.664062 8881.523438 L 6569.570312 8881.523438 Z M 6569.570312 10418.28125" transform="matrix(.1 0 0 -.1 0 1883)" stroke="#432317"/><g><path fill="#914c28" d="M 1930.082031 910.453125 L 1733.6875 910.453125 L 1733.6875 1064.140625 L 1930.082031 1064.140625 L 1930.082031 910.453125"/></g><g><path fill="#a1532b" d="M 1930.082031 974.078125 L 1912.570312 974.078125 L 1912.570312 925.945312 L 1839.878906 925.945312 L 1839.878906 946.308594 L 1778.566406 946.308594 L 1778.566406 979.628906 L 1733.6875 979.628906 L 1733.6875 1012.949219 L 1787.648438 1012.949219 L 1787.648438 1064.140625 L 1817.167969 1064.140625 L 1817.167969 996.292969 L 1860.328125 996.292969 L 1860.328125 1029.617188 L 1892.121094 1029.617188 L 1892.121094 1007.398438 L 1930.082031 1007.398438 L 1930.082031 974.078125"/></g><g><path fill="#794125" d="M 1922.226562 994.597656 L 1892.132812 994.597656 L 1892.132812 1018.667969 L 1922.226562 1018.667969 L 1922.226562 994.597656"/></g><g><path fill="#794125" d="M 1869.21875 944.738281 L 1839.128906 944.738281 L 1839.128906 968.804688 L 1869.21875 968.804688 L 1869.21875 944.738281"/></g><g><path fill="#794125" d="M 1790.472656 978.984375 L 1760.386719 978.984375 L 1760.386719 1003.054688 L 1790.472656 1003.054688 L 1790.472656 978.984375"/></g><path fill="none" stroke-width="83.645" stroke-miterlimit="10" d="M 14641.394308 7783.17261 L 16299.991819 7783.17261" transform="matrix(.11841 0 0 -.11841 0 1883)" stroke="#432317"/><path fill="none" stroke-width="83.645" stroke-miterlimit="10" d="M 14641.394308 7268.805158 L 16299.991819 7268.805158" transform="matrix(.11841 0 0 -.11841 0 1883)" stroke="#432317"/><path fill="none" stroke-width="87.969" stroke-miterlimit="10" d="M 16300.015543 8637.985445 L 16300.015543 8185.500211" transform="matrix(.11259 0 0 -.11259 0 1883)" stroke="#432317"/><path fill="none" stroke-width="87.969" stroke-miterlimit="10" d="M 16300.015543 7666.713851 L 16300.015543 7272.966349" transform="matrix(.11259 0 0 -.11259 0 1883)" stroke="#432317"/><path fill="none" stroke-width="91.102" stroke-miterlimit="10" d="M 16299.983098 8469.374322 L 16299.983098 7939.692599" transform="matrix(.10872 0 0 -.10872 0 1883)" stroke="#432317"/><path fill="none" stroke-width="85.235" stroke-miterlimit="10" d="M 16300.009897 7923.937142 L 16300.009897 7428.369617" transform="matrix(.1162 0 0 -.1162 0 1883)" stroke="#432317"/><path fill="none" stroke-width="83.645" stroke-miterlimit="10" d="M 16299.991819 8213.384638 L 14641.394308 8213.384638 L 14641.394308 6915.457943 L 16299.991819 6915.457943 Z M 16299.991819 8213.384638" transform="matrix(.11841 0 0 -.11841 0 1883)" stroke="#432317"/><g><path fill="#914c28" d="M 2130.753906 910.457031 L 1934.355469 910.457031 L 1934.355469 1064.144531 L 2130.753906 1064.144531 L 2130.753906 910.457031"/></g><g><path fill="#a1532b" d="M 2130.753906 974.082031 L 2113.234375 974.082031 L 2113.234375 925.949219 L 2040.554688 925.949219 L 2040.554688 946.3125 L 1979.234375 946.3125 L 1979.234375 979.632812 L 1934.355469 979.632812 L 1934.355469 1012.953125 L 1988.320312 1012.953125 L 1988.320312 1064.144531 L 2017.847656 1064.144531 L 2017.847656 996.296875 L 2061 996.296875 L 2061 1029.625 L 2092.789062 1029.625 L 2092.789062 1007.402344 L 2130.753906 1007.402344 L 2130.753906 974.082031"/></g><g><path fill="#794125" d="M 2122.894531 994.601562 L 2092.796875 994.601562 L 2092.796875 1018.671875 L 2122.894531 1018.671875 L 2122.894531 994.601562"/></g><g><path fill="#794125" d="M 2069.90625 944.742188 L 2039.808594 944.742188 L 2039.808594 968.804688 L 2069.90625 968.804688 L 2069.90625 944.742188"/></g><g><path fill="#794125" d="M 1991.160156 978.980469 L 1961.070312 978.980469 L 1961.070312 1003.050781 L 1991.160156 1003.050781 L 1991.160156 978.980469"/></g><path fill="none" stroke-width="75.767" stroke-miterlimit="10" d="M 14797.587754 7050.141618 L 16300.012288 7050.141618" transform="matrix(.13072 0 0 -.13072 0 1883)" stroke="#432317"/><path fill="none" stroke-width="75.767" stroke-miterlimit="10" d="M 14797.587754 6584.216098 L 16300.012288 6584.216098" transform="matrix(.13072 0 0 -.13072 0 1883)" stroke="#432317"/><path fill="none" stroke-width="79.298" stroke-miterlimit="10" d="M 16300.003353 7786.541941 L 16300.003353 7378.656396" transform="matrix(.1249 0 0 -.1249 0 1883)" stroke="#432317"/><path fill="none" stroke-width="79.298" stroke-miterlimit="10" d="M 16300.003353 6910.973491 L 16300.003353 6556.067405" transform="matrix(.1249 0 0 -.1249 0 1883)" stroke="#432317"/><path fill="none" stroke-width="81.834" stroke-miterlimit="10" d="M 16299.994939 7607.781013 L 16299.994939 7131.986072" transform="matrix(.12103 0 0 -.12103 0 1883)" stroke="#432317"/><path fill="none" stroke-width="77.069" stroke-miterlimit="10" d="M 16299.993337 7164.801841 L 16299.993337 6716.711068" transform="matrix(.12851 0 0 -.12851 0 1883)" stroke="#432317"/><path fill="none" stroke-width="75.767" stroke-miterlimit="10" d="M 16300.012288 7439.837277 L 14797.587754 7439.837277 L 14797.587754 6264.146302 L 16300.012288 6264.146302 Z M 16300.012288 7439.837277" transform="matrix(.13072 0 0 -.13072 0 1883)" stroke="#432317"/></g></svg>