<?xml version="1.0" encoding="UTF-8"?><svg xmlns="http://www.w3.org/2000/svg" xmlns:xlink="http://www.w3.org/1999/xlink" contentScriptType="text/ecmascript" fill="#000000" width="453.2" zoomAndPan="magnify" contentStyleType="text/css" viewBox="-0.3 -0.3 453.2 74.5" height="74.5" data-name="Layer 1" preserveAspectRatio="xMidYMid meet" version="1"><g id="change1_1"><path fill="#4889f8" d="M80.83,11H84.5v22H80.83v3.67H77.16v3.68H73.48v3.68H69.81v3.67H66.13v3.67H62.46v3.68H58.79V58.8H55.11v3.68H51.44v3.68H47.76v3.67H44.09v3.68H40.42V69.83H36.74V66.16H33.07V62.48H29.39V58.8H25.72V55.13H22.05V51.45H18.37V47.78H14.7V44.11H11V40.43H7.35V36.75H3.68V33.08H0V11H3.68V7.35H7.35V3.67H11V0H33.07V3.67h3.67V7.35h3.68V11h3.67V7.35h3.67V3.67h3.68V0h22V3.67h3.68V7.35h3.67Zm91.93-3.3h-3.67V4.05h-3.68V.38h-22V4.05h-3.68V7.73H136V11.4h-3.67V7.73h-3.68V4.05H125V.38H103V4.05H99.28V7.73H95.61V11.4H91.93V33.46h3.68v3.67h3.67v3.68H103v3.67h3.67v3.68h3.67v3.67H114v3.68h3.67v3.67h3.67v3.68H125v3.68h3.67v3.67h3.68v3.68H136V70.21h3.67V66.54h3.68V62.86H147V59.18h3.68V55.51h3.67V51.83h3.67V48.16h3.68V44.48h3.67V40.81h3.68V37.13h3.67V33.46h3.67V11.4h-3.67Zm92,0h-3.67V4.05h-3.68V.38h-22V4.05h-3.68V7.73H228V11.4h-3.67V7.73h-3.68V4.05H217V.38H195V4.05h-3.68V7.73h-3.67V11.4h-3.68V33.46h3.68v3.67h3.67v3.68H195v3.67h3.67v3.68h3.67v3.67H206v3.68h3.67v3.67h3.67v3.68H217v3.68h3.67v3.67h3.68v3.68H228V70.21h3.67V66.54h3.68V62.86H239V59.18h3.68V55.51h3.67V51.83h3.67V48.16h3.68V44.48h3.67V40.81h3.68V37.13h3.67V33.46h3.67V11.4h-3.67Zm92,0h-3.67V4.05h-3.68V.38h-22V4.05h-3.68V7.73H320V11.4h-3.67V7.73h-3.68V4.05H309V.38H287V4.05h-3.68V7.73h-3.67V11.4h-3.68V33.46h3.68v3.67h3.67v3.68H287v3.67h3.67v3.68h3.67v3.67H298v3.68h3.67v3.67h3.67v3.68H309v3.68h3.67v3.67h3.68v3.68H320V70.21h3.67V66.54h3.68V62.86H331V59.18h3.68V55.51h3.67V51.83h3.67V48.16h3.68V44.48h3.67V40.81h3.68V37.13h3.67V33.46h3.67V11.4h-3.67Zm92,0h-3.67V4.05h-3.68V.38h-22V4.05h-3.68V7.73H412V11.4h-3.67V7.73h-3.68V4.05H401V.38H379V4.05h-3.68V7.73h-3.67V11.4h-3.68V33.46h3.68v3.67h3.67v3.68H379v3.67h3.67v3.68h3.67v3.67H390v3.68h3.67v3.67h3.67v3.68H401v3.68h3.67v3.67h3.68v3.68H412V70.21h3.67V66.54h3.68V62.86H423V59.18h3.68V55.51h3.67V51.83h3.67V48.16h3.68V44.48h3.67V40.81h3.68V37.13h3.67V33.46h3.67V11.4h-3.67Z"/></g><g id="change2_1"><path fill="#1e60d1" d="M220.69 55.68L217 55.68 217 51.98 213.3 51.98 213.3 48.29 209.61 48.29 209.61 44.6 205.91 44.6 205.91 40.9 202.22 40.9 202.22 37.21 198.53 37.21 198.53 33.52 198.53 29.82 194.83 29.82 194.83 26.13 191.14 26.13 191.14 22.43 191.14 18.74 191.14 15.05 194.83 15.05 194.83 11.36 198.53 11.36 198.53 7.66 202.22 7.66 202.22 11.36 205.91 11.36 209.61 11.36 213.3 11.36 217 11.36 217 15.05 220.69 15.05 220.69 11.36 220.69 7.66 217 7.66 217 3.97 213.3 3.97 209.61 3.97 205.91 3.97 202.22 3.97 198.53 3.97 194.83 3.97 194.83 7.66 191.14 7.66 191.14 11.36 187.45 11.36 187.45 15.05 187.45 18.74 187.45 22.43 187.45 26.13 187.45 29.82 187.45 33.52 191.14 33.52 191.14 37.21 194.83 37.21 194.83 40.9 198.53 40.9 198.53 44.6 202.22 44.6 202.22 48.29 205.91 48.29 205.91 51.98 209.61 51.98 209.61 55.68 213.3 55.68 213.3 59.37 217 59.37 217 63.07 220.69 63.07 220.69 66.76 224.38 66.76 224.38 63.07 224.38 59.37 220.69 59.37 220.69 55.68z"/></g><g id="change2_2"><path fill="#1e60d1" d="M250.23 3.97L246.54 3.97 242.85 3.97 239.16 3.97 235.46 3.97 235.46 7.66 231.77 7.66 231.77 11.36 228.07 11.36 228.07 15.05 231.77 15.05 235.46 15.05 235.46 11.36 239.16 11.36 242.85 11.36 246.54 11.36 250.23 11.36 250.23 7.66 253.93 7.66 253.93 11.36 257.62 11.36 257.62 7.66 257.62 3.97 253.93 3.97 250.23 3.97z"/></g><g id="change3_1"><path fill="#1e60d1" d="M224.38,18.74V15.05h3.69v3.69Zm0-7.39h-3.69v3.7h3.69Zm-180.24,7V14.67H40.45v3.69Zm-3.69-3.69H36.76V11h3.69Zm91.93,4.07V15.05h3.69v3.69Zm0-3.69h-3.69v-3.7h3.69Zm184,3.69V15.05h3.69v3.69Zm0-3.69h-3.69v-3.7h3.69Zm92,3.69V15.05h3.69v3.69Zm0-3.69h-3.69v-3.7h3.69ZM77.39,11h3.69V33.14H77.39v3.69h-3.7v3.69H70v3.7H66.3v3.69H62.61V51.6H58.92v3.7h-3.7V59H51.53v3.7H47.84v3.69h-3.7v3.69H40.45V62.69h3.69V59h3.7V55.3h3.69V51.6h3.69V47.91h3.7V44.22h3.69V36.83H66.3V33.14H70V11h7.39Zm88.23.37h-3.69V33.52h-3.7v3.69h-3.69V44.6h-3.69v3.69h-3.7V52h-3.69v3.7h-3.69v3.69h-3.7v3.7h-3.69v7.38h3.69V66.76h3.7V63.07h3.69v-3.7h3.69V55.68h3.7V52h3.69V48.29h3.69V44.6h3.7V40.9h3.69V37.21h3.7V33.52H173V11.35h-7.39Zm92,0h-3.69V33.52h-3.7v3.69h-3.69V44.6h-3.69v3.69h-3.7V52h-3.69v3.7h-3.69v3.69h-3.7v3.7h-3.69v7.38h3.69V66.76h3.7V63.07h3.69v-3.7h3.69V55.68h3.7V52h3.69V48.29h3.69V44.6h3.7V40.9h3.69V37.21h3.7V33.52H265V11.35h-7.39Zm92,0h-3.69V33.52h-3.7v3.69h-3.69V44.6h-3.69v3.69h-3.7V52h-3.69v3.7h-3.69v3.69h-3.7v3.7h-3.69v7.38h3.69V66.76h3.7V63.07h3.69v-3.7h3.69V55.68h3.7V52h3.69V48.29h3.69V44.6h3.7V40.9h3.69V37.21h3.7V33.52H357V11.35h-7.39Zm92,0h-3.69V33.52h-3.7v3.69h-3.69V44.6h-3.69v3.69h-3.7V52h-3.69v3.7h-3.69v3.69h-3.7v3.7h-3.69v7.38h3.69V66.76h3.7V63.07h3.69v-3.7h3.69V55.68h3.7V52h3.69V48.29h3.69V44.6h3.7V40.9h3.69V37.21h3.7V33.52H449V11.35h-7.39Z"/></g><g id="change4_1"><path fill="#ffffff" d="M18.29,36.83H22v3.69H18.29Zm0-29.55H14.6V11h3.69Zm48,3.7H70V7.28H66.3ZM14.6,29.44V11H10.9v3.69H7.21V25.75H10.9v3.69Zm0,3.7v3.69h3.69V33.14Zm95.62,7.76h3.69V37.21h-3.69Zm0-33.24h-3.69v3.69h3.69Zm48,3.69h3.7V7.66h-3.7Zm-51.7,18.47V11.35h-3.7v3.7H99.14V26.13h3.69v3.69Zm0,3.7v3.69h3.69V33.52Zm95.69,7.38h3.69V37.21h-3.69Zm0-33.24h-3.69v3.69h3.69Zm48,3.69h3.7V7.66h-3.7Zm-51.7,18.47V11.35h-3.7v3.7h-3.69V26.13h3.69v3.69Zm0,3.7v3.69h3.69V33.52Zm95.69,7.38h3.69V37.21h-3.69Zm0-33.24h-3.69v3.69h3.69Zm48,3.69h3.7V7.66h-3.7Zm-51.7,18.47V11.35h-3.7v3.7h-3.69V26.13h3.69v3.69Zm0,3.7v3.69h3.69V33.52Zm95.69,7.38h3.69V37.21h-3.69Zm0-33.24h-3.69v3.69h3.69Zm48,3.69h3.7V7.66h-3.7Zm-51.7,18.47V11.35h-3.7v3.7h-3.69V26.13h3.69v3.69Zm0,3.7v3.69h3.69V33.52Z"/></g><g id="change2_3"><path fill="#1e60d1" d="M36.76,59h3.69v7.39H36.76V62.69h-3.7V59H29.37V55.3H25.68V51.6H22V47.91H18.29V44.22H14.6v-3.7H10.9V36.83H7.21V33.14H3.52V11H7.21V7.28H10.9V3.59H33.06V7.28h3.7v7.39h-3.7V11H18.29V7.28H14.6V11H10.9v3.69H7.21V25.75H10.9v3.69h3.7v7.39h3.69v3.69H22v3.7h3.7v3.69h3.69V51.6h3.69v3.7h3.7ZM66.3,3.59H51.53V7.28H47.84V11h-3.7v3.69h7.39V11H66.3V7.28H70V11h3.69V3.59H66.3Zm62.39,52.09H125V52H121.3V48.29h-3.69V44.6h-3.7V40.9h-3.69V37.21h-3.69V29.82h-3.7V26.13H99.14V15.05h3.69v-3.7h3.7V7.66h3.69v3.69H125v3.7h3.7V7.66H125V4H102.83V7.66H99.14v3.69H95.45V33.52h3.69v3.69h3.69V40.9h3.7v3.7h3.69v3.69h3.69V52h3.7v3.7h3.69v3.69H125v3.7h3.7v3.69h3.69V59.37h-3.69ZM158.23,4H143.46V7.66h-3.69v3.69h-3.7v3.7h7.39v-3.7h14.77V7.66h3.7v3.69h3.69V4h-7.39ZM312.69,55.68H309V52H305.3V48.29h-3.69V44.6h-3.7V40.9h-3.69V37.21h-3.69V29.82h-3.7V26.13h-3.69V15.05h3.69v-3.7h3.7V7.66h3.69v3.69H309v3.7h3.7V7.66H309V4H286.83V7.66h-3.69v3.69h-3.69V33.52h3.69v3.69h3.69V40.9h3.7v3.7h3.69v3.69h3.69V52h3.7v3.7h3.69v3.69H309v3.7h3.7v3.69h3.69V59.37h-3.69ZM342.23,4H327.46V7.66h-3.69v3.69h-3.7v3.7h7.39v-3.7h14.77V7.66h3.7v3.69h3.69V4h-7.39Zm62.46,51.71H401V52H397.3V48.29h-3.69V44.6h-3.7V40.9h-3.69V37.21h-3.69V29.82h-3.7V26.13h-3.69V15.05h3.69v-3.7h3.7V7.66h3.69v3.69H401v3.7h3.7V7.66H401V4H378.83V7.66h-3.69v3.69h-3.69V33.52h3.69v3.69h3.69V40.9h3.7v3.7h3.69v3.69h3.69V52h3.7v3.7h3.69v3.69H401v3.7h3.7v3.69h3.69V59.37h-3.69ZM434.23,4H419.46V7.66h-3.69v3.69h-3.7v3.7h7.39v-3.7h14.77V7.66h3.7v3.69h3.69V4h-7.39Z"/></g><g id="change5_1"><path fill="#000000" d="M81.23,7.13H77.54V3.44h-3.7V-.25H51.38V3.44H47.69V7.13H44v3.7H40.6V7.13H36.91V3.44h-3.7V-.25H10.75V3.44H7.06V7.13H3.37v3.7H-.33V33.29h3.7V37H7.06v3.69h3.69v3.7h3.7v3.69h3.69v3.69h3.69v3.7h3.7v3.69h3.69v3.7h3.69v3.69h3.7v3.69H40.3v3.7h4v-3.7H48V66.53h3.69V62.84h3.69v-3.7h3.7V55.45h3.69v-3.7h3.69V48.06h3.7V44.37h3.69v-3.7h3.7V37h3.69V33.29h3.69V10.83H81.23Zm-.3,7.54V33H77.24v3.69h-3.7v3.69H69.85v3.7h-3.7v3.69H62.46v3.69H58.77v3.7h-3.7v3.69H51.38v3.7H47.69v3.69H44v3.69H40.6V66.23H36.91V62.54h-3.7v-3.7H29.52V55.15H25.83v-3.7h-3.7V47.76H18.44V44.07H14.75v-3.7h-3.7V36.68H7.36V33H3.67V11.13H7.36V7.43h3.69V3.74H32.91V7.43h3.7v3.7H40.3v3.69h4V11.13H48V7.43h3.69V3.74H73.54V7.43h3.7v3.7h3.69Zm92.23-7.16h-3.69V3.82h-3.7V.12H143.31v3.7h-3.69V7.51h-3.7V11.2h-3.39V7.51h-3.69V3.82h-3.69V.12H102.68v3.7H99V7.51H95.3V11.2H91.6V33.67h3.7v3.69H99v3.69h3.69v3.7h3.7v3.69h3.69v3.69h3.69v3.7h3.7v3.69h3.69v3.7h3.69v3.69h3.7V70.6h3.69v3.7h4V70.6h3.69V66.91h3.69V63.22h3.7v-3.7H151V55.83h3.69v-3.7h3.69V48.44h3.7V44.75h3.69v-3.7h3.7V37.36h3.69V33.67h3.69V11.2h-3.69Zm-.3,7.54V33.37h-3.69v3.69h-3.7v3.69h-3.69v3.7h-3.7v3.69h-3.69v3.69H150.7v3.7H147v3.69h-3.69v3.7h-3.69v3.69h-3.7V70.3h-3.39V66.61h-3.69V62.92h-3.69v-3.7h-3.7V55.53h-3.69v-3.7h-3.7V48.14h-3.69V44.45h-3.69v-3.7H103V37.06H99.29V33.37H95.6V11.5h3.69V7.81H103V4.12h21.86V7.81h3.7V11.5h3.69v3.7h4V11.5h3.69V7.81h3.69V4.12h21.86V7.81h3.7V11.5h3.69Zm92.3-7.54h-3.69V3.82h-3.7V.12H235.31v3.7h-3.69V7.51h-3.7V11.2h-3.39V7.51h-3.69V3.82h-3.69V.12H194.68v3.7H191V7.51H187.3V11.2h-3.7V33.67h3.7v3.69H191v3.69h3.69v3.7h3.7v3.69h3.69v3.69h3.69v3.7h3.7v3.69h3.69v3.7h3.69v3.69h3.7V70.6h3.69v3.7h4V70.6h3.69V66.91h3.69V63.22h3.7v-3.7H243V55.83h3.69v-3.7h3.69V48.44h3.7V44.75h3.69v-3.7h3.7V37.36h3.69V33.67h3.69V11.2h-3.69Zm-.3,7.54V33.37h-3.69v3.69h-3.7v3.69h-3.69v3.7h-3.7v3.69h-3.69v3.69H242.7v3.7H239v3.69h-3.69v3.7h-3.69v3.69h-3.7V70.3h-3.39V66.61h-3.69V62.92h-3.69v-3.7h-3.7V55.53h-3.69v-3.7h-3.7V48.14h-3.69V44.45h-3.69v-3.7H195V37.06h-3.69V33.37H187.6V11.5h3.69V7.81H195V4.12h21.86V7.81h3.7V11.5h3.69v3.7h4V11.5h3.69V7.81h3.69V4.12h21.86V7.81h3.7V11.5h3.69Zm92.3-7.54h-3.69V3.82h-3.7V.12H327.31v3.7h-3.69V7.51h-3.7V11.2h-3.39V7.51h-3.69V3.82h-3.69V.12H286.68v3.7H283V7.51H279.3V11.2h-3.7V33.67h3.7v3.69H283v3.69h3.69v3.7h3.7v3.69h3.69v3.69h3.69v3.7h3.7v3.69h3.69v3.7h3.69v3.69h3.7V70.6h3.69v3.7h4V70.6h3.69V66.91h3.69V63.22h3.7v-3.7H335V55.83h3.69v-3.7h3.69V48.44h3.7V44.75h3.69v-3.7h3.7V37.36h3.69V33.67h3.69V11.2h-3.69Zm-.3,7.54V33.37h-3.69v3.69h-3.7v3.69h-3.69v3.7h-3.7v3.69h-3.69v3.69H334.7v3.7H331v3.69h-3.69v3.7h-3.69v3.69h-3.7V70.3h-3.39V66.61h-3.69V62.92h-3.69v-3.7h-3.7V55.53h-3.69v-3.7h-3.7V48.14h-3.69V44.45h-3.69v-3.7H287V37.06h-3.69V33.37H279.6V11.5h3.69V7.81H287V4.12h21.86V7.81h3.7V11.5h3.69v3.7h4V11.5h3.69V7.81h3.69V4.12h21.86V7.81h3.7V11.5h3.69Zm92.3-7.54h-3.69V3.82h-3.7V.12H419.31v3.7h-3.69V7.51h-3.7V11.2h-3.39V7.51h-3.69V3.82h-3.69V.12H378.68v3.7H375V7.51H371.3V11.2h-3.7V33.67h3.7v3.69H375v3.69h3.69v3.7h3.7v3.69h3.69v3.69h3.69v3.7h3.7v3.69h3.69v3.7h3.69v3.69h3.7V70.6h3.69v3.7h4V70.6h3.69V66.91h3.69V63.22h3.7v-3.7H427V55.83h3.69v-3.7h3.69V48.44h3.7V44.75h3.69v-3.7h3.7V37.36h3.69V33.67h3.69V11.2h-3.69Zm-.3,7.54V33.37h-3.69v3.69h-3.7v3.69h-3.69v3.7h-3.7v3.69h-3.69v3.69H426.7v3.7H423v3.69h-3.69v3.7h-3.69v3.69h-3.7V70.3h-3.39V66.61h-3.69V62.92h-3.69v-3.7h-3.7V55.53h-3.69v-3.7h-3.7V48.14h-3.69V44.45h-3.69v-3.7H379V37.06h-3.69V33.37H371.6V11.5h3.69V7.81H379V4.12h21.86V7.81h3.7V11.5h3.69v3.7h4V11.5h3.69V7.81h3.69V4.12h21.86V7.81h3.7V11.5h3.69Z"/></g></svg>