<svg width="512" height="512" viewBox="0 0 512 512" xmlns="http://www.w3.org/2000/svg" xmlns:xlink="http://www.w3.org/1999/xlink" overflow="hidden"><style>
.MsftOfcThm_Background1_Fill_v2 {
 fill:#FFFFFF; 
}
</style>
<g id="_x30_6_Access_Key"><g><path d="M362.955 119.436C362.955 60.418 315.01 12.406 256.082 12.406 197.064 12.406 149.049 60.418 149.049 119.436 149.049 161.943 174.778 200.729 213.605 217.59L213.605 294.367C213.605 304.945 222.176 313.55 232.863 313.55 235.004 313.55 236.747 315.36 236.747 317.587L236.747 334.484C236.747 336.71 235.004 338.521 232.71 338.521 222.176 338.521 213.605 347.126 213.605 357.7L213.605 372.471C213.605 383.046 222.176 391.65 232.863 391.65 235.004 391.65 236.747 393.427 236.747 395.612L236.747 412.584C236.747 414.81 235.004 416.621 232.71 416.621 222.176 416.621 213.605 425.192 213.605 435.726L213.605 457.269C213.605 459.295 214.412 461.239 215.85 462.666 224.151 470.922 228.337 475.112 250.544 497.364 253.497 500.324 258.302 500.341 261.279 497.394 269.766 489.002 274.85 483.927 296.159 462.667 297.597 461.24 298.404 459.296 298.404 457.27L298.404 217.593C337.227 200.781 362.955 161.995 362.955 119.436ZM288.122 205.331C285.148 206.446 283.178 209.286 283.178 212.46L283.178 454.11C282.406 454.88 261.422 475.812 255.955 481.236 241.727 466.978 235.37 460.616 228.829 454.106L228.829 435.726C228.829 433.585 230.569 431.846 232.862 431.846 243.4 431.846 251.971 423.204 251.971 412.585L251.971 395.613C251.971 385.035 243.4 376.426 232.71 376.426 230.569 376.426 228.83 374.653 228.83 372.471L228.83 357.7C228.83 355.481 230.536 353.745 232.863 353.745 243.401 353.745 251.972 345.103 251.972 334.484L251.972 317.587C251.972 306.968 243.401 298.326 232.711 298.326 230.537 298.326 228.831 296.586 228.831 294.367L228.831 212.46C228.831 209.289 226.865 206.45 223.895 205.335 188.235 191.932 164.275 157.412 164.275 119.436 164.275 68.815 205.459 27.631 256.084 27.631 306.62 27.631 347.733 68.815 347.733 119.436 347.731 157.46 323.775 191.979 288.122 205.331Z" class="MsftOfcThm_Background1_Fill_v2" stroke="none" stroke-width="1" stroke-linecap="butt" stroke-linejoin="miter" stroke-miterlimit="4" fill="#FFFFFF" fill-opacity="1"/><path d="M256.004 56.482C241.735 56.482 230.123 68.127 230.123 82.441 230.123 96.71 241.735 108.322 256.004 108.322 270.273 108.322 281.885 96.71 281.885 82.441 281.885 68.127 270.273 56.482 256.004 56.482ZM256.004 93.097C250.127 93.097 245.347 88.317 245.347 82.44 245.347 76.523 250.127 71.705 256.004 71.705 261.88 71.705 266.66 76.522 266.66 82.44 266.66 88.317 261.88 93.097 256.004 93.097Z" class="MsftOfcThm_Background1_Fill_v2" stroke="none" stroke-width="1" stroke-linecap="butt" stroke-linejoin="miter" stroke-miterlimit="4" fill="#FFFFFF" fill-opacity="1"/><path d="M328.362 279.588 391.379 279.588C395.583 279.588 398.991 276.18 398.991 271.976L398.991 220.616C407.666 217.486 413.918 209.271 413.918 199.555 413.918 187.126 403.804 177.012 391.375 177.012 378.946 177.012 368.832 187.126 368.832 199.555 368.832 209.273 375.088 217.49 383.767 220.618L383.767 264.364 328.362 264.364C324.158 264.364 320.75 267.772 320.75 271.976 320.749 276.179 324.158 279.588 328.362 279.588ZM391.375 192.236C395.412 192.236 398.694 195.518 398.694 199.555 398.694 203.551 395.412 206.803 391.375 206.803 387.338 206.803 384.056 203.551 384.056 199.555 384.056 195.518 387.338 192.236 391.375 192.236Z" class="MsftOfcThm_Background1_Fill_v2" stroke="none" stroke-width="1" stroke-linecap="butt" stroke-linejoin="miter" stroke-miterlimit="4" fill="#FFFFFF" fill-opacity="1"/><path d="M391.379 374.831 328.362 374.831C324.158 374.831 320.75 378.239 320.75 382.443 320.75 386.647 324.158 390.055 328.362 390.055L383.767 390.055 383.767 433.805C375.088 436.943 368.832 445.187 368.832 454.934 368.832 467.326 378.946 477.407 391.375 477.407 403.804 477.407 413.918 467.327 413.918 454.934 413.918 445.19 407.666 436.948 398.991 433.807L398.991 382.442C398.991 378.239 395.583 374.831 391.379 374.831ZM391.375 462.183C387.338 462.183 384.056 458.931 384.056 454.935 384.056 450.898 387.338 447.616 391.375 447.616 395.412 447.616 398.694 450.898 398.694 454.935 398.694 458.931 395.412 462.183 391.375 462.183Z" class="MsftOfcThm_Background1_Fill_v2" stroke="none" stroke-width="1" stroke-linecap="butt" stroke-linejoin="miter" stroke-miterlimit="4" fill="#FFFFFF" fill-opacity="1"/><path d="M477.051 304.699C467.317 304.699 459.082 310.937 455.934 319.597L328.362 319.597C324.158 319.597 320.75 323.005 320.75 327.209 320.75 331.413 324.158 334.821 328.362 334.821L455.92 334.821C459.056 343.476 467.301 349.715 477.051 349.715 489.48 349.715 499.594 339.635 499.594 327.242 499.594 314.813 489.48 304.699 477.051 304.699ZM477.051 334.491C473.014 334.491 469.732 331.239 469.732 327.243 469.732 323.206 473.014 319.924 477.051 319.924 481.088 319.924 484.37 323.206 484.37 327.243 484.369 331.239 481.087 334.491 477.051 334.491Z" class="MsftOfcThm_Background1_Fill_v2" stroke="none" stroke-width="1" stroke-linecap="butt" stroke-linejoin="miter" stroke-miterlimit="4" fill="#FFFFFF" fill-opacity="1"/><path d="M120.621 279.588 183.638 279.588C187.842 279.588 191.25 276.18 191.25 271.976 191.25 267.772 187.842 264.364 183.638 264.364L128.233 264.364 128.233 220.618C136.912 217.49 143.168 209.273 143.168 199.555 143.168 187.126 133.054 177.012 120.625 177.012 108.196 177.012 98.082 187.126 98.082 199.555 98.082 209.271 104.334 217.486 113.009 220.616L113.009 271.976C113.009 276.179 116.417 279.588 120.621 279.588ZM120.625 192.236C124.662 192.236 127.944 195.518 127.944 199.555 127.944 203.551 124.662 206.803 120.625 206.803 116.588 206.803 113.306 203.551 113.306 199.555 113.306 195.518 116.588 192.236 120.625 192.236Z" class="MsftOfcThm_Background1_Fill_v2" stroke="none" stroke-width="1" stroke-linecap="butt" stroke-linejoin="miter" stroke-miterlimit="4" fill="#FFFFFF" fill-opacity="1"/><path d="M183.638 390.056C187.842 390.056 191.25 386.648 191.25 382.444 191.25 378.24 187.842 374.832 183.638 374.832L120.621 374.832C116.417 374.832 113.009 378.24 113.009 382.444L113.009 433.809C104.334 436.949 98.082 445.191 98.082 454.936 98.082 467.328 108.196 477.409 120.625 477.409 133.054 477.409 143.168 467.329 143.168 454.936 143.168 445.189 136.912 436.945 128.233 433.807L128.233 390.057 183.638 390.057ZM120.625 462.183C116.588 462.183 113.306 458.931 113.306 454.935 113.306 450.898 116.588 447.616 120.625 447.616 124.662 447.616 127.944 450.898 127.944 454.935 127.944 458.931 124.662 462.183 120.625 462.183Z" class="MsftOfcThm_Background1_Fill_v2" stroke="none" stroke-width="1" stroke-linecap="butt" stroke-linejoin="miter" stroke-miterlimit="4" fill="#FFFFFF" fill-opacity="1"/><path d="M34.949 349.715C44.699 349.715 52.944 343.477 56.08 334.821L183.638 334.821C187.842 334.821 191.25 331.413 191.25 327.209 191.25 323.005 187.842 319.597 183.638 319.597L56.067 319.597C52.919 310.937 44.683 304.699 34.95 304.699 22.521 304.699 12.407 314.813 12.407 327.242 12.406 339.635 22.52 349.715 34.949 349.715ZM34.949 319.924C38.986 319.924 42.268 323.206 42.268 327.243 42.268 331.239 38.986 334.491 34.949 334.491 30.912 334.491 27.63 331.239 27.63 327.243 27.631 323.206 30.913 319.924 34.949 319.924Z" class="MsftOfcThm_Background1_Fill_v2" stroke="none" stroke-width="1" stroke-linecap="butt" stroke-linejoin="miter" stroke-miterlimit="4" fill="#FFFFFF" fill-opacity="1"/></g></g></svg>