<svg viewBox="0 0 96 96" xmlns="http://www.w3.org/2000/svg" xmlns:xlink="http://www.w3.org/1999/xlink" id="Icons_CloudWithLightningAndRain" overflow="hidden"><path d="M82.1 43.5C82.1324 38.286 77.9318 34.0329 72.7178 34.0005 72.1758 33.9972 71.6346 34.0405 71.1 34.13L71.1 34C71.0987 27.3726 65.7251 22.001 59.0977 22.0023 57.828 22.0025 56.5664 22.2043 55.36 22.6 51.5807 15.546 42.7986 12.8913 35.7446 16.6706 31.1194 19.1486 28.1952 23.9336 28.1 29.18 21.5848 27.9654 15.3186 32.2623 14.104 38.7775 12.8894 45.2926 17.1863 51.5589 23.7015 52.7735 24.1638 52.8597 24.6308 52.9186 25.1 52.95L25.1 53 73.1 53C78.1528 52.7388 82.1121 48.5595 82.1 43.5Z" fill="#FF0000"/><path d="M56.1 65 47.57 65 50.77 57 43.24 57 40.1 70 46.5 70 42.6 81 56.1 65Z" fill="#FF0000"/><path d="M70.9 66.952C70.9 69.7134 68.6614 71.952 65.9 71.952 63.1386 71.952 60.9 69.7134 60.9 66.952 60.9 64.192 65.9 56.952 65.9 56.952 65.9 56.952 70.9 64.192 70.9 66.952Z" fill="#FF0000"/><path d="M34.9 66.952C34.9 69.7134 32.6614 71.952 29.9 71.952 27.1386 71.952 24.9 69.7134 24.9 66.952 24.9 64.192 29.9 56.952 29.9 56.952 29.9 56.952 34.9 64.192 34.9 66.952Z" fill="#FF0000"/></svg>