<svg viewBox="0 0 1191.62 1167.79" xmlns="http://www.w3.org/2000/svg" xmlns:xlink="http://www.w3.org/1999/xlink" id="Animal" overflow="hidden"><defs></defs><path d="M1182.09 433.75 610.11 4.76C601.64-1.59 589.99-1.59 581.51 4.76L9.54 433.75C3.53 438.26 0 445.32 0 452.82L0 595.82C0 608.99 10.67 619.65 23.83 619.65L71.5 619.65 71.5 1167.8 119.16 1167.8 119.16 607.26 253.23 499.76 223.41 462.57 86.95 571.99 47.67 571.99 47.67 464.74 595.81 53.62 1143.96 464.73 1143.96 571.98 1104.67 571.98 968.21 462.56 938.39 499.75 1072.46 607.25 1072.46 1167.79 1120.13 1167.79 1120.13 619.64 1167.79 619.64C1180.96 619.64 1191.62 608.97 1191.62 595.81L1191.62 452.81C1191.62 445.31 1188.09 438.25 1182.09 433.74Z" stroke-width="0" fill="#07512E"/><path d="M595.81 714.97C360.21 714.97 357.48 880.13 357.48 881.8L357.48 1167.79 405.15 1167.79 405.15 881.8C405.15 876.94 407.31 762.64 595.81 762.64 784.31 762.64 786.38 877.12 786.47 881.8L786.47 1167.79 834.13 1167.79 834.13 881.8C834.13 880.13 831.41 714.97 595.81 714.97Z" stroke-width="0" fill="#07512E"/><path d="M905.64 452.81C905.64 414.49 880.26 357.48 810.31 357.48 753.93 357.48 726.49 394.53 717.98 428.98L473.65 428.98C465.14 394.53 437.71 357.48 381.32 357.48 311.37 357.48 285.99 414.49 285.99 452.81 285.99 475.33 294.86 504.24 316.3 524.31 294.86 544.38 285.99 573.28 285.99 595.81 285.99 634.13 311.37 691.14 381.32 691.14 437.71 691.14 465.14 654.09 473.65 619.64L717.98 619.64C726.49 654.09 753.92 691.14 810.31 691.14 880.26 691.14 905.64 634.13 905.64 595.81 905.64 573.29 896.76 544.38 875.33 524.31 896.77 504.24 905.64 475.34 905.64 452.81ZM810.31 548.14C853.84 548.14 857.8 584.76 857.98 595.63 857.8 606.86 853.84 643.47 810.31 643.47 766.78 643.47 762.82 606.85 762.65 595.8 762.65 582.64 751.98 571.97 738.82 571.97L452.83 571.97C439.81 571.97 429.2 582.61 429 595.62 428.82 606.85 424.86 643.46 381.33 643.46 337.8 643.46 333.84 606.84 333.66 595.97 333.84 584.74 337.8 548.13 381.33 548.13L381.33 500.46C337.8 500.46 333.84 463.84 333.66 452.97 333.84 441.74 337.8 405.13 381.33 405.13 424.86 405.13 428.82 441.75 429 452.79 429 465.96 439.67 476.62 452.83 476.62L738.82 476.62C751.84 476.62 762.45 465.98 762.65 452.97 762.83 441.74 766.78 405.13 810.31 405.13 853.84 405.13 857.8 441.75 857.98 452.62 857.8 463.85 853.84 500.46 810.31 500.46L810.31 548.13Z" stroke-width="0" fill="#07512E"/></svg>