<svg viewBox="0 0 1475.08 1467.74" xmlns="http://www.w3.org/2000/svg" xmlns:xlink="http://www.w3.org/1999/xlink" id="Animal" overflow="hidden"><defs></defs><path d="M1103.03 519.48C1131.75 483.46 1139.14 433.83 1125.01 371.97 1062.63 99.06 873.64 0 761.83 0L524.08 0C384.35 0 327.34 88.75 311.98 151.75L38.86 174.77C27.26 175.74 17.35 183.54 13.68 194.6 12.04 199.52-25.69 316.08 31.71 404.58 65.34 456.43 123.1 486.78 203.39 494.76 445.93 518.89 456.15 560.58 456.15 652.59L514.37 652.59C514.37 505.31 451.62 460.94 209.15 436.82 147.47 430.68 104.26 409.25 80.7 373.12 72.07 359.88 66.54 345.38 63.08 330.71 63.93 330.71 64.73 330.74 65.59 330.74 99.97 330.74 151.47 324.74 187.28 293.63 209.22 274.58 222.11 248.46 225.03 217.51L339.3 207.88C353.45 206.69 364.68 195.46 365.87 181.3 366.29 176.27 377.85 58.22 524.07 58.22L761.82 58.22C851.42 58.22 1013.83 146.92 1068.23 384.94 1078.22 428.66 1074.61 461.71 1057.49 483.18 1035.89 510.28 990.28 524.01 921.94 524.01 780.61 524.01 776.38 206.96 776.38 203.76L718.16 203.76C718.16 219.22 720.48 582.23 921.95 582.23 970.46 582.23 1010.16 575.98 1041.71 563.36 1165.63 740.35 1416.86 1125.29 1416.86 1251.81L1475.09 1251.81C1475.09 1093.63 1186.87 669.05 1091.13 532.39 1095.38 528.32 1099.39 524.05 1103.04 519.47ZM149.2 249.6C126.52 269.38 85.86 272.99 58.69 272.33 59.66 256.03 62.06 241.59 64.31 231.06L165.31 222.55C162.6 233.58 157.3 242.54 149.2 249.6Z" stroke-width="0" fill="#07512E"/><path d="M420.97 932.71 420.97 982.54C420.97 998.62 434.01 1011.65 450.08 1011.65 466.15 1011.65 479.19 998.62 479.19 982.54L479.19 932.71C479.19 916.63 466.16 903.6 450.08 903.6 434 903.6 420.97 916.63 420.97 932.71Z" stroke-width="0" fill="#07512E"/><path d="M420.97 153.96 420.97 203.79C420.97 219.87 434.01 232.9 450.08 232.9 466.15 232.9 479.19 219.87 479.19 203.79L479.19 153.96C479.19 137.88 466.16 124.85 450.08 124.85 434 124.85 420.97 137.88 420.97 153.96Z" stroke-width="0" fill="#07512E"/><path d="M616.98 585.2 582.31 578.46 582.31 759.34 524.08 759.34C458.04 759.34 336.87 796.74 321.84 934.01L257.74 934.01 253.59 935.27C250.47 936.22 177.16 959.94 177.16 1082 177.16 1166.67 241.59 1254.25 349.41 1254.25 374.44 1254.25 435.69 1258.6 463.62 1298.87 486.38 1331.68 484.94 1383.83 459.35 1453.9 457.22 1456.92 454.05 1461.64 450.33 1467.75L516.16 1467.75C546.34 1381.76 544.83 1313.78 511.46 1265.69 469.42 1205.09 391.88 1196.04 349.41 1196.04 275.35 1196.04 235.39 1137.29 235.39 1082.02 235.39 1017.98 259.68 997.55 268.44 992.26L378.52 992.26 378.52 963.15C378.52 822.72 509.28 817.7 524.08 817.59L640.53 817.59 640.53 656.25C680.27 676.54 747.37 724.25 806.64 831.25 889.59 980.96 931.65 1195.12 931.65 1467.77L989.87 1467.77C989.87 1185.14 945.36 961.49 857.57 803.03 752.6 613.55 622.46 586.3 616.97 585.23Z" stroke-width="0" fill="#07512E"/></svg>