<svg viewBox="0 0 96 96" xmlns="http://www.w3.org/2000/svg" xmlns:xlink="http://www.w3.org/1999/xlink" id="Icons_PawPrints" overflow="hidden"><style>
.MsftOfcResponsive_Fill_ffba7e {
 fill:#FFBA7E; 
}
.MsftOfcThm_Text1_Stroke_v2 {
 stroke:#000000; 
}
</style>
<ellipse cx="32.85" cy="17.85" rx="7.84" ry="5.22" class="MsftOfcResponsive_Fill_ffba7e MsftOfcThm_Text1_Stroke_v2" stroke="#000000" fill="#FFBA7E" transform="matrix(0.159709 -0.987164 0.987164 0.159709 9.99 47.43)"/><ellipse cx="41.56" cy="29.6" rx="6.53" ry="5.22" class="MsftOfcResponsive_Fill_ffba7e MsftOfcThm_Text1_Stroke_v2" stroke="#000000" fill="#FFBA7E" transform="matrix(0.383973 -0.923344 0.923344 0.383973 -1.73 56.61)"/><ellipse cx="19.05" cy="17.85" rx="5.22" ry="7.84" class="MsftOfcResponsive_Fill_ffba7e MsftOfcThm_Text1_Stroke_v2" stroke="#000000" fill="#FFBA7E" transform="matrix(0.987164 -0.159709 0.159709 0.987164 -2.61 3.27)"/><ellipse cx="10.34" cy="29.6" rx="5.22" ry="6.53" class="MsftOfcResponsive_Fill_ffba7e MsftOfcThm_Text1_Stroke_v2" stroke="#000000" fill="#FFBA7E" transform="matrix(0.923344 -0.383973 0.383973 0.923344 -10.57 6.24)"/><path d="M26.36 51.87C27.8459 51.8566 29.3018 52.2885 30.54 53.11 30.9163 53.3447 31.3109 53.5487 31.72 53.72 34.9624 55.1683 38.765 53.7138 40.2133 50.4714 40.3663 50.129 40.489 49.7738 40.58 49.41 41.1051 47.4444 40.899 45.3551 40 43.53 39.4313 42.3594 38.6037 41.3335 37.58 40.53 36.8425 39.9757 36.1714 39.3381 35.58 38.63L34.88 37.76C33.8053 36.4621 33.0394 34.9371 32.64 33.3 32.3476 31.9713 31.7212 30.7392 30.82 29.72 28.5455 27 24.4967 26.6388 21.7767 28.9133 21.4844 29.1578 21.2144 29.4277 20.97 29.72 20.0753 30.7436 19.4497 31.974 19.15 33.3 18.7506 34.9371 17.9847 36.4621 16.91 37.76L16.22 38.63C15.6281 39.3377 14.9571 39.9752 14.22 40.53 13.1964 41.3311 12.3716 42.3578 11.81 43.53 10.8998 45.3513 10.6864 47.4424 11.21 49.41 11.6996 51.2412 12.9475 52.7765 14.64 53.63 16.3529 54.4391 18.3312 54.4719 20.07 53.72 20.4531 53.5676 20.8213 53.3801 21.17 53.16 22.3453 52.4087 23.6967 51.9778 25.09 51.91Z" class="MsftOfcResponsive_Fill_ffba7e MsftOfcThm_Text1_Stroke_v2" stroke="#000000" fill="#FFBA7E"/><ellipse cx="77.85" cy="50.85" rx="7.84" ry="5.22" class="MsftOfcResponsive_Fill_ffba7e MsftOfcThm_Text1_Stroke_v2" stroke="#000000" fill="#FFBA7E" transform="matrix(0.159709 -0.987164 0.987164 0.159709 15.23 119.58)"/><ellipse cx="86.56" cy="62.6" rx="6.53" ry="5.22" class="MsftOfcResponsive_Fill_ffba7e MsftOfcThm_Text1_Stroke_v2" stroke="#000000" fill="#FFBA7E" transform="matrix(0.383973 -0.923344 0.923344 0.383973 -4.48 118.49)"/><ellipse cx="64.05" cy="50.85" rx="5.22" ry="7.84" class="MsftOfcResponsive_Fill_ffba7e MsftOfcThm_Text1_Stroke_v2" stroke="#000000" fill="#FFBA7E" transform="matrix(0.987164 -0.159709 0.159709 0.987164 -7.3 10.88)"/><ellipse cx="55.34" cy="62.6" rx="5.22" ry="6.53" class="MsftOfcResponsive_Fill_ffba7e MsftOfcThm_Text1_Stroke_v2" stroke="#000000" fill="#FFBA7E" transform="matrix(0.923344 -0.383973 0.383973 0.923344 -19.8 26.05)"/><path d="M71.36 84.87C72.8459 84.8566 74.3018 85.2885 75.54 86.11 75.9163 86.3447 76.3109 86.5487 76.72 86.72 79.9624 88.1683 83.765 86.7138 85.2133 83.4714 85.3663 83.129 85.489 82.7738 85.58 82.41 86.1051 80.4444 85.899 78.3551 85 76.53 84.4313 75.3594 83.6038 74.3335 82.58 73.53 81.8425 72.9757 81.1714 72.3381 80.58 71.63L79.88 70.76C78.8053 69.4621 78.0394 67.9371 77.64 66.3 77.3476 64.9713 76.7212 63.7392 75.82 62.72 73.5455 60 69.4967 59.6388 66.7767 61.9133 66.4844 62.1578 66.2144 62.4277 65.97 62.72 65.0753 63.7436 64.4498 64.974 64.15 66.3 63.7506 67.9371 62.9847 69.4621 61.91 70.76L61.22 71.63C60.6281 72.3377 59.9571 72.9752 59.22 73.53 58.1964 74.3311 57.3716 75.3578 56.81 76.53 55.8998 78.3513 55.6864 80.4424 56.21 82.41 57.2412 85.9464 60.9441 87.9773 64.4805 86.9461 65.0916 86.7679 65.674 86.5032 66.21 86.16 67.3853 85.4087 68.7367 84.9778 70.13 84.91Z" class="MsftOfcResponsive_Fill_ffba7e MsftOfcThm_Text1_Stroke_v2" stroke="#000000" fill="#FFBA7E"/></svg>