<svg viewBox="0 0 96 96" xmlns="http://www.w3.org/2000/svg" xmlns:xlink="http://www.w3.org/1999/xlink" id="Icons_PoliceMale" overflow="hidden"><g id="Icons"><path d="M32.4 50.9C27.8 52.5 23.5 54.4 19.8 57.4 17.4 59.3 16.1 62 16 65L16 82.6 16.9 83.2C21.6 86.4 34.2 88 47 88.1L47 58.5 41.1 64.6 32.4 50.9Z" fill="#07512E"/><path d="M80 65C79.9 62.1 78.6 59.3 76.3 57.5 72.6 54.5 68.2 52.6 63.7 50.9L55 64.6 49 58.5 49 88.1C62.1 88 74.9 86.4 79.2 83.1L80 82.5 80 65ZM71.4 69.3C71.4 72.8 67.3 74 67.3 74 67.3 74 63.2 72.8 63.2 69.3 63.2 67.9 63.6 67.9 63.6 66.7 63.5 66.2 63.3 65.8 63 65.4L64.4 64C64.8 64.4 65.3 64.6 65.8 64.6 66.3 64.6 66.8 64.4 67.2 64.1 67.6 64.4 68.1 64.6 68.6 64.6 69.1 64.6 69.6 64.4 70 64L71.4 65.4C71.1 65.8 70.9 66.2 70.8 66.7 71 67.8 71.4 67.8 71.4 69.3Z" fill="#07512E"/><path d="M68.6 11.4C65.4 10.7 62.3 9.9 59.3 8.8 57 8 51.5 5.3 49.2 4.1 48.5 3.7 47.6 3.7 46.9 4.1 44.6 5.3 39 8 36.8 8.9 33.7 10 30.6 10.8 27.4 11.5 26.1 11.8 25.3 13.1 25.6 14.4 25.7 14.8 25.9 15.3 26.2 15.6L30.2 19.6 30.2 20.9C30.2 22.3 30.9 23.6 32 24.4L32 33C32 38.1 34.4 42.9 38.5 45.9L34.2 50.2 41.4 61.5 47 55.7 47 55.5 40 47C44.9 49.8 51 49.8 55.9 47L49 55.4 49 55.6 54.6 61.4 61.8 50.1 57.5 45.8C61.6 42.8 64 38 64 32.9L64 24.1C65.1 23.3 65.8 22 65.8 20.6L65.8 19.4 69.8 15.4C70.7 14.5 70.7 12.9 69.8 12 69.4 11.8 69 11.5 68.6 11.4ZM51.6 15.7C51.6 18.8 48 19.8 48 19.8 48 19.8 44.4 18.8 44.4 15.7 44.4 14.4 44.8 14.4 44.8 13.4 44.7 13 44.6 12.6 44.3 12.3L45.6 11C45.9 11.3 46.4 11.5 46.9 11.5 47.4 11.5 47.8 11.3 48.2 11 48.6 11.3 49 11.5 49.5 11.5 50 11.5 50.4 11.3 50.7 11L52 12.3C51.7 12.6 51.6 13 51.5 13.4 51.3 14.4 51.6 14.4 51.6 15.7ZM36 33 36 26.8C43.5 30.8 52.5 30.7 60 26.7L60 33C60 39.6 54.6 45 48 45 41.4 45 36 39.6 36 33Z" fill="#07512E"/></g></svg>