<?xml version="1.0" encoding="UTF-8"?><svg xmlns="http://www.w3.org/2000/svg" xmlns:xlink="http://www.w3.org/1999/xlink" contentScriptType="text/ecmascript" fill="#000000" width="470.3" zoomAndPan="magnify" contentStyleType="text/css" viewBox="14.9 7.8 470.3 84.5" height="84.5" preserveAspectRatio="xMidYMid meet" version="1"><linearGradient x1="14.857" xmlns:xlink="http://www.w3.org/1999/xlink" y1="50" x2="58.827" gradientUnits="userSpaceOnUse" y2="50" xlink:type="simple" xlink:actuate="onLoad" id="a" xlink:show="other"><stop stop-color="#64dfdf" offset="0.025"/><stop stop-color="#5400ff" offset="0.502"/><stop stop-color="#f0b2af" offset="0.926"/></linearGradient><path fill="url(#a)" d="M14.86 92.24L14.86 81.65 47.8 50 14.86 18.35 14.86 7.76 58.83 50z"/><linearGradient x1="62.225" xmlns:xlink="http://www.w3.org/1999/xlink" y1="50" x2="106.196" gradientUnits="userSpaceOnUse" y2="50" xlink:type="simple" xlink:actuate="onLoad" id="b" xlink:show="other"><stop stop-color="#64dfdf" offset="0.025"/><stop stop-color="#5400ff" offset="0.502"/><stop stop-color="#f0b2af" offset="0.926"/></linearGradient><path fill="url(#b)" d="M62.23 92.24L62.23 81.65 95.17 50 62.23 18.35 62.23 7.76 106.2 50z"/><linearGradient x1="109.594" xmlns:xlink="http://www.w3.org/1999/xlink" y1="50" x2="153.564" gradientUnits="userSpaceOnUse" y2="50" xlink:type="simple" xlink:actuate="onLoad" id="c" xlink:show="other"><stop stop-color="#64dfdf" offset="0.025"/><stop stop-color="#5400ff" offset="0.502"/><stop stop-color="#f0b2af" offset="0.926"/></linearGradient><path fill="url(#c)" d="M109.59 92.24L109.59 81.65 142.54 50 109.59 18.35 109.59 7.76 153.56 50z"/><linearGradient x1="156.962" xmlns:xlink="http://www.w3.org/1999/xlink" y1="50" x2="200.933" gradientUnits="userSpaceOnUse" y2="50" xlink:type="simple" xlink:actuate="onLoad" id="d" xlink:show="other"><stop stop-color="#64dfdf" offset="0.025"/><stop stop-color="#5400ff" offset="0.502"/><stop stop-color="#f0b2af" offset="0.926"/></linearGradient><path fill="url(#d)" d="M156.96 92.24L156.96 81.65 189.91 50 156.96 18.35 156.96 7.76 200.93 50z"/><linearGradient x1="204.33" xmlns:xlink="http://www.w3.org/1999/xlink" y1="50" x2="248.301" gradientUnits="userSpaceOnUse" y2="50" xlink:type="simple" xlink:actuate="onLoad" id="e" xlink:show="other"><stop stop-color="#64dfdf" offset="0.025"/><stop stop-color="#5400ff" offset="0.502"/><stop stop-color="#f0b2af" offset="0.926"/></linearGradient><path fill="url(#e)" d="M204.33 92.24L204.33 81.65 237.28 50 204.33 18.35 204.33 7.76 248.3 50z"/><linearGradient x1="251.699" xmlns:xlink="http://www.w3.org/1999/xlink" y1="50" x2="295.67" gradientUnits="userSpaceOnUse" y2="50" xlink:type="simple" xlink:actuate="onLoad" id="f" xlink:show="other"><stop stop-color="#64dfdf" offset="0.025"/><stop stop-color="#5400ff" offset="0.502"/><stop stop-color="#f0b2af" offset="0.926"/></linearGradient><path fill="url(#f)" d="M251.7 92.24L251.7 81.65 284.65 50 251.7 18.35 251.7 7.76 295.67 50z"/><linearGradient x1="299.067" xmlns:xlink="http://www.w3.org/1999/xlink" y1="50" x2="343.038" gradientUnits="userSpaceOnUse" y2="50" xlink:type="simple" xlink:actuate="onLoad" id="g" xlink:show="other"><stop stop-color="#64dfdf" offset="0.025"/><stop stop-color="#5400ff" offset="0.502"/><stop stop-color="#f0b2af" offset="0.926"/></linearGradient><path fill="url(#g)" d="M299.07 92.24L299.07 81.65 332.01 50 299.07 18.35 299.07 7.76 343.04 50z"/><linearGradient x1="346.436" xmlns:xlink="http://www.w3.org/1999/xlink" y1="50" x2="390.407" gradientUnits="userSpaceOnUse" y2="50" xlink:type="simple" xlink:actuate="onLoad" id="h" xlink:show="other"><stop stop-color="#64dfdf" offset="0.025"/><stop stop-color="#5400ff" offset="0.502"/><stop stop-color="#f0b2af" offset="0.926"/></linearGradient><path fill="url(#h)" d="M346.44 92.24L346.44 81.65 379.38 50 346.44 18.35 346.44 7.76 390.41 50z"/><linearGradient x1="393.804" xmlns:xlink="http://www.w3.org/1999/xlink" y1="50" x2="437.775" gradientUnits="userSpaceOnUse" y2="50" xlink:type="simple" xlink:actuate="onLoad" id="i" xlink:show="other"><stop stop-color="#64dfdf" offset="0.025"/><stop stop-color="#5400ff" offset="0.502"/><stop stop-color="#f0b2af" offset="0.926"/></linearGradient><path fill="url(#i)" d="M393.8 92.24L393.8 81.65 426.75 50 393.8 18.35 393.8 7.76 437.77 50z"/><linearGradient x1="441.173" xmlns:xlink="http://www.w3.org/1999/xlink" y1="50" x2="485.143" gradientUnits="userSpaceOnUse" y2="50" xlink:type="simple" xlink:actuate="onLoad" id="j" xlink:show="other"><stop stop-color="#64dfdf" offset="0.025"/><stop stop-color="#5400ff" offset="0.502"/><stop stop-color="#f0b2af" offset="0.926"/></linearGradient><path fill="url(#j)" d="M441.17 92.24L441.17 81.65 474.12 50 441.17 18.35 441.17 7.76 485.14 50z"/></svg>