<?xml version="1.0" encoding="UTF-8"?><svg xmlns="http://www.w3.org/2000/svg" xmlns:xlink="http://www.w3.org/1999/xlink" contentScriptType="text/ecmascript" fill="#000000" width="24.2" zoomAndPan="magnify" contentStyleType="text/css" viewBox="-0.2 -0.0 24.2 24.0" height="24" preserveAspectRatio="xMidYMid meet" version="1"><g id="change1_1"><path fill="#ffc107" d="M19.5,0H1.9A1.87,1.87,0,0,0,.147,1.172,1.87,1.87,0,0,0,.559,3.241l20.2,20.2A1.872,1.872,0,0,0,22.089,24a1.924,1.924,0,0,0,.739-.149A1.869,1.869,0,0,0,24,22.1V4.5A4.5,4.5,0,0,0,19.5,0Z"/></g><g id="change2_1"><path fill="#fafafa" d="M10.5,8a.5.5,0,0,1-.49-.6l.676-3.381L8.854,5.854a.5.5,0,0,1-.707-.707l3-3a.5.5,0,0,1,.844.451l-.676,3.381,1.833-1.832a.5.5,0,1,1,.707.707l-3,3A.5.5,0,0,1,10.5,8Z"/></g><g id="change2_2"><path fill="#fafafa" d="M13.5,11a.5.5,0,0,1-.354-.146l-1.5-1.5a.5.5,0,0,1,0-.707l3-3a.5.5,0,0,1,.707,0l1.5,1.5a.5.5,0,1,1-.707.707L15,6.707,12.707,9l1.146,1.146A.5.5,0,0,1,13.5,11Z"/></g><g id="change2_3"><path fill="#fafafa" d="M14.5,9a.5.5,0,0,1-.354-.146l-1-1a.5.5,0,0,1,.707-.707l1,1A.5.5,0,0,1,14.5,9Z"/></g><g id="change2_4"><path fill="#fafafa" d="M17.5,15a.5.5,0,0,1-.474-.658l.684-2.051-2.051.684a.507.507,0,0,1-.536-.147.5.5,0,0,1-.069-.551l2-4a.5.5,0,1,1,.895.447l-1.46,2.92,1.855-.618a.505.505,0,0,1,.512.121.5.5,0,0,1,.121.512l-.618,1.854,2.92-1.46a.5.5,0,0,1,.447.895l-4,2A.5.5,0,0,1,17.5,15Z"/></g></svg>