<?xml version="1.0" encoding="UTF-8"?><svg xmlns="http://www.w3.org/2000/svg" xmlns:xlink="http://www.w3.org/1999/xlink" contentScriptType="text/ecmascript" fill="#000000" width="969.4" zoomAndPan="magnify" contentStyleType="text/css" viewBox="15.3 330.7 969.4 469.3" height="469.3" preserveAspectRatio="xMidYMid meet" version="1"><g><g id="change1_1"><path fill="#5f1aab" d="M 369.53125 758.285156 L 369.53125 680.929688 L 376.5 673.960938 C 379.675781 676.390625 384.230469 676.160156 387.132812 673.257812 C 390.296875 670.09375 390.296875 664.96875 387.132812 661.808594 C 383.972656 658.644531 378.84375 658.644531 375.683594 661.808594 C 372.78125 664.710938 372.550781 669.265625 374.980469 672.4375 L 367.378906 680.039062 L 367.378906 759.175781 L 399.671875 791.46875 L 399.671875 800 L 401.824219 800 L 401.824219 790.578125 L 369.53125 758.285156"/></g><g id="change1_2"><path fill="#5f1aab" d="M 432.890625 746.570312 L 432.890625 626.601562 L 453.601562 605.890625 L 453.601562 444.839844 C 459.542969 444.050781 464.132812 438.972656 464.132812 432.816406 C 464.132812 426.109375 458.695312 420.671875 451.988281 420.671875 C 445.28125 420.671875 439.84375 426.109375 439.84375 432.816406 C 439.84375 438.972656 444.433594 444.050781 450.371094 444.839844 L 450.371094 604.550781 L 429.660156 625.265625 L 429.660156 747.90625 L 459.808594 778.054688 L 459.808594 800 L 463.035156 800 L 463.035156 776.714844 L 432.890625 746.570312"/></g><g id="change1_3"><path fill="#5f1aab" d="M 589.890625 750.039062 C 593.0625 752.46875 597.617188 752.238281 600.519531 749.335938 C 603.683594 746.171875 603.683594 741.046875 600.519531 737.886719 C 597.359375 734.722656 592.234375 734.722656 589.070312 737.886719 C 586.167969 740.785156 585.941406 745.34375 588.367188 748.515625 L 560.664062 776.222656 L 560.664062 800 L 562.816406 800 L 562.816406 777.113281 L 589.890625 750.039062"/></g><g id="change1_4"><path fill="#5f1aab" d="M 414.695312 748.515625 C 417.125 745.34375 416.894531 740.785156 413.992188 737.886719 C 410.828125 734.722656 405.703125 734.722656 402.542969 737.886719 C 399.382812 741.046875 399.382812 746.171875 402.542969 749.335938 C 405.445312 752.238281 410 752.46875 413.175781 750.039062 L 440.246094 777.113281 L 440.246094 800 L 442.402344 800 L 442.402344 776.222656 L 414.695312 748.515625"/></g><g id="change1_5"><path fill="#5f1aab" d="M 526.910156 722.609375 L 526.910156 399.71875 C 533.738281 398.914062 539.054688 393.101562 539.054688 386.0625 C 539.054688 378.476562 532.882812 372.304688 525.296875 372.304688 C 517.710938 372.304688 511.535156 378.476562 511.535156 386.0625 C 511.535156 393.101562 516.855469 398.914062 523.679688 399.71875 L 523.679688 721.273438 L 500.535156 744.414062 L 500.535156 800 L 503.765625 800 L 503.765625 745.753906 L 526.910156 722.609375"/></g><g id="change1_6"><path fill="#5f1aab" d="M 555.359375 736.097656 L 555.359375 691.570312 C 559.320312 691.042969 562.378906 687.660156 562.378906 683.554688 C 562.378906 679.085938 558.753906 675.460938 554.285156 675.460938 C 549.8125 675.460938 546.1875 679.085938 546.1875 683.554688 C 546.1875 687.660156 549.246094 691.042969 553.207031 691.570312 L 553.207031 735.207031 L 521.523438 766.890625 L 521.523438 800 L 523.675781 800 L 523.675781 767.78125 L 555.359375 736.097656"/></g><g id="change1_7"><path fill="#5f1aab" d="M 615.929688 673.257812 C 618.832031 676.160156 623.386719 676.390625 626.5625 673.960938 L 633.53125 680.929688 L 633.53125 758.285156 L 601.238281 790.578125 L 601.238281 800 L 603.390625 800 L 603.390625 791.46875 L 635.683594 759.175781 L 635.683594 680.039062 L 628.085938 672.4375 C 630.511719 669.265625 630.28125 664.710938 627.378906 661.808594 C 624.21875 658.644531 619.09375 658.644531 615.929688 661.808594 C 612.769531 664.96875 612.769531 670.09375 615.929688 673.257812"/></g><g id="change1_8"><path fill="#5f1aab" d="M 585.285156 555.957031 C 585.285156 562.996094 590.601562 568.808594 597.429688 569.613281 L 597.429688 673.613281 L 619.324219 695.507812 L 619.324219 753.035156 L 581.289062 791.070312 L 581.289062 800 L 584.519531 800 L 584.519531 792.410156 L 622.554688 754.371094 L 622.554688 694.171875 L 600.660156 672.277344 L 600.660156 569.613281 C 607.488281 568.808594 612.804688 562.996094 612.804688 555.957031 C 612.804688 548.371094 606.628906 542.199219 599.046875 542.199219 C 591.460938 542.199219 585.285156 548.371094 585.285156 555.957031"/></g><g id="change1_9"><path fill="#5f1aab" d="M 538.933594 342.816406 C 538.933594 348.972656 543.519531 354.050781 549.460938 354.839844 L 549.460938 605.890625 L 570.171875 626.601562 L 570.171875 746.570312 L 540.027344 776.714844 L 540.027344 800 L 543.257812 800 L 543.257812 778.054688 L 573.402344 747.90625 L 573.402344 625.265625 L 552.691406 604.550781 L 552.691406 354.839844 C 558.632812 354.050781 563.21875 348.972656 563.21875 342.816406 C 563.21875 336.109375 557.78125 330.671875 551.074219 330.671875 C 544.371094 330.671875 538.933594 336.109375 538.933594 342.816406"/></g><g id="change1_10"><path fill="#5f1aab" d="M 659.734375 761.507812 L 659.734375 631.71875 C 663.695312 631.191406 666.757812 627.808594 666.757812 623.703125 C 666.757812 619.230469 663.128906 615.605469 658.660156 615.605469 C 654.1875 615.605469 650.5625 619.230469 650.5625 623.703125 C 650.5625 627.808594 653.621094 631.191406 657.582031 631.71875 L 657.582031 762.398438 L 688.089844 792.902344 L 690.242188 792.011719 L 659.734375 761.507812"/></g><g id="change1_11"><path fill="#5f1aab" d="M 687.175781 758.285156 L 687.175781 680.929688 L 694.140625 673.960938 C 697.316406 676.390625 701.871094 676.160156 704.773438 673.257812 C 707.9375 670.09375 707.9375 664.96875 704.773438 661.808594 C 701.613281 658.644531 696.484375 658.644531 693.324219 661.808594 C 690.421875 664.710938 690.191406 669.265625 692.621094 672.4375 L 685.019531 680.039062 L 685.019531 759.175781 L 717.3125 791.46875 L 717.3125 800 L 719.464844 800 L 719.464844 790.578125 L 687.175781 758.285156"/></g><g id="change1_12"><path fill="#5f1aab" d="M 750.53125 746.570312 L 750.53125 626.601562 L 771.242188 605.890625 L 771.242188 454.839844 C 777.183594 454.050781 781.773438 448.972656 781.773438 442.816406 C 781.773438 436.109375 776.335938 430.671875 769.628906 430.671875 C 762.921875 430.671875 757.484375 436.109375 757.484375 442.816406 C 757.484375 448.972656 762.074219 454.050781 768.015625 454.839844 L 768.015625 604.550781 L 747.300781 625.265625 L 747.300781 747.90625 L 777.449219 778.054688 L 777.449219 800 L 780.679688 800 L 780.679688 776.714844 L 750.53125 746.570312"/></g><g id="change1_13"><path fill="#5f1aab" d="M 907.53125 750.039062 C 910.707031 752.46875 915.261719 752.238281 918.164062 749.335938 C 921.324219 746.171875 921.324219 741.046875 918.164062 737.886719 C 915 734.722656 909.875 734.722656 906.714844 737.886719 C 903.8125 740.785156 903.582031 745.34375 906.007812 748.515625 L 878.304688 776.222656 L 878.304688 800 L 880.457031 800 L 880.457031 777.113281 L 907.53125 750.039062"/></g><g id="change1_14"><path fill="#5f1aab" d="M 732.335938 748.515625 C 734.765625 745.34375 734.535156 740.785156 731.632812 737.886719 C 728.472656 734.722656 723.34375 734.722656 720.183594 737.886719 C 717.023438 741.046875 717.023438 746.171875 720.183594 749.335938 C 723.085938 752.238281 727.640625 752.46875 730.816406 750.039062 L 757.886719 777.113281 L 757.886719 800 L 760.042969 800 L 760.042969 776.222656 L 732.335938 748.515625"/></g><g id="change1_15"><path fill="#5f1aab" d="M 767.496094 735.207031 L 767.496094 691.570312 C 771.457031 691.042969 774.515625 687.660156 774.515625 683.554688 C 774.515625 679.085938 770.890625 675.460938 766.421875 675.460938 C 761.949219 675.460938 758.324219 679.085938 758.324219 683.554688 C 758.324219 687.660156 761.382812 691.042969 765.34375 691.570312 L 765.34375 736.097656 L 797.03125 767.78125 L 797.03125 800 L 799.183594 800 L 799.183594 766.890625 L 767.496094 735.207031"/></g><g id="change1_16"><path fill="#5f1aab" d="M 844.550781 722.609375 L 844.550781 539.71875 C 851.378906 538.914062 856.695312 533.101562 856.695312 526.0625 C 856.695312 518.476562 850.523438 512.304688 842.9375 512.304688 C 835.351562 512.304688 829.175781 518.476562 829.175781 526.0625 C 829.175781 533.101562 834.496094 538.914062 841.320312 539.71875 L 841.320312 721.273438 L 818.179688 744.414062 L 818.179688 800 L 821.40625 800 L 821.40625 745.753906 L 844.550781 722.609375"/></g><g id="change1_17"><path fill="#5f1aab" d="M 933.570312 673.257812 C 936.472656 676.160156 941.027344 676.390625 944.203125 673.960938 L 951.171875 680.929688 L 951.171875 758.285156 L 918.878906 790.578125 L 918.878906 800 L 921.03125 800 L 921.03125 791.46875 L 953.324219 759.175781 L 953.324219 680.039062 L 945.726562 672.4375 C 948.152344 669.265625 947.921875 664.710938 945.019531 661.808594 C 941.859375 658.644531 936.730469 658.644531 933.570312 661.808594 C 930.410156 664.96875 930.410156 670.09375 933.570312 673.257812"/></g><g id="change1_18"><path fill="#5f1aab" d="M 856.570312 482.816406 C 856.570312 488.972656 861.160156 494.050781 867.101562 494.839844 L 867.101562 605.890625 L 887.8125 626.601562 L 887.8125 746.570312 L 857.667969 776.714844 L 857.667969 800 L 860.898438 800 L 860.898438 778.054688 L 891.046875 747.90625 L 891.046875 625.265625 L 870.332031 604.550781 L 870.332031 494.839844 C 876.273438 494.050781 880.859375 488.972656 880.859375 482.816406 C 880.859375 476.109375 875.421875 470.671875 868.71875 470.671875 C 862.011719 470.671875 856.570312 476.109375 856.570312 482.816406"/></g><g id="change1_19"><path fill="#5f1aab" d="M 24.453125 761.507812 L 24.453125 721.71875 C 28.414062 721.191406 31.472656 717.808594 31.472656 713.703125 C 31.472656 709.230469 27.847656 705.605469 23.378906 705.605469 C 18.90625 705.605469 15.28125 709.230469 15.28125 713.703125 C 15.28125 717.808594 18.339844 721.191406 22.300781 721.71875 L 22.300781 762.398438 L 52.808594 792.902344 L 54.960938 792.011719 L 24.453125 761.507812"/></g><g id="change1_20"><path fill="#5f1aab" d="M 115.25 746.570312 L 115.25 626.601562 L 135.960938 605.890625 L 135.960938 514.839844 C 141.902344 514.050781 146.492188 508.972656 146.492188 502.816406 C 146.492188 496.109375 141.054688 490.671875 134.347656 490.671875 C 127.640625 490.671875 122.203125 496.109375 122.203125 502.816406 C 122.203125 508.972656 126.789062 514.050781 132.730469 514.839844 L 132.730469 604.550781 L 112.019531 625.265625 L 112.019531 747.90625 L 142.164062 778.054688 L 142.164062 800 L 145.394531 800 L 145.394531 776.714844 L 115.25 746.570312"/></g><g id="change1_21"><path fill="#5f1aab" d="M 97.054688 748.515625 C 99.480469 745.34375 99.253906 740.785156 96.351562 737.886719 C 93.1875 734.722656 88.0625 734.722656 84.902344 737.886719 C 81.738281 741.046875 81.738281 746.171875 84.902344 749.335938 C 87.804688 752.238281 92.359375 752.46875 95.53125 750.039062 L 122.605469 777.113281 L 122.605469 800 L 124.761719 800 L 124.761719 776.222656 L 97.054688 748.515625"/></g><g id="change1_22"><path fill="#5f1aab" d="M 132.214844 735.207031 L 132.214844 691.570312 C 136.175781 691.042969 139.234375 687.660156 139.234375 683.554688 C 139.234375 679.085938 135.609375 675.460938 131.136719 675.460938 C 126.667969 675.460938 123.042969 679.085938 123.042969 683.554688 C 123.042969 687.660156 126.101562 691.042969 130.0625 691.570312 L 130.0625 736.097656 L 161.746094 767.78125 L 161.746094 800 L 163.898438 800 L 163.898438 766.890625 L 132.214844 735.207031"/></g><g id="change1_23"><path fill="#5f1aab" d="M 298.289062 673.257812 C 301.191406 676.160156 305.746094 676.390625 308.921875 673.960938 L 315.890625 680.929688 L 315.890625 758.285156 L 283.597656 790.578125 L 283.597656 800 L 285.75 800 L 285.75 791.46875 L 318.042969 759.175781 L 318.042969 680.039062 L 310.445312 672.4375 C 312.871094 669.265625 312.640625 664.710938 309.738281 661.808594 C 306.578125 658.644531 301.449219 658.644531 298.289062 661.808594 C 295.128906 664.96875 295.128906 670.09375 298.289062 673.257812"/></g><g id="change1_24"><path fill="#5f1aab" d="M 333.242188 533.703125 C 333.242188 537.808594 336.304688 541.191406 340.265625 541.71875 L 340.265625 761.507812 L 309.757812 792.011719 L 311.910156 792.902344 L 342.417969 762.398438 L 342.417969 541.71875 C 346.378906 541.191406 349.4375 537.808594 349.4375 533.703125 C 349.4375 529.230469 345.8125 525.605469 341.339844 525.605469 C 336.871094 525.605469 333.242188 529.230469 333.242188 533.703125"/></g><g id="change1_25"><path fill="#5f1aab" d="M 267.644531 605.957031 C 267.644531 612.996094 272.960938 618.808594 279.789062 619.613281 L 279.789062 673.613281 L 301.683594 695.507812 L 301.683594 753.035156 L 263.648438 791.070312 L 263.648438 800 L 266.875 800 L 266.875 792.410156 L 304.914062 754.371094 L 304.914062 694.171875 L 283.019531 672.277344 L 283.019531 619.613281 C 289.847656 618.808594 295.164062 612.996094 295.164062 605.957031 C 295.164062 598.371094 288.988281 592.199219 281.402344 592.199219 C 273.816406 592.199219 267.644531 598.371094 267.644531 605.957031"/></g><g id="change1_26"><path fill="#5f1aab" d="M 221.289062 412.816406 C 221.289062 418.972656 225.878906 424.050781 231.820312 424.839844 L 231.820312 605.890625 L 252.53125 626.601562 L 252.53125 746.570312 L 222.386719 776.714844 L 222.386719 800 L 225.617188 800 L 225.617188 778.054688 L 255.761719 747.90625 L 255.761719 625.265625 L 235.050781 604.550781 L 235.050781 424.839844 C 240.992188 424.050781 245.578125 418.972656 245.578125 412.816406 C 245.578125 406.109375 240.140625 400.671875 233.433594 400.671875 C 226.730469 400.671875 221.289062 406.109375 221.289062 412.816406"/></g><g id="change1_27"><path fill="#5f1aab" d="M 78.25 606.25 C 78.25 601.695312 81.945312 598 86.5 598 C 91.054688 598 94.75 601.695312 94.75 606.25 C 94.75 610.804688 91.054688 614.5 86.5 614.5 C 81.945312 614.5 78.25 610.804688 78.25 606.25 Z M 66.097656 753.035156 L 66.097656 695.507812 L 87.992188 673.613281 L 87.992188 619.613281 C 94.820312 618.808594 100.136719 612.996094 100.136719 605.957031 C 100.136719 598.371094 93.964844 592.195312 86.378906 592.195312 C 78.792969 592.195312 72.617188 598.371094 72.617188 605.957031 C 72.617188 612.996094 77.9375 618.808594 84.761719 619.613281 L 84.761719 672.277344 L 62.867188 694.171875 L 62.867188 754.371094 L 100.90625 792.410156 L 100.90625 800 L 104.136719 800 L 104.136719 791.070312 L 66.097656 753.035156"/></g><g id="change1_28"><path fill="#5f1aab" d="M 207.902344 464.125 C 203.347656 464.125 199.652344 460.429688 199.652344 455.875 C 199.652344 451.316406 203.347656 447.625 207.902344 447.625 C 212.460938 447.625 216.152344 451.316406 216.152344 455.875 C 216.152344 460.429688 212.460938 464.125 207.902344 464.125 Z M 207.652344 442.304688 C 200.066406 442.304688 193.894531 448.476562 193.894531 456.0625 C 193.894531 463.101562 199.214844 468.914062 206.039062 469.71875 L 206.039062 721.273438 L 182.894531 744.414062 L 182.894531 800 L 186.125 800 L 186.125 745.753906 L 209.269531 722.609375 L 209.269531 469.71875 C 216.097656 468.914062 221.414062 463.101562 221.414062 456.0625 C 221.414062 448.476562 215.238281 442.304688 207.652344 442.304688"/></g><g id="change1_29"><path fill="#5f1aab" d="M 395.5 566.085938 C 395.5 561.53125 399.191406 557.835938 403.75 557.835938 C 408.304688 557.835938 412 561.53125 412 566.085938 C 412 570.644531 408.304688 574.335938 403.75 574.335938 C 399.191406 574.335938 395.5 570.644531 395.5 566.085938 Z M 383.738281 753.035156 L 383.738281 695.507812 L 405.632812 673.613281 L 405.632812 579.613281 C 412.460938 578.808594 417.777344 572.996094 417.777344 565.957031 C 417.777344 558.371094 411.605469 552.195312 404.019531 552.195312 C 396.433594 552.195312 390.261719 558.371094 390.261719 565.957031 C 390.261719 572.996094 395.578125 578.808594 402.402344 579.613281 L 402.402344 672.277344 L 380.507812 694.171875 L 380.507812 754.371094 L 418.546875 792.410156 L 418.546875 800 L 421.773438 800 L 421.773438 791.070312 L 383.738281 753.035156"/></g><g id="change1_30"><path fill="#5f1aab" d="M 713.382812 525.605469 C 713.382812 521.050781 717.074219 517.355469 721.632812 517.355469 C 726.1875 517.355469 729.882812 521.050781 729.882812 525.605469 C 729.882812 530.164062 726.1875 533.855469 721.632812 533.855469 C 717.074219 533.855469 713.382812 530.164062 713.382812 525.605469 Z M 701.378906 753.035156 L 701.378906 695.507812 L 723.273438 673.613281 L 723.273438 539.613281 C 730.101562 538.808594 735.417969 532.996094 735.417969 525.957031 C 735.417969 518.371094 729.246094 512.195312 721.660156 512.195312 C 714.074219 512.195312 707.902344 518.371094 707.902344 525.957031 C 707.902344 532.996094 713.21875 538.808594 720.046875 539.613281 L 720.046875 672.277344 L 698.148438 694.171875 L 698.148438 754.371094 L 736.1875 792.410156 L 736.1875 800 L 739.417969 800 L 739.417969 791.070312 L 701.378906 753.035156"/></g><g id="change1_31"><path fill="#5f1aab" d="M 908.660156 548.945312 C 908.660156 544.390625 912.351562 540.695312 916.910156 540.695312 C 921.464844 540.695312 925.160156 544.390625 925.160156 548.945312 C 925.160156 553.503906 921.464844 557.195312 916.910156 557.195312 C 912.351562 557.195312 908.660156 553.503906 908.660156 548.945312 Z M 918.300781 672.277344 L 918.300781 562.613281 C 925.128906 561.808594 930.445312 555.996094 930.445312 548.957031 C 930.445312 541.371094 924.269531 535.195312 916.6875 535.195312 C 909.101562 535.195312 902.925781 541.371094 902.925781 548.957031 C 902.925781 555.996094 908.242188 561.808594 915.070312 562.613281 L 915.070312 673.613281 L 936.964844 695.507812 L 936.964844 753.035156 L 898.929688 791.070312 L 898.929688 800 L 902.15625 800 L 902.15625 792.410156 L 940.195312 754.371094 L 940.195312 694.171875 L 918.300781 672.277344"/></g><g id="change1_32"><path fill="#5f1aab" d="M 236.75 687.75 C 234.539062 687.75 232.75 685.960938 232.75 683.75 C 232.75 681.539062 234.539062 679.75 236.75 679.75 C 238.960938 679.75 240.75 681.539062 240.75 683.75 C 240.75 685.960938 238.960938 687.75 236.75 687.75 Z M 236.644531 675.460938 C 232.171875 675.460938 228.546875 679.085938 228.546875 683.554688 C 228.546875 687.660156 231.605469 691.042969 235.566406 691.570312 L 235.566406 735.207031 L 203.882812 766.890625 L 203.882812 800 L 206.035156 800 L 206.035156 767.78125 L 237.71875 736.097656 L 237.71875 691.570312 C 241.679688 691.042969 244.738281 687.660156 244.738281 683.554688 C 244.738281 679.085938 241.113281 675.460938 236.644531 675.460938"/></g><g id="change1_33"><path fill="#5f1aab" d="M 63.667969 663.667969 C 65.875 663.667969 67.667969 665.457031 67.667969 667.667969 C 67.667969 669.875 65.875 671.667969 63.667969 671.667969 C 61.457031 671.667969 59.667969 669.875 59.667969 667.667969 C 59.667969 665.457031 61.457031 663.667969 63.667969 663.667969 Z M 51.890625 758.285156 L 51.890625 680.929688 L 58.859375 673.960938 C 62.035156 676.390625 66.589844 676.160156 69.492188 673.257812 C 72.652344 670.09375 72.652344 664.96875 69.492188 661.808594 C 66.332031 658.644531 61.203125 658.644531 58.042969 661.808594 C 55.140625 664.710938 54.910156 669.265625 57.339844 672.4375 L 49.738281 680.039062 L 49.738281 759.175781 L 82.03125 791.46875 L 82.03125 800 L 84.183594 800 L 84.183594 790.578125 L 51.890625 758.285156"/></g><g id="change1_34"><path fill="#5f1aab" d="M 351 723.75 C 351 721.539062 352.789062 719.75 355 719.75 C 357.210938 719.75 359 721.539062 359 723.75 C 359 725.960938 357.210938 727.75 355 727.75 C 352.789062 727.75 351 725.960938 351 723.75 Z M 356.09375 761.507812 L 356.09375 731.71875 C 360.054688 731.191406 363.113281 727.808594 363.113281 723.703125 C 363.113281 719.230469 359.488281 715.605469 355.019531 715.605469 C 350.546875 715.605469 346.921875 719.230469 346.921875 723.703125 C 346.921875 727.808594 349.980469 731.191406 353.941406 731.71875 L 353.941406 762.398438 L 384.449219 792.902344 L 386.601562 792.011719 L 356.09375 761.507812"/></g><g id="change1_35"><path fill="#5f1aab" d="M 277.25 747.625 C 275.039062 747.625 273.25 745.835938 273.25 743.625 C 273.25 741.414062 275.039062 739.625 277.25 739.625 C 279.460938 739.625 281.25 741.414062 281.25 743.625 C 281.25 745.835938 279.460938 747.625 277.25 747.625 Z M 282.878906 737.886719 C 279.71875 734.722656 274.59375 734.722656 271.429688 737.886719 C 268.527344 740.785156 268.300781 745.34375 270.726562 748.515625 L 243.019531 776.222656 L 243.019531 800 L 245.175781 800 L 245.175781 777.113281 L 272.25 750.039062 C 275.421875 752.46875 279.976562 752.238281 282.878906 749.335938 C 286.042969 746.171875 286.042969 741.046875 282.878906 737.886719"/></g><g id="change1_36"><path fill="#5f1aab" d="M 444.5625 683.667969 C 444.5625 681.457031 446.355469 679.667969 448.5625 679.667969 C 450.769531 679.667969 452.5625 681.457031 452.5625 683.667969 C 452.5625 685.875 450.769531 687.667969 448.5625 687.667969 C 446.355469 687.667969 444.5625 685.875 444.5625 683.667969 Z M 449.855469 735.207031 L 449.855469 691.570312 C 453.816406 691.042969 456.875 687.660156 456.875 683.554688 C 456.875 679.085938 453.25 675.460938 448.777344 675.460938 C 444.308594 675.460938 440.683594 679.085938 440.683594 683.554688 C 440.683594 687.660156 443.742188 691.042969 447.703125 691.570312 L 447.703125 736.097656 L 479.390625 767.78125 L 479.390625 800 L 481.542969 800 L 481.542969 766.890625 L 449.855469 735.207031"/></g><g id="change2_1"><path fill="#5f1aab" d="M 598.332031 743.25 C 598.332031 745.460938 596.542969 747.25 594.332031 747.25 C 592.125 747.25 590.332031 745.460938 590.332031 743.25 C 590.332031 741.039062 592.125 739.25 594.332031 739.25 C 596.542969 739.25 598.332031 741.039062 598.332031 743.25"/></g><g id="change1_37"><path fill="#5f1aab" d="M 645.832031 717.832031 C 643.625 717.832031 641.832031 716.042969 641.832031 713.832031 C 641.832031 711.625 643.625 709.832031 645.832031 709.832031 C 648.042969 709.832031 649.832031 711.625 649.832031 713.832031 C 649.832031 716.042969 648.042969 717.832031 645.832031 717.832031 Z M 645.980469 705.605469 C 641.511719 705.605469 637.886719 709.230469 637.886719 713.703125 C 637.886719 717.808594 640.945312 721.191406 644.90625 721.71875 L 644.90625 761.507812 L 614.398438 792.011719 L 616.550781 792.902344 L 647.058594 762.398438 L 647.058594 721.71875 C 651.019531 721.191406 654.078125 717.808594 654.078125 713.703125 C 654.078125 709.230469 650.453125 705.605469 645.980469 705.605469"/></g><g id="change1_38"><path fill="#5f1aab" d="M 871.808594 687.5 C 869.601562 687.5 867.808594 685.710938 867.808594 683.5 C 867.808594 681.289062 869.601562 679.5 871.808594 679.5 C 874.019531 679.5 875.808594 681.289062 875.808594 683.5 C 875.808594 685.710938 874.019531 687.5 871.808594 687.5 Z M 871.925781 675.460938 C 867.453125 675.460938 863.828125 679.085938 863.828125 683.554688 C 863.828125 687.660156 866.886719 691.042969 870.847656 691.570312 L 870.847656 735.207031 L 839.164062 766.890625 L 839.164062 800 L 841.316406 800 L 841.316406 767.78125 L 873.003906 736.097656 L 873.003906 691.570312 C 876.960938 691.042969 880.019531 687.660156 880.019531 683.554688 C 880.019531 679.085938 876.394531 675.460938 871.925781 675.460938"/></g><g id="change1_39"><path fill="#5f1aab" d="M 976.582031 717.882812 C 974.375 717.882812 972.582031 716.089844 972.582031 713.882812 C 972.582031 711.671875 974.375 709.882812 976.582031 709.882812 C 978.792969 709.882812 980.582031 711.671875 980.582031 713.882812 C 980.582031 716.089844 978.792969 717.882812 976.582031 717.882812 Z M 976.621094 705.605469 C 972.152344 705.605469 968.527344 709.230469 968.527344 713.703125 C 968.527344 717.808594 971.585938 721.191406 975.546875 721.71875 L 975.546875 761.507812 L 945.039062 792.011719 L 947.191406 792.902344 L 977.699219 762.398438 L 977.699219 721.71875 C 981.660156 721.191406 984.71875 717.808594 984.71875 713.703125 C 984.71875 709.230469 981.09375 705.605469 976.621094 705.605469"/></g><g id="change2_2"><path fill="#5f1aab" d="M 662.078125 623.667969 C 662.078125 625.875 660.285156 627.667969 658.078125 627.667969 C 655.867188 627.667969 654.078125 625.875 654.078125 623.667969 C 654.078125 621.457031 655.867188 619.667969 658.078125 619.667969 C 660.285156 619.667969 662.078125 621.457031 662.078125 623.667969"/></g></g></svg>