<?xml version="1.0" encoding="UTF-8"?><svg xmlns="http://www.w3.org/2000/svg" xmlns:xlink="http://www.w3.org/1999/xlink" contentScriptType="text/ecmascript" fill="#000000" width="500.3" zoomAndPan="magnify" contentStyleType="text/css" viewBox="24.9 174.0 500.3 198.6" height="198.6" data-name="Layer 1" preserveAspectRatio="xMidYMid meet" version="1"><g id="change1_1"><path fill="#444bc7" d="M255.71,235.11c-11.72,0-23.32-4.85-34.65-9.59-2.13-.89-4.34-1.82-6.48-2.68-13.72-5.5-25.89-7.38-38.79-9.37-4.39-.68-8.93-1.38-13.7-2.24-10-1.82-18.62-5.65-26.94-9.36-13-5.79-25.22-11.25-41.8-9-10.49,1.43-20.76,4.14-30.7,6.76-12.1,3.2-24.62,6.5-37.63,7.51l0-.49c13-1,25.46-4.31,37.55-7.5,10-2.62,20.23-5.34,30.76-6.77,16.71-2.29,29,3.21,42.07,9,8.28,3.7,16.85,7.52,26.82,9.33,4.76.86,9.3,1.56,13.69,2.24,12.92,2,25.12,3.87,38.9,9.4,2.14.86,4.35,1.78,6.49,2.68,16,6.71,32.61,13.64,49.19,6.6,12.8-5.43,22.78-15.6,32.44-25.44,7.93-8.09,16.13-16.45,25.88-22.17,16.93-10,34-6.81,52-3.47,5.84,1.08,11.87,2.19,17.92,2.83,21.82,2.33,37.51,4.65,56.11,15.26,3.92,2.24,7.74,4.5,11.44,6.7C484.62,216.26,502,226.54,525,229.11l-.06.5C501.8,227,484.42,216.72,466,205.8c-3.69-2.19-7.51-4.46-11.43-6.69-18.51-10.57-34.16-12.88-55.91-15.2-6.07-.64-12.12-1.76-18-2.84-18-3.32-34.91-6.45-51.69,3.41-9.68,5.69-17.87,14-25.78,22.09-9.69,9.87-19.71,20.08-32.59,25.55A37.7,37.7,0,0,1,255.71,235.11Z"/></g><g id="change1_2"><path fill="#444bc7" d="M255.63,235.12c-11.71,0-23.3-4.83-34.62-9.55-2.1-.87-4.26-1.78-6.36-2.62-13.67-5.47-25.86-7.39-38.75-9.42-4.41-.7-9-1.41-13.74-2.29-10-1.84-18.55-5.63-26.85-9.3-13.07-5.78-25.42-11.23-42-9-10.49,1.42-20.75,4.13-30.68,6.74C50.54,202.9,38,206.2,25,207.19l0-.5c13-1,25.45-4.28,37.53-7.47,9.94-2.62,20.21-5.33,30.73-6.76,16.73-2.26,29.13,3.22,42.27,9,8.28,3.66,16.84,7.44,26.74,9.27,4.77.87,9.32,1.59,13.72,2.28,12.93,2,25.14,4,38.86,9.46,2.11.84,4.27,1.74,6.37,2.62,16.05,6.69,32.65,13.61,49.27,6.53,12.77-5.43,22.77-15.58,32.43-25.39,7.93-8.06,16.14-16.4,25.86-22.12,17-10,34-6.82,51.92-3.48,5.89,1.1,12,2.23,18.11,2.88,21,2.23,37.32,4.63,56.09,15.24,4,2.28,8,4.59,11.78,6.84,18.27,10.76,35.52,20.92,58.29,23.5l-.06.5C502,227,484.72,216.83,466.41,206c-3.81-2.24-7.74-4.56-11.77-6.84-18.7-10.56-35-12.95-55.9-15.17-6.15-.65-12.25-1.79-18.15-2.89-17.87-3.32-34.75-6.47-51.57,3.43-9.67,5.68-17.85,14-25.77,22-9.69,9.84-19.72,20-32.59,25.5A37.82,37.82,0,0,1,255.63,235.12Z"/></g><g id="change1_3"><path fill="#444bc7" d="M255.58,235.16c-11.71,0-23.29-4.81-34.61-9.51-2-.85-4.16-1.73-6.22-2.56-13.63-5.45-25.83-7.4-38.75-9.47-4.41-.71-9-1.44-13.73-2.33-9.89-1.85-18.48-5.6-26.78-9.23-13.2-5.76-25.66-11.21-42.26-9-10.48,1.42-20.72,4.12-30.63,6.74C50.52,203,38,206.33,25,207.31l0-.5c13-1,25.43-4.27,37.49-7.46,9.92-2.62,20.19-5.34,30.69-6.75,16.74-2.27,29.27,3.21,42.53,9,8.27,3.62,16.83,7.36,26.67,9.2,4.76.89,9.32,1.62,13.72,2.32,12.94,2.08,25.17,4,38.86,9.51,2.06.82,4.18,1.7,6.23,2.55,16.06,6.68,32.68,13.58,49.32,6.48,12.76-5.44,22.76-15.55,32.43-25.33,7.94-8,16.14-16.33,25.85-22,17-10,33.94-6.82,51.84-3.44,5.95,1.12,12.09,2.28,18.3,2.94,20.93,2.23,37.2,4.61,56,15.13,4.2,2.33,8.29,4.72,12.24,7,18.14,10.58,35.27,20.58,57.75,23.17l-.06.5C502.31,227,485.14,217,467,206.38c-3.95-2.31-8-4.69-12.23-7-18.77-10.46-35-12.84-55.86-15.06-6.23-.67-12.39-1.83-18.34-2.95C362.71,178,345.9,174.8,329,184.72c-9.66,5.68-17.84,14-25.75,22-9.71,9.82-19.74,20-32.59,25.44A38,38,0,0,1,255.58,235.16Z"/></g><g id="change1_4"><path fill="#444bc7" d="M255.56,235.22c-11.71,0-23.28-4.79-34.59-9.46-2-.85-4.07-1.69-6.08-2.49-13.62-5.43-25.84-7.43-38.79-9.54-4.39-.71-8.93-1.45-13.68-2.35-9.83-1.85-18.43-5.56-26.74-9.15-13.34-5.75-25.94-11.18-42.57-8.94-10.45,1.4-20.68,4.12-30.57,6.74C50.48,203.23,38,206.54,25,207.5l0-.5c13-1,25.4-4.26,37.44-7.46,9.9-2.62,20.14-5.34,30.63-6.75,16.76-2.26,29.42,3.2,42.83,9,8.29,3.57,16.86,7.27,26.64,9.11,4.73.89,9.27,1.63,13.66,2.35,13,2.11,25.23,4.11,38.9,9.57,2,.8,4,1.64,6.08,2.48,16.08,6.66,32.7,13.53,49.38,6.43,12.73-5.43,22.74-15.51,32.41-25.24,7.94-8,16.15-16.26,25.84-21.95,17.09-10,33.95-6.8,51.79-3.37,6,1.15,12.21,2.34,18.5,3,20.93,2.25,37.21,4.64,56,14.94,4.4,2.41,8.69,4.88,12.83,7.27,18,10.36,34.94,20.15,57.05,22.76l-.06.49c-22.21-2.62-39.22-12.43-57.24-22.82-4.14-2.39-8.43-4.86-12.82-7.26-18.7-10.26-34.93-12.64-55.81-14.88-6.3-.68-12.52-1.88-18.54-3C362.74,178.24,346,175,329,185c-9.64,5.66-17.82,13.9-25.73,21.87-9.71,9.77-19.75,19.88-32.58,25.35A38.16,38.16,0,0,1,255.56,235.22Z"/></g><g id="change1_5"><path fill="#444bc7" d="M255.56,235.33c-11.71,0-23.28-4.77-34.58-9.43-2-.82-3.95-1.63-5.91-2.41-13.62-5.43-25.89-7.46-38.88-9.61-4.36-.72-8.87-1.47-13.57-2.36-9.78-1.86-18.39-5.52-26.72-9.06-13.51-5.74-26.27-11.16-42.93-8.92-10.44,1.4-20.64,4.12-30.5,6.75-12,3.21-24.48,6.52-37.45,7.48l0-.5c12.93-1,25.35-4.26,37.37-7.46,9.87-2.64,20.08-5.36,30.55-6.77,16.8-2.26,29.62,3.19,43.2,9,8.3,3.53,16.89,7.18,26.61,9,4.7.89,9.2,1.64,13.56,2.36,13,2.15,25.31,4.18,39,9.63,2,.78,3.93,1.6,5.91,2.41,16.09,6.64,32.72,13.49,49.42,6.38,12.71-5.42,22.72-15.44,32.4-25.13,7.94-8,16.15-16.17,25.82-21.84,17.17-10.05,34-6.75,51.78-3.26,6.07,1.19,12.34,2.42,18.7,3.12,21,2.3,37.34,4.7,55.92,14.67,4.64,2.5,9.17,5.07,13.54,7.56,17.76,10.1,34.53,19.64,56.2,22.25l-.06.5c-21.77-2.63-38.58-12.19-56.39-22.31-4.37-2.49-8.89-5.06-13.53-7.55-18.5-9.94-34.77-12.33-55.73-14.62-6.39-.7-12.67-1.93-18.75-3.13-17.7-3.47-34.43-6.76-51.42,3.2-9.63,5.64-17.81,13.84-25.73,21.76-9.71,9.73-19.75,19.78-32.55,25.24A38.36,38.36,0,0,1,255.56,235.33Z"/></g><g id="change1_6"><path fill="#444bc7" d="M255.58,235.46c-11.7,0-23.26-4.75-34.56-9.39-1.92-.79-3.84-1.58-5.74-2.33-13.64-5.43-26-7.5-39-9.68-4.32-.72-8.78-1.47-13.42-2.36-9.73-1.86-18.36-5.47-26.71-9-13.7-5.73-26.64-11.14-43.35-8.89-10.41,1.41-20.57,4.13-30.4,6.77-12,3.21-24.42,6.54-37.37,7.49l0-.5c12.91-.94,25.3-4.26,37.28-7.48,9.84-2.64,20-5.37,30.47-6.77,16.84-2.28,29.84,3.16,43.6,8.92,8.33,3.48,16.94,7.08,26.61,8.93,4.64.89,9.1,1.63,13.41,2.36,13.07,2.19,25.42,4.25,39.11,9.7,1.91.76,3.82,1.55,5.75,2.34,16.09,6.61,32.72,13.44,49.45,6.33,12.68-5.39,22.69-15.36,32.38-25,7.94-7.91,16.15-16.08,25.81-21.72,17.23-10.07,34-6.69,51.79-3.11,6.13,1.23,12.47,2.51,18.91,3.23,21.19,2.37,37.59,4.79,55.82,14.34,4.93,2.59,9.74,5.28,14.39,7.88,17.5,9.8,34,19.05,55.19,21.67l-.06.49c-21.26-2.62-37.83-11.9-55.38-21.73-4.64-2.6-9.44-5.28-14.38-7.87-18.14-9.51-34.5-11.92-55.64-14.28-6.46-.73-12.81-2-18.95-3.24-17.67-3.56-34.37-6.92-51.44,3-9.61,5.61-17.79,13.76-25.71,21.64-9.72,9.67-19.76,19.67-32.54,25.1A38.52,38.52,0,0,1,255.58,235.46Z"/></g><g id="change1_7"><path fill="#444bc7" d="M255.63,235.63c-11.71,0-23.26-4.73-34.55-9.35-1.87-.76-3.72-1.52-5.56-2.25-13.68-5.44-26.07-7.54-39.18-9.76-4.26-.72-8.65-1.46-13.22-2.34-9.68-1.86-18.34-5.42-26.72-8.86-13.91-5.72-27-11.12-43.81-8.85-10.38,1.41-20.51,4.15-30.3,6.79-12,3.23-24.34,6.57-37.27,7.52l0-.5c12.89-.94,25.23-4.28,37.18-7.5,9.8-2.65,20-5.39,30.36-6.8,16.91-2.29,30.1,3.13,44.07,8.87,8.36,3.44,17,7,26.62,8.84,4.56.87,9,1.62,13.21,2.34,13.14,2.23,25.55,4.33,39.28,9.78l5.57,2.26c16.08,6.59,32.72,13.39,49.47,6.29,12.66-5.36,22.67-15.26,32.35-24.84,7.94-7.85,16.15-16,25.8-21.58,17.31-10.07,34.09-6.6,51.85-2.92,6.19,1.28,12.59,2.6,19.11,3.35,18.83,2.17,36.62,4.22,55.7,13.94,5.27,2.68,10.4,5.5,15.36,8.23,17.2,9.47,33.45,18.41,54.05,21l-.07.49c-20.69-2.62-37-11.58-54.22-21.07-5-2.73-10.08-5.54-15.35-8.23-19-9.67-36.74-11.71-55.53-13.88-6.54-.75-13-2.08-19.16-3.36-17.66-3.66-34.34-7.11-51.49,2.86-9.59,5.58-17.78,13.68-25.7,21.51-9.71,9.61-19.76,19.54-32.51,24.94A38.66,38.66,0,0,1,255.63,235.63Z"/></g><g id="change1_8"><path fill="#444bc7" d="M255.7,235.85c-11.72,0-23.27-4.72-34.55-9.32-1.8-.74-3.59-1.47-5.37-2.17-13.73-5.45-26.2-7.59-39.4-9.84-4.17-.72-8.49-1.46-13-2.32-9.63-1.85-18.33-5.36-26.74-8.75-14.13-5.7-27.48-11.09-44.32-8.79-10.35,1.41-20.44,4.15-30.19,6.81C50.25,204.72,37.92,208.08,25,209l0-.5c12.86-.94,25.16-4.29,37.06-7.53,9.77-2.66,19.87-5.41,30.25-6.83,17-2.31,30.38,3.1,44.58,8.83,8.39,3.38,17.06,6.88,26.64,8.72,4.47.86,8.78,1.6,13,2.31,13.23,2.27,25.73,4.4,39.51,9.87q2.67,1.06,5.37,2.18c16.08,6.56,32.71,13.34,49.49,6.26,12.63-5.33,22.64-15.16,32.32-24.67,7.94-7.8,16.16-15.86,25.79-21.44,17.4-10.07,34.17-6.49,51.93-2.7,6.25,1.33,12.72,2.71,19.32,3.5l.49.06c19.71,2.34,36.74,4.37,55.07,13.4,5.66,2.79,11.14,5.75,16.44,8.62,16.87,9.11,32.79,17.71,52.77,20.3l-.07.5c-20.07-2.61-36-11.23-52.93-20.36-5.3-2.87-10.78-5.83-16.43-8.61-18.26-9-35.24-11-54.91-13.35l-.49-.06c-6.62-.79-13.1-2.17-19.37-3.51-17.66-3.77-34.34-7.33-51.57,2.65-9.58,5.54-17.77,13.58-25.69,21.36-9.72,9.54-19.76,19.4-32.47,24.77A38.87,38.87,0,0,1,255.7,235.85Z"/></g><g id="change1_9"><path fill="#444bc7" d="M255.78,236.1c-11.72,0-23.26-4.7-34.54-9.29-1.73-.7-3.45-1.4-5.17-2.08-13.8-5.47-26.36-7.64-39.67-9.94-4.07-.7-8.29-1.43-12.65-2.27-9.59-1.84-18.32-5.3-26.77-8.64-14.37-5.68-28-11-44.88-8.73C81.79,196.57,71.75,199.33,62,202c-11.87,3.26-24.15,6.64-37,7.58l0-.5c12.83-.94,25.08-4.31,36.93-7.56,9.73-2.68,19.78-5.44,30.13-6.86,17-2.34,30.69,3.05,45.13,8.76,8.42,3.33,17.14,6.78,26.68,8.61,4.35.84,8.56,1.57,12.64,2.27,13.33,2.3,25.92,4.47,39.77,10l5.17,2.08c16.08,6.54,32.7,13.3,49.5,6.24,12.59-5.29,22.61-15.05,32.29-24.48,7.94-7.74,16.16-15.75,25.77-21.28,17.5-10.06,34.28-6.36,52-2.45,6.32,1.39,12.86,2.83,19.53,3.65l2.59.32C422,190.66,438.31,192.66,456,201c6.25,2.94,12.29,6.13,18.13,9.22,16.3,8.63,31.7,16.78,50.85,19.34l-.07.49c-19.24-2.57-34.67-10.74-51-19.39-5.83-3.08-11.86-6.28-18.11-9.21-17.59-8.27-33.84-10.26-52.67-12.57l-2.59-.32c-6.7-.83-13.25-2.27-19.58-3.66-17.67-3.9-34.35-7.57-51.68,2.4-9.56,5.5-17.75,13.48-25.67,21.2-9.72,9.47-19.76,19.26-32.44,24.58A39.09,39.09,0,0,1,255.78,236.1Z"/></g><g id="change1_10"><path fill="#444bc7" d="M255.89,236.39c-11.73,0-23.27-4.68-34.55-9.25l-5-2c-13.89-5.51-26.57-7.71-40-10.05-4-.68-8.06-1.4-12.29-2.21-9.54-1.83-18.32-5.23-26.8-8.52-14.64-5.66-28.47-11-45.48-8.66-10.28,1.42-20.27,4.2-29.93,6.88-11.82,3.29-24,6.68-36.88,7.62l0-.49c12.79-.94,25-4.33,36.79-7.61,9.68-2.69,19.68-5.47,30-6.9,17.14-2.37,31,3,45.73,8.7,8.46,3.28,17.22,6.66,26.72,8.49,4.22.81,8.32,1.52,12.27,2.21,13.45,2.34,26.15,4.55,40.1,10.07l4.95,2c16.07,6.52,32.69,13.26,49.52,6.23,12.55-5.25,22.56-14.92,32.24-24.28,7.95-7.68,16.16-15.62,25.76-21.1,17.59-10.06,34.39-6.23,52.18-2.18,6.38,1.45,13,2.95,19.74,3.82l5.39.68c17.8,2.22,33.16,4.14,49.86,11.67,6.69,3,13.13,6.36,19.36,9.59,15.9,8.25,30.92,16,49.38,18.57l-.07.5c-18.55-2.54-33.6-10.36-49.54-18.63C469.13,208.31,462.69,205,456,202c-16.63-7.49-32-9.41-49.72-11.62l-5.4-.68c-6.77-.87-13.39-2.38-19.78-3.84-17.69-4-34.4-7.83-51.82,2.13-9.54,5.45-17.74,13.37-25.66,21-9.71,9.39-19.76,19.1-32.4,24.38A39.31,39.31,0,0,1,255.89,236.39Z"/></g><g id="change1_11"><path fill="#444bc7" d="M256,236.73c-11.74,0-23.28-4.67-34.56-9.23l-4.72-1.89c-14-5.55-26.81-7.79-40.37-10.16-3.83-.67-7.78-1.36-11.86-2.14-9.5-1.82-18.32-5.16-26.85-8.39-14.92-5.65-29-11-46.12-8.59-10.23,1.43-20.17,4.22-29.78,6.92C50,206.56,37.82,210,25,210.92l0-.49c12.75-1,24.89-4.36,36.64-7.66,9.62-2.7,19.57-5.5,29.84-6.94,17.24-2.41,31.39,2.95,46.37,8.62,8.51,3.22,17.3,6.55,26.77,8.37,4.07.78,8,1.47,11.84,2.14,13.59,2.37,26.42,4.62,40.48,10.18l4.72,1.9c16.06,6.49,32.67,13.21,49.53,6.21,12.52-5.19,22.52-14.78,32.2-24.06,7.95-7.61,16.17-15.48,25.75-20.92,17.7-10,34.52-6.07,52.34-1.87,6.45,1.52,13.12,3.09,20,4,2.7.36,5.36.69,8,1,16.09,2,31.29,3.94,47.08,10.69,7.25,3.09,14.21,6.63,20.93,10,15.37,7.82,29.89,15.2,47.56,17.69l-.07.5c-17.76-2.5-32.31-9.9-47.72-17.74-6.71-3.42-13.66-7-20.89-10-15.73-6.72-30.9-8.63-47-10.65q-3.94-.49-8-1a203.29,203.29,0,0,1-20-4c-17.72-4.17-34.45-8.11-52,1.83-9.53,5.4-17.73,13.25-25.65,20.85-9.71,9.3-19.76,18.93-32.36,24.16A39.64,39.64,0,0,1,256,236.73Z"/></g><g id="change1_12"><path fill="#444bc7" d="M256.15,237.11c-11.75,0-23.3-4.66-34.58-9.2-1.49-.61-3-1.21-4.48-1.8-14.14-5.59-27.09-7.87-40.81-10.28-3.67-.65-7.46-1.31-11.36-2.06-9.47-1.8-18.33-5.08-26.9-8.25-15.21-5.64-29.58-11-46.81-8.51-10.19,1.44-20.07,4.25-29.62,7-11.71,3.33-23.81,6.78-36.57,7.73l0-.5c12.71-1,24.79-4.39,36.48-7.71,9.56-2.72,19.46-5.54,29.68-7,17.35-2.46,31.78,2.88,47.06,8.54,8.54,3.16,17.38,6.43,26.81,8.23,3.9.75,7.69,1.41,11.35,2.06,13.75,2.41,26.73,4.7,40.92,10.31l4.48,1.79c16.06,6.48,32.66,13.17,49.54,6.22,12.48-5.14,22.48-14.64,32.16-23.83,8-7.54,16.16-15.35,25.73-20.73,17.8-10,34.67-5.9,52.53-1.55a204.11,204.11,0,0,0,20.15,4.19c3.65.51,7.28,1,10.78,1.39,15.09,1.88,29.33,3.65,44.11,9.64,7.7,3.12,15.07,6.8,22.21,10.36,14.93,7.45,29,14.48,46,16.94l-.07.49c-17-2.47-31.19-9.52-46.16-17-7.12-3.55-14.49-7.22-22.17-10.34-14.71-6-28.93-7.73-44-9.6-3.51-.43-7.13-.88-10.78-1.39A203.53,203.53,0,0,1,381.6,188c-17.76-4.33-34.53-8.42-52.16,1.5-9.52,5.35-17.71,13.13-25.64,20.65-9.71,9.22-19.75,18.76-32.31,23.93A39.75,39.75,0,0,1,256.15,237.11Z"/></g><g id="change1_13"><path fill="#444bc7" d="M256.31,237.54c-11.78,0-23.33-4.65-34.61-9.18-1.41-.57-2.82-1.14-4.23-1.69-14.28-5.65-27.41-8-41.3-10.42-3.5-.62-7.11-1.26-10.81-2-9.44-1.79-18.34-5-27-8.12-15.52-5.61-30.19-10.92-47.54-8.42-10.14,1.46-20,4.29-29.45,7-11.64,3.36-23.69,6.83-36.4,7.79l0-.5c12.67-.95,24.68-4.42,36.31-7.77,9.51-2.74,19.34-5.57,29.51-7,17.47-2.51,32.19,2.81,47.78,8.45,8.59,3.11,17.47,6.32,26.87,8.1,3.7.7,7.31,1.34,10.8,1.95,13.92,2.46,27.07,4.78,41.41,10.45l4.23,1.69c16,6.46,32.64,13.13,49.54,6.23,12.44-5.08,22.45-14.49,32.12-23.59,7.95-7.47,16.17-15.2,25.72-20.53,17.91-10,34.83-5.72,52.73-1.2a202.42,202.42,0,0,0,20.37,4.39c4.52.66,9,1.2,13.38,1.72,14.14,1.7,27.5,3.3,41.3,8.58,8.18,3.13,16,6.95,23.55,10.65,14.46,7.07,28.13,13.76,44.37,16.18l-.07.5c-16.32-2.44-30-9.14-44.52-16.23-7.55-3.7-15.35-7.51-23.5-10.63-13.75-5.26-27.08-6.86-41.19-8.55-4.36-.53-8.86-1.07-13.39-1.72a205,205,0,0,1-20.42-4.4c-17.81-4.5-34.63-8.74-52.37,1.15-9.49,5.29-17.69,13-25.62,20.46-9.7,9.12-19.74,18.56-32.27,23.68A40,40,0,0,1,256.31,237.54Z"/></g><g id="change1_14"><path fill="#444bc7" d="M256.47,238c-11.79,0-23.35-4.64-34.64-9.17l-4-1.58c-14.46-5.72-27.78-8.08-41.88-10.57-3.29-.59-6.69-1.19-10.18-1.84-9.39-1.77-18.34-4.93-27-8C123,201.29,108,196,90.51,198.56c-10.08,1.47-19.83,4.32-29.26,7.07C49.67,209,37.69,212.52,25,213.49l0-.5c12.62-1,24.57-4.46,36.13-7.84,9.44-2.76,19.21-5.61,29.33-7.09,17.61-2.57,32.64,2.73,48.55,8.35,8.63,3,17.56,6.19,26.92,8,3.48.66,6.88,1.26,10.17,1.84,14.12,2.5,27.46,4.87,42,10.61l4,1.58c16,6.43,32.62,13.09,49.56,6.23,12.4-5,22.39-14.32,32.06-23.32,7.95-7.41,16.18-15.06,25.71-20.33,18-9.95,35-5.52,53-.83a197.92,197.92,0,0,0,20.57,4.6c5.32.81,10.64,1.41,15.78,2,13.27,1.5,25.79,2.92,38.69,7.54a264.75,264.75,0,0,1,24.92,10.91c13.36,6.42,27.17,13,42.7,15.43l-.08.5c-15.6-2.39-29.44-9-42.84-15.48a263.38,263.38,0,0,0-24.87-10.89c-12.84-4.6-25.34-6-38.57-7.51-5.15-.58-10.47-1.19-15.81-2a201.51,201.51,0,0,1-20.62-4.61c-17.87-4.67-34.74-9.08-52.6.78-9.48,5.24-17.68,12.87-25.61,20.25-9.7,9-19.73,18.38-32.21,23.43A40.25,40.25,0,0,1,256.47,238Z"/></g><g id="change1_15"><path fill="#444bc7" d="M256.66,238.55c-11.82,0-23.39-4.63-34.69-9.16l-3.68-1.47c-14.67-5.8-28.2-8.19-42.52-10.73-3.07-.55-6.24-1.11-9.48-1.72-9.36-1.74-18.35-4.83-27-7.83-16.18-5.57-31.47-10.83-49.11-8.22-10,1.49-19.71,4.36-29.08,7.14-11.51,3.41-23.42,6.94-36,7.92l0-.5c12.57-1,24.45-4.49,35.94-7.9,9.38-2.78,19.09-5.66,29.15-7.15,17.76-2.63,33.1,2.65,49.35,8.24,8.67,3,17.64,6.07,27,7.81,3.24.61,6.41,1.17,9.48,1.71,14.35,2.55,27.9,4.95,42.61,10.77,1.23.48,2.45,1,3.69,1.47,16,6.42,32.6,13.06,49.57,6.26,12.36-4.95,22.35-14.16,32-23.07,8-7.32,16.18-14.9,25.7-20.1,18.14-9.92,35.18-5.32,53.21-.44a199.62,199.62,0,0,0,20.78,4.81c6,1,12.12,1.59,18,2.2,11.9,1.24,24.21,2.52,36.26,6.53,9.17,3,17.89,7.16,26.32,11.14,12.86,6.07,26.17,12.35,41,14.69l-.08.49c-14.88-2.35-28.22-8.64-41.12-14.73-8.41-4-17.12-8.08-26.26-11.12-12-4-23.73-5.21-36.15-6.5-5.88-.62-12-1.25-18-2.2a200,200,0,0,1-20.83-4.83c-17.93-4.85-34.87-9.42-52.84.4-9.47,5.17-17.67,12.72-25.6,20-9.69,8.94-19.72,18.18-32.16,23.16A40.43,40.43,0,0,1,256.66,238.55Z"/></g><g id="change1_16"><path fill="#444bc7" d="M256.85,239.14c-11.85,0-23.43-4.64-34.74-9.16l-3.39-1.35c-14.89-5.89-28-8.22-43.23-10.92l-8.71-1.56c-9.32-1.73-18.34-4.76-27.07-7.68-16.54-5.55-32.16-10.79-49.95-8.11-10,1.5-19.59,4.39-28.89,7.19-11.44,3.45-23.27,7-35.85,8l0-.5c12.52-1,24.33-4.54,35.75-8,9.31-2.81,19-5.71,29-7.22,17.91-2.7,33.58,2.56,50.18,8.13,8.71,2.92,17.72,5.95,27,7.66q4.45.82,8.71,1.57c15.23,2.7,28.39,5,43.32,10.94l3.39,1.36c16,6.4,32.59,13,49.6,6.29,12.31-4.88,22.3-14,32-22.79,7.95-7.25,16.17-14.75,25.67-19.89,18.27-9.87,35.38-5.09,53.49,0a196.27,196.27,0,0,0,21,5c6.69,1.1,13.47,1.73,20,2.34,11.17,1,22.73,2.11,34,5.55,9.68,3,18.85,7.22,27.71,11.34,12.37,5.74,25.15,11.68,39.26,14l-.08.49c-14.18-2.3-27-8.25-39.39-14-8.85-4.11-18-8.36-27.65-11.31C446.64,203.08,435.11,202,424,201c-6.57-.61-13.35-1.24-20.07-2.34a197.22,197.22,0,0,1-21-5c-18-5-35-9.79-53.11,0-9.45,5.11-17.65,12.59-25.58,19.82-9.69,8.83-19.71,18-32.11,22.88A40.77,40.77,0,0,1,256.85,239.14Z"/></g><g id="change1_17"><path fill="#444bc7" d="M257.06,239.77c-11.88,0-23.49-4.63-34.82-9.15q-1.55-.63-3.09-1.23c-15.13-6-28.52-8.37-44-11.11l-7.84-1.41c-9.29-1.7-18.35-4.66-27.11-7.53-16.89-5.52-32.86-10.74-50.81-8-9.92,1.52-19.46,4.44-28.7,7.27-11.37,3.47-23.12,7.07-35.65,8.07l0-.5c12.47-1,24.2-4.58,35.55-8.05,9.25-2.83,18.81-5.75,28.76-7.28,18.08-2.77,34.84,2.71,51.05,8,8.74,2.86,17.79,5.81,27,7.51,2.67.49,5.28,1,7.84,1.4,15.53,2.76,28.94,5.13,44.12,11.14l3.09,1.23c16,6.4,32.58,13,49.62,6.33,12.27-4.81,22.25-13.8,31.9-22.51,8-7.17,16.18-14.58,25.67-19.65,18.39-9.83,35.57-4.87,53.76.38A196.8,196.8,0,0,0,404.56,200c7.28,1.24,14.71,1.83,21.9,2.41,10.49.83,21.34,1.7,31.89,4.62,10.2,2.82,19.8,7.22,29.08,11.47,11.86,5.43,24.12,11,37.56,13.29l-.09.49c-13.5-2.25-25.79-7.88-37.68-13.33-9.26-4.24-18.84-8.63-29-11.44-10.5-2.91-21.32-3.77-31.79-4.61-7.2-.57-14.64-1.16-21.94-2.41a193.84,193.84,0,0,1-21.24-5.28c-18.09-5.22-35.17-10.16-53.39-.42-9.43,5-17.63,12.43-25.56,19.59-9.69,8.73-19.71,17.76-32.06,22.6A41.12,41.12,0,0,1,257.06,239.77Z"/></g><g id="change1_18"><path fill="#444bc7" d="M257.27,240.47c-11.92,0-23.54-4.64-34.9-9.17l-2.77-1.1c-15.41-6.11-29.08-8.53-44.92-11.33l-6.87-1.22c-9.25-1.68-18.34-4.57-27.13-7.37C124.17,205,107.1,199.58,89,202.42c-9.85,1.53-19.33,4.48-28.49,7.32-11.29,3.51-23,7.14-35.45,8.16l0-.5c12.42-1,24.07-4.63,35.34-8.13,9.18-2.86,18.67-5.8,28.57-7.35,18.24-2.85,35.38,2.61,51.94,7.88,8.78,2.8,17.85,5.69,27.07,7.36l6.87,1.22c15.86,2.81,29.56,5.23,45,11.35l2.77,1.11c16,6.39,32.58,13,49.65,6.38,12.23-4.74,22.2-13.63,31.85-22.22,8-7.09,16.18-14.42,25.65-19.42,18.52-9.79,35.79-4.64,54.06.81a194,194,0,0,0,21.38,5.5,214,214,0,0,0,23.63,2.41c9.85.63,20,1.29,29.91,3.73,10.72,2.65,20.73,7.18,30.41,11.56,11.35,5.14,23.09,10.45,35.89,12.65l-.09.49c-12.86-2.21-24.63-7.53-36-12.68-9.66-4.38-19.64-8.9-30.32-11.53-9.83-2.44-20-3.09-29.82-3.72a215.63,215.63,0,0,1-23.69-2.42,194.35,194.35,0,0,1-21.43-5.51c-18.18-5.42-35.34-10.54-53.69-.85-9.41,5-17.61,12.28-25.55,19.35-9.68,8.63-19.69,17.55-32,22.31A41.19,41.19,0,0,1,257.27,240.47Z"/></g><g id="change1_19"><path fill="#444bc7" d="M257.5,241.23c-12,0-23.62-4.65-35-9.19l-2.44-1c-15.72-6.24-29.71-8.71-45.91-11.56l-5.81-1c-9.21-1.65-18.32-4.47-27.14-7.21-16.88-5.23-34.33-10.64-52.65-7.73-9.8,1.56-19.19,4.53-28.28,7.4-11.22,3.54-22.82,7.2-35.25,8.24l0-.5c12.37-1,23.94-4.68,35.14-8.22,9.1-2.87,18.52-5.85,28.35-7.41,18.43-2.93,35.94,2.49,52.88,7.74,8.8,2.73,17.9,5.56,27.08,7.2l5.81,1c16.22,2.86,30.23,5.33,46,11.58l2.43,1c16,6.39,32.58,13,49.7,6.45,12.18-4.67,22.15-13.44,31.79-21.94,8-7,16.19-14.25,25.64-19.18,18.65-9.73,36-4.39,54.37,1.26a193.55,193.55,0,0,0,21.57,5.73c8.34,1.54,16.93,2,25.25,2.35,9.23.43,18.78.89,28.05,2.89,11.22,2.42,21.61,7.08,31.66,11.59,10.86,4.87,22.08,9.9,34.28,12.05l-.08.49c-12.27-2.16-23.52-7.2-34.4-12.08-10-4.5-20.4-9.15-31.57-11.56-9.22-2-18.75-2.45-28-2.89-8.34-.39-17-.8-25.32-2.35A193.46,193.46,0,0,1,384,198.64c-18.27-5.62-35.52-10.93-54-1.29-9.4,4.9-17.6,12.12-25.54,19.11-9.67,8.52-19.68,17.33-31.94,22A41.74,41.74,0,0,1,257.5,241.23Z"/></g><g id="change1_20"><path fill="#444bc7" d="M257.73,242c-12,0-23.7-4.66-35.12-9.21l-2.08-.84c-16.07-6.38-30.41-8.89-47-11.8l-4.64-.82c-9.16-1.62-18.29-4.38-27.13-7.05-17.26-5.2-35.1-10.59-53.61-7.59-9.73,1.58-19.06,4.58-28.07,7.47-11.14,3.58-22.67,7.28-35,8.32l0-.49c12.32-1.05,23.81-4.74,34.92-8.31,9-2.9,18.38-5.89,28.15-7.48,18.63-3,36.52,2.38,53.83,7.6,8.83,2.67,18,5.42,27.08,7l4.64.81c16.63,2.92,31,5.43,47.11,11.84l2.09.83c16,6.39,32.58,13,49.75,6.51,12.13-4.58,22.1-13.25,31.74-21.63,7.95-6.92,16.18-14.08,25.62-18.94,18.78-9.68,36.22-4.15,54.69,1.71a193.23,193.23,0,0,0,21.76,6c8.83,1.69,17.95,2,26.77,2.21,8.65.25,17.59.51,26.27,2.1,11.72,2.16,22.46,6.94,32.85,11.57s21.1,9.39,32.75,11.5l-.09.49c-11.71-2.11-22.46-6.9-32.87-11.54s-21.07-9.38-32.73-11.52c-8.65-1.59-17.57-1.85-26.19-2.1-8.85-.26-18-.52-26.85-2.22a193.14,193.14,0,0,1-21.82-6c-18.37-5.82-35.72-11.32-54.32-1.74-9.37,4.83-17.58,12-25.52,18.88-9.67,8.41-19.66,17.11-31.88,21.72A42,42,0,0,1,257.73,242Z"/></g><g id="change1_21"><path fill="#444bc7" d="M258,242.92c-12.07,0-23.8-4.68-35.25-9.25L221,233c-16.45-6.55-31.19-9.11-48.25-12.08l-3.33-.58c-9.12-1.6-18.27-4.29-27.12-6.89-17.64-5.18-35.88-10.53-54.59-7.44-9.67,1.6-18.92,4.62-27.86,7.54-11.07,3.61-22.51,7.35-34.83,8.41l0-.5c12.26-1.06,23.68-4.78,34.71-8.38,9-2.93,18.23-5.95,27.94-7.56,18.82-3.11,37.11,2.26,54.81,7.45,8.84,2.6,18,5.28,27.06,6.87l3.34.58c17.08,3,31.84,5.55,48.34,12.11l1.73.69c16,6.4,32.59,13,49.82,6.59,12.08-4.5,22-13.06,31.67-21.33,8-6.84,16.19-13.91,25.6-18.7,18.92-9.61,36.45-3.89,55,2.17a193.78,193.78,0,0,0,22,6.21c9.3,1.85,18.91,1.93,28.2,2,8.08.07,16.43.15,24.58,1.38C472,213.36,483,218.26,493.69,223c9.92,4.4,20.18,8.94,31.31,11l-.09.5c-11.19-2.08-21.48-6.64-31.42-11.06-10.65-4.72-21.67-9.6-33.8-11.43-8.11-1.22-16.45-1.3-24.51-1.37-9.31-.08-18.95-.16-28.3-2a194.06,194.06,0,0,1-22-6.22c-18.47-6-35.91-11.72-54.64-2.2-9.36,4.76-17.57,11.81-25.5,18.63-9.67,8.3-19.66,16.89-31.83,21.42A42.18,42.18,0,0,1,258,242.92Z"/></g><g id="change1_22"><path fill="#444bc7" d="M258.22,243.86c-12.14,0-23.91-4.7-35.4-9.3l-1.35-.54c-16.88-6.73-32.06-9.35-49.63-12.38l-1.88-.32a262.4,262.4,0,0,1-27.08-6.72c-18-5.15-36.68-10.48-55.59-7.28-9.62,1.62-18.79,4.66-27.65,7.61-11,3.64-22.35,7.42-34.62,8.5l0-.5c12.21-1.08,23.54-4.84,34.5-8.48,8.88-2.95,18.07-6,27.72-7.63,19-3.21,37.73,2.14,55.81,7.3,8.85,2.53,18,5.15,27,6.71l1.87.32c17.61,3,32.81,5.66,49.73,12.41l1.35.54c16,6.41,32.62,13,49.9,6.68,12-4.42,22-12.87,31.62-21,8-6.76,16.19-13.74,25.58-18.45,19-9.55,36.68-3.64,55.35,2.63a192.85,192.85,0,0,0,22.15,6.45c9.79,2,19.84,1.88,29.57,1.75a182.25,182.25,0,0,1,23,.69c12.65,1.48,24,6.48,34.9,11.33,9.49,4.2,19.3,8.54,30,10.58l-.09.49c-10.73-2.05-20.57-6.4-30.08-10.62-10.9-4.82-22.18-9.82-34.76-11.28a181.14,181.14,0,0,0-22.9-.69c-9.75.13-19.83.26-29.67-1.76a194.75,194.75,0,0,1-22.21-6.47c-18.56-6.23-36.1-12.11-55-2.65-9.34,4.68-17.55,11.64-25.49,18.38-9.66,8.19-19.64,16.66-31.76,21.12A42.48,42.48,0,0,1,258.22,243.86Z"/></g><g id="change1_23"><path fill="#444bc7" d="M258.47,244.87c-12.21,0-24-4.73-35.57-9.36l-1-.38c-17.34-6.94-33-9.61-51.16-12.71l-.27,0a274.72,274.72,0,0,1-27-6.55c-18.43-5.12-37.49-10.42-56.62-7.12-9.55,1.64-18.64,4.71-27.44,7.68-10.9,3.68-22.18,7.49-34.4,8.59l0-.5c12.16-1.09,23.41-4.89,34.28-8.56,8.81-3,17.92-6.06,27.51-7.71,19.24-3.31,38.36,2,56.84,7.14,8.85,2.46,18,5,27,6.54l.27,0c18.18,3.1,33.87,5.78,51.27,12.74l1,.38c16.06,6.43,32.65,13.07,50,6.79,12-4.35,21.94-12.68,31.55-20.74,8-6.67,16.2-13.56,25.57-18.2,19.18-9.49,36.92-3.38,55.69,3.09a190.81,190.81,0,0,0,22.33,6.69c10.28,2.18,20.74,1.81,30.86,1.44a184.35,184.35,0,0,1,21.41.07c13.09,1.06,24.62,6.17,35.78,11.12,9.09,4,18.48,8.19,28.74,10.2l-.1.49c-10.31-2-19.73-6.19-28.84-10.23-11.12-4.93-22.61-10-35.62-11.08a183.32,183.32,0,0,0-21.35-.07c-10.15.37-20.64.74-31-1.45a190.65,190.65,0,0,1-22.39-6.7c-18.68-6.44-36.31-12.52-55.3-3.12C321.1,208,312.89,214.84,305,221.49c-9.65,8.08-19.63,16.44-31.7,20.82A42.89,42.89,0,0,1,258.47,244.87Z"/></g><g id="change1_24"><path fill="#444bc7" d="M258.72,245.94c-12.28,0-24.16-4.76-35.75-9.42l-.56-.22c-17.84-7.16-34.12-9.9-51.36-12.8-8.94-1.51-18.1-4-27-6.38-18.84-5.09-38.32-10.35-57.67-7-9.49,1.67-18.5,4.77-27.22,7.76-10.82,3.72-22,7.57-34.19,8.69l0-.5c12.11-1.12,23.27-5,34.07-8.66,8.73-3,17.77-6.11,27.3-7.78,19.45-3.42,39,1.87,57.88,7,8.84,2.39,18,4.86,26.91,6.36,17.26,2.91,33.56,5.65,51.46,12.84l.55.22c16.07,6.45,32.69,13.12,50.1,6.9,11.95-4.27,21.89-12.49,31.5-20.43,8-6.59,16.2-13.39,25.56-18,19.31-9.42,37.14-3.12,56,3.56a193.34,193.34,0,0,0,22.51,6.93c10.79,2.36,21.62,1.7,32.09,1.07a187.84,187.84,0,0,1,19.92-.5c13.5.6,25.21,5.81,36.54,10.85,8.72,3.89,17.74,7.9,27.62,9.88l-.1.49c-9.94-2-19-6-27.72-9.91-11.29-5-23-10.22-36.36-10.82a192.49,192.49,0,0,0-19.87.5c-10.5.64-21.37,1.3-32.22-1.08a189.56,189.56,0,0,1-22.58-6.94c-18.78-6.64-36.51-12.91-55.64-3.58-9.3,4.54-17.51,11.33-25.45,17.89-9.65,8-19.62,16.22-31.65,20.52A43.37,43.37,0,0,1,258.72,245.94Z"/></g><g id="change1_25"><path fill="#444bc7" d="M259,247.09c-12.37,0-24.31-4.81-36-9.5l-.14-.06c-17-6.85-32-9.65-51.29-12.85-8.88-1.48-18-3.88-26.85-6.2-19.25-5.06-39.16-10.3-58.73-6.79-9.43,1.69-18.37,4.81-27,7.83-10.74,3.76-21.85,7.64-34,8.78l0-.5c12.06-1.13,23.14-5,33.86-8.75,8.66-3,17.61-6.16,27.08-7.85,19.68-3.53,39.64,1.72,58.94,6.79,8.83,2.32,18,4.72,26.82,6.19,19.32,3.21,34.32,6,51.39,12.89l.14.06c16.09,6.48,32.73,13.18,50.22,7,11.9-4.19,21.83-12.29,31.44-20.13,8-6.5,16.19-13.22,25.54-17.71,19.44-9.35,37.37-2.86,56.35,4a191,191,0,0,0,22.7,7.16c11.31,2.55,22,1.63,33.25.65,6-.52,12.22-1.06,18.5-1,13.87.11,25.73,5.42,37.2,10.55,8.38,3.76,17.05,7.64,26.61,9.6l-.1.49c-9.61-2-18.31-5.87-26.72-9.63-11.94-5.35-23.23-10.4-37-10.51-6.24,0-12.45.49-18.45,1-10.83.94-22,1.91-33.41-.66a192.7,192.7,0,0,1-22.76-7.18c-18.88-6.84-36.71-13.3-56-4-9.28,4.47-17.5,11.17-25.44,17.65-9.64,7.86-19.6,16-31.59,20.21A43.54,43.54,0,0,1,259,247.09Z"/></g><g id="change1_26"><path fill="#444bc7" d="M259.19,248.32c-12.38,0-24.25-4.8-35.84-9.49-17.44-7-32.86-9.91-51.22-12.91-8.81-1.45-17.92-3.78-26.73-6-19.67-5-40-10.23-59.81-6.61-9.37,1.71-18.23,4.86-26.79,7.9C48.13,225,37.1,228.9,25,230.05l0-.5c12-1.14,23-5.05,33.65-8.84,8.58-3.05,17.46-6.2,26.87-7.92,19.91-3.64,40.3,1.57,60,6.62,8.8,2.25,17.91,4.57,26.69,6,18.39,3,33.84,5.88,51.33,13,16,6.46,32.5,13.14,50.06,7,11.86-4.12,21.78-12.11,31.38-19.84,8-6.42,16.2-13.05,25.52-17.47,19.58-9.28,37.61-2.59,56.7,4.48,7.44,2.76,15.13,5.61,22.88,7.4,11.84,2.74,22.77,1.5,34.34.18,5.55-.64,11.3-1.29,17.15-1.47,14.2-.41,25.64,4.74,37.74,10.21,8.09,3.65,16.44,7.42,25.71,9.37l-.1.49c-9.32-2-17.71-5.75-25.81-9.41-12.05-5.44-23.43-10.58-37.53-10.16-5.83.18-11.56.83-17.1,1.46-11.62,1.33-22.59,2.58-34.52-.18-7.78-1.8-15.48-4.66-22.94-7.42-19-7-36.92-13.69-56.3-4.49-9.27,4.39-17.48,11-25.42,17.4-9.64,7.75-19.6,15.78-31.54,19.92A44.09,44.09,0,0,1,259.19,248.32Z"/></g><g id="change1_27"><path fill="#444bc7" d="M259.37,249.63c-12.35,0-24.1-4.77-35.56-9.43C206,233,190.09,230,172.66,227.22c-8.73-1.41-17.81-3.67-26.59-5.85-20.09-5-40.86-10.16-60.9-6.43-9.31,1.73-18.09,4.91-26.58,8-10.59,3.83-21.54,7.79-33.57,9l0-.5c12-1.17,22.88-5.11,33.44-8.93,8.51-3.08,17.31-6.26,26.66-8,20.14-3.75,41,1.43,61.11,6.43,8.77,2.18,17.84,4.43,26.55,5.84,17.46,2.83,33.37,5.75,51.26,13,15.79,6.41,32.13,13,49.77,7,11.81-4,21.73-11.92,31.33-19.54,8-6.33,16.2-12.88,25.5-17.22,19.71-9.22,37.83-2.35,57,4.92,7.5,2.85,15.26,5.78,23.06,7.64,12.39,2.94,23.55,1.35,35.37-.34,5.12-.73,10.42-1.49,15.87-1.86,14.51-1,26,4.26,38.2,9.81,7.81,3.57,15.89,7.25,24.9,9.19l-.1.49c-9.06-2-17.17-5.65-25-9.22-12.12-5.53-23.58-10.75-38-9.77-5.44.37-10.72,1.12-15.84,1.85-11.86,1.7-23.07,3.3-35.55.33-7.84-1.86-15.61-4.8-23.12-7.65-19.09-7.23-37.12-14.06-56.64-4.94-9.25,4.32-17.46,10.85-25.4,17.16-9.63,7.65-19.59,15.56-31.48,19.63A44.63,44.63,0,0,1,259.37,249.63Z"/></g><g id="change1_28"><path fill="#444bc7" d="M259.71,251c-12.6,0-24.55-4.88-35.45-9.32-16.52-6.74-31.24-9.89-51.08-13.06-8.64-1.38-17.68-3.56-26.41-5.67-20.52-5-41.73-10.09-62-6.24-9.26,1.75-18,5-26.38,8.05C47.88,228.58,37,232.58,25,233.77l0-.5c11.92-1.18,22.76-5.17,33.24-9,8.44-3.1,17.16-6.31,26.45-8.07,20.38-3.87,41.65,1.27,62.22,6.24,8.72,2.11,17.74,4.29,26.37,5.66,19.88,3.18,34.63,6.34,51.19,13.09,14.89,6.08,31.77,13,49.49,7,11.76-4,21.68-11.74,31.27-19.26,8-6.25,16.2-12.71,25.49-17,19.83-9.14,38.05-2.09,57.35,5.37,7.56,2.93,15.37,6,23.23,7.87,12.94,3.15,24.3,1.18,36.32-.89,4.72-.82,9.6-1.67,14.67-2.2,14.77-1.58,26.33,3.75,38.56,9.4,7.58,3.49,15.41,7.1,24.2,9l-.11.48c-8.84-1.94-16.7-5.56-24.3-9.07-12.17-5.61-23.66-10.92-38.3-9.36-5.05.54-9.92,1.38-14.63,2.2-12.08,2.09-23.49,4.06-36.53.88-7.89-1.92-15.72-4.95-23.3-7.88-19.18-7.42-37.31-14.43-56.95-5.38-9.23,4.25-17.45,10.69-25.39,16.92-9.62,7.55-19.57,15.35-31.42,19.34A44.67,44.67,0,0,1,259.71,251Z"/></g><g id="change1_29"><path fill="#444bc7" d="M259.9,252.42c-12.58,0-24.41-4.85-35.2-9.28-16.82-6.9-32-10.14-51-13.14-8.55-1.34-17.53-3.45-26.2-5.49-21-4.92-42.61-10-63.12-6-9.2,1.77-17.83,5-26.17,8.12C47.76,230.49,37,234.52,25,235.72l-.05-.49C36.85,234,47.61,230,58,226.12c8.37-3.13,17-6.36,26.25-8.14,20.62-4,42.33,1.11,63.33,6,9.07,2.13,17.63,4.15,26.16,5.49,19.06,3,34.27,6.25,51.13,13.17,14.72,6,31.41,12.88,49.21,7,11.73-3.89,21.64-11.56,31.22-19,8-6.17,16.21-12.54,25.47-16.75,20-9.07,39.13-1.51,57.66,5.8,7.62,3,15.5,6.12,23.41,8.09,13.49,3.36,25,1,37.21-1.48,4.35-.89,8.84-1.8,13.54-2.49,15-2.17,26.58,3.24,38.85,9,7.36,3.44,15,7,23.57,8.92l-.11.49c-8.64-1.94-16.29-5.51-23.68-9-12.19-5.7-23.71-11.08-38.56-8.92-4.68.68-9.17,1.59-13.51,2.48-12.25,2.5-23.83,4.86-37.43,1.47-7.94-2-15.83-5.09-23.47-8.1-19.28-7.61-37.5-14.8-57.27-5.82-9.21,4.19-17.43,10.55-25.37,16.69-9.62,7.44-19.57,15.14-31.37,19.06A45.17,45.17,0,0,1,259.9,252.42Z"/></g><g id="change1_30"><path fill="#444bc7" d="M260.15,254c-11.37,0-22.48-4.09-35-9.26-17.13-7.07-32.75-10.4-50.95-13.23-8.45-1.31-17-3.25-26-5.31-21.38-4.88-43.48-9.93-64.24-5.85-9.14,1.8-17.7,5-26,8.19-10.37,3.94-21.08,8-33,9.23l-.06-.5C36.81,236,47.5,232,57.83,228.05c8.3-3.14,16.87-6.4,26.05-8.21,20.87-4.1,43,1,64.45,5.85,9,2.06,17.5,4,25.93,5.31,18.23,2.83,33.89,6.17,51.06,13.26,17.6,7.26,32.38,12.38,48.94,7,11.68-3.82,21.59-11.39,31.17-18.7,8-6.09,16.21-12.38,25.45-16.52,20.09-9,39.35-1.26,58,6.22,7.68,3.09,15.62,6.28,23.58,8.3,14,3.58,25.69.83,38-2.09,4-.94,8.13-1.91,12.48-2.71,15.19-2.8,26.78,2.69,39.06,8.5,7.18,3.4,14.61,6.92,23,8.85l-.12.49c-8.48-1.95-15.93-5.47-23.13-8.88-12.21-5.78-23.74-11.24-38.76-8.47-4.34.79-8.47,1.77-12.46,2.71-12.4,2.93-24.11,5.69-38.27,2.09-8-2-15.94-5.23-23.64-8.33-19.38-7.78-37.68-15.14-57.58-6.23-9.19,4.12-17.4,10.4-25.34,16.46-9.62,7.35-19.56,14.94-31.32,18.79A45.55,45.55,0,0,1,260.15,254Z"/></g><g id="change1_31"><path fill="#444bc7" d="M260.48,255.55c-11.58,0-22.86-4.17-34.94-9.18-17.48-7.26-33-10.58-50.89-13.32-8.33-1.28-16.75-3.15-25.67-5.14-21.81-4.84-44.37-9.85-65.38-5.64-9.08,1.82-17.57,5.09-25.77,8.26-10.29,4-20.94,8.07-32.8,9.3l-.06-.49c11.8-1.23,22.42-5.32,32.68-9.28,8.22-3.17,16.73-6.45,25.85-8.28,21.12-4.23,43.72.79,65.59,5.65,8.91,2,17.32,3.84,25.64,5.12,17.94,2.76,33.48,6.08,51,13.36,16.8,7,32.06,12.32,48.67,7,11.65-3.76,21.55-11.22,31.13-18.44,8-6,16.2-12.22,25.43-16.3,20.21-8.93,39.55-1,58.26,6.63,7.74,3.16,15.74,6.43,23.74,8.51,14.58,3.79,25.8.77,38.79-2.72,3.68-1,7.48-2,11.5-2.9,15.34-3.42,26.94,2.15,39.22,8,7,3.37,14.28,6.86,22.56,8.79l-.12.49c-8.33-1.95-15.61-5.45-22.66-8.82-12.2-5.86-23.73-11.39-38.89-8-4,.89-7.81,1.91-11.48,2.9-13.06,3.5-24.34,6.53-39,2.72-8-2.09-16.06-5.37-23.81-8.54-19.47-8-37.85-15.48-57.87-6.63-9.17,4.06-17.39,10.25-25.33,16.24-9.61,7.24-19.55,14.73-31.27,18.51A45.32,45.32,0,0,1,260.48,255.55Z"/></g><g id="change1_32"><path fill="#444bc7" d="M260.66,257.25c-11.57,0-22.76-4.16-34.72-9.15-15.25-6.38-30-10.27-50.83-13.44-8.21-1.24-16.54-3-25.36-4.94-22.24-4.81-45.25-9.77-66.51-5.44-9,1.84-17.45,5.13-25.59,8.32-10.22,4-20.79,8.14-32.62,9.39l-.06-.5c11.77-1.24,22.31-5.37,32.5-9.36,8.16-3.19,16.6-6.49,25.67-8.34,21.37-4.36,44.42.62,66.72,5.44,8.81,1.9,17.13,3.7,25.33,4.94,20.89,3.17,35.65,7.07,50.95,13.46,16.62,7,31.74,12.27,48.42,7,11.61-3.69,21.51-11.06,31.08-18.19,8-5.93,16.21-12.06,25.41-16.08,20.33-8.87,39.76-.79,58.54,7,7.8,3.24,15.85,6.59,23.91,8.72,15.09,4,26.39.58,39.48-3.36,3.39-1,6.89-2.08,10.59-3,15.45-4,27.05,1.61,39.32,7.58,6.88,3.34,14,6.8,22.15,8.75l-.11.48c-8.21-1.95-15.35-5.43-22.26-8.78-12.19-5.93-23.7-11.53-39-7.55-3.69,1-7.18,2-10.56,3-13.16,4-24.53,7.39-39.76,3.37-8.09-2.14-16.16-5.5-24-8.74-18.69-7.77-38-15.8-58.15-7-9.15,4-17.37,10.11-25.31,16-9.61,7.15-19.54,14.55-31.23,18.26A45.7,45.7,0,0,1,260.66,257.25Z"/></g><g id="change1_33"><path fill="#444bc7" d="M260.83,259c-11.56,0-22.65-4.15-34.5-9.14-15.55-6.55-30.26-10.48-50.78-13.55-8.08-1.21-16.3-2.94-25-4.76-22.68-4.77-46.14-9.69-67.66-5.24-9,1.86-17.33,5.18-25.4,8.38-10.16,4-20.66,8.21-32.46,9.47l-.06-.49c11.73-1.26,22.21-5.42,32.33-9.44,8.1-3.21,16.47-6.54,25.49-8.4,21.62-4.48,45.13.45,67.86,5.23,8.7,1.82,16.91,3.55,25,4.75,20.57,3.09,35.31,7,50.9,13.58,16.45,6.93,31.42,12.23,48.18,7,11.57-3.63,21.47-10.91,31-17.94,8-5.86,16.2-11.91,25.39-15.87,20.45-8.81,39.95-.58,58.81,7.37,7.84,3.32,16,6.74,24.07,8.92,15.58,4.19,26.95.39,40.12-4,3.11-1,6.33-2.12,9.73-3.14,15.55-4.64,27.13,1.07,39.39,7.12,6.76,3.33,13.74,6.77,21.8,8.72l-.12.49c-8.11-2-15.12-5.42-21.9-8.77-12.17-6-23.66-11.67-39-7.08-3.4,1-6.62,2.09-9.73,3.13-13.24,4.43-24.67,8.25-40.4,4-8.14-2.19-16.27-5.62-24.14-8.93-18.76-7.92-38.16-16.11-58.41-7.38C322.19,227,314,233,306,238.87c-9.61,7.06-19.54,14.36-31.19,18A46.18,46.18,0,0,1,260.83,259Z"/></g><g id="change1_34"><path fill="#444bc7" d="M261.16,260.86c-11.79,0-23.07-4.25-34.47-9.09-15.83-6.72-30.53-10.68-50.73-13.67-7.93-1.17-16-2.83-24.59-4.58-23.12-4.71-47-9.59-68.8-5-8.94,1.88-17.23,5.22-25.24,8.44C47.24,241,36.8,245.21,25,246.49L25,246c11.7-1.27,22.11-5.46,32.18-9.51,8-3.24,16.33-6.58,25.31-8.47,21.88-4.6,45.84.3,69,5,8.56,1.75,16.65,3.4,24.57,4.58,20.24,3,35,7,50.85,13.7,15.67,6.66,31.14,12.2,47.95,7,11.53-3.57,21.43-10.76,31-17.71,8-5.78,16.2-11.76,25.36-15.66,20.57-8.76,40.13-.38,59.06,7.72,7.9,3.38,16.07,6.87,24.23,9.1,16.06,4.38,27.48.19,40.71-4.66,2.86-1.05,5.81-2.14,8.95-3.19,15.6-5.24,27.17.54,39.41,6.66,6.65,3.32,13.53,6.76,21.49,8.72l-.12.49c-8-2-14.92-5.43-21.6-8.77-12.14-6.06-23.61-11.8-39-6.62-3.13,1-6.08,2.13-8.94,3.18-13.31,4.88-24.8,9.1-41,4.67-8.2-2.23-16.38-5.74-24.3-9.12-18.83-8.06-38.3-16.39-58.66-7.72-9.11,3.88-17.33,9.84-25.27,15.61-9.6,7-19.53,14.18-31.15,17.78A46.19,46.19,0,0,1,261.16,260.86Z"/></g><g id="change1_35"><path fill="#444bc7" d="M261.33,262.82c-11.79,0-23-4.25-34.3-9.09-15.89-6.81-31.05-10.94-50.68-13.81-7.77-1.14-15.72-2.72-24.14-4.39-23.56-4.67-47.92-9.51-69.95-4.81-8.9,1.9-17.12,5.25-25.07,8.5-10,4.09-20.42,8.32-32.16,9.61l-.06-.5c11.68-1.28,22-5.5,32-9.58,8-3.25,16.22-6.61,25.15-8.52,22.14-4.72,46.55.13,70.16,4.81,8.41,1.67,16.35,3.25,24.12,4.38,19.67,2.89,34.86,7,50.8,13.85,15.52,6.64,30.85,12.18,47.73,7,11.5-3.52,21.4-10.62,31-17.49,8-5.71,16.2-11.62,25.34-15.47,20.68-8.7,40.3-.19,59.28,8,8,3.45,16.18,7,24.39,9.28,16.51,4.57,27.43.21,41.25-5.3,2.63-1.05,5.35-2.14,8.22-3.2,15.65-5.82,27.19,0,39.41,6.21,6.56,3.32,13.34,6.76,21.23,8.73l-.12.49c-7.94-2-14.75-5.44-21.34-8.78-12.11-6.13-23.56-11.92-39-6.18-2.87,1.06-5.59,2.14-8.21,3.19-13.91,5.55-24.9,9.94-41.57,5.32-8.25-2.28-16.49-5.85-24.46-9.3-18.88-8.19-38.41-16.66-58.88-8-9.1,3.83-17.31,9.72-25.25,15.42-9.6,6.89-19.54,14-31.11,17.56A46.69,46.69,0,0,1,261.33,262.82Z"/></g><g id="change1_36"><path fill="#444bc7" d="M261.48,264.86c-11.79,0-22.91-4.25-34.13-9.1-16.17-7-31.31-11.15-50.63-13.95-7.6-1.11-15.39-2.61-23.64-4.2-24-4.63-48.82-9.42-71.11-4.6-8.85,1.92-17,5.29-24.91,8.55-10,4.12-20.31,8.38-32,9.68l-.06-.5c11.66-1.29,21.94-5.54,31.89-9.64,7.92-3.27,16.11-6.65,25-8.57,22.4-4.85,47.27-.05,71.31,4.59,8.24,1.59,16,3.09,23.62,4.19,19.37,2.81,34.55,7,50.76,14,15.38,6.64,30.58,12.17,47.53,7,11.47-3.47,21.36-10.49,30.93-17.28,8-5.65,16.2-11.49,25.33-15.3,20.77-8.65,40.45,0,59.48,8.34,8,3.51,16.28,7.14,24.54,9.45,16.94,4.74,27.89,0,41.76-5.93,2.41-1,4.91-2.11,7.54-3.18,15.68-6.36,27.19-.46,39.38,5.78,6.48,3.33,13.19,6.76,21,8.75l-.12.49c-7.88-2-14.61-5.46-21.12-8.79-12.61-6.46-23.5-12-39-5.77-2.63,1.07-5.12,2.14-7.53,3.18-14,6-25,10.74-42.09,5.95-8.3-2.32-16.59-6-24.61-9.48-18.93-8.31-38.51-16.9-59.09-8.32-9.07,3.78-17.29,9.6-25.23,15.23-9.6,6.82-19.53,13.86-31.08,17.36A47.13,47.13,0,0,1,261.48,264.86Z"/></g><g id="change1_37"><path fill="#444bc7" d="M261.63,267c-11.8,0-22.85-4.27-34-9.12-16.44-7.17-31.57-11.39-50.6-14.12-7.41-1.06-15-2.49-23.07-4-24.44-4.58-49.71-9.32-72.28-4.38-8.81,1.93-16.92,5.31-24.76,8.59C47,248.12,36.73,252.41,25,253.71l-.06-.5c11.64-1.29,21.87-5.57,31.77-9.7,7.87-3.29,16-6.68,24.85-8.62,22.67-5,48-.21,72.48,4.38,8.05,1.51,15.65,2.94,23.05,4a186.35,186.35,0,0,1,50.73,14.15c15.24,6.65,30.32,12.19,47.34,7.09,11.43-3.43,21.33-10.38,30.9-17.1,8-5.58,16.2-11.36,25.31-15.12,20.87-8.61,40.59.14,59.66,8.6,8.05,3.57,16.38,7.26,24.69,9.61,17.34,4.9,28.33-.14,42.23-6.54,2.22-1,4.51-2.07,6.91-3.12,15.69-6.88,27.18-.93,39.34,5.38,6.41,3.32,13,6.77,20.83,8.77l-.13.48c-7.83-2-14.49-5.47-20.93-8.81-12.58-6.52-23.44-12.15-38.91-5.36-2.4,1-4.69,2.1-6.9,3.12-14,6.43-25.06,11.52-42.57,6.56-8.35-2.36-16.7-6.06-24.76-9.64-19-8.41-38.6-17.12-59.27-8.59-9.06,3.74-17.27,9.5-25.21,15.07-9.6,6.74-19.54,13.71-31.05,17.17A47.61,47.61,0,0,1,261.63,267Z"/></g><g id="change1_38"><path fill="#444bc7" d="M261.94,269.19c-12.05,0-23.33-4.4-34-9.11a182.47,182.47,0,0,0-50.57-14.29c-7.2-1-14.6-2.38-22.44-3.8-24.88-4.54-50.61-9.23-73.45-4.18-8.78,1.95-16.84,5.35-24.63,8.64-9.89,4.17-20.11,8.49-31.8,9.8l-.06-.5c11.62-1.3,21.81-5.6,31.66-9.76,7.82-3.3,15.9-6.71,24.72-8.67,22.94-5.07,48.72-.37,73.65,4.17,7.83,1.43,15.23,2.78,22.42,3.8a183.06,183.06,0,0,1,50.7,14.33c14.51,6.39,30.1,12.21,47.16,7.13,11.41-3.38,21.31-10.26,30.89-16.91,8-5.53,16.19-11.25,25.28-15,21-8.58,40.72.27,59.82,8.83,8.1,3.62,16.47,7.37,24.84,9.76,17.71,5.06,28.73-.31,42.67-7.11,2-1,4.13-2,6.32-3,15.69-7.37,26.62-1.64,39.28,5,6.36,3.33,12.94,6.78,20.68,8.8l-.13.48c-7.79-2-14.39-5.49-20.78-8.84-12.54-6.57-23.37-12.25-38.83-5-2.2,1-4.29,2.05-6.32,3-14,6.84-25.13,12.25-43,7.14-8.4-2.39-16.79-6.15-24.9-9.79-19-8.51-38.66-17.31-59.43-8.81-9,3.69-17.25,9.39-25.19,14.91-9.6,6.67-19.54,13.57-31,17A47,47,0,0,1,261.94,269.19Z"/></g><g id="change1_39"><path fill="#444bc7" d="M262.06,271.51c-12.05,0-23.27-4.42-33.9-9.15a179.33,179.33,0,0,0-50.54-14.47c-7-1-14.14-2.26-21.74-3.61-25.32-4.49-51.51-9.13-74.64-4-8.75,2-16.76,5.37-24.5,8.67-9.85,4.2-20,8.54-31.71,9.85l-.06-.49c11.61-1.31,21.76-5.63,31.57-9.82,7.77-3.31,15.8-6.73,24.59-8.7,23.23-5.19,49.47-.54,74.84,4,7.59,1.35,14.76,2.62,21.72,3.6a179.61,179.61,0,0,1,50.67,14.52c14.4,6.4,29.88,12.23,47,7.19,11.39-3.36,21.29-10.18,30.87-16.77,8-5.47,16.19-11.13,25.25-14.81,21.06-8.55,40.83.38,59.95,9,8.14,3.68,16.56,7.48,25,9.9,18.07,5.19,28.58-.2,43.11-7.66q2.78-1.42,5.77-2.93c15.68-7.81,26.58-2,39.21,4.65,6.32,3.34,12.85,6.8,20.55,8.84l-.13.48c-7.76-2.05-14.31-5.52-20.65-8.88-12.51-6.62-23.31-12.33-38.76-4.64-2,1-3.91,2-5.76,2.93-14.64,7.51-25.22,12.94-43.47,7.69-8.46-2.43-16.9-6.24-25.05-9.93-19-8.59-38.7-17.48-59.56-9-9,3.66-17.22,9.31-25.16,14.77-9.61,6.61-19.55,13.45-31,16.82A47.09,47.09,0,0,1,262.06,271.51Z"/></g><g id="change1_40"><path fill="#444bc7" d="M262.17,273.93c-12.06,0-23.23-4.44-33.8-9.2a176.37,176.37,0,0,0-50.52-14.68c-6.72-.94-13.63-2.13-20.95-3.39-24.58-4.24-52.43-9-75.85-3.76-8.72,2-16.69,5.4-24.39,8.71-9.81,4.22-19.95,8.57-31.63,9.89L25,261c11.61-1.31,21.72-5.66,31.49-9.86,7.73-3.32,15.72-6.76,24.48-8.73,23.52-5.31,51.42-.5,76,3.75,7.32,1.26,14.23,2.45,20.94,3.39a176.33,176.33,0,0,1,50.65,14.72c14.3,6.43,29.69,12.28,46.87,7.25,11.37-3.33,21.28-10.09,30.86-16.62,7.95-5.43,16.18-11,25.23-14.69,21.14-8.53,40.92.48,60.05,9.19,8.18,3.72,16.64,7.57,25.12,10,18.4,5.32,28.94-.34,43.52-8.16,1.69-.91,3.43-1.84,5.24-2.79,15.68-8.21,26.56-2.4,39.16,4.33,6.27,3.35,12.76,6.82,20.44,8.87l-.13.49c-7.73-2.07-14.25-5.55-20.55-8.92-12.47-6.66-23.25-12.41-38.68-4.33-1.81,1-3.55,1.88-5.24,2.79-14.69,7.88-25.3,13.58-43.9,8.2-8.51-2.46-17-6.32-25.19-10.05-19-8.67-38.72-17.63-59.65-9.18-9,3.63-17.21,9.23-25.14,14.64-9.61,6.56-19.56,13.34-31,16.69A47.19,47.19,0,0,1,262.17,273.93Z"/></g><g id="change1_41"><path fill="#444bc7" d="M262.27,276.45c-12.08,0-23.2-4.47-33.72-9.26-17.47-7.95-32.58-12.41-50.5-14.9-6.44-.89-13.07-2-20.08-3.18-25-4.19-53.35-8.94-77.08-3.55-8.69,2-16.62,5.41-24.29,8.73-9.78,4.24-19.89,8.62-31.57,9.93l-.06-.49c11.61-1.31,21.68-5.68,31.43-9.9,7.69-3.33,15.64-6.77,24.38-8.76,23.82-5.41,52.22-.65,77.27,3.55,7,1.18,13.64,2.29,20.06,3.18,18,2.49,33.13,7,50.65,14.94,14.19,6.46,29.5,12.35,46.75,7.32,11.34-3.31,21.25-10,30.84-16.5,8-5.39,16.18-10.95,25.21-14.58,21.21-8.52,41,.55,60.12,9.31,8.22,3.77,16.72,7.67,25.25,10.14,18.72,5.43,29.3-.46,43.94-8.62,1.53-.86,3.1-1.73,4.74-2.63,15.66-8.56,26.52-2.71,39.09,4.06,6.24,3.36,12.7,6.84,20.36,8.9l-.13.49c-7.72-2.09-14.2-5.58-20.47-8.95-12.44-6.7-23.19-12.49-38.61-4.06-1.63.89-3.21,1.77-4.74,2.62-14.74,8.22-25.39,14.16-44.32,8.67-8.56-2.48-17.08-6.39-25.32-10.16-19-8.72-38.71-17.74-59.72-9.3-9,3.6-17.19,9.15-25.12,14.52-9.62,6.51-19.56,13.24-31,16.57A47.47,47.47,0,0,1,262.27,276.45Z"/></g><g id="change1_42"><path fill="#444bc7" d="M262.36,279.07c-12.11,0-23.19-4.51-33.67-9.33-17.72-8.17-32.82-12.69-50.49-15.13-6.12-.85-12.42-1.88-19.09-3-25.45-4.16-54.3-8.86-78.35-3.36-8.67,2-16.57,5.42-24.21,8.75-9.75,4.25-19.84,8.65-31.52,10l-.06-.49c11.61-1.31,21.66-5.69,31.38-9.92,7.66-3.34,15.58-6.8,24.3-8.79,24.14-5.52,53-.81,78.54,3.35,6.66,1.09,13,2.12,19.08,3,17.72,2.45,32.86,7,50.63,15.17,14.12,6.51,29.35,12.43,46.65,7.4,11.33-3.29,21.26-9.95,30.85-16.4,8-5.34,16.17-10.86,25.18-14.47,21.28-8.52,41,.59,60.16,9.39,8.26,3.81,16.8,7.74,25.38,10.24,19,5.53,29.64-.58,44.35-9l4.26-2.43c15.65-8.86,26.49-3,39,3.82,6.21,3.37,12.64,6.86,20.3,8.94l-.14.48c-7.71-2.1-14.16-5.6-20.4-9-12.42-6.73-23.14-12.55-38.56-3.83l-4.25,2.44c-14.82,8.51-25.52,14.66-44.74,9.08-8.62-2.51-17.18-6.45-25.45-10.26-19-8.76-38.68-17.83-59.76-9.39-9,3.59-17.16,9.1-25.09,14.43-9.63,6.46-19.58,13.15-31,16.46A47.14,47.14,0,0,1,262.36,279.07Z"/></g><g id="change1_43"><path fill="#444bc7" d="M262.42,281.79c-12.12,0-23.18-4.55-33.62-9.42-18-8.39-33.08-13-50.49-15.38-5.77-.79-11.71-1.73-18-2.73-25.9-4.11-55.27-8.77-79.65-3.17-8.66,2-16.53,5.44-24.14,8.77-9.74,4.27-19.81,8.68-31.5,10l-.06-.5c11.62-1.3,21.65-5.7,31.36-9.94,7.63-3.35,15.52-6.81,24.22-8.81,24.49-5.62,53.9-.95,79.85,3.17,6.28,1,12.21,1.94,18,2.73,17.46,2.4,32.61,7,50.63,15.42,14.05,6.55,29.22,12.53,46.58,7.49,11.32-3.29,21.25-9.92,30.85-16.33,7.95-5.3,16.16-10.79,25.15-14.38,21.34-8.53,41.08.6,60.16,9.43,8.3,3.84,16.87,7.81,25.52,10.32,19.29,5.61,29.42-.36,44.77-9.4,1.23-.72,2.48-1.46,3.78-2.21,15.65-9.11,26.47-3.21,39,3.62,6.19,3.38,12.6,6.88,20.25,9l-.14.48c-7.7-2.11-14.13-5.62-20.35-9-12.4-6.76-23.1-12.6-38.51-3.63l-3.78,2.21c-14.9,8.78-25.66,15.12-45.16,9.45-8.68-2.52-17.28-6.5-25.59-10.34-19-8.79-38.62-17.88-59.76-9.43-8.94,3.57-17.14,9-25.06,14.34-9.64,6.43-19.6,13.08-31,16.39A47.39,47.39,0,0,1,262.42,281.79Z"/></g><g id="change1_44"><path fill="#444bc7" d="M262.47,284.62c-12.15,0-23.18-4.6-33.6-9.52-18.23-8.62-33.33-13.3-50.49-15.64-5.38-.74-10.9-1.59-16.75-2.49-26.37-4.08-56.27-8.71-81-3-8.64,2-16.49,5.44-24.08,8.78-9.73,4.28-19.78,8.7-31.49,10l-.06-.5c11.64-1.29,21.66-5.7,31.35-10,7.61-3.34,15.48-6.8,24.17-8.81,24.85-5.73,54.8-1.1,81.22,3,5.84.9,11.36,1.76,16.74,2.49,17.21,2.35,32.36,7,50.64,15.68,14,6.62,29.12,12.65,46.52,7.59,11.31-3.28,21.25-9.88,30.86-16.27,7.94-5.28,16.16-10.73,25.13-14.32,21.39-8.55,41.08.59,60.12,9.43,8.33,3.87,16.93,7.87,25.64,10.39,19.55,5.68,29.76-.44,45.21-9.7l3.31-2c15.66-9.3,26.46-3.38,39,3.48,6.18,3.39,12.57,6.89,20.22,9l-.14.48c-7.7-2.12-14.11-5.64-20.32-9-12.37-6.79-23.06-12.64-38.47-3.5l-3.31,2c-15.56,9.33-25.84,15.49-45.61,9.75-8.74-2.53-17.37-6.54-25.71-10.41-19.82-9.2-38.54-17.89-59.73-9.42-8.92,3.56-17.11,9-25,14.27-9.65,6.4-19.62,13-31,16.34A47.65,47.65,0,0,1,262.47,284.62Z"/></g><g id="change1_45"><path fill="#444bc7" d="M262.43,287.41c-12.23,0-23.85-4.48-34.78-9.63-16.43-7.74-30.4-13-49.25-15.63-5-.69-10.14-1.47-15.58-2.29-26.85-4.09-57.28-8.72-82.34-2.93-8.64,2-16.46,5.44-24,8.78-9.7,4.28-19.72,8.7-31.42,10l-.06-.49c11.63-1.3,21.62-5.7,31.28-10,7.59-3.35,15.43-6.81,24.12-8.82,25.15-5.81,55.63-1.17,82.53,2.92,5.43.83,10.56,1.61,15.57,2.29,18.91,2.6,32.92,7.92,49.39,15.68,14.75,6.94,30.74,12.68,47.76,7.71,11.31-3.3,21.3-9.85,31-16.19,7.95-5.21,16.18-10.61,25.12-14.19,21.42-8.57,41.08.55,60.09,9.36,8.29,3.85,16.87,7.83,25.57,10.36,19.59,5.69,29.9-.45,45.49-9.74l3.1-1.84c15.65-9.25,26.47-3.35,39,3.48,6.15,3.36,12.52,6.83,20.12,8.94l-.14.49c-7.65-2.13-14-5.62-20.22-9-12.4-6.76-23.1-12.6-38.51-3.49l-3.09,1.84c-15.71,9.36-26.09,15.55-45.89,9.79-8.73-2.54-17.33-6.53-25.65-10.38-19.78-9.18-38.46-17.84-59.68-9.35-8.9,3.56-17.1,8.94-25,14.14-9.69,6.36-19.71,12.93-31.09,16.25A47.26,47.26,0,0,1,262.43,287.41Z"/></g><g id="change1_46"><path fill="#444bc7" d="M262.25,289.81C248,289.81,234,284,219.42,278c-12.92-5.34-26.28-10.87-41.16-13.13-3.18-.48-6.46-1-9.81-1.52-28.92-4.54-61.7-9.68-88.51-3.43-8.58,2-16.32,5.45-23.81,8.8-9.58,4.28-19.48,8.7-31.1,10l-.06-.5c11.55-1.31,21.41-5.71,31-10,7.51-3.35,15.28-6.82,23.9-8.83,26.91-6.27,59.74-1.12,88.7,3.43,3.35.52,6.63,1,9.82,1.52,14.93,2.26,28.32,7.8,41.27,13.16,19.14,7.92,37.21,15.4,56.24,9.86,11.33-3.29,21.44-9.72,31.21-15.93,8-5.1,16.3-10.37,25.24-13.91,21.43-8.48,40.12.14,59.91,9.27,8.2,3.78,16.68,7.7,25.31,10.22,19.32,5.66,30.31-.61,45.52-9.3l3.13-1.78c15.57-8.83,26.4-3.07,38.95,3.6,6.11,3.25,12.44,6.61,20,8.68l-.14.48c-7.56-2.08-13.91-5.46-20-8.72-12.41-6.6-23.14-12.3-38.46-3.61l-3.14,1.78c-15.31,8.75-26.37,15.07-45.91,9.35-8.66-2.54-17.15-6.46-25.37-10.25-19.69-9.08-38.28-17.66-59.52-9.25-8.89,3.52-17.16,8.77-25.15,13.86-9.81,6.23-19.94,12.68-31.34,16A48.69,48.69,0,0,1,262.25,289.81Z"/></g><g id="change1_47"><path fill="#444bc7" d="M262.71,291.7c-15.64,0-31.71-6.39-47.37-12.62-12.41-4.93-25.25-10-37.37-11.63-4.6-.61-9.34-1.29-14.34-2-27.76-4-59.21-8.55-84.61-2.5-8.46,2-16.06,5.48-23.41,8.83-9.38,4.29-19.09,8.72-30.58,10.06l-.06-.5c11.41-1.33,21.08-5.74,30.44-10,7.36-3.37,15-6.84,23.49-8.87,25.49-6.07,57-1.52,84.8,2.5,5,.72,9.73,1.4,14.33,2,12.19,1.61,25.05,6.72,37.49,11.67,20.23,8,41.15,16.35,60.83,10.74,11.36-3.24,21.62-9.5,31.53-15.55,8.11-4.94,16.49-10.05,25.45-13.51,21.45-8.28,40,.2,59.56,9.19,8.1,3.71,16.46,7.54,25,10.07,18.94,5.58,30.06-.35,45.44-8.55l3.2-1.7c15.4-8.15,26.22-2.64,38.74,3.74,6.08,3.1,12.36,6.31,19.77,8.28l-.12.48c-7.47-2-13.78-5.2-19.88-8.31-12.4-6.32-23.1-11.78-38.28-3.75l-3.2,1.7c-15.48,8.26-26.67,14.23-45.81,8.58-8.59-2.53-17-6.37-25.08-10.09-19.51-8.94-37.93-17.38-59.18-9.18-8.92,3.45-17.28,8.55-25.37,13.48-9.94,6.07-20.22,12.34-31.66,15.6A50,50,0,0,1,262.71,291.7Z"/></g><g id="change1_48"><path fill="#444bc7" d="M263.11,293.31c-15.79,0-32-6.16-47.78-12.16-12.55-4.77-25.52-9.71-37.8-11.25-4.53-.57-9.19-1.22-14.13-1.9-28.18-3.87-60.12-8.27-85.6-2-8.31,2-15.7,5.51-22.85,8.87C45.8,279.15,36.35,283.6,25,285l-.06-.5c11.24-1.35,20.66-5.78,29.76-10.06,7.18-3.37,14.59-6.86,23-8.91,25.57-6.27,57.56-1.87,85.79,2,4.93.68,9.59,1.32,14.12,1.89,12.34,1.55,25.34,6.5,37.92,11.28,20.45,7.78,41.6,15.82,61.55,10.31,11.42-3.15,21.85-9.19,31.93-15,8.23-4.76,16.73-9.69,25.75-13,21.45-8,39.71.33,59.06,9.12,8,3.63,16.21,7.37,24.7,9.89,18.43,5.46,29.66,0,45.2-7.51l3.34-1.61c15.18-7.28,25.94-2.1,38.4,3.9,6.05,2.91,12.31,5.92,19.62,7.76l-.12.48c-7.36-1.85-13.64-4.87-19.72-7.79-12.34-6-23-11.08-38-3.9l-3.34,1.61c-15.64,7.58-26.94,13.05-45.56,7.54-8.53-2.53-16.79-6.28-24.77-9.91-19.24-8.75-37.42-17-58.67-9.11-9,3.33-17.47,8.25-25.68,13-10.11,5.86-20.56,11.91-32.05,15.08A52.71,52.71,0,0,1,263.11,293.31Z"/></g><g id="change1_49"><path fill="#444bc7" d="M263.62,294.66c-16,0-32.31-5.88-48.25-11.62-12.73-4.58-25.9-9.31-38.42-10.79-4.51-.53-9.18-1.13-14.13-1.77-28.58-3.7-61-7.88-86.48-1.4-8.11,2.06-15.26,5.55-22.18,8.91-8.85,4.32-18,8.78-29.13,10.17l-.06-.5c11-1.38,20.15-5.82,29-10.12,6.94-3.38,14.12-6.87,22.27-8.94,25.61-6.51,58.05-2.32,86.68,1.38,4.94.64,9.61,1.24,14.12,1.78,12.58,1.48,25.77,6.22,38.53,10.81,20.71,7.45,42.12,15.16,62.4,9.8,11.5-3,22.12-8.81,32.39-14.41,8.37-4.56,17-9.27,26.12-12.49,21.42-7.57,39.39.51,58.41,9.07,7.84,3.52,15.94,7.17,24.36,9.67,17.8,5.29,29.7.21,44.76-6.21l3.65-1.55c14.86-6.27,25.55-1.49,37.93,4.05,6,2.7,12.28,5.49,19.5,7.17l-.12.49c-7.26-1.69-13.53-4.5-19.59-7.21-12.27-5.48-22.87-10.22-37.52-4-1.25.52-2.46,1-3.65,1.55-15.16,6.46-27.13,11.57-45.1,6.23-8.45-2.51-16.57-6.17-24.42-9.7-18.93-8.51-36.81-16.55-58-9-9.07,3.2-17.7,7.9-26.05,12.45-10.3,5.61-20.94,11.41-32.5,14.46A56.27,56.27,0,0,1,263.62,294.66Z"/></g><g id="change1_50"><path fill="#444bc7" d="M264.25,295.82c-16.18,0-32.69-5.56-48.77-11-13-4.37-26.38-8.9-39.2-10.28-4.56-.49-9.3-1.06-14.31-1.66-28.95-3.46-61.76-7.38-87.26-.63-7.88,2.09-14.76,5.57-21.41,8.94C44.77,285.52,35.94,290,25,291.42l-.06-.5c10.82-1.41,19.61-5.86,28.11-10.17,6.67-3.38,13.57-6.87,21.5-9,25.6-6.77,58.46-2.84,87.45.62,5,.6,9.74,1.17,14.3,1.66,12.87,1.39,26.31,5.92,39.31,10.31,21,7.07,42.65,14.38,63.31,9.23,11.59-2.89,22.41-8.39,32.88-13.7,8.53-4.34,17.35-8.81,26.55-11.87,21.38-7.11,39,.71,57.66,9,7.69,3.41,15.65,6.94,24,9.43,16.59,4.93,28,.89,42.51-4.24q2.77-1,5.73-2c14.53-5,25.55-.51,37.22,4.21,6.06,2.46,12.33,5,19.55,6.52l-.1.49c-7.27-1.53-13.56-4.08-19.64-6.54-12.08-4.9-22.52-9.12-36.87-4.21-2,.67-3.87,1.35-5.72,2-14.57,5.16-26.08,9.23-42.82,4.25-8.38-2.5-16.35-6-24.06-9.45-18.57-8.24-36.11-16-57.3-9-9.17,3.05-18,7.52-26.48,11.84-10.49,5.33-21.34,10.84-33,13.74A60.48,60.48,0,0,1,264.25,295.82Z"/></g><g id="change1_51"><path fill="#444bc7" d="M265,296.88c-16.4,0-33.06-5.23-49.3-10.33-13.26-4.16-27-8.46-40.15-9.73-17.19-1.67-34.87-2-52-2.28-5-.08-10.12-.17-15.16-.3-2.49-.06-5.06-.18-7.54-.29-9.3-.44-18.92-.9-27.85,1.57-7.65,2.11-14.24,5.59-20.6,9-8.2,4.33-16.68,8.81-27.37,10.25l-.06-.49c10.6-1.43,19-5.89,27.2-10.21,6.38-3.37,13-6.86,20.69-9,9-2.49,18.67-2,28-1.59,2.48.11,5,.23,7.54.29,5,.13,10.17.22,15.15.3,17.1.3,34.79.61,52,2.28,13.23,1.28,27,5.59,40.25,9.76,21.22,6.66,43.17,13.54,64.24,8.63,11.69-2.72,22.72-7.91,33.39-12.92,8.7-4.09,17.7-8.31,27-11.2,21.31-6.59,38.56.94,56.83,8.91a205.16,205.16,0,0,0,23.62,9.15c15.71,4.67,27.69,1.22,41.56-2.77,2.09-.61,4.26-1.23,6.49-1.84,14-3.83,24.9.15,36.49,4.35a119.51,119.51,0,0,0,19.61,5.85l-.1.49a120.07,120.07,0,0,1-19.68-5.87c-11.51-4.17-22.38-8.12-36.19-4.34-2.22.61-4.39,1.24-6.48,1.84-14,4-26,7.48-41.84,2.77A204.77,204.77,0,0,1,397.08,280c-18.18-7.93-35.35-15.43-56.48-8.89-9.28,2.87-18.26,7.09-26.94,11.17-10.7,5-21.76,10.22-33.5,13A66.75,66.75,0,0,1,265,296.88Z"/></g><g id="change1_52"><path fill="#444bc7" d="M25,298.11l-.06-.5c10.38-1.45,18.11-5.71,26.28-10.21,6.1-3.37,12.4-6.84,19.87-9,8.78-2.53,18.32-2.14,27.54-1.76,2.67.11,5.42.22,8.08.26,5.65.07,11.42.09,17,.12,16.76.06,34.09.14,51,1.57,13.66,1.15,27.74,5.24,41.36,9.19,21.46,6.23,43.64,12.67,65.12,8,11.78-2.54,23-7.39,33.9-12.08,8.88-3.83,18.06-7.79,27.5-10.48,21.19-6.05,38.07,1.16,55.93,8.79a209.68,209.68,0,0,0,23.22,8.84c14.7,4.34,26.53,1.73,40.22-1.29,2.47-.55,5-1.11,7.64-1.64,13.26-2.7,24.09.77,35.54,4.44A130.45,130.45,0,0,0,525,297.61l-.08.5a133.43,133.43,0,0,1-20-5.23c-11.39-3.65-22.16-7.1-35.29-4.43-2.62.53-5.17,1.09-7.63,1.64-13.76,3-25.65,5.66-40.47,1.28a210,210,0,0,1-23.28-8.86c-17.78-7.59-34.57-14.77-55.59-8.77-9.41,2.68-18.57,6.63-27.44,10.46-10.9,4.7-22.17,9.56-34,12.11-21.59,4.66-43.84-1.8-65.36-8.05-13.6-3.94-27.65-8-41.26-9.17-16.87-1.43-34.19-1.51-50.95-1.57-5.58,0-11.35,0-17-.12-2.66,0-5.42-.15-8.09-.26-9.18-.37-18.68-.76-27.38,1.75-7.41,2.13-13.69,5.59-19.77,8.94C43.64,292.17,35.51,296.65,25,298.11Z"/></g><g id="change1_53"><path fill="#444bc7" d="M525,301.54a146.64,146.64,0,0,1-20.6-4.67c-11.18-3.12-21.75-6.07-34.08-4.45-3.14.41-6.23.89-9.22,1.36-12.84,2-25,3.89-38.67-.11a216.84,216.84,0,0,1-22.86-8.5c-17.38-7.24-33.8-14.07-54.66-8.64-9.54,2.49-18.89,6.17-27.94,9.73-11.1,4.36-22.57,8.87-34.5,11.23-21.95,4.33-44.39-1.67-66.1-7.48-14-3.74-28.45-7.61-42.55-8.62-16.62-1.2-33.67-1-50.17-.86-6.08.06-12.36.12-18.53.12-2.81,0-5.74-.11-8.58-.2-9.07-.31-18.45-.62-26.94,1.92-7.18,2.15-13.17,5.59-18.95,8.91-7.52,4.32-15.3,8.79-25.58,10.26L25,301c10.19-1.45,17.58-5.7,25.41-10.19,5.81-3.34,11.82-6.79,19.06-9,8.56-2.57,18-2.25,27.1-1.94,2.83.09,5.76.19,8.56.2,6.16,0,12.45-.06,18.52-.12,16.51-.16,33.58-.34,50.22.86,14.15,1,28.63,4.89,42.64,8.64,21.65,5.79,44,11.78,65.88,7.47,11.88-2.35,23.33-6.85,34.41-11.21,9.06-3.56,18.42-7.25,28-9.74,21-5.48,37.52,1.39,55,8.66a215.7,215.7,0,0,0,22.8,8.48c13.6,4,25.67,2.09,38.45.1,3-.47,6.08-1,9.24-1.37,12.42-1.63,23,1.33,34.28,4.47A145.82,145.82,0,0,0,525,301Z"/></g><g id="change1_54"><path fill="#444bc7" d="M525,305a165.32,165.32,0,0,1-21.81-4.23c-10.79-2.62-21-5.09-32.36-4.38-3.8.23-7.56.6-11.2.95-12.32,1.18-24,2.31-36.52-1.29A226.17,226.17,0,0,1,400.65,288c-17-6.86-33-13.33-53.71-8.46-9.67,2.28-19.2,5.68-28.42,9-11.29,4-23,8.18-35,10.33-22.25,4-44.81-1.58-66.64-7-14.43-3.55-29.36-7.23-44-8.09-16.42-1-33.24-.54-49.52-.14-6.5.16-13.23.33-19.81.4-3,0-6,0-9-.12-9-.24-18.23-.48-26.5,2.09-7,2.16-12.68,5.56-18.2,8.84C42.6,299.12,35.15,303.56,25,305l-.08-.5c10-1.45,17.1-5.66,24.59-10.13,5.55-3.3,11.29-6.71,18.31-8.89,8.35-2.59,17.66-2.35,26.66-2.11,3.13.08,6.09.16,9,.12,6.58-.07,13.31-.24,19.81-.4,16.28-.4,33.12-.82,49.56.14,14.7.86,29.65,4.55,44.11,8.11,21.77,5.36,44.29,10.91,66.43,6.95,12-2.15,23.63-6.3,34.9-10.31,9.23-3.29,18.78-6.7,28.47-9,20.82-4.91,36.95,1.59,54,8.47a226.08,226.08,0,0,0,22.38,8.1c12.47,3.57,24.06,2.45,36.33,1.27,3.65-.35,7.42-.72,11.22-.95,11.45-.71,22.16,1.88,32.51,4.39A164.73,164.73,0,0,0,525,304.53Z"/></g><g id="change1_55"><path fill="#444bc7" d="M525,308.57a186.86,186.86,0,0,1-23.87-4c-9.65-2-19.63-4.15-29.9-4.19-4.53,0-9.07.19-13.46.39-11.67.52-22.69,1-34.14-2.19-7.87-2.19-15.05-5-22-7.67-16.64-6.46-32.36-12.55-52.76-8.23a299.45,299.45,0,0,0-28.88,8.2c-11.46,3.68-23.31,7.48-35.41,9.43-22.45,3.61-45.05-1.54-66.91-6.51-15-3.41-30.42-6.93-45.69-7.61-16.23-.73-32.84-.06-48.91.58-6.86.28-14,.56-20.89.73-3.07.08-6.17,0-9.46,0-8.85-.16-18-.32-26.07,2.24-6.77,2.16-12.24,5.5-17.52,8.74C41.86,302.93,35,307.13,25,308.57l-.08-.5c9.87-1.42,16.68-5.59,23.89-10,5.31-3.25,10.8-6.61,17.63-8.78,8.14-2.59,17.34-2.43,26.23-2.27,3.28.05,6.38.11,9.43,0,6.94-.17,14-.45,20.89-.73,16.08-.64,32.7-1.31,48.95-.58,15.32.68,30.8,4.21,45.78,7.62,21.81,5,44.37,10.1,66.72,6.5,12.07-1.94,23.9-5.73,35.34-9.4a296,296,0,0,1,28.93-8.21c20.54-4.36,36.33,1.76,53,8.24,6.94,2.69,14.11,5.47,21.95,7.66,11.38,3.18,22.36,2.69,34,2.17,4.4-.2,8.95-.4,13.48-.39,10.32,0,20.32,2.16,30,4.2,7.71,1.63,15.69,3.32,23.81,3.95Z"/></g><g id="change1_56"><path fill="#444bc7" d="M26.34,312.2l-1.35,0,0-.5c10.23.47,17.25-4.45,24.68-9.68,4.8-3.38,9.76-6.87,15.68-8.78,7.94-2.56,17-2.49,25.76-2.41,3.43,0,6.67.06,9.84-.06,7.23-.28,14.63-.7,21.78-1.1,15.86-.89,32.26-1.82,48.31-1.32s32.08,3.91,47.64,7.21c21.75,4.61,44.24,9.38,66.67,6.16,12.16-1.74,24.15-5.18,35.74-8.51,9.55-2.74,19.41-5.58,29.33-7.45,20.23-3.83,35.7,1.89,52.08,7.95,6.8,2.51,13.83,5.11,21.54,7.18,10.39,2.81,21.17,2.78,31.6,2.75,5.19,0,10.56,0,15.84.3,9,.57,17.87,2.24,26.47,3.87,8.79,1.66,17.88,3.37,27,3.89l0,.5c-9.21-.52-18.31-2.24-27.11-3.9-8.59-1.62-17.46-3.3-26.41-3.86-5.26-.33-10.62-.31-15.81-.3-10.46,0-21.27.06-31.73-2.76-7.73-2.09-14.77-4.69-21.58-7.21-16.32-6-31.73-11.72-51.81-7.92-9.9,1.87-19.76,4.7-29.29,7.44-11.61,3.33-23.62,6.78-35.8,8.53-22.52,3.23-45.06-1.55-66.85-6.17-15.54-3.3-31.6-6.7-47.56-7.2s-32.41.43-48.27,1.32c-7.15.4-14.54.82-21.78,1.1-3.19.12-6.43.09-9.87.06-8.72-.07-17.73-.15-25.6,2.39C59.68,295.57,54.75,299,50,302.4,43.12,307.22,36,312.2,26.34,312.2Z"/></g><g id="change1_57"><path fill="#444bc7" d="M26.61,315.87c-.53,0-1.07,0-1.62,0l0-.5c10.13.56,17-4.29,24.27-9.42,4.68-3.3,9.51-6.71,15.32-8.58,7.74-2.5,16.63-2.51,25.23-2.53,3.58,0,7,0,10.25-.18,7.46-.39,15.09-.95,22.47-1.49,15.63-1.14,31.8-2.32,47.62-2.05,16.73.28,33.48,3.63,49.67,6.87,21.58,4.32,43.9,8.79,66.26,6,12.23-1.55,24.35-4.65,36.08-7.66,9.67-2.47,19.66-5,29.66-6.7,19.85-3.33,35,2,51.13,7.58,6.67,2.32,13.57,4.73,21.14,6.68,9.58,2.46,19.63,2.75,29.36,3,6,.17,12.14.35,18.15,1,7.28.82,14.54,2.09,21.56,3.33,10.33,1.82,21,3.7,31.83,4.13l0,.5c-10.86-.44-21.55-2.32-31.89-4.14-7-1.23-14.27-2.51-21.54-3.33-6-.67-12.15-.85-18.11-1-9.75-.28-19.83-.58-29.46-3-7.59-2-14.5-4.36-21.18-6.69-16-5.59-31.17-10.87-50.89-7.56-10,1.67-20,4.23-29.61,6.7-11.75,3-23.89,6.11-36.14,7.66-22.45,2.84-44.81-1.63-66.43-6-16.17-3.23-32.89-6.58-49.58-6.86-15.8-.27-31.95.91-47.57,2.05-7.38.54-15,1.1-22.48,1.49-3.31.17-6.7.18-10.28.18-8.56,0-17.41,0-25.08,2.5C59,299.65,54.21,303,49.57,306.32,42.62,311.22,36,315.87,26.61,315.87Z"/></g><g id="change1_58"><path fill="#444bc7" d="M26.87,319.6q-.91,0-1.89-.06l0-.5c10.07.65,16.93-4.09,24.17-9.1,4.6-3.18,9.35-6.47,15-8.3,7.52-2.42,16.21-2.52,24.61-2.61,3.74,0,7.28-.08,10.71-.31,7.62-.52,15.41-1.22,23-1.91,15.37-1.39,31.27-2.81,46.83-2.79,17.49.05,34.94,3.42,51.81,6.67,21.3,4.11,43.32,8.35,65.48,5.89,12.28-1.37,24.52-4.15,36.36-6.84,9.75-2.21,19.83-4.5,29.89-6,19.41-2.88,34.37,2,50.21,7.12,6.56,2.13,13.35,4.34,20.78,6.13,8.92,2.15,18.3,2.62,27.37,3.07,6.69.33,13.61.68,20.3,1.69,5.06.77,10.12,1.65,15,2.5,13,2.26,25.25,4.39,38.47,4.78l0,.5c-13.25-.39-25.53-2.53-38.54-4.79-4.88-.85-9.94-1.73-15-2.5-6.67-1-13.58-1.35-20.25-1.68-9.1-.45-18.51-.92-27.46-3.08-7.46-1.8-14.25-4-20.82-6.14-15.79-5.13-30.7-10-50-7.11-10,1.49-20.11,3.78-29.84,6-11.86,2.69-24.12,5.48-36.42,6.84-22.24,2.48-44.3-1.78-65.63-5.89-16.85-3.25-34.27-6.61-51.73-6.66h-.67c-15.33,0-31,1.42-46.11,2.79-7.54.68-15.33,1.39-23,1.91-3.44.23-7,.27-10.74.31-8.36.09-17,.19-24.46,2.58-5.61,1.81-10.34,5.08-14.9,8.24C42.62,315.1,36.11,319.6,26.87,319.6Z"/></g><g id="change1_59"><path fill="#444bc7" d="M525,323.3c-16.15-.41-30.91-3.09-46.54-5.92-2.43-.43-4.87-.88-7.34-1.31A195,195,0,0,0,449,313.89c-8.54-.5-17.37-1-25.82-2.91-7.32-1.62-14-3.62-20.51-5.55-15.59-4.64-30.32-9-49.13-6.56-10.05,1.32-20.16,3.35-29.94,5.32-11.94,2.4-24.29,4.89-36.64,6.09-21.89,2.13-43.56-2-64.52-6-17.52-3.34-35.65-6.81-53.85-6.58-15.24.17-30.8,1.87-45.85,3.51-7.63.84-15.52,1.7-23.24,2.35-3.61.3-7.33.38-11.27.47-8.09.18-16.47.36-23.71,2.61-6.33,2-11.35,4.89-16.21,7.71-6.9,4-13.42,7.83-23.25,8.95l-.06-.5c9.73-1.11,16.21-4.88,23.06-8.88,4.88-2.84,9.92-5.78,16.31-7.76,7.31-2.27,15.72-2.45,23.85-2.63,3.93-.09,7.64-.17,11.24-.47,7.71-.65,15.6-1.51,23.23-2.34,15.06-1.65,30.63-3.35,45.89-3.52,18.25-.23,36.41,3.24,54,6.59,20.92,4,42.55,8.11,64.37,6,12.32-1.2,24.66-3.68,36.59-6.08,9.79-2,19.91-4,30-5.33,18.92-2.47,33.7,1.92,49.34,6.58,6.47,1.93,13.17,3.92,20.48,5.55,8.41,1.87,17.22,2.39,25.74,2.89a194.2,194.2,0,0,1,22.2,2.19q3.71.65,7.33,1.31c15.62,2.83,30.36,5.5,46.48,5.91Z"/></g><g id="change1_60"><path fill="#444bc7" d="M525,327.12c-18.7-.56-35.81-3.77-53.93-7.15l-.69-.13a191.2,191.2,0,0,0-23.61-2.41c-8.12-.49-16.52-1-24.64-2.61-7.18-1.44-13.82-3.21-20.23-4.93-15.5-4.14-30.13-8-48.43-5.92-10,1.16-20.07,3-29.82,4.72-12,2.15-24.36,4.37-36.7,5.41-21.45,1.81-42.65-2.28-63.15-6.23-18.23-3.52-37.08-7.16-56-6.63-14.92.41-30.15,2.33-44.88,4.19-7.51.95-15.28,1.93-22.87,2.69-3.79.38-7.85.53-11.77.68-7.79.29-15.84.59-22.94,2.64-6.33,1.84-11.5,4.59-16.5,7.25-7.18,3.81-14,7.42-23.76,8.43l-.06-.5c9.71-1,16.45-4.58,23.58-8.38,5-2.67,10.22-5.43,16.6-7.28,7.16-2.07,15.24-2.37,23.06-2.66,3.92-.15,8-.3,11.74-.68,7.58-.76,15.35-1.74,22.86-2.69,14.74-1.86,30-3.78,44.93-4.19,19-.53,37.89,3.11,56.14,6.63,20.47,3.95,41.64,8,63,6.23,12.32-1,24.69-3.25,36.65-5.4,9.76-1.75,19.84-3.56,29.85-4.73,18.4-2.13,33.08,1.79,48.61,5.94,6.41,1.71,13,3.48,20.21,4.92,8.08,1.61,16.47,2.11,24.57,2.6a191,191,0,0,1,23.68,2.42l.69.12c18.09,3.39,35.19,6.59,53.85,7.15Z"/></g><g id="change1_61"><path fill="#444bc7" d="M525,331c-19-.64-36.52-3.68-55.12-6.9l-1-.18a217.09,217.09,0,0,0-24.22-2.35,216.06,216.06,0,0,1-24.47-2.41c-7-1.24-13.58-2.78-19.93-4.27-15.48-3.64-30.11-7.07-47.87-5.26-9.86,1-19.82,2.61-29.45,4.16-11.87,1.91-24.14,3.88-36.35,4.76-21,1.5-41.75-2.43-61.84-6.24-18.85-3.57-38.34-7.26-57.89-6.43-35.76,1.51-70.29,3.47-99.62,10.78a99.9,99.9,0,0,0-17.53,6.62c-7.73,3.5-15,6.8-24.66,7.72l0-.5c9.55-.91,16.81-4.2,24.49-7.68a101.31,101.31,0,0,1,17.61-6.65c29.38-7.32,63.94-9.28,99.72-10.79,19.62-.83,39.14,2.87,58,6.44,20.06,3.8,40.81,7.73,61.72,6.23,12.18-.87,24.44-2.85,36.3-4.76,9.64-1.55,19.61-3.15,29.48-4.16,17.85-1.82,32.51,1.63,48,5.27,6.35,1.49,12.91,3,19.9,4.27a215.16,215.16,0,0,0,24.42,2.4,218.41,218.41,0,0,1,24.28,2.36l1,.18c18.58,3.22,36.13,6.26,55.06,6.89Z"/></g><g id="change1_62"><path fill="#444bc7" d="M525,334.92c-30.29-1-66.53-4.66-107.73-10.91-6.87-1.05-13.4-2.37-19.72-3.65-15.41-3.13-30-6.07-47.1-4.57-9.7.85-19.51,2.24-29,3.59-11.68,1.67-23.75,3.39-35.73,4.1-20.5,1.23-40.91-2.42-60.64-6-19.25-3.44-39.15-7-59.05-6C138.12,313,102,315.43,69.92,322.16A131.1,131.1,0,0,0,51.19,328c-8.08,3-16.44,6.1-26.17,6.89l0-.49c9.66-.79,17.62-3.74,26-6.86a130.55,130.55,0,0,1,18.81-5.89c32.08-6.74,68.25-9.23,96.18-10.64,20-1,39.89,2.55,59.17,6,19.7,3.52,40.08,7.17,60.52,5.94,12-.71,24-2.43,35.69-4.09,9.49-1.35,19.3-2.75,29-3.6,17.21-1.51,31.8,1.45,47.25,4.58,6.31,1.28,12.84,2.6,19.7,3.64,41.17,6.25,77.4,9.92,107.67,10.91Z"/></g><g id="change1_63"><path fill="#444bc7" d="M525,338.91c-31.2-.92-66.57-4-111.33-9.67-6.77-.85-13.31-2-19.64-3.06-15.27-2.61-29.69-5.08-46.15-3.87-9.5.71-19.13,1.9-28.43,3.05-11.42,1.41-23.22,2.87-34.91,3.44-20,1-40.07-2.28-59.45-5.43s-39.67-6.45-59.74-5.37a830.7,830.7,0,0,0-92.1,9.89A174.69,174.69,0,0,0,53.05,333c-8.85,2.61-18,5.3-28,5.95l0-.49c10-.66,19.1-3.34,27.93-5.94a176.76,176.76,0,0,1,20.25-5.07,833.63,833.63,0,0,1,92.16-9.9c20.12-1.08,40.31,2.2,59.84,5.38,19.35,3.15,39.36,6.4,59.34,5.43,11.68-.57,23.47-2,34.87-3.45,9.32-1.15,18.95-2.34,28.47-3,16.52-1.22,31,1.25,46.27,3.87,6.32,1.08,12.85,2.2,19.62,3.06,44.73,5.67,80.09,8.74,111.28,9.66Z"/></g><g id="change1_64"><path fill="#444bc7" d="M525,342.94c-41-1-83.22-4.88-115.39-8.17-6.75-.69-13.35-1.61-19.73-2.51-15.05-2.12-29.26-4.12-45-3.17-9.3.56-18.73,1.55-27.85,2.51-11.1,1.16-22.58,2.37-33.93,2.81-19.56.75-39.22-2-58.23-4.74-19.65-2.79-40-5.67-60.09-4.62-30.86,1.62-63.13,5.51-87.8,8.72-7.46,1-14.75,2.62-21.8,4.21-9.67,2.19-19.66,4.45-30.15,5l0-.5c10.44-.5,20.41-2.76,30.06-4.94,7.06-1.6,14.36-3.25,21.84-4.23,24.68-3.21,57-7.1,87.84-8.72,20.17-1.06,40.51,1.83,60.19,4.62,19,2.7,38.63,5.49,58.14,4.74,11.34-.44,22.81-1.64,33.9-2.81,9.12-1,18.56-2,27.87-2.51,15.8-.95,30,1.05,45.11,3.17,6.38.9,13,1.83,19.71,2.52,32.16,3.28,74.34,7.17,115.36,8.16Z"/></g><g id="change1_65"><path fill="#444bc7" d="M525,347c-41.16-.74-83.6-3.73-119.69-6.55-6.8-.53-13.54-1.28-20.06-2-14.72-1.64-28.62-3.19-43.65-2.49-9.09.42-18.32,1.22-27.25,2-10.75.93-21.87,1.89-32.85,2.21-19.11.54-38.4-1.73-57.05-3.93-19.71-2.33-40.08-4.74-60.2-3.79-22.39,1-45.08,4.17-67,7.18C73.56,342.9,49.09,346.27,25,347l0-.5c24.06-.76,48.52-4.12,72.17-7.37,22-3,44.65-6.14,67.07-7.19,20.15-1,40.55,1.46,60.27,3.79,18.64,2.2,37.92,4.48,57,3.93,11-.32,22.08-1.28,32.83-2.21,8.93-.78,18.16-1.57,27.27-2,15.07-.71,29,.85,43.73,2.49,6.51.73,13.24,1.48,20,2,36.08,2.82,78.52,5.8,119.65,6.54Z"/></g><g id="change1_66"><path fill="#444bc7" d="M525,351.16c-42.53-.49-86.3-2.78-124-4.89-36.5-2-71.07-1.3-107.67-.52l-13.48.29c-18.68.37-37.62-1.38-55.93-3.07-19.69-1.82-40.06-3.71-60.12-2.93-21.56.83-43.46,3.17-64.64,5.43-24.3,2.59-49.44,5.28-74.18,5.69v-.5c24.71-.41,49.83-3.1,74.13-5.69,21.19-2.26,43.09-4.6,64.67-5.43,20.1-.78,40.48,1.11,60.19,2.93,18.29,1.69,37.21,3.44,55.87,3.07l13.48-.29c36.61-.78,71.19-1.52,107.71.52,37.67,2.11,81.43,4.4,124,4.89Z"/></g><g id="change1_67"><path fill="#444bc7" d="M525,355.35c-43.28-.24-86.36-1.81-128-3.32-34.33-1.25-67.27-.83-102.14-.39l-16.5.21c-18.27.21-36.81-1-54.74-2.21-19.71-1.3-40.09-2.66-60.14-2.09-20.86.58-42.07,2.21-62.57,3.79-24.87,1.91-50.58,3.89-75.88,4v-.5c25.28-.12,51-2.1,75.84-4,20.51-1.58,41.72-3.21,62.59-3.79,20.07-.56,40.47.79,60.19,2.09,17.92,1.19,36.45,2.42,54.7,2.21l16.51-.21c34.87-.44,67.81-.86,102.16.39,41.66,1.51,84.74,3.08,128,3.32Z"/></g><g id="change1_68"><path fill="#444bc7" d="M27.4,359.6H25v-.5c25.73.07,51.86-1.22,77.14-2.47,20-1,40.64-2,61-2.35,19.91-.33,40.16.52,59.73,1.34,17.74.74,36.08,1.51,54.12,1.4,45.88-.28,92.47.37,137.52,1,36.22.5,73.66,1,110.53,1.07v.5c-36.87,0-74.32-.57-110.53-1.07-45.06-.64-91.64-1.29-137.51-1-18,.11-36.41-.66-54.15-1.4-19.56-.83-39.8-1.68-59.7-1.34-20.31.33-41,1.36-60.94,2.35C77.67,358.35,52.35,359.6,27.4,359.6Z"/></g><g id="change1_69"><path fill="#444bc7" d="M70.48,364.05q-22.8,0-45.48-.16v-.5c52.3.39,105.55,0,157-.4,30.77-.24,62.57-.48,93.83-.55,41.88-.09,84.46.2,125.63.47,40.47.28,82.33.56,123.5.48v.5c-41.17.08-83-.2-123.51-.48-41.17-.27-83.74-.56-125.62-.47-31.25.07-63.06.31-93.82.55C145.42,363.77,107.91,364.05,70.48,364.05Z"/></g><g id="change1_70"><path fill="#444bc7" d="M224.6,368.85c-66.59,0-133.35-.16-199.6-.62v-.5c143.39,1,289.26.58,430.32.19l69.68-.19v.5l-69.68.19C379.44,368.63,302.13,368.85,224.6,368.85Z"/></g><g id="change1_71"><path fill="#444bc7" d="M229.18,372.65c-68.12,0-136.4,0-204.18,0v-.5c151.07,0,304.67,0,453.22,0H525v.5H478.22Z"/></g></svg>