<?xml version="1.0" encoding="UTF-8"?><svg xmlns="http://www.w3.org/2000/svg" xmlns:xlink="http://www.w3.org/1999/xlink" contentScriptType="text/ecmascript" fill="#000000" width="500" zoomAndPan="magnify" contentStyleType="text/css" viewBox="250.5 288.4 500.0 424.3" height="424.3" preserveAspectRatio="xMidYMid meet" version="1"><defs><clipPath id="L"><path d="M 724 317 L 741.140625 317 L 741.140625 338 L 724 338 Z M 724 317"/></clipPath><clipPath id="a"><path d="M 407 706 L 594 706 L 594 713 L 407 713 Z M 407 706"/></clipPath><clipPath id="c"><path d="M 579.480469 712.53125 L 421.675781 712.53125 C 414.664062 712.53125 408.699219 713.9375 407.933594 706.136719 L 593.226562 706.136719 C 592.460938 713.9375 586.496094 712.53125 579.480469 712.53125"/></clipPath><clipPath id="au"><path d="M 704 549 L 725 549 L 725 566.457031 L 704 566.457031 Z M 704 549"/></clipPath><clipPath id="e"><path d="M 407 630 L 594 630 L 594 710 L 407 710 Z M 407 630"/></clipPath><clipPath id="f"><path d="M 591.535156 702.734375 C 597.359375 709.339844 586.546875 709.339844 578.488281 709.339844 L 422.472656 709.339844 C 414.414062 709.339844 403.601562 709.339844 409.425781 702.734375 L 438.890625 673.449219 C 446.0625 664.859375 445.101562 634.566406 444.96875 630.578125 L 555.992188 630.578125 C 555.859375 634.566406 554.898438 664.859375 562.074219 673.449219 Z M 591.535156 702.734375"/></clipPath><clipPath id="g"><path d="M 591.535156 702.734375 C 597.359375 709.339844 586.546875 709.339844 578.488281 709.339844 L 422.472656 709.339844 C 414.414062 709.339844 403.601562 709.339844 409.425781 702.734375 L 438.890625 673.449219 C 446.0625 664.859375 445.101562 634.566406 444.96875 630.578125 L 555.992188 630.578125 C 555.859375 634.566406 554.898438 664.859375 562.074219 673.449219 L 591.535156 702.734375"/></clipPath><clipPath id="at"><path d="M 685 549 L 705 549 L 705 566.457031 L 685 566.457031 Z M 685 549"/></clipPath><clipPath id="i"><path d="M 250 288 L 751 288 L 751 633 L 250 633 Z M 250 288"/></clipPath><clipPath id="j"><path d="M 265.386719 632.367188 C 257.167969 632.367188 250.5 625.394531 250.5 616.792969 L 250.5 303.945312 C 250.5 295.34375 257.167969 288.367188 265.386719 288.367188 L 735.609375 288.367188 C 743.835938 288.367188 750.5 295.34375 750.5 303.945312 L 750.5 616.792969 C 750.5 625.394531 743.835938 632.367188 735.609375 632.367188 Z M 265.386719 632.367188"/></clipPath><clipPath id="k"><path d="M 265.386719 632.367188 C 257.167969 632.367188 250.5 625.394531 250.5 616.792969 L 250.5 303.945312 C 250.5 295.34375 257.167969 288.367188 265.386719 288.367188 L 735.609375 288.367188 C 743.835938 288.367188 750.5 295.34375 750.5 303.945312 L 750.5 616.792969 C 750.5 625.394531 743.835938 632.367188 735.609375 632.367188 L 265.386719 632.367188"/></clipPath><clipPath id="as"><path d="M 666 549 L 686 549 L 686 566.457031 L 666 566.457031 Z M 666 549"/></clipPath><clipPath id="m"><path d="M 260 298.460938 L 280 298.460938 L 280 318 L 260 318 Z M 260 298.460938"/></clipPath><clipPath id="n"><path d="M 279 298.460938 L 300 298.460938 L 300 318 L 279 318 Z M 279 298.460938"/></clipPath><clipPath id="o"><path d="M 299 298.460938 L 319 298.460938 L 319 318 L 299 318 Z M 299 298.460938"/></clipPath><clipPath id="p"><path d="M 318 298.460938 L 338 298.460938 L 338 318 L 318 318 Z M 318 298.460938"/></clipPath><clipPath id="q"><path d="M 337 298.460938 L 358 298.460938 L 358 318 L 337 318 Z M 337 298.460938"/></clipPath><clipPath id="r"><path d="M 357 298.460938 L 377 298.460938 L 377 318 L 357 318 Z M 357 298.460938"/></clipPath><clipPath id="s"><path d="M 376 298.460938 L 396 298.460938 L 396 318 L 376 318 Z M 376 298.460938"/></clipPath><clipPath id="t"><path d="M 395 298.460938 L 416 298.460938 L 416 318 L 395 318 Z M 395 298.460938"/></clipPath><clipPath id="u"><path d="M 415 298.460938 L 435 298.460938 L 435 318 L 415 318 Z M 415 298.460938"/></clipPath><clipPath id="v"><path d="M 434 298.460938 L 454 298.460938 L 454 318 L 434 318 Z M 434 298.460938"/></clipPath><clipPath id="w"><path d="M 453 298.460938 L 474 298.460938 L 474 318 L 453 318 Z M 453 298.460938"/></clipPath><clipPath id="x"><path d="M 473 298.460938 L 493 298.460938 L 493 318 L 473 318 Z M 473 298.460938"/></clipPath><clipPath id="y"><path d="M 492 298.460938 L 512 298.460938 L 512 318 L 492 318 Z M 492 298.460938"/></clipPath><clipPath id="z"><path d="M 511 298.460938 L 531 298.460938 L 531 318 L 511 318 Z M 511 298.460938"/></clipPath><clipPath id="A"><path d="M 531 298.460938 L 551 298.460938 L 551 318 L 531 318 Z M 531 298.460938"/></clipPath><clipPath id="B"><path d="M 550 298.460938 L 570 298.460938 L 570 318 L 550 318 Z M 550 298.460938"/></clipPath><clipPath id="C"><path d="M 569 298.460938 L 589 298.460938 L 589 318 L 569 318 Z M 569 298.460938"/></clipPath><clipPath id="D"><path d="M 588 298.460938 L 609 298.460938 L 609 318 L 588 318 Z M 588 298.460938"/></clipPath><clipPath id="E"><path d="M 608 298.460938 L 628 298.460938 L 628 318 L 608 318 Z M 608 298.460938"/></clipPath><clipPath id="F"><path d="M 627 298.460938 L 647 298.460938 L 647 318 L 627 318 Z M 627 298.460938"/></clipPath><clipPath id="G"><path d="M 646 298.460938 L 667 298.460938 L 667 318 L 646 318 Z M 646 298.460938"/></clipPath><clipPath id="H"><path d="M 666 298.460938 L 686 298.460938 L 686 318 L 666 318 Z M 666 298.460938"/></clipPath><clipPath id="I"><path d="M 685 298.460938 L 705 298.460938 L 705 318 L 685 318 Z M 685 298.460938"/></clipPath><clipPath id="J"><path d="M 704 298.460938 L 725 298.460938 L 725 318 L 704 318 Z M 704 298.460938"/></clipPath><clipPath id="K"><path d="M 724 298.460938 L 741.140625 298.460938 L 741.140625 318 L 724 318 Z M 724 298.460938"/></clipPath><clipPath id="b"><path d="M 579.480469 712.53125 L 421.675781 712.53125 C 414.664062 712.53125 408.699219 713.9375 407.933594 706.136719 L 593.226562 706.136719 C 592.460938 713.9375 586.496094 712.53125 579.480469 712.53125 Z M 579.480469 712.53125"/></clipPath><clipPath id="M"><path d="M 724 337 L 741.140625 337 L 741.140625 357 L 724 357 Z M 724 337"/></clipPath><clipPath id="N"><path d="M 724 356 L 741.140625 356 L 741.140625 376 L 724 376 Z M 724 356"/></clipPath><clipPath id="O"><path d="M 724 375 L 741.140625 375 L 741.140625 396 L 724 396 Z M 724 375"/></clipPath><clipPath id="P"><path d="M 724 395 L 741.140625 395 L 741.140625 415 L 724 415 Z M 724 395"/></clipPath><clipPath id="Q"><path d="M 724 414 L 741.140625 414 L 741.140625 434 L 724 434 Z M 724 414"/></clipPath><clipPath id="R"><path d="M 724 433 L 741.140625 433 L 741.140625 454 L 724 454 Z M 724 433"/></clipPath><clipPath id="S"><path d="M 724 453 L 741.140625 453 L 741.140625 473 L 724 473 Z M 724 453"/></clipPath><clipPath id="T"><path d="M 724 472 L 741.140625 472 L 741.140625 492 L 724 492 Z M 724 472"/></clipPath><clipPath id="U"><path d="M 724 491 L 741.140625 491 L 741.140625 512 L 724 512 Z M 724 491"/></clipPath><clipPath id="V"><path d="M 724 511 L 741.140625 511 L 741.140625 531 L 724 531 Z M 724 511"/></clipPath><clipPath id="W"><path d="M 724 530 L 741.140625 530 L 741.140625 550 L 724 550 Z M 724 530"/></clipPath><clipPath id="X"><path d="M 260 549 L 280 549 L 280 566.457031 L 260 566.457031 Z M 260 549"/></clipPath><clipPath id="Y"><path d="M 279 549 L 300 549 L 300 566.457031 L 279 566.457031 Z M 279 549"/></clipPath><clipPath id="Z"><path d="M 299 549 L 319 549 L 319 566.457031 L 299 566.457031 Z M 299 549"/></clipPath><clipPath id="aa"><path d="M 318 549 L 338 549 L 338 566.457031 L 318 566.457031 Z M 318 549"/></clipPath><clipPath id="ab"><path d="M 337 549 L 358 549 L 358 566.457031 L 337 566.457031 Z M 337 549"/></clipPath><clipPath id="ac"><path d="M 357 549 L 377 549 L 377 566.457031 L 357 566.457031 Z M 357 549"/></clipPath><clipPath id="ad"><path d="M 376 549 L 396 549 L 396 566.457031 L 376 566.457031 Z M 376 549"/></clipPath><clipPath id="ae"><path d="M 395 549 L 416 549 L 416 566.457031 L 395 566.457031 Z M 395 549"/></clipPath><clipPath id="af"><path d="M 415 549 L 435 549 L 435 566.457031 L 415 566.457031 Z M 415 549"/></clipPath><clipPath id="ag"><path d="M 434 549 L 454 549 L 454 566.457031 L 434 566.457031 Z M 434 549"/></clipPath><clipPath id="ah"><path d="M 453 549 L 474 549 L 474 566.457031 L 453 566.457031 Z M 453 549"/></clipPath><clipPath id="ai"><path d="M 473 549 L 493 549 L 493 566.457031 L 473 566.457031 Z M 473 549"/></clipPath><clipPath id="aj"><path d="M 492 549 L 512 549 L 512 566.457031 L 492 566.457031 Z M 492 549"/></clipPath><clipPath id="ak"><path d="M 511 549 L 531 549 L 531 566.457031 L 511 566.457031 Z M 511 549"/></clipPath><clipPath id="al"><path d="M 531 549 L 551 549 L 551 566.457031 L 531 566.457031 Z M 531 549"/></clipPath><clipPath id="am"><path d="M 550 549 L 570 549 L 570 566.457031 L 550 566.457031 Z M 550 549"/></clipPath><clipPath id="an"><path d="M 569 549 L 589 549 L 589 566.457031 L 569 566.457031 Z M 569 549"/></clipPath><clipPath id="ao"><path d="M 588 549 L 609 549 L 609 566.457031 L 588 566.457031 Z M 588 549"/></clipPath><clipPath id="ap"><path d="M 608 549 L 628 549 L 628 566.457031 L 608 566.457031 Z M 608 549"/></clipPath><clipPath id="aq"><path d="M 627 549 L 647 549 L 647 566.457031 L 627 566.457031 Z M 627 549"/></clipPath><clipPath id="ar"><path d="M 646 549 L 667 549 L 667 566.457031 L 646 566.457031 Z M 646 549"/></clipPath><clipPath id="av"><path d="M 724 549 L 741.140625 549 L 741.140625 566.457031 L 724 566.457031 Z M 724 549"/></clipPath><linearGradient x1="0" gradientTransform="matrix(0 -78.7606 -78.7606 0 500.481 709.34)" xmlns:xlink="http://www.w3.org/1999/xlink" y1="0" x2="1" gradientUnits="userSpaceOnUse" y2="0" xlink:type="simple" xlink:actuate="onLoad" id="h" xlink:show="other"><stop stop-color="#dcdcdb" offset="0"/><stop stop-color="#dbdbda" offset="0.004"/><stop stop-color="#dadad9" offset="0.008"/><stop stop-color="#d9d9d8" offset="0.012"/><stop stop-color="#d8d8d7" offset="0.016"/><stop stop-color="#d7d7d6" offset="0.02"/><stop stop-color="#d6d6d5" offset="0.023"/><stop stop-color="#d5d5d4" offset="0.027"/><stop stop-color="#d4d4d3" offset="0.031"/><stop stop-color="#d3d3d2" offset="0.035"/><stop stop-color="#d2d2d1" offset="0.039"/><stop stop-color="#d1d1d0" offset="0.043"/><stop stop-color="#d0d0cf" offset="0.047"/><stop stop-color="#cfcfce" offset="0.051"/><stop stop-color="#cececd" offset="0.055"/><stop stop-color="#cdcdcc" offset="0.059"/><stop stop-color="#cccccb" offset="0.063"/><stop stop-color="#cbcbca" offset="0.066"/><stop stop-color="#cacac9" offset="0.07"/><stop stop-color="#c9c9c8" offset="0.074"/><stop stop-color="#c8c8c7" offset="0.078"/><stop stop-color="#c7c7c6" offset="0.082"/><stop stop-color="#c6c6c5" offset="0.086"/><stop stop-color="#c5c5c4" offset="0.09"/><stop stop-color="#c4c4c3" offset="0.094"/><stop stop-color="#c3c3c2" offset="0.098"/><stop stop-color="#c2c2c1" offset="0.102"/><stop stop-color="#c1c1c0" offset="0.105"/><stop stop-color="#c0c0bf" offset="0.109"/><stop stop-color="#bfbfbe" offset="0.113"/><stop stop-color="#bebebd" offset="0.117"/><stop stop-color="#bdbdbc" offset="0.121"/><stop stop-color="#bcbcbb" offset="0.125"/><stop stop-color="#bbbbba" offset="0.129"/><stop stop-color="#babab9" offset="0.133"/><stop stop-color="#b9b9b8" offset="0.137"/><stop stop-color="#b8b8b7" offset="0.141"/><stop stop-color="#b7b7b6" offset="0.145"/><stop stop-color="#b6b6b5" offset="0.148"/><stop stop-color="#b5b5b4" offset="0.152"/><stop stop-color="#b4b4b3" offset="0.156"/><stop stop-color="#b3b3b2" offset="0.16"/><stop stop-color="#b2b2b1" offset="0.164"/><stop stop-color="#b1b1b0" offset="0.168"/><stop stop-color="#b0b0af" offset="0.172"/><stop stop-color="#afafae" offset="0.176"/><stop stop-color="#aeaead" offset="0.18"/><stop stop-color="#adadac" offset="0.184"/><stop stop-color="#acacab" offset="0.188"/><stop stop-color="#ababaa" offset="0.191"/><stop stop-color="#aaaaa9" offset="0.195"/><stop stop-color="#a9a9a8" offset="0.199"/><stop stop-color="#a8a8a7" offset="0.203"/><stop stop-color="#a8a8a7" offset="0.207"/><stop stop-color="#a7a7a6" offset="0.211"/><stop stop-color="#a6a6a5" offset="0.215"/><stop stop-color="#a5a5a4" offset="0.219"/><stop stop-color="#a4a4a3" offset="0.223"/><stop stop-color="#a3a3a2" offset="0.227"/><stop stop-color="#a2a2a1" offset="0.23"/><stop stop-color="#a1a1a0" offset="0.234"/><stop stop-color="#a0a09f" offset="0.238"/><stop stop-color="#9f9f9e" offset="0.242"/><stop stop-color="#9e9e9d" offset="0.246"/><stop stop-color="#9d9d9c" offset="0.25"/><stop stop-color="#9c9c9b" offset="0.254"/><stop stop-color="#9b9b9a" offset="0.258"/><stop stop-color="#9a9a99" offset="0.262"/><stop stop-color="#999998" offset="0.266"/><stop stop-color="#989897" offset="0.27"/><stop stop-color="#979796" offset="0.273"/><stop stop-color="#969695" offset="0.277"/><stop stop-color="#959594" offset="0.281"/><stop stop-color="#949493" offset="0.285"/><stop stop-color="#939392" offset="0.289"/><stop stop-color="#929291" offset="0.293"/><stop stop-color="#919190" offset="0.297"/><stop stop-color="#90908f" offset="0.301"/><stop stop-color="#8f8f8e" offset="0.305"/><stop stop-color="#8e8e8d" offset="0.309"/><stop stop-color="#8d8d8c" offset="0.313"/><stop stop-color="#8c8c8b" offset="0.316"/><stop stop-color="#8b8b8a" offset="0.32"/><stop stop-color="#8a8a89" offset="0.324"/><stop stop-color="#898988" offset="0.328"/><stop stop-color="#888887" offset="0.332"/><stop stop-color="#878786" offset="0.336"/><stop stop-color="#868685" offset="0.34"/><stop stop-color="#858584" offset="0.344"/><stop stop-color="#848483" offset="0.348"/><stop stop-color="#838382" offset="0.352"/><stop stop-color="#828281" offset="0.355"/><stop stop-color="#818180" offset="0.359"/><stop stop-color="#80807f" offset="0.363"/><stop stop-color="#7f7f7e" offset="0.367"/><stop stop-color="#7e7e7d" offset="0.371"/><stop stop-color="#7d7d7c" offset="0.375"/><stop stop-color="#7c7c7b" offset="0.379"/><stop stop-color="#7b7b7a" offset="0.383"/><stop stop-color="#7a7a79" offset="0.387"/><stop stop-color="#797978" offset="0.391"/><stop stop-color="#787877" offset="0.395"/><stop stop-color="#777776" offset="0.398"/><stop stop-color="#767675" offset="0.402"/><stop stop-color="#757574" offset="0.406"/><stop stop-color="#747473" offset="0.41"/><stop stop-color="#737372" offset="0.414"/><stop stop-color="#727271" offset="0.418"/><stop stop-color="#717170" offset="0.422"/><stop stop-color="#70706f" offset="0.426"/><stop stop-color="#6f6f6e" offset="0.43"/><stop stop-color="#6e6e6d" offset="0.434"/><stop stop-color="#6d6d6c" offset="0.438"/><stop stop-color="#6c6c6b" offset="0.441"/><stop stop-color="#6b6b6a" offset="0.445"/><stop stop-color="#6a6a69" offset="0.449"/><stop stop-color="#696968" offset="0.453"/><stop stop-color="#686867" offset="0.457"/><stop stop-color="#676766" offset="0.461"/><stop stop-color="#666665" offset="0.465"/><stop stop-color="#656564" offset="0.469"/><stop stop-color="#646463" offset="0.473"/><stop stop-color="#636362" offset="0.477"/><stop stop-color="#626261" offset="0.48"/><stop stop-color="#616160" offset="0.484"/><stop stop-color="#60605f" offset="0.488"/><stop stop-color="#5f5f5e" offset="0.492"/><stop stop-color="#5f5f5e" offset="0.496"/><stop stop-color="#5e5e5d" offset="0.5"/><stop stop-color="#5e5e5d" offset="0.625"/><stop stop-color="#5f5f5f" offset="0.629"/><stop stop-color="#60605f" offset="0.633"/><stop stop-color="#616160" offset="0.637"/><stop stop-color="#616161" offset="0.641"/><stop stop-color="#626261" offset="0.645"/><stop stop-color="#626362" offset="0.648"/><stop stop-color="#636363" offset="0.652"/><stop stop-color="#646463" offset="0.656"/><stop stop-color="#646464" offset="0.66"/><stop stop-color="#656564" offset="0.664"/><stop stop-color="#656665" offset="0.668"/><stop stop-color="#666666" offset="0.672"/><stop stop-color="#676766" offset="0.676"/><stop stop-color="#676767" offset="0.68"/><stop stop-color="#686868" offset="0.684"/><stop stop-color="#686968" offset="0.688"/><stop stop-color="#696969" offset="0.691"/><stop stop-color="#696a6a" offset="0.695"/><stop stop-color="#6a6a6a" offset="0.699"/><stop stop-color="#6b6b6b" offset="0.703"/><stop stop-color="#6b6b6b" offset="0.707"/><stop stop-color="#6c6c6c" offset="0.711"/><stop stop-color="#6c6d6d" offset="0.715"/><stop stop-color="#6d6d6d" offset="0.719"/><stop stop-color="#6d6e6e" offset="0.723"/><stop stop-color="#6e6e6e" offset="0.727"/><stop stop-color="#6e6f6f" offset="0.73"/><stop stop-color="#6f6f70" offset="0.734"/><stop stop-color="#707070" offset="0.738"/><stop stop-color="#707071" offset="0.742"/><stop stop-color="#717171" offset="0.746"/><stop stop-color="#717272" offset="0.75"/><stop stop-color="#727272" offset="0.754"/><stop stop-color="#727373" offset="0.758"/><stop stop-color="#737374" offset="0.762"/><stop stop-color="#737474" offset="0.766"/><stop stop-color="#747475" offset="0.77"/><stop stop-color="#747575" offset="0.773"/><stop stop-color="#757576" offset="0.777"/><stop stop-color="#757676" offset="0.781"/><stop stop-color="#767677" offset="0.785"/><stop stop-color="#767777" offset="0.789"/><stop stop-color="#777778" offset="0.793"/><stop stop-color="#777879" offset="0.797"/><stop stop-color="#787879" offset="0.801"/><stop stop-color="#78797a" offset="0.805"/><stop stop-color="#79797a" offset="0.809"/><stop stop-color="#797a7b" offset="0.813"/><stop stop-color="#7a7a7b" offset="0.816"/><stop stop-color="#7a7b7c" offset="0.82"/><stop stop-color="#7b7b7c" offset="0.824"/><stop stop-color="#7b7c7d" offset="0.828"/><stop stop-color="#7c7c7d" offset="0.832"/><stop stop-color="#7c7d7e" offset="0.836"/><stop stop-color="#7c7d7e" offset="0.844"/><stop stop-color="#7d7e7f" offset="0.852"/><stop stop-color="#7e7f80" offset="0.859"/><stop stop-color="#7f8081" offset="0.867"/><stop stop-color="#808182" offset="0.875"/><stop stop-color="#818283" offset="0.883"/><stop stop-color="#828284" offset="0.891"/><stop stop-color="#828385" offset="0.898"/><stop stop-color="#838485" offset="0.906"/><stop stop-color="#848586" offset="0.914"/><stop stop-color="#858587" offset="0.922"/><stop stop-color="#858688" offset="0.93"/><stop stop-color="#868789" offset="0.938"/><stop stop-color="#878789" offset="0.945"/><stop stop-color="#87888a" offset="0.953"/><stop stop-color="#88898b" offset="0.961"/><stop stop-color="#88898b" offset="0.969"/><stop stop-color="#898a8c" offset="0.984"/><stop stop-color="#8a8b8d" offset="1"/></linearGradient><linearGradient x1="0" gradientTransform="matrix(-185.295 0 0 185.295 593.227 709.384)" xmlns:xlink="http://www.w3.org/1999/xlink" y1="0" x2="1" gradientUnits="userSpaceOnUse" y2="0" xlink:type="simple" xlink:actuate="onLoad" id="d" xlink:show="other"><stop stop-color="#8c8c8b" offset="0"/><stop stop-color="#8d8d8c" offset="0.004"/><stop stop-color="#8e8e8d" offset="0.008"/><stop stop-color="#8f8f8e" offset="0.012"/><stop stop-color="#90908f" offset="0.016"/><stop stop-color="#919190" offset="0.02"/><stop stop-color="#929291" offset="0.023"/><stop stop-color="#939392" offset="0.027"/><stop stop-color="#949493" offset="0.031"/><stop stop-color="#959594" offset="0.035"/><stop stop-color="#969695" offset="0.039"/><stop stop-color="#979796" offset="0.043"/><stop stop-color="#989897" offset="0.047"/><stop stop-color="#999998" offset="0.051"/><stop stop-color="#9a9a99" offset="0.055"/><stop stop-color="#9b9b9a" offset="0.059"/><stop stop-color="#9b9b9b" offset="0.063"/><stop stop-color="#9c9c9c" offset="0.066"/><stop stop-color="#9d9d9c" offset="0.07"/><stop stop-color="#9e9e9d" offset="0.074"/><stop stop-color="#9f9f9e" offset="0.078"/><stop stop-color="#9f9f9f" offset="0.082"/><stop stop-color="#a0a0a0" offset="0.086"/><stop stop-color="#a1a1a0" offset="0.09"/><stop stop-color="#a2a2a1" offset="0.094"/><stop stop-color="#a3a3a2" offset="0.098"/><stop stop-color="#a3a3a3" offset="0.102"/><stop stop-color="#a4a4a3" offset="0.105"/><stop stop-color="#a5a5a4" offset="0.109"/><stop stop-color="#a5a5a5" offset="0.113"/><stop stop-color="#a6a6a6" offset="0.117"/><stop stop-color="#a7a7a6" offset="0.121"/><stop stop-color="#a7a7a7" offset="0.125"/><stop stop-color="#a8a8a8" offset="0.129"/><stop stop-color="#a9a9a8" offset="0.133"/><stop stop-color="#a9a9a9" offset="0.137"/><stop stop-color="#aaaaaa" offset="0.141"/><stop stop-color="#ababaa" offset="0.145"/><stop stop-color="#ababab" offset="0.148"/><stop stop-color="#acacab" offset="0.152"/><stop stop-color="#acacac" offset="0.156"/><stop stop-color="#adadad" offset="0.16"/><stop stop-color="#adadad" offset="0.164"/><stop stop-color="#aeaeae" offset="0.168"/><stop stop-color="#afafae" offset="0.172"/><stop stop-color="#afafaf" offset="0.176"/><stop stop-color="#b0b0af" offset="0.18"/><stop stop-color="#b0b0b0" offset="0.184"/><stop stop-color="#b1b1b0" offset="0.188"/><stop stop-color="#b1b1b1" offset="0.195"/><stop stop-color="#b2b2b2" offset="0.203"/><stop stop-color="#b3b3b3" offset="0.211"/><stop stop-color="#b4b4b3" offset="0.219"/><stop stop-color="#b5b5b4" offset="0.227"/><stop stop-color="#b5b5b5" offset="0.234"/><stop stop-color="#b6b6b6" offset="0.242"/><stop stop-color="#b7b7b7" offset="0.25"/><stop stop-color="#b7b7b7" offset="0.258"/><stop stop-color="#b8b8b8" offset="0.266"/><stop stop-color="#b9b9b9" offset="0.273"/><stop stop-color="#b9b9b9" offset="0.281"/><stop stop-color="#bababa" offset="0.289"/><stop stop-color="#bababa" offset="0.297"/><stop stop-color="#bbbbbb" offset="0.313"/><stop stop-color="#bcbcbc" offset="0.328"/><stop stop-color="#bdbdbd" offset="0.344"/><stop stop-color="#bdbdbd" offset="0.359"/><stop stop-color="#bebebe" offset="0.375"/><stop stop-color="#bfbfbf" offset="0.406"/><stop stop-color="#bfbfbf" offset="0.438"/><stop stop-color="silver" offset="0.5"/><stop stop-color="silver" offset="0.563"/><stop stop-color="silver" offset="0.594"/><stop stop-color="#bfbfbf" offset="0.625"/><stop stop-color="#bfbfbf" offset="0.641"/><stop stop-color="#bebebe" offset="0.656"/><stop stop-color="#bdbdbd" offset="0.672"/><stop stop-color="#bcbcbc" offset="0.688"/><stop stop-color="#bcbcbc" offset="0.695"/><stop stop-color="#bbbbbb" offset="0.703"/><stop stop-color="#bbbbbb" offset="0.711"/><stop stop-color="#bababa" offset="0.719"/><stop stop-color="#b9b9b9" offset="0.727"/><stop stop-color="#b9b9b9" offset="0.734"/><stop stop-color="#b8b8b8" offset="0.742"/><stop stop-color="#b7b7b7" offset="0.75"/><stop stop-color="#b7b7b7" offset="0.758"/><stop stop-color="#b6b6b6" offset="0.766"/><stop stop-color="#b5b5b5" offset="0.773"/><stop stop-color="#b4b4b4" offset="0.781"/><stop stop-color="#b3b3b3" offset="0.789"/><stop stop-color="#b2b2b2" offset="0.797"/><stop stop-color="#b1b1b1" offset="0.801"/><stop stop-color="#b1b1b1" offset="0.805"/><stop stop-color="#b0b0b0" offset="0.809"/><stop stop-color="#b0b0b0" offset="0.813"/><stop stop-color="#afafaf" offset="0.816"/><stop stop-color="#afafaf" offset="0.82"/><stop stop-color="#aeaeae" offset="0.824"/><stop stop-color="#aeaead" offset="0.828"/><stop stop-color="#adadad" offset="0.832"/><stop stop-color="#adadac" offset="0.836"/><stop stop-color="#acacac" offset="0.84"/><stop stop-color="#ababab" offset="0.844"/><stop stop-color="#ababaa" offset="0.848"/><stop stop-color="#aaaaaa" offset="0.852"/><stop stop-color="#aaaaa9" offset="0.855"/><stop stop-color="#a9a9a9" offset="0.859"/><stop stop-color="#a8a8a8" offset="0.863"/><stop stop-color="#a8a8a7" offset="0.867"/><stop stop-color="#a7a7a7" offset="0.871"/><stop stop-color="#a6a6a6" offset="0.875"/><stop stop-color="#a6a6a5" offset="0.879"/><stop stop-color="#a5a5a5" offset="0.883"/><stop stop-color="#a4a4a4" offset="0.887"/><stop stop-color="#a4a4a3" offset="0.891"/><stop stop-color="#a3a3a2" offset="0.895"/><stop stop-color="#a2a2a2" offset="0.898"/><stop stop-color="#a1a1a1" offset="0.902"/><stop stop-color="#a1a1a0" offset="0.906"/><stop stop-color="#a0a09f" offset="0.91"/><stop stop-color="#9f9f9f" offset="0.914"/><stop stop-color="#9e9e9e" offset="0.918"/><stop stop-color="#9e9e9d" offset="0.922"/><stop stop-color="#9d9d9c" offset="0.926"/><stop stop-color="#9c9c9b" offset="0.93"/><stop stop-color="#9b9b9b" offset="0.934"/><stop stop-color="#9a9a9a" offset="0.938"/><stop stop-color="#9a9a99" offset="0.941"/><stop stop-color="#999998" offset="0.945"/><stop stop-color="#989897" offset="0.949"/><stop stop-color="#979796" offset="0.953"/><stop stop-color="#969695" offset="0.957"/><stop stop-color="#959595" offset="0.961"/><stop stop-color="#949494" offset="0.965"/><stop stop-color="#949493" offset="0.969"/><stop stop-color="#939392" offset="0.973"/><stop stop-color="#929291" offset="0.977"/><stop stop-color="#919190" offset="0.98"/><stop stop-color="#90908f" offset="0.984"/><stop stop-color="#8f8f8e" offset="0.988"/><stop stop-color="#8e8e8d" offset="0.992"/><stop stop-color="#8d8d8c" offset="0.996"/><stop stop-color="#8c8c8b" offset="1"/></linearGradient><radialGradient gradientTransform="matrix(-1 0 0 1 500.5 460.369)" xmlns:xlink="http://www.w3.org/1999/xlink" gradientUnits="userSpaceOnUse" xlink:type="simple" r="214.574" xlink:actuate="onLoad" cx="0" id="l" cy="0" xlink:show="other" fx="0" fy="0"><stop stop-color="#ffffff" offset="0"/><stop stop-color="#fefefe" offset="0.008"/><stop stop-color="#fdfdfd" offset="0.02"/><stop stop-color="#fdfdfd" offset="0.031"/><stop stop-color="#fcfcfc" offset="0.043"/><stop stop-color="#fbfbfb" offset="0.055"/><stop stop-color="#fafafa" offset="0.066"/><stop stop-color="#fafafa" offset="0.078"/><stop stop-color="#f9f9f9" offset="0.09"/><stop stop-color="#f8f8f8" offset="0.102"/><stop stop-color="#f7f7f7" offset="0.113"/><stop stop-color="#f6f6f6" offset="0.125"/><stop stop-color="#f6f6f6" offset="0.137"/><stop stop-color="#f5f5f5" offset="0.148"/><stop stop-color="#f4f4f4" offset="0.16"/><stop stop-color="#f3f3f3" offset="0.172"/><stop stop-color="#f3f3f3" offset="0.184"/><stop stop-color="#f2f2f2" offset="0.195"/><stop stop-color="#f1f1f1" offset="0.207"/><stop stop-color="#f0f0f0" offset="0.219"/><stop stop-color="#f0f0f0" offset="0.23"/><stop stop-color="#efefef" offset="0.242"/><stop stop-color="#eeeeee" offset="0.254"/><stop stop-color="#eeeeee" offset="0.262"/><stop stop-color="#ededed" offset="0.27"/><stop stop-color="#ededed" offset="0.277"/><stop stop-color="#ececec" offset="0.285"/><stop stop-color="#ececec" offset="0.293"/><stop stop-color="#ebebeb" offset="0.301"/><stop stop-color="#ebebeb" offset="0.309"/><stop stop-color="#eaeaea" offset="0.316"/><stop stop-color="#eaeaea" offset="0.324"/><stop stop-color="#e9e9e9" offset="0.332"/><stop stop-color="#e9e9e9" offset="0.34"/><stop stop-color="#e8e8e8" offset="0.348"/><stop stop-color="#e8e8e8" offset="0.355"/><stop stop-color="#e7e7e7" offset="0.363"/><stop stop-color="#e7e7e7" offset="0.371"/><stop stop-color="#e6e6e6" offset="0.379"/><stop stop-color="#e6e6e6" offset="0.387"/><stop stop-color="#e5e5e5" offset="0.395"/><stop stop-color="#e5e5e5" offset="0.402"/><stop stop-color="#e4e4e4" offset="0.41"/><stop stop-color="#e4e4e4" offset="0.418"/><stop stop-color="#e3e3e3" offset="0.426"/><stop stop-color="#e3e3e3" offset="0.434"/><stop stop-color="#e2e2e2" offset="0.441"/><stop stop-color="#e2e2e2" offset="0.449"/><stop stop-color="#e1e1e1" offset="0.457"/><stop stop-color="#e1e1e1" offset="0.465"/><stop stop-color="#e0e0e0" offset="0.473"/><stop stop-color="#e0e0e0" offset="0.48"/><stop stop-color="#dfdfdf" offset="0.488"/><stop stop-color="#dedede" offset="0.496"/><stop stop-color="#dedede" offset="0.504"/><stop stop-color="#dddddd" offset="0.516"/><stop stop-color="#dcdcdc" offset="0.527"/><stop stop-color="#dcdcdc" offset="0.539"/><stop stop-color="#dbdbdb" offset="0.551"/><stop stop-color="#dadada" offset="0.563"/><stop stop-color="#d9d9d9" offset="0.574"/><stop stop-color="#d9d9d9" offset="0.586"/><stop stop-color="#d8d8d8" offset="0.598"/><stop stop-color="#d7d7d7" offset="0.609"/><stop stop-color="#d6d6d6" offset="0.621"/><stop stop-color="#d6d6d6" offset="0.633"/><stop stop-color="#d5d5d5" offset="0.641"/><stop stop-color="#d5d5d5" offset="0.648"/><stop stop-color="#d4d4d4" offset="0.656"/><stop stop-color="#d4d4d4" offset="0.664"/><stop stop-color="#d3d3d3" offset="0.672"/><stop stop-color="#d3d3d3" offset="0.68"/><stop stop-color="#d2d2d2" offset="0.688"/><stop stop-color="#d2d2d2" offset="0.695"/><stop stop-color="#d1d1d1" offset="0.703"/><stop stop-color="#d1d1d1" offset="0.711"/><stop stop-color="#d0d0d0" offset="0.719"/><stop stop-color="#d0d0d0" offset="0.727"/><stop stop-color="#cfcfcf" offset="0.734"/><stop stop-color="#cfcfcf" offset="0.742"/><stop stop-color="#cecece" offset="0.75"/><stop stop-color="#cdcdcd" offset="0.758"/><stop stop-color="#cdcdcd" offset="0.77"/><stop stop-color="#cccccc" offset="0.781"/><stop stop-color="#cbcbcb" offset="0.793"/><stop stop-color="#cacaca" offset="0.805"/><stop stop-color="#cacaca" offset="0.816"/><stop stop-color="#c9c9c9" offset="0.824"/><stop stop-color="#c9c9c9" offset="0.832"/><stop stop-color="#c8c8c8" offset="0.84"/><stop stop-color="#c8c8c8" offset="0.848"/><stop stop-color="#c7c7c7" offset="0.855"/><stop stop-color="#c7c7c7" offset="0.863"/><stop stop-color="#c6c6c6" offset="0.871"/><stop stop-color="#c5c5c5" offset="0.879"/><stop stop-color="#c5c5c5" offset="0.891"/><stop stop-color="#c4c4c4" offset="0.902"/><stop stop-color="#c3c3c3" offset="0.914"/><stop stop-color="#c3c3c3" offset="0.922"/><stop stop-color="#c2c2c2" offset="0.93"/><stop stop-color="#c2c2c2" offset="0.938"/><stop stop-color="#c1c1c1" offset="0.945"/><stop stop-color="#c1c1c1" offset="0.957"/><stop stop-color="silver" offset="0.965"/><stop stop-color="#bfbfbf" offset="0.973"/><stop stop-color="#bfbfbf" offset="0.984"/><stop stop-color="#bebebe" offset="0.992"/><stop stop-color="#bebebe" offset="1"/></radialGradient></defs><g><g clip-path="url(#a)"><g clip-path="url(#b)"><g clip-path="url(#c)"><path fill="url(#d)" d="M 593.226562 706.136719 L 593.226562 713.9375 L 407.933594 713.9375 L 407.933594 706.136719 Z M 593.226562 706.136719"/></g></g></g><g clip-path="url(#e)"><g clip-path="url(#f)"><g clip-path="url(#g)"><path fill="url(#h)" d="M 597.359375 709.339844 L 403.601562 709.339844 L 403.601562 630.578125 L 597.359375 630.578125 Z M 597.359375 709.339844"/></g></g></g><g clip-path="url(#i)"><g clip-path="url(#j)"><g clip-path="url(#k)"><path fill="url(#l)" d="M 750.5 288.367188 L 750.5 632.367188 L 250.5 632.367188 L 250.5 288.367188 Z M 750.5 288.367188"/></g></g></g><g id="change1_1"><path fill="#1f191a" d="M 250.5 304.515625 C 250.5 295.597656 257.167969 288.367188 265.386719 288.367188 L 735.609375 288.367188 C 743.835938 288.367188 750.5 295.597656 750.5 304.515625 L 750.5 576.796875 L 250.5 576.796875 L 250.5 304.515625"/></g><g id="change2_157" clip-path="url(#m)"><path fill="#c4c4c4" d="M 279.761719 317.785156 L 260.4375 317.785156 L 260.4375 298.460938 L 279.761719 298.460938 L 279.761719 317.785156"/></g><g id="change3_172" clip-path="url(#n)"><path fill="#ffffff" d="M 299.089844 317.785156 L 279.761719 317.785156 L 279.761719 298.460938 L 299.089844 298.460938 L 299.089844 317.785156"/></g><g id="change2_168" clip-path="url(#o)"><path fill="#c4c4c4" d="M 318.414062 317.785156 L 299.089844 317.785156 L 299.089844 298.460938 L 318.414062 298.460938 L 318.414062 317.785156"/></g><g id="change3_163" clip-path="url(#p)"><path fill="#ffffff" d="M 337.738281 317.785156 L 318.414062 317.785156 L 318.414062 298.460938 L 337.738281 298.460938 L 337.738281 317.785156"/></g><g id="change2_155" clip-path="url(#q)"><path fill="#c4c4c4" d="M 357.066406 317.785156 L 337.738281 317.785156 L 337.738281 298.460938 L 357.066406 298.460938 L 357.066406 317.785156"/></g><g id="change3_4" clip-path="url(#r)"><path fill="#ffffff" d="M 376.390625 317.785156 L 357.066406 317.785156 L 357.066406 298.460938 L 376.390625 298.460938 L 376.390625 317.785156"/></g><g id="change2_164" clip-path="url(#s)"><path fill="#c4c4c4" d="M 395.71875 317.785156 L 376.390625 317.785156 L 376.390625 298.460938 L 395.71875 298.460938 L 395.71875 317.785156"/></g><g id="change3_170" clip-path="url(#t)"><path fill="#ffffff" d="M 415.042969 317.785156 L 395.71875 317.785156 L 395.71875 298.460938 L 415.042969 298.460938 L 415.042969 317.785156"/></g><g id="change2_153" clip-path="url(#u)"><path fill="#c4c4c4" d="M 434.371094 317.785156 L 415.042969 317.785156 L 415.042969 298.460938 L 434.371094 298.460938 L 434.371094 317.785156"/></g><g id="change3_149" clip-path="url(#v)"><path fill="#ffffff" d="M 453.695312 317.785156 L 434.371094 317.785156 L 434.371094 298.460938 L 453.695312 298.460938 L 453.695312 317.785156"/></g><g id="change2_156" clip-path="url(#w)"><path fill="#c4c4c4" d="M 473.023438 317.785156 L 453.695312 317.785156 L 453.695312 298.460938 L 473.023438 298.460938 L 473.023438 317.785156"/></g><g id="change3_153" clip-path="url(#x)"><path fill="#ffffff" d="M 492.347656 317.785156 L 473.023438 317.785156 L 473.023438 298.460938 L 492.347656 298.460938 L 492.347656 317.785156"/></g><g id="change2_170" clip-path="url(#y)"><path fill="#c4c4c4" d="M 511.675781 317.785156 L 492.347656 317.785156 L 492.347656 298.460938 L 511.675781 298.460938 L 511.675781 317.785156"/></g><g id="change3_161" clip-path="url(#z)"><path fill="#ffffff" d="M 531 317.785156 L 511.675781 317.785156 L 511.675781 298.460938 L 531 298.460938 L 531 317.785156"/></g><g id="change2_150" clip-path="url(#A)"><path fill="#c4c4c4" d="M 550.324219 317.785156 L 531 317.785156 L 531 298.460938 L 550.324219 298.460938 L 550.324219 317.785156"/></g><g id="change3_159" clip-path="url(#B)"><path fill="#ffffff" d="M 569.652344 317.785156 L 550.324219 317.785156 L 550.324219 298.460938 L 569.652344 298.460938 L 569.652344 317.785156"/></g><g id="change2_154" clip-path="url(#C)"><path fill="#c4c4c4" d="M 588.980469 317.785156 L 569.652344 317.785156 L 569.652344 298.460938 L 588.980469 298.460938 L 588.980469 317.785156"/></g><g id="change3_1" clip-path="url(#D)"><path fill="#ffffff" d="M 608.304688 317.785156 L 588.980469 317.785156 L 588.980469 298.460938 L 608.304688 298.460938 L 608.304688 317.785156"/></g><g id="change2_159" clip-path="url(#E)"><path fill="#c4c4c4" d="M 627.632812 317.785156 L 608.304688 317.785156 L 608.304688 298.460938 L 627.632812 298.460938 L 627.632812 317.785156"/></g><g id="change3_3" clip-path="url(#F)"><path fill="#ffffff" d="M 646.957031 317.785156 L 627.632812 317.785156 L 627.632812 298.460938 L 646.957031 298.460938 L 646.957031 317.785156"/></g><g id="change2_1" clip-path="url(#G)"><path fill="#c4c4c4" d="M 666.28125 317.785156 L 646.957031 317.785156 L 646.957031 298.460938 L 666.28125 298.460938 L 666.28125 317.785156"/></g><g id="change3_158" clip-path="url(#H)"><path fill="#ffffff" d="M 685.609375 317.785156 L 666.28125 317.785156 L 666.28125 298.460938 L 685.609375 298.460938 L 685.609375 317.785156"/></g><g id="change2_152" clip-path="url(#I)"><path fill="#c4c4c4" d="M 704.933594 317.785156 L 685.609375 317.785156 L 685.609375 298.460938 L 704.933594 298.460938 L 704.933594 317.785156"/></g><g id="change3_173" clip-path="url(#J)"><path fill="#ffffff" d="M 724.261719 317.785156 L 704.933594 317.785156 L 704.933594 298.460938 L 724.261719 298.460938 L 724.261719 317.785156"/></g><g id="change2_166" clip-path="url(#K)"><path fill="#c4c4c4" d="M 743.585938 317.785156 L 724.261719 317.785156 L 724.261719 298.460938 L 743.585938 298.460938 L 743.585938 317.785156"/></g><g id="change3_5"><path fill="#ffffff" d="M 279.761719 337.113281 L 260.4375 337.113281 L 260.4375 317.785156 L 279.761719 317.785156 L 279.761719 337.113281"/></g><g id="change2_5"><path fill="#c4c4c4" d="M 299.089844 337.113281 L 279.761719 337.113281 L 279.761719 317.785156 L 299.089844 317.785156 L 299.089844 337.113281"/></g><g id="change3_6"><path fill="#ffffff" d="M 318.414062 337.113281 L 299.089844 337.113281 L 299.089844 317.785156 L 318.414062 317.785156 L 318.414062 337.113281"/></g><g id="change2_6"><path fill="#c4c4c4" d="M 337.738281 337.113281 L 318.414062 337.113281 L 318.414062 317.785156 L 337.738281 317.785156 L 337.738281 337.113281"/></g><g id="change3_7"><path fill="#ffffff" d="M 357.066406 337.113281 L 337.738281 337.113281 L 337.738281 317.785156 L 357.066406 317.785156 L 357.066406 337.113281"/></g><g id="change2_7"><path fill="#c4c4c4" d="M 376.390625 337.113281 L 357.066406 337.113281 L 357.066406 317.785156 L 376.390625 317.785156 L 376.390625 337.113281"/></g><g id="change3_8"><path fill="#ffffff" d="M 395.71875 337.113281 L 376.390625 337.113281 L 376.390625 317.785156 L 395.71875 317.785156 L 395.71875 337.113281"/></g><g id="change2_8"><path fill="#c4c4c4" d="M 415.042969 337.113281 L 395.71875 337.113281 L 395.71875 317.785156 L 415.042969 317.785156 L 415.042969 337.113281"/></g><g id="change3_9"><path fill="#ffffff" d="M 434.371094 337.113281 L 415.042969 337.113281 L 415.042969 317.785156 L 434.371094 317.785156 L 434.371094 337.113281"/></g><g id="change2_9"><path fill="#c4c4c4" d="M 453.695312 337.113281 L 434.371094 337.113281 L 434.371094 317.785156 L 453.695312 317.785156 L 453.695312 337.113281"/></g><g id="change3_10"><path fill="#ffffff" d="M 473.023438 337.113281 L 453.695312 337.113281 L 453.695312 317.785156 L 473.023438 317.785156 L 473.023438 337.113281"/></g><g id="change2_10"><path fill="#c4c4c4" d="M 492.347656 337.113281 L 473.023438 337.113281 L 473.023438 317.785156 L 492.347656 317.785156 L 492.347656 337.113281"/></g><g id="change3_11"><path fill="#ffffff" d="M 511.675781 337.113281 L 492.347656 337.113281 L 492.347656 317.785156 L 511.675781 317.785156 L 511.675781 337.113281"/></g><g id="change2_11"><path fill="#c4c4c4" d="M 531 337.113281 L 511.675781 337.113281 L 511.675781 317.785156 L 531 317.785156 L 531 337.113281"/></g><g id="change3_12"><path fill="#ffffff" d="M 550.324219 337.113281 L 531 337.113281 L 531 317.785156 L 550.324219 317.785156 L 550.324219 337.113281"/></g><g id="change2_12"><path fill="#c4c4c4" d="M 569.652344 337.113281 L 550.324219 337.113281 L 550.324219 317.785156 L 569.652344 317.785156 L 569.652344 337.113281"/></g><g id="change3_13"><path fill="#ffffff" d="M 588.980469 337.113281 L 569.652344 337.113281 L 569.652344 317.785156 L 588.980469 317.785156 L 588.980469 337.113281"/></g><g id="change2_13"><path fill="#c4c4c4" d="M 608.304688 337.113281 L 588.980469 337.113281 L 588.980469 317.785156 L 608.304688 317.785156 L 608.304688 337.113281"/></g><g id="change3_14"><path fill="#ffffff" d="M 627.632812 337.113281 L 608.304688 337.113281 L 608.304688 317.785156 L 627.632812 317.785156 L 627.632812 337.113281"/></g><g id="change2_14"><path fill="#c4c4c4" d="M 646.957031 337.113281 L 627.632812 337.113281 L 627.632812 317.785156 L 646.957031 317.785156 L 646.957031 337.113281"/></g><g id="change3_15"><path fill="#ffffff" d="M 666.28125 337.113281 L 646.957031 337.113281 L 646.957031 317.785156 L 666.28125 317.785156 L 666.28125 337.113281"/></g><g id="change2_15"><path fill="#c4c4c4" d="M 685.609375 337.113281 L 666.28125 337.113281 L 666.28125 317.785156 L 685.609375 317.785156 L 685.609375 337.113281"/></g><g id="change3_16"><path fill="#ffffff" d="M 704.933594 337.113281 L 685.609375 337.113281 L 685.609375 317.785156 L 704.933594 317.785156 L 704.933594 337.113281"/></g><g id="change2_16"><path fill="#c4c4c4" d="M 724.261719 337.113281 L 704.933594 337.113281 L 704.933594 317.785156 L 724.261719 317.785156 L 724.261719 337.113281"/></g><g id="change3_166" clip-path="url(#L)"><path fill="#ffffff" d="M 743.585938 337.113281 L 724.261719 337.113281 L 724.261719 317.785156 L 743.585938 317.785156 L 743.585938 337.113281"/></g><g id="change2_17"><path fill="#c4c4c4" d="M 279.761719 356.4375 L 260.4375 356.4375 L 260.4375 337.113281 L 279.761719 337.113281 L 279.761719 356.4375"/></g><g id="change3_17"><path fill="#ffffff" d="M 299.089844 356.4375 L 279.761719 356.4375 L 279.761719 337.113281 L 299.089844 337.113281 L 299.089844 356.4375"/></g><g id="change2_18"><path fill="#c4c4c4" d="M 318.414062 356.4375 L 299.089844 356.4375 L 299.089844 337.113281 L 318.414062 337.113281 L 318.414062 356.4375"/></g><g id="change3_18"><path fill="#ffffff" d="M 337.738281 356.4375 L 318.414062 356.4375 L 318.414062 337.113281 L 337.738281 337.113281 L 337.738281 356.4375"/></g><g id="change2_19"><path fill="#c4c4c4" d="M 357.066406 356.4375 L 337.738281 356.4375 L 337.738281 337.113281 L 357.066406 337.113281 L 357.066406 356.4375"/></g><g id="change3_19"><path fill="#ffffff" d="M 376.390625 356.4375 L 357.066406 356.4375 L 357.066406 337.113281 L 376.390625 337.113281 L 376.390625 356.4375"/></g><g id="change2_20"><path fill="#c4c4c4" d="M 395.71875 356.4375 L 376.390625 356.4375 L 376.390625 337.113281 L 395.71875 337.113281 L 395.71875 356.4375"/></g><g id="change3_20"><path fill="#ffffff" d="M 415.042969 356.4375 L 395.71875 356.4375 L 395.71875 337.113281 L 415.042969 337.113281 L 415.042969 356.4375"/></g><g id="change2_21"><path fill="#c4c4c4" d="M 434.371094 356.4375 L 415.042969 356.4375 L 415.042969 337.113281 L 434.371094 337.113281 L 434.371094 356.4375"/></g><g id="change3_21"><path fill="#ffffff" d="M 453.695312 356.4375 L 434.371094 356.4375 L 434.371094 337.113281 L 453.695312 337.113281 L 453.695312 356.4375"/></g><g id="change2_22"><path fill="#c4c4c4" d="M 473.023438 356.4375 L 453.695312 356.4375 L 453.695312 337.113281 L 473.023438 337.113281 L 473.023438 356.4375"/></g><g id="change3_22"><path fill="#ffffff" d="M 492.347656 356.4375 L 473.023438 356.4375 L 473.023438 337.113281 L 492.347656 337.113281 L 492.347656 356.4375"/></g><g id="change2_23"><path fill="#c4c4c4" d="M 511.675781 356.4375 L 492.347656 356.4375 L 492.347656 337.113281 L 511.675781 337.113281 L 511.675781 356.4375"/></g><g id="change3_23"><path fill="#ffffff" d="M 531 356.4375 L 511.675781 356.4375 L 511.675781 337.113281 L 531 337.113281 L 531 356.4375"/></g><g id="change2_24"><path fill="#c4c4c4" d="M 550.324219 356.4375 L 531 356.4375 L 531 337.113281 L 550.324219 337.113281 L 550.324219 356.4375"/></g><g id="change3_24"><path fill="#ffffff" d="M 569.652344 356.4375 L 550.324219 356.4375 L 550.324219 337.113281 L 569.652344 337.113281 L 569.652344 356.4375"/></g><g id="change2_25"><path fill="#c4c4c4" d="M 588.980469 356.4375 L 569.652344 356.4375 L 569.652344 337.113281 L 588.980469 337.113281 L 588.980469 356.4375"/></g><g id="change3_25"><path fill="#ffffff" d="M 608.304688 356.4375 L 588.980469 356.4375 L 588.980469 337.113281 L 608.304688 337.113281 L 608.304688 356.4375"/></g><g id="change2_26"><path fill="#c4c4c4" d="M 627.632812 356.4375 L 608.304688 356.4375 L 608.304688 337.113281 L 627.632812 337.113281 L 627.632812 356.4375"/></g><g id="change3_26"><path fill="#ffffff" d="M 646.957031 356.4375 L 627.632812 356.4375 L 627.632812 337.113281 L 646.957031 337.113281 L 646.957031 356.4375"/></g><g id="change2_27"><path fill="#c4c4c4" d="M 666.28125 356.4375 L 646.957031 356.4375 L 646.957031 337.113281 L 666.28125 337.113281 L 666.28125 356.4375"/></g><g id="change3_27"><path fill="#ffffff" d="M 685.609375 356.4375 L 666.28125 356.4375 L 666.28125 337.113281 L 685.609375 337.113281 L 685.609375 356.4375"/></g><g id="change2_28"><path fill="#c4c4c4" d="M 704.933594 356.4375 L 685.609375 356.4375 L 685.609375 337.113281 L 704.933594 337.113281 L 704.933594 356.4375"/></g><g id="change3_28"><path fill="#ffffff" d="M 724.261719 356.4375 L 704.933594 356.4375 L 704.933594 337.113281 L 724.261719 337.113281 L 724.261719 356.4375"/></g><g id="change2_151" clip-path="url(#M)"><path fill="#c4c4c4" d="M 743.585938 356.4375 L 724.261719 356.4375 L 724.261719 337.113281 L 743.585938 337.113281 L 743.585938 356.4375"/></g><g id="change3_29"><path fill="#ffffff" d="M 279.761719 375.765625 L 260.4375 375.765625 L 260.4375 356.4375 L 279.761719 356.4375 L 279.761719 375.765625"/></g><g id="change2_29"><path fill="#c4c4c4" d="M 299.089844 375.765625 L 279.761719 375.765625 L 279.761719 356.4375 L 299.089844 356.4375 L 299.089844 375.765625"/></g><g id="change3_30"><path fill="#ffffff" d="M 318.414062 375.765625 L 299.089844 375.765625 L 299.089844 356.4375 L 318.414062 356.4375 L 318.414062 375.765625"/></g><g id="change2_30"><path fill="#c4c4c4" d="M 337.738281 375.765625 L 318.414062 375.765625 L 318.414062 356.4375 L 337.738281 356.4375 L 337.738281 375.765625"/></g><g id="change3_31"><path fill="#ffffff" d="M 357.066406 375.765625 L 337.738281 375.765625 L 337.738281 356.4375 L 357.066406 356.4375 L 357.066406 375.765625"/></g><g id="change2_31"><path fill="#c4c4c4" d="M 376.390625 375.765625 L 357.066406 375.765625 L 357.066406 356.4375 L 376.390625 356.4375 L 376.390625 375.765625"/></g><g id="change3_32"><path fill="#ffffff" d="M 395.71875 375.765625 L 376.390625 375.765625 L 376.390625 356.4375 L 395.71875 356.4375 L 395.71875 375.765625"/></g><g id="change2_32"><path fill="#c4c4c4" d="M 415.042969 375.765625 L 395.71875 375.765625 L 395.71875 356.4375 L 415.042969 356.4375 L 415.042969 375.765625"/></g><g id="change3_33"><path fill="#ffffff" d="M 434.371094 375.765625 L 415.042969 375.765625 L 415.042969 356.4375 L 434.371094 356.4375 L 434.371094 375.765625"/></g><g id="change2_33"><path fill="#c4c4c4" d="M 453.695312 375.765625 L 434.371094 375.765625 L 434.371094 356.4375 L 453.695312 356.4375 L 453.695312 375.765625"/></g><g id="change3_34"><path fill="#ffffff" d="M 473.023438 375.765625 L 453.695312 375.765625 L 453.695312 356.4375 L 473.023438 356.4375 L 473.023438 375.765625"/></g><g id="change2_34"><path fill="#c4c4c4" d="M 492.347656 375.765625 L 473.023438 375.765625 L 473.023438 356.4375 L 492.347656 356.4375 L 492.347656 375.765625"/></g><g id="change3_35"><path fill="#ffffff" d="M 511.675781 375.765625 L 492.347656 375.765625 L 492.347656 356.4375 L 511.675781 356.4375 L 511.675781 375.765625"/></g><g id="change2_35"><path fill="#c4c4c4" d="M 531 375.765625 L 511.675781 375.765625 L 511.675781 356.4375 L 531 356.4375 L 531 375.765625"/></g><g id="change3_36"><path fill="#ffffff" d="M 550.324219 375.765625 L 531 375.765625 L 531 356.4375 L 550.324219 356.4375 L 550.324219 375.765625"/></g><g id="change2_36"><path fill="#c4c4c4" d="M 569.652344 375.765625 L 550.324219 375.765625 L 550.324219 356.4375 L 569.652344 356.4375 L 569.652344 375.765625"/></g><g id="change3_37"><path fill="#ffffff" d="M 588.980469 375.765625 L 569.652344 375.765625 L 569.652344 356.4375 L 588.980469 356.4375 L 588.980469 375.765625"/></g><g id="change2_37"><path fill="#c4c4c4" d="M 608.304688 375.765625 L 588.980469 375.765625 L 588.980469 356.4375 L 608.304688 356.4375 L 608.304688 375.765625"/></g><g id="change3_38"><path fill="#ffffff" d="M 627.632812 375.765625 L 608.304688 375.765625 L 608.304688 356.4375 L 627.632812 356.4375 L 627.632812 375.765625"/></g><g id="change2_38"><path fill="#c4c4c4" d="M 646.957031 375.765625 L 627.632812 375.765625 L 627.632812 356.4375 L 646.957031 356.4375 L 646.957031 375.765625"/></g><g id="change3_39"><path fill="#ffffff" d="M 666.28125 375.765625 L 646.957031 375.765625 L 646.957031 356.4375 L 666.28125 356.4375 L 666.28125 375.765625"/></g><g id="change2_39"><path fill="#c4c4c4" d="M 685.609375 375.765625 L 666.28125 375.765625 L 666.28125 356.4375 L 685.609375 356.4375 L 685.609375 375.765625"/></g><g id="change3_40"><path fill="#ffffff" d="M 704.933594 375.765625 L 685.609375 375.765625 L 685.609375 356.4375 L 704.933594 356.4375 L 704.933594 375.765625"/></g><g id="change2_40"><path fill="#c4c4c4" d="M 724.261719 375.765625 L 704.933594 375.765625 L 704.933594 356.4375 L 724.261719 356.4375 L 724.261719 375.765625"/></g><g id="change3_165" clip-path="url(#N)"><path fill="#ffffff" d="M 743.585938 375.765625 L 724.261719 375.765625 L 724.261719 356.4375 L 743.585938 356.4375 L 743.585938 375.765625"/></g><g id="change2_41"><path fill="#c4c4c4" d="M 279.761719 395.089844 L 260.4375 395.089844 L 260.4375 375.765625 L 279.761719 375.765625 L 279.761719 395.089844"/></g><g id="change3_41"><path fill="#ffffff" d="M 299.089844 395.089844 L 279.761719 395.089844 L 279.761719 375.765625 L 299.089844 375.765625 L 299.089844 395.089844"/></g><g id="change2_42"><path fill="#c4c4c4" d="M 318.414062 395.089844 L 299.089844 395.089844 L 299.089844 375.765625 L 318.414062 375.765625 L 318.414062 395.089844"/></g><g id="change3_42"><path fill="#ffffff" d="M 337.738281 395.089844 L 318.414062 395.089844 L 318.414062 375.765625 L 337.738281 375.765625 L 337.738281 395.089844"/></g><g id="change2_43"><path fill="#c4c4c4" d="M 357.066406 395.089844 L 337.738281 395.089844 L 337.738281 375.765625 L 357.066406 375.765625 L 357.066406 395.089844"/></g><g id="change3_43"><path fill="#ffffff" d="M 376.390625 395.089844 L 357.066406 395.089844 L 357.066406 375.765625 L 376.390625 375.765625 L 376.390625 395.089844"/></g><g id="change2_44"><path fill="#c4c4c4" d="M 395.71875 395.089844 L 376.390625 395.089844 L 376.390625 375.765625 L 395.71875 375.765625 L 395.71875 395.089844"/></g><g id="change3_44"><path fill="#ffffff" d="M 415.042969 395.089844 L 395.71875 395.089844 L 395.71875 375.765625 L 415.042969 375.765625 L 415.042969 395.089844"/></g><g id="change2_45"><path fill="#c4c4c4" d="M 434.371094 395.089844 L 415.042969 395.089844 L 415.042969 375.765625 L 434.371094 375.765625 L 434.371094 395.089844"/></g><g id="change3_45"><path fill="#ffffff" d="M 453.695312 395.089844 L 434.371094 395.089844 L 434.371094 375.765625 L 453.695312 375.765625 L 453.695312 395.089844"/></g><g id="change2_46"><path fill="#c4c4c4" d="M 473.023438 395.089844 L 453.695312 395.089844 L 453.695312 375.765625 L 473.023438 375.765625 L 473.023438 395.089844"/></g><g id="change3_46"><path fill="#ffffff" d="M 492.347656 395.089844 L 473.023438 395.089844 L 473.023438 375.765625 L 492.347656 375.765625 L 492.347656 395.089844"/></g><g id="change2_47"><path fill="#c4c4c4" d="M 511.675781 395.089844 L 492.347656 395.089844 L 492.347656 375.765625 L 511.675781 375.765625 L 511.675781 395.089844"/></g><g id="change3_47"><path fill="#ffffff" d="M 531 395.089844 L 511.675781 395.089844 L 511.675781 375.765625 L 531 375.765625 L 531 395.089844"/></g><g id="change2_48"><path fill="#c4c4c4" d="M 550.324219 395.089844 L 531 395.089844 L 531 375.765625 L 550.324219 375.765625 L 550.324219 395.089844"/></g><g id="change3_48"><path fill="#ffffff" d="M 569.652344 395.089844 L 550.324219 395.089844 L 550.324219 375.765625 L 569.652344 375.765625 L 569.652344 395.089844"/></g><g id="change2_49"><path fill="#c4c4c4" d="M 588.980469 395.089844 L 569.652344 395.089844 L 569.652344 375.765625 L 588.980469 375.765625 L 588.980469 395.089844"/></g><g id="change3_49"><path fill="#ffffff" d="M 608.304688 395.089844 L 588.980469 395.089844 L 588.980469 375.765625 L 608.304688 375.765625 L 608.304688 395.089844"/></g><g id="change2_50"><path fill="#c4c4c4" d="M 627.632812 395.089844 L 608.304688 395.089844 L 608.304688 375.765625 L 627.632812 375.765625 L 627.632812 395.089844"/></g><g id="change3_50"><path fill="#ffffff" d="M 646.957031 395.089844 L 627.632812 395.089844 L 627.632812 375.765625 L 646.957031 375.765625 L 646.957031 395.089844"/></g><g id="change2_51"><path fill="#c4c4c4" d="M 666.28125 395.089844 L 646.957031 395.089844 L 646.957031 375.765625 L 666.28125 375.765625 L 666.28125 395.089844"/></g><g id="change3_51"><path fill="#ffffff" d="M 685.609375 395.089844 L 666.28125 395.089844 L 666.28125 375.765625 L 685.609375 375.765625 L 685.609375 395.089844"/></g><g id="change2_52"><path fill="#c4c4c4" d="M 704.933594 395.089844 L 685.609375 395.089844 L 685.609375 375.765625 L 704.933594 375.765625 L 704.933594 395.089844"/></g><g id="change3_52"><path fill="#ffffff" d="M 724.261719 395.089844 L 704.933594 395.089844 L 704.933594 375.765625 L 724.261719 375.765625 L 724.261719 395.089844"/></g><g id="change2_174" clip-path="url(#O)"><path fill="#c4c4c4" d="M 743.585938 395.089844 L 724.261719 395.089844 L 724.261719 375.765625 L 743.585938 375.765625 L 743.585938 395.089844"/></g><g id="change3_53"><path fill="#ffffff" d="M 279.761719 414.417969 L 260.4375 414.417969 L 260.4375 395.089844 L 279.761719 395.089844 L 279.761719 414.417969"/></g><g id="change2_53"><path fill="#c4c4c4" d="M 299.089844 414.417969 L 279.761719 414.417969 L 279.761719 395.089844 L 299.089844 395.089844 L 299.089844 414.417969"/></g><g id="change3_54"><path fill="#ffffff" d="M 318.414062 414.417969 L 299.089844 414.417969 L 299.089844 395.089844 L 318.414062 395.089844 L 318.414062 414.417969"/></g><g id="change2_54"><path fill="#c4c4c4" d="M 337.738281 414.417969 L 318.414062 414.417969 L 318.414062 395.089844 L 337.738281 395.089844 L 337.738281 414.417969"/></g><g id="change3_55"><path fill="#ffffff" d="M 357.066406 414.417969 L 337.738281 414.417969 L 337.738281 395.089844 L 357.066406 395.089844 L 357.066406 414.417969"/></g><g id="change2_55"><path fill="#c4c4c4" d="M 376.390625 414.417969 L 357.066406 414.417969 L 357.066406 395.089844 L 376.390625 395.089844 L 376.390625 414.417969"/></g><g id="change3_56"><path fill="#ffffff" d="M 395.71875 414.417969 L 376.390625 414.417969 L 376.390625 395.089844 L 395.71875 395.089844 L 395.71875 414.417969"/></g><g id="change2_56"><path fill="#c4c4c4" d="M 415.042969 414.417969 L 395.71875 414.417969 L 395.71875 395.089844 L 415.042969 395.089844 L 415.042969 414.417969"/></g><g id="change3_57"><path fill="#ffffff" d="M 434.371094 414.417969 L 415.042969 414.417969 L 415.042969 395.089844 L 434.371094 395.089844 L 434.371094 414.417969"/></g><g id="change2_57"><path fill="#c4c4c4" d="M 453.695312 414.417969 L 434.371094 414.417969 L 434.371094 395.089844 L 453.695312 395.089844 L 453.695312 414.417969"/></g><g id="change3_58"><path fill="#ffffff" d="M 473.023438 414.417969 L 453.695312 414.417969 L 453.695312 395.089844 L 473.023438 395.089844 L 473.023438 414.417969"/></g><g id="change2_58"><path fill="#c4c4c4" d="M 492.347656 414.417969 L 473.023438 414.417969 L 473.023438 395.089844 L 492.347656 395.089844 L 492.347656 414.417969"/></g><g id="change3_59"><path fill="#ffffff" d="M 511.675781 414.417969 L 492.347656 414.417969 L 492.347656 395.089844 L 511.675781 395.089844 L 511.675781 414.417969"/></g><g id="change2_59"><path fill="#c4c4c4" d="M 531 414.417969 L 511.675781 414.417969 L 511.675781 395.089844 L 531 395.089844 L 531 414.417969"/></g><g id="change3_60"><path fill="#ffffff" d="M 550.324219 414.417969 L 531 414.417969 L 531 395.089844 L 550.324219 395.089844 L 550.324219 414.417969"/></g><g id="change2_60"><path fill="#c4c4c4" d="M 569.652344 414.417969 L 550.324219 414.417969 L 550.324219 395.089844 L 569.652344 395.089844 L 569.652344 414.417969"/></g><g id="change3_61"><path fill="#ffffff" d="M 588.980469 414.417969 L 569.652344 414.417969 L 569.652344 395.089844 L 588.980469 395.089844 L 588.980469 414.417969"/></g><g id="change2_61"><path fill="#c4c4c4" d="M 608.304688 414.417969 L 588.980469 414.417969 L 588.980469 395.089844 L 608.304688 395.089844 L 608.304688 414.417969"/></g><g id="change3_62"><path fill="#ffffff" d="M 627.632812 414.417969 L 608.304688 414.417969 L 608.304688 395.089844 L 627.632812 395.089844 L 627.632812 414.417969"/></g><g id="change2_62"><path fill="#c4c4c4" d="M 646.957031 414.417969 L 627.632812 414.417969 L 627.632812 395.089844 L 646.957031 395.089844 L 646.957031 414.417969"/></g><g id="change3_63"><path fill="#ffffff" d="M 666.28125 414.417969 L 646.957031 414.417969 L 646.957031 395.089844 L 666.28125 395.089844 L 666.28125 414.417969"/></g><g id="change2_63"><path fill="#c4c4c4" d="M 685.609375 414.417969 L 666.28125 414.417969 L 666.28125 395.089844 L 685.609375 395.089844 L 685.609375 414.417969"/></g><g id="change3_64"><path fill="#ffffff" d="M 704.933594 414.417969 L 685.609375 414.417969 L 685.609375 395.089844 L 704.933594 395.089844 L 704.933594 414.417969"/></g><g id="change2_64"><path fill="#c4c4c4" d="M 724.261719 414.417969 L 704.933594 414.417969 L 704.933594 395.089844 L 724.261719 395.089844 L 724.261719 414.417969"/></g><g id="change3_171" clip-path="url(#P)"><path fill="#ffffff" d="M 743.585938 414.417969 L 724.261719 414.417969 L 724.261719 395.089844 L 743.585938 395.089844 L 743.585938 414.417969"/></g><g id="change2_65"><path fill="#c4c4c4" d="M 279.761719 433.742188 L 260.4375 433.742188 L 260.4375 414.417969 L 279.761719 414.417969 L 279.761719 433.742188"/></g><g id="change3_65"><path fill="#ffffff" d="M 299.089844 433.742188 L 279.761719 433.742188 L 279.761719 414.417969 L 299.089844 414.417969 L 299.089844 433.742188"/></g><g id="change2_66"><path fill="#c4c4c4" d="M 318.414062 433.742188 L 299.089844 433.742188 L 299.089844 414.417969 L 318.414062 414.417969 L 318.414062 433.742188"/></g><g id="change3_66"><path fill="#ffffff" d="M 337.738281 433.742188 L 318.414062 433.742188 L 318.414062 414.417969 L 337.738281 414.417969 L 337.738281 433.742188"/></g><g id="change2_67"><path fill="#c4c4c4" d="M 357.066406 433.742188 L 337.738281 433.742188 L 337.738281 414.417969 L 357.066406 414.417969 L 357.066406 433.742188"/></g><g id="change3_67"><path fill="#ffffff" d="M 376.390625 433.742188 L 357.066406 433.742188 L 357.066406 414.417969 L 376.390625 414.417969 L 376.390625 433.742188"/></g><g id="change2_68"><path fill="#c4c4c4" d="M 395.71875 433.742188 L 376.390625 433.742188 L 376.390625 414.417969 L 395.71875 414.417969 L 395.71875 433.742188"/></g><g id="change3_68"><path fill="#ffffff" d="M 415.042969 433.742188 L 395.71875 433.742188 L 395.71875 414.417969 L 415.042969 414.417969 L 415.042969 433.742188"/></g><g id="change2_69"><path fill="#c4c4c4" d="M 434.371094 433.742188 L 415.042969 433.742188 L 415.042969 414.417969 L 434.371094 414.417969 L 434.371094 433.742188"/></g><g id="change3_69"><path fill="#ffffff" d="M 453.695312 433.742188 L 434.371094 433.742188 L 434.371094 414.417969 L 453.695312 414.417969 L 453.695312 433.742188"/></g><g id="change2_70"><path fill="#c4c4c4" d="M 473.023438 433.742188 L 453.695312 433.742188 L 453.695312 414.417969 L 473.023438 414.417969 L 473.023438 433.742188"/></g><g id="change3_70"><path fill="#ffffff" d="M 492.347656 433.742188 L 473.023438 433.742188 L 473.023438 414.417969 L 492.347656 414.417969 L 492.347656 433.742188"/></g><g id="change2_71"><path fill="#c4c4c4" d="M 511.675781 433.742188 L 492.347656 433.742188 L 492.347656 414.417969 L 511.675781 414.417969 L 511.675781 433.742188"/></g><g id="change3_71"><path fill="#ffffff" d="M 531 433.742188 L 511.675781 433.742188 L 511.675781 414.417969 L 531 414.417969 L 531 433.742188"/></g><g id="change2_72"><path fill="#c4c4c4" d="M 550.324219 433.742188 L 531 433.742188 L 531 414.417969 L 550.324219 414.417969 L 550.324219 433.742188"/></g><g id="change3_72"><path fill="#ffffff" d="M 569.652344 433.742188 L 550.324219 433.742188 L 550.324219 414.417969 L 569.652344 414.417969 L 569.652344 433.742188"/></g><g id="change2_73"><path fill="#c4c4c4" d="M 588.980469 433.742188 L 569.652344 433.742188 L 569.652344 414.417969 L 588.980469 414.417969 L 588.980469 433.742188"/></g><g id="change3_73"><path fill="#ffffff" d="M 608.304688 433.742188 L 588.980469 433.742188 L 588.980469 414.417969 L 608.304688 414.417969 L 608.304688 433.742188"/></g><g id="change2_74"><path fill="#c4c4c4" d="M 627.632812 433.742188 L 608.304688 433.742188 L 608.304688 414.417969 L 627.632812 414.417969 L 627.632812 433.742188"/></g><g id="change3_74"><path fill="#ffffff" d="M 646.957031 433.742188 L 627.632812 433.742188 L 627.632812 414.417969 L 646.957031 414.417969 L 646.957031 433.742188"/></g><g id="change2_75"><path fill="#c4c4c4" d="M 666.28125 433.742188 L 646.957031 433.742188 L 646.957031 414.417969 L 666.28125 414.417969 L 666.28125 433.742188"/></g><g id="change3_75"><path fill="#ffffff" d="M 685.609375 433.742188 L 666.28125 433.742188 L 666.28125 414.417969 L 685.609375 414.417969 L 685.609375 433.742188"/></g><g id="change2_76"><path fill="#c4c4c4" d="M 704.933594 433.742188 L 685.609375 433.742188 L 685.609375 414.417969 L 704.933594 414.417969 L 704.933594 433.742188"/></g><g id="change3_76"><path fill="#ffffff" d="M 724.261719 433.742188 L 704.933594 433.742188 L 704.933594 414.417969 L 724.261719 414.417969 L 724.261719 433.742188"/></g><g id="change2_175" clip-path="url(#Q)"><path fill="#c4c4c4" d="M 743.585938 433.742188 L 724.261719 433.742188 L 724.261719 414.417969 L 743.585938 414.417969 L 743.585938 433.742188"/></g><g id="change3_77"><path fill="#ffffff" d="M 279.761719 453.066406 L 260.4375 453.066406 L 260.4375 433.742188 L 279.761719 433.742188 L 279.761719 453.066406"/></g><g id="change2_77"><path fill="#c4c4c4" d="M 299.089844 453.066406 L 279.761719 453.066406 L 279.761719 433.742188 L 299.089844 433.742188 L 299.089844 453.066406"/></g><g id="change3_78"><path fill="#ffffff" d="M 318.414062 453.066406 L 299.089844 453.066406 L 299.089844 433.742188 L 318.414062 433.742188 L 318.414062 453.066406"/></g><g id="change2_78"><path fill="#c4c4c4" d="M 337.738281 453.066406 L 318.414062 453.066406 L 318.414062 433.742188 L 337.738281 433.742188 L 337.738281 453.066406"/></g><g id="change3_79"><path fill="#ffffff" d="M 357.066406 453.066406 L 337.738281 453.066406 L 337.738281 433.742188 L 357.066406 433.742188 L 357.066406 453.066406"/></g><g id="change2_79"><path fill="#c4c4c4" d="M 376.390625 453.066406 L 357.066406 453.066406 L 357.066406 433.742188 L 376.390625 433.742188 L 376.390625 453.066406"/></g><g id="change3_80"><path fill="#ffffff" d="M 395.71875 453.066406 L 376.390625 453.066406 L 376.390625 433.742188 L 395.71875 433.742188 L 395.71875 453.066406"/></g><g id="change2_80"><path fill="#c4c4c4" d="M 415.042969 453.066406 L 395.71875 453.066406 L 395.71875 433.742188 L 415.042969 433.742188 L 415.042969 453.066406"/></g><g id="change3_81"><path fill="#ffffff" d="M 434.371094 453.066406 L 415.042969 453.066406 L 415.042969 433.742188 L 434.371094 433.742188 L 434.371094 453.066406"/></g><g id="change2_81"><path fill="#c4c4c4" d="M 453.695312 453.066406 L 434.371094 453.066406 L 434.371094 433.742188 L 453.695312 433.742188 L 453.695312 453.066406"/></g><g id="change3_82"><path fill="#ffffff" d="M 473.023438 453.066406 L 453.695312 453.066406 L 453.695312 433.742188 L 473.023438 433.742188 L 473.023438 453.066406"/></g><g id="change2_82"><path fill="#c4c4c4" d="M 492.347656 453.066406 L 473.023438 453.066406 L 473.023438 433.742188 L 492.347656 433.742188 L 492.347656 453.066406"/></g><g id="change3_83"><path fill="#ffffff" d="M 511.675781 453.066406 L 492.347656 453.066406 L 492.347656 433.742188 L 511.675781 433.742188 L 511.675781 453.066406"/></g><g id="change2_83"><path fill="#c4c4c4" d="M 531 453.066406 L 511.675781 453.066406 L 511.675781 433.742188 L 531 433.742188 L 531 453.066406"/></g><g id="change3_84"><path fill="#ffffff" d="M 550.324219 453.066406 L 531 453.066406 L 531 433.742188 L 550.324219 433.742188 L 550.324219 453.066406"/></g><g id="change2_84"><path fill="#c4c4c4" d="M 569.652344 453.066406 L 550.324219 453.066406 L 550.324219 433.742188 L 569.652344 433.742188 L 569.652344 453.066406"/></g><g id="change3_85"><path fill="#ffffff" d="M 588.980469 453.066406 L 569.652344 453.066406 L 569.652344 433.742188 L 588.980469 433.742188 L 588.980469 453.066406"/></g><g id="change2_85"><path fill="#c4c4c4" d="M 608.304688 453.066406 L 588.980469 453.066406 L 588.980469 433.742188 L 608.304688 433.742188 L 608.304688 453.066406"/></g><g id="change3_86"><path fill="#ffffff" d="M 627.628906 453.066406 L 608.304688 453.066406 L 608.304688 433.742188 L 627.628906 433.742188 L 627.628906 453.066406"/></g><g id="change2_86"><path fill="#c4c4c4" d="M 646.957031 453.066406 L 627.628906 453.066406 L 627.628906 433.742188 L 646.957031 433.742188 L 646.957031 453.066406"/></g><g id="change3_87"><path fill="#ffffff" d="M 666.28125 453.066406 L 646.957031 453.066406 L 646.957031 433.742188 L 666.28125 433.742188 L 666.28125 453.066406"/></g><g id="change2_87"><path fill="#c4c4c4" d="M 685.609375 453.066406 L 666.28125 453.066406 L 666.28125 433.742188 L 685.609375 433.742188 L 685.609375 453.066406"/></g><g id="change3_88"><path fill="#ffffff" d="M 704.933594 453.066406 L 685.609375 453.066406 L 685.609375 433.742188 L 704.933594 433.742188 L 704.933594 453.066406"/></g><g id="change2_88"><path fill="#c4c4c4" d="M 724.261719 453.066406 L 704.933594 453.066406 L 704.933594 433.742188 L 724.261719 433.742188 L 724.261719 453.066406"/></g><g id="change3_151" clip-path="url(#R)"><path fill="#ffffff" d="M 743.585938 453.066406 L 724.261719 453.066406 L 724.261719 433.742188 L 743.585938 433.742188 L 743.585938 453.066406"/></g><g id="change2_89"><path fill="#c4c4c4" d="M 279.761719 472.394531 L 260.4375 472.394531 L 260.4375 453.066406 L 279.761719 453.066406 L 279.761719 472.394531"/></g><g id="change3_89"><path fill="#ffffff" d="M 299.089844 472.394531 L 279.761719 472.394531 L 279.761719 453.066406 L 299.089844 453.066406 L 299.089844 472.394531"/></g><g id="change2_90"><path fill="#c4c4c4" d="M 318.414062 472.394531 L 299.089844 472.394531 L 299.089844 453.066406 L 318.414062 453.066406 L 318.414062 472.394531"/></g><g id="change3_90"><path fill="#ffffff" d="M 337.738281 472.394531 L 318.414062 472.394531 L 318.414062 453.066406 L 337.738281 453.066406 L 337.738281 472.394531"/></g><g id="change2_91"><path fill="#c4c4c4" d="M 357.066406 472.394531 L 337.738281 472.394531 L 337.738281 453.066406 L 357.066406 453.066406 L 357.066406 472.394531"/></g><g id="change3_91"><path fill="#ffffff" d="M 376.390625 472.394531 L 357.066406 472.394531 L 357.066406 453.066406 L 376.390625 453.066406 L 376.390625 472.394531"/></g><g id="change2_92"><path fill="#c4c4c4" d="M 395.71875 472.394531 L 376.390625 472.394531 L 376.390625 453.066406 L 395.71875 453.066406 L 395.71875 472.394531"/></g><g id="change3_92"><path fill="#ffffff" d="M 415.042969 472.394531 L 395.71875 472.394531 L 395.71875 453.066406 L 415.042969 453.066406 L 415.042969 472.394531"/></g><g id="change2_93"><path fill="#c4c4c4" d="M 434.371094 472.394531 L 415.042969 472.394531 L 415.042969 453.066406 L 434.371094 453.066406 L 434.371094 472.394531"/></g><g id="change3_93"><path fill="#ffffff" d="M 453.695312 472.394531 L 434.371094 472.394531 L 434.371094 453.066406 L 453.695312 453.066406 L 453.695312 472.394531"/></g><g id="change2_94"><path fill="#c4c4c4" d="M 473.023438 472.394531 L 453.695312 472.394531 L 453.695312 453.066406 L 473.023438 453.066406 L 473.023438 472.394531"/></g><g id="change3_94"><path fill="#ffffff" d="M 492.347656 472.394531 L 473.023438 472.394531 L 473.023438 453.066406 L 492.347656 453.066406 L 492.347656 472.394531"/></g><g id="change2_95"><path fill="#c4c4c4" d="M 511.675781 472.394531 L 492.347656 472.394531 L 492.347656 453.066406 L 511.675781 453.066406 L 511.675781 472.394531"/></g><g id="change3_95"><path fill="#ffffff" d="M 531 472.394531 L 511.675781 472.394531 L 511.675781 453.066406 L 531 453.066406 L 531 472.394531"/></g><g id="change2_96"><path fill="#c4c4c4" d="M 550.324219 472.394531 L 531 472.394531 L 531 453.066406 L 550.324219 453.066406 L 550.324219 472.394531"/></g><g id="change3_96"><path fill="#ffffff" d="M 569.652344 472.394531 L 550.324219 472.394531 L 550.324219 453.066406 L 569.652344 453.066406 L 569.652344 472.394531"/></g><g id="change2_97"><path fill="#c4c4c4" d="M 588.980469 472.394531 L 569.652344 472.394531 L 569.652344 453.066406 L 588.980469 453.066406 L 588.980469 472.394531"/></g><g id="change3_97"><path fill="#ffffff" d="M 608.304688 472.394531 L 588.980469 472.394531 L 588.980469 453.066406 L 608.304688 453.066406 L 608.304688 472.394531"/></g><g id="change2_98"><path fill="#c4c4c4" d="M 627.628906 472.394531 L 608.304688 472.394531 L 608.304688 453.066406 L 627.628906 453.066406 L 627.628906 472.394531"/></g><g id="change3_98"><path fill="#ffffff" d="M 646.957031 472.394531 L 627.628906 472.394531 L 627.628906 453.066406 L 646.957031 453.066406 L 646.957031 472.394531"/></g><g id="change2_99"><path fill="#c4c4c4" d="M 666.28125 472.394531 L 646.957031 472.394531 L 646.957031 453.066406 L 666.28125 453.066406 L 666.28125 472.394531"/></g><g id="change3_99"><path fill="#ffffff" d="M 685.609375 472.394531 L 666.28125 472.394531 L 666.28125 453.066406 L 685.609375 453.066406 L 685.609375 472.394531"/></g><g id="change2_100"><path fill="#c4c4c4" d="M 704.933594 472.394531 L 685.609375 472.394531 L 685.609375 453.066406 L 704.933594 453.066406 L 704.933594 472.394531"/></g><g id="change3_100"><path fill="#ffffff" d="M 724.261719 472.394531 L 704.933594 472.394531 L 704.933594 453.066406 L 724.261719 453.066406 L 724.261719 472.394531"/></g><g id="change2_160" clip-path="url(#S)"><path fill="#c4c4c4" d="M 743.585938 472.394531 L 724.261719 472.394531 L 724.261719 453.066406 L 743.585938 453.066406 L 743.585938 472.394531"/></g><g id="change3_101"><path fill="#ffffff" d="M 279.761719 491.71875 L 260.4375 491.71875 L 260.4375 472.394531 L 279.761719 472.394531 L 279.761719 491.71875"/></g><g id="change2_101"><path fill="#c4c4c4" d="M 299.089844 491.71875 L 279.761719 491.71875 L 279.761719 472.394531 L 299.089844 472.394531 L 299.089844 491.71875"/></g><g id="change3_102"><path fill="#ffffff" d="M 318.414062 491.71875 L 299.089844 491.71875 L 299.089844 472.394531 L 318.414062 472.394531 L 318.414062 491.71875"/></g><g id="change2_102"><path fill="#c4c4c4" d="M 337.738281 491.71875 L 318.414062 491.71875 L 318.414062 472.394531 L 337.738281 472.394531 L 337.738281 491.71875"/></g><g id="change3_103"><path fill="#ffffff" d="M 357.066406 491.71875 L 337.738281 491.71875 L 337.738281 472.394531 L 357.066406 472.394531 L 357.066406 491.71875"/></g><g id="change2_103"><path fill="#c4c4c4" d="M 376.390625 491.71875 L 357.066406 491.71875 L 357.066406 472.394531 L 376.390625 472.394531 L 376.390625 491.71875"/></g><g id="change3_104"><path fill="#ffffff" d="M 395.71875 491.71875 L 376.390625 491.71875 L 376.390625 472.394531 L 395.71875 472.394531 L 395.71875 491.71875"/></g><g id="change2_104"><path fill="#c4c4c4" d="M 415.042969 491.71875 L 395.71875 491.71875 L 395.71875 472.394531 L 415.042969 472.394531 L 415.042969 491.71875"/></g><g id="change3_105"><path fill="#ffffff" d="M 434.371094 491.722656 L 415.042969 491.722656 L 415.042969 472.394531 L 434.371094 472.394531 L 434.371094 491.722656"/></g><g id="change2_105"><path fill="#c4c4c4" d="M 453.695312 491.722656 L 434.371094 491.722656 L 434.371094 472.394531 L 453.695312 472.394531 L 453.695312 491.722656"/></g><g id="change3_106"><path fill="#ffffff" d="M 473.023438 491.722656 L 453.695312 491.722656 L 453.695312 472.394531 L 473.023438 472.394531 L 473.023438 491.722656"/></g><g id="change2_106"><path fill="#c4c4c4" d="M 492.347656 491.722656 L 473.023438 491.722656 L 473.023438 472.394531 L 492.347656 472.394531 L 492.347656 491.722656"/></g><g id="change3_107"><path fill="#ffffff" d="M 511.675781 491.722656 L 492.347656 491.722656 L 492.347656 472.394531 L 511.675781 472.394531 L 511.675781 491.722656"/></g><g id="change2_107"><path fill="#c4c4c4" d="M 531 491.722656 L 511.675781 491.722656 L 511.675781 472.394531 L 531 472.394531 L 531 491.722656"/></g><g id="change3_108"><path fill="#ffffff" d="M 550.324219 491.722656 L 531 491.722656 L 531 472.394531 L 550.324219 472.394531 L 550.324219 491.722656"/></g><g id="change2_108"><path fill="#c4c4c4" d="M 569.652344 491.722656 L 550.324219 491.722656 L 550.324219 472.394531 L 569.652344 472.394531 L 569.652344 491.722656"/></g><g id="change3_109"><path fill="#ffffff" d="M 588.980469 491.722656 L 569.652344 491.722656 L 569.652344 472.394531 L 588.980469 472.394531 L 588.980469 491.722656"/></g><g id="change2_109"><path fill="#c4c4c4" d="M 608.304688 491.722656 L 588.980469 491.722656 L 588.980469 472.394531 L 608.304688 472.394531 L 608.304688 491.722656"/></g><g id="change3_110"><path fill="#ffffff" d="M 627.628906 491.722656 L 608.304688 491.722656 L 608.304688 472.394531 L 627.628906 472.394531 L 627.628906 491.722656"/></g><g id="change2_110"><path fill="#c4c4c4" d="M 646.957031 491.722656 L 627.628906 491.722656 L 627.628906 472.394531 L 646.957031 472.394531 L 646.957031 491.722656"/></g><g id="change3_111"><path fill="#ffffff" d="M 666.28125 491.722656 L 646.957031 491.722656 L 646.957031 472.394531 L 666.28125 472.394531 L 666.28125 491.722656"/></g><g id="change2_111"><path fill="#c4c4c4" d="M 685.609375 491.722656 L 666.28125 491.722656 L 666.28125 472.394531 L 685.609375 472.394531 L 685.609375 491.722656"/></g><g id="change3_112"><path fill="#ffffff" d="M 704.933594 491.722656 L 685.609375 491.722656 L 685.609375 472.394531 L 704.933594 472.394531 L 704.933594 491.722656"/></g><g id="change2_112"><path fill="#c4c4c4" d="M 724.261719 491.722656 L 704.933594 491.722656 L 704.933594 472.394531 L 724.261719 472.394531 L 724.261719 491.722656"/></g><g id="change3_162" clip-path="url(#T)"><path fill="#ffffff" d="M 743.585938 491.722656 L 724.261719 491.722656 L 724.261719 472.394531 L 743.585938 472.394531 L 743.585938 491.722656"/></g><g id="change2_113"><path fill="#c4c4c4" d="M 279.761719 511.046875 L 260.4375 511.046875 L 260.4375 491.722656 L 279.761719 491.722656 L 279.761719 511.046875"/></g><g id="change3_113"><path fill="#ffffff" d="M 299.089844 511.046875 L 279.761719 511.046875 L 279.761719 491.722656 L 299.089844 491.722656 L 299.089844 511.046875"/></g><g id="change2_114"><path fill="#c4c4c4" d="M 318.414062 511.046875 L 299.089844 511.046875 L 299.089844 491.722656 L 318.414062 491.722656 L 318.414062 511.046875"/></g><g id="change3_114"><path fill="#ffffff" d="M 337.738281 511.046875 L 318.414062 511.046875 L 318.414062 491.722656 L 337.738281 491.722656 L 337.738281 511.046875"/></g><g id="change2_115"><path fill="#c4c4c4" d="M 357.066406 511.046875 L 337.738281 511.046875 L 337.738281 491.722656 L 357.066406 491.722656 L 357.066406 511.046875"/></g><g id="change3_115"><path fill="#ffffff" d="M 376.390625 511.046875 L 357.066406 511.046875 L 357.066406 491.722656 L 376.390625 491.722656 L 376.390625 511.046875"/></g><g id="change2_116"><path fill="#c4c4c4" d="M 395.71875 511.046875 L 376.390625 511.046875 L 376.390625 491.722656 L 395.71875 491.722656 L 395.71875 511.046875"/></g><g id="change3_116"><path fill="#ffffff" d="M 415.042969 511.046875 L 395.71875 511.046875 L 395.71875 491.722656 L 415.042969 491.722656 L 415.042969 511.046875"/></g><g id="change2_117"><path fill="#c4c4c4" d="M 434.371094 511.046875 L 415.042969 511.046875 L 415.042969 491.722656 L 434.371094 491.722656 L 434.371094 511.046875"/></g><g id="change3_117"><path fill="#ffffff" d="M 453.695312 511.046875 L 434.371094 511.046875 L 434.371094 491.722656 L 453.695312 491.722656 L 453.695312 511.046875"/></g><g id="change2_118"><path fill="#c4c4c4" d="M 473.023438 511.046875 L 453.695312 511.046875 L 453.695312 491.722656 L 473.023438 491.722656 L 473.023438 511.046875"/></g><g id="change3_118"><path fill="#ffffff" d="M 492.347656 511.046875 L 473.023438 511.046875 L 473.023438 491.722656 L 492.347656 491.722656 L 492.347656 511.046875"/></g><g id="change2_119"><path fill="#c4c4c4" d="M 511.675781 511.046875 L 492.347656 511.046875 L 492.347656 491.722656 L 511.675781 491.722656 L 511.675781 511.046875"/></g><g id="change3_119"><path fill="#ffffff" d="M 531 511.046875 L 511.675781 511.046875 L 511.675781 491.722656 L 531 491.722656 L 531 511.046875"/></g><g id="change2_120"><path fill="#c4c4c4" d="M 550.324219 511.046875 L 531 511.046875 L 531 491.722656 L 550.324219 491.722656 L 550.324219 511.046875"/></g><g id="change3_120"><path fill="#ffffff" d="M 569.652344 511.046875 L 550.324219 511.046875 L 550.324219 491.722656 L 569.652344 491.722656 L 569.652344 511.046875"/></g><g id="change2_121"><path fill="#c4c4c4" d="M 588.980469 511.046875 L 569.652344 511.046875 L 569.652344 491.722656 L 588.980469 491.722656 L 588.980469 511.046875"/></g><g id="change3_121"><path fill="#ffffff" d="M 608.304688 511.046875 L 588.980469 511.046875 L 588.980469 491.722656 L 608.304688 491.722656 L 608.304688 511.046875"/></g><g id="change2_122"><path fill="#c4c4c4" d="M 627.628906 511.046875 L 608.304688 511.046875 L 608.304688 491.722656 L 627.628906 491.722656 L 627.628906 511.046875"/></g><g id="change3_122"><path fill="#ffffff" d="M 646.957031 511.046875 L 627.628906 511.046875 L 627.628906 491.722656 L 646.957031 491.722656 L 646.957031 511.046875"/></g><g id="change2_123"><path fill="#c4c4c4" d="M 666.28125 511.046875 L 646.957031 511.046875 L 646.957031 491.722656 L 666.28125 491.722656 L 666.28125 511.046875"/></g><g id="change3_123"><path fill="#ffffff" d="M 685.609375 511.046875 L 666.28125 511.046875 L 666.28125 491.722656 L 685.609375 491.722656 L 685.609375 511.046875"/></g><g id="change2_124"><path fill="#c4c4c4" d="M 704.933594 511.046875 L 685.609375 511.046875 L 685.609375 491.722656 L 704.933594 491.722656 L 704.933594 511.046875"/></g><g id="change3_124"><path fill="#ffffff" d="M 724.261719 511.046875 L 704.933594 511.046875 L 704.933594 491.722656 L 724.261719 491.722656 L 724.261719 511.046875"/></g><g id="change2_167" clip-path="url(#U)"><path fill="#c4c4c4" d="M 743.585938 511.046875 L 724.261719 511.046875 L 724.261719 491.722656 L 743.585938 491.722656 L 743.585938 511.046875"/></g><g id="change3_125"><path fill="#ffffff" d="M 279.761719 530.371094 L 260.4375 530.371094 L 260.4375 511.046875 L 279.761719 511.046875 L 279.761719 530.371094"/></g><g id="change2_125"><path fill="#c4c4c4" d="M 299.089844 530.371094 L 279.761719 530.371094 L 279.761719 511.046875 L 299.089844 511.046875 L 299.089844 530.371094"/></g><g id="change3_126"><path fill="#ffffff" d="M 318.414062 530.371094 L 299.089844 530.371094 L 299.089844 511.046875 L 318.414062 511.046875 L 318.414062 530.371094"/></g><g id="change2_126"><path fill="#c4c4c4" d="M 337.738281 530.371094 L 318.414062 530.371094 L 318.414062 511.046875 L 337.738281 511.046875 L 337.738281 530.371094"/></g><g id="change3_127"><path fill="#ffffff" d="M 357.066406 530.371094 L 337.738281 530.371094 L 337.738281 511.046875 L 357.066406 511.046875 L 357.066406 530.371094"/></g><g id="change2_127"><path fill="#c4c4c4" d="M 376.390625 530.371094 L 357.066406 530.371094 L 357.066406 511.046875 L 376.390625 511.046875 L 376.390625 530.371094"/></g><g id="change3_128"><path fill="#ffffff" d="M 395.71875 530.371094 L 376.390625 530.371094 L 376.390625 511.046875 L 395.71875 511.046875 L 395.71875 530.371094"/></g><g id="change2_128"><path fill="#c4c4c4" d="M 415.042969 530.371094 L 395.71875 530.371094 L 395.71875 511.046875 L 415.042969 511.046875 L 415.042969 530.371094"/></g><g id="change3_129"><path fill="#ffffff" d="M 434.371094 530.371094 L 415.042969 530.371094 L 415.042969 511.046875 L 434.371094 511.046875 L 434.371094 530.371094"/></g><g id="change2_129"><path fill="#c4c4c4" d="M 453.695312 530.371094 L 434.371094 530.371094 L 434.371094 511.046875 L 453.695312 511.046875 L 453.695312 530.371094"/></g><g id="change3_130"><path fill="#ffffff" d="M 473.023438 530.371094 L 453.695312 530.371094 L 453.695312 511.046875 L 473.023438 511.046875 L 473.023438 530.371094"/></g><g id="change2_130"><path fill="#c4c4c4" d="M 492.347656 530.371094 L 473.023438 530.371094 L 473.023438 511.046875 L 492.347656 511.046875 L 492.347656 530.371094"/></g><g id="change3_131"><path fill="#ffffff" d="M 511.675781 530.371094 L 492.347656 530.371094 L 492.347656 511.046875 L 511.675781 511.046875 L 511.675781 530.371094"/></g><g id="change2_131"><path fill="#c4c4c4" d="M 531 530.371094 L 511.675781 530.371094 L 511.675781 511.046875 L 531 511.046875 L 531 530.371094"/></g><g id="change3_132"><path fill="#ffffff" d="M 550.324219 530.371094 L 531 530.371094 L 531 511.046875 L 550.324219 511.046875 L 550.324219 530.371094"/></g><g id="change2_132"><path fill="#c4c4c4" d="M 569.652344 530.371094 L 550.324219 530.371094 L 550.324219 511.046875 L 569.652344 511.046875 L 569.652344 530.371094"/></g><g id="change3_133"><path fill="#ffffff" d="M 588.980469 530.371094 L 569.652344 530.371094 L 569.652344 511.046875 L 588.980469 511.046875 L 588.980469 530.371094"/></g><g id="change2_133"><path fill="#c4c4c4" d="M 608.304688 530.371094 L 588.980469 530.371094 L 588.980469 511.046875 L 608.304688 511.046875 L 608.304688 530.371094"/></g><g id="change3_134"><path fill="#ffffff" d="M 627.628906 530.371094 L 608.304688 530.371094 L 608.304688 511.046875 L 627.628906 511.046875 L 627.628906 530.371094"/></g><g id="change2_134"><path fill="#c4c4c4" d="M 646.957031 530.371094 L 627.628906 530.371094 L 627.628906 511.046875 L 646.957031 511.046875 L 646.957031 530.371094"/></g><g id="change3_135"><path fill="#ffffff" d="M 666.28125 530.371094 L 646.957031 530.371094 L 646.957031 511.046875 L 666.28125 511.046875 L 666.28125 530.371094"/></g><g id="change2_135"><path fill="#c4c4c4" d="M 685.609375 530.371094 L 666.28125 530.371094 L 666.28125 511.046875 L 685.609375 511.046875 L 685.609375 530.371094"/></g><g id="change3_136"><path fill="#ffffff" d="M 704.933594 530.371094 L 685.609375 530.371094 L 685.609375 511.046875 L 704.933594 511.046875 L 704.933594 530.371094"/></g><g id="change2_136"><path fill="#c4c4c4" d="M 724.261719 530.371094 L 704.933594 530.371094 L 704.933594 511.046875 L 724.261719 511.046875 L 724.261719 530.371094"/></g><g id="change3_175" clip-path="url(#V)"><path fill="#ffffff" d="M 743.585938 530.371094 L 724.261719 530.371094 L 724.261719 511.046875 L 743.585938 511.046875 L 743.585938 530.371094"/></g><g id="change2_137"><path fill="#c4c4c4" d="M 279.761719 549.699219 L 260.4375 549.699219 L 260.4375 530.371094 L 279.761719 530.371094 L 279.761719 549.699219"/></g><g id="change3_137"><path fill="#ffffff" d="M 299.089844 549.699219 L 279.761719 549.699219 L 279.761719 530.371094 L 299.089844 530.371094 L 299.089844 549.699219"/></g><g id="change2_138"><path fill="#c4c4c4" d="M 318.414062 549.699219 L 299.089844 549.699219 L 299.089844 530.371094 L 318.414062 530.371094 L 318.414062 549.699219"/></g><g id="change3_138"><path fill="#ffffff" d="M 337.738281 549.699219 L 318.414062 549.699219 L 318.414062 530.371094 L 337.738281 530.371094 L 337.738281 549.699219"/></g><g id="change2_139"><path fill="#c4c4c4" d="M 357.066406 549.699219 L 337.738281 549.699219 L 337.738281 530.371094 L 357.066406 530.371094 L 357.066406 549.699219"/></g><g id="change3_139"><path fill="#ffffff" d="M 376.390625 549.699219 L 357.066406 549.699219 L 357.066406 530.371094 L 376.390625 530.371094 L 376.390625 549.699219"/></g><g id="change2_140"><path fill="#c4c4c4" d="M 395.71875 549.699219 L 376.390625 549.699219 L 376.390625 530.371094 L 395.71875 530.371094 L 395.71875 549.699219"/></g><g id="change3_140"><path fill="#ffffff" d="M 415.042969 549.699219 L 395.71875 549.699219 L 395.71875 530.371094 L 415.042969 530.371094 L 415.042969 549.699219"/></g><g id="change2_141"><path fill="#c4c4c4" d="M 434.371094 549.699219 L 415.042969 549.699219 L 415.042969 530.371094 L 434.371094 530.371094 L 434.371094 549.699219"/></g><g id="change3_141"><path fill="#ffffff" d="M 453.695312 549.699219 L 434.371094 549.699219 L 434.371094 530.371094 L 453.695312 530.371094 L 453.695312 549.699219"/></g><g id="change2_142"><path fill="#c4c4c4" d="M 473.023438 549.699219 L 453.695312 549.699219 L 453.695312 530.371094 L 473.023438 530.371094 L 473.023438 549.699219"/></g><g id="change3_142"><path fill="#ffffff" d="M 492.347656 549.699219 L 473.023438 549.699219 L 473.023438 530.371094 L 492.347656 530.371094 L 492.347656 549.699219"/></g><g id="change2_143"><path fill="#c4c4c4" d="M 511.675781 549.699219 L 492.347656 549.699219 L 492.347656 530.371094 L 511.675781 530.371094 L 511.675781 549.699219"/></g><g id="change3_143"><path fill="#ffffff" d="M 531 549.699219 L 511.675781 549.699219 L 511.675781 530.371094 L 531 530.371094 L 531 549.699219"/></g><g id="change2_144"><path fill="#c4c4c4" d="M 550.324219 549.699219 L 531 549.699219 L 531 530.371094 L 550.324219 530.371094 L 550.324219 549.699219"/></g><g id="change3_144"><path fill="#ffffff" d="M 569.652344 549.699219 L 550.324219 549.699219 L 550.324219 530.371094 L 569.652344 530.371094 L 569.652344 549.699219"/></g><g id="change2_145"><path fill="#c4c4c4" d="M 588.980469 549.699219 L 569.652344 549.699219 L 569.652344 530.371094 L 588.980469 530.371094 L 588.980469 549.699219"/></g><g id="change3_145"><path fill="#ffffff" d="M 608.304688 549.699219 L 588.980469 549.699219 L 588.980469 530.371094 L 608.304688 530.371094 L 608.304688 549.699219"/></g><g id="change2_146"><path fill="#c4c4c4" d="M 627.628906 549.699219 L 608.304688 549.699219 L 608.304688 530.371094 L 627.628906 530.371094 L 627.628906 549.699219"/></g><g id="change3_146"><path fill="#ffffff" d="M 646.957031 549.699219 L 627.628906 549.699219 L 627.628906 530.371094 L 646.957031 530.371094 L 646.957031 549.699219"/></g><g id="change2_147"><path fill="#c4c4c4" d="M 666.28125 549.699219 L 646.957031 549.699219 L 646.957031 530.371094 L 666.28125 530.371094 L 666.28125 549.699219"/></g><g id="change3_147"><path fill="#ffffff" d="M 685.609375 549.699219 L 666.28125 549.699219 L 666.28125 530.371094 L 685.609375 530.371094 L 685.609375 549.699219"/></g><g id="change2_148"><path fill="#c4c4c4" d="M 704.933594 549.699219 L 685.609375 549.699219 L 685.609375 530.371094 L 704.933594 530.371094 L 704.933594 549.699219"/></g><g id="change3_148"><path fill="#ffffff" d="M 724.261719 549.699219 L 704.933594 549.699219 L 704.933594 530.371094 L 724.261719 530.371094 L 724.261719 549.699219"/></g><g id="change2_171" clip-path="url(#W)"><path fill="#c4c4c4" d="M 743.585938 549.699219 L 724.261719 549.699219 L 724.261719 530.371094 L 743.585938 530.371094 L 743.585938 549.699219"/></g><g id="change3_164" clip-path="url(#X)"><path fill="#ffffff" d="M 279.761719 569.023438 L 260.4375 569.023438 L 260.4375 549.699219 L 279.761719 549.699219 L 279.761719 569.023438"/></g><g id="change2_158" clip-path="url(#Y)"><path fill="#c4c4c4" d="M 299.089844 569.023438 L 279.761719 569.023438 L 279.761719 549.699219 L 299.089844 549.699219 L 299.089844 569.023438"/></g><g id="change3_152" clip-path="url(#Z)"><path fill="#ffffff" d="M 318.414062 569.023438 L 299.089844 569.023438 L 299.089844 549.699219 L 318.414062 549.699219 L 318.414062 569.023438"/></g><g id="change2_173" clip-path="url(#aa)"><path fill="#c4c4c4" d="M 337.738281 569.023438 L 318.414062 569.023438 L 318.414062 549.699219 L 337.738281 549.699219 L 337.738281 569.023438"/></g><g id="change3_150" clip-path="url(#ab)"><path fill="#ffffff" d="M 357.066406 569.023438 L 337.738281 569.023438 L 337.738281 549.699219 L 357.066406 549.699219 L 357.066406 569.023438"/></g><g id="change2_165" clip-path="url(#ac)"><path fill="#c4c4c4" d="M 376.390625 569.023438 L 357.066406 569.023438 L 357.066406 549.699219 L 376.390625 549.699219 L 376.390625 569.023438"/></g><g id="change3_160" clip-path="url(#ad)"><path fill="#ffffff" d="M 395.71875 569.023438 L 376.390625 569.023438 L 376.390625 549.699219 L 395.71875 549.699219 L 395.71875 569.023438"/></g><g id="change2_163" clip-path="url(#ae)"><path fill="#c4c4c4" d="M 415.042969 569.023438 L 395.71875 569.023438 L 395.71875 549.699219 L 415.042969 549.699219 L 415.042969 569.023438"/></g><g id="change3_154" clip-path="url(#af)"><path fill="#ffffff" d="M 434.371094 569.023438 L 415.042969 569.023438 L 415.042969 549.699219 L 434.371094 549.699219 L 434.371094 569.023438"/></g><g id="change2_4" clip-path="url(#ag)"><path fill="#c4c4c4" d="M 453.695312 569.023438 L 434.371094 569.023438 L 434.371094 549.699219 L 453.695312 549.699219 L 453.695312 569.023438"/></g><g id="change3_156" clip-path="url(#ah)"><path fill="#ffffff" d="M 473.023438 569.023438 L 453.695312 569.023438 L 453.695312 549.699219 L 473.023438 549.699219 L 473.023438 569.023438"/></g><g id="change2_2" clip-path="url(#ai)"><path fill="#c4c4c4" d="M 492.347656 569.023438 L 473.023438 569.023438 L 473.023438 549.699219 L 492.347656 549.699219 L 492.347656 569.023438"/></g><g id="change3_2" clip-path="url(#aj)"><path fill="#ffffff" d="M 511.675781 569.023438 L 492.347656 569.023438 L 492.347656 549.699219 L 511.675781 549.699219 L 511.675781 569.023438"/></g><g id="change2_172" clip-path="url(#ak)"><path fill="#c4c4c4" d="M 531 569.023438 L 511.675781 569.023438 L 511.675781 549.699219 L 531 549.699219 L 531 569.023438"/></g><g id="change3_157" clip-path="url(#al)"><path fill="#ffffff" d="M 550.324219 569.023438 L 531 569.023438 L 531 549.699219 L 550.324219 549.699219 L 550.324219 569.023438"/></g><g id="change2_161" clip-path="url(#am)"><path fill="#c4c4c4" d="M 569.652344 569.023438 L 550.324219 569.023438 L 550.324219 549.699219 L 569.652344 549.699219 L 569.652344 569.023438"/></g><g id="change3_168" clip-path="url(#an)"><path fill="#ffffff" d="M 588.980469 569.023438 L 569.652344 569.023438 L 569.652344 549.699219 L 588.980469 549.699219 L 588.980469 569.023438"/></g><g id="change2_149" clip-path="url(#ao)"><path fill="#c4c4c4" d="M 608.304688 569.023438 L 588.980469 569.023438 L 588.980469 549.699219 L 608.304688 549.699219 L 608.304688 569.023438"/></g><g id="change3_167" clip-path="url(#ap)"><path fill="#ffffff" d="M 627.628906 569.023438 L 608.304688 569.023438 L 608.304688 549.699219 L 627.628906 549.699219 L 627.628906 569.023438"/></g><g id="change2_3" clip-path="url(#aq)"><path fill="#c4c4c4" d="M 646.957031 569.023438 L 627.628906 569.023438 L 627.628906 549.699219 L 646.957031 549.699219 L 646.957031 569.023438"/></g><g id="change3_169" clip-path="url(#ar)"><path fill="#ffffff" d="M 666.28125 569.023438 L 646.957031 569.023438 L 646.957031 549.699219 L 666.28125 549.699219 L 666.28125 569.023438"/></g><g id="change2_169" clip-path="url(#as)"><path fill="#c4c4c4" d="M 685.609375 569.023438 L 666.28125 569.023438 L 666.28125 549.699219 L 685.609375 549.699219 L 685.609375 569.023438"/></g><g id="change3_174" clip-path="url(#at)"><path fill="#ffffff" d="M 704.933594 569.023438 L 685.609375 569.023438 L 685.609375 549.699219 L 704.933594 549.699219 L 704.933594 569.023438"/></g><g id="change2_162" clip-path="url(#au)"><path fill="#c4c4c4" d="M 724.261719 569.023438 L 704.933594 569.023438 L 704.933594 549.699219 L 724.261719 549.699219 L 724.261719 569.023438"/></g><g id="change3_155" clip-path="url(#av)"><path fill="#ffffff" d="M 743.585938 569.023438 L 724.261719 569.023438 L 724.261719 549.699219 L 743.585938 549.699219 L 743.585938 569.023438"/></g></g></svg>