<?xml version="1.0" encoding="UTF-8"?><svg xmlns="http://www.w3.org/2000/svg" xmlns:xlink="http://www.w3.org/1999/xlink" contentScriptType="text/ecmascript" enable-background="new 0 0 303 481" fill="#000000" width="350" zoomAndPan="magnify" contentStyleType="text/css" viewBox="-23.5 -36.4 350.0 557.0" height="557" preserveAspectRatio="xMidYMid meet" version="1"><filter xlink:actuate="onLoad" xlink:type="simple" id="a" xlink:show="other" xmlns:xlink="http://www.w3.org/1999/xlink"><feGaussianBlur stdDeviation="7"/></filter><g id="change1_1"><path fill="#bcae00" d="M52.5,474.2c-2.1,0-4.2-0.5-6.2-1.6c-5.7-3.1-8.1-9.3-5.9-15.3 l47.9-141.8c0.3-0.8,0.1-1.6-0.4-2.4c-0.4-0.6-1.2-1-2-1H19.2c-4.3,0-8.3-2.1-10.7-5.7s-2.8-8.1-1.2-12l98-241.3 c0.9-2,2.7-3.2,4.7-3.2c0.7,0,1.4,0.1,2,0.4c1.3,0.5,2.2,1.5,2.8,2.8c0.5,1.3,0.5,2.7,0,4l-98,241.4c-0.4,1-0.1,1.8,0.3,2.4 c0.4,0.7,1.1,1,2,1h66.6c4.2,0,8,1.9,10.4,5.3c2.5,3.4,3.1,7.5,1.8,11.6L50,460.5c-0.6,1.7,0.5,2.6,1.2,3c0.3,0.2,0.7,0.4,1.3,0.4 c0.7,0,1.4-0.3,1.9-1l45.4-56.5c1-1.2,2.4-2,4-2c1.2,0,2.3,0.4,3.2,1.2c1.1,0.8,1.7,2.1,1.9,3.5c0.1,1.4-0.3,2.7-1.2,3.7 l-45.4,56.6C60,472.4,56.4,474.2,52.5,474.2z M118.9,395.8c-1.2,0-2.4-0.4-3.3-1.2c-1.1-0.8-1.7-2-1.9-3.4 c-0.1-1.3,0.2-2.7,1.1-3.8l113.6-141.5c0.6-0.8,0.7-1.8,0.3-2.7c-0.5-0.9-1.3-1.4-2.3-1.4h-41.3c-4.6,0-8.6-2.3-11-6.4 c-2.3-4-2.4-8.7-0.1-12.8L286.2,23.9c0.5-0.8,0.5-1.7,0-2.5c-0.4-0.7-1.2-1.2-2.2-1.2H131.6c-1.1,0-1.9,0.6-2.4,1.6l-5.6,13.9 c-0.7,1.9-2.6,3.2-4.7,3.2c-0.7,0-1.3-0.1-2-0.4c-1.2-0.5-2.3-1.5-2.8-2.7c-0.5-1.3-0.5-2.8,0-4l5.6-13.8c2-4.8,6.7-8,11.9-8H284 c4.6,0,8.6,2.3,11,6.4c2.3,4,2.4,8.7,0.1,12.8L183,227.8c-0.5,0.8-0.5,1.7,0,2.5c0.4,0.7,1.2,1.2,2.2,1.2h41.3 c5,0,9.4,2.8,11.5,7.2s1.6,9.6-1.5,13.5L122.9,394C121.9,395.1,120.4,395.8,118.9,395.8z" filter="url(#a)"/></g><g id="change2_1"><path fill="#fff380" d="M52.5,472.2c-1.8,0-3.6-0.5-5.3-1.4c-4.8-2.6-6.8-7.8-5-12.9l47.9-141.8c0.5-1.4,0.2-2.9-0.6-4.1 s-2.2-1.9-3.7-1.9H19.2c-3.6,0-7-1.8-9-4.8s-2.4-6.8-1-10.1l98-241.3c0.7-1.6,2.5-2.4,4.1-1.7s2.4,2.5,1.7,4.1L15,297.7 c-0.6,1.4-0.4,2.9,0.4,4.2c0.8,1.3,2.2,2,3.7,2h66.6c3.5,0,6.7,1.6,8.8,4.5c2.1,2.9,2.6,6.4,1.5,9.8L48.1,459.9 c-0.9,2.6,0.5,4.5,2.1,5.4s3.9,1,5.7-1.1l45.4-56.6c1.1-1.4,3.1-1.6,4.4-0.5c1.4,1.1,1.6,3.1,0.5,4.4l-45.4,56.6 C58.7,470.8,55.6,472.2,52.5,472.2z M121.3,392.7L234.9,251c2.6-3.3,3.1-7.7,1.3-11.4c-1.8-3.8-5.5-6.1-9.7-6.1h-41.3 c-1.6,0-3.1-0.8-3.9-2.2c-0.8-1.4-0.8-3.1,0-4.5L293.4,28.1c1.9-3.4,1.9-7.4-0.1-10.8s-5.4-5.4-9.3-5.4H131.6 c-4.4,0-8.3,2.6-10,6.7L116,32.5c-0.7,1.6,0.1,3.5,1.7,4.1c1.6,0.7,3.5-0.1,4.1-1.7l5.6-13.9c0.7-1.7,2.3-2.8,4.2-2.8H284 c1.6,0,3.1,0.8,3.9,2.2c0.8,1.4,0.8,3.1,0,4.5L175.7,223.7c-1.9,3.4-1.9,7.4,0.1,10.8c2,3.4,5.4,5.4,9.3,5.4h41.3 c1.8,0,3.3,1,4.1,2.5c0.8,1.6,0.6,3.4-0.5,4.8L116.4,388.7c-1.1,1.4-0.9,3.3,0.5,4.4c0.6,0.5,1.3,0.7,2,0.7 C119.8,393.8,120.7,393.4,121.3,392.7z"/></g></svg>