<svg viewBox="0 0 96 96" xmlns="http://www.w3.org/2000/svg" xmlns:xlink="http://www.w3.org/1999/xlink" id="Icons_LargePaintBrush" overflow="hidden"><path d="M83.7 15.1C82.9 15.9 81.7 15.9 81 15.1 80.2 14.3 80.2 13.1 81 12.4 81.8 11.7 83 11.6 83.7 12.4 84.4 13.2 84.4 14.4 83.7 15.1ZM86.4 9.7C84.6 7.9 82 7.5 79.8 8.6 78.6 9.1 74.5 13.5 74.5 13.5 68.4 19.6 60.3 29.6 57.3 35.4L44 22.2C43.2 21.4 42 21.4 41.2 22.2L37.2 26.2 69.9 58.9 73.9 54.9C74.7 54.1 74.7 52.9 73.9 52.1L60.7 38.8C66.6 35.7 76.5 27.7 82.6 21.6 82.6 21.6 87 17.4 87.5 16.3 88.6 14.1 88.2 11.5 86.4 9.7Z"/><path d="M8.6 54.8C7.8 55.6 7.8 56.8 8.6 57.6L33.1 82.1 50.8 64.4 52.2 65.8 35.8 84.8 38.5 87.5C39.3 88.3 40.5 88.3 41.3 87.5L66.8 62 34.1 29.3 8.6 54.8Z"/></svg>