<svg viewBox="0 0 96 96" xmlns="http://www.w3.org/2000/svg" xmlns:xlink="http://www.w3.org/1999/xlink" id="Icons_RenovationHouseWithSparkles" overflow="hidden"><path d="M73.489 3 73.489 3C75.0472 8.49037 78.893 13.0445 84.045 15.5L84.045 15.5C78.893 17.9555 75.0472 22.5096 73.489 28L73.489 28C71.9301 22.51 68.0845 17.9561 62.933 15.5L62.933 15.5C68.0845 13.0439 71.9301 8.49 73.489 3Z"/><path d="M87.511 24 87.511 24C88.3212 26.855 90.321 29.2232 93 30.5L93 30.5C90.321 31.7768 88.3212 34.145 87.511 37L87.511 37C86.7008 34.145 84.701 31.7768 82.022 30.5L82.022 30.5C84.701 29.2232 86.7008 26.855 87.511 24Z"/><path d="M13.885 14 13.885 14C15.0696 18.1726 17.9925 21.6337 21.908 23.5L21.908 23.5C17.9925 25.3663 15.0696 28.8274 13.885 33L13.885 33C12.7008 28.8275 9.77817 25.3664 5.863 23.5L5.863 23.5C9.77817 21.6336 12.7008 18.1725 13.885 14Z"/><path d="M47.974 11.993 47.974 11.993 5.997 51.971 10.494 55.769 47.974 20.189 47.974 20.189 85.453 55.769 89.951 51.971 47.974 11.993 47.974 11.993Z"/><path d="M17.99 54.27 17.99 83.954 41.977 83.954 41.977 58.968 53.97 58.968 53.97 83.954 77.957 83.954 77.957 54.27 47.974 25.786 17.99 54.27 17.99 54.27 17.99 54.27Z"/></svg>