<svg viewBox="0 0 96 96" xmlns="http://www.w3.org/2000/svg" xmlns:xlink="http://www.w3.org/1999/xlink" id="Icons_Window" overflow="hidden"><path d="M88.005 9 8.005 9 8.005 17 13.005 17 13.005 87.045 28.96 87.045 28.96 84 67.05 84 67.05 87.045 83.005 87.045 83.005 17 88.005 17ZM45.005 48 31.829 48C36.4553 40.082 38.9293 31.0912 39.005 21.921L39.005 17 45.005 17ZM51.005 17 57.005 17 57.005 21.921C57.0807 31.0912 59.5547 40.082 64.181 48L51.005 48ZM22.172 59.5C24.1797 57.8538 26.0182 56.0113 27.66 54L45.005 54 45.005 76 28.337 76C27.2952 70.1729 25.2065 64.5826 22.172 59.5ZM51.005 54 68.35 54C69.9919 56.0113 71.8303 57.8538 73.838 59.5 70.804 64.5828 68.7153 70.173 67.673 76L51.005 76Z"/></svg>