<svg viewBox="0 0 96 96" xmlns="http://www.w3.org/2000/svg" xmlns:xlink="http://www.w3.org/1999/xlink" id="Icons_Saw" overflow="hidden"><path d="M27.7 51.6 10.3 69C8.6 70.7 8.6 73.5 10.3 75.2L25.8 90.7C27.5 92.4 30.3 92.4 32 90.7L40.1 82.6 27.7 51.6 27.7 51.6ZM25.3 63.3 32.4 81 28.9 84.5 16.5 72.1 25.3 63.3"/><path d="M30.8 48.5 42.8 78.6 49.8 77.1 48.6 71.8 54.7 70.4 53.3 64.4 59.4 63 58 57 64 55.6 62.7 49.5 68 48.3 66.8 43.1 72.8 41.7 71.5 35.7 77.5 34.3 76.1 28.2 82.2 26.9 80.8 20.8 87 20.3 85.4 14.1 75.4 4Z"/></svg>