<svg viewBox="0 0 96 96" xmlns="http://www.w3.org/2000/svg" xmlns:xlink="http://www.w3.org/1999/xlink" id="Icons_OldKey" overflow="hidden"><path d="M88.4 27.5C88.4 26.2 87.3 25.1 86 25.1L83.4 25.1C86.3 20.7 85.1 14.8 80.8 11.9 77.6 9.8 73.5 9.8 70.3 11.9L70.3 9.4C70.3 8.1 69.4 7 68.1 6.8 66.7 6.7 65.5 7.7 65.4 9 65.4 9.1 65.4 9.2 65.4 9.3L65.4 11.8C65.2 11.5 65 11.3 64.7 11 61 7.3 55 7.3 51.3 11 47.6 14.7 47.6 20.7 51.3 24.4 51.5 24.6 51.8 24.9 52.1 25.1L49.7 25.1C48.4 25.1 47.3 26 47.1 27.3 47 28.7 48 29.9 49.3 30 49.4 30 49.5 30 49.6 30L52 30C50.8 31.7 50.3 33.8 50.4 35.9 50.4 37 50 38.1 49.2 38.8L7.6 80.6C6.8 81.4 6.8 82.6 7.6 83.4L11.8 87.6C12.6 88.4 13.8 88.4 14.6 87.6L17.4 84.8 20.9 88.3C21.7 89.1 22.9 89.1 23.7 88.3L26.5 85.5C27.3 84.7 27.3 83.5 26.5 82.7L23 79.2 25.8 76.4 31.5 82.1C32.3 82.9 33.5 82.9 34.3 82.1L34.3 82.1 38.5 77.9C39.3 77.1 39.3 75.9 38.5 75.1L33 69.3 56.3 46C57.1 45.2 58.2 44.8 59.3 44.8 59.5 44.8 59.7 44.8 59.9 44.8 61.8 44.8 63.6 44.2 65.2 43.2L65.2 45.8C65.2 47.1 66.1 48.2 67.4 48.4 68.8 48.5 70 47.5 70.1 46.2 70.1 46.1 70.1 46 70.1 45.9L70.1 43.4C70.3 43.7 70.5 43.9 70.8 44.2 74.5 47.9 80.5 47.9 84.2 44.2 87.9 40.5 87.9 34.5 84.2 30.8L84.2 30.8C84 30.6 83.7 30.3 83.4 30.1L85.9 30.1C87.3 30.1 88.4 29 88.4 27.6L88.4 27.5ZM72.3 16.6C74.1 14.8 76.9 14.8 78.7 16.6 80.5 18.4 80.5 21.2 78.7 23 76.9 24.8 74.1 24.8 72.3 23 71.5 22.2 71 21 71 19.8 71 18.6 71.4 17.5 72.3 16.6ZM54.6 14.5C56.4 12.7 59.2 12.7 61 14.5 62.8 16.3 62.8 19.1 61 20.9 59.2 22.7 56.4 22.7 54.6 20.9 53.8 20.1 53.3 18.9 53.3 17.7 53.3 16.5 53.8 15.4 54.6 14.5ZM63.1 38.6C61.3 40.4 58.5 40.4 56.7 38.6 54.9 36.8 54.9 34 56.7 32.2 58.5 30.4 61.3 30.4 63.1 32.2 63.9 33 64.4 34.2 64.4 35.4 64.4 36.6 63.9 37.7 63.1 38.6ZM80.8 40.7C79 42.5 76.2 42.5 74.4 40.7 72.6 38.9 72.6 36.1 74.4 34.3 76.2 32.5 79 32.5 80.8 34.3 81.6 35.1 82.1 36.3 82.1 37.5 82.1 38.7 81.6 39.8 80.8 40.7Z"/></svg>