<svg viewBox="0 0 96 96" xmlns="http://www.w3.org/2000/svg" xmlns:xlink="http://www.w3.org/1999/xlink" id="Icons_PeaceGesture" overflow="hidden"><style>
.MsftOfcResponsive_Fill_ffe9d5 {
 fill:#FFE9D5; 
}
</style>
<path d="M40 30C37.2399 30.0033 35.0033 32.2399 35 35L35 47C35.0055 47.4197 35.0643 47.8371 35.175 48.242 35.9681 45.4467 38.5183 43.5159 41.424 43.511L45 43.511 45 35C44.9967 32.2399 42.7601 30.0033 40 30Z" class="MsftOfcResponsive_Fill_ffe9d5" fill="#FFE9D5"/><path d="M27.979 50C30.7391 49.9967 32.9757 47.7601 32.979 45L32.979 39.12C32.979 36.3586 30.7404 34.12 27.979 34.12 25.2176 34.12 22.979 36.3586 22.979 39.12L22.979 45C22.9823 47.7601 25.2189 49.9967 27.979 50Z" class="MsftOfcResponsive_Fill_ffe9d5" fill="#FFE9D5"/><path d="M41.422 54.511 53.922 54.511 53.922 56.511 53.036 56.563C48.6463 57.0542 45.4855 61.0101 45.975 65.4L43.986 65.622C43.6848 62.9855 44.4511 60.338 46.114 58.27 46.6463 57.6089 47.2602 57.0179 47.941 56.511L41.424 56.511C38.6706 56.5069 36.2179 54.7699 35.3 52.174 34.458 51.4098 33.8145 50.4523 33.425 49.384 31.0902 52.3033 26.8678 52.8602 23.856 50.646 24.856 58.612 27.191 67.992 32.922 70.982L32.922 89.511 60.538 89.511 60.538 72.55C61.1686 72.1887 61.7792 71.7934 62.367 71.366 67.1868 67.7519 69.9939 62.0559 69.924 56.032L69.924 56.032C69.9235 50.2209 65.2121 45.5104 59.401 45.511 59.4007 45.511 59.4003 45.511 59.4 45.511L41.424 45.511C38.9387 45.511 36.924 47.5257 36.924 50.011L36.924 50.011C36.9284 51.9826 38.2202 53.72 40.107 54.292 40.194 54.321 40.28 54.351 40.37 54.374 40.46 54.397 40.57 54.418 40.677 54.436 40.9226 54.4834 41.1719 54.5085 41.422 54.511Z" class="MsftOfcResponsive_Fill_ffe9d5" fill="#FFE9D5"/><path d="M46.038 31.475C46.2174 31.7848 46.3744 32.1069 46.508 32.439L46.508 32.439C46.6995 32.9311 46.836 33.4429 46.915 33.965L46.948 34.185C46.9815 34.4554 46.9989 34.7275 47 35L47 43.511 59.4 43.511C62.6706 43.5104 65.8107 44.7942 68.144 47.086L68.144 41.553C68.1442 39.7034 68.2957 37.8569 68.597 36.032L72.251 13.926C72.6746 11.1185 70.742 8.49915 67.9345 8.07556 65.1813 7.66015 62.5977 9.51217 62.107 12.253L58.768 32.453C58.6134 33.3881 57.8048 34.074 56.857 34.074L56.857 34.074C55.9169 34.0747 55.1122 33.3999 54.949 32.474L51.085 10.453C50.8886 9.18878 50.2509 8.03494 49.285 7.196 48.3644 6.42404 47.2015 6.00065 46 6 45.4733 6.00007 44.9497 6.07997 44.447 6.237 41.9504 7.09216 40.4651 9.65576 40.965 12.247L43.945 29.222C44.2078 29.4046 44.4578 29.605 44.693 29.822 44.728 29.854 44.764 29.885 44.793 29.917 45.0307 30.14 45.2525 30.3792 45.457 30.633L45.497 30.684C45.6972 30.9335 45.878 31.198 46.038 31.475Z" class="MsftOfcResponsive_Fill_ffe9d5" fill="#FFE9D5"/></svg>