<svg viewBox="0 0 4614.47 3584.63" xmlns="http://www.w3.org/2000/svg" xmlns:xlink="http://www.w3.org/1999/xlink" id="robot" overflow="hidden"><defs></defs><path d="M3161.25 1230.2C3161.25 1230.2 3265.45 1006.49 3362.07 922.68 3362.07 922.68 3398.82 1142.63 3477.33 1252.33 3645.05 1486.66 3697.46 1765.96 3362.07 1868.48 3069.91 1957.79 2997.63 1328.04 2997.63 1328.04L3161.25 1230.21Z" stroke-width="0" fill="#F5DB38"/><g><g><path d="M4536.87 3471.64C4536.87 3484.62 4535.38 3497.27 4532.63 3509.43L110.35 3509.43C84.31 3479.44 68.51 3440.33 68.51 3397.51 68.51 3303.14 144.96 3226.63 239.33 3226.63 273.06 3226.63 304.48 3236.47 330.97 3253.34 336.65 3214.67 369.94 3184.96 410.18 3184.96 454.39 3184.96 490.22 3220.82 490.22 3265.02 490.22 3266.43 490.19 3267.83 490.11 3269.21 507.17 3241.84 537.49 3223.62 572.08 3223.62 614.3 3223.62 650.16 3250.71 663.25 3288.47 676.07 3237.32 722.37 3199.42 777.52 3199.42 789.65 3199.42 801.33 3201.27 812.38 3204.68 807.12 3194.73 804.14 3183.43 804.14 3171.41 804.14 3131.92 836.17 3099.95 875.6 3099.95 885.77 3099.95 895.44 3102.07 904.21 3105.93 905.75 3042.21 957.87 2991.06 1021.95 2991.06 1068.47 2991.06 1108.68 3018.01 1127.84 3057.18 1148.24 3032.15 1179.3 3016.17 1214.11 3016.17 1275.57 3016.17 1325.4 3065.97 1325.4 3127.43 1325.4 3135.42 1324.55 3143.22 1322.95 3150.75 1333.86 3143.97 1346.71 3140.06 1360.49 3140.06 1384.5 3140.06 1405.72 3151.91 1418.67 3170.02 1415.91 3159.16 1414.43 3147.83 1414.43 3136.12 1414.43 3060.19 1476 2998.65 1551.93 2998.65 1576.32 2998.65 1599.22 3004.99 1619.07 3016.12 1624.94 2982.58 1654.18 2957.03 1689.43 2957.03 1709.38 2957.03 1727.38 2965.22 1740.36 2978.39 1775.56 2940.14 1826.05 2916.18 1882.11 2916.18 1919.51 2916.18 1954.4 2926.85 1983.95 2945.26 2003.96 2957.77 2021.51 2973.84 2035.71 2992.58 2048.33 2981.39 2064.95 2974.56 2083.14 2974.56 2122.58 2974.56 2154.58 3006.59 2154.58 3046.05 2154.58 3050.27 2154.19 3054.37 2153.51 3058.4 2170.51 3038.67 2195.65 3026.18 2223.73 3026.18 2266.34 3026.18 2302.2 3054.95 2313.03 3094.12 2326.26 3055.95 2362.53 3028.53 2405.22 3028.53 2421.2 3028.53 2436.31 3032.39 2449.62 3039.2 2442.95 3030.08 2439.01 3018.86 2439.01 3006.71 2439.01 2976.12 2463.81 2951.29 2494.41 2951.29 2495.24 2951.29 2496.04 2951.32 2496.84 2951.35 2503.15 2951.63 2509.19 2952.95 2514.75 2955.18 2520.76 2957.58 2526.27 2961.02 2531.04 2965.21 2531.56 2964.41 2532.11 2963.64 2532.67 2962.84 2549.43 2939.05 2577.1 2923.48 2608.44 2923.48 2631.81 2923.48 2653.14 2932.16 2669.46 2946.44 2713.23 2908.76 2770.17 2885.94 2832.51 2885.94 2932.61 2885.94 3018.96 2944.75 3058.95 3029.7 3075.68 3013.3 3098.58 3003.16 3123.88 3003.16 3126.28 3003.16 3128.65 3003.24 3131.02 3003.44 3137.17 3003.91 3143.17 3004.98 3148.93 3006.58 3155.19 3008.34 3161.19 3010.74 3166.84 3013.72 3196.39 3029.18 3216.56 3060.16 3216.56 3095.82 3216.56 3110.23 3213.25 3123.88 3207.41 3136.03 3225.21 3125.14 3246.11 3118.86 3268.51 3118.86 3321.43 3118.86 3366.13 3153.94 3380.68 3202.12 3395.04 3181.2 3419.13 3167.42 3446.44 3167.42 3467.33 3167.42 3486.29 3175.47 3500.49 3188.59 3521.24 3129.61 3577.38 3087.3 3643.47 3087.3 3655.98 3087.3 3668.11 3088.82 3679.71 3091.68 3722.73 3102.24 3758.51 3131.2 3778.29 3169.73 3794.74 3157.08 3815.33 3149.56 3837.68 3149.56 3891.51 3149.56 3935.13 3193.13 3935.25 3246.93 3935.53 3247.4 3935.8 3247.87 3936.1 3248.36 3940.37 3247.53 3944.75 3247.09 3949.27 3247.09 3987.72 3247.09 4018.89 3278.26 4018.89 3316.74 4018.89 3318.15 4018.81 3319.58 4018.75 3320.98 4035.2 3308.33 4055.76 3300.81 4078.12 3300.81 4103.31 3300.81 4126.27 3310.37 4143.58 3326.03 4146.34 3307.59 4162.24 3293.43 4181.45 3293.43 4189.39 3293.43 4196.8 3295.86 4202.89 3300.02 4215.46 3268.99 4245.86 3247.1 4281.38 3247.1 4316.9 3247.1 4347.91 3269.45 4360.23 3300.95 4362.16 3300.9 4364.09 3300.81 4366.05 3300.81 4460.36 3300.81 4536.87 3377.29 4536.87 3471.66Z" stroke-width="0" fill="#B7CA52"/><path d="M4412.65 3509.42 252.98 3509.42C261.25 3428.78 329.35 3365.88 412.17 3365.88 443.75 3365.88 473.22 3375.09 498.02 3390.88 503.28 3354.64 534.48 3326.83 572.19 3326.83 613.61 3326.83 647.18 3360.4 647.18 3401.82 647.18 3403.14 647.15 3404.47 647.07 3405.73 663.03 3380.1 691.44 3363.01 723.85 3363.01 763.37 3363.01 796.97 3388.42 809.23 3423.78 821.27 3375.88 864.6 3340.35 916.25 3340.35 927.61 3340.35 938.6 3342.09 948.91 3345.28 944.03 3335.96 941.22 3325.38 941.22 3314.14 941.22 3277.15 971.18 3247.19 1008.17 3247.19 1017.68 3247.19 1026.75 3249.2 1034.93 3252.79 1036.42 3193.12 1085.2 3145.17 1145.23 3145.17 1188.8 3145.17 1226.48 3170.44 1244.42 3207.13 1263.52 3183.7 1292.62 3168.71 1325.23 3168.71 1382.8 3168.71 1429.46 3215.4 1429.46 3272.97 1429.46 3280.44 1428.66 3287.74 1427.15 3294.77 1437.38 3288.43 1449.42 3284.77 1462.37 3284.77 1484.83 3284.77 1504.68 3295.85 1516.83 3312.83 1514.27 3302.66 1512.86 3292.05 1512.86 3281.11 1512.86 3209.95 1570.54 3152.29 1641.68 3152.29 1664.5 3152.29 1685.94 3158.27 1704.52 3168.69 1710.03 3137.24 1737.46 3113.35 1770.45 3113.35 1789.14 3113.35 1806 3120.98 1818.16 3133.33 1851.15 3097.53 1898.42 3075.07 1950.92 3075.07 1962.19 3075.07 1973.24 3076.12 1983.94 3078.1 2029 3086.42 2068.19 3111.53 2094.82 3146.64 2106.64 3136.14 2122.19 3129.77 2139.22 3129.77 2176.21 3129.77 2206.17 3159.73 2206.17 3196.72 2206.17 3200.66 2205.81 3204.49 2205.15 3208.24 2221.08 3189.8 2244.64 3178.09 2270.94 3178.09 2310.85 3178.09 2344.47 3205.04 2354.59 3241.73 2366.96 3205.96 2400.95 3180.27 2440.94 3180.27 2455.93 3180.27 2470.04 3183.91 2482.5 3190.3 2476.3 3181.76 2472.58 3171.23 2472.58 3159.85 2472.58 3141.36 2482.25 3125.1 2496.83 3115.95 2502.2 3112.53 2508.27 3110.11 2514.74 3108.87 2517.91 3108.26 2521.13 3107.96 2524.47 3107.96 2527.25 3107.96 2529.98 3108.18 2532.66 3108.62 2542.61 3110.19 2551.57 3114.63 2558.79 3120.97 2574.31 3097.43 2600.99 3081.94 2631.28 3081.94 2653.19 3081.94 2673.15 3090.02 2688.44 3103.41 2729.45 3068.13 2782.78 3046.75 2841.15 3046.75 2934.91 3046.75 3015.8 3101.84 3053.29 3181.41 3068.94 3166.03 3090.39 3156.55 3114.09 3156.55 3119.88 3156.55 3125.56 3157.13 3131.01 3158.2 3137.27 3159.44 3143.25 3161.31 3148.92 3163.82 3155.34 3166.63 3161.35 3170.19 3166.83 3174.4 3187.56 3190.25 3200.92 3215.22 3200.92 3243.33 3200.92 3256.84 3197.81 3269.62 3192.32 3281.01 3208.99 3270.81 3228.59 3264.91 3249.56 3264.91 3299.14 3264.91 3341.01 3297.79 3354.62 3342.91 3368.07 3323.29 3390.67 3310.42 3416.25 3310.42 3435.79 3310.42 3453.57 3317.92 3466.88 3330.21 3486.31 3274.98 3538.9 3235.35 3600.8 3235.35 3630.01 3235.35 3657.13 3244.17 3679.71 3259.3 3699.69 3272.72 3716.06 3291.05 3727.11 3312.58 3742.52 3300.7 3761.78 3293.67 3782.73 3293.67 3833.14 3293.67 3874.04 3334.52 3874.12 3384.9 3874.37 3385.34 3874.64 3385.78 3874.92 3386.22 3878.89 3385.45 3883.02 3385.03 3887.24 3385.03 3923.26 3385.03 3952.45 3414.24 3952.45 3450.24 3952.45 3451.62 3952.39 3452.91 3952.31 3454.26 3967.72 3442.41 3987.01 3435.35 4007.93 3435.35 4031.55 3435.35 4053.05 3444.28 4069.28 3459 4071.84 3441.69 4086.7 3428.44 4104.72 3428.44 4112.16 3428.44 4119.08 3430.7 4124.81 3434.59 4136.58 3405.54 4165.05 3385.04 4198.34 3385.04 4231.63 3385.04 4260.65 3405.96 4272.18 3435.5 4274 3435.44 4275.82 3435.36 4277.64 3435.36 4334.39 3435.36 4384.22 3464.91 4412.66 3509.44Z" stroke-width="0" fill="#93AF3B"/></g><path d="M4614.47 3545.53 4614.47 3545.53C4614.47 3567.12 4596.97 3584.63 4575.37 3584.63L39.1 3584.63C17.51 3584.63 0 3567.13 0 3545.53L0 3545.53C0 3523.94 17.5 3506.43 39.1 3506.43L4575.37 3506.43C4596.96 3506.43 4614.47 3523.93 4614.47 3545.53Z" stroke-width="0" fill="#7C4D4C"/></g><path d="M1768.63 117.05C1811.44 142.09 1829.29 154.03 1835.26 174.72 1835.26 174.72 1881.55 97.81 1817.26 74.11 1778.36 59.78 1759.54 45.11 1744.61 22.38 1744.61 22.38 1718.6 87.77 1768.64 117.06Z" stroke-width="0" fill="#F5DB38"/><path d="M160.41 1828C208.79 1855.07 229 1868 236.12 1890.99 236.12 1890.99 286.16 1804.04 213.82 1778.97 170.04 1763.8 148.69 1747.82 131.51 1722.75 131.51 1722.75 103.85 1796.39 160.41 1828Z" stroke-width="0" fill="#F5DB38"/><path d="M3014 541.62C3054.87 561.38 3072.02 570.99 3078.94 589.43 3078.94 589.43 3115.65 515.94 3055.28 498.93 3018.75 488.66 3000.54 476.63 2985.27 456.97 2985.27 456.97 2966.25 518.5 3014.01 541.61Z" stroke-width="0" fill="#F5DB38"/><path d="M539.99 747.04C558.4 662.73 520.94 650.46 457.7 612.27 402.4 578.89 397.95 529.76 397.95 529.76 353.51 604.86 354.34 680.22 453.31 704.64 520.88 721.32 540 747.04 540 747.04Z" stroke-width="0" fill="#F5DB38"/><path d="M3000.61 751.61C2777.09 569.89 2619.28 455.89 2627.12 284.03 2627.12 284.03 2430.02 434.65 2627.12 776.9 2627.12 776.9 2386.86 460.27 1979.59 374.66 1572.32 289.06 1391.36 405.43 1240.59 291.47 1203.02 251.33 1186.2 195.41 1185.58 193.29 1185.55 193.24 1185.55 193.23 1185.55 193.23 1185.55 193.23 1131.23 296.24 1165.3 398.57 1185.2 448.15 1220.7 495.51 1281.05 530.99 1485.05 650.94 1687.14 706.65 1690.63 967.98 1668.05 938.17 1640.21 907.94 1605.93 878.55 1413.79 713.84 1128.51 759.93 963.82 682.57 799.11 605.23 756.7 348.21 756.7 348.21 726.75 465.48 721.75 597.73 721.75 597.73 729.25 947.09 941.35 1051.89 1150.97 1126.76 1360.56 1201.61 1380.21 1285.57 1370.54 1371.3 1365.97 1411.84 1342.15 1447.57 1306.6 1471.35 1306.6 1471.35 1306.47 1471.43 1306.27 1471.57 1299.87 1476.17 1197.78 1546.39 1055.15 1471.35 907.82 1393.82 915.62 1172.01 793.52 1049.25 713.59 968.91 612.93 972.88 552.91 985.24 619.16 1021.7 689.29 1080.4 704.29 1169.18 722.87 1279.04 705 1376.43 719.07 1469.07 719.13 1469.59 719.23 1470.13 719.31 1470.65 719.34 1470.97 719.39 1471.26 719.44 1471.56 720.34 1477.45 721.47 1483.68 722.89 1490.26 723.65 1493.87 724.47 1497.48 725.36 1501.08 725.47 1501.6 725.61 1502.12 725.74 1502.67 726.07 1504.03 726.42 1505.38 726.76 1506.72 749.89 1598.05 797.82 1669.98 846.58 1723.18 781.01 1729.66 630.59 1725.37 611.54 1554.09 609.49 1532.38 606.1 1508.87 599.68 1483.14 593.27 1457.4 583.78 1429.41 569.57 1398.74 559.83 1377.77 547.78 1359.87 534.1 1344.62L533.96 1344.46C533.96 1344.46 533.93 1344.44 533.93 1344.43 453.92 1260.2 324.81 1295.65 322.94 1296.19 402.36 1351.11 447.25 1450.21 409.86 1595.87 405.77 1611.82 402.99 1626.85 401.28 1641.03 380.44 1754.25 317.56 2279.83 871.17 2577.69 699.42 2600.11 523.03 2477.7 523.03 2477.7 523.03 2477.7 530.72 2783.75 855.82 2885.9 1177.94 2987.11 1169.06 3276.23 1169.06 3276.23L1434.54 3043.49 1482.14 2755.58C2518.34 2853.52 3223.71 1881.97 3223.71 1881.97 3223.71 1881.97 3141.55 1699.05 2987.61 1460.33L3187.33 1557.53C3187.33 1557.53 3429.68 1100.43 3000.62 751.61Z" stroke-width="0" fill="#F5DB38"/><g opacity="0.5"><path d="M985.76 4.18 984.69 3.46C985.37 3.94 985.76 4.18 985.76 4.18Z" stroke-width="0" fill="#D57265"/></g><g opacity="0.5"><path d="M981.62 1.4C981 0.98 980.29 0.51 979.52 0L981.62 1.4Z" stroke-width="0" fill="#D57265"/></g><path d="M3419.1 1456.15C3374.84 1288.43 3316.61 1188.27 3316.61 1188.27 3316.61 1188.27 3204.8 1321.04 3188.49 1376.95 3188.49 1376.95 3048.73 972.23 2702.82 867.11 2702.82 867.11 2693.9 954.73 2738.49 1039.45 2738.49 1039.45 2402.07 683.48 1904.68 673.82 1904.68 673.82 2100.87 1158.19 1931.43 1321.76 1931.43 1321.76 1567.36 1057.28 1432.82 1012.69 1432.82 1012.69 1621.31 1316.18 1493.24 1530.06 1365.16 1743.94 1004 1625.28 1004 1625.28 1004 1625.28 1106.55 1806.37 1084.26 1935.68 1061.97 2064.99 651.75 2007.02 571.49 1935.68 571.49 1935.68 631.08 2191.87 870.23 2412.03 1018.4 2548.43 1098.18 2595.43 1098.18 2595.43 1098.18 2595.43 937.59 2704.48 828.11 2679.02 828.11 2679.02 1131.91 2803.06 1184.06 3012.19 1225.36 3177.81 2158.83 2438.04 2194.51 2412.03 2230.18 2386.03 3016.98 1458.73 3016.98 1458.73 3017.67 1456.38 3018.32 1454.04 3018.97 1451.7 3058.58 1510.63 3089.99 1557.95 3089.99 1557.95L3393.48 1710.06C3393.48 1710.06 3463.36 1623.87 3419.1 1456.16Z" stroke-width="0" fill="#E2310E" opacity="0.51"/><rect x="1169.05" y="1806.87" width="2276.36" height="1699.47" stroke-width="0" fill="#EDEDF7"/><path d="M3559.95 1847.1 1054.51 1847.1 2307.23 997.37 3559.95 1847.1Z" stroke-width="0" fill="#EDEDF7"/><path d="M2618.52 2924.84 1995.95 2924.84C1965.58 2924.84 1940.96 2900.22 1940.96 2869.85 1940.96 2839.74 1940.96 2808.49 1940.96 2808.49L1940.96 2267.68C1940.96 2267.68 1940.96 2158.76 1940.96 2089.96 1940.96 2059.59 1965.58 2034.98 1995.95 2034.98L2618.52 2034.98C2648.89 2034.98 2673.51 2059.6 2673.51 2089.97L2673.51 2869.85C2673.51 2900.22 2648.89 2924.84 2618.52 2924.84Z" stroke-width="0" fill="#B77862"/><g><rect x="2013.16" y="2107.95" width="249.85" height="249.81" stroke-width="0" fill="#2AA1F2"/><rect x="2013.16" y="2446.23" width="249.88" height="405.65" stroke-width="0" fill="#2AA1F2"/><rect x="2351.53" y="2107.99" width="249.74" height="249.81" stroke-width="0" fill="#2AA1F2"/><rect x="2351.53" y="2446.22" width="249.73" height="405.65" stroke-width="0" fill="#2AA1F2"/></g><path d="M2263.01 2107.95 2263.01 2188.23 2093.51 2357.75 2013.16 2357.75 2013.16 2107.95 2263.01 2107.95Z" stroke-width="0" fill="#FFFFFF" opacity="0.52"/><path d="M2263.01 2357.75 2228.99 2357.75 2263.01 2323.76 2263.01 2357.75Z" stroke-width="0" fill="#FFFFFF" opacity="0.52"/><path d="M2140.52 2446.23 2263.03 2446.23 2263.03 2494.75 2013.16 2744.62 2013.16 2573.59 2140.52 2446.23Z" stroke-width="0" fill="#FFFFFF" opacity="0.52"/><path d="M2601.27 2107.99 2601.27 2156.49 2399.96 2357.8 2351.53 2357.8 2351.53 2235.24 2478.77 2107.99 2601.27 2107.99Z" stroke-width="0" fill="#FFFFFF" opacity="0.52"/><rect x="1169.05" y="3319.24" width="2276.37" height="187.11" stroke-width="0" fill="#FC7660"/><path d="M3516.28 1847.1 3445.41 1847.1 3445.41 1972.78 3260.13 1847.1 3200.84 1806.87 2307.23 1200.73 1413.64 1806.87 1354.33 1847.1 1169.05 1972.78 1169.05 1847.1 1098.18 1847.1 2307.23 1026.99 3516.28 1847.1Z" stroke-width="0" fill="#AAAAD4"/><path d="M2307.23 922.68 2307.23 922.68 2307.23 922.68 811.14 1937.5 900.5 2050.64 2307.23 1096.42 2307.23 1096.42 2307.23 1096.42 2307.23 1096.42 2307.23 1096.42 3713.97 2050.64 3803.33 1937.5 2307.23 922.68Z" stroke-width="0" fill="#4C4C63"/><rect x="1169.05" y="1868.48" width="83.34" height="1450.76" stroke-width="0" fill="#AAAAD4"/><rect x="3362.07" y="1868.48" width="83.34" height="1450.76" stroke-width="0" fill="#AAAAD4"/><g opacity="0.46"><rect x="1424.05" y="2201.76" rx="39.37" ry="39.37" width="175.89" height="93.06" stroke-width="0" fill="#AAAAD4"/><path d="M1657.72 2202.27 1754.86 2202.27C1776.59 2202.27 1794.23 2219.91 1794.23 2241.64L1794.23 2255.96C1794.23 2277.69 1776.59 2295.33 1754.86 2295.33L1657.72 2295.33C1635.99 2295.33 1618.35 2277.69 1618.35 2255.96L1618.35 2241.64C1618.35 2219.91 1635.99 2202.27 1657.72 2202.27Z" stroke-width="0" fill="#AAAAD4"/><rect x="1521.2" y="2088.77" rx="39.37" ry="39.37" width="175.89" height="93.06" stroke-width="0" fill="#AAAAD4"/><rect x="2803.34" y="3032.11" rx="39.37" ry="39.37" width="175.89" height="93.06" stroke-width="0" fill="#AAAAD4"/><path d="M3037.01 3032.62 3134.15 3032.62C3155.88 3032.62 3173.52 3050.26 3173.52 3071.99L3173.52 3086.31C3173.52 3108.04 3155.88 3125.69 3134.14 3125.69L3037 3125.69C3015.27 3125.69 2997.62 3108.05 2997.62 3086.31L2997.62 3071.99C2997.62 3050.26 3015.26 3032.62 3036.99 3032.62Z" stroke-width="0" fill="#AAAAD4"/><rect x="2900.49" y="2919.12" rx="39.37" ry="39.37" width="175.89" height="93.06" stroke-width="0" fill="#AAAAD4"/><rect x="2985.36" y="1995.7" rx="39.37" ry="39.37" width="175.89" height="93.06" stroke-width="0" fill="#AAAAD4"/><rect x="2888.22" y="1882.21" rx="39.37" ry="39.37" width="175.89" height="93.06" stroke-width="0" fill="#AAAAD4"/><rect x="2218.08" y="1584.63" rx="39.37" ry="39.37" width="175.89" height="93.06" stroke-width="0" fill="#AAAAD4"/><path d="M1502.8 3042.58 1599.94 3042.58C1621.67 3042.58 1639.31 3060.22 1639.31 3081.95L1639.31 3096.27C1639.31 3118 1621.67 3135.64 1599.94 3135.64L1502.8 3135.64C1481.07 3135.64 1463.43 3118 1463.43 3096.27L1463.43 3081.95C1463.43 3060.22 1481.07 3042.58 1502.8 3042.58Z" stroke-width="0" fill="#AAAAD4"/><path d="M1599.94 2929.59 1697.08 2929.59C1718.81 2929.59 1736.45 2947.23 1736.45 2968.96L1736.45 2983.28C1736.45 3005.01 1718.81 3022.65 1697.08 3022.65L1599.94 3022.65C1578.21 3022.65 1560.57 3005.01 1560.57 2983.28L1560.57 2968.96C1560.57 2947.23 1578.21 2929.59 1599.94 2929.59Z" stroke-width="0" fill="#AAAAD4"/></g></svg>