<svg viewBox="0 0 96 96" xmlns="http://www.w3.org/2000/svg" xmlns:xlink="http://www.w3.org/1999/xlink" id="Icons_CommentHeartBreak" overflow="hidden"><path d="M78.6 17.005 17.4 17.005C15.5304 17.0245 14.0195 18.5354 14 20.405L14 61.717C13.9845 63.5792 15.4815 65.1015 17.3438 65.117 17.3625 65.1171 17.3813 65.1171 17.4 65.117L54.8 65.117 68.4 79.017 68.4 65.217 78.6 65.217C80.4696 65.1975 81.9805 63.6866 82 61.817L82 20.506C82.0239 18.6019 80.504 17.0368 78.6 17.005ZM48 54C48 54 34.962 43.914 34.962 35.764 34.962 30.804 41.795 25.527 46.662 32.011L45.112 34.2 48.959 38.077 45.116 41.966 48.959 45.843 48 41.966 51.843 38.077 48 34.208C52.832 24.514 61.035 30.331 61.038 35.764 61.038 43.91 48 54 48 54Z" fill="#C00000"/></svg>