<svg viewBox="0 0 945.28 1680.66" xmlns="http://www.w3.org/2000/svg" xmlns:xlink="http://www.w3.org/1999/xlink" id="Character_2" overflow="hidden"><defs></defs><g><path d="M413.14 158.11C401.13 129.07 400.5 78.55 418.86 51.99 437.22 25.43 471.59 7.89 503.16 1.11 508.44-0.02 514.11-0.79 519.09 1.31 524.06 3.41 527.77 9.34 525.64 14.3 531.98 10.34 538.48 6.32 545.77 4.64 553.06 2.97 561.42 4.05 566.78 9.26 572.14 14.47 572.98 24.32 567.3 29.19 576.11 25.98 586.71 28.47 593.16 35.28 599.61 42.08 601.53 52.81 597.85 61.43 594.32 69.69 586.83 78.9 580.21 84.97 573.59 91.04 572.5 97.33 573.59 106.24" stroke-width="0" fill="#263238"/><g><g><g><path d="M519.11 316.03C519.28 302.56 519.4 262.19 519.46 261.64 519.46 261.64 564.93 259.51 570.31 214.86 572.91 193.29 574.64 148.44 575.73 107.83 576.91 64.18 544.35 26.96 500.94 22.28L496.63 21.81C449.82 19.51 421.71 57.98 420.71 104.84L414.23 283.84C413.19 312.59 435.5 336.81 464.23 338.14L464.23 338.14C493.87 339.51 519.11 316.03 519.11 316.03Z" stroke-width="0" fill="#FFBE9D"/><path d="M519.61 261.01C519.61 261.01 491.1 260.26 463.11 238.16 463.11 238.16 472.03 266.14 517.08 266.92L519.62 261.01Z" stroke-width="0" fill="#EB996E"/></g><g><g><g><path d="M565.9 137.53C565.66 140.91 562.59 143.5 559.05 143.31 555.52 143.12 552.84 140.23 553.09 136.84 553.34 133.46 556.4 130.87 559.94 131.06 563.48 131.25 566.15 134.15 565.91 137.53Z" stroke-width="0" fill="#263238"/><path d="M563.76 128.69C562.88 129.44 558.43 125.33 551.55 124.61 544.7 123.79 539.27 126.78 538.62 125.86 538.29 125.45 539.26 124.03 541.63 122.67 543.96 121.31 547.82 120.16 552.09 120.64 556.37 121.13 559.8 123.09 561.69 124.92 563.63 126.77 564.18 128.35 563.75 128.68Z" stroke-width="0" fill="#263238"/></g><g><path d="M496.79 133.24C496.55 136.62 493.48 139.21 489.94 139.02 486.41 138.83 483.73 135.94 483.98 132.55 484.22 129.17 487.29 126.58 490.83 126.77 494.37 126.96 497.04 129.86 496.8 133.24Z" stroke-width="0" fill="#263238"/><path d="M496.08 122.69C495.2 123.44 490.74 119.34 483.87 118.61 477.02 117.79 471.59 120.78 470.94 119.86 470.62 119.45 471.58 118.03 473.95 116.67 476.28 115.31 480.14 114.16 484.41 114.64 488.69 115.13 492.12 117.09 494.01 118.93 495.94 120.78 496.5 122.36 496.07 122.69Z" stroke-width="0" fill="#263238"/></g><path d="M515.52 176.33C515.52 175.94 519.88 175.66 526.9 175.52 528.67 175.52 530.37 175.36 530.8 174.19 531.35 172.97 530.82 171 530.19 168.86 529 164.44 527.75 159.8 526.44 154.94 521.29 135.14 517.76 118.94 518.56 118.74 519.36 118.54 524.19 134.42 529.34 154.22 530.57 159.1 531.75 163.75 532.86 168.2 533.31 170.27 534.21 172.65 533.03 175.19 532.42 176.45 531.03 177.26 529.87 177.44 528.71 177.66 527.72 177.57 526.85 177.53 519.84 177.15 515.52 176.72 515.54 176.33Z" stroke-width="0" fill="#263238"/><path d="M494.79 178.91C495.91 178.96 495.12 186.42 500.94 192.41 506.74 198.41 514.78 198.43 514.73 199.48 514.78 199.96 512.8 200.74 509.44 200.47 506.14 200.23 501.44 198.65 497.89 194.99 494.35 191.32 493.14 186.81 493.21 183.72 493.26 180.57 494.29 178.81 494.8 178.91Z" stroke-width="0" fill="#263238"/></g><path d="M500.76 95.95C499.88 97.74 493.12 96.12 484.95 96.22 476.78 96.16 470.03 97.82 469.14 96.03 468.75 95.18 470.07 93.54 472.9 92.02 475.7 90.49 480.04 89.23 484.94 89.21 489.84 89.21 494.19 90.45 496.99 91.96 499.82 93.47 501.15 95.1 500.77 95.96Z" stroke-width="0" fill="#263238"/><path d="M563.38 108.53C562 109.96 557.45 107.83 551.76 107.14 546.1 106.25 541.14 107.06 540.2 105.3 539.8 104.46 540.73 102.97 542.99 101.72 545.22 100.47 548.83 99.64 552.72 100.18 556.62 100.73 559.85 102.51 561.66 104.32 563.5 106.14 563.99 107.82 563.37 108.52Z" stroke-width="0" fill="#263238"/></g></g><g><path d="M420.79 138.35C420.06 137.94 391.05 125.95 388.73 156.62 386.41 187.29 417.68 183.3 417.8 182.42 417.92 181.54 420.79 138.35 420.79 138.35Z" stroke-width="0" fill="#FFBE9D"/><path d="M409.31 170.09C409.18 169.98 408.75 170.42 407.81 170.77 406.9 171.11 405.36 171.27 403.81 170.55 400.66 169.12 398.32 163.76 398.59 158.22 398.72 155.42 399.51 152.81 400.66 150.68 401.77 148.51 403.34 147.05 404.99 146.88 406.64 146.63 407.72 147.69 408.03 148.58 408.38 149.47 408.14 150.07 408.29 150.13 408.37 150.21 408.99 149.67 408.84 148.38 408.76 147.76 408.45 147.01 407.78 146.37 407.09 145.72 406.03 145.33 404.88 145.37 402.5 145.35 400.21 147.37 398.94 149.7 397.54 152.04 396.59 154.97 396.44 158.11 396.17 164.31 398.9 170.33 403.23 171.95 405.34 172.68 407.19 172.16 408.18 171.51 409.19 170.82 409.4 170.15 409.3 170.09Z" stroke-width="0" fill="#EB996E"/></g><path d="M599.72 51.39C600.26 91.43 550.02 104.29 530.22 80.41 521.07 69.37 513.38 55.85 500.2 50.19 491.33 46.38 480.92 47.26 472.02 50.99 471.93 51.03 471.84 51.07 471.75 51.1 458.62 56.7 450.03 70.76 447 84.72 442.77 104.17 444.59 121.75 438.1 139.42 437.17 141.96 436.09 144.68 433.78 146.09 429.86 148.48 424.68 145.72 421.89 142.09 417.41 136.27 416.26 128.59 415.75 121.26 414.58 104.57 416 87.55 421.39 71.71 426.79 55.87 436.31 41.24 449.58 31.04 466.16 18.29 488.03 13.11 508.79 15.68 529.55 18.24 549.08 28.25 564.33 42.56 571.4 49.2 577.74 56.99 580.77 66.21" stroke-width="0" fill="#263238"/></g><path d="M568.92 27.04C568.92 26.95 570.47 26.79 573.15 27.54 575.8 28.27 579.52 30.21 582.85 33.96 586.13 37.67 589 43.28 589.28 49.99 589.57 56.7 586.79 63.96 581.87 69.75 576.93 75.56 570.51 79.45 564.28 81.42 558.05 83.46 552.14 83.91 547.27 83.85 542.38 83.75 538.47 83.16 535.81 82.62 533.15 82.08 531.72 81.6 531.75 81.46 531.81 81.03 537.71 82.35 547.26 82.18 552.01 82.03 557.69 81.41 563.58 79.35 569.46 77.37 575.43 73.65 580.06 68.21 584.65 62.8 587.25 56.13 587.1 50.04 586.96 43.93 584.48 38.63 581.57 35.03 578.61 31.41 575.28 29.36 572.84 28.4 570.39 27.42 568.88 27.26 568.92 27.03Z" stroke-width="0" fill="#455A64"/><path d="M549.47 11.42C549.47 11.3 550.62 11.16 552.35 12.16 554.03 13.15 556.09 15.5 556.63 19.07 557.17 22.66 555.77 26.85 553.39 30.63 551.02 34.41 547.95 38.3 544.09 41.72 536.42 48.67 527.6 52.45 521.09 53.94 514.55 55.54 510.34 55.16 510.35 54.93 510.31 54.51 514.43 54.29 520.65 52.33 526.86 50.47 535.17 46.61 542.51 39.96 546.2 36.69 549.18 33 551.55 29.46 553.89 25.94 555.23 22.3 554.97 19.25 554.71 16.19 553.14 13.98 551.82 12.9 550.46 11.8 549.42 11.6 549.46 11.41Z" stroke-width="0" fill="#455A64"/></g><g><path d="M790.76 1471.01 824.92 1570.17C824.92 1570.17 937.18 1568.75 945.28 1586.46L755.4 1659.6 695.83 1507.29 790.76 1471.02Z" stroke-width="0" fill="#E8505B"/><path d="M763.03 1584.56C759.74 1586.98 758.79 1592.09 761.08 1595.47 763.36 1598.85 768.55 1599.86 771.88 1597.5 775.21 1595.14 776.54 1589.04 773.89 1585.93 771.24 1582.82 765.09 1581.97 762.42 1585.06" stroke-width="0" fill="#E0E0E0"/><g opacity="0.6"><path d="M755.4 1659.6 750 1644.01 934.07 1579.71C934.07 1579.71 943.94 1580.13 945.28 1586.45L755.4 1659.59Z" stroke-width="0" fill="#FFFFFF"/></g><path d="M827.62 1568.01C827.95 1568.95 823.47 1571.16 820.06 1575.89 816.52 1580.54 815.72 1585.46 814.72 1585.42 813.8 1585.57 813.04 1579.49 817.28 1573.83 821.46 1568.13 827.49 1567.08 827.62 1568Z" stroke-width="0" fill="#263238"/><path d="M850.71 1568.58C851.27 1569.4 847.86 1572.52 846.22 1577.65 844.43 1582.74 845.27 1587.28 844.33 1587.6 843.51 1588.08 840.78 1582.9 842.94 1576.55 845.04 1570.19 850.35 1567.7 850.71 1568.57Z" stroke-width="0" fill="#263238"/><path d="M871.21 1588.06C870.44 1588.58 867.37 1584.45 867.79 1578.45 868.17 1572.45 871.77 1568.76 872.46 1569.39 873.28 1569.95 871.51 1573.76 871.24 1578.69 870.85 1583.61 872.09 1587.62 871.21 1588.07Z" stroke-width="0" fill="#263238"/><path d="M817.33 1546.28C817.27 1547.27 812.52 1547.63 807.42 1550.01 802.27 1552.28 798.87 1555.61 798.08 1555 797.29 1554.54 799.94 1549.57 806 1546.86 812.03 1544.1 817.51 1545.38 817.34 1546.28Z" stroke-width="0" fill="#263238"/></g><g><g><path d="M94.11 1457.97 91.98 1460.75 50.89 1514.4 0 1549.3 68.14 1680.58 143.18 1680.66C143.18 1680.66 137.76 1662.62 101.66 1653.29L99.29 1581.23 164.1 1510.03" stroke-width="0" fill="#E8505B"/><g opacity="0.6"><path d="M0 1549.3 68.14 1680.58 143.18 1680.66 134.74 1669.37 73.72 1665.95 10.83 1541.88 0 1549.3Z" stroke-width="0" fill="#FFFFFF"/></g></g><path d="M101.2 1620.27C100.64 1621.04 96.32 1618.58 90.52 1618.74 84.71 1618.74 80.46 1621.31 79.88 1620.56 79.18 1619.99 83.41 1615.5 90.48 1615.44 97.55 1615.31 101.9 1619.69 101.21 1620.27Z" stroke-width="0" fill="#263238"/><path d="M100 1602.4C99.25 1602.93 95.91 1598.5 89.93 1597.33 83.96 1596.1 79.17 1598.89 78.68 1598.11 78.43 1597.77 79.29 1596.52 81.4 1595.37 83.47 1594.23 86.88 1593.35 90.58 1594.09 94.28 1594.83 97.09 1596.96 98.56 1598.82 100.06 1600.69 100.37 1602.19 100.01 1602.4Z" stroke-width="0" fill="#263238"/><path d="M100.51 1579.44C99.69 1579.85 97.13 1575.52 91.91 1573.7 86.7 1571.82 81.99 1573.59 81.61 1572.75 81.41 1572.37 82.36 1571.33 84.44 1570.55 86.48 1569.77 89.72 1569.43 93.01 1570.59 96.3 1571.75 98.6 1574.06 99.7 1575.95 100.83 1577.86 100.91 1579.27 100.52 1579.44Z" stroke-width="0" fill="#263238"/><path d="M120.6 1561.66C119.71 1561.97 117.6 1557.7 112.94 1554.69 108.37 1551.54 103.62 1551.22 103.57 1550.28 103.32 1549.41 109.13 1548.14 114.77 1551.95 120.45 1555.71 121.49 1561.57 120.59 1561.67Z" stroke-width="0" fill="#263238"/><g opacity="0.6"><path d="M59.86 1547.06C59.86 1551.98 55.88 1555.96 50.96 1555.96 46.04 1555.96 42.06 1551.98 42.06 1547.06 42.06 1542.14 46.05 1538.16 50.96 1538.16 55.87 1538.16 59.86 1542.15 59.86 1547.06Z" stroke-width="0" fill="#FFFFFF"/></g></g><g><path d="M343.99 917.73 576 1257.75 701.42 1555.07 807.64 1498.28 700.25 1200.52 542.44 887.73 343.99 917.73Z" stroke-width="0" fill="#263238"/><path d="M248.19 887.73 209.46 1161.47 51.1 1506.83 145.43 1561.68 346.84 1219.35 458.65 887.73 248.19 887.73Z" stroke-width="0" fill="#263238"/><path d="M145.43 1561.68C145.43 1561.68 145.67 1561.1 146.25 1560.02 146.9 1558.85 147.77 1557.28 148.87 1555.28 151.29 1551.02 154.75 1544.95 159.16 1537.18 168.26 1521.4 181.31 1498.76 197.41 1470.84 229.97 1414.84 274.85 1337.67 324.42 1252.43 332.54 1238.53 340.52 1224.84 348.11 1211.84L348.01 1212.07C375.63 1128.9 400.07 1055.31 417.65 1002.37 426.49 976.09 433.6 954.94 438.55 940.22 441.02 933.04 442.94 927.44 444.29 923.49 444.94 921.68 445.45 920.25 445.83 919.17 446.19 918.2 446.39 917.71 446.43 917.73 446.47 917.74 446.34 918.25 446.05 919.25 445.72 920.35 445.28 921.8 444.72 923.64 443.46 927.61 441.67 933.26 439.38 940.5 434.6 955.27 427.72 976.5 419.18 1002.88 401.79 1055.88 377.62 1129.56 350.3 1212.83L350.26 1212.95 350.2 1213.06C342.62 1226.06 334.64 1239.75 326.53 1253.66 276.72 1338.76 231.63 1415.8 198.91 1471.71 182.53 1499.47 169.24 1521.97 159.98 1537.66 155.39 1545.33 151.8 1551.33 149.29 1555.53 148.1 1557.48 147.16 1559.01 146.46 1560.15 145.81 1561.18 145.46 1561.7 145.42 1561.68Z" stroke-width="0" fill="#455A64"/></g><g><path d="M238.48 910.14C270.5 929.36 590.83 906.04 590.83 906.04L596.06 828.57 557.18 739.54 519.6 345.12 524.56 313.02 407.14 235.49 407.14 269.65C336.72 280.24 298.81 418.16 298.81 418.16L296.36 700.71 218.2 892.27 238.48 910.15Z" stroke-width="0" fill="#E8505B"/><g opacity="0.3"><path d="M248.19 818.78C269.31 845.56 291.72 866.81 319 887.28 333.56 898.2 350.81 908.57 368.78 905.7 386.18 902.92 399.09 888.6 410.49 875.15 431.87 849.94 453.24 824.73 474.62 799.52 478.25 795.24 482.02 790.66 482.89 785.11 484.01 777.96 479.81 770.74 473.91 766.55 468.01 762.36 460.68 760.7 453.49 759.85 408.46 754.52 364.48 776.88 319.13 777.27 303.63 777.4 278.42 774.32 263.78 779.4L248.18 818.77" stroke-width="0"/></g><path d="M16.83 552.12C-4.52 530.04 55.79 423.07 119.74 370.27 153.21 342.64 202.77 347.33 231.02 380.28L510.16 705.94 458.44 781.64 400.25 857.43C383.5 879.24 351.44 881.47 331.84 862.18L16.83 552.12Z" stroke-width="0" fill="#455A64"/><path d="M453.1 278.05C453.1 278.05 377.75 238.16 263.93 418.68L284.11 442.22C284.11 442.22 379.16 275.1 441.98 295.3 504.81 315.49 425.87 537.14 425.87 537.14 425.87 537.14 550.7 316.29 453.11 278.05Z" stroke-width="0" fill="#263238"/><path d="M466.39 787.32 550.69 726.67C550.69 726.67 522.35 698.29 488.19 661.99 454.03 625.7 408.98 580.6 408.98 580.6 408.98 580.6 509.62 287.37 426.36 291.64 426.36 291.64 357.95 295.18 326.02 404.79 312.77 450.26 294.94 545.09 283.34 601.96 277.95 628.41 295.99 647.97 319.1 662.82L466.4 787.32Z" stroke-width="0" fill="#E8505B"/><path d="M319.1 662.82C319.05 662.89 318.01 662.27 316.06 661.02 314.12 659.75 311.17 657.98 307.79 655.13 306.04 653.78 304.13 652.23 302.23 650.31 301.25 649.37 300.24 648.4 299.19 647.39 298.23 646.28 297.23 645.13 296.2 643.94 292.17 639.13 288.03 633.1 285.24 625.59 282.52 618.16 280.69 609.18 282.74 599.82 284.5 590.73 286.38 581.04 288.35 570.85 292.3 550.44 296.59 527.98 301.58 504.49 306.57 481 311.88 458.72 317.49 438.66 323.07 418.6 328.95 400.78 334.28 385.96 339.7 371.18 344.54 359.38 348.08 351.33 349.82 347.49 351.21 344.42 352.26 342.1 353.24 340 353.79 338.92 353.87 338.95 353.95 338.98 353.55 340.14 352.71 342.3 351.76 344.67 350.52 347.8 348.96 351.7 345.69 359.86 341.11 371.72 335.91 386.54 330.8 401.39 325.11 419.21 319.66 439.26 314.19 459.29 308.95 481.53 303.97 505 298.99 528.46 294.63 550.89 290.56 571.28 288.51 581.47 286.55 591.15 284.72 600.24 282.68 609.06 284.32 617.76 286.86 624.99 292.28 639.65 301.93 648.72 308.4 654.38 311.66 657.32 314.5 659.21 316.34 660.6 318.2 661.98 319.15 662.74 319.11 662.81Z" stroke-width="0" fill="#263238"/><path d="M402.71 580.6C402.77 580.54 403.6 581.25 405.14 582.65 406.84 584.25 409.04 586.31 411.78 588.88 417.68 594.57 425.86 602.46 435.88 612.12 456.24 632.09 484.03 659.34 514.73 689.45 527.69 702.27 540.12 714.58 551.51 725.85L552.42 726.75 551.43 727.56C539.55 737.22 527.89 745.3 517.44 752.44 507.05 759.52 497.85 765.78 490.13 771.04 482.54 776.31 476.61 780.61 472.58 783.62 470.71 785.01 469.19 786.15 467.97 787.06 466.91 787.83 466.34 788.21 466.3 788.16 466.26 788.11 466.75 787.63 467.72 786.76 468.71 785.9 470.15 784.6 472.11 783.02 475.99 779.81 481.81 775.32 489.3 769.88 496.78 764.43 505.96 758.08 516.32 750.84 526.67 743.59 538.22 735.43 549.95 725.79L549.87 727.5C538.45 716.26 525.99 703.99 512.99 691.2 482.49 660.9 454.88 633.47 434.65 613.36 424.86 603.47 416.87 595.39 411.1 589.57 408.5 586.87 406.4 584.69 404.78 583.01 403.35 581.49 402.63 580.67 402.69 580.61Z" stroke-width="0" fill="#263238"/><path d="M458.43 434.79C459.07 434.99 448.69 469.42 435.24 511.68 421.79 553.95 410.37 588.04 409.72 587.84 409.08 587.64 419.46 553.21 432.91 510.94 446.36 468.68 457.78 434.59 458.42 434.79Z" stroke-width="0" fill="#263238"/><path d="M407.96 586.14C407.77 586.51 404.91 585.13 400.04 583.93 395.19 582.7 388.22 581.94 380.68 583.1 373.14 584.3 366.74 587.16 362.5 589.81 358.23 592.45 355.93 594.64 355.64 594.34 355.44 594.17 357.34 591.51 361.54 588.38 365.7 585.24 372.36 581.95 380.31 580.68 388.25 579.45 395.61 580.55 400.53 582.26 405.48 583.96 408.11 585.91 407.97 586.13Z" stroke-width="0" fill="#263238"/><path d="M520.57 311.89C520.77 312.09 518.02 314.72 514.33 320.16 510.7 325.57 506.22 334.11 504.55 345.27L504.1 348.28 502.62 345.59C496.62 334.71 488.17 322.27 476.87 310.96 461.2 294.92 443.56 284.31 430.29 278.13 416.92 272.02 407.99 269.85 408.13 269.39 408.17 269.23 410.41 269.71 414.43 270.74 418.43 271.82 424.14 273.7 431 276.56 444.6 282.4 462.69 292.95 478.62 309.26 490.1 320.75 498.58 333.49 504.45 344.64L502.52 344.96C504.46 333.42 509.37 324.8 513.36 319.48 515.37 316.8 517.17 314.88 518.45 313.64 519.75 312.41 520.5 311.83 520.57 311.9Z" stroke-width="0" fill="#263238"/><path d="M536.09 897.46C535.98 897.71 532.53 896.52 527.61 893.32 522.7 890.15 516.48 884.72 511.34 877.33 506.23 869.92 503.32 862.2 502.08 856.48 500.82 850.75 500.91 847.1 501.18 847.09 501.96 846.88 503.23 861.6 513.35 875.94 523.23 890.44 536.57 896.8 536.09 897.46Z" stroke-width="0" fill="#263238"/><path d="M297.94 517.84C297.94 517.84 297.62 517.64 297.08 517.17 296.44 516.59 295.67 515.88 294.73 515.02 292.55 512.95 289.58 510.13 285.84 506.57 278.03 499 267.02 488.32 253.47 475.18 239.82 461.82 223.63 445.98 205.68 428.4 201.19 423.99 196.59 419.47 191.89 414.86 187.17 410.25 182.48 405.45 177.31 401.07 172.17 396.69 166.49 392.68 160.08 390.21 153.71 387.71 146.47 387.27 139.83 389.58 133.14 391.76 127.32 396 122.02 400.51 116.75 405.11 111.82 410.06 107.01 414.88 97.43 424.6 88.76 434.55 81.04 444.44 65.52 464.17 53.64 483.52 44.85 500.34 36 517.15 30.15 531.41 26.37 541.34 24.41 546.28 23.11 550.2 22.14 552.83 21.69 554.03 21.32 555.01 21.02 555.82 20.75 556.49 20.6 556.83 20.56 556.81 20.52 556.8 20.6 556.44 20.78 555.74 21.02 554.91 21.31 553.9 21.67 552.68 22.49 550 23.64 546.02 25.48 541.01 28.99 530.95 34.61 516.53 43.31 499.54 51.95 482.54 63.74 462.98 79.26 443.05 86.98 433.06 95.67 423.02 105.29 413.21 110.13 408.33 115.05 403.38 120.43 398.67 125.85 394.06 131.87 389.61 139.06 387.26 146.2 384.77 154.17 385.26 160.93 387.94 167.75 390.57 173.61 394.77 178.85 399.25 184.12 403.75 188.83 408.59 193.51 413.2 198.19 417.83 202.77 422.37 207.24 426.8 225.06 444.51 241.11 460.48 254.66 473.95 267.98 487.32 278.81 498.19 286.49 505.89 290.09 509.58 292.95 512.51 295.06 514.66 295.94 515.59 296.65 516.35 297.24 516.99 297.72 517.52 297.96 517.81 297.93 517.84Z" stroke-width="0" fill="#263238"/><path d="M221.39 371.17C221.32 372.01 202.76 367.09 180.1 371.32 157.39 375.26 141.71 386.34 141.35 385.58 141.2 385.37 144.84 382.33 151.55 378.67 158.24 375.01 168.15 371.01 179.67 368.92 191.19 366.86 201.88 367.15 209.42 368.25 216.99 369.34 221.46 370.91 221.39 371.17Z" stroke-width="0" fill="#263238"/></g><g><path d="M569.19 776.44C559.13 775.2 561.54 781.48 566.57 788.32 551.29 803.49 534.97 821.76 513.98 826.55L474.5 781.64 532.8 741.73 540.98 748.72C543.27 750.16 551.41 755.02 565.45 760.53 569.79 762.23 574.41 763.15 579.07 763.3 584.72 763.49 592.25 763.42 596.36 762.11 601.44 760.48 605.86 765.89 603 769.81 600.15 773.73 586.24 778.55 569.18 776.45Z" stroke-width="0" fill="#FFBE9D"/><path d="M572.29 781.66C572.53 781.82 570.47 785.66 566.19 791.25 561.93 796.84 555.29 804.05 546.83 810.71 538.35 817.35 529.77 822.08 523.33 824.89 516.88 827.71 512.66 828.8 512.57 828.53 512.24 827.79 528.71 821.96 545.33 808.78 562.07 795.77 571.66 781.16 572.29 781.66Z" stroke-width="0" fill="#455A64"/></g></svg>