<svg viewBox="0 0 7363.21 4247.62" xmlns="http://www.w3.org/2000/svg" xmlns:xlink="http://www.w3.org/1999/xlink" id="robot" overflow="hidden"><defs></defs><g><g><path d="M7239.38 4067.32C7239.38 4088.03 7237.01 4108.22 7232.61 4127.61L176.09 4127.61C134.53 4079.76 109.33 4017.36 109.33 3949.01 109.33 3798.43 231.33 3676.35 381.91 3676.35 435.74 3676.35 485.87 3692.05 528.14 3718.97 537.2 3657.27 590.32 3609.86 654.53 3609.86 725.07 3609.86 782.24 3667.08 782.24 3737.62 782.24 3739.86 782.2 3742.11 782.06 3744.31 809.28 3700.64 857.66 3671.57 912.85 3671.57 980.22 3671.57 1037.44 3714.8 1058.33 3775.05 1078.78 3693.43 1152.66 3632.96 1240.66 3632.96 1260.01 3632.96 1278.66 3635.91 1296.29 3641.36 1287.89 3625.48 1283.14 3607.45 1283.14 3588.28 1283.14 3525.26 1334.24 3474.24 1397.17 3474.24 1413.4 3474.24 1428.84 3477.63 1442.82 3483.78 1445.28 3382.1 1528.44 3300.48 1630.69 3300.48 1704.92 3300.48 1769.09 3343.49 1799.65 3405.98 1832.19 3366.05 1881.76 3340.54 1937.3 3340.54 2035.37 3340.54 2114.88 3420.01 2114.88 3518.08 2114.88 3530.83 2113.52 3543.28 2110.97 3555.29 2128.38 3544.47 2148.88 3538.23 2170.87 3538.23 2209.17 3538.23 2243.04 3557.14 2263.71 3586.03 2259.31 3568.7 2256.94 3550.63 2256.94 3531.94 2256.94 3410.78 2355.19 3312.58 2476.35 3312.58 2515.27 3312.58 2551.82 3322.7 2583.48 3340.46 2592.85 3286.94 2639.51 3246.17 2695.76 3246.17 2727.6 3246.17 2756.32 3259.23 2777.03 3280.25 2833.19 3219.21 2913.76 3180.99 3003.21 3180.99 3062.89 3180.99 3118.57 3198.01 3165.71 3227.39 3197.64 3247.36 3225.65 3273 3248.3 3302.9 3268.44 3285.04 3294.96 3274.14 3323.99 3274.14 3386.92 3274.14 3437.98 3325.24 3437.98 3388.22 3437.98 3394.95 3437.36 3401.5 3436.27 3407.92 3463.4 3376.43 3503.51 3356.51 3548.33 3356.51 3616.32 3356.51 3673.54 3402.42 3690.82 3464.92 3711.93 3404.01 3769.8 3360.25 3837.93 3360.25 3863.44 3360.25 3887.54 3366.41 3908.78 3377.27 3898.14 3362.71 3891.85 3344.81 3891.85 3325.42 3891.85 3276.6 3931.43 3236.98 3980.25 3236.98 3981.57 3236.98 3982.84 3237.02 3984.12 3237.07 3994.19 3237.51 4003.82 3239.62 4012.71 3243.18 4022.3 3247.01 4031.09 3252.5 4038.7 3259.19 4039.54 3257.92 4040.41 3256.68 4041.29 3255.41 4068.03 3217.46 4112.18 3192.61 4162.19 3192.61 4199.48 3192.61 4233.52 3206.46 4259.56 3229.24 4329.4 3169.12 4420.26 3132.71 4519.73 3132.71 4679.46 3132.71 4817.24 3226.56 4881.05 3362.1 4907.74 3335.93 4944.29 3319.75 4984.66 3319.75 4988.49 3319.75 4992.27 3319.88 4996.05 3320.19 5005.86 3320.94 5015.44 3322.65 5024.64 3325.2 5034.62 3328.01 5044.21 3331.84 5053.23 3336.59 5100.37 3361.26 5132.57 3410.69 5132.57 3467.6 5132.57 3490.6 5127.29 3512.37 5117.97 3531.76 5146.38 3514.39 5179.72 3504.36 5215.47 3504.36 5299.91 3504.36 5371.24 3560.34 5394.46 3637.22 5417.37 3603.84 5455.81 3581.85 5499.39 3581.85 5532.73 3581.85 5562.98 3594.69 5585.63 3615.63 5618.75 3521.52 5708.33 3454.01 5813.79 3454.01 5833.76 3454.01 5853.11 3456.43 5871.62 3461 5940.27 3477.84 5997.35 3524.06 6028.93 3585.55 6055.19 3565.36 6088.04 3553.36 6123.7 3553.36 6209.59 3553.36 6279.21 3622.89 6279.38 3708.73 6279.82 3709.48 6280.26 3710.23 6280.74 3711.02 6287.56 3709.7 6294.55 3709 6301.76 3709 6363.11 3709 6412.85 3758.74 6412.85 3820.13 6412.85 3822.37 6412.72 3824.66 6412.63 3826.9 6438.89 3806.71 6471.69 3794.71 6507.36 3794.71 6547.56 3794.71 6584.19 3809.97 6611.81 3834.95 6616.21 3805.53 6641.58 3782.92 6672.24 3782.92 6684.91 3782.92 6696.73 3786.79 6706.45 3793.43 6726.5 3743.91 6775.01 3708.99 6831.7 3708.99 6888.39 3708.99 6937.86 3744.66 6957.52 3794.92 6960.6 3794.83 6963.68 3794.7 6966.8 3794.7 7117.29 3794.7 7239.38 3916.74 7239.38 4067.32Z" stroke-width="0" fill="#B7CA52"/><path d="M7041.17 4127.62 403.67 4127.62C416.86 3998.94 525.53 3898.58 657.69 3898.58 708.09 3898.58 755.1 3913.27 794.68 3938.47 803.08 3880.64 852.86 3836.26 913.03 3836.26 979.13 3836.26 1032.69 3889.83 1032.69 3955.92 1032.69 3958.03 1032.65 3960.14 1032.51 3962.16 1057.97 3921.26 1103.32 3893.99 1155.03 3893.99 1218.09 3893.99 1271.71 3934.54 1291.28 3990.96 1310.5 3914.53 1379.63 3857.84 1462.05 3857.84 1480.17 3857.84 1497.72 3860.61 1514.16 3865.71 1506.38 3850.85 1501.89 3833.96 1501.89 3816.01 1501.89 3756.99 1549.69 3709.19 1608.71 3709.19 1623.88 3709.19 1638.35 3712.4 1651.41 3718.12 1653.79 3622.91 1731.63 3546.39 1827.41 3546.39 1896.94 3546.39 1957.06 3586.72 1985.69 3645.25 2016.17 3607.87 2062.61 3583.94 2114.63 3583.94 2206.5 3583.94 2280.96 3658.44 2280.96 3750.31 2280.96 3762.23 2279.69 3773.88 2277.27 3785.1 2293.59 3774.98 2312.8 3769.14 2333.47 3769.14 2369.31 3769.14 2400.98 3786.82 2420.37 3813.91 2416.28 3797.68 2414.04 3780.75 2414.04 3763.29 2414.04 3649.74 2506.09 3557.74 2619.59 3557.74 2656.01 3557.74 2690.22 3567.28 2719.86 3583.91 2728.66 3533.73 2772.41 3495.6 2825.06 3495.6 2854.88 3495.6 2881.79 3507.78 2901.19 3527.48 2953.83 3470.35 3029.25 3434.51 3113.03 3434.51 3131.02 3434.51 3148.65 3436.18 3165.72 3439.35 3237.62 3452.63 3300.16 3492.7 3342.64 3548.72 3361.51 3531.96 3386.31 3521.81 3413.49 3521.81 3472.51 3521.81 3520.31 3569.61 3520.31 3628.63 3520.31 3634.92 3519.74 3641.03 3518.68 3647.01 3544.1 3617.59 3581.7 3598.9 3623.66 3598.9 3687.34 3598.9 3740.99 3641.91 3757.13 3700.45 3776.88 3643.37 3831.1 3602.38 3894.91 3602.38 3918.83 3602.38 3941.35 3608.19 3961.23 3618.39 3951.33 3604.76 3945.4 3587.96 3945.4 3569.79 3945.4 3540.28 3960.83 3514.33 3984.1 3499.73 3992.68 3494.28 4002.35 3490.41 4012.69 3488.43 4017.75 3487.46 4022.89 3486.98 4028.21 3486.98 4032.65 3486.98 4037.01 3487.33 4041.27 3488.04 4057.15 3490.55 4071.44 3497.63 4082.96 3507.74 4107.72 3470.18 4150.29 3445.47 4198.62 3445.47 4233.58 3445.47 4265.42 3458.36 4289.83 3479.73 4355.27 3423.44 4440.37 3389.31 4533.51 3389.31 4683.12 3389.31 4812.2 3477.22 4872.01 3604.19 4896.99 3579.65 4931.2 3564.52 4969.02 3564.52 4978.26 3564.52 4987.32 3565.44 4996.02 3567.16 5006 3569.14 5015.55 3572.13 5024.61 3576.13 5034.86 3580.62 5044.44 3586.29 5053.2 3593.02 5086.27 3618.31 5107.6 3658.15 5107.6 3703.01 5107.6 3724.56 5102.63 3744.97 5093.88 3763.13 5120.49 3746.86 5151.76 3737.45 5185.22 3737.45 5264.34 3737.45 5331.14 3789.92 5352.87 3861.91 5374.33 3830.6 5410.39 3810.06 5451.2 3810.06 5482.38 3810.06 5510.75 3822.02 5531.99 3841.64 5562.99 3753.51 5646.9 3690.27 5745.68 3690.27 5792.3 3690.27 5835.57 3704.34 5871.59 3728.49 5903.47 3749.91 5929.6 3779.15 5947.23 3813.5 5971.81 3794.54 6002.55 3783.33 6035.98 3783.33 6116.42 3783.33 6181.68 3848.51 6181.81 3928.9 6182.21 3929.6 6182.65 3930.31 6183.08 3931.01 6189.41 3929.78 6196.01 3929.12 6202.74 3929.12 6260.22 3929.12 6306.79 3975.74 6306.79 4033.17 6306.79 4035.37 6306.7 4037.44 6306.57 4039.59 6331.15 4020.68 6361.94 4009.42 6395.32 4009.42 6433.01 4009.42 6467.31 4023.67 6493.22 4047.15 6497.31 4019.53 6521.01 3998.38 6549.78 3998.38 6561.65 3998.38 6572.69 4001.99 6581.84 4008.19 6600.62 3961.84 6646.05 3929.12 6699.17 3929.12 6752.29 3929.12 6798.6 3962.5 6816.99 4009.64 6819.89 4009.55 6822.79 4009.42 6825.7 4009.42 6916.25 4009.42 6995.76 4056.56 7041.15 4127.63Z" stroke-width="0" fill="#93AF3B"/></g><path d="M7363.21 4185.23 7363.21 4185.23C7363.21 4219.69 7335.28 4247.62 7300.82 4247.62L62.39 4247.62C27.93 4247.62 0 4219.69 0 4185.23L0 4185.23C0 4150.77 27.93 4122.84 62.39 4122.84L7300.82 4122.84C7335.28 4122.84 7363.21 4150.77 7363.21 4185.23Z" stroke-width="0" fill="#7C4D4C"/></g><rect x="1865.43" y="1410.9" width="3632.34" height="2711.81" stroke-width="0" fill="#EDEDF7"/><path d="M5680.53 1475.08 1682.66 1475.08 3681.6 119.19 5680.53 1475.08Z" stroke-width="0" fill="#EDEDF7"/><path d="M4178.32 3194.81 3184.89 3194.81C3136.43 3194.81 3097.14 3155.53 3097.14 3107.07 3097.14 3059.02 3097.14 3009.16 3097.14 3009.16L3097.14 2146.2C3097.14 2146.2 3097.14 1972.4 3097.14 1862.61 3097.14 1814.15 3136.43 1774.88 3184.89 1774.88L4178.32 1774.88C4226.78 1774.88 4266.07 1814.17 4266.07 1862.63L4266.07 3107.07C4266.07 3155.53 4226.78 3194.82 4178.32 3194.82Z" stroke-width="0" fill="#B77862"/><g><rect x="3212.35" y="1891.31" width="398.68" height="398.61" stroke-width="0" fill="#2AA1F2"/><rect x="3212.35" y="2431.1" width="398.72" height="647.28" stroke-width="0" fill="#2AA1F2"/><rect x="3752.29" y="1891.39" width="398.5" height="398.61" stroke-width="0" fill="#2AA1F2"/><rect x="3752.29" y="2431.09" width="398.49" height="647.29" stroke-width="0" fill="#2AA1F2"/></g><path d="M3611.04 1891.31 3611.04 2019.42 3340.57 2289.92 3212.35 2289.92 3212.35 1891.31 3611.04 1891.31Z" stroke-width="0" fill="#FFFFFF" opacity="0.52"/><path d="M3611.04 2289.92 3556.75 2289.92 3611.04 2235.67 3611.04 2289.92Z" stroke-width="0" fill="#FFFFFF" opacity="0.52"/><path d="M3415.57 2431.1 3611.07 2431.1 3611.07 2508.52 3212.35 2907.24 3212.35 2634.32 3415.57 2431.1Z" stroke-width="0" fill="#FFFFFF" opacity="0.52"/><path d="M4150.78 1891.39 4150.78 1968.77 3829.56 2290 3752.29 2290 3752.29 2094.42 3955.32 1891.39 4150.78 1891.39Z" stroke-width="0" fill="#FFFFFF" opacity="0.52"/><rect x="1865.43" y="3824.14" width="3632.35" height="298.57" stroke-width="0" fill="#FC7660"/><path d="M5610.85 1475.08 5497.77 1475.08 5497.77 1675.63 5202.12 1475.08 5107.51 1410.9 3681.6 443.68 2255.71 1410.9 2161.08 1475.08 1865.43 1675.63 1865.43 1475.08 1752.35 1475.08 3681.6 166.45 5610.85 1475.08Z" stroke-width="0" fill="#AAAAD4"/><path d="M3681.6 0 3681.6 0 3681.6 0 1294.32 1619.34 1436.91 1799.87 3681.6 277.25 3681.6 277.25 3681.6 277.25 3681.6 277.25 3681.6 277.25 5926.29 1799.87 6068.88 1619.34 3681.6 0Z" stroke-width="0" fill="#4C4C63"/><rect x="1865.43" y="1509.19" width="132.98" height="2314.95" stroke-width="0" fill="#AAAAD4"/><rect x="5364.79" y="1509.19" width="132.98" height="2314.95" stroke-width="0" fill="#AAAAD4"/><g opacity="0.46"><path d="M2335.16 2041.01 2490.16 2041.01C2524.84 2041.01 2552.99 2069.16 2552.99 2103.84L2552.99 2126.68C2552.99 2161.36 2524.84 2189.51 2490.16 2189.51L2335.16 2189.51C2300.48 2189.51 2272.33 2161.36 2272.33 2126.68L2272.33 2103.84C2272.33 2069.16 2300.48 2041.01 2335.16 2041.01Z" stroke-width="0" fill="#AAAAD4"/><rect x="2582.36" y="2041.82" rx="62.83" ry="62.83" width="280.66" height="148.5" stroke-width="0" fill="#AAAAD4"/><path d="M2490.17 1860.71 2645.17 1860.71C2679.85 1860.71 2708 1888.86 2708 1923.54L2708 1946.38C2708 1981.06 2679.85 2009.21 2645.17 2009.21L2490.17 2009.21C2455.49 2009.21 2427.34 1981.06 2427.34 1946.38L2427.34 1923.54C2427.34 1888.86 2455.49 1860.71 2490.17 1860.71Z" stroke-width="0" fill="#AAAAD4"/><rect x="4473.23" y="3365.98" rx="62.83" ry="62.83" width="280.66" height="148.5" stroke-width="0" fill="#AAAAD4"/><path d="M4846.09 3366.79 5001.09 3366.79C5035.77 3366.79 5063.92 3394.94 5063.92 3429.62L5063.92 3452.46C5063.92 3487.14 5035.77 3515.29 5001.09 3515.29L4846.09 3515.29C4811.41 3515.29 4783.26 3487.14 4783.26 3452.46L4783.26 3429.62C4783.26 3394.94 4811.41 3366.79 4846.09 3366.79Z" stroke-width="0" fill="#AAAAD4"/><path d="M4691.08 3185.68 4846.08 3185.68C4880.76 3185.68 4908.91 3213.83 4908.91 3248.51L4908.91 3271.35C4908.91 3306.03 4880.76 3334.18 4846.08 3334.18L4691.08 3334.18C4656.4 3334.18 4628.25 3306.03 4628.25 3271.35L4628.25 3248.51C4628.25 3213.83 4656.4 3185.68 4691.08 3185.68Z" stroke-width="0" fill="#AAAAD4"/><path d="M4826.51 1712.21 4981.51 1712.21C5016.19 1712.21 5044.34 1740.36 5044.34 1775.04L5044.34 1797.88C5044.34 1832.56 5016.19 1860.71 4981.51 1860.71L4826.51 1860.71C4791.83 1860.71 4763.68 1832.56 4763.68 1797.88L4763.68 1775.04C4763.68 1740.36 4791.83 1712.21 4826.51 1712.21Z" stroke-width="0" fill="#AAAAD4"/><rect x="4608.67" y="1531.1" rx="62.83" ry="62.83" width="280.66" height="148.5" stroke-width="0" fill="#AAAAD4"/><rect x="3539.34" y="1056.27" rx="62.83" ry="62.83" width="280.66" height="148.5" stroke-width="0" fill="#AAAAD4"/><path d="M2397.98 3382.68 2552.98 3382.68C2587.66 3382.68 2615.81 3410.83 2615.81 3445.51L2615.81 3468.35C2615.81 3503.03 2587.66 3531.18 2552.98 3531.18L2397.98 3531.18C2363.3 3531.18 2335.15 3503.03 2335.15 3468.35L2335.15 3445.51C2335.15 3410.83 2363.3 3382.68 2397.98 3382.68Z" stroke-width="0" fill="#AAAAD4"/><path d="M2553 3202.38 2708 3202.38C2742.68 3202.38 2770.83 3230.53 2770.83 3265.21L2770.83 3288.05C2770.83 3322.73 2742.68 3350.88 2708 3350.88L2553 3350.88C2518.32 3350.88 2490.17 3322.73 2490.17 3288.05L2490.17 3265.21C2490.17 3230.53 2518.32 3202.38 2553 3202.38Z" stroke-width="0" fill="#AAAAD4"/></g></svg>