<svg viewBox="0 0 1274.75 1490.09" xmlns="http://www.w3.org/2000/svg" xmlns:xlink="http://www.w3.org/1999/xlink" id="Piano" overflow="hidden"><defs></defs><g id="Piano-2"><g><path d="M112.78 1036.3 112.79 806.3 150.35 784.6 131.58 1025.45 112.78 1036.3Z" stroke-width="0" fill="#37474F"/><path d="M112.78 1036.3 112.79 806.3 75.22 784.6 93.99 1025.45 112.78 1036.3Z" stroke-width="0" fill="#455A64"/><path d="M93.99 1025.45C93.99 1025.94 93.99 1034.24 93.99 1034.24L112.79 1045.09 112.79 1036.3 93.99 1025.45Z" stroke-width="0" fill="#BA68C8"/><path d="M93.99 1025.45C93.99 1025.94 93.99 1034.24 93.99 1034.24L112.79 1045.09 112.79 1036.3 93.99 1025.45Z" stroke-width="0" fill="#FFFFFF" opacity="0.5"/><path d="M131.58 1025.45 131.58 1034.23 112.78 1045.09 112.78 1036.3 131.58 1025.45Z" stroke-width="0" fill="#BA68C8"/></g><g><path d="M883.55 1481.3 883.55 1251.3 921.11 1229.6 902.35 1470.45 883.55 1481.3Z" stroke-width="0" fill="#37474F"/><path d="M883.55 1481.3 883.55 1251.3 845.99 1229.6 864.75 1470.45 883.55 1481.3Z" stroke-width="0" fill="#455A64"/><path d="M864.75 1470.45C864.75 1470.94 864.75 1479.24 864.75 1479.24L883.55 1490.09 883.55 1481.3 864.75 1470.45Z" stroke-width="0" fill="#BA68C8"/><path d="M864.75 1470.45C864.75 1470.94 864.75 1479.24 864.75 1479.24L883.55 1490.09 883.55 1481.3 864.75 1470.45Z" stroke-width="0" fill="#FFFFFF" opacity="0.5"/><path d="M902.35 1470.45 902.35 1479.24 883.55 1490.09 883.55 1481.3 902.35 1470.45Z" stroke-width="0" fill="#BA68C8"/></g><g><path d="M1204.07 411.92 1204.07 683.44C1204.07 699.96 1195.23 715.28 1180.93 723.52L1168.43 730.74C1158.25 718.34 1144.04 706.49 1125.85 695.98 1085.31 672.61 1064.58 642.67 1064.58 614.25 1064.58 590.74 1078.83 568.25 1107.9 551.45 1171.77 514.56 1203.38 465.37 1203.98 413.72 1204.07 413.12 1204.07 412.52 1204.07 411.91Z" stroke-width="0"/><path d="M1125.88 695.97C1085.34 672.6 1064.61 642.66 1064.61 614.24 1064.61 590.73 1078.86 568.24 1107.93 551.44 1250.33 469.25 1232.47 325.59 1068.04 230.67L1048.3 219.26C883.87 124.29 635.11 114.02 492.71 196.21L124.36 408.9C117.2 413.03 112.79 420.67 112.79 428.94L112.79 532.46C112.79 540.73 108.38 548.36 101.22 552.5L11.57 604.26C4.41 608.39-7.10543e-15 616.03-7.10543e-15 624.3L-7.10543e-15 741.18 883.55 1251.3 883.55 1134.42C883.55 1126.15 887.96 1118.51 895.12 1114.38L984.76 1062.64C991.92 1058.51 996.33 1050.87 996.33 1042.6L996.33 939.06C996.33 930.79 1000.74 923.16 1007.9 919.02L1143.87 840.5C1172.93 823.75 1187.19 801.25 1187.19 777.74 1187.19 749.32 1166.41 719.33 1125.87 695.96Z" stroke-width="0" fill="#455A64"/><path d="M1114.33 716.02C1068.03 689.33 1041.47 652.23 1041.47 614.24 1041.47 581.28 1060.96 551.86 1096.36 531.4 1150.89 499.93 1180.92 457.57 1180.92 412.14 1180.92 355.21 1135.56 296.38 1056.46 250.71L1036.72 239.3C953.71 191.35 843.38 163.86 734.02 163.86 644.41 163.86 562.81 182.47 504.27 216.26L147.54 422.29C140.38 426.42 135.97 434.06 135.97 442.33L135.97 545.85C135.97 554.12 131.56 561.76 124.4 565.89L34.75 617.65C27.59 621.78 23.18 629.42 23.18 637.69L23.18 754.57 860.46 1237.98 860.46 1121.1C860.46 1112.83 864.87 1105.19 872.03 1101.06L961.67 1049.32C968.83 1045.19 973.24 1037.55 973.24 1029.28L973.24 925.73C973.24 917.47 977.65 909.83 984.8 905.69L1132.32 820.46C1146.8 812.12 1164.06 797.93 1164.06 777.75 1164.06 757.57 1145.47 733.97 1114.32 716.02Z" stroke-width="0" fill="#263238"/><path d="M1041.44 614.26 1041.44 730.51C1041.44 768.14 1067.59 804.93 1113.13 831.54L1060.97 861.67 324.38 436.4 504.27 332.5C562.81 298.72 644.41 280.11 734 280.11 843.36 280.11 953.69 307.6 1036.72 355.55L1056.43 366.93C1107.8 396.6 1144.92 431.81 1164.63 468.42 1150.51 491.98 1127.42 513.45 1096.37 531.41 1060.97 551.87 1041.44 581.3 1041.44 614.25Z" stroke-width="0"/><g><path d="M23.18 723.91 23.18 754.57 860.46 1237.98 860.46 1207.32 23.18 723.91Z" stroke-width="0" fill="#37474F"/><path d="M916.35 1075.48 872.01 1101.03C864.88 1105.2 860.44 1112.83 860.44 1121.12L860.44 1207.32C860.44 1207.32 23.19 723.89 23.19 723.89L23.19 723.89C23.19 723.89 165.41 641.88 165.41 641.88L165.46 641.88 916.35 1075.48Z" stroke-width="0" fill="#455A64"/><path d="M1060.97 861.67 984.79 905.68C980.21 908.36 976.74 912.44 974.84 917.25L165.37 449.87 257.33 397.71 1060.98 861.67Z" stroke-width="0" fill="#455A64"/><path d="M974.85 917.25C973.79 919.89 973.23 922.76 973.23 925.72L973.23 1029.29C973.23 1037.53 968.83 1045.16 961.66 1049.33L916.35 1075.43 165.46 641.89 165.37 449.88 974.85 917.26Z" stroke-width="0" fill="#37474F"/></g><g><path d="M916.35 1075.43C916.26 1075.38 916.16 1075.34 916.07 1075.34L916.35 1075.48 878.82 1097.09 872.02 1101.02C871.88 1101.11 871.79 1101.16 871.65 1101.25 868.09 1103.43 865.22 1106.48 863.27 1110.09 861.46 1113.42 860.45 1117.22 860.45 1121.1L860.45 1188.81 39.21 714.68 39.21 686.59 165.46 613.84 940.6 1061.46 916.35 1075.44Z" stroke-width="0" fill="#455A64"/><g><path d="M66.62 702.42 39.19 686.6 39.2 714.67 66.62 730.5 66.62 702.42Z" stroke-width="0" fill="#E0E0E0"/><path d="M97.76 720.4 70.34 704.58 70.34 732.66 97.77 748.48 97.76 720.4Z" stroke-width="0" fill="#E0E0E0"/><path d="M128.91 738.39 101.49 722.57 101.49 750.64 128.91 766.46 128.91 738.39Z" stroke-width="0" fill="#E0E0E0"/><path d="M160.06 756.37 132.64 740.55 132.64 768.63 160.06 784.45 160.06 756.37Z" stroke-width="0" fill="#E0E0E0"/><path d="M191.21 774.36 163.79 758.54 163.79 786.61 191.21 802.43 191.21 774.36Z" stroke-width="0" fill="#E0E0E0"/><path d="M222.36 792.34 194.94 776.52 194.94 804.6 222.36 820.42 222.36 792.34Z" stroke-width="0" fill="#E0E0E0"/><path d="M253.51 810.32 226.09 794.5 226.09 822.58 253.51 838.4 253.51 810.32Z" stroke-width="0" fill="#E0E0E0"/><path d="M284.66 828.31 257.23 812.49 257.24 840.56 284.66 856.38 284.66 828.31Z" stroke-width="0" fill="#E0E0E0"/><path d="M315.8 846.29 288.38 830.47 288.38 858.55 315.81 874.37 315.8 846.29Z" stroke-width="0" fill="#E0E0E0"/><path d="M346.95 864.28 319.53 848.46 319.53 876.53 346.95 892.35 346.95 864.28Z" stroke-width="0" fill="#E0E0E0"/><path d="M378.1 882.26 350.68 866.44 350.68 894.52 378.1 910.34 378.1 882.26Z" stroke-width="0" fill="#E0E0E0"/><path d="M409.25 900.24 381.83 884.42 381.83 912.5 409.25 928.32 409.25 900.24Z" stroke-width="0" fill="#E0E0E0"/><path d="M440.4 918.23 412.98 902.41 412.98 930.48 440.4 946.3 440.4 918.23Z" stroke-width="0" fill="#E0E0E0"/><path d="M471.55 936.21 444.13 920.39 444.13 948.47 471.55 964.29 471.55 936.21Z" stroke-width="0" fill="#E0E0E0"/><path d="M502.7 954.2 475.27 938.38 475.28 966.45 502.7 982.27 502.7 954.2Z" stroke-width="0" fill="#E0E0E0"/><path d="M533.84 972.18 506.42 956.36 506.42 984.44 533.85 1000.26 533.84 972.18Z" stroke-width="0" fill="#E0E0E0"/><path d="M564.99 990.17 537.57 974.34 537.57 1002.42 564.99 1018.24 564.99 990.17Z" stroke-width="0" fill="#E0E0E0"/><path d="M596.14 1008.15 568.72 992.33 568.72 1020.4 596.14 1036.23 596.14 1008.15Z" stroke-width="0" fill="#E0E0E0"/><path d="M627.29 1026.13 599.87 1010.31 599.87 1038.39 627.29 1054.21 627.29 1026.13Z" stroke-width="0" fill="#E0E0E0"/><path d="M658.44 1044.12 631.02 1028.3 631.02 1056.37 658.44 1072.19 658.44 1044.12Z" stroke-width="0" fill="#E0E0E0"/><path d="M689.59 1062.1 662.17 1046.28 662.17 1074.36 689.59 1090.18 689.59 1062.1Z" stroke-width="0" fill="#E0E0E0"/><path d="M720.74 1080.09 693.31 1064.27 693.32 1092.34 720.74 1108.16 720.74 1080.09Z" stroke-width="0" fill="#E0E0E0"/><path d="M751.88 1098.07 724.46 1082.25 724.46 1110.33 751.88 1126.15 751.88 1098.07Z" stroke-width="0" fill="#E0E0E0"/><path d="M783.03 1116.05 755.61 1100.23 755.61 1128.31 783.03 1144.13 783.03 1116.05Z" stroke-width="0" fill="#E0E0E0"/><path d="M814.18 1134.04 786.76 1118.22 786.76 1146.29 814.18 1162.11 814.18 1134.04Z" stroke-width="0" fill="#E0E0E0"/><path d="M845.33 1152.02 817.91 1136.2 817.91 1164.28 845.33 1180.1 845.33 1152.02Z" stroke-width="0" fill="#E0E0E0"/><path d="M860.44 1160.77 860.44 1188.82 849.06 1182.25 849.06 1154.2 860.44 1160.77Z" stroke-width="0" fill="#E0E0E0"/></g><g><path d="M165.44 613.84 39.19 686.6 66.62 702.42 192.85 629.67 165.44 613.84Z" stroke-width="0" fill="#F5F5F5"/><path d="M196.59 631.83 70.34 704.58 97.77 720.4 224 647.65 196.59 631.83Z" stroke-width="0" fill="#F5F5F5"/><path d="M227.74 649.82 101.49 722.57 128.91 738.39 255.14 665.64 227.74 649.82Z" stroke-width="0" fill="#F5F5F5"/><path d="M258.89 667.8 132.64 740.55 160.06 756.37 286.29 683.63 258.89 667.8Z" stroke-width="0" fill="#F5F5F5"/><path d="M290.04 685.79 163.79 758.54 191.21 774.35 317.44 701.61 290.04 685.79Z" stroke-width="0" fill="#F5F5F5"/><path d="M321.18 703.78 194.94 776.52 222.36 792.34 348.59 719.6 321.18 703.78Z" stroke-width="0" fill="#F5F5F5"/><path d="M352.33 721.76 226.09 794.5 253.51 810.32 379.74 737.59 352.33 721.76Z" stroke-width="0" fill="#F5F5F5"/><path d="M383.48 739.75 257.23 812.49 284.66 828.31 410.89 755.58 383.48 739.75Z" stroke-width="0" fill="#F5F5F5"/><path d="M414.63 757.74 288.38 830.47 315.81 846.29 442.04 773.56 414.63 757.74Z" stroke-width="0" fill="#F5F5F5"/><path d="M445.78 775.72 319.53 848.46 346.95 864.27 473.18 791.55 445.78 775.72Z" stroke-width="0" fill="#F5F5F5"/><path d="M476.93 793.71 350.68 866.44 378.1 882.26 504.33 809.54 476.93 793.71Z" stroke-width="0" fill="#F5F5F5"/><path d="M508.08 811.7 381.83 884.42 409.25 900.24 535.48 827.52 508.08 811.7Z" stroke-width="0" fill="#F5F5F5"/><path d="M539.22 829.68 412.98 902.41 440.4 918.23 566.63 845.51 539.22 829.68Z" stroke-width="0" fill="#F5F5F5"/><path d="M570.37 847.67 444.13 920.39 471.55 936.21 597.78 863.5 570.37 847.67Z" stroke-width="0" fill="#F5F5F5"/><path d="M601.52 865.66 475.27 938.38 502.7 954.19 628.93 881.48 601.52 865.66Z" stroke-width="0" fill="#F5F5F5"/><path d="M632.67 883.64 506.42 956.36 533.85 972.18 660.08 899.47 632.67 883.64Z" stroke-width="0" fill="#F5F5F5"/><path d="M663.82 901.63 537.57 974.34 564.99 990.16 691.22 917.46 663.82 901.63Z" stroke-width="0" fill="#F5F5F5"/><path d="M694.97 919.62 568.72 992.33 596.14 1008.15 722.37 935.44 694.97 919.62Z" stroke-width="0" fill="#F5F5F5"/><path d="M726.12 937.6 599.87 1010.31 627.29 1026.13 753.52 953.43 726.12 937.6Z" stroke-width="0" fill="#F5F5F5"/><path d="M757.26 955.59 631.02 1028.3 658.44 1044.12 784.67 971.42 757.26 955.59Z" stroke-width="0" fill="#F5F5F5"/><path d="M788.41 973.58 662.17 1046.28 689.59 1062.1 815.82 989.4 788.41 973.58Z" stroke-width="0" fill="#F5F5F5"/><path d="M819.56 991.56 693.31 1064.27 720.74 1080.08 846.97 1007.39 819.56 991.56Z" stroke-width="0" fill="#F5F5F5"/><path d="M850.71 1009.55 724.46 1082.25 751.88 1098.07 878.12 1025.38 850.71 1009.55Z" stroke-width="0" fill="#F5F5F5"/><path d="M881.86 1027.54 755.61 1100.23 783.03 1116.05 909.26 1043.36 881.86 1027.54Z" stroke-width="0" fill="#F5F5F5"/><path d="M913.01 1045.52 786.76 1118.22 814.18 1134.04 940.41 1061.35 913.01 1045.52Z" stroke-width="0" fill="#F5F5F5"/><path d="M863.27 1110.1C861.46 1113.43 860.45 1117.23 860.45 1121.11L860.45 1143.32 845.32 1152.02 817.92 1136.19 863.27 1110.09Z" stroke-width="0" fill="#F5F5F5"/><path d="M860.44 1147.63 860.44 1160.77 849.06 1154.2 860.44 1147.63Z" stroke-width="0" fill="#F5F5F5"/></g><g><g><path d="M134.82 667.48 117.07 657.24 117.07 665.56 134.82 675.8 134.82 667.48Z" stroke-width="0" fill="#37474F"/><path d="M134.82 667.48 203.79 627.65 203.79 635.98 134.82 675.8 134.82 667.48Z" stroke-width="0" fill="#263238"/><path d="M186.05 617.41 117.07 657.24 134.82 667.47 203.79 627.66 186.05 617.41Z" stroke-width="0" fill="#455A64"/></g><g><path d="M165.99 685.47 148.24 675.23 148.24 683.56 165.99 693.8 165.99 685.47Z" stroke-width="0" fill="#37474F"/><path d="M165.99 685.47 234.97 645.65 234.96 653.98 165.99 693.8 165.99 685.47Z" stroke-width="0" fill="#263238"/><path d="M217.23 635.41 148.24 675.23 165.99 685.47 234.96 645.65 217.23 635.41Z" stroke-width="0" fill="#455A64"/></g></g><g><g><path d="M228.23 721.4 210.48 711.16 210.48 719.49 228.23 729.73 228.23 721.4Z" stroke-width="0" fill="#37474F"/><path d="M228.23 721.4 297.2 681.58 297.2 689.9 228.23 729.73 228.23 721.4Z" stroke-width="0" fill="#263238"/><path d="M279.46 671.34 210.48 711.16 228.23 721.4 297.2 681.58 279.46 671.34Z" stroke-width="0" fill="#455A64"/></g><g><path d="M259.4 739.4 241.65 729.16 241.65 737.48 259.4 747.72 259.4 739.4Z" stroke-width="0" fill="#37474F"/><path d="M259.4 739.4 328.38 699.58 328.37 707.9 259.4 747.72 259.4 739.4Z" stroke-width="0" fill="#263238"/><path d="M310.64 689.33 241.65 729.16 259.4 739.39 328.38 699.58 310.64 689.33Z" stroke-width="0" fill="#455A64"/></g><g><path d="M290.58 757.39 272.83 747.15 272.83 755.48 290.58 765.72 290.58 757.39Z" stroke-width="0" fill="#37474F"/><path d="M290.58 757.39 359.55 717.57 359.55 725.9 290.58 765.72 290.58 757.39Z" stroke-width="0" fill="#263238"/><path d="M341.81 707.33 272.83 747.15 290.58 757.39 359.55 717.57 341.81 707.33Z" stroke-width="0" fill="#455A64"/></g></g><g><g><path d="M352.86 793.37 335.11 783.14 335.11 791.46 352.86 801.7 352.86 793.37Z" stroke-width="0" fill="#37474F"/><path d="M352.86 793.37 421.84 753.55 421.84 761.88 352.86 801.7 352.86 793.37Z" stroke-width="0" fill="#263238"/><path d="M404.1 743.31 335.11 783.14 352.86 793.37 421.84 753.56 404.1 743.31Z" stroke-width="0" fill="#455A64"/></g><g><path d="M384.04 811.37 366.29 801.13 366.29 809.46 384.04 819.7 384.04 811.37Z" stroke-width="0" fill="#37474F"/><path d="M384.04 811.37 453.01 771.55 453.01 779.88 384.04 819.7 384.04 811.37Z" stroke-width="0" fill="#263238"/><path d="M435.27 761.31 366.29 801.13 384.04 811.37 453.01 771.55 435.27 761.31Z" stroke-width="0" fill="#455A64"/></g></g><g><g><path d="M446.27 847.3 428.52 837.06 428.52 845.39 446.27 855.63 446.27 847.3Z" stroke-width="0" fill="#37474F"/><path d="M446.27 847.3 515.25 807.48 515.25 815.8 446.27 855.63 446.27 847.3Z" stroke-width="0" fill="#263238"/><path d="M497.51 797.24 428.52 837.06 446.27 847.3 515.25 807.48 497.51 797.24Z" stroke-width="0" fill="#455A64"/></g><g><path d="M477.45 865.3 459.7 855.06 459.7 863.38 477.45 873.62 477.45 865.3Z" stroke-width="0" fill="#37474F"/><path d="M477.45 865.3 546.42 825.48 546.42 833.8 477.45 873.62 477.45 865.3Z" stroke-width="0" fill="#263238"/><path d="M528.68 815.23 459.7 855.06 477.45 865.29 546.42 825.48 528.68 815.23Z" stroke-width="0" fill="#455A64"/></g><g><path d="M508.62 883.29 490.87 873.05 490.87 881.38 508.62 891.62 508.62 883.29Z" stroke-width="0" fill="#37474F"/><path d="M508.62 883.29 577.6 843.47 577.6 851.8 508.62 891.62 508.62 883.29Z" stroke-width="0" fill="#263238"/><path d="M559.86 833.23 490.87 873.05 508.62 883.29 577.6 843.47 559.86 833.23Z" stroke-width="0" fill="#455A64"/></g></g><g><g><path d="M570.87 919.29 553.13 909.05 553.13 917.38 570.87 927.62 570.87 919.29Z" stroke-width="0" fill="#37474F"/><path d="M570.88 919.29 639.85 879.47 639.85 887.79 570.87 927.62 570.88 919.29Z" stroke-width="0" fill="#263238"/><path d="M622.11 869.23 553.13 909.05 570.87 919.29 639.85 879.47 622.11 869.23Z" stroke-width="0" fill="#455A64"/></g><g><path d="M602.05 937.29 584.3 927.05 584.3 935.37 602.05 945.61 602.05 937.29Z" stroke-width="0" fill="#37474F"/><path d="M602.05 937.29 671.02 897.47 671.02 905.79 602.05 945.61 602.05 937.29Z" stroke-width="0" fill="#263238"/><path d="M653.29 887.22 584.3 927.05 602.05 937.28 671.02 897.47 653.29 887.22Z" stroke-width="0" fill="#455A64"/></g></g><g><g><path d="M664.29 973.21 646.54 962.97 646.54 971.3 664.29 981.54 664.29 973.21Z" stroke-width="0" fill="#37474F"/><path d="M664.29 973.21 733.26 933.39 733.26 941.72 664.29 981.54 664.29 973.21Z" stroke-width="0" fill="#263238"/><path d="M715.52 923.15 646.54 962.97 664.29 973.21 733.26 933.39 715.52 923.15Z" stroke-width="0" fill="#455A64"/></g><g><path d="M695.46 991.21 677.71 980.97 677.71 989.3 695.46 999.54 695.46 991.21Z" stroke-width="0" fill="#37474F"/><path d="M695.46 991.21 764.44 951.39 764.43 959.72 695.46 999.54 695.46 991.21Z" stroke-width="0" fill="#263238"/><path d="M746.7 941.15 677.71 980.97 695.46 991.21 764.43 951.39 746.7 941.15Z" stroke-width="0" fill="#455A64"/></g><g><path d="M726.63 1009.21 708.89 998.97 708.89 1007.29 726.63 1017.53 726.63 1009.21Z" stroke-width="0" fill="#37474F"/><path d="M726.64 1009.21 795.61 969.39 795.61 977.71 726.63 1017.53 726.64 1009.21Z" stroke-width="0" fill="#263238"/><path d="M777.87 959.14 708.89 998.97 726.63 1009.2 795.61 969.39 777.87 959.14Z" stroke-width="0" fill="#455A64"/></g></g><g><g><path d="M788.86 1045.17 771.11 1034.93 771.12 1043.25 788.86 1053.49 788.86 1045.17Z" stroke-width="0" fill="#37474F"/><path d="M788.86 1045.17 857.84 1005.35 857.84 1013.67 788.86 1053.49 788.86 1045.17Z" stroke-width="0" fill="#263238"/><path d="M840.1 995.1 771.11 1034.93 788.86 1045.16 857.84 1005.35 840.1 995.1Z" stroke-width="0" fill="#455A64"/></g><g><path d="M820.04 1063.16 802.29 1052.92 802.29 1061.25 820.04 1071.49 820.04 1063.16Z" stroke-width="0" fill="#37474F"/><path d="M820.04 1063.16 889.01 1023.34 889.01 1031.67 820.04 1071.49 820.04 1063.16Z" stroke-width="0" fill="#263238"/><path d="M871.27 1013.1 802.29 1052.92 820.04 1063.16 889.01 1023.34 871.27 1013.1Z" stroke-width="0" fill="#455A64"/></g></g><g><path d="M878.82 1097.09 872.02 1101.02C871.88 1101.11 871.79 1101.16 871.65 1101.25L864.52 1097.18 864.52 1088.85 878.82 1097.09Z" stroke-width="0" fill="#37474F"/><path d="M916.35 1075.43C916.26 1075.38 916.16 1075.34 916.07 1075.34L916.35 1075.48 878.82 1097.09 864.52 1088.85 933.52 1049 947.82 1057.28 916.35 1075.42Z" stroke-width="0" fill="#455A64"/></g></g><path d="M860.46 1207.32C860.12 1174.93 859.78 1155.79 859.7 1122.21 859.08 1112.35 865.44 1102.87 874.22 1098.79 890.53 1089.31 932.06 1065.19 947.81 1056.03L960.08 1048.91C968.49 1044.61 972.9 1035.67 972.17 1026.31 972.35 1000.54 972.34 953.18 972.49 927.01 971.85 917.2 978.18 907.71 986.96 903.69 986.96 903.69 1011.59 889.6 1011.59 889.6L1060.99 861.67 1012.13 890.52 987.63 904.82C979.12 908.89 973.4 917.5 974 927.01 973.96 953.46 974.33 1000.38 974.32 1026.31 975.46 1044.98 962.86 1050.18 948.95 1057.97 933.31 1066.92 891.25 1091 875.08 1100.25 866.54 1104.26 860.78 1112.69 861.22 1122.21 861.16 1155.79 860.8 1174.94 860.48 1207.32L860.48 1207.32Z" stroke-width="0" fill="#263238"/><path d="M1187.18 777.76 1187.18 1049.27C1187.18 1065.8 1178.36 1081.08 1164.04 1089.35L883.54 1251.3 883.54 1134.44C883.54 1126.16 887.98 1118.52 895.11 1114.4L984.75 1062.66C991.92 1058.5 996.32 1050.86 996.32 1042.62L996.32 939.05C996.32 930.81 1000.76 923.18 1007.89 919.01L1143.86 840.52C1172.92 823.77 1187.18 801.28 1187.18 777.76Z" stroke-width="0"/></g><g><path d="M1181.16 519.15C1176.44 540.95 1156.82 564.5 1122.57 585.52L948.84 692.38 948.84 719.64 1122.57 612.83C1156.82 591.82 1176.44 568.26 1181.16 546.42 1181.9 542.95 1182.27 539.52 1182.27 536.15L1182.27 509.17C1182.27 512.46 1181.9 515.79 1181.16 519.17Z" stroke-width="0" fill="#263238"/><path d="M1274.74 153.96 1274.74 181.77 1274.65 181.77C1274.37 236.15 1229.94 297.38 1142.29 351.25 1110.03 371.1 1090.73 393.18 1084.67 413.91 1082.26 406.41 1081.94 398.55 1083.7 390.4 1088.42 368.6 1108.04 345.05 1142.29 323.99 1230.22 269.89 1274.74 208.43 1274.74 153.96Z" stroke-width="0" fill="#263238"/><path d="M1132.41 454.75C1094.03 440.68 1078.01 416.79 1083.7 390.41 1088.41 368.59 1108.05 345.03 1142.28 323.97 1309.98 220.89 1319.77 90.91 1164.14 33.73L1145.46 26.85C989.84-30.37 727.71 6.87 560.02 109.95L112.61 385.03 948.84 692.36 1122.59 585.52C1156.81 564.5 1176.45 540.94 1181.16 519.12 1186.85 492.74 1170.79 468.81 1132.41 454.75Z" stroke-width="0" fill="#455A64"/><path d="M560.02 109.95 424.21 193.45 647.42 581.58 938.22 688.46 594.32 90.48C582.52 96.69 571.05 103.17 560.01 109.95ZM785.33 21.61C748.06 30.08 711.34 40.94 676.23 54.07L1018.63 649.45 1113.02 591.41 785.33 21.61Z" stroke-width="0" fill="#FFFFFF" opacity="0.05"/><path d="M112.61 385.03 112.61 412.32 948.84 719.66 948.84 692.36 112.61 385.03Z" stroke-width="0" fill="#37474F"/></g></g></svg>