<svg viewBox="0 0 96 96" xmlns="http://www.w3.org/2000/svg" xmlns:xlink="http://www.w3.org/1999/xlink" id="Icons_Footprints_M" overflow="hidden"><g id="Icons"><path d="M40.685 59.384C40.4309 56.3557 39.8587 53.3625 38.978 50.454L38.729 49.69 21.856 51.313 21.777 52.133C21.5334 55.1281 21.5334 58.1379 21.777 61.133L21.97 63.056C22.0836 64.9233 22.9704 66.6588 24.417 67.845 26.5053 69.4673 29.1399 70.2197 31.77 69.945L33.705 69.752C38.0133 69.4032 41.2243 65.6296 40.879 61.321ZM33.526 67.76 31.566 67.96C29.4738 68.1825 27.3759 67.5937 25.705 66.315 24.6655 65.4716 24.0324 64.2269 23.963 62.89L23.769 60.952C23.5665 58.3566 23.5455 55.7503 23.706 53.152L37.306 51.844C38.0054 54.3717 38.4713 56.9582 38.698 59.571L38.892 61.507C39.0961 64.702 36.7149 67.4768 33.526 67.76Z" fill="#08512E"/><path d="M31.181 4C26.199 4 21.944 6.968 19.781 11.991 16.031 22.278 16.351 35.001 20.66 46.898L20.922 47.62 38.42 46.1 38.338 45.107C37.931 40.185 39.572 36.355 41.31 32.299 43.944 26.147 46.669 19.787 41.245 9.987 38.954 5.9 35.756 4 31.181 4ZM39.471 31.51C37.823 35.357 36.122 39.328 36.288 44.276L22.288 45.494C18.38 34.242 18.146 22.323 21.642 12.73 23.481 8.453 26.96 6 31.181 6 34.7026 5.81619 37.9873 7.77461 39.5 10.96 44.445 19.9 42.029 25.539 39.471 31.51Z" fill="#08512E"/><path d="M74.144 73.313 57.271 71.691 57.022 72.455C56.1426 75.3573 55.5708 78.3441 55.316 81.366L55.116 83.343C54.7787 87.6378 57.9776 91.3969 62.271 91.751L64.222 91.945C64.5745 91.982 64.9286 92.0003 65.283 92 67.5682 92.0233 69.7921 91.2616 71.583 89.842 73.0226 88.6643 73.9079 86.9412 74.027 85.085L74.227 83.11C74.4697 80.1226 74.4697 77.1204 74.227 74.133ZM72.233 82.931 72.033 84.92C71.9575 86.246 71.3251 87.4783 70.292 88.313 68.6211 89.5946 66.5205 90.183 64.427 89.956L62.451 89.756C59.2758 89.4647 56.9084 86.7002 57.109 83.518L57.309 81.544C57.537 78.9383 58.0026 76.3589 58.7 73.838L72.3 75.146C72.4585 77.7394 72.4361 80.3407 72.233 82.931Z" fill="#08512E"/><path d="M76.2 33.938C74.056 28.969 69.8 26 64.819 26 60.244 26 57.046 27.9 54.752 31.991 49.324 41.799 52.058 48.191 54.701 54.364 56.432 58.41 58.068 62.232 57.662 67.105L57.579 68.099 75.079 69.62 75.341 68.898C79.651 57 79.971 44.279 76.2 33.938ZM73.717 67.5 59.717 66.282C59.879 61.382 58.185 57.42 56.544 53.582 53.977 47.582 51.552 41.916 56.503 32.97 58.425 29.532 60.991 28 64.819 28 69.04 28 72.519 30.453 74.342 34.677 77.859 44.323 77.625 56.243 73.717 67.5Z" fill="#08512E"/></g></svg>