<svg viewBox="0 0 96 96" xmlns="http://www.w3.org/2000/svg" xmlns:xlink="http://www.w3.org/1999/xlink" id="Icons_ArrowRight" overflow="hidden"><style>
.MsftOfcThm_Background1_Fill_v2 {
 fill:#FFFFFF; 
}
</style>
<path d="M7.055 51.027 81.814 51.027 72.919 59.922C71.7592 61.0818 71.7592 62.9622 72.919 64.122 74.0788 65.2818 75.9592 65.2818 77.119 64.122L91.109 50.128C92.2688 49.0234 92.3136 47.1878 91.209 46.028 91.1765 45.9939 91.1431 45.9605 91.109 45.928L77.116 31.938C76.0114 30.7782 74.1758 30.7334 73.016 31.838 72.9819 31.8705 72.9485 31.9039 72.916 31.938 71.7562 33.0426 71.7114 34.8782 72.816 36.038 72.8485 36.0721 72.8819 36.1055 72.916 36.138L81.811 45.038 7.055 45.038C5.39815 45.038 4.055 46.3811 4.055 48.038 4.055 49.6949 5.39815 51.038 7.055 51.038Z" class="MsftOfcThm_Background1_Fill_v2" fill="#FFFFFF"/></svg>