<svg viewBox="0 0 499.81 512" xmlns="http://www.w3.org/2000/svg" xmlns:xlink="http://www.w3.org/1999/xlink" id="Capa_1" overflow="hidden"><style>
.MsftOfcResponsive_Fill_ffff00 {
 fill:#FFFF00; 
}
</style>
<defs></defs><path d="M431.25 186.89 421.21 196.94C419.86 198.28 418.51 199.45 417.18 200.53 428.74 226.43 435.23 255.07 435.23 285.22 435.23 400.14 341.73 493.62 226.81 493.62 111.89 493.62 18.39 400.13 18.39 285.22 18.39 170.31 111.88 76.83 226.81 76.83 250.75 76.83 273.73 80.94 295.16 88.4L295.16 88.4C297.2 85.15 299.59 81.92 302.85 78.63L308.01 73.46C282.79 63.78 255.43 58.43 226.82 58.43 101.57 58.44 0 159.98 0 285.21 0 410.44 101.57 512 226.81 512 352.05 512 453.62 410.46 453.62 285.21 453.62 249.99 445.59 216.63 431.25 186.89Z" class="MsftOfcResponsive_Fill_ffff00" stroke="#9100FF" stroke-width="1.00054" fill="#FFFF00"/><path d="M365.82 214.59 345.21 214.59C355.7 233.77 361.67 255.74 361.67 279.09 361.67 353.45 301.17 413.94 226.82 413.94 152.47 413.94 91.96 353.45 91.96 279.09 91.96 204.74 152.46 144.25 226.82 144.25 247.72 144.25 267.54 149.03 285.21 157.56L285.21 137.41C267.21 129.98 247.49 125.86 226.82 125.86 142.18 125.86 73.56 194.47 73.56 279.09 73.56 363.71 142.17 432.33 226.82 432.33 311.47 432.33 380.07 363.71 380.07 279.09 380.07 256.04 374.94 234.2 365.83 214.59Z" class="MsftOfcResponsive_Fill_ffff00" stroke="#9100FF" stroke-width="1.00054" fill="#FFFF00"/><path d="M498.37 75.79C496.94 73.01 494.62 71.07 492.33 69.89 490.02 68.71 487.66 68.15 485.25 67.9L441.48 63.53C440.59 63.46 439.19 62.85 438.09 61.73 436.97 60.63 436.35 59.23 436.29 58.34L431.91 14.55C431.57 11.35 430.72 8.17 428.49 5.2 427.38 3.74 425.86 2.37 424.03 1.42 422.19 0.48 420.08 0 418.09 0 415.54 0 413.27 0.73 411.36 1.71 409.45 2.71 407.83 3.99 406.37 5.45L318.02 93.8C314.43 97.44 311.87 101.82 309.91 106.5 308 111.2 306.7 116.11 306.66 121.22L306.66 171.68C306.67 175.14 307.56 178.36 309.02 181.25L271 220.4C258.68 211.12 243.42 205.54 226.81 205.54 186.18 205.54 153.25 238.48 153.25 279.09 153.25 319.7 186.18 352.64 226.81 352.64 267.44 352.64 300.37 319.7 300.37 279.09 300.37 261.71 294.3 245.77 284.22 233.18L323.6 192.64C325.06 192.95 326.56 193.13 328.12 193.14L378.61 193.14C383.72 193.1 388.63 191.81 393.33 189.9 398.02 187.93 402.4 185.38 406.04 181.78L494.37 93.46C495.83 92 497.1 90.38 498.1 88.46 499.08 86.55 499.81 84.28 499.81 81.74 499.83 79.76 499.34 77.64 498.38 75.81ZM226.81 334.25C196.38 334.25 171.63 309.51 171.63 279.09 171.63 248.67 196.38 223.93 226.81 223.93 238.41 223.93 249.18 227.55 258.08 233.7L220.22 272.7C216.68 276.34 216.77 282.16 220.41 285.7 224.05 289.24 229.88 289.15 233.42 285.51L271.26 246.55C277.97 255.68 281.99 266.92 281.99 279.1 281.99 309.52 257.24 334.26 226.82 334.26ZM325.05 164.74 325.05 121.22C325.01 119.6 325.68 116.42 326.9 113.53 328.07 110.63 329.85 107.91 331.02 106.79L414.32 23.5 417.99 60.19C418.25 62.66 418.95 64.95 419.89 67.09L325.05 164.74ZM393.03 168.78C391.9 169.95 389.19 171.73 386.29 172.9 383.4 174.13 380.22 174.79 378.6 174.75L340.96 174.75 432.96 80.01C435.04 80.9 437.25 81.58 439.64 81.83L476.31 85.49 393.03 168.77Z" class="MsftOfcResponsive_Fill_ffff00" stroke="#9100FF" stroke-width="1.00054" fill="#FFFF00"/></svg>