<svg viewBox="0 0 96 96" xmlns="http://www.w3.org/2000/svg" xmlns:xlink="http://www.w3.org/1999/xlink" id="Icons_Shield1" overflow="hidden"><path d="M50.87 9.3C58.045 17.1576 67.9351 21.999 78.542 22.846 80.5125 23.0307 82.0143 24.6919 82 26.671L82 36.325C82 57.31 68.653 76.508 50.121 88.387 48.8478 89.204 47.2152 89.204 45.942 88.387 27.41 76.508 14.063 57.31 14.063 36.325L14.063 26.671C14.0487 24.6919 15.5505 23.0307 17.521 22.846 28.1279 21.999 38.018 17.1576 45.193 9.3 46.5456 7.73234 48.9129 7.55798 50.4806 8.91056 50.6197 9.03065 50.7499 9.16082 50.87 9.3Z" fill="#00339A"/></svg>