<svg viewBox="0 0 96 96" xmlns="http://www.w3.org/2000/svg" xmlns:xlink="http://www.w3.org/1999/xlink" id="Icons_Books_M" overflow="hidden"><style>
.MsftOfcThm_Accent1_Stroke_v2 {
 stroke:#4472C4; 
}
</style>
<g id="Icons"><path d="M90.334 65.43 84.927 63.512 84.927 54.489 89.274 52.65C89.7828 52.4353 90.0213 51.8487 89.8066 51.3399 89.6731 51.0236 89.3867 50.7979 89.048 50.742L81.911 49.563 81.911 40.72 90.375 37.3C90.8871 37.0932 91.1346 36.5104 90.9278 35.9983 90.8204 35.7325 90.6042 35.5256 90.334 35.43L84.927 33.512 84.927 24.489 89.274 22.65C89.7826 22.4348 90.0206 21.8481 89.8054 21.3394 89.6978 21.0852 89.49 20.8867 89.231 20.791L55.671 8.4C55.4549 8.32013 55.2179 8.3173 55 8.392L9.7 24.19C9.60547 24.2222 9.51644 24.2688 9.436 24.328 9.307 24.428 6.27 26.738 6.27 33.835 6.25777 35.4515 6.44315 37.0635 6.822 38.635 5.643 39.635 3.27 42.335 3.27 47.835 3.24956 51.7931 4.51698 55.6504 6.881 58.825 6.45505 60.4603 6.24956 62.1452 6.27 63.835 6.27 70.873 9.364 73.735 9.496 73.852 9.58385 73.932 9.6855 73.9953 9.796 74.039L41.796 86.631C41.9127 86.6766 42.0368 86.7 42.162 86.7 42.2906 86.7002 42.4179 86.6754 42.537 86.627L90.375 67.3C90.8871 67.0932 91.1346 66.5104 90.9278 65.9983 90.8204 65.7325 90.6042 65.5256 90.334 65.43ZM79.911 49.73 42.121 64.788 10.465 52.326 10.465 44.315 41.8 56.631C42.0379 56.7259 42.3031 56.7259 42.541 56.631L79.909 41.531ZM42.163 84.623 10.733 72.257C10.245 71.713 8.272 69.182 8.272 63.835 8.24327 62.1653 8.47023 60.501 8.945 58.9 9.05322 58.56 8.97205 58.188 8.732 57.924 6.46043 55.0532 5.23948 51.4916 5.272 47.831 5.272 41.886 8.345 39.961 8.472 39.886 8.87216 39.6542 9.06114 39.1782 8.929 38.735 8.47648 37.1416 8.25621 35.4913 8.275 33.835 8.275 28.518 10.126 26.421 10.544 26.015L55.314 10.4 86.144 21.784C86.158 21.784 86.158 21.798 86.144 21.803L42.163 39.623 12.831 28.077C12.317 27.8749 11.7365 28.1276 11.5344 28.6416 11.4885 28.7583 11.465 28.8826 11.465 29.008L11.465 39.008C11.4651 39.4185 11.7161 39.7873 12.098 39.938L41.8 51.631C42.0379 51.7259 42.3031 51.7259 42.541 51.631L83.466 35.091 87.156 36.424C87.169 36.429 87.169 36.437 87.156 36.443L42.163 54.623 9.831 41.917C9.31704 41.7149 8.73652 41.9677 8.53439 42.4816 8.48849 42.5983 8.46495 42.7226 8.465 42.848L8.465 53.008C8.46509 53.4185 8.7161 53.7873 9.098 53.938L41.757 66.794C41.9934 66.8876 42.2566 66.8876 42.493 66.794L81.022 51.444 85.28 52.144C85.299 52.144 85.3 52.156 85.28 52.163L42.163 69.623 12.831 58.077C12.317 57.8749 11.7365 58.1277 11.5344 58.6416 11.4885 58.7583 11.465 58.8826 11.465 59.008L11.465 69.008C11.4651 69.4185 11.7161 69.7873 12.098 69.938L41.8 81.631C42.0379 81.7259 42.3031 81.7259 42.541 81.631L83.466 65.091 87.156 66.424C87.169 66.424 87.169 66.437 87.156 66.443ZM82.927 33.152 42.163 49.623 13.463 38.323 13.463 30.473 41.8 41.631C42.0379 41.7259 42.3031 41.7259 42.541 41.631L82.927 25.309ZM82.927 63.152 42.163 79.623 13.463 68.323 13.463 60.473 41.8 71.631C42.0379 71.7259 42.3031 71.7259 42.541 71.631L82.927 55.309Z" class="MsftOfcThm_Accent1_Stroke_v2" stroke="#4472C4" fill="#00339A"/></g></svg>