<svg viewBox="0 0 96 96" xmlns="http://www.w3.org/2000/svg" xmlns:xlink="http://www.w3.org/1999/xlink" id="Icons_MagnifyingGlass_M" overflow="hidden"><style>
.MsftOfcResponsive_Stroke_00339a {
 stroke:#00339A; 
}
</style>
<g id="Icons"><path d="M71.3 61.9C69.1 59.7 65.5 59.8 62.8 61.9L58.6 57.7C69.5 45.9 68.8 27.6 57 16.7 45.2 5.8 27 6.6 16.1 18.4 5.2 30.2 6 48.5 17.7 59.4 28.9 69.8 46.2 69.7 57.3 59.2L61.5 63.4C60.6 64.5 60.1 65.9 59.9 67.3 59.7 69 60.3 70.7 61.5 71.9L75.6 86C76.7 87 78.1 87.6 79.6 87.6 81.6 87.6 83.4 86.8 84.8 85.4 86.1 84.2 86.9 82.5 87 80.7 87.2 79 86.6 77.3 85.4 76.1L71.3 61.9ZM18.4 57.1C7.9 46.6 7.9 29.5 18.4 18.9 28.9 8.3 46 8.4 56.6 18.9 67.2 29.4 67.1 46.5 56.6 57.1 51.5 62.2 44.7 65 37.5 65 30.4 65 23.5 62.2 18.4 57.1ZM83.3 83.8C81.4 85.7 78.5 86 76.9 84.4L62.9 70.4C62.1 69.6 61.8 68.5 61.9 67.4 62 66.1 62.6 64.9 63.6 64 64.6 63 66 62.4 67.4 62.3 68.4 62.3 69.3 62.6 70 63.3L84 77.4C84.8 78.2 85.1 79.3 85 80.4 84.8 81.7 84.3 82.9 83.3 83.8 83.3 83.8 83.3 83.8 83.3 83.8Z" class="MsftOfcResponsive_Stroke_00339a" stroke="#00339A" stroke-width="3.72816" fill="#9100FF"/></g></svg>