<svg viewBox="0 0 96 96" xmlns="http://www.w3.org/2000/svg" xmlns:xlink="http://www.w3.org/1999/xlink" id="Icons_Questions_LTR_M" overflow="hidden"><path d="M54.507 51.612C58.373 51.612 61.507 54.746 61.507 58.612 61.507 62.478 58.373 65.612 54.507 65.612 50.641 65.612 47.507 62.478 47.507 58.612 47.5125 54.7483 50.6433 51.6175 54.507 51.612M54.507 49.612C49.5364 49.612 45.507 53.6414 45.507 58.612 45.507 63.5826 49.5364 67.612 54.507 67.612 59.4776 67.612 63.507 63.5826 63.507 58.612 63.507 53.6414 59.4776 49.612 54.507 49.612Z" fill="#9100FF"/><path d="M72.528 88.022 70.528 88.022 70.528 79.51C70.5617 78.4866 70.0808 77.5143 69.247 76.92 66.901 75.0835 64.1819 73.7821 61.28 73.107 59.0718 72.4407 56.7855 72.0675 54.48 71.997 52.2185 72.0069 49.9726 72.3731 47.825 73.082 44.934 73.8687 42.2075 75.1676 39.775 76.917 38.968 77.5387 38.4934 78.4983 38.489 79.517L38.489 88.025 36.489 88.025 36.489 79.51C36.5007 77.8603 37.2763 76.3092 38.589 75.31 41.2053 73.4233 44.1387 72.0212 47.25 71.17 49.5901 70.4011 52.0368 70.0062 54.5 70 56.9708 70.0707 59.4215 70.4664 61.789 71.177 64.9389 71.9136 67.8907 73.3274 70.439 75.32 71.7908 76.293 72.5719 77.8731 72.524 79.538Z" fill="#9100FF"/><path d="M30.025 37.587C33.891 37.587 37.025 40.721 37.025 44.587 37.025 48.453 33.891 51.587 30.025 51.587 26.159 51.587 23.025 48.453 23.025 44.587 23.0305 40.7233 26.1613 37.5925 30.025 37.587M30.025 35.587C25.0544 35.587 21.025 39.6164 21.025 44.587 21.025 49.5576 25.0544 53.587 30.025 53.587 34.9956 53.587 39.025 49.5576 39.025 44.587 39.025 39.6164 34.9956 35.587 30.025 35.587Z" fill="#9100FF"/><path d="M43.56 59.667C41.6181 58.5134 39.5105 57.6648 37.311 57.151 34.9438 56.4393 32.4929 56.0432 30.022 55.973 27.5561 55.9786 25.1066 56.3738 22.764 57.144 19.6515 57.9938 16.7169 59.3957 14.1 61.283 12.7873 62.2822 12.0118 63.8333 12 65.483L12 74 14 74 14 65.49C14.0044 64.4713 14.479 63.5117 15.286 62.89 17.7185 61.1409 20.445 59.8424 23.336 59.056 25.4865 58.3464 27.7355 57.9806 30 57.972 32.3056 58.0425 34.5919 58.4161 36.8 59.083 39.4812 59.7099 42.0081 60.8722 44.229 62.5 43.8805 61.5898 43.6555 60.637 43.56 59.667Z" fill="#9100FF"/><path d="M81.343 10C81.4026 10.0022 81.4496 10.0514 81.449 10.111L81.449 35.9C81.4503 35.9539 81.4121 36.0006 81.359 36.01L57.039 36.01 56.451 36.61 51.587 41.56 51.587 36.008 43.6 36.008C43.553 36.008 43.5 35.953 43.5 35.868L43.5 10.1C43.499 10.0517 43.5327 10.0096 43.58 10L81.343 10M81.359 8 43.587 8C42.4307 8.011 41.5009 8.95468 41.507 10.111L41.507 35.868C41.4847 37.0275 42.4065 37.9856 43.566 38.008L49.587 38.008 49.587 46.451 57.878 38.008 81.359 38.008C82.5165 37.997 83.4491 37.0556 83.449 35.898L83.449 10.111C83.4491 8.95328 82.5167 8.01152 81.359 8Z" fill="#9100FF"/><path d="M62.377 12.883 62.277 12.883C62.0439 12.8698 61.8101 12.8698 61.577 12.883 58.4079 13.0732 55.9574 15.737 56.032 18.911L56.032 19.033 58.042 19.033 58.042 18.906C58.0387 18.7548 58.044 18.6036 58.058 18.453 58.2353 16.4333 59.9305 14.8862 61.958 14.894 62.0669 14.893 62.1757 14.898 62.284 14.909L62.443 14.909C64.7443 14.949 66.5786 16.8447 66.543 19.146 66.543 21.458 64.836 23.012 62.297 23.012L61.297 23.012 61.297 27.93 63.313 27.93 63.313 24.964 63.621 24.926C66.5191 24.569 68.6638 22.0562 68.561 19.138L68.561 19C68.513 15.6156 65.7617 12.8941 62.377 12.883Z" fill="#9100FF"/><path d="M62.3 33C61.3931 33.0005 60.6576 32.2657 60.6572 31.3588 60.6567 30.452 61.3915 29.7165 62.2983 29.716 63.1965 29.7155 63.9284 30.4369 63.941 31.335 63.9594 32.2361 63.2437 32.9815 62.3426 32.9999 62.3407 32.9999 62.3389 33 62.337 33Z" fill="#9100FF"/></svg>