<svg width="512" height="512" viewBox="0 0 512 512" xmlns="http://www.w3.org/2000/svg" xmlns:xlink="http://www.w3.org/1999/xlink" overflow="hidden"><g id="_11_time"><path d="M266 400 96 400 96 328C96 323.582 92.4183 320 88 320L16 320 16 136 64.5 136C68.9183 136 72.5 132.418 72.5 128 72.5 123.582 68.9183 120 64.5 120L16 120 16 48 104 48 104 80C104 84.4183 107.582 88 112 88L144 88C148.418 88 152 84.4183 152 80L152 48 200 48 200 80C200 84.4183 203.582 88 208 88L240 88C244.418 88 248 84.4183 248 80L248 48 296 48 296 80C296 84.4183 299.582 88 304 88L336 88C340.418 88 344 84.4183 344 80L344 48 432 48 432 120 120 120C115.582 120 112 123.582 112 128 112 132.418 115.582 136 120 136L432 136 432 228C432 232.418 435.582 236 440 236 444.418 236 448 232.418 448 228L448 40C448 35.5817 444.418 32 440 32L344 32 344 8C344 3.58172 340.418 0 336 0L304 0C299.582 0 296 3.58172 296 8L296 32 248 32 248 8C248 3.58172 244.418 0 240 0L208 0C203.582 0 200 3.58172 200 8L200 32 152 32 152 8C152 3.58172 148.418 0 144 0L112 0C107.582 0 104 3.58172 104 8L104 32 8 32C3.58172 32 0 35.5817 1.77636e-15 40L0 328C0.0080976 330.12 0.848382 332.153 2.34 333.66L82.34 413.66C83.8471 415.152 85.8796 415.992 88 416L266 416C270.418 416 274 412.418 274 408 274 403.582 270.418 400 266 400ZM312 16 328 16 328 72 312 72ZM216 16 232 16 232 72 216 72ZM120 16 136 16 136 72 120 72ZM80 388.69 27.31 336 80 336Z"/><path d="M105 128C105 123.582 101.418 120 97 120L87.5 120C83.0817 120 79.5 123.582 79.5 128 79.5 132.418 83.0817 136 87.5 136L97 136C101.418 136 105 132.418 105 128Z"/><path d="M168 184C168 179.582 164.418 176 160 176L96 176C91.5817 176 88 179.582 88 184L88 248C88 252.418 91.5817 256 96 256L160 256C164.418 256 168 252.418 168 248ZM152 240 104 240 104 192 152 192Z"/><path d="M264 184C264 179.582 260.418 176 256 176L192 176C187.582 176 184 179.582 184 184L184 248C184 252.418 187.582 256 192 256L256 256C260.418 256 264 252.418 264 248ZM248 240 200 240 200 192 248 192Z"/><path d="M112 344C107.582 344 104 347.582 104 352 104 356.418 107.582 360 112 360L160 360C164.418 360 168 356.418 168 352L168 288C168 283.582 164.418 280 160 280L96 280C91.5817 280 88 283.582 88 288L88 304C88 308.418 91.5817 312 96 312 100.418 312 104 308.418 104 304L104 296 152 296 152 344Z"/><path d="M256 280 192 280C187.582 280 184 283.582 184 288L184 352C184 356.418 187.582 360 192 360L256 360C260.418 360 264 356.418 264 352L264 288C264 283.582 260.418 280 256 280ZM248 344 200 344 200 296 248 296Z"/><path d="M352 176 288 176C283.582 176 280 179.582 280 184L280 248C280 252.418 283.582 256 288 256L352 256C356.418 256 360 252.418 360 248L360 184C360 179.582 356.418 176 352 176ZM344 240 296 240 296 192 344 192Z"/><path d="M296 344 296 296 344 296C348.418 296 352 292.418 352 288 352 283.582 348.418 280 344 280L288 280C283.582 280 280 283.582 280 288L280 344C280 348.418 283.582 352 288 352 292.418 352 296 348.418 296 344Z"/><path d="M424 290.6 424 280 432 280C436.418 280 440 276.418 440 272L440 248C440 243.582 436.418 240 432 240L368 240C363.582 240 360 243.582 360 248L360 272C360 276.418 363.582 280 368 280L376 280 376 290.6C315.581 303.855 277.347 363.579 290.602 423.998 303.856 484.417 363.581 522.652 424 509.397 484.419 496.142 522.653 436.417 509.398 375.998 500.033 333.308 466.69 299.965 424 290.6ZM376 256 424 256 424 264 376 264ZM392 280 408 280 408 288.29C405.36 288.1 402.69 288 400 288 397.31 288 394.64 288.1 392 288.29ZM400 496C346.981 496 304 453.019 304 400 304 346.981 346.981 304 400 304 453.019 304 496 346.981 496 400 495.939 452.994 452.994 495.939 400 496Z"/><path d="M400 320C355.817 320 320 355.817 320 400 320 444.183 355.817 480 400 480 444.183 480 480 444.183 480 400 479.95 355.838 444.162 320.05 400 320ZM408 463.48 408 456C408 451.582 404.418 448 400 448 395.582 448 392 451.582 392 456L392 463.48C365.989 460.174 344.607 441.374 338 416L344 416C348.418 416 352 412.418 352 408 352 403.582 348.418 400 344 400L336 400C336.045 367.767 360.025 340.584 392 336.52L392 344C392 348.418 395.582 352 400 352 404.418 352 408 348.418 408 344L408 336.52C439.975 340.584 463.955 367.767 464 400L456 400C451.582 400 448 403.582 448 408 448 412.418 451.582 416 456 416L462 416C455.393 441.374 434.011 460.174 408 463.48Z"/><path d="M419.56 385.34 401 397.71 373.64 370.35C370.437 367.307 365.373 367.436 362.33 370.64 359.396 373.727 359.396 378.572 362.33 381.66L394.33 413.66C397.026 416.354 401.248 416.773 404.42 414.66L428.42 398.66C432.158 396.305 433.279 391.365 430.923 387.627 428.568 383.889 423.628 382.768 419.89 385.123 419.775 385.196 419.661 385.272 419.55 385.35Z"/></g></svg>