<svg viewBox="0 0 96 96" xmlns="http://www.w3.org/2000/svg" xmlns:xlink="http://www.w3.org/1999/xlink" id="Icons_CommentDislike_M" overflow="hidden"><path d="M62.56 40.432C62.5545 39.4612 62.0958 38.5486 61.32 37.965 61.4248 37.6662 61.4844 37.3534 61.497 37.037 61.5277 36.2044 61.2145 35.3957 60.631 34.801 60.3525 34.5093 60.0222 34.272 59.657 34.101 59.7322 33.7767 59.7565 33.4427 59.729 33.111 59.5719 31.4789 58.1925 30.2381 56.553 30.254L50.259 30.254C48.2151 30.1699 46.2162 30.8695 44.671 32.21 44.1908 32.7195 43.5372 33.0306 42.839 33.082L41.608 33.082C41.3175 32.0467 40.3753 31.3298 39.3 31.326L33 31.326 33 48.157 39.31 48.157C40.3869 48.1537 41.3304 47.4352 41.62 46.398L41.967 46.398C42.3907 46.3995 42.8058 46.5175 43.167 46.739 44.679 47.666 48.195 50.218 48.195 53.884 48.1972 55.6071 49.5959 57.0022 51.319 57 51.3207 57 51.3223 57 51.324 57 51.424 57 51.524 56.995 51.624 56.985 53.2546 56.7812 54.4686 55.38 54.438 53.737 54.523 51.5969 54.2051 49.4598 53.501 47.437 53.457 47.312 53.416 47.213 53.393 47.137 53.4018 47.1195 53.4186 47.1076 53.438 47.105L60.16 47.105C61.8842 47.0984 63.2766 45.6953 63.27 43.9711 63.27 43.9697 63.27 43.9684 63.27 43.967 63.2718 43.1102 62.921 42.2904 62.3 41.7 62.473 41.2997 62.5616 40.8681 62.56 40.432ZM39.709 45.837C39.6649 46.0228 39.5 46.1548 39.309 46.157L35 46.157 35 33.326 39.3 33.326C39.5247 33.3292 39.7062 33.5103 39.71 33.735ZM60.943 44.777C60.7369 44.9878 60.4548 45.1071 60.16 45.108L53.439 45.108C52.3364 45.1148 51.432 45.9835 51.381 47.085 51.379 47.1233 51.379 47.1617 51.381 47.2 51.4164 47.5134 51.4962 47.8201 51.618 48.111 52.2423 49.9217 52.5208 51.8335 52.439 53.747 52.4654 54.3579 52.0351 54.8937 51.433 55 51.117 55.0318 50.8023 54.9283 50.567 54.715 50.332 54.504 50.1982 54.2028 50.199 53.887 50.199 49.379 46.451 46.407 44.217 45.037 43.5397 44.6215 42.7606 44.4014 41.966 44.401L41.719 44.401 41.719 35.085 42.839 35.085C43.9849 35.0436 45.0753 34.5807 45.901 33.785 47.0939 32.718 48.6608 32.1669 50.259 32.252L56.553 32.252C57.1472 32.2391 57.6562 32.6749 57.735 33.264 57.775 33.5567 57.6784 33.8516 57.473 34.064 57.1926 34.356 57.1186 34.7894 57.286 35.158 57.4582 35.5389 57.838 35.7832 58.256 35.782 58.6084 35.7834 58.9451 35.9277 59.189 36.182 59.5977 36.5882 59.6035 37.2476 59.202 37.661 58.8063 38.0463 58.7978 38.6794 59.1831 39.0751 59.3192 39.215 59.4934 39.3119 59.684 39.354 60.1897 39.4649 60.5525 39.9093 60.56 40.427 60.5609 40.7385 60.4341 41.0367 60.209 41.252 59.8037 41.6272 59.7794 42.2599 60.1546 42.6652 60.2665 42.786 60.4064 42.8773 60.562 42.931 60.9967 43.0916 61.2812 43.5107 61.27 43.974 61.2737 44.2748 61.1558 44.5643 60.943 44.777Z"/><path d="M78.6 17.005 17.4 17.005C15.5304 17.0245 14.0195 18.5354 14 20.405L14 61.717C13.9845 63.5792 15.4815 65.1015 17.3438 65.117 17.3625 65.1171 17.3813 65.1171 17.4 65.117L54.8 65.117 68.4 79.017 68.4 65.217 78.6 65.217C80.4696 65.1975 81.9805 63.6866 82 61.817L82 20.506C82.0239 18.6019 80.504 17.0368 78.6 17.005ZM80 61.817C79.98 62.5818 79.3648 63.197 78.6 63.217L66.4 63.217 66.4 74.117 56.232 63.72 55.644 63.12 17.4 63.12C16.6436 63.1368 16.0168 62.5371 16 61.7807 15.9996 61.7604 15.9996 61.7402 16 61.72L16 20.406C16.02 19.6412 16.6352 19.026 17.4 19.006L78.6 19.006C79.3998 19.0359 80.0253 19.7061 80 20.506Z"/></svg>