<svg width="512" height="512" viewBox="0 0 61.334 62" xmlns="http://www.w3.org/2000/svg" xmlns:xlink="http://www.w3.org/1999/xlink" id="Layer_5" overflow="hidden"><style>
.MsftOfcThm_Background1_Fill_v2 {
 fill:#FFFFFF; 
}
</style>
<g><path d="M24.728 53.362C25.409 56.093 27.852 58 30.667 58 33.482 58 35.925 56.093 36.606 53.365L36.951 52 24.383 52ZM34.203 54C33.474 55.218 32.146 56 30.667 56 29.188 56 27.861 55.218 27.132 54Z" class="MsftOfcThm_Background1_Fill_v2" fill="#FFFFFF"/><path d="M27.667 43 25.667 43C25.667 44.654 24.321 46 22.667 46 21.013 46 19.667 44.654 19.667 43L17.667 43C17.667 45.757 19.91 48 22.667 48 25.424 48 27.667 45.757 27.667 43Z" class="MsftOfcThm_Background1_Fill_v2" fill="#FFFFFF"/><path d="M38.667 46C37.013 46 35.667 44.654 35.667 43L33.667 43C33.667 45.757 35.91 48 38.667 48 41.424 48 43.667 45.757 43.667 43L41.667 43C41.667 44.654 40.321 46 38.667 46Z" class="MsftOfcThm_Background1_Fill_v2" fill="#FFFFFF"/><path d="M55.067 21.2 56.267 22.8 61.334 19 56.267 15.2 55.067 16.8 56.667 18 48.667 18 48.667 20 56.667 20Z" class="MsftOfcThm_Background1_Fill_v2" fill="#FFFFFF"/><path d="M55.067 34.8 56.667 36 53.596 36C53.638 35.52 53.667 35.038 53.667 34.556 53.667 28.9 50.767 23.649 46.039 20.615 46.427 19.821 46.667 18.941 46.667 18 46.667 16.462 46.081 15.062 45.126 14 46.101 12.908 46.667 11.483 46.667 10 46.667 6.912 44.322 4.364 41.32 4.037 40.494 1.661 38.238-7.10543e-15 35.667-7.10543e-15 33.582-7.10543e-15 31.743 1.068 30.667 2.687 29.591 1.068 27.752-7.10543e-15 25.667-7.10543e-15 23.092-7.10543e-15 20.822 1.657 19.997 4.037 17.003 4.371 14.667 6.918 14.667 10 14.667 11.538 15.253 12.938 16.208 14 15.233 15.092 14.667 16.517 14.667 18 14.667 18.942 14.891 19.83 15.28 20.624 10.561 23.659 7.667 28.906 7.667 34.556 7.667 35.038 7.696 35.52 7.738 36L4.667 36 6.267 34.8 5.068 33.2-3.55271e-15 37 5.067 40.8 6.266 39.2 4.666 38 8.038 38C8.29 39.182 8.667 40.336 9.168 41.437 8.244 42.344 7.667 43.605 7.667 45 7.667 47.757 9.91 50 12.667 50L13.718 50C14.232 56.701 19.837 62 26.667 62L34.667 62C41.497 62 47.102 56.701 47.616 50L48.667 50C51.424 50 53.667 47.757 53.667 45 53.667 43.605 53.09 42.344 52.165 41.436 52.667 40.336 53.044 39.182 53.296 38L56.668 38 55.068 39.2 56.267 40.8 61.334 37 56.267 33.2ZM35.667 2C37.191 2 38.544 2.878 39.215 4.183 38.161 4.444 37.194 4.982 36.409 5.772L37.829 7.181C38.585 6.419 39.593 6 40.667 6 42.873 6 44.667 7.794 44.667 10 44.667 11.044 44.256 12.004 43.552 12.742 42.695 12.27 41.712 12 40.667 12 37.82 12 35.347 14.024 34.786 16.813L36.747 17.208C37.121 15.349 38.77 14 40.667 14 42.873 14 44.667 15.794 44.667 18 44.667 20.189 42.899 21.974 40.716 22L39.753 21.967 39.587 22.793C39.213 24.651 37.564 26 35.667 26 33.461 26 31.667 24.206 31.667 22L31.667 6C31.667 3.794 33.461 2 35.667 2ZM25.768 36 35.566 36C35.101 38.279 33.082 40 30.667 40 28.252 40 26.233 38.279 25.768 36ZM36.667 34 24.667 34C24.115 34 23.667 33.551 23.667 33 23.667 32.449 24.115 32 24.667 32L36.667 32C37.219 32 37.667 32.449 37.667 33 37.667 33.551 37.219 34 36.667 34ZM27.667 27.647 27.667 30 25.667 30 25.667 28C26.37 28 27.04 27.87 27.667 27.647ZM30.667 25.313C30.95 25.738 31.288 26.123 31.667 26.463L31.667 30 29.667 30 29.667 26.463C30.046 26.123 30.384 25.739 30.667 25.313ZM35.667 30 33.667 30 33.667 27.647C34.294 27.87 34.964 28 35.667 28ZM20.618 6 21.581 6.033 21.747 5.207C22.121 3.349 23.77 2 25.667 2 27.873 2 29.667 3.794 29.667 6L29.667 22C29.667 24.206 27.873 26 25.667 26 24.143 26 22.791 25.122 22.119 23.817 23.173 23.556 24.14 23.018 24.925 22.228L23.505 20.819C22.749 21.581 21.741 22 20.667 22 18.461 22 16.667 20.206 16.667 18 16.667 16.956 17.078 15.996 17.782 15.258 18.639 15.73 19.622 16 20.667 16 23.514 16 25.987 13.976 26.548 11.187L24.587 10.792C24.213 12.651 22.564 14 20.667 14 18.461 14 16.667 12.206 16.667 10 16.667 7.811 18.435 6.026 20.618 6ZM9.667 34.556C9.667 29.556 12.246 24.917 16.444 22.257 17.383 23.189 18.629 23.812 20.014 23.963 20.616 25.695 21.972 27.048 23.667 27.652L23.667 30.185C22.506 30.599 21.667 31.699 21.667 33.001 21.667 34.323 22.532 35.435 23.721 35.834 23.813 36.602 24.031 37.33 24.352 38.001L16.667 38.001C15.365 38.001 14.265 38.84 13.851 40.001L12.667 40.001C12.041 40.001 11.447 40.13 10.894 40.341 10.104 38.517 9.667 36.543 9.667 34.556ZM9.667 45C9.667 43.346 11.013 42 12.667 42L13.667 42 13.667 48 12.667 48C11.013 48 9.667 46.654 9.667 45ZM45.667 49C45.667 55.065 40.732 60 34.667 60L26.667 60C20.602 60 15.667 55.065 15.667 49L15.667 41C15.667 40.449 16.115 40 16.667 40L25.778 40C27.041 41.235 28.766 42 30.667 42 32.568 42 34.294 41.235 35.556 40L44.667 40C45.219 40 45.667 40.449 45.667 41ZM48.667 48 47.667 48 47.667 42 48.667 42C50.321 42 51.667 43.346 51.667 45 51.667 46.654 50.321 48 48.667 48ZM48.667 40 47.483 40C47.069 38.839 45.969 38 44.667 38L36.982 38C37.302 37.328 37.521 36.601 37.613 35.833 38.802 35.434 39.667 34.322 39.667 33 39.667 31.698 38.828 30.598 37.667 30.184L37.667 27.644C39.362 27.039 40.735 25.698 41.337 23.963 42.714 23.809 43.937 23.173 44.873 22.247 49.081 24.906 51.667 29.55 51.667 34.557 51.667 36.544 51.229 38.518 50.44 40.341 49.887 40.129 49.293 40 48.667 40Z" class="MsftOfcThm_Background1_Fill_v2" fill="#FFFFFF"/><path d="M55.067 52.8 56.667 54 48.667 54 48.667 56 56.667 56 55.067 57.2 56.267 58.8 61.334 55 56.267 51.2Z" class="MsftOfcThm_Background1_Fill_v2" fill="#FFFFFF"/><path d="M6.267 21.2 4.667 20 12.667 20 12.667 18 4.667 18 6.267 16.8 5.067 15.2 -8.88178e-16 19 5.067 22.8Z" class="MsftOfcThm_Background1_Fill_v2" fill="#FFFFFF"/><path d="M6.267 52.8 5.067 51.2 0 55 5.067 58.8 6.267 57.2 4.667 56 12.667 56 12.667 54 4.667 54Z" class="MsftOfcThm_Background1_Fill_v2" fill="#FFFFFF"/></g></svg>