<svg width="97.6" height="33.8" viewBox="-1.4 -0.3 97.6 33.8" xmlns="http://www.w3.org/2000/svg" xmlns:xlink="http://www.w3.org/1999/xlink" overflow="hidden"><style>
.MsftOfcThm_Accent1_lumMod_75_Fill_v2 {
 fill:#376092; 
}
</style>
<g><g><g id="change1_1"><path d="M94.34 5.87C92.79 1.59 90.8 0.54 87.4 0.23 81.4-0.32 69.68 0.23 63.63 0.63 10.64 4.07 18.91 0.8 5.81 3.72 3.79225 4.02739 2.02301 5.23386 1 7-1.44 11.81 0.62 26.59 6.34 30.34 8.34 31.67 5.81 31.2 68.08 33.28 73.61 33.46 87.88 32.73 92.17 29.17 93.1036 28.4008 93.8148 27.3962 94.23 26.26 95.88 21.57 96.13 14.34 95.23 9.62 95.0039 8.35429 94.7068 7.10231 94.34 5.87Z" class="MsftOfcThm_Accent1_lumMod_75_Fill_v2" fill="#376092"/></g></g></g></svg>