<?xml version="1.0" encoding="UTF-8"?><svg xmlns="http://www.w3.org/2000/svg" xmlns:xlink="http://www.w3.org/1999/xlink" contentScriptType="text/ecmascript" fill="#000000" width="97.6" zoomAndPan="magnify" contentStyleType="text/css" viewBox="-1.4 -0.3 97.6 33.8" height="33.8" preserveAspectRatio="xMidYMid meet" version="1"><g data-name="Layer 2"><g data-name="Layer 1"><g id="change1_1"><path fill="#f8db49" d="M94.34,5.87C92.79,1.59,90.8.54,87.4.23c-6-.55-17.72,0-23.77.4C10.64,4.07,18.91.8,5.81,3.72A6.73,6.73,0,0,0,1,7C-1.44,11.81.62,26.59,6.34,30.34c2,1.33-.53.86,61.74,2.94,5.53.18,19.8-.55,24.09-4.11a6.79,6.79,0,0,0,2.06-2.91c1.65-4.69,1.9-11.92,1-16.64A34.26,34.26,0,0,0,94.34,5.87Z"/></g></g></g></svg>