<?xml version="1.0" encoding="UTF-8"?><svg xmlns="http://www.w3.org/2000/svg" xmlns:xlink="http://www.w3.org/1999/xlink" contentScriptType="text/ecmascript" fill="#f8db49" width="190.7" zoomAndPan="magnify" contentStyleType="text/css" viewBox="4.7 0.0 190.7 200.0" height="200" preserveAspectRatio="xMidYMid meet" version="1"><g><g id="change1_1"><circle r="5.81" cx="10.46" cy="5.81"/><circle r="5.81" cx="40.31" cy="5.81"/><circle r="5.81" cx="70.15" cy="5.81"/><circle r="5.81" cx="100" cy="5.81"/><circle r="5.81" cx="129.85" cy="5.81"/><circle r="5.81" cx="159.69" cy="5.81"/><circle r="5.81" cx="189.54" cy="5.81"/><circle r="5.81" cx="10.46" cy="29.36"/><circle r="5.81" cx="40.31" cy="29.36"/><circle r="5.81" cx="70.15" cy="29.36"/><circle r="5.81" cx="100" cy="29.36"/><circle r="5.81" cx="129.85" cy="29.36"/><circle r="5.81" cx="159.69" cy="29.36"/><circle r="5.81" cx="189.54" cy="29.36"/><circle r="5.81" cx="10.46" cy="52.9"/><circle r="5.81" cx="40.31" cy="52.9"/><circle r="5.81" cx="70.15" cy="52.9"/><circle r="5.81" cx="100" cy="52.9"/><circle r="5.81" cx="129.85" cy="52.9"/><circle r="5.81" cx="159.69" cy="52.9"/><circle r="5.81" cx="189.54" cy="52.9"/><circle r="5.81" cx="10.46" cy="76.45"/><circle r="5.81" cx="40.31" cy="76.45"/><circle r="5.81" cx="70.15" cy="76.45"/><circle r="5.81" cx="100" cy="76.45"/><circle r="5.81" cx="129.85" cy="76.45"/><circle r="5.81" cx="159.69" cy="76.45"/><circle r="5.81" cx="189.54" cy="76.45"/><circle r="5.81" cx="10.46" cy="100"/><circle r="5.81" cx="40.31" cy="100"/><circle r="5.81" cx="70.15" cy="100"/><circle r="5.81" cx="100" cy="100"/><circle r="5.81" cx="129.85" cy="100"/><circle r="5.81" cx="159.69" cy="100"/><circle r="5.81" cx="189.54" cy="100"/><circle r="5.81" cx="10.46" cy="123.55"/><circle r="5.81" cx="40.31" cy="123.55"/><circle r="5.81" cx="70.15" cy="123.55"/><circle r="5.81" cx="100" cy="123.55"/><circle r="5.81" cx="129.85" cy="123.55"/><circle r="5.81" cx="159.69" cy="123.55"/><circle r="5.81" cx="189.54" cy="123.55"/><circle r="5.81" cx="10.46" cy="147.1"/><circle r="5.81" cx="40.31" cy="147.1"/><circle r="5.81" cx="70.15" cy="147.1"/><circle r="5.81" cx="100" cy="147.1"/><circle r="5.81" cx="129.85" cy="147.1"/><circle r="5.81" cx="159.69" cy="147.1"/><circle r="5.81" cx="189.54" cy="147.1"/><circle r="5.81" cx="10.46" cy="170.64"/><circle r="5.81" cx="40.31" cy="170.64"/><circle r="5.81" cx="70.15" cy="170.64"/><circle r="5.81" cx="100" cy="170.64"/><circle r="5.81" cx="129.85" cy="170.64"/><circle r="5.81" cx="159.69" cy="170.64"/><circle r="5.81" cx="189.54" cy="170.64"/><circle r="5.81" cx="10.46" cy="194.19"/><circle r="5.81" cx="40.31" cy="194.19"/><circle r="5.81" cx="70.15" cy="194.19"/><circle r="5.81" cx="100" cy="194.19"/><circle r="5.81" cx="129.85" cy="194.19"/><circle r="5.81" cx="159.69" cy="194.19"/><circle r="5.81" cx="189.54" cy="194.19"/></g></g></svg>