<svg width="190.7" height="200" viewBox="4.7 0 190.7 200" xmlns="http://www.w3.org/2000/svg" xmlns:xlink="http://www.w3.org/1999/xlink" fill="#F8DB49" overflow="hidden"><g><g id="change1_1"><circle cx="10.46" cy="5.81" r="5.81" stroke-width="1.00005" fill="#FFC000"/><circle cx="40.31" cy="5.81" r="5.81" stroke-width="1.00005" fill="#FFC000"/><circle cx="70.15" cy="5.81" r="5.81" stroke-width="1.00005" fill="#FFC000"/><circle cx="100" cy="5.81" r="5.81" stroke-width="1.00005" fill="#FFC000"/><circle cx="129.85" cy="5.81" r="5.81" stroke-width="1.00005" fill="#FFC000"/><circle cx="159.69" cy="5.81" r="5.81" stroke-width="1.00005" fill="#FFC000"/><circle cx="189.54" cy="5.81" r="5.81" stroke-width="1.00005" fill="#FFC000"/><circle cx="10.46" cy="29.36" r="5.81" stroke-width="1.00005" fill="#FFC000"/><circle cx="40.31" cy="29.36" r="5.81" stroke-width="1.00005" fill="#FFC000"/><circle cx="70.15" cy="29.36" r="5.81" stroke-width="1.00005" fill="#FFC000"/><circle cx="100" cy="29.36" r="5.81" stroke-width="1.00005" fill="#FFC000"/><circle cx="129.85" cy="29.36" r="5.81" stroke-width="1.00005" fill="#FFC000"/><circle cx="159.69" cy="29.36" r="5.81" stroke-width="1.00005" fill="#FFC000"/><circle cx="189.54" cy="29.36" r="5.81" stroke-width="1.00005" fill="#FFC000"/><circle cx="10.46" cy="52.9" r="5.81" stroke-width="1.00005" fill="#FFC000"/><circle cx="40.31" cy="52.9" r="5.81" stroke-width="1.00005" fill="#FFC000"/><circle cx="70.15" cy="52.9" r="5.81" stroke-width="1.00005" fill="#FFC000"/><circle cx="100" cy="52.9" r="5.81" stroke-width="1.00005" fill="#FFC000"/><circle cx="129.85" cy="52.9" r="5.81" stroke-width="1.00005" fill="#FFC000"/><circle cx="159.69" cy="52.9" r="5.81" stroke-width="1.00005" fill="#FFC000"/><circle cx="189.54" cy="52.9" r="5.81" stroke-width="1.00005" fill="#FFC000"/><circle cx="10.46" cy="76.45" r="5.81" stroke-width="1.00005" fill="#FFC000"/><circle cx="40.31" cy="76.45" r="5.81" stroke-width="1.00005" fill="#FFC000"/><circle cx="70.15" cy="76.45" r="5.81" stroke-width="1.00005" fill="#FFC000"/><circle cx="100" cy="76.45" r="5.81" stroke-width="1.00005" fill="#FFC000"/><circle cx="129.85" cy="76.45" r="5.81" stroke-width="1.00005" fill="#FFC000"/><circle cx="159.69" cy="76.45" r="5.81" stroke-width="1.00005" fill="#FFC000"/><circle cx="189.54" cy="76.45" r="5.81" stroke-width="1.00005" fill="#FFC000"/><circle cx="10.46" cy="100" r="5.81" stroke-width="1.00005" fill="#FFC000"/><circle cx="40.31" cy="100" r="5.81" stroke-width="1.00005" fill="#FFC000"/><circle cx="70.15" cy="100" r="5.81" stroke-width="1.00005" fill="#FFC000"/><circle cx="100" cy="100" r="5.81" stroke-width="1.00005" fill="#FFC000"/><circle cx="129.85" cy="100" r="5.81" stroke-width="1.00005" fill="#FFC000"/><circle cx="159.69" cy="100" r="5.81" stroke-width="1.00005" fill="#FFC000"/><circle cx="189.54" cy="100" r="5.81" stroke-width="1.00005" fill="#FFC000"/><circle cx="10.46" cy="123.55" r="5.81" stroke-width="1.00005" fill="#FFC000"/><circle cx="40.31" cy="123.55" r="5.81" stroke-width="1.00005" fill="#FFC000"/><circle cx="70.15" cy="123.55" r="5.81" stroke-width="1.00005" fill="#FFC000"/><circle cx="100" cy="123.55" r="5.81" stroke-width="1.00005" fill="#FFC000"/><circle cx="129.85" cy="123.55" r="5.81" stroke-width="1.00005" fill="#FFC000"/><circle cx="159.69" cy="123.55" r="5.81" stroke-width="1.00005" fill="#FFC000"/><circle cx="189.54" cy="123.55" r="5.81" stroke-width="1.00005" fill="#FFC000"/><circle cx="10.46" cy="147.1" r="5.81" stroke-width="1.00005" fill="#FFC000"/><circle cx="40.31" cy="147.1" r="5.81" stroke-width="1.00005" fill="#FFC000"/><circle cx="70.15" cy="147.1" r="5.81" stroke-width="1.00005" fill="#FFC000"/><circle cx="100" cy="147.1" r="5.81" stroke-width="1.00005" fill="#FFC000"/><circle cx="129.85" cy="147.1" r="5.81" stroke-width="1.00005" fill="#FFC000"/><circle cx="159.69" cy="147.1" r="5.81" stroke-width="1.00005" fill="#FFC000"/><circle cx="189.54" cy="147.1" r="5.81" stroke-width="1.00005" fill="#FFC000"/><circle cx="10.46" cy="170.64" r="5.81" stroke-width="1.00005" fill="#FFC000"/><circle cx="40.31" cy="170.64" r="5.81" stroke-width="1.00005" fill="#FFC000"/><circle cx="70.15" cy="170.64" r="5.81" stroke-width="1.00005" fill="#FFC000"/><circle cx="100" cy="170.64" r="5.81" stroke-width="1.00005" fill="#FFC000"/><circle cx="129.85" cy="170.64" r="5.81" stroke-width="1.00005" fill="#FFC000"/><circle cx="159.69" cy="170.64" r="5.81" stroke-width="1.00005" fill="#FFC000"/><circle cx="189.54" cy="170.64" r="5.81" stroke-width="1.00005" fill="#FFC000"/><circle cx="10.46" cy="194.19" r="5.81" stroke-width="1.00005" fill="#FFC000"/><circle cx="40.31" cy="194.19" r="5.81" stroke-width="1.00005" fill="#FFC000"/><circle cx="70.15" cy="194.19" r="5.81" stroke-width="1.00005" fill="#FFC000"/><circle cx="100" cy="194.19" r="5.81" stroke-width="1.00005" fill="#FFC000"/><circle cx="129.85" cy="194.19" r="5.81" stroke-width="1.00005" fill="#FFC000"/><circle cx="159.69" cy="194.19" r="5.81" stroke-width="1.00005" fill="#FFC000"/><circle cx="189.54" cy="194.19" r="5.81" stroke-width="1.00005" fill="#FFC000"/></g></g></svg>