<?xml version="1.0" encoding="UTF-8"?><svg xmlns="http://www.w3.org/2000/svg" xmlns:xlink="http://www.w3.org/1999/xlink" contentScriptType="text/ecmascript" fill="#000000" width="95.1" zoomAndPan="magnify" contentStyleType="text/css" viewBox="2.5 3.8 95.1 92.3" height="92.3" preserveAspectRatio="xMidYMid meet" version="1"><g id="change1_1"><circle fill="#d8bc16" r="1.09" cx="3.55" cy="4.94"/></g><g id="change1_2"><circle fill="#d8bc16" r="1.09" cx="9.01" cy="4.94"/></g><g id="change1_3"><circle fill="#d8bc16" r="1.09" cx="14.48" cy="4.94"/></g><g id="change1_4"><circle fill="#d8bc16" r="1.09" cx="19.94" cy="4.94"/></g><g id="change1_5"><circle fill="#d8bc16" r="1.09" cx="25.41" cy="4.94"/></g><g id="change1_6"><circle fill="#d8bc16" r="1.09" cx="30.87" cy="4.94"/></g><g id="change1_7"><circle fill="#d8bc16" r="1.09" cx="36.34" cy="4.94"/></g><g id="change1_8"><circle fill="#d8bc16" r="1.09" cx="41.8" cy="4.94"/></g><g id="change1_9"><circle fill="#d8bc16" r="1.09" cx="47.27" cy="4.94"/></g><g id="change1_10"><circle fill="#d8bc16" r="1.09" cx="52.73" cy="4.94"/></g><g id="change1_11"><circle fill="#d8bc16" r="1.09" cx="58.2" cy="4.94"/></g><g id="change1_12"><circle fill="#d8bc16" r="1.09" cx="63.66" cy="4.94"/></g><g id="change1_13"><circle fill="#d8bc16" r="1.09" cx="69.13" cy="4.94"/></g><g id="change1_14"><circle fill="#d8bc16" r="1.09" cx="74.59" cy="4.94"/></g><g id="change1_15"><circle fill="#d8bc16" r="1.09" cx="80.06" cy="4.94"/></g><g id="change1_16"><circle fill="#d8bc16" r="1.09" cx="85.52" cy="4.94"/></g><g id="change1_17"><circle fill="#d8bc16" r="1.09" cx="90.99" cy="4.94"/></g><g id="change1_18"><circle fill="#d8bc16" r="1.09" cx="96.45" cy="4.94"/></g><g id="change1_19"><circle fill="#d8bc16" r="1.09" cx="3.55" cy="9.95"/></g><g id="change1_20"><circle fill="#d8bc16" r="1.09" cx="9.01" cy="9.95"/></g><g id="change1_21"><circle fill="#d8bc16" r="1.09" cx="14.48" cy="9.95"/></g><g id="change1_22"><circle fill="#d8bc16" r="1.09" cx="19.94" cy="9.95"/></g><g id="change1_23"><circle fill="#d8bc16" r="1.09" cx="25.41" cy="9.95"/></g><g id="change1_24"><circle fill="#d8bc16" r="1.09" cx="30.87" cy="9.95"/></g><g id="change1_25"><circle fill="#d8bc16" r="1.09" cx="36.34" cy="9.95"/></g><g id="change1_26"><circle fill="#d8bc16" r="1.09" cx="41.8" cy="9.95"/></g><g id="change1_27"><circle fill="#d8bc16" r="1.09" cx="47.27" cy="9.95"/></g><g id="change1_28"><circle fill="#d8bc16" r="1.09" cx="52.73" cy="9.95"/></g><g id="change1_29"><circle fill="#d8bc16" r="1.09" cx="58.2" cy="9.95"/></g><g id="change1_30"><circle fill="#d8bc16" r="1.09" cx="63.66" cy="9.95"/></g><g id="change1_31"><circle fill="#d8bc16" r="1.09" cx="69.13" cy="9.95"/></g><g id="change1_32"><circle fill="#d8bc16" r="1.09" cx="74.59" cy="9.95"/></g><g id="change1_33"><circle fill="#d8bc16" r="1.09" cx="80.06" cy="9.95"/></g><g id="change1_34"><circle fill="#d8bc16" r="1.09" cx="85.52" cy="9.95"/></g><g id="change1_35"><circle fill="#d8bc16" r="1.09" cx="90.99" cy="9.95"/></g><g id="change1_36"><circle fill="#d8bc16" r="1.09" cx="96.45" cy="9.95"/></g><g id="change1_37"><circle fill="#d8bc16" r="1.09" cx="3.55" cy="14.96"/></g><g id="change1_38"><circle fill="#d8bc16" r="1.09" cx="9.01" cy="14.96"/></g><g id="change1_39"><circle fill="#d8bc16" r="1.09" cx="14.48" cy="14.96"/></g><g id="change1_40"><circle fill="#d8bc16" r="1.09" cx="19.94" cy="14.96"/></g><g id="change1_41"><circle fill="#d8bc16" r="1.09" cx="25.41" cy="14.96"/></g><g id="change1_42"><circle fill="#d8bc16" r="1.09" cx="30.87" cy="14.96"/></g><g id="change1_43"><circle fill="#d8bc16" r="1.09" cx="36.34" cy="14.96"/></g><g id="change1_44"><circle fill="#d8bc16" r="1.09" cx="41.8" cy="14.96"/></g><g id="change1_45"><circle fill="#d8bc16" r="1.09" cx="47.27" cy="14.96"/></g><g id="change1_46"><circle fill="#d8bc16" r="1.09" cx="52.73" cy="14.96"/></g><g id="change1_47"><circle fill="#d8bc16" r="1.09" cx="58.2" cy="14.96"/></g><g id="change1_48"><circle fill="#d8bc16" r="1.09" cx="63.66" cy="14.96"/></g><g id="change1_49"><circle fill="#d8bc16" r="1.09" cx="69.13" cy="14.96"/></g><g id="change1_50"><circle fill="#d8bc16" r="1.09" cx="74.59" cy="14.96"/></g><g id="change1_51"><circle fill="#d8bc16" r="1.09" cx="80.06" cy="14.96"/></g><g id="change1_52"><circle fill="#d8bc16" r="1.09" cx="85.52" cy="14.96"/></g><g id="change1_53"><circle fill="#d8bc16" r="1.09" cx="90.99" cy="14.96"/></g><g id="change1_54"><circle fill="#d8bc16" r="1.09" cx="96.45" cy="14.96"/></g><g id="change1_55"><circle fill="#d8bc16" r="1.09" cx="3.55" cy="19.96"/></g><g id="change1_56"><circle fill="#d8bc16" r="1.09" cx="9.01" cy="19.96"/></g><g id="change1_57"><circle fill="#d8bc16" r="1.09" cx="14.48" cy="19.96"/></g><g id="change1_58"><circle fill="#d8bc16" r="1.09" cx="19.94" cy="19.96"/></g><g id="change1_59"><circle fill="#d8bc16" r="1.09" cx="25.41" cy="19.96"/></g><g id="change1_60"><circle fill="#d8bc16" r="1.09" cx="30.87" cy="19.96"/></g><g id="change1_61"><circle fill="#d8bc16" r="1.09" cx="36.34" cy="19.96"/></g><g id="change1_62"><circle fill="#d8bc16" r="1.09" cx="41.8" cy="19.96"/></g><g id="change1_63"><circle fill="#d8bc16" r="1.09" cx="47.27" cy="19.96"/></g><g id="change1_64"><circle fill="#d8bc16" r="1.09" cx="52.73" cy="19.96"/></g><g id="change1_65"><circle fill="#d8bc16" r="1.09" cx="58.2" cy="19.96"/></g><g id="change1_66"><circle fill="#d8bc16" r="1.09" cx="63.66" cy="19.96"/></g><g id="change1_67"><circle fill="#d8bc16" r="1.09" cx="69.13" cy="19.96"/></g><g id="change1_68"><circle fill="#d8bc16" r="1.09" cx="74.59" cy="19.96"/></g><g id="change1_69"><circle fill="#d8bc16" r="1.09" cx="80.06" cy="19.96"/></g><g id="change1_70"><circle fill="#d8bc16" r="1.09" cx="85.52" cy="19.96"/></g><g id="change1_71"><circle fill="#d8bc16" r="1.09" cx="90.99" cy="19.96"/></g><g id="change1_72"><circle fill="#d8bc16" r="1.09" cx="96.45" cy="19.96"/></g><g id="change1_73"><circle fill="#d8bc16" r="1.09" cx="3.55" cy="24.97"/></g><g id="change1_74"><circle fill="#d8bc16" r="1.09" cx="9.01" cy="24.97"/></g><g id="change1_75"><circle fill="#d8bc16" r="1.09" cx="14.48" cy="24.97"/></g><g id="change1_76"><circle fill="#d8bc16" r="1.09" cx="19.94" cy="24.97"/></g><g id="change1_77"><circle fill="#d8bc16" r="1.09" cx="25.41" cy="24.97"/></g><g id="change1_78"><circle fill="#d8bc16" r="1.09" cx="30.87" cy="24.97"/></g><g id="change1_79"><circle fill="#d8bc16" r="1.09" cx="36.34" cy="24.97"/></g><g id="change1_80"><circle fill="#d8bc16" r="1.09" cx="41.8" cy="24.97"/></g><g id="change1_81"><circle fill="#d8bc16" r="1.09" cx="47.27" cy="24.97"/></g><g id="change1_82"><circle fill="#d8bc16" r="1.09" cx="52.73" cy="24.97"/></g><g id="change1_83"><circle fill="#d8bc16" r="1.09" cx="58.2" cy="24.97"/></g><g id="change1_84"><circle fill="#d8bc16" r="1.09" cx="63.66" cy="24.97"/></g><g id="change1_85"><circle fill="#d8bc16" r="1.09" cx="69.13" cy="24.97"/></g><g id="change1_86"><circle fill="#d8bc16" r="1.09" cx="74.59" cy="24.97"/></g><g id="change1_87"><circle fill="#d8bc16" r="1.09" cx="80.06" cy="24.97"/></g><g id="change1_88"><circle fill="#d8bc16" r="1.09" cx="85.52" cy="24.97"/></g><g id="change1_89"><circle fill="#d8bc16" r="1.09" cx="90.99" cy="24.97"/></g><g id="change1_90"><circle fill="#d8bc16" r="1.09" cx="96.45" cy="24.97"/></g><g id="change1_91"><circle fill="#d8bc16" r="1.09" cx="3.55" cy="29.97"/></g><g id="change1_92"><circle fill="#d8bc16" r="1.09" cx="9.01" cy="29.97"/></g><g id="change1_93"><circle fill="#d8bc16" r="1.09" cx="14.48" cy="29.97"/></g><g id="change1_94"><circle fill="#d8bc16" r="1.09" cx="19.94" cy="29.97"/></g><g id="change1_95"><circle fill="#d8bc16" r="1.09" cx="25.41" cy="29.97"/></g><g id="change1_96"><circle fill="#d8bc16" r="1.09" cx="30.87" cy="29.97"/></g><g id="change1_97"><circle fill="#d8bc16" r="1.09" cx="36.34" cy="29.97"/></g><g id="change1_98"><circle fill="#d8bc16" r="1.09" cx="41.8" cy="29.97"/></g><g id="change1_99"><circle fill="#d8bc16" r="1.09" cx="47.27" cy="29.97"/></g><g id="change1_100"><circle fill="#d8bc16" r="1.09" cx="52.73" cy="29.97"/></g><g id="change1_101"><circle fill="#d8bc16" r="1.09" cx="58.2" cy="29.97"/></g><g id="change1_102"><circle fill="#d8bc16" r="1.09" cx="63.66" cy="29.97"/></g><g id="change1_103"><circle fill="#d8bc16" r="1.09" cx="69.13" cy="29.97"/></g><g id="change1_104"><circle fill="#d8bc16" r="1.09" cx="74.59" cy="29.97"/></g><g id="change1_105"><circle fill="#d8bc16" r="1.09" cx="80.06" cy="29.97"/></g><g id="change1_106"><circle fill="#d8bc16" r="1.09" cx="85.52" cy="29.97"/></g><g id="change1_107"><circle fill="#d8bc16" r="1.09" cx="90.99" cy="29.97"/></g><g id="change1_108"><circle fill="#d8bc16" r="1.09" cx="96.45" cy="29.97"/></g><g id="change1_109"><circle fill="#d8bc16" r="1.09" cx="3.55" cy="34.98"/></g><g id="change1_110"><circle fill="#d8bc16" r="1.09" cx="9.01" cy="34.98"/></g><g id="change1_111"><circle fill="#d8bc16" r="1.09" cx="14.48" cy="34.98"/></g><g id="change1_112"><circle fill="#d8bc16" r="1.09" cx="19.94" cy="34.98"/></g><g id="change1_113"><circle fill="#d8bc16" r="1.09" cx="25.41" cy="34.98"/></g><g id="change1_114"><circle fill="#d8bc16" r="1.09" cx="30.87" cy="34.98"/></g><g id="change1_115"><circle fill="#d8bc16" r="1.09" cx="36.34" cy="34.98"/></g><g id="change1_116"><circle fill="#d8bc16" r="1.09" cx="41.8" cy="34.98"/></g><g id="change1_117"><circle fill="#d8bc16" r="1.09" cx="47.27" cy="34.98"/></g><g id="change1_118"><circle fill="#d8bc16" r="1.09" cx="52.73" cy="34.98"/></g><g id="change1_119"><circle fill="#d8bc16" r="1.09" cx="58.2" cy="34.98"/></g><g id="change1_120"><circle fill="#d8bc16" r="1.09" cx="63.66" cy="34.98"/></g><g id="change1_121"><circle fill="#d8bc16" r="1.09" cx="69.13" cy="34.98"/></g><g id="change1_122"><circle fill="#d8bc16" r="1.09" cx="74.59" cy="34.98"/></g><g id="change1_123"><circle fill="#d8bc16" r="1.09" cx="80.06" cy="34.98"/></g><g id="change1_124"><circle fill="#d8bc16" r="1.09" cx="85.52" cy="34.98"/></g><g id="change1_125"><circle fill="#d8bc16" r="1.09" cx="90.99" cy="34.98"/></g><g id="change1_126"><circle fill="#d8bc16" r="1.09" cx="96.45" cy="34.98"/></g><g id="change1_127"><circle fill="#d8bc16" r="1.09" cx="3.55" cy="39.99"/></g><g id="change1_128"><circle fill="#d8bc16" r="1.09" cx="9.01" cy="39.99"/></g><g id="change1_129"><circle fill="#d8bc16" r="1.09" cx="14.48" cy="39.99"/></g><g id="change1_130"><circle fill="#d8bc16" r="1.09" cx="19.94" cy="39.99"/></g><g id="change1_131"><circle fill="#d8bc16" r="1.09" cx="25.41" cy="39.99"/></g><g id="change1_132"><circle fill="#d8bc16" r="1.09" cx="30.87" cy="39.99"/></g><g id="change1_133"><circle fill="#d8bc16" r="1.09" cx="36.34" cy="39.99"/></g><g id="change1_134"><circle fill="#d8bc16" r="1.09" cx="41.8" cy="39.99"/></g><g id="change1_135"><circle fill="#d8bc16" r="1.09" cx="47.27" cy="39.99"/></g><g id="change1_136"><circle fill="#d8bc16" r="1.09" cx="52.73" cy="39.99"/></g><g id="change1_137"><circle fill="#d8bc16" r="1.09" cx="58.2" cy="39.99"/></g><g id="change1_138"><circle fill="#d8bc16" r="1.09" cx="63.66" cy="39.99"/></g><g id="change1_139"><circle fill="#d8bc16" r="1.09" cx="69.13" cy="39.99"/></g><g id="change1_140"><circle fill="#d8bc16" r="1.09" cx="74.59" cy="39.99"/></g><g id="change1_141"><circle fill="#d8bc16" r="1.09" cx="80.06" cy="39.99"/></g><g id="change1_142"><circle fill="#d8bc16" r="1.09" cx="85.52" cy="39.99"/></g><g id="change1_143"><circle fill="#d8bc16" r="1.09" cx="90.99" cy="39.99"/></g><g id="change1_144"><circle fill="#d8bc16" r="1.09" cx="96.45" cy="39.99"/></g><g id="change1_145"><circle fill="#d8bc16" r="1.09" cx="3.55" cy="44.99"/></g><g id="change1_146"><circle fill="#d8bc16" r="1.09" cx="9.01" cy="44.99"/></g><g id="change1_147"><circle fill="#d8bc16" r="1.09" cx="14.48" cy="44.99"/></g><g id="change1_148"><circle fill="#d8bc16" r="1.09" cx="19.94" cy="44.99"/></g><g id="change1_149"><circle fill="#d8bc16" r="1.09" cx="25.41" cy="44.99"/></g><g id="change1_150"><circle fill="#d8bc16" r="1.09" cx="30.87" cy="44.99"/></g><g id="change1_151"><circle fill="#d8bc16" r="1.09" cx="36.34" cy="44.99"/></g><g id="change1_152"><circle fill="#d8bc16" r="1.09" cx="41.8" cy="44.99"/></g><g id="change1_153"><circle fill="#d8bc16" r="1.09" cx="47.27" cy="44.99"/></g><g id="change1_154"><circle fill="#d8bc16" r="1.09" cx="52.73" cy="44.99"/></g><g id="change1_155"><circle fill="#d8bc16" r="1.09" cx="58.2" cy="44.99"/></g><g id="change1_156"><circle fill="#d8bc16" r="1.09" cx="63.66" cy="44.99"/></g><g id="change1_157"><circle fill="#d8bc16" r="1.09" cx="69.13" cy="44.99"/></g><g id="change1_158"><circle fill="#d8bc16" r="1.09" cx="74.59" cy="44.99"/></g><g id="change1_159"><circle fill="#d8bc16" r="1.09" cx="80.06" cy="44.99"/></g><g id="change1_160"><circle fill="#d8bc16" r="1.09" cx="85.52" cy="44.99"/></g><g id="change1_161"><circle fill="#d8bc16" r="1.09" cx="90.99" cy="44.99"/></g><g id="change1_162"><circle fill="#d8bc16" r="1.09" cx="96.45" cy="44.99"/></g><g id="change1_163"><circle fill="#d8bc16" r="1.09" cx="3.55" cy="50"/></g><g id="change1_164"><circle fill="#d8bc16" r="1.09" cx="9.01" cy="50"/></g><g id="change1_165"><circle fill="#d8bc16" r="1.09" cx="14.48" cy="50"/></g><g id="change1_166"><circle fill="#d8bc16" r="1.09" cx="19.94" cy="50"/></g><g id="change1_167"><circle fill="#d8bc16" r="1.09" cx="25.41" cy="50"/></g><g id="change1_168"><circle fill="#d8bc16" r="1.09" cx="30.87" cy="50"/></g><g id="change1_169"><circle fill="#d8bc16" r="1.09" cx="36.34" cy="50"/></g><g id="change1_170"><circle fill="#d8bc16" r="1.09" cx="41.8" cy="50"/></g><g id="change1_171"><circle fill="#d8bc16" r="1.09" cx="47.27" cy="50"/></g><g id="change1_172"><circle fill="#d8bc16" r="1.09" cx="52.73" cy="50"/></g><g id="change1_173"><circle fill="#d8bc16" r="1.09" cx="58.2" cy="50"/></g><g id="change1_174"><circle fill="#d8bc16" r="1.09" cx="63.66" cy="50"/></g><g id="change1_175"><circle fill="#d8bc16" r="1.09" cx="69.13" cy="50"/></g><g id="change1_176"><circle fill="#d8bc16" r="1.09" cx="74.59" cy="50"/></g><g id="change1_177"><circle fill="#d8bc16" r="1.09" cx="80.06" cy="50"/></g><g id="change1_178"><circle fill="#d8bc16" r="1.09" cx="85.52" cy="50"/></g><g id="change1_179"><circle fill="#d8bc16" r="1.09" cx="90.99" cy="50"/></g><g id="change1_180"><circle fill="#d8bc16" r="1.09" cx="96.45" cy="50"/></g><g id="change1_181"><circle fill="#d8bc16" r="1.09" cx="3.55" cy="55.01"/></g><g id="change1_182"><circle fill="#d8bc16" r="1.09" cx="9.01" cy="55.01"/></g><g id="change1_183"><circle fill="#d8bc16" r="1.09" cx="14.48" cy="55.01"/></g><g id="change1_184"><circle fill="#d8bc16" r="1.09" cx="19.94" cy="55.01"/></g><g id="change1_185"><circle fill="#d8bc16" r="1.09" cx="25.41" cy="55.01"/></g><g id="change1_186"><circle fill="#d8bc16" r="1.09" cx="30.87" cy="55.01"/></g><g id="change1_187"><circle fill="#d8bc16" r="1.09" cx="36.34" cy="55.01"/></g><g id="change1_188"><circle fill="#d8bc16" r="1.09" cx="41.8" cy="55.01"/></g><g id="change1_189"><circle fill="#d8bc16" r="1.09" cx="47.27" cy="55.01"/></g><g id="change1_190"><circle fill="#d8bc16" r="1.09" cx="52.73" cy="55.01"/></g><g id="change1_191"><circle fill="#d8bc16" r="1.09" cx="58.2" cy="55.01"/></g><g id="change1_192"><circle fill="#d8bc16" r="1.09" cx="63.66" cy="55.01"/></g><g id="change1_193"><circle fill="#d8bc16" r="1.09" cx="69.13" cy="55.01"/></g><g id="change1_194"><circle fill="#d8bc16" r="1.09" cx="74.59" cy="55.01"/></g><g id="change1_195"><circle fill="#d8bc16" r="1.09" cx="80.06" cy="55.01"/></g><g id="change1_196"><circle fill="#d8bc16" r="1.09" cx="85.52" cy="55.01"/></g><g id="change1_197"><circle fill="#d8bc16" r="1.09" cx="90.99" cy="55.01"/></g><g id="change1_198"><circle fill="#d8bc16" r="1.09" cx="96.45" cy="55.01"/></g><g id="change1_199"><circle fill="#d8bc16" r="1.09" cx="3.55" cy="60.01"/></g><g id="change1_200"><circle fill="#d8bc16" r="1.09" cx="9.01" cy="60.01"/></g><g id="change1_201"><circle fill="#d8bc16" r="1.09" cx="14.48" cy="60.01"/></g><g id="change1_202"><circle fill="#d8bc16" r="1.09" cx="19.94" cy="60.01"/></g><g id="change1_203"><circle fill="#d8bc16" r="1.09" cx="25.41" cy="60.01"/></g><g id="change1_204"><circle fill="#d8bc16" r="1.09" cx="30.87" cy="60.01"/></g><g id="change1_205"><circle fill="#d8bc16" r="1.09" cx="36.34" cy="60.01"/></g><g id="change1_206"><circle fill="#d8bc16" r="1.09" cx="41.8" cy="60.01"/></g><g id="change1_207"><circle fill="#d8bc16" r="1.09" cx="47.27" cy="60.01"/></g><g id="change1_208"><circle fill="#d8bc16" r="1.09" cx="52.73" cy="60.01"/></g><g id="change1_209"><circle fill="#d8bc16" r="1.09" cx="58.2" cy="60.01"/></g><g id="change1_210"><circle fill="#d8bc16" r="1.09" cx="63.66" cy="60.01"/></g><g id="change1_211"><circle fill="#d8bc16" r="1.09" cx="69.13" cy="60.01"/></g><g id="change1_212"><circle fill="#d8bc16" r="1.09" cx="74.59" cy="60.01"/></g><g id="change1_213"><circle fill="#d8bc16" r="1.09" cx="80.06" cy="60.01"/></g><g id="change1_214"><circle fill="#d8bc16" r="1.09" cx="85.52" cy="60.01"/></g><g id="change1_215"><circle fill="#d8bc16" r="1.09" cx="90.99" cy="60.01"/></g><g id="change1_216"><circle fill="#d8bc16" r="1.09" cx="96.45" cy="60.01"/></g><g id="change1_217"><circle fill="#d8bc16" r="1.09" cx="3.55" cy="65.02"/></g><g id="change1_218"><circle fill="#d8bc16" r="1.09" cx="9.01" cy="65.02"/></g><g id="change1_219"><circle fill="#d8bc16" r="1.09" cx="14.48" cy="65.02"/></g><g id="change1_220"><circle fill="#d8bc16" r="1.09" cx="19.94" cy="65.02"/></g><g id="change1_221"><circle fill="#d8bc16" r="1.09" cx="25.41" cy="65.02"/></g><g id="change1_222"><circle fill="#d8bc16" r="1.09" cx="30.87" cy="65.02"/></g><g id="change1_223"><circle fill="#d8bc16" r="1.09" cx="36.34" cy="65.02"/></g><g id="change1_224"><circle fill="#d8bc16" r="1.09" cx="41.8" cy="65.02"/></g><g id="change1_225"><circle fill="#d8bc16" r="1.09" cx="47.27" cy="65.02"/></g><g id="change1_226"><circle fill="#d8bc16" r="1.09" cx="52.73" cy="65.02"/></g><g id="change1_227"><circle fill="#d8bc16" r="1.09" cx="58.2" cy="65.02"/></g><g id="change1_228"><circle fill="#d8bc16" r="1.09" cx="63.66" cy="65.02"/></g><g id="change1_229"><circle fill="#d8bc16" r="1.09" cx="69.13" cy="65.02"/></g><g id="change1_230"><circle fill="#d8bc16" r="1.09" cx="74.59" cy="65.02"/></g><g id="change1_231"><circle fill="#d8bc16" r="1.09" cx="80.06" cy="65.02"/></g><g id="change1_232"><circle fill="#d8bc16" r="1.09" cx="85.52" cy="65.02"/></g><g id="change1_233"><circle fill="#d8bc16" r="1.09" cx="90.99" cy="65.02"/></g><g id="change1_234"><circle fill="#d8bc16" r="1.09" cx="96.45" cy="65.02"/></g><g id="change1_235"><circle fill="#d8bc16" r="1.09" cx="3.55" cy="70.03"/></g><g id="change1_236"><circle fill="#d8bc16" r="1.09" cx="9.01" cy="70.03"/></g><g id="change1_237"><circle fill="#d8bc16" r="1.09" cx="14.48" cy="70.03"/></g><g id="change1_238"><circle fill="#d8bc16" r="1.09" cx="19.94" cy="70.03"/></g><g id="change1_239"><circle fill="#d8bc16" r="1.09" cx="25.41" cy="70.03"/></g><g id="change1_240"><circle fill="#d8bc16" r="1.09" cx="30.87" cy="70.03"/></g><g id="change1_241"><circle fill="#d8bc16" r="1.09" cx="36.34" cy="70.03"/></g><g id="change1_242"><circle fill="#d8bc16" r="1.09" cx="41.8" cy="70.03"/></g><g id="change1_243"><circle fill="#d8bc16" r="1.09" cx="47.27" cy="70.03"/></g><g id="change1_244"><circle fill="#d8bc16" r="1.09" cx="52.73" cy="70.03"/></g><g id="change1_245"><circle fill="#d8bc16" r="1.09" cx="58.2" cy="70.03"/></g><g id="change1_246"><circle fill="#d8bc16" r="1.09" cx="63.66" cy="70.03"/></g><g id="change1_247"><circle fill="#d8bc16" r="1.09" cx="69.13" cy="70.03"/></g><g id="change1_248"><circle fill="#d8bc16" r="1.09" cx="74.59" cy="70.03"/></g><g id="change1_249"><circle fill="#d8bc16" r="1.09" cx="80.06" cy="70.03"/></g><g id="change1_250"><circle fill="#d8bc16" r="1.09" cx="85.52" cy="70.03"/></g><g id="change1_251"><circle fill="#d8bc16" r="1.09" cx="90.99" cy="70.03"/></g><g id="change1_252"><circle fill="#d8bc16" r="1.09" cx="96.45" cy="70.03"/></g><g id="change1_253"><circle fill="#d8bc16" r="1.09" cx="3.55" cy="75.03"/></g><g id="change1_254"><circle fill="#d8bc16" r="1.09" cx="9.01" cy="75.03"/></g><g id="change1_255"><circle fill="#d8bc16" r="1.09" cx="14.48" cy="75.03"/></g><g id="change1_256"><circle fill="#d8bc16" r="1.09" cx="19.94" cy="75.03"/></g><g id="change1_257"><circle fill="#d8bc16" r="1.09" cx="25.41" cy="75.03"/></g><g id="change1_258"><circle fill="#d8bc16" r="1.09" cx="30.87" cy="75.03"/></g><g id="change1_259"><circle fill="#d8bc16" r="1.09" cx="36.34" cy="75.03"/></g><g id="change1_260"><circle fill="#d8bc16" r="1.09" cx="41.8" cy="75.03"/></g><g id="change1_261"><circle fill="#d8bc16" r="1.09" cx="47.27" cy="75.03"/></g><g id="change1_262"><circle fill="#d8bc16" r="1.09" cx="52.73" cy="75.03"/></g><g id="change1_263"><circle fill="#d8bc16" r="1.09" cx="58.2" cy="75.03"/></g><g id="change1_264"><circle fill="#d8bc16" r="1.09" cx="63.66" cy="75.03"/></g><g id="change1_265"><circle fill="#d8bc16" r="1.09" cx="69.13" cy="75.03"/></g><g id="change1_266"><circle fill="#d8bc16" r="1.09" cx="74.59" cy="75.03"/></g><g id="change1_267"><circle fill="#d8bc16" r="1.09" cx="80.06" cy="75.03"/></g><g id="change1_268"><circle fill="#d8bc16" r="1.09" cx="85.52" cy="75.03"/></g><g id="change1_269"><circle fill="#d8bc16" r="1.09" cx="90.99" cy="75.03"/></g><g id="change1_270"><circle fill="#d8bc16" r="1.09" cx="96.45" cy="75.03"/></g><g id="change1_271"><circle fill="#d8bc16" r="1.09" cx="3.55" cy="80.04"/></g><g id="change1_272"><circle fill="#d8bc16" r="1.09" cx="9.01" cy="80.04"/></g><g id="change1_273"><circle fill="#d8bc16" r="1.09" cx="14.48" cy="80.04"/></g><g id="change1_274"><circle fill="#d8bc16" r="1.09" cx="19.94" cy="80.04"/></g><g id="change1_275"><circle fill="#d8bc16" r="1.09" cx="25.41" cy="80.04"/></g><g id="change1_276"><circle fill="#d8bc16" r="1.09" cx="30.87" cy="80.04"/></g><g id="change1_277"><circle fill="#d8bc16" r="1.09" cx="36.34" cy="80.04"/></g><g id="change1_278"><circle fill="#d8bc16" r="1.09" cx="41.8" cy="80.04"/></g><g id="change1_279"><circle fill="#d8bc16" r="1.09" cx="47.27" cy="80.04"/></g><g id="change1_280"><circle fill="#d8bc16" r="1.09" cx="52.73" cy="80.04"/></g><g id="change1_281"><circle fill="#d8bc16" r="1.09" cx="58.2" cy="80.04"/></g><g id="change1_282"><circle fill="#d8bc16" r="1.09" cx="63.66" cy="80.04"/></g><g id="change1_283"><circle fill="#d8bc16" r="1.09" cx="69.13" cy="80.04"/></g><g id="change1_284"><circle fill="#d8bc16" r="1.09" cx="74.59" cy="80.04"/></g><g id="change1_285"><circle fill="#d8bc16" r="1.09" cx="80.06" cy="80.04"/></g><g id="change1_286"><circle fill="#d8bc16" r="1.09" cx="85.52" cy="80.04"/></g><g id="change1_287"><circle fill="#d8bc16" r="1.09" cx="90.99" cy="80.04"/></g><g id="change1_288"><circle fill="#d8bc16" r="1.09" cx="96.45" cy="80.04"/></g><g id="change1_289"><circle fill="#d8bc16" r="1.09" cx="3.55" cy="85.04"/></g><g id="change1_290"><circle fill="#d8bc16" r="1.09" cx="9.01" cy="85.04"/></g><g id="change1_291"><circle fill="#d8bc16" r="1.09" cx="14.48" cy="85.04"/></g><g id="change1_292"><circle fill="#d8bc16" r="1.09" cx="19.94" cy="85.04"/></g><g id="change1_293"><circle fill="#d8bc16" r="1.09" cx="25.41" cy="85.04"/></g><g id="change1_294"><circle fill="#d8bc16" r="1.09" cx="30.87" cy="85.04"/></g><g id="change1_295"><circle fill="#d8bc16" r="1.09" cx="36.34" cy="85.04"/></g><g id="change1_296"><circle fill="#d8bc16" r="1.09" cx="41.8" cy="85.04"/></g><g id="change1_297"><circle fill="#d8bc16" r="1.09" cx="47.27" cy="85.04"/></g><g id="change1_298"><circle fill="#d8bc16" r="1.09" cx="52.73" cy="85.04"/></g><g id="change1_299"><circle fill="#d8bc16" r="1.09" cx="58.2" cy="85.04"/></g><g id="change1_300"><circle fill="#d8bc16" r="1.09" cx="63.66" cy="85.04"/></g><g id="change1_301"><circle fill="#d8bc16" r="1.09" cx="69.13" cy="85.04"/></g><g id="change1_302"><circle fill="#d8bc16" r="1.09" cx="74.59" cy="85.04"/></g><g id="change1_303"><circle fill="#d8bc16" r="1.09" cx="80.06" cy="85.04"/></g><g id="change1_304"><circle fill="#d8bc16" r="1.09" cx="85.52" cy="85.04"/></g><g id="change1_305"><circle fill="#d8bc16" r="1.09" cx="90.99" cy="85.04"/></g><g id="change1_306"><circle fill="#d8bc16" r="1.09" cx="96.45" cy="85.04"/></g><g id="change1_307"><circle fill="#d8bc16" r="1.09" cx="3.55" cy="90.05"/></g><g id="change1_308"><circle fill="#d8bc16" r="1.09" cx="9.01" cy="90.05"/></g><g id="change1_309"><circle fill="#d8bc16" r="1.09" cx="14.48" cy="90.05"/></g><g id="change1_310"><circle fill="#d8bc16" r="1.09" cx="19.94" cy="90.05"/></g><g id="change1_311"><circle fill="#d8bc16" r="1.09" cx="25.41" cy="90.05"/></g><g id="change1_312"><circle fill="#d8bc16" r="1.09" cx="30.87" cy="90.05"/></g><g id="change1_313"><circle fill="#d8bc16" r="1.09" cx="36.34" cy="90.05"/></g><g id="change1_314"><circle fill="#d8bc16" r="1.09" cx="41.8" cy="90.05"/></g><g id="change1_315"><circle fill="#d8bc16" r="1.09" cx="47.27" cy="90.05"/></g><g id="change1_316"><circle fill="#d8bc16" r="1.09" cx="52.73" cy="90.05"/></g><g id="change1_317"><circle fill="#d8bc16" r="1.09" cx="58.2" cy="90.05"/></g><g id="change1_318"><circle fill="#d8bc16" r="1.09" cx="63.66" cy="90.05"/></g><g id="change1_319"><circle fill="#d8bc16" r="1.09" cx="69.13" cy="90.05"/></g><g id="change1_320"><circle fill="#d8bc16" r="1.09" cx="74.59" cy="90.05"/></g><g id="change1_321"><circle fill="#d8bc16" r="1.09" cx="80.06" cy="90.05"/></g><g id="change1_322"><circle fill="#d8bc16" r="1.09" cx="85.52" cy="90.05"/></g><g id="change1_323"><circle fill="#d8bc16" r="1.09" cx="90.99" cy="90.05"/></g><g id="change1_324"><circle fill="#d8bc16" r="1.09" cx="96.45" cy="90.05"/></g><g id="change1_325"><circle fill="#d8bc16" r="1.09" cx="3.55" cy="95.06"/></g><g id="change1_326"><circle fill="#d8bc16" r="1.09" cx="9.01" cy="95.06"/></g><g id="change1_327"><circle fill="#d8bc16" r="1.09" cx="14.48" cy="95.06"/></g><g id="change1_328"><circle fill="#d8bc16" r="1.09" cx="19.94" cy="95.06"/></g><g id="change1_329"><circle fill="#d8bc16" r="1.09" cx="25.41" cy="95.06"/></g><g id="change1_330"><circle fill="#d8bc16" r="1.09" cx="30.87" cy="95.06"/></g><g id="change1_331"><circle fill="#d8bc16" r="1.09" cx="36.34" cy="95.06"/></g><g id="change1_332"><circle fill="#d8bc16" r="1.09" cx="41.8" cy="95.06"/></g><g id="change1_333"><circle fill="#d8bc16" r="1.09" cx="47.27" cy="95.06"/></g><g id="change1_334"><circle fill="#d8bc16" r="1.09" cx="52.73" cy="95.06"/></g><g id="change1_335"><circle fill="#d8bc16" r="1.09" cx="58.2" cy="95.06"/></g><g id="change1_336"><circle fill="#d8bc16" r="1.09" cx="63.66" cy="95.06"/></g><g id="change1_337"><circle fill="#d8bc16" r="1.09" cx="69.13" cy="95.06"/></g><g id="change1_338"><circle fill="#d8bc16" r="1.09" cx="74.59" cy="95.06"/></g><g id="change1_339"><circle fill="#d8bc16" r="1.09" cx="80.06" cy="95.06"/></g><g id="change1_340"><circle fill="#d8bc16" r="1.09" cx="85.52" cy="95.06"/></g><g id="change1_341"><circle fill="#d8bc16" r="1.09" cx="90.99" cy="95.06"/></g><g id="change1_342"><circle fill="#d8bc16" r="1.09" cx="96.45" cy="95.06"/></g></svg>