<?xml version="1.0" encoding="UTF-8"?><svg xmlns="http://www.w3.org/2000/svg" xmlns:xlink="http://www.w3.org/1999/xlink" contentScriptType="text/ecmascript" fill="#000000" width="463.6" zoomAndPan="magnify" contentStyleType="text/css" viewBox="19.5 19.6 463.6 460.9" height="460.9" preserveAspectRatio="xMidYMid meet" version="1"><g><g><g><linearGradient x1="23.584" xmlns:xlink="http://www.w3.org/1999/xlink" y1="50.011" x2="76.412" gradientUnits="userSpaceOnUse" y2="50.011" xlink:type="simple" xlink:actuate="onLoad" id="a" xlink:show="other"><stop stop-color="#f2da1c" offset="0.099"/><stop stop-color="#f6db19" offset="0.53"/><stop stop-color="#f6db19" offset="1"/></linearGradient><path fill="url(#a)" d="M71.46,46.48c-8.33,8.33-16.67,16.67-25,25c2.36,0,4.71,0,7.07,0c-8.33-8.33-16.67-16.67-25-25 c0,2.36,0,4.71,0,7.07c8.33-8.33,16.67-16.67,25-25c-2.36,0-4.71,0-7.07,0c8.33,8.33,16.67,16.67,25,25 c4.56,4.56,11.63-2.51,7.07-7.07c-8.33-8.33-16.67-16.67-25-25c-1.91-1.91-5.16-1.91-7.07,0c-8.33,8.33-16.67,16.67-25,25 c-1.91,1.91-1.91,5.16,0,7.07c8.33,8.33,16.67,16.67,25,25c1.91,1.91,5.16,1.91,7.07,0c8.33-8.33,16.67-16.67,25-25 C83.09,48.99,76.02,41.92,71.46,46.48z"/></g></g><g><g><linearGradient x1="23.584" xmlns:xlink="http://www.w3.org/1999/xlink" y1="249.975" x2="76.412" gradientUnits="userSpaceOnUse" y2="249.975" xlink:type="simple" xlink:actuate="onLoad" id="b" xlink:show="other"><stop stop-color="#f2da1c" offset="0.099"/><stop stop-color="#f6db19" offset="0.53"/><stop stop-color="#f6db19" offset="1"/></linearGradient><path fill="url(#b)" d="M71.46,246.44c-8.33,8.33-16.67,16.67-25,25c2.36,0,4.71,0,7.07,0c-8.33-8.33-16.67-16.67-25-25 c0,2.36,0,4.71,0,7.07c8.33-8.33,16.67-16.67,25-25c-2.36,0-4.71,0-7.07,0c8.33,8.33,16.67,16.67,25,25 c4.56,4.56,11.63-2.51,7.07-7.07c-8.33-8.33-16.67-16.67-25-25c-1.91-1.91-5.16-1.91-7.07,0c-8.33,8.33-16.67,16.67-25,25 c-1.91,1.91-1.91,5.16,0,7.07c8.33,8.33,16.67,16.67,25,25c1.91,1.91,5.16,1.91,7.07,0c8.33-8.33,16.67-16.67,25-25 C83.09,248.95,76.02,241.88,71.46,246.44z"/></g></g><g><g><linearGradient x1="23.584" xmlns:xlink="http://www.w3.org/1999/xlink" y1="449.974" x2="76.412" gradientUnits="userSpaceOnUse" y2="449.974" xlink:type="simple" xlink:actuate="onLoad" id="c" xlink:show="other"><stop stop-color="#f2da1c" offset="0.099"/><stop stop-color="#f6db19" offset="0.53"/><stop stop-color="#f6db19" offset="1"/></linearGradient><path fill="url(#c)" d="M71.46,446.44c-8.33,8.33-16.67,16.67-25,25c2.36,0,4.71,0,7.07,0c-8.33-8.33-16.67-16.67-25-25 c0,2.36,0,4.71,0,7.07c8.33-8.33,16.67-16.67,25-25c-2.36,0-4.71,0-7.07,0c8.33,8.33,16.67,16.67,25,25 c4.56,4.56,11.63-2.51,7.07-7.07c-8.33-8.33-16.67-16.67-25-25c-1.91-1.91-5.16-1.91-7.07,0c-8.33,8.33-16.67,16.67-25,25 c-1.91,1.91-1.91,5.16,0,7.07c8.33,8.33,16.67,16.67,25,25c1.91,1.91,5.16,1.91,7.07,0c8.33-8.33,16.67-16.67,25-25 C83.09,448.95,76.02,441.88,71.46,446.44z"/></g></g><g><g><linearGradient x1="123.588" xmlns:xlink="http://www.w3.org/1999/xlink" y1="149.96" x2="176.416" gradientUnits="userSpaceOnUse" y2="149.96" xlink:type="simple" xlink:actuate="onLoad" id="d" xlink:show="other"><stop stop-color="#f2da1c" offset="0.099"/><stop stop-color="#f6db19" offset="0.53"/><stop stop-color="#f6db19" offset="1"/></linearGradient><path fill="url(#d)" d="M171.47,146.42c-8.33,8.33-16.67,16.67-25,25c2.36,0,4.71,0,7.07,0c-8.33-8.33-16.67-16.67-25-25 c0,2.36,0,4.71,0,7.07c8.33-8.33,16.67-16.67,25-25c-2.36,0-4.71,0-7.07,0c8.33,8.33,16.67,16.67,25,25 c4.56,4.56,11.63-2.51,7.07-7.07c-8.33-8.33-16.67-16.67-25-25c-1.91-1.91-5.16-1.91-7.07,0c-8.33,8.33-16.67,16.67-25,25 c-1.91,1.91-1.91,5.16,0,7.07c8.33,8.33,16.67,16.67,25,25c1.91,1.91,5.16,1.91,7.07,0c8.33-8.33,16.67-16.67,25-25 C183.09,148.94,176.02,141.87,171.47,146.42z"/></g></g><g><g><linearGradient x1="123.588" xmlns:xlink="http://www.w3.org/1999/xlink" y1="349.937" x2="176.416" gradientUnits="userSpaceOnUse" y2="349.937" xlink:type="simple" xlink:actuate="onLoad" id="e" xlink:show="other"><stop stop-color="#f2da1c" offset="0.099"/><stop stop-color="#f6db19" offset="0.53"/><stop stop-color="#f6db19" offset="1"/></linearGradient><path fill="url(#e)" d="M171.47,346.4c-8.33,8.33-16.67,16.67-25,25c2.36,0,4.71,0,7.07,0c-8.33-8.33-16.67-16.67-25-25 c0,2.36,0,4.71,0,7.07c8.33-8.33,16.67-16.67,25-25c-2.36,0-4.71,0-7.07,0c8.33,8.33,16.67,16.67,25,25 c4.56,4.56,11.63-2.51,7.07-7.07c-8.33-8.33-16.67-16.67-25-25c-1.91-1.91-5.16-1.91-7.07,0c-8.33,8.33-16.67,16.67-25,25 c-1.91,1.91-1.91,5.16,0,7.07c8.33,8.33,16.67,16.67,25,25c1.91,1.91,5.16,1.91,7.07,0c8.33-8.33,16.67-16.67,25-25 C183.09,348.92,176.02,341.84,171.47,346.4z"/></g></g><g><g><linearGradient x1="223.577" xmlns:xlink="http://www.w3.org/1999/xlink" y1="50.011" x2="276.405" gradientUnits="userSpaceOnUse" y2="50.011" xlink:type="simple" xlink:actuate="onLoad" id="f" xlink:show="other"><stop stop-color="#f2da1c" offset="0.099"/><stop stop-color="#f6db19" offset="0.53"/><stop stop-color="#f6db19" offset="1"/></linearGradient><path fill="url(#f)" d="M271.46,46.48c-8.33,8.33-16.67,16.67-25,25c2.36,0,4.71,0,7.07,0c-8.33-8.33-16.67-16.67-25-25 c0,2.36,0,4.71,0,7.07c8.33-8.33,16.67-16.67,25-25c-2.36,0-4.71,0-7.07,0c8.33,8.33,16.67,16.67,25,25 c4.56,4.56,11.63-2.51,7.07-7.07c-8.33-8.33-16.67-16.67-25-25c-1.91-1.91-5.16-1.91-7.07,0c-8.33,8.33-16.67,16.67-25,25 c-1.91,1.91-1.91,5.16,0,7.07c8.33,8.33,16.67,16.67,25,25c1.91,1.91,5.16,1.91,7.07,0c8.33-8.33,16.67-16.67,25-25 C283.08,48.99,276.01,41.92,271.46,46.48z"/></g></g><g><g><linearGradient x1="223.577" xmlns:xlink="http://www.w3.org/1999/xlink" y1="249.989" x2="276.405" gradientUnits="userSpaceOnUse" y2="249.989" xlink:type="simple" xlink:actuate="onLoad" id="g" xlink:show="other"><stop stop-color="#f2da1c" offset="0.099"/><stop stop-color="#f6db19" offset="0.53"/><stop stop-color="#f6db19" offset="1"/></linearGradient><path fill="url(#g)" d="M271.46,246.45c-8.33,8.33-16.67,16.67-25,25c2.36,0,4.71,0,7.07,0c-8.33-8.33-16.67-16.67-25-25 c0,2.36,0,4.71,0,7.07c8.33-8.33,16.67-16.67,25-25c-2.36,0-4.71,0-7.07,0c8.33,8.33,16.67,16.67,25,25 c4.56,4.56,11.63-2.51,7.07-7.07c-8.33-8.33-16.67-16.67-25-25c-1.91-1.91-5.16-1.91-7.07,0c-8.33,8.33-16.67,16.67-25,25 c-1.91,1.91-1.91,5.16,0,7.07c8.33,8.33,16.67,16.67,25,25c1.91,1.91,5.16,1.91,7.07,0c8.33-8.33,16.67-16.67,25-25 C283.08,248.97,276.01,241.9,271.46,246.45z"/></g></g><g><g><linearGradient x1="223.577" xmlns:xlink="http://www.w3.org/1999/xlink" y1="449.989" x2="276.405" gradientUnits="userSpaceOnUse" y2="449.989" xlink:type="simple" xlink:actuate="onLoad" id="h" xlink:show="other"><stop stop-color="#f2da1c" offset="0.099"/><stop stop-color="#f6db19" offset="0.53"/><stop stop-color="#f6db19" offset="1"/></linearGradient><path fill="url(#h)" d="M271.46,446.45c-8.33,8.33-16.67,16.67-25,25c2.36,0,4.71,0,7.07,0c-8.33-8.33-16.67-16.67-25-25 c0,2.36,0,4.71,0,7.07c8.33-8.33,16.67-16.67,25-25c-2.36,0-4.71,0-7.07,0c8.33,8.33,16.67,16.67,25,25 c4.56,4.56,11.63-2.51,7.07-7.07c-8.33-8.33-16.67-16.67-25-25c-1.91-1.91-5.16-1.91-7.07,0c-8.33,8.33-16.67,16.67-25,25 c-1.91,1.91-1.91,5.16,0,7.07c8.33,8.33,16.67,16.67,25,25c1.91,1.91,5.16,1.91,7.07,0c8.33-8.33,16.67-16.67,25-25 C283.08,448.97,276.01,441.9,271.46,446.45z"/></g></g><g><g><linearGradient x1="323.58" xmlns:xlink="http://www.w3.org/1999/xlink" y1="149.975" x2="376.409" gradientUnits="userSpaceOnUse" y2="149.975" xlink:type="simple" xlink:actuate="onLoad" id="i" xlink:show="other"><stop stop-color="#f2da1c" offset="0.099"/><stop stop-color="#f6db19" offset="0.53"/><stop stop-color="#f6db19" offset="1"/></linearGradient><path fill="url(#i)" d="M371.46,146.44c-8.33,8.33-16.67,16.67-25,25c2.36,0,4.71,0,7.07,0c-8.33-8.33-16.67-16.67-25-25 c0,2.36,0,4.71,0,7.07c8.33-8.33,16.67-16.67,25-25c-2.36,0-4.71,0-7.07,0c8.33,8.33,16.67,16.67,25,25 c4.56,4.56,11.63-2.51,7.07-7.07c-8.33-8.33-16.67-16.67-25-25c-1.91-1.91-5.16-1.91-7.07,0c-8.33,8.33-16.67,16.67-25,25 c-1.91,1.91-1.91,5.16,0,7.07c8.33,8.33,16.67,16.67,25,25c1.91,1.91,5.16,1.91,7.07,0c8.33-8.33,16.67-16.67,25-25 C383.09,148.95,376.02,141.88,371.46,146.44z"/></g></g><g><g><linearGradient x1="323.58" xmlns:xlink="http://www.w3.org/1999/xlink" y1="349.952" x2="376.409" gradientUnits="userSpaceOnUse" y2="349.952" xlink:type="simple" xlink:actuate="onLoad" id="j" xlink:show="other"><stop stop-color="#f2da1c" offset="0.099"/><stop stop-color="#f6db19" offset="0.53"/><stop stop-color="#f6db19" offset="1"/></linearGradient><path fill="url(#j)" d="M371.46,346.42c-8.33,8.33-16.67,16.67-25,25c2.36,0,4.71,0,7.07,0c-8.33-8.33-16.67-16.67-25-25 c0,2.36,0,4.71,0,7.07c8.33-8.33,16.67-16.67,25-25c-2.36,0-4.71,0-7.07,0c8.33,8.33,16.67,16.67,25,25 c4.56,4.56,11.63-2.51,7.07-7.07c-8.33-8.33-16.67-16.67-25-25c-1.91-1.91-5.16-1.91-7.07,0c-8.33,8.33-16.67,16.67-25,25 c-1.91,1.91-1.91,5.16,0,7.07c8.33,8.33,16.67,16.67,25,25c1.91,1.91,5.16,1.91,7.07,0c8.33-8.33,16.67-16.67,25-25 C383.09,348.93,376.02,341.86,371.46,346.42z"/></g></g><g><g><linearGradient x1="423.588" xmlns:xlink="http://www.w3.org/1999/xlink" y1="50.011" x2="476.416" gradientUnits="userSpaceOnUse" y2="50.011" xlink:type="simple" xlink:actuate="onLoad" id="k" xlink:show="other"><stop stop-color="#f2da1c" offset="0.099"/><stop stop-color="#f6db19" offset="0.53"/><stop stop-color="#f6db19" offset="1"/></linearGradient><path fill="url(#k)" d="M471.47,46.48c-8.33,8.33-16.67,16.67-25,25c2.36,0,4.71,0,7.07,0c-8.33-8.33-16.67-16.67-25-25 c0,2.36,0,4.71,0,7.07c8.33-8.33,16.67-16.67,25-25c-2.36,0-4.71,0-7.07,0c8.33,8.33,16.67,16.67,25,25 c4.56,4.56,11.63-2.51,7.07-7.07c-8.33-8.33-16.67-16.67-25-25c-1.91-1.91-5.16-1.91-7.07,0c-8.33,8.33-16.67,16.67-25,25 c-1.91,1.91-1.91,5.16,0,7.07c8.33,8.33,16.67,16.67,25,25c1.91,1.91,5.16,1.91,7.07,0c8.33-8.33,16.67-16.67,25-25 C483.09,48.99,476.02,41.92,471.47,46.48z"/></g></g><g><g><linearGradient x1="423.588" xmlns:xlink="http://www.w3.org/1999/xlink" y1="249.975" x2="476.416" gradientUnits="userSpaceOnUse" y2="249.975" xlink:type="simple" xlink:actuate="onLoad" id="l" xlink:show="other"><stop stop-color="#f2da1c" offset="0.099"/><stop stop-color="#f6db19" offset="0.53"/><stop stop-color="#f6db19" offset="1"/></linearGradient><path fill="url(#l)" d="M471.47,246.44c-8.33,8.33-16.67,16.67-25,25c2.36,0,4.71,0,7.07,0c-8.33-8.33-16.67-16.67-25-25 c0,2.36,0,4.71,0,7.07c8.33-8.33,16.67-16.67,25-25c-2.36,0-4.71,0-7.07,0c8.33,8.33,16.67,16.67,25,25 c4.56,4.56,11.63-2.51,7.07-7.07c-8.33-8.33-16.67-16.67-25-25c-1.91-1.91-5.16-1.91-7.07,0c-8.33,8.33-16.67,16.67-25,25 c-1.91,1.91-1.91,5.16,0,7.07c8.33,8.33,16.67,16.67,25,25c1.91,1.91,5.16,1.91,7.07,0c8.33-8.33,16.67-16.67,25-25 C483.09,248.95,476.02,241.88,471.47,246.44z"/></g></g><g><g><linearGradient x1="423.588" xmlns:xlink="http://www.w3.org/1999/xlink" y1="449.974" x2="476.416" gradientUnits="userSpaceOnUse" y2="449.974" xlink:type="simple" xlink:actuate="onLoad" id="m" xlink:show="other"><stop stop-color="#f2da1c" offset="0.099"/><stop stop-color="#f6db19" offset="0.53"/><stop stop-color="#f6db19" offset="1"/></linearGradient><path fill="url(#m)" d="M471.47,446.44c-8.33,8.33-16.67,16.67-25,25c2.36,0,4.71,0,7.07,0c-8.33-8.33-16.67-16.67-25-25 c0,2.36,0,4.71,0,7.07c8.33-8.33,16.67-16.67,25-25c-2.36,0-4.71,0-7.07,0c8.33,8.33,16.67,16.67,25,25 c4.56,4.56,11.63-2.51,7.07-7.07c-8.33-8.33-16.67-16.67-25-25c-1.91-1.91-5.16-1.91-7.07,0c-8.33,8.33-16.67,16.67-25,25 c-1.91,1.91-1.91,5.16,0,7.07c8.33,8.33,16.67,16.67,25,25c1.91,1.91,5.16,1.91,7.07,0c8.33-8.33,16.67-16.67,25-25 C483.09,448.95,476.02,441.88,471.47,446.44z"/></g></g></g></svg>