<svg width="92.4" height="84.1" viewBox="3.8 8 92.4 84.1" xmlns="http://www.w3.org/2000/svg" xmlns:xlink="http://www.w3.org/1999/xlink" overflow="hidden"><style>
.MsftOfcThm_Background1_Fill_v2 {
 fill:#FFFFFF; 
}
</style>
<g id="change1_1"><path d="M25.95 33.53 33.33 20.74 25.95 7.96 11.18 7.96 3.8 20.74 11.18 33.53 25.95 33.53ZM12.92 10.96 24.22 10.96 29.87 20.75 24.22 30.54 12.92 30.54 7.27 20.75 12.92 10.96Z" class="MsftOfcThm_Background1_Fill_v2" fill="#FFFFFF"/></g><g id="change1_2"><path d="M57.46 33.53 64.84 20.74 57.46 7.96 42.69 7.96 35.31 20.75 42.69 33.54 57.46 33.54ZM44.42 10.96 55.72 10.96 61.37 20.75 55.72 30.54 44.42 30.54 38.77 20.75 44.42 10.96Z" class="MsftOfcThm_Background1_Fill_v2" fill="#FFFFFF"/></g><g id="change1_3"><path d="M88.82 33.53 96.2 20.74 88.82 7.96 74.05 7.96 66.67 20.75 74.05 33.54 88.82 33.54ZM75.78 10.96 87.08 10.96 92.73 20.75 87.08 30.54 75.78 30.54 70.13 20.75 75.78 10.96Z" class="MsftOfcThm_Background1_Fill_v2" fill="#FFFFFF"/></g><g id="change1_4"><path d="M25.95 92.04 33.33 79.25 25.95 66.46 11.18 66.46 3.8 79.26 11.18 92.05 25.95 92.05ZM12.92 69.47 24.22 69.47 29.87 79.26 24.22 89.05 12.92 89.05 7.27 79.26 12.92 69.47Z" class="MsftOfcThm_Background1_Fill_v2" fill="#FFFFFF"/></g><g id="change1_5"><path d="M57.46 92.04 64.84 79.25 57.46 66.46 42.69 66.46 35.31 79.25 42.69 92.04 57.46 92.04ZM44.42 69.47 55.72 69.47 61.37 79.26 55.72 89.05 44.42 89.05 38.77 79.26 44.42 69.47Z" class="MsftOfcThm_Background1_Fill_v2" fill="#FFFFFF"/></g><g id="change1_6"><path d="M88.82 92.04 96.2 79.25 88.82 66.46 74.05 66.46 66.67 79.25 74.05 92.04 88.82 92.04ZM75.78 69.47 87.08 69.47 92.73 79.26 87.08 89.05 75.78 89.05 70.13 79.26 75.78 69.47Z" class="MsftOfcThm_Background1_Fill_v2" fill="#FFFFFF"/></g><g id="change1_7"><path d="M41.7 37.21 26.94 37.21 19.55 50 26.93 62.79 41.7 62.79 49.09 50 41.7 37.21ZM39.97 59.79 28.67 59.79 23.02 50 28.67 40.21 39.97 40.21 45.62 50 39.97 59.79Z" class="MsftOfcThm_Background1_Fill_v2" fill="#FFFFFF"/></g><g id="change1_8"><path d="M80.45 50 73.07 37.21 58.3 37.21 50.91 50 58.29 62.79 73.06 62.79 80.45 50ZM60.03 59.79 54.38 50 60.03 40.21 71.33 40.21 76.98 50 71.33 59.79 60.03 59.79Z" class="MsftOfcThm_Background1_Fill_v2" fill="#FFFFFF"/></g></svg>