<?xml version="1.0" encoding="UTF-8"?><svg xmlns="http://www.w3.org/2000/svg" xmlns:xlink="http://www.w3.org/1999/xlink" contentScriptType="text/ecmascript" fill="#cae8ff" width="91.3" zoomAndPan="magnify" contentStyleType="text/css" viewBox="17.9 0.0 91.3 128.0" height="128" preserveAspectRatio="xMidYMid meet" version="1"><g id="change1_1"><path fill="inherit" d="M63,5h8.6405869c0.276413,0,0.5-0.2235999,0.5-0.5s-0.223587-0.5-0.5-0.5H63c-0.2764168,0-0.5,0.2235999-0.5,0.5 S62.7235832,5,63,5z"/></g><g id="change1_2"><circle fill="inherit" r="0.5" cx="75.5" cy="4.5"/></g><g id="change1_3"><path fill="inherit" d="M25.4140835,21.8174l-5.9999981-2.7276001c-0.5078011-0.2313995-1.0967007-0.0048008-1.3243008,0.4960995 c-0.2285004,0.5030003-0.0067844,1.0957012,0.4960995,1.3243008l6,2.727499 c0.1348,0.0615005,0.2754002,0.0898018,0.4131165,0.0898018c0.3808842,0,0.7441845-0.217701,0.9111843-0.5859013 C26.1386852,22.6387005,25.9169998,22.0459003,25.4140835,21.8174z"/></g><g id="change1_4"><path fill="inherit" d="M24.5858841,28.5478992l-5.5907993,2.5419006c-0.5029011,0.2285995-0.7245998,0.8213005-0.4960842,1.3243008 C18.6660004,32.7821999,19.0292854,33,19.4101849,33c0.1376991,0,0.2782993-0.0283012,0.4130001-0.0898018l5.5908985-2.5419979 c0.5029163-0.2285995,0.7246017-0.8213005,0.4961014-1.3243008C25.6825848,28.5429993,25.0946846,28.3164005,24.5858841,28.5478992z"/></g><g id="change1_5"><path fill="inherit" d="M19.9335842,27.0928001h3.3779011c0.5527992,0,1-0.4473,1-1c0-0.5527992-0.4472008-1-1-1h-3.3779011 c-0.5527,0-1,0.4472008-1,1C18.9335842,26.6455002,19.3808842,27.0928001,19.9335842,27.0928001z"/></g><g id="change1_6"><path fill="inherit" d="M107.5858841,93.089798l-6,2.7276001c-0.5028839,0.2285004-0.7246017,0.8213043-0.4961014,1.3242035 c0.1669998,0.3682022,0.5302963,0.5858994,0.9112167,0.5858994c0.1376801,0,0.2782822-0.0282974,0.4130859-0.089798l6-2.7275009 c0.5029144-0.2285995,0.7245941-0.8213043,0.4960938-1.3243027C108.6835785,93.0849991,108.0946808,92.857399,107.5858841,93.089798 z"/></g><g id="change1_7"><path fill="inherit" d="M108.0048828,105.089798l-5.5907974-2.5419006c-0.5078049-0.2314987-1.0967026-0.0048981-1.3243027,0.4960022 c-0.2285004,0.5029984-0.0067825,1.0957031,0.4961014,1.3243027l5.5908966,2.5419998 C107.3114853,106.9717026,107.4520798,107,107.5897827,107c0.3808975,0,0.7442169-0.2177963,0.9112167-0.5858994 C108.7294846,105.9111023,108.507782,105.3183975,108.0048828,105.089798z"/></g><g id="change1_8"><path fill="inherit" d="M107.0663834,101.0927963c0.5526962,0,1-0.4472961,1-1c0-0.5527954-0.4473038-1-1-1h-3.3778992c-0.552803,0-1,0.4472046-1,1 c0,0.5527039,0.447197,1,1,1H107.0663834z"/></g><g id="change1_9"><path fill="inherit" d="M88,0H40c-5.5,0-10,4.5-10,10v11.6084003V23v1.5664005l10.6288834,13.4199009 c0.0625,0.0781975,0.1348,0.1464996,0.2168007,0.202198l2.1083984,1.4472008l11.2539177,6.3721008l5.2284851,5.3984985 l0.9511986,4.2998009c0.0088005,0.0370979,0.0186005,0.0741997,0.0312004,0.1092987l1.8808975,5.464901 c0.0772171,0.2246017,0.2315025,0.4140015,0.4356003,0.535099l10.9111023,6.4648972l6.4237976,3.0097046 c0.030304,0.0147018,0.0615005,0.0273972,0.092804,0.0381012l7.7539139,2.7187958l0.7460861,1.6826019 c2.8417969,6.405304,4.1639938,9.8037033,4.1620941,10.6952972c0,0.0645065,0.0059052,0.1278992,0.017601,0.1914063 c0.1903992,0.994194,1.2168045,4.3788986,2.089798,7.1026001c0.0440063,0.1385956,0.1182022,0.2655945,0.2168045,0.3729935 L98,97.1865005v-1.4765015v-1.4746017V10C98,4.5,93.5,0,88,0z M78.5575867,4.3291001 C77.5770798,6.0770998,75.1483841,7.5,73.1444855,7.5H54.855484c-2.0038986,0-4.4326019-1.4229002-5.4141006-3.1718998L48.1347847,2 H79.865181L78.5575867,4.3291001z"/></g><g id="change1_10"><path fill="inherit" d="M89.2880859,93.6025009c-1.6455002-5.0576019-2.5225067-8.1406021-2.6055069-9.1621017 c-0.0057983-0.0702972-0.0194931-0.1385956-0.0389938-0.2060013c-0.3243027-1.0811005-1.7109985-4.3955002-2.8008041-6.9062958 c-0.1093979-0.2528992-0.319397-0.4492035-0.5791016-0.5429001l-3.9911957-1.427803l-7.4609985-3.5243988l-14.4071999-8.5458984 l-3.0400009-8.8955002l-0.5606003-2.5283012c-0.0400009-0.1807022-0.1299019-0.3456993-0.2578011-0.4785004l-2.402298-2.4804993 c-0.0665016-0.0693016-0.1425858-0.1278992-0.2255859-0.1748009l-10.2109985-5.777401l-3.8867149-2.6786995L30,31.6620998v1.6112995 v1.6104012V118c0,5.5,4.5,10,10,10h48c5.5,0,10-4.5,10-10v-11.8066025v-1.3964996v-1.4618988l-8.4902191-9.0478973 L89.2880859,93.6025009z M76,123.5H52c-0.2764168,0-0.5-0.2236023-0.5-0.5s0.2235832-0.5,0.5-0.5h24 c0.2763824,0,0.5,0.2236023,0.5,0.5S76.2763824,123.5,76,123.5z"/></g></svg>