<svg width="62" height="58.7" viewBox="1 2.7 62 58.7" xmlns="http://www.w3.org/2000/svg" xmlns:xlink="http://www.w3.org/1999/xlink" fill="#12229D" overflow="hidden"><style>
.MsftOfcThm_Background1_Fill_v2 {
 fill:#FFFFFF; 
}
</style>
<g><g id="change1_1"><path d="M62.9783 55.3196C62.9745 55.2837 62.9845 55.2495 62.9766 55.2134L59.832 40.8408 59.832 6.6284C59.832 4.4355 58.0478 2.6513 55.8554 2.6513L8.145 2.6513C5.9516 2.6513 4.1675 4.4355 4.1675 6.6284L4.1675 40.8408 1.0229 55.2134C1.0148 55.2503 1.025 55.2854 1.0212 55.3222 1.0173 55.3583 1 55.39 1 55.4272L1 59.3335C1 60.4448 1.9038 61.3486 3.0151 61.3486L60.9814 61.3486C62.0947 61.3486 63 60.4448 63 59.3335L63 55.4272C63 55.389 62.9824 55.3566 62.9783 55.3196ZM60.7578 54.4272 38.6227 54.4272 37.9967 51.4584 49.0253 51.4584C49.0263 51.4584 49.0274 51.4589 49.0284 51.4589 49.0294 51.4589 49.0304 51.4584 49.0314 51.4584L54.6475 51.4584C54.6573 51.4584 54.668 51.4584 54.6778 51.4584 55.5274 51.4584 56.4005 51.4511 56.9063 50.828 57.1631 50.5106 57.2559 50.1034 57.167 49.6805L55.521 41.9261 58.0224 41.9254 60.7578 54.4272ZM3.2426 54.4272 5.9742 41.9411 8.5545 41.9403 6.9082 49.6816C6.8193 50.103 6.9121 50.5102 7.1694 50.8276 7.6748 51.4506 8.5468 51.4585 9.4243 51.4585 9.4355 51.4585 9.4468 51.4585 9.458 51.4585L15.0439 51.4585C15.0449 51.4585 15.0459 51.459 15.0469 51.459 15.0479 51.459 15.049 51.4585 15.05 51.4585L25.5837 51.4585 24.9579 54.4273 3.2426 54.4273ZM24.1664 41.9357 23.5244 44.7124 18.0123 44.7124 18.9356 41.9373 24.1664 41.9357ZM31.0396 41.9337 31.0396 44.7124 25.5768 44.7124 26.2189 41.9351 31.0396 41.9337ZM37.8557 41.9316 38.4994 44.7124 33.0391 44.7124 33.0391 41.933 37.8557 41.9316ZM55.0742 49.4546C54.9189 49.459 54.7588 49.46 54.6172 49.4585L49.75 49.4585 48.8364 46.7124 54.4921 46.7124 55.0742 49.4546ZM33.0391 49.4585 33.0391 46.7124 38.9624 46.7124 39.5981 49.4585 33.0391 49.4585ZM24.4796 49.4585 25.1144 46.7124 31.0396 46.7124 31.0396 49.4585 24.4796 49.4585ZM16.4334 49.4585 17.347 46.7124 23.0621 46.7124 22.4272 49.4585 16.4334 49.4585ZM9.4277 49.4585C9.3081 49.4585 9.1513 49.4585 9.0014 49.4546L9.5844 46.7124 15.2392 46.7124 14.3256 49.4585 9.4277 49.4585ZM41.6518 49.4585 41.0161 46.7124 46.7278 46.7124 47.6414 49.4585 41.6518 49.4585ZM53.476 41.9269 54.0674 44.7124 48.171 44.7124 47.2449 41.9288 53.476 41.9269ZM45.1365 41.9294 46.0624 44.7124 40.553 44.7124 39.9091 41.931 45.1365 41.9294ZM15.9047 44.7124 10.0097 44.7124 10.5992 41.9398 16.8277 41.938 15.9047 44.7124ZM27.6276 51.4585 32.0396 51.4585 35.9526 51.4585 36.5786 54.4273 27.0018 54.4273 27.6276 51.4585ZM8.145 4.6514 55.8554 4.6514C56.9452 4.6514 57.832 5.5381 57.832 6.6285L57.832 39.9257 6.1675 39.9411 6.1675 6.6284C6.1675 5.5381 7.0547 4.6514 8.145 4.6514ZM60.9814 59.3486 3 59.3335 3 56.4272 60.9951 56.4272 60.9814 59.3486Z" class="MsftOfcThm_Background1_Fill_v2" fill="#FFFFFF"/><path d="M10.5088 37.3711 53.5703 37.3711C54.4873 37.3711 55.2334 36.6231 55.2334 35.7041L55.2334 8.8169C55.2334 7.8994 54.4873 7.1533 53.5703 7.1533L10.5088 7.1533C9.5899 7.1533 8.8418 7.8994 8.8418 8.8169L8.8418 35.7041C8.8418 36.623 9.5898 37.3711 10.5088 37.3711ZM10.8418 9.1533 53.2334 9.1533 53.2334 35.3711 10.8418 35.3711 10.8418 9.1533Z" class="MsftOfcThm_Background1_Fill_v2" fill="#FFFFFF"/><path d="M50.1055 12.1025C49.7149 11.7119 49.0821 11.7119 48.6914 12.1025L41.1113 19.6826C40.7207 20.0732 40.7207 20.706 41.1113 21.0967 41.3066 21.292 41.5625 21.3897 41.8183 21.3897 42.0742 21.3897 42.33 21.292 42.5253 21.0967L50.1054 13.5166C50.4961 13.126 50.4961 12.4932 50.1055 12.1025Z" class="MsftOfcThm_Background1_Fill_v2" fill="#FFFFFF"/><path d="M49.6777 17.8887 47.0752 20.4922C46.6846 20.8828 46.6846 21.5156 47.0752 21.9063 47.2705 22.1011 47.5264 22.1988 47.7822 22.1988 48.038 22.1988 48.2939 22.1011 48.4892 21.9053L51.0917 19.3037C51.4823 18.9136 51.4823 18.2803 51.0927 17.8896 50.7021 17.498 50.0684 17.499 49.6777 17.8887Z" class="MsftOfcThm_Background1_Fill_v2" fill="#FFFFFF"/><path d="M41.5781 15.271 44.2695 12.5762C44.6591 12.1856 44.6591 11.5523 44.2685 11.1621 43.8779 10.7725 43.2441 10.7715 42.8535 11.1631L40.1621 13.8579C39.7725 14.2485 39.7725 14.8818 40.1631 15.272 40.3584 15.4668 40.6143 15.5645 40.8701 15.5645 41.1259 15.5645 41.3828 15.4668 41.5781 15.271Z" class="MsftOfcThm_Background1_Fill_v2" fill="#FFFFFF"/></g></g></svg>