<?xml version="1.0" encoding="UTF-8"?><svg xmlns="http://www.w3.org/2000/svg" xmlns:xlink="http://www.w3.org/1999/xlink" contentScriptType="text/ecmascript" fill="#12229d" width="61.8" zoomAndPan="magnify" contentStyleType="text/css" viewBox="1.1 6.9 61.8 51.3" height="51.3" preserveAspectRatio="xMidYMid meet" version="1"><g><g id="change1_3"><path fill="inherit" d="M55.699,58.127H8.301c-3.983,0-7.224-3.241-7.224-7.225V20.751c0-3.984,3.241-7.226,7.224-7.226h13.892 c0.552,0,1,0.448,1,1s-0.448,1-1,1H8.301c-2.88,0-5.224,2.344-5.224,5.226v30.151c0,2.881,2.344,5.225,5.224,5.225h47.398 c2.881,0,5.225-2.344,5.225-5.225V20.751c0-2.881-2.344-5.226-5.225-5.226H41.885c-0.552,0-1-0.448-1-1s0.448-1,1-1h13.814 c3.984,0,7.225,3.241,7.225,7.226v30.151C62.923,54.886,59.683,58.127,55.699,58.127z"/></g><g id="change1_5"><path fill="inherit" d="M32,47.633c-0.281,0-0.549-0.118-0.739-0.326L3.433,16.781c-0.372-0.408-0.343-1.041,0.065-1.413 c0.409-0.372,1.041-0.342,1.413,0.065l27.088,29.715l27.082-29.728c0.371-0.408,1.004-0.438,1.413-0.066 c0.408,0.372,0.438,1.004,0.066,1.413l-27.82,30.539C32.549,47.515,32.281,47.633,32,47.633z"/></g><g id="change1_2"><path fill="inherit" d="M4.822,57.055c-0.264,0-0.527-0.104-0.724-0.31c-0.381-0.4-0.366-1.033,0.034-1.414l19.137-18.244 c0.398-0.382,1.032-0.367,1.414,0.033c0.381,0.4,0.366,1.033-0.034,1.414L5.512,56.778C5.318,56.963,5.07,57.055,4.822,57.055z"/></g><g id="change1_4"><path fill="inherit" d="M59.996,56.396c-0.247,0-0.493-0.091-0.687-0.272l-19.341-18.26c-0.401-0.38-0.42-1.013-0.041-1.414 s1.012-0.419,1.414-0.041l19.341,18.26c0.401,0.38,0.42,1.013,0.041,1.414C60.526,56.291,60.262,56.396,59.996,56.396z"/></g><g id="change1_1"><path fill="inherit" d="M36.202,13.557h-1.844l0.008,1.572c-0.522-1.149-1.644-1.875-3.276-1.875c-2.78,0-4.52,2.114-4.5,5.41l0.008,1.181 c0.024,3.445,1.76,5.412,4.602,5.412c1.755,0,3.08-0.906,3.766-2.299c0.431,1.329,1.493,2.115,3.037,2.115 c2.538,0,4.581-2.326,4.549-7.163c-0.044-6.412-4.126-11.037-10.475-11.037c-7.047,0-11.424,5.08-11.376,12.366 c0.052,8.041,4.617,12.399,11.6,12.399c3.025,0,5.53-0.638,7.578-1.788l-0.016-2.116c-2.258,1.302-4.792,1.937-7.575,1.937 c-5.441,0-9.396-3.357-9.439-10.432C22.802,13.01,26.102,8.84,32.087,8.84c5.352,0,8.34,3.839,8.376,9.098 c0.024,3.779-1.085,5.111-2.477,5.111c-1.026,0-1.728-0.697-1.74-2.45L36.202,13.557z M34.126,19.662 c0.017,2.391-1.005,3.66-2.669,3.66c-1.66,0-2.698-1.241-2.713-3.599l-0.007-0.938c-0.012-2.327,0.973-3.596,2.67-3.596 c1.723,0,2.697,1.36,2.713,3.687L34.126,19.662z"/></g></g></svg>