<svg width="88.5" height="88.5" viewBox="6 6.5 88.5 88.5" xmlns="http://www.w3.org/2000/svg" xmlns:xlink="http://www.w3.org/1999/xlink" fill="#12229D" overflow="hidden"><g><g id="change1_6"><path d="M82.977 26.979 16.122 26.979C15.184 26.979 14.426 26.22 14.426 25.283 14.426 24.347 15.185 23.588 16.122 23.588L82.976 23.588C83.912 23.588 84.671 24.347 84.671 25.283 84.672 26.22 83.912 26.979 82.977 26.979Z"/></g><g id="change1_3"><path d="M83.133 77.917 17.816 77.917C16.88 77.917 16.121 77.158 16.121 76.222 16.121 75.285 16.881 74.525 17.816 74.525L83.132 74.525C84.068 74.525 84.828 75.285 84.828 76.222 84.829 77.158 84.068 77.917 83.133 77.917Z"/></g><g id="change1_5"><path d="M50.24 95.02C47.715 95.02 44.031 93.307 40.815 85.148 38.528 79.343 36.911 71.494 36.139 62.452 36.099 61.978 36.258 61.511 36.58 61.161 36.899 60.811 37.353 60.613 37.828 60.613L62.644 60.613C63.119 60.613 63.572 60.811 63.893 61.161 64.214 61.511 64.374 61.978 64.333 62.452 63.562 71.496 61.945 79.345 59.66 85.148 56.45 93.307 52.766 95.02 50.24 95.02ZM39.689 64.004C40.482 71.858 41.987 78.87 43.97 83.905 45.905 88.813 48.19 91.629 50.24 91.629 52.291 91.629 54.574 88.813 56.507 83.905 58.488 78.871 59.992 71.859 60.785 64.004L39.689 64.004ZM62.649 40.9C62.648 40.9 62.646 40.9 62.645 40.9L37.829 40.9C37.354 40.9 36.901 40.701 36.581 40.351 36.259 40.001 36.1 39.533 36.14 39.06 36.911 30.014 38.529 22.163 40.816 16.357 44.03 8.197 47.715 6.484 50.241 6.484 52.767 6.484 56.452 8.197 59.663 16.357 61.938 22.135 63.55 29.94 64.326 38.936 64.339 39.023 64.347 39.112 64.347 39.203 64.346 40.141 63.586 40.9 62.649 40.9ZM39.689 37.508 60.785 37.508C59.993 29.65 58.488 22.635 56.507 17.6 54.575 12.692 52.291 9.876 50.24 9.876 48.19 9.876 45.905 12.691 43.97 17.6 41.987 22.637 40.482 29.652 39.689 37.508Z"/></g><g id="change1_7"><path d="M50.24 95.02C42.861 95.02 35.903 91.795 30.119 85.693 24.62 79.894 20.569 71.709 18.712 62.648 18.609 62.148 18.736 61.63 19.06 61.236 19.38 60.84 19.865 60.612 20.373 60.612L80.102 60.612C80.611 60.612 81.093 60.84 81.415 61.236 81.738 61.63 81.865 62.149 81.764 62.648 79.907 71.708 75.856 79.893 70.358 85.693 64.573 91.795 57.616 95.02 50.24 95.02ZM22.494 64.004C26.529 80.372 37.724 91.629 50.24 91.629 62.752 91.629 73.946 80.372 77.981 64.004L22.494 64.004ZM80.105 40.9C80.104 40.9 80.103 40.9 80.102 40.9L20.373 40.9C19.864 40.9 19.38 40.671 19.06 40.276 18.737 39.88 18.61 39.362 18.712 38.863 20.569 29.799 24.62 21.613 30.119 15.812 35.902 9.711 42.86 6.485 50.24 6.485 57.617 6.485 64.573 9.711 70.357 15.812 75.83 21.587 79.869 29.726 81.738 38.741 81.78 38.887 81.802 39.043 81.802 39.204 81.803 40.141 81.043 40.9 80.105 40.9ZM22.494 37.508 77.981 37.508C73.947 21.136 62.753 9.877 50.24 9.877 37.724 9.877 26.528 21.136 22.494 37.508Z"/></g><g id="change1_4"><path d="M20.851 46.082 22.108 49.84 22.133 49.906C22.319 50.434 22.436 50.856 22.487 51.171 22.52 50.991 22.564 50.803 22.617 50.606 22.671 50.409 22.749 50.157 22.848 49.848L24.13 46.082 27.238 46.082 23.667 54.593 21.542 54.593 20.277 50.741C20.212 50.522 20.15 50.302 20.097 50.08 20.043 49.857 19.993 49.637 19.95 49.418 19.887 49.755 19.778 50.18 19.62 50.69L19.604 50.75 18.348 54.592 16.224 54.592 12.668 46.081 15.761 46.081 17.033 49.847C17.128 50.122 17.204 50.363 17.261 50.568 17.317 50.773 17.363 50.973 17.395 51.171 17.447 50.89 17.557 50.5 17.725 50 17.748 49.932 17.764 49.882 17.776 49.848L19.04 46.082 20.851 46.082Z"/><path d="M34.73 46.082 35.986 49.84 36.01 49.906C36.197 50.434 36.314 50.856 36.364 51.171 36.397 50.991 36.442 50.803 36.495 50.606 36.549 50.409 36.626 50.157 36.727 49.848L38.007 46.082 41.116 46.082 37.543 54.593 35.42 54.593 34.156 50.741C34.088 50.522 34.027 50.302 33.974 50.08 33.919 49.857 33.87 49.637 33.826 49.418 33.765 49.755 33.656 50.18 33.498 50.69L33.481 50.75 32.225 54.592 30.102 54.592 26.544 46.081 29.639 46.081 30.91 49.847C31.006 50.122 31.082 50.363 31.138 50.568 31.195 50.773 31.24 50.973 31.274 51.171 31.324 50.89 31.434 50.5 31.602 50 31.624 49.932 31.641 49.882 31.652 49.848L32.916 46.082 34.73 46.082Z"/><path d="M48.61 46.082 49.864 49.84 49.89 49.906C50.076 50.434 50.194 50.856 50.244 51.171 50.277 50.991 50.32 50.803 50.374 50.606 50.428 50.409 50.504 50.157 50.606 49.848L51.886 46.082 54.995 46.082 51.422 54.593 49.299 54.593 48.035 50.741C47.968 50.522 47.908 50.302 47.853 50.08 47.799 49.857 47.75 49.637 47.705 49.418 47.644 49.755 47.535 50.18 47.378 50.69L47.36 50.75 46.105 54.592 43.981 54.592 40.425 46.081 43.517 46.081 44.789 49.847C44.885 50.122 44.961 50.363 45.017 50.568 45.074 50.773 45.119 50.973 45.153 51.171 45.203 50.89 45.312 50.5 45.48 50 45.504 49.932 45.52 49.882 45.532 49.848L46.797 46.082 48.61 46.082Z"/><path d="M54.412 53.21C54.412 52.733 54.574 52.331 54.895 52.005 55.219 51.68 55.619 51.517 56.097 51.517 56.585 51.517 56.993 51.68 57.319 52.005 57.645 52.331 57.807 52.733 57.807 53.21 57.807 53.688 57.644 54.092 57.314 54.424 56.987 54.756 56.58 54.921 56.097 54.921 55.624 54.921 55.226 54.756 54.9 54.424 54.575 54.092 54.412 53.688 54.412 53.21Z"/></g><g id="change1_1"><path d="M84.516 55.35 62.471 55.35C61.534 55.35 60.775 54.591 60.775 53.655 60.775 52.718 61.535 51.959 62.471 51.959L84.516 51.959C85.452 51.959 86.212 52.718 86.212 53.655 86.212 54.591 85.451 55.35 84.516 55.35Z"/></g><g id="change1_2"><path d="M91.227 64.004 9.254 64.004C8.495 64.004 7.827 63.498 7.622 62.766 6.719 59.556 6.18 56.24 6.021 52.911 6.02 52.884 6.02 52.857 6.02 52.83L6.02 48.681C6.02 48.654 6.02 48.627 6.022 48.6 6.18 45.265 6.719 41.949 7.624 38.744 7.829 38.013 8.496 37.508 9.255 37.508L91.228 37.508C91.988 37.508 92.656 38.014 92.861 38.746 93.953 42.639 94.506 46.679 94.506 50.755 94.506 54.824 93.953 58.864 92.861 62.764 92.654 63.497 91.986 64.004 91.227 64.004ZM10.561 60.612 89.919 60.612C90.711 57.396 91.112 54.087 91.112 50.756 91.112 47.42 90.711 44.11 89.92 40.9L10.561 40.9C9.925 43.458 9.54 46.083 9.412 48.722L9.412 52.789C9.54 55.423 9.925 58.049 10.561 60.612Z"/></g><g id="change1_8"><path d="M50.24 95.02C38.415 95.02 27.299 90.416 18.937 82.056 10.576 73.697 5.97 62.58 5.97 50.756 5.97 26.345 25.829 6.485 50.24 6.485 74.646 6.485 94.504 26.345 94.504 50.756 94.504 62.58 89.9 73.696 81.541 82.056 73.181 90.416 62.064 95.02 50.24 95.02ZM50.24 9.877C27.699 9.877 9.362 28.215 9.362 50.756 9.362 73.293 27.699 91.629 50.24 91.629 72.777 91.629 91.112 73.293 91.112 50.756 91.112 28.215 72.777 9.877 50.24 9.877Z"/></g></g></svg>