<?xml version="1.0" encoding="UTF-8"?><svg xmlns="http://www.w3.org/2000/svg" xmlns:xlink="http://www.w3.org/1999/xlink" contentScriptType="text/ecmascript" fill="#12229d" width="487.3" zoomAndPan="magnify" contentStyleType="text/css" viewBox="12.3 0.0 487.3 512.6" height="512.6" preserveAspectRatio="xMidYMid meet" version="1"><g><g id="change1_1"><path fill="inherit" d="M336.354,155.8448c7.0278-8.6249,11.251-19.6155,11.251-31.5759c0-27.6491-22.5111-50.1431-50.1812-50.1431 c-27.6702,0-50.1812,22.494-50.1812,50.1431c0,11.9604,4.2231,22.951,11.251,31.5759 c-18.4267,7.6276-31.4076,25.8947-31.4076,46.6077v39.077c0,6.263,5.0966,11.358,11.3619,11.358h117.9527 c6.2644,0,11.3608-5.095,11.3608-11.358v-39.077C367.7615,181.7395,354.7805,163.4724,336.354,155.8448z M297.4239,89.1254 c19.3988,0,35.1815,15.7651,35.1815,35.1435c0,19.3617-15.7827,35.1136-35.1815,35.1136 c-19.3989,0-35.1816-15.752-35.1816-35.1136C262.2422,104.8905,278.0249,89.1254,297.4239,89.1254z M352.762,237.888H242.0857 v-35.4355c0-17.3632,12.9938-32.282,29.9846-34.9636c7.4459,4.373,16.1084,6.8931,25.3535,6.8931s17.9075-2.5201,25.3535-6.8931 c16.9907,2.6815,29.9846,17.6003,29.9846,34.9636V237.888z"/><path fill="inherit" d="M152.8775,342.3755l-51.5571,53.181l-17.1421-11.589c-3.4286-2.3193-8.0925-1.4184-10.4127,2.0126 c-2.3202,3.4315-1.4189,8.0935,2.0126,10.4138l22.35,15.1104c1.2782,0.8647,2.7421,1.2866,4.1971,1.2866 c1.9736,0,3.9305-0.7764,5.3875-2.2792l55.9338-57.6951c2.8828-2.974,2.8096-7.7219-0.1639-10.6052 C160.5071,339.3268,155.759,339.403,152.8775,342.3755z"/><path fill="inherit" d="M493.9336,77.5618L413.7182,3.9375l-0.3085-0.2847c-2.6748-2.4716-4.7354-3.6478-9.2087-3.6478H116.8677 c-11.8619,0-21.512,9.6315-21.512,21.4705v240.0573H55.0249c-9.6736,0-12.363,6.6136-13.115,10.612 c-1.6874,9.361-8.8024,16.8027-17.7181,18.52c-11.9371,2.3222-11.7692,10.9781-11.6588,16.706 c0.0156,0.8076,0.0332,1.6851,0.0332,2.6386v99.1982c0,23.5018,9.0222,34.4843,25.6799,46.4039l57.7444,48.874 c0.1611,0.1362,0.3281,0.2661,0.4999,0.3881c6.7147,4.7733,13.2535,7.1219,19.8832,7.1214c0.9141,0,1.8301-0.0444,2.749-0.1338 c7.5964,0.7334,15.0181-1.5576,22.6565-6.9876c0.1719-0.1221,0.3389-0.252,0.5-0.3881l16.2052-13.7155h319.4664 c11.8618,0,21.5129-9.6447,21.5129-21.4998V93.7258c0-0.5503,0.0068-1.0664,0.0137-1.5547 C499.5369,87.7646,499.6043,82.7696,493.9336,77.5618z M483.7893,88.6107c0.4473,0.4106,0.6113,0.6382,0.625,0.6382 c0.0378,0.1547,0.0579,0.4474,0.0676,0.8061h-78.7303c-1.078,0-2.412,0-3.412-0.0625c0-0.0122,0-0.0244,0-0.0371V15.0045h1.2549 L483.7893,88.6107z M151.1102,477.3606c-0.1455,0.1136-0.2853,0.2333-0.422,0.3571l-17.8474,15.1055 c-4.698,3.2851-8.7566,4.5721-12.7515,4.0541c-0.6436-0.085-1.2969-0.0845-1.9424,0.0005 c-3.9716,0.521-8.0193-0.7685-12.7184-4.0546l-57.7278-48.8599c-0.1591-0.1343-0.3231-0.2617-0.4921-0.3823 c-13.8522-9.8747-19.6431-16.8329-19.6431-34.3735c0,0-0.0596-103.3353-0.0605-103.9089 c14.1821-2.9277,25.5491-14.3472,28.8165-28.7662h125.6007c3.335,14.6641,14.4751,25.8224,28.8419,28.7667 c-0.001,0.5732-0.0605,103.9084-0.0605,103.9084c0,17.541-5.7909,24.4993-19.642,34.3735 c-0.1689,0.1206-0.333,0.248-0.4922,0.3823L151.1102,477.3606z M477.9507,475.7705H176.2068l23.8186-20.1591 c16.6567-11.9191,25.678-22.9017,25.678-46.4039v-19.4188h180.9262c4.1425,0,7.4998-3.3578,7.4998-7.4998 s-3.3573-7.4998-7.4998-7.4998H225.7034v-44.3029h180.9262c4.1425,0,7.4998-3.3578,7.4998-7.4998s-3.3573-7.4998-7.4998-7.4998 H225.7034v-5.4774c0-0.954,0.0176-1.832,0.0332-2.6401c0.1104-5.7274,0.2783-14.3828-11.6765-16.7079 c-9.033-1.7358-15.9937-9.0105-17.729-18.5117c-0.5731-3.1923-2.9988-10.6169-13.1147-10.6169h-72.8611V21.4755 c0-3.5077,2.9823-6.471,6.5125-6.471h270.4724v74.9509c0,8.1082,3.9441,11.7512,7.2537,13.379 c3.4969,1.7202,7.3914,1.7202,11.1578,1.7202h78.7125v364.2156C484.4641,472.8546,481.5423,475.7705,477.9507,475.7705z"/></g></g></svg>