<svg width="60" height="60" viewBox="2 2 60 60" xmlns="http://www.w3.org/2000/svg" xmlns:xlink="http://www.w3.org/1999/xlink" fill="#12229D" overflow="hidden"><style>
.MsftOfcThm_Accent1_lumMod_20_lumOff_80_Fill_v2 {
 fill:#DCE6F2; 
}
</style>
<g id="change1_1"><path d="M60 38 36 38 36 23C36 22.5703 35.9688 22.1523 35.9219 21.7344 35.9062 21.6055 35.8828 21.4766 35.8633 21.3477 35.8203 21.0625 35.7695 20.7812 35.7031 20.5039 35.668 20.3594 35.6328 20.2188 35.5938 20.0781 35.5195 19.8125 35.4375 19.5547 35.3438 19.3008 35.2969 19.168 35.2539 19.0352 35.2031 18.9062 35.0859 18.6172 34.9531 18.3359 34.8125 18.0547 34.7734 17.9766 34.7383 17.8945 34.6953 17.8125 34.5078 17.4609 34.2969 17.1211 34.0742 16.793 34.0156 16.7109 33.9531 16.6328 33.8906 16.5508 33.7148 16.3086 33.5352 16.0742 33.3438 15.8477 33.25 15.7422 33.1562 15.6406 33.0586 15.5391 32.8789 15.3438 32.6953 15.1602 32.5039 14.9766 32.3984 14.8789 32.293 14.7812 32.1836 14.6875 31.9727 14.5078 31.7578 14.3359 31.5352 14.1719 31.4609 14.1172 31.3945 14.0508 31.3203 14L40 14 40 26C40 26.5508 40.4492 27 41 27L45 27C45.5508 27 46 26.5508 46 26L46 14 51 14C55.9648 14 60 18.0391 60 23ZM40 60 36 60 36 40 40 40ZM10 38 10 24.7891 14.4766 27.543 21.4766 31.8516C21.6367 31.9492 21.8203 32 22 32 22.1797 32 22.3633 31.9492 22.5234 31.8516L34 24.7891 34 38ZM15 24 31.4688 24 22 29.8242 15.5234 25.8398 12.5312 24ZM25 14C25.3008 14 25.5977 14.0156 25.8906 14.043 25.9844 14.0547 26.082 14.0742 26.1758 14.0859 26.3711 14.1094 26.5664 14.1367 26.7539 14.1758 26.8672 14.1953 26.9766 14.2266 27.0898 14.2539 27.2578 14.293 27.4258 14.3359 27.5898 14.3828 27.707 14.418 27.8203 14.4609 27.9336 14.5 28.0898 14.5547 28.2422 14.6055 28.3945 14.668 28.5078 14.7148 28.6211 14.7695 28.7305 14.8203 28.8789 14.8867 29.0195 14.9531 29.1602 15.0273 29.2734 15.0859 29.3789 15.1484 29.4883 15.2109 29.6211 15.2891 29.7578 15.3672 29.8867 15.4531 29.9922 15.5195 30.0938 15.5938 30.1992 15.668 30.3242 15.7539 30.4453 15.8477 30.5664 15.9414 30.6641 16.0195 30.7656 16.1016 30.8594 16.1836 30.9766 16.2812 31.0898 16.3867 31.1992 16.4922 31.2891 16.5781 31.3828 16.668 31.4688 16.7578 31.5742 16.8672 31.6758 16.9805 31.7773 17.0977 31.8594 17.1914 31.9453 17.2852 32.0234 17.3867 32.1172 17.5078 32.2109 17.6289 32.2969 17.7539 32.3711 17.8555 32.4492 17.957 32.5156 18.0625 32.6016 18.1953 32.6797 18.3281 32.7617 18.4648 32.8242 18.5703 32.8906 18.6758 32.9492 18.7852 33.0234 18.9297 33.0898 19.0781 33.1602 19.2266 33.2109 19.3359 33.2656 19.4414 33.3086 19.5508 33.3789 19.7188 33.4375 19.8906 33.4961 20.0625 33.5312 20.1602 33.5703 20.2539 33.6016 20.3516 33.6836 20.6211 33.7578 20.8945 33.8125 21.1758 33.832 21.2578 33.8398 21.3438 33.8516 21.4258 33.8867 21.6172 33.918 21.8047 33.9414 22L16.0547 22C16.5547 17.5078 20.375 14 25 14ZM42 4 50 4 50 8 45 8C44.4492 8 44 8.44922 44 9L44 25 42 25ZM51 12 46 12 46 10 51 10C51.5508 10 52 9.55078 52 9L52 3C52 2.44922 51.5508 2 51 2L41 2C40.4492 2 40 2.44922 40 3L40 12 25 12C19.2734 12 14.5586 16.4023 14.0508 22L9 22C8.98047 22 8.96094 22.0078 8.94531 22.0078 8.86719 22.0156 8.79297 22.0234 8.71875 22.0469 8.67969 22.0586 8.64844 22.0742 8.61328 22.0859 8.58203 22.1016 8.54297 22.1094 8.51172 22.1289 8.48828 22.1406 8.46875 22.1602 8.44531 22.1758 8.41797 22.1953 8.38672 22.2188 8.35938 22.2422 8.30859 22.2852 8.26562 22.332 8.22656 22.3828 8.20312 22.4102 8.17969 22.4336 8.16406 22.4609 8.11328 22.5391 8.07422 22.6211 8.04688 22.707 8.04297 22.7148 8.03906 22.7188 8.03906 22.7266 8.03906 22.7266 8.03906 22.7305 8.03906 22.7305 8.01172 22.8164 8 22.9062 8 23L8 30 4 30 4 32 8 32 8 39C8 39.5508 8.44922 40 9 40L34 40 34 61C34 61.5508 34.4492 62 35 62L41 62C41.5508 62 42 61.5508 42 61L42 40 61 40C61.5508 40 62 39.5508 62 39L62 23C62 16.9336 57.0664 12 51 12" class="MsftOfcThm_Accent1_lumMod_20_lumOff_80_Fill_v2" fill="#DCE6F2"/><path d="M6 26 2 26 2 28 6 28 6 26" class="MsftOfcThm_Accent1_lumMod_20_lumOff_80_Fill_v2" fill="#DCE6F2"/><path d="M2 36 6 36 6 34 2 34 2 36" class="MsftOfcThm_Accent1_lumMod_20_lumOff_80_Fill_v2" fill="#DCE6F2"/></g></svg>