<?xml version="1.0" encoding="UTF-8"?><svg xmlns="http://www.w3.org/2000/svg" xmlns:xlink="http://www.w3.org/1999/xlink" contentScriptType="text/ecmascript" fill="#cae8ff" width="221" zoomAndPan="magnify" contentStyleType="text/css" viewBox="-20.7 -6.8 221.0 208.5" height="208.5" preserveAspectRatio="xMidYMid meet" version="1"><g id="change1_1"><path fill="inherit" d="M105.623,36.693c-7.581,0.004-16.651,0.818-26.034,3.634c-9.369,2.812-19.092,7.681-27.525,15.746 c-0.29,0.277-0.545,0.575-0.784,0.881C38.364,54.113,22.027,55.529,7.89,72.238c-28.612,33.821,29.166,63.322,37.538,36.956 c5.978-18.827-1.991-35.385,7.278-41.011c1.433,1.107,3.154,1.674,4.884,1.674c1.986,0,3.976-0.735,5.525-2.216 c0.531-0.507,1.078-0.974,1.622-1.449c2.69,0.124,5.8,0.465,9.402,1.045c0,0-2.222-1.699-5.988-3.786 c5.033-3.644,10.49-6.13,16.04-7.801c5.898-1.776,11.864-2.588,17.281-2.851c-9.812,18.894-13.268,31.647-14.111,53.995 c0.303,7.912,2.944,12.773,6.614,15.836c-0.499,5.378-2.115,13.516-6.866,22.055c-6.308,11.221-17.724,23.677-41.546,32.828 c-6.454,2.455-9.693,9.676-7.238,16.13c1.899,4.988,6.648,8.056,11.687,8.056c1.478,0.001,2.98-0.264,4.443-0.821 c28.703-10.837,45.622-27.861,54.521-44.072c4.981-9.011,7.575-17.601,8.898-24.71l21.215,7.303l12.988,44.741 c1.924,6.631,8.86,10.445,15.489,8.521c6.63-1.924,10.445-8.86,8.521-15.489h-0.002l-14.795-50.968 c-1.13-3.893-4.103-7.015-7.935-8.334l-30.474-10.489c1.387-10.813,5.014-21.886,8.499-31.524c-0.935-0.551-1.866-1.118-2.791-1.72 c-7.062-4.61-11.416-9.199-12.582-10.496c-1.815-2.068-2.688-4.643-2.514-7.307c0.175-2.667,1.377-5.104,3.385-6.866 c1.823-1.6,4.165-2.481,6.591-2.481c2.866,0,5.6,1.232,7.496,3.378l0.397,0.421c0.478,0.49,1.023,1.017,1.608,1.548 c1.055,0.964,2.63,2.304,4.627,3.737c0.438-7.079-2.175-13.861-7.859-16.25c-1.175-0.494-2.454-0.855-3.8-1.079 c-0.011-0.003-0.021-0.006-0.03-0.009C125.494,38.641,117.307,36.699,105.623,36.693z M14.479,72.49c0,0-4.943,8.26-5.664,13.718 c-0.72,5.459-1.69,7.571,6.23,22.952C-6.358,93.913,14.479,72.49,14.479,72.49z"/><ellipse rx="22.494" ry="22.495" fill="inherit" cx="154.774" transform="rotate(-68.086 154.783 22.5)" cy="22.501"/><path fill="inherit" d="M129.918,52.168c-0.18-0.187-0.309-0.324-0.382-0.404c-0.032-0.034-0.053-0.058-0.064-0.069 c-0.002-0.002-0.004-0.003-0.004-0.003c-2.916-3.301-7.956-3.625-11.271-0.718c-3.321,2.913-3.651,7.968-0.738,11.289 c0.333,0.369,4.623,5.237,12.223,10.2c7.577,4.932,18.634,10.056,32.241,10.071c0.038,0,0.078,0,0.117,0 c10.293,0,21.843-3.108,33.52-10.879c3.683-2.44,4.69-7.405,2.247-11.087c-2.44-3.682-7.404-4.69-11.087-2.247 c-9.415,6.211-17.581,8.19-24.797,8.213c-9.454,0.013-17.622-3.637-23.504-7.476c-2.928-1.907-5.248-3.832-6.791-5.239 C130.858,53.115,130.282,52.542,129.918,52.168z"/></g></svg>