<?xml version="1.0" encoding="UTF-8"?><svg xmlns="http://www.w3.org/2000/svg" xmlns:xlink="http://www.w3.org/1999/xlink" contentScriptType="text/ecmascript" fill="#000000" width="454" zoomAndPan="magnify" contentStyleType="text/css" viewBox="29.0 71.5 454.0 369.0" height="369" preserveAspectRatio="xMidYMid meet" version="1"><g fill="#100f0d" id="change1_1"><path fill="inherit" d="M 426.515625 239.851562 C 425.175781 239.308594 423.667969 239.367188 422.378906 240.023438 C 408.890625 246.859375 394.023438 251.261719 378.160156 253.128906 C 352.785156 231.65625 316.648438 218.207031 276.597656 218.207031 C 268.757812 218.207031 261.066406 218.730469 253.578125 219.71875 C 266.023438 204.320312 272.75 186.324219 272.75 167.8125 C 272.75 153.636719 268.851562 140.164062 261.859375 128.03125 C 281.039062 99.671875 319.609375 81.492188 361.128906 81.492188 C 422.816406 81.492188 473.007812 120.21875 473.007812 167.8125 C 473.007812 186.515625 465.351562 204.320312 450.875 219.304688 C 449.582031 220.640625 449.140625 222.582031 449.722656 224.347656 L 459.21875 253.101562 Z M 276.597656 427.453125 C 251.4375 427.453125 227.058594 421.839844 206.09375 411.214844 C 205.382812 410.855469 204.605469 410.675781 203.832031 410.675781 C 203.191406 410.675781 202.558594 410.796875 201.953125 411.039062 L 163.027344 426.8125 L 174.402344 392.371094 C 174.984375 390.609375 174.539062 388.667969 173.25 387.332031 C 156.527344 370.023438 147.6875 349.445312 147.6875 327.828125 C 147.6875 272.894531 205.515625 228.207031 276.597656 228.207031 C 315.089844 228.207031 349.691406 241.316406 373.328125 262.058594 C 373.417969 262.140625 373.503906 262.21875 373.597656 262.292969 C 393.453125 279.820312 405.503906 302.757812 405.503906 327.828125 C 405.503906 382.765625 347.675781 427.453125 276.597656 427.453125 Z M 89.621094 240.023438 C 88.332031 239.371094 86.820312 239.3125 85.484375 239.851562 L 52.78125 253.101562 L 62.277344 224.347656 C 62.859375 222.582031 62.417969 220.640625 61.125 219.304688 C 46.648438 204.320312 38.992188 186.515625 38.992188 167.8125 C 38.992188 120.21875 89.183594 81.492188 150.871094 81.492188 C 212.5625 81.492188 262.75 120.21875 262.75 167.8125 C 262.75 187.839844 253.640625 207.285156 237.109375 222.726562 C 213.804688 228.1875 193.042969 238.351562 176.597656 251.824219 C 168.207031 253.351562 159.5625 254.132812 150.871094 254.132812 C 129.015625 254.132812 107.835938 249.253906 89.621094 240.023438 Z M 460.148438 224.03125 C 475.113281 207.609375 483.007812 188.230469 483.007812 167.8125 C 483.007812 114.703125 428.332031 71.492188 361.128906 71.492188 C 317.300781 71.492188 277.765625 89.550781 255.945312 119.0625 C 234.738281 90.621094 195.582031 71.492188 150.871094 71.492188 C 83.667969 71.492188 28.992188 114.703125 28.992188 167.8125 C 28.992188 188.230469 36.886719 207.605469 51.851562 224.03125 L 39.894531 260.226562 C 39.285156 262.078125 39.804688 264.113281 41.226562 265.445312 C 42.171875 266.328125 43.398438 266.796875 44.644531 266.796875 C 45.277344 266.796875 45.914062 266.675781 46.523438 266.429688 L 87.15625 249.964844 C 106.289062 259.238281 128.265625 264.132812 150.871094 264.132812 C 155.3125 264.132812 159.742188 263.933594 164.140625 263.558594 C 147.511719 281.628906 137.6875 303.839844 137.6875 327.828125 C 137.6875 351.164062 146.765625 373.3125 163.972656 392.066406 L 150.140625 433.9375 C 149.53125 435.789062 150.050781 437.824219 151.472656 439.15625 C 152.417969 440.039062 153.644531 440.507812 154.890625 440.507812 C 155.523438 440.507812 156.160156 440.386719 156.769531 440.140625 L 203.621094 421.152344 C 225.511719 431.824219 250.6875 437.453125 276.597656 437.453125 C 353.191406 437.453125 415.503906 388.277344 415.503906 327.828125 C 415.503906 303.089844 405.0625 280.242188 387.480469 261.878906 C 400.695312 259.59375 413.222656 255.605469 424.847656 249.964844 L 465.480469 266.429688 C 466.085938 266.675781 466.722656 266.796875 467.355469 266.796875 C 468.601562 266.796875 469.828125 266.328125 470.773438 265.445312 C 472.195312 264.113281 472.714844 262.078125 472.105469 260.226562 L 460.148438 224.03125"/><path fill="inherit" d="M 333.484375 323.726562 C 333.40625 323.941406 333.339844 324.203125 333.289062 324.425781 C 333.230469 324.714844 326.722656 353.199219 276.597656 379.835938 C 226.472656 353.199219 219.960938 324.714844 219.910156 324.464844 C 219.859375 324.214844 219.792969 323.96875 219.707031 323.726562 C 218.675781 320.847656 218.148438 317.816406 218.148438 314.714844 C 218.148438 299.976562 230.136719 287.992188 244.871094 287.992188 C 259.609375 287.992188 271.597656 299.976562 271.597656 314.714844 C 271.597656 317.476562 273.835938 319.714844 276.597656 319.714844 C 279.359375 319.714844 281.597656 317.476562 281.597656 314.714844 C 281.597656 299.976562 293.585938 287.992188 308.316406 287.992188 C 323.054688 287.992188 335.042969 299.976562 335.042969 314.714844 C 335.042969 317.816406 334.515625 320.847656 333.484375 323.726562 Z M 308.316406 277.992188 C 294.804688 277.992188 282.972656 285.328125 276.597656 296.230469 C 270.21875 285.328125 258.390625 277.992188 244.871094 277.992188 C 224.625 277.992188 208.148438 294.464844 208.148438 314.714844 C 208.148438 318.855469 208.832031 322.921875 210.1875 326.796875 C 211.167969 330.976562 220.105469 361.933594 274.300781 389.925781 C 275.023438 390.296875 275.808594 390.480469 276.597656 390.480469 C 277.386719 390.480469 278.171875 390.296875 278.890625 389.925781 C 333.085938 361.933594 342.027344 330.972656 343.007812 326.796875 C 344.359375 322.921875 345.042969 318.855469 345.042969 314.714844 C 345.042969 294.464844 328.566406 277.992188 308.316406 277.992188"/><path fill="inherit" d="M 163.140625 191.609375 L 163.140625 168.175781 C 163.140625 159.898438 169.871094 153.167969 178.148438 153.167969 L 193.578125 153.167969 C 199.0625 153.167969 203.523438 157.632812 203.523438 163.113281 L 203.523438 196.667969 C 203.523438 202.152344 199.0625 206.613281 193.578125 206.613281 L 178.148438 206.613281 C 169.871094 206.613281 163.140625 199.882812 163.140625 191.609375 Z M 187.171875 216.613281 L 193.578125 216.613281 C 204.574219 216.613281 213.523438 207.664062 213.523438 196.667969 L 213.523438 163.113281 C 213.523438 152.117188 204.574219 143.167969 193.578125 143.167969 L 175.445312 143.167969 L 181.796875 120.308594 C 183.199219 115.261719 182.1875 109.976562 179.015625 105.804688 C 175.84375 101.636719 171.023438 99.242188 165.558594 99.242188 C 159.113281 99.242188 153.195312 103.019531 150.484375 108.867188 L 140.925781 129.464844 C 137.0625 137.789062 128.632812 143.167969 119.453125 143.167969 L 93.222656 143.167969 C 90.460938 143.167969 88.222656 145.40625 88.222656 148.167969 C 88.222656 150.929688 90.460938 153.167969 93.222656 153.167969 L 119.453125 153.167969 C 132.511719 153.167969 144.5 145.515625 149.996094 133.671875 L 159.554688 113.074219 C 160.636719 110.746094 162.992188 109.242188 165.785156 109.242188 C 167.871094 109.242188 169.792969 110.195312 171.054688 111.855469 C 172.316406 113.515625 172.71875 115.621094 172.164062 117.632812 L 164.054688 146.832031 C 163.980469 147.097656 163.9375 147.367188 163.90625 147.636719 C 157.40625 152.15625 153.140625 159.675781 153.140625 168.175781 L 153.140625 191.609375 C 153.140625 197.234375 155.007812 202.433594 158.15625 206.613281 L 93.222656 206.613281 C 90.460938 206.613281 88.222656 208.851562 88.222656 211.613281 C 88.222656 214.375 90.460938 216.613281 93.222656 216.613281 L 187.171875 216.613281"/><path fill="inherit" d="M 312.285156 159.535156 C 300.21875 159.535156 300.199219 178.285156 312.285156 178.285156 C 324.347656 178.285156 324.367188 159.535156 312.285156 159.535156"/><path fill="inherit" d="M 367 159.535156 C 354.9375 159.535156 354.914062 178.285156 367 178.285156 C 379.0625 178.285156 379.085938 159.535156 367 159.535156"/><path fill="inherit" d="M 421.714844 159.535156 C 409.652344 159.535156 409.632812 178.285156 421.714844 178.285156 C 433.78125 178.285156 433.800781 159.535156 421.714844 159.535156"/></g></svg>