<?xml version="1.0" encoding="UTF-8"?><svg xmlns="http://www.w3.org/2000/svg" xmlns:xlink="http://www.w3.org/1999/xlink" contentScriptType="text/ecmascript" fill="#ffffff" width="300" zoomAndPan="magnify" contentStyleType="text/css" viewBox="0.0 0.0 300.0 300.0" height="300" preserveAspectRatio="xMidYMid meet" version="1"><g id="change1_7"><path fill="inherit" d="M278.1 0H279.1V300H278.1z"/></g><g id="change1_12"><path fill="inherit" d="M235.2 0H236.2V300H235.2z"/></g><g id="change1_4"><path fill="inherit" d="M192.4 0H193.4V300H192.4z"/></g><g id="change1_1"><path fill="inherit" d="M149.5 0H150.5V300H149.5z"/></g><g id="change1_9"><path fill="inherit" d="M106.7 0H107.7V300H106.7z"/></g><g id="change1_8"><path fill="inherit" d="M63.8 0H64.8V300H63.8z"/></g><g id="change1_6"><path fill="inherit" d="M20.9 0H21.9V300H20.9z"/></g><g id="change1_10"><path fill="inherit" d="M0 278H300V279H0z"/></g><g id="change1_11"><path fill="inherit" d="M0 235.2H300V236.2H0z"/></g><g id="change1_13"><path fill="inherit" d="M0 192.4H300V193.4H0z"/></g><g id="change1_2"><path fill="inherit" d="M0 149.5H300V150.5H0z"/></g><g id="change1_5"><path fill="inherit" d="M0 106.6H300V107.6H0z"/></g><g id="change1_3"><path fill="inherit" d="M0 63.8H300V64.8H0z"/></g><g id="change1_14"><path fill="inherit" d="M0 20.9H300V21.9H0z"/></g></svg>