<?xml version="1.0" encoding="UTF-8"?><svg xmlns="http://www.w3.org/2000/svg" xmlns:xlink="http://www.w3.org/1999/xlink" contentScriptType="text/ecmascript" zoomAndPan="magnify" contentStyleType="text/css" id="Bounds" enable-background="new 0 0 500 341.2113342" version="1.1" xml:space="preserve" width="553.6" fill="#000000" preserveAspectRatio="xMidYMid meet" viewBox="-26.8 -10.9 553.6 363.1" height="363.1" x="0" y="0"><filter xlink:actuate="onLoad" xlink:type="simple" id="AI_GaussianBlur_4" xlink:show="other" xmlns:xlink="http://www.w3.org/1999/xlink"><feGaussianBlur stdDeviation="4"/></filter><g filter="url(#AI_GaussianBlur_4)"><g id="change1_1"><path fill="#2b4b82" d="M447.0187073,261.0019836c-4.2687073,0-7.7297058-3.4605103-7.7297058-7.7296906V34.7836571H60.7109985 v218.4886322c0,4.2691803-3.4610062,7.7296906-7.729702,7.7296906s-7.729702-3.4605103-7.729702-7.7296906V27.053957 c0-4.2691689,3.4610023-7.729702,7.729702-7.729702h394.0374146c4.2687073,0,7.7297058,3.4605331,7.7297058,7.729702v226.218338 C454.7484131,257.5414734,451.2874146,261.0019836,447.0187073,261.0019836z"/></g><g id="change2_1"><path fill="#00bfff" d="M421.8971863,261.0019836H78.102829c-4.2686996,0-7.7297058-3.4605103-7.7297058-7.7296906V52.1754875 c0-4.2691689,3.4610062-7.729702,7.7297058-7.729702h343.7943726c4.2686768,0,7.7296753,3.4605331,7.7296753,7.729702v201.0968018 C429.6268616,257.5414734,426.165863,261.0019836,421.8971863,261.0019836z M85.8325272,245.5425873h328.3349609V59.9051895 H85.8325272V245.5425873z"/></g><g id="change2_2"><path fill="#00bfff" d="M421.8971863,261.0019836H78.102829c-4.2686996,0-7.7297058-3.4605103-7.7297058-7.7296906V52.1754875 c0-4.2691689,3.4610062-7.729702,7.7297058-7.729702h343.7943726c4.2686768,0,7.7296753,3.4605331,7.7296753,7.729702v201.0968018 C429.6268616,257.5414734,426.165863,261.0019836,421.8971863,261.0019836z M85.8325272,245.5425873h328.3349609V59.9051895 H85.8325272V245.5425873z"/></g><g id="change1_2"><path fill="#2b4b82" d="M437.1820068,321.887085H62.8179817c-23.9826469,0-43.4937286-19.5110779-43.4937286-43.4932556 c0-4.269165,3.4610043-7.7297058,7.729702-7.7297058h154.0958405c4.268692,0,7.7297058,3.4605408,7.7297058,7.7297058 s-3.4610138,7.7297058-7.7297058,7.7297058H35.8668747c3.3647614,11.7106018,14.1733208,20.3041382,26.951107,20.3041382 h374.3640137c12.7778015,0,23.5863647-8.5935364,26.9511108-20.3041382H315.9826965 c-4.2686768,0-7.7297058-3.4605408-7.7297058-7.7297058s3.4610291-7.7297058,7.7297058-7.7297058h156.9633484 c4.2687073,0,7.7297058,3.4605408,7.7297058,7.7297058C480.6757507,302.3760071,461.1646729,321.887085,437.1820068,321.887085z"/></g><g id="change2_3"><path fill="#00bfff" d="M280.4602356,304.0055237h-60.9204712c-14.1223755,0-25.6112366-11.4893188-25.6112366-25.6116943 c0-4.269165,3.4609985-7.7297058,7.7296906-7.7297058h96.683548c4.2687073,0,7.7297058,3.4605408,7.7297058,7.7297058 C306.0714722,292.5162048,294.5826111,304.0055237,280.4602356,304.0055237z M212.9649963,286.1235352 c1.7729492,1.5101624,4.0686493,2.4226074,6.5747681,2.4226074h60.9204712c2.5061035,0,4.8018188-0.9124451,6.5747681-2.4226074 H212.9649963z"/></g><g id="change3_1"><path fill="#5af63a" d="M289.8638306,172.0170135h-83.2811279c-3.4223175,0-6.4370117-2.249939-7.4098358-5.5307312 L177.8737335,94.719986h-12.1833496c-4.268692,0-7.7296906-3.4605331-7.7296906-7.7296982 c0-4.2691727,3.4609985-7.7297058,7.7296906-7.7297058h17.9523163c3.4223175,0,6.4370117,2.249939,7.4098358,5.5307236 l21.2991333,71.7662964h72.246109l11.3746948-28.9241028H212.566803c-4.268692,0-7.7297058-3.4605331-7.7297058-7.7297058 s3.4610138-7.7296982,7.7297058-7.7296982h94.7511292c2.5570679,0,4.9480591,1.2643738,6.3879395,3.3774948 s1.7408752,4.8013382,0.8058167,7.181015l-17.4541016,44.3835144 C295.894165,170.0727844,293.040802,172.0170135,289.8638306,172.0170135z"/></g><g id="change3_2"><path fill="#5af63a" d="M213.9868774,231.9533386c-10.088623,0-18.2957764-8.2076263-18.2957764-18.2957764 c0-10.0881348,8.2071533-18.2957611,18.2957764-18.2957611s18.2957611,8.2076263,18.2957611,18.2957611 C232.2826385,223.7457123,224.0755005,231.9533386,213.9868774,231.9533386z M213.9868774,210.8212128 c-1.5644379,0-2.8363647,1.2723999-2.8363647,2.8363495c0,1.5639648,1.2719269,2.8363647,2.8363647,2.8363647 c1.5644226,0,2.8363647-1.2723999,2.8363647-2.8363647C216.8232422,212.0936127,215.5513,210.8212128,213.9868774,210.8212128z"/></g><g id="change3_3"><path fill="#5af63a" d="M290.2044373,231.9533386c-10.0885925,0-18.2957458-8.2076263-18.2957458-18.2957764 c0-10.0881348,8.2071533-18.2957611,18.2957458-18.2957611c10.088623,0,18.2957764,8.2076263,18.2957764,18.2957611 C308.5002136,223.7457123,300.2930603,231.9533386,290.2044373,231.9533386z M290.2044373,210.8212128 c-1.5644226,0-2.8363342,1.2723999-2.8363342,2.8363495c0,1.5639648,1.2719116,2.8363647,2.8363342,2.8363647 c1.5644531,0,2.8363647-1.2723999,2.8363647-2.8363647C293.040802,212.0936127,291.7688904,210.8212128,290.2044373,210.8212128z"/></g><g id="change3_4"><path fill="#5af63a" d="M211.7034454,189.2842865c-3.3336334,0-6.4105988-2.1735077-7.4070129-5.532608l-5.1245117-17.2653961 c-1.2143707-4.0927124,1.1190796-8.3949127,5.211319-9.6092834c4.0960388-1.2153168,8.395874,1.1190796,9.6092987,5.211319 l5.1245117,17.2653961c1.2143707,4.0927277-1.1190796,8.3949127-5.211319,9.6092834 C213.1716309,189.1804962,212.4309235,189.2842865,211.7034454,189.2842865z"/></g><g id="change1_3"><path fill="#2b4b82" d="M447.0187073,261.0019836c-4.2687073,0-7.7297058-3.4605103-7.7297058-7.7296906V34.7836571H60.7109985 v218.4886322c0,4.2691803-3.4610062,7.7296906-7.729702,7.7296906s-7.729702-3.4605103-7.729702-7.7296906V27.053957 c0-4.2691689,3.4610023-7.729702,7.729702-7.729702h394.0374146c4.2687073,0,7.7297058,3.4605331,7.7297058,7.729702v226.218338 C454.7484131,257.5414734,451.2874146,261.0019836,447.0187073,261.0019836z"/></g><g id="change2_4"><path fill="#00bfff" d="M421.8971863,261.0019836H78.102829c-4.2686996,0-7.7297058-3.4605103-7.7297058-7.7296906V52.1754875 c0-4.2691689,3.4610062-7.729702,7.7297058-7.729702h343.7943726c4.2686768,0,7.7296753,3.4605331,7.7296753,7.729702v201.0968018 C429.6268616,257.5414734,426.165863,261.0019836,421.8971863,261.0019836z M85.8325272,245.5425873h328.3349609V59.9051895 H85.8325272V245.5425873z"/></g><g id="change2_5"><path fill="#00bfff" d="M421.8971863,261.0019836H78.102829c-4.2686996,0-7.7297058-3.4605103-7.7297058-7.7296906V52.1754875 c0-4.2691689,3.4610062-7.729702,7.7297058-7.729702h343.7943726c4.2686768,0,7.7296753,3.4605331,7.7296753,7.729702v201.0968018 C429.6268616,257.5414734,426.165863,261.0019836,421.8971863,261.0019836z M85.8325272,245.5425873h328.3349609V59.9051895 H85.8325272V245.5425873z"/></g><g id="change1_4"><path fill="#2b4b82" d="M437.1820068,321.887085H62.8179817c-23.9826469,0-43.4937286-19.5110779-43.4937286-43.4932556 c0-4.269165,3.4610043-7.7297058,7.729702-7.7297058h154.0958405c4.268692,0,7.7297058,3.4605408,7.7297058,7.7297058 s-3.4610138,7.7297058-7.7297058,7.7297058H35.8668747c3.3647614,11.7106018,14.1733208,20.3041382,26.951107,20.3041382 h374.3640137c12.7778015,0,23.5863647-8.5935364,26.9511108-20.3041382H315.9826965 c-4.2686768,0-7.7297058-3.4605408-7.7297058-7.7297058s3.4610291-7.7297058,7.7297058-7.7297058h156.9633484 c4.2687073,0,7.7297058,3.4605408,7.7297058,7.7297058C480.6757507,302.3760071,461.1646729,321.887085,437.1820068,321.887085z"/></g><g id="change2_6"><path fill="#00bfff" d="M280.4602356,304.0055237h-60.9204712c-14.1223755,0-25.6112366-11.4893188-25.6112366-25.6116943 c0-4.269165,3.4609985-7.7297058,7.7296906-7.7297058h96.683548c4.2687073,0,7.7297058,3.4605408,7.7297058,7.7297058 C306.0714722,292.5162048,294.5826111,304.0055237,280.4602356,304.0055237z M212.9649963,286.1235352 c1.7729492,1.5101624,4.0686493,2.4226074,6.5747681,2.4226074h60.9204712c2.5061035,0,4.8018188-0.9124451,6.5747681-2.4226074 H212.9649963z"/></g><g id="change3_5"><path fill="#5af63a" d="M289.8638306,172.0170135h-83.2811279c-3.4223175,0-6.4370117-2.249939-7.4098358-5.5307312 L177.8737335,94.719986h-12.1833496c-4.268692,0-7.7296906-3.4605331-7.7296906-7.7296982 c0-4.2691727,3.4609985-7.7297058,7.7296906-7.7297058h17.9523163c3.4223175,0,6.4370117,2.249939,7.4098358,5.5307236 l21.2991333,71.7662964h72.246109l11.3746948-28.9241028H212.566803c-4.268692,0-7.7297058-3.4605331-7.7297058-7.7297058 s3.4610138-7.7296982,7.7297058-7.7296982h94.7511292c2.5570679,0,4.9480591,1.2643738,6.3879395,3.3774948 s1.7408752,4.8013382,0.8058167,7.181015l-17.4541016,44.3835144 C295.894165,170.0727844,293.040802,172.0170135,289.8638306,172.0170135z"/></g><g id="change3_6"><path fill="#5af63a" d="M213.9868774,231.9533386c-10.088623,0-18.2957764-8.2076263-18.2957764-18.2957764 c0-10.0881348,8.2071533-18.2957611,18.2957764-18.2957611s18.2957611,8.2076263,18.2957611,18.2957611 C232.2826385,223.7457123,224.0755005,231.9533386,213.9868774,231.9533386z M213.9868774,210.8212128 c-1.5644379,0-2.8363647,1.2723999-2.8363647,2.8363495c0,1.5639648,1.2719269,2.8363647,2.8363647,2.8363647 c1.5644226,0,2.8363647-1.2723999,2.8363647-2.8363647C216.8232422,212.0936127,215.5513,210.8212128,213.9868774,210.8212128z"/></g><g id="change3_7"><path fill="#5af63a" d="M290.2044373,231.9533386c-10.0885925,0-18.2957458-8.2076263-18.2957458-18.2957764 c0-10.0881348,8.2071533-18.2957611,18.2957458-18.2957611c10.088623,0,18.2957764,8.2076263,18.2957764,18.2957611 C308.5002136,223.7457123,300.2930603,231.9533386,290.2044373,231.9533386z M290.2044373,210.8212128 c-1.5644226,0-2.8363342,1.2723999-2.8363342,2.8363495c0,1.5639648,1.2719116,2.8363647,2.8363342,2.8363647 c1.5644531,0,2.8363647-1.2723999,2.8363647-2.8363647C293.040802,212.0936127,291.7688904,210.8212128,290.2044373,210.8212128z"/></g><g id="change3_8"><path fill="#5af63a" d="M211.7034454,189.2842865c-3.3336334,0-6.4105988-2.1735077-7.4070129-5.532608l-5.1245117-17.2653961 c-1.2143707-4.0927124,1.1190796-8.3949127,5.211319-9.6092834c4.0960388-1.2153168,8.395874,1.1190796,9.6092987,5.211319 l5.1245117,17.2653961c1.2143707,4.0927277-1.1190796,8.3949127-5.211319,9.6092834 C213.1716309,189.1804962,212.4309235,189.2842865,211.7034454,189.2842865z"/></g></g><g id="change4_1"><path fill="#000000" d="M50.0825195,253.2722931V27.0539093c0-1.600708,1.2976074-2.8986816,2.8989258-2.8986816h394.0371094 c1.6013184,0,2.8989258,1.2979736,2.8989258,2.8986816v226.2183838c0,1.600708-1.2976074,2.8985443-2.8989258,2.8985443 c-1.6010742,0-2.8984375-1.2978363-2.8984375-2.8985443V29.9525909H55.8798828v223.3197021 c0,1.600708-1.2973633,2.8985443-2.8984375,2.8985443C51.380127,256.1708374,50.0825195,254.8730011,50.0825195,253.2722931z M421.8972168,256.1708374H78.1027832c-1.6013184,0-2.8986816-1.2978363-2.8986816-2.8985443V52.1754913 c0-1.6008301,1.2973633-2.8986816,2.8986816-2.8986816h343.7944336c1.6013184,0,2.8986816,1.2978516,2.8986816,2.8986816 v201.0968018C424.7958984,254.8730011,423.4985352,256.1708374,421.8972168,256.1708374z M418.9985352,55.074173H81.0014648 v195.2994385h337.9970703V55.074173z M472.9460449,275.4951782H315.982666c-1.6013184,0-2.8986816,1.2978516-2.8986816,2.8985596 c0,1.6008301,1.2973633,2.8986816,2.8986816,2.8986816h153.9382324 c-1.4729004,16.7695313-15.5932617,29.9663086-32.7387695,29.9663086H62.8178711 c-17.1455078,0-31.2658691-13.1967773-32.7387695-29.9663086h151.0708008c1.6010742,0,2.8984375-1.2978516,2.8984375-2.8986816 c0-1.600708-1.2973633-2.8985596-2.8984375-2.8985596H27.0539551c-1.6013184,0-2.8986816,1.2978516-2.8986816,2.8985596 c0,21.3186035,17.34375,38.6622314,38.6625977,38.6622314h374.3642578c21.3188477,0,38.6625977-17.3436279,38.6625977-38.6622314 C475.8447266,276.7930298,474.5473633,275.4951782,472.9460449,275.4951782z M298.3417969,275.4951782 c1.6010742,0,2.8986816,1.2978516,2.8986816,2.8985596c0,11.4587402-9.3215332,20.7807617-20.7802734,20.7807617h-60.9204102 c-11.4587402,0-20.7802734-9.3220215-20.7802734-20.7807617c0-1.600708,1.2976074-2.8985596,2.8986816-2.8985596H298.3417969z M295.1618652,281.2924194h-90.3237305c1.3540039,6.8796387,7.4313965,12.0847168,14.7016602,12.0847168h60.9204102 C287.7304688,293.3771362,293.8078613,288.1720581,295.1618652,281.2924194z M165.6904297,89.8888702h15.7885742 l22.3249512,75.2231445l5.1235352,17.2653809c0.3737793,1.2596436,1.5275879,2.0749512,2.777832,2.0749512 c0.2727051,0,0.5500488-0.0393066,0.8256836-0.1208496c1.5341797-0.4553223,2.4099121-2.0688477,1.9541016-3.6035156 l-4.0187988-13.5419922h79.3974609c1.1918945,0,2.2617188-0.7290039,2.6977539-1.8376465l17.4541016-44.3835449 c0.3510742-0.8925781,0.237793-1.9008789-0.302002-2.6928711c-0.5397949-0.7927246-1.4370117-1.2668457-2.395752-1.2668457 h-94.7509766c-1.6013184,0-2.8986816,1.2978516-2.8986816,2.8986816s1.2973633,2.8986816,2.8986816,2.8986816h90.496582 l-15.1745605,38.5861816h-79.1425781l-22.3249512-75.2230225c-0.3649902-1.2303467-1.4953613-2.0739746-2.7788086-2.0739746 h-17.9521484c-1.6013184,0-2.8986816,1.2978516-2.8986816,2.8985596 C162.791748,88.5910187,164.0891113,89.8888702,165.6904297,89.8888702z M227.4516602,213.657547 c0,7.4244385-6.0397949,13.4647217-13.4648438,13.4647217c-7.4248047,0-13.4645996-6.0402832-13.4645996-13.4647217 s6.0397949-13.4647217,13.4645996-13.4647217C221.4118652,200.1928253,227.4516602,206.2331085,227.4516602,213.657547z M221.6542969,213.657547c0-4.2276611-3.439209-7.6673584-7.6674805-7.6673584 c-4.2280273,0-7.6674805,3.4396973-7.6674805,7.6673584s3.4394531,7.6673584,7.6674805,7.6673584 C218.2150879,221.3249054,221.6542969,217.8852081,221.6542969,213.657547z M303.6691895,213.657547 c0,7.4244385-6.0397949,13.4647217-13.4645996,13.4647217c-7.4250488,0-13.4648438-6.0402832-13.4648438-13.4647217 s6.0397949-13.4647217,13.4648438-13.4647217C297.6293945,200.1928253,303.6691895,206.2331085,303.6691895,213.657547z M297.8718262,213.657547c0-4.2276611-3.439209-7.6673584-7.6672363-7.6673584 c-4.2282715,0-7.6674805,3.4396973-7.6674805,7.6673584s3.439209,7.6673584,7.6674805,7.6673584 C294.4326172,221.3249054,297.8718262,217.8852081,297.8718262,213.657547z"/></g></svg>