<svg width="502" height="502" viewBox="0 0 502 502" xmlns="http://www.w3.org/2000/svg" xmlns:xlink="http://www.w3.org/1999/xlink" overflow="hidden"><style>
.MsftOfcThm_Text2_lumMod_20_lumOff_80_Fill_v2 {
 fill:#C6D9F1; 
}
</style>
<g id="change1_1"><path d="M262.3 502 239.6 502 239.6 306.2 162.5 486.2 141.7 477.3 217.4 300.7 81.5 436.5 65.5 420.5 203.9 282 22.2 354.8 13.8 333.8 14.7 333.4 192.2 262.4 0 262.4 0 239.7 195.8 239.7 15.8 162.6 24.7 141.8 25.6 142.2 201.3 217.5 65.5 81.5 81.5 65.5 220 203.9 147.2 22.2 168.2 13.8 168.6 14.7 239.6 192.2 239.6 0 262.3 0 262.3 195.8 339.4 15.8 360.2 24.7 284.5 201.3 420.5 65.5 436.5 81.5 298.1 220 479.9 147.3 488.3 168.3 487.4 168.7 309.9 239.7 502 239.7 502 262.4 306.2 262.4 486.2 339.5 477.3 360.3 300.6 284.6 436.5 420.5 420.5 436.5 282 298.1 354.7 479.9 333.7 488.3 333.3 487.4 262.3 309.9 262.3 502ZM241.7 500 260.4 500 260.4 299.4 334.9 485.6 352.2 478.7 276.6 289.7 420.5 433.6 433.7 420.4 291.9 278.7 476.3 357.7 483.7 340.5 296.6 260.4 500 260.4 500 241.7 299.4 241.7 485.6 167.2 478.7 149.9 289.7 225.5 433.7 81.5 420.5 68.3 278.7 210.1 357.7 25.7 340.5 18.3 260.4 205.4 260.4 2 241.7 2 241.7 202.6 167.2 16.4 149.9 23.3 225.5 212.3 81.5 68.3 68.3 81.5 210.1 223.3 25.7 144.3 18.4 161.5 205.5 241.6 2 241.6 2 260.3 202.6 260.3 16.4 334.8 23.3 352.1 212.3 276.5 68.3 420.5 81.5 433.7 223.3 291.9 144.3 476.3 161.5 483.6 241.6 296.5 241.6 500Z" class="MsftOfcThm_Text2_lumMod_20_lumOff_80_Fill_v2" fill="#C6D9F1"/></g></svg>