<?xml version="1.0" encoding="UTF-8"?><svg xmlns="http://www.w3.org/2000/svg" xmlns:xlink="http://www.w3.org/1999/xlink" contentScriptType="text/ecmascript" fill="#000000" width="425.7" zoomAndPan="magnify" contentStyleType="text/css" viewBox="43.1 47.5 425.7 417.1" height="417.1" preserveAspectRatio="xMidYMid meet" version="1"><g fill="#100f0d" id="change1_1"><path fill="inherit" d="M 109.167969 391.503906 C 93.320312 391.503906 80.425781 378.613281 80.425781 362.765625 C 80.425781 346.914062 93.320312 334.019531 109.167969 334.019531 C 125.019531 334.019531 137.910156 346.914062 137.910156 362.765625 C 137.910156 378.613281 125.019531 391.503906 109.167969 391.503906 Z M 135.007812 396.777344 C 145.269531 388.964844 151.90625 376.628906 151.90625 362.765625 C 151.90625 339.199219 132.734375 320.023438 109.167969 320.023438 C 85.601562 320.023438 66.433594 339.199219 66.433594 362.765625 C 66.433594 376.628906 73.070312 388.964844 83.332031 396.777344 C 59.726562 406.851562 43.140625 430.292969 43.140625 457.535156 C 43.140625 461.398438 46.273438 464.53125 50.136719 464.53125 C 54 464.53125 57.136719 461.398438 57.136719 457.535156 C 57.136719 428.84375 80.476562 405.5 109.167969 405.5 C 137.859375 405.5 161.203125 428.84375 161.203125 457.535156 C 161.203125 461.398438 164.339844 464.53125 168.199219 464.53125 C 172.0625 464.53125 175.199219 461.398438 175.199219 457.535156 C 175.199219 430.292969 158.613281 406.851562 135.007812 396.777344"/><path fill="inherit" d="M 409.828125 196.328125 C 429.570312 196.328125 445.570312 180.324219 445.570312 160.585938 C 445.570312 140.847656 429.570312 124.84375 409.828125 124.84375 C 390.089844 124.84375 374.089844 140.847656 374.089844 160.585938 C 374.089844 180.324219 390.089844 196.328125 409.828125 196.328125"/><path fill="inherit" d="M 409.828125 205.480469 C 377.226562 205.480469 350.800781 231.910156 350.800781 264.511719 L 468.859375 264.511719 C 468.859375 231.910156 442.433594 205.480469 409.828125 205.480469"/><path fill="inherit" d="M 63.402344 112.972656 C 63.402344 84.566406 86.511719 61.460938 114.914062 61.460938 L 260.472656 61.460938 C 288.871094 61.460938 311.976562 84.566406 311.976562 112.972656 L 311.976562 142.488281 C 311.976562 155.644531 307.019531 168.167969 298.019531 177.753906 C 296.144531 179.742188 295.605469 182.644531 296.636719 185.179688 L 309.390625 216.554688 L 263.480469 194.675781 C 262.539062 194.226562 261.515625 193.996094 260.472656 193.996094 L 114.914062 193.996094 C 86.511719 193.996094 63.402344 170.890625 63.402344 142.488281 Z M 114.914062 207.988281 L 258.890625 207.988281 L 319.652344 236.949219 C 320.613281 237.40625 321.644531 237.632812 322.664062 237.632812 C 324.414062 237.632812 326.140625 236.976562 327.46875 235.726562 C 329.566406 233.742188 330.238281 230.675781 329.148438 228 L 311.226562 183.90625 C 320.765625 172.230469 325.972656 157.691406 325.972656 142.488281 L 325.972656 112.972656 C 325.972656 76.851562 296.589844 47.46875 260.472656 47.46875 L 114.914062 47.46875 C 78.792969 47.46875 49.40625 76.851562 49.40625 112.972656 L 49.40625 142.488281 C 49.40625 178.605469 78.792969 207.988281 114.914062 207.988281"/><path fill="inherit" d="M 393.695312 356.425781 C 393.695312 374.945312 378.632812 390.011719 360.113281 390.011719 L 236.578125 390.011719 C 235.585938 390.011719 234.605469 390.222656 233.703125 390.632812 L 204.46875 403.816406 L 212.851562 386.863281 C 214.128906 384.28125 213.6875 381.171875 211.75 379.046875 C 206.101562 372.855469 202.988281 364.816406 202.988281 356.425781 L 202.988281 337.980469 C 202.988281 319.96875 217.640625 305.316406 235.652344 305.316406 L 360.113281 305.316406 C 378.632812 305.316406 393.695312 320.382812 393.695312 338.902344 Z M 360.113281 291.320312 L 235.652344 291.320312 C 209.925781 291.320312 188.992188 312.253906 188.992188 337.980469 L 188.992188 356.425781 C 188.992188 366.675781 192.269531 376.554688 198.304688 384.703125 L 183.261719 415.121094 C 181.953125 417.773438 182.445312 420.957031 184.503906 423.085938 C 185.851562 424.480469 187.675781 425.222656 189.535156 425.222656 C 190.511719 425.222656 191.488281 425.019531 192.410156 424.601562 L 238.082031 404.007812 L 360.113281 404.007812 C 386.347656 404.007812 407.691406 382.664062 407.691406 356.425781 L 407.691406 338.902344 C 407.691406 312.664062 386.347656 291.320312 360.113281 291.320312"/><path fill="inherit" d="M 209.398438 113.847656 L 247.835938 113.847656 C 251.695312 113.847656 254.832031 110.714844 254.832031 106.851562 C 254.832031 102.984375 251.695312 99.851562 247.835938 99.851562 L 209.398438 99.851562 C 205.535156 99.851562 202.398438 102.984375 202.398438 106.851562 C 202.398438 110.714844 205.535156 113.847656 209.398438 113.847656"/><path fill="inherit" d="M 121.105469 113.847656 L 161.4375 113.847656 C 165.300781 113.847656 168.433594 110.714844 168.433594 106.851562 C 168.433594 102.984375 165.300781 99.851562 161.4375 99.851562 L 121.105469 99.851562 C 117.242188 99.851562 114.105469 102.984375 114.105469 106.851562 C 114.105469 110.714844 117.242188 113.847656 121.105469 113.847656"/><path fill="inherit" d="M 247.835938 139.242188 L 231.546875 139.242188 C 227.683594 139.242188 224.550781 142.371094 224.550781 146.238281 C 224.550781 150.105469 227.683594 153.234375 231.546875 153.234375 L 247.835938 153.234375 C 251.695312 153.234375 254.832031 150.105469 254.832031 146.238281 C 254.832031 142.371094 251.695312 139.242188 247.835938 139.242188"/><path fill="inherit" d="M 121.105469 153.234375 L 195.574219 153.234375 C 199.4375 153.234375 202.574219 150.105469 202.574219 146.238281 C 202.574219 142.371094 199.4375 139.242188 195.574219 139.242188 L 121.105469 139.242188 C 117.242188 139.242188 114.105469 142.371094 114.105469 146.238281 C 114.105469 150.105469 117.242188 153.234375 121.105469 153.234375"/><path fill="inherit" d="M 345.234375 336.488281 L 321.253906 336.488281 C 317.390625 336.488281 314.257812 339.621094 314.257812 343.484375 C 314.257812 347.347656 317.390625 350.480469 321.253906 350.480469 L 345.234375 350.480469 C 349.097656 350.480469 352.230469 347.347656 352.230469 343.484375 C 352.230469 339.621094 349.097656 336.488281 345.234375 336.488281"/><path fill="inherit" d="M 299.113281 336.488281 L 247.523438 336.488281 C 243.660156 336.488281 240.527344 339.621094 240.527344 343.484375 C 240.527344 347.347656 243.660156 350.480469 247.523438 350.480469 L 299.113281 350.480469 C 302.976562 350.480469 306.109375 347.347656 306.109375 343.484375 C 306.109375 339.621094 302.976562 336.488281 299.113281 336.488281"/></g></svg>