<?xml version="1.0" encoding="UTF-8"?><svg xmlns="http://www.w3.org/2000/svg" xmlns:xlink="http://www.w3.org/1999/xlink" contentScriptType="text/ecmascript" fill="#000000" width="378.5" zoomAndPan="magnify" contentStyleType="text/css" viewBox="0.0 0.0 378.5 501.3" height="501.3" preserveAspectRatio="xMidYMid meet" version="1"><g id="change1_1"><path fill="#fefefe" d="M14.7,243.9v-20.6l6-3.5v-8L362.4,14.4v51.1L142.8,192.3l-18.9-11.5L14.7,243.9z"/></g><g id="change2_1"><path fill="#94ddde" d="M367.7,62.4V11c0-5.8-2.4-9.6-6.2-9.6c-1.3,0-2.8,0.4-4.3,1.3l-344,198.6 c-6.5,3.8-11.9,14-11.9,22.8v272l9.4-5.4v9.1l366.3-211.5V57L367.7,62.4z M123.9,180.8L14.7,243.9v-20.6l6-3.5v-8L362.4,14.4v51.1 L142.8,192.3L123.9,180.8z"/></g><g id="change3_1"><path fill="#f7b4a7" d="M335.3,178.7l-14.4-9.7l-14.4,26.3V97.2l28.8-16.6V178.7z"/></g><g id="change4_1"><path fill="#2b4b82" d="M369.2,59.9V11c0-6.9-3.1-11-7.6-11c-1.5,0-3.2,0.5-5,1.5l-344,198.6c-6.9,4-12.6,14.8-12.6,24 v273.8l10.9,3.4l367.6-212.2V54.5L369.2,59.9z M9.4,245.3v242.9l-6.5,3.9V224.1c0-8.2,5.1-18.1,11.2-21.6L358,4 c1.3-0.7,2.5-1.1,3.6-1.1c3.5,0,4.8,4.4,4.8,8.2v50.6l-2.5,1.5V12L20,210.5l-0.7,0.4v8l-5.3,3.1l-0.7,0.4v20.6L9.4,245.3z M22.1,217.3v-4.8L361,16.9v47.8l-3.2,1.8v-43L22.1,217.3z M355,42.1L355,42.1l-1,0.3h0c0,0,0.3,1,1,2c0,0,0,0,0.1,0.1v6.8 c-0.2-0.1-0.4-0.2-0.5-0.4c-0.6-0.5-1.2-1.3-1.6-2.3c-0.4-1.1-0.9-2-1.6-2.8c-0.6-0.7-1.5-1.2-2.5-1.2c-1.2,0-2.5,0.7-4.2,2.1 c-1,0.9-1.8,1.2-2.5,1.2c-1,0-1.9-0.6-2.5-1.3c-0.3-0.3-0.6-0.7-0.7-0.9l-0.2-0.3l0-0.1l0,0l-0.9,0.5h0c0,0,0.4,0.8,1.1,1.6 c0.7,0.8,1.8,1.6,3.3,1.6c1,0,2.1-0.4,3.3-1.4c1.5-1.3,2.7-1.8,3.4-1.8c0.7,0,1.2,0.3,1.7,0.9c0.5,0.6,1,1.5,1.4,2.5 c0.5,1.1,1.1,2.1,1.9,2.7c0.4,0.3,0.8,0.6,1.2,0.7v8.2c0,0,0,0-0.1,0c-0.7-0.2-1.4-0.3-2-0.3c-1,0-1.8,0.3-2.4,0.8 c-0.9,0.7-1.4,1.8-1.7,2.6c-0.3,0.9-0.3,1.5-0.3,1.5l1.1,0.1l0,0c0-0.2,0.2-1.3,0.7-2.2c0.2-0.5,0.6-0.9,1-1.2 c0.4-0.3,1-0.5,1.7-0.5c0.5,0,1,0.1,1.6,0.3c0.1,0,0.3,0.1,0.4,0.1v6.3l-5.3,3c-0.2-1-0.6-2-1.1-2.7c-0.6-0.9-1.5-1.5-2.7-1.5 c-1.1,0-2.3,0.4-3.8,1.3c-0.9,0.5-1.6,0.7-2.2,0.7c-0.6,0-1.1-0.2-1.5-0.5c-0.7-0.4-1.1-1.1-1.5-1.7c-0.2-0.3-0.3-0.6-0.4-0.8 l-0.1-0.2l0-0.1l-1,0.3h0c0,0,0.3,1,1,2c0.3,0.5,0.8,1,1.4,1.4c0.6,0.4,1.3,0.7,2.1,0.7c0.8,0,1.8-0.3,2.8-0.9 c1.4-0.9,2.5-1.2,3.3-1.2c0.8,0,1.3,0.3,1.8,1c0.4,0.6,0.7,1.6,1,2.7l-2.7,1.6c0,0,0,0,0,0c0-0.9-0.2-1.6-0.2-1.6l-1,0.2h0l0,0.1 c0,0.2,0.1,0.7,0.1,1.3c0,0.2,0,0.5,0,0.7l-5.3,3.1c-1.2,0.1-2.1,0.4-2.7,0.9c-0.4,0.3-0.7,0.7-0.9,1.2l-9.2,5.3c0,0,0-0.1,0-0.1 c0-1,0.3-1.9,1-2.5c0.7-0.7,1.7-1.1,3.3-1.2l-0.1-1.1c-1.7,0.1-3.1,0.7-4,1.5c-0.2,0.2-0.3,0.3-0.5,0.5c-0.3,0.4-0.5,0.8-0.6,1.2 c-0.1,0.2-0.1,0.4-0.2,0.7c-0.1,0.3-0.1,0.6-0.1,0.9c0,0.2,0,0.5,0.1,0.7l-4.3,2.5c0-0.2,0.1-0.3,0.1-0.5c0-0.9-0.3-2-0.8-3.1 l-1,0.5c0.5,1,0.7,1.9,0.7,2.6c0,0.5-0.1,0.8-0.2,1.2l-4.5,2.6c-1.1,0.2-2.1,0.4-2.9,0.9c-0.6,0.3-1,0.9-1.3,1.5l-7.9,4.6 c-0.1-0.4-0.2-0.9-0.2-1.4c0-0.2,0-0.3,0-0.5c0.1-0.5,0.2-1,0.5-1.4c0.2-0.2,0.4-0.4,0.6-0.6c0.3-0.2,0.6-0.4,0.9-0.5 c0.3-0.1,0.5-0.2,0.9-0.2c0.4-0.1,0.8-0.2,1.1-0.3c0.7-0.2,1.3-0.5,1.8-0.8c0.2-0.1,0.5-0.3,0.7-0.5c0.6-0.5,0.9-1.1,1.1-1.8 c0-0.2,0.1-0.4,0.1-0.7c0-1.3-0.6-2.5-1.4-3.8c-0.6-1-0.9-2-0.9-2.9c0-0.9,0.3-1.6,0.9-2.2c0.6-0.6,1.5-1.2,2.9-1.5l-0.2-1 c-0.8,0.2-1.4,0.4-2,0.7c-0.3,0.2-0.6,0.3-0.8,0.5c-0.2,0.2-0.5,0.4-0.7,0.6c-0.4,0.4-0.7,0.9-0.9,1.4c-0.2,0.5-0.3,1-0.3,1.6 c0,0.3,0,0.6,0.1,0.9c0.1,0.4,0.2,0.9,0.4,1.3s0.4,0.9,0.7,1.3c0.2,0.3,0.4,0.6,0.5,0.9c0.5,0.9,0.7,1.7,0.7,2.4 c0,0.6-0.2,1.1-0.8,1.6c-0.4,0.4-1.1,0.7-2.1,1c-0.3,0.1-0.7,0.2-1.1,0.3c-1.1,0.2-1.9,0.6-2.5,1.2c-0.2,0.2-0.4,0.4-0.5,0.6 c-0.6,0.8-0.8,1.7-0.8,2.5c0,0.7,0.2,1.4,0.3,1.9l-1.5,0.9c-0.1-0.4-0.3-0.7-0.4-1.1l-1,0.5c0.2,0.4,0.3,0.8,0.5,1.2L282.5,110 c-0.1,0-0.2-0.1-0.2-0.1c-1.1-0.3-1.9-0.9-2.5-1.5c-0.6-0.6-0.9-1.4-0.9-2.2c0-0.9,0.4-2,1.3-3.1l-0.8-0.7c-1,1.3-1.5,2.6-1.5,3.8 c0,1.1,0.4,2.1,1.2,2.9c0.6,0.7,1.4,1.2,2.3,1.6l-4.4,2.6c0,0,0,0,0,0c0-1.3-0.6-2.7-1.8-4l-0.8,0.7c1.1,1.2,1.5,2.3,1.5,3.3 c0,0.2,0,0.5-0.1,0.7l-13.6,7.9c-0.6-0.7-1-1.6-1-2.4c0-1.1,0.5-2.2,1.9-3.5l-0.7-0.8c-1.5,1.3-2.3,2.8-2.3,4.3 c0,1.1,0.4,2.1,1.1,2.9l-12.9,7.5c-0.3-0.7-0.7-1.4-1.2-2.1c-0.7-1-1.1-2.1-1.1-3c0-0.8,0.3-1.5,0.8-2.2c0.6-0.6,1.5-1.2,2.8-1.5 l-0.3-1c-1.5,0.4-2.5,1-3.3,1.9c-0.7,0.8-1.1,1.8-1.1,2.9c0,1.2,0.5,2.5,1.3,3.6c0.5,0.7,0.9,1.4,1.1,2.1l-21.1,12.2 c-0.2-0.1-0.5-0.3-0.7-0.5c-0.5-0.5-1.1-1.4-1.5-2.8c-0.4-1.2-1.1-2.1-1.8-2.6c-0.7-0.5-1.5-0.7-2.3-0.7h0c-0.2,0-0.5,0-0.7,0.1 c-0.5,0.1-0.9,0.2-1.2,0.3c-0.4,0.1-0.7,0.3-1,0.4c-0.4,0.2-0.6,0.4-0.6,0.4l0.6,0.9l0.1,0c0.2-0.1,0.8-0.4,1.5-0.7 c0.4-0.1,0.9-0.2,1.4-0.2c0.6,0,1.1,0.1,1.7,0.5c0.5,0.4,1,1,1.4,2.1c0.1,0.4,0.3,0.7,0.4,1c0.4,0.9,0.9,1.6,1.4,2.2 c0.1,0.1,0.3,0.3,0.4,0.4l-3.3,1.9c-0.7-0.3-1.4-0.5-2-0.5c-1,0-2,0.4-2.8,1c-0.8,0.6-1.4,1.6-1.9,2.6c-0.2,0.4-0.3,0.7-0.5,1 l-3.6,2.1c-0.7-0.3-1.5-0.8-2.5-1.7c-1.1-1.1-2.3-1.5-3.3-1.5c-1.4,0-2.5,0.8-3.3,1.6c-0.7,0.8-1.1,1.5-1.2,1.5l0.9,0.5l0,0 c0.1-0.1,0.5-0.8,1.1-1.4c0.6-0.6,1.5-1.1,2.4-1.1c0.7,0,1.6,0.3,2.6,1.2c0.8,0.7,1.4,1.2,2.1,1.6l-10.9,6.3 c-1.2-0.9-1.9-2.1-1.9-3.3c0-1.1,0.6-2.3,2-3.5l-0.7-0.8c-1.6,1.3-2.4,2.8-2.4,4.3c0,1.5,0.8,2.8,2,3.8l-11.2,6.5 c-0.1-0.3-0.1-0.6-0.1-0.9c0-0.6,0.1-1.3,0.6-1.8c0.4-0.5,1.1-1,2.3-1.3c1.6-0.4,2.7-0.9,3.5-1.6c0.8-0.7,1.1-1.5,1.1-2.4 c0-1.3-0.7-2.6-1.5-3.9c-0.7-1-1-2.1-1-3c0-0.8,0.3-1.6,0.8-2.2c0.6-0.6,1.5-1.2,2.8-1.5l-0.3-1c-1.5,0.4-2.6,1-3.3,1.8 c-0.8,0.8-1.1,1.9-1.1,2.9c0,1.2,0.4,2.4,1.2,3.6c0.8,1.3,1.4,2.4,1.4,3.3c0,0.6-0.2,1.1-0.8,1.6c-0.6,0.5-1.5,1-3,1.3 c-1.4,0.3-2.4,1-2.9,1.7c-0.6,0.8-0.8,1.7-0.8,2.5c0,0.5,0.1,1,0.2,1.4l-6.9,4c-0.1-0.1-0.1-0.2-0.2-0.3c-0.6-0.7-1.1-1.2-1.1-1.2 l-0.7,0.8h0l0,0c0.1,0.1,0.6,0.5,1,1.1c0,0,0,0.1,0.1,0.1l-14.7,8.5c0-1,0.5-2.1,1.7-3.3l-0.8-0.8c-1.4,1.3-2,2.8-2,4.1 c0,0.2,0,0.4,0,0.6l-13.6,7.9c-0.1-0.3-0.1-0.6-0.2-0.8c0-0.2-0.1-0.4-0.1-0.6c0-0.8,0.2-1.3,0.8-1.8c0.6-0.5,1.7-0.8,3.5-0.9 c1.8-0.1,3-0.7,3.7-1.7c0.7-0.9,0.9-2,0.9-2.9c0-1.1-0.3-2-0.3-2l-1,0.3l0,0l0,0c0,0.1,0.2,0.9,0.2,1.7c0,0.8-0.2,1.6-0.6,2.3 c-0.5,0.6-1.3,1.2-2.9,1.2c-1.9,0.1-3.2,0.4-4.1,1.1c-0.9,0.7-1.3,1.6-1.3,2.7c0,0.6,0.1,1.3,0.4,2l-3.3,1.9 c0.1-0.4,0.1-0.7,0.1-1.1c0-0.7-0.1-1.5-0.4-2.3l-1,0.3c0.2,0.7,0.3,1.4,0.3,2c0,0.8-0.2,1.5-0.6,2l-0.2,0.1l-11.3-6.9 c0-0.1-0.1-0.3-0.1-0.5c0-0.9,0.2-1.4,0.8-1.9c0.6-0.5,1.7-0.8,3.4-0.8l0.2,0l0.1,0c1.9,0,3.2-0.7,3.9-1.7c0.7-1,0.8-2.2,0.8-3.1 c0-0.9-0.2-1.6-0.2-1.6l-1,0.2h0l0,0.1c0,0.2,0.1,0.7,0.1,1.3c0,0.8-0.1,1.7-0.7,2.4c-0.5,0.7-1.3,1.2-3,1.3l-0.1,0l-0.3,0 c-1.9,0-3.2,0.3-4.1,1c-0.8,0.6-1.2,1.6-1.2,2.5l-6.5-3.9L16.1,241.4V240c0.1,0,0.2,0.1,0.2,0.1c0.2,0.2,0.4,0.4,0.6,0.6l0.9-0.5 c-0.3-0.4-0.6-0.7-0.9-1c-0.3-0.2-0.6-0.3-0.9-0.4V235c1,1,2.1,1.4,3.1,1.4c1.4,0,2.4-0.7,3.2-1.4c0.7-0.7,1.2-1.3,1.2-1.4l-0.9-0.6 h0l0,0c-0.1,0.1-0.5,0.7-1.1,1.2c-0.6,0.5-1.5,1-2.3,1c-0.8,0-1.7-0.3-2.7-1.4c-0.1-0.2-0.3-0.3-0.4-0.4v-5.3c0,0,0.1-0.1,0.1-0.1 c0.7-0.6,1.2-1.1,1.2-1.2l-0.8-0.7h0l0,0c0,0.1-0.2,0.3-0.5,0.5V224l3.8-2.2c0.5,0.1,0.9,0.2,1.4,0.2c1.4,0,2.5,0.2,3.3,0.6 c0.4,0.2,0.6,0.5,0.8,0.8c0.2,0.3,0.3,0.8,0.3,1.3c0,0.7-0.2,1.6-0.6,2.8c-0.3,0.8-0.4,1.5-0.4,2.1c0,1,0.3,1.8,0.8,2.4 c0.7,0.9,1.7,1.4,2.6,1.7c0.3,0.1,0.5,0.2,0.7,0.2l0.8-0.5l0-0.4h0l0,0c-0.2,0-1.2-0.2-2.2-0.7c-0.5-0.3-0.9-0.6-1.2-1 c-0.3-0.4-0.5-0.9-0.5-1.6c0-0.5,0.1-1.1,0.3-1.7c0.5-1.3,0.7-2.3,0.7-3.2c0-0.7-0.2-1.4-0.5-1.9c-0.5-0.8-1.2-1.3-2.1-1.5 c-0.8-0.3-1.8-0.3-2.8-0.4l11-6.3c0.2,0.1,0.4,0.3,0.6,0.4c0.7,0.6,1.1,1.6,1.1,3.1c0,0.3,0,0.6-0.1,0.9l1.1,0.1 c0-0.4,0.1-0.7,0.1-1.1c0-1.7-0.5-3-1.4-3.8c-0.1-0.1-0.2-0.2-0.3-0.2l4.3-2.5c0.3,0.7,0.6,1.3,1.1,1.7c1,0.8,2.2,1.2,3.7,1.2 c0.4,0,0.7,0,1.1-0.1c0.6-0.1,1.2-0.1,1.7-0.1c1,0,1.8,0.2,2.3,0.6c0.5,0.4,0.8,1.1,0.8,2.3c0,0.6-0.1,1.3-0.2,2.1 c-0.1,0.5-0.2,1-0.2,1.4c0,0.7,0.1,1.4,0.4,1.9l0.9-0.5c-0.2-0.4-0.3-0.8-0.3-1.3c0-0.3,0-0.7,0.1-1.2c0.2-0.9,0.3-1.6,0.3-2.3 c0-1.4-0.4-2.5-1.2-3.1c-0.8-0.6-1.8-0.8-3-0.8c-0.6,0-1.2,0.1-1.8,0.1c-0.3,0-0.7,0.1-1,0.1c-1.2,0-2.2-0.3-3-1 c-0.4-0.4-0.7-0.9-0.9-1.4l5.8-3.3l0.3,0.6l0,0c0.2-0.1,1.3-0.5,2.4-0.5c0.7,0,1.4,0.2,1.9,0.6c0.6,0.4,1.1,1.2,1.3,2.5 c0.3,1.7,0.8,2.9,1.4,3.7c0.7,0.8,1.5,1.2,2.5,1.2c1.2,0,2.5-0.6,3.8-1.3c1-0.6,1.9-0.8,2.8-0.8c0.8,0,1.4,0.2,2,0.7l1-0.6 c-0.8-0.8-1.9-1.2-3-1.2c-1.1,0-2.2,0.4-3.3,1c-1.2,0.7-2.4,1.2-3.2,1.2c-0.6,0-1.1-0.2-1.6-0.8c-0.5-0.6-0.9-1.6-1.2-3.2 c-0.3-1.5-0.9-2.5-1.7-3.2c-0.8-0.6-1.8-0.8-2.6-0.8c-0.4,0-0.8,0.1-1.2,0.1l13.8-8c1,0.1,1.9,0.4,2.5,0.9c0.8,0.6,1.2,1.5,1.2,2.8 c0,0.6-0.1,1.2-0.3,2l1,0.3c0.2-0.8,0.4-1.6,0.4-2.3c0-1.5-0.6-2.8-1.6-3.6c-0.5-0.4-1.1-0.7-1.8-0.9l2.6-1.5 c0.1,0.1,0.1,0.2,0.2,0.3c0.4,0.4,0.7,0.7,1,0.9c0.1,0.1,0.2,0.2,0.3,0.2c0.1,0.1,0.1,0.1,0.1,0.1L66,197l0,0l0,0 c0,0-0.1-0.1-0.2-0.1c-0.2-0.2-0.7-0.5-1.1-0.9l5.8-3.4c0.2,0.5,0.5,1,1,1.4c0.9,0.8,2.1,1.3,3.5,1.5c1.2,0.2,2.3,0.5,3,0.9 c0.7,0.5,1,1,1,1.9c0,0.8-0.3,1.8-1,3.2c-0.5,1-0.7,1.8-0.7,2.6c0,0.6,0.1,1.1,0.4,1.6l0.9-0.5c-0.1-0.3-0.2-0.7-0.2-1.1 c0-0.6,0.2-1.3,0.6-2.1c0.8-1.5,1.1-2.7,1.1-3.7c0-1.2-0.6-2.2-1.5-2.8c-0.9-0.6-2.1-0.9-3.4-1.1c-1.2-0.2-2.2-0.6-2.9-1.3 c-0.3-0.3-0.6-0.7-0.8-1.1l4.8-2.8c-0.4,0.6-0.9,1.1-1.6,1.7l0.6,0.9c1.4-1,2.2-2.2,2.5-3.4l11.7-6.7c0.3,0.6,0.5,1.1,0.5,1.6 c0,0.7-0.3,1.2-0.9,1.7c-0.6,0.5-1.5,1-2.5,1.4c-1.1,0.4-2.1,1.1-2.8,1.9c-0.7,0.8-1.1,1.8-1.1,2.9c0,0.9,0.3,1.9,1,2.9 c0.2,0.3,0.5,0.7,0.8,1l0.8-0.7v0c-0.3-0.3-0.5-0.6-0.7-0.9c-0.6-0.9-0.8-1.7-0.8-2.4c0-0.8,0.3-1.5,0.8-2.2 c0.5-0.6,1.3-1.2,2.3-1.6c1.1-0.4,2.1-0.9,2.8-1.6c0.7-0.6,1.3-1.5,1.2-2.5c0-0.7-0.2-1.3-0.6-2.1l8.2-4.8c-0.1,0.5-0.1,1-0.1,1.5 c0,0.3,0,0.7,0,1.1c0,0.2,0,0.3,0,0.5c0,1.3-0.3,2.4-1,3.1c-0.6,0.7-1.5,1.2-2.8,1.2c-0.6,0-1.2-0.1-1.9-0.3l-0.3,1 c0.8,0.2,1.5,0.3,2.2,0.3c1.5,0,2.8-0.6,3.6-1.6c0.8-1,1.2-2.3,1.2-3.8c0-0.2,0-0.4,0-0.5c0-0.3,0-0.7,0-1c0-0.9,0.1-1.6,0.3-2.2 l2.5-1.4c0.7,0,1.5,0.1,2.5,0.4c0.6,0.2,1.2,0.3,1.8,0.3c1,0,1.9-0.3,2.5-0.9c0.9-0.8,1.4-1.9,1.6-2.7c0.2-0.9,0.3-1.6,0.3-1.6 l-0.8,0l1.8-1.1c0.2,0.3,0.4,0.5,0.6,0.8c0.3,0.3,0.5,0.6,0.8,0.8c0.2,0.2,0.3,0.3,0.5,0.4c0.2,0.1,0.4,0.2,0.5,0.3 c0.4,0.2,0.7,0.3,1.1,0.4c0.2,0,0.4,0,0.5,0h0c0.8,0,1.6-0.4,2.3-0.9c0.7-0.5,1.3-1.2,1.9-2c1.1-1.4,2.4-2.2,3.6-2.2 c1.2,0,2.4,0.7,3.6,2.4l0.9-0.6c-1.3-1.9-2.9-2.9-4.5-2.9c-1.7,0-3.3,1-4.5,2.6c-0.3,0.4-0.6,0.7-0.9,1c-0.3,0.3-0.6,0.6-0.9,0.8 c-0.6,0.4-1.1,0.7-1.6,0.7c-0.2,0-0.5,0-0.7-0.1c-0.1,0-0.2-0.1-0.4-0.2c-0.1-0.1-0.3-0.2-0.4-0.3c-0.5-0.4-1-0.9-1.6-1.7l9.5-5.5 c1-0.1,2.1-0.6,3-1.8l4-2.3c0.4,0.1,0.8,0.3,1.1,0.7c0.5,0.5,1.1,1.3,1.6,2.1c1.1,1.9,2.7,3.1,4.6,3.1c1.5,0,2.9-0.8,4.3-2.3 l-0.8-0.7c-1.2,1.4-2.4,2-3.5,2c-1.4,0-2.7-0.9-3.7-2.6c-0.5-0.9-1.1-1.8-1.8-2.4c-0.2-0.2-0.5-0.4-0.7-0.6l1.4-0.8 c0.6,0.7,1.4,1.2,2.4,1.2c1.1,0,2.4-0.6,4-1.7c1-0.7,1.7-0.9,2.4-0.9c1.1,0,2,0.7,2.6,1.4c0.3,0.4,0.5,0.8,0.7,1 c0.1,0.1,0.1,0.3,0.2,0.3l0,0.1l0,0l1-0.4l0,0c0,0-0.4-0.9-1.1-1.8c-0.7-0.9-1.8-1.8-3.4-1.8c-0.9,0-2,0.3-3,1.2 c-1.5,1.1-2.6,1.5-3.4,1.5c-0.6,0-1.1-0.2-1.5-0.7l12.4-7.1c0.4,0.6,0.8,1.3,1.2,2.2c0.5,1.1,1.1,2.1,1.9,2.7 c0.8,0.7,1.8,1.1,2.8,1.1c1.3,0,2.6-0.6,4-1.8l-0.7-0.8c-1.2,1.1-2.3,1.5-3.3,1.5c-0.8,0-1.5-0.3-2.1-0.8c-0.6-0.5-1.2-1.3-1.6-2.3 c-0.4-0.9-0.8-1.7-1.3-2.4l3.3-1.9c0,0,0,0.1,0.1,0.1c0.3,0.5,0.8,1,1.4,1.4c0.6,0.4,1.3,0.7,2.1,0.7c0.8,0,1.8-0.3,2.8-0.9 c1.4-0.9,2.5-1.2,3.3-1.2c0.8,0,1.3,0.3,1.8,1c0.5,0.7,0.8,1.7,1,2.9c0.3,1.3,0.8,2.5,1.6,3.3c0.8,0.8,1.9,1.4,3.2,1.3 c1,0,2.2-0.3,3.4-1.1l-0.5-0.9c-1.1,0.6-2,0.9-2.8,0.9c-1,0-1.7-0.4-2.4-1c-0.6-0.7-1.1-1.6-1.3-2.8c-0.3-1.3-0.6-2.4-1.2-3.3 c-0.6-0.9-1.5-1.5-2.7-1.5c-1.1,0-2.3,0.4-3.8,1.3c-0.9,0.5-1.6,0.7-2.2,0.7c-0.6,0-1.1-0.2-1.5-0.5c-0.4-0.3-0.8-0.7-1.1-1.1 l4.8-2.8c0,0.1,0,0.1,0,0.1l1,0.3l0,0l0,0c0-0.1,0.2-0.7,0.5-1.3l3.5-2c0.4,0.1,1,0.3,1.5,0.6c1.5,0.8,2.7,1.2,3.7,1.2 c1.2,0,2.2-0.6,2.7-1.5c0.6-0.9,0.9-2.1,1.1-3.4c0.2-1.2,0.7-2.2,1.3-2.9c0,0,0.1-0.1,0.1-0.1l1.5-0.9c0.3-0.1,0.5-0.1,0.8-0.1 c0.8,0,1.7,0.2,2.8,0.8l0.5-0.9c-0.8-0.4-1.5-0.7-2.3-0.8l5-2.9c1,0.2,1.7,0.5,2.1,0.8c0.6,0.5,0.8,1,0.8,1.7c0,0.8-0.4,1.9-1,3.1 c-0.5,1-0.8,2.1-0.8,3.1c0,1.2,0.4,2.3,1.3,3.2c0.9,0.9,2.1,1.4,3.8,1.6l0.1-1.1c-1.5-0.2-2.5-0.7-3.2-1.3c-0.6-0.6-0.9-1.5-0.9-2.4 c0-0.8,0.2-1.7,0.7-2.6c0.6-1.2,1.1-2.4,1.1-3.6c0-1-0.4-1.9-1.2-2.5c-0.4-0.3-0.9-0.5-1.5-0.7l9.7-5.6c-0.5,0.8-0.6,1.6-0.6,2.4 c0,1.5,0.5,2.7,0.5,2.7l1-0.4h0l0,0c-0.1-0.2-0.4-1.2-0.4-2.2c0-0.7,0.2-1.4,0.6-2c0.4-0.6,1.2-1.1,2.6-1.3c1.7-0.3,2.9-0.7,3.8-1.4 c0.8-0.7,1.2-1.6,1.2-2.5c0,0,0-0.1,0-0.1l11.6-6.7c0.1,0.4,0.1,0.7,0.1,1c0,0.5-0.1,0.9-0.3,1.2c-0.3,0.5-0.7,0.8-1.4,1.1 c-0.7,0.3-1.5,0.4-2.5,0.5c-1.4,0.2-2.7,0.6-3.6,1.5c-0.9,0.8-1.5,2-1.5,3.3c0,0.9,0.3,1.9,0.8,3l1-0.5c-0.5-1-0.7-1.8-0.7-2.6 c0-1.1,0.4-1.9,1.1-2.5c0.7-0.6,1.8-1.1,3-1.2c1.3-0.2,2.6-0.4,3.5-1c0.5-0.3,0.9-0.7,1.2-1.1c0.3-0.5,0.4-1.1,0.4-1.7 c0-0.5-0.1-1-0.3-1.6l3.4-1.9c0.4,0.8,1,1.7,1.7,2.5c1,1.1,1.5,2.3,1.5,3.3c0,0.7-0.2,1.4-0.7,2c-0.5,0.6-1.3,1.2-2.4,1.7l0.4,1 c1.3-0.5,2.2-1.2,2.8-2c0.6-0.8,0.9-1.7,0.9-2.7c0-1.4-0.7-2.8-1.7-4c-0.7-0.8-1.3-1.6-1.6-2.3l10.9-6.3c0.3,0.2,0.6,0.5,0.8,0.8 c0.3,0.4,0.4,1,0.4,1.8c0,0.2,0,0.5,0,0.8c-0.1,0.6-0.1,1.1-0.1,1.6c0,1.6,0.4,2.7,1.1,3.4c0.7,0.7,1.7,1,2.8,1 c0.8,0,1.6-0.1,2.5-0.3c0.5-0.1,1-0.2,1.5-0.2c1.2,0,2.1,0.3,2.8,1c0.7,0.6,1.1,1.6,1.1,3.1c0,0.3,0,0.6-0.1,0.9l1.1,0.1 c0-0.4,0.1-0.7,0.1-1.1c0-1.7-0.5-3-1.4-3.8c-0.9-0.9-2.2-1.3-3.5-1.3c-0.6,0-1.1,0.1-1.7,0.2c-0.8,0.2-1.6,0.3-2.3,0.3 c-0.9,0-1.6-0.2-2-0.7c-0.4-0.5-0.8-1.3-0.8-2.7c0-0.4,0-0.9,0.1-1.5c0-0.3,0.1-0.6,0.1-0.9c0-1-0.2-1.8-0.6-2.4 c-0.2-0.3-0.4-0.6-0.7-0.8l8.8-5.1c0.1,0.4,0.1,0.7,0.1,1c0,0.8-0.2,1.4-0.6,1.8c-0.5,0.7-1.4,1.1-2.2,1.3c-0.4,0.1-0.7,0.2-1,0.2 l-0.3,0l-0.1,0l0.1,1.1c0,0,1.2-0.1,2.5-0.6c0.6-0.3,1.3-0.7,1.8-1.3c0.5-0.6,0.8-1.5,0.8-2.5c0-0.5-0.1-1-0.2-1.6l13.9-8 c0,0.2,0.1,0.4,0.1,0.5c0,0.5-0.1,1-0.3,1.4c-0.2,0.4-0.4,0.8-0.8,1.1c-0.2,0.2-0.4,0.3-0.6,0.5c-0.2,0.1-0.5,0.3-0.8,0.4 c-0.6,0.2-1.2,0.3-2,0.4l0,1.1c0.4,0,0.9-0.1,1.3-0.1c0.4-0.1,0.8-0.2,1.1-0.3c0.7-0.2,1.2-0.6,1.7-1c0.9-0.9,1.4-2.1,1.4-3.3 c0-0.4-0.1-0.7-0.1-1.1l4.7-2.7c0.2,0.1,0.3,0.1,0.4,0.2c0.5,0.2,0.9,0.6,1.3,1c0.3,0.4,0.5,1,0.5,1.7c0,0.4-0.1,0.9-0.3,1.5 c-0.3,1.1-0.5,2.1-0.5,2.9c0,1.4,0.6,2.5,1.5,3.1c0.9,0.6,2.1,0.7,3.4,0.7c0.3,0,0.5,0,0.8,0l0.3,0c1.3,0,2.4,0.3,3.2,1 c0.8,0.6,1.2,1.5,1.2,2.8c0,0.6-0.1,1.2-0.3,2l1,0.3c0.2-0.8,0.4-1.6,0.4-2.3c0-1.5-0.6-2.8-1.6-3.6c-1-0.8-2.4-1.2-3.9-1.2 c-0.1,0-0.3,0-0.4,0c-0.3,0-0.5,0-0.7,0c-1.2,0-2.2-0.2-2.8-0.6c-0.6-0.4-1-1-1-2.1c0-0.7,0.1-1.5,0.5-2.6c0.2-0.7,0.3-1.3,0.3-1.8 c0-1-0.3-1.9-0.8-2.5c-0.4-0.5-0.9-0.8-1.4-1.1l8.4-4.8c0.5,0.5,1.2,1,1.9,1.4c1,0.5,1.8,1,2.3,1.5c0.5,0.5,0.8,1.1,0.8,1.7 c0,0.6-0.3,1.4-1.1,2.4c-0.1,0.2-0.3,0.3-0.4,0.5c-0.2,0.2-0.3,0.4-0.5,0.5c-0.3,0.3-0.5,0.6-0.8,0.9c-0.6,0.9-0.9,1.7-0.9,2.5 c0,1.4,0.8,2.5,1.5,3.2c0.4,0.4,0.7,0.7,1,0.9c0.1,0.1,0.2,0.2,0.3,0.2c0.1,0.1,0.1,0.1,0.1,0.1l0.6-0.9l0,0l0,0 c0,0-0.1-0.1-0.2-0.1c-0.3-0.2-0.7-0.5-1.1-1c-0.1-0.2-0.3-0.3-0.4-0.5c-0.4-0.5-0.7-1.2-0.7-1.9c0-0.2,0-0.4,0.1-0.6 c0.1-0.4,0.3-0.8,0.6-1.3c0.2-0.2,0.4-0.5,0.6-0.7c0.8-0.8,1.4-1.5,1.8-2.2c0.4-0.7,0.6-1.4,0.6-2c0-1-0.5-1.8-1.1-2.4 c-0.7-0.7-1.6-1.2-2.6-1.7c-0.6-0.3-1-0.6-1.5-1l13.8-8c-0.2,0.5-0.7,1.1-1.5,1.7c-1,0.7-1.8,1.5-2.3,2.2c-0.5,0.7-0.7,1.4-0.7,2.1 c0,0.9,0.4,1.6,0.9,2.3c0.6,0.7,1.3,1.3,2.2,1.9c0.8,0.5,1.3,1.1,1.7,1.7c0.4,0.6,0.6,1.3,0.6,1.9c0,1.1-0.6,2.4-2.2,3.5l0.6,0.9 c1.8-1.3,2.7-2.9,2.7-4.4c0-0.7-0.2-1.3-0.4-1.9c-0.1-0.2-0.2-0.4-0.3-0.6c-0.4-0.6-0.9-1.1-1.4-1.6c-0.2-0.2-0.4-0.3-0.6-0.5 c-0.8-0.6-1.5-1.1-2-1.7c-0.5-0.6-0.7-1.1-0.7-1.6c0-0.4,0.1-0.9,0.5-1.5c0.4-0.6,1-1.2,2-1.9c1.4-1,2-2.2,2.1-3.3l15.2-8.8 c0.1,0.4,0.2,0.8,0.2,1.1c0,1.2-0.5,2.1-1.3,2.7c-0.8,0.6-1.9,1-3.3,1l0,0l-0.1,0c-1.4,0-2.7,0.1-3.7,0.7c-0.5,0.3-0.9,0.7-1.2,1.2 c-0.3,0.5-0.4,1.2-0.4,1.9c0,0.9,0.2,1.9,0.6,3.1c0.2,0.6,0.3,1.2,0.3,1.7c0,0.8-0.2,1.3-0.6,1.8c-0.5,0.7-1.4,1.1-2.1,1.3 c-0.4,0.1-0.7,0.2-0.9,0.2l-0.3,0l-0.1,0l0.1,1.1c0,0,1.2-0.1,2.4-0.7c0.6-0.3,1.2-0.7,1.7-1.3c0.5-0.6,0.8-1.4,0.8-2.4 c0-0.6-0.1-1.3-0.4-2c-0.4-1.1-0.6-2-0.6-2.7c0-0.6,0.1-1,0.3-1.4c0.3-0.5,0.7-0.8,1.4-1c0.7-0.2,1.6-0.3,2.6-0.3l0.1,0l0.1,0 c1.5,0,2.9-0.4,4-1.2c1-0.8,1.7-2.1,1.7-3.6c0-0.5-0.1-1.1-0.3-1.7l4.8-2.8c0.1,0.1,0.3,0.3,0.4,0.4c0.5,0.6,0.7,1.1,0.8,1.6 c0,0.4-0.1,0.9-0.5,1.5c-0.4,0.6-1,1.2-1.8,2c-1.4,1.1-2,2.4-1.9,3.6c0,1.3,0.7,2.4,1.3,3.1c0.6,0.7,1.2,1.2,1.3,1.2l0.6-0.9h0l0,0 c-0.1-0.1-0.6-0.5-1.1-1.1c-0.5-0.6-0.9-1.5-0.9-2.3c0-0.8,0.3-1.7,1.6-2.7c0.9-0.8,1.6-1.5,2.1-2.2c0.4-0.7,0.7-1.4,0.7-2.1 c0-0.9-0.4-1.7-1-2.4c-0.1-0.1-0.2-0.1-0.2-0.2l33.7-19.4c0.3,0.1,0.6,0.3,0.9,0.5c0.6,0.5,1.2,1.3,1.6,2.5l1-0.4 c-0.5-1.3-1.1-2.3-2-3c-0.2-0.1-0.3-0.2-0.5-0.3l3.7-2.1c0,0.3-0.1,0.5-0.1,0.7c0,1.7,0.8,3.2,0.8,3.2l0.9-0.5h0l0,0 c-0.1-0.2-0.7-1.4-0.7-2.6c0-0.5,0.1-1.1,0.4-1.6l3.2-1.8c1.2-0.4,2.1-0.8,2.7-1.4c0.1-0.1,0.2-0.2,0.3-0.4l4.5-2.6v8.1 c-0.4,0.1-0.8,0.2-1.2,0.3c-1.5,0.3-2.5,0.9-3.1,1.7c-0.6,0.8-0.8,1.7-0.8,2.6c0,1.6,0.6,2.8,0.6,2.9l1-0.5h0l0,0 c-0.1-0.2-0.5-1.3-0.5-2.4c0-0.7,0.2-1.4,0.6-1.9c0.4-0.6,1.2-1.1,2.5-1.3c0.4-0.1,0.7-0.2,1-0.2V42.1z M333.9,83.6v93l-13.5-9 l-12.5,22.8V98.7L333.9,83.6z M220.7,145.7l-4.3,2.5c0.4-0.8,0.9-1.4,1.4-1.8c0.6-0.5,1.3-0.8,2.1-0.8 C220.1,145.6,220.4,145.6,220.7,145.7z M103.9,173.3l6-3.5c0,0.4-0.2,1.3-0.6,2.2c-0.2,0.5-0.6,0.9-1,1.3c-0.4,0.3-1,0.5-1.8,0.5 c-0.4,0-0.9-0.1-1.5-0.2C104.7,173.5,104.3,173.4,103.9,173.3z M161.7,139.9l7.3-4.2c-0.2,0.5-0.4,1.1-0.5,1.7c-0.2,1.2-0.5,2.3-1,3 c-0.5,0.7-1,1-1.9,1c-0.8,0-1.8-0.3-3.2-1.1C162.2,140.2,162,140,161.7,139.9z M193.8,121.4l3.9-2.3c-0.1,0.4-0.3,0.8-0.7,1.1 C196.4,120.8,195.4,121.2,193.8,121.4z M375.7,287.5L12.2,497.4V246.9l111.7-64.5l17.5,10.6l1.4,0.9l1.4-0.8l160.9-92.9v101.3 l16.3-29.8l15.3,10.3V81.9l38.9-22.5V287.5z M332.4,69.7l1.1,0.2c0,0-0.1,0.6-0.4,1.4c-0.3,0.8-0.9,1.7-1.7,2.4 c-0.6,0.4-1.4,0.7-2.3,0.7c-0.7,0-1.5-0.2-2.4-0.6c-1.3-0.6-2.3-0.8-3.1-0.8c-0.5,0-0.9,0.1-1.2,0.3c-0.3,0.2-0.6,0.4-0.8,0.8 c-0.1,0.2-0.2,0.4-0.3,0.6c-0.3,0.7-0.4,1.5-0.5,2.5c-0.1,1.5-0.6,2.7-1.4,3.7c-0.2,0.2-0.4,0.5-0.7,0.6c-0.5,0.4-1.1,0.6-1.7,0.8 c-0.3,0.1-0.7,0.1-1,0.1c-0.9,0-1.9-0.2-3-0.7l0.4-1c1,0.4,1.8,0.6,2.5,0.6c0.6,0,1-0.1,1.5-0.3c0.4-0.2,0.8-0.5,1.1-0.8 c0.6-0.7,1-1.8,1.2-3.1c0.1-1,0.3-2,0.6-2.8c0.1-0.2,0.2-0.4,0.3-0.6c0.3-0.6,0.7-1,1.3-1.4c0.5-0.3,1.1-0.4,1.7-0.4 c1,0,2.1,0.3,3.5,0.9c0.8,0.4,1.4,0.5,2,0.5c1.3,0,2-0.7,2.6-1.6C332.1,70.9,332.3,69.9,332.4,69.7L332.4,69.7L332.4,69.7z M333.6,65.5l-0.9,0.6c-1.2-1.7-2.4-2.4-3.6-2.4c-1.2,0-2.5,0.8-3.6,2.2c-0.6,0.8-1.2,1.5-1.9,2c-0.7,0.5-1.4,0.9-2.3,0.9h0 c-0.2,0-0.4,0-0.5,0c-0.4-0.1-0.7-0.2-1.1-0.4c-0.2-0.1-0.4-0.2-0.5-0.3c-0.2-0.1-0.3-0.3-0.5-0.4c-0.5-0.5-1.1-1.1-1.6-2 c-0.1-0.2-0.2-0.4-0.4-0.5c-0.9-1.1-1.7-1.4-2.5-1.4c-0.8,0-1.6,0.4-2.2,0.8c-0.6,0.4-1.1,0.8-1.1,0.9l0,0l0,0l-0.8-0.7 c0,0,0.5-0.5,1.2-1c0.7-0.5,1.8-1,2.9-1c0.6,0,1.3,0.2,1.9,0.5c0.5,0.3,0.9,0.7,1.4,1.2c0.1,0.2,0.3,0.4,0.4,0.6 c0.2,0.3,0.3,0.5,0.5,0.7c0.3,0.4,0.6,0.8,0.9,1.1c0.1,0.1,0.3,0.3,0.4,0.4c0.1,0.1,0.3,0.2,0.4,0.3c0.1,0.1,0.3,0.1,0.4,0.2 c0.2,0.1,0.5,0.1,0.7,0.1c0.5,0,1-0.2,1.6-0.7c0.3-0.2,0.6-0.5,0.9-0.8c0.3-0.3,0.6-0.7,0.9-1c1.2-1.6,2.8-2.6,4.5-2.6 C330.7,62.7,332.3,63.6,333.6,65.5z M336.8,50.9c0.3,1.1,0.7,2.1,1.2,2.7c0.5,0.6,1,0.9,1.7,0.9c0.8,0,1.9-0.4,3.4-1.5 c1.1-0.8,2.1-1.2,3-1.2c1.6,0,2.7,1,3.4,1.8c0.7,0.9,1.1,1.7,1.1,1.8l0,0l-1,0.4l0,0l0-0.1c0-0.1-0.1-0.2-0.2-0.3 c-0.2-0.3-0.4-0.7-0.7-1c-0.6-0.8-1.5-1.4-2.6-1.4c-0.7,0-1.4,0.2-2.4,0.9c-1.6,1.2-2.9,1.7-4,1.7c-1.1,0-2-0.5-2.6-1.3 c-0.6-0.8-1-1.9-1.4-3c-0.3-1.1-0.9-2-1.5-2.5c-0.6-0.6-1.4-0.9-2.3-0.9c-0.9,0-1.9,0.3-3.1,1.2l-0.6-0.9c1.3-1,2.6-1.4,3.7-1.4 c1.1,0,2.2,0.4,3,1.2C335.8,48.7,336.4,49.7,336.8,50.9z M309.9,61.5c-1,0-2.1-0.3-3.2-0.9l0.5-0.9c1,0.6,1.9,0.8,2.7,0.8 c1,0,1.8-0.4,2.5-1.1c0.6-0.7,1.1-1.7,1.3-2.9c0.2-1.3,0.5-2.5,1.1-3.4c0.6-0.9,1.5-1.5,2.8-1.5c1,0,2.2,0.4,3.7,1.2 c0.8,0.5,1.5,0.6,2.1,0.6c1.2,0,2-0.7,2.5-1.5c0.6-0.8,0.8-1.7,0.9-1.9l0,0l0,0l1,0.3c0,0-0.1,0.6-0.5,1.3c-0.4,0.7-0.9,1.6-1.8,2.2 c-0.6,0.4-1.3,0.7-2.2,0.7c-0.8,0-1.7-0.2-2.6-0.7c-1.4-0.7-2.4-1-3.2-1c-0.9,0-1.4,0.4-1.9,1c-0.4,0.7-0.7,1.7-0.9,3 c-0.2,1.4-0.7,2.6-1.5,3.5C312.4,60.9,311.2,61.5,309.9,61.5z M314.4,71.4c-0.6,0.5-1.5,0.9-2.5,0.9c-0.5,0-1.1-0.1-1.8-0.3 c-1-0.3-1.8-0.4-2.5-0.4c-1.2,0-1.8,0.4-2.2,0.9c-0.4,0.6-0.6,1.5-0.6,2.7c0,0.3,0,0.6,0,1l0,0c0,0.2,0,0.4,0,0.5 c0,1.5-0.4,2.8-1.2,3.8c-0.8,1-2.1,1.6-3.6,1.6c-0.7,0-1.4-0.1-2.2-0.3l0.3-1c0.7,0.2,1.3,0.3,1.9,0.3c1.3,0,2.2-0.5,2.8-1.2 c0.6-0.7,1-1.8,1-3.1c0-0.2,0-0.3,0-0.5l0,0c0-0.4,0-0.7,0-1.1c0-1.3,0.2-2.4,0.8-3.3c0.6-0.9,1.6-1.4,3.1-1.4 c0.8,0,1.7,0.1,2.8,0.5c0.6,0.2,1,0.2,1.5,0.2c0.8,0,1.3-0.2,1.8-0.5c0.4-0.3,0.8-0.8,1-1.3c0.5-1,0.6-2.1,0.6-2.3l0,0h0l1.1,0 c0,0,0,0.7-0.3,1.6C315.8,69.5,315.3,70.6,314.4,71.4z M345.7,58.8l0.8,0.7c-1.3,1.6-2.8,2.3-4.3,2.3c-1.9,0-3.5-1.3-4.6-3.1 c-0.5-0.9-1-1.6-1.6-2.1c-0.5-0.5-1.1-0.8-1.6-0.8c-0.4,0-0.9,0.1-1.5,0.5c-0.6,0.4-1.2,0.9-2,1.8l0,0c-1.2,1.4-2.4,1.9-3.5,1.9 c-1.3,0-2.4-0.7-3.1-1.3c-0.8-0.6-1.2-1.3-1.2-1.3h0l0.9-0.6l0,0l0,0.1l0.2,0.2c0.2,0.2,0.4,0.5,0.8,0.8c0.6,0.5,1.5,1.1,2.4,1.1 c0.8,0,1.7-0.3,2.7-1.5l0,0c0.8-0.9,1.5-1.6,2.2-2c0.7-0.4,1.4-0.7,2-0.7c0.9,0,1.7,0.4,2.4,1c0.7,0.6,1.2,1.5,1.8,2.4 c1,1.7,2.3,2.6,3.7,2.6C343.3,60.8,344.5,60.2,345.7,58.8z M269.2,111c0.8,0.8,1.4,2,1.7,3.6l-1.1,0.2c-0.3-1.4-0.8-2.4-1.4-3 c-0.6-0.6-1.4-0.9-2.3-0.9c-0.9,0-1.8,0.3-2.8,0.8c-1.3,0.7-2.5,1.3-3.8,1.3c-0.9,0-1.8-0.4-2.5-1.2c-0.7-0.8-1.1-2-1.4-3.7 c-0.2-1.3-0.7-2.1-1.3-2.5c-0.6-0.4-1.3-0.6-1.9-0.6c-1.1,0-2.1,0.4-2.4,0.5l0,0l-0.4-1c0,0,1.3-0.6,2.8-0.6c0.8,0,1.8,0.2,2.6,0.8 c0.8,0.6,1.4,1.6,1.7,3.2c0.3,1.6,0.7,2.6,1.2,3.2c0.5,0.6,1,0.8,1.6,0.8c0.9,0,2-0.5,3.2-1.2c1.1-0.6,2.2-1,3.3-1 C267.3,109.8,268.3,110.2,269.2,111z M246.1,115.5c0,0,0.3,1,0.3,2.2c0,0.9-0.2,2-0.9,2.9c-0.7,0.9-1.9,1.6-3.6,1.7 c-1.7,0.1-2.8,0.5-3.5,1c-0.6,0.5-0.8,1-0.8,1.8c0,0.8,0.3,1.9,0.8,3c0.4,1,0.6,1.9,0.6,2.8c0,1.2-0.4,2.4-1.3,3.3 c-0.9,0.9-2.2,1.4-4,1.5l-0.1-1.1c1.6-0.1,2.6-0.6,3.3-1.2c0.7-0.7,1-1.5,1-2.5c0-0.7-0.2-1.6-0.5-2.4c-0.5-1.2-0.9-2.3-0.9-3.4 c0-1,0.4-2,1.3-2.6c0.9-0.7,2.2-1,4-1.2c1.5-0.1,2.4-0.6,2.8-1.3c0.5-0.6,0.6-1.5,0.6-2.2c0-0.9-0.2-1.7-0.3-1.8l0,0h0L246.1,115.5z M277.7,97.2c1.1,0,2.3,0.4,3.5,1.2l-0.6,0.9c-1.1-0.7-2.1-1-3-1c-0.9,0-1.7,0.3-2.3,1c-0.6,0.6-1.1,1.6-1.4,2.7 c-0.3,1.2-0.7,2.3-1.3,3.2c-0.6,0.9-1.5,1.4-2.6,1.4c-1.1,0-2.4-0.5-3.9-1.5c-0.9-0.6-1.7-0.8-2.3-0.8c-1.1,0-1.9,0.6-2.5,1.4 c-0.6,0.7-0.9,1.6-1,1.7l0,0l0,0l-1-0.3c0,0,0.3-0.9,1-1.9c0.7-0.9,1.8-2,3.5-2c0.9,0,1.8,0.3,2.9,1c1.5,1,2.6,1.3,3.3,1.3 c0.8,0,1.3-0.3,1.8-1c0.5-0.7,0.8-1.6,1.1-2.8c0.3-1.3,0.9-2.4,1.7-3.2C275.5,97.7,276.5,97.2,277.7,97.2z M258.8,121.4l0,1.1 l-0.1,0c-0.3,0-1.1,0-2-0.3c-0.9-0.2-1.9-0.7-2.6-1.7c-0.5-0.6-0.8-1.5-0.8-2.5c0-0.4,0-0.9,0.2-1.4c0.2-0.8,0.2-1.5,0.2-2.1 c0-1.3-0.3-1.9-0.8-2.3c-0.5-0.4-1.3-0.6-2.3-0.6c-0.5,0-1.1,0-1.7,0.1c-0.4,0.1-0.8,0.1-1.1,0.1c-1.4,0-2.7-0.4-3.7-1.2 c-1-0.8-1.5-2.1-1.5-3.7c0-0.5,0.1-1.1,0.2-1.7l1,0.2c-0.1,0.5-0.2,1-0.2,1.5c0,1.3,0.4,2.3,1.1,2.9c0.7,0.6,1.7,1,3,1 c0.3,0,0.6,0,1-0.1c0.6-0.1,1.3-0.1,1.8-0.1c1.1,0,2.2,0.2,3,0.8c0.8,0.7,1.2,1.7,1.2,3.1c0,0.7-0.1,1.4-0.3,2.3 c-0.1,0.4-0.1,0.8-0.1,1.2c0,0.8,0.2,1.4,0.5,1.9c0.3,0.4,0.8,0.8,1.3,1c1,0.5,2.1,0.5,2.5,0.5L258.8,121.4L258.8,121.4z M287.1,104.9L287.1,104.9l-0.3,1c0,0-0.6-0.1-1.3-0.5c-0.7-0.3-1.6-0.9-2.2-1.8c-0.4-0.6-0.7-1.3-0.7-2.2c0-0.8,0.2-1.6,0.7-2.6 c0.7-1.4,1-2.4,1-3.2c0-0.9-0.4-1.4-1-1.9c-0.7-0.4-1.8-0.7-3-0.9c-1.4-0.2-2.6-0.7-3.5-1.5c-0.9-0.8-1.4-1.9-1.4-3.3 c0-1,0.3-2.1,0.9-3.2l0.9,0.5c-0.5,1-0.8,1.9-0.8,2.7c0,1,0.4,1.8,1.1,2.5c0.7,0.6,1.7,1.1,2.9,1.3c1.3,0.2,2.5,0.5,3.4,1.1 c0.9,0.6,1.6,1.5,1.5,2.8c0,1-0.4,2.2-1.1,3.7c-0.4,0.8-0.6,1.5-0.6,2.1c0,1.2,0.7,2,1.5,2.5C286,104.5,286.9,104.8,287.1,104.9 L287.1,104.9z M241.4,101.9c-1,0-1.9,0.3-2.5,1c-0.7,0.7-1.1,1.7-1.2,3.3l-1.1-0.1c0.1-1.7,0.6-3.1,1.5-4c0.9-0.9,2-1.3,3.3-1.3 c0.9,0,1.9,0.2,2.8,0.6c1.1,0.5,2.2,0.8,3,0.8c0.8,0,1.3-0.2,1.8-0.8c0.5-0.6,0.8-1.7,0.9-3.5c0.1-1.8,0.8-3,1.7-3.6 c0.9-0.7,2-0.9,2.9-0.9c1.2,0,2.1,0.3,2.2,0.3l0,0l-0.3,1l0,0l-0.1,0c-0.1,0-0.2-0.1-0.4-0.1c-0.3-0.1-0.8-0.1-1.3-0.1 c-0.8,0-1.6,0.2-2.2,0.6c-0.6,0.5-1.1,1.3-1.3,2.9c-0.1,1.9-0.5,3.2-1.2,4c-0.7,0.9-1.6,1.3-2.6,1.3c-1.1,0-2.2-0.4-3.4-0.9 C242.9,102,242.1,101.9,241.4,101.9z M303.1,85.1c0,0,0.2,0.7,0.2,1.6c0,0.9-0.2,2.1-0.8,3.1c-0.7,1-2,1.7-3.9,1.7l-0.1,0l-0.2,0 c-1.8,0-2.9,0.3-3.5,0.8c-0.6,0.5-0.8,1-0.8,1.9c0,0.8,0.2,1.7,0.6,2.7c0.3,0.8,0.4,1.6,0.4,2.4c0,1.3-0.4,2.6-1.4,3.5 c-0.9,0.9-2.3,1.4-4.1,1.4l-0.2,0l0-1.1l0.1,0c1.6,0,2.7-0.4,3.4-1.1c0.7-0.7,1-1.6,1.1-2.7c0-0.6-0.1-1.3-0.4-2 c-0.4-1.1-0.6-2.1-0.6-3.1c0-1.1,0.3-2.1,1.3-2.7c0.9-0.7,2.2-1,4.1-1l0.3,0l0.1,0c1.7,0,2.5-0.6,3-1.3c0.5-0.7,0.7-1.7,0.7-2.4 c0-0.6-0.1-1.1-0.1-1.3l0-0.1l0,0L303.1,85.1z M232.5,102.3L232.5,102.3L232.5,102.3L232.5,102.3z M289.7,92.3 c-0.3-0.3-0.5-0.7-0.8-1c-0.6-1-1-2-1-2.9c0-1.1,0.4-2.1,1.1-2.9c0.7-0.8,1.6-1.4,2.8-1.9c1-0.4,1.9-0.9,2.5-1.4 c0.6-0.5,0.9-1,0.9-1.7c0-0.8-0.5-1.9-1.8-3.4c-1-1.1-1.4-2.2-1.4-3.2c0-1.5,0.9-2.6,1.6-3.3c0.8-0.7,1.6-1.1,1.6-1.1h0l0.5,1l0,0 l-0.1,0c-0.1,0-0.2,0.1-0.3,0.2c-0.3,0.2-0.6,0.4-0.9,0.7c-0.7,0.6-1.3,1.5-1.3,2.5c0,0.7,0.3,1.5,1.1,2.5c1.4,1.6,2,2.9,2,4.1 c0,1-0.5,1.9-1.2,2.5c-0.7,0.6-1.7,1.1-2.8,1.6c-1,0.4-1.8,0.9-2.3,1.6c-0.5,0.6-0.8,1.4-0.8,2.2c0,0.7,0.2,1.5,0.8,2.4 c0.2,0.3,0.4,0.6,0.7,0.9v0L289.7,92.3z M199.1,125.1l0.8-0.6c1.2,1.6,2.4,2.1,3.5,2.1c1.3,0,2.6-0.9,3.7-2.4 c0.6-0.9,1.2-1.7,1.8-2.2c0.7-0.6,1.4-1,2.3-1c0.7,0,1.4,0.2,2.1,0.7c0.7,0.5,1.4,1.2,2.2,2.2c1,1.3,1.9,1.7,2.8,1.7 c0.8,0,1.7-0.4,2.3-0.9c0.6-0.5,1.1-1,1.1-1.1l0,0h0l0.8,0.7c0,0-0.5,0.6-1.2,1.2c-0.7,0.6-1.8,1.2-3.1,1.2c-1.2,0-2.5-0.6-3.6-2.1 c-0.7-0.9-1.4-1.6-1.9-2c-0.6-0.4-1.1-0.5-1.5-0.5c-0.5,0-1.1,0.2-1.6,0.7c-0.6,0.5-1.1,1.2-1.7,2c-1.1,1.7-2.8,2.9-4.6,2.9 C202,127.7,200.5,126.8,199.1,125.1z M144.4,168l-1.1-0.1c0,0,0.1-0.7,0.3-1.5c0.3-0.8,0.7-1.9,1.7-2.6c0.6-0.5,1.4-0.8,2.4-0.8 c0.6,0,1.2,0.1,2,0.3c1.1,0.4,2,0.5,2.7,0.5c0.6,0,1-0.1,1.4-0.3c0.3-0.2,0.6-0.4,0.8-0.8c0.4-0.7,0.6-1.8,0.6-3.1l0-0.4l0,0l0-0.2 c0-1.5,0.4-2.9,1.2-3.9c0.8-1,2.1-1.6,3.6-1.6c0.7,0,1.5,0.1,2.4,0.4l-0.3,1c-0.8-0.3-1.5-0.4-2.1-0.4c-1.3,0-2.1,0.5-2.8,1.2 c-0.6,0.8-1,1.9-1,3.2l0,0.2l0,0l0,0.4c0,1-0.1,2-0.4,2.8c-0.3,0.8-0.8,1.6-1.5,2c-0.5,0.3-1.1,0.4-1.9,0.4c-0.8,0-1.8-0.2-3-0.6 c-0.6-0.2-1.2-0.3-1.6-0.3c-0.7,0-1.3,0.2-1.7,0.5c-0.4,0.3-0.8,0.8-1,1.2C144.5,166.7,144.4,167.8,144.4,168L144.4,168z M158.8,166.8c0,1.5-0.4,2.9-1.2,4c-0.8,1-2.1,1.7-3.6,1.7c-0.8,0-1.6-0.2-2.5-0.5l0.4-1c0.8,0.3,1.5,0.4,2.1,0.4 c1.2,0,2.1-0.5,2.7-1.3c0.6-0.8,1-1.9,1-3.3l0,0h0l0,0c0-1.1,0.1-2.1,0.3-3c0.3-0.9,0.7-1.6,1.5-2.1c0.5-0.3,1.2-0.5,1.9-0.5 c0.9,0,1.9,0.2,3.1,0.6c0.7,0.2,1.2,0.3,1.7,0.3c0.7,0,1.2-0.2,1.7-0.5c0.4-0.3,0.8-0.7,1-1.2c0.5-0.9,0.7-2,0.7-2.2l0,0l0,0 l1.1,0.1c0,0-0.1,0.7-0.3,1.5c-0.3,0.8-0.8,1.9-1.7,2.6c-0.6,0.5-1.4,0.8-2.4,0.8c-0.6,0-1.3-0.1-2-0.4c-1.2-0.4-2.1-0.6-2.8-0.6 c-0.6,0-1,0.1-1.4,0.3c-0.3,0.2-0.6,0.5-0.8,0.8C158.9,164.2,158.8,165.4,158.8,166.8L158.8,166.8L158.8,166.8L158.8,166.8z M227.9,130.4l0.9,0.6c0,0-0.4,0.7-1.2,1.4c-0.7,0.7-1.8,1.4-3.2,1.4c-1.1,0-2.3-0.5-3.5-1.8c-1.5-1.6-2.6-2.2-3.4-2.2 c-0.6,0-1.1,0.3-1.7,0.8c-0.5,0.5-1,1.3-1.5,2.2c-1,2-2.7,3.3-4.7,3.3c-1.4,0-2.9-0.7-4.2-2.2l0.8-0.7c1.2,1.3,2.4,1.8,3.4,1.8 c1.4,0,2.8-1,3.7-2.8c0.5-1,1.1-1.9,1.7-2.5c0.7-0.7,1.5-1.1,2.4-1.1c1.3,0,2.7,0.8,4.2,2.5c1,1.1,1.9,1.4,2.7,1.4 c0.9,0,1.7-0.5,2.3-1C227.4,131.1,227.8,130.5,227.9,130.4L227.9,130.4L227.9,130.4z M234.8,131.4c0,0-0.7-0.1-1.5-0.4 c-0.8-0.3-1.8-0.8-2.6-1.7c-0.5-0.6-0.8-1.4-0.8-2.4c0-0.6,0.1-1.3,0.4-2.1c0.4-1.2,0.6-2.1,0.6-2.8c0-0.6-0.1-1-0.3-1.3 c-0.2-0.3-0.5-0.6-0.8-0.8c-0.7-0.4-1.9-0.6-3.3-0.6c-1.5,0-2.9-0.4-3.9-1.2c-1-0.8-1.6-2-1.6-3.6c0-0.8,0.2-1.7,0.5-2.6l1,0.4 c-0.3,0.8-0.4,1.6-0.4,2.2c0,1.2,0.5,2.1,1.2,2.7c0.8,0.6,1.9,1,3.3,1c1.1,0,2.1,0.1,2.9,0.4c0.9,0.3,1.6,0.7,2.1,1.5 c0.3,0.5,0.5,1.1,0.5,1.9c0,0.9-0.2,1.9-0.7,3.2c-0.2,0.7-0.3,1.2-0.3,1.7c0,0.7,0.2,1.2,0.5,1.6c0.3,0.4,0.7,0.8,1.2,1 c0.9,0.5,2,0.7,2.2,0.7l0,0h0L234.8,131.4z M181,158.7c1,0.8,1.6,2,1.6,3.5c0,0.8-0.2,1.7-0.6,2.7l-1-0.4c0.3-0.9,0.5-1.6,0.5-2.3 c0-1.2-0.4-2-1.2-2.7c-0.8-0.6-1.9-1-3.2-1.1c-1.1,0-2-0.2-2.9-0.4c-0.8-0.3-1.6-0.8-2-1.5c-0.3-0.5-0.4-1.1-0.4-1.8 c0-0.9,0.2-2,0.8-3.3c0.3-0.7,0.4-1.3,0.4-1.8c0-0.7-0.2-1.2-0.5-1.6c-0.3-0.4-0.7-0.8-1.2-1c-0.9-0.5-1.9-0.7-2.1-0.7l0,0h0 l0.1-1.1c0,0,0.7,0.1,1.5,0.4c0.8,0.3,1.8,0.8,2.5,1.7c0.5,0.6,0.8,1.4,0.8,2.3c0,0.7-0.1,1.4-0.5,2.2c-0.5,1.2-0.7,2.2-0.7,2.9 c0,0.6,0.1,1,0.3,1.3c0.2,0.3,0.5,0.6,0.8,0.8c0.7,0.4,1.9,0.6,3.2,0.7C178.6,157.4,180,157.9,181,158.7z M151.2,177.2l0.5,0.9 c-1.2,0.7-2.3,1.1-3.4,1.1c-1.3,0-2.3-0.5-3.2-1.3c-0.8-0.8-1.4-2-1.6-3.3c-0.2-1.2-0.6-2.2-1-2.9c-0.5-0.7-1-1-1.8-1 c-0.8,0-1.8,0.3-3.3,1.2c-1,0.6-1.9,0.9-2.8,0.9c-0.8,0-1.6-0.3-2.1-0.7c-0.6-0.4-1-0.9-1.4-1.4c-0.7-1-1-1.9-1-2h0l1-0.3l0,0.1 l0.1,0.2c0.1,0.2,0.2,0.5,0.4,0.8c0.3,0.6,0.8,1.3,1.5,1.7c0.4,0.3,0.9,0.5,1.5,0.5c0.6,0,1.3-0.2,2.2-0.7c1.5-0.9,2.8-1.3,3.8-1.3 c1.2,0,2.1,0.6,2.7,1.5c0.6,0.9,0.9,2,1.2,3.3c0.2,1.2,0.7,2.1,1.3,2.8c0.6,0.7,1.4,1,2.4,1C149.1,178.2,150.1,177.9,151.2,177.2z M198.4,141.6c1,0.8,1.6,2.1,1.6,3.6c0,0.7-0.1,1.5-0.4,2.3l-1-0.3c0.2-0.7,0.3-1.4,0.3-2c0-1.3-0.5-2.1-1.2-2.8 c-0.8-0.6-1.9-1-3.2-1l-0.3,0c-0.2,0-0.4,0-0.6,0c-1.3,0-2.5-0.2-3.5-0.7c-1-0.6-1.6-1.6-1.5-3.1c0-0.8,0.2-1.8,0.5-2.9 c0.2-0.6,0.3-1.1,0.3-1.6c0-0.7-0.2-1.3-0.5-1.7c-0.3-0.4-0.8-0.8-1.2-1c-1-0.5-2-0.6-2.3-0.6l0,0h0l0.1-1.1c0,0,0.7,0,1.6,0.3 c0.9,0.3,1.9,0.7,2.7,1.7c0.5,0.6,0.8,1.5,0.8,2.5c0,0.6-0.1,1.2-0.3,1.9c-0.3,1.1-0.5,1.9-0.5,2.6c0,1.2,0.4,1.7,1,2.1 c0.6,0.4,1.7,0.6,2.9,0.6c0.2,0,0.4,0,0.6,0l0.3,0C196,140.4,197.4,140.8,198.4,141.6z M189,156.4l0.2,1.1c-0.5,0.1-0.9,0.1-1.3,0.1 c-1.6,0-2.9-0.5-3.8-1.5c-0.9-0.9-1.3-2.2-1.3-3.6c0-0.5,0-1,0.1-1.5c0.1-0.8,0.2-1.5,0.2-2.1c0-0.9-0.2-1.6-0.6-2.1 c-0.4-0.5-1.2-0.8-2.5-0.8c-0.5,0-1.1,0-1.7,0.1c-0.4,0.1-0.8,0.1-1.1,0.1c-1,0-1.8-0.2-2.4-0.6c-0.6-0.4-1.1-1-1.4-1.5 c-0.6-1.2-0.7-2.4-0.7-3.1c0-0.3,0-0.5,0-0.5h0l1.1,0.1l0,0.1l0,0.3c0,0.4,0,1.2,0.3,1.9c0.2,0.7,0.6,1.4,1.3,1.8 c0.4,0.3,1,0.5,1.8,0.5c0.3,0,0.6,0,0.9-0.1c0.7-0.1,1.3-0.2,1.9-0.2c1.5,0,2.6,0.4,3.3,1.1c0.7,0.7,0.9,1.8,0.9,2.8 c0,0.7-0.1,1.5-0.2,2.3c-0.1,0.4-0.1,0.9-0.1,1.3c0,1.2,0.3,2.2,1,2.9c0.6,0.7,1.6,1.1,3,1.1C188.2,156.5,188.6,156.4,189,156.4z M179.2,164.7L179.2,164.7l-0.4,1l0,0l-0.1-0.1c-0.1,0-0.3-0.1-0.5-0.2c-0.4-0.1-1-0.2-1.6-0.2c-0.7,0-1.4,0.2-2,0.6 c-0.6,0.4-1.1,1.2-1.3,2.5c-0.3,1.7-0.7,2.9-1.4,3.7c-0.7,0.8-1.6,1.2-2.5,1.2c-1.2,0-2.4-0.5-3.7-1.2c-1-0.5-1.9-0.8-2.8-0.8 c-0.9,0-1.7,0.3-2.3,0.9c-0.6,0.6-1.2,1.6-1.4,3l-1.1-0.2c0.3-1.6,0.9-2.8,1.7-3.6c0.8-0.8,1.9-1.2,3.1-1.2c1.1,0,2.2,0.3,3.3,0.9 c1.2,0.7,2.3,1.1,3.2,1.1c0.7,0,1.2-0.2,1.6-0.8c0.5-0.6,0.9-1.6,1.2-3.2c0.3-1.5,0.9-2.6,1.7-3.2c0.8-0.6,1.8-0.8,2.6-0.8 C177.9,164.1,179.2,164.6,179.2,164.7z M211.3,141c0.9,0.9,1.4,2.3,1.4,4c0,0.2,0,0.3,0,0.5l-1.1-0.1c0-0.2,0-0.3,0-0.4 c0-1.5-0.4-2.6-1.1-3.3c-0.7-0.7-1.6-1-2.7-1c-0.6,0-1.2,0.1-1.9,0.3c-1,0.3-2,0.5-2.9,0.5c-1,0-2.1-0.3-2.7-1.1 c-0.7-0.8-1-2.1-1-3.8c0-0.2,0-0.5,0-0.8l0-0.4c0-1.6-0.6-2.4-1.3-2.9c-0.7-0.5-1.7-0.6-2.5-0.6c-0.5,0-0.9,0.1-1,0.1l-0.1,0l-0.2-1 c0,0,0.6-0.1,1.3-0.1c0.9,0,2.1,0.1,3.1,0.8c1,0.7,1.8,1.9,1.8,3.8c0,0.1,0,0.3,0,0.4c0,0.3,0,0.5,0,0.7c0,1.6,0.3,2.6,0.8,3.1 c0.4,0.5,1,0.8,1.9,0.8c0.7,0,1.6-0.2,2.6-0.5c0.7-0.2,1.5-0.3,2.2-0.3C209.1,139.7,210.4,140.1,211.3,141z M127.1,172.3l1.1,0.2 c0,0-0.1,0.6-0.4,1.4c-0.3,0.8-0.9,1.7-1.7,2.4c-0.6,0.4-1.4,0.7-2.3,0.7c-0.7,0-1.5-0.2-2.4-0.6c-1.3-0.6-2.3-0.8-3.1-0.8 c-0.5,0-0.9,0.1-1.2,0.3c-0.3,0.2-0.6,0.4-0.8,0.8c-0.1,0.2-0.2,0.4-0.3,0.6c-0.3,0.7-0.4,1.5-0.5,2.5c-0.1,1.5-0.6,2.7-1.4,3.7 c-0.2,0.2-0.4,0.5-0.7,0.6c-0.5,0.4-1.1,0.6-1.7,0.8c-0.3,0.1-0.7,0.1-1,0.1c-0.9,0-1.9-0.2-3-0.7l0.4-1c1,0.4,1.8,0.6,2.5,0.6 c0.6,0,1-0.1,1.5-0.3c0.4-0.2,0.8-0.5,1.1-0.8c0.6-0.7,1-1.8,1.2-3.1c0.1-1,0.3-2,0.6-2.8c0.1-0.2,0.2-0.4,0.3-0.6 c0.3-0.6,0.7-1,1.3-1.4c0.5-0.3,1.1-0.4,1.7-0.4c1,0,2.1,0.3,3.5,0.9c0.8,0.4,1.4,0.5,2,0.5c1.3,0,2-0.7,2.6-1.6 C126.9,173.5,127.1,172.5,127.1,172.3L127.1,172.3L127.1,172.3z M74.1,205l0.8,0.7c-0.6,0.8-1,1.6-1.2,2.3l-1.2,0.7 C72.6,207.4,73.1,206.2,74.1,205z M32.4,227.6c0,0.8,0.3,1.9,0.8,3c0.1,0.2,0.2,0.4,0.2,0.6l-1,0.6c-0.1-0.3-0.1-0.5-0.3-0.8 c-0.5-1.2-0.9-2.3-0.9-3.4c0-1,0.4-2,1.3-2.6c0.9-0.7,2.2-1,4-1.2c1.5-0.1,2.4-0.6,2.8-1.3c0.5-0.6,0.6-1.5,0.6-2.2 c0-0.9-0.2-1.7-0.3-1.8l0,0h0l1-0.3c0,0,0.3,1,0.3,2.2c0,0.9-0.2,2-0.9,2.9c-0.7,0.9-1.9,1.6-3.6,1.7c-1.7,0.1-2.8,0.5-3.5,1 C32.6,226.3,32.4,226.8,32.4,227.6z M44,222.5l0.3,1c-1.3,0.3-2.2,0.9-2.8,1.5c-0.5,0.6-0.7,1.2-0.8,1.9l-1.1,0.6c0-0.1,0-0.2,0-0.4 c0-1,0.4-2.1,1.1-2.9C41.5,223.5,42.6,222.9,44,222.5z M72.5,199.8c1.1,0,2.3,0.4,3.5,1.2l-0.6,0.9c-1.1-0.7-2.1-1-3-1 c-0.9,0-1.7,0.3-2.3,1c-0.6,0.6-1.1,1.6-1.4,2.7c-0.3,1.2-0.7,2.3-1.3,3.2c-0.6,0.9-1.5,1.4-2.6,1.4c-1.1,0-2.4-0.5-3.9-1.5 c-0.9-0.6-1.7-0.8-2.3-0.8c-1.1,0-1.9,0.6-2.5,1.4c-0.6,0.7-0.9,1.6-1,1.7l0,0l0,0l-1-0.3c0,0,0.3-0.9,1-1.9c0.7-0.9,1.8-2,3.5-2 c0.9,0,1.8,0.3,2.9,1c1.5,1,2.6,1.3,3.3,1.3c0.8,0,1.3-0.3,1.8-1c0.5-0.7,0.8-1.6,1.1-2.8c0.3-1.3,0.9-2.4,1.7-3.2 C70.2,200.3,71.3,199.8,72.5,199.8z M97.8,187.8c0,0,0.2,0.7,0.2,1.6c0,0.9-0.2,2.1-0.8,3.1c-0.7,1-2,1.7-3.9,1.7l-0.1,0l-0.2,0 c-1.8,0-2.9,0.3-3.5,0.8c-0.6,0.5-0.8,1-0.8,1.9c0,0.7,0.2,1.4,0.4,2.3l-0.9,0.5c-0.3-1-0.5-2-0.6-2.9c0-1.1,0.3-2.1,1.3-2.7 c0.9-0.7,2.2-1,4.1-1l0.3,0l0.1,0c1.7,0,2.5-0.6,3-1.3c0.5-0.7,0.7-1.7,0.7-2.4c0-0.6-0.1-1.1-0.1-1.3l0-0.1l0,0L97.8,187.8z M104.3,182.9c-0.6,0.6-0.9,1.4-0.9,2.2c0,0.9,0.3,1.9,0.9,2.9c0.3,0.6,0.6,1.1,0.9,1.7l-0.9,0.5c-0.1-0.2-0.2-0.5-0.3-0.7 c-0.2-0.3-0.3-0.6-0.5-0.9c-0.3-0.4-0.5-0.9-0.7-1.3s-0.3-0.9-0.4-1.3c0-0.3-0.1-0.6-0.1-0.9c0-0.5,0.1-1.1,0.3-1.6s0.5-1,0.9-1.4 c0.2-0.2,0.4-0.4,0.7-0.6c0.2-0.2,0.5-0.3,0.8-0.5c0.6-0.3,1.2-0.5,2-0.7l0.2,1C105.8,181.7,104.9,182.3,104.3,182.9z"/></g></svg>