<svg width="413.3" height="415.2" viewBox="49.4 48.4 413.3 415.2" xmlns="http://www.w3.org/2000/svg" xmlns:xlink="http://www.w3.org/1999/xlink" overflow="hidden"><style>
.MsftOfcThm_Text1_Fill_v2 {
 fill:#000000; 
}
</style>
<g id="change1_1" fill="#100F0D"><path d="M202.195 122.113 321.934 122.113C324.453 122.113 326.5 120.07 326.5 117.547 326.5 115.023 324.453 112.98 321.934 112.98L202.195 112.98C199.676 112.98 197.629 115.023 197.629 117.547 197.629 120.07 199.676 122.113 202.195 122.113" class="MsftOfcThm_Text1_Fill_v2" stroke-width="0.999912" fill="#000000"/><path d="M326.5 161.164C326.5 158.641 324.453 156.598 321.934 156.598L202.195 156.598C199.676 156.598 197.629 158.641 197.629 161.164 197.629 163.688 199.676 165.73 202.195 165.73L321.934 165.73C324.453 165.73 326.5 163.688 326.5 161.164" class="MsftOfcThm_Text1_Fill_v2" stroke-width="0.999912" fill="#000000"/><path d="M237.953 245.043C237.953 239.512 239.406 234.141 242.27 229.043 248.793 229.871 255.414 230.305 262.066 230.305 291.492 230.305 318.465 222.176 339.32 208.723 356.391 217.125 366.508 230.566 366.508 245.043 366.508 256.555 360.109 267.508 348.496 275.883 347.094 276.895 346.383 278.613 346.66 280.324L350.379 303.102 327.07 287.703C326.012 287.008 324.699 286.773 323.469 287.078 316.656 288.742 309.512 289.586 302.23 289.586 266.789 289.586 237.953 269.602 237.953 245.043ZM204.891 210.523 154.633 225.957 174.805 194.566C175.977 192.738 175.699 190.336 174.145 188.82 159.398 174.477 151.605 157.371 151.605 139.355 151.605 94.2461 201.156 57.5469 262.066 57.5469 322.973 57.5469 372.527 94.2461 372.527 139.355 372.527 163.156 358.73 184.609 336.754 199.574 336.551 199.691 336.355 199.824 336.172 199.973 316.559 213.137 290.555 221.164 262.066 221.164 243.113 221.164 224.418 217.539 207.988 210.676 207.008 210.266 205.91 210.215 204.891 210.523ZM323.672 296.41 354.051 316.48C354.812 316.984 355.691 317.234 356.566 317.234 357.43 317.234 358.293 316.992 359.051 316.504 360.574 315.516 361.367 313.723 361.074 311.934L356.121 281.574C368.734 271.645 375.645 258.766 375.645 245.043 375.645 228.301 365.312 212.914 347.652 202.809 368.684 186.41 381.66 164.016 381.66 139.355 381.66 89.207 328.012 48.4062 262.066 48.4062 196.117 48.4062 142.469 89.207 142.469 139.355 142.469 158.773 150.289 177.148 165.137 192.707L140.199 231.52C139.16 233.133 139.242 235.219 140.402 236.746 141.281 237.906 142.641 238.555 144.043 238.555 144.488 238.555 144.941 238.488 145.383 238.355L206.008 219.738C214.477 223.152 223.477 225.766 232.773 227.539 230.148 233.133 228.816 238.992 228.816 245.043 228.816 274.645 261.75 298.723 302.23 298.723 309.551 298.723 316.75 297.945 323.672 296.41" class="MsftOfcThm_Text1_Fill_v2" stroke-width="0.999912" fill="#000000"/><path d="M58.5664 300.414C58.5664 283.301 72.4922 269.375 89.6055 269.375 106.723 269.375 120.645 283.301 120.645 300.414 120.645 317.527 106.723 331.449 89.6055 331.449 72.4922 331.449 58.5664 317.527 58.5664 300.414ZM204.777 427.121 163.469 427.121 135.184 358.094C130.617 346.953 121.809 338.527 111.055 334.355 122.297 327.227 129.781 314.68 129.781 300.414 129.781 278.262 111.758 260.238 89.6055 260.238 67.4531 260.238 49.4297 278.262 49.4297 300.414 49.4297 315.426 57.7148 328.531 69.9453 335.426 57.7578 341.57 49.375 354.195 49.375 368.75L49.375 457.227C49.375 459.746 51.4219 461.793 53.9453 461.793 56.4648 461.793 58.5117 459.746 58.5117 457.227L58.5117 368.75C58.5117 353.223 71.1445 340.586 86.6719 340.586L95.4688 340.586C109.238 340.586 121.508 348.82 126.73 361.559L156.176 433.422C156.879 435.137 158.551 436.258 160.402 436.258L204.777 436.258C209.723 436.258 213.738 440.277 213.738 445.492 213.738 450.438 209.723 454.457 204.777 454.457L145.27 454.457C140.156 454.457 135.598 451.398 133.656 446.664L111.762 393.27C110.805 390.938 108.133 389.816 105.801 390.777 103.465 391.734 102.352 394.402 103.309 396.738L125.203 450.133C128.555 458.309 136.434 463.594 145.27 463.594L204.777 463.594C214.758 463.594 222.875 455.473 222.875 445.219 222.875 435.238 214.758 427.121 204.777 427.121" class="MsftOfcThm_Text1_Fill_v2" stroke-width="0.999912" fill="#000000"/><path d="M391.355 300.414C391.355 283.301 405.277 269.375 422.395 269.375 439.508 269.375 453.434 283.301 453.434 300.414 453.434 317.527 439.508 331.449 422.395 331.449 405.277 331.449 391.355 317.527 391.355 300.414ZM442.055 335.426C454.285 328.531 462.566 315.426 462.566 300.414 462.566 278.262 444.547 260.238 422.395 260.238 400.242 260.238 382.219 278.262 382.219 300.414 382.219 314.68 389.703 327.227 400.945 334.355 390.191 338.527 381.383 346.953 376.816 358.094L348.531 427.121 307.223 427.121C297.242 427.121 289.125 435.238 289.125 445.492 289.125 455.473 297.242 463.594 307.223 463.594L366.73 463.594C375.566 463.594 383.445 458.309 386.797 450.133L408.691 396.738C409.648 394.402 408.535 391.734 406.199 390.777 403.867 389.828 401.195 390.938 400.238 393.27L378.344 446.664C376.402 451.398 371.848 454.457 366.73 454.457L307.223 454.457C302.277 454.457 298.262 450.438 298.262 445.219 298.262 440.277 302.277 436.258 307.223 436.258L351.598 436.258C353.449 436.258 355.121 435.137 355.824 433.422L385.27 361.559C390.492 348.82 402.762 340.586 416.527 340.586L425.328 340.586C440.855 340.586 453.488 353.223 453.488 368.75L453.488 457.227C453.488 459.746 455.535 461.793 458.059 461.793 460.578 461.793 462.625 459.746 462.625 457.227L462.625 368.75C462.625 354.195 454.242 341.57 442.055 335.426" class="MsftOfcThm_Text1_Fill_v2" stroke-width="0.999912" fill="#000000"/></g></svg>