<svg width="732.3" height="502" viewBox="-2.3 0 732.3 502" xmlns="http://www.w3.org/2000/svg" xmlns:xlink="http://www.w3.org/1999/xlink" overflow="hidden"><style>
.MsftOfcThm_Accent4_lumMod_40_lumOff_60_Fill_v2 {
 fill:#CCC1DA; 
}
</style>
<g id="change1_1"><path d="M398.5 502C372.5 502 349.5 484.5 332.1 451.4 321 430.3 315.3 408.8 313.6 401.6 309.8 407.9 297.4 426.7 278.1 442.1 256.3 459.4 220.7 475.9 175.5 455.9 152.3 445.7 139.3 431.9 136.8 415 132.6 386 159.9 356.5 170.9 346 160.2 350.4 135.1 359.7 107.3 363.5 85.7 366.5 66.8 365.6 51 360.9 31.2 355 16.4 343 7 325.3-1.5 309.3-2.3 295 4.6 282.6 24.2 247.4 99.1 238.8 115.7 237.3 109.4 233.6 93.3 223 79 207 62.1 188.2 44.4 157.9 55.8 120.6 59.6 108 67.7 98.8 79.7 93.4 100 84.3 131.1 85.6 172.2 97.2 197.9 104.5 219.6 113.8 226 116.6 223.7 106.7 215.4 62.5 238.9 31.6 254.9 10.6 282 0 319.6 0 359.5 0 387.6 10.7 403.1 31.7 421.3 56.5 416.6 89 413.9 101.1 420.3 92.9 436.5 73.1 457.5 55.1 493.6 24 527.5 12 555.6 20.4 573.6 25.8 586 36.5 592.4 52.1 602.5 76.7 595.8 109.5 588.4 132.7 581.8 153.3 573.5 170.2 570.7 175.6 578.8 174.2 610.2 169.2 642.4 170.5 664.4 171.4 682.4 175.1 696.2 181.4 713.5 189.3 723.9 201.5 727 217.5 730 232.9 727.1 246.6 718.4 258.3 697.2 286.6 647.1 295.3 632.6 297.3 638.3 299.6 649.7 304.6 661.6 311.6 684.3 325 698 339.3 702.4 354 705.9 365.7 703.2 377.6 694.4 389.2 677.3 411.7 636.4 420.7 572.6 416.1 529.4 412.9 489.8 404.2 483 402.6 482.1 407.5 477.5 429.1 466.8 450.6 450.7 483.1 427.9 500.8 400.9 501.9 400.1 502 399.3 502 398.5 502ZM314.5 396.1 315.1 398.8C315.2 399.1 320.7 425.1 334 450.5 356.1 492.7 382.6 500.7 400.8 500 419.1 499.3 445 490 465 449.9 477 425.8 481.1 401.6 481.2 401.4L481.4 400.3 482.4 400.5C482.8 400.6 525.6 410.7 572.7 414.2 651.2 420 681.3 403.2 692.7 388.1 701.1 377 703.7 365.8 700.4 354.7 690.4 320.7 628.7 298 628.1 297.8L623.9 296.3 628.4 295.9C629 295.8 692.5 289.7 716.8 257.2 725.2 246 728 232.8 725.1 218 722.1 202.6 712.1 190.9 695.4 183.3 681.9 177.1 664.1 173.5 642.4 172.6 605.3 171 569.5 177.9 569.1 178L567 178.4 568 176.5C568.4 175.7 609.6 99 590.6 52.9 584.4 37.9 572.5 27.6 555 22.4 535.9 16.7 503.8 17.9 458.8 56.6 431.8 79.8 412.7 105.9 412.5 106.2L408.9 111.1 410.7 105.3C410.8 104.9 423.5 62.9 401.4 32.9 386.3 12.4 358.7 2 319.5 2 282.6 2 256 12.4 240.4 32.8 226.9 50.5 224.4 72.7 224.6 88.2 224.8 105.1 228.3 117.9 228.4 118L229 120.1 227 119.2C226 118.7 127.9 73.9 80.5 95.2 69 100.4 61.3 109.1 57.7 121.2 46.6 157.6 64 187.2 80.5 205.7 98.5 225.8 119.4 237.3 119.6 237.4L122.6 239 119.2 239.2C118.3 239.3 27.6 245.8 6.5 283.7-1.42109e-14 295.4 0.8 309.2 8.9 324.5 18 341.7 32.4 353.3 51.7 359.1 67.2 363.7 85.8 364.6 107.1 361.6 143.5 356.6 175.3 342.1 175.6 341.9L182.2 338.9 176.7 343.6C176.3 344 133.9 380.6 138.9 414.8 141.3 431 153.9 444.3 176.4 454.2 196 462.8 215.4 465.3 234 461.5 248.9 458.5 263.4 451.4 277 440.6 300.3 422.1 313.2 398.7 313.3 398.5L314.5 396.1Z" class="MsftOfcThm_Accent4_lumMod_40_lumOff_60_Fill_v2" fill="#CCC1DA"/></g></svg>