<?xml version="1.0" encoding="UTF-8"?><svg xmlns="http://www.w3.org/2000/svg" xmlns:xlink="http://www.w3.org/1999/xlink" contentScriptType="text/ecmascript" fill="#000000" width="645" zoomAndPan="magnify" contentStyleType="text/css" viewBox="0.0 0.0 645.0 498.0" height="498" preserveAspectRatio="xMidYMid meet" version="1"><g id="change1_1"><path fill="#ffffff" d="M535,498c-49.8,0-93.5-33.9-106.2-81.4C416,464.1,372.3,498,322.5,498c-49.8,0-93.5-33.9-106.2-81.4 c-12.8,47.5-56.4,81.4-106.2,81.4C49.4,498,0,448.7,0,388V110C0,49.3,49.3,0,110,0c49.8,0,93.5,33.9,106.2,81.4 C229,33.9,272.7,0,322.5,0c49.8,0,93.5,33.9,106.2,81.4C441.5,33.9,485.2,0,535,0c60.7,0,110,49.3,110,110v278 C645,448.7,595.7,498,535,498z M428.8,408.6C428.8,408.6,428.8,408.6,428.8,408.6c0.7,0,1.3,0.5,1.5,1.2 C440.4,459.2,484.4,495,535,495c59,0,107-48,107-107V110C642,51,594,3,535,3c-50.5,0-94.6,35.8-104.8,85.2c-0.1,0.7-0.8,1.2-1.5,1.2 c0,0,0,0,0,0c-0.7,0-1.3-0.5-1.5-1.2C417.1,38.8,373.1,3,322.5,3C272,3,227.9,38.8,217.7,88.2c-0.1,0.7-0.8,1.2-1.5,1.2c0,0,0,0,0,0 c-0.7,0-1.3-0.5-1.5-1.2C204.6,38.8,160.6,3,110,3C51,3,3,51,3,110v278c0,59,48,107,107.1,107c50.5,0,94.5-35.8,104.7-85.2 c0.1-0.7,0.8-1.2,1.5-1.2c0,0,0,0,0,0c0.7,0,1.3,0.5,1.5,1.2c10.1,49.4,54.2,85.2,104.7,85.2c50.5,0,94.6-35.8,104.8-85.2 C427.5,409.1,428.1,408.6,428.8,408.6z"/></g></svg>