<?xml version="1.0" encoding="UTF-8"?><!-- Generator: Adobe Illustrator 16.0.0, SVG Export Plug-In . SVG Version: 6.00 Build 0)  --><svg xmlns="http://www.w3.org/2000/svg" xmlns:xlink="http://www.w3.org/1999/xlink" contentScriptType="text/ecmascript" zoomAndPan="magnify" contentStyleType="text/css" id="Layer_1" enable-background="new 0 0 100 69.016" version="1.1" xml:space="preserve" width="100px" fill="#000000" preserveAspectRatio="xMidYMid meet" viewBox="0 0 100 69.016" height="69.016px" x="0px" y="0px">
<g id="change1">
	<path fill="#ffffff" d="M4.803,52.938c4.968-0.131,8.921-0.93,11.864-2.401c2.94-1.474,5.293-3.741,7.055-6.814   c-6.86,0-12.53-1.664-17.006-4.998C2.24,35.392,0,29.968,0,22.449c0-2.81,0.504-5.558,1.519-8.234   C2.532,11.533,4.033,9.15,6.03,7.057c1.995-2.092,4.428-3.787,7.303-5.098C16.209,0.653,19.51,0,23.233,0   c7.382,0,13.315,2.401,17.797,7.206c4.474,4.804,6.714,11.221,6.714,19.264c0,4.379-0.638,8.857-1.91,13.431   c-1.272,4.576-3.55,8.791-6.816,12.647c-3.268,3.854-7.68,7.27-13.234,10.24c-5.557,2.979-12.547,5.052-20.979,6.228V52.938H4.803z    M57.057,52.938c4.9-0.131,8.821-0.93,11.764-2.401c2.943-1.473,5.296-3.741,7.061-6.814c-6.799,0-12.449-1.664-16.962-4.998   c-4.512-3.331-6.767-8.758-6.767-16.274c0-2.808,0.506-5.556,1.521-8.235c1.014-2.679,2.532-5.068,4.557-7.157   c2.024-2.092,4.476-3.787,7.355-5.098C68.46,0.653,71.764,0,75.486,0c7.385,0,13.314,2.401,17.797,7.206   C97.76,12.01,100,18.427,100,26.47c0,4.379-0.639,8.857-1.913,13.431c-1.274,4.576-3.549,8.791-6.815,12.647   c-3.269,3.854-7.683,7.27-13.236,10.24c-5.555,2.979-12.545,5.052-20.979,6.228V52.938L57.057,52.938z"/>
</g>
</svg>