<?xml version="1.0" encoding="UTF-8"?><svg xmlns="http://www.w3.org/2000/svg" xmlns:xlink="http://www.w3.org/1999/xlink" contentScriptType="text/ecmascript" fill="#000000" width="499" zoomAndPan="magnify" contentStyleType="text/css" viewBox="-0.2 -2.1 499.0 416.3" height="416.3" preserveAspectRatio="xMidYMid meet" version="1"><defs><clipPath id="a"><path d="M 5 60 L 451 60 L 451 414.21875 L 5 414.21875 Z M 5 60"/></clipPath><clipPath id="b"><path d="M 111 4 L 498.808594 4 L 498.808594 379 L 111 379 Z M 111 4"/></clipPath></defs><g><g id="change1_1"><path fill="#ffffff" d="M 433.324219 298.765625 C 414.917969 241.253906 390.9375 195.828125 377.808594 173.140625 C 371.890625 162.921875 362.199219 155.453125 350.804688 152.34375 C 334.195312 147.808594 309.238281 141.578125 292.113281 139.910156 L 286.226562 115.605469 L 285.945312 90.375 C 285.945312 90.375 299.304688 86.203125 295.6875 74.515625 C 292.066406 62.828125 280.382812 68.394531 280.382812 68.394531 L 284.183594 55.726562 C 287.207031 45.648438 282.234375 34.925781 272.613281 30.652344 C 258.585938 24.421875 237.621094 20.851562 218.890625 40.570312 C 218.890625 40.570312 202.195312 85.644531 212.210938 108.460938 C 222.226562 131.277344 231.132812 129.332031 231.132812 129.332031 L 229.675781 139.578125 C 229.675781 139.578125 188.136719 142.300781 164.398438 158.917969 C 134.71875 179.695312 73.457031 354.804688 73.457031 354.804688 L 312.445312 375.128906 C 312.445312 375.128906 344.015625 412.257812 384.082031 410.773438 C 424.148438 409.292969 460.035156 382.226562 433.324219 298.765625 Z M 75.945312 294.03125 C 75.640625 297 71.035156 308.253906 70.011719 308.96875 C 68.988281 309.6875 55.277344 313.269531 53.433594 313.882812 C 51.59375 314.496094 28.058594 318.664062 28.058594 318.664062 C 27.894531 318.757812 27.734375 318.863281 27.566406 318.9375 C 25.511719 319.855469 19.433594 319.472656 13.597656 318.8125 C 6.144531 317.96875 0.414062 311.800781 0.148438 304.304688 C -0.21875 293.972656 -0.0898438 280.910156 2.8125 279.75 C 4.4375 279.097656 7.09375 277.933594 10.003906 276.679688 L 17.417969 270.703125 C 17.417969 270.703125 32.152344 267.222656 32.460938 267.222656 C 32.765625 267.222656 52.921875 272.339844 55.175781 273.875 C 57.425781 275.410156 68.167969 280.117188 68.886719 281.140625 C 69.601562 282.160156 76.253906 291.0625 75.945312 294.03125"/></g><g id="change2_1" clip-path="url(#a)"><path fill="#f1e510" d="M 135.8125 250.648438 C 135.433594 249.484375 135.613281 248.539062 135.929688 247.648438 L 136.832031 244.960938 C 137.433594 243.167969 138.015625 241.367188 138.667969 239.59375 C 139.921875 236.027344 141.261719 232.496094 142.578125 228.957031 C 145.210938 221.878906 147.84375 214.796875 150.691406 207.800781 C 153.527344 200.800781 156.542969 193.867188 159.488281 186.910156 L 163.785156 176.429688 C 164.511719 174.683594 165.238281 172.941406 166.015625 171.21875 L 167.191406 168.636719 C 167.585938 167.777344 168.097656 166.964844 169.082031 166.339844 C 169.375 167.46875 169.191406 168.410156 168.894531 169.308594 L 167.992188 171.996094 C 167.378906 173.785156 166.71875 175.554688 166.058594 177.324219 L 162.039062 187.917969 C 159.441406 195.011719 156.910156 202.132812 154.203125 209.183594 C 151.503906 216.238281 148.589844 223.210938 145.679688 230.179688 C 144.222656 233.667969 142.792969 237.160156 141.269531 240.621094 C 140.535156 242.363281 139.734375 244.074219 138.949219 245.796875 L 137.769531 248.375 C 137.394531 249.242188 136.882812 250.054688 135.8125 250.648438 Z M 237.613281 188.761719 C 259.210938 188.765625 294.570312 152.058594 294.9375 151.675781 C 295.660156 150.917969 296.859375 150.890625 297.613281 151.613281 C 298.371094 152.335938 298.398438 153.535156 297.675781 154.289062 C 296.132812 155.90625 260.816406 192.539062 237.515625 192.542969 C 236.675781 192.542969 235.851562 192.496094 235.042969 192.394531 C 229.90625 191.765625 226.011719 189.40625 223.464844 185.378906 C 215.765625 173.191406 223.441406 149.757812 223.769531 148.765625 C 224.101562 147.773438 225.171875 147.234375 226.164062 147.570312 C 227.15625 147.898438 227.691406 148.96875 227.363281 149.964844 C 227.289062 150.1875 219.921875 172.6875 226.667969 183.359375 C 228.605469 186.421875 231.496094 188.148438 235.503906 188.636719 C 236.1875 188.722656 236.894531 188.761719 237.613281 188.761719 Z M 439.917969 381.957031 C 420.042969 408.269531 396.59375 414.21875 379.457031 414.21875 C 378.441406 414.21875 377.445312 414.199219 376.476562 414.160156 C 375.433594 414.117188 374.621094 413.238281 374.660156 412.195312 C 374.703125 411.148438 375.570312 410.355469 376.628906 410.378906 C 393.046875 411.042969 416.832031 406.242188 436.894531 379.679688 C 477.054688 326.511719 377.246094 175.710938 376.234375 174.195312 C 375.652344 173.324219 375.886719 172.148438 376.757812 171.566406 C 377.625 170.988281 378.800781 171.222656 379.382812 172.089844 C 379.636719 172.472656 405.210938 210.941406 425.371094 255.628906 C 452.65625 316.105469 457.550781 358.609375 439.917969 381.957031 Z M 337.21875 278.28125 C 337.113281 275.269531 334.671875 204.324219 342.234375 189.773438 C 349.925781 174.972656 360.417969 171.480469 360.859375 171.339844 C 361.851562 171.015625 362.921875 171.570312 363.238281 172.566406 C 363.558594 173.558594 363.011719 174.621094 362.019531 174.945312 C 361.847656 175 352.488281 178.253906 345.59375 191.519531 C 338.488281 205.195312 340.976562 277.421875 341.003906 278.148438 C 341.039062 279.191406 340.222656 280.070312 339.179688 280.105469 C 339.15625 280.109375 339.132812 280.109375 339.109375 280.109375 C 338.097656 280.109375 337.257812 279.304688 337.21875 278.28125 Z M 205.976562 63.113281 L 224.976562 66.925781 C 224.878906 67.730469 224.703125 68.914062 224.394531 70.261719 C 224.226562 70.511719 224.160156 70.800781 224.191406 71.082031 C 223.421875 74.054688 222.007812 77.554688 219.453125 79.496094 C 217.617188 80.890625 215.453125 81.292969 212.832031 80.734375 C 210.09375 80.144531 208.144531 78.816406 206.875 76.671875 C 204.269531 72.265625 205.382812 65.707031 205.976562 63.113281 Z M 237.878906 69.261719 L 256.882812 73.074219 C 256.789062 73.847656 256.621094 74.980469 256.332031 76.269531 C 256.3125 76.332031 256.300781 76.394531 256.289062 76.457031 C 255.570312 79.566406 254.144531 83.523438 251.359375 85.640625 C 249.527344 87.039062 247.359375 87.445312 244.738281 86.882812 C 241.996094 86.292969 240.046875 84.964844 238.78125 82.816406 C 236.175781 78.414062 237.289062 71.851562 237.878906 69.261719 Z M 212.300781 83.199219 C 215.640625 83.917969 218.5625 83.347656 220.984375 81.503906 C 224.164062 79.082031 225.828125 74.917969 226.695312 71.507812 C 227.453125 70.933594 229.867188 69.832031 234.671875 73.621094 C 234.441406 76.894531 234.707031 80.882812 236.601562 84.09375 C 238.226562 86.84375 240.785156 88.613281 244.207031 89.347656 C 245.140625 89.546875 246.035156 89.648438 246.902344 89.648438 C 249.136719 89.648438 251.144531 88.980469 252.890625 87.648438 C 256.085938 85.214844 257.753906 81.015625 258.613281 77.59375 L 282.429688 68.976562 C 283.085938 68.738281 283.421875 68.015625 283.1875 67.359375 C 282.949219 66.703125 282.226562 66.363281 281.570312 66.601562 L 259.210938 74.695312 C 259.441406 73.25 259.503906 72.261719 259.511719 72.132812 C 259.546875 71.503906 259.113281 70.945312 258.5 70.820312 L 237.199219 66.550781 C 236.558594 66.425781 235.933594 66.800781 235.742188 67.425781 C 235.699219 67.566406 235.320312 68.851562 235.011719 70.738281 C 232.4375 68.96875 230.070312 68.191406 227.960938 68.421875 C 227.730469 68.449219 227.511719 68.484375 227.308594 68.53125 C 227.535156 67.09375 227.597656 66.113281 227.605469 65.984375 C 227.640625 65.355469 227.210938 64.800781 226.59375 64.675781 L 205.296875 60.40625 C 204.65625 60.28125 204.027344 60.65625 203.839844 61.277344 C 203.714844 61.6875 200.847656 71.421875 204.699219 77.945312 C 206.320312 80.699219 208.878906 82.464844 212.300781 83.199219 Z M 151.730469 356.703125 C 137.078125 358.324219 122.867188 349.714844 119.984375 337.480469 C 117.105469 325.242188 126.648438 314.011719 141.300781 312.390625 C 155.953125 310.773438 170.167969 319.382812 173.046875 331.617188 C 175.925781 343.855469 166.382812 355.085938 151.730469 356.703125 Z M 303.925781 373.992188 L 255.558594 261.511719 C 252.722656 254.917969 246.238281 250.648438 239.0625 250.648438 L 15.621094 250.648438 C 8.074219 250.648438 2.988281 258.367188 5.96875 265.300781 L 7.046875 267.804688 C 6.996094 268.9375 7.179688 270.109375 7.671875 271.253906 L 10.003906 276.679688 C 10.320312 276.542969 10.640625 276.40625 10.964844 276.265625 C 11.070312 276.222656 11.175781 276.175781 11.28125 276.128906 C 11.539062 276.019531 11.792969 275.910156 12.050781 275.800781 C 12.175781 275.746094 12.300781 275.695312 12.425781 275.640625 C 12.652344 275.546875 12.878906 275.449219 13.101562 275.351562 C 13.257812 275.285156 13.414062 275.222656 13.570312 275.15625 C 13.777344 275.066406 13.984375 274.980469 14.191406 274.894531 C 14.347656 274.828125 14.503906 274.765625 14.660156 274.699219 C 14.867188 274.613281 15.074219 274.527344 15.277344 274.441406 C 15.4375 274.378906 15.59375 274.3125 15.75 274.246094 C 15.949219 274.164062 16.148438 274.085938 16.34375 274.007812 C 16.5 273.941406 16.65625 273.878906 16.8125 273.816406 C 17.003906 273.738281 17.191406 273.664062 17.378906 273.589844 C 17.539062 273.523438 17.695312 273.460938 17.851562 273.398438 C 18.03125 273.328125 18.207031 273.261719 18.382812 273.191406 C 18.539062 273.132812 18.695312 273.070312 18.84375 273.011719 C 19.019531 272.945312 19.191406 272.882812 19.359375 272.820312 C 19.503906 272.765625 19.652344 272.710938 19.792969 272.65625 C 19.960938 272.59375 20.121094 272.535156 20.285156 272.476562 C 20.421875 272.429688 20.558594 272.378906 20.691406 272.332031 C 20.84375 272.277344 20.992188 272.226562 21.140625 272.175781 C 21.273438 272.132812 21.402344 272.085938 21.527344 272.042969 C 21.671875 271.996094 21.808594 271.953125 21.945312 271.910156 C 22.0625 271.871094 22.183594 271.832031 22.292969 271.800781 C 22.425781 271.757812 22.550781 271.722656 22.675781 271.6875 C 22.777344 271.660156 22.886719 271.628906 22.984375 271.601562 C 23.105469 271.566406 23.21875 271.542969 23.332031 271.515625 C 23.417969 271.496094 23.507812 271.472656 23.585938 271.453125 C 23.707031 271.429688 23.8125 271.410156 23.917969 271.394531 C 23.976562 271.382812 24.042969 271.367188 24.097656 271.363281 C 24.253906 271.34375 24.390625 271.328125 24.507812 271.328125 C 27.421875 271.328125 52.359375 280.074219 53.007812 282.664062 C 53.65625 285.257812 51.710938 288.816406 51.710938 288.816406 C 51.710938 288.816406 56.894531 289.464844 57.863281 293.351562 C 58.835938 297.238281 49.769531 299.179688 49.769531 299.179688 C 49.769531 299.179688 50.742188 305.65625 47.503906 306.304688 C 44.265625 306.953125 35.519531 307.601562 35.519531 307.601562 C 35.519531 307.601562 35.507812 307.636719 35.484375 307.695312 C 35.476562 307.707031 35.46875 307.734375 35.460938 307.75 C 35.4375 307.804688 35.414062 307.871094 35.378906 307.953125 C 35.359375 308 35.332031 308.066406 35.308594 308.117188 C 35.277344 308.199219 35.246094 308.277344 35.203125 308.371094 C 35.175781 308.441406 35.136719 308.527344 35.101562 308.605469 C 35.058594 308.707031 35.019531 308.804688 34.96875 308.914062 C 34.925781 309.011719 34.878906 309.117188 34.832031 309.21875 C 34.78125 309.335938 34.726562 309.449219 34.671875 309.574219 C 34.621094 309.6875 34.5625 309.804688 34.507812 309.925781 C 34.445312 310.054688 34.382812 310.1875 34.316406 310.324219 C 34.253906 310.453125 34.1875 310.589844 34.121094 310.71875 C 34.054688 310.859375 33.984375 311 33.910156 311.144531 C 33.839844 311.285156 33.765625 311.429688 33.691406 311.570312 C 33.613281 311.722656 33.53125 311.871094 33.453125 312.023438 C 33.371094 312.167969 33.292969 312.3125 33.210938 312.460938 C 33.125 312.617188 33.035156 312.773438 32.945312 312.933594 C 32.859375 313.078125 32.773438 313.226562 32.6875 313.371094 C 32.589844 313.53125 32.492188 313.691406 32.394531 313.851562 C 32.304688 313.996094 32.210938 314.140625 32.117188 314.285156 C 32.015625 314.449219 31.90625 314.605469 31.800781 314.765625 C 31.707031 314.90625 31.609375 315.042969 31.515625 315.179688 C 31.402344 315.339844 31.285156 315.496094 31.167969 315.652344 C 31.070312 315.78125 30.976562 315.910156 30.875 316.035156 C 30.75 316.195312 30.621094 316.34375 30.496094 316.496094 C 30.398438 316.609375 30.304688 316.722656 30.207031 316.832031 C 30.070312 316.984375 29.925781 317.128906 29.785156 317.273438 C 29.691406 317.367188 29.601562 317.464844 29.507812 317.550781 C 29.351562 317.699219 29.191406 317.832031 29.03125 317.964844 C 28.949219 318.03125 28.867188 318.105469 28.785156 318.171875 C 28.546875 318.355469 28.304688 318.523438 28.058594 318.664062 L 62.097656 397.828125 C 64.933594 404.421875 71.417969 408.691406 78.59375 408.691406 L 363.972656 408.691406 C 369.59375 408.691406 374.152344 404.136719 374.152344 398.511719 L 374.152344 390.328125 L 302.820312 390.328125 C 305.640625 385.636719 306.363281 379.660156 303.925781 373.992188"/></g><g id="change3_1"><path fill="#243484" d="M 216.035156 79.246094 C 218.1875 79.246094 219.929688 77.503906 219.929688 75.351562 C 219.929688 73.199219 218.1875 71.453125 216.035156 71.453125 C 213.882812 71.453125 212.140625 73.199219 212.140625 75.351562 C 212.140625 77.503906 213.882812 79.246094 216.035156 79.246094 Z M 247.304688 83.140625 C 249.453125 83.140625 251.199219 81.398438 251.199219 79.246094 C 251.199219 77.09375 249.453125 75.351562 247.304688 75.351562 C 245.152344 75.351562 243.40625 77.09375 243.40625 79.246094 C 243.40625 81.398438 245.152344 83.140625 247.304688 83.140625 Z M 34.273438 306.535156 L 33.539062 306.222656 C 33.046875 306.03125 32.546875 305.859375 32.039062 305.726562 C 31.023438 305.457031 29.996094 305.253906 28.976562 304.964844 C 27.960938 304.671875 26.9375 304.386719 25.867188 304.140625 C 25.316406 304.023438 24.800781 303.90625 24.117188 303.847656 C 23.496094 303.8125 22.972656 303.816406 22.433594 303.8125 C 20.304688 303.804688 18.246094 304.167969 16.171875 304.460938 C 15.136719 304.617188 14.101562 304.742188 13.074219 304.964844 C 12.558594 305.070312 12.046875 305.203125 11.535156 305.34375 L 10.769531 305.574219 C 10.511719 305.632812 10.265625 305.824219 10.074219 306.625 C 10.398438 307.382812 10.671875 307.53125 10.933594 307.546875 L 11.722656 307.644531 C 12.25 307.699219 12.777344 307.75 13.300781 307.769531 C 14.347656 307.824219 15.386719 307.785156 16.425781 307.785156 C 18.503906 307.761719 20.59375 307.8125 22.625 307.585938 C 23.128906 307.53125 23.644531 307.476562 24.0625 307.457031 C 24.421875 307.421875 24.941406 307.433594 25.421875 307.453125 C 26.414062 307.488281 27.441406 307.570312 28.46875 307.660156 C 29.496094 307.757812 30.507812 307.972656 31.53125 308.132812 C 32.039062 308.214844 32.558594 308.261719 33.082031 308.296875 L 33.871094 308.320312 C 34.136719 308.328125 34.425781 308.214844 34.835938 307.601562 C 34.734375 306.871094 34.515625 306.644531 34.273438 306.535156 Z M 48.175781 297.910156 L 47.023438 297.367188 C 46.25 297.023438 45.46875 296.699219 44.675781 296.40625 L 39.90625 294.691406 C 36.746094 293.472656 33.609375 292.195312 30.339844 291.175781 C 29.511719 290.929688 28.703125 290.675781 27.8125 290.472656 C 27.40625 290.367188 26.859375 290.265625 26.332031 290.203125 C 26.039062 290.1875 25.746094 290.1875 25.457031 290.1875 L 24.730469 290.253906 C 22.851562 290.476562 21.21875 290.90625 19.539062 291.320312 C 17.878906 291.757812 16.234375 292.195312 14.617188 292.742188 C 13.808594 293.011719 13.011719 293.3125 12.21875 293.625 L 11.03125 294.113281 C 10.632812 294.261719 10.269531 294.539062 10.074219 295.40625 C 10.691406 296.042969 11.136719 296.101562 11.550781 296.023438 L 12.808594 295.859375 L 15.308594 295.472656 L 20.234375 294.582031 C 21.855469 294.308594 23.535156 294.058594 25.019531 293.996094 L 25.550781 293.976562 C 25.683594 293.992188 25.8125 294.007812 25.941406 294.003906 C 26.246094 294.054688 26.535156 294.101562 26.941406 294.210938 L 29.300781 294.808594 L 39.058594 297.296875 C 40.679688 297.746094 42.289062 298.25 43.902344 298.738281 C 44.707031 298.980469 45.527344 299.1875 46.347656 299.382812 L 47.59375 299.644531 C 48.007812 299.730469 48.464844 299.699219 49.085938 299.179688 C 48.90625 298.394531 48.5625 298.09375 48.175781 297.910156 Z M 30.363281 278.707031 C 30.363281 278.714844 30.359375 278.714844 30.359375 278.714844 C 30.359375 278.730469 30.371094 278.734375 30.378906 278.726562 C 30.378906 278.726562 30.386719 278.71875 30.390625 278.710938 L 30.386719 278.707031 Z M 50.675781 286.957031 L 49.707031 286.191406 C 49.046875 285.699219 48.378906 285.222656 47.6875 284.78125 L 43.53125 282.148438 C 40.792969 280.332031 38.089844 278.464844 35.179688 276.84375 C 34.453125 276.441406 33.710938 276.046875 32.949219 275.671875 L 32.355469 275.402344 L 32.0625 275.265625 L 31.914062 275.199219 C 31.847656 275.171875 31.722656 275.136719 31.628906 275.109375 C 31.425781 275.050781 31.21875 275.003906 31.011719 274.96875 L 30.699219 274.917969 L 30.476562 274.921875 L 29.617188 274.957031 C 27.625 275.25 26.09375 275.875 24.496094 276.46875 C 22.925781 277.09375 21.402344 277.746094 19.925781 278.511719 C 19.183594 278.886719 18.464844 279.300781 17.746094 279.722656 L 16.6875 280.375 C 16.328125 280.578125 16.019531 280.910156 15.980469 281.789062 C 16.683594 282.324219 17.121094 282.3125 17.503906 282.179688 L 18.679688 281.832031 L 21.007812 281.109375 C 22.550781 280.617188 24.0625 280.0625 25.585938 279.621094 C 27.078125 279.179688 28.679688 278.777344 29.945312 278.695312 C 30.066406 278.707031 30.183594 278.710938 30.304688 278.710938 L 30.363281 278.707031 C 30.363281 278.703125 30.355469 278.695312 30.371094 278.699219 L 30.386719 278.707031 L 30.390625 278.707031 C 30.390625 278.707031 30.390625 278.707031 30.390625 278.710938 L 30.5 278.761719 L 30.761719 278.886719 L 31.28125 279.132812 L 33.417969 280.183594 L 42.144531 284.511719 C 43.585938 285.277344 45.003906 286.085938 46.421875 286.886719 C 47.136719 287.285156 47.863281 287.65625 48.601562 288.007812 L 49.726562 288.515625 C 50.101562 288.6875 50.539062 288.75 51.246094 288.378906 C 51.261719 287.574219 51 287.210938 50.675781 286.957031 Z M 314.867188 347.503906 L 314.882812 346.316406 C 314.894531 345.917969 314.777344 345.511719 314.175781 344.992188 C 313.425781 345.265625 313.1875 345.648438 313.074219 346.042969 L 312.761719 347.234375 C 312.59375 348.035156 312.421875 348.839844 312.335938 349.648438 C 312.226562 350.460938 312.160156 351.273438 312.105469 352.089844 C 312.027344 352.902344 311.964844 353.71875 311.929688 354.535156 C 311.699219 357.800781 311.5625 361.125 312.019531 364.433594 C 312.429688 367.75 313.453125 371.003906 314.910156 374.0625 C 315.742188 375.546875 316.464844 377.09375 317.613281 378.378906 C 318.160156 379.035156 318.652344 379.722656 319.335938 380.253906 L 320.3125 381.074219 C 320.621094 381.359375 321.035156 381.554688 321.839844 381.28125 C 322.105469 380.417969 321.980469 380.019531 321.746094 379.710938 L 321.097656 378.761719 C 320.621094 378.171875 320.328125 377.441406 319.941406 376.796875 C 319.136719 375.523438 318.582031 374.097656 317.96875 372.730469 C 316.898438 369.882812 316.359375 366.875 315.75 363.867188 C 315.195312 360.839844 314.816406 357.730469 314.671875 354.589844 C 314.613281 353.015625 314.683594 351.441406 314.785156 349.871094 C 314.816406 349.085938 314.859375 348.300781 314.867188 347.503906 Z M 129.753906 103.753906 C 131.515625 104.679688 133.460938 104.933594 135.199219 104.984375 C 136.949219 105.035156 138.601562 104.90625 140.03125 105.011719 C 141.507812 105.109375 142.398438 105.515625 142.960938 106.285156 C 143.542969 107.074219 143.886719 108.582031 144.023438 109.929688 C 144.140625 111.3125 143.960938 112.671875 143.574219 114.164062 C 143.394531 114.921875 143.171875 115.710938 142.976562 116.613281 C 142.800781 117.523438 142.644531 118.609375 142.898438 119.820312 C 143.171875 121.058594 143.929688 122.03125 144.675781 122.777344 C 145.070312 123.089844 145.4375 123.425781 145.871094 123.699219 C 146.328125 123.949219 146.738281 124.261719 147.25 124.425781 C 149.253906 125.25 151.445312 124.992188 153.082031 124.5 C 154.773438 124.027344 156.25 123.4375 157.675781 123.175781 C 159.089844 122.945312 160.386719 123.105469 161.574219 123.773438 C 162.769531 124.433594 163.660156 125.46875 164.199219 126.746094 C 164.742188 128.027344 164.917969 129.53125 164.890625 131.058594 C 164.882812 131.824219 164.824219 132.597656 164.714844 133.375 C 164.597656 134.152344 164.582031 134.929688 164.960938 135.925781 C 165.886719 135.375 166.28125 134.566406 166.503906 133.746094 C 166.726562 132.917969 166.90625 132.074219 167.007812 131.203125 C 167.222656 129.476562 167.132812 127.636719 166.480469 125.859375 C 165.859375 124.074219 164.503906 122.496094 162.851562 121.542969 C 161.21875 120.527344 159.101562 120.203125 157.285156 120.460938 C 155.464844 120.691406 153.847656 121.234375 152.363281 121.542969 C 150.863281 121.886719 149.605469 121.851562 148.574219 121.355469 C 148.050781 121.109375 147.566406 120.71875 147.101562 120.28125 C 146.734375 119.839844 146.480469 119.457031 146.425781 119.066406 C 146.363281 118.660156 146.421875 118.09375 146.582031 117.410156 C 146.757812 116.71875 147 115.9375 147.230469 115.109375 C 147.695312 113.445312 147.976562 111.515625 147.816406 109.632812 C 147.753906 108.679688 147.566406 107.773438 147.324219 106.84375 C 147.164062 106.367188 146.988281 105.898438 146.800781 105.429688 C 146.523438 104.957031 146.277344 104.480469 145.945312 104.035156 C 145.539062 103.621094 145.210938 103.136719 144.699219 102.835938 L 143.96875 102.347656 C 143.714844 102.226562 143.453125 102.125 143.191406 102.019531 C 142.144531 101.605469 141.144531 101.519531 140.214844 101.472656 C 138.371094 101.429688 136.757812 101.640625 135.234375 101.652344 C 133.71875 101.675781 132.320312 101.515625 131.148438 100.964844 C 130.023438 100.429688 129.1875 99.597656 128.761719 98.296875 C 128.347656 97.019531 128.21875 95.5 128.3125 93.96875 C 128.351562 93.199219 128.464844 92.425781 128.597656 91.652344 C 128.757812 90.878906 128.804688 90.101562 128.355469 89.066406 C 127.335938 89.570312 126.914062 90.363281 126.675781 91.175781 C 126.433594 91.992188 126.207031 92.824219 126.054688 93.679688 C 125.75 95.386719 125.59375 97.210938 126.078125 99.089844 C 126.492188 100.96875 127.921875 102.871094 129.753906 103.753906 Z M 469.097656 177.742188 C 468.367188 177.292969 467.609375 176.875 466.808594 176.527344 C 465.21875 175.824219 463.425781 175.386719 461.539062 175.5 C 459.652344 175.578125 457.746094 176.425781 456.359375 177.734375 C 454.917969 179.003906 453.996094 180.941406 453.726562 182.753906 C 453.421875 184.5625 453.476562 186.265625 453.347656 187.777344 C 453.246094 189.3125 452.851562 190.511719 452.078125 191.355469 C 451.691406 191.785156 451.179688 192.136719 450.625 192.457031 C 450.097656 192.679688 449.660156 192.8125 449.269531 192.753906 C 448.863281 192.695312 448.332031 192.476562 447.726562 192.128906 C 447.113281 191.761719 446.4375 191.304688 445.707031 190.84375 C 444.25 189.925781 442.484375 189.101562 440.632812 188.710938 C 439.699219 188.496094 438.777344 188.414062 437.820312 188.378906 C 437.316406 188.394531 436.816406 188.429688 436.3125 188.476562 C 435.78125 188.605469 435.257812 188.703125 434.734375 188.894531 C 434.222656 189.164062 433.660156 189.339844 433.222656 189.742188 L 432.550781 190.304688 C 432.359375 190.511719 432.1875 190.734375 432.011719 190.949219 C 431.3125 191.835938 430.941406 192.769531 430.628906 193.648438 C 430.0625 195.398438 429.800781 197.007812 429.371094 198.46875 C 428.957031 199.929688 428.40625 201.21875 427.539062 202.183594 C 426.703125 203.109375 425.667969 203.671875 424.296875 203.703125 C 422.953125 203.734375 421.464844 203.421875 420.023438 202.890625 C 419.300781 202.632812 418.589844 202.300781 417.886719 201.953125 C 417.191406 201.574219 416.460938 201.308594 415.34375 201.441406 C 415.53125 202.5625 416.167969 203.191406 416.878906 203.65625 C 417.59375 204.125 418.320312 204.578125 419.101562 204.96875 C 420.644531 205.753906 422.347656 206.429688 424.289062 206.503906 C 426.203125 206.644531 428.441406 205.824219 429.808594 204.324219 C 431.203125 202.898438 432.003906 201.113281 432.554688 199.460938 C 433.105469 197.800781 433.460938 196.179688 433.96875 194.839844 C 434.484375 193.453125 435.128906 192.714844 436.03125 192.398438 C 436.953125 192.066406 438.496094 192.171875 439.828125 192.429688 C 441.183594 192.714844 442.433594 193.277344 443.753906 194.074219 C 444.425781 194.464844 445.117188 194.90625 445.925781 195.351562 C 446.75 195.78125 447.742188 196.242188 448.976562 196.351562 C 450.242188 196.445312 451.390625 195.996094 452.320312 195.496094 C 452.730469 195.207031 453.15625 194.953125 453.546875 194.617188 C 453.914062 194.25 454.332031 193.945312 454.640625 193.503906 C 456.003906 191.824219 456.386719 189.648438 456.386719 187.9375 C 456.417969 186.183594 456.277344 184.597656 456.4375 183.160156 C 456.621094 181.738281 457.148438 180.546875 458.128906 179.597656 C 459.105469 178.644531 460.351562 178.085938 461.730469 177.933594 C 463.113281 177.785156 464.605469 178.050781 466.058594 178.515625 C 466.789062 178.742188 467.519531 179.019531 468.226562 179.347656 C 468.941406 179.683594 469.679688 179.921875 470.742188 179.847656 C 470.480469 178.804688 469.820312 178.191406 469.097656 177.742188 Z M 365.679688 132.632812 C 366.515625 132.441406 367.347656 132.230469 368.167969 131.941406 C 369.800781 131.371094 371.46875 130.609375 372.867188 129.261719 C 374.296875 127.980469 375.253906 125.800781 375.121094 123.769531 C 375.0625 121.78125 374.328125 119.964844 373.519531 118.425781 C 372.703125 116.875 371.78125 115.496094 371.164062 114.199219 C 370.527344 112.867188 370.441406 111.890625 370.835938 111.023438 C 371.234375 110.128906 372.382812 109.089844 373.492188 108.308594 C 374.632812 107.527344 375.90625 107.015625 377.398438 106.617188 C 378.144531 106.402344 378.941406 106.210938 379.820312 105.933594 C 380.703125 105.636719 381.722656 105.242188 382.652344 104.429688 C 383.601562 103.578125 384.074219 102.441406 384.355469 101.425781 C 384.433594 100.925781 384.546875 100.445312 384.574219 99.933594 C 384.5625 99.410156 384.632812 98.898438 384.527344 98.371094 C 384.261719 96.226562 382.957031 94.441406 381.726562 93.257812 C 380.480469 92.019531 379.242188 91.019531 378.316406 89.910156 C 377.417969 88.789062 376.921875 87.582031 376.917969 86.21875 C 376.90625 84.855469 377.367188 83.566406 378.214844 82.472656 C 379.066406 81.367188 380.289062 80.476562 381.632812 79.753906 C 382.304688 79.382812 383.007812 79.050781 383.734375 78.765625 C 384.472656 78.484375 385.15625 78.117188 385.839844 77.296875 C 384.90625 76.761719 384.007812 76.816406 383.179688 77.023438 C 382.351562 77.238281 381.527344 77.496094 380.71875 77.832031 C 379.109375 78.496094 377.550781 79.480469 376.328125 80.921875 C 375.074219 82.339844 374.367188 84.296875 374.351562 86.203125 C 374.265625 88.125 375.023438 90.128906 376.144531 91.582031 C 377.238281 93.054688 378.503906 94.195312 379.503906 95.335938 C 380.539062 96.472656 381.128906 97.585938 381.203125 98.726562 C 381.246094 99.304688 381.144531 99.917969 380.992188 100.539062 C 380.785156 101.074219 380.578125 101.484375 380.265625 101.722656 C 379.941406 101.976562 379.417969 102.207031 378.746094 102.402344 C 378.058594 102.59375 377.257812 102.761719 376.421875 102.96875 C 374.746094 103.382812 372.929688 104.085938 371.363281 105.148438 C 370.5625 105.675781 369.867188 106.28125 369.179688 106.949219 C 368.839844 107.320312 368.519531 107.707031 368.203125 108.101562 C 367.929688 108.574219 367.636719 109.023438 367.410156 109.53125 C 367.25 110.085938 366.988281 110.609375 366.976562 111.207031 L 366.914062 112.082031 C 366.933594 112.363281 366.972656 112.640625 367.007812 112.917969 C 367.160156 114.035156 367.578125 114.949219 367.992188 115.78125 C 368.863281 117.40625 369.839844 118.710938 370.597656 120.03125 C 371.363281 121.339844 371.914062 122.632812 372.007812 123.925781 C 372.09375 125.167969 371.78125 126.304688 370.855469 127.316406 C 369.949219 128.304688 368.691406 129.164062 367.308594 129.832031 C 366.621094 130.175781 365.890625 130.460938 365.152344 130.726562 C 364.398438 130.964844 363.699219 131.308594 363.019531 132.207031 C 363.960938 132.847656 364.855469 132.820312 365.679688 132.632812 Z M 86.535156 205.695312 C 86.210938 205.519531 85.875 205.363281 85.527344 205.230469 C 84.824219 204.992188 84.085938 204.90625 83.335938 204.855469 C 81.851562 204.78125 80.269531 204.960938 78.933594 205.714844 C 77.578125 206.417969 76.511719 207.5625 75.667969 208.746094 C 75.253906 209.347656 74.820312 209.921875 74.488281 210.558594 C 74.339844 210.886719 74.21875 211.226562 74.128906 211.574219 L 74.058594 212.121094 C 74.039062 212.296875 74.140625 212.53125 74.71875 212.910156 C 75.421875 213 75.644531 212.941406 75.746094 212.824219 L 76.046875 212.492188 C 76.25 212.273438 76.441406 212.0625 76.59375 211.828125 C 76.933594 211.386719 77.257812 210.941406 77.691406 210.59375 C 78.5625 209.902344 79.585938 209.511719 80.535156 209.136719 C 81.503906 208.816406 82.433594 208.371094 83.488281 208.183594 C 84.011719 208.09375 84.542969 208.074219 85.097656 208.011719 C 85.375 208.007812 85.664062 207.964844 85.960938 207.929688 L 86.410156 207.898438 C 86.558594 207.910156 86.746094 207.769531 87.160156 207.089844 C 87.269531 206.320312 87.152344 206.085938 86.996094 206.007812 Z M 90.082031 195.984375 C 90.421875 196.050781 90.800781 195.984375 91.414062 195.355469 C 91.332031 194.515625 91.015625 194.234375 90.664062 194.089844 L 89.617188 193.597656 C 88.898438 193.335938 88.15625 193.105469 87.410156 192.890625 C 86.65625 192.71875 85.886719 192.613281 85.113281 192.503906 C 84.339844 192.433594 83.558594 192.421875 82.777344 192.386719 C 79.660156 192.386719 76.457031 192.960938 73.644531 194.410156 C 70.8125 195.8125 68.390625 197.925781 66.457031 200.324219 C 65.984375 200.9375 65.496094 201.53125 65.050781 202.15625 C 64.636719 202.804688 64.1875 203.429688 63.808594 204.097656 C 63.46875 204.785156 63.144531 205.480469 62.867188 206.191406 L 62.5625 207.300781 C 62.460938 207.667969 62.476562 208.085938 62.984375 208.65625 C 63.769531 208.558594 64.066406 208.308594 64.25 208.007812 L 64.785156 207.105469 C 65.175781 206.527344 65.570312 205.960938 65.914062 205.367188 L 67.109375 203.695312 C 67.542969 203.171875 68.027344 202.679688 68.476562 202.175781 C 70.460938 200.285156 72.8125 198.890625 75.242188 197.828125 C 77.695312 196.816406 80.242188 195.972656 82.925781 195.714844 C 83.597656 195.6875 84.269531 195.625 84.945312 195.617188 C 85.617188 195.65625 86.296875 195.652344 86.980469 195.675781 C 87.65625 195.75 88.347656 195.78125 89.042969 195.835938 Z M 52.75 203.1875 L 53.527344 201.722656 C 54.101562 200.78125 54.699219 199.859375 55.234375 198.90625 C 55.84375 197.996094 56.492188 197.117188 57.113281 196.21875 C 57.796875 195.367188 58.554688 194.574219 59.265625 193.753906 C 62.347656 190.65625 66.042969 188.277344 69.953125 186.523438 C 73.882812 184.816406 78.046875 183.570312 82.367188 183.246094 C 83.445312 183.222656 84.527344 183.144531 85.609375 183.152344 C 86.6875 183.246094 87.78125 183.238281 88.867188 183.328125 C 89.941406 183.496094 91.03125 183.59375 92.128906 183.742188 L 93.75 184.066406 C 94.289062 184.195312 94.859375 184.1875 95.667969 183.621094 C 95.390625 182.71875 94.878906 182.382812 94.332031 182.175781 L 92.699219 181.503906 C 91.582031 181.152344 90.441406 180.847656 89.289062 180.5625 C 88.132812 180.347656 86.957031 180.183594 85.777344 180.039062 C 84.597656 179.953125 83.40625 179.957031 82.214844 179.914062 C 77.46875 179.996094 72.652344 180.96875 68.351562 183.101562 C 64.042969 185.199219 60.28125 188.296875 57.242188 191.902344 C 56.511719 192.832031 55.75 193.730469 55.054688 194.679688 C 54.414062 195.667969 53.726562 196.625 53.132812 197.636719 C 52.59375 198.683594 52.070312 199.734375 51.609375 200.808594 L 51.066406 202.480469 C 50.886719 203.035156 50.820312 203.644531 51.246094 204.402344 C 52.113281 204.117188 52.488281 203.679688 52.75 203.1875 Z M 132.800781 403.957031 L 131.769531 403.808594 C 131.082031 403.730469 130.394531 403.667969 129.707031 403.640625 C 128.332031 403.601562 126.953125 403.574219 125.578125 403.5 C 122.828125 403.3125 120.074219 403.054688 117.324219 402.984375 C 114.574219 402.863281 111.820312 403.070312 109.070312 403.203125 C 107.695312 403.28125 106.316406 403.324219 104.941406 403.464844 C 104.253906 403.527344 103.566406 403.617188 102.878906 403.71875 L 101.847656 403.882812 C 101.503906 403.917969 101.160156 404.089844 100.816406 404.871094 C 101.160156 405.652344 101.503906 405.824219 101.847656 405.859375 L 102.878906 406.027344 C 103.566406 406.125 104.253906 406.214844 104.941406 406.277344 C 106.316406 406.417969 107.695312 406.460938 109.070312 406.539062 C 111.820312 406.671875 114.574219 406.878906 117.324219 406.757812 C 120.074219 406.6875 122.828125 406.429688 125.578125 406.242188 C 126.953125 406.167969 128.332031 406.140625 129.707031 406.101562 C 130.394531 406.074219 131.082031 406.011719 131.769531 405.933594 L 132.800781 405.785156 C 133.144531 405.734375 133.488281 405.558594 133.835938 404.871094 C 133.488281 404.183594 133.144531 404.007812 132.800781 403.957031 Z M 232.601562 403.957031 L 231.570312 403.808594 C 230.882812 403.730469 230.191406 403.667969 229.503906 403.640625 C 228.128906 403.601562 226.753906 403.574219 225.378906 403.5 C 222.625 403.3125 219.875 403.054688 217.121094 402.984375 C 214.371094 402.863281 211.621094 403.070312 208.867188 403.203125 C 207.492188 403.28125 206.117188 403.324219 204.742188 403.464844 C 204.054688 403.527344 203.363281 403.617188 202.675781 403.71875 L 201.644531 403.882812 C 201.300781 403.917969 200.957031 404.089844 200.613281 404.871094 C 200.957031 405.652344 201.300781 405.824219 201.644531 405.859375 L 202.675781 406.027344 C 203.363281 406.125 204.054688 406.214844 204.742188 406.277344 C 206.117188 406.417969 207.492188 406.460938 208.867188 406.539062 C 211.621094 406.671875 214.371094 406.878906 217.121094 406.757812 C 219.875 406.6875 222.625 406.429688 225.378906 406.242188 C 226.753906 406.167969 228.128906 406.140625 229.503906 406.101562 C 230.191406 406.074219 230.882812 406.011719 231.570312 405.933594 L 232.601562 405.785156 C 232.945312 405.734375 233.289062 405.558594 233.632812 404.871094 C 233.289062 404.183594 232.945312 404.007812 232.601562 403.957031 Z M 301.21875 395.222656 C 301.050781 394.777344 300.824219 394.355469 300.570312 393.953125 C 300.4375 393.757812 300.292969 393.566406 300.148438 393.378906 C 300.003906 393.195312 299.734375 393.050781 299.023438 393.191406 C 298.527344 393.714844 298.453125 393.964844 298.5 394.171875 L 298.613281 394.785156 C 298.699219 395.191406 298.78125 395.589844 298.878906 395.972656 C 299.070312 396.742188 299.242188 397.511719 299.203125 398.257812 C 299.15625 398.996094 299 399.679688 298.703125 400.210938 C 298.414062 400.738281 298.054688 401.140625 297.597656 401.480469 C 297.148438 401.832031 296.597656 402.132812 295.949219 402.417969 C 295.316406 402.714844 294.59375 402.964844 293.824219 403.128906 C 293.054688 403.3125 292.246094 403.40625 291.425781 403.546875 C 291.011719 403.605469 290.597656 403.714844 290.171875 403.785156 L 289.53125 403.917969 C 289.316406 403.941406 289.097656 404.105469 288.820312 404.871094 C 288.980469 405.660156 289.199219 405.847656 289.421875 405.894531 L 290.089844 406.09375 C 290.535156 406.21875 290.992188 406.292969 291.453125 406.363281 C 292.375 406.496094 293.3125 406.484375 294.273438 406.433594 C 296.152344 406.308594 298.355469 405.972656 300.105469 404.304688 C 300.960938 403.5 301.605469 402.402344 301.871094 401.277344 C 302.152344 400.148438 302.109375 399.054688 301.9375 398.058594 C 301.769531 397.058594 301.5625 396.113281 301.21875 395.222656 Z M 368.546875 388.800781 C 367.230469 388.714844 365.921875 388.675781 364.605469 388.640625 L 361.710938 388.585938 L 361.585938 388.371094 C 359.542969 384.929688 355.835938 382.816406 351.832031 382.816406 L 300.59375 382.816406 L 300.949219 383.640625 C 301.898438 385.855469 302.371094 388.113281 302.421875 390.328125 L 309.964844 390.328125 C 310.460938 390.71875 310.960938 390.824219 311.457031 390.855469 L 313.425781 391.019531 C 314.738281 391.117188 316.050781 391.210938 317.363281 391.261719 C 319.988281 391.40625 322.609375 391.453125 325.234375 391.53125 C 330.484375 391.660156 335.734375 391.867188 340.984375 391.75 C 346.234375 391.683594 351.484375 391.421875 356.734375 391.234375 L 364.605469 391.085938 C 365.921875 391.050781 367.230469 391.015625 368.546875 390.925781 L 370.511719 390.777344 C 371.167969 390.726562 371.824219 390.550781 372.480469 389.863281 C 371.824219 389.175781 371.167969 389 370.511719 388.949219 Z M 232.152344 131.648438 L 233.519531 132.054688 C 234.441406 132.289062 235.347656 132.640625 236.300781 132.726562 C 238.191406 132.980469 240.097656 133.316406 242.023438 133.261719 C 242.988281 133.261719 243.953125 133.304688 244.917969 133.273438 L 247.8125 133.011719 C 248.785156 132.972656 249.730469 132.730469 250.679688 132.527344 C 251.625 132.304688 252.582031 132.128906 253.492188 131.78125 C 257.21875 130.660156 260.644531 128.730469 263.769531 126.523438 C 265.347656 125.433594 266.859375 124.257812 268.292969 122.992188 C 268.988281 122.335938 269.667969 121.660156 270.277344 120.914062 C 270.589844 120.554688 270.875 120.164062 271.160156 119.777344 C 271.445312 119.398438 271.636719 118.894531 271.386719 118.109375 C 270.554688 118.042969 270.152344 118.253906 269.804688 118.550781 C 269.464844 118.847656 269.125 119.140625 268.769531 119.417969 L 266.6875 121.132812 C 265.976562 121.675781 265.285156 122.246094 264.550781 122.765625 C 263.796875 123.246094 263.078125 123.785156 262.289062 124.214844 C 259.167969 125.976562 255.832031 127.277344 252.417969 128.164062 C 249.003906 128.984375 245.554688 129.851562 241.980469 129.925781 C 240.199219 130.128906 238.414062 129.902344 236.609375 129.945312 C 235.707031 129.96875 234.8125 129.8125 233.902344 129.777344 L 232.535156 129.703125 C 232.078125 129.660156 231.601562 129.753906 230.976562 130.433594 C 231.257812 131.277344 231.695312 131.53125 232.152344 131.648438 Z M 320.359375 284.242188 C 320.683594 284.101562 320.992188 283.90625 321.285156 283.691406 L 321.722656 283.367188 C 321.871094 283.28125 321.972656 283.046875 321.839844 282.273438 C 321.402344 281.613281 321.195312 281.484375 321.039062 281.507812 L 320.550781 281.503906 C 320.234375 281.519531 319.921875 281.519531 319.609375 281.527344 C 319.300781 281.535156 319.003906 281.5625 318.707031 281.605469 L 317.804688 281.660156 C 316.601562 281.714844 315.414062 281.609375 314.214844 281.695312 C 313.019531 281.738281 311.777344 281.910156 310.527344 281.871094 C 309.902344 281.855469 309.292969 281.730469 308.679688 281.632812 C 308.371094 281.582031 308.058594 281.5625 307.738281 281.550781 L 307.25 281.558594 C 307.085938 281.558594 306.894531 281.6875 306.507812 282.273438 C 306.433594 282.96875 306.546875 283.203125 306.695312 283.300781 C 306.84375 283.398438 306.992188 283.503906 307.144531 283.59375 C 307.449219 283.765625 307.765625 283.910156 308.089844 284.019531 C 308.738281 284.234375 309.410156 284.363281 310.066406 284.574219 C 310.433594 284.6875 310.808594 284.796875 311.179688 284.902344 C 311.316406 285.128906 311.457031 285.351562 311.632812 285.539062 C 312.066406 286.011719 312.5625 286.394531 313.019531 286.828125 C 313.933594 287.6875 314.886719 288.550781 315.976562 289.132812 C 317.039062 289.789062 318.261719 290.035156 319.433594 290.320312 C 320.03125 290.429688 320.613281 290.578125 321.222656 290.621094 C 321.523438 290.640625 321.835938 290.632812 322.148438 290.617188 L 322.617188 290.574219 C 322.765625 290.585938 322.957031 290.445312 323.285156 289.734375 C 323.339844 288.949219 323.253906 288.730469 323.128906 288.664062 L 322.765625 288.390625 C 322.519531 288.222656 322.277344 288.058594 322.027344 287.925781 C 321.539062 287.628906 321.03125 287.410156 320.53125 287.171875 C 319.546875 286.664062 318.617188 286.09375 317.613281 285.730469 C 317.269531 285.59375 316.914062 285.46875 316.558594 285.347656 C 317.164062 285.242188 317.761719 285.101562 318.351562 284.949219 C 319.035156 284.761719 319.71875 284.570312 320.359375 284.242188 Z M 307.910156 263.367188 L 306.703125 263.878906 C 305.914062 264.242188 305.132812 264.632812 304.375 265.058594 C 302.863281 265.917969 301.375 266.824219 299.882812 267.734375 C 298.375 268.632812 296.882812 269.558594 295.421875 270.597656 C 293.964844 271.648438 292.539062 272.757812 291.25 274.320312 C 290.644531 275.132812 289.9375 276.023438 289.726562 277.609375 C 289.683594 278.398438 289.84375 279.1875 290.136719 279.804688 C 290.425781 280.425781 290.800781 280.921875 291.183594 281.332031 C 292.742188 282.933594 294.421875 283.722656 296.070312 284.511719 C 297.730469 285.246094 299.398438 285.871094 301.105469 286.335938 C 301.957031 286.570312 302.820312 286.761719 303.683594 286.925781 L 304.988281 287.148438 C 305.417969 287.234375 305.894531 287.1875 306.507812 286.539062 C 306.292969 285.679688 305.9375 285.398438 305.539062 285.246094 L 304.371094 284.722656 L 302.050781 283.683594 C 300.515625 282.988281 298.984375 282.320312 297.558594 281.53125 C 296.15625 280.757812 294.777344 279.8125 294.003906 278.859375 C 293.601562 278.371094 293.554688 278.03125 293.554688 277.929688 C 293.5625 277.789062 293.816406 277.167969 294.242188 276.621094 C 295.078125 275.472656 296.289062 274.316406 297.507812 273.210938 C 298.734375 272.097656 300.0625 271.042969 301.410156 270.011719 C 302.777344 269.011719 304.203125 268.078125 305.644531 267.164062 C 306.359375 266.703125 307.0625 266.21875 307.765625 265.722656 L 308.804688 264.960938 C 309.152344 264.707031 309.4375 264.347656 309.488281 263.539062 C 308.78125 263.140625 308.3125 263.199219 307.910156 263.367188 Z M 231.566406 112.480469 C 231.835938 112.621094 232.105469 112.75 232.386719 112.832031 C 232.949219 113.003906 233.523438 113.109375 234.085938 113.296875 C 235.214844 113.660156 236.347656 114.105469 237.542969 114.265625 C 238.734375 114.476562 239.960938 114.332031 241.183594 114.140625 C 241.796875 114.023438 242.40625 113.953125 243.011719 113.714844 C 243.3125 113.601562 243.601562 113.484375 243.886719 113.3125 L 244.308594 113.046875 C 244.449219 112.980469 244.558594 112.761719 244.488281 111.988281 C 244.140625 111.277344 243.972656 111.121094 243.835938 111.121094 L 243.425781 111.050781 C 243.160156 111.019531 242.878906 110.945312 242.617188 110.929688 L 241.046875 110.808594 C 239.992188 110.722656 238.9375 110.464844 237.863281 110.5 C 236.785156 110.476562 235.664062 110.605469 234.546875 110.59375 C 233.984375 110.59375 233.441406 110.484375 232.890625 110.425781 C 232.613281 110.394531 232.332031 110.394531 232.042969 110.410156 L 231.605469 110.460938 C 231.457031 110.476562 231.285156 110.621094 230.976562 111.242188 C 230.941406 111.941406 231.042969 112.152344 231.175781 112.238281 Z M 224.398438 105.722656 L 225.476562 106.113281 C 226.203125 106.328125 226.933594 106.550781 227.679688 106.683594 C 228.421875 106.839844 229.167969 106.960938 229.921875 107.0625 C 230.667969 107.191406 231.417969 107.304688 232.171875 107.386719 C 235.179688 107.820312 238.257812 108.164062 241.363281 107.894531 C 244.472656 107.679688 247.550781 106.820312 250.4375 105.511719 C 251.835938 104.75 253.289062 104.09375 254.488281 103.015625 C 255.101562 102.507812 255.734375 102.035156 256.21875 101.390625 L 256.972656 100.46875 C 257.230469 100.179688 257.402344 99.785156 257.101562 99.003906 C 256.257812 98.722656 255.882812 98.832031 255.597656 99.042969 L 254.71875 99.636719 C 254.175781 100.074219 253.507812 100.339844 252.910156 100.683594 C 251.738281 101.410156 250.425781 101.894531 249.164062 102.429688 C 246.539062 103.335938 243.769531 103.710938 240.984375 104.140625 C 238.191406 104.515625 235.308594 104.703125 232.410156 104.65625 C 230.964844 104.617188 229.519531 104.453125 228.082031 104.257812 C 227.359375 104.179688 226.636719 104.085938 225.90625 104.03125 L 224.8125 103.941406 C 224.449219 103.90625 224.058594 103.996094 223.527344 104.566406 C 223.707031 105.328125 224.042969 105.585938 224.398438 105.722656 Z M 229.101562 68.40625 C 229.382812 67.816406 229.660156 67.226562 229.925781 66.628906 L 230.410156 65.476562 C 230.570312 65.09375 230.625 64.652344 230.246094 63.941406 C 229.445312 63.949219 229.074219 64.226562 228.824219 64.566406 L 228.074219 65.589844 C 227.894531 65.84375 227.746094 66.109375 227.574219 66.367188 C 227.539062 66.796875 227.460938 67.554688 227.308594 68.53125 C 227.511719 68.484375 227.730469 68.449219 227.960938 68.421875 C 228.332031 68.382812 228.714844 68.382812 229.101562 68.40625 Z M 220.097656 92.472656 C 220.988281 94.203125 222.386719 95.722656 224.085938 96.636719 C 224.921875 97.105469 225.820312 97.4375 226.726562 97.636719 C 227.183594 97.730469 227.640625 97.800781 228.097656 97.84375 C 228.542969 97.902344 229.0625 97.808594 229.539062 97.054688 C 229.183594 96.253906 228.875 96.019531 228.507812 95.90625 C 228.148438 95.773438 227.800781 95.621094 227.46875 95.449219 C 226.789062 95.125 226.175781 94.714844 225.617188 94.277344 C 224.496094 93.394531 223.621094 92.316406 223.097656 91.019531 C 222.835938 90.398438 222.609375 89.660156 222.535156 89.023438 L 222.476562 88.097656 C 222.519531 87.746094 222.550781 87.394531 222.574219 87.046875 C 222.777344 85.617188 223.105469 84.09375 223.550781 82.570312 C 224.433594 79.519531 225.5 76.402344 226.757812 73.355469 C 227.097656 72.5625 227.460938 71.777344 227.835938 71 C 227.296875 71.121094 226.921875 71.339844 226.695312 71.507812 C 225.828125 74.917969 224.164062 79.082031 220.984375 81.503906 C 220.5625 81.824219 220.121094 82.089844 219.671875 82.335938 C 219.25 83.726562 218.921875 85.183594 218.835938 86.746094 C 218.820312 87.230469 218.816406 87.714844 218.820312 88.195312 C 218.867188 88.703125 218.972656 89.234375 219.0625 89.746094 C 219.296875 90.742188 219.640625 91.59375 220.097656 92.472656 Z M 223.085938 74.386719 C 222.695312 75.128906 222.3125 75.875 221.945312 76.632812 C 222.382812 75.917969 222.761719 75.160156 223.085938 74.386719 Z M 223.855469 58.066406 C 224.101562 58.039062 224.355469 58.015625 224.609375 57.996094 L 225.011719 57.949219 C 225.136719 57.957031 225.3125 57.8125 225.707031 57.128906 C 225.84375 56.363281 225.757812 56.140625 225.628906 56.066406 L 225.257812 55.78125 C 225.003906 55.59375 224.738281 55.425781 224.453125 55.3125 C 223.890625 55.046875 223.289062 54.90625 222.6875 54.792969 C 221.480469 54.566406 220.203125 54.417969 219.019531 54.757812 C 217.824219 55.03125 216.75 55.636719 215.738281 56.226562 C 215.234375 56.53125 214.703125 56.761719 214.214844 57.074219 C 213.96875 57.230469 213.742188 57.421875 213.53125 57.636719 C 213.429688 57.742188 213.332031 57.871094 213.234375 57.988281 C 213.140625 58.105469 213.105469 58.34375 213.382812 58.980469 C 213.878906 59.46875 214.070312 59.5625 214.203125 59.535156 L 214.601562 59.472656 C 214.855469 59.414062 215.101562 59.351562 215.335938 59.261719 C 215.804688 59.082031 216.257812 58.875 216.75 58.773438 C 217.738281 58.566406 218.742188 58.578125 219.667969 58.480469 C 220.601562 58.425781 221.492188 58.1875 222.429688 58.117188 L 223.136719 58.078125 C 223.371094 58.089844 223.609375 58.089844 223.855469 58.066406 Z M 245.203125 58.109375 L 245.824219 58.222656 C 246.238281 58.28125 246.648438 58.332031 247.058594 58.359375 C 247.878906 58.414062 248.699219 58.457031 249.503906 58.625 C 251.109375 58.972656 252.628906 59.550781 254.097656 60.089844 C 255.5625 60.652344 257.015625 61.160156 258.402344 61.886719 L 259.421875 62.46875 C 259.738281 62.691406 260.058594 62.914062 260.402344 63.121094 C 260.753906 63.320312 261.097656 63.535156 261.425781 63.777344 L 261.949219 64.113281 C 262.113281 64.238281 262.378906 64.273438 263.128906 63.941406 C 263.59375 63.292969 263.570312 63.007812 263.445312 62.816406 L 263.109375 62.195312 C 262.882812 61.777344 262.617188 61.382812 262.296875 61.039062 C 261.992188 60.683594 261.675781 60.328125 261.332031 60.003906 L 260.238281 59.105469 C 258.738281 57.976562 257.089844 56.925781 255.257812 56.496094 C 253.449219 55.992188 251.582031 55.886719 249.769531 55.898438 C 248.859375 55.90625 247.964844 55.847656 247.0625 55.902344 C 246.613281 55.925781 246.164062 56 245.71875 56.097656 C 245.496094 56.148438 245.273438 56.226562 245.054688 56.289062 C 244.835938 56.355469 244.617188 56.554688 244.488281 57.265625 C 244.785156 57.921875 244.992188 58.078125 245.203125 58.109375 Z M 120.492188 251.691406 C 122.847656 251.800781 125.199219 251.835938 127.554688 251.867188 L 141.675781 252.015625 L 155.796875 252.320312 L 169.917969 252.53125 C 179.332031 252.617188 188.746094 252.464844 198.160156 252.3125 C 202.867188 252.238281 207.574219 252.191406 212.28125 252.046875 C 214.632812 252.003906 216.988281 251.882812 219.339844 251.785156 L 222.871094 251.636719 C 224.046875 251.601562 225.226562 251.425781 226.402344 250.648438 C 225.226562 249.867188 224.046875 249.691406 222.871094 249.65625 L 219.339844 249.507812 C 216.988281 249.410156 214.632812 249.292969 212.28125 249.246094 C 207.574219 249.101562 202.867188 249.054688 198.160156 248.980469 C 188.746094 248.832031 179.332031 248.679688 169.917969 248.761719 L 155.796875 248.976562 L 141.675781 249.277344 L 127.554688 249.425781 C 125.199219 249.460938 122.847656 249.492188 120.492188 249.601562 L 116.964844 249.734375 C 115.785156 249.78125 114.609375 249.960938 113.433594 250.648438 C 114.609375 251.335938 115.785156 251.511719 116.964844 251.558594 Z M 406.402344 354.789062 C 406.101562 353.007812 405.894531 351.191406 405.398438 349.441406 C 404.636719 345.882812 403.347656 342.460938 401.96875 339.082031 C 400.5 335.738281 398.78125 332.5 396.808594 329.410156 C 394.816406 326.335938 392.476562 323.496094 389.996094 320.8125 C 384.917969 315.527344 378.96875 311.1875 372.640625 307.679688 C 369.480469 305.910156 366.238281 304.300781 362.894531 302.929688 C 361.222656 302.246094 359.523438 301.625 357.789062 301.117188 C 356.921875 300.855469 356.046875 300.628906 355.167969 300.410156 C 354.664062 300.289062 354.140625 300.222656 353.59375 300.265625 C 352.546875 298.367188 351.496094 296.476562 350.421875 294.597656 C 347.113281 288.71875 343.722656 282.886719 340.351562 277.039062 L 335.292969 268.273438 C 334.453125 266.886719 334.078125 265.789062 333.859375 264.140625 C 333.582031 262.460938 333.28125 260.78125 332.957031 259.109375 C 332.320312 255.757812 331.550781 252.429688 330.613281 249.121094 C 329.664062 245.820312 328.621094 242.523438 327.0625 239.304688 C 326.257812 237.703125 325.355469 236.101562 323.921875 234.617188 C 323.535156 234.253906 323.136719 233.894531 322.640625 233.578125 C 322.417969 233.40625 322.121094 233.285156 321.859375 233.148438 C 321.710938 233.074219 321.601562 233.023438 321.519531 232.992188 L 321.226562 232.871094 L 318.855469 231.90625 C 315.6875 230.65625 312.503906 229.460938 309.253906 228.398438 C 305.984375 227.367188 302.714844 226.367188 299.171875 225.855469 L 297.8125 225.710938 L 296.367188 225.699219 C 295.453125 225.753906 294.582031 225.863281 293.710938 226 C 291.972656 226.28125 290.273438 226.683594 288.597656 227.175781 C 285.265625 228.1875 281.980469 229.492188 279.054688 231.644531 C 277.609375 232.722656 276.222656 234.039062 275.316406 235.804688 C 274.441406 237.574219 274.136719 239.347656 273.976562 241.140625 C 273.734375 244.714844 274.125 248.175781 275.308594 251.59375 C 275.402344 251.816406 275.464844 252.019531 275.601562 252.273438 C 275.6875 252.4375 275.890625 252.9375 276.359375 253.183594 C 276.621094 253.339844 276.742188 253.359375 276.871094 253.398438 C 277.007812 253.4375 277.148438 253.480469 277.257812 253.496094 C 277.488281 253.546875 277.726562 253.59375 277.941406 253.621094 C 278.828125 253.75 279.679688 253.824219 280.53125 253.886719 C 281.652344 253.960938 282.773438 253.941406 283.898438 253.761719 C 283.308594 254.265625 282.722656 254.769531 282.152344 255.3125 C 281.800781 255.632812 281.464844 255.992188 281.132812 256.363281 C 280.800781 256.734375 280.449219 257.0625 280.140625 257.527344 C 279.828125 257.984375 279.503906 258.328125 279.214844 258.988281 C 279.078125 259.289062 278.925781 259.578125 278.835938 259.902344 C 278.765625 260.25 278.710938 260.601562 278.667969 260.953125 C 278.601562 261.320312 278.671875 261.597656 278.6875 261.914062 C 278.726562 262.214844 278.734375 262.554688 278.816406 262.816406 C 278.976562 263.34375 279.089844 263.925781 279.3125 264.386719 C 279.699219 265.367188 280.167969 266.253906 280.675781 267.085938 C 281.695312 268.753906 282.820312 270.273438 284.074219 271.675781 C 284.699219 272.375 285.359375 273.042969 286.039062 273.683594 L 287.074219 274.628906 C 287.410156 274.945312 287.859375 275.179688 288.738281 274.976562 C 288.992188 274.109375 288.828125 273.667969 288.554688 273.308594 L 287.792969 272.1875 L 286.300781 269.949219 C 285.328125 268.464844 284.351562 266.988281 283.589844 265.46875 C 283.207031 264.714844 282.878906 263.949219 282.65625 263.210938 C 282.503906 262.832031 282.503906 262.496094 282.414062 262.148438 C 282.367188 261.972656 282.410156 261.84375 282.394531 261.691406 C 282.402344 261.558594 282.347656 261.371094 282.40625 261.292969 C 282.46875 260.636719 283.675781 259.183594 284.835938 257.972656 C 287.246094 255.480469 289.917969 253 292.667969 250.648438 C 294.058594 249.488281 295.5 248.390625 296.945312 247.285156 C 297.664062 246.738281 298.363281 246.152344 299.0625 245.566406 L 300.089844 244.660156 C 300.433594 244.359375 300.707031 243.960938 300.695312 243.132812 C 299.929688 242.824219 299.449219 242.941406 299.046875 243.164062 L 297.835938 243.832031 C 297.039062 244.292969 296.261719 244.78125 295.5 245.296875 L 291 248.476562 C 288.914062 249.921875 286.824219 251.375 284.820312 252.996094 C 283.453125 252.484375 282.078125 252.238281 280.710938 252.070312 C 279.886719 251.964844 279.058594 251.851562 278.285156 251.695312 C 278.082031 251.65625 277.910156 251.609375 277.730469 251.566406 C 277.628906 251.542969 277.570312 251.515625 277.503906 251.492188 C 277.492188 251.472656 277.480469 251.4375 277.457031 251.390625 C 277.394531 251.269531 277.339844 251.066406 277.28125 250.898438 C 276.828125 249.421875 276.585938 247.773438 276.425781 246.171875 C 276.269531 244.5625 276.246094 242.9375 276.410156 241.363281 C 276.378906 234.601562 283.246094 231.582031 289.347656 229.8125 C 290.921875 229.402344 292.519531 229.074219 294.121094 228.863281 C 294.917969 228.761719 295.726562 228.6875 296.496094 228.664062 L 297.578125 228.707031 L 298.734375 228.867188 C 301.859375 229.40625 305.050781 230.46875 308.175781 231.5625 C 311.3125 232.667969 314.425781 233.90625 317.503906 235.199219 L 319.804688 236.191406 L 320.089844 236.316406 C 320.203125 236.367188 320.289062 236.40625 320.324219 236.433594 C 320.425781 236.503906 320.539062 236.519531 320.644531 236.617188 C 320.859375 236.761719 321.085938 236.972656 321.3125 237.191406 C 322.210938 238.15625 323.003906 239.523438 323.667969 240.949219 C 326.367188 246.75 327.84375 253.375 329.296875 259.851562 C 329.644531 261.484375 329.96875 263.121094 330.273438 264.765625 L 330.382812 265.378906 C 330.429688 265.621094 330.476562 265.863281 330.535156 266.101562 C 330.648438 266.582031 330.792969 267.054688 330.964844 267.515625 C 331.132812 267.980469 331.332031 268.429688 331.554688 268.867188 C 331.773438 269.308594 332.039062 269.738281 332.242188 270.074219 L 337.484375 278.734375 C 340.980469 284.503906 344.453125 290.289062 348.011719 296.023438 C 349.765625 298.90625 351.585938 301.746094 353.386719 304.601562 L 356.089844 308.882812 C 356.976562 310.316406 357.984375 311.679688 359.515625 312.734375 C 359.328125 310.886719 358.621094 309.34375 357.792969 307.875 L 355.347656 303.445312 C 355.109375 303.015625 354.875 302.589844 354.640625 302.164062 C 355.460938 302.464844 356.277344 302.789062 357.089844 303.121094 C 358.714844 303.78125 360.339844 304.449219 361.9375 305.175781 C 365.136719 306.605469 368.269531 308.199219 371.246094 310.042969 C 377.191406 313.757812 382.539062 318.308594 387.238281 323.390625 C 389.59375 325.929688 391.6875 328.6875 393.707031 331.492188 C 395.667969 334.339844 397.40625 337.34375 398.933594 340.460938 C 400.375 343.613281 401.699219 346.839844 402.703125 350.183594 C 403.261719 351.839844 403.6875 353.535156 404.164062 355.226562 C 404.425781 356.070312 404.570312 356.9375 404.765625 357.796875 C 404.933594 358.660156 405.238281 359.496094 406.148438 360.277344 C 406.785156 359.300781 406.820312 358.375 406.714844 357.480469 C 406.617188 356.585938 406.566406 355.675781 406.402344 354.789062 Z M 343.820312 343.558594 C 358.703125 337.789062 365.335938 321.878906 365.609375 321.203125 C 366.003906 320.234375 365.539062 319.132812 364.570312 318.738281 C 363.605469 318.339844 362.5 318.804688 362.101562 319.773438 C 362.042969 319.921875 355.78125 334.878906 342.429688 340.039062 C 335.503906 342.714844 327.808594 342.320312 319.527344 338.882812 L 319.457031 337.277344 C 319.394531 336.203125 319.335938 335.128906 319.230469 334.0625 C 319.0625 331.921875 318.800781 329.792969 318.566406 327.660156 C 318.070312 323.402344 317.652344 319.132812 316.917969 314.90625 C 316.226562 310.675781 315.347656 306.472656 314.542969 302.261719 C 314.160156 300.148438 313.820312 298.03125 313.472656 295.917969 C 313.289062 294.863281 313.074219 293.8125 312.839844 292.761719 L 312.460938 291.195312 C 312.332031 290.671875 312.082031 290.164062 311.320312 289.734375 C 310.71875 290.367188 310.621094 290.921875 310.652344 291.460938 L 310.738281 293.070312 C 310.8125 294.140625 310.90625 295.210938 311.039062 296.273438 C 311.308594 298.402344 311.589844 300.527344 311.832031 302.65625 C 312.265625 306.925781 312.632812 311.203125 313.183594 315.453125 C 313.691406 319.710938 314.519531 323.921875 315.265625 328.144531 C 315.648438 330.253906 316.011719 332.367188 316.464844 334.46875 C 316.667969 335.519531 316.921875 336.566406 317.171875 337.613281 L 317.238281 337.875 C 316.296875 337.433594 315.175781 337.835938 314.730469 338.773438 C 314.28125 339.71875 314.679688 340.847656 315.625 341.296875 C 321.632812 344.15625 327.414062 345.589844 332.910156 345.589844 C 336.6875 345.589844 340.332031 344.910156 343.820312 343.558594 Z M 296.308594 389.242188 C 296.5625 389.242188 296.824219 389.1875 297.074219 389.078125 C 298.03125 388.652344 298.460938 387.535156 298.035156 386.578125 L 249.28125 276.84375 C 244.304688 265.640625 233.164062 258.398438 220.902344 258.398438 L 17.0625 258.84375 C 16.015625 258.84375 15.171875 259.695312 15.171875 260.738281 C 15.175781 261.78125 16.023438 262.628906 17.066406 262.628906 C 17.066406 262.628906 17.070312 262.628906 17.070312 262.628906 L 220.90625 262.1875 C 231.671875 262.1875 241.449219 268.542969 245.820312 278.382812 L 294.578125 388.117188 C 294.890625 388.824219 295.582031 389.242188 296.308594 389.242188 Z M 212.953125 27.585938 L 201.453125 25.730469 C 201.453125 25.730469 215.921875 -2.097656 245.972656 0.132812 C 276.023438 2.355469 296.054688 22.019531 297.910156 35.003906 C 297.910156 35.003906 305.332031 36.859375 306.445312 43.164062 C 307.558594 49.472656 294.027344 70.960938 294.027344 70.960938 C 294.027344 70.960938 290.304688 64.683594 280.382812 68.394531 L 281.957031 41.3125 C 281.957031 41.3125 213.988281 66.515625 217.738281 43.894531 L 195.886719 50.585938 C 195.886719 50.585938 203.679688 33.148438 212.953125 27.585938"/></g><g id="change4_1" clip-path="url(#b)"><path fill="#ff0000" d="M 490.875 343.867188 L 490.195312 343.542969 C 489.738281 343.339844 489.28125 343.144531 488.816406 342.972656 C 487.890625 342.625 486.945312 342.367188 486.007812 342.074219 C 484.128906 341.515625 482.265625 340.882812 480.328125 340.570312 C 478.402344 340.207031 476.433594 340.03125 474.484375 339.78125 C 473.507812 339.660156 472.554688 339.4375 471.585938 339.277344 C 471.105469 339.195312 470.613281 339.144531 470.117188 339.117188 L 469.371094 339.101562 C 469.121094 339.09375 468.84375 339.210938 468.453125 339.828125 C 468.539062 340.554688 468.738281 340.78125 468.96875 340.882812 L 469.652344 341.1875 C 470.113281 341.375 470.574219 341.542969 471.046875 341.675781 C 471.992188 341.941406 472.945312 342.152344 473.882812 342.457031 C 475.75 343.070312 477.601562 343.753906 479.496094 344.253906 C 481.382812 344.800781 483.335938 345.03125 485.277344 345.328125 C 486.246094 345.46875 487.214844 345.640625 488.199219 345.722656 C 488.6875 345.765625 489.1875 345.785156 489.6875 345.796875 L 490.4375 345.796875 C 490.6875 345.816406 490.960938 345.699219 491.371094 344.992188 C 491.304688 344.175781 491.105469 343.953125 490.875 343.867188 Z M 497.726562 322.960938 L 496.746094 322.921875 C 496.097656 322.902344 495.449219 322.894531 494.804688 322.910156 C 493.511719 322.9375 492.230469 323.054688 490.945312 323.144531 C 488.375 323.335938 485.800781 323.453125 483.265625 323.898438 C 480.722656 324.292969 478.203125 324.878906 475.679688 325.386719 C 474.414062 325.640625 473.136719 325.800781 471.871094 326.015625 C 471.234375 326.121094 470.605469 326.265625 469.976562 326.425781 L 469.039062 326.695312 C 468.726562 326.78125 468.429688 327 468.199219 327.722656 C 468.605469 328.363281 468.945312 328.5 469.269531 328.507812 L 470.246094 328.53125 C 470.894531 328.53125 471.539062 328.511719 472.179688 328.453125 C 473.464844 328.34375 474.738281 328.175781 476.023438 328.105469 C 478.597656 327.96875 481.183594 327.898438 483.742188 327.644531 C 486.308594 327.4375 488.832031 326.90625 491.367188 326.449219 C 492.632812 326.210938 493.902344 326.003906 495.160156 325.703125 C 495.789062 325.5625 496.414062 325.386719 497.039062 325.210938 L 497.976562 324.925781 C 498.289062 324.847656 498.585938 324.636719 498.808594 323.820312 C 498.390625 323.085938 498.046875 322.957031 497.726562 322.960938 Z M 131.925781 163.671875 C 131.847656 163.4375 131.765625 163.207031 131.664062 162.996094 C 131.464844 162.570312 131.195312 162.203125 130.949219 161.816406 C 130.449219 161.054688 130 160.242188 129.308594 159.652344 C 128.65625 159.019531 127.84375 158.535156 127.113281 157.980469 C 126.742188 157.707031 126.445312 157.367188 126.105469 157.066406 C 125.933594 156.914062 125.738281 156.785156 125.527344 156.671875 L 125.191406 156.519531 C 125.078125 156.46875 124.867188 156.507812 124.285156 156.878906 C 123.851562 157.414062 123.789062 157.621094 123.828125 157.738281 L 123.945312 158.089844 C 124.035156 158.3125 124.140625 158.523438 124.273438 158.707031 C 124.535156 159.078125 124.839844 159.410156 125.070312 159.808594 C 125.546875 160.597656 125.9375 161.457031 126.496094 162.171875 C 127.011719 162.925781 127.765625 163.460938 128.46875 164.042969 C 128.828125 164.324219 129.160156 164.632812 129.566406 164.878906 C 129.765625 165.003906 129.984375 165.109375 130.207031 165.214844 L 130.554688 165.355469 C 130.652344 165.417969 130.871094 165.378906 131.519531 164.945312 C 132.015625 164.347656 132.082031 164.136719 132.03125 164.03125 Z M 127.703125 170.632812 C 127.410156 170.371094 127.117188 170.117188 126.808594 169.886719 C 126.199219 169.417969 125.546875 169.03125 124.910156 168.613281 C 123.628906 167.796875 122.378906 166.921875 120.976562 166.328125 C 119.605469 165.691406 118.128906 165.246094 116.707031 164.703125 C 115.988281 164.4375 115.320312 164.085938 114.625 163.785156 C 114.273438 163.632812 113.910156 163.515625 113.539062 163.410156 L 112.964844 163.28125 C 112.773438 163.238281 112.523438 163.316406 112.039062 163.835938 C 111.894531 164.527344 111.980469 164.773438 112.125 164.90625 L 112.5625 165.300781 C 112.863281 165.542969 113.167969 165.773438 113.492188 165.96875 C 114.140625 166.363281 114.816406 166.707031 115.445312 167.136719 C 116.710938 167.988281 117.925781 168.933594 119.242188 169.683594 C 120.53125 170.484375 121.972656 171 123.378906 171.574219 C 124.085938 171.855469 124.78125 172.164062 125.515625 172.386719 C 125.882812 172.507812 126.261719 172.597656 126.640625 172.683594 L 127.222656 172.800781 C 127.402344 172.859375 127.65625 172.777344 128.179688 172.179688 C 128.367188 171.410156 128.285156 171.15625 128.128906 171.039062 Z M 317.304688 111.242188 C 316.609375 111.234375 316.394531 111.335938 316.316406 111.464844 L 316.074219 111.859375 C 315.929688 112.125 315.804688 112.394531 315.714844 112.675781 C 315.53125 113.230469 315.40625 113.800781 315.1875 114.347656 C 314.757812 115.445312 314.222656 116.515625 313.898438 117.636719 C 313.523438 118.746094 313.460938 119.929688 313.332031 121.097656 C 313.277344 121.679688 313.191406 122.261719 313.195312 122.859375 C 313.191406 123.15625 313.214844 123.460938 313.246094 123.765625 L 313.308594 124.230469 C 313.304688 124.378906 313.457031 124.5625 314.175781 124.878906 C 314.960938 124.90625 315.175781 124.808594 315.238281 124.671875 L 315.496094 124.28125 C 315.65625 124.023438 315.8125 123.757812 315.9375 123.488281 C 316.203125 122.949219 316.375 122.394531 316.582031 121.84375 C 316.976562 120.738281 317.4375 119.644531 317.582031 118.484375 C 317.78125 117.332031 317.765625 116.132812 317.859375 114.960938 C 317.898438 114.371094 318.035156 113.804688 318.109375 113.222656 C 318.152344 112.933594 318.15625 112.636719 318.144531 112.335938 L 318.097656 111.875 C 318.082031 111.722656 317.9375 111.539062 317.304688 111.242188 Z M 325.734375 122.1875 C 325.082031 121.964844 324.863281 121.976562 324.765625 122.058594 L 324.460938 122.300781 C 324.273438 122.46875 324.105469 122.648438 323.964844 122.84375 C 323.6875 123.234375 323.460938 123.65625 323.148438 124.027344 C 322.53125 124.777344 321.820312 125.476562 321.304688 126.28125 C 320.734375 127.058594 320.449219 127.992188 320.105469 128.890625 C 319.941406 129.347656 319.746094 129.785156 319.636719 130.269531 C 319.574219 130.511719 319.539062 130.761719 319.511719 131.019531 L 319.480469 131.410156 C 319.449219 131.53125 319.554688 131.726562 320.171875 132.207031 C 320.902344 132.476562 321.125 132.464844 321.210938 132.375 L 321.527344 132.140625 C 321.730469 131.980469 321.925781 131.816406 322.097656 131.636719 C 322.449219 131.285156 322.71875 130.890625 323.019531 130.511719 C 323.601562 129.742188 324.246094 129.007812 324.605469 128.113281 C 325.015625 127.25 325.230469 126.277344 325.542969 125.359375 C 325.691406 124.894531 325.929688 124.480469 326.113281 124.039062 C 326.210938 123.816406 326.269531 123.578125 326.316406 123.332031 L 326.359375 122.945312 C 326.375 122.816406 326.273438 122.625 325.734375 122.1875 Z M 357.324219 192.484375 C 356.375 193.566406 355.671875 194.640625 355.019531 195.8125 C 354.359375 196.960938 353.789062 198.152344 353.277344 199.363281 C 352.257812 201.792969 351.539062 204.320312 350.933594 206.859375 C 350.292969 209.394531 349.914062 211.976562 349.605469 214.554688 C 349.460938 215.847656 349.367188 217.140625 349.273438 218.433594 L 349.160156 222.316406 C 349.148438 222.777344 349.492188 223.179688 349.957031 223.230469 C 350.449219 223.28125 350.886719 222.925781 350.9375 222.4375 L 350.941406 222.398438 L 351.332031 218.613281 L 351.84375 214.851562 C 352.070312 213.609375 352.234375 212.355469 352.515625 211.128906 L 352.882812 209.273438 L 353.324219 207.441406 C 353.9375 205.007812 354.6875 202.609375 355.570312 200.277344 C 356.453125 197.976562 357.472656 195.613281 358.699219 193.617188 L 358.75 193.535156 C 358.972656 193.171875 358.910156 192.691406 358.578125 192.402344 C 358.210938 192.078125 357.648438 192.113281 357.324219 192.484375 Z M 429.542969 312.480469 C 429.398438 312.042969 428.941406 311.777344 428.484375 311.886719 C 428.003906 312.003906 427.710938 312.484375 427.828125 312.964844 L 427.835938 312.988281 C 429.128906 318.320312 430.160156 323.769531 431.015625 329.203125 C 431.84375 334.648438 432.429688 340.128906 432.613281 345.613281 C 432.746094 351.09375 432.503906 356.59375 431.46875 361.929688 C 430.421875 367.242188 428.539062 372.449219 425.21875 376.683594 L 425.207031 376.699219 C 424.914062 377.074219 424.96875 377.617188 425.335938 377.929688 C 425.714844 378.242188 426.273438 378.195312 426.589844 377.820312 C 430.304688 373.390625 432.519531 367.921875 433.679688 362.386719 C 434.265625 359.613281 434.664062 356.804688 434.882812 353.992188 C 435.074219 351.175781 435.128906 348.359375 435.074219 345.550781 C 434.925781 339.929688 434.375 334.335938 433.429688 328.816406 C 432.503906 323.289062 431.253906 317.84375 429.542969 312.480469 Z M 282.953125 19.246094 C 282.28125 18.699219 281.589844 18.203125 280.886719 17.71875 C 279.476562 16.773438 278.058594 15.847656 276.390625 15.320312 C 276.074219 15.222656 275.71875 15.296875 275.46875 15.542969 C 275.109375 15.902344 275.105469 16.480469 275.464844 16.839844 L 275.46875 16.847656 C 276.679688 18.066406 278.121094 18.925781 279.53125 19.808594 L 281.65625 21.097656 C 282.332031 21.515625 283.109375 21.976562 283.601562 22.320312 L 283.757812 22.433594 C 284.070312 22.648438 284.5 22.648438 284.8125 22.398438 C 285.191406 22.097656 285.257812 21.542969 284.953125 21.160156 C 284.265625 20.300781 283.644531 19.804688 282.953125 19.246094 Z M 291.828125 41.5 C 291.296875 40.753906 290.71875 40.046875 290.050781 39.441406 C 289.375 38.832031 288.65625 38.335938 287.765625 37.953125 C 287.46875 37.828125 287.109375 37.863281 286.84375 38.082031 C 286.453125 38.398438 286.394531 38.96875 286.710938 39.355469 L 286.769531 39.429688 C 287.246094 40.019531 287.796875 40.628906 288.3125 41.195312 C 288.832031 41.769531 289.351562 42.339844 289.804688 42.949219 C 290.265625 43.554688 290.660156 44.191406 291.015625 44.84375 C 291.347656 45.511719 291.597656 46.195312 291.808594 46.921875 L 291.832031 47 C 291.941406 47.375 292.289062 47.644531 292.695312 47.640625 C 293.1875 47.636719 293.585938 47.234375 293.582031 46.738281 C 293.570312 45.800781 293.425781 44.847656 293.09375 43.96875 C 292.777344 43.089844 292.351562 42.253906 291.828125 41.5 Z M 297.992188 36.855469 C 297.53125 36.339844 296.953125 35.898438 296.316406 35.546875 C 295.660156 35.21875 294.945312 34.976562 294.203125 34.925781 C 293.445312 34.882812 292.757812 34.988281 292 35.410156 C 291.800781 35.519531 291.644531 35.710938 291.582031 35.949219 C 291.460938 36.414062 291.738281 36.890625 292.199219 37.011719 L 292.554688 37.101562 C 292.949219 37.207031 293.476562 37.277344 293.90625 37.378906 C 294.347656 37.476562 294.789062 37.585938 295.214844 37.78125 C 295.632812 37.980469 296.054688 38.214844 296.460938 38.515625 C 296.863281 38.820312 297.253906 39.175781 297.667969 39.546875 L 297.722656 39.597656 C 297.988281 39.839844 298.386719 39.902344 298.722656 39.734375 C 299.167969 39.515625 299.351562 38.976562 299.128906 38.53125 C 298.835938 37.9375 298.476562 37.359375 297.992188 36.855469 Z M 271.050781 14.300781 C 270.8125 14.714844 270.296875 14.867188 269.875 14.652344 L 269.828125 14.628906 C 266.617188 13 263.109375 11.71875 259.636719 10.566406 C 256.15625 9.449219 252.539062 8.488281 249.015625 7.78125 C 245.507812 7.183594 241.894531 7.3125 238.382812 8.007812 C 234.894531 8.722656 231.394531 9.9375 228.289062 11.628906 L 228.234375 11.65625 C 227.804688 11.894531 227.261719 11.734375 227.027344 11.300781 C 226.808594 10.902344 226.933594 10.40625 227.296875 10.152344 C 228.925781 8.996094 230.597656 8.117188 232.378906 7.367188 C 234.152344 6.621094 235.988281 6.007812 237.878906 5.609375 C 241.648438 4.757812 245.613281 4.660156 249.445312 5.359375 C 253.21875 6.128906 256.796875 7.152344 260.363281 8.429688 C 263.929688 9.691406 267.367188 11.179688 270.714844 13.085938 C 271.144531 13.328125 271.292969 13.871094 271.050781 14.300781"/></g></g></svg>