<?xml version="1.0" encoding="UTF-8"?><svg xmlns="http://www.w3.org/2000/svg" xmlns:xlink="http://www.w3.org/1999/xlink" contentScriptType="text/ecmascript" fill="#000000" width="193.4" zoomAndPan="magnify" contentStyleType="text/css" viewBox="0.0 -0.4 193.4 501.0" height="501" preserveAspectRatio="xMidYMid meet" version="1"><defs><clipPath id="a"><path d="M 0 18 L 193.449219 18 L 193.449219 461 L 0 461 Z M 0 18"/></clipPath></defs><g><g id="change1_1" clip-path="url(#a)"><path fill="#ffffff" d="M 174.707031 176.4375 C 181.234375 206.292969 182.457031 245.695312 182.632812 253.175781 C 182.652344 253.953125 182.261719 254.6875 181.59375 255.082031 C 181.011719 255.421875 180.410156 255.746094 179.792969 256.0625 C 186.285156 278.230469 171.601562 357.242188 171.601562 357.242188 C 170.046875 357.554688 167.0625 357.679688 163.277344 357.683594 C 159.578125 380.621094 134.617188 453.910156 132.109375 458.210938 C 129.34375 462.949219 111.835938 457.683594 111.835938 457.683594 C 111.835938 457.683594 119.207031 414.234375 119.207031 391.601562 C 119.207031 376.375 121.652344 363.269531 123.363281 355.949219 C 120.695312 355.777344 119.074219 355.660156 119.074219 355.660156 L 119.472656 303.53125 L 107.226562 350.527344 L 95.453125 348.953125 C 97.644531 357.183594 101.792969 375.945312 100.117188 395.15625 C 98.792969 410.355469 101.832031 453.472656 101.832031 453.472656 C 92.183594 457.433594 87.449219 455.839844 80.503906 453.472656 C 62.28125 399.734375 60.644531 359.359375 60.796875 344.3125 L 57.074219 343.8125 C 56.816406 302.601562 63.085938 273.40625 67.527344 257.953125 C 66.410156 257.5625 65.789062 256.324219 66.222656 255.167969 C 76.382812 228.179688 64.589844 185.371094 59.890625 170.492188 C 54.980469 179.550781 42.875 198.863281 32.191406 191.769531 C 12.089844 178.40625 8.832031 117.285156 8.636719 113.199219 C 8.089844 111.003906 7.445312 108.824219 6.816406 107.648438 C 5.238281 104.6875 -0.191406 94.613281 0.00390625 91.851562 C 0.203125 89.085938 13.410156 82.546875 14.714844 82.371094 C 16.199219 82.175781 21.628906 84.148438 22.714844 85.53125 C 23.800781 86.914062 26.960938 91.554688 26.070312 92.640625 C 25.183594 93.726562 24.6875 94.316406 24.6875 94.316406 C 25.328125 98.3125 25.914062 103.359375 22.023438 102.90625 C 22.023438 102.90625 26.664062 110.511719 24.6875 114.164062 C 24.585938 114.351562 24.5 114.535156 24.414062 114.71875 L 34.25 135.40625 L 43.816406 106.222656 C 43.878906 106.023438 43.972656 105.839844 44.089844 105.664062 C 45.628906 103.433594 57.054688 87.863281 83.503906 77.117188 C 83.546875 76.957031 83.589844 76.796875 83.632812 76.636719 C 81.917969 75.359375 80.324219 73.820312 78.878906 72.125 C 76.546875 69.390625 75.09375 63.402344 74.308594 56.738281 C 70.8125 57.871094 67.148438 50.460938 70.421875 44.484375 C 71.550781 42.421875 72.632812 42.0625 73.585938 42.523438 C 73.625 38.449219 73.878906 34.839844 74.300781 32.363281 C 75.839844 23.308594 85.75 17.496094 97.027344 19.035156 C 108.304688 20.570312 114.457031 26.894531 113.945312 34.414062 C 113.945312 34.414062 114.304688 37.761719 114.386719 42.589844 C 115.347656 42.253906 116.425781 42.730469 117.546875 44.777344 C 121.03125 51.140625 117.179688 59.015625 113.457031 57.929688 C 113.109375 60.144531 112.644531 62.335938 112.03125 64.40625 C 112.628906 65.730469 113.371094 67.414062 114.117188 69.207031 C 137.25 66.410156 155.65625 70.679688 158.359375 71.355469 C 158.585938 71.414062 158.800781 71.507812 159 71.632812 C 190.496094 91.296875 192.550781 131.917969 192.660156 139.273438 C 192.671875 139.878906 192.410156 140.445312 191.980469 140.855469 C 194.039062 151.378906 196.367188 173.46875 180.617188 176.957031 C 179.175781 177.277344 177.136719 177.054688 174.707031 176.4375"/></g><g id="change2_1"><path fill="#746454" d="M 161.320312 357.070312 C 161.0625 357.078125 135.21875 357.3125 123.34375 355.246094 C 122.746094 355.144531 122.183594 355.539062 122.082031 356.136719 C 121.980469 356.726562 122.378906 357.292969 122.96875 357.394531 C 132.699219 359.089844 150.980469 359.265625 158.265625 359.265625 C 160.019531 359.265625 161.136719 359.257812 161.34375 359.253906 C 161.945312 359.246094 162.429688 358.753906 162.425781 358.152344 C 162.417969 357.550781 161.949219 357.054688 161.320312 357.070312 Z M 179.476562 257.492188 C 179.277344 256.925781 178.652344 256.621094 178.085938 256.824219 C 177.675781 256.96875 136.742188 271.101562 108.96875 263.382812 C 80.601562 255.503906 69.417969 257.738281 68.957031 257.839844 C 68.367188 257.964844 67.992188 258.542969 68.117188 259.128906 C 68.242188 259.71875 68.824219 260.101562 69.410156 259.972656 C 69.519531 259.949219 80.664062 257.785156 108.386719 265.484375 C 114.644531 267.222656 121.480469 267.90625 128.351562 267.90625 C 152.6875 267.90625 177.480469 259.347656 178.808594 258.882812 C 179.375 258.683594 179.675781 258.058594 179.476562 257.492188 Z M 94.984375 351.09375 C 95.582031 351.09375 96.070312 350.609375 96.078125 350.011719 C 96.082031 349.410156 95.597656 348.917969 94.996094 348.910156 C 94.726562 348.910156 67.835938 348.59375 60.289062 343.8125 C 59.78125 343.492188 59.105469 343.644531 58.785156 344.152344 C 58.460938 344.660156 58.613281 345.335938 59.121094 345.65625 C 67.191406 350.769531 93.84375 351.082031 94.976562 351.09375 C 94.980469 351.09375 94.980469 351.09375 94.984375 351.09375 Z M 59.484375 172.679688 C 60.066406 172.523438 60.414062 171.925781 60.257812 171.34375 C 60.128906 170.863281 47.367188 122.972656 47.367188 110.148438 C 47.367188 109.546875 46.878906 109.058594 46.277344 109.058594 C 45.675781 109.058594 45.1875 109.546875 45.1875 110.148438 C 45.1875 114.539062 46.582031 122.691406 48.457031 131.671875 C 44.4375 126.773438 42.890625 118.730469 42.875 118.636719 C 42.761719 118.046875 42.191406 117.648438 41.601562 117.765625 C 41.011719 117.875 40.621094 118.445312 40.730469 119.035156 C 40.820312 119.515625 42.976562 130.777344 49.269531 135.476562 C 52.945312 152.371094 57.824219 170.683594 58.148438 171.90625 C 58.28125 172.394531 58.722656 172.71875 59.203125 172.71875 C 59.296875 172.71875 59.390625 172.703125 59.484375 172.679688 Z M 153.292969 111.824219 C 153.324219 112.117188 153.367188 112.40625 153.410156 112.691406 C 153.441406 112.878906 153.515625 113.042969 153.621094 113.183594 L 159.382812 136.882812 C 159.503906 137.382812 159.949219 137.71875 160.4375 137.71875 C 160.523438 137.71875 160.613281 137.707031 160.699219 137.6875 C 161.285156 137.542969 161.640625 136.953125 161.5 136.367188 L 155.445312 111.445312 C 154.632812 103.734375 158.621094 93.273438 158.664062 93.164062 C 158.882812 92.601562 158.601562 91.972656 158.039062 91.753906 C 157.480469 91.535156 156.847656 91.816406 156.628906 92.378906 C 156.503906 92.703125 154.511719 97.925781 153.601562 103.851562 L 152.125 97.78125 C 151.984375 97.195312 151.394531 96.832031 150.808594 96.980469 C 150.222656 97.121094 149.863281 97.710938 150.007812 98.296875 Z M 133.753906 453.078125 C 126.382812 447.8125 113.214844 450.3125 113.214844 450.3125 C 113.214844 450.3125 106.800781 467.953125 108.644531 471.902344 C 110.484375 475.851562 113.382812 478.222656 116.804688 488.226562 C 120.226562 498.230469 136.550781 500.601562 145.238281 497.441406 C 153.929688 494.28125 147.609375 486.121094 142.871094 477.167969 C 138.132812 468.21875 133.753906 453.078125 133.753906 453.078125 Z M 81.558594 446.101562 C 81.558594 446.101562 76.03125 462.6875 71.289062 471.640625 C 66.550781 480.59375 60.230469 488.753906 68.921875 491.914062 C 77.609375 495.070312 93.933594 492.703125 97.355469 482.695312 C 100.777344 472.691406 103.675781 470.324219 105.515625 466.375 C 107.359375 462.425781 101.238281 445.179688 101.238281 445.179688 C 101.238281 445.179688 88.929688 440.835938 81.558594 446.101562 Z M 84.878906 129.179688 L 84.652344 112.933594 C 84.632812 111.539062 85.746094 110.394531 87.140625 110.367188 L 129.007812 109.640625 C 129.667969 109.628906 130.304688 109.875 130.785156 110.324219 L 132.414062 111.859375 C 132.972656 112.378906 133.261719 113.125 133.207031 113.882812 L 132.992188 116.882812 C 128.746094 115.15625 121.535156 112.679688 120.390625 113.4375 C 118.8125 114.492188 116.96875 117.914062 130.660156 123.3125 C 130.660156 123.3125 131.722656 124.796875 132.320312 126.253906 L 132.175781 128.261719 C 132.160156 128.488281 132.105469 128.699219 132.035156 128.902344 C 131.972656 128.925781 131.917969 128.957031 131.847656 128.972656 C 129.34375 129.5 112.363281 122.261719 110.257812 121.734375 C 108.148438 121.207031 104.332031 119.757812 103.015625 123.445312 C 101.699219 127.132812 112.492188 130.6875 112.492188 130.6875 C 112.492188 130.6875 107.621094 130.6875 107.097656 130.949219 C 107.027344 130.984375 106.972656 131.066406 106.945312 131.183594 L 87.472656 131.675781 C 86.066406 131.710938 84.898438 130.589844 84.878906 129.179688"/></g><g id="change3_1"><path fill="#8e7d6c" d="M 51.644531 19.242188 C 51.761719 19.488281 51.886719 19.734375 52.023438 19.96875 C 52.289062 20.441406 52.597656 20.882812 52.894531 21.335938 C 53.492188 22.234375 54.054688 23.15625 54.769531 23.964844 C 55.460938 24.789062 56.242188 25.550781 56.984375 26.335938 C 57.347656 26.734375 57.691406 27.148438 58.039062 27.558594 C 58.214844 27.761719 58.40625 27.953125 58.609375 28.140625 L 58.925781 28.402344 C 59.03125 28.492188 59.195312 28.535156 59.585938 28.398438 C 59.816406 28.054688 59.816406 27.882812 59.757812 27.761719 L 59.578125 27.386719 C 59.449219 27.148438 59.3125 26.910156 59.15625 26.691406 C 58.847656 26.253906 58.53125 25.816406 58.234375 25.363281 C 57.660156 24.449219 57.117188 23.507812 56.488281 22.632812 C 55.886719 21.738281 55.132812 20.960938 54.410156 20.15625 C 54.046875 19.761719 53.695312 19.351562 53.304688 18.976562 C 53.109375 18.785156 52.902344 18.605469 52.695312 18.425781 L 52.371094 18.164062 C 52.273438 18.070312 52.105469 18.03125 51.671875 18.195312 C 51.40625 18.574219 51.402344 18.746094 51.46875 18.863281 Z M 60.484375 68.808594 L 60.234375 68.855469 C 60.074219 68.894531 59.917969 68.941406 59.773438 69.011719 C 59.488281 69.152344 59.207031 69.296875 58.910156 69.421875 C 58.308594 69.648438 57.683594 69.839844 57.113281 70.128906 C 56.53125 70.386719 56.042969 70.8125 55.53125 71.199219 C 55.28125 71.394531 55.019531 71.578125 54.785156 71.808594 C 54.667969 71.921875 54.554688 72.046875 54.449219 72.175781 L 54.289062 72.378906 C 54.230469 72.433594 54.21875 72.566406 54.371094 72.988281 C 54.664062 73.332031 54.789062 73.386719 54.867188 73.359375 L 55.121094 73.324219 C 55.285156 73.289062 55.449219 73.257812 55.605469 73.210938 C 55.917969 73.117188 56.207031 72.980469 56.503906 72.855469 C 57.089844 72.605469 57.699219 72.386719 58.210938 72.003906 C 58.738281 71.648438 59.214844 71.199219 59.707031 70.785156 C 59.960938 70.589844 60.226562 70.414062 60.488281 70.234375 C 60.617188 70.140625 60.738281 70.03125 60.851562 69.910156 L 61.015625 69.71875 C 61.070312 69.652344 61.082031 69.519531 60.953125 69.144531 C 60.6875 68.84375 60.566406 68.792969 60.484375 68.808594 Z M 59.121094 51.636719 C 59.429688 51.484375 59.742188 51.332031 60.039062 51.148438 L 60.484375 50.871094 C 60.632812 50.777344 60.75 50.617188 60.757812 50.1875 C 60.445312 49.886719 60.246094 49.859375 60.074219 49.898438 L 59.566406 50.019531 C 59.226562 50.109375 58.902344 50.222656 58.574219 50.339844 L 56.632812 51.0625 C 55.320312 51.496094 53.988281 51.894531 52.699219 52.390625 C 51.402344 52.863281 50.175781 53.507812 48.933594 54.109375 C 48.3125 54.417969 47.6875 54.710938 47.082031 55.054688 C 46.777344 55.214844 46.480469 55.398438 46.183594 55.585938 L 45.742188 55.871094 C 45.589844 55.960938 45.472656 56.117188 45.484375 56.601562 C 45.820312 56.945312 46.019531 56.972656 46.183594 56.925781 L 46.699219 56.8125 C 47.039062 56.730469 47.378906 56.648438 47.707031 56.539062 C 48.375 56.351562 49.023438 56.109375 49.675781 55.882812 C 50.976562 55.414062 52.296875 54.992188 53.542969 54.394531 C 54.800781 53.824219 56.015625 53.148438 57.246094 52.515625 Z M 48.339844 38.585938 C 48.667969 38.660156 48.984375 38.761719 49.304688 38.855469 C 49.46875 38.898438 49.636719 38.921875 49.808594 38.9375 L 50.074219 38.941406 C 50.160156 38.945312 50.273438 38.875 50.488281 38.535156 C 50.546875 38.136719 50.503906 38.011719 50.4375 37.953125 L 50.230469 37.789062 C 50.089844 37.6875 49.945312 37.597656 49.796875 37.523438 C 49.492188 37.386719 49.183594 37.257812 48.886719 37.101562 C 48.296875 36.769531 47.722656 36.398438 47.113281 36.132812 C 46.511719 35.835938 45.84375 35.71875 45.191406 35.5625 C 44.863281 35.484375 44.542969 35.394531 44.203125 35.355469 C 44.035156 35.332031 43.859375 35.324219 43.683594 35.320312 L 43.417969 35.320312 C 43.332031 35.308594 43.214844 35.382812 42.984375 35.769531 C 42.910156 36.214844 42.949219 36.347656 43.023438 36.394531 L 43.222656 36.566406 C 43.359375 36.679688 43.5 36.785156 43.644531 36.878906 C 43.925781 37.066406 44.230469 37.207031 44.527344 37.363281 C 45.128906 37.664062 45.710938 38.007812 46.359375 38.171875 C 47 38.367188 47.675781 38.453125 48.339844 38.585938 Z M 135.71875 25.730469 C 135.796875 25.613281 135.859375 25.484375 135.914062 25.347656 L 135.988281 25.132812 C 136.011719 25.058594 135.976562 24.9375 135.722656 24.632812 C 135.378906 24.429688 135.25 24.414062 135.183594 24.449219 L 134.980469 24.558594 C 134.855469 24.636719 134.738281 24.71875 134.636719 24.816406 C 134.4375 25.015625 134.242188 25.222656 134.027344 25.40625 C 133.582031 25.769531 133.105469 26.101562 132.710938 26.503906 C 132.296875 26.890625 132.023438 27.394531 131.71875 27.875 C 131.570312 28.117188 131.40625 28.347656 131.285156 28.613281 C 131.222656 28.746094 131.175781 28.886719 131.125 29.03125 L 131.0625 29.253906 C 131.03125 29.316406 131.066406 29.441406 131.363281 29.78125 C 131.746094 30.015625 131.875 30.03125 131.933594 29.988281 L 132.140625 29.890625 C 132.277344 29.820312 132.40625 29.746094 132.527344 29.664062 C 132.769531 29.5 132.96875 29.300781 133.183594 29.113281 C 133.605469 28.734375 134.0625 28.382812 134.371094 27.910156 C 134.703125 27.453125 134.953125 26.929688 135.234375 26.429688 C 135.382812 26.1875 135.554688 25.960938 135.71875 25.730469 Z M 145.3125 57.359375 L 145.003906 57.144531 C 144.792969 57.015625 144.578125 56.894531 144.355469 56.792969 C 143.910156 56.59375 143.460938 56.402344 143.019531 56.1875 C 142.152344 55.734375 141.296875 55.238281 140.402344 54.851562 C 139.519531 54.433594 138.566406 54.191406 137.628906 53.910156 C 137.160156 53.773438 136.695312 53.621094 136.210938 53.519531 C 135.972656 53.464844 135.722656 53.425781 135.476562 53.390625 L 135.101562 53.347656 C 134.980469 53.320312 134.828125 53.375 134.554688 53.746094 C 134.507812 54.203125 134.582031 54.351562 134.6875 54.410156 L 134.996094 54.632812 C 135.203125 54.769531 135.410156 54.910156 135.625 55.03125 C 136.050781 55.28125 136.496094 55.480469 136.933594 55.699219 C 137.816406 56.125 138.679688 56.589844 139.613281 56.878906 C 140.539062 57.191406 141.503906 57.40625 142.449219 57.660156 C 142.917969 57.796875 143.378906 57.957031 143.84375 58.113281 C 144.074219 58.1875 144.316406 58.242188 144.558594 58.289062 L 144.929688 58.339844 C 145.054688 58.359375 145.207031 58.304688 145.464844 57.980469 C 145.492188 57.570312 145.414062 57.429688 145.3125 57.359375 Z M 154.917969 32.269531 L 154.25 32.449219 C 153.808594 32.574219 153.375 32.726562 152.945312 32.882812 L 150.367188 33.839844 C 148.632812 34.429688 146.882812 34.984375 145.171875 35.636719 C 143.453125 36.265625 141.804688 37.070312 140.136719 37.828125 C 139.304688 38.214844 138.46875 38.585938 137.652344 39.007812 C 137.238281 39.207031 136.835938 39.433594 136.433594 39.65625 L 135.832031 40.003906 C 135.628906 40.109375 135.453125 40.289062 135.414062 40.789062 C 135.796875 41.121094 136.042969 41.128906 136.265625 41.0625 L 136.933594 40.890625 C 137.378906 40.769531 137.824219 40.644531 138.261719 40.5 C 139.136719 40.230469 139.996094 39.914062 140.859375 39.605469 C 142.582031 38.984375 144.324219 38.402344 145.992188 37.648438 C 147.671875 36.921875 149.3125 36.09375 150.964844 35.300781 L 153.476562 34.1875 C 153.890625 33.992188 154.308594 33.800781 154.710938 33.582031 L 155.316406 33.242188 C 155.515625 33.132812 155.691406 32.949219 155.753906 32.496094 C 155.390625 32.214844 155.140625 32.210938 154.917969 32.269531 Z M 95.511719 118.804688 C 94.203125 118.804688 93.140625 119.863281 93.140625 121.175781 C 93.140625 122.480469 94.203125 123.542969 95.511719 123.542969 C 96.820312 123.542969 97.878906 122.480469 97.878906 121.175781 C 97.878906 119.863281 96.820312 118.804688 95.511719 118.804688 Z M 130.761719 111.582031 C 130.769531 112.183594 130.289062 112.679688 129.6875 112.6875 L 88.273438 113.257812 C 88.113281 113.261719 88.011719 113.34375 87.964844 113.394531 C 87.917969 113.441406 87.835938 113.546875 87.839844 113.707031 L 88.109375 129.84375 C 88.121094 130.445312 87.640625 130.941406 87.039062 130.953125 C 87.03125 130.953125 87.027344 130.953125 87.019531 130.953125 C 86.425781 130.953125 85.9375 130.476562 85.929688 129.882812 L 85.660156 113.742188 C 85.648438 113.039062 85.910156 112.378906 86.398438 111.875 C 86.886719 111.371094 87.542969 111.085938 88.246094 111.078125 L 129.65625 110.507812 C 129.660156 110.507812 129.664062 110.507812 129.671875 110.507812 C 130.265625 110.507812 130.753906 110.984375 130.761719 111.582031"/></g><g id="change4_1"><path fill="#141c75" d="M 69.136719 38.976562 C 69.542969 38.785156 69.628906 38.691406 69.625 38.621094 L 69.65625 38.410156 C 69.671875 38.269531 69.683594 38.132812 69.683594 37.996094 C 69.679688 37.726562 69.628906 37.472656 69.59375 37.210938 C 69.515625 36.695312 69.472656 36.164062 69.253906 35.691406 C 69.0625 35.210938 68.765625 34.761719 68.507812 34.300781 C 68.394531 34.066406 68.300781 33.824219 68.203125 33.585938 C 68.148438 33.464844 68.078125 33.351562 67.996094 33.242188 L 67.855469 33.082031 C 67.808594 33.027344 67.6875 33 67.292969 33.054688 C 66.9375 33.230469 66.855469 33.324219 66.847656 33.394531 L 66.824219 33.605469 C 66.820312 33.742188 66.824219 33.878906 66.847656 34.003906 C 66.902344 34.257812 66.964844 34.511719 67 34.769531 C 67.050781 35.296875 67.0625 35.835938 67.175781 36.339844 C 67.265625 36.855469 67.53125 37.3125 67.761719 37.78125 C 67.878906 38.015625 67.980469 38.253906 68.132812 38.480469 C 68.207031 38.589844 68.296875 38.699219 68.386719 38.804688 L 68.535156 38.964844 C 68.570312 39.019531 68.695312 39.046875 69.136719 38.976562 Z M 67.03125 28.972656 C 67.464844 28.835938 67.566406 28.742188 67.578125 28.660156 L 67.648438 28.410156 C 67.691406 28.246094 67.730469 28.082031 67.75 27.921875 C 67.804688 27.601562 67.839844 27.289062 67.875 26.980469 C 67.960938 26.359375 68.132812 25.785156 68.195312 25.226562 C 68.273438 24.660156 68.347656 24.113281 68.570312 23.609375 C 68.691406 23.371094 68.863281 23.167969 69.054688 23 L 69.332031 22.714844 C 69.375 22.671875 69.421875 22.605469 69.472656 22.5625 C 69.527344 22.511719 69.53125 22.398438 69.53125 21.996094 C 69.371094 21.628906 69.214844 21.5625 69.113281 21.570312 C 69 21.578125 68.898438 21.597656 68.792969 21.613281 C 68.585938 21.667969 68.386719 21.746094 68.214844 21.859375 C 67.863281 22.085938 67.570312 22.375 67.296875 22.675781 C 66.742188 23.265625 66.28125 23.976562 66.078125 24.722656 C 65.960938 25.097656 65.914062 25.472656 65.890625 25.851562 C 65.90625 26.222656 65.914062 26.597656 65.953125 26.957031 C 66.007812 27.3125 66.027344 27.675781 66.132812 28.023438 C 66.183594 28.195312 66.253906 28.363281 66.324219 28.53125 L 66.441406 28.78125 C 66.46875 28.867188 66.582031 28.941406 67.03125 28.972656 Z M 102.421875 11.285156 C 102.628906 11.6875 102.828125 11.800781 103.035156 11.84375 L 103.660156 11.980469 L 104.90625 12.238281 C 105.734375 12.402344 106.5625 12.582031 107.355469 12.855469 C 108.945312 13.40625 110.421875 14.179688 111.769531 15.054688 C 113.089844 15.96875 114.308594 16.980469 115.253906 18.261719 L 115.914062 19.261719 L 116.4375 20.347656 L 116.707031 20.898438 L 116.910156 21.480469 L 117.128906 22.070312 C 117.191406 22.269531 117.332031 22.453125 117.824219 22.605469 C 118.226562 22.335938 118.277344 22.089844 118.253906 21.863281 L 118.203125 21.175781 L 118.140625 20.480469 C 118.101562 20.253906 118.019531 20.035156 117.957031 19.8125 C 117.816406 19.367188 117.703125 18.90625 117.527344 18.46875 L 116.867188 17.21875 C 115.890625 15.605469 114.554688 14.15625 112.929688 13.210938 C 111.308594 12.265625 109.535156 11.710938 107.773438 11.335938 C 107.335938 11.226562 106.898438 11.132812 106.453125 11.0625 C 106.011719 10.972656 105.574219 10.890625 105.125 10.847656 C 104.683594 10.789062 104.234375 10.769531 103.785156 10.761719 L 103.109375 10.789062 C 102.882812 10.808594 102.648438 10.894531 102.421875 11.285156 Z M 69.167969 48.886719 C 63.972656 38.445312 57.257812 20.484375 70.324219 16.945312 C 70.773438 10.738281 75.394531 4.683594 78.550781 1.230469 C 79.953125 -0.300781 82.304688 -0.410156 83.871094 0.945312 C 86.332031 3.078125 90.839844 5.660156 98.042969 5.265625 C 115.667969 4.300781 120.378906 13.335938 119.230469 22.011719 C 129.324219 21.460938 122.976562 37.902344 118.542969 47.308594 C 118.324219 46.453125 117.996094 45.605469 117.546875 44.777344 C 115.660156 41.335938 113.898438 42.3125 112.597656 44.179688 C 112.367188 37.890625 110.898438 32.9375 109.734375 29.925781 C 101.011719 33.210938 88.1875 34.273438 79.617188 30.449219 C 78.121094 32.296875 75.445312 36.90625 76.105469 45.824219 C 74.914062 43.25 72.769531 40.195312 70.421875 44.484375 C 69.636719 45.914062 69.253906 47.425781 69.167969 48.886719 Z M 87.066406 48.128906 C 87.457031 47.011719 86.867188 45.785156 85.746094 45.394531 C 84.628906 45.007812 83.40625 45.597656 83.015625 46.714844 C 82.621094 47.835938 83.214844 49.058594 84.332031 49.445312 C 85.453125 49.839844 86.675781 49.246094 87.066406 48.128906 Z M 102.042969 45.175781 C 100.921875 44.785156 99.699219 45.375 99.308594 46.492188 C 98.917969 47.613281 99.507812 48.835938 100.628906 49.226562 C 101.746094 49.617188 102.96875 49.027344 103.359375 47.910156 C 103.75 46.789062 103.160156 45.566406 102.042969 45.175781 Z M 88.339844 41.132812 C 88.1875 41.011719 88.035156 40.894531 87.878906 40.789062 C 87.5625 40.574219 87.226562 40.410156 86.894531 40.226562 C 86.234375 39.871094 85.585938 39.480469 84.867188 39.261719 C 84.15625 39.019531 83.410156 38.875 82.675781 38.691406 C 82.3125 38.589844 81.960938 38.464844 81.605469 38.34375 C 81.429688 38.289062 81.242188 38.25 81.050781 38.222656 L 80.761719 38.195312 C 80.664062 38.1875 80.539062 38.25 80.304688 38.578125 C 80.246094 38.980469 80.292969 39.113281 80.371094 39.175781 L 80.597656 39.359375 C 80.753906 39.472656 80.910156 39.574219 81.078125 39.660156 C 81.414062 39.820312 81.753906 39.976562 82.082031 40.15625 C 82.730469 40.535156 83.363281 40.957031 84.039062 41.273438 C 84.703125 41.617188 85.4375 41.789062 86.15625 42 C 86.519531 42.097656 86.871094 42.214844 87.246094 42.28125 C 87.433594 42.320312 87.628906 42.339844 87.820312 42.359375 L 88.117188 42.378906 C 88.210938 42.394531 88.339844 42.332031 88.597656 41.957031 C 88.6875 41.515625 88.640625 41.378906 88.5625 41.324219 Z M 84.519531 62.230469 C 85.078125 62.960938 85.828125 63.125 86.550781 63.316406 C 87.273438 63.515625 88.007812 63.6875 88.742188 63.84375 C 90.21875 64.128906 91.71875 64.320312 93.226562 64.40625 C 95.546875 64.523438 97.914062 64.453125 100.246094 64 C 99.605469 65.039062 98.847656 66.023438 98.003906 66.839844 C 96.703125 68.097656 95.160156 69.035156 93.410156 69.261719 C 91.671875 69.53125 90 68.894531 88.683594 67.648438 C 88.03125 67.019531 87.449219 66.28125 86.941406 65.480469 C 86.6875 65.078125 86.457031 64.65625 86.246094 64.222656 C 86.050781 63.78125 85.832031 63.367188 85.222656 63.023438 C 84.875 63.644531 84.996094 64.175781 85.171875 64.660156 C 85.339844 65.152344 85.53125 65.640625 85.75 66.117188 C 86.183594 67.078125 86.753906 67.996094 87.496094 68.808594 C 88.230469 69.621094 89.160156 70.320312 90.234375 70.746094 C 91.300781 71.179688 92.488281 71.328125 93.609375 71.226562 C 95.871094 71.085938 98.03125 69.96875 99.539062 68.394531 C 100.324219 67.632812 100.949219 66.742188 101.507812 65.839844 C 102.058594 64.914062 102.519531 64.003906 102.882812 62.9375 L 102.890625 62.914062 C 102.957031 62.730469 102.960938 62.519531 102.890625 62.316406 C 102.722656 61.84375 102.199219 61.597656 101.726562 61.761719 C 100.40625 62.230469 99.027344 62.574219 97.609375 62.769531 C 96.1875 62.929688 94.742188 63.007812 93.292969 62.941406 C 91.847656 62.875 90.398438 62.746094 88.957031 62.550781 C 88.230469 62.464844 87.507812 62.363281 86.789062 62.238281 C 86.066406 62.113281 85.375 61.917969 84.519531 62.230469 Z M 91.1875 54.269531 L 91.296875 53.695312 L 91.492188 52.546875 C 91.738281 51.011719 91.878906 49.449219 92.054688 47.902344 L 92.402344 45.59375 C 92.453125 45.203125 92.503906 44.816406 92.523438 44.429688 L 92.546875 43.839844 C 92.554688 43.640625 92.492188 43.433594 92.136719 43.167969 C 91.710938 43.285156 91.574219 43.460938 91.511719 43.644531 L 91.320312 44.203125 C 91.199219 44.574219 91.105469 44.953125 91.015625 45.332031 L 90.503906 47.613281 C 90.113281 49.121094 89.679688 50.625 89.355469 52.148438 L 89.121094 53.292969 L 89.019531 53.867188 L 88.976562 54.15625 L 88.9375 54.566406 C 88.882812 55.726562 89.484375 56.851562 90.421875 57.445312 C 90.890625 57.746094 91.4375 57.917969 91.976562 57.949219 C 92.390625 57.972656 92.765625 57.949219 93.160156 57.949219 C 93.550781 57.949219 93.941406 57.925781 94.335938 57.898438 L 94.921875 57.851562 C 95.117188 57.847656 95.320312 57.761719 95.550781 57.328125 C 95.390625 56.863281 95.203125 56.75 95.011719 56.714844 L 94.4375 56.574219 C 94.054688 56.488281 93.671875 56.402344 93.285156 56.34375 C 92.90625 56.28125 92.503906 56.203125 92.140625 56.15625 C 91.90625 56.113281 91.699219 56.011719 91.523438 55.871094 C 91.175781 55.578125 91.015625 55.121094 91.085938 54.722656 Z M 106.34375 39.183594 L 106.007812 38.984375 C 105.777344 38.859375 105.535156 38.804688 105.285156 38.730469 C 105.035156 38.648438 104.789062 38.640625 104.539062 38.628906 C 104.285156 38.613281 104.035156 38.605469 103.792969 38.632812 C 102.804688 38.679688 101.847656 38.882812 101.015625 39.3125 C 100.167969 39.714844 99.433594 40.277344 98.730469 40.84375 C 98.371094 41.113281 98.003906 41.375 97.652344 41.652344 C 97.476562 41.789062 97.320312 41.953125 97.167969 42.121094 L 96.953125 42.394531 C 96.882812 42.484375 96.859375 42.640625 97.023438 43.011719 C 97.355469 43.246094 97.503906 43.265625 97.601562 43.222656 L 97.902344 43.101562 C 98.101562 43.011719 98.289062 42.914062 98.46875 42.808594 C 98.824219 42.589844 99.183594 42.371094 99.558594 42.1875 C 100.324219 41.835938 101.121094 41.585938 101.867188 41.3125 C 102.621094 41.066406 103.324219 40.703125 104.054688 40.535156 C 104.242188 40.476562 104.421875 40.449219 104.601562 40.425781 C 104.785156 40.402344 104.972656 40.355469 105.148438 40.347656 C 105.324219 40.34375 105.523438 40.28125 105.707031 40.28125 L 105.996094 40.269531 C 106.09375 40.28125 106.210938 40.203125 106.480469 39.820312 C 106.542969 39.378906 106.453125 39.234375 106.34375 39.183594 Z M 109.84375 71.597656 C 109.441406 71.746094 109.328125 71.894531 109.28125 72.0625 L 109.148438 72.542969 C 109.070312 72.867188 108.988281 73.1875 108.925781 73.515625 C 108.804688 74.164062 108.664062 74.808594 108.488281 75.445312 C 108.101562 76.714844 107.585938 77.929688 107.097656 79.132812 C 106.59375 80.328125 106.144531 81.542969 105.574219 82.710938 L 105.132812 83.578125 C 104.964844 83.855469 104.804688 84.136719 104.652344 84.429688 C 104.503906 84.722656 104.351562 85.015625 104.179688 85.296875 L 103.945312 85.734375 C 103.855469 85.875 103.835938 86.070312 104.058594 86.496094 C 104.5 86.660156 104.695312 86.59375 104.816406 86.46875 L 105.222656 86.121094 C 105.496094 85.890625 105.75 85.640625 105.972656 85.367188 C 106.453125 84.84375 106.851562 84.261719 107.238281 83.667969 C 108.003906 82.480469 108.726562 81.238281 109.136719 79.890625 C 109.589844 78.550781 109.839844 77.160156 110.03125 75.785156 C 110.132812 75.097656 110.25 74.410156 110.324219 73.722656 C 110.363281 73.375 110.375 73.027344 110.367188 72.679688 C 110.363281 72.503906 110.34375 72.324219 110.332031 72.148438 C 110.320312 71.976562 110.226562 71.789062 109.84375 71.597656 Z M 112.757812 476.433594 C 112.574219 476.128906 112.382812 475.835938 112.230469 475.519531 C 111.910156 474.894531 111.550781 474.308594 111.308594 473.664062 C 111.003906 473.046875 110.851562 472.371094 110.636719 471.734375 C 110.519531 471.058594 110.296875 470.417969 110.199219 469.738281 C 109.949219 468.402344 109.769531 467.015625 109.820312 465.601562 C 109.863281 464.898438 109.964844 464.199219 110.097656 463.507812 L 110.28125 462.460938 L 110.363281 461.929688 C 110.390625 461.75 110.355469 461.558594 110.058594 461.238281 C 109.621094 461.261719 109.453125 461.414062 109.367188 461.585938 C 109.28125 461.757812 109.183594 461.925781 109.109375 462.101562 C 108.949219 462.453125 108.832031 462.816406 108.726562 463.183594 C 108.515625 463.917969 108.386719 464.671875 108.25 465.429688 C 107.972656 466.933594 107.847656 468.511719 108.050781 470.074219 C 108.128906 470.859375 108.335938 471.628906 108.582031 472.378906 C 108.902344 473.101562 109.160156 473.847656 109.585938 474.515625 C 109.789062 474.851562 109.960938 475.207031 110.191406 475.523438 C 110.417969 475.84375 110.671875 476.140625 110.910156 476.445312 C 111.136719 476.765625 111.441406 477.015625 111.726562 477.273438 L 112.171875 477.648438 C 112.308594 477.78125 112.507812 477.863281 112.953125 477.695312 C 113.160156 477.246094 113.125 477.046875 113.027344 476.894531 Z M 106.121094 458.960938 C 105.96875 458.542969 105.777344 458.140625 105.550781 457.757812 C 105.324219 457.378906 105.078125 457.003906 104.773438 456.679688 C 104.621094 456.515625 104.464844 456.359375 104.296875 456.210938 C 104.136719 456.0625 103.894531 455.957031 103.476562 456.105469 C 103.351562 456.535156 103.394531 456.730469 103.496094 456.898438 C 103.605469 457.058594 103.691406 457.230469 103.785156 457.402344 C 103.972656 457.734375 104.144531 458.074219 104.308594 458.417969 C 104.636719 459.101562 104.878906 459.824219 105 460.566406 C 105.226562 462.070312 104.972656 463.574219 104.5625 465.015625 C 104.167969 466.46875 103.550781 467.894531 102.847656 469.296875 L 101.628906 471.347656 C 101.398438 471.675781 101.1875 472.019531 100.976562 472.367188 L 100.664062 472.898438 C 100.554688 473.066406 100.503906 473.289062 100.710938 473.746094 C 101.175781 473.886719 101.386719 473.785156 101.535156 473.636719 L 102.003906 473.210938 C 102.3125 472.921875 102.625 472.628906 102.914062 472.316406 C 103.484375 471.6875 103.96875 470.980469 104.488281 470.296875 C 105.390625 468.84375 106.328125 467.320312 106.671875 465.546875 C 107.074219 463.816406 107.042969 461.945312 106.542969 460.226562 C 106.417969 459.796875 106.308594 459.367188 106.121094 458.960938 Z M 94.171875 486.292969 L 93.1875 486.855469 C 92.523438 487.214844 91.894531 487.628906 91.21875 487.957031 C 89.871094 488.617188 88.589844 489.394531 87.203125 489.941406 C 84.5 491.183594 81.652344 492.039062 78.789062 492.511719 C 75.941406 492.976562 72.96875 493 70.292969 491.988281 C 69.027344 491.394531 67.773438 490.65625 66.945312 489.535156 C 66.675781 489.296875 66.5625 488.964844 66.363281 488.683594 L 66.082031 488.242188 L 65.890625 487.761719 C 65.789062 487.433594 65.566406 487.128906 65.539062 486.773438 C 65.476562 486.425781 65.339844 486.101562 64.902344 485.726562 C 64.230469 486.515625 64.550781 487.378906 64.734375 488.160156 C 64.789062 488.363281 64.839844 488.566406 64.902344 488.765625 L 65.183594 489.320312 C 65.394531 489.675781 65.535156 490.089844 65.824219 490.390625 C 66.082031 490.710938 66.351562 491.03125 66.621094 491.347656 C 66.925781 491.625 67.25 491.878906 67.566406 492.144531 C 67.871094 492.429688 68.226562 492.632812 68.582031 492.835938 C 68.9375 493.03125 69.28125 493.269531 69.652344 493.433594 C 72.617188 494.808594 75.960938 495.089844 79.105469 494.664062 C 80.691406 494.46875 82.222656 494.050781 83.722656 493.5625 L 85.914062 492.691406 C 86.648438 492.417969 87.320312 492.011719 88.027344 491.679688 C 89.445312 491.019531 90.746094 490.164062 92.054688 489.332031 C 92.726562 488.949219 93.300781 488.410156 93.914062 487.945312 L 94.824219 487.226562 C 95.132812 486.996094 95.394531 486.695312 95.445312 486.121094 C 94.863281 485.972656 94.496094 486.097656 94.171875 486.292969 Z M 148.71875 493.753906 C 148.472656 493.957031 148.222656 494.148438 147.953125 494.316406 C 147.4375 494.683594 146.902344 495.011719 146.367188 495.324219 C 145.289062 495.945312 144.183594 496.507812 143.011719 496.882812 C 140.675781 497.679688 138.191406 497.863281 135.71875 497.78125 C 133.238281 497.667969 130.726562 497.265625 128.285156 496.519531 C 127.066406 496.140625 125.878906 495.660156 124.714844 495.136719 L 122.960938 494.34375 L 122.082031 493.945312 C 121.792969 493.808594 121.472656 493.734375 120.984375 493.886719 C 121.039062 494.398438 121.277344 494.660156 121.550781 494.851562 L 122.375 495.417969 C 122.933594 495.777344 123.515625 496.101562 124.105469 496.40625 C 125.289062 497.011719 126.519531 497.527344 127.761719 498.011719 C 130.238281 498.992188 132.863281 499.742188 135.59375 499.953125 C 138.316406 500.144531 141.132812 499.75 143.683594 498.679688 C 144.964844 498.175781 146.179688 497.492188 147.265625 496.667969 C 147.535156 496.457031 147.8125 496.257812 148.066406 496.03125 L 148.800781 495.320312 C 149.050781 495.09375 149.277344 494.84375 149.496094 494.585938 C 149.722656 494.339844 149.898438 494.03125 149.8125 493.492188 C 149.253906 493.402344 148.960938 493.546875 148.71875 493.753906 Z M 122.777344 450.398438 L 124.152344 450.394531 C 125.976562 450.367188 127.816406 450.390625 129.523438 450.832031 C 129.964844 450.917969 130.332031 451.128906 130.742188 451.273438 C 131.101562 451.476562 131.488281 451.679688 131.785156 451.941406 C 132.105469 452.1875 132.378906 452.476562 132.597656 452.792969 C 132.722656 452.949219 132.808594 453.121094 132.894531 453.296875 C 132.96875 453.488281 133.101562 453.621094 133.488281 453.867188 C 133.898438 453.644531 133.953125 453.304688 133.914062 453.03125 C 133.863281 452.757812 133.800781 452.480469 133.683594 452.226562 C 133.46875 451.703125 133.117188 451.257812 132.722656 450.890625 C 131.925781 450.148438 130.96875 449.683594 130.023438 449.335938 C 128.121094 448.601562 126.140625 448.277344 124.1875 448.21875 L 122.722656 448.1875 C 122.238281 448.214844 121.753906 448.25 121.273438 448.300781 L 119.828125 448.441406 L 118.398438 448.664062 C 117.449219 448.820312 116.496094 448.9375 115.570312 449.191406 C 115.101562 449.296875 114.640625 449.429688 114.179688 449.558594 L 113.488281 449.769531 C 113.257812 449.828125 113.039062 449.964844 112.886719 450.445312 C 113.203125 450.851562 113.449219 450.910156 113.6875 450.894531 L 114.398438 450.871094 C 114.871094 450.851562 115.34375 450.832031 115.808594 450.785156 C 116.746094 450.695312 117.679688 450.644531 118.609375 450.574219 L 120.003906 450.476562 L 121.394531 450.449219 C 121.855469 450.449219 122.316406 450.425781 122.777344 450.398438 Z M 101.53125 445.605469 C 101.261719 444.914062 100.8125 444.921875 100.40625 444.769531 C 99.996094 444.632812 99.582031 444.519531 99.164062 444.410156 C 98.328125 444.207031 97.484375 444.042969 96.636719 443.894531 C 94.941406 443.597656 93.242188 443.285156 91.511719 443.085938 C 89.785156 442.867188 88.019531 442.820312 86.234375 442.984375 C 84.46875 443.183594 82.621094 443.582031 80.960938 444.714844 L 81.027344 444.675781 C 80.59375 444.960938 80.417969 445.175781 80.179688 445.457031 C 79.960938 445.71875 79.792969 446.003906 79.632812 446.289062 C 79.324219 446.867188 79.167969 447.484375 79.0625 448.085938 C 78.941406 448.683594 78.957031 449.285156 78.980469 449.871094 L 79.082031 450.738281 C 79.128906 451.019531 79.257812 451.304688 79.714844 451.53125 C 80.128906 451.210938 80.210938 450.949219 80.214844 450.683594 L 80.300781 449.910156 C 80.382812 449.402344 80.476562 448.90625 80.621094 448.441406 C 80.757812 447.976562 80.960938 447.546875 81.191406 447.167969 C 81.3125 446.984375 81.441406 446.804688 81.582031 446.65625 C 81.703125 446.519531 81.925781 446.351562 81.953125 446.34375 L 82.019531 446.304688 C 83.246094 445.5625 84.867188 445.324219 86.457031 445.183594 C 88.0625 445.035156 89.714844 444.976562 91.382812 445.015625 C 93.050781 445.050781 94.738281 445.128906 96.40625 445.359375 L 98.90625 445.730469 C 99.328125 445.789062 99.746094 445.84375 100.167969 445.886719 C 100.597656 445.910156 100.980469 446.097656 101.53125 445.605469 Z M 182.46875 262.433594 C 182.320312 261.382812 182.1875 260.324219 181.949219 259.285156 C 181.851562 258.765625 181.730469 258.246094 181.609375 257.726562 C 181.492188 257.210938 181.277344 256.703125 180.773438 256.28125 C 180.503906 256.882812 180.511719 257.402344 180.574219 257.921875 C 180.644531 258.4375 180.714844 258.953125 180.761719 259.472656 L 181.066406 262.582031 L 181.289062 265.695312 C 181.3125 266.738281 181.367188 267.777344 181.363281 268.816406 C 181.324219 272.980469 180.953125 277.132812 180.246094 281.214844 C 179.996094 283.273438 179.453125 285.277344 179.085938 287.316406 C 178.554688 289.316406 178.128906 291.351562 177.429688 293.304688 C 177.09375 294.285156 176.824219 295.292969 176.433594 296.253906 L 175.289062 299.148438 C 174.929688 300.128906 174.492188 301.070312 174.058594 302.019531 L 173.410156 303.441406 C 173.1875 303.914062 173.035156 304.421875 173.179688 305.109375 C 173.816406 304.867188 174.152344 304.445312 174.414062 303.984375 L 175.226562 302.613281 C 175.769531 301.699219 176.34375 300.796875 176.757812 299.8125 L 178.101562 296.914062 C 178.542969 295.941406 178.859375 294.921875 179.242188 293.925781 C 180.042969 291.941406 180.5625 289.871094 181.175781 287.824219 C 181.449219 286.792969 181.644531 285.738281 181.859375 284.695312 C 182.09375 283.652344 182.261719 282.597656 182.394531 281.539062 C 182.707031 279.425781 182.835938 277.296875 182.976562 275.171875 L 183.023438 271.976562 C 183.019531 270.914062 182.96875 269.851562 182.941406 268.785156 C 182.851562 266.664062 182.714844 264.542969 182.46875 262.433594 Z M 79.304688 83.929688 L 79.042969 82.347656 C 78.921875 81.820312 78.925781 81.285156 78.910156 80.746094 C 78.851562 80.203125 78.746094 79.664062 78.398438 79.082031 C 78.027344 79.605469 77.902344 80.175781 77.820312 80.742188 C 77.765625 81.316406 77.734375 81.890625 77.808594 82.460938 L 77.953125 84.183594 C 78.046875 84.753906 78.199219 85.3125 78.324219 85.882812 C 78.933594 88.105469 79.941406 90.28125 81.410156 92.082031 C 82.839844 93.910156 84.554688 95.496094 86.429688 96.832031 C 88.328125 98.164062 90.292969 99.273438 92.535156 100.125 C 92.816406 100.230469 93.144531 100.210938 93.417969 100.039062 L 93.4375 100.027344 C 96.398438 98.183594 99.324219 96.253906 101.953125 93.960938 C 103.320312 92.878906 104.5625 91.65625 105.851562 90.492188 C 107.070312 89.25 108.324219 88.046875 109.46875 86.738281 C 111.800781 84.167969 114.023438 81.5 116.054688 78.691406 C 117.070312 77.285156 118.050781 75.859375 118.949219 74.378906 C 119.386719 73.628906 119.832031 72.886719 120.246094 72.121094 C 120.679688 71.375 121.070312 70.585938 121.050781 69.601562 C 120.226562 70.136719 119.773438 70.84375 119.316406 71.566406 C 118.855469 72.285156 118.367188 72.980469 117.886719 73.6875 C 116.902344 75.078125 115.921875 76.472656 114.886719 77.824219 C 112.835938 80.546875 110.625 83.148438 108.214844 85.550781 C 105.824219 87.972656 103.304688 90.253906 100.636719 92.34375 C 98.132812 94.363281 95.464844 96.152344 92.757812 97.871094 C 90.980469 97.199219 89.191406 96.257812 87.570312 95.183594 C 85.796875 93.992188 84.179688 92.578125 82.832031 90.953125 C 81.453125 89.339844 80.445312 87.449219 79.769531 85.449219 C 79.617188 84.945312 79.433594 84.441406 79.304688 83.929688 Z M 112.988281 298.738281 C 113.640625 298.214844 114.347656 297.773438 115.050781 297.347656 L 116.117188 296.730469 C 116.238281 296.65625 116.363281 296.59375 116.484375 296.523438 C 116.71875 297.5625 116.949219 298.59375 117.152344 299.636719 C 117.4375 300.964844 117.644531 302.308594 117.921875 303.644531 L 118.320312 305.648438 L 118.523438 306.652344 C 118.582031 306.988281 118.722656 307.316406 119.207031 307.613281 C 119.617188 307.230469 119.675781 306.875 119.65625 306.53125 L 119.625 305.496094 C 119.601562 304.804688 119.601562 304.109375 119.519531 303.425781 C 119.40625 302.050781 119.25 300.679688 119.046875 299.3125 C 118.683594 296.574219 118.195312 293.851562 117.523438 291.171875 C 116.859375 288.492188 115.972656 285.867188 115.0625 283.265625 C 114.621094 281.960938 114.175781 280.65625 113.691406 279.363281 C 113.441406 278.71875 113.195312 278.074219 112.898438 277.449219 L 112.449219 276.515625 C 112.296875 276.203125 112.070312 275.917969 111.574219 275.753906 C 111.339844 276.226562 111.371094 276.570312 111.46875 276.898438 L 111.753906 277.882812 C 111.949219 278.53125 112.15625 279.183594 112.363281 279.828125 C 112.777344 281.125 113.199219 282.417969 113.554688 283.730469 C 114.246094 286.363281 114.832031 289.023438 115.40625 291.675781 C 115.679688 292.9375 115.96875 294.191406 116.253906 295.449219 C 116.050781 295.496094 115.839844 295.539062 115.644531 295.605469 C 115.203125 295.730469 114.792969 295.917969 114.386719 296.105469 C 113.589844 296.511719 112.824219 296.964844 112.082031 297.445312 C 110.578125 298.375 109.117188 299.382812 107.808594 300.554688 C 106.472656 301.695312 105.335938 303.039062 104.214844 304.367188 C 103.671875 305.050781 103.105469 305.710938 102.605469 306.425781 C 102.351562 306.777344 102.117188 307.144531 101.882812 307.515625 L 101.539062 308.070312 C 101.417969 308.253906 101.355469 308.480469 101.566406 308.929688 C 102.054688 309.046875 102.269531 308.945312 102.421875 308.796875 L 102.902344 308.363281 C 103.222656 308.070312 103.535156 307.78125 103.828125 307.472656 C 104.445312 306.878906 105.039062 306.273438 105.632812 305.664062 L 107.460938 303.898438 C 108.101562 303.347656 108.675781 302.726562 109.285156 302.148438 C 110.484375 300.972656 111.683594 299.792969 112.988281 298.738281 Z M 52.765625 168.355469 C 52.53125 167.308594 52.308594 166.246094 52.035156 165.199219 L 51.015625 162.148438 C 50.660156 161.136719 50.21875 160.164062 49.824219 159.171875 C 48.148438 155.238281 46.269531 151.402344 44.089844 147.75 C 41.90625 144.101562 39.601562 140.535156 37.175781 137.058594 C 35.976562 135.3125 34.792969 133.554688 33.570312 131.824219 C 32.953125 130.964844 32.332031 130.105469 31.671875 129.273438 L 30.691406 128.023438 C 30.359375 127.609375 29.96875 127.234375 29.335938 127.042969 C 29.328125 127.703125 29.546875 128.191406 29.835938 128.632812 L 30.6875 129.96875 C 31.242188 130.863281 31.828125 131.742188 32.40625 132.621094 C 33.574219 134.378906 34.734375 136.136719 35.851562 137.921875 C 38.050781 141.519531 40.167969 145.15625 42.203125 148.832031 C 44.273438 152.484375 46.273438 156.175781 48.066406 159.945312 C 48.488281 160.898438 48.960938 161.839844 49.34375 162.804688 C 49.714844 163.773438 50.117188 164.734375 50.503906 165.703125 C 50.8125 166.6875 51.152344 167.664062 51.488281 168.652344 C 51.644531 169.144531 51.722656 169.648438 51.84375 170.152344 C 51.945312 170.660156 52.128906 171.144531 52.660156 171.625 C 53.023438 171.0625 53.035156 170.507812 52.96875 169.972656 C 52.898438 169.433594 52.871094 168.882812 52.765625 168.355469 Z M 192.277344 139.605469 L 191.617188 139.519531 C 191.179688 139.46875 190.738281 139.4375 190.296875 139.4375 C 189.417969 139.4375 188.535156 139.441406 187.652344 139.472656 C 185.886719 139.460938 184.113281 139.523438 182.351562 139.734375 C 180.585938 139.929688 178.863281 140.394531 177.160156 140.878906 C 176.308594 141.121094 175.460938 141.386719 174.636719 141.71875 C 174.21875 141.871094 173.8125 142.054688 173.410156 142.25 L 172.8125 142.558594 C 172.648438 142.632812 172.507812 142.765625 172.433594 143.066406 C 172.386719 143.054688 172.34375 143.035156 172.296875 143.019531 C 169.246094 141.996094 166.15625 141.097656 163.054688 140.242188 C 161.507812 139.800781 159.9375 139.4375 158.375 139.042969 C 156.800781 138.707031 155.230469 138.335938 153.640625 138.058594 C 150.808594 137.476562 147.929688 137.117188 145.050781 136.808594 C 145.054688 135.253906 145.023438 133.710938 144.933594 132.152344 C 144.875 131.203125 144.789062 130.253906 144.65625 129.292969 C 144.511719 128.34375 144.367188 127.328125 143.882812 126.3125 C 142.910156 124.476562 141.742188 123.054688 140.542969 121.578125 C 139.351562 120.117188 138.089844 118.734375 136.789062 117.371094 L 136.753906 117.332031 C 136.71875 117.292969 136.671875 117.261719 136.621094 117.234375 L 135.136719 116.511719 C 134.625 116.300781 134.089844 116.136719 133.425781 116.203125 C 133.726562 116.800781 134.15625 117.160156 134.609375 117.476562 L 135.898438 118.261719 C 137.035156 119.6875 138.144531 121.148438 139.238281 122.601562 C 140.304688 124.078125 141.464844 125.609375 142.183594 127.101562 C 142.492188 127.78125 142.613281 128.644531 142.714844 129.535156 C 142.808594 130.425781 142.863281 131.335938 142.890625 132.25 C 142.949219 134.074219 142.929688 135.933594 142.859375 137.757812 C 142.835938 138.328125 143.261719 138.828125 143.839844 138.886719 L 143.855469 138.886719 C 150.15625 139.519531 156.4375 140.484375 162.636719 141.90625 C 165.746094 142.585938 168.8125 143.453125 171.847656 144.402344 L 176.394531 145.859375 L 178.660156 146.613281 C 179.410156 146.882812 180.160156 147.132812 181.078125 147.007812 C 180.527344 146.261719 179.792969 145.910156 179.050781 145.605469 L 176.828125 144.671875 C 175.8125 144.261719 174.785156 143.890625 173.753906 143.527344 L 173.832031 143.511719 L 175.097656 143.261719 L 177.613281 142.742188 C 179.296875 142.414062 180.992188 142.203125 182.675781 141.886719 C 184.359375 141.605469 186.046875 141.25 187.757812 141.046875 C 188.609375 140.933594 189.472656 140.910156 190.328125 140.847656 C 190.757812 140.804688 191.191406 140.796875 191.621094 140.742188 L 192.265625 140.65625 C 192.484375 140.628906 192.699219 140.527344 192.925781 140.132812 C 192.714844 139.734375 192.496094 139.632812 192.277344 139.605469 Z M 169.355469 173.628906 L 164.925781 172.140625 C 161.980469 171.128906 159.050781 170.070312 156.15625 168.925781 C 150.375 166.617188 144.753906 163.929688 139.328125 160.933594 C 133.933594 157.886719 128.699219 154.554688 123.949219 150.632812 C 121.601562 148.65625 119.265625 146.550781 117.171875 144.339844 C 116.128906 143.226562 115.171875 142.050781 114.417969 140.804688 C 113.832031 139.84375 113.453125 138.816406 113.371094 137.777344 C 113.476562 137.855469 113.578125 137.9375 113.683594 138.007812 C 114.304688 138.441406 114.949219 138.828125 115.585938 139.226562 C 116.867188 140.015625 118.125 140.847656 119.472656 141.511719 C 120.808594 142.199219 122.199219 142.792969 123.566406 143.421875 L 125.582031 144.433594 C 125.921875 144.597656 126.261719 144.757812 126.613281 144.894531 L 127.148438 145.09375 C 127.328125 145.15625 127.539062 145.160156 127.894531 144.902344 C 127.921875 144.464844 127.808594 144.285156 127.65625 144.171875 L 127.203125 143.820312 C 126.898438 143.597656 126.578125 143.398438 126.261719 143.199219 L 124.328125 142.039062 C 123.0625 141.21875 121.820312 140.363281 120.523438 139.605469 C 119.238281 138.824219 117.863281 138.203125 116.511719 137.546875 C 115.832031 137.21875 115.160156 136.882812 114.460938 136.59375 C 114.117188 136.4375 113.761719 136.308594 113.40625 136.175781 L 112.867188 135.984375 C 112.777344 135.949219 112.679688 135.933594 112.550781 135.964844 C 112.019531 135.898438 111.433594 135.769531 110.898438 135.589844 C 110.300781 135.386719 109.726562 135.117188 109.210938 134.777344 C 108.6875 134.441406 108.238281 134.015625 107.855469 133.539062 C 107.445312 133.070312 107.09375 132.566406 106.570312 132.003906 C 106.390625 132.75 106.578125 133.519531 106.96875 134.160156 C 107.359375 134.800781 107.90625 135.335938 108.492188 135.785156 C 109.082031 136.238281 109.734375 136.59375 110.410156 136.875 C 110.867188 137.0625 111.324219 137.203125 111.804688 137.324219 C 111.730469 138.863281 112.226562 140.386719 112.921875 141.644531 C 113.722656 143.113281 114.75 144.378906 115.804688 145.578125 C 117.953125 147.960938 120.222656 150.105469 122.613281 152.203125 C 127.410156 156.367188 132.757812 159.828125 138.339844 162.753906 C 143.910156 165.71875 149.722656 168.15625 155.601562 170.367188 C 158.539062 171.472656 161.496094 172.523438 164.496094 173.449219 C 165.992188 173.933594 167.503906 174.355469 169.023438 174.753906 C 170.550781 175.105469 172.015625 175.734375 173.707031 175.441406 C 172.367188 174.386719 170.824219 174.167969 169.355469 173.628906 Z M 110.371094 67.566406 C 109.867188 67.671875 109.628906 67.890625 109.441406 68.144531 L 108.867188 68.90625 C 108.472656 69.402344 108.097656 69.910156 107.6875 70.394531 C 106.90625 71.382812 106.042969 72.308594 105.117188 73.152344 C 103.230469 74.816406 101.070312 76.097656 98.800781 76.964844 C 96.542969 77.84375 94.121094 78.363281 91.65625 78.238281 C 90.417969 78.296875 89.207031 77.976562 87.964844 77.828125 L 87.496094 77.761719 L 87.042969 77.640625 L 86.125 77.40625 L 85.199219 77.175781 C 84.894531 77.085938 84.558594 77.074219 84.078125 77.382812 C 84.210938 77.902344 84.488281 78.109375 84.792969 78.238281 L 85.703125 78.648438 C 86.320312 78.894531 86.902344 79.273438 87.570312 79.394531 C 88.871094 79.726562 90.175781 80.121094 91.546875 80.152344 L 92.570312 80.238281 C 92.910156 80.28125 93.25 80.289062 93.59375 80.25 L 95.652344 80.105469 C 97.003906 79.863281 98.363281 79.550781 99.617188 78.980469 C 102.160156 77.914062 104.359375 76.222656 106.210938 74.292969 C 107.136719 73.324219 108.03125 72.332031 108.808594 71.25 C 109.203125 70.714844 109.5625 70.152344 109.890625 69.574219 C 110.054688 69.285156 110.195312 68.980469 110.347656 68.683594 C 110.492188 68.386719 110.574219 68.039062 110.371094 67.566406 Z M 118.539062 132.136719 L 116.035156 131.128906 C 115.617188 130.964844 115.195312 130.804688 114.765625 130.667969 L 114.113281 130.476562 C 113.894531 130.410156 113.648438 130.410156 113.285156 130.6875 C 113.328125 131.140625 113.496094 131.320312 113.6875 131.4375 L 114.269531 131.789062 C 114.660156 132.015625 115.066406 132.214844 115.46875 132.414062 L 117.902344 133.578125 C 119.503906 134.402344 121.089844 135.265625 122.71875 136.023438 C 124.339844 136.808594 126.03125 137.425781 127.707031 138.078125 C 128.546875 138.402344 129.382812 138.738281 130.238281 139.023438 C 130.660156 139.179688 131.09375 139.308594 131.527344 139.4375 L 132.183594 139.625 C 132.398438 139.695312 132.644531 139.695312 133.03125 139.371094 C 133.007812 138.871094 132.839844 138.6875 132.644531 138.578125 L 132.0625 138.222656 C 131.675781 137.988281 131.285156 137.757812 130.886719 137.550781 C 130.097656 137.109375 129.285156 136.722656 128.480469 136.320312 C 126.863281 135.53125 125.265625 134.695312 123.59375 134.03125 C 121.933594 133.347656 120.226562 132.761719 118.539062 132.136719 Z M 24.078125 99.1875 C 23.949219 99.113281 23.8125 99.054688 23.671875 99.015625 L 22.824219 98.8125 C 22.261719 98.640625 21.675781 98.460938 21.074219 98.425781 C 20.46875 98.363281 19.863281 98.542969 19.277344 98.722656 C 18.984375 98.828125 18.6875 98.914062 18.417969 99.085938 C 18.28125 99.164062 18.152344 99.257812 18.027344 99.367188 L 17.851562 99.539062 C 17.789062 99.585938 17.757812 99.714844 17.875 100.144531 C 18.121094 100.523438 18.21875 100.605469 18.28125 100.597656 L 18.488281 100.617188 L 18.882812 100.640625 C 19.136719 100.640625 19.378906 100.617188 19.625 100.613281 C 19.855469 100.609375 20.082031 100.621094 20.308594 100.632812 C 20.296875 100.6875 20.289062 100.742188 20.277344 100.800781 C 20.234375 101.089844 20.148438 101.382812 20.25 101.652344 C 20.324219 101.929688 20.507812 102.191406 20.644531 102.457031 C 20.703125 102.59375 20.734375 102.730469 20.777344 102.867188 C 20.796875 102.9375 20.84375 103.003906 20.898438 103.066406 L 20.992188 103.160156 C 21.027344 103.191406 21.136719 103.214844 21.527344 103.203125 C 21.914062 103.121094 22.015625 103.074219 22.039062 103.039062 L 22.113281 102.921875 C 22.148438 102.847656 22.175781 102.773438 22.183594 102.703125 C 22.191406 102.558594 22.191406 102.417969 22.214844 102.273438 C 22.289062 101.980469 22.40625 101.683594 22.410156 101.398438 C 22.449219 101.109375 22.296875 100.847656 22.1875 100.574219 C 22.167969 100.535156 22.152344 100.492188 22.136719 100.453125 C 22.304688 100.429688 22.472656 100.398438 22.644531 100.382812 C 22.910156 100.367188 23.167969 100.390625 23.429688 100.410156 C 23.5625 100.417969 23.695312 100.40625 23.832031 100.390625 L 24.039062 100.347656 C 24.109375 100.332031 24.195312 100.242188 24.355469 99.882812 C 24.390625 99.484375 24.335938 99.363281 24.273438 99.320312 Z M 24.367188 93.644531 L 23.914062 93.433594 C 23.605469 93.308594 23.292969 93.195312 22.976562 93.109375 C 22.339844 92.945312 21.699219 92.8125 21.058594 92.664062 C 19.777344 92.351562 18.472656 92.074219 17.144531 91.984375 C 15.816406 91.855469 14.472656 92.027344 13.15625 92.242188 C 12.496094 92.355469 11.839844 92.472656 11.203125 92.6875 C 10.878906 92.773438 10.566406 92.894531 10.261719 93.039062 L 9.800781 93.253906 C 9.648438 93.3125 9.515625 93.457031 9.484375 93.925781 C 9.761719 94.3125 9.941406 94.378906 10.097656 94.355469 L 10.574219 94.332031 C 10.886719 94.304688 11.199219 94.289062 11.511719 94.277344 C 12.128906 94.230469 12.742188 94.171875 13.363281 94.148438 C 14.597656 94.101562 15.828125 94.171875 17.0625 94.15625 C 18.296875 94.164062 19.550781 94.132812 20.808594 94.222656 C 21.433594 94.285156 22.054688 94.382812 22.671875 94.492188 C 22.980469 94.550781 23.292969 94.585938 23.605469 94.617188 L 24.082031 94.65625 C 24.242188 94.671875 24.414062 94.613281 24.6875 94.285156 C 24.652344 93.863281 24.515625 93.714844 24.367188 93.644531 Z M 12.15625 90.34375 C 13.449219 90.0625 14.769531 89.878906 16.066406 89.554688 C 17.371094 89.253906 18.667969 88.871094 19.984375 88.5625 C 20.644531 88.421875 21.308594 88.308594 21.972656 88.195312 C 22.304688 88.136719 22.632812 88.058594 22.960938 87.972656 L 23.453125 87.824219 C 23.617188 87.777344 23.773438 87.652344 23.898438 87.242188 C 23.683594 86.871094 23.503906 86.785156 23.328125 86.777344 L 22.808594 86.753906 C 22.464844 86.753906 22.121094 86.761719 21.78125 86.792969 L 19.742188 87.003906 C 18.378906 87.101562 17 87.191406 15.640625 87.421875 C 14.277344 87.613281 12.953125 88.046875 11.632812 88.496094 C 10.976562 88.71875 10.3125 88.96875 9.675781 89.269531 C 9.359375 89.4375 9.046875 89.617188 8.742188 89.804688 C 8.59375 89.902344 8.445312 90.019531 8.296875 90.125 C 8.144531 90.222656 8.03125 90.398438 8.101562 90.863281 C 8.46875 91.175781 8.660156 91.199219 8.8125 91.144531 C 8.96875 91.105469 9.121094 91.054688 9.28125 91.019531 C 9.605469 90.949219 9.921875 90.882812 10.234375 90.796875 Z M 8.492188 87.964844 C 8.285156 88.078125 8.078125 88.183594 7.855469 88.273438 C 7.738281 88.316406 7.640625 88.367188 7.53125 88.414062 C 7.421875 88.464844 7.269531 88.449219 6.914062 88.230469 C 6.753906 87.855469 6.792969 87.691406 6.878906 87.585938 C 6.964844 87.484375 7.050781 87.367188 7.144531 87.277344 C 7.332031 87.097656 7.523438 86.917969 7.734375 86.769531 L 9.007812 85.925781 C 9.839844 85.347656 10.671875 84.761719 11.558594 84.292969 C 12.433594 83.800781 13.390625 83.496094 14.335938 83.167969 C 14.808594 83.011719 15.273438 82.835938 15.765625 82.714844 C 16.007812 82.652344 16.257812 82.605469 16.507812 82.5625 L 16.886719 82.511719 C 17.007812 82.480469 17.164062 82.53125 17.445312 82.898438 C 17.496094 83.355469 17.425781 83.503906 17.320312 83.566406 L 17.015625 83.792969 C 16.8125 83.9375 16.605469 84.082031 16.394531 84.210938 C 15.972656 84.476562 15.535156 84.691406 15.105469 84.929688 C 14.238281 85.390625 13.402344 85.902344 12.496094 86.257812 C 11.601562 86.636719 10.671875 86.941406 9.773438 87.308594 C 9.328125 87.503906 8.910156 87.730469 8.492188 87.964844"/></g><g id="change5_1"><path fill="#f2da1c" d="M 41.078125 125.945312 C 40.617188 125.96875 40.484375 126.0625 40.445312 126.171875 L 40.277344 126.496094 C 40.171875 126.714844 40.070312 126.9375 39.988281 127.15625 C 39.808594 127.601562 39.6875 128.058594 39.542969 128.507812 C 39.269531 129.414062 38.957031 130.3125 38.828125 131.246094 C 38.667969 132.175781 38.617188 133.128906 38.527344 134.074219 C 38.46875 134.542969 38.386719 135.007812 38.308594 135.472656 C 38.273438 135.707031 38.261719 135.945312 38.257812 136.183594 L 38.265625 136.546875 C 38.269531 136.667969 38.347656 136.808594 38.707031 137.003906 C 39.113281 136.972656 39.242188 136.878906 39.296875 136.769531 L 39.453125 136.441406 C 39.546875 136.21875 39.632812 135.996094 39.695312 135.769531 C 39.816406 135.3125 39.929688 134.855469 40.070312 134.402344 C 40.375 133.507812 40.71875 132.613281 40.953125 131.703125 C 41.21875 130.796875 41.300781 129.851562 41.421875 128.910156 C 41.476562 128.441406 41.550781 127.976562 41.574219 127.496094 C 41.585938 127.261719 41.585938 127.019531 41.578125 126.777344 L 41.558594 126.410156 C 41.566406 126.292969 41.484375 126.152344 41.078125 125.945312 Z M 183.082031 106.902344 L 182.976562 106.132812 C 182.890625 105.621094 182.835938 105.101562 182.699219 104.605469 C 182.445312 103.601562 182.203125 102.589844 181.851562 101.613281 C 181.226562 99.636719 180.4375 97.695312 179.429688 95.871094 C 178.40625 94.058594 177.167969 92.363281 175.847656 90.765625 C 175.527344 90.355469 175.199219 89.953125 174.855469 89.5625 C 174.523438 89.164062 174.183594 88.769531 173.820312 88.398438 C 173.460938 88.023438 173.089844 87.65625 172.6875 87.324219 C 172.484375 87.15625 172.28125 86.996094 172.066406 86.839844 C 171.859375 86.683594 171.589844 86.574219 171.140625 86.71875 C 171.078125 87.183594 171.1875 87.414062 171.347656 87.609375 L 171.820312 88.1875 L 172.769531 89.335938 C 173.402344 90.101562 174.03125 90.875 174.582031 91.707031 C 175.679688 93.371094 176.605469 95.136719 177.507812 96.894531 C 178.351562 98.6875 179.316406 100.429688 180.050781 102.28125 C 180.46875 103.191406 180.753906 104.148438 181.15625 105.070312 L 181.691406 106.480469 L 181.976562 107.183594 C 182.058594 107.421875 182.222656 107.636719 182.722656 107.777344 C 183.097656 107.429688 183.128906 107.15625 183.082031 106.902344 Z M 169.238281 83.59375 C 169.183594 83.457031 169.128906 83.320312 169.0625 83.195312 C 168.933594 82.945312 168.765625 82.730469 168.613281 82.503906 C 168.296875 82.054688 168.007812 81.578125 167.585938 81.230469 C 167.183594 80.863281 166.699219 80.570312 166.25 80.25 C 166.03125 80.082031 165.835938 79.894531 165.632812 79.714844 C 165.527344 79.625 165.40625 79.550781 165.28125 79.484375 L 165.078125 79.394531 C 165.011719 79.363281 164.890625 79.386719 164.558594 79.605469 C 164.316406 79.925781 164.289062 80.050781 164.3125 80.117188 L 164.390625 80.324219 C 164.449219 80.453125 164.519531 80.578125 164.601562 80.6875 C 164.769531 80.898438 164.945312 81.109375 165.101562 81.335938 C 165.398438 81.804688 165.660156 82.300781 166.003906 82.722656 C 166.324219 83.164062 166.785156 83.480469 167.214844 83.820312 C 167.433594 83.988281 167.640625 84.167969 167.882812 84.3125 C 168.003906 84.386719 168.136719 84.445312 168.269531 84.507812 L 168.476562 84.589844 C 168.539062 84.628906 168.664062 84.601562 169.03125 84.347656 C 169.308594 83.992188 169.339844 83.867188 169.308594 83.808594 Z M 159.902344 74.980469 C 159.652344 74.804688 159.410156 74.578125 159.136719 74.457031 C 158.605469 74.1875 158.070312 73.84375 157.507812 73.644531 C 156.945312 73.445312 156.386719 73.21875 155.8125 73.050781 L 154.089844 72.609375 C 151.785156 72.089844 149.460938 71.730469 147.128906 71.597656 C 144.796875 71.476562 142.46875 71.53125 140.148438 71.609375 L 136.671875 71.699219 C 136.09375 71.730469 135.515625 71.761719 134.9375 71.828125 L 134.070312 71.9375 C 133.78125 71.980469 133.496094 72.089844 133.226562 72.5 C 133.53125 72.882812 133.820312 72.972656 134.109375 72.988281 L 134.96875 73.050781 C 135.542969 73.085938 136.117188 73.097656 136.691406 73.105469 C 137.839844 73.125 138.984375 73.136719 140.128906 73.191406 C 142.421875 73.328125 144.699219 73.566406 146.96875 73.769531 C 149.230469 73.988281 151.492188 74.164062 153.71875 74.492188 L 155.371094 74.792969 L 156.992188 75.175781 C 157.53125 75.3125 158.035156 75.492188 158.570312 75.640625 C 158.851562 75.703125 159.0625 75.847656 159.3125 75.953125 C 159.550781 76.078125 159.824219 76.128906 160.34375 75.921875 C 160.371094 75.414062 160.15625 75.15625 159.902344 74.980469 Z M 134.371094 492.832031 L 133.886719 492.644531 C 133.5625 492.542969 133.253906 492.402344 132.945312 492.257812 L 132.027344 491.851562 L 131.148438 491.375 C 130.007812 490.691406 128.984375 489.851562 127.976562 488.964844 C 126.984375 488.066406 125.992188 487.113281 125.128906 486.027344 C 124.707031 485.480469 124.335938 484.894531 123.976562 484.296875 C 123.789062 484.003906 123.617188 483.707031 123.417969 483.414062 L 123.121094 482.976562 C 123.023438 482.832031 122.867188 482.71875 122.429688 482.695312 C 122.128906 483.011719 122.109375 483.226562 122.160156 483.40625 C 122.210938 483.585938 122.257812 483.769531 122.316406 483.945312 C 122.429688 484.296875 122.578125 484.640625 122.738281 484.972656 C 123.0625 485.636719 123.441406 486.269531 123.820312 486.910156 C 124.558594 488.199219 125.40625 489.460938 126.480469 490.542969 C 127.53125 491.65625 128.898438 492.453125 130.285156 493.09375 L 131.359375 493.519531 C 131.71875 493.648438 132.105469 493.707031 132.476562 493.800781 C 132.84375 493.902344 133.226562 493.945312 133.613281 493.945312 L 134.183594 493.957031 C 134.371094 493.96875 134.574219 493.90625 134.804688 493.492188 C 134.683594 493.011719 134.535156 492.882812 134.371094 492.832031 Z M 72.746094 472.484375 L 72.386719 472.824219 C 72.15625 473.0625 71.9375 473.308594 71.742188 473.566406 C 71.351562 474.089844 70.984375 474.628906 70.605469 475.164062 C 69.828125 476.21875 69.085938 477.328125 68.523438 478.554688 C 67.929688 479.761719 67.617188 481.125 67.53125 482.527344 C 67.496094 482.875 67.484375 483.226562 67.523438 483.585938 C 67.550781 483.945312 67.539062 484.292969 67.660156 484.648438 C 67.765625 485 67.84375 485.351562 68.011719 485.671875 L 68.285156 486.144531 C 68.363281 486.300781 68.53125 486.433594 68.984375 486.382812 C 69.328125 486.035156 69.382812 485.867188 69.347656 485.726562 L 69.289062 485.300781 C 69.25 485.023438 69.292969 484.722656 69.273438 484.449219 C 69.238281 484.179688 69.3125 483.886719 69.320312 483.605469 C 69.324219 483.324219 69.367188 483.042969 69.4375 482.757812 C 69.648438 481.625 70.117188 480.527344 70.527344 479.394531 C 70.960938 478.269531 71.390625 477.101562 71.953125 475.984375 C 72.246094 475.433594 72.570312 474.898438 72.90625 474.371094 C 73.070312 474.105469 73.222656 473.832031 73.371094 473.554688 L 73.582031 473.125 C 73.65625 472.984375 73.664062 472.796875 73.460938 472.429688 C 73.054688 472.308594 72.871094 472.375 72.746094 472.484375 Z M 119.199219 21.082031 L 119.128906 20.328125 C 119.097656 20.125 119.039062 19.929688 118.976562 19.730469 L 118.792969 19.117188 C 118.691406 18.773438 118.589844 18.433594 118.457031 18.101562 L 118.4375 18.050781 L 117.722656 16.699219 C 116.585938 14.824219 115.101562 13.320312 113.433594 12.347656 C 111.910156 11.457031 110.175781 10.824219 108.015625 10.363281 C 107.550781 10.246094 107.082031 10.148438 106.648438 10.078125 C 106.199219 9.988281 105.722656 9.898438 105.257812 9.855469 C 104.832031 9.800781 104.367188 9.769531 103.742188 9.765625 L 103.039062 9.792969 C 102.410156 9.835938 101.914062 10.171875 101.558594 10.78125 L 101.28125 11.257812 L 101.53125 11.742188 C 101.851562 12.359375 102.28125 12.710938 102.820312 12.816406 L 103.457031 12.960938 L 104.714844 13.222656 C 105.597656 13.394531 106.324219 13.558594 107.027344 13.804688 C 108.410156 14.28125 109.824219 14.984375 111.199219 15.875 C 112.6875 16.902344 113.6875 17.824219 114.421875 18.8125 L 115.042969 19.753906 L 115.78125 21.28125 L 115.972656 21.832031 L 116.175781 22.371094 C 116.417969 23.132812 117.058594 23.414062 117.523438 23.5625 L 117.984375 23.703125 L 118.382812 23.4375 C 119.191406 22.890625 119.296875 22.21875 119.25 21.796875 Z M 67.777344 39.613281 C 67.945312 39.816406 68.238281 40.019531 68.734375 40.019531 C 68.859375 40.019531 69.039062 40.007812 69.292969 39.964844 L 69.4375 39.941406 L 69.570312 39.878906 C 69.925781 39.710938 70.570312 39.402344 70.621094 38.71875 L 70.652344 38.519531 C 70.671875 38.332031 70.6875 38.148438 70.683594 37.992188 C 70.679688 37.742188 70.648438 37.503906 70.613281 37.265625 L 70.542969 36.792969 C 70.480469 36.324219 70.40625 35.792969 70.183594 35.324219 C 70.015625 34.902344 69.800781 34.53125 69.589844 34.171875 L 69.40625 33.855469 C 69.328125 33.699219 69.261719 33.535156 69.195312 33.371094 L 69.117188 33.183594 C 69.039062 33.003906 68.9375 32.835938 68.746094 32.582031 L 68.613281 32.429688 C 68.378906 32.160156 68.050781 32.023438 67.632812 32.023438 C 67.515625 32.023438 67.363281 32.035156 67.15625 32.0625 L 66.992188 32.085938 L 66.847656 32.160156 C 66.527344 32.320312 65.929688 32.621094 65.855469 33.28125 L 65.828125 33.566406 C 65.816406 33.804688 65.832031 34.003906 65.871094 34.210938 L 65.914062 34.402344 C 65.949219 34.570312 65.988281 34.738281 66.007812 34.867188 L 66.039062 35.285156 C 66.070312 35.695312 66.101562 36.125 66.191406 36.507812 C 66.289062 37.074219 66.53125 37.554688 66.742188 37.980469 L 66.953125 38.40625 C 67.058594 38.621094 67.167969 38.835938 67.296875 39.023438 C 67.390625 39.175781 67.507812 39.316406 67.65625 39.488281 Z M 67.152344 29.980469 L 67.332031 29.925781 C 67.683594 29.816406 68.398438 29.589844 68.550781 28.894531 L 68.617188 28.65625 C 68.667969 28.453125 68.714844 28.253906 68.738281 28.089844 C 68.796875 27.746094 68.832031 27.417969 68.863281 27.117188 C 68.902344 26.851562 68.957031 26.589844 69.011719 26.339844 C 69.085938 25.996094 69.152344 25.664062 69.1875 25.359375 C 69.25 24.886719 69.316406 24.398438 69.460938 24.066406 C 69.519531 23.953125 69.601562 23.847656 69.773438 23.695312 L 70.03125 23.429688 L 70.144531 23.300781 C 70.527344 22.953125 70.53125 22.53125 70.53125 22 L 70.535156 21.785156 L 70.449219 21.59375 C 70.058594 20.710938 69.464844 20.574219 69.070312 20.574219 C 69.066406 20.574219 69.0625 20.574219 69.058594 20.574219 C 68.917969 20.582031 68.785156 20.601562 68.648438 20.625 L 68.535156 20.648438 C 68.195312 20.738281 67.910156 20.859375 67.671875 21.019531 C 67.1875 21.332031 66.820312 21.710938 66.570312 21.988281 C 66.066406 22.523438 65.402344 23.386719 65.128906 24.417969 C 64.996094 24.828125 64.921875 25.265625 64.890625 25.886719 L 64.898438 26.03125 C 64.910156 26.378906 64.921875 26.726562 64.964844 27.105469 L 65.003906 27.390625 C 65.035156 27.667969 65.074219 27.984375 65.175781 28.308594 C 65.238281 28.519531 65.316406 28.722656 65.417969 28.960938 L 65.519531 29.167969 C 65.804688 29.894531 66.644531 29.949219 66.96875 29.972656 Z M 36.089844 213.980469 C 35.308594 213.894531 34.535156 213.757812 33.757812 213.6875 C 32.984375 213.59375 32.222656 213.433594 31.453125 213.332031 C 30.691406 213.195312 29.9375 213.03125 29.179688 212.871094 C 27.695312 212.480469 26.210938 212.0625 24.824219 211.449219 C 24.117188 211.175781 23.453125 210.8125 22.765625 210.507812 C 22.113281 210.136719 21.445312 209.785156 20.835938 209.351562 C 18.34375 207.71875 16.222656 205.480469 14.929688 202.730469 C 14.289062 201.355469 13.855469 199.886719 13.59375 198.378906 C 13.457031 197.625 13.371094 196.863281 13.292969 196.097656 C 13.257812 195.714844 13.222656 195.332031 13.210938 194.945312 C 13.191406 194.558594 13.117188 194.183594 12.773438 193.742188 C 12.328125 194.089844 12.199219 194.503906 12.15625 194.910156 C 12.113281 195.316406 12.082031 195.726562 12.070312 196.136719 C 12.046875 196.953125 12.097656 197.777344 12.203125 198.589844 C 12.417969 200.222656 12.863281 201.824219 13.480469 203.359375 C 14.679688 206.457031 16.84375 209.238281 19.609375 211.144531 C 22.355469 213.113281 25.59375 214.128906 28.785156 214.75 C 29.589844 214.878906 30.394531 215.007812 31.199219 215.109375 C 32.003906 215.1875 32.8125 215.261719 33.621094 215.292969 C 34.425781 215.316406 35.234375 215.316406 36.039062 215.289062 L 37.246094 215.222656 C 37.644531 215.210938 38.050781 215.113281 38.445312 214.671875 C 38.042969 214.21875 37.65625 214.109375 37.261719 214.085938 Z M 22.730469 198.015625 C 22.667969 197.84375 22.683594 197.613281 23.039062 197.296875 C 23.523438 197.296875 23.667969 197.386719 23.761719 197.523438 C 23.859375 197.652344 23.957031 197.78125 24.066406 197.90625 L 24.6875 198.636719 C 25.128906 199.097656 25.550781 199.558594 26.039062 199.9375 C 27.007812 200.722656 28.117188 201.203125 29.253906 201.628906 C 30.414062 201.992188 31.660156 202.246094 32.96875 202.261719 C 33.617188 202.265625 34.265625 202.128906 34.921875 202.074219 C 35.246094 202.011719 35.574219 201.945312 35.90625 201.90625 L 36.414062 201.859375 C 36.585938 201.847656 36.773438 201.898438 37.0625 202.230469 C 37.015625 202.652344 36.871094 202.800781 36.710938 202.871094 L 36.222656 203.09375 C 35.890625 203.230469 35.554688 203.347656 35.214844 203.453125 C 34.507812 203.582031 33.804688 203.746094 33.085938 203.839844 C 31.648438 204.046875 30.125 204.089844 28.628906 203.710938 C 27.136719 203.320312 25.800781 202.429688 24.738281 201.351562 C 24.203125 200.8125 23.738281 200.214844 23.367188 199.5625 C 23.1875 199.238281 23.027344 198.898438 22.902344 198.546875 C 22.835938 198.375 22.78125 198.191406 22.730469 198.015625"/></g></g></svg>