<?xml version="1.0" encoding="UTF-8"?><svg xmlns="http://www.w3.org/2000/svg" xmlns:xlink="http://www.w3.org/1999/xlink" contentScriptType="text/ecmascript" fill="#000000" width="528" zoomAndPan="magnify" contentStyleType="text/css" viewBox="-28.1 -13.8 528.0 494.9" height="494.9" preserveAspectRatio="xMidYMid meet" version="1"><defs><clipPath id="a"><path d="M 33 89 L 498.140625 89 L 498.140625 481.148438 L 33 481.148438 Z M 33 89"/></clipPath></defs><g><g id="change1_1"><path fill="#ffffff" d="M 310.449219 391.570312 C 294.703125 392.03125 260.898438 390.183594 235.425781 386.9375 C 228.234375 386.023438 223.074219 387.359375 219.371094 389.75 C 235.519531 366.140625 259.28125 331.804688 272.320312 312.988281 C 291.894531 345.03125 352.132812 396.664062 352.132812 396.664062 L 353.957031 403.160156 C 342.371094 395.160156 321.691406 391.238281 310.449219 391.570312 Z M 239.4375 155.996094 C 239.4375 155.996094 234.585938 152.09375 228.820312 147.804688 C 228.191406 146.257812 227.585938 144.855469 227.007812 143.632812 C 233.019531 149.800781 239.4375 155.996094 239.4375 155.996094 Z M 201.28125 256.226562 L 201.308594 255.257812 L 203.296875 253.410156 C 202.621094 254.347656 201.953125 255.285156 201.28125 256.226562 Z M 481.339844 446.449219 C 462.816406 438.578125 422.0625 403.148438 415.578125 406.390625 C 415.375 406.492188 415.140625 406.605469 414.886719 406.722656 C 396.507812 374.929688 299.011719 208.4375 269.695312 202.152344 C 260.820312 200.253906 253.164062 201.859375 246.71875 205.191406 C 246.007812 202.585938 245.101562 199.289062 244.054688 195.5625 C 245.535156 196.75 246.957031 197.574219 248.238281 197.832031 C 252.140625 198.613281 259.234375 194.308594 265.296875 189.855469 C 272.207031 184.785156 276.78125 177.144531 278.097656 168.675781 L 280.8125 151.210938 C 280.8125 151.210938 282.355469 133.613281 280.964844 129.90625 C 279.574219 126.203125 277.261719 122.496094 277.261719 122.496094 L 270.46875 143.800781 L 263.210938 124.195312 L 255.496094 105.035156 C 254.554688 102.703125 251.5 102.121094 249.796875 103.96875 C 248.597656 105.261719 247.71875 107.398438 248.085938 110.921875 C 249.011719 119.871094 252.714844 145.34375 252.714844 145.34375 C 252.714844 145.34375 224.773438 129.597656 222.304688 128.519531 C 219.832031 127.4375 216.128906 128.828125 216.746094 131.761719 C 216.878906 132.390625 218 133.863281 219.675781 135.792969 C 206.277344 128.210938 171.53125 117.0625 145.054688 110.304688 L 144.308594 105.371094 C 144.308594 105.371094 154.070312 100.269531 156.539062 94.402344 C 163.105469 78.8125 158.414062 38.332031 158.414062 38.332031 C 154.808594 -3.640625 95.902344 10.277344 90.238281 32.421875 C 88.660156 38.59375 88.136719 45.140625 88.203125 51.378906 C 87.082031 55.070312 87.21875 59.855469 88.964844 63.042969 C 90.203125 73.738281 92.5 81.589844 92.5 81.589844 L 88.113281 108.429688 C 64.019531 113.726562 32.179688 123.574219 16.832031 133.613281 C -28.117188 163.011719 31.1875 253.097656 31.1875 253.097656 L 26.085938 324.929688 C 25.503906 333.101562 29.480469 340.273438 35.597656 344.382812 C 34.238281 347.648438 27.347656 366.683594 33.503906 403.609375 C 37.210938 425.84375 62.21875 452.238281 90.003906 454.09375 C 94.457031 454.390625 100.066406 454.027344 106.425781 453.097656 C 115.851562 454.578125 127.222656 454.78125 140.949219 453.164062 C 191.296875 447.242188 230.683594 443.824219 254.84375 442 C 284.976562 442.316406 325.136719 442.617188 332.21875 442.050781 C 336.558594 441.703125 342.136719 439.988281 347.320312 437.148438 C 347.363281 437.410156 347.417969 437.664062 347.5 437.882812 C 349.816406 443.902344 463.511719 475.394531 497.320312 469.375 C 497.320312 469.375 499.867188 454.324219 481.339844 446.449219"/></g><g id="change2_1"><path fill="#312e5f" d="M 150.671875 61.214844 C 152.378906 60.617188 153.277344 58.753906 152.683594 57.046875 C 152.085938 55.339844 150.222656 54.441406 148.515625 55.035156 C 146.808594 55.632812 145.910156 57.496094 146.503906 59.203125 C 147.101562 60.90625 148.964844 61.808594 150.671875 61.214844 Z M 126.132812 54.417969 C 124.425781 55.015625 123.527344 56.878906 124.121094 58.585938 C 124.714844 60.289062 126.582031 61.191406 128.285156 60.59375 C 129.992188 60 130.894531 58.132812 130.296875 56.429688 C 129.703125 54.722656 127.835938 53.820312 126.132812 54.417969 Z M 153.824219 43.789062 C 153.988281 43.054688 153.859375 42.816406 153.722656 42.746094 L 153.3125 42.476562 C 153.027344 42.320312 152.734375 42.171875 152.4375 42.082031 C 151.839844 41.867188 151.222656 41.824219 150.609375 41.769531 C 149.386719 41.695312 148.140625 41.753906 147.03125 42.207031 C 145.902344 42.601562 144.945312 43.316406 144.011719 43.96875 C 143.542969 44.289062 143.070312 44.59375 142.605469 44.902344 C 142.382812 45.070312 142.183594 45.273438 141.992188 45.484375 L 141.722656 45.828125 C 141.632812 45.941406 141.613281 46.164062 141.875 46.777344 C 142.359375 47.246094 142.5625 47.324219 142.695312 47.292969 L 143.097656 47.203125 C 143.355469 47.132812 143.597656 47.046875 143.824219 46.929688 C 144.285156 46.71875 144.734375 46.488281 145.207031 46.316406 C 146.1875 46.046875 147.167969 45.871094 148.085938 45.683594 C 149.007812 45.527344 149.859375 45.148438 150.761719 44.976562 L 152.113281 44.769531 L 152.8125 44.640625 L 153.171875 44.570312 C 153.289062 44.574219 153.414062 44.425781 153.824219 43.789062 Z M 125.984375 79.132812 C 125.082031 79.148438 124.363281 79.886719 124.378906 80.785156 C 124.402344 82.402344 124.734375 83.6875 125.320312 85.054688 C 125.886719 86.398438 126.871094 87.582031 128.007812 88.515625 C 130.363281 90.402344 133.277344 90.910156 135.894531 90.855469 C 138.570312 90.847656 141.414062 89.976562 143.503906 88.160156 C 144.558594 87.273438 145.367188 86.152344 145.96875 84.972656 C 146.261719 84.378906 146.492188 83.761719 146.664062 83.128906 C 146.839844 82.511719 147.054688 81.84375 146.324219 81.054688 C 145.355469 81.453125 145.199219 81.941406 144.941406 82.460938 C 144.671875 82.957031 144.386719 83.4375 144.078125 83.894531 C 143.476562 84.816406 142.757812 85.628906 141.941406 86.285156 C 140.304688 87.636719 138.144531 88.097656 135.996094 87.859375 C 133.800781 87.632812 131.753906 86.910156 130.320312 85.6875 C 129.582031 85.089844 129.035156 84.316406 128.546875 83.480469 C 128.476562 83.363281 128.421875 83.230469 128.359375 83.101562 C 129.109375 83.277344 129.863281 83.433594 130.632812 83.550781 C 132.371094 83.863281 134.152344 83.933594 135.917969 83.902344 C 137.6875 83.863281 139.445312 83.617188 141.15625 83.1875 C 142.015625 82.984375 142.855469 82.714844 143.683594 82.417969 C 144.507812 82.136719 145.347656 81.707031 145.765625 80.597656 C 144.667969 80.230469 143.910156 80.355469 143.128906 80.570312 C 142.339844 80.746094 141.546875 80.898438 140.746094 80.980469 C 139.140625 81.160156 137.535156 81.210938 135.933594 81.152344 C 134.335938 81.035156 132.738281 80.886719 131.171875 80.542969 C 129.597656 80.238281 128.066406 79.753906 126.550781 79.226562 C 126.378906 79.167969 126.175781 79.132812 125.984375 79.132812 Z M 131.222656 73.109375 L 131.667969 73.132812 C 131.964844 73.128906 132.25 73.105469 132.527344 73.046875 L 134.191406 72.65625 C 135.324219 72.460938 136.492188 72.304688 137.597656 71.898438 C 138.722656 71.539062 139.722656 70.859375 140.714844 70.058594 C 140.960938 69.878906 141.207031 69.640625 141.449219 69.410156 C 141.691406 69.199219 141.921875 68.925781 142.125 68.605469 C 142.335938 68.335938 142.5 67.9375 142.617188 67.53125 C 142.679688 67.347656 142.71875 67.140625 142.707031 66.890625 C 142.730469 66.671875 142.589844 66.371094 141.875 66.230469 C 141.101562 66.355469 140.902344 66.328125 140.871094 66.382812 C 140.835938 66.414062 140.753906 66.457031 140.648438 66.5 L 140.148438 66.75 C 139.820312 66.933594 139.398438 67.175781 138.96875 67.367188 C 138.101562 67.78125 137.078125 68.042969 136.171875 68.5625 C 135.238281 69.035156 134.316406 69.636719 133.347656 70.15625 C 132.859375 70.394531 132.347656 70.585938 131.839844 70.78125 C 131.589844 70.882812 131.34375 71.019531 131.105469 71.167969 L 130.753906 71.414062 C 130.632812 71.496094 130.550781 71.703125 130.585938 72.371094 C 130.886719 72.972656 131.074219 73.101562 131.222656 73.109375 Z M 129.109375 44.628906 C 128.816406 44.402344 128.519531 44.171875 128.203125 43.988281 C 127.578125 43.601562 126.902344 43.316406 126.226562 43.03125 C 124.871094 42.472656 123.445312 41.933594 121.902344 41.890625 C 120.375 41.808594 118.796875 42.019531 117.296875 42.558594 C 116.921875 42.640625 116.554688 42.835938 116.183594 42.96875 C 115.808594 43.089844 115.449219 43.257812 115.109375 43.480469 C 114.773438 43.695312 114.421875 43.886719 114.167969 44.214844 L 113.785156 44.683594 C 113.664062 44.835938 113.617188 45.097656 113.921875 45.683594 C 114.503906 46.0625 114.730469 46.113281 114.882812 46.058594 L 115.324219 45.898438 C 115.585938 45.753906 115.90625 45.71875 116.167969 45.597656 C 116.683594 45.328125 117.289062 45.226562 117.867188 45.136719 C 119.070312 45.03125 120.296875 45.316406 121.507812 45.5 C 122.714844 45.738281 123.992188 45.832031 125.277344 46.09375 L 127.210938 46.507812 C 127.539062 46.566406 127.875 46.621094 128.21875 46.660156 L 128.734375 46.722656 C 128.894531 46.765625 129.117188 46.667969 129.601562 46.082031 C 129.78125 45.34375 129.6875 45.101562 129.539062 44.992188 Z M 91.164062 76.417969 L 94.652344 66.496094 C 94.351562 66.503906 94.042969 66.496094 93.710938 66.460938 C 85.375 65.535156 86.070312 48.859375 91.855469 46.3125 C 97.648438 43.769531 100.195312 53.726562 100.195312 53.726562 C 100.195312 53.726562 100.289062 54.449219 100.339844 55.550781 L 106.675781 44.460938 L 103.683594 33.796875 C 106.550781 34.8125 109.425781 35.726562 112.003906 36.355469 C 119.203125 38.117188 148.359375 39.136719 155.535156 31.265625 C 155.9375 30.824219 156.324219 30.335938 156.699219 29.820312 C 157.550781 32.359375 158.144531 35.179688 158.414062 38.332031 C 158.414062 38.332031 159.21875 45.285156 159.695312 54.535156 C 160.753906 50.992188 161.859375 46.519531 162.714844 41.222656 C 164.054688 32.902344 162.289062 26.46875 160.566406 22.515625 C 164.246094 13.414062 165.957031 2.316406 165.957031 2.316406 C 165.957031 2.316406 156 6.949219 150.441406 6.023438 C 145.179688 5.144531 84.460938 -13.796875 85.535156 20.410156 C 74.492188 39.394531 91.164062 76.417969 91.164062 76.417969 Z M 146.457031 130.757812 C 147.160156 131.984375 148.007812 133.195312 149.152344 134.152344 C 149.710938 134.644531 150.359375 135.039062 151.03125 135.359375 C 151.382812 135.496094 151.726562 135.632812 152.078125 135.746094 C 152.425781 135.847656 152.855469 135.828125 153.382812 135.226562 C 153.300781 134.394531 153.121094 134.144531 152.867188 134.015625 L 152.203125 133.476562 C 151.789062 133.089844 151.417969 132.679688 151.058594 132.253906 C 150.375 131.367188 149.785156 130.382812 149.316406 129.304688 C 148.359375 127.148438 147.929688 124.71875 147.371094 122.308594 C 146.871094 119.882812 146.386719 117.386719 146.109375 114.851562 C 145.984375 113.578125 145.949219 112.304688 145.914062 111.027344 C 145.890625 110.390625 145.867188 109.75 145.808594 109.109375 L 145.707031 108.144531 C 145.679688 107.824219 145.527344 107.5 144.890625 107.128906 C 144.207031 107.402344 144.019531 107.726562 143.953125 108.050781 L 143.765625 109.03125 C 143.652344 109.683594 143.605469 110.34375 143.5625 111 C 143.492188 112.3125 143.492188 113.632812 143.472656 114.953125 C 143.398438 117.597656 143.390625 120.277344 143.796875 122.953125 C 144.183594 125.632812 145.0625 128.277344 146.457031 130.757812 Z M 80.695312 129.976562 C 81.195312 129.574219 81.730469 129.1875 82.167969 128.730469 C 83.117188 127.859375 83.890625 126.84375 84.617188 125.8125 C 85.34375 124.78125 85.980469 123.691406 86.535156 122.574219 C 87.167969 121.484375 87.632812 120.328125 88.140625 119.191406 C 90.128906 114.625 91.496094 109.828125 92.390625 104.972656 C 92.601562 103.757812 92.722656 102.535156 92.894531 101.3125 C 93.039062 100.09375 93.257812 98.871094 93.273438 97.644531 C 93.359375 95.191406 93.582031 92.742188 93.542969 90.296875 C 93.507812 87.851562 93.597656 85.402344 93.410156 82.96875 C 93.339844 81.75 93.203125 80.53125 93.082031 79.316406 L 92.902344 77.496094 C 92.855469 76.890625 92.675781 76.285156 91.914062 75.714844 C 91.175781 76.347656 91.019531 76.953125 91 77.558594 L 90.894531 79.367188 C 90.824219 80.574219 90.734375 81.777344 90.714844 82.980469 C 90.625 85.382812 90.445312 87.777344 90.339844 90.171875 C 90.019531 94.953125 89.433594 99.6875 88.804688 104.394531 C 88.074219 109.078125 87.246094 113.761719 85.691406 118.214844 C 84.886719 120.421875 83.894531 122.5625 82.65625 124.519531 C 82.382812 125.039062 82.019531 125.480469 81.699219 125.960938 C 81.378906 126.445312 81.035156 126.898438 80.671875 127.339844 C 80.332031 127.8125 79.941406 128.210938 79.554688 128.636719 C 79.144531 129.03125 78.855469 129.484375 78.644531 130.351562 C 79.503906 130.644531 80.175781 130.347656 80.695312 129.976562 Z M 236.296875 215.554688 C 237.425781 214.429688 238.636719 213.398438 239.804688 212.3125 L 243.34375 209.097656 C 244.523438 208.023438 245.640625 206.878906 246.386719 205.242188 C 244.695312 205.6875 243.378906 206.625 242.125 207.636719 L 238.359375 210.671875 C 237.113281 211.691406 235.820312 212.671875 234.609375 213.734375 L 231.101562 217.066406 C 228.796875 219.320312 226.375 221.46875 224.171875 223.828125 L 217.6875 231.019531 C 212.375 237.230469 207.265625 243.644531 202.546875 250.328125 C 202.6875 249.554688 202.816406 248.777344 202.902344 248.003906 C 203.242188 245.628906 203.414062 243.253906 203.605469 240.878906 C 203.988281 236.128906 204.269531 231.382812 204.316406 226.628906 C 204.371094 221.878906 204.191406 217.128906 204.070312 212.378906 L 203.996094 205.261719 C 203.96875 204.074219 203.945312 202.886719 203.863281 201.699219 L 203.726562 199.921875 C 203.679688 199.328125 203.515625 198.734375 202.851562 198.140625 C 202.191406 198.730469 202.019531 199.324219 201.96875 199.914062 L 201.820312 201.691406 C 201.730469 202.875 201.6875 204.058594 201.644531 205.242188 L 201.433594 212.347656 C 201.195312 217.082031 200.871094 221.8125 200.683594 226.539062 C 200.488281 231.269531 200.496094 236 200.402344 240.722656 L 200.21875 247.789062 L 200.136719 251.308594 C 200.109375 251.886719 200.125 252.492188 200.058594 253.054688 C 200.027344 253.316406 200.03125 253.582031 200.101562 253.867188 C 198.265625 256.59375 196.492188 259.363281 194.804688 262.1875 C 188.128906 273.222656 182.148438 284.65625 176.921875 296.421875 C 174.285156 302.289062 171.738281 308.199219 169.449219 314.210938 L 167.75 318.726562 C 167.207031 320.242188 166.71875 321.777344 166.203125 323.300781 C 165.679688 324.820312 165.226562 326.367188 164.742188 327.898438 C 164.269531 329.433594 163.933594 331.027344 164.105469 332.753906 C 165.210938 331.414062 165.839844 329.949219 166.40625 328.457031 C 166.96875 326.960938 167.496094 325.457031 168.097656 323.976562 C 169.261719 321 170.429688 318.03125 171.636719 315.074219 C 172.800781 312.101562 174.117188 309.1875 175.347656 306.246094 C 176.617188 303.316406 177.992188 300.433594 179.3125 297.527344 C 184.882812 286.035156 191.09375 274.875 197.886719 264.101562 L 203.039062 256.058594 C 204.878906 253.464844 206.703125 250.859375 208.5 248.226562 C 210.242188 245.558594 212.273438 243.105469 214.1875 240.566406 C 216.15625 238.066406 217.980469 235.445312 220.128906 233.097656 L 226.367188 225.875 C 228.503906 223.519531 230.78125 221.296875 232.980469 218.992188 Z M 223.191406 372.960938 L 222.039062 373.445312 C 218.902344 374.558594 215.984375 376.628906 213.871094 379.304688 C 211.730469 381.980469 210.488281 385.226562 209.863281 388.4375 C 209.554688 390.050781 209.277344 391.660156 209.21875 393.289062 C 209.175781 394.101562 209.191406 394.914062 209.273438 395.722656 C 209.308594 396.128906 209.390625 396.53125 209.445312 396.933594 C 209.515625 397.332031 209.714844 397.738281 210.417969 398.054688 C 211.03125 397.59375 211.175781 397.222656 211.203125 396.84375 L 211.316406 395.714844 L 211.5625 393.472656 C 211.71875 391.980469 212.007812 390.515625 212.421875 389.09375 C 213.324219 386.261719 214.824219 383.726562 216.679688 381.605469 C 218.578125 379.558594 220.664062 377.566406 223.347656 376.371094 L 224.3125 375.855469 L 225.351562 375.484375 C 226.050781 375.25 226.734375 374.960938 227.429688 374.6875 C 228.128906 374.429688 228.875 374.285156 229.597656 374.054688 L 230.691406 373.714844 C 231.0625 373.617188 231.410156 373.394531 231.71875 372.582031 C 231.257812 371.898438 230.835938 371.796875 230.4375 371.824219 L 229.222656 371.863281 C 228.414062 371.921875 227.585938 371.894531 226.789062 372.074219 C 225.992188 372.257812 225.183594 372.421875 224.390625 372.640625 Z M 413.21875 407.609375 L 411.878906 408.144531 L 409.222656 409.222656 C 407.40625 409.816406 405.683594 410.617188 403.875 411.171875 C 402.0625 411.71875 400.277344 412.335938 398.433594 412.703125 C 397.511719 412.882812 396.617188 413.183594 395.695312 413.351562 L 392.9375 413.886719 C 389.257812 414.507812 385.519531 414.972656 381.757812 414.820312 C 379.878906 414.734375 378.015625 414.476562 376.183594 414.082031 C 375.261719 413.90625 374.355469 413.671875 373.445312 413.457031 C 372.988281 413.34375 372.523438 413.25 372.082031 413.109375 C 371.625 412.984375 371.152344 412.964844 370.425781 413.335938 C 370.558594 414.148438 370.976562 414.519531 371.421875 414.742188 C 371.871094 414.984375 372.328125 415.1875 372.785156 415.394531 C 373.710938 415.792969 374.664062 416.109375 375.632812 416.367188 C 376.597656 416.644531 377.578125 416.84375 378.5625 417.003906 C 379.542969 417.214844 380.53125 417.328125 381.527344 417.449219 C 385.488281 417.976562 389.535156 418.007812 393.507812 417.472656 C 397.484375 416.902344 401.320312 415.683594 404.988281 414.179688 C 406.839844 413.457031 408.601562 412.535156 410.367188 411.65625 C 411.238281 411.199219 412.050781 410.617188 412.882812 410.09375 L 414.121094 409.285156 C 414.542969 409.03125 414.898438 408.65625 414.960938 407.777344 C 414.164062 407.347656 413.660156 407.417969 413.21875 407.609375 Z M 102.148438 452.710938 L 100.125 452.128906 C 98.792969 451.710938 97.421875 451.429688 96.121094 450.929688 C 94.828125 450.429688 93.542969 449.90625 92.242188 449.441406 C 91.59375 449.195312 90.941406 448.976562 90.300781 448.714844 L 88.472656 447.761719 L 84.820312 445.855469 L 81.449219 443.523438 C 80.289062 442.796875 79.296875 441.859375 78.257812 440.984375 C 77.230469 440.09375 76.144531 439.265625 75.269531 438.21875 C 71.363281 434.425781 68.253906 429.796875 65.984375 424.761719 C 65.449219 423.488281 64.992188 422.183594 64.492188 420.890625 C 64.128906 419.554688 63.703125 418.230469 63.382812 416.882812 C 63.058594 415.535156 62.757812 414.179688 62.484375 412.816406 C 62.324219 412.136719 62.242188 411.445312 62.125 410.761719 C 62.015625 410.066406 61.8125 409.40625 61.136719 408.707031 C 60.488281 409.425781 60.351562 410.183594 60.378906 410.902344 C 60.410156 411.628906 60.410156 412.359375 60.488281 413.078125 C 60.5625 413.800781 60.59375 414.53125 60.707031 415.246094 L 61.089844 417.394531 C 61.332031 418.828125 61.789062 420.210938 62.132812 421.625 C 62.601562 423 63.03125 424.394531 63.539062 425.757812 C 64.109375 427.101562 64.628906 428.472656 65.242188 429.796875 L 67.300781 433.691406 L 69.796875 437.339844 C 70.660156 438.535156 71.699219 439.59375 72.648438 440.726562 C 73.582031 441.886719 74.765625 442.789062 75.871094 443.765625 C 76.988281 444.734375 78.078125 445.746094 79.382812 446.464844 L 83.125 448.8125 L 87.117188 450.664062 L 89.113281 451.582031 C 89.800781 451.824219 90.5 452.027344 91.195312 452.253906 C 92.582031 452.703125 93.984375 453.101562 95.371094 453.515625 C 96.757812 453.949219 98.230469 454.019531 99.652344 454.269531 L 101.792969 454.582031 C 102.503906 454.699219 103.242188 454.683594 104.054688 454.09375 C 103.476562 453.203125 102.828125 452.890625 102.148438 452.710938 Z M 280.144531 427.796875 C 280.09375 423.84375 280.28125 419.839844 280.652344 415.914062 C 280.667969 415.746094 280.648438 415.566406 280.589844 415.398438 L 280.574219 415.359375 C 278.839844 410.550781 275.328125 406.175781 270.679688 403.734375 C 266.0625 401.234375 260.835938 400.46875 255.820312 400.425781 C 250.773438 400.402344 245.808594 401.113281 240.953125 402.101562 C 238.523438 402.59375 236.121094 403.175781 233.75 403.757812 C 232.578125 404.035156 231.367188 404.34375 230.308594 404.519531 C 229.792969 404.589844 229.335938 404.53125 228.84375 404.566406 L 227.140625 404.378906 C 222.5 403.714844 217.726562 402.488281 213.023438 401.308594 L 198.882812 397.585938 L 170.613281 389.855469 L 142.316406 382.15625 C 137.574219 380.925781 132.929688 379.523438 128.050781 378.53125 L 124.433594 377.722656 L 122.625 377.316406 L 120.78125 377.074219 L 113.414062 376.101562 C 103.566406 375.316406 93.3125 376.054688 84.054688 380.007812 C 79.367188 381.777344 75.125 384.621094 71.382812 387.90625 C 70.441406 388.730469 69.519531 389.578125 68.703125 390.523438 L 67.429688 391.898438 C 67.03125 392.382812 66.652344 392.878906 66.269531 393.371094 C 64.761719 395.347656 63.488281 397.578125 62.988281 400.058594 C 66.132812 396.238281 68.957031 392.453125 72.671875 389.390625 L 74.035156 388.230469 L 75.507812 387.210938 C 76.511719 386.566406 77.421875 385.785156 78.503906 385.269531 L 81.632812 383.542969 C 82.714844 383.039062 83.832031 382.613281 84.925781 382.144531 C 93.789062 378.519531 103.628906 377.824219 113.1875 378.679688 L 120.34375 379.699219 L 122.128906 379.96875 L 123.890625 380.394531 L 127.410156 381.25 C 132.101562 382.285156 136.800781 383.785156 141.496094 385.101562 L 169.675781 393.203125 C 179.066406 395.917969 188.480469 398.570312 197.929688 401.121094 C 202.652344 402.40625 207.382812 403.660156 212.160156 404.804688 C 216.945312 405.941406 221.675781 407.113281 226.722656 407.78125 L 228.664062 407.972656 C 229.390625 407.949219 230.167969 407.972656 230.855469 407.863281 C 232.203125 407.617188 233.359375 407.296875 234.5625 406.996094 C 236.929688 406.386719 239.269531 405.785156 241.625 405.277344 C 246.328125 404.257812 251.085938 403.527344 255.820312 403.488281 C 260.535156 403.460938 265.28125 404.15625 269.355469 406.238281 C 273.394531 408.246094 276.398438 411.835938 278.171875 416.042969 C 277.949219 420 277.910156 423.917969 278.105469 427.867188 C 278.214844 429.894531 278.371094 431.933594 278.742188 433.957031 C 279.136719 435.941406 279.792969 438.054688 281.273438 439.582031 C 280.835938 437.558594 280.683594 435.664062 280.5 433.699219 C 280.316406 431.746094 280.160156 429.78125 280.144531 427.796875 Z M 157.480469 341.929688 C 157.757812 344.851562 157.929688 347.773438 158.554688 350.636719 C 158.949219 353.53125 159.707031 356.351562 160.453125 359.164062 C 160.773438 360.589844 161.34375 361.933594 161.902344 363.277344 L 162.734375 365.296875 C 163.011719 365.964844 163.410156 366.59375 164.257812 367.023438 C 164.640625 366.101562 164.570312 365.378906 164.382812 364.691406 L 163.8125 362.644531 C 163.460938 361.269531 162.96875 359.945312 162.722656 358.550781 L 161.785156 354.429688 C 161.429688 353.066406 161.382812 351.644531 161.164062 350.257812 C 160.476562 344.671875 160.589844 339.023438 161.222656 333.476562 C 161.789062 327.921875 162.800781 322.390625 164.4375 317.015625 C 164.835938 315.671875 165.320312 314.351562 165.761719 313.015625 C 166.273438 311.707031 166.738281 310.375 167.269531 309.070312 C 167.832031 307.785156 168.324219 306.457031 168.921875 305.179688 C 169.195312 304.527344 169.511719 303.898438 169.820312 303.265625 C 170.140625 302.632812 170.359375 301.96875 170.125 300.953125 C 169.109375 301.140625 168.5625 301.6875 168.179688 302.304688 C 167.773438 302.910156 167.359375 303.519531 166.988281 304.144531 C 166.203125 305.378906 165.484375 306.648438 164.820312 307.949219 C 164.171875 309.257812 163.542969 310.578125 162.96875 311.921875 C 162.445312 313.28125 161.875 314.632812 161.390625 316.011719 C 159.40625 321.511719 158.046875 327.277344 157.609375 333.136719 L 157.441406 335.332031 L 157.429688 337.535156 C 157.449219 339.003906 157.382812 340.46875 157.480469 341.929688 Z M 299.332031 344.9375 L 296.988281 342.546875 L 294.792969 340.011719 L 290.382812 334.976562 L 286.277344 329.691406 C 280.921875 322.5625 276.09375 315.042969 271.796875 307.222656 C 267.40625 299.457031 263.476562 291.402344 260.078125 283.113281 L 257.726562 276.820312 C 257.011719 274.699219 256.257812 272.589844 255.578125 270.453125 L 253.5625 264.042969 C 253.21875 262.976562 252.921875 261.898438 252.613281 260.820312 C 252.289062 259.746094 251.898438 258.699219 251.015625 257.726562 C 250.59375 258.964844 250.679688 260.121094 250.90625 261.230469 C 251.136719 262.339844 251.355469 263.457031 251.621094 264.558594 C 252.09375 266.78125 252.703125 268.964844 253.332031 271.144531 C 253.9375 273.328125 254.6875 275.472656 255.355469 277.636719 L 257.613281 284.054688 C 258.964844 287.839844 260.441406 291.574219 262.035156 295.269531 C 262.019531 295.253906 262.003906 295.242188 261.988281 295.226562 C 260.59375 294.140625 259.320312 292.917969 258.019531 291.738281 C 255.511719 289.273438 253.074219 286.742188 250.984375 283.914062 C 246.730469 278.316406 243.453125 272.046875 240.707031 265.558594 C 237.964844 259.058594 235.851562 252.25 234.34375 245.289062 C 233.617188 241.804688 233.089844 238.273438 232.679688 234.734375 L 232.09375 229.414062 L 231.855469 226.75 C 231.785156 225.855469 231.597656 224.980469 230.949219 224.074219 C 230.273438 224.96875 230.117188 225.890625 230.097656 226.800781 L 230.085938 229.523438 C 230.078125 231.34375 230.199219 233.15625 230.339844 234.96875 C 230.652344 238.589844 231.152344 242.1875 231.753906 245.777344 C 232.871094 252.96875 234.710938 260.074219 237.34375 266.925781 C 240.054688 273.746094 243.773438 280.214844 248.472656 285.902344 C 250.78125 288.78125 253.421875 291.390625 256.238281 293.757812 C 257.660156 294.929688 259.140625 296.023438 260.699219 297 C 261.460938 297.515625 262.226562 298.011719 263.039062 298.445312 C 263.210938 298.546875 263.390625 298.640625 263.570312 298.726562 C 265.148438 302.1875 266.828125 305.605469 268.617188 308.96875 C 270.753906 312.988281 273.132812 316.878906 275.628906 320.683594 C 276.863281 322.597656 278.273438 324.394531 279.589844 326.253906 L 281.597656 329.015625 C 282.277344 329.925781 283.035156 330.777344 283.753906 331.664062 L 288.101562 336.929688 C 289.65625 338.597656 291.257812 340.21875 292.835938 341.855469 C 293.632812 342.671875 294.40625 343.5 295.226562 344.289062 L 297.8125 346.519531 L 300.398438 348.742188 C 301.246094 349.496094 302.191406 350.148438 303.503906 350.351562 C 303.175781 349.015625 302.472656 348.128906 301.679688 347.339844 Z M 64.332031 208.394531 L 66.039062 208.226562 C 66.609375 208.183594 67.179688 208.007812 67.777344 207.25 C 67.214844 206.507812 66.628906 206.347656 66.046875 206.324219 L 64.292969 206.203125 C 63.121094 206.144531 61.941406 206.007812 60.765625 206.035156 C 58.421875 206.175781 56.050781 206.214844 53.714844 206.589844 C 49.019531 207.195312 44.355469 208.371094 39.960938 210.269531 C 35.605469 212.261719 31.582031 214.945312 28.058594 218.144531 L 26.726562 219.328125 L 25.480469 220.605469 C 24.625 221.429688 23.847656 222.335938 23.09375 223.253906 C 22.363281 224.191406 21.628906 225.132812 21.035156 226.175781 C 20.726562 226.683594 20.4375 227.203125 20.171875 227.742188 C 19.898438 228.269531 19.742188 228.898438 20.074219 229.710938 C 20.925781 229.492188 21.332031 229.113281 21.675781 228.660156 C 21.996094 228.203125 22.359375 227.769531 22.714844 227.339844 C 23.40625 226.460938 24.152344 225.613281 24.886719 224.773438 C 26.402344 223.128906 27.960938 221.507812 29.761719 220.160156 C 33.308594 217.410156 37.300781 215.34375 41.390625 213.609375 C 43.476562 212.816406 45.550781 212.015625 47.710938 211.40625 C 49.824219 210.660156 52.03125 210.242188 54.230469 209.753906 C 55.324219 209.46875 56.449219 209.367188 57.570312 209.214844 C 58.691406 209.078125 59.808594 208.890625 60.933594 208.722656 Z M 32.667969 174.316406 C 33.410156 174.335938 34.15625 174.332031 34.898438 174.390625 C 36.378906 174.441406 37.863281 174.648438 39.3125 174.996094 C 42.210938 175.734375 44.910156 177.03125 47.511719 178.441406 C 50.105469 179.882812 52.628906 181.492188 55.042969 183.3125 C 56.246094 184.230469 57.34375 185.28125 58.5625 186.210938 C 59.117188 186.734375 59.695312 187.238281 60.285156 187.742188 L 61.175781 188.488281 C 61.460938 188.75 61.84375 188.921875 62.679688 188.726562 C 62.992188 187.949219 62.847656 187.546875 62.605469 187.230469 L 61.921875 186.242188 C 61.453125 185.597656 60.988281 184.9375 60.480469 184.320312 C 59.398438 183.140625 58.304688 181.957031 57.117188 180.867188 C 54.710938 178.730469 52.175781 176.617188 49.191406 175.222656 C 46.246094 173.78125 43.050781 172.84375 39.808594 172.40625 C 39 172.296875 38.195312 172.15625 37.375 172.128906 C 36.5625 172.050781 35.746094 171.996094 34.925781 172.035156 C 34.105469 172.046875 33.285156 172.125 32.476562 172.28125 C 32.070312 172.367188 31.671875 172.449219 31.269531 172.574219 C 30.878906 172.679688 30.472656 172.933594 30.261719 173.671875 C 30.804688 174.214844 31.171875 174.316406 31.550781 174.308594 C 31.917969 174.289062 32.296875 174.3125 32.667969 174.316406 Z M 211.460938 186.976562 L 209.019531 187.246094 C 206.089844 187.566406 203.730469 185.136719 203.902344 182.386719 C 203.789062 182.382812 203.675781 182.378906 203.5625 182.375 L 203.546875 182.371094 C 203.332031 182.367188 203.121094 182.316406 202.933594 182.238281 C 201.109375 181.472656 199.507812 180.59375 197.910156 179.53125 C 196.332031 178.480469 194.808594 177.292969 193.457031 175.832031 C 192.347656 174.601562 191.328125 173.117188 190.792969 171.367188 C 190.683594 171.527344 190.574219 171.691406 190.449219 171.847656 C 189.730469 172.734375 188.84375 173.460938 187.902344 173.996094 C 187.113281 174.464844 186.292969 174.796875 185.46875 175.074219 C 185.058594 175.601562 184.652344 176.125 184.242188 176.652344 C 184.777344 176.9375 185.019531 177.328125 185.164062 177.742188 L 185.722656 179.289062 C 186.078125 180.328125 186.429688 181.371094 186.683594 182.441406 C 187.246094 184.5625 187.625 186.734375 187.910156 188.925781 C 188.484375 193.296875 188.609375 197.828125 187.652344 202.285156 C 187.113281 204.953125 186.101562 207.574219 184.679688 209.949219 C 185.242188 209.457031 185.851562 209.035156 186.429688 208.558594 C 187.664062 207.589844 188.851562 206.558594 190.0625 205.566406 C 192.460938 203.558594 194.816406 201.496094 197.003906 199.296875 C 198.117188 198.164062 199.042969 197.070312 200.183594 195.824219 C 201.292969 194.609375 202.496094 193.449219 203.828125 192.429688 C 205.152344 191.402344 206.597656 190.492188 208.171875 189.792969 C 209.289062 189.324219 210.363281 188.925781 211.605469 188.695312 Z M 158.902344 187.683594 C 161.710938 182.574219 164.351562 177.363281 167.117188 172.21875 L 171.257812 164.5 C 172.273438 162.878906 173.457031 162 174.546875 160.941406 C 175.664062 159.949219 176.796875 158.992188 177.933594 158.0625 C 182.5625 154.429688 187.285156 151.019531 192.074219 147.65625 L 192.109375 147.632812 C 192.28125 147.515625 192.476562 147.433594 192.671875 147.398438 C 195.609375 146.84375 198.566406 146.359375 201.519531 145.863281 L 205.964844 145.210938 C 207.046875 145.109375 208.078125 144.765625 209.210938 144.914062 C 208.210938 143.648438 207.417969 141.960938 207.339844 140.132812 C 207.300781 139.207031 207.410156 138.222656 207.867188 137.246094 C 208.304688 136.292969 209.210938 135.269531 210.476562 134.925781 C 211.097656 134.769531 211.683594 134.679688 212.296875 134.851562 C 212.605469 134.925781 212.910156 135.019531 213.203125 135.128906 C 213.417969 135.226562 213.5625 135.308594 213.746094 135.402344 C 214.472656 135.757812 215.078125 136.136719 215.695312 136.507812 C 216.65625 137.101562 217.578125 137.707031 218.496094 138.320312 L 218.835938 137.308594 L 218.679688 137.152344 C 217.382812 135.765625 216.28125 134.183594 215.648438 132.277344 C 215.34375 131.328125 215.175781 130.277344 215.328125 129.214844 C 215.378906 128.933594 215.46875 128.628906 215.550781 128.347656 C 215.699219 128.0625 215.84375 127.761719 216.058594 127.519531 C 216.496094 127.03125 217.078125 126.699219 217.621094 126.570312 C 219.367188 126.175781 220.882812 126.585938 222.15625 127.386719 L 234.449219 90.675781 C 235.039062 88.910156 236.632812 87.675781 238.488281 87.539062 L 282.195312 84.320312 C 285.429688 84.085938 287.894531 87.167969 286.949219 90.273438 L 274.089844 132.4375 L 270.46875 143.800781 L 263.210938 124.195312 L 255.496094 105.035156 C 254.554688 102.703125 251.5 102.121094 249.796875 103.96875 C 248.597656 105.261719 247.71875 107.398438 248.085938 110.921875 C 249.011719 119.871094 252.714844 145.34375 252.714844 145.34375 C 252.714844 145.34375 224.773438 129.597656 222.304688 128.519531 C 222.152344 128.453125 221.996094 128.394531 221.835938 128.347656 L 221.921875 128.082031 C 220.492188 128.074219 219.15625 127.964844 218.136719 128.273438 C 217.53125 128.507812 217.289062 128.792969 217.234375 129.4375 C 217.167969 130.144531 217.316406 130.882812 217.59375 131.601562 C 218.15625 133.042969 219.179688 134.398438 220.3125 135.574219 L 224.144531 139.179688 L 239.617188 153.769531 C 240.167969 154.289062 240.195312 155.160156 239.671875 155.710938 C 239.585938 155.804688 239.476562 155.867188 239.371094 155.933594 C 239.410156 155.972656 239.4375 155.996094 239.4375 155.996094 C 239.4375 155.996094 239.40625 155.972656 239.363281 155.9375 C 238.902344 156.210938 238.320312 156.203125 237.875 155.882812 L 237.847656 155.863281 C 233.347656 152.628906 228.808594 149.425781 224.242188 146.296875 C 221.964844 144.722656 219.675781 143.171875 217.367188 141.675781 C 216.21875 140.925781 215.054688 140.191406 213.902344 139.515625 C 213.320312 139.179688 212.738281 138.839844 212.210938 138.597656 L 211.820312 138.402344 C 211.78125 138.410156 211.757812 138.398438 211.734375 138.371094 C 211.695312 138.289062 211.546875 138.359375 211.511719 138.359375 C 211.351562 138.332031 210.914062 139.003906 210.980469 139.953125 C 211.03125 140.894531 211.425781 141.847656 212.140625 142.726562 C 213.738281 144.675781 215.765625 146.71875 217.660156 148.675781 C 221.496094 152.65625 225.410156 156.597656 229.339844 160.503906 L 229.378906 160.539062 C 230.03125 161.1875 230.035156 162.242188 229.386719 162.894531 C 229.09375 163.1875 228.71875 163.351562 228.335938 163.382812 C 226.15625 163.554688 224.042969 163.640625 221.851562 163.59375 C 220.761719 163.566406 219.660156 163.503906 218.519531 163.339844 C 217.945312 163.257812 217.371094 163.15625 216.734375 162.953125 C 216.4375 162.875 216.097656 162.734375 215.746094 162.558594 C 215.367188 162.386719 215.191406 162.21875 214.90625 162.046875 C 213.074219 160.691406 211.636719 159.386719 210.0625 158.976562 C 209.300781 158.773438 208.570312 158.789062 207.824219 159.035156 C 207.339844 159.183594 206.871094 159.476562 206.40625 159.8125 C 206.96875 161.011719 207.609375 162.207031 208.304688 163.304688 C 208.746094 164 209.222656 164.667969 209.738281 165.203125 C 209.988281 165.476562 210.261719 165.703125 210.5 165.84375 C 210.773438 166.019531 211.296875 166.273438 211.652344 166.492188 C 213.21875 167.40625 214.695312 168.367188 216.175781 169.339844 C 217.597656 170.261719 218.972656 171.253906 220 172.773438 L 227.707031 174.367188 C 227.707031 174.367188 230.527344 179.195312 234.320312 184.480469 L 214.796875 186.613281 L 214.96875 190.007812 C 215.015625 190.910156 214.324219 191.683594 213.421875 191.730469 C 213.371094 191.734375 213.316406 191.734375 213.269531 191.730469 C 212.835938 191.71875 212.023438 191.8125 211.382812 191.953125 C 210.699219 192.113281 210.015625 192.316406 209.34375 192.585938 C 208 193.109375 206.710938 193.835938 205.496094 194.6875 C 202.996094 196.324219 201.128906 198.757812 198.75 201.050781 C 196.453125 203.316406 193.996094 205.382812 191.460938 207.324219 C 190.1875 208.289062 188.867188 209.195312 187.542969 210.085938 C 186.246094 210.910156 185.0625 211.933594 183.28125 212.019531 C 182.671875 212.820312 182.019531 213.589844 181.304688 214.300781 C 179.699219 215.949219 177.792969 217.277344 175.785156 218.316406 L 174.242188 219.03125 L 172.632812 219.546875 C 172.101562 219.726562 171.550781 219.835938 171 219.929688 C 170.453125 220.03125 169.867188 220.019531 169.199219 219.519531 C 169.566406 218.730469 170.011719 218.429688 170.503906 218.242188 C 170.992188 218.066406 171.472656 217.867188 171.933594 217.625 C 172.402344 217.410156 172.863281 217.183594 173.335938 216.984375 L 174.675781 216.242188 C 176.425781 215.222656 178.078125 214.03125 179.378906 212.496094 C 181.972656 209.417969 183.40625 205.566406 184.089844 201.574219 C 184.804688 197.585938 184.984375 193.417969 184.71875 189.238281 C 184.589844 187.148438 184.316406 185.0625 184.042969 182.96875 L 183.59375 179.820312 L 183.332031 178.253906 C 183.304688 178.121094 183.28125 177.984375 183.277344 177.847656 C 183.128906 178.03125 182.984375 178.222656 182.828125 178.402344 C 182.320312 179.027344 181.792969 179.636719 181.242188 180.234375 L 180.410156 181.117188 C 180.148438 181.429688 179.824219 181.6875 178.925781 181.546875 C 178.488281 180.746094 178.625 180.351562 178.828125 180.003906 L 179.382812 178.921875 C 179.761719 178.203125 180.15625 177.5 180.578125 176.8125 C 181.378906 175.414062 182.289062 174.089844 183.140625 172.726562 C 183.289062 172.488281 183.503906 172.3125 183.742188 172.210938 L 183.964844 172.113281 C 184.699219 171.796875 185.410156 171.460938 186.011719 171.023438 C 186.636719 170.605469 187.105469 170.074219 187.550781 169.5625 C 187.96875 169.019531 188.289062 168.425781 188.511719 167.773438 C 188.566406 167.636719 188.609375 167.480469 188.648438 167.324219 C 186.851562 167.378906 185.054688 167.40625 183.269531 167.523438 C 182.042969 167.589844 180.816406 167.714844 179.589844 167.746094 C 178.976562 167.78125 178.363281 167.773438 177.75 167.761719 C 177.136719 167.675781 176.523438 167.992188 175.914062 166.957031 C 176.519531 165.804688 177.121094 166.011719 177.726562 165.808594 C 178.328125 165.675781 178.929688 165.554688 179.53125 165.472656 C 180.734375 165.273438 181.941406 165.167969 183.144531 165.003906 C 185.554688 164.695312 187.945312 164.234375 190.335938 163.882812 C 190.863281 163.808594 191.367188 163.996094 191.714844 164.351562 C 191.761719 164.269531 191.804688 164.183594 191.851562 164.105469 C 194.015625 160.621094 197.203125 158.453125 200.363281 156.582031 C 201.976562 155.6875 203.640625 154.90625 205.320312 154.191406 C 207.027344 153.582031 208.589844 152.488281 210.726562 153.0625 C 209.492188 154.859375 207.75 155.167969 206.226562 156.101562 C 204.671875 156.933594 203.171875 157.84375 201.71875 158.796875 C 198.855469 160.710938 196.09375 162.945312 194.527344 165.65625 C 193.789062 167.035156 193.457031 168.390625 193.746094 169.710938 C 194.019531 171.035156 194.871094 172.328125 195.96875 173.472656 C 198.148438 175.679688 201.148438 177.386719 204.058594 178.722656 C 204.355469 178.734375 204.65625 178.746094 204.953125 178.757812 L 208.734375 167.472656 C 208.492188 167.296875 208.273438 167.117188 208.074219 166.929688 C 207.324219 166.238281 206.734375 165.492188 206.183594 164.734375 C 205.117188 163.195312 204.25 161.628906 203.445312 159.945312 C 203.183594 159.402344 203.335938 158.769531 203.761719 158.390625 C 204.644531 157.605469 205.585938 156.808594 206.835938 156.34375 C 208.0625 155.859375 209.519531 155.769531 210.789062 156.101562 C 211.347656 156.246094 211.863281 156.445312 212.351562 156.667969 L 214.390625 150.578125 C 212.925781 149.058594 211.480469 147.566406 210.03125 145.882812 C 208.914062 146.828125 207.609375 146.867188 206.378906 147.253906 L 202.023438 148.375 C 199.230469 149.035156 196.4375 149.703125 193.636719 150.3125 C 189.105469 153.761719 184.59375 157.277344 180.257812 160.910156 C 179.140625 161.816406 178.046875 162.734375 176.984375 163.671875 C 175.972656 164.601562 174.84375 165.585938 174.3125 166.441406 L 169.917969 173.953125 C 166.992188 178.964844 163.941406 183.902344 161.058594 188.945312 L 156.695312 196.488281 C 155.972656 197.746094 155.171875 198.964844 154.410156 200.203125 C 153.601562 201.414062 153.082031 202.785156 151.445312 203.542969 C 151.230469 201.761719 152.136719 200.597656 152.75 199.269531 C 153.410156 197.972656 154.03125 196.648438 154.730469 195.371094 Z M 78.777344 140.746094 C 79.820312 142.074219 80.964844 143.308594 82.078125 144.570312 C 83.261719 145.761719 84.394531 147.007812 85.625 148.144531 C 95.300781 157.382812 106.773438 165.070312 119.925781 168.894531 L 124.933594 170.019531 L 130.054688 170.628906 L 135.238281 170.644531 L 137.878906 170.34375 C 138.75 170.148438 139.625 169.980469 140.484375 169.757812 C 143.925781 168.796875 147.148438 167.019531 149.804688 164.667969 C 152.484375 162.328125 154.578125 159.441406 156.171875 156.367188 C 159.359375 150.199219 160.816406 143.367188 160.9375 136.589844 C 161.011719 133.191406 160.726562 129.785156 159.972656 126.457031 C 159.617188 124.789062 159.109375 123.144531 158.441406 121.550781 C 157.789062 119.980469 156.785156 118.367188 155.074219 117.636719 C 155.609375 119.347656 156.125 120.742188 156.671875 122.242188 C 157.195312 123.734375 157.582031 125.289062 157.820312 126.871094 C 158.351562 130.035156 158.398438 133.28125 158.246094 136.488281 C 157.867188 142.898438 156.371094 149.3125 153.347656 154.851562 C 150.402344 160.414062 145.476562 164.777344 139.550781 166.285156 C 138.808594 166.464844 138.054688 166.589844 137.308594 166.746094 L 135.019531 166.976562 L 130.28125 166.972656 L 125.550781 166.417969 L 120.871094 165.390625 C 114.671875 163.769531 108.722656 161.078125 103.132812 157.789062 C 97.527344 154.511719 92.253906 150.613281 87.433594 146.226562 C 86.222656 145.140625 85.113281 143.945312 83.949219 142.808594 C 82.863281 141.605469 81.734375 140.425781 80.71875 139.171875 C 78.644531 136.675781 76.816406 134.023438 75.613281 131.152344 C 74.4375 128.253906 73.910156 125.105469 74.328125 122.011719 C 74.53125 120.472656 74.941406 118.945312 75.574219 117.503906 C 76.210938 116.054688 76.886719 114.660156 77.5 113.003906 C 75.878906 113.78125 74.765625 115.222656 73.984375 116.753906 C 73.207031 118.304688 72.660156 119.976562 72.339844 121.695312 C 71.652344 125.152344 72.175781 128.769531 73.421875 132.003906 C 74.691406 135.269531 76.671875 138.132812 78.777344 140.746094 Z M 106.816406 92.699219 C 110.101562 95.804688 113.828125 98.390625 117.871094 100.316406 C 118.832031 100.90625 119.917969 101.226562 120.949219 101.675781 C 121.984375 102.113281 123.015625 102.574219 124.117188 102.835938 L 127.382812 103.792969 L 130.75 104.363281 L 132.441406 104.617188 L 134.160156 104.683594 C 135.304688 104.714844 136.449219 104.71875 137.597656 104.773438 C 138.75 104.828125 139.894531 104.644531 141.050781 104.644531 L 142.789062 104.609375 C 143.375 104.597656 143.96875 104.707031 144.652344 105.300781 C 144.171875 106.015625 143.597656 106.246094 143.011719 106.351562 L 141.246094 106.679688 C 140.0625 106.851562 138.882812 107.109375 137.679688 107.125 C 136.480469 107.160156 135.277344 107.144531 134.074219 107.152344 L 132.265625 107.164062 L 130.464844 106.984375 L 126.84375 106.671875 L 123.265625 105.933594 C 122.054688 105.734375 120.898438 105.332031 119.742188 104.929688 C 118.597656 104.496094 117.394531 104.1875 116.3125 103.597656 C 111.796875 101.621094 107.851562 98.507812 104.53125 94.949219 C 103.683594 94.074219 102.945312 93.101562 102.148438 92.183594 C 101.40625 91.21875 100.714844 90.21875 100.058594 89.199219 C 99.410156 88.171875 98.828125 87.109375 98.3125 86.011719 C 98.035156 85.472656 97.804688 84.90625 97.5625 84.355469 C 97.304688 83.8125 97.195312 83.164062 97.648438 82.328125 C 98.574219 82.570312 98.949219 82.992188 99.253906 83.480469 C 99.566406 83.964844 99.863281 84.449219 100.207031 84.910156 C 100.851562 85.855469 101.589844 86.734375 102.261719 87.648438 C 102.964844 88.546875 103.730469 89.390625 104.453125 90.261719 C 105.246094 91.070312 105.980469 91.9375 106.816406 92.699219"/></g><g id="change3_1" clip-path="url(#a)"><path fill="#f1e510" d="M 248.085938 110.921875 C 247.71875 107.398438 248.597656 105.261719 249.796875 103.96875 C 251.5 102.121094 254.554688 102.703125 255.496094 105.035156 L 263.210938 124.195312 L 270.46875 143.800781 L 277.261719 122.496094 C 277.261719 122.496094 277.308594 122.574219 277.390625 122.710938 L 286.109375 93.273438 C 286.960938 90.484375 284.742188 89.152344 281.835938 89.367188 L 242.542969 92.257812 C 240.875 92.382812 239.445312 93.492188 238.914062 95.078125 L 226.253906 130.597656 C 234.597656 135.136719 252.714844 145.34375 252.714844 145.34375 C 252.714844 145.34375 249.011719 119.871094 248.085938 110.921875 Z M 228.476562 161.863281 C 224.441406 158.566406 221.09375 155.484375 218.382812 152.683594 L 215.511719 160.738281 C 216.328125 161.226562 217.09375 161.59375 217.671875 161.710938 C 219.988281 162.171875 228.476562 161.863281 228.476562 161.863281 Z M 223.070312 139.523438 L 221.894531 142.828125 C 230.070312 148.457031 239.4375 155.996094 239.4375 155.996094 C 239.4375 155.996094 229.789062 146.683594 223.070312 139.523438 Z M 213.195312 186.871094 L 234.6875 184.984375 C 230.714844 179.507812 227.707031 174.367188 227.707031 174.367188 L 218.753906 172.515625 C 218.753906 172.515625 215.839844 171.082031 212.691406 168.644531 L 207.34375 183.652344 C 206.382812 186.523438 210.183594 187.199219 213.195312 186.871094 Z M 177.570312 283.925781 C 177.144531 284.164062 134.515625 308.066406 110.6875 325.734375 C 69.414062 356.335938 36.15625 343.25 35.824219 343.113281 C 34.894531 342.730469 33.832031 343.175781 33.449219 344.105469 C 33.066406 345.035156 33.507812 346.097656 34.433594 346.480469 C 35.097656 346.753906 42.773438 349.808594 55.125 349.808594 C 69.363281 349.808594 89.816406 345.742188 112.855469 328.660156 C 136.496094 311.132812 178.925781 287.34375 179.351562 287.105469 C 180.226562 286.613281 180.542969 285.503906 180.050781 284.628906 C 179.558594 283.75 178.449219 283.4375 177.570312 283.925781 Z M 72.636719 296.613281 C 73.941406 296.613281 75.257812 296.503906 76.589844 296.261719 C 99.132812 292.191406 164.636719 225.113281 167.417969 222.257812 C 168.117188 221.539062 168.101562 220.386719 167.382812 219.683594 C 166.660156 218.980469 165.507812 218.996094 164.804688 219.71875 C 164.132812 220.410156 97.347656 288.8125 75.941406 292.675781 C 55.269531 296.441406 36.675781 263.058594 36.488281 262.71875 C 36.007812 261.839844 34.902344 261.515625 34.015625 262 C 33.136719 262.484375 32.8125 263.589844 33.296875 264.472656 C 34.058594 265.859375 51.195312 296.613281 72.636719 296.613281 Z M 70.148438 226.855469 C 70.199219 227.148438 70.320312 227.414062 70.484375 227.640625 C 59.609375 232.113281 52.296875 235.277344 52.078125 235.371094 C 51.152344 235.773438 50.730469 236.847656 51.128906 237.769531 C 51.429688 238.457031 52.097656 238.863281 52.800781 238.863281 C 53.042969 238.863281 53.289062 238.816406 53.527344 238.714844 C 54.203125 238.421875 121.359375 209.367188 153.546875 202.078125 C 154.527344 201.855469 155.140625 200.882812 154.921875 199.898438 C 154.699219 198.917969 153.722656 198.304688 152.742188 198.523438 C 131.84375 203.257812 96.511719 217.003906 73.746094 226.304688 C 73.746094 226.28125 73.742188 226.257812 73.738281 226.234375 C 62.941406 163.914062 41.578125 145.902344 40.675781 145.167969 C 39.894531 144.527344 38.753906 144.648438 38.117188 145.429688 C 37.480469 146.203125 37.597656 147.351562 38.371094 147.988281 C 38.582031 148.164062 59.625 166.113281 70.148438 226.855469 Z M 362.320312 414.726562 C 363.140625 421.695312 359.597656 427.667969 354.398438 432.238281 C 355.167969 432.292969 355.816406 432.324219 356.300781 432.324219 C 369.730469 432.324219 374.128906 414.496094 364.636719 401.761719 C 359.683594 395.117188 338.238281 384.625 319.25 383.695312 C 300.261719 382.769531 301.1875 386.476562 285.441406 386.476562 C 276.445312 386.476562 268.808594 382.847656 263.914062 379.734375 C 253.789062 373.300781 241.597656 370.652344 229.882812 373.234375 C 220.507812 375.300781 215.191406 379.761719 212.730469 383.695312 C 210.210938 387.730469 210.4375 395.328125 211.164062 401.414062 C 213.289062 394.3125 219.160156 384.867188 235.425781 386.9375 C 260.898438 390.183594 294.703125 392.03125 310.449219 391.570312 C 326.195312 391.105469 360.46875 398.980469 362.320312 414.726562 Z M 494.308594 480.027344 C 485.972656 486.972656 358.152344 459.648438 345.648438 454.554688 C 339.441406 452.027344 338.71875 445.96875 339.554688 440.5 C 342.109375 439.675781 344.761719 438.550781 347.316406 437.152344 C 347.359375 437.414062 347.417969 437.664062 347.5 437.882812 C 349.816406 443.902344 463.511719 475.394531 497.320312 469.375 C 497.320312 469.375 497.617188 467.609375 497.265625 464.972656 C 498.554688 469.761719 499.011719 476.109375 494.308594 480.027344"/></g><g id="change4_1"><path fill="#ff0000" d="M 153.015625 69.621094 C 147.988281 69.621094 143.902344 64.894531 143.902344 59.074219 C 143.902344 57.4375 144.226562 56.132812 144.761719 55.089844 C 145.011719 54.859375 145.1875 54.566406 145.28125 54.246094 C 147.3125 51.445312 151.074219 51.050781 153.015625 51.050781 C 155.757812 51.050781 162.128906 51.835938 162.128906 59.074219 C 162.128906 64.894531 158.039062 69.621094 153.015625 69.621094 Z M 123.175781 68.820312 C 117.359375 68.820312 112.625 64.089844 112.625 58.273438 C 112.625 51.03125 120.003906 50.25 123.175781 50.25 C 125.558594 50.25 130.320312 50.691406 132.535156 53.984375 C 132.558594 54.328125 132.679688 54.667969 132.902344 54.960938 C 132.992188 55.082031 133.09375 55.1875 133.207031 55.277344 C 133.535156 56.128906 133.722656 57.117188 133.722656 58.273438 C 133.722656 64.089844 128.988281 68.820312 123.175781 68.820312 Z M 153.015625 47.410156 C 148.921875 47.410156 145.636719 48.617188 143.425781 50.792969 C 142.917969 50.402344 142.289062 50.058594 141.515625 49.847656 C 139.605469 49.316406 137.421875 49.78125 135.019531 51.210938 C 132.628906 48.273438 128.519531 46.605469 123.175781 46.605469 C 117.480469 46.605469 113.1875 48.5 110.886719 51.804688 L 98.410156 46.054688 C 97.574219 45.671875 96.601562 45.976562 96.121094 46.730469 C 97.304688 47.585938 98.21875 48.964844 98.875 50.277344 L 109.371094 55.113281 C 109.113281 56.097656 108.984375 57.152344 108.984375 58.273438 C 108.984375 66.097656 115.347656 72.464844 123.175781 72.464844 C 131 72.464844 137.363281 66.097656 137.363281 58.273438 C 137.363281 56.878906 137.160156 55.585938 136.769531 54.410156 C 138.28125 53.484375 139.585938 53.113281 140.511719 53.347656 C 140.855469 53.4375 141.128906 53.605469 141.332031 53.785156 C 140.628906 55.316406 140.257812 57.09375 140.257812 59.074219 C 140.257812 66.898438 145.980469 73.265625 153.015625 73.265625 C 160.050781 73.265625 165.773438 66.898438 165.773438 59.074219 C 165.773438 51.882812 160.882812 47.410156 153.015625 47.410156"/></g><g id="change5_1"><path fill="#f1e510" d="M 109.007812 365.425781 L 107.371094 365.097656 C 106.277344 364.898438 105.183594 364.628906 104.078125 364.488281 L 100.734375 364.226562 C 99.609375 364.078125 98.5 364.238281 97.378906 364.269531 C 96.261719 364.320312 95.140625 364.351562 94.042969 364.554688 C 92.941406 364.726562 91.824219 364.855469 90.730469 365.070312 L 87.492188 365.898438 C 83.222656 367.144531 79.113281 368.859375 75.21875 370.949219 C 73.273438 371.992188 71.367188 373.121094 69.597656 374.445312 C 68.703125 375.09375 67.886719 375.847656 67.085938 376.617188 C 66.320312 377.410156 65.347656 378.019531 65.375 379.726562 C 67.039062 380.035156 67.773438 379.324219 68.730469 378.832031 C 69.671875 378.335938 70.597656 377.828125 71.507812 377.304688 C 73.308594 376.226562 75.105469 375.148438 76.945312 374.148438 C 80.628906 372.15625 84.5 370.527344 88.484375 369.347656 C 92.472656 368.167969 96.578125 367.523438 100.710938 367.375 L 103.816406 367.375 C 104.847656 367.429688 105.871094 367.605469 106.90625 367.714844 L 108.457031 367.898438 C 108.964844 368 109.464844 368.132812 109.996094 368.167969 C 111.046875 368.285156 112.132812 368.308594 113.378906 368.019531 C 112.5625 367.121094 111.578125 366.539062 110.566406 366.050781 C 110.0625 365.789062 109.535156 365.597656 109.007812 365.425781 Z M 10.230469 146.269531 C 9.667969 147.074219 8.941406 147.792969 8.507812 148.683594 L 7.050781 151.285156 C 5.433594 154.90625 4.472656 158.796875 4.164062 162.703125 C 3.851562 166.613281 4.132812 170.511719 4.699219 174.335938 C 4.964844 176.25 5.351562 178.144531 5.917969 179.992188 C 6.183594 180.921875 6.585938 181.8125 6.972656 182.699219 C 7.4375 183.558594 7.613281 184.542969 9.179688 184.984375 C 10.097656 183.664062 9.726562 182.855469 9.644531 181.914062 C 9.539062 180.988281 9.394531 180.085938 9.253906 179.179688 L 8.757812 176.484375 C 8.574219 175.589844 8.421875 174.691406 8.300781 173.789062 C 7.773438 170.1875 7.542969 166.550781 7.765625 162.960938 C 8.050781 159.382812 8.699219 155.863281 9.941406 152.53125 L 11.03125 150.109375 C 11.347656 149.265625 11.945312 148.597656 12.386719 147.820312 C 12.847656 147.054688 13.359375 146.332031 13.890625 145.601562 C 14.367188 144.820312 14.800781 143.984375 15.03125 142.839844 C 12.949219 143.320312 11.296875 144.609375 10.230469 146.269531 Z M 123.230469 3.339844 C 122.921875 3.164062 122.605469 3.003906 122.289062 2.859375 C 121.652344 2.566406 121.011719 2.3125 120.34375 2.148438 C 119.683594 1.953125 119.015625 1.804688 118.347656 1.644531 C 118.011719 1.578125 117.6875 1.457031 117.320312 1.503906 C 117.140625 1.519531 116.945312 1.601562 116.746094 1.699219 C 116.640625 1.769531 116.550781 1.777344 116.429688 1.902344 C 116.304688 2.050781 116.144531 2.355469 115.914062 2.929688 C 115.855469 3.542969 115.859375 3.890625 115.898438 4.078125 C 115.949219 4.242188 116.023438 4.289062 116.085938 4.402344 C 116.21875 4.582031 116.355469 4.742188 116.507812 4.84375 C 116.808594 5.054688 117.152344 5.089844 117.484375 5.1875 C 118.148438 5.355469 118.8125 5.527344 119.488281 5.660156 C 120.152344 5.820312 120.84375 5.890625 121.542969 5.925781 C 121.890625 5.941406 122.242188 5.945312 122.597656 5.933594 C 122.949219 5.949219 123.292969 5.988281 123.914062 4.878906 C 123.871094 3.609375 123.550781 3.484375 123.230469 3.339844 Z M 92.101562 13.425781 C 92.367188 13.304688 92.523438 13.117188 92.753906 12.976562 C 93.160156 12.65625 93.570312 12.355469 93.933594 12.019531 C 94.667969 11.347656 95.328125 10.625 96.054688 9.960938 C 97.507812 8.636719 99.136719 7.53125 100.855469 6.636719 C 102.585938 5.761719 104.402344 5.039062 106.324219 4.628906 C 107.273438 4.359375 108.257812 4.261719 109.25 4.117188 C 109.746094 4.007812 110.246094 4.089844 110.757812 3.929688 C 111.273438 3.777344 111.804688 3.496094 112.402344 2.929688 C 111.476562 1.667969 110.320312 1.464844 109.207031 1.449219 C 108.082031 1.402344 106.945312 1.347656 105.8125 1.515625 C 103.539062 1.714844 101.28125 2.371094 99.234375 3.410156 C 97.164062 4.402344 95.269531 5.730469 93.59375 7.269531 C 92.78125 8.058594 91.941406 8.839844 91.3125 9.792969 C 90.992188 10.265625 90.730469 10.785156 90.511719 11.324219 C 90.417969 11.601562 90.28125 11.855469 90.246094 12.171875 C 90.230469 12.496094 90.355469 12.929688 90.742188 13.464844 C 91.40625 13.550781 91.8125 13.535156 92.101562 13.425781 Z M 302.507812 74.222656 C 301.074219 72.59375 299.253906 71.320312 297.277344 70.496094 C 296.769531 70.3125 296.273438 70.117188 295.765625 69.960938 C 295.242188 69.839844 294.730469 69.703125 294.210938 69.605469 C 293.683594 69.546875 293.171875 69.414062 292.632812 69.496094 C 292.085938 69.617188 291.53125 69.875 291.011719 70.421875 C 291.878906 71.730469 292.671875 71.898438 293.527344 72.183594 C 294.347656 72.515625 295.132812 72.894531 295.878906 73.328125 C 297.371094 74.207031 298.671875 75.332031 299.792969 76.605469 C 300.886719 77.902344 301.761719 79.386719 302.308594 80.988281 L 302.667969 82.207031 C 302.738281 82.621094 302.859375 83.03125 302.988281 83.441406 C 303.078125 83.859375 303.25 84.277344 303.417969 84.710938 C 303.507812 84.925781 303.53125 85.144531 303.679688 85.371094 C 303.851562 85.597656 304.183594 85.832031 304.789062 86.113281 C 305.402344 85.910156 305.742188 85.664062 305.921875 85.40625 C 306.074219 85.148438 306.105469 84.886719 306.199219 84.617188 C 306.3125 84.089844 306.382812 83.539062 306.394531 82.996094 C 306.371094 81.90625 306.085938 80.847656 305.757812 79.8125 C 305.0625 77.757812 303.964844 75.832031 302.507812 74.222656 Z M 324.671875 77.0625 C 324.402344 75.933594 324.046875 74.820312 323.71875 73.707031 C 322.214844 69.300781 319.832031 65.199219 316.757812 61.710938 C 313.703125 58.199219 309.847656 55.414062 305.65625 53.476562 C 304.578125 53.054688 303.519531 52.59375 302.433594 52.214844 C 301.320312 51.902344 300.222656 51.554688 299.109375 51.28125 C 297.976562 51.09375 296.863281 50.800781 295.710938 50.78125 C 294.550781 50.835938 293.382812 50.984375 292.242188 51.484375 C 293.296875 52.242188 294.320312 52.644531 295.355469 52.949219 C 296.367188 53.351562 297.402344 53.574219 298.429688 53.847656 C 299.4375 54.175781 300.421875 54.574219 301.414062 54.933594 C 302.382812 55.351562 303.316406 55.851562 304.265625 56.300781 C 307.996094 58.261719 311.285156 60.953125 314.0625 64.078125 C 316.816406 67.230469 318.941406 70.921875 320.277344 74.878906 C 320.554688 75.886719 320.886719 76.875 321.144531 77.886719 C 321.332031 78.914062 321.59375 79.929688 321.796875 80.953125 C 321.933594 81.992188 322.179688 83.023438 322.394531 84.074219 C 322.554688 85.140625 322.429688 86.164062 323.726562 87.34375 C 325.054688 86.3125 324.960938 85.128906 325.152344 83.988281 C 325.234375 82.835938 325.246094 81.671875 325.203125 80.507812 C 325.089844 79.355469 324.878906 78.207031 324.671875 77.0625 Z M 343.835938 83.363281 C 343.625 85.128906 343.316406 86.886719 342.664062 88.574219 C 342.058594 86.808594 341.800781 85.117188 341.640625 83.433594 C 341.355469 81.757812 341.171875 80.089844 340.996094 78.417969 C 340.710938 76.761719 340.308594 75.125 339.972656 73.484375 C 339.53125 71.867188 338.964844 70.285156 338.472656 68.6875 C 336.214844 62.382812 332.699219 56.582031 328.320312 51.558594 C 323.914062 46.554688 318.519531 42.429688 312.539062 39.496094 C 311.007812 38.847656 309.507812 38.117188 307.960938 37.507812 L 303.230469 35.886719 C 301.617188 35.464844 300.011719 34.988281 298.390625 34.503906 C 296.738281 34.136719 295.089844 34.058594 293.472656 32.550781 C 295.285156 31.4375 297.0625 31.753906 298.835938 31.785156 C 300.597656 31.953125 302.351562 32.277344 304.109375 32.578125 C 305.839844 33.003906 307.53125 33.578125 309.234375 34.113281 C 310.894531 34.753906 312.511719 35.519531 314.148438 36.230469 C 320.550781 39.390625 326.316406 43.824219 331.019531 49.1875 C 335.742188 54.542969 339.273438 60.914062 341.453125 67.675781 C 341.898438 69.394531 342.414062 71.097656 342.796875 72.824219 C 343.074219 74.578125 343.410156 76.316406 343.628906 78.070312 C 343.730469 79.835938 343.910156 81.601562 343.835938 83.363281"/></g></g></svg>