<svg width="442" height="440" viewBox="44.1 37.6 442 440" xmlns="http://www.w3.org/2000/svg" xmlns:xlink="http://www.w3.org/1999/xlink" overflow="hidden"><style>
.MsftOfcResponsive_Stroke_ffff00 {
 stroke:#FFFF00; 
}
</style>
<g id="change1_1" fill="#F1E510"><path d="M346.699 74.9336C353.684 89.5156 365.52 101.355 380.102 108.336 365.52 115.316 353.684 127.152 346.699 141.734 339.719 127.152 327.883 115.316 313.293 108.336 327.883 101.355 339.719 89.5156 346.699 74.9336ZM282.84 115.23C314.25 115.23 339.809 140.781 339.809 172.188 339.809 176 342.891 179.082 346.699 179.082 350.512 179.082 353.594 176 353.594 172.188 353.594 140.781 379.145 115.23 410.555 115.23 414.363 115.23 417.449 112.145 417.449 108.336 417.449 104.523 414.363 101.441 410.555 101.441 379.145 101.441 353.594 75.8906 353.594 44.4805 353.594 40.6719 350.512 37.5898 346.699 37.5898 342.891 37.5898 339.809 40.6719 339.809 44.4805 339.809 75.8906 314.25 101.441 282.84 101.441 279.031 101.441 275.945 104.523 275.945 108.336 275.945 112.145 279.031 115.23 282.84 115.23" class="MsftOfcResponsive_Stroke_ffff00" stroke="#FFFF00" stroke-width="0.999943"/><path d="M99.625 364.434C94.5547 355.266 86.9609 347.668 77.7891 342.598 86.9609 337.531 94.5547 329.934 99.625 320.766 104.695 329.934 112.289 337.531 121.457 342.598 112.289 347.668 104.695 355.266 99.625 364.434ZM148.234 335.703C125.234 335.703 106.52 316.996 106.52 293.996 106.52 290.184 103.434 287.102 99.625 287.102 95.8125 287.102 92.7305 290.184 92.7305 293.996 92.7305 316.996 74.0117 335.703 51.0156 335.703 47.2031 335.703 44.1211 338.789 44.1211 342.598 44.1211 346.41 47.2031 349.492 51.0156 349.492 74.0117 349.492 92.7305 368.211 92.7305 391.211 92.7305 395.02 95.8125 398.105 99.625 398.105 103.434 398.105 106.52 395.02 106.52 391.211 106.52 368.211 125.234 349.492 148.234 349.492 152.047 349.492 155.129 346.41 155.129 342.598 155.129 338.789 152.047 335.703 148.234 335.703" class="MsftOfcResponsive_Stroke_ffff00" stroke="#FFFF00" stroke-width="0.999943"/><path d="M395.203 401.738C339.41 457.52 268.676 477.562 237.531 446.418L229.156 438.043C233.227 438.629 237.387 439.059 241.773 439.059 251.574 439.059 262.125 437.59 273.234 434.629 306.008 425.883 340.121 404.996 369.289 375.824 398.461 346.66 419.348 312.543 428.094 279.77 432.379 263.707 433.418 248.883 431.535 235.723L439.883 244.066C471.031 275.219 450.988 345.953 395.203 401.738ZM205.426 307.688C207.656 303.523 210.133 299.359 212.754 295.195 215.879 290.238 219.328 285.309 222.98 280.406 225.93 276.453 229.043 272.543 232.328 268.664 236.801 263.383 241.469 258.156 246.547 253.082 259.992 239.637 274.316 228.387 288.734 219.309 292.902 216.688 297.062 214.336 301.227 212.102 323.34 200.238 345.184 193.719 363.988 193.719 380.258 193.719 394.262 198.445 404.219 208.402 418.801 222.984 422.543 247.07 414.77 276.207 406.641 306.68 387.023 338.594 359.539 366.074 332.059 393.559 300.145 413.18 269.672 421.305 240.531 429.082 216.449 425.324 201.867 410.754 180.379 389.266 183.266 348.945 205.426 307.688ZM149.191 256.859C111.594 219.258 97.2695 170.055 117.91 149.41L119.559 147.766C118.164 175.832 134.141 211.383 164.398 241.645 178.895 256.141 194.59 267.199 210.109 274.793 206.316 280.059 202.723 285.359 199.5 290.703 182.645 284.004 164.93 272.598 149.191 256.859ZM142.875 124.445C149.305 118.016 158.504 114.98 169.262 114.98 193.039 114.98 224.434 129.832 250.32 155.719 265.801 171.199 277.383 188.668 284.27 205.973 267.945 215.805 251.816 228.309 236.797 243.332 230.301 249.828 224.375 256.562 218.824 263.398 203.371 256.383 187.965 245.711 174.148 231.895 136.555 194.297 122.234 145.09 142.875 124.445ZM449.629 234.316 413.969 198.652C388.645 173.34 342.672 175.242 296.469 199.152 289.023 181.242 276.91 162.812 260.07 145.973 215.723 101.617 159.957 87.875 133.125 114.699L108.16 139.664C81.3398 166.484 95.082 222.246 139.441 266.605 156.285 283.449 174.719 295.543 192.633 302.98 168.703 349.188 166.785 395.176 192.117 420.504L227.781 456.168C240.148 468.535 257.426 474.41 277.266 474.41 316.02 474.41 364.496 451.945 404.953 411.488 466.117 350.32 486.16 270.844 449.629 234.316" class="MsftOfcResponsive_Stroke_ffff00" stroke="#FFFF00" stroke-width="0.999943"/></g></svg>