<?xml version="1.0" encoding="UTF-8"?><svg xmlns="http://www.w3.org/2000/svg" xmlns:xlink="http://www.w3.org/1999/xlink" contentScriptType="text/ecmascript" zoomAndPan="magnify" text-rendering="geometricPrecision" contentStyleType="text/css" version="1" width="1679" shape-rendering="geometricPrecision" clip-rule="evenodd" fill="#000000" preserveAspectRatio="xMidYMid meet" viewBox="-49.0 -3.0 1679.0 2596.0" height="2596" fill-rule="evenodd" image-rendering="optimizeQuality"><g id="change1_1"><path fill="#243484" d="m688 2237c145-348 108-1342 135-1807 150 199 660 828 388 1187-47 62-82 83-124 127 56 41 161-97 194-137 41-49 96-154 127-232 222-560-319-843-532-1152-151-219-55-226-149-222-18 39-28 165-29 207l14 658-6 687-20 280c-157-16-385 14-513 110-164 124-222 326-128 450 150 200 562 39 643-156z"/></g></svg>