<?xml version="1.0" encoding="UTF-8"?><svg xmlns="http://www.w3.org/2000/svg" xmlns:xlink="http://www.w3.org/1999/xlink" contentScriptType="text/ecmascript" fill="#000000" width="489.9" zoomAndPan="magnify" contentStyleType="text/css" viewBox="0.0 0.0 489.9 500.0" height="500" preserveAspectRatio="xMidYMid meet" version="1"><defs><clipPath id="a"><path d="M 0 0 L 489.949219 0 L 489.949219 500 L 0 500 Z M 0 0"/></clipPath></defs><g><g id="change1_1" clip-path="url(#a)"><path fill="#ffffff" d="M 487.25 217.101562 C 477.160156 230.722656 428.476562 253.367188 407.761719 262.578125 L 411.496094 283.597656 L 376.765625 300.445312 C 359.628906 312.175781 348.644531 324.238281 347.472656 344.972656 L 340.59375 496.824219 C 340.59375 496.824219 191.917969 500 142.183594 500 C 140.917969 414.472656 134.621094 358.804688 132.109375 339.671875 C 131.609375 335.855469 127.71875 333.46875 124.089844 334.761719 L 86.890625 348.015625 L 83.046875 328.414062 C 55.667969 341.90625 24.175781 353.304688 12.566406 341.722656 C -22.5 306.734375 26.5625 181.808594 30.316406 172.421875 C 31.785156 162.125 39.496094 110.113281 46.390625 105.5625 C 54.050781 100.511719 84.253906 93.058594 86.578125 99.492188 C 88.902344 105.929688 89.5625 108.847656 89.5625 108.847656 C 89.5625 108.847656 99.597656 101.234375 100.871094 109.242188 C 102.144531 117.253906 88.441406 133.054688 88.441406 133.054688 C 88.441406 133.054688 79.269531 153.890625 69.496094 162.816406 C 66.117188 165.898438 63.84375 172.21875 62.316406 179.167969 L 57.78125 274.042969 L 70.949219 266.742188 L 70.621094 265.078125 C 70.621094 265.078125 108.808594 236.6875 148.003906 217.460938 C 176.390625 203.535156 194.914062 199.113281 210.941406 197.3125 C 212.410156 187.070312 214.140625 178.042969 214.140625 178.042969 C 214.140625 178.042969 201.574219 166.269531 203.953125 136.109375 C 206.316406 106.203125 226.914062 87.570312 226.914062 87.570312 C 274.570312 76.019531 295.628906 100.875 287.683594 137.699219 C 279.742188 174.523438 265.464844 182.9375 265.464844 182.9375 C 265.464844 182.9375 266 187.914062 266.441406 194.367188 C 336.9375 192.359375 396.019531 196.429688 396.019531 196.429688 L 396.09375 196.863281 C 407.085938 195.316406 422.957031 192.007812 423.796875 185.714844 C 425.007812 176.628906 387.585938 93.21875 386.980469 93.085938 C 383.171875 92.238281 371.261719 87.007812 364.078125 79.09375 C 355.988281 70.1875 351.265625 64.617188 352.554688 59.457031 C 353.609375 55.234375 357.75 47.234375 358.847656 44.867188 C 359.09375 44.335938 346.554688 21.015625 344.832031 14.113281 C 342.898438 6.375 349.246094 -0.226562 354.40625 10.734375 C 358.507812 19.457031 363.738281 28.25 365.707031 31.484375 C 366.171875 32.246094 367.132812 32.664062 367.945312 32.292969 C 376.050781 28.597656 387.058594 28.1875 387.058594 28.1875 C 388.347656 28.761719 389.792969 27.789062 389.742188 26.378906 C 389.488281 19.085938 389.175781 1.191406 392.25 0.164062 C 396.121094 -1.121094 398.328125 4.816406 401.761719 28.132812 C 402.742188 34.792969 410.699219 49.601562 412.445312 76.515625 C 465.464844 140.476562 500.148438 199.6875 487.25 217.101562"/></g><g id="change2_1"><path fill="#545b69" d="M 148.03125 369.351562 C 125.238281 294.089844 88.976562 286.964844 87.445312 286.695312 C 86.53125 286.539062 85.65625 287.152344 85.496094 288.070312 C 85.332031 288.988281 85.949219 289.863281 86.867188 290.023438 C 87.140625 290.070312 108.382812 294.253906 128.261719 330.078125 C 127.1875 328.960938 126.109375 327.839844 124.925781 326.824219 C 124.195312 326.171875 123.492188 325.488281 122.699219 324.90625 L 120.324219 323.164062 C 117.078125 320.957031 113.554688 319.152344 109.890625 317.753906 C 108.976562 317.402344 108.074219 317.023438 107.132812 316.742188 C 106.207031 316.417969 105.273438 316.117188 104.316406 315.886719 C 103.371094 315.621094 102.394531 315.46875 101.417969 315.335938 C 100.925781 315.289062 100.4375 315.234375 99.9375 315.21875 C 99.445312 315.191406 98.914062 315.289062 98.398438 315.871094 C 98.839844 316.511719 99.253906 316.71875 99.710938 316.832031 C 100.160156 316.929688 100.609375 317.074219 101.054688 317.195312 C 101.945312 317.453125 102.839844 317.699219 103.722656 317.996094 C 105.503906 318.515625 107.238281 319.207031 108.925781 319.996094 C 112.28125 321.628906 115.375 323.722656 118.371094 325.90625 L 120.585938 327.597656 C 121.335938 328.148438 122.015625 328.785156 122.757812 329.351562 C 124.246094 330.480469 125.589844 331.78125 126.980469 333.035156 C 128.371094 334.292969 129.597656 335.71875 130.976562 337.007812 L 132.855469 339.011719 C 137.054688 347.804688 141.109375 358.144531 144.800781 370.328125 C 167.046875 443.796875 187.988281 481.613281 196.632812 489.105469 C 196.953125 489.382812 197.347656 489.519531 197.738281 489.519531 C 198.210938 489.519531 198.679688 489.320312 199.011719 488.9375 C 199.621094 488.230469 199.546875 487.167969 198.84375 486.554688 C 190.492188 479.320312 170.070312 442.132812 148.03125 369.351562 Z M 347.902344 281.480469 C 347.902344 282.414062 348.660156 283.167969 349.589844 283.167969 C 350.523438 283.167969 351.277344 282.414062 351.277344 281.480469 C 351.277344 244.550781 332.304688 196.160156 332.109375 195.675781 C 331.769531 194.808594 330.785156 194.386719 329.921875 194.726562 C 329.054688 195.070312 328.632812 196.050781 328.972656 196.917969 C 329.164062 197.394531 347.902344 245.1875 347.902344 281.480469 Z M 376.441406 271.535156 L 375.308594 273.082031 C 374.558594 274.117188 373.859375 275.1875 373.164062 276.253906 C 371.785156 278.402344 370.457031 280.578125 369.105469 282.746094 C 366.375 287.058594 363.667969 291.402344 361.226562 295.90625 C 360.167969 297.839844 359.1875 299.8125 358.253906 301.8125 C 358.652344 299.597656 359.027344 297.453125 359.390625 295.382812 C 363.183594 273.777344 365.6875 259.5 377.425781 242.769531 C 377.964844 242.003906 377.777344 240.953125 377.015625 240.417969 C 376.253906 239.886719 375.199219 240.066406 374.664062 240.832031 C 362.496094 258.179688 359.9375 272.746094 356.066406 294.800781 C 351.964844 318.1875 346.34375 350.21875 325.796875 403.09375 C 325.457031 403.960938 325.886719 404.9375 326.757812 405.277344 C 326.960938 405.355469 327.164062 405.390625 327.367188 405.390625 C 328.042969 405.390625 328.679688 404.980469 328.941406 404.316406 C 344.214844 365.011719 351.285156 337.164062 355.601562 315.804688 C 356.210938 314.207031 356.84375 312.609375 357.546875 311.035156 C 359.574219 306.441406 361.957031 301.992188 364.207031 297.472656 C 366.503906 292.96875 368.78125 288.441406 371.210938 283.984375 C 372.4375 281.765625 373.734375 279.585938 375.019531 277.398438 C 375.660156 276.300781 376.300781 275.207031 376.910156 274.089844 L 377.816406 272.414062 C 378.121094 271.855469 378.328125 271.238281 378.160156 270.371094 C 377.300781 270.570312 376.824219 271.023438 376.441406 271.535156 Z M 82.894531 321.691406 C 82.765625 320.5 82.632812 319.3125 82.464844 318.128906 C 82.160156 315.757812 81.773438 313.402344 81.40625 311.042969 C 80.660156 306.324219 79.984375 301.597656 79.023438 296.917969 C 78.101562 292.234375 77.011719 287.582031 75.988281 282.914062 L 74.570312 275.894531 C 74.324219 274.726562 74.078125 273.558594 73.785156 272.398438 L 73.332031 270.660156 C 73.179688 270.082031 72.917969 269.523438 72.207031 269.046875 C 71.710938 269.746094 71.667969 270.359375 71.730469 270.953125 L 71.921875 272.738281 C 72.058594 273.929688 72.242188 275.109375 72.425781 276.289062 L 73.585938 283.355469 C 74.28125 288.082031 74.914062 292.816406 75.710938 297.523438 C 76.472656 302.238281 77.511719 306.902344 78.488281 311.578125 C 78.980469 313.914062 79.453125 316.253906 80.011719 318.578125 C 80.269531 319.742188 80.570312 320.902344 80.871094 322.0625 L 81.335938 323.796875 C 81.476562 324.375 81.734375 324.933594 82.527344 325.398438 C 83.101562 324.683594 83.148438 324.070312 83.070312 323.476562 Z M 57.996094 276.28125 L 57.992188 276.277344 C 57.925781 275.785156 57.632812 275.320312 57.167969 275.058594 C 56.371094 274.605469 55.363281 274.886719 54.910156 275.683594 L 54.828125 275.832031 C 54.46875 276.464844 54.121094 277.097656 53.792969 277.742188 L 52.71875 279.621094 C 51.96875 280.847656 51.203125 282.070312 50.316406 283.1875 C 49.441406 284.320312 48.480469 285.375 47.464844 286.367188 C 46.949219 286.847656 46.4375 287.34375 45.886719 287.789062 C 45.617188 288.023438 45.335938 288.230469 45.054688 288.441406 C 44.753906 288.628906 44.546875 288.914062 44.429688 289.683594 C 45.027344 290.210938 45.496094 290.152344 45.867188 290.003906 C 46.246094 289.855469 46.621094 289.703125 46.980469 289.523438 C 47.710938 289.175781 48.394531 288.753906 49.054688 288.300781 C 50.367188 287.382812 51.503906 286.261719 52.578125 285.105469 C 53.664062 283.949219 54.601562 282.6875 55.511719 281.40625 C 55.542969 281.359375 55.570312 281.308594 55.601562 281.265625 C 55.890625 282.769531 56.148438 284.289062 56.367188 285.796875 C 56.578125 287.292969 56.695312 288.796875 56.753906 290.28125 L 56.859375 292.507812 L 56.902344 293.609375 C 56.886719 293.972656 56.980469 294.335938 57.527344 294.839844 C 58.191406 294.589844 58.414062 294.199219 58.519531 293.804688 L 58.753906 292.621094 C 58.859375 291.835938 58.945312 291.039062 58.945312 290.253906 C 58.960938 288.683594 58.890625 287.125 58.808594 285.574219 C 58.671875 282.460938 58.394531 279.394531 57.996094 276.28125 Z M 448.59375 185.839844 L 448.019531 185.347656 C 447.628906 185.035156 447.226562 184.734375 446.804688 184.460938 L 444.152344 183.027344 C 442.34375 182.125 440.476562 181.175781 438.398438 180.785156 C 436.34375 180.3125 434.15625 180.394531 432.066406 180.867188 C 431.027344 181.125 429.984375 181.410156 429.039062 181.9375 C 428.558594 182.171875 428.113281 182.496094 427.683594 182.820312 C 427.476562 182.996094 427.269531 183.160156 427.074219 183.359375 C 426.871094 183.527344 426.714844 183.832031 426.972656 184.523438 C 427.601562 184.90625 427.839844 184.925781 428.046875 184.832031 C 428.246094 184.746094 428.472656 184.6875 428.683594 184.621094 C 429.113281 184.492188 429.53125 184.363281 429.96875 184.269531 C 430.816406 184.046875 431.679688 183.890625 432.550781 183.800781 C 434.300781 183.632812 436.050781 183.898438 437.8125 184.097656 C 439.585938 184.304688 441.386719 184.734375 443.179688 185.265625 C 444.058594 185.59375 444.902344 186.007812 445.761719 186.390625 C 446.179688 186.609375 446.613281 186.800781 447.058594 186.980469 L 447.742188 187.230469 C 447.972656 187.3125 448.257812 187.300781 448.796875 186.90625 C 448.917969 186.265625 448.785156 186.003906 448.59375 185.839844 Z M 408.589844 255.546875 C 408.445312 254.351562 408.257812 253.167969 408.066406 251.980469 L 406.875 244.882812 C 406.15625 240.132812 405.503906 235.371094 404.683594 230.644531 C 403.902344 225.90625 402.839844 221.222656 401.84375 216.527344 C 401.335938 214.179688 400.855469 211.828125 400.285156 209.492188 C 400.019531 208.320312 399.71875 207.15625 399.410156 205.996094 L 398.9375 204.253906 C 398.792969 203.667969 398.53125 203.105469 397.738281 202.644531 C 397.164062 203.363281 397.121094 203.980469 397.203125 204.578125 L 397.386719 206.371094 C 397.523438 207.566406 397.660156 208.765625 397.835938 209.949219 C 398.148438 212.335938 398.550781 214.699219 398.925781 217.070312 C 399.691406 221.8125 400.394531 226.5625 401.375 231.261719 C 402.316406 235.96875 403.429688 240.644531 404.472656 245.328125 L 405.925781 252.382812 C 406.179688 253.554688 406.429688 254.730469 406.726562 255.894531 L 407.1875 257.640625 C 407.34375 258.222656 407.605469 258.78125 408.320312 259.257812 C 408.8125 258.558594 408.855469 257.9375 408.789062 257.339844 Z M 266.570312 206.753906 C 266.832031 208.363281 267.261719 209.957031 267.625 211.558594 C 267.636719 211.617188 267.644531 211.675781 267.65625 211.734375 C 268.378906 209.644531 269.101562 207.558594 269.828125 205.480469 C 269.675781 204.144531 269.382812 202.828125 269.121094 201.507812 C 268.953125 200.703125 268.816406 199.898438 268.59375 199.105469 C 268.488281 198.703125 268.355469 198.308594 268.21875 197.914062 L 268 197.324219 C 267.945312 197.128906 267.765625 196.941406 267.050781 196.824219 C 266.386719 197.113281 266.257812 197.335938 266.25 197.539062 L 266.175781 198.164062 C 266.140625 198.582031 266.109375 198.996094 266.101562 199.410156 C 266.078125 200.234375 266.140625 201.046875 266.171875 201.867188 C 266.25 203.503906 266.265625 205.144531 266.570312 206.753906 Z M 221.566406 150.210938 C 221.558594 152.484375 221.8125 154.542969 222.269531 156.675781 C 222.75 158.777344 223.472656 160.855469 224.550781 162.796875 C 225.625 164.726562 227.097656 166.519531 228.9375 167.855469 C 230.765625 169.214844 232.933594 170.054688 235.105469 170.417969 C 236.191406 170.613281 237.285156 170.671875 238.367188 170.671875 C 239.4375 170.648438 240.472656 170.570312 241.523438 170.519531 C 243.617188 170.253906 245.730469 169.972656 247.761719 169.203125 C 249.777344 168.46875 251.753906 167.382812 253.277344 165.765625 C 254.066406 164.988281 254.671875 164.035156 255.167969 163.058594 C 255.675781 162.097656 255.988281 160.917969 255.410156 159.789062 C 254.5625 160.671875 254.175781 161.4375 253.695312 162.257812 C 253.1875 163.03125 252.605469 163.761719 251.898438 164.367188 C 250.523438 165.609375 248.835938 166.5 247.023438 167.09375 C 245.230469 167.746094 243.277344 167.980469 241.339844 168.15625 C 240.363281 168.164062 239.367188 168.230469 238.40625 168.195312 C 237.457031 168.148438 236.515625 168.050781 235.613281 167.835938 C 231.9375 167.089844 229.027344 164.585938 227.394531 161.269531 C 226.53125 159.632812 225.976562 157.808594 225.570312 155.953125 C 225.441406 155.367188 225.34375 154.761719 225.253906 154.15625 C 225.394531 154.238281 225.53125 154.332031 225.671875 154.414062 C 227.023438 155.175781 228.40625 155.773438 229.796875 156.28125 C 232.582031 157.292969 235.402344 158.003906 238.230469 158.597656 C 241.058594 159.199219 243.910156 159.609375 246.761719 159.949219 C 248.1875 160.089844 249.617188 160.210938 251.050781 160.308594 C 252.484375 160.328125 253.890625 160.796875 255.410156 159.789062 C 254.09375 158.542969 252.671875 158.703125 251.28125 158.386719 C 249.886719 158.144531 248.496094 157.882812 247.113281 157.597656 C 244.335938 157.089844 241.585938 156.484375 238.859375 155.835938 C 236.144531 155.15625 233.460938 154.371094 230.929688 153.347656 C 229.664062 152.835938 228.445312 152.253906 227.34375 151.578125 C 226.238281 150.914062 225.269531 150.105469 224.652344 149.277344 L 224.597656 149.203125 C 224.292969 148.796875 223.804688 148.535156 223.257812 148.53125 C 222.328125 148.527344 221.570312 149.28125 221.566406 150.210938 Z M 264.386719 135.914062 C 264.703125 135.921875 265.023438 135.878906 265.34375 135.800781 L 265.816406 135.667969 C 265.972656 135.625 266.128906 135.460938 266.257812 134.855469 C 266.085938 134.246094 265.941406 134.085938 265.796875 134.039062 L 265.363281 133.90625 C 265.078125 133.84375 264.796875 133.777344 264.515625 133.730469 C 263.949219 133.65625 263.382812 133.597656 262.828125 133.433594 C 261.722656 133.105469 260.671875 132.628906 259.601562 132.246094 C 258.550781 131.824219 257.421875 131.613281 256.3125 131.273438 C 255.761719 131.105469 255.21875 130.902344 254.648438 130.757812 C 254.363281 130.675781 254.070312 130.621094 253.773438 130.558594 L 253.324219 130.476562 C 253.183594 130.429688 252.984375 130.507812 252.5 131.019531 C 252.273438 131.683594 252.335938 131.914062 252.457031 132.015625 L 252.796875 132.367188 C 253.03125 132.597656 253.273438 132.8125 253.527344 133.003906 C 254.035156 133.394531 254.59375 133.6875 255.144531 134.003906 C 256.253906 134.609375 257.394531 135.214844 258.652344 135.476562 C 259.890625 135.792969 261.203125 135.8125 262.476562 135.847656 C 263.117188 135.859375 263.746094 135.933594 264.386719 135.914062 Z M 225.359375 124.585938 C 225.160156 124.46875 224.941406 124.363281 224.695312 124.253906 C 224.585938 124.195312 224.5 124.125 224.390625 124.054688 C 224.304688 123.96875 224.105469 123.976562 223.398438 124.140625 C 222.863281 124.566406 222.828125 124.832031 222.90625 125.007812 C 222.972656 125.191406 223.035156 125.398438 223.121094 125.578125 C 223.316406 125.898438 223.535156 126.234375 223.785156 126.539062 C 224.046875 126.796875 224.324219 127.046875 224.617188 127.277344 C 224.910156 127.488281 225.210938 127.667969 225.515625 127.859375 C 226.726562 128.5625 227.976562 129.140625 229.285156 129.339844 C 230.578125 129.578125 231.894531 129.546875 233.175781 129.554688 C 233.816406 129.546875 234.445312 129.617188 235.082031 129.621094 C 235.402344 129.621094 235.71875 129.59375 236.039062 129.539062 L 236.523438 129.433594 C 236.683594 129.394531 236.851562 129.242188 237.023438 128.636719 C 236.886719 128.027344 236.746094 127.855469 236.597656 127.804688 L 236.152344 127.648438 C 235.855469 127.5625 235.558594 127.480469 235.261719 127.4375 C 234.660156 127.339844 234.0625 127.28125 233.472656 127.128906 C 232.300781 126.824219 231.171875 126.375 230.054688 126.0625 C 228.957031 125.695312 227.832031 125.527344 226.800781 125.183594 C 226.558594 125.085938 226.296875 125.003906 226.058594 124.898438 C 225.839844 124.78125 225.609375 124.679688 225.359375 124.585938 Z M 239.410156 141.601562 L 239.65625 140.890625 C 240.03125 139.933594 240.539062 138.941406 241.113281 137.96875 C 242.28125 136.03125 243.453125 133.996094 244.765625 132.03125 L 246.765625 129.089844 C 247.101562 128.597656 247.414062 128.085938 247.734375 127.578125 L 248.203125 126.804688 C 248.371094 126.558594 248.449219 126.238281 248.132812 125.550781 C 247.410156 125.308594 247.089844 125.441406 246.867188 125.648438 L 246.164062 126.246094 C 245.703125 126.652344 245.253906 127.070312 244.820312 127.507812 C 243.960938 128.375 243.171875 129.308594 242.386719 130.253906 C 240.828125 132.148438 239.265625 134.085938 238.144531 136.386719 C 237.847656 136.9375 237.617188 137.566406 237.359375 138.152344 C 237.144531 138.785156 236.929688 139.402344 236.785156 140.089844 L 236.605469 141.132812 C 236.578125 141.507812 236.589844 141.90625 236.589844 142.285156 C 236.636719 143.027344 236.785156 143.679688 237.007812 144.359375 C 237.410156 145.707031 238.179688 146.976562 239.21875 147.910156 C 239.738281 148.378906 240.328125 148.75 240.953125 149.019531 C 241.265625 149.152344 241.589844 149.257812 241.910156 149.347656 C 242.230469 149.433594 242.625 149.414062 243.078125 148.894531 C 242.949219 148.230469 242.78125 147.992188 242.546875 147.847656 C 242.316406 147.703125 242.097656 147.539062 241.890625 147.375 C 241.464844 147.054688 241.085938 146.695312 240.742188 146.332031 C 240.386719 145.972656 240.105469 145.558594 239.851562 145.136719 C 239.636719 144.6875 239.460938 144.226562 239.367188 143.730469 C 239.285156 143.253906 239.25 142.699219 239.300781 142.246094 Z M 239.296875 118.914062 C 239.03125 118.71875 238.753906 118.570312 238.460938 118.433594 C 237.875 118.1875 237.269531 118.019531 236.683594 117.832031 C 235.507812 117.425781 234.316406 117.066406 233.109375 116.949219 C 231.902344 116.785156 230.699219 116.976562 229.523438 117.152344 C 228.933594 117.246094 228.34375 117.324219 227.765625 117.496094 C 227.476562 117.574219 227.191406 117.6875 226.910156 117.800781 L 226.484375 117.996094 C 226.34375 118.039062 226.214844 118.222656 226.160156 118.925781 C 226.394531 119.585938 226.550781 119.738281 226.691406 119.746094 L 227.121094 119.847656 C 227.410156 119.90625 227.695312 119.960938 227.976562 119.996094 C 228.542969 120.070312 229.097656 120.074219 229.65625 120.121094 C 230.769531 120.1875 231.863281 120.363281 232.949219 120.3125 C 234.03125 120.308594 235.128906 120.15625 236.199219 120.226562 C 236.742188 120.234375 237.242188 120.390625 237.746094 120.503906 C 237.988281 120.574219 238.257812 120.601562 238.515625 120.640625 L 238.90625 120.695312 C 239.042969 120.714844 239.226562 120.625 239.671875 120.171875 C 239.855469 119.585938 239.785156 119.367188 239.667969 119.253906 Z M 254.175781 123.523438 L 254.621094 123.640625 C 254.917969 123.710938 255.210938 123.78125 255.5 123.839844 L 257.21875 124.144531 C 258.351562 124.367188 259.40625 124.761719 260.488281 124.984375 C 261.5625 125.242188 262.652344 125.503906 263.6875 125.96875 C 263.933594 126.097656 264.183594 126.234375 264.425781 126.382812 C 264.648438 126.546875 264.859375 126.730469 265.09375 126.890625 C 265.332031 127.050781 265.566406 127.207031 265.804688 127.378906 L 266.191406 127.605469 C 266.324219 127.683594 266.542969 127.679688 267.117188 127.410156 C 267.484375 126.910156 267.492188 126.679688 267.414062 126.527344 L 267.175781 126.070312 C 267.007812 125.769531 266.804688 125.488281 266.554688 125.261719 C 266.316406 125.019531 266.066406 124.789062 265.8125 124.5625 C 265.542969 124.355469 265.277344 124.144531 265.015625 123.921875 C 263.960938 123.066406 262.800781 122.21875 261.496094 121.773438 C 260.210938 121.265625 258.820312 121.183594 257.484375 121.183594 C 256.8125 121.195312 256.144531 121.199219 255.484375 121.332031 C 255.15625 121.386719 254.828125 121.480469 254.503906 121.585938 L 254.023438 121.765625 C 253.863281 121.808594 253.703125 121.992188 253.636719 122.695312 C 253.882812 123.355469 254.027344 123.507812 254.175781 123.523438 Z M 285.246094 302.460938 C 282.164062 302.609375 279.082031 302.761719 276 302.960938 C 273.53125 303.09375 271.066406 303.265625 268.601562 303.460938 L 264.902344 303.738281 C 263.667969 303.804688 262.4375 303.96875 261.230469 304.761719 C 262.492188 305.46875 263.730469 305.542969 264.964844 305.519531 L 268.675781 305.535156 C 271.148438 305.550781 273.621094 305.546875 276.089844 305.507812 C 278.953125 305.484375 281.8125 305.425781 284.671875 305.355469 C 284.859375 304.382812 285.050781 303.417969 285.246094 302.460938 Z M 322.214844 327.753906 L 322.105469 302.613281 L 322.105469 302.59375 C 322.09375 301.714844 321.367188 301.011719 320.488281 301.027344 L 320.429688 301.027344 C 315.488281 301.109375 310.550781 301.3125 305.613281 301.472656 L 290.804688 302.1875 C 289.730469 302.246094 288.652344 302.296875 287.578125 302.347656 C 287.378906 303.324219 287.183594 304.3125 286.984375 305.304688 C 288.296875 305.277344 289.605469 305.242188 290.914062 305.21875 L 305.734375 304.875 C 310.136719 304.707031 314.535156 304.558594 318.933594 304.335938 L 319.824219 327.804688 L 320.210938 340.367188 C 320.273438 342.460938 320.378906 344.554688 320.503906 346.644531 C 320.710938 348.738281 320.410156 350.839844 321.546875 352.910156 C 322.597656 350.792969 322.210938 348.707031 322.328125 346.609375 C 322.363281 344.511719 322.382812 342.414062 322.355469 340.320312 Z M 268.65625 355.425781 C 266.902344 354.777344 265.148438 354.078125 263.4375 353.355469 C 263.40625 350.359375 263.300781 347.359375 263.242188 344.363281 L 262.972656 334.246094 C 262.898438 330.871094 262.769531 327.5 262.636719 324.128906 L 262.359375 319.070312 C 262.175781 317.386719 262.507812 315.695312 261.328125 314.023438 C 260.183594 315.722656 260.554688 317.402344 260.40625 319.09375 L 260.238281 324.152344 C 260.175781 327.527344 260.117188 330.902344 260.113281 334.273438 L 260.0625 344.394531 C 260.066406 347.769531 260 351.144531 260.058594 354.515625 L 260.058594 354.550781 C 260.074219 355.183594 260.449219 355.78125 261.070312 356.050781 C 263.21875 356.976562 265.332031 357.808594 267.5 358.589844 C 269.671875 359.335938 271.847656 360.058594 274.0625 360.683594 C 274.398438 360.78125 274.746094 360.867188 275.085938 360.964844 C 275.261719 359.929688 275.433594 358.898438 275.605469 357.863281 C 275.398438 357.796875 275.191406 357.738281 274.984375 357.671875 C 272.855469 356.996094 270.75 356.222656 268.65625 355.425781 Z M 310.617188 357.265625 C 309.558594 357.640625 308.492188 357.992188 307.429688 358.339844 C 305.292969 359.011719 303.160156 359.679688 300.992188 360.164062 C 298.835938 360.667969 296.652344 361.070312 294.472656 361.191406 C 293.382812 361.277344 292.292969 361.214844 291.207031 361.210938 C 290.113281 361.097656 289.019531 361.042969 287.929688 360.859375 C 284.511719 360.351562 281.125 359.523438 277.773438 358.53125 C 277.605469 359.546875 277.4375 360.554688 277.269531 361.5625 C 280.65625 362.425781 284.109375 363.082031 287.621094 363.441406 C 288.773438 363.582031 289.953125 363.59375 291.117188 363.65625 C 292.300781 363.628906 293.476562 363.664062 294.648438 363.539062 C 296.992188 363.332031 299.28125 362.890625 301.527344 362.328125 C 303.765625 361.742188 305.960938 361.03125 308.09375 360.175781 C 309.160156 359.757812 310.207031 359.285156 311.25 358.808594 C 312.296875 358.351562 313.308594 357.796875 314.058594 356.695312 C 312.738281 356.519531 311.671875 356.867188 310.617188 357.265625 Z M 276.140625 205.421875 C 276.210938 204.492188 275.519531 203.6875 274.59375 203.609375 C 273.683594 203.535156 272.851562 204.230469 272.777344 205.15625 C 272.742188 205.550781 272.386719 209.269531 270.222656 213.886719 C 270.21875 213.828125 270.226562 213.765625 270.222656 213.707031 C 270.175781 213.015625 270.105469 212.324219 270.070312 211.632812 C 269.582031 213.046875 269.09375 214.464844 268.609375 215.875 C 268.675781 215.976562 268.804688 216.074219 269.035156 216.160156 C 264.835938 223.480469 255.96875 231.964844 237.304688 233.238281 C 217.925781 234.5625 207.867188 226.757812 202.808594 219.871094 C 203.050781 220.078125 203.277344 220.171875 203.46875 220.179688 C 203.648438 220.179688 203.785156 220.128906 203.890625 220.039062 C 204.109375 219.878906 204.300781 219.714844 204.484375 219.546875 C 204.835938 219.207031 205.15625 218.855469 205.429688 218.484375 C 205.988281 217.753906 206.414062 216.972656 206.84375 216.203125 C 207.679688 214.652344 208.492188 213.105469 209 211.453125 C 209.550781 209.8125 209.902344 208.117188 210.292969 206.441406 C 210.484375 205.601562 210.761719 204.789062 210.976562 203.960938 C 211.085938 203.546875 211.164062 203.125 211.226562 202.695312 L 211.289062 202.042969 C 211.3125 201.824219 211.226562 201.574219 210.699219 201.191406 C 210.050781 201.214844 209.839844 201.371094 209.734375 201.558594 L 209.421875 202.125 C 209.222656 202.507812 209.042969 202.894531 208.890625 203.289062 C 208.585938 204.078125 208.324219 204.882812 207.976562 205.660156 C 207.277344 207.207031 206.496094 208.71875 205.851562 210.269531 C 205.160156 211.800781 204.714844 213.414062 204.140625 214.96875 C 203.859375 215.742188 203.535156 216.492188 203.253906 217.238281 L 202.824219 218.328125 C 202.757812 218.503906 202.683594 218.675781 202.609375 218.824219 C 202.5625 218.882812 202.554688 218.984375 202.574219 219.128906 L 202.753906 219.800781 C 199.238281 214.988281 198.160156 210.644531 198.058594 210.207031 C 197.851562 209.300781 196.949219 208.726562 196.042969 208.9375 C 195.132812 209.144531 194.5625 210.046875 194.769531 210.957031 C 194.832031 211.226562 201.03125 236.757812 233.140625 236.757812 C 234.554688 236.757812 236.019531 236.707031 237.535156 236.605469 C 273.496094 234.152344 276.117188 205.710938 276.140625 205.421875 Z M 219.109375 180.792969 C 218.765625 180.457031 218.363281 180.199219 217.578125 180.160156 C 217.367188 180.917969 217.570312 181.429688 217.863281 181.84375 C 218.15625 182.257812 218.457031 182.671875 218.777344 183.066406 C 219.425781 183.847656 220.113281 184.601562 220.871094 185.28125 C 222.371094 186.652344 224.03125 187.851562 225.769531 188.929688 C 229.222656 191.105469 233.191406 192.671875 237.347656 193.117188 C 241.5 193.613281 245.691406 192.929688 249.5625 191.675781 C 251.515625 191.070312 253.386719 190.277344 255.1875 189.363281 C 256.085938 188.902344 256.945312 188.367188 257.808594 187.859375 L 259.050781 187.003906 C 259.46875 186.734375 259.832031 186.355469 259.90625 185.515625 C 259.125 185.15625 258.632812 185.253906 258.191406 185.460938 L 256.855469 186.03125 C 255.949219 186.371094 255.058594 186.730469 254.171875 187.085938 C 252.367188 187.722656 250.582031 188.382812 248.742188 188.816406 C 245.085938 189.769531 241.339844 190.007812 237.667969 189.765625 C 233.996094 189.492188 230.339844 188.539062 226.984375 186.8125 C 225.324219 185.929688 223.753906 184.855469 222.308594 183.628906 C 221.574219 183.03125 220.863281 182.40625 220.15625 181.769531 C 219.800781 181.449219 219.449219 181.128906 219.109375 180.792969 Z M 219.039062 107.214844 C 221.738281 100.019531 230.445312 97.28125 236.808594 101.589844 C 242.058594 105.144531 248.363281 108.65625 254.351562 110.054688 C 259.851562 111.335938 265.539062 111.539062 270.628906 111.257812 C 278.730469 110.808594 284.839844 118.511719 282.632812 126.316406 L 279.21875 138.359375 L 284.246094 156.347656 C 284.246094 156.347656 296.460938 139.742188 304.152344 122.816406 C 310.105469 109.722656 310.128906 102.699219 308.914062 93.652344 C 305.9375 71.429688 273.863281 57.339844 265.660156 52.578125 C 257.460938 47.816406 238.675781 54.628906 234.710938 59.128906 C 230.742188 63.625 203.425781 60.910156 203.160156 68.847656 C 202.898438 76.785156 198.003906 133.070312 198.003906 133.070312 L 213.609375 121.691406 Z M 295.917969 284.789062 Z M 294.539062 284.128906 Z M 308.917969 289.890625 L 308.011719 291.777344 L 309.84375 291.496094 L 309.386719 292.4375 L 311.21875 292.160156 L 310.296875 290.554688 L 309.84375 291.496094 Z M 310.765625 293.101562 L 311.675781 293.542969 L 312.585938 291.65625 L 311.671875 291.214844 Z M 307.699219 280.039062 L 306.785156 279.597656 L 305.628906 282.007812 L 306.539062 282.449219 Z M 304.617188 284.53125 C 302.484375 283.503906 299.921875 284.398438 298.894531 286.535156 C 297.867188 288.667969 298.761719 291.230469 300.898438 292.257812 C 303.03125 293.285156 305.59375 292.390625 306.621094 290.253906 C 307.648438 288.121094 306.753906 285.558594 304.617188 284.53125 Z M 301.3125 293.761719 L 297.632812 294.324219 L 299.484375 297.554688 Z M 296.839844 286.394531 L 297.746094 284.511719 L 295.917969 284.789062 L 296.371094 283.847656 L 294.539062 284.128906 L 294.996094 283.183594 L 294.082031 282.746094 L 293.171875 284.628906 L 294.085938 285.070312 L 294.539062 284.128906 L 295.464844 285.734375 L 295.917969 284.789062 Z M 304.132812 281.289062 L 305.042969 281.726562 L 306.203125 279.316406 L 305.289062 278.878906 Z M 308.433594 276.59375 C 314.308594 279.417969 318.074219 287.890625 315.246094 293.761719 C 312.417969 299.632812 302.242188 303.023438 296.371094 300.195312 C 290.5 297.371094 288.445312 288.617188 291.273438 282.746094 C 294.101562 276.871094 302.5625 273.765625 308.433594 276.59375 Z M 371.074219 56.535156 C 370.886719 56.089844 370.695312 55.644531 370.515625 55.195312 C 370.054688 54.03125 369.617188 52.855469 369.242188 51.660156 L 369.144531 51.328125 C 368.589844 52.226562 368.039062 53.121094 367.550781 54.027344 C 367.285156 54.523438 367.046875 55.027344 366.839844 55.523438 C 366.941406 55.539062 367.046875 55.550781 367.148438 55.566406 C 367.84375 55.683594 368.53125 55.820312 369.210938 55.992188 C 369.839844 56.152344 370.460938 56.324219 371.074219 56.535156 Z M 397.433594 57.511719 C 397.382812 58.296875 397.078125 58.964844 396.722656 59.484375 C 396.367188 60.011719 395.953125 60.414062 395.523438 60.753906 C 393.800781 62.082031 391.855469 62.675781 389.808594 62.695312 C 388.890625 62.703125 387.933594 62.511719 387.050781 62.089844 C 386.925781 62.5 386.757812 62.90625 386.550781 63.289062 C 386.136719 64.058594 385.527344 64.675781 384.890625 65.1875 C 383.558594 66.132812 382.09375 66.5625 380.699219 66.730469 C 380.347656 66.757812 379.996094 66.808594 379.648438 66.808594 L 379.128906 66.816406 C 378.945312 66.824219 378.582031 66.777344 378.324219 66.734375 C 377.257812 66.449219 376.652344 65.882812 376.128906 65.371094 C 375.09375 64.308594 374.425781 63.1875 373.773438 62.0625 C 373.125 60.921875 372.539062 59.769531 371.996094 58.609375 C 371.9375 58.613281 371.875 58.621094 371.816406 58.621094 L 370.820312 58.53125 L 368.828125 58.382812 L 366.851562 58.257812 C 366.203125 58.21875 365.523438 58.1875 364.917969 58.1875 C 364.152344 58.1875 363.53125 57.566406 363.527344 56.800781 L 363.527344 56.765625 L 363.53125 56.746094 C 363.542969 56.332031 363.570312 56.234375 363.601562 56.015625 C 363.632812 55.820312 363.671875 55.648438 363.710938 55.472656 C 363.796875 55.132812 363.886719 54.804688 363.992188 54.488281 C 364.195312 53.855469 364.429688 53.253906 364.683594 52.667969 C 365.179688 51.488281 365.75 50.371094 366.386719 49.300781 C 366.980469 48.289062 367.484375 47.390625 367.882812 46.398438 C 368.269531 45.425781 368.527344 44.425781 368.601562 43.464844 C 368.648438 42.519531 368.46875 41.605469 368.003906 41.046875 C 367.949219 40.972656 367.894531 40.898438 367.824219 40.847656 C 367.761719 40.785156 367.671875 40.714844 367.730469 40.742188 C 367.777344 40.742188 367.691406 40.6875 367.527344 40.707031 C 367.191406 40.734375 366.691406 40.921875 366.21875 41.15625 C 365.261719 41.640625 364.328125 42.335938 363.382812 43.007812 L 361.945312 44.027344 C 361.429688 44.34375 361.132812 44.867188 360.035156 44.597656 C 359.792969 43.484375 360.378906 43.191406 360.757812 42.703125 C 361.164062 42.238281 361.601562 41.804688 362.058594 41.382812 C 362.972656 40.542969 363.972656 39.792969 365.125 39.125 C 365.710938 38.796875 366.316406 38.46875 367.171875 38.308594 C 367.597656 38.242188 368.136719 38.195312 368.738281 38.433594 C 369.082031 38.574219 369.222656 38.695312 369.398438 38.8125 C 369.582031 38.929688 369.734375 39.070312 369.886719 39.21875 C 371.125 40.40625 371.546875 42 371.636719 43.429688 C 371.734375 45.585938 371.128906 47.585938 370.265625 49.34375 L 371.011719 50.984375 L 372.519531 54.34375 C 373.527344 56.570312 374.574219 58.792969 375.859375 60.796875 C 376.511719 61.769531 377.226562 62.738281 377.988281 63.398438 C 378.351562 63.734375 378.769531 63.957031 378.925781 63.949219 C 378.976562 63.929688 378.921875 63.949219 379.046875 63.9375 L 379.453125 63.898438 C 379.726562 63.882812 379.988281 63.820312 380.253906 63.78125 C 381.300781 63.59375 382.253906 63.183594 382.917969 62.648438 C 383.550781 62.085938 383.898438 61.453125 383.925781 60.59375 C 383.984375 59.726562 383.742188 58.792969 383.339844 57.703125 L 382.058594 54.261719 C 381.199219 51.960938 380.289062 49.664062 379.371094 47.371094 C 378.453125 45.078125 377.492188 42.796875 376.597656 40.488281 C 376.132812 39.339844 375.703125 38.179688 375.265625 37.015625 L 374.628906 35.265625 C 374.398438 34.691406 374.28125 34.066406 374.652344 33.210938 C 375.542969 33.480469 375.945312 33.980469 376.230469 34.53125 L 377.140625 36.160156 C 377.734375 37.257812 378.324219 38.351562 378.875 39.46875 C 380.007812 41.679688 381.050781 43.9375 382.097656 46.195312 C 383.144531 48.453125 384.171875 50.722656 385.148438 53.023438 C 385.648438 54.171875 386.113281 55.339844 386.550781 56.523438 C 386.917969 57.519531 387.253906 58.710938 387.289062 59.988281 C 387.394531 60.035156 387.5 60.082031 387.609375 60.117188 C 388.242188 60.316406 388.964844 60.324219 389.6875 60.242188 C 391.125 60.050781 392.644531 59.410156 393.636719 58.519531 C 394.136719 58.085938 394.375 57.550781 394.332031 57.371094 C 394.316406 57.171875 394.265625 56.773438 394.179688 56.386719 C 394.105469 56 394.011719 55.589844 393.910156 55.183594 L 392.621094 50.1875 L 390.152344 40.015625 C 389.71875 38.324219 389.230469 36.644531 388.746094 34.964844 C 388.503906 34.125 388.296875 33.273438 388.101562 32.417969 L 387.835938 31.128906 C 387.738281 30.699219 387.75 30.238281 388.214844 29.628906 C 388.945312 29.855469 389.222656 30.226562 389.394531 30.632812 L 389.917969 31.847656 C 390.25 32.660156 390.5625 33.480469 390.84375 34.3125 C 391.398438 35.976562 391.9375 37.644531 392.519531 39.300781 C 393.703125 42.609375 394.914062 45.910156 395.890625 49.308594 C 396.378906 51.007812 396.820312 52.71875 397.125 54.507812 C 397.203125 54.957031 397.277344 55.410156 397.339844 55.886719 C 397.398438 56.359375 397.460938 56.835938 397.433594 57.511719 Z M 73.335938 149 C 73.585938 148.960938 73.910156 148.9375 74.09375 148.867188 C 74.925781 148.628906 75.664062 148.3125 76.382812 147.972656 C 77.816406 147.296875 79.09375 146.425781 80.328125 145.484375 C 82.757812 143.566406 84.832031 141.121094 86.136719 138.148438 C 86.773438 136.789062 87.15625 135.242188 87.160156 133.679688 L 87.5 133.148438 C 87.730469 132.734375 87.9375 132.3125 88.128906 131.878906 C 88.492188 131.015625 88.765625 130.121094 89.007812 129.234375 C 89.507812 127.453125 89.964844 125.667969 90.085938 123.847656 C 90.25 122.03125 90.195312 120.207031 90.160156 118.394531 C 90.144531 117.488281 90.210938 116.589844 90.210938 115.6875 C 90.214844 115.234375 90.175781 114.78125 90.128906 114.328125 L 90.019531 113.648438 C 89.984375 113.421875 89.835938 113.191406 89.226562 112.949219 C 88.609375 113.15625 88.445312 113.371094 88.394531 113.589844 L 88.234375 114.25 C 88.144531 114.6875 88.070312 115.128906 88.023438 115.570312 C 87.925781 116.453125 87.875 117.335938 87.726562 118.210938 C 87.636719 118.742188 87.53125 119.265625 87.425781 119.789062 C 87.179688 119.664062 86.933594 119.554688 86.683594 119.433594 C 85.972656 119.085938 85.265625 118.863281 84.550781 118.628906 C 83.117188 118.175781 81.671875 117.867188 80.230469 117.574219 C 77.347656 116.980469 74.46875 116.445312 71.554688 116.234375 C 68.644531 115.972656 65.722656 115.9375 62.8125 115.855469 L 58.457031 115.632812 C 57.730469 115.601562 57 115.601562 56.269531 115.625 L 55.175781 115.679688 C 54.808594 115.703125 54.433594 115.835938 54.035156 116.421875 C 54.359375 117.058594 54.707031 117.238281 55.066406 117.304688 L 56.140625 117.511719 C 56.855469 117.632812 57.574219 117.742188 58.292969 117.816406 C 59.730469 117.964844 61.171875 118.101562 62.605469 118.289062 C 65.472656 118.699219 68.328125 119.195312 71.1875 119.578125 C 74.039062 120 76.917969 120.164062 79.757812 120.507812 C 81.183594 120.65625 82.589844 120.882812 83.984375 121.070312 C 84.675781 121.183594 85.394531 121.242188 86.050781 121.390625 C 86.378906 121.453125 86.75 121.492188 87.050781 121.574219 C 87.0625 121.582031 87.078125 121.582031 87.089844 121.585938 C 86.96875 122.199219 86.84375 122.816406 86.746094 123.429688 C 86.445312 125.019531 86.351562 126.636719 86.148438 128.226562 C 85.925781 128.113281 85.703125 128.011719 85.476562 127.898438 C 84.773438 127.601562 84.0625 127.355469 83.34375 127.164062 C 81.914062 126.777344 80.472656 126.578125 79.042969 126.382812 C 76.175781 126.015625 73.316406 125.738281 70.460938 125.8125 C 67.605469 125.839844 64.761719 126.109375 61.929688 126.347656 L 57.679688 126.617188 C 56.96875 126.671875 56.265625 126.757812 55.558594 126.863281 L 54.503906 127.050781 C 54.152344 127.113281 53.804688 127.289062 53.488281 127.921875 C 53.878906 128.515625 54.234375 128.652344 54.589844 128.675781 L 55.652344 128.753906 C 56.359375 128.789062 57.0625 128.816406 57.769531 128.808594 C 59.175781 128.785156 60.585938 128.765625 61.992188 128.792969 L 70.421875 129.175781 C 73.21875 129.316406 76.015625 129.222656 78.78125 129.34375 C 80.167969 129.394531 81.539062 129.511719 82.890625 129.632812 C 83.445312 129.691406 83.988281 129.753906 84.53125 129.824219 C 84.457031 130.070312 84.464844 130.261719 84.523438 130.4375 L 84.652344 130.90625 C 84.671875 131.066406 84.671875 131.230469 84.683594 131.394531 L 84.757812 132.335938 C 84.710938 132.652344 84.691406 132.964844 84.664062 133.269531 C 84.488281 134.496094 84.136719 135.71875 83.46875 136.847656 C 82.226562 139.152344 80.195312 141.054688 78.1875 142.890625 C 77.148438 143.769531 76.074219 144.648438 74.9375 145.367188 C 74.375 145.726562 73.800781 146.050781 73.253906 146.289062 C 72.800781 146.421875 72.515625 146.550781 72.15625 146.363281 C 71.804688 146.171875 71.390625 145.8125 71.074219 145.269531 C 70.75 144.75 70.492188 144.140625 70.253906 143.503906 C 70.015625 142.875 69.804688 142.210938 69.585938 141.542969 L 69.269531 140.53125 C 69.167969 140.1875 68.96875 139.871094 68.320312 139.570312 C 67.75 140 67.644531 140.40625 67.660156 140.78125 C 67.671875 141.164062 67.695312 141.542969 67.730469 141.921875 C 67.820312 142.679688 67.941406 143.441406 68.175781 144.191406 C 68.390625 144.945312 68.6875 145.691406 69.101562 146.429688 C 69.484375 147.167969 70.074219 147.933594 70.964844 148.496094 C 71.203125 148.625 71.449219 148.746094 71.703125 148.859375 C 71.96875 148.929688 72.25 148.976562 72.53125 149.019531 C 72.816406 149.082031 73.070312 149.023438 73.335938 149 Z M 60.132812 107.5625 C 60.460938 106.957031 60.78125 106.808594 61.097656 106.773438 L 62.046875 106.667969 C 62.679688 106.621094 63.316406 106.589844 63.945312 106.59375 L 67.734375 106.65625 C 70.269531 106.640625 72.8125 106.601562 75.351562 106.796875 C 77.894531 106.953125 80.410156 107.453125 82.925781 108.066406 C 84.183594 108.386719 85.449219 108.714844 86.691406 109.25 C 87.308594 109.519531 87.921875 109.828125 88.519531 110.25 C 88.8125 110.441406 89.109375 110.714844 89.382812 110.980469 C 89.527344 111.128906 89.648438 111.308594 89.691406 111.53125 C 89.722656 111.792969 89.660156 112.097656 89.433594 112.375 C 89.035156 112.394531 88.796875 112.433594 88.652344 112.4375 C 88.464844 112.445312 88.355469 112.410156 88.269531 112.347656 C 88.039062 112.246094 87.824219 112.136719 87.550781 112.066406 C 87.042969 111.886719 86.46875 111.761719 85.898438 111.632812 C 84.75 111.382812 83.5625 111.152344 82.355469 110.980469 C 79.9375 110.632812 77.460938 110.507812 75.007812 110.144531 L 67.59375 109.097656 C 66.347656 108.960938 65.101562 108.871094 63.855469 108.78125 C 63.230469 108.730469 62.609375 108.652344 61.984375 108.5625 L 61.050781 108.398438 C 60.738281 108.347656 60.433594 108.183594 60.132812 107.5625"/></g><g id="change3_1"><path fill="#f93822" d="M 326.851562 64.492188 C 326.78125 65.359375 326.402344 65.5625 326.03125 65.78125 C 325.671875 66.015625 325.300781 66.242188 324.933594 66.460938 C 324.191406 66.894531 323.4375 67.3125 322.660156 67.675781 C 321.894531 68.054688 321.113281 68.410156 320.335938 68.769531 C 319.945312 68.941406 319.566406 69.144531 319.144531 69.253906 C 318.933594 69.3125 318.707031 69.328125 318.476562 69.34375 C 318.355469 69.335938 318.25 69.363281 318.113281 69.324219 C 317.972656 69.273438 317.785156 69.128906 317.53125 68.835938 C 317.46875 68.445312 317.476562 68.214844 317.53125 68.070312 C 317.589844 67.941406 317.675781 67.882812 317.75 67.78125 C 317.90625 67.613281 318.070312 67.453125 318.246094 67.328125 C 318.601562 67.074219 319 66.917969 319.386719 66.726562 C 320.160156 66.363281 320.933594 65.996094 321.71875 65.652344 C 322.496094 65.289062 323.296875 64.980469 324.109375 64.695312 C 324.515625 64.550781 324.925781 64.414062 325.335938 64.285156 C 325.742188 64.144531 326.140625 63.988281 326.851562 64.492188 Z M 337.046875 44.929688 C 336.449219 46.3125 335.425781 47.113281 334.402344 47.921875 L 331.355469 50.378906 C 329.304688 51.988281 327.265625 53.609375 325.167969 55.15625 L 318.90625 59.835938 C 317.863281 60.617188 316.820312 61.398438 315.734375 62.121094 C 315.191406 62.484375 314.621094 62.808594 314.042969 63.121094 C 313.453125 63.421875 312.972656 63.867188 311.964844 63.605469 C 312.003906 62.5625 312.566406 62.230469 313.023438 61.753906 C 313.492188 61.289062 313.964844 60.835938 314.46875 60.417969 C 315.472656 59.585938 316.519531 58.8125 317.566406 58.035156 L 323.84375 53.378906 C 325.925781 51.8125 328.066406 50.320312 330.195312 48.820312 L 333.421875 46.605469 C 334.488281 45.855469 335.550781 45.105469 337.046875 44.929688 Z M 188.003906 43.695312 C 187.742188 43.355469 187.46875 43.023438 187.730469 42.191406 C 188.578125 41.992188 188.886719 42.285156 189.210938 42.570312 C 189.546875 42.84375 189.875 43.125 190.195312 43.410156 C 190.839844 43.980469 191.46875 44.570312 192.050781 45.195312 C 192.648438 45.808594 193.226562 46.441406 193.808594 47.070312 C 194.09375 47.390625 194.40625 47.683594 194.636719 48.054688 C 194.757812 48.234375 194.84375 48.445312 194.929688 48.660156 C 194.960938 48.78125 195.019531 48.871094 195.023438 49.011719 C 195.019531 49.164062 194.9375 49.382812 194.738281 49.71875 C 194.386719 49.894531 194.164062 49.960938 194.011719 49.953125 C 193.871094 49.9375 193.785156 49.871094 193.671875 49.835938 C 193.460938 49.734375 193.257812 49.632812 193.085938 49.5 C 192.730469 49.242188 192.460938 48.910156 192.160156 48.605469 C 191.574219 47.976562 190.984375 47.355469 190.417969 46.714844 C 189.835938 46.089844 189.292969 45.421875 188.769531 44.738281 C 188.507812 44.398438 188.253906 44.050781 188.003906 43.695312 Z M 183.023438 58.886719 C 183.085938 59.027344 183.105469 59.257812 183.0625 59.648438 C 182.824219 59.957031 182.648438 60.109375 182.511719 60.171875 C 182.378906 60.21875 182.273438 60.191406 182.152344 60.207031 C 181.925781 60.210938 181.699219 60.203125 181.488281 60.15625 C 181.066406 60.078125 180.683594 59.894531 180.285156 59.746094 C 179.5 59.429688 178.710938 59.121094 177.933594 58.789062 C 177.148438 58.472656 176.382812 58.101562 175.628906 57.710938 C 175.25 57.515625 174.878906 57.3125 174.507812 57.097656 C 174.128906 56.902344 173.746094 56.722656 173.636719 55.859375 C 174.308594 55.316406 174.710938 55.449219 175.121094 55.570312 C 175.535156 55.671875 175.945312 55.78125 176.355469 55.902344 C 177.171875 56.144531 177.976562 56.402344 178.765625 56.71875 C 179.558594 57.015625 180.339844 57.339844 181.125 57.65625 C 181.515625 57.824219 181.917969 57.953125 182.277344 58.1875 C 182.460938 58.300781 182.628906 58.453125 182.792969 58.613281 C 182.871094 58.707031 182.960938 58.761719 183.023438 58.886719 Z M 189.394531 56.1875 C 188.808594 55.886719 188.226562 55.578125 187.675781 55.226562 C 186.574219 54.53125 185.515625 53.773438 184.453125 53.015625 L 178.089844 48.480469 C 175.953125 46.984375 173.878906 45.410156 171.789062 43.847656 L 168.691406 41.460938 C 167.648438 40.675781 166.605469 39.898438 165.976562 38.527344 C 167.476562 38.671875 168.554688 39.398438 169.640625 40.121094 L 172.914062 42.261719 C 175.078125 43.714844 177.253906 45.15625 179.371094 46.671875 L 185.753906 51.183594 C 186.816406 51.9375 187.882812 52.6875 188.90625 53.496094 C 189.417969 53.902344 189.902344 54.347656 190.378906 54.800781 C 190.847656 55.265625 191.417969 55.585938 191.480469 56.625 C 190.476562 56.910156 189.988281 56.476562 189.394531 56.1875 Z M 313.390625 293.515625 C 310.5625 299.386719 303.511719 301.851562 297.636719 299.027344 C 292.890625 296.738281 290.371094 291.6875 291.074219 286.734375 C 291.285156 285.894531 291.5 285.070312 291.714844 284.257812 C 291.839844 283.929688 291.972656 283.597656 292.128906 283.273438 C 294.953125 277.402344 302.007812 274.9375 307.878906 277.761719 C 313.75 280.589844 316.21875 287.644531 313.390625 293.515625 Z M 301.378906 261.3125 C 301.613281 261.078125 301.796875 260.917969 301.9375 260.8125 C 302.097656 262.183594 301.492188 265.925781 300.488281 269.539062 C 300.488281 269.550781 300.492188 269.558594 300.488281 269.566406 L 297.171875 267.96875 C 298.515625 265.050781 299.910156 262.777344 301.378906 261.3125 Z M 228.40625 204.53125 C 212.804688 186.964844 196.710938 168.816406 196.417969 141.953125 C 196.65625 142.035156 196.898438 142.113281 197.144531 142.179688 L 200.261719 142.960938 C 202.390625 143.492188 204.550781 142.199219 205.085938 140.070312 L 212.828125 109.21875 C 213.359375 107.085938 212.066406 104.925781 209.9375 104.394531 L 209.269531 104.226562 C 211.332031 98.636719 215.960938 89.246094 225.070312 83.628906 C 233.425781 78.480469 243.84375 77.507812 256.035156 80.730469 C 288.011719 89.1875 290.1875 115.910156 289.796875 126.15625 C 288.578125 126.546875 287.566406 127.515625 287.179688 128.835938 L 278.300781 159.378906 C 277.683594 161.488281 278.898438 163.695312 281.007812 164.308594 L 284.089844 165.203125 C 284.121094 165.214844 284.15625 165.21875 284.191406 165.230469 C 278.84375 179.910156 261.949219 226.675781 255.597656 248.65625 C 252.683594 231.875 240.839844 218.535156 228.40625 204.53125 Z M 322.304688 280.074219 L 302.46875 270.519531 C 302.550781 270.410156 302.617188 270.285156 302.65625 270.144531 C 304.535156 263.390625 304.683594 259.496094 303.105469 258.574219 C 301.738281 257.777344 300.269531 259.238281 299.785156 259.722656 C 298.019531 261.488281 296.367188 264.226562 294.804688 267.765625 C 293.714844 268.074219 292.699219 268.890625 292.121094 270.085938 L 276.164062 303.226562 L 285.144531 302.964844 C 282.453125 316.398438 279.925781 331.707031 277.34375 347.367188 C 270.492188 388.882812 262.734375 435.914062 251.882812 435.914062 C 251.835938 435.914062 251.789062 435.914062 251.746094 435.914062 C 250.59375 435.871094 249.570312 435.21875 248.609375 433.914062 C 234.996094 415.390625 249.792969 291.113281 255.667969 258.402344 C 256.019531 258.21875 256.261719 257.855469 256.269531 257.429688 C 256.28125 256.699219 256.277344 255.980469 256.261719 255.265625 C 256.546875 253.820312 256.804688 252.683594 257.023438 251.886719 C 262.710938 231.148438 281.066406 180.375 286.449219 165.597656 C 291.210938 165.859375 295.695312 162.839844 297.085938 158.066406 L 302.332031 140.019531 C 303.949219 134.460938 300.753906 128.640625 295.195312 127.023438 L 293.105469 126.417969 C 293.40625 115.441406 290.863281 86.453125 256.898438 77.46875 C 243.761719 73.996094 232.453125 75.109375 223.273438 80.773438 C 213.035156 87.097656 208.070312 97.4375 205.9375 103.4375 C 200.617188 102.574219 195.4375 105.90625 194.101562 111.230469 L 189.527344 129.457031 C 188.390625 133.988281 190.394531 138.566406 194.15625 140.90625 C 194.023438 169.1875 210.636719 187.90625 226.722656 206.027344 C 240.414062 221.445312 253.375 236.042969 254.003906 255.136719 C 248.640625 282.710938 231.914062 414.996094 246.800781 435.25 C 248.171875 437.113281 249.808594 438.09375 251.664062 438.160156 C 251.734375 438.164062 251.800781 438.164062 251.867188 438.164062 C 264.640625 438.164062 271.890625 394.230469 279.5625 347.730469 C 282.109375 332.296875 284.691406 316.652344 287.464844 302.898438 L 315.617188 302.089844 L 323.703125 285.292969 C 324.683594 283.265625 324.054688 280.914062 322.304688 280.074219"/></g><g id="change4_1"><path fill="#8c9cbc" d="M 293.285156 270.421875 C 292.949219 271.042969 292.636719 271.671875 292.367188 272.316406 C 291.832031 273.605469 291.386719 274.925781 290.949219 276.25 C 290.078125 278.898438 289.277344 281.570312 288.535156 284.261719 C 287.769531 286.941406 287.183594 289.675781 286.652344 292.414062 C 286.402344 293.789062 286.175781 295.164062 285.976562 296.546875 C 285.738281 297.917969 285.585938 299.316406 286.097656 300.792969 C 287.074219 299.539062 287.28125 298.1875 287.589844 296.84375 C 287.882812 295.5 288.203125 294.160156 288.550781 292.828125 C 289.207031 290.15625 289.941406 287.503906 290.671875 284.851562 C 291.410156 282.203125 292.210938 279.566406 293.082031 276.953125 C 293.519531 275.648438 293.964844 274.347656 294.363281 273.03125 C 294.566406 272.371094 294.722656 271.695312 294.878906 271.019531 C 295.015625 270.335938 295.328125 269.726562 294.828125 268.78125 C 293.816406 269.128906 293.628906 269.8125 293.285156 270.421875 Z M 390.933594 214.140625 C 390.878906 212.914062 390.714844 211.691406 390.519531 210.472656 C 390.0625 208.039062 389.410156 205.605469 388.085938 203.296875 C 387.714844 202.730469 387.347656 202.160156 386.8125 201.648438 C 386.589844 201.378906 386.277344 201.152344 385.949219 200.941406 L 385.46875 200.625 C 385.304688 200.53125 385.132812 200.492188 384.964844 200.429688 L 383.941406 200.085938 L 383.003906 199.90625 C 382.378906 199.777344 381.757812 199.671875 381.148438 199.609375 C 378.695312 199.273438 376.273438 199.140625 373.847656 198.984375 C 369 198.699219 364.160156 198.667969 359.324219 198.667969 L 352.070312 198.761719 C 349.65625 198.792969 347.234375 198.828125 344.828125 199.601562 C 347.246094 200.335938 349.65625 200.355469 352.066406 200.402344 L 359.296875 200.609375 C 364.113281 200.746094 368.929688 200.941406 373.722656 201.195312 C 376.109375 201.355469 378.515625 201.496094 380.847656 201.820312 C 381.441406 201.882812 382.007812 201.984375 382.5625 202.097656 L 383.40625 202.257812 L 384.097656 202.492188 C 384.957031 202.8125 385.585938 203.519531 386.160156 204.453125 C 387.246094 206.339844 387.882812 208.632812 388.449219 210.902344 C 388.726562 212.050781 388.992188 213.203125 389.246094 214.371094 C 389.515625 215.539062 389.570312 216.714844 390.464844 217.855469 C 391.191406 216.589844 390.988281 215.363281 390.933594 214.140625 Z M 304.886719 90.59375 C 304.714844 90.214844 304.511719 89.851562 304.277344 89.503906 C 304.066406 89.160156 303.808594 88.757812 302.964844 88.890625 C 302.566406 89.625 302.675781 89.890625 302.796875 90.222656 C 302.890625 90.554688 302.96875 90.890625 303.042969 91.226562 C 303.1875 91.898438 303.273438 92.578125 303.371094 93.257812 C 303.433594 93.941406 303.480469 94.636719 303.457031 95.332031 C 303.464844 95.683594 303.390625 96.027344 303.449219 96.386719 C 303.46875 96.566406 303.515625 96.75 303.578125 96.941406 C 303.625 97.035156 303.628906 97.128906 303.707031 97.230469 C 303.800781 97.339844 303.992188 97.460938 304.351562 97.617188 C 304.734375 97.589844 304.953125 97.527344 305.074219 97.445312 C 305.179688 97.363281 305.210938 97.265625 305.28125 97.175781 C 305.394531 96.992188 305.507812 96.804688 305.5625 96.609375 C 305.667969 96.214844 305.691406 95.8125 305.707031 95.40625 C 305.738281 94.59375 305.703125 93.773438 305.582031 92.964844 C 305.46875 92.148438 305.230469 91.347656 304.886719 90.59375 Z M 300.714844 83.230469 C 300.605469 82.945312 300.492188 82.65625 300.371094 82.378906 C 300.113281 81.816406 299.871094 81.246094 299.5625 80.714844 L 298.574219 79.15625 C 297.167969 77.148438 295.589844 75.253906 293.769531 73.632812 C 291.984375 71.976562 289.996094 70.5625 287.925781 69.324219 C 286.878906 68.722656 285.816406 68.152344 284.722656 67.640625 C 283.652344 67.109375 282.519531 66.609375 281.136719 66.863281 C 281.945312 68.003906 282.949219 68.511719 283.960938 69.09375 C 284.964844 69.671875 285.933594 70.304688 286.886719 70.960938 C 288.796875 72.261719 290.570312 73.722656 292.261719 75.261719 C 293.96875 76.789062 295.421875 78.5625 296.714844 80.414062 L 297.632812 81.84375 L 298.46875 83.316406 C 298.613281 83.558594 298.769531 83.800781 298.929688 84.035156 L 299.355469 84.78125 C 299.664062 85.273438 299.796875 85.816406 300.78125 86.109375 C 301.339844 85.304688 301.050781 84.742188 300.933594 84.136719 C 300.859375 83.839844 300.804688 83.527344 300.714844 83.230469 Z M 299.59375 132.34375 C 299.363281 131.90625 299.085938 131.5 298.753906 131.128906 C 298.398438 130.796875 298.121094 130.277344 297.210938 130.554688 C 296.953125 131.414062 297.167969 131.632812 297.289062 132.03125 L 297.632812 133.152344 C 297.84375 133.902344 298.074219 134.65625 298.183594 135.457031 C 298.425781 137.046875 298.425781 138.710938 298.234375 140.371094 C 298.15625 141.203125 297.992188 142.035156 297.886719 142.871094 L 297.367188 145.371094 C 297.15625 146.199219 296.980469 147.039062 296.742188 147.867188 C 296.476562 148.6875 296.214844 149.496094 296.613281 150.59375 C 297.617188 150.050781 297.957031 149.21875 298.292969 148.398438 C 298.636719 147.578125 298.921875 146.730469 299.238281 145.894531 C 299.78125 144.191406 300.242188 142.4375 300.449219 140.625 C 300.699219 138.820312 300.695312 136.953125 300.40625 135.089844 C 300.273438 134.160156 300.007812 133.222656 299.59375 132.34375 Z M 326.742188 146.675781 C 326.761719 146.003906 326.621094 145.34375 326.550781 144.679688 C 326.464844 144.011719 326.375 143.351562 326.175781 142.710938 L 325.664062 140.777344 C 325.429688 140.15625 325.1875 139.535156 324.929688 138.925781 L 324.550781 138.007812 C 324.402344 137.710938 324.234375 137.425781 324.078125 137.136719 L 323.128906 135.410156 C 322.453125 134.292969 321.652344 133.21875 320.363281 132.574219 C 320.425781 134.089844 321.113281 135.101562 321.691406 136.207031 L 322.460938 137.898438 C 322.585938 138.183594 322.71875 138.460938 322.835938 138.746094 L 323.117188 139.625 C 324.03125 141.921875 324.34375 144.367188 324.527344 146.773438 C 324.671875 149.199219 324.300781 151.636719 323.601562 153.960938 C 323.246094 155.121094 322.796875 156.25 322.324219 157.375 C 322.074219 157.933594 321.871094 158.515625 321.628906 159.085938 C 321.40625 159.679688 321.023438 160.117188 321.285156 161.113281 C 322.324219 161.09375 322.660156 160.472656 323.085938 159.964844 C 323.515625 159.449219 323.890625 158.894531 324.226562 158.3125 C 324.546875 157.726562 324.835938 157.121094 325.09375 156.507812 C 325.3125 155.875 325.574219 155.257812 325.753906 154.613281 C 326.511719 152.054688 326.90625 149.355469 326.742188 146.675781 Z M 333.222656 134.03125 L 332.636719 132.585938 L 331.96875 131.183594 C 331.546875 130.234375 331.015625 129.347656 330.527344 128.4375 C 330.027344 127.53125 329.464844 126.667969 328.855469 125.835938 C 328.203125 125.03125 327.472656 124.28125 326.597656 123.660156 C 326.839844 124.730469 327.261719 125.648438 327.703125 126.554688 C 328.105469 127.480469 328.648438 128.316406 329.085938 129.214844 C 329.511719 130.117188 329.980469 130.996094 330.339844 131.921875 L 330.910156 133.296875 L 331.394531 134.699219 C 332.71875 138.429688 333.371094 142.355469 333.386719 146.269531 C 333.414062 150.191406 332.648438 154.101562 331.257812 157.769531 C 330.558594 159.605469 329.710938 161.382812 328.773438 163.117188 C 328.324219 163.992188 327.828125 164.847656 327.34375 165.714844 C 326.855469 166.589844 326.21875 167.304688 326.148438 168.589844 C 327.445312 168.371094 328.046875 167.476562 328.734375 166.699219 C 329.414062 165.90625 330.039062 165.066406 330.601562 164.1875 C 331.726562 162.425781 332.621094 160.523438 333.359375 158.566406 C 334.832031 154.652344 335.640625 150.464844 335.605469 146.265625 C 335.601562 144.171875 335.414062 142.070312 334.972656 140.027344 C 334.570312 137.976562 334 135.960938 333.222656 134.03125 Z M 317.515625 140.054688 C 317.386719 139.578125 317.109375 139.15625 316.890625 138.714844 C 316.664062 138.277344 316.386719 137.871094 316.027344 137.519531 C 315.667969 137.179688 315.453125 136.714844 314.554688 136.816406 C 314.144531 137.679688 314.425781 137.980469 314.554688 138.40625 C 314.734375 138.796875 314.839844 139.214844 314.96875 139.613281 C 315.296875 140.386719 315.519531 141.1875 315.753906 141.992188 C 316.117188 143.632812 316.210938 145.339844 316.101562 147.058594 C 315.941406 148.777344 315.648438 150.5 315.195312 152.203125 C 314.988281 153.058594 314.730469 153.90625 314.4375 154.742188 C 314.128906 155.582031 313.800781 156.375 314.03125 157.523438 C 315.136719 157.078125 315.566406 156.214844 315.949219 155.371094 C 316.359375 154.527344 316.726562 153.664062 317.050781 152.78125 C 317.675781 151.007812 318.148438 149.15625 318.324219 147.246094 C 318.488281 145.335938 318.375 143.378906 317.941406 141.464844 Z M 175.609375 108.65625 C 175.121094 109.121094 174.683594 109.628906 174.285156 110.167969 C 173.902344 110.714844 173.546875 111.28125 173.21875 111.863281 C 172.929688 112.464844 172.59375 113.046875 172.347656 113.667969 C 171.296875 116.125 170.59375 118.757812 170.449219 121.4375 C 170.351562 122.105469 170.417969 122.777344 170.410156 123.445312 C 170.421875 124.117188 170.433594 124.785156 170.558594 125.445312 L 170.84375 127.421875 C 171.007812 128.066406 171.175781 128.710938 171.359375 129.347656 L 171.632812 130.300781 C 171.742188 130.613281 171.878906 130.914062 172 131.222656 L 172.75 133.046875 C 173.289062 134.234375 173.960938 135.394531 175.171875 136.183594 C 175.277344 134.667969 174.714844 133.582031 174.265625 132.421875 L 173.695312 130.648438 C 173.605469 130.355469 173.503906 130.0625 173.421875 129.765625 L 173.242188 128.859375 C 172.597656 126.472656 172.566406 124.007812 172.660156 121.597656 C 172.800781 119.171875 173.445312 116.792969 174.40625 114.566406 C 174.894531 113.453125 175.472656 112.382812 176.070312 111.316406 C 176.378906 110.792969 176.648438 110.238281 176.957031 109.699219 C 177.246094 109.136719 177.675781 108.742188 177.527344 107.726562 C 176.496094 107.625 176.089844 108.203125 175.609375 108.65625 Z M 167.242188 109.898438 C 168.144531 108.15625 169.191406 106.488281 170.320312 104.875 C 170.867188 104.054688 171.460938 103.265625 172.039062 102.457031 C 172.625 101.644531 173.339844 101.007812 173.554688 99.738281 C 172.242188 99.804688 171.542969 100.628906 170.773438 101.320312 C 170.003906 102.027344 169.289062 102.792969 168.628906 103.601562 C 167.308594 105.222656 166.203125 107.011719 165.246094 108.867188 C 163.332031 112.585938 162.046875 116.65625 161.601562 120.828125 C 161.359375 122.910156 161.308594 125.015625 161.511719 127.101562 C 161.675781 129.183594 162.011719 131.25 162.5625 133.257812 L 162.976562 134.757812 L 163.476562 136.230469 C 163.789062 137.21875 164.214844 138.164062 164.597656 139.121094 C 164.988281 140.078125 165.449219 141.003906 165.960938 141.898438 C 166.511719 142.773438 167.152344 143.601562 167.953125 144.316406 C 167.835938 143.230469 167.519531 142.265625 167.183594 141.316406 C 166.890625 140.351562 166.445312 139.457031 166.121094 138.515625 C 165.800781 137.570312 165.433594 136.644531 165.183594 135.683594 L 164.773438 134.253906 L 164.453125 132.804688 C 163.566406 128.945312 163.371094 124.96875 163.800781 121.078125 C 164.226562 117.183594 165.4375 113.386719 167.242188 109.898438 Z M 184.324219 112.121094 C 184.421875 113.292969 184.003906 114.042969 183.601562 114.839844 C 183.214844 115.636719 182.859375 116.449219 182.554688 117.277344 C 181.910156 118.914062 181.421875 120.59375 181.066406 122.28125 C 180.761719 123.976562 180.65625 125.683594 180.828125 127.351562 C 180.96875 128.179688 181.097656 129.003906 181.335938 129.804688 C 181.417969 130.21875 181.472656 130.644531 181.605469 131.054688 C 181.6875 131.492188 181.929688 131.820312 181.425781 132.632812 C 180.519531 132.628906 180.359375 132.144531 180.042969 131.765625 C 179.726562 131.375 179.496094 130.9375 179.320312 130.480469 C 179.15625 130.015625 178.929688 129.5625 178.855469 129.078125 L 178.59375 127.625 C 178.386719 125.675781 178.492188 123.71875 178.878906 121.839844 C 179.273438 119.960938 179.957031 118.175781 180.78125 116.488281 C 181.203125 115.644531 181.667969 114.832031 182.167969 114.039062 C 182.644531 113.246094 183.175781 112.4375 184.324219 112.121094"/></g></g></svg>