<?xml version="1.0" encoding="UTF-8"?><svg xmlns="http://www.w3.org/2000/svg" xmlns:xlink="http://www.w3.org/1999/xlink" contentScriptType="text/ecmascript" fill="#000000" width="378.2" zoomAndPan="magnify" contentStyleType="text/css" viewBox="-3.1 -4.0 378.2 504.0" height="504" preserveAspectRatio="xMidYMid meet" version="1"><defs><clipPath id="a"><path d="M 72 59 L 375.128906 59 L 375.128906 468 L 72 468 Z M 72 59"/></clipPath></defs><g><g id="change1_1"><path fill="#ffffff" d="M 347.761719 210.5 L 350.050781 212.023438 C 350.359375 212.417969 350.628906 212.828125 350.851562 213.253906 C 350.558594 213.113281 350.265625 212.972656 349.96875 212.835938 C 349.839844 212.761719 349.703125 212.683594 349.550781 212.597656 Z M 56.921875 297.394531 C 59.203125 308.886719 61.425781 321.421875 63.132812 333.058594 L 53.53125 316.867188 Z M 371.347656 182.027344 L 365.347656 179.027344 L 356.785156 185.441406 C 356.785156 185.441406 355.53125 192.972656 355.371094 193.296875 C 355.214844 193.621094 353.996094 197.757812 353.996094 197.757812 L 346.476562 197.21875 C 345.175781 196.644531 344.074219 196.207031 343.449219 196.085938 C 341.097656 195.640625 335.949219 195.75 334.941406 197.652344 C 333.96875 199.5 335.207031 203.230469 339.464844 205.292969 L 339.84375 207.753906 L 336.730469 208.453125 C 335.195312 208.28125 333.589844 208.199219 331.921875 208.289062 C 321.285156 208.847656 322.40625 212.429688 323.859375 213.996094 C 324.382812 214.558594 326.121094 215.296875 328.203125 216.113281 C 327.320312 216.945312 326.429688 217.824219 325.554688 218.730469 C 322.589844 217.839844 319.878906 217.132812 319.273438 217.132812 C 317.929688 217.132812 316.023438 222.28125 319.832031 223.960938 C 319.832031 223.960938 320.140625 224.140625 320.628906 224.445312 C 318.664062 227.066406 317.214844 229.621094 316.808594 231.738281 C 315.824219 236.886719 312.488281 241.664062 310.28125 244.371094 L 246.621094 275.226562 L 234.546875 250.496094 L 238.226562 249.707031 C 238.226562 249.707031 219.421875 180.304688 207.332031 170.003906 C 200.777344 164.421875 179.738281 151.464844 157.636719 140.84375 C 158.492188 136.152344 159.074219 131.15625 160.957031 127.769531 C 165.5 119.59375 170.953125 126.257812 180.339844 122.925781 C 183.847656 121.679688 188.289062 109.605469 192.472656 94.96875 C 195.976562 95.632812 200.828125 92.550781 201.84375 90.515625 C 202.527344 89.148438 200.222656 80.644531 198.082031 73.492188 C 202.523438 55.144531 205.78125 38.726562 205.78125 38.726562 C 203.054688 -3.980469 132.183594 16.3125 117.34375 27.820312 C 102.503906 39.332031 112.800781 71.738281 113.101562 89.003906 C 113.347656 102.851562 100.734375 116.886719 93.699219 126.125 C 79.191406 128.121094 55.636719 133.027344 34.949219 144.929688 C 2.261719 163.738281 -3.113281 247.019531 1.367188 250.152344 C 1.972656 250.578125 3.183594 250.917969 4.8125 251.203125 C 0.398438 275.675781 -2.078125 317.019531 4.5 337.355469 C 9.417969 352.558594 42.617188 393.804688 64.261719 419.683594 C 63.027344 450.984375 62.109375 485.402344 64.5 500 L 240.019531 500 L 239.382812 465.265625 C 239.382812 465.265625 248.277344 458.78125 248.097656 455.761719 C 245.722656 416.691406 231.714844 364.855469 229.722656 344.628906 C 229.425781 341.636719 229.09375 338.402344 228.738281 334.996094 C 229.800781 335.957031 230.945312 336.648438 232.183594 337.019531 C 250.089844 342.359375 316.1875 273.644531 324.644531 264.757812 C 329.8125 261.097656 336.144531 256.527344 339.308594 253.902344 C 340.53125 252.890625 342.183594 251.105469 344.019531 248.875 C 346.679688 246.527344 350.453125 241.976562 353.300781 240.078125 C 356.996094 237.617188 362.257812 232.691406 362.929688 231.460938 C 363.601562 230.226562 364.160156 211.757812 364.160156 211.757812 C 364.160156 211.757812 365.613281 209.742188 366.285156 207.394531 C 366.671875 206.039062 367.207031 198.234375 367.59375 191.851562 L 371.347656 182.027344"/></g><g id="change2_1"><path fill="#f93822" d="M 325.035156 234.824219 C 310.917969 247.945312 309.609375 278.867188 308.226562 311.601562 C 306.722656 347.179688 305.164062 383.964844 287.890625 405.949219 C 280.585938 415.242188 272.214844 420 263.332031 420 C 260.671875 420 257.960938 419.574219 255.222656 418.714844 C 229.621094 410.671875 207.613281 367.152344 205.765625 335.074219 C 203.0625 288.074219 171.328125 180.097656 158.039062 164.535156 C 145.246094 149.5625 144.929688 122.847656 144.71875 105.171875 C 144.695312 103.4375 144.679688 101.804688 144.648438 100.292969 C 144.324219 84.382812 132.882812 66.226562 132.765625 66.042969 C 132.402344 65.46875 132.570312 64.710938 133.144531 64.34375 C 133.71875 63.976562 134.480469 64.148438 134.84375 64.722656 C 135.332031 65.484375 146.769531 83.632812 147.109375 100.242188 C 147.140625 101.761719 147.160156 103.402344 147.183594 105.144531 C 147.390625 122.464844 147.699219 148.640625 159.910156 162.9375 C 173.378906 178.703125 205.503906 287.617188 208.226562 334.933594 C 210.027344 366.222656 231.273438 408.609375 255.960938 416.363281 C 266.933594 419.804688 277.023438 415.792969 285.953125 404.425781 C 302.734375 383.066406 304.273438 346.683594 305.765625 311.5 C 307.171875 278.242188 308.5 246.832031 323.359375 233.019531 C 323.855469 232.558594 324.636719 232.585938 325.097656 233.082031 C 325.5625 233.582031 325.535156 234.359375 325.035156 234.824219"/></g><g id="change3_1" clip-path="url(#a)"><path fill="#858e9c" d="M 146.753906 114.542969 L 145.414062 114.640625 C 144.40625 114.714844 143.648438 115.59375 143.722656 116.601562 L 144.828125 131.769531 C 144.902344 132.78125 145.78125 133.539062 146.789062 133.464844 L 148.128906 133.367188 C 149.136719 133.292969 149.894531 132.414062 149.820312 131.40625 L 148.714844 116.234375 C 148.640625 115.226562 147.761719 114.46875 146.753906 114.542969 Z M 133.308594 67.875 C 133.886719 68.335938 134.703125 68.351562 135.316406 67.933594 L 136.015625 67.457031 C 136.507812 67.121094 136.789062 66.550781 136.761719 65.953125 L 136.539062 61.628906 C 136.496094 60.808594 135.878906 60.140625 135.0625 60.019531 C 133.246094 59.75 130.316406 59.734375 130.316406 62.4375 C 130.316406 65.054688 132.113281 66.921875 133.308594 67.875 Z M 91.667969 167.609375 C 90.78125 167.113281 89.652344 167.429688 89.152344 168.320312 C 88.953125 168.679688 85.863281 174.253906 83.667969 180.578125 C 82.898438 174.960938 81.578125 169.75 79.519531 165.3125 C 79.089844 164.386719 77.992188 163.984375 77.0625 164.414062 C 76.136719 164.84375 75.734375 165.941406 76.164062 166.867188 C 88.269531 192.96875 72.953125 249.898438 72.792969 250.46875 C 72.527344 251.453125 73.105469 252.472656 74.089844 252.738281 C 74.253906 252.785156 74.417969 252.804688 74.578125 252.804688 C 75.390625 252.804688 76.136719 252.265625 76.359375 251.441406 C 76.835938 249.707031 84.972656 219.449219 84.53125 192.546875 C 84.921875 192.210938 85.171875 191.714844 85.171875 191.15625 C 85.171875 183.125 92.308594 170.253906 92.378906 170.125 C 92.878906 169.234375 92.558594 168.105469 91.667969 167.609375 Z M 218.339844 244.660156 C 214.820312 203.601562 195.964844 170.203125 195.777344 169.871094 C 195.269531 168.984375 194.140625 168.679688 193.253906 169.183594 C 192.367188 169.691406 192.0625 170.820312 192.566406 171.707031 C 192.753906 172.03125 211.203125 204.71875 214.65625 244.976562 C 218.144531 285.695312 225.175781 330.4375 225.246094 330.882812 C 225.390625 331.796875 226.175781 332.445312 227.070312 332.445312 C 227.164062 332.445312 227.261719 332.4375 227.359375 332.421875 C 228.367188 332.261719 229.058594 331.316406 228.898438 330.308594 C 228.828125 329.863281 221.816406 285.246094 218.339844 244.660156 Z M 146.789062 444.96875 L 145.292969 446.316406 C 144.289062 447.199219 143.375 448.171875 142.335938 449 C 141.292969 449.832031 140.238281 450.636719 139.222656 451.484375 L 137.691406 452.746094 L 136.035156 453.835938 L 132.742188 456.019531 C 131.597656 456.65625 130.417969 457.242188 129.261719 457.859375 L 127.519531 458.765625 L 125.714844 459.527344 C 124.5 460.007812 123.34375 460.644531 122.09375 461.027344 C 117.199219 462.878906 112.015625 463.988281 106.746094 464.324219 C 105.429688 464.453125 104.109375 464.339844 102.785156 464.347656 C 101.464844 464.320312 100.152344 464.125 98.832031 464.039062 C 97.527344 463.851562 96.207031 463.707031 94.90625 463.472656 C 94.246094 463.382812 93.597656 463.265625 92.949219 463.128906 C 92.289062 463.007812 91.636719 462.972656 90.765625 463.375 C 91.175781 464.234375 91.808594 464.625 92.460938 464.847656 C 93.117188 465.082031 93.773438 465.316406 94.441406 465.496094 C 95.773438 465.910156 97.140625 466.140625 98.507812 466.402344 C 101.25 466.792969 104.027344 467.011719 106.804688 466.996094 C 109.585938 467.046875 112.375 466.832031 115.144531 466.449219 C 116.519531 466.195312 117.902344 465.972656 119.273438 465.683594 L 123.3125 464.503906 C 123.992188 464.332031 124.636719 464.042969 125.28125 463.773438 L 127.222656 462.960938 L 129.152344 462.125 C 129.769531 461.796875 130.367188 461.425781 130.972656 461.082031 C 132.179688 460.367188 133.398438 459.683594 134.582031 458.945312 L 137.949219 456.46875 L 139.625 455.230469 L 141.164062 453.832031 C 142.199219 452.90625 143.195312 451.941406 144.203125 450.996094 C 145.214844 450.058594 146.023438 448.917969 146.921875 447.875 L 148.222656 446.269531 C 148.664062 445.746094 149.015625 445.132812 148.902344 444.144531 C 147.859375 444.136719 147.273438 444.507812 146.789062 444.96875 Z M 322.320312 225.5625 C 320.886719 227.371094 320.054688 228.527344 320.054688 228.773438 C 320.054688 229.894531 320.796875 230.925781 321.9375 231.496094 C 324.171875 232.613281 327.367188 233.875 329.03125 234.515625 C 329.492188 234.691406 329.988281 234.640625 330.40625 234.421875 C 329.632812 233.105469 328.992188 232.019531 328.5625 231.347656 C 327.171875 229.164062 324.378906 226.984375 322.320312 225.5625 Z M 329.683594 216.6875 C 328.910156 217.601562 328.167969 218.480469 327.460938 219.320312 C 330.449219 220.261719 333.300781 221.277344 334.160156 221.832031 C 334.996094 222.375 336.746094 223.914062 338.433594 225.382812 L 339.84375 223.757812 C 339.082031 222.632812 338.308594 221.523438 337.742188 220.714844 C 336.867188 219.464844 333.097656 218.003906 329.683594 216.6875 Z M 339.867188 205.488281 C 339.726562 205.429688 339.597656 205.359375 339.464844 205.292969 C 338.542969 206.355469 337.628906 207.414062 336.730469 208.453125 C 342.605469 209.125 347.324219 211.359375 349.550781 212.597656 L 350.050781 212.023438 C 347.90625 209.28125 343.808594 207.21875 339.867188 205.488281 Z M 374.714844 183.660156 L 367.59375 191.851562 C 367.875 187.148438 368.078125 183.214844 368.078125 183.214844 C 368.078125 183.214844 361.472656 180.863281 359.570312 189.59375 C 357.664062 198.324219 357.777344 201.683594 356.324219 201.570312 C 355.253906 201.488281 350.082031 198.8125 346.476562 197.21875 C 355.125 187.296875 363.101562 178.257812 365.347656 175.722656 C 365.742188 175.277344 366.335938 175.070312 366.917969 175.1875 C 367.90625 175.386719 369.4375 175.84375 370.429688 176.832031 C 371.480469 177.886719 373.492188 180.097656 374.699219 181.4375 C 375.265625 182.070312 375.273438 183.019531 374.714844 183.660156"/></g><g id="change4_1"><path fill="#f2da1c" d="M 223.511719 72.960938 C 222.988281 72.429688 222.492188 71.886719 221.910156 71.433594 C 221.613281 71.21875 221.292969 71.03125 220.960938 70.875 L 220.429688 70.699219 C 220.257812 70.640625 220.007812 70.691406 219.53125 71.175781 C 219.332031 71.839844 219.355469 72.070312 219.453125 72.191406 L 219.742188 72.554688 C 219.929688 72.796875 220.109375 73.027344 220.320312 73.226562 C 220.707031 73.652344 221.101562 74.070312 221.375 74.574219 C 221.929688 75.585938 222.148438 76.699219 222.359375 77.738281 C 222.511719 78.789062 222.773438 79.828125 222.757812 80.941406 C 222.746094 81.492188 222.660156 82.035156 222.613281 82.613281 C 222.5625 82.894531 222.546875 83.195312 222.519531 83.503906 L 222.460938 83.960938 C 222.417969 84.105469 222.515625 84.320312 223.089844 84.84375 C 223.816406 85.078125 224.0625 85.003906 224.171875 84.859375 L 224.566406 84.449219 C 224.796875 84.15625 225.011719 83.84375 225.207031 83.519531 C 225.570312 82.855469 225.792969 82.128906 225.980469 81.386719 C 226.324219 79.90625 226.433594 78.289062 225.925781 76.808594 C 225.472656 75.316406 224.535156 74.03125 223.511719 72.960938 Z M 233.75 65.222656 C 233.222656 64.632812 232.714844 64.023438 232.167969 63.457031 C 231.59375 62.921875 231.046875 62.351562 230.445312 61.84375 C 229.816406 61.367188 229.175781 60.910156 228.511719 60.496094 L 227.457031 59.976562 C 227.105469 59.804688 226.683594 59.730469 226.03125 60.105469 C 226.003906 60.890625 226.203125 61.230469 226.480469 61.46875 L 227.292969 62.175781 C 227.8125 62.675781 228.316406 63.179688 228.851562 63.636719 L 230.324219 65.160156 C 230.777344 65.699219 231.183594 66.28125 231.613281 66.835938 C 233.167969 69.191406 234.15625 71.835938 234.78125 74.503906 C 235.355469 77.183594 235.722656 79.933594 235.46875 82.707031 C 235.371094 83.390625 235.304688 84.085938 235.183594 84.773438 C 235.015625 85.449219 234.890625 86.140625 234.734375 86.828125 C 234.527344 87.496094 234.363281 88.191406 234.171875 88.882812 L 233.820312 89.902344 C 233.6875 90.234375 233.675781 90.628906 234.160156 91.34375 C 234.992188 91.394531 235.324219 91.125 235.535156 90.796875 L 236.21875 89.828125 C 236.613281 89.152344 236.976562 88.445312 237.332031 87.730469 C 237.644531 87.003906 237.890625 86.246094 238.144531 85.488281 C 238.355469 84.71875 238.511719 83.9375 238.691406 83.152344 C 239.269531 80.011719 239.277344 76.683594 238.347656 73.578125 C 237.464844 70.464844 235.800781 67.628906 233.75 65.222656 Z M 243.988281 57.480469 C 243.191406 56.570312 242.425781 55.632812 241.597656 54.753906 C 240.722656 53.921875 239.890625 53.039062 238.972656 52.261719 C 238.011719 51.53125 237.066406 50.78125 236.0625 50.117188 L 234.480469 49.25 C 233.953125 48.964844 233.359375 48.777344 232.527344 49.035156 C 232.675781 49.9375 233.054688 50.390625 233.503906 50.742188 L 234.84375 51.796875 C 235.691406 52.558594 236.53125 53.316406 237.386719 54.046875 L 239.757812 56.453125 C 240.488281 57.308594 241.152344 58.21875 241.855469 59.09375 C 244.421875 62.792969 246.152344 66.976562 247.203125 71.273438 C 248.203125 75.578125 248.671875 80.035156 248.183594 84.476562 C 248.007812 85.570312 247.878906 86.683594 247.664062 87.777344 C 247.367188 88.851562 247.167969 89.960938 246.867188 91.042969 C 246.492188 92.097656 246.183594 93.1875 245.824219 94.261719 L 245.183594 95.839844 C 244.949219 96.363281 244.839844 96.9375 245.230469 97.839844 C 246.15625 97.707031 246.585938 97.25 246.894531 96.738281 L 247.871094 95.210938 C 248.429688 94.144531 248.945312 93.050781 249.445312 91.941406 C 249.878906 90.8125 250.257812 89.652344 250.621094 88.492188 C 250.929688 87.316406 251.144531 86.113281 251.40625 84.921875 C 252.207031 80.113281 252.117188 75.078125 250.769531 70.34375 C 249.464844 65.605469 247.054688 61.226562 243.988281 57.480469 Z M 87.707031 70.128906 C 87.574219 69.855469 87.441406 69.589844 87.277344 69.355469 C 86.976562 68.863281 86.671875 68.378906 86.503906 67.828125 C 86.160156 66.726562 86.160156 65.59375 86.160156 64.53125 C 86.214844 63.472656 86.160156 62.398438 86.394531 61.3125 C 86.511719 60.773438 86.703125 60.257812 86.863281 59.699219 C 86.96875 59.4375 87.042969 59.144531 87.128906 58.847656 L 87.277344 58.410156 C 87.347656 58.273438 87.292969 58.046875 86.832031 57.421875 C 86.167969 57.046875 85.90625 57.074219 85.773438 57.195312 L 85.308594 57.519531 C 85.023438 57.761719 84.753906 58.023438 84.496094 58.304688 C 84.007812 58.882812 83.648438 59.554688 83.320312 60.246094 C 82.695312 61.628906 82.273438 63.195312 82.476562 64.746094 C 82.628906 66.296875 83.296875 67.738281 84.09375 68.992188 C 84.503906 69.617188 84.882812 70.242188 85.359375 70.804688 C 85.613281 71.070312 85.890625 71.316406 86.183594 71.535156 L 86.671875 71.8125 C 86.828125 71.902344 87.085938 71.902344 87.644531 71.519531 C 87.972656 70.910156 87.992188 70.679688 87.921875 70.539062 Z M 78.269531 78.828125 C 77.859375 78.238281 77.46875 77.644531 77.03125 77.089844 L 75.882812 75.308594 C 75.546875 74.6875 75.261719 74.039062 74.945312 73.414062 C 73.882812 70.796875 73.433594 68.011719 73.34375 65.269531 C 73.304688 62.53125 73.484375 59.765625 74.273438 57.09375 C 74.507812 56.441406 74.707031 55.769531 74.960938 55.121094 C 75.257812 54.492188 75.515625 53.839844 75.800781 53.195312 C 76.136719 52.578125 76.429688 51.933594 76.757812 51.289062 L 77.300781 50.359375 C 77.496094 50.058594 77.585938 49.675781 77.25 48.878906 C 76.445312 48.664062 76.066406 48.867188 75.796875 49.144531 L 74.933594 49.960938 C 74.414062 50.550781 73.917969 51.167969 73.433594 51.800781 C 72.984375 52.453125 72.59375 53.148438 72.195312 53.84375 C 71.839844 54.554688 71.53125 55.292969 71.199219 56.023438 C 70.023438 58.992188 69.359375 62.253906 69.664062 65.480469 C 69.917969 68.707031 70.996094 71.816406 72.535156 74.578125 C 72.941406 75.257812 73.320312 75.953125 73.742188 76.613281 C 74.203125 77.257812 74.628906 77.921875 75.117188 78.535156 C 75.640625 79.125 76.175781 79.699219 76.746094 80.234375 L 77.679688 80.953125 C 77.992188 81.191406 78.390625 81.34375 79.105469 81.105469 C 79.285156 80.339844 79.15625 79.96875 78.929688 79.679688 Z M 68.835938 87.523438 C 68.15625 86.613281 67.476562 85.707031 66.78125 84.824219 L 64.929688 81.996094 C 64.378906 81.019531 63.90625 79.992188 63.390625 78.996094 C 61.59375 74.867188 60.71875 70.425781 60.527344 66.007812 C 60.390625 61.589844 60.804688 57.128906 62.152344 52.867188 C 62.542969 51.828125 62.886719 50.765625 63.308594 49.730469 C 63.8125 48.734375 64.222656 47.6875 64.730469 46.6875 C 65.304688 45.726562 65.820312 44.71875 66.382812 43.730469 L 67.320312 42.3125 C 67.652344 41.84375 67.871094 41.300781 67.667969 40.339844 C 66.730469 40.289062 66.21875 40.652344 65.816406 41.097656 L 64.5625 42.402344 C 63.804688 43.335938 63.082031 44.3125 62.375 45.300781 C 61.730469 46.324219 61.132812 47.382812 60.546875 48.453125 C 60.019531 49.546875 59.570312 50.679688 59.082031 51.800781 C 57.351562 56.355469 56.457031 61.316406 56.847656 66.21875 C 57.203125 71.121094 58.707031 75.890625 60.980469 80.160156 C 61.585938 81.210938 62.152344 82.28125 62.789062 83.304688 C 63.488281 84.289062 64.128906 85.316406 64.878906 86.261719 C 65.675781 87.167969 66.457031 88.089844 67.308594 88.933594 L 68.695312 90.09375 C 69.152344 90.480469 69.703125 90.777344 70.566406 90.6875 C 70.597656 89.777344 70.316406 89.257812 69.945312 88.820312 Z M 47.167969 142.339844 L 46.566406 142.289062 C 46.160156 142.246094 45.765625 142.289062 45.367188 142.328125 C 44.554688 142.371094 43.800781 142.617188 43.019531 142.804688 C 41.507812 143.277344 40.019531 143.875 38.714844 144.757812 C 37.40625 145.625 36.257812 146.683594 35.15625 147.761719 C 34.597656 148.289062 34.035156 148.8125 33.5 149.363281 C 33.230469 149.636719 32.992188 149.9375 32.757812 150.246094 L 32.429688 150.730469 C 32.320312 150.890625 32.277344 151.117188 32.484375 151.550781 C 32.9375 151.703125 33.148438 151.65625 33.296875 151.542969 L 33.746094 151.214844 C 34.042969 150.992188 34.328125 150.761719 34.605469 150.519531 C 35.152344 150.035156 35.710938 149.5625 36.300781 149.128906 C 37.503906 148.285156 38.769531 147.566406 40.003906 146.847656 C 41.265625 146.175781 42.464844 145.425781 43.757812 144.84375 C 44.410156 144.597656 45.066406 144.320312 45.738281 144.121094 C 46.074219 144.011719 46.40625 143.859375 46.75 143.78125 L 47.269531 143.625 C 47.445312 143.589844 47.609375 143.449219 47.777344 142.929688 C 47.574219 142.445312 47.363281 142.34375 47.167969 142.339844 Z M 22.375 164.9375 C 21.632812 165.894531 20.953125 166.902344 20.367188 167.957031 C 19.164062 170.050781 18.230469 172.265625 17.398438 174.496094 C 15.722656 178.964844 14.464844 183.554688 13.53125 188.195312 C 12.632812 192.84375 11.964844 197.523438 11.453125 202.210938 C 11.175781 204.554688 10.898438 206.894531 10.671875 209.238281 C 10.566406 210.414062 10.464844 211.585938 10.421875 212.765625 L 10.34375 214.535156 C 10.324219 215.121094 10.390625 215.722656 10.792969 216.339844 C 11.28125 215.789062 11.449219 215.21875 11.527344 214.636719 L 11.777344 212.894531 C 11.957031 211.738281 12.101562 210.574219 12.253906 209.414062 C 12.546875 207.09375 12.847656 204.769531 13.21875 202.457031 C 14.011719 197.84375 14.894531 193.25 15.933594 188.703125 C 16.957031 184.160156 17.996094 179.617188 19.441406 175.21875 C 20.160156 173.019531 21.003906 170.871094 21.980469 168.800781 C 22.488281 167.777344 22.996094 166.75 23.59375 165.78125 C 23.867188 165.277344 24.226562 164.847656 24.539062 164.371094 C 24.882812 163.917969 25.199219 163.476562 25.253906 162.671875 C 24.507812 162.730469 23.957031 163.085938 23.558594 163.542969 C 23.167969 164.007812 22.722656 164.441406 22.375 164.9375 Z M 111.5 74.613281 C 111.40625 74.175781 111.261719 73.757812 111.132812 73.332031 C 110.867188 72.484375 110.640625 71.621094 110.222656 70.84375 C 109.832031 70.050781 109.328125 69.304688 108.871094 68.539062 C 108.652344 68.152344 108.460938 67.757812 108.265625 67.359375 C 108.160156 67.164062 108.035156 66.976562 107.902344 66.796875 L 107.683594 66.53125 C 107.609375 66.441406 107.457031 66.386719 107.007812 66.460938 C 106.644531 66.734375 106.578125 66.882812 106.589844 66.996094 L 106.632812 67.339844 C 106.671875 67.5625 106.722656 67.78125 106.792969 67.992188 C 106.941406 68.40625 107.097656 68.820312 107.230469 69.242188 C 107.464844 70.101562 107.65625 70.980469 107.964844 71.808594 C 108.238281 72.652344 108.710938 73.410156 109.136719 74.1875 C 109.359375 74.570312 109.558594 74.964844 109.8125 75.335938 C 109.9375 75.523438 110.082031 75.703125 110.226562 75.878906 L 110.453125 76.140625 C 110.515625 76.234375 110.671875 76.289062 111.179688 76.191406 C 111.597656 75.894531 111.664062 75.742188 111.640625 75.632812 L 111.609375 75.289062 C 111.578125 75.058594 111.546875 74.835938 111.5 74.613281 Z M 108.261719 29.765625 C 108.394531 29.617188 108.515625 29.457031 108.632812 29.285156 L 108.800781 29.019531 C 108.855469 28.933594 108.855469 28.78125 108.675781 28.363281 C 108.324219 28.070312 108.160156 28.050781 108.054688 28.09375 L 107.734375 28.234375 C 107.53125 28.339844 107.335938 28.460938 107.164062 28.601562 C 106.820312 28.886719 106.496094 29.195312 106.164062 29.5 C 105.480469 30.089844 104.796875 30.730469 104.28125 31.523438 C 103.738281 32.304688 103.496094 33.273438 103.347656 34.214844 C 103.289062 34.695312 103.226562 35.175781 103.300781 35.660156 C 103.3125 35.898438 103.363281 36.136719 103.445312 36.367188 L 103.570312 36.710938 C 103.59375 36.824219 103.722656 36.933594 104.226562 36.984375 C 104.71875 36.824219 104.839844 36.722656 104.855469 36.625 L 104.949219 36.335938 C 104.992188 36.148438 105.0625 35.964844 105.128906 35.78125 C 105.226562 35.421875 105.328125 35.070312 105.453125 34.726562 C 105.726562 34.039062 106.109375 33.425781 106.414062 32.746094 C 106.75 32.078125 107.0625 31.355469 107.5 30.683594 C 107.726562 30.355469 107.988281 30.058594 108.261719 29.765625 Z M 140.953125 5.933594 C 140.234375 5.976562 139.503906 5.953125 138.796875 6.105469 C 137.367188 6.328125 135.933594 6.570312 134.546875 7.007812 C 131.734375 7.730469 129.019531 8.871094 126.519531 10.363281 C 124.003906 11.839844 121.761719 13.726562 119.71875 15.765625 C 118.6875 16.773438 117.691406 17.816406 116.761719 18.917969 C 116.3125 19.484375 115.859375 20.042969 115.46875 20.65625 C 115.265625 20.953125 115.085938 21.269531 114.902344 21.582031 C 114.714844 21.890625 114.601562 22.265625 114.792969 22.800781 C 115.363281 22.742188 115.640625 22.53125 115.871094 22.269531 C 116.097656 22.007812 116.328125 21.75 116.566406 21.496094 L 117.957031 19.964844 C 118.445312 19.472656 118.902344 18.960938 119.394531 18.476562 C 119.90625 18.007812 120.394531 17.519531 120.925781 17.078125 C 123.039062 15.300781 125.351562 13.796875 127.75 12.488281 C 130.140625 11.183594 132.589844 9.941406 135.191406 9.078125 C 136.472656 8.574219 137.816406 8.285156 139.144531 7.894531 C 139.804688 7.691406 140.484375 7.5625 141.160156 7.402344 L 142.179688 7.171875 C 142.519531 7.105469 142.851562 6.945312 143.15625 6.394531 C 142.761719 5.9375 142.390625 5.867188 142.035156 5.894531 Z M 334.429688 186.378906 C 334.222656 186.195312 334.007812 186.019531 333.78125 185.867188 C 333.328125 185.566406 332.867188 185.273438 332.425781 184.957031 C 331.550781 184.296875 330.699219 183.597656 329.785156 183.003906 C 328.890625 182.382812 327.882812 181.941406 326.902344 181.464844 C 326.410156 181.230469 325.925781 180.976562 325.410156 180.777344 C 325.15625 180.671875 324.890625 180.585938 324.625 180.5 L 324.21875 180.386719 C 324.09375 180.332031 323.914062 180.371094 323.539062 180.730469 C 323.402344 181.234375 323.457031 181.40625 323.5625 181.496094 L 323.859375 181.792969 C 324.0625 181.988281 324.265625 182.179688 324.476562 182.351562 C 324.902344 182.707031 325.355469 183.007812 325.796875 183.328125 C 326.6875 183.960938 327.558594 184.628906 328.535156 185.117188 C 329.492188 185.632812 330.515625 186.042969 331.515625 186.492188 C 332.007812 186.730469 332.484375 186.992188 332.96875 187.246094 C 333.210938 187.371094 333.464844 187.472656 333.722656 187.566406 L 334.125 187.691406 C 334.257812 187.734375 334.4375 187.699219 334.777344 187.390625 C 334.886719 186.9375 334.832031 186.765625 334.730469 186.667969 Z M 358.335938 165.960938 C 358.265625 165.429688 358.183594 164.894531 358.132812 164.359375 C 358.054688 163.277344 358.023438 162.191406 357.867188 161.125 C 357.75 160.054688 357.417969 159.019531 357.136719 157.980469 C 356.988281 157.460938 356.859375 156.9375 356.671875 156.421875 C 356.585938 156.167969 356.476562 155.914062 356.363281 155.660156 L 356.183594 155.285156 C 356.140625 155.15625 355.996094 155.046875 355.476562 155.003906 C 355.007812 155.230469 354.910156 155.386719 354.917969 155.519531 L 354.886719 155.9375 C 354.871094 156.210938 354.863281 156.488281 354.871094 156.761719 C 354.882812 157.304688 354.953125 157.839844 355.003906 158.378906 C 355.113281 159.449219 355.179688 160.53125 355.453125 161.574219 C 355.695312 162.625 356.058594 163.652344 356.378906 164.6875 C 356.523438 165.207031 356.640625 165.730469 356.765625 166.253906 C 356.828125 166.515625 356.917969 166.773438 357.019531 167.027344 L 357.1875 167.40625 C 357.246094 167.535156 357.386719 167.644531 357.847656 167.695312 C 358.257812 167.480469 358.351562 167.328125 358.355469 167.1875 L 358.378906 166.773438 C 358.378906 166.5 358.371094 166.230469 358.335938 165.960938 Z M 345.511719 176.003906 C 345.753906 176.34375 345.921875 176.738281 345.777344 177.375 C 345.121094 177.367188 344.777344 177.113281 344.503906 176.800781 L 343.65625 175.886719 C 343.09375 175.277344 342.519531 174.675781 341.984375 174.046875 C 340.882812 172.804688 339.832031 171.523438 338.769531 170.257812 C 336.640625 167.71875 334.507812 165.183594 332.496094 162.554688 C 330.480469 159.929688 328.558594 157.226562 326.601562 154.554688 L 323.597656 150.597656 C 323.101562 149.933594 322.605469 149.269531 322.140625 148.585938 L 321.445312 147.550781 C 321.214844 147.207031 321.046875 146.8125 321.140625 146.207031 C 321.75 146.253906 322.097656 146.507812 322.378906 146.8125 L 323.222656 147.726562 C 323.78125 148.339844 324.3125 148.976562 324.84375 149.609375 L 328 153.445312 C 330.148438 155.96875 332.335938 158.460938 334.425781 161.03125 C 336.515625 163.597656 338.492188 166.253906 340.46875 168.910156 C 341.457031 170.242188 342.460938 171.558594 343.414062 172.914062 C 343.902344 173.582031 344.355469 174.28125 344.820312 174.96875 L 345.511719 176.003906"/></g><g id="change5_1"><path fill="#243484" d="M 190.792969 73.992188 C 190.792969 71.617188 189.050781 69.691406 186.902344 69.691406 C 184.753906 69.691406 183.011719 71.617188 183.011719 73.992188 C 183.011719 76.363281 184.753906 78.289062 186.902344 78.289062 C 189.050781 78.289062 190.792969 76.363281 190.792969 73.992188 Z M 65.640625 255.574219 L 65.648438 255.523438 C 65.753906 254.878906 65.492188 254.199219 64.925781 253.792969 C 60.527344 250.636719 55.921875 248.15625 51.132812 245.890625 C 46.347656 243.660156 41.347656 241.886719 36.226562 240.582031 C 31.09375 239.3125 25.820312 238.496094 20.5 238.53125 C 17.84375 238.550781 15.183594 238.816406 12.582031 239.335938 C 11.28125 239.625 9.984375 239.910156 8.722656 240.316406 C 7.4375 240.636719 6.230469 241.28125 5.234375 242.332031 C 6.710938 242.605469 7.929688 242.304688 9.179688 242.054688 C 10.414062 241.746094 11.667969 241.5625 12.921875 241.375 C 15.441406 241.101562 17.960938 240.871094 20.496094 240.941406 C 25.5625 240.996094 30.621094 241.820312 35.511719 243.226562 C 40.398438 244.667969 45.132812 246.601562 49.6875 248.894531 C 53.898438 250.992188 58.007812 253.464844 61.792969 256.128906 C 61.210938 259.605469 60.632812 263.085938 60.136719 266.578125 L 58.414062 278.207031 C 57.835938 282.085938 57.265625 285.960938 56.757812 289.847656 C 56.476562 291.789062 56.289062 293.742188 56.050781 295.6875 L 55.710938 298.609375 C 55.597656 299.585938 55.621094 300.582031 56.175781 301.664062 C 57.046875 300.816406 57.390625 299.878906 57.597656 298.921875 L 58.214844 296.042969 C 58.609375 294.125 59.058594 292.214844 59.414062 290.285156 C 60.179688 286.441406 60.882812 282.585938 61.578125 278.730469 L 63.671875 267.160156 C 64.394531 263.308594 65.019531 259.441406 65.640625 255.574219 Z M 245.6875 273.433594 C 244.390625 273.324219 243.25 273.386719 242.042969 273.488281 C 240.855469 273.597656 239.671875 273.769531 238.496094 274.019531 C 237.320312 274.265625 236.15625 274.628906 235.050781 275.128906 C 234.503906 275.40625 233.957031 275.667969 233.453125 276.023438 C 232.992188 276.414062 232.257812 276.449219 232.417969 277.796875 C 233.566406 278.601562 233.777344 278.015625 234.363281 277.976562 C 234.867188 277.832031 235.386719 277.71875 235.894531 277.609375 C 236.929688 277.410156 237.953125 277.21875 239.003906 277.101562 C 239.386719 277.0625 239.769531 277.039062 240.152344 277.015625 C 239.113281 277.988281 238.148438 279.03125 237.257812 280.121094 C 236.246094 281.375 235.273438 282.644531 234.367188 283.96875 C 233.921875 284.632812 233.511719 285.324219 233.171875 286.050781 C 232.996094 286.417969 232.84375 286.789062 232.703125 287.171875 C 232.535156 287.527344 232.441406 287.960938 232.972656 288.640625 C 233.839844 288.625 234.09375 288.367188 234.308594 288.054688 C 234.53125 287.753906 234.78125 287.46875 235 287.164062 C 235.472656 286.582031 235.90625 285.976562 236.359375 285.386719 C 237.253906 284.195312 238.226562 283.058594 239.34375 282.078125 C 240.445312 281.078125 241.59375 280.144531 242.796875 279.3125 C 243.96875 278.429688 245.222656 277.691406 246.441406 276.902344 L 246.546875 276.835938 C 247.007812 276.53125 247.328125 276.027344 247.378906 275.4375 C 247.464844 274.417969 246.707031 273.519531 245.6875 273.433594 Z M 73.507812 286.464844 C 74.542969 288.382812 75.621094 290.273438 76.722656 292.148438 C 77.800781 294.039062 78.953125 295.890625 80.078125 297.753906 L 83.46875 303.332031 C 87.949219 310.804688 92.605469 318.171875 97.492188 325.398438 C 102.441406 332.582031 107.722656 339.539062 113.265625 346.289062 C 114.648438 347.976562 116.089844 349.625 117.496094 351.292969 C 118.882812 352.980469 120.378906 354.578125 121.871094 356.171875 C 123.371094 357.765625 124.832031 359.386719 126.441406 360.875 L 128.8125 363.144531 C 129.589844 363.914062 130.46875 364.585938 131.753906 364.832031 C 131.542969 363.507812 130.921875 362.609375 130.199219 361.804688 L 128.070312 359.359375 C 126.617188 357.765625 125.34375 356 123.925781 354.371094 L 121.855469 351.882812 L 119.835938 349.34375 C 118.496094 347.648438 117.125 345.976562 115.808594 344.261719 C 113.207031 340.808594 110.582031 337.371094 108.085938 333.835938 L 100.515625 323.292969 C 98 319.765625 95.484375 316.238281 93.046875 312.65625 C 90.5625 309.105469 88.128906 305.515625 85.730469 301.902344 C 83.347656 298.28125 81.050781 294.601562 78.765625 290.917969 L 75.292969 285.414062 L 73.527344 282.679688 C 72.941406 281.765625 72.253906 280.914062 71.136719 280.296875 C 71.085938 281.574219 71.480469 282.605469 71.984375 283.570312 Z M 50.554688 315.582031 L 49.90625 315.160156 C 49.457031 314.921875 48.992188 314.738281 48.515625 314.558594 C 48.039062 314.355469 47.558594 314.292969 47.074219 314.183594 C 46.585938 314.070312 46.101562 314.003906 45.617188 313.957031 C 44.644531 313.820312 43.683594 313.78125 42.714844 313.738281 C 41.761719 313.742188 40.800781 313.820312 39.867188 313.976562 C 37.992188 314.265625 36.1875 314.839844 34.414062 315.417969 L 31.742188 316.203125 C 31.300781 316.34375 30.871094 316.527344 30.445312 316.726562 L 29.820312 317.0625 C 29.613281 317.175781 29.4375 317.40625 29.425781 318.117188 C 29.84375 318.6875 30.105469 318.789062 30.332031 318.769531 L 31.015625 318.722656 C 31.46875 318.675781 31.914062 318.609375 32.351562 318.523438 C 33.230469 318.347656 34.097656 318.132812 34.988281 318.03125 C 36.773438 317.824219 38.558594 317.769531 40.296875 317.636719 C 42.039062 317.546875 43.75 317.238281 45.445312 317.207031 C 46.304688 317.148438 47.125 317.234375 47.964844 317.25 C 48.367188 317.292969 48.800781 317.277344 49.21875 317.308594 L 49.84375 317.378906 C 50.050781 317.421875 50.296875 317.332031 50.835938 316.726562 C 50.953125 315.957031 50.773438 315.703125 50.554688 315.582031 Z M 236.707031 464.949219 C 236.355469 465.039062 236.058594 465.175781 235.726562 465.28125 L 234.777344 465.632812 C 234.464844 465.746094 234.105469 465.777344 233.777344 465.855469 C 233.4375 465.910156 233.117188 466.011719 232.769531 466.035156 L 231.734375 466.105469 C 231.054688 466.179688 230.339844 466.128906 229.644531 466.128906 C 226.839844 466.007812 223.996094 465.480469 221.203125 464.742188 C 218.40625 464 215.640625 463.046875 212.917969 461.972656 C 210.199219 460.882812 207.460938 459.828125 204.777344 458.609375 C 199.375 456.265625 193.996094 453.773438 188.726562 451.050781 C 186.101562 449.671875 183.527344 448.199219 180.953125 446.71875 C 179.664062 445.988281 178.378906 445.242188 177.074219 444.53125 L 175.117188 443.46875 C 174.464844 443.109375 173.75 442.855469 172.757812 443.007812 C 173.011719 443.980469 173.554688 444.53125 174.15625 444.972656 L 175.980469 446.292969 C 177.203125 447.15625 178.460938 447.96875 179.726562 448.765625 C 182.265625 450.351562 184.847656 451.867188 187.425781 453.386719 C 192.570312 456.457031 197.792969 459.441406 203.269531 461.972656 C 208.738281 464.496094 214.449219 466.605469 220.445312 467.902344 C 223.4375 468.539062 226.515625 469.023438 229.675781 468.859375 C 230.464844 468.792969 231.25 468.804688 232.039062 468.601562 L 233.214844 468.363281 C 233.605469 468.28125 233.988281 468.117188 234.375 467.996094 C 234.753906 467.855469 235.144531 467.761719 235.511719 467.574219 L 236.597656 467.003906 C 236.96875 466.84375 237.289062 466.570312 237.539062 466.210938 C 237.78125 465.851562 237.996094 465.464844 238.039062 464.941406 C 237.472656 464.847656 237.074219 464.886719 236.707031 464.949219 Z M 174.640625 455.136719 L 170.308594 436.359375 C 170.246094 436.085938 170.109375 435.820312 169.898438 435.605469 L 169.890625 435.597656 C 167.550781 433.191406 165.15625 430.929688 162.617188 428.746094 C 161.339844 427.667969 160.046875 426.601562 158.671875 425.605469 C 157.296875 424.605469 155.882812 423.640625 154.253906 422.839844 C 153.851562 422.636719 153.457031 422.425781 152.988281 422.273438 C 152.515625 422.121094 152.136719 421.902344 151.578125 421.820312 C 150.464844 421.5625 149.566406 421.570312 148.71875 421.574219 C 147.003906 421.589844 145.359375 421.683594 143.714844 421.773438 L 133.925781 422.40625 C 130.683594 422.582031 127.4375 422.714844 124.257812 422.632812 C 122.675781 422.585938 121.09375 422.503906 119.632812 422.257812 C 118.910156 422.140625 118.199219 421.972656 117.695312 421.746094 C 117.433594 421.644531 117.25 421.511719 117.195312 421.460938 C 117.179688 421.472656 117.125 421.398438 117.074219 421.316406 L 116.921875 421.101562 L 116.613281 420.667969 C 116.210938 420.144531 115.761719 419.417969 115.324219 418.746094 L 114.015625 416.699219 L 111.445312 412.539062 L 106.367188 404.140625 C 99.605469 392.929688 92.894531 381.675781 86.332031 370.339844 L 76.433594 353.363281 L 71.398438 344.925781 C 69.691406 342.128906 68.199219 339.210938 65.699219 336.863281 C 66.445312 340.207031 68.199219 342.980469 69.742188 345.871094 L 74.464844 354.492188 L 84.132812 371.605469 L 103.574219 405.785156 L 108.527344 414.289062 C 110.242188 417.144531 111.800781 419.878906 113.777344 422.816406 L 114.183594 423.386719 L 114.386719 423.667969 C 114.449219 423.761719 114.511719 423.855469 114.664062 423.988281 C 115.195312 424.511719 115.730469 424.800781 116.21875 425.023438 C 117.210938 425.46875 118.109375 425.667969 118.996094 425.835938 C 120.765625 426.152344 122.464844 426.273438 124.152344 426.328125 C 127.519531 426.417969 130.828125 426.285156 134.128906 426.117188 C 137.421875 425.9375 140.699219 425.707031 143.949219 425.484375 C 145.574219 425.371094 147.199219 425.261719 148.761719 425.222656 C 149.148438 425.214844 149.539062 425.210938 149.890625 425.226562 C 150.285156 425.214844 150.484375 425.320312 150.785156 425.347656 C 151.046875 425.351562 151.402344 425.550781 151.710938 425.636719 C 152.027344 425.726562 152.359375 425.898438 152.6875 426.058594 C 154.011719 426.679688 155.335938 427.546875 156.617188 428.457031 C 157.910156 429.359375 159.160156 430.363281 160.398438 431.378906 C 162.753906 433.335938 165.054688 435.441406 167.226562 437.589844 L 171.53125 455.007812 C 170.921875 455.503906 170.285156 455.699219 169.453125 455.515625 C 168.382812 455.304688 167.191406 454.5625 166.113281 453.6875 C 163.933594 451.90625 162.007812 449.617188 160.070312 447.34375 C 159.101562 446.195312 158.15625 445.027344 157.097656 443.867188 C 156.828125 443.578125 156.550781 443.285156 156.242188 442.996094 C 156.066406 442.851562 155.929688 442.710938 155.71875 442.558594 C 155.511719 442.398438 155.304688 442.273438 155.097656 442.179688 C 154.257812 441.734375 153.4375 441.566406 152.636719 441.414062 C 149.449219 440.957031 146.328125 441.039062 143.433594 442.414062 C 144.992188 442.757812 146.480469 442.882812 147.953125 442.980469 C 149.421875 443.0625 150.890625 443.121094 152.253906 443.414062 C 152.917969 443.566406 153.589844 443.753906 154.066406 444.054688 C 154.503906 444.265625 154.949219 444.796875 155.425781 445.347656 C 156.347656 446.457031 157.25 447.671875 158.171875 448.867188 C 160.023438 451.269531 161.917969 453.695312 164.363281 455.800781 C 165.59375 456.828125 166.964844 457.855469 168.851562 458.316406 C 169.777344 458.539062 170.890625 458.554688 171.886719 458.167969 C 172.886719 457.796875 173.675781 457.152344 174.3125 456.46875 C 174.613281 456.136719 174.761719 455.664062 174.652344 455.191406 Z M 95.839844 459.863281 C 95.710938 459.09375 95.429688 458.390625 95.199219 457.65625 C 94.972656 456.921875 94.679688 456.21875 94.335938 455.539062 C 94 454.863281 93.710938 454.148438 93.328125 453.496094 C 91.910156 450.8125 90.269531 448.265625 88.308594 445.992188 C 86.378906 443.695312 84.164062 441.675781 81.960938 439.6875 C 81.421875 439.175781 80.878906 438.671875 80.324219 438.179688 C 79.78125 437.675781 79.242188 437.167969 78.675781 436.6875 C 78.125 436.195312 77.527344 435.75 76.929688 435.3125 L 75.996094 434.6875 C 75.683594 434.484375 75.289062 434.371094 74.578125 434.652344 C 74.429688 435.402344 74.589844 435.765625 74.832031 436.039062 L 75.550781 436.863281 C 76.035156 437.40625 76.535156 437.929688 77.042969 438.445312 C 78.074219 439.460938 79.097656 440.484375 80.054688 441.566406 C 81.945312 443.757812 83.714844 446.042969 85.445312 448.3125 L 88.03125 451.710938 L 89.324219 453.402344 L 90.527344 455.152344 C 90.941406 455.730469 91.261719 456.351562 91.636719 456.949219 L 92.191406 457.855469 L 92.691406 458.78125 C 93.007812 459.402344 93.4375 459.992188 93.722656 460.632812 L 94.203125 461.582031 C 94.347656 461.90625 94.617188 462.183594 95.46875 462.332031 C 96.089844 461.785156 96.128906 461.367188 96.046875 461 Z M 89.933594 133.933594 C 91.441406 135.394531 93.007812 136.796875 94.601562 138.164062 C 96.191406 139.535156 97.824219 140.859375 99.484375 142.148438 L 101.96875 144.089844 L 104.507812 145.960938 C 106.171875 147.25 107.933594 148.414062 109.652344 149.628906 C 111.402344 150.808594 113.191406 151.933594 114.984375 153.054688 C 118.648438 155.171875 122.371094 157.222656 126.320312 158.855469 C 127.308594 159.265625 128.292969 159.675781 129.289062 160.058594 L 132.351562 161.046875 C 134.363281 161.792969 136.511719 162.148438 138.609375 162.613281 C 140.714844 163.03125 142.800781 163.285156 144.921875 163.523438 C 147.035156 163.757812 149.175781 163.894531 151.347656 163.890625 C 153.230469 163.871094 155.140625 163.761719 157.074219 163.347656 C 156.371094 162.445312 155.710938 161.503906 155.085938 160.53125 C 153.878906 160.644531 152.632812 160.671875 151.386719 160.640625 C 149.382812 160.574219 147.359375 160.378906 145.339844 160.089844 C 143.324219 159.804688 141.269531 159.488281 139.296875 159.03125 L 136.359375 158.320312 C 135.371094 158.136719 134.410156 157.804688 133.445312 157.496094 L 130.550781 156.574219 L 127.714844 155.445312 C 120.125 152.472656 112.90625 148.390625 106.054688 143.777344 C 102.617188 141.476562 99.359375 138.914062 96.125 136.328125 L 91.316406 132.390625 L 88.929688 130.398438 C 88.140625 129.722656 87.277344 129.140625 86.066406 128.878906 C 86.332031 130.09375 86.980469 130.945312 87.710938 131.699219 Z M 71.304688 431.375 L 70.980469 431.375 C 70.773438 431.394531 70.570312 431.425781 70.386719 431.492188 C 70.015625 431.617188 69.667969 431.796875 69.28125 431.890625 C 68.507812 432.085938 67.6875 432.1875 66.964844 432.480469 C 66.214844 432.726562 65.609375 433.253906 64.972656 433.71875 C 64.65625 433.960938 64.328125 434.171875 64.039062 434.46875 C 63.894531 434.609375 63.761719 434.777344 63.628906 434.949219 L 63.441406 435.226562 C 63.367188 435.292969 63.359375 435.503906 63.609375 436.21875 C 64.035156 436.851562 64.203125 436.96875 64.304688 436.953125 L 64.636719 436.96875 C 64.851562 436.964844 65.066406 436.960938 65.269531 436.925781 C 65.675781 436.875 66.046875 436.738281 66.425781 436.632812 C 67.183594 436.402344 67.96875 436.230469 68.613281 435.78125 C 69.28125 435.378906 69.855469 434.78125 70.476562 434.28125 C 70.78125 434.027344 71.132812 433.859375 71.457031 433.636719 C 71.621094 433.527344 71.769531 433.386719 71.90625 433.230469 L 72.105469 432.96875 C 72.167969 432.882812 72.175781 432.679688 71.964844 432.042969 C 71.582031 431.492188 71.414062 431.375 71.304688 431.375 Z M 219.941406 259.515625 L 219.945312 260.097656 C 219.921875 260.28125 220.050781 260.511719 220.738281 260.832031 C 221.519531 260.828125 221.742188 260.730469 221.8125 260.585938 L 222.09375 260.1875 C 222.253906 259.914062 222.453125 259.664062 222.636719 259.414062 C 222.96875 258.902344 223.3125 258.410156 223.675781 257.9375 C 224.441406 257.003906 225.347656 256.226562 226.171875 255.316406 C 227.035156 254.457031 227.882812 253.484375 228.898438 252.667969 C 229.398438 252.253906 229.972656 251.941406 230.527344 251.609375 C 230.804688 251.4375 231.070312 251.253906 231.335938 251.046875 L 231.726562 250.722656 C 231.859375 250.617188 231.933594 250.394531 231.863281 249.710938 C 231.472656 249.144531 231.230469 249.050781 231.046875 249.070312 C 230.863281 249.097656 230.675781 249.117188 230.496094 249.148438 C 230.140625 249.226562 229.785156 249.320312 229.457031 249.460938 C 228.792969 249.730469 228.167969 250.082031 227.507812 250.382812 C 226.195312 250.984375 224.839844 251.632812 223.679688 252.597656 C 222.488281 253.53125 221.628906 254.855469 220.914062 256.207031 C 220.589844 256.910156 220.242188 257.597656 220.097656 258.367188 C 219.996094 258.738281 219.9375 259.117188 219.941406 259.515625 Z M 143.320312 115.53125 C 142.460938 115.113281 141.589844 114.726562 140.71875 114.339844 L 138.175781 113.054688 C 134.8125 111.300781 131.488281 109.410156 128.523438 107.011719 C 127.074219 105.785156 125.6875 104.476562 124.464844 103.027344 C 123.824219 102.328125 123.230469 101.597656 122.625 100.871094 C 122.335938 100.496094 122.007812 100.140625 121.746094 99.757812 C 121.460938 99.371094 121.09375 99.074219 120.28125 98.914062 C 119.878906 99.644531 119.988281 100.203125 120.207031 100.660156 C 120.414062 101.136719 120.667969 101.574219 120.90625 102.03125 C 121.425781 102.90625 121.972656 103.777344 122.617188 104.558594 C 123.863281 106.164062 125.296875 107.597656 126.742188 109.011719 C 129.640625 111.839844 132.902344 114.300781 136.421875 116.296875 L 139.101562 117.722656 C 140.023438 118.132812 140.953125 118.519531 141.890625 118.886719 C 142.5625 119.183594 143.253906 119.429688 143.945312 119.664062 L 143.722656 116.601562 C 143.699219 116.3125 143.753906 116.035156 143.855469 115.785156 C 143.675781 115.699219 143.496094 115.621094 143.320312 115.53125 Z M 161.222656 161.765625 C 162.265625 161.109375 163.214844 160.175781 163.84375 159.070312 C 165.144531 156.816406 165.078125 154.359375 164.855469 152.226562 C 164.734375 151.140625 164.546875 150.082031 164.332031 149.042969 C 164.132812 148.003906 163.773438 147 162.835938 146.113281 C 162.277344 147.277344 162.296875 148.328125 162.425781 149.34375 C 162.539062 150.367188 162.617188 151.378906 162.636719 152.371094 C 162.679688 154.351562 162.410156 156.289062 161.511719 157.648438 C 160.714844 158.882812 159.328125 159.625 157.722656 160.066406 C 158.324219 160.945312 158.964844 161.785156 159.636719 162.59375 C 160.179688 162.367188 160.710938 162.09375 161.222656 161.765625 Z M 159.492188 122.230469 C 159.15625 121.375 158.71875 121.105469 158.25 120.964844 L 156.863281 120.496094 C 155.9375 120.191406 155.011719 119.898438 154.085938 119.636719 C 152.34375 118.976562 150.5625 118.464844 148.828125 117.828125 L 149.078125 121.234375 C 150.515625 121.613281 151.964844 121.960938 153.410156 122.28125 C 154.390625 122.457031 155.386719 122.574219 156.375 122.695312 L 157.863281 122.859375 C 158.351562 122.929688 158.871094 122.871094 159.492188 122.230469 Z M 190.226562 92.800781 C 190.910156 93.140625 191.066406 93.246094 191.109375 93.238281 C 191.167969 93.253906 191.222656 93.269531 191.269531 93.285156 L 191.535156 93.390625 C 191.703125 93.453125 191.808594 93.4375 191.984375 93.464844 C 192.316406 93.503906 192.691406 93.640625 193.097656 93.507812 C 193.507812 93.433594 193.96875 93.167969 194.457031 93.039062 C 194.699219 92.972656 194.9375 93.003906 195.183594 92.980469 C 195.304688 92.976562 195.433594 92.933594 195.566406 92.878906 L 195.769531 92.765625 C 195.835938 92.726562 195.925781 92.5625 196.121094 91.921875 C 196.1875 91.257812 196.148438 91.066406 196.085938 91.007812 L 195.90625 90.828125 C 195.777344 90.730469 195.648438 90.652344 195.515625 90.605469 C 195.242188 90.515625 194.964844 90.488281 194.6875 90.371094 C 194.140625 90.15625 193.558594 89.859375 192.925781 89.824219 C 192.292969 89.738281 191.628906 90.023438 190.96875 90.375 C 190.644531 90.550781 190.28125 90.773438 190.007812 91.105469 C 189.863281 91.289062 189.75 91.492188 189.664062 91.699219 C 189.632812 91.820312 189.605469 91.9375 189.582031 92.054688 C 189.546875 92.152344 189.621094 92.359375 190.226562 92.800781 Z M 178.800781 95.949219 C 178.695312 95.882812 178.476562 95.921875 177.8125 96.3125 C 177.332031 96.898438 177.304688 97.136719 177.382812 97.261719 L 177.578125 97.699219 C 177.714844 97.996094 177.894531 98.246094 178.085938 98.496094 C 178.453125 99.015625 178.9375 99.378906 179.394531 99.796875 C 180.34375 100.550781 181.339844 101.277344 182.480469 101.628906 C 183.601562 102.015625 184.792969 102.109375 185.9375 102.234375 C 186.511719 102.292969 187.0625 102.429688 187.628906 102.484375 C 187.910156 102.519531 188.203125 102.511719 188.496094 102.480469 L 188.9375 102.40625 C 189.085938 102.378906 189.257812 102.222656 189.472656 101.578125 C 189.417969 100.902344 189.320312 100.707031 189.199219 100.640625 L 188.839844 100.4375 C 188.59375 100.316406 188.347656 100.210938 188.101562 100.132812 C 187.601562 99.980469 187.09375 99.867188 186.613281 99.648438 C 185.652344 99.21875 184.773438 98.640625 183.875 98.214844 C 183.007812 97.726562 182.058594 97.46875 181.164062 97.066406 L 179.867188 96.40625 C 179.648438 96.296875 179.390625 96.21875 179.167969 96.101562 Z M 180.839844 64.171875 L 181.242188 64.097656 L 181.976562 63.886719 C 182.21875 63.8125 182.441406 63.707031 182.675781 63.621094 C 182.914062 63.5625 183.160156 63.511719 183.40625 63.46875 C 184.40625 63.355469 185.394531 63.453125 186.363281 63.507812 C 187.328125 63.601562 188.320312 63.484375 189.347656 63.542969 C 189.863281 63.566406 190.367188 63.640625 190.898438 63.65625 C 191.164062 63.667969 191.4375 63.660156 191.714844 63.65625 L 192.132812 63.636719 C 192.265625 63.65625 192.441406 63.527344 192.867188 62.890625 C 193.039062 62.144531 192.953125 61.914062 192.824219 61.832031 L 192.457031 61.527344 C 192.203125 61.339844 191.941406 61.160156 191.671875 61.019531 C 191.128906 60.71875 190.542969 60.535156 189.957031 60.347656 C 188.785156 59.988281 187.535156 59.675781 186.265625 59.820312 C 184.996094 59.894531 183.761719 60.394531 182.621094 60.910156 C 182.332031 61.046875 182.046875 61.175781 181.757812 61.289062 C 181.480469 61.429688 181.199219 61.566406 180.929688 61.726562 C 180.652344 61.871094 180.410156 62.074219 180.191406 62.308594 L 179.875 62.671875 C 179.773438 62.789062 179.738281 63.023438 180 63.640625 C 180.5 64.113281 180.703125 64.199219 180.839844 64.171875 Z M 116.394531 85.910156 C 118.957031 83.328125 122.644531 79.71875 126.546875 76.222656 C 121.855469 68.296875 119.703125 53.539062 125.871094 49.363281 C 135.257812 43.003906 142.949219 57.6875 142.949219 57.6875 C 142.949219 57.6875 143.101562 60.289062 142.753906 63.808594 C 149.769531 56.324219 151.730469 39.128906 151.730469 39.128906 C 151.730469 39.128906 188.527344 64.550781 202.140625 61.953125 C 224.144531 57.753906 220.445312 8.785156 220.445312 8.785156 C 178.5625 2.765625 166.023438 -3.003906 139.441406 1.761719 C 112.855469 6.527344 107.589844 24.835938 107.589844 24.835938 C 90.804688 35.476562 104.925781 71.847656 110.683594 84.859375 C 111.6875 87.128906 114.648438 87.664062 116.394531 85.910156 Z M 321.984375 227.574219 C 321.316406 228.347656 321.402344 229.515625 322.175781 230.183594 C 322.523438 230.484375 322.953125 230.632812 323.382812 230.632812 C 323.898438 230.632812 324.414062 230.417969 324.78125 229.996094 L 326.066406 228.507812 C 325.132812 227.652344 324.125 226.859375 323.191406 226.179688 Z M 328.769531 219.738281 C 330.1875 220.203125 331.503906 220.664062 332.511719 221.066406 L 334.570312 218.6875 C 333.480469 218.1875 332.238281 217.679688 330.976562 217.1875 Z M 338.34375 208.679688 C 339.792969 208.921875 341.164062 209.242188 342.421875 209.617188 L 344.199219 207.5625 C 343.089844 206.96875 341.925781 206.410156 340.761719 205.886719 Z M 368.472656 179.523438 L 365.5 182.957031 C 363.429688 183.160156 360.6875 184.464844 359.570312 189.59375 C 359.546875 189.691406 359.53125 189.78125 359.507812 189.878906 L 351.234375 199.4375 C 350.089844 198.894531 348.890625 198.320312 347.761719 197.800781 L 365.679688 177.105469 C 366.347656 176.335938 367.515625 176.25 368.285156 176.917969 C 369.058594 177.585938 369.140625 178.753906 368.472656 179.523438"/></g></g></svg>