<?xml version="1.0" encoding="UTF-8"?><svg xmlns="http://www.w3.org/2000/svg" xmlns:xlink="http://www.w3.org/1999/xlink" contentScriptType="text/ecmascript" fill="#000000" width="188.9" zoomAndPan="magnify" contentStyleType="text/css" viewBox="0.0 -4.1 188.9 504.1" height="504.1" preserveAspectRatio="xMidYMid meet" version="1"><defs><clipPath id="a"><path d="M 0 29 L 188.910156 29 L 188.910156 500 L 0 500 Z M 0 29"/></clipPath></defs><g><g id="change1_1"><path fill="#ffffff" d="M 152.507812 177.609375 C 147.042969 178.578125 152.144531 183.742188 153.90625 184.835938 C 155.664062 185.929688 158.21875 184.351562 157.671875 181.980469 C 157.125 179.613281 152.507812 177.609375 152.507812 177.609375 Z M 155.148438 174.144531 C 155.242188 173.417969 147.953125 171.597656 147.953125 171.597656 C 147.953125 171.597656 148.136719 167.132812 147.316406 166.3125 C 146.496094 165.492188 140.757812 163.855469 139.300781 164.035156 C 138.160156 164.179688 130.480469 168.59375 127.15625 170.523438 C 127.125 170.464844 127.09375 170.414062 127.0625 170.382812 C 126.214844 169.441406 116.910156 169.519531 112.765625 169.605469 C 111.046875 162.128906 109.714844 155.367188 109.035156 150.042969 C 108.871094 148.777344 108.507812 147.554688 107.953125 146.40625 C 102.632812 135.390625 90.796875 124.269531 80.460938 116 C 81.878906 109.046875 86.007812 100.902344 86.007812 100.902344 C 86.007812 100.902344 92.019531 105.460938 97.667969 106.1875 C 103.316406 106.917969 110.238281 89.972656 110.238281 89.972656 C 110.238281 89.972656 113.882812 90.152344 114.792969 89.609375 C 115.703125 89.0625 114.976562 76.671875 114.976562 76.671875 C 122.445312 63.371094 112.972656 49.890625 112.972656 49.890625 C 106.230469 37.863281 76.167969 45.699219 69.0625 54.628906 C 61.957031 63.554688 63.777344 75.578125 63.414062 82.136719 C 63.089844 88.019531 51.34375 98.148438 47.207031 108.453125 C 33.042969 119.480469 28.527344 145.480469 37.175781 182.164062 C 45.320312 216.671875 44.058594 253.902344 42.964844 269.972656 C 42.683594 274.097656 46.375 277.367188 50.4375 276.605469 C 51.621094 276.382812 52.800781 276.152344 53.976562 275.925781 C 55.460938 284.589844 61.875 294.691406 62.683594 296.582031 C 63.539062 298.578125 69.292969 337.980469 71.242188 360.136719 C 45.082031 385.65625 17.136719 440.402344 17.136719 441.976562 C 17.136719 442.179688 17.289062 442.589844 17.570312 443.140625 L 3.886719 461.945312 L 38.9375 494.277344 C 40.199219 495.441406 42.007812 495.929688 43.625 495.351562 C 45.886719 494.550781 47.328125 491.832031 40.050781 483.21875 C 28.070312 469.023438 24.308594 462.980469 24.308594 462.980469 L 31.058594 457.570312 C 33.859375 459.183594 36.835938 460.054688 39.726562 459.46875 C 41.375 459.132812 55.59375 441.835938 71.605469 421.785156 C 72.398438 442.625 74.386719 464.199219 78.703125 473.574219 L 79.761719 492.402344 L 127.359375 495.25 C 129.074219 495.355469 130.78125 494.585938 131.671875 493.117188 C 132.910156 491.066406 132.3125 488.050781 121.226562 485.984375 C 106.9375 483.320312 99.707031 481.332031 97.234375 480.59375 C 104.199219 479.238281 109.691406 475.5 109.691406 475.5 C 109.691406 475.5 122.082031 363.996094 123.902344 351.605469 C 125.460938 341.03125 125.15625 273.933594 125.03125 254.492188 C 125.320312 254.355469 125.601562 254.21875 125.886719 254.082031 C 127.347656 255.847656 129.074219 255.222656 129.976562 254.921875 C 130.382812 254.785156 130.101562 253.710938 129.53125 252.269531 C 131.539062 251.234375 133.472656 250.175781 135.320312 249.089844 C 135.320312 249.089844 126.210938 220.765625 118.617188 192.730469 C 121.710938 191.136719 127.074219 188.28125 128.675781 187.628906 C 130.5 188.828125 133.683594 189.601562 135.503906 188.722656 C 137.144531 184.167969 155.058594 174.875 155.148438 174.144531 Z M 158.703125 174.875 C 154.632812 174.875 155.363281 177.609375 156.152344 178.886719 C 156.941406 180.160156 159.675781 180.402344 160.769531 178.519531 C 161.859375 176.636719 158.703125 174.875 158.703125 174.875 Z M 148.683594 179.976562 C 148.683594 179.976562 152.507812 184.351562 152.144531 185.867188 C 151.777344 187.386719 143.339844 186.597656 143.519531 187.265625 C 143.703125 187.933594 143.398438 191.457031 140.847656 190.242188 C 138.296875 189.027344 138.601562 186.171875 139.753906 185.441406 C 140.90625 184.714844 142.183594 185.382812 142.183594 185.382812 L 146.011719 182.710938 C 146.011719 182.710938 145.828125 179.429688 148.683594 179.976562"/></g><g id="change2_1" clip-path="url(#a)"><path fill="#ff0000" d="M 73.546875 34.847656 C 73.890625 34.625 74.234375 34.398438 74.578125 34.15625 C 74.820312 33.984375 75.078125 33.832031 75.335938 33.683594 C 75.519531 33.570312 75.707031 33.464844 75.886719 33.347656 L 76.53125 32.941406 C 77.105469 32.609375 77.433594 32.074219 77.527344 31.304688 L 77.59375 30.722656 L 77.125 30.378906 C 76.710938 30.074219 76.300781 29.925781 75.875 29.925781 C 75.648438 29.925781 75.429688 29.96875 75.234375 30.042969 L 74.40625 30.316406 L 74.007812 30.460938 C 73.582031 30.605469 73.140625 30.757812 72.753906 30.976562 C 71.726562 31.480469 70.667969 31.996094 69.722656 32.65625 C 67.648438 33.9375 65.824219 35.460938 64.316406 37.175781 C 62.921875 38.71875 61.65625 40.632812 60.445312 43.007812 C 59.863281 44.121094 59.390625 45.144531 58.972656 46.179688 L 58.890625 46.410156 C 58.722656 46.882812 58.546875 47.363281 58.433594 47.863281 C 58.355469 48.15625 58.296875 48.457031 58.242188 48.738281 C 58.101562 49.410156 58.289062 50.027344 58.796875 50.570312 L 59.246094 51.054688 L 59.867188 50.828125 C 60.515625 50.597656 60.933594 50.226562 61.1875 49.652344 C 61.285156 49.425781 61.390625 49.199219 61.511719 48.949219 L 62.164062 47.515625 C 62.585938 46.632812 63.050781 45.691406 63.597656 44.824219 C 64.640625 43.21875 65.929688 41.617188 67.433594 40.078125 L 67.859375 39.648438 C 69.148438 38.359375 70.480469 37.027344 72.019531 35.921875 C 72.488281 35.535156 73.003906 35.199219 73.546875 34.847656 Z M 173.4375 149.417969 C 173.292969 149.511719 173.148438 149.605469 173.015625 149.71875 C 172.75 149.9375 172.503906 150.199219 172.304688 150.511719 C 172.101562 150.820312 171.949219 151.183594 171.867188 151.5625 C 171.820312 151.753906 171.808594 151.953125 171.785156 152.144531 L 171.757812 152.59375 C 171.738281 153.191406 171.648438 153.644531 171.527344 153.714844 C 171.4375 153.824219 171.101562 154.101562 170.65625 154.335938 C 170.125 154.644531 169.445312 154.984375 168.9375 155.839844 C 168.675781 156.269531 168.59375 156.875 168.691406 157.316406 C 168.78125 157.769531 168.960938 158.097656 169.128906 158.390625 C 169.210938 158.535156 169.296875 158.671875 169.378906 158.808594 C 169.402344 158.859375 169.433594 158.882812 169.4375 158.898438 C 169.453125 158.914062 169.449219 158.984375 169.347656 159.136719 C 169.246094 159.277344 169.085938 159.449219 168.898438 159.617188 C 168.808594 159.707031 168.710938 159.796875 168.605469 159.878906 C 168.5 159.964844 168.4375 160.113281 168.449219 160.546875 C 168.730469 160.875 168.933594 160.90625 169.089844 160.863281 C 169.246094 160.816406 169.402344 160.769531 169.558594 160.707031 C 169.867188 160.570312 170.179688 160.394531 170.460938 160.101562 C 170.734375 159.824219 171.015625 159.328125 170.96875 158.761719 C 170.953125 158.480469 170.859375 158.238281 170.765625 158.027344 C 170.707031 157.90625 170.652344 157.789062 170.605469 157.675781 C 170.527344 157.445312 170.484375 157.226562 170.503906 157.101562 C 170.519531 156.96875 170.558594 156.972656 170.625 156.914062 C 170.765625 156.789062 171.164062 156.5625 171.660156 156.359375 C 172.234375 156.074219 172.960938 155.742188 173.472656 154.84375 C 173.71875 154.40625 173.789062 153.914062 173.800781 153.546875 C 173.808594 153.167969 173.777344 152.859375 173.753906 152.566406 L 173.71875 152.144531 C 173.71875 152.046875 173.699219 151.957031 173.714844 151.859375 C 173.722656 151.671875 173.753906 151.472656 173.8125 151.265625 C 173.875 151.058594 173.953125 150.835938 174.066406 150.617188 C 174.117188 150.503906 174.179688 150.394531 174.246094 150.28125 C 174.328125 150.183594 174.328125 150.03125 174.175781 149.574219 C 173.785156 149.285156 173.566406 149.320312 173.4375 149.417969 Z M 188.5625 162.0625 C 188.398438 162.011719 188.230469 161.960938 188.0625 161.929688 C 187.722656 161.863281 187.359375 161.84375 186.992188 161.890625 C 186.625 161.933594 186.253906 162.046875 185.910156 162.226562 C 185.738281 162.308594 185.578125 162.425781 185.421875 162.527344 L 185.058594 162.785156 C 184.585938 163.144531 184.152344 163.386719 184.023438 163.339844 C 183.898438 163.34375 183.503906 163.261719 183.046875 163.0625 C 182.472656 162.839844 181.765625 162.507812 180.757812 162.675781 C 180.25 162.765625 179.761719 163.101562 179.492188 163.441406 C 179.214844 163.785156 179.066406 164.117188 178.941406 164.429688 L 178.714844 165.015625 C 178.691406 165.054688 178.652344 165.085938 178.484375 165.109375 C 178.320312 165.121094 178.09375 165.109375 177.851562 165.074219 C 177.726562 165.058594 177.597656 165.039062 177.46875 165.011719 C 177.339844 164.980469 177.183594 165.023438 176.851562 165.300781 C 176.765625 165.726562 176.867188 165.902344 176.996094 166 C 177.132812 166.09375 177.265625 166.191406 177.417969 166.269531 C 177.71875 166.425781 178.054688 166.558594 178.476562 166.582031 C 178.878906 166.613281 179.441406 166.476562 179.816406 166.085938 C 180.015625 165.90625 180.136719 165.671875 180.230469 165.496094 C 180.289062 165.378906 180.351562 165.261719 180.414062 165.15625 C 180.550781 164.949219 180.695312 164.777344 180.8125 164.699219 C 180.9375 164.621094 180.976562 164.640625 181.046875 164.65625 C 181.203125 164.6875 181.617188 164.84375 182.078125 165.105469 C 182.65625 165.382812 183.398438 165.753906 184.433594 165.550781 C 184.929688 165.449219 185.335938 165.1875 185.617188 164.964844 C 185.90625 164.734375 186.125 164.519531 186.335938 164.320312 L 186.640625 164.027344 C 186.71875 163.960938 186.777344 163.890625 186.859375 163.835938 C 187.015625 163.71875 187.1875 163.617188 187.386719 163.527344 C 187.582031 163.445312 187.800781 163.363281 188.035156 163.3125 C 188.152344 163.277344 188.277344 163.257812 188.402344 163.238281 C 188.527344 163.238281 188.648438 163.144531 188.90625 162.734375 C 188.886719 162.25 188.71875 162.105469 188.5625 162.0625 Z M 159.402344 152.871094 C 159.027344 153.390625 158.550781 153.992188 158.488281 155.019531 C 158.460938 155.519531 158.625 156.007812 158.792969 156.34375 C 158.964844 156.6875 159.140625 156.945312 159.296875 157.1875 L 159.527344 157.542969 C 159.578125 157.628906 159.632812 157.695312 159.667969 157.78125 C 159.746094 157.949219 159.8125 158.132812 159.855469 158.34375 C 159.894531 158.550781 159.929688 158.78125 159.929688 159.027344 C 159.9375 159.152344 159.933594 159.277344 159.925781 159.402344 C 159.898438 159.527344 159.964844 159.667969 160.3125 160 C 160.796875 160.074219 160.972656 159.945312 161.042969 159.800781 C 161.128906 159.652344 161.207031 159.503906 161.277344 159.34375 C 161.410156 159.027344 161.511719 158.679688 161.542969 158.3125 C 161.578125 157.941406 161.546875 157.550781 161.433594 157.171875 C 161.386719 156.980469 161.300781 156.796875 161.230469 156.621094 L 161.039062 156.214844 C 160.917969 155.953125 160.804688 155.710938 160.75 155.523438 C 160.691406 155.328125 160.714844 155.242188 160.730469 155.164062 C 160.765625 155.023438 160.949219 154.609375 161.230469 154.199219 C 161.558594 153.671875 161.988281 153.070312 162.054688 152.078125 C 162.089844 151.582031 161.878906 150.988281 161.566406 150.644531 C 161.269531 150.289062 160.949219 150.089844 160.660156 149.921875 L 160.242188 149.683594 C 160.210938 149.660156 160.175781 149.648438 160.167969 149.648438 C 160.152344 149.660156 160.117188 149.597656 160.144531 149.40625 C 160.175781 149.234375 160.242188 149.003906 160.328125 148.769531 C 160.367188 148.648438 160.414062 148.523438 160.46875 148.402344 C 160.519531 148.277344 160.507812 148.117188 160.296875 147.742188 C 159.890625 147.582031 159.699219 147.648438 159.582031 147.757812 C 159.46875 147.867188 159.347656 147.980469 159.238281 148.109375 C 159.03125 148.367188 158.835938 148.660156 158.71875 149.046875 C 158.601562 149.410156 158.5625 149.976562 158.871094 150.480469 C 159.023438 150.726562 159.214844 150.894531 159.417969 151.039062 C 159.527344 151.117188 159.632812 151.191406 159.726562 151.269531 C 159.90625 151.429688 160.046875 151.597656 160.089844 151.710938 C 160.132812 151.828125 160.09375 151.824219 160.058594 151.902344 C 159.992188 152.070312 159.738281 152.472656 159.402344 152.871094 Z M 169.15625 166.242188 L 165.957031 165.242188 C 165.671875 165.113281 165.347656 165.128906 165.078125 165.28125 C 161.3125 167.441406 133.972656 183.167969 133.804688 184.410156 C 133.667969 185.394531 135.351562 186.847656 136.242188 187.535156 C 136.558594 187.78125 136.988281 187.808594 137.332031 187.605469 L 138.984375 186.621094 C 139.121094 186.101562 139.394531 185.667969 139.753906 185.441406 C 140.359375 185.0625 140.992188 185.0625 141.460938 185.152344 L 146.011719 182.449219 C 146.035156 181.691406 146.316406 179.523438 148.683594 179.976562 C 148.683594 179.976562 148.882812 180.207031 149.179688 180.570312 L 150.085938 180.03125 C 149.894531 178.925781 150.460938 177.972656 152.507812 177.609375 C 152.507812 177.609375 152.882812 177.773438 153.417969 178.054688 L 155.546875 176.789062 C 155.613281 175.777344 156.363281 174.875 158.703125 174.875 C 158.703125 174.875 158.714844 174.882812 158.738281 174.894531 L 169.078125 168.753906 C 169.5 168.503906 169.667969 167.980469 169.46875 167.53125 L 169.667969 167.199219 C 169.574219 166.984375 169.371094 166.34375 169.15625 166.242188 Z M 81.996094 94.589844 C 87.179688 94.589844 91.394531 89.328125 91.394531 82.867188 C 91.394531 76.402344 87.179688 71.144531 81.996094 71.144531 C 76.820312 71.144531 72.605469 76.402344 72.605469 82.867188 C 72.605469 89.328125 76.820312 94.589844 81.996094 94.589844 Z M 81.996094 96.289062 C 75.882812 96.289062 70.90625 90.269531 70.90625 82.867188 C 70.90625 75.46875 75.882812 69.445312 81.996094 69.445312 C 88.117188 69.445312 93.09375 75.46875 93.09375 82.867188 C 93.09375 90.269531 88.117188 96.289062 81.996094 96.289062 Z M 37.0625 478.371094 L 37.058594 478.371094 C 37.058594 478.371094 28.816406 474.796875 22.976562 476.417969 L 3.335938 460.019531 L 0 464.605469 L 45.167969 500 C 45.167969 500 51.488281 495.480469 39.503906 481.289062 C 38.648438 480.273438 37.835938 479.304688 37.0625 478.371094 Z M 135.808594 495.738281 L 78.433594 496.921875 L 78.117188 491.257812 L 103.699219 491.523438 C 107.195312 486.574219 115.84375 484.125 115.84375 484.125 C 117.03125 484.355469 118.273438 484.59375 119.578125 484.839844 C 137.839844 488.242188 135.808594 495.738281 135.808594 495.738281"/></g><g id="change3_1"><path fill="#545b69" d="M 59.527344 49.890625 C 59.992188 49.722656 60.160156 49.507812 60.269531 49.261719 C 60.375 49.015625 60.484375 48.773438 60.601562 48.535156 L 61.261719 47.085938 C 61.71875 46.128906 62.191406 45.179688 62.761719 44.28125 C 63.910156 42.5 65.265625 40.867188 66.726562 39.371094 C 68.207031 37.894531 69.667969 36.382812 71.382812 35.148438 C 72.199219 34.476562 73.121094 33.964844 73.992188 33.347656 C 74.425781 33.035156 74.902344 32.789062 75.351562 32.503906 L 76.035156 32.070312 C 76.269531 31.9375 76.46875 31.730469 76.53125 31.183594 C 76.105469 30.867188 75.808594 30.894531 75.550781 30.988281 L 74.753906 31.257812 C 74.230469 31.449219 73.679688 31.601562 73.191406 31.875 C 72.1875 32.367188 71.171875 32.867188 70.246094 33.511719 C 68.332031 34.691406 66.554688 36.144531 65.058594 37.84375 C 63.539062 39.527344 62.347656 41.476562 61.332031 43.472656 C 60.816406 44.464844 60.332031 45.476562 59.914062 46.515625 C 59.726562 47.042969 59.527344 47.566406 59.402344 48.117188 C 59.328125 48.386719 59.277344 48.664062 59.222656 48.941406 C 59.164062 49.214844 59.191406 49.527344 59.527344 49.890625 Z M 37.101562 10.164062 C 45.648438 -4.128906 69.273438 -1.050781 75.300781 5.472656 C 80.03125 10.59375 79.367188 24.28125 78.863281 29.925781 C 91.03125 27.644531 105.894531 33.289062 114.023438 48.574219 C 115.652344 51.644531 116.613281 54.261719 110.175781 55.6875 C 110.175781 55.6875 100.382812 59.207031 89.882812 63.925781 C 89.800781 63.210938 89.578125 62.519531 89.175781 61.910156 C 87.859375 59.914062 85.128906 56.925781 81.9375 60.03125 C 79.808594 62.101562 79.128906 65.78125 79.550781 68.925781 C 73.332031 72.207031 68.003906 75.65625 65.78125 78.71875 C 65.261719 79.429688 64.699219 79.746094 64.105469 79.433594 C 61.699219 78.164062 56.101562 65.351562 58.605469 51.804688 C 27.949219 54.632812 29.230469 23.316406 37.101562 10.164062 Z M 169.980469 167.8125 C 169.832031 167.40625 169.628906 166.882812 169.472656 166.609375 C 169.351562 166.398438 169.082031 166.335938 168.875 166.460938 L 137.054688 186.046875 C 136.8125 186.195312 136.503906 186.195312 136.261719 186.035156 C 135.660156 185.644531 134.53125 184.886719 134.03125 184.460938 C 133.703125 184.179688 133.824219 184.710938 133.824219 184.710938 C 133.824219 184.710938 133.941406 185.363281 134.042969 185.957031 C 134.082031 186.191406 134.203125 186.40625 134.386719 186.5625 L 136.371094 188.265625 C 136.667969 188.519531 137.09375 188.5625 137.429688 188.359375 C 137.777344 188.15625 138.28125 187.855469 138.902344 187.480469 C 138.863281 186.59375 139.214844 185.785156 139.753906 185.441406 C 140.90625 184.714844 142.183594 185.382812 142.183594 185.382812 L 146.011719 182.710938 C 146.011719 182.710938 145.828125 179.429688 148.683594 179.976562 C 148.683594 179.976562 149.046875 180.394531 149.535156 181.011719 C 149.769531 180.871094 150 180.730469 150.234375 180.585938 C 149.75 179.253906 150.125 178.03125 152.507812 177.609375 C 152.507812 177.609375 153.121094 177.878906 153.929688 178.328125 C 154.476562 177.992188 155.023438 177.660156 155.566406 177.324219 C 155.398438 176.121094 155.953125 174.875 158.703125 174.875 C 158.703125 174.875 158.878906 174.976562 159.128906 175.144531 C 164.078125 172.117188 168.28125 169.539062 169.683594 168.683594 C 169.980469 168.5 170.101562 168.140625 169.980469 167.8125 Z M 113.351562 74.9375 C 113.589844 73.851562 112.988281 72.800781 112.007812 72.585938 C 111.027344 72.367188 110.039062 73.074219 109.800781 74.15625 C 109.5625 75.242188 110.164062 76.296875 111.144531 76.511719 C 112.128906 76.726562 113.113281 76.019531 113.351562 74.9375 Z M 112.121094 87.070312 C 111.945312 86.980469 111.769531 86.90625 111.597656 86.804688 C 111.257812 86.582031 110.902344 86.328125 110.488281 86.214844 C 110.078125 86.070312 109.601562 86.152344 109.117188 86.277344 C 108.878906 86.34375 108.609375 86.433594 108.382812 86.605469 C 108.265625 86.703125 108.160156 86.8125 108.074219 86.933594 L 107.964844 87.144531 C 107.925781 87.199219 107.9375 87.335938 108.238281 87.683594 C 108.609375 87.972656 108.695312 88.054688 108.722656 88.054688 C 108.761719 88.0625 108.796875 88.078125 108.824219 88.09375 L 109 88.175781 C 109.109375 88.230469 109.195312 88.226562 109.320312 88.265625 C 109.558594 88.328125 109.808594 88.464844 110.109375 88.441406 C 110.40625 88.453125 110.753906 88.378906 111.105469 88.371094 C 111.277344 88.382812 111.441406 88.417969 111.609375 88.453125 C 111.695312 88.46875 111.785156 88.464844 111.882812 88.449219 L 112.035156 88.417969 C 112.085938 88.40625 112.164062 88.320312 112.367188 87.964844 C 112.492188 87.574219 112.488281 87.453125 112.453125 87.40625 L 112.355469 87.269531 C 112.28125 87.1875 112.207031 87.121094 112.121094 87.070312 Z M 105.664062 92.433594 C 105.34375 92.265625 105.019531 92.09375 104.722656 91.890625 C 104.125 91.460938 103.59375 90.964844 103.039062 90.535156 C 102.511719 90.078125 101.90625 89.742188 101.363281 89.320312 L 100.585938 88.65625 C 100.457031 88.542969 100.296875 88.445312 100.167969 88.328125 L 99.953125 88.160156 C 99.890625 88.097656 99.75 88.082031 99.292969 88.21875 C 98.933594 88.519531 98.890625 88.664062 98.929688 88.761719 L 99.007812 89.078125 C 99.058594 89.292969 99.148438 89.484375 99.242188 89.675781 C 99.417969 90.070312 99.695312 90.382812 99.941406 90.726562 C 100.476562 91.363281 101.046875 91.988281 101.757812 92.398438 C 102.449219 92.820312 103.222656 93.09375 103.972656 93.351562 C 104.34375 93.492188 104.703125 93.644531 105.074219 93.78125 C 105.261719 93.847656 105.457031 93.886719 105.65625 93.917969 L 105.964844 93.941406 C 106.0625 93.949219 106.199219 93.882812 106.421875 93.527344 C 106.46875 93.109375 106.425781 92.980469 106.351562 92.917969 L 106.128906 92.734375 C 105.980469 92.621094 105.824219 92.519531 105.664062 92.433594 Z M 113.863281 68.671875 C 113.929688 68.683594 114.019531 68.597656 114.308594 68.230469 C 114.46875 67.789062 114.421875 67.640625 114.355469 67.589844 L 114.148438 67.398438 C 114.011719 67.285156 113.863281 67.175781 113.710938 67.097656 C 113.398438 66.921875 113.066406 66.832031 112.738281 66.738281 C 112.074219 66.570312 111.386719 66.445312 110.726562 66.574219 C 110.058594 66.671875 109.445312 66.960938 108.859375 67.226562 L 107.980469 67.582031 C 107.835938 67.648438 107.703125 67.742188 107.574219 67.839844 L 107.390625 68.007812 C 107.328125 68.0625 107.296875 68.191406 107.386719 68.59375 C 107.609375 68.945312 107.71875 69.019531 107.796875 69.023438 L 108.027344 69.03125 C 108.175781 69.023438 108.320312 69.007812 108.457031 68.976562 C 108.734375 68.917969 109.003906 68.839844 109.28125 68.8125 C 109.851562 68.785156 110.402344 68.828125 110.925781 68.828125 C 111.449219 68.855469 111.953125 68.730469 112.472656 68.71875 L 113.246094 68.71875 L 113.652344 68.691406 Z M 30.78125 456.582031 L 30.273438 456.21875 C 29.921875 456 29.601562 455.730469 29.273438 455.484375 C 28.605469 455.007812 27.96875 454.488281 27.339844 453.964844 C 26.109375 452.871094 25.003906 451.664062 23.878906 450.457031 C 22.773438 449.234375 21.652344 447.992188 20.652344 446.644531 C 20.164062 445.960938 19.722656 445.246094 19.289062 444.523438 C 19.070312 444.167969 18.855469 443.808594 18.617188 443.457031 L 18.261719 442.933594 C 18.144531 442.753906 17.964844 442.613281 17.5 442.582031 C 17.210938 442.941406 17.207031 443.191406 17.273438 443.398438 C 17.34375 443.609375 17.40625 443.824219 17.480469 444.027344 C 17.632812 444.441406 17.816406 444.839844 18.007812 445.230469 C 18.398438 446.011719 18.839844 446.765625 19.269531 447.527344 C 20.117188 449.058594 21.046875 450.566406 22.171875 451.941406 C 23.277344 453.335938 24.675781 454.480469 26.109375 455.535156 C 26.847656 456.035156 27.582031 456.546875 28.402344 456.917969 C 28.792969 457.132812 29.203125 457.3125 29.636719 457.445312 L 30.277344 457.652344 C 30.480469 457.730469 30.726562 457.734375 31.105469 457.402344 C 31.097656 456.878906 30.960938 456.691406 30.78125 456.582031 Z M 95.261719 480.457031 L 94.65625 480.429688 C 94.253906 480.429688 93.851562 480.417969 93.457031 480.371094 C 93.058594 480.34375 92.667969 480.296875 92.277344 480.285156 C 91.886719 480.246094 91.496094 480.167969 91.109375 480.109375 C 89.566406 479.851562 88.089844 479.339844 86.632812 478.769531 C 85.179688 478.195312 83.722656 477.53125 82.363281 476.664062 C 81.699219 476.214844 81.066406 475.714844 80.457031 475.1875 L 79.523438 474.410156 L 79.046875 474.027344 C 78.890625 473.898438 78.683594 473.820312 78.230469 473.917969 C 78.042969 474.34375 78.109375 474.582031 78.230469 474.757812 C 78.355469 474.9375 78.472656 475.121094 78.605469 475.289062 C 78.863281 475.640625 79.15625 475.957031 79.460938 476.261719 C 80.066406 476.871094 80.722656 477.421875 81.386719 477.980469 C 82.699219 479.097656 84.140625 480.117188 85.746094 480.851562 C 87.335938 481.628906 89.121094 481.964844 90.875 482.09375 C 91.316406 482.113281 91.757812 482.152344 92.195312 482.152344 C 92.636719 482.136719 93.078125 482.085938 93.511719 482.046875 C 93.949219 482.03125 94.378906 481.921875 94.800781 481.804688 L 95.429688 481.628906 C 95.640625 481.582031 95.84375 481.449219 95.96875 480.964844 C 95.675781 480.53125 95.464844 480.449219 95.261719 480.457031 Z M 126.429688 174.675781 C 126.5 176.128906 126.527344 177.585938 126.667969 179.027344 C 126.78125 180.472656 127.089844 181.894531 127.347656 183.320312 C 127.480469 184.035156 127.601562 184.75 127.777344 185.457031 C 127.855469 185.8125 127.957031 186.164062 128.0625 186.519531 L 128.226562 187.042969 C 128.269531 187.222656 128.394531 187.386719 128.882812 187.507812 C 129.324219 187.269531 129.402344 187.078125 129.402344 186.894531 L 129.433594 186.34375 C 129.445312 185.976562 129.457031 185.609375 129.441406 185.246094 C 129.4375 184.519531 129.375 183.796875 129.328125 183.070312 C 129.222656 181.621094 129.160156 180.171875 128.910156 178.742188 C 128.6875 177.3125 128.351562 175.894531 128.058594 174.46875 L 127.695312 172.324219 C 127.628906 171.96875 127.5625 171.609375 127.464844 171.257812 L 127.308594 170.730469 C 127.257812 170.554688 127.128906 170.386719 126.695312 170.261719 C 126.3125 170.492188 126.230469 170.683594 126.222656 170.867188 L 126.203125 171.417969 C 126.195312 171.785156 126.21875 172.144531 126.242188 172.507812 Z M 138.960938 169.242188 C 139.304688 169.75 139.769531 170.191406 140.324219 170.558594 C 140.597656 170.746094 140.910156 170.890625 141.234375 171.015625 C 141.394531 171.082031 141.570312 171.113281 141.742188 171.164062 C 141.855469 171.1875 141.84375 171.203125 141.859375 171.21875 C 141.871094 171.230469 141.886719 171.238281 141.898438 171.242188 C 141.980469 171.300781 142.175781 171.640625 142.34375 172.105469 C 142.511719 172.570312 142.707031 173.105469 142.988281 173.683594 C 143.292969 174.25 143.769531 174.914062 144.53125 175.308594 C 144.726562 175.394531 144.921875 175.496094 145.117188 175.546875 C 145.320312 175.585938 145.519531 175.613281 145.722656 175.640625 C 146.105469 175.660156 146.480469 175.621094 146.820312 175.5625 C 147.492188 175.417969 148.054688 175.164062 148.605469 174.902344 L 148.675781 174.871094 C 148.988281 174.722656 149.1875 174.390625 149.152344 174.027344 C 149.109375 173.542969 149.039062 173.058594 148.949219 172.574219 C 148.902344 172.332031 148.855469 172.089844 148.796875 171.851562 C 148.761719 171.730469 148.753906 171.605469 148.699219 171.488281 C 148.621094 171.367188 148.464844 171.253906 148.136719 171.140625 C 147.816406 171.273438 147.664062 171.398438 147.597656 171.523438 C 147.546875 171.644531 147.546875 171.769531 147.519531 171.890625 C 147.476562 172.136719 147.441406 172.378906 147.414062 172.621094 C 147.382812 172.871094 147.375 173.117188 147.355469 173.363281 C 146.601562 173.566406 145.894531 173.585938 145.621094 173.324219 C 145.429688 173.1875 145.210938 172.960938 144.976562 172.578125 C 144.738281 172.199219 144.527344 171.71875 144.222656 171.195312 C 144.078125 170.9375 143.894531 170.648438 143.664062 170.363281 C 143.523438 170.214844 143.394531 170.070312 143.230469 169.9375 C 143.035156 169.808594 142.851562 169.667969 142.628906 169.589844 C 142.511719 169.554688 142.394531 169.523438 142.273438 169.5 C 142.160156 169.476562 142.015625 169.449219 141.996094 169.449219 C 141.902344 169.4375 141.804688 169.445312 141.703125 169.425781 C 141.511719 169.386719 141.316406 169.3125 141.128906 169.214844 C 140.742188 169.019531 140.40625 168.695312 140.066406 168.355469 L 139.5625 167.8125 C 139.363281 167.628906 139.363281 167.382812 138.660156 167.40625 C 138.179688 167.933594 138.4375 168.160156 138.527344 168.445312 C 138.640625 168.722656 138.785156 168.992188 138.960938 169.242188 Z M 114.609375 169.957031 C 114.269531 170.277344 114.226562 170.519531 114.253906 170.746094 L 114.339844 171.417969 C 114.398438 171.863281 114.492188 172.300781 114.585938 172.738281 L 115.183594 175.355469 C 115.53125 177.117188 115.835938 178.886719 116.25 180.628906 C 116.640625 182.378906 117.21875 184.078125 117.746094 185.789062 C 118.015625 186.644531 118.273438 187.5 118.585938 188.34375 C 118.726562 188.769531 118.894531 189.1875 119.066406 189.605469 L 119.332031 190.230469 C 119.410156 190.4375 119.566406 190.628906 120.078125 190.726562 C 120.472656 190.390625 120.515625 190.148438 120.480469 189.925781 L 120.402344 189.253906 C 120.347656 188.804688 120.289062 188.355469 120.203125 187.917969 C 120.058594 187.03125 119.859375 186.15625 119.675781 185.28125 C 119.296875 183.53125 118.960938 181.769531 118.4375 180.054688 C 117.941406 178.335938 117.335938 176.644531 116.769531 174.941406 L 116.003906 172.367188 C 115.867188 171.9375 115.734375 171.511719 115.566406 171.09375 L 115.3125 170.46875 C 115.226562 170.257812 115.066406 170.066406 114.609375 169.957031 Z M 72.347656 414.09375 C 72.289062 412.960938 72.246094 411.828125 72.15625 410.699219 C 72.070312 408.429688 71.929688 406.167969 71.878906 403.894531 C 71.757812 399.355469 71.730469 394.808594 71.652344 390.257812 L 71.382812 376.59375 C 71.371094 374.316406 71.402344 372.035156 71.421875 369.757812 C 71.425781 368.617188 71.433594 367.480469 71.402344 366.339844 L 71.371094 364.628906 C 71.363281 364.058594 71.277344 363.484375 70.886719 362.902344 C 70.453125 363.457031 70.328125 364.023438 70.28125 364.59375 L 70.152344 366.304688 C 70.054688 367.441406 70.003906 368.585938 69.957031 369.726562 L 69.742188 376.570312 C 69.542969 381.136719 69.425781 385.703125 69.390625 390.277344 C 69.371094 394.847656 69.582031 399.421875 69.886719 403.992188 C 70.027344 406.277344 70.226562 408.566406 70.484375 410.84375 C 70.632812 411.984375 70.820312 413.121094 70.996094 414.257812 C 71.089844 414.824219 71.21875 415.390625 71.328125 415.957031 C 71.429688 416.519531 71.617188 417.078125 72.160156 417.5625 C 72.535156 416.914062 72.558594 416.34375 72.496094 415.78125 C 72.449219 415.21875 72.382812 414.660156 72.347656 414.09375 Z M 128.296875 253.441406 C 128.5 253.441406 128.730469 253.390625 128.949219 253.320312 C 128.386719 252.066406 127.835938 250.808594 127.355469 249.519531 C 126.761719 247.976562 126.214844 246.410156 125.667969 244.847656 C 124.742188 243.875 123.804688 242.914062 122.839844 241.988281 C 122.332031 241.492188 121.835938 240.984375 121.351562 240.46875 C 121.128906 240.230469 120.917969 239.984375 120.707031 239.734375 C 118.019531 241.476562 112.382812 245.132812 106.734375 248.832031 C 106.757812 248.878906 106.785156 248.925781 106.804688 248.972656 C 107.011719 249.488281 107.207031 250.011719 107.433594 250.523438 C 107.902344 251.539062 108.414062 252.539062 108.816406 253.578125 C 109.25 254.609375 109.496094 255.699219 109.785156 256.78125 C 109.925781 257.320312 110.082031 257.855469 110.1875 258.410156 C 110.21875 258.570312 110.238281 258.734375 110.261719 258.898438 C 111.589844 258.816406 112.902344 258.648438 114.1875 258.398438 C 116.25 257.925781 118.261719 257.296875 120.089844 256.25 L 121.410156 255.390625 C 121.828125 255.070312 122.21875 254.710938 122.632812 254.375 C 122.835938 254.203125 123.039062 254.027344 123.253906 253.863281 L 123.804688 253.277344 L 124.296875 252.769531 C 124.261719 252.722656 124.226562 252.675781 124.1875 252.625 L 123.53125 251.722656 C 123.3125 251.421875 123.042969 251.148438 123.296875 250.546875 C 124.035156 250.480469 124.253906 250.746094 124.523438 250.980469 L 125.324219 251.6875 C 125.855469 252.136719 126.359375 252.710938 126.816406 252.992188 C 127.292969 253.296875 127.78125 253.476562 128.296875 253.441406 Z M 107.75 258.957031 C 108.03125 258.964844 108.308594 258.957031 108.589844 258.953125 C 108.328125 258.457031 108.121094 257.941406 107.898438 257.433594 C 107.738281 257.058594 107.570312 256.683594 107.410156 256.308594 C 107.042969 256.582031 106.664062 256.722656 106.269531 256.8125 C 105.714844 256.9375 105.164062 257.121094 104.613281 257.308594 C 103.695312 257.605469 102.785156 257.914062 101.871094 258.234375 C 101.925781 258.238281 101.976562 258.238281 102.019531 258.246094 L 102.847656 258.359375 L 104.480469 258.605469 C 105.566406 258.773438 106.65625 258.925781 107.75 258.957031 Z M 131.359375 253.515625 C 131.523438 253.96875 131.34375 254.457031 130.949219 254.699219 C 130.472656 254.996094 130.101562 255.125 129.644531 255.257812 C 129.207031 255.371094 128.742188 255.4375 128.269531 255.410156 C 127.328125 255.390625 126.402344 254.988281 125.730469 254.421875 C 125.484375 254.203125 125.285156 253.988281 125.101562 253.777344 L 124.882812 254.144531 L 124.410156 254.894531 C 124.222656 255.121094 124.019531 255.335938 123.820312 255.554688 C 123.414062 255.980469 123.039062 256.457031 122.589844 256.839844 L 121.167969 257.929688 C 119.191406 259.261719 116.941406 260.242188 114.597656 260.621094 C 112.253906 260.988281 109.894531 260.890625 107.613281 260.59375 C 107.039062 260.539062 106.472656 260.453125 105.902344 260.355469 C 105.335938 260.273438 104.769531 260.175781 104.210938 260.046875 C 103.648438 259.933594 103.097656 259.769531 102.550781 259.601562 L 101.742188 259.304688 C 101.464844 259.199219 101.261719 259.03125 101.066406 258.5625 C 101.109375 258.523438 101.152344 258.5 101.195312 258.46875 C 99.039062 259.21875 96.894531 260.007812 94.75 260.808594 C 90.390625 262.46875 86.070312 264.261719 81.710938 265.941406 L 68.617188 271.003906 L 62.128906 273.675781 C 61.046875 274.121094 59.960938 274.566406 58.863281 274.976562 L 57.222656 275.605469 C 56.675781 275.8125 56.097656 275.949219 55.398438 275.8125 C 55.765625 275.199219 56.261719 274.867188 56.785156 274.605469 L 58.363281 273.828125 C 59.410156 273.300781 60.480469 272.816406 61.546875 272.332031 L 67.980469 269.488281 C 72.246094 267.550781 76.539062 265.65625 80.867188 263.84375 C 85.214844 262.0625 89.617188 260.4375 94.074219 258.933594 C 96.308594 258.191406 98.535156 257.433594 100.820312 256.824219 C 101.945312 256.476562 103.109375 256.238281 104.269531 255.988281 C 104.847656 255.855469 105.425781 255.730469 106.023438 255.65625 C 106.386719 255.597656 106.757812 255.578125 107.140625 255.644531 C 106.964844 255.210938 106.804688 254.769531 106.679688 254.316406 C 106.355469 253.253906 106.140625 252.148438 105.878906 251.058594 C 105.757812 250.589844 105.613281 250.125 105.472656 249.660156 C 103.089844 251.226562 100.738281 252.777344 98.660156 254.164062 C 98.472656 254.289062 98.253906 254.355469 98.03125 254.355469 C 97.933594 254.355469 97.839844 254.34375 97.746094 254.316406 C 76.925781 248.925781 42.507812 220.296875 40.988281 213.191406 C 30.84375 165.738281 40.359375 129.394531 40.457031 129.03125 C 40.617188 128.429688 41.242188 128.070312 41.84375 128.230469 C 42.449219 128.394531 42.808594 129.015625 42.644531 129.621094 C 42.546875 129.976562 33.183594 165.828125 43.207031 212.71875 C 44.554688 219.03125 77.769531 246.492188 97.828125 251.992188 C 105.601562 246.820312 116.742188 239.601562 120.105469 237.425781 C 107.515625 220.355469 67.425781 195.769531 67.015625 195.519531 C 66.480469 195.195312 66.308594 194.496094 66.636719 193.960938 C 66.964844 193.429688 67.660156 193.257812 68.195312 193.585938 C 68.605469 193.835938 71.210938 195.433594 75.109375 197.957031 L 79.410156 144.539062 C 79.460938 143.914062 79.996094 143.457031 80.632812 143.5 C 81.257812 143.550781 81.71875 144.097656 81.671875 144.722656 L 77.296875 199.015625 C 77.289062 199.128906 77.265625 199.238281 77.226562 199.335938 C 90.34375 207.945312 113.972656 224.464844 122.652344 237.089844 C 122.824219 237.34375 122.890625 237.65625 122.828125 237.953125 C 122.769531 238.257812 122.589844 238.519531 122.332031 238.6875 C 122.316406 238.695312 122.101562 238.835938 121.730469 239.074219 C 121.910156 239.214844 122.089844 239.351562 122.265625 239.492188 C 122.8125 239.945312 123.351562 240.410156 123.875 240.890625 C 124.917969 241.851562 125.988281 242.78125 127.074219 243.691406 C 127.152344 243.757812 127.210938 243.832031 127.25 243.914062 L 127.292969 244.007812 C 128.023438 245.554688 128.761719 247.097656 129.441406 248.660156 C 130.140625 250.222656 130.738281 251.816406 131.324219 253.421875 Z M 70.253906 109.414062 C 70.84375 109.785156 71.480469 110.082031 72.035156 110.515625 L 73.730469 111.757812 C 74.320312 112.144531 74.828125 112.636719 75.355469 113.105469 C 75.875 113.582031 76.417969 114.035156 76.957031 114.5 L 78.484375 115.988281 L 79.253906 116.738281 C 79.503906 116.996094 79.816406 117.195312 80.417969 117.179688 C 80.546875 116.617188 80.386719 116.269531 80.164062 115.980469 L 79.511719 115.09375 C 79.066406 114.507812 78.65625 113.882812 78.164062 113.335938 C 77.652344 112.800781 77.152344 112.257812 76.621094 111.734375 C 76.101562 111.210938 75.59375 110.664062 75 110.214844 C 72.777344 108.230469 70.21875 106.59375 67.460938 105.386719 C 64.65625 104.269531 61.65625 103.679688 58.671875 103.589844 C 57.179688 103.503906 55.683594 103.585938 54.203125 103.753906 C 53.46875 103.878906 52.730469 103.980469 52.011719 104.203125 C 51.652344 104.300781 51.296875 104.421875 50.945312 104.550781 C 50.59375 104.667969 50.253906 104.890625 50.050781 105.398438 C 50.535156 105.664062 50.882812 105.664062 51.234375 105.605469 C 51.578125 105.539062 51.925781 105.488281 52.277344 105.449219 C 52.96875 105.339844 53.671875 105.285156 54.363281 105.207031 C 55.765625 105.117188 57.167969 105.058594 58.5625 105.226562 C 61.351562 105.53125 64.027344 106.371094 66.574219 107.464844 C 67.8125 108.09375 69.078125 108.660156 70.253906 109.414062 Z M 84.679688 98.785156 L 85.167969 99.269531 C 85.332031 99.425781 85.554688 99.539062 86.007812 99.445312 C 86.183594 99.003906 86.132812 98.769531 86.019531 98.578125 L 85.683594 98.011719 C 85.460938 97.632812 85.195312 97.292969 84.984375 96.910156 C 84.535156 96.171875 84.050781 95.457031 83.695312 94.664062 C 82.929688 93.113281 82.421875 91.46875 81.941406 89.835938 C 81.476562 88.199219 81.003906 86.554688 80.734375 84.855469 C 80.59375 84.011719 80.507812 83.15625 80.402344 82.300781 L 80.277344 81.007812 C 80.25 80.789062 80.230469 80.574219 80.214844 80.359375 C 80.207031 80.140625 80.128906 79.929688 79.691406 79.648438 C 79.199219 79.808594 79.070312 80.039062 79.03125 80.265625 C 78.980469 80.492188 78.933594 80.71875 78.894531 80.945312 C 78.8125 81.402344 78.761719 81.859375 78.726562 82.320312 C 78.660156 83.242188 78.6875 84.164062 78.75 85.085938 C 78.882812 86.921875 79.144531 88.777344 79.785156 90.519531 C 80.394531 92.269531 81.25 93.929688 82.261719 95.464844 C 82.722656 96.257812 83.253906 97.007812 83.785156 97.746094 C 84.042969 98.125 84.359375 98.460938 84.679688 98.785156 Z M 60.121094 114.871094 C 60.253906 114.261719 60.863281 113.878906 61.472656 114.007812 C 61.660156 114.050781 80.5 118.398438 82.757812 136.472656 C 82.835938 137.09375 82.394531 137.660156 81.773438 137.738281 C 81.726562 137.742188 81.679688 137.746094 81.632812 137.746094 C 81.070312 137.746094 80.582031 137.328125 80.511719 136.753906 C 78.445312 120.25 61.160156 116.261719 60.984375 116.222656 C 60.371094 116.089844 59.984375 115.484375 60.121094 114.871094"/></g><g id="change4_1"><path fill="#f2da1c" d="M 57.195312 1.429688 L 57.058594 1.347656 C 56.96875 1.304688 56.878906 1.269531 56.789062 1.261719 C 56.613281 1.25 56.433594 1.246094 56.253906 1.222656 C 55.890625 1.148438 55.515625 1.042969 55.15625 1.0625 C 54.789062 1.050781 54.460938 1.242188 54.132812 1.402344 C 53.972656 1.488281 53.804688 1.558594 53.65625 1.683594 C 53.578125 1.746094 53.507812 1.820312 53.441406 1.902344 L 53.339844 2.035156 C 53.304688 2.066406 53.289062 2.1875 53.394531 2.640625 C 53.578125 3.066406 53.644531 3.164062 53.6875 3.171875 L 53.828125 3.230469 C 53.917969 3.265625 54.011719 3.296875 54.09375 3.3125 C 54.269531 3.351562 54.425781 3.339844 54.589844 3.347656 C 54.914062 3.355469 55.242188 3.414062 55.535156 3.289062 C 55.835938 3.195312 56.121094 3 56.425781 2.855469 C 56.578125 2.796875 56.734375 2.769531 56.890625 2.730469 C 56.96875 2.710938 57.042969 2.667969 57.121094 2.617188 L 57.234375 2.523438 C 57.277344 2.492188 57.3125 2.382812 57.339844 1.972656 C 57.285156 1.566406 57.238281 1.457031 57.195312 1.429688 Z M 50.84375 3.429688 C 50.710938 3.933594 50.539062 4.074219 50.347656 4.136719 L 49.792969 4.351562 C 49.421875 4.472656 49.0625 4.617188 48.710938 4.785156 C 48.351562 4.941406 48.007812 5.105469 47.648438 5.238281 L 46.632812 5.785156 C 45.300781 6.542969 44.097656 7.484375 42.9375 8.488281 C 41.78125 9.5 40.644531 10.578125 39.652344 11.816406 C 39.171875 12.441406 38.738281 13.105469 38.332031 13.785156 L 37.699219 14.792969 L 37.367188 15.292969 C 37.261719 15.464844 37.089844 15.597656 36.632812 15.636719 C 36.324219 15.296875 36.308594 15.054688 36.367188 14.851562 C 36.429688 14.648438 36.480469 14.4375 36.554688 14.242188 C 36.691406 13.839844 36.863281 13.453125 37.050781 13.078125 C 37.421875 12.324219 37.863281 11.605469 38.300781 10.882812 C 39.167969 9.433594 40.167969 8.023438 41.410156 6.824219 C 42.621094 5.582031 44.171875 4.699219 45.75 3.992188 L 46.953125 3.507812 C 47.371094 3.382812 47.796875 3.289062 48.214844 3.1875 C 48.628906 3.0625 49.058594 3.019531 49.492188 3 L 50.136719 2.96875 C 50.347656 2.949219 50.578125 3.007812 50.84375 3.429688"/></g><g id="change5_1"><path fill="#8c9cbc" d="M 165.308594 168.269531 L 142.214844 182.347656 L 139.300781 180.660156 L 161.890625 167.449219 L 165.308594 168.269531"/></g></g></svg>