<?xml version="1.0" encoding="UTF-8"?><svg xmlns="http://www.w3.org/2000/svg" xmlns:xlink="http://www.w3.org/1999/xlink" contentScriptType="text/ecmascript" fill="#ffffff" width="30" zoomAndPan="magnify" contentStyleType="text/css" viewBox="1.0 3.4 30.0 24.1" height="24.1" preserveAspectRatio="xMidYMid meet" version="1"><g id="change1_1"><path fill="inherit" d="M28,5.25684h-2.28125V4.375c0-0.55273-0.44775-1-1-1s-1,0.44727-1,1v0.88184h-3.8125V4.375c0-0.55273-0.44775-1-1-1 s-1,0.44727-1,1v0.88184h-3.8125V4.375c0-0.55273-0.44775-1-1-1s-1,0.44727-1,1v0.88184h-3.8125V4.375c0-0.55273-0.44775-1-1-1 s-1,0.44727-1,1v0.88184H4c-1.6543,0-3,1.3457-3,3v16.22559c0,1.6543,1.3457,3,3,3h24c1.6543,0,3-1.3457,3-3V8.25684 C31,6.60254,29.6543,5.25684,28,5.25684z M4,7.25684h2.28125v0.88184c0,0.55273,0.44775,1,1,1s1-0.44727,1-1V7.25684h3.8125 v0.88184c0,0.55273,0.44775,1,1,1s1-0.44727,1-1V7.25684h3.8125v0.88184c0,0.55273,0.44775,1,1,1s1-0.44727,1-1V7.25684h3.8125 v0.88184c0,0.55273,0.44775,1,1,1s1-0.44727,1-1V7.25684H28c0.55127,0,1,0.44824,1,1v2.91309H3V8.25684 C3,7.70508,3.44873,7.25684,4,7.25684z M28,25.48242H4c-0.55127,0-1-0.44824-1-1v-11.3125h26v11.3125 C29,25.03418,28.55127,25.48242,28,25.48242z"/></g></svg>