<?xml version="1.0" encoding="UTF-8"?><svg xmlns="http://www.w3.org/2000/svg" xmlns:xlink="http://www.w3.org/1999/xlink" contentScriptType="text/ecmascript" fill="#ffffff" width="31" zoomAndPan="magnify" contentStyleType="text/css" viewBox="0.5 1.4 31.0 29.1" height="29.1" preserveAspectRatio="xMidYMid meet" version="1"><g id="change1_1"><path fill="inherit" d="M7.3125,1.44629H2c-0.82861,0-1.5,0.67188-1.5,1.5v5.3125c0,0.82813,0.67139,1.5,1.5,1.5h5.3125 c0.82861,0,1.5-0.67188,1.5-1.5v-5.3125C8.8125,2.11816,8.14111,1.44629,7.3125,1.44629z M5.8125,6.75879H3.5v-2.3125h2.3125 V6.75879z"/><path fill="inherit" d="M12.83057,7.10254H30c0.82813,0,1.5-0.67188,1.5-1.5s-0.67188-1.5-1.5-1.5H12.83057c-0.82861,0-1.5,0.67188-1.5,1.5 S12.00195,7.10254,12.83057,7.10254z"/><path fill="inherit" d="M7.3125,11.84375H2c-0.82861,0-1.5,0.67188-1.5,1.5v5.3125c0,0.82813,0.67139,1.5,1.5,1.5h5.3125 c0.82861,0,1.5-0.67188,1.5-1.5v-5.3125C8.8125,12.51563,8.14111,11.84375,7.3125,11.84375z M5.8125,17.15625H3.5v-2.3125h2.3125 V17.15625z"/><path fill="inherit" d="M30,14.5H12.83057c-0.82861,0-1.5,0.67188-1.5,1.5s0.67139,1.5,1.5,1.5H30c0.82813,0,1.5-0.67188,1.5-1.5 S30.82813,14.5,30,14.5z"/><path fill="inherit" d="M7.3125,22.24121H2c-0.82861,0-1.5,0.67188-1.5,1.5v5.3125c0,0.82813,0.67139,1.5,1.5,1.5h5.3125 c0.82861,0,1.5-0.67188,1.5-1.5v-5.3125C8.8125,22.91309,8.14111,22.24121,7.3125,22.24121z M5.8125,27.55371H3.5v-2.3125h2.3125 V27.55371z"/><path fill="inherit" d="M30,24.89746H12.83057c-0.82861,0-1.5,0.67188-1.5,1.5s0.67139,1.5,1.5,1.5H30c0.82813,0,1.5-0.67188,1.5-1.5 S30.82813,24.89746,30,24.89746z"/></g></svg>