<?xml version="1.0" encoding="UTF-8"?><svg xmlns="http://www.w3.org/2000/svg" xmlns:xlink="http://www.w3.org/1999/xlink" contentScriptType="text/ecmascript" fill="#000000" width="235.8" zoomAndPan="magnify" contentStyleType="text/css" viewBox="0.0 0.0 235.8 203.0" height="203" preserveAspectRatio="xMidYMid meet" version="1"><g><linearGradient x1="0" xmlns:xlink="http://www.w3.org/1999/xlink" y1="109.708" x2="235.575" gradientUnits="userSpaceOnUse" y2="109.708" xlink:type="simple" xlink:actuate="onLoad" id="a" xlink:show="other"><stop stop-color="#141c75" offset="0"/><stop stop-color="#f2da1c" offset="1"/></linearGradient><path fill="url(#a)" d="M182.4,43.6c-2,0-3.9,0.1-5.8,0.3c-13.8,1.6-27.7-2-38.5-10.7c-7.8-6.2-17.7-10-28.5-10 c-6.6,0-13,1.4-18.7,4c-6.4,2.9-13.9,2.2-19.7-1.7c-8-5.4-17.7-8.3-28.1-7.7C19.7,19.2,0,38.3,0,61.7c0,27.2,17.5,38.9,30.9,43.9 c8.1,3,13,11.4,11.8,20c-0.8,5.9-1.4,12.2-1.1,17.1c1.8,31.7,27.6,57.3,59.4,58.9c27.6,1.4,51.4-15.1,61.2-38.8 c3.4-8.2,11.5-13.4,20.4-13.3c0.1,0,0.1,0,0.2,0c29.3,0,53-23.7,52.9-53C235.5,67.4,211.5,43.4,182.4,43.6z"/><circle fill="url(#a)" r="16.5" cx="166.7" cy="16.5"/><circle fill="url(#a)" r="8.9" cx="186.5" cy="175.8"/><circle fill="url(#a)" r="11" cx="21.1" cy="123.9"/></g></svg>