<svg viewBox="0 0 96 96" xmlns="http://www.w3.org/2000/svg" xmlns:xlink="http://www.w3.org/1999/xlink" id="Icons_Headphones" overflow="hidden"><style>
.MsftOfcThm_Background1_Fill_v2 {
 fill:#FFFFFF; 
}
</style>
<path d="M48 14C27 14 10 31 10 52L10 70C10 71.7 11.3 73 13 73 14.7 73 16 71.7 16 70L16 69 20 69 20 78C20 80.2 21.8 82 24 82L30 82C32.2 82 34 80.2 34 78L34 56C34 53.8 32.2 52 30 52L24 52C21.8 52 20 53.8 20 56L20 65 16 65 16 52C16 34.4 30.4 20 48 20 65.6 20 80 34.4 80 52L80 65 76 65 76 56C76 53.8 74.2 52 72 52L66 52C63.8 52 62 53.8 62 56L62 78C62 80.2 63.8 82 66 82L72 82C74.2 82 76 80.2 76 78L76 69 80 69 80 70C80 71.7 81.3 73 83 73 84.7 73 86 71.7 86 70L86 52C86 31 69 14 48 14Z" class="MsftOfcThm_Background1_Fill_v2" fill="#FFFFFF"/></svg>