<svg viewBox="0 0 96 96" xmlns="http://www.w3.org/2000/svg" xmlns:xlink="http://www.w3.org/1999/xlink" id="Icons_Bubbles" overflow="hidden"><style>
.MsftOfcThm_Background1_Fill_v2 {
 fill:#FFFFFF; 
}
</style>
<path d="M53.25 29C44.9657 29 38.25 35.7157 38.25 44 38.25 44.33 38.25 44.65 38.25 45 45.6691 41.3892 54.6106 44.4764 58.2214 51.8955 59.078 53.6554 59.5803 55.5664 59.7 57.52 67.1669 53.9319 70.3114 44.9701 66.7233 37.5032 64.2331 32.3208 58.9996 29.0179 53.25 29ZM63.25 43C62.6977 43 62.25 42.5523 62.25 42 62.25 38.134 59.116 35 55.25 35 54.6977 35 54.25 34.5523 54.25 34 54.25 33.4477 54.6977 33 55.25 33 60.2206 33 64.25 37.0294 64.25 42 64.25 42.5523 63.8023 43 63.25 43Z" class="MsftOfcThm_Background1_Fill_v2" stroke-width="0.95832" fill="#FFFFFF"/><path d="M44.75 45.5C37.5703 45.5 31.75 51.3203 31.75 58.5 31.75 65.6797 37.5703 71.5 44.75 71.5 51.9297 71.5 57.75 65.6797 57.75 58.5 57.75 51.3203 51.9297 45.5 44.75 45.5ZM52.75 57.5C52.1977 57.5 51.75 57.0523 51.75 56.5 51.75 53.7386 49.5114 51.5 46.75 51.5 46.1977 51.5 45.75 51.0523 45.75 50.5 45.75 49.9477 46.1977 49.5 46.75 49.5 50.616 49.5 53.75 52.634 53.75 56.5 53.75 57.0523 53.3023 57.5 52.75 57.5Z" class="MsftOfcThm_Background1_Fill_v2" stroke-width="0.95832" fill="#FFFFFF"/><path d="M24.75 29.5C19.7794 29.5 15.75 33.5294 15.75 38.5 15.75 43.4706 19.7794 47.5 24.75 47.5 29.7206 47.5 33.75 43.4706 33.75 38.5 33.75 33.5294 29.7206 29.5 24.75 29.5ZM29.25 38C28.6977 38 28.25 37.5523 28.25 37 28.25 35.8954 27.3546 35 26.25 35 25.6977 35 25.25 34.5523 25.25 34 25.25 33.4477 25.6977 33 26.25 33 28.4591 33 30.25 34.7909 30.25 37 30.25 37.5523 29.8023 38 29.25 38Z" class="MsftOfcThm_Background1_Fill_v2" stroke-width="0.95832" fill="#FFFFFF"/><path d="M73.75 67.5C68.2271 67.5 63.75 71.9771 63.75 77.5 63.75 83.0229 68.2271 87.5 73.75 87.5 79.2729 87.5 83.75 83.0229 83.75 77.5 83.75 71.9771 79.2729 67.5 73.75 67.5ZM78.75 77.17C78.1061 77.1646 77.5854 76.6439 77.58 76 77.58 74.7132 76.5368 73.67 75.25 73.67 74.6038 73.67 74.08 73.1462 74.08 72.5 74.08 71.8538 74.6038 71.33 75.25 71.33 77.8269 71.3355 79.9145 73.4231 79.92 76 79.9146 76.6439 79.3939 77.1646 78.75 77.17Z" class="MsftOfcThm_Background1_Fill_v2" stroke-width="0.95832" fill="#FFFFFF"/><circle cx="71.75" cy="22.5" r="7.22" class="MsftOfcThm_Background1_Fill_v2" stroke-width="0.95832" fill="#FFFFFF"/><circle cx="20.75" cy="74.5" r="8" class="MsftOfcThm_Background1_Fill_v2" stroke-width="0.95832" fill="#FFFFFF"/><circle cx="34.25" cy="14.5" r="6.22" class="MsftOfcThm_Background1_Fill_v2" stroke-width="0.95832" fill="#FFFFFF"/><circle cx="17.25" cy="19.5" r="3" class="MsftOfcThm_Background1_Fill_v2" stroke-width="0.95832" fill="#FFFFFF"/><circle cx="77.25" cy="58.5" r="3" class="MsftOfcThm_Background1_Fill_v2" stroke-width="0.95832" fill="#FFFFFF"/><circle cx="37.25" cy="80.5" r="3" class="MsftOfcThm_Background1_Fill_v2" stroke-width="0.95832" fill="#FFFFFF"/></svg>