<svg viewBox="0 0 96 96" xmlns="http://www.w3.org/2000/svg" xmlns:xlink="http://www.w3.org/1999/xlink" id="Icons_PartyMask" overflow="hidden"><style>
.MsftOfcThm_Background1_Fill_v2 {
 fill:#FFFFFF; 
}
</style>
<path d="M93.15 53C90.15 44 84.15 45 84.15 45 91.15 41 89.15 28 89.15 28 85.15 39 81.15 38 81.15 38 87.15 28 80.15 19 80.15 19 80.67 27.27 77.44 31 74.21 32.67 71.8257 33.0161 69.4193 33.1866 67.01 33.18 46 33.13 44.77 42.9 44.21 45 43.65 42.89 42.36 33.12 21.41 33.12 9.62 33.12 4.71 29.53 4.71 29.53 5.32726 31.8302 6.09218 34.0882 7 36.29L7 68.73C6.35481 69.307 5.99026 70.1345 6 71L6 77C6 78.6569 7.34315 80 9 80 10.6569 80 12 78.6569 12 77L12 71C11.9954 70.1519 11.6321 69.3454 11 68.78L11 44.31C15.07 50.97 21.31 57.31 30.26 57.31 40.08 57.31 44.15 52.77 44.26 52.74 44.37 52.71 48.39 57.31 58.21 57.31 61.9737 57.3153 65.6474 56.1595 68.73 54 77 55.62 74.43 71 74.43 71 85.86 55.3 79.53 51.58 79.53 51.58 85.53 47.62 93.15 53 93.15 53ZM37.61 48.13C37.39 48.29 35.18 50.13 30.26 50.13 24.41 50.13 19.98 45.28 16.92 40.13 18.32 40.24 19.81 40.3 21.41 40.3 31.41 40.3 33.85 41.78 36.31 43.73 37.7262 44.707 38.2678 46.5402 37.61 48.13ZM57.76 50.13C52.84 50.13 50.63 48.24 50.41 48.13 49.7536 46.5432 50.2954 44.7135 51.71 43.74 54.17 41.74 56.59 40.31 66.6 40.31 68.2 40.31 69.7 40.25 71.1 40.14 68 45.33 63.6 50.18 57.76 50.18Z" class="MsftOfcThm_Background1_Fill_v2" stroke-width="0.95832" fill="#FFFFFF"/></svg>