<svg viewBox="0 0 96 96" xmlns="http://www.w3.org/2000/svg" xmlns:xlink="http://www.w3.org/1999/xlink" id="Icons_MuteRinger" overflow="hidden"><style>
.MsftOfcThm_Background1_Fill_v2 {
 fill:#FFFFFF; 
}
</style>
<path d="M19.52 74 62.13 31.39C61.07 23.15 55.55 19.39 50.87 17.76 51.0595 17.1104 51.1538 16.4367 51.15 15.76 51.15 11.8112 47.9488 8.61 44 8.61 40.0512 8.61 36.85 11.8112 36.85 15.76 36.8462 16.4367 36.9405 17.1104 37.13 17.76 32.05 19.56 25.98 23.76 25.69 33.56 24.89 60.16 16.44 67.36 10.81 70.18 8.52 71.32 9.67 74 11 74ZM44 12.66C45.7397 12.66 47.15 14.0703 47.15 15.81 47.1457 16.1257 47.0952 16.439 47 16.74 46.0105 16.5481 45.0074 16.4344 44 16.4L44 16.4C42.9931 16.4406 41.9905 16.5542 41 16.74 40.9041 16.4426 40.8535 16.1325 40.85 15.82 40.8445 14.0803 42.2503 12.6655 43.99 12.66 43.9933 12.66 43.9967 12.66 44 12.66Z" class="MsftOfcThm_Background1_Fill_v2" stroke-width="0.95832" fill="#FFFFFF"/><path d="M77.19 70.19C72.31 67.75 65.33 62 63 43.22L87.1 19.12 82.86 14.88 14.86 82.88 19.1 87.12 32.24 74 36.5 74C36.9284 78.1421 40.6335 81.1527 44.7756 80.7244 48.3262 80.3572 51.1328 77.5506 51.5 74L77 74C78.33 74 79.48 71.33 77.19 70.19Z" class="MsftOfcThm_Background1_Fill_v2" stroke-width="0.95832" fill="#FFFFFF"/></svg>