<?xml version="1.0" encoding="UTF-8"?><svg xmlns="http://www.w3.org/2000/svg" xmlns:xlink="http://www.w3.org/1999/xlink" contentScriptType="text/ecmascript" fill="#000000" width="501.5" zoomAndPan="magnify" contentStyleType="text/css" viewBox="0.0 -2.0 501.5 352.7" height="352.7" preserveAspectRatio="xMidYMid meet" version="1"><g id="change1_1"><path fill="#201139" d="M331.7,34.2c-1.9,5.8-11.4,28.9-12.9,36l-62.3-18.9c0-7.5,0-25.4,0-28.1c0,0,0-2,0-13.1 C256.6-1,267.9-2,269.1,6c1.3-7.5,11.8-6.1,11.9,1.7c1.5-7.5,13.8-7.6,13,2.1c2-7.2,12.8-5.6,11.4,1.5c3.3-4.5,12.7,0.9,9.1,6.3 c3.3-4.3,12.6,2.6,9.5,8.2C326.6,21.3,334.2,26.5,331.7,34.2z"/></g><g id="change2_1"><path fill="#f2da1c" d="M433.2,315.6c-10.2,25.4-56.3,20.2-91.1,13.3c0.3-5.4,1.4-14.2,2.7-23.6l-36.3-10l-0.2-3.9l-63.5-21.6 l-1.3,42.1l-21.4,33l-52.5-41.7l15.6-43.8c0,0,11.1-59.7,15.6-73.4c5.7-17.2,9.4-30.5,23.8-41.8c9.3-7.3,30.3-18.2,39.4-21l6.1-2.9 l39.8-8.2c0,0,10.6,8.1,23.2,11.1c27.4,10.8,55.4,22,65.9,43C424.2,216.5,445.2,285.6,433.2,315.6z"/></g><g id="change3_1"><path fill="#141c75" d="M500.8,325.5L500.8,325.5c0,13.5-10.9,24.4-24.4,24.4H25.2c-13.5,0-24.4-10.9-24.4-24.4v0 c0-13.5,10.9-24.4,24.4-24.4h315c2.8,0,4.9,2.5,4.5,5.2c-1,6.9-1.8,13.4-2.3,18.5c-0.2,2.3,1.4,4.5,3.7,4.9 c34.2,6.5,77.3,10.4,87.1-14.1c1.2-3.1,2.1-6.7,2.7-10.6c0.3-2.2,2.3-3.9,4.5-3.9h35.9C489.8,301.1,500.8,312,500.8,325.5z"/></g><g id="change4_1"><path fill="#ffa780" d="M307.8,62.1c0,0,7.7-2.2,10.5,4.8c3.3,8.3-7.6,15-11,19.1c-1.9,2.3-3.1,20.2,2.7,26.1 c0.6,3.4-4,20.6-17.7,23.1c-13.7,2.5-22.1-3.4-22.1-14.9c0.8-5.5-0.2-10.9-0.2-13.2c-16.2,0.3-13.5-23.7-13.5-35.7 c0-0.7,0-3.1,0-3.8c0-4.5,0-9.7,0-16.3c0-3.4,3.9-5.7,7.2-5.1c1.2,0.2,2.3,0.7,3.6,0.7c1.9-0.1,3.4-1.5,4.9-2.7s3.5-2.2,5.3-1.4 c1.5,0.7,2.3,2.6,3.8,3.2c1.5,0.6,3.1-0.1,4.7-0.3c2.5-0.3,5,0.9,6.4,3c1.1,1.7,1.5,4,3.1,5.3c2.7,2.3,7.9,0.8,9.7,3.9 c0.4,0.7,0.5,1.6,0.8,2.3C306.3,61.1,306.9,62,307.8,62.1z M218.7,276.2c3.3,2.3,11,5.2,40.4,13.1c9.7,2.6,61.4,22.3,83.7,30.9 c1.2-9.9,5.6-39.4,7.6-51.7c-25.2-6.1-75.4-18.4-78.3-19.5c-7.2-2.9-9.4-7.7-11.6-12.7c-1.3-2.8-6.1-7.2-10.2-9.6 c-4.2-2.4-10.6-4.7-19.3-1.4c-2.4-1.4-4.5-2.5-5.6-2.9c-4.1-1.5-4.4,4.1-8.2,7.2c-3.8,3.1-2.1,8.8-5.8,11.4 c-3.7,2.6-3.2,8.2-5.2,11.3C204.2,255.6,201.8,264.4,218.7,276.2z"/></g><g id="change1_2"><path fill="#201139" d="M389.9,335.2c-13.1,0-29.1-1.9-48-5.6l-0.6-0.1l0-0.7c1-16.5,9.1-64.6,9.1-65.1l0.1-0.7l30.9,3.8l-0.2,1.5 l-29.4-3.7c-1,6-7.9,47.7-9,63.6c52.7,10.4,82,6.1,89.6-13c11.7-29.4-8.3-97-34.1-148.7C388,145.7,360,134.6,333,124 c-1.1-0.3-14.1-3.3-23.5-11.2c-6.7-5.6-4.9-24.6-2.8-27.2c0.8-0.9,1.9-1.9,3.2-3.1c2.3-2,4.9-4.3,6.3-7c1.1-2,1.9-5.4,1.9-5.4 c1-4.8,5.4-16.3,9-25.7c1.7-4.6,3.3-8.5,3.9-10.4c1.5-4.5-0.8-7.9-3-8.8c-0.7-0.3-2.3-0.8-3.4,1c0,0,0,0,0,0l-1.3-0.7c0,0,0,0,0,0 l0,0c0,0,0,0,0,0c1.5-2.6-0.3-5.7-2.8-7.3c-1.7-1.1-4.1-1.8-5.5-0.1l-1.2-0.9c1.5-2.3,0.3-4.4-1.5-5.6c-2-1.4-5-1.8-6.4,0.2 l-1.9,2.6l0.6-3.2c0.6-3.1-1.4-4.7-3.3-5.1c-2.6-0.6-5.7,0.6-6.6,4l-1.5-0.3c0.4-4.4-2.1-6.3-4.6-6.7c-2.9-0.4-6.2,1.3-6.9,4.7 l-1.4,7l-0.1-7.1c-0.1-3.7-2.7-5.7-5.2-5.9c-2.1-0.2-4.7,0.9-5.3,4.3l-0.8,4.6l-0.7-4.6c-0.5-3.4-2.9-4.7-5.1-4.6 c-2.9,0.2-6,3-6,8.6c0,11.1,0,13.1,0,13.1c0,1.3,0,6,0,11.3c0,6,0,12.9,0,16.8v26.4c0,1,0,2,0,3c-0.1,12.2-0.2,24.8,12.8,25.6l0.7,0 l0,0.7c0,1.3,0.2,7.8,0.2,13.2l0,0.5l-0.5,0.2c-0.3,0.1-29.6,12.3-45.3,23.8c-13.1,9.5-17,21.4-21.9,36.4c-0.5,1.6-1.1,3.3-1.6,4.9 c-4.5,13.5-15.5,72.7-15.6,73.3l-1.5-0.3c0.1-0.6,11.1-60,15.6-73.5c0.6-1.7,1.1-3.3,1.6-4.9c4.8-14.7,8.9-27.4,22.4-37.2 c14.8-10.8,41.4-22.2,45.2-23.8c0-4.6-0.1-10-0.2-12c-13.7-1.3-13.6-15-13.5-27.1c0-1,0-2,0-3V51.4c0-4,0-10.8,0-16.8 c0-5.4,0-10,0-11.3c0,0,0-2,0-13.1c0-6.6,3.8-9.8,7.4-10.1c2.6-0.2,4.8,1.2,6,3.5c1.3-2.4,3.8-3.4,6.1-3.2c2.4,0.2,5,1.7,6.1,4.6 c1.7-2.6,4.8-3.8,7.6-3.4c2.4,0.3,5,2,5.7,5.4c1.8-2.2,4.7-2.9,7.1-2.4c2.3,0.5,4.3,2.2,4.6,5c2.1-1.2,5-0.7,7.1,0.8 c1.7,1.2,3,3.2,2.7,5.4c1.6-0.5,3.5-0.1,5.4,1.2c2.3,1.5,4.1,4.1,4,6.8c1-0.4,2.1-0.3,3.2,0.2c3.1,1.4,5.4,5.8,3.8,10.7 c-0.6,2-2.2,5.9-3.9,10.5c-3.4,8.8-8,20.8-8.9,25.4c0,0.2-0.9,3.6-2,5.8c-1.6,3-4.4,5.4-6.7,7.4c-1.3,1.1-2.3,2-3,2.9 c-1.5,1.9-3.4,20,2.6,25.1c9.3,7.8,22.8,10.9,22.9,10.9l0.1,0c27.3,10.8,55.6,22,66.3,43.3c26,52,46.1,120.2,34.2,150 C428.7,328.8,414.2,335.2,389.9,335.2z M292.4,300.3h-20.9v1.5h20.9V300.3z"/></g><g id="change5_1"><path fill="#d2eeff" d="M262.4,205.4c1.8,1.2,2.1,3.7,0.8,5.4l-18.5,23l-6.2-3.9l19-23.7C258.6,204.6,260.8,204.3,262.4,205.4z M86.1,240l33.7,34.1c-0.4,1.3-0.1,3.2-0.8,4.5c-1.5,2.9-17.4,42.8-17.4,42.8h30.7h0h36.8h14h91.9c5.8,0,8.7-7.1,4.4-11.1 l-78.7-79.6c-1.2-1.1-2.8-1.8-4.4-1.8H90.5C84.7,228.9,81.8,236,86.1,240z"/></g><g id="change1_3"><path fill="#201139" d="M267.9,71.7V60.6h1.5v11.1c0,3,2.4,5.4,5.4,5.4h1v1.5h-1C271,78.5,267.9,75.5,267.9,71.7z M286.4,56.6 l1.2-0.9c-0.1-0.2-2.7-3.7-9.4-3.7v1.5C284.1,53.6,286.3,56.5,286.4,56.6z M264.1,53.6l0.1-1.5c-0.3,0-6.6-0.6-8.4,3.5l1.4,0.6 C258.6,53.1,264,53.6,264.1,53.6z M182.1,237.9H95.9v1.5h86.2V237.9z M272,91.3c4.7-0.2,7.9-4.3,8-4.4l-1.2-0.9c0,0-2.9,3.7-6.9,3.8 c-2.5,0.1-5-1.2-7.4-3.9l-1.1,1c2.6,2.9,5.4,4.4,8.2,4.4C271.8,91.3,271.9,91.3,272,91.3z M501.5,325.5c0,13.9-11.3,25.2-25.2,25.2 H25.2C11.3,350.7,0,339.4,0,325.5s11.3-25.2,25.2-25.2h84.3l9.7-23.9c0.2-0.4,0.5-0.8,0.8-1.2l-34.3-34.7c-2.2-2-2.9-5.1-1.7-7.9 s3.7-4.5,6.7-4.5h105.9c0.2,0,0.5,0,0.7,0c0.2,0,0.3,0,0.5,0c1.1,0,2.1,0.3,3,0.9l0.1,0.1l58.6,59.5l0,0 c11.8,3.5,58.8,21.3,82.9,30.5c1.3-10.4,5.3-37.5,7.3-50.1c-0.2-0.1-0.4-0.1-0.6-0.2l-3.9-1l0,0c-28.3-6.9-70.4-17.2-73.1-18.3 c-7.6-3.1-9.9-8.4-12-13.1c-1.1-2.5-5.5-6.1-9.4-8.9l-4.7,5.8c0.5,0.3,0.9,0.6,1,0.6c2.9,1.9,4.4,2,4.5,2l-0.1,1.5 c-0.2,0-2-0.2-5.2-2.3c-0.2-0.1-16.8-10.7-20.8-12.2c-1.9-0.7-2.6,0.3-4.1,2.8c-0.9,1.4-1.9,3.1-3.4,4.4c-1.7,1.4-2.2,3.4-2.7,5.5 c-0.4,1.9-0.9,3.9-2.4,5.3l-1.1-1.1c1.1-1.1,1.5-2.8,2-4.6c0.5-2.2,1.1-4.6,3.2-6.3c1.4-1.1,2.3-2.6,3.1-4c1.4-2.3,2.8-4.6,5.9-3.4 c1,0.4,2.9,1.4,5,2.6l1.7-0.4c1.7-13.5,10.3-36.2,10.4-36.5l1.4,0.5c-0.1,0.2-8.4,22.2-10.2,35.6l3.5-0.8c0.2-0.1,0.5-0.1,0.7-0.1h5 l13.7-17.1c1.4-1.8,4.1-2.2,6-0.9c1,0.7,1.7,1.8,1.9,3s-0.2,2.5-0.9,3.4l-12.4,15.4c2.6,1.8,8.3,6.1,9.8,9.4 c2.1,4.6,4.2,9.4,11.2,12.3c1.9,0.8,28.2,7.4,72.4,18.1l-5.1-56.6l20.8,56l-8.7-1.1l-0.7,4c-2,12.6-6.3,41.9-7.5,51.6l-0.1,1 l-0.9-0.3c-11.1-4.3-27.5-10.5-43.1-16.3l-17.1,10.7c0,0.8-0.2,1.6-0.5,2.3c-1.1,2.8-3.7,4.5-6.7,4.5c0,0,0,0,0,0c0,0,0,0,0,0H100.6 l8.3-20.4H25.2c-13,0-23.7,10.6-23.7,23.7s10.6,23.7,23.7,23.7h451.2c13,0,23.7-10.6,23.7-23.7s-10.6-23.7-23.7-23.7h-40v-1.5h40 C490.2,300.3,501.5,311.6,501.5,325.5z M232.6,225.4c1.8,1.1,3.8,2.3,5.7,3.4l3.7-4.6h-3.8c-0.1,0-0.2,0-0.4,0L232.6,225.4z M244.6,232.7l18.1-22.4c0.5-0.6,0.7-1.5,0.6-2.3s-0.6-1.5-1.2-2c-1.3-0.9-3-0.6-4,0.6l-18.4,23.1 C241.5,230.8,243.3,231.9,244.6,232.7z M192.3,233.2c-0.7,1.7-0.7,4.3,1.4,6.3l79.4,80.6c0.6,0.4,1.4,0.6,2.1,0.6 c2.8,0,4.6-1.9,5.3-3.6c0.7-1.7,0.7-4.3-1.4-6.3l-78.8-79.7c-0.9-0.9-2.1-1.4-3.4-1.5C194.5,229.9,192.9,231.6,192.3,233.2z M210.6,320.7h61l-3.4-3.5h-41.3h-14.9L210.6,320.7z M121.1,274.4c0.6-0.3,1.3-0.5,2-0.5h100.2c1.2,0,2.3,0.6,2.9,1.6 c0.6,0.9,0.7,1.9,0.4,2.9c0.1,0.2,0.2,0.4,0.2,0.6v36.8h39.9l-74.1-75.2c-2.2-2.1-2.8-5.1-1.7-7.9c0.5-1.3,1.3-2.3,2.3-3H90.5 c-2.9,0-4.6,1.9-5.3,3.6c-0.7,1.7-0.7,4.3,1.4,6.3L121.1,274.4z M102.8,320.7H209l1.3-3.5h0l0.7-1.9l0,0l0-0.1l13.7-36.6 c0.1-0.2,0.2-0.4,0.4-0.5c0.2-0.6,0.2-1.3-0.2-1.8c-0.4-0.6-1-0.9-1.7-0.9H123.1c-1.1,0-2.1,0.7-2.6,1.7L102.8,320.7z M270,106.5 h-0.8l0.2,9.9l0.8-0.1c8.6-0.6,17.8-11.7,18.2-12.2l1.8-2.2l-2.7,1.1C287.4,103,278.6,106.5,270,106.5z M281.1,134.5 c-10.7-2.4-10.2-13.6-10.2-14l-1.5-0.1c0,0.1-0.6,12.9,11.4,15.6c1.8,0.4,3.6,0.6,5.5,0.6c5,0,10-1.5,14-4.3 c5.9-4.2,9.5-11.1,10.5-19.9l-1.5-0.2c-0.9,8.4-4.3,14.9-9.9,18.9C294.3,134.6,287.5,135.9,281.1,134.5z M284.7,64.5l0.9-1.2 c-7-4.8-10.9,0.1-11,0.2l1.2,0.9C275.9,64.1,278.9,60.4,284.7,64.5z M255.9,63.3l1.2,0.9c0.1-0.1,2.7-3.4,7.8,0.2l0.9-1.2 C259.5,58.8,255.9,63.2,255.9,63.3z"/></g></svg>