<?xml version="1.0" encoding="UTF-8"?><svg xmlns="http://www.w3.org/2000/svg" xmlns:xlink="http://www.w3.org/1999/xlink" contentScriptType="text/ecmascript" fill="#000000" width="44.6" zoomAndPan="magnify" contentStyleType="text/css" viewBox="-0.3 -0.3 44.6 44.6" height="44.6" preserveAspectRatio="xMidYMid meet" version="1"><g id="change1_1"><path fill="#100f0d" d="M 43.125 0.875 C 41.960938 -0.292969 40.066406 -0.292969 38.902344 0.875 L 22 17.773438 L 5.101562 0.875 C 3.933594 -0.292969 2.042969 -0.292969 0.875 0.875 C -0.292969 2.042969 -0.292969 3.933594 0.875 5.101562 L 17.773438 22 L 0.875 38.898438 C -0.292969 40.066406 -0.292969 41.957031 0.875 43.125 C 2.042969 44.292969 3.933594 44.292969 5.101562 43.125 L 22 26.222656 L 38.902344 43.125 C 40.066406 44.292969 41.960938 44.292969 43.125 43.125 C 44.289062 41.957031 44.289062 40.066406 43.125 38.898438 L 26.222656 22 L 43.125 5.101562 C 44.289062 3.933594 44.289062 2.042969 43.125 0.875"/></g></svg>