<?xml version="1.0" encoding="UTF-8"?><svg xmlns="http://www.w3.org/2000/svg" xmlns:xlink="http://www.w3.org/1999/xlink" contentScriptType="text/ecmascript" zoomAndPan="magnify" contentStyleType="text/css" id="Layer" version="1.1" xml:space="preserve" width="500" fill="#000000" preserveAspectRatio="xMidYMid meet" viewBox="0.0 0.0 500.0 60.6" height="60.6" x="0" y="0"><g><g id="change1_1"><path fill="#ffd880" d="M469.69104,60.6179771H30.3089581C13.5697823,60.6179771,0,47.0481949,0,30.3090172v-0.0000591 C0,13.5697823,13.5697823,0,30.3089581,0H469.69104C486.4302063,0,500,13.5697823,500,30.3089581v0.0000591 C500,47.0481949,486.4302063,60.6179771,469.69104,60.6179771z"/></g><g id="change2_1"><path fill="#141c75" d="M491.6315002,29.7189007c0,12.6210537-10.2313843,22.8524418-22.8524475,22.8524418 c-12.6210327,0-22.8524475-10.2313881-22.8524475-22.8524418S456.15802,6.8664608,468.7790527,6.8664608 C481.400116,6.8664608,491.6315002,17.097847,491.6315002,29.7189007z"/></g><g id="change1_2"><path fill="#ffd880" d="M481.4079895,39.9357948l-4.2803345-4.2803383c1.4897156-2.027626,2.306366-4.4602394,2.306366-7.0233231 c0-3.1811447-1.2388-6.1717052-3.4884033-8.4208584c-4.6434631-4.6434746-12.1982422-4.6434746-16.8417053,0 c-4.6434631,4.6430283-4.6434631,12.1982441,0,16.8412724c2.3217468,2.3221817,5.3710632,3.4830513,8.4208679,3.482605 c2.4720154,0,4.9378052-0.7765808,7.0219727-2.3023643l4.282135,4.2821198 c0.3557739,0.3562317,0.822876,0.5343475,1.2895508,0.5343475c0.4666443,0,0.9337769-0.1781158,1.2895508-0.5343475 C482.1204529,41.8028908,482.1204529,40.6478119,481.4079895,39.9357948z M461.6830139,34.4734344 c-3.2207642-3.22122-3.2207642-8.4618263,0-11.6830463c1.6106262-1.610611,3.7261963-2.4156933,5.8417664-2.4156933 s4.2311401,0.8050823,5.8417358,2.4156933c1.5603027,1.5602932,2.4197083,3.6348934,2.4197083,5.8417454 c0,2.2064075-0.8594055,4.2810097-2.4197083,5.841301C470.1452942,37.6946564,464.9042358,37.6946564,461.6830139,34.4734344z"/></g></g></svg>