<?xml version="1.0" encoding="UTF-8"?><svg xmlns="http://www.w3.org/2000/svg" xmlns:xlink="http://www.w3.org/1999/xlink" contentScriptType="text/ecmascript" fill="#000000" width="503" zoomAndPan="magnify" contentStyleType="text/css" viewBox="-1.2 -5.7 503.0 477.2" height="477.2" preserveAspectRatio="xMidYMid meet" version="1"><g id="change1_1"><path fill="#0d0d0d" d="M478.6,195.9l-167.9-36c3.2-0.7,13.7-17.3,13.7-39.6c0-22.4,2.9-50.5,2.9-50.5s-4.3-11.4-4.3-26 c0-10.4,4-28.1,29.1-38.8c25.1-10.7,52,1.4,52,11c5.1-1.6,29.4,8.6,30.7,42.1l0,0c0,0,5.1-1.9,8.7,3.3c3.6,5.1,5.3,7.1,7.1,15.4 c1.8,8.3,3.4,14.5,6.9,20.6c3.5,6.1,8.4,12.1,9.5,21.3c0.8,6.4,1,17.7-1.9,23.2C475.3,160.1,483.3,177.8,478.6,195.9z"/></g><g id="change2_1"><path fill="#f2da1c" d="M490.5,224.3c-1,80.3-23.4,151.7-23.4,151.7c-71.7,41.5-165.4,0-165.4,0c-20.1-28.4-1.5-85.2-1.5-85.2 s-9.8-16.7-8-34.3l-77.9-2.3l-4.3-71.5c0,0,13.2-9.3,32.8-12.2c17-2.6,42.8-5.9,69-10.8c13.5-2.5,26-9,38.4-13.2 c0,0,28.9,31,59.3-2.7c2.6,1,5.6,1.5,9.2,1.3C418.7,145.1,491.3,158.3,490.5,224.3z"/></g><g id="change3_1"><path fill="#f2da1c" d="M266.3,446.7c17.2-54.7,35.4-70.8,35.4-70.8c105.9,39.5,165.4,0,165.4,0c15.7,16.1,27.2,40.8,33.6,71.2 C467,455.6,363.8,469.1,266.3,446.7z"/></g><g id="change4_1"><path fill="#b76730" d="M78.7,187.8c-6.1,9.6-34.8,16.4-45.2,13.4c-11.4-3.2-22-11.9-25.3-18.2C4.7,176.2,7,169.2,7,169.2 c-4-2.9-3.1-9.4-1.6-14c-5.3-3-3.1-9.5-2.7-12.2c-3.9-2.6-1.3-11.1,3.6-16.3s10-4.8,11.5-3.1c0.4,0.4,0.7,1,0.9,1.5l11.4,8.8 l11.7,12.6c-4-7.1,6.5-28.8,12.9-32.5c4.6-2.6,8.2-0.5,14.2,9.9c9,15.8,36.3,24.5,36.3,24.5l69.9,29.7c0,0,49.6-5.6,67.6-7.8 c0,0-3.2,9.9-3.1,24.3c0,14.5,1,42,3.1,61l-64.3-0.9C143.6,254.4,64,197.6,64,197.6 M327.3,47.4c0,9.1,0,16.2,0,22.3 c0,11.7,0,19.4,0,29.3c0,15,11.1,32.1,27.6,30v15c0,0-4.2,1.5-8.9,3.8c-15.3,18-11.5,45.3,6.2,54.8l0,0c1.5,5.4,3.3,10.2,4.6,13.1 c0,0,0.5,32.4,0.9,61.1c0,0,1,2.1,0.4,23.5c-0.7,21.3,2.9,38.3,15.2,52.9s32.2,12.6,51.5,3.7c19.3-9,30.6-32.9,30.6-32.9l-47.9-46.2 c0,0-2.6-11.3-2.7-11.9l-11.4-45.5c0,0,10.1-21.5,10.7-41.1l0,0c11.2-16,17.9-33.2,17.9-33.2c-2.2-0.6-3.4-1-3.4-1 c-32,1.7-21.9-50.3-21.9-50.3c4.5-5.6,19.5-14.8,15-26.2c-3.8-9.6-14.3-6.6-14.3-6.6c-8.5,1.9-20.3-6.6-18.9-29.1 c0,0-20.2,13.2-49,6.4L327.3,47.4z"/></g><g id="change1_2"><path fill="#0d0d0d" d="M68.5,173.8l-34.9,16.8c-1.9,0.9-4.1-0.1-4.7-2.2l-3.4-13.3c1.1-1.3,2.3-3.1,3.5-5.5 c3-6.1,2.8-14.6-2.5-15.6c2.4-5.2,0.5-12.8-4.3-12.3c2.5-5.5,0.9-11.8-3.3-11.5c0.6-1.8,0.4-4.8-1.1-6.5c-0.9-1-3.1-1.6-5.7-0.8 L7.7,106c-0.4-1.5,0.3-3.1,1.7-3.8l33.5-17.3c1.9-1,4.2,0,4.7,2.1l11.9,45.3c1.6,7.4,4.7,16.9,4.7,16.9l6.1,20.7 C70.7,171.5,69.9,173.1,68.5,173.8z"/></g><g id="change5_1"><path fill="#201139" d="M418.8,74.4l-0.6-1.4c5.2-2.1,9.5-5.9,12.3-10.7l1.3,0.8C428.9,68.2,424.3,72.2,418.8,74.4z M424.4,79.7 c3.8-3.7,6.9-8,9.1-12.8l-1.4-0.6c-2.2,4.6-5.1,8.8-8.8,12.4L424.4,79.7z M501.6,447.7l-0.7,0.2c-0.7,0.2-47.3,11.7-115.8,11.7 c-35,0-75.8-3-119.1-12.1l-0.8-0.2l0.2-0.8c15.8-50.6,32.1-67.7,35.2-70.6c-18.2-25.8-6.5-66.6-2.1-82.1c0.3-1.1,0.6-2,0.8-2.9 c-1.4-2.7-2.8-5.8-4-9.4c-2-6.1-3.6-14.1-3.9-24.3l-113.1-1.5c-34.4-0.5-110.2-54.2-114.8-57.4c-7.9,2.8-17,4.5-23.8,4.5 c-2.6,0-4.8-0.2-6.5-0.7c-11.7-3.3-22.4-12.2-25.7-18.6c-3.2-6.1-1.9-12.1-1.5-13.9c-4-3.3-2.9-9.9-1.7-14c-4.5-3-3.4-8.4-2.8-11.4 c0.1-0.3,0.1-0.5,0.1-0.8c-1-0.8-1.6-2-1.8-3.6c-0.5-3.9,1.9-9.6,5.6-13.6c2-2.1,3.9-3.2,5.5-3.8L7,106.2c-0.5-1.9,0.4-3.8,2.1-4.6 l33.5-17.3c1.1-0.6,2.4-0.6,3.5-0.1c1.1,0.5,2,1.5,2.3,2.7l6.8,26.1c1.3-0.7,2.7-0.9,4-0.6c4.1,0.9,7.3,6.2,10.1,10.9 c0.6,1,1.1,1.9,1.7,2.7c9.1,14.2,34.2,21.8,34.5,21.8l69.8,29.7c4.9-0.5,97.7-10.1,135.6-18.4c3.1-1.6,12.8-17.5,12.8-38.8 c0-21.2,2.6-48.1,2.9-50.5c-0.5-1.5-4.2-12.5-4.2-26.1c0-10,3.8-28.5,29.6-39.5c17.8-7.6,36.6-4,46.5,2.6c3.8,2.5,6.1,5.4,6.5,8.2 c2.6-0.2,7.4,1.2,12.4,4.7c6.4,4.5,17.2,15.3,18.3,37.1c1.7-0.3,3.5,0.2,5.3,1.3c5.1,3,9.1,10.4,10.7,19.8c1.9,11.2,5.5,17.4,9,23.3 c1.2,2,2.4,4,3.5,6.3c7.8,15.3,2.2,33.1,1.8,34.5c8,14.5,14.6,28.6,14.9,42.7l-0.1,0c6.4,10.3,10.8,23.4,10.7,39.6 c-0.4,76.4-21.5,145.5-23.3,151.5c15.4,16,27,40.6,33.6,71.2L501.6,447.7z M382.4,31.6c-1.3,0.7-2.4,1.3-3.1,1.7 c-0.2,2.4-0.7,15.6,5.9,22.9c3,3.3,7.1,5,12.1,5c1.2-0.3,11.3-2.5,15.1,7.1c2.8,7.2-1.6,13.5-6.5,18.5l0.2,0c0,1.8-0.5,3.6-1,5.3 c-0.2,0.8-0.5,1.7-0.6,2.5c-1.5,7.1,1.3,14.1,4.9,21.9l-1.4,0.6c-2.8-6.2-6.7-14.6-5-22.8c0.2-0.9,0.4-1.8,0.7-2.6 c0.3-1.2,0.7-2.4,0.8-3.5c-1,0.9-2,1.9-2.9,2.7c-1.7,1.6-3.2,3-4.2,4.2c-0.5,2.6-5.2,30.8,5.7,43.3c3.7,4.3,8.9,6.3,15.5,5.9l0.1,0 l0.1,0c0.2,0,13.3,2.5,28.2,10.3c-2.1-8.5-7.2-16-12.2-23.3c-6.2-9.1-12.6-18.4-13.2-29.6l1.5-0.1c0.6,10.8,6.6,19.5,12.9,28.8 c5.3,7.8,10.8,15.8,12.7,25.1c2.1,1.1,4.2,2.4,6.3,3.7c8.2,5.2,17.1,12.7,24,23c-1.1-16.4-10.6-32.9-20.6-50.4 c-11.4-19.8-23.1-40.3-24.3-63c-0.2-3.5,0-8.8,0-9l1.5,0c0,0.1-0.2,5.5,0,8.9c1.2,22.4,12.8,42.7,24.1,62.3c1.7,3,3.4,6,5.1,8.9 c1.3-4.6,4.4-19.3-2.1-32c-1.1-2.2-2.3-4.2-3.5-6.2c-3.6-6.1-7.2-12.3-9.2-23.8c-1.5-8.9-5.3-15.9-10-18.7c-1.8-1.1-3.5-1.4-5-0.9 l-0.9,0.3l0-1C433.2,36,422.6,25.4,416.3,21c-5.1-3.6-9.6-4.7-11.6-4.4C403.7,19.5,395.3,24.5,382.4,31.6z M392.6,220.3l0.1-0.2 c0.1-0.2,10.3-22.1,10.7-41.5c0.2-10-2.2-14.1-4.2-15.8c-2-1.7-3.9-1.3-4-1.3l-1.1,0.2l0,0c-5.5,1.1-11.4,4.7-16.4,10 c-0.4,1.6-1.7,3.1-3.3,4.4c-0.5,1.1-0.2,4.8,1.6,7.1c1.1,1.5,2.5,2,4.1,1.6c5.6-1.3,13.1-9.6,13.2-9.7l1.1,1c-0.3,0.4-8,8.8-14,10.2 c-0.4,0.1-0.9,0.2-1.3,0.2c-0.6,0-1.1-0.1-1.6-0.3c-1.6,4.4-9.1,27-1.8,33.3c2.3,2,6.9,2,6.9,2v1.5c-0.2,0-5.2,0-7.9-2.4 c-8.2-7.2,0-31,1.5-35.1c-0.5-0.4-1-0.8-1.4-1.4c-1.5-1.9-2.2-4.7-2.1-6.8c-3.6,2.4-7.8,3.8-8.1,3.9l-0.5-1.4 c3.1-1,11.2-4.6,12.1-8.6c0.4-2-0.2-4.1-1.9-5.6c-2.3-2.2-6-2.8-9.8-1.7v0l0,0c-0.1,0-13.5,3.9-15.2,13.7 c-1.7,10.1,4.3,30.4,7.9,37.9l0.1,0.1l0,0.2c0,0.8,1.2,81.3,1.6,100.2c0.2,11.2,5.5,28,16.4,38.3c5.3,5,11.3,7.9,17.9,8.7 c1.9,0.2,3.7,0.2,5.5,0.2c22.9-1.1,40.7-13.3,55.4-38.8l-45.5-45.1l4.7,19l-1.5,0.4L392.6,220.3z M391,122.2c-1-1.1-2.6-1.4-4.8-0.9 c-5.1,1.1-8.4,16.3-9.2,22.1l-0.9,6.5l0-0.1c-0.3,2.6-0.6,4.9-0.7,6.5c3.5-3.3,9.4-6.4,13.6-6.1C391.7,139.8,394.7,126,391,122.2z M388.6,151.5c-3.4-0.1-8.8,2.4-12.3,5.8c-2,2-3.1,3.9-3.1,5.5c0.8,0.4,1.6,0.9,2.2,1.5c1.5,1.4,2.3,3.1,2.5,4.9 c5.1-5,11-8.3,16.5-9.2c0.4-2.6,0.1-4.6-1-6.1c-1.5-2-4-2.3-4-2.3L388.6,151.5z M375.6,143.2c-0.1-0.9-0.8-9.5-1.2-14.3 c-0.1-1.3-0.3-2.5-0.7-3.5l-0.1-0.2c-0.3-0.7-0.6-1.3-1.1-1.9l-0.3-0.4c-0.5-0.6-1.1-1-1.7-1.4c-1.7-0.8-3.9-0.6-5.6,0.6 c-1.7,1.2-2.6,3.1-2.5,5.1l0,0.4c0,0.3,0,0.5,0.1,0.8c0.6,8.1,2.3,29.1,2.6,33.7c2.3-0.5,4.6-0.5,6.6,0.1c0.1-1.3,0.8-2.8,1.9-4.2 C373.8,156.7,374.5,149.7,375.6,143.2z M361.7,136.7c-2,0.9-4.1,1.6-6.1,1.9v6l-0.5,0.2c-0.1,0-3.7,1.5-8.7,3.6l0,0 c-7.6,9-10.9,21.1-8.7,32.4c1.7,8.8,6.4,16.1,13.2,20.3c-2.2-8.4-3.9-17.8-2.9-23.8c1.6-9.6,12.9-13.8,15.6-14.7 C363.5,159.6,362.5,146.5,361.7,136.7z M404.9,176.8c9.1-13.4,14.9-27.3,16.2-30.4c-1.4-0.3-2.3-0.5-2.5-0.6 c-7,0.3-12.6-1.8-16.6-6.4c-11.8-13.6-6.2-43.5-6-44.7l0-0.2l0.1-0.1c1.1-1.3,2.7-2.8,4.5-4.5c5.8-5.3,13.7-12.6,10.4-20.9 c-3.5-8.9-13-6.3-13.4-6.2l-0.2,0c-5.5,0-10-1.8-13.3-5.5c-6.5-7.2-6.6-19-6.4-23.1c-4.8,2.5-23.5,10.8-47.6,6 c-0.8,3.5-1.3,7-1.6,10.6c3.4-2.7,9.1-2.2,9.4-2.2l-0.1,1.5c-0.1,0-7-0.6-9.4,3.1c-0.3,4.6-0.3,9.3-0.3,14l0,2.3l0,0l0,0.2l0,29.2 c0,9,4.1,18.5,10.5,24.1c4.5,4,9.9,5.8,15.6,5.3v0l0.7,0l0.8-0.1v0c1.7-0.2,3.4-0.5,5.4-1.1c-0.1-2.5,1-4.8,3.1-6.3 c2.2-1.5,4.9-1.7,7.1-0.7c0.8,0.4,1.5,1,2.2,1.7c2.2-1.2,3.6-2.2,3.6-2.2l2.6-1.7l-1.5,2.7c0,0.1-1.1,1.9-2.9,4.4 c0.4,1.1,0.6,2.4,0.8,3.7c0.2,2.4,0.5,5.8,0.7,8.7c1.4-6.6,4.4-16.7,9.4-17.7c2.7-0.6,4.8-0.1,6.2,1.4c3.3,3.5,2.8,12.2-1.7,29.1 c1.1,0.3,2.9,1,4.2,2.7c1.3,1.7,1.7,4,1.3,6.9c1,0,2.6,0.4,4.2,1.7C403.3,164.1,404.9,169.3,404.9,176.8z M326.5,64.6 c0-3.8,0-7.6,0.3-11.3l-0.2-0.1c0.1-0.1,0.1-0.2,0.2-0.4c0.3-4.7,0.8-9.3,2-13.7l0.2-0.7l0.7,0.1c27.7,5.8,48.3-6.2,48.5-6.3 l1.3-0.8l0,0c0.6-0.3,1.4-0.8,2.2-1.2c5.4-3,21.8-11.9,21.8-14.4v0c0-2.5-2.2-5.3-5.9-7.8c-9.6-6.3-27.7-9.8-45-2.4 c-23.7,10-28.6,26.2-28.6,38.1C323.8,52.4,325.3,60,326.5,64.6z M313.7,158.4c3-0.7,5.6-1.4,7.6-2.1c3.3-1.1,8-2.9,12.9-4.8 l-0.3-0.4c2.8-2.1,3.3-6.3,2.7-9.5c-0.3-1.6-0.7-3.2-1.2-4.7c-0.6-2-1.2-4.1-1.4-6.3l1.5-0.1c0.2,2,0.8,4,1.4,6 c0.5,1.6,0.9,3.2,1.2,4.9c0.6,3.8,0,7.1-1.7,9.4c8-3.2,15.8-6.4,17.8-7.2v-4.8v-8.9c-6,0.6-11.8-1.4-16.6-5.6 c-6.7-5.9-11-15.8-11-25.2l0-11.5c-0.7,9.7-1.4,21.9-1.4,32.7C325.2,138.5,318.3,153,313.7,158.4z M12.5,101.5 c0.1,0,0.2,0.1,0.3,0.1c1.1,0.5,1.9,1.5,2.2,2.7l6.7,26c0.4,0.3,0.9,0.7,1.2,1.2c1.6,2.3,1.7,6.1,0.5,9.5c1.3,0.2,2.4,0.9,3.2,2.1 c1.9,2.6,2.2,6.9,1,10.5c1.3,0.5,2.4,1.5,3.1,2.9c1.3,2.5,1.4,6.4,0.3,10.1l1.9,7.3L66,158.3c-1.3-4.4-2.4-8.6-2.5-8.9l-4.7-16.9 L46.9,87.2c-0.2-0.7-0.7-1.4-1.4-1.7c-0.7-0.3-1.5-0.3-2.2,0.1L12.5,101.5z M56,171.9c-0.4-1.7-2.7-2.2-5.1-1.1 c-2.5,1.1-4.2,3.4-3.8,5.2c0.4,1.7,2.7,2.2,5.1,1.1C54.7,175.9,56.3,173.6,56,171.9z M34.6,186.9L30,169c-0.1,0.3-0.2,0.6-0.4,0.9 c-1.1,2.2-2.3,4-3.3,5.3l3.3,13c0.2,0.9,0.6,1.5,1.2,1.7c0.6,0.3,1.5,0.1,2.4-0.3C34.3,189.1,34.9,188,34.6,186.9z M19.8,129.4 C19.8,129.5,19.8,129.5,19.8,129.4C19.9,129.5,19.9,129.5,19.8,129.4L19.8,129.4z M12.6,121.9c0.8-0.2,1.5-0.2,2.1-0.2 c1.5,0,2.8,0.5,3.5,1.3l-4.7-18.4c-0.2-0.7-0.7-1.4-1.4-1.7c-0.7-0.3-1.5-0.3-2.2,0l0-0.1l-0.1,0c-1.1,0.6-1.6,1.8-1.3,2.9 L12.6,121.9z M2.3,141.6c2.3-7.2,12.1-12,16.1-12.2c0.4-1.6,0.1-3.9-1.1-5.3c-0.5-0.6-1.5-0.9-2.6-0.9c-2.5-0.1-5.4,1.4-7.8,4 c-3.4,3.6-5.7,9-5.3,12.4C1.6,140.4,1.9,141.1,2.3,141.6z M5,154c2.7-7.1,13.2-12.5,16.6-13c1.3-3.1,1.3-6.6-0.1-8.7 c-0.7-1-1.5-1.5-2.6-1.4l-1.1,0.1l0,0c-3.7,0.6-13.1,5.3-14.4,12.2l0,0c-0.1,0.4-0.1,0.8-0.2,1.3C2.6,147.3,1.8,151.6,5,154z M6.7,168c3-6.7,14.3-14.8,19.2-14.8c1.2-3.1,1-7-0.7-9.3c-0.8-1.1-1.8-1.6-3-1.5l-0.8,0.1c-3.3,0.7-13.1,6-15.2,12.3l0,0l-0.2,0.6 C5,158.9,3.8,164.9,6.7,168z M242,255c-0.8-7.8-6.5-62.9-0.2-83.7c-31.3,4-60.3,7-65.6,7.6c1.7,2,5.8,8.5,5,23.6l-1.5-0.1 c1-17.7-5-23-5.1-23l0.4-0.4L105,149.1c-1-0.3-25.8-7.8-35.2-22.4c-0.5-0.9-1.1-1.8-1.7-2.8c-2.5-4.2-5.7-9.4-9.1-10.2 c-1.1-0.2-2.2,0-3.3,0.7l4.6,17.7l4.7,16.9c0,0.1,1.2,4.2,2.4,8.7l0.3-0.1c0.1,0.1,5.8,11.9,18.2,10.9l0.1,1.5c-0.5,0-1,0.1-1.6,0.1 c-8,0-13.2-4.9-15.9-8.4c0.1,0.2,0.1,0.4,0.2,0.5c0.1,0.3,0.2,0.7,0.3,1c0.6,2.1,1.2,3.9,1.5,4.7c1.3,3.6,0.6,5.5-2.7,7.2 c-1,0.5-4.8,2.3-9.6,4.4c-8.1,3.7-19.1,8.8-21.1,9.9c-1.1,0.6-2.2,1.2-3.2,1.6c0,0,0,0,0,0l0,0c-0.8,0.3-1.6,0.5-2.3,0.5 c-0.5,0-0.9-0.1-1.3-0.3c-1-0.4-1.7-1.3-2-2.7l-3.1-11.9c-1.3,1.5-2.3,2.1-2.4,2.2l-0.8-1.2c0,0,3.6-2.5,6.4-8.3 c2-4.2,2.4-9.3,1-12.2c-0.7-1.3-1.6-2.1-2.9-2.3l0,0c-3.7-0.8-16.4,8-18.5,14.7h0l0,0c0,0.1-2.2,6.7,1.2,13.3 c3.1,6.1,13.5,14.6,24.8,17.8c9.8,2.8,38.3-3.5,44.3-13.1l1.3,0.8c-2.4,3.7-7.7,6.9-14,9.4c9.1,6.4,80.9,56.1,113.1,56.6L242,255z M302.1,375.3c5.7,1.5,102.5,26.1,164.4,0.1c1.7-5.3,22.9-74.5,23.3-151.1c0.2-33.7-19.2-53.2-35.4-63.6 c-12.6-8.1-25.4-12.2-31.8-13.8c-1.2,2.9-7.6,18.3-17.7,32.7c-0.6,18.3-9.6,38.5-10.7,41l6,24.1c5-21.2,21.7-69.6,46.2-66.5 l-0.2,1.5c-25-3.1-42,52.8-45.2,68.3l7.2,28.6l46.9,46.5c4.9-8.8,9.5-19.1,13.8-30.9l1.4,0.5c-1.2,3.3-2.5,6.5-3.7,9.6 c-3.7,23.1-28,63.2-52.8,69.3c-26.1,6.5-39.5-7.2-41.9-18.7c-9.6-10.6-14.2-25.8-14.4-36.8c-0.1-3.4-0.2-8.8-0.3-15.3 c-2.7-2.5-7.7-16-6.8-28.5l1.5,0.1c-0.9,11,3,21.7,5.2,25.8c-0.5-29.5-1.2-78.9-1.2-82.2c-1.4-2.9-3-7.5-4.5-12.7 c-7.8-4.3-13.4-12.4-15.2-22.1c-2.1-10.9,0.7-22.5,7.4-31.6c-7.3,3-16.5,6.5-21.9,8.3c-2.7,0.9-6.2,1.8-10.5,2.7 c-0.2,0.1-0.3,0.1-0.4,0.2l0-0.1c-16.3,3.5-42.5,7.3-67.5,10.5c-6.5,19.9-0.6,77.2,0.1,84l48,0.6c-0.2-15.1,2.7-34.7,11.7-59.8 l1.4,0.5c-15.3,42.8-12.7,69.7-7.8,84.6c5.3,16.1,14.2,22.2,14.3,22.2l-0.8,1.2c-0.3-0.2-5.2-3.5-9.9-11.7c-0.1,0.4-0.3,0.9-0.4,1.4 C295.6,309.5,284,350.1,302.1,375.3z M499.9,446.6c-5.1-23.5-13.2-43.3-23.7-58.3c-9.9,2-108.6,22.6-177.1-8.4 c-5.9,6.9-19.1,25.8-31.9,66.3C389,471.5,490.5,448.8,499.9,446.6z M431.3,60.1l-0.8-1.2c-3,2.1-6.6,3.3-10.3,3.5l0.1,1.5 C424.2,63.6,428,62.3,431.3,60.1z M357,48.7v1.5c8.2,0,11.4,4.3,11.4,4.3l1.2-0.9C369.5,53.4,366,48.7,357,48.7z M38,151.4l9.7-45.6 l-1.5-0.3l-9.7,45.6L38,151.4z M42.9,96.3l-1.5-0.4l-9.6,37l1.5,0.4L42.9,96.3z M353.7,84.3v-1.5h-1.4c-4.2,0-7.6-3.4-7.6-7.6V60.1 h-1.5v15.1c0,5,4.1,9.1,9.1,9.1H353.7z M365.6,88.2c0,0.1,0.1,5.3-3.5,9.1c-2.5,2.6-6.3,3.9-11.1,3.9v1.5c5.3,0,9.4-1.5,12.2-4.4 c4.1-4.3,3.9-10,3.9-10.2L365.6,88.2z M334.1,56.2c-2.7,0-4.8,2.2-4.8,4.8c0,2.7,2.2,4.8,4.8,4.8s4.8-2.2,4.8-4.8 C338.9,58.4,336.7,56.2,334.1,56.2z M359.7,65.9c2.7,0,4.8-2.2,4.8-4.8c0-2.7-2.2-4.8-4.8-4.8c-2.7,0-4.8,2.2-4.8,4.8 C354.9,63.7,357,65.9,359.7,65.9z"/></g></svg>