<?xml version="1.0" encoding="UTF-8"?><svg xmlns="http://www.w3.org/2000/svg" xmlns:xlink="http://www.w3.org/1999/xlink" contentScriptType="text/ecmascript" fill="#000000" width="496.1" zoomAndPan="magnify" contentStyleType="text/css" viewBox="2.0 4.9 496.1 346.1" height="346.1" preserveAspectRatio="xMidYMid meet" version="1"><g fill-rule="evenodd" data-name="Test Tube Rack"><g><path fill="#c06e38" d="M45.829,147.798c-1.852-.0389-3.2179.5621-3.4295,2.204,0,0-4.7069,145.2288-1.2672,150.0835s12.4363,3.506,14.5218.7473,4.0125-144.54,2.64-147.3116C57.3288,151.5723,50.2154,147.89,45.829,147.798ZM455.6425,149.37c-4.387.0584-11.5284,3.6859-12.5085,5.6275-1.3939,2.7612-.5545,144.553,1.51,147.3275s11.05,4.1923,14.5273-.6359S459.0548,151.6,459.0548,151.6C458.8557,149.9564,457.4947,149.345,455.6425,149.37Z"/></g><g><path fill="#cc7f4d" d="M19.8805,293.9666S2.0226,339.9835,5.433,343.42s484.3862,7.6016,488.56,1.3927-5.4937-46.3618-13.0912-49.1575S25.7383,288.535,19.8805,293.9666Z"/></g><g><path fill="#a8dee0" d="M82.0913,21.0021s-.5615,237.1651-.5836,242.93,11.5614,26.8364,43.9847,26.9607c31.9075.1224,41.8007-22.5621,42.4985-27.6465s2.623-241.7965.5934-243.161S83.7929,17.17,82.0913,21.0021Z"/></g><g><path fill="#a8dee0" d="M75.407,5.1456c-.018,4.6845-.5484,17.2131,5.5467,17.3173.749.0028,36.1578-.4042,44.9808-.5112,8.822.1747,42.87.8481,43.6192.8509,6.2492.1341,7.1961-12.6,7.214-17.2683-15.4387-.39-33.844-.4659-50.7671-.5306C109.1361,4.9392,88.0568,5.1941,75.407,5.1456Z"/></g><g><path fill="#86cdd0" d="M125.2147,18.595c-21.1568-.0769-42.2726.4907-43.1234,2.407,0,0-.5615,237.1652-.5836,242.9305s11.5614,26.8364,43.9847,26.9608c31.9075.1223,41.8007-22.5622,42.4985-27.6467.1019-.7422.23-6.5261.3684-15.6861-7.6609,12.8874-19.6046,27.8655-43.3585,27.7744-22.5429-.0865-28.0262-14.114-28.7057-18.5753-1.17-7.6784-1.1794-223.9853.1464-225.7787,1.108-1.4988,52.5028-4.77,72.5714-5.8939-.1173-3.1244-.2591-4.8873-.4286-5.0013C167.57,19.4036,146.3716,18.6744,125.2147,18.595Z"/></g><g><path fill="#ffb020" d="M109.581,70.8255C102.4,70.7979,95.3524,73.2911,89.3678,76.36c-.0734,30.9531-.4225,178.2334-.4391,182.5577-.0183,4.7842,9.5941,22.27,36.5,22.3729,26.478.1015,34.6876-18.7228,35.2666-22.9421.4359-3.1759,1.4486-115.2433,1.2047-170.9635C134.1894,85.54,129.2921,71.73,110.8933,70.8588Q110.2366,70.8275,109.581,70.8255Z"/></g><g><path fill="#86cdd0" d="M82.2005,5.1472c-2.4446.0053-4.7394.0061-6.7936-.0018-.0179,4.6845-.5483,17.2131,5.5468,17.3173.749.0029,36.1577-.4042,44.9808-.5111,8.8219.1746,42.87.848,43.6191.8509,2.3515.05,3.952-1.7213,5.035-4.1995-26.6323-.781-87.0243-.9557-88.0612-2.393A74.3433,74.3433,0,0,1,82.2005,5.1472Z"/></g><g><path fill="#f08f20" d="M95.639,73.5686A60.0034,60.0034,0,0,0,89.3678,76.36c-.0734,30.9531-.4225,178.2334-.4391,182.5577-.0183,4.7842,9.5941,22.27,36.5,22.3729,25.9482.0995,34.3507-17.975,35.2215-22.67-7.6632,9.1006-18.6221,16.779-35.6495,16.7137-22.5429-.0865-28.0262-14.114-28.7057-18.5753C95.4526,251.2284,95.2121,137.4479,95.639,73.5686Z"/></g><g><path fill="#d2f5f7" d="M102.2847,8.1016c.6.0023,69.3039.146,70.14.9884s.3478,3.1189-1.8119,3.47S102.9357,10.3223,102.157,10.14,101.685,8.1593,102.2847,8.1016Z"/></g><g><path fill="#d2f5f7" d="M159.0463,35.7329s.4788,20.644.8731,22.5921c.4,1.9778,2.0651,2.0129,2.3552.1832.3358-2.1187.86-21.1548.5945-22.5562C162.45,33.7363,159.3884,33.67,159.0463,35.7329Z"/></g><g><path fill="#d2f5f7" d="M158.9116,70.8562s-.6145,133.7487-.275,149.9966c.3447,16.495,2.906,17.2451,3.2477,1.9659.3955-17.6916,1.07-138.5536.8443-150.2423C162.5279,62.1851,158.9441,62.3834,158.9116,70.8562Z"/></g><g><path fill="#ffd53a" d="M129.3282,102.38a2.7217,2.7217,0,0,0-2.8944,3.0652,2.7844,2.7844,0,0,0,3.0812,2.94,2.9584,2.9584,0,0,0,3.0233-2.9123C132.5452,103.6846,131.6279,102.3892,129.3282,102.38Zm-19.1848,2.4282a1.5876,1.5876,0,0,0-1.6883,1.788,1.6242,1.6242,0,0,0,1.7973,1.715,1.7258,1.7258,0,0,0,1.7636-1.6989A1.6516,1.6516,0,0,0,110.1434,104.8086Zm31.413,15.957a.7051.7051,0,0,0-.75.7941.7211.7211,0,0,0,.7982.7614.7662.7662,0,0,0,.7831-.7542A.7335.7335,0,0,0,141.5564,120.7656Zm-21.751,4.6813a1.1587,1.1587,0,0,0-1.2322,1.305,1.1853,1.1853,0,0,0,1.3117,1.2514,1.2592,1.2592,0,0,0,1.287-1.24A1.2054,1.2054,0,0,0,119.8054,125.4469ZM105.69,139.0145a1.1586,1.1586,0,0,0-1.2321,1.3049,1.1852,1.1852,0,0,0,1.3116,1.2515,1.2592,1.2592,0,0,0,1.2869-1.24A1.2053,1.2053,0,0,0,105.69,139.0145Zm20.5,4.06a1.0263,1.0263,0,0,0-1.0914,1.1559,1.05,1.05,0,0,0,1.1618,1.1086,1.1156,1.1156,0,0,0,1.14-1.0982A1.0677,1.0677,0,0,0,126.19,143.0747ZM144.4262,145a2.7217,2.7217,0,0,0-2.8945,3.0651,2.7846,2.7846,0,0,0,3.0812,2.94,2.9584,2.9584,0,0,0,3.0232-2.9123C147.643,146.3046,146.7259,145.009,144.4262,145ZM106.14,158.1384a2.0034,2.0034,0,0,0-2.1307,2.2561,2.05,2.05,0,0,0,2.2682,2.1642,2.1776,2.1776,0,0,0,2.2253-2.1437A2.084,2.084,0,0,0,106.14,158.1384Zm34.1729,10.5859c-2.03-.0078-3.7824,1.114-3.7936,4.0174-.01,2.6761,1.8351,3.8448,4.0385,3.8532a3.8773,3.8773,0,0,0,3.9624-3.817C144.5294,170.4337,143.3273,168.7359,140.3131,168.7243Zm-28.1264,5.1736a.705.705,0,0,0-.75.7941.7214.7214,0,0,0,.7982.7615.7663.7663,0,0,0,.783-.7544A.7333.7333,0,0,0,112.1867,173.8979Zm13.8317,12.5759a1.5021,1.5021,0,0,0-1.5974,1.6918,1.5369,1.5369,0,0,0,1.7006,1.6227,1.6331,1.6331,0,0,0,1.6688-1.6075A1.5628,1.5628,0,0,0,126.0184,186.4738Zm-18.0952,2.4525a2.3575,2.3575,0,0,0-2.5072,2.655,2.4119,2.4119,0,0,0,2.669,2.5465,2.5625,2.5625,0,0,0,2.6188-2.5226A2.4523,2.4523,0,0,0,107.9232,188.9263ZM140.8748,199.6a1.9913,1.9913,0,0,0-2.1178,2.2427,2.0373,2.0373,0,0,0,2.2545,2.151,2.1645,2.1645,0,0,0,2.212-2.1309A2.0715,2.0715,0,0,0,140.8748,199.6Z"/></g><g><path fill="#a8dee0" d="M332.4922,21.9623s-.5616,237.1652-.5837,242.9305,11.5615,26.8364,43.9848,26.9607c31.9075.1224,41.8007-22.5621,42.4985-27.6465s2.623-241.7966.5934-243.161S334.1937,18.13,332.4922,21.9623Z"/></g><g><path fill="#a8dee0" d="M325.8079,6.1059c-.018,4.6844-.5484,17.2131,5.5467,17.3172.749.0029,36.1577-.4041,44.9808-.5111,8.822.1746,42.87.848,43.6191.8509,6.2493.134,7.1962-12.6,7.2141-17.2683-15.4387-.39-33.844-.4659-50.7671-.5306C359.537,5.9,338.4576,6.1544,325.8079,6.1059Z"/></g><g><path fill="#86cdd0" d="M375.6156,19.5553c-21.1569-.077-42.2727.4907-43.1234,2.407,0,0-.5616,237.1652-.5837,242.93s11.5615,26.8365,43.9848,26.9608c31.9075.1224,41.8007-22.5622,42.4985-27.6466.1018-.7422.23-6.5262.3683-15.6861-7.6608,12.8874-19.6045,27.8655-43.3584,27.7744-22.5429-.0865-28.0262-14.114-28.7058-18.5754-1.17-7.6783-1.1793-223.9853.1465-225.7786,1.1079-1.4988,52.5028-4.77,72.5714-5.8939-.1173-3.1245-.2591-4.8873-.4286-5.0013C417.97,20.3638,396.7725,19.6347,375.6156,19.5553Z"/></g><g><path fill="#5f5fd3" d="M359.9818,71.7858c-7.1811-.0276-14.2285,2.4656-20.2132,5.5346-.0733,30.9531-.4224,178.2333-.439,182.5576-.0183,4.7842,9.5941,22.27,36.5,22.373,26.4779.1015,34.6876-18.7229,35.2666-22.9422.4359-3.1758,1.4486-115.2432,1.2046-170.9634C384.59,86.5,379.693,72.6907,361.2942,71.8191Q360.6375,71.7877,359.9818,71.7858Z"/></g><g><path fill="#86cdd0" d="M332.6014,6.1075c-2.4447.0052-4.7394.0061-6.7936-.0018-.018,4.6845-.5483,17.2131,5.5467,17.3173.7491.0029,36.1578-.4042,44.9808-.5111,8.822.1746,42.87.848,43.6192.8509,2.3515.05,3.952-1.7214,5.035-4.2-26.6323-.7809-87.0244-.9557-88.0613-2.393A74.3437,74.3437,0,0,1,332.6014,6.1075Z"/></g><g><path fill="#504ac4" d="M346.04,74.5289a60.0221,60.0221,0,0,0-6.2712,2.7915c-.0733,30.9531-.4224,178.2333-.439,182.5576-.0183,4.7842,9.5941,22.27,36.5,22.373,25.9481.1,34.3506-17.975,35.2215-22.6695-7.6633,9.1006-18.6221,16.779-35.6495,16.7137-22.5429-.0865-28.0262-14.114-28.7058-18.5754C345.8534,252.1886,345.6129,138.4082,346.04,74.5289Z"/></g><g><path fill="#d2f5f7" d="M352.6855,9.0619c.6.0023,69.304.146,70.14.9884s.3478,3.1189-1.8119,3.47-67.6772-2.238-68.4559-2.4208S352.0858,9.12,352.6855,9.0619Z"/></g><g><path fill="#d2f5f7" d="M409.4472,36.6932s.4787,20.6439.8731,22.5921c.4,1.9777,2.0651,2.0129,2.3551.1831.3359-2.1186.86-21.1547.5946-22.5562C412.8506,34.6966,409.7893,34.6305,409.4472,36.6932Z"/></g><g><path fill="#d2f5f7" d="M409.3125,71.8165s-.6145,133.7487-.275,149.9965c.3447,16.4951,2.906,17.2451,3.2476,1.9659.3956-17.6916,1.07-138.5536.8444-150.2422C412.9288,63.1453,409.345,63.3436,409.3125,71.8165Z"/></g><g><path fill="#8787de" d="M379.7291,103.3407a2.7216,2.7216,0,0,0-2.8944,3.0652,2.7844,2.7844,0,0,0,3.0812,2.94,2.9585,2.9585,0,0,0,3.0233-2.9123C382.946,104.6449,382.0288,103.35,379.7291,103.3407Zm-19.1848,2.4281a1.5878,1.5878,0,0,0-1.6884,1.7881,1.6242,1.6242,0,0,0,1.7974,1.7149,1.7258,1.7258,0,0,0,1.7635-1.6989A1.6516,1.6516,0,0,0,360.5443,105.7688Zm31.413,15.9571a.705.705,0,0,0-.75.7941.7211.7211,0,0,0,.7981.7614.7664.7664,0,0,0,.7832-.7543A.7335.7335,0,0,0,391.9573,121.7259Zm-21.751,4.6813a1.1586,1.1586,0,0,0-1.2322,1.305,1.1853,1.1853,0,0,0,1.3117,1.2514,1.2594,1.2594,0,0,0,1.287-1.24A1.2053,1.2053,0,0,0,370.2063,126.4072Zm-14.1156,13.5676a1.1585,1.1585,0,0,0-1.2321,1.3049,1.1854,1.1854,0,0,0,1.3116,1.2515,1.2594,1.2594,0,0,0,1.287-1.24A1.2053,1.2053,0,0,0,356.0907,139.9748Zm20.5,4.06a1.0263,1.0263,0,0,0-1.0914,1.1559,1.05,1.05,0,0,0,1.1618,1.1086,1.1155,1.1155,0,0,0,1.14-1.0982A1.0675,1.0675,0,0,0,376.59,144.035Zm18.2366,1.9255a2.7216,2.7216,0,0,0-2.8944,3.0651,2.7846,2.7846,0,0,0,3.0812,2.94,2.9585,2.9585,0,0,0,3.0232-2.9124C398.0438,147.2648,397.1267,145.9693,394.827,145.9605Zm-38.286,13.1382a2.0033,2.0033,0,0,0-2.1306,2.2561,2.05,2.05,0,0,0,2.2682,2.1642,2.1776,2.1776,0,0,0,2.2252-2.1438A2.0838,2.0838,0,0,0,356.541,159.0987Zm34.173,10.5859c-2.0305-.0078-3.7825,1.114-3.7936,4.0174-.01,2.6761,1.8351,3.8447,4.0385,3.8532a3.8774,3.8774,0,0,0,3.9624-3.817C394.93,171.394,393.7282,169.6961,390.714,169.6846Zm-28.1264,5.1736a.705.705,0,0,0-.75.7941.7212.7212,0,0,0,.7981.7614.7663.7663,0,0,0,.7831-.7543A.7334.7334,0,0,0,362.5876,174.8582Zm13.8317,12.5759a1.502,1.502,0,0,0-1.5974,1.6918,1.5367,1.5367,0,0,0,1.7006,1.6226,1.6329,1.6329,0,0,0,1.6687-1.6075A1.5626,1.5626,0,0,0,376.4193,187.4341Zm-18.0953,2.4524a2.3575,2.3575,0,0,0-2.5071,2.6551,2.4119,2.4119,0,0,0,2.669,2.5465,2.5626,2.5626,0,0,0,2.6188-2.5226A2.4525,2.4525,0,0,0,358.324,189.8865Zm32.9516,10.674a1.9914,1.9914,0,0,0-2.1177,2.2428,2.0372,2.0372,0,0,0,2.2545,2.151,2.1645,2.1645,0,0,0,2.212-2.1309A2.0716,2.0716,0,0,0,391.2756,200.5605Z"/></g><g><path fill="#a8dee0" d="M207.2918,21.4822s-.5616,237.1652-.5837,242.93,11.5615,26.8364,43.9848,26.9608c31.9075.1223,41.8007-22.5621,42.4985-27.6466s2.623-241.7965.5934-243.1609S208.9933,17.65,207.2918,21.4822Z"/></g><g><path fill="#a8dee0" d="M200.6074,5.6257c-.0179,4.6845-.5483,17.2131,5.5468,17.3173.749.0029,36.1577-.4042,44.9808-.5111,8.8219.1746,42.87.848,43.6191.8509,6.2493.134,7.1961-12.6,7.214-17.2684-15.4386-.39-33.8439-.4658-50.7671-.53C234.3366,5.4194,213.2572,5.6742,200.6074,5.6257Z"/></g><g><path fill="#86cdd0" d="M250.4152,19.0751c-21.1569-.0769-42.2727.4908-43.1234,2.407,0,0-.5616,237.1653-.5837,242.9305s11.5615,26.8365,43.9848,26.9608c31.9075.1224,41.8007-22.5622,42.4985-27.6466.1018-.7422.23-6.5262.3683-15.6862-7.6608,12.8874-19.6045,27.8655-43.3584,27.7744-22.5429-.0864-28.0262-14.1139-28.7058-18.5753-1.17-7.6783-1.1794-223.9853.1465-225.7786,1.1079-1.4989,52.5028-4.77,72.5714-5.894-.1174-3.1244-.2592-4.8872-.4287-5.0012C292.77,19.8837,271.572,19.1546,250.4152,19.0751Z"/></g><g><path fill="#e8779e" d="M234.7814,71.3056c-7.1811-.0275-14.2286,2.4656-20.2132,5.5347-.0734,30.9531-.4224,178.2333-.439,182.5576-.0184,4.7842,9.5941,22.27,36.5,22.3729,26.4779.1016,34.6875-18.7228,35.2666-22.9421.4358-3.1758,1.4486-115.2433,1.2046-170.9635C259.39,86.02,254.4926,72.2105,236.0938,71.339Q235.437,71.3075,234.7814,71.3056Z"/></g><g><path fill="#86cdd0" d="M207.401,5.6273c-2.4447.0053-4.7394.0061-6.7936-.0017-.018,4.6845-.5484,17.2131,5.5467,17.3173.749.0028,36.1577-.4042,44.9808-.5111,8.822.1745,42.87.848,43.6192.8508,2.3515.0505,3.952-1.7213,5.0349-4.1995-26.6322-.781-87.0243-.9557-88.0612-2.393A74.3463,74.3463,0,0,1,207.401,5.6273Z"/></g><g><path fill="#d4698d" d="M220.8394,74.0488a59.9919,59.9919,0,0,0-6.2712,2.7915c-.0734,30.9531-.4224,178.2333-.439,182.5576-.0184,4.7842,9.5941,22.27,36.5,22.3729,25.9481.0995,34.3506-17.9749,35.2215-22.67-7.6633,9.1006-18.6222,16.779-35.6495,16.7137-22.5429-.0864-28.0262-14.1139-28.7058-18.5753C220.653,251.7085,220.4125,137.928,220.8394,74.0488Z"/></g><g><path fill="#d2f5f7" d="M227.4851,8.5818c.6.0023,69.304.1459,70.14.9884s.3477,3.1188-1.8119,3.47-67.6772-2.238-68.4559-2.4208S226.8854,8.6394,227.4851,8.5818Z"/></g><g><path fill="#d2f5f7" d="M284.2468,36.2131s.4787,20.6439.8731,22.592c.4,1.9778,2.0651,2.013,2.3551.1832.3358-2.1187.86-21.1548.5945-22.5562C287.65,34.2164,284.5889,34.15,284.2468,36.2131Z"/></g><g><path fill="#d2f5f7" d="M284.1121,71.3364s-.6145,133.7486-.275,149.9965c.3446,16.495,2.906,17.2451,3.2476,1.9659.3956-17.6916,1.07-138.5536.8444-150.2422C287.7283,62.6652,284.1446,62.8635,284.1121,71.3364Z"/></g><g><path fill="#f6a3c1" d="M247.9158,102.8352a2.7216,2.7216,0,0,1,2.8708,3.0873,2.7845,2.7845,0,0,1-3.1037,2.9161,2.9585,2.9585,0,0,1-3.0009-2.9354C244.6889,104.1147,245.616,102.8264,247.9158,102.8352Zm19.1656,2.5752a1.5877,1.5877,0,0,1,1.6746,1.801,1.6243,1.6243,0,0,1-1.81,1.7011,1.7259,1.7259,0,0,1-1.75-1.7124A1.6516,1.6516,0,0,1,267.0814,105.41Zm-31.5345,15.7157a.705.705,0,0,1,.7436.8.7213.7213,0,0,1-.804.7553.7664.7664,0,0,1-.7773-.76A.7335.7335,0,0,1,235.5469,121.1261Zm21.7145,4.848a1.1586,1.1586,0,0,1,1.2221,1.3143,1.1852,1.1852,0,0,1-1.3213,1.2413,1.2592,1.2592,0,0,1-1.2774-1.2494A1.2053,1.2053,0,0,1,257.2614,125.9741Zm14.011,13.6754a1.1586,1.1586,0,0,1,1.2221,1.3143,1.1853,1.1853,0,0,1-1.3212,1.2414,1.2593,1.2593,0,0,1-1.2774-1.2495A1.2053,1.2053,0,0,1,271.2724,139.65Zm-20.53,3.9028a1.0264,1.0264,0,0,1,1.0825,1.1643,1.05,1.05,0,0,1-1.17,1.1,1.1156,1.1156,0,0,1-1.1315-1.107A1.0676,1.0676,0,0,1,250.7422,143.5523Zm-18.2508,1.7856a2.7217,2.7217,0,0,1,2.8708,3.0872,2.7846,2.7846,0,0,1-3.1037,2.9164,2.9583,2.9583,0,0,1-3.0007-2.9354C229.2647,146.6176,230.1916,145.3291,232.4914,145.3379Zm38.1841,13.4315a2.0032,2.0032,0,0,1,2.1132,2.2724,2.05,2.05,0,0,1-2.2847,2.1467,2.1776,2.1776,0,0,1-2.2087-2.1608A2.0839,2.0839,0,0,1,270.6755,158.7694Zm-34.2532,10.3235c2.03.0078,3.7738,1.143,3.7627,4.0463-.01,2.6762-1.8645,3.8306-4.0679,3.8222a3.8776,3.8776,0,0,1-3.9331-3.8473C232.193,170.77,233.4081,169.0813,236.4223,169.0929Zm28.0859,5.3892a.705.705,0,0,1,.7436.8.7213.7213,0,0,1-.804.7553.7663.7663,0,0,1-.7772-.76A.7333.7333,0,0,1,264.5082,174.4821ZM250.58,186.9515a1.5022,1.5022,0,0,1,1.5845,1.704,1.5369,1.5369,0,0,1-1.713,1.61,1.633,1.633,0,0,1-1.6564-1.62A1.5627,1.5627,0,0,1,250.58,186.9515Zm18.076,2.5912a2.3575,2.3575,0,0,1,2.4867,2.6742,2.4119,2.4119,0,0,1-2.6885,2.5259,2.5625,2.5625,0,0,1-2.5993-2.5426A2.4523,2.4523,0,0,1,268.6564,189.5427Zm-33.0325,10.4209a1.9915,1.9915,0,0,1,2.1005,2.259,2.0374,2.0374,0,0,1-2.2709,2.1336,2.1646,2.1646,0,0,1-2.1957-2.1478A2.0716,2.0716,0,0,1,235.6239,199.9636Z"/></g><g><path fill="#cc7f4d" d="M19.26,110.1006s-4.5631,42.1012-1.148,44.2943,457.8352,5.4134,462,1.4655,7.77-42.2514.1689-44.0423S25.11,106.65,19.26,110.1006Z"/></g><g><path fill="#c06e38" d="M26.1061,109.4981c-4.0739.172-6.4552.3718-6.8462.6024,0,0-4.563,42.1013-1.1479,44.2944s457.8351,5.4134,462,1.4655c1.4211-1.347,2.7764-6.6943,3.6443-13.2251a60.3253,60.3253,0,0,1-7.4362,2.2074c-8.8107,1.9225-445.1037-.4168-446.4817-1.8054C26.7643,139.1991,24.9633,126.93,26.1061,109.4981Z"/></g><g><path fill="#c06e38" d="M26.51,293.02c-3.9409.2756-6.245.59-6.6294.9461,0,0-17.858,46.0169-14.4477,49.4534,3.32,3.3458,459.27,7.3817,487.2418,1.864a19.1946,19.1946,0,0,0,2.22-3.7271c.3439-3.47-.1846-8.8172-1.2759-14.6577-2.8572,1.4027-10.9173,5.1721-18.0223,6.7225-8.8107,1.9224-445.1038-.4168-446.4818-1.8053C20.48,324.8642,22.11,312.373,26.51,293.02Z"/></g></g></svg>