<?xml version="1.0" encoding="UTF-8"?><svg xmlns="http://www.w3.org/2000/svg" xmlns:xlink="http://www.w3.org/1999/xlink" contentScriptType="text/ecmascript" fill="#000000" width="443.2" zoomAndPan="magnify" contentStyleType="text/css" viewBox="4.9 5.0 443.2 453.7" height="453.7" preserveAspectRatio="xMidYMid meet" version="1"><g fill-rule="evenodd" data-name="Test Tube"><g id="change1_1"><path fill="#a8dee0" d="M141.232,32.704S423.675,327.6333,430.5515,334.7927s17.4707,47.1827-22.7932,85.8553c-39.6233,38.0575-78.9021,21.5369-85.812,16.0287S31.432,138.4239,32.3409,134.3123,134.5584,29.9486,141.232,32.704Z"/></g><g id="change1_2"><path fill="#a8dee0" d="M130.7263,5c5.5873,5.8173,21.1319,20.8026,13.6589,28.1731-.93.8934-45.5462,42.45-56.67,52.7985C76.9271,96.67,35.29,137.9567,34.36,138.85c-7.63,7.5909-23.9369-7.1551-29.5055-12.9528C23.6336,107.07,46.4835,85.1114,67.4992,64.9267,88.4421,44.8119,115.0175,20.0881,130.7263,5Z"/></g><g id="change2_1"><path fill="#86cdd0" d="M84.6247,80.9329c26.2764-25.2311,53.27-49.6067,56.6072-48.229,0,0,282.4431,294.9294,289.32,302.0888s17.4708,47.1827-22.793,85.8553c-39.6234,38.0575-78.9024,21.5368-85.8123,16.0286-1.0086-.804-8.04-7.86-19.0935-19.1132,24.8579,6.9618,57.5377,11.4413,87.0357-16.8909,27.9941-26.8879,18.1643-50.8853,13.7113-57.2531-7.6638-10.9595-264.616-280.57-268.3989-281.23-3.1615-.552-71.1044,56.4264-97.4529,78.866-3.5654-4.0336-5.4828-6.3992-5.407-6.7426C32.7953,132.2564,58.35,106.1654,84.6247,80.9329Z"/></g><g id="change3_1"><path fill="#ffb020" d="M166.158,127.4592c8.9176-8.5652,20.6631-13.83,31.7681-17.1143,36.8625,38.492,212.2609,221.6435,217.4187,227.0135,5.7063,5.9411,14.4977,39.1538-18.9146,71.2457-32.8808,31.5813-65.4757,17.8719-71.21,13.3009-4.3161-3.44-138.71-141.9152-204.6-211.6532,32.346-35.219,22.0444-58.2486,43.9409-81.192Q165.3432,128.2408,166.158,127.4592Z"/></g><g id="change2_2"><path fill="#86cdd0" d="M122.261,13.0727C125.3144,10.1752,128.1753,7.45,130.7263,5c5.5875,5.8173,21.132,20.8026,13.659,28.1732-.93.8934-45.5462,42.45-56.67,52.7984C76.9272,96.6693,35.29,137.9566,34.36,138.85c-2.8709,2.8564-6.9706,2.5494-11.2644.7472C55.3619,106.9857,130.4254,35.0245,130.01,32.0013,129.7733,30.2749,125.828,20.2047,122.261,13.0727Z"/></g><g id="change4_1"><path fill="#f08f20" d="M186.7936,114.3156a103.3433,103.3433,0,0,1,11.1325-3.9707c36.8625,38.492,212.2609,221.6435,217.4187,227.0135,5.7063,5.9411,14.4977,39.1538-18.9146,71.2457-32.2229,30.9494-64.1673,18.4037-70.83,13.5871,20.3624,2.2391,43.1429-1.2095,64.2878-21.5187,27.9941-26.8879,18.1643-50.8853,13.7113-57.2531C398.0789,335.5245,263.2119,193.4259,186.7936,114.3156Z"/></g><g id="change5_1"><path fill="#d2f5f7" d="M100.7383,40.6142c-.7445.715-86.2052,82.5123-86.2465,84.5556s3.2717,4.3,6.3809,2.1729,81.6924-83.1874,82.4458-84.34S101.5543,39.9736,100.7383,40.6142Z"/></g><g id="change5_2"><path fill="#d2f5f7" d="M62.817,142.4838s23.9275,26.2988,25.75,29.1953c1.85,2.9406-.1827,4.9621-2.7179,3.0261-2.9355-2.2417-26.2026-25.3454-27.5369-27.4071C56.2032,144.0383,59.94,140.3193,62.817,142.4838Z"/></g><g id="change5_3"><path fill="#d2f5f7" d="M104.71,186.1005s159.6542,165.9708,178.5329,186.625c19.1659,20.9684,16.8645,24.946-1.7123,6.3083-21.51-21.58-165.93-171.4182-179.5345-186.2548C89.9018,179.589,94.6041,175.5787,104.71,186.1005Z"/></g><g id="change6_1"><path fill="#ffd53a" d="M179.0315,190.2473c1.9239-1.8478,4.6066-2.3689,7.2489.382,2.4353,2.5356,1.74,5.3194-.3479,7.3245a5.0939,5.0939,0,0,1-7.2279-.0382C176.5714,195.6946,176.1757,192.99,179.0315,190.2473Zm26.796-19.7643c1.1223-1.0779,2.6873-1.3818,4.2285.2229a2.7966,2.7966,0,0,1-.2029,4.2726,2.9715,2.9715,0,0,1-4.2163-.0224C204.3925,173.6606,204.1616,172.083,205.8275,170.483Zm-20.1959,57.2059a1.2139,1.2139,0,0,1,1.8777.099,1.2418,1.2418,0,0,1-.09,1.8973,1.32,1.32,0,0,1-1.8722-.01A1.263,1.263,0,0,1,185.6316,227.6889Zm32.6711-20.0047a1.995,1.995,0,0,1,3.086.1627,2.0409,2.0409,0,0,1-.1483,3.118,2.1683,2.1683,0,0,1-3.0767-.0163A2.0752,2.0752,0,0,1,218.3027,207.6842Zm33.711.1415a1.9948,1.9948,0,0,1,3.0858.1627,2.0409,2.0409,0,0,1-.148,3.118,2.1683,2.1683,0,0,1-3.0768-.0163A2.0753,2.0753,0,0,1,252.0137,207.8257Zm-20.727,29.4134a1.767,1.767,0,0,1,2.7334.1441,1.8078,1.8078,0,0,1-.131,2.762,1.9208,1.9208,0,0,1-2.7255-.0145A1.8383,1.8383,0,0,1,231.2867,237.2391Zm-20.4422,24.0642c1.9239-1.8478,4.6067-2.3689,7.2488.3819,2.4355,2.5357,1.74,5.32-.3476,7.3248a5.0938,5.0938,0,0,1-7.2277-.0385C208.3847,266.7505,207.9887,264.0463,210.8445,261.3033Zm63.3264-29.1071c1.4161-1.36,3.3908-1.7441,5.3358.2809,1.7926,1.8664,1.2806,3.9158-.2562,5.3918a3.7493,3.7493,0,0,1-5.32-.0283C272.36,236.2057,272.0686,234.2153,274.1709,232.1962Zm-30.0166,53.79c2.5215-2.4219,6.0377-3.105,9.5007.5,3.1919,3.3233,2.28,6.972-.456,9.6a6.6763,6.6763,0,0,1-9.4731-.05C240.93,293.1257,240.4112,289.5815,244.1543,285.9864Zm41.202-26.9649a1.214,1.214,0,0,1,1.8778.0991,1.2418,1.2418,0,0,1-.09,1.8972,1.3194,1.3194,0,0,1-1.8721-.01A1.2627,1.2627,0,0,1,285.3563,259.0215Zm-2.3,32.1058a2.5865,2.5865,0,0,1,4.0009.211,2.6461,2.6461,0,0,1-.1919,4.0426,2.8119,2.8119,0,0,1-3.99-.021C281.6983,294.1339,281.48,292.6413,283.0564,291.1273Zm25.4669-18.44c1.6665-1.6006,3.99-2.0521,6.279.3307,2.11,2.1965,1.5069,4.6078-.3014,6.3446a4.4122,4.4122,0,0,1-6.2608-.0331C306.3922,277.4058,306.05,275.0635,308.5233,272.6875Zm-28.39,52.449c1.4076-1.352,3.3705-1.7333,5.3038.2795,1.782,1.8553,1.2729,3.8922-.2546,5.3593a3.727,3.727,0,0,1-5.2884-.0282C278.3336,329.122,278.0441,327.1435,280.1337,325.1365Z"/></g></g></svg>