<?xml version="1.0" encoding="UTF-8"?><svg xmlns="http://www.w3.org/2000/svg" xmlns:xlink="http://www.w3.org/1999/xlink" contentScriptType="text/ecmascript" fill="#000000" width="333.1" zoomAndPan="magnify" contentStyleType="text/css" viewBox="-5.9 -13.1 333.1 546.2" height="546.2" preserveAspectRatio="xMidYMid meet" version="1"><g id="change1_1"><path fill="#4394e7" d="M308.4,474.7c0,0-93,58.4-240.4,0c0,0,6-49.9,29-71l182.6,4.3C279.6,408,304.6,447.1,308.4,474.7z"/></g><g id="change2_1"><path fill="#f2da1c" d="M279.6,408c0,0-107.5,27.2-182.6-4.3c0,0-4.5-22-4.5-41.5l0,0c-13.7,2.8-42.1,7.6-63.3,4.7 c-32.8-4.5-35.1-43.5-18-78.6c15.5-31.8,36.6-70.8,41.6-79.8c5-9,20.7-37.1,48.7-48.4c13.6-5.5,33.9-8.7,48.3-10.5 c0,0,10.5,25.6,36.9,26.2c26.4,0.6,53.9-21.1,74-12.5c26.1,14.2,41.4,26.4,50.8,46.9C326.5,242.9,318.1,274.8,279.6,408z M211.9,131.8c12.5,3,23.5-4,23.5-4c0-9.3,8.8-35.5,12-49.2c11.7-49.3-24-70.3-35.5-65.2c2.7-8.9-30.7-26.5-62,6.1 c-25.9,26.9-9.1,63-9.1,63L211.9,131.8z"/></g><g id="change3_1"><path fill="#ef7b49" d="M157.7,273.1c-6.9-5.9-5.2-30.6-8.9-36.5c-2.1-3.4-8.9-7.2-14.3-9.9l-10.6-2.9l-5.6,0.7 c-0.2,0-0.4,0.1-0.7,0.2l-8.7,3.3c-3-1.2-5.6-2.1-7-2.4c-5.5-1.2-4.8,6-9.1,10.7c-4.3,4.7-1.1,11.5-5.2,15.5c-4.2,4-2.5,11-4.5,15.3 c-2,4.3-7.7,8.8,15.1,24.3c5,3.4,12,9.1,19.9,16c15.5,13.6,35.8,31.9,52.7,41.4l34.3-51C205,297.7,161.7,276.6,157.7,273.1z"/></g><g id="change1_2"><path fill="#4394e7" d="M15.5,246.5l55.8-3.8c1.1-0.1,2.2,0.4,2.9,1.2l102.6,115.8c2,2.2,0.5,5.7-2.5,5.9l-57.9,2.9 c-1.1,0.1-2.1-0.4-2.8-1.2L13.1,252.3C11.1,250.1,12.6,246.7,15.5,246.5z"/></g><g id="change3_2"><path fill="#ef7b49" d="M161.4,347c-4.2,9.3-8.1,9.5-28,12.3c-19.9,2.8-32.8,1.2-32.8,1.2s-23.8,5.8-47.8,7.1h0 c0,0-5.5-22.7,1.6-56.6c10.6,1.9,22.8,3.8,25.5,3.1c7.1-1.8,15.8-6.7,18.2-8.6c4.9-3.8,9.2-9.2,11.8-7.4c9.6,6.5-0.4,17.5-0.4,17.5 s5.9-1.5,11.4-3.5c5.5-2,8.6-6.5,8.6-6.5l-6-6.1c5.1-0.2,15,0.6,16.7,8.3c1.7-0.4,8.4,2.2,9.2,9.3c5.8,0.8,9.6,4.3,9.8,11.7 C162.3,330.9,165.6,337.8,161.4,347z M233.7,149.7c-10.4-5.2-22.5-13.2-22.5-21.5s0-31.2,0-31.2c5.8-5.3,14.1-12.7,10.7-21.4 c-3.6-9.2-13.7-6.4-13.7-6.4c-10.1,3.7-26.5-26.8-27.1-39.5c0,0-40.2,0-40.2,25.5s0,35.2,0,49.6c0,14.4,10.7,30.8,26.5,28.8V148 c0,0-5.9,0.4-14.5,1.4c-15.5,2.1-30.6,41-34.7,60.3c0,0,43.7,22.4,96.6,22.4c14.6-43.2,35.1-70.3,46-68.1l0.2-0.5 C252.8,159.2,243.9,154.7,233.7,149.7z"/></g><g id="change4_1"><path fill="#201139" d="M280.5,407.9c38.2-132.7,46.7-165.3,31.7-197.8c-12.1-26.3-33.1-38.8-78.1-61.1c-5.5-2.7-16.9-9-20.8-16.2 c1.8,0.3,3.5,0.5,5.2,0.5c9.6,0,17-4.6,17.4-4.8l0.3-0.2v-0.4c0-6.1,4-20.1,7.5-32.4c1.8-6.2,3.4-12.1,4.5-16.6 c8.4-35.4-7.6-53.3-14.9-59.3c-7-5.8-15.1-8.6-20.5-7.1c0-2.7-2.4-5.7-6.5-8.1c-9.4-5.5-33.5-9.6-57,14.9 c-25.1,26.1-10.5,61-9.3,63.7v22c0,9.1,4.1,18.6,10.5,24.2c4.6,4.1,10.1,5.9,15.9,5.4l0,11.3l0,0v1.6c-1.8,0.1-7,0.6-13.8,1.3l0,0 c-0.1,0-0.1,0-0.2,0c-14.6,1.7-36.8,5-51.2,10.8c-28.3,11.4-44,39.5-49.1,48.7c-2.8,5.1-10.6,19.4-19.5,36.4l-17.3,1.2 c-1.6,0.1-3,1.1-3.7,2.6c-0.6,1.5-0.3,3.2,0.7,4.5l10,11.4c-4.4,8.6-8.4,16.6-11.9,23.8c-11.6,23.9-13.8,48.2-5.7,63.4 c4.8,9.1,13.2,14.7,24.3,16.2c4.6,0.6,9.6,0.9,14.7,0.9c17.7,0,37-3.2,47.9-5.4c0.1,17.7,3.8,37.3,4.4,40.3 c-22.7,21.2-28.9,70.7-28.9,71.2l-0.1,0.6l0.5,0.2c50,19.8,93.6,25.9,128.4,25.9c18.3,0,34.3-1.7,47.4-4c41.3-7.2,65-21.9,65.2-22 l0.4-0.3l-0.1-0.5C305.6,448.4,282.7,411.5,280.5,407.9z M140,78.5c-3.4-9.8-10-37.2,10.4-58.4c22.8-23.8,46-19.9,55.1-14.6 c4.1,2.4,6.3,5.5,5.6,7.7l-0.5,1.6l1.5-0.7c4-1.8,12.2-0.1,20.1,6.5c7.1,5.9,22.6,23.3,14.4,57.8c-1.1,4.5-2.7,10.3-4.5,16.6 c-3.5,12.1-7.4,25.9-7.5,32.3c-0.5,0.3-1.6,0.9-3.1,1.5c-0.1-3.3,0-13.1,0-13.2l-1.5,0c0,0.5-0.2,11,0,13.8c-1.4,0.5-3,1-4.8,1.4 c-1.3-7.1,0.2-26,0.2-26.2l-1.5-0.1c-0.1,0.8-1.5,19.3-0.1,26.6c-3.4,0.6-7.3,0.8-11.4-0.1c-0.3-1-0.5-2-0.5-2.9V97.3l0.3-0.3 c5.8-5.4,13.8-12.8,10.4-21.7c-1.4-3.6-3.8-5.5-6.3-6.4c6.6-1.7,11.8-4.7,12.1-4.9l-0.8-1.3c-0.1,0-7,4.2-15.1,5.4 c-2.6-0.2-4.6,0.4-4.7,0.4c-1.6,0.6-3.6,0.2-5.8-1.3c-9-5.9-19.8-27.5-20.3-37.6l0-0.2c-0.2-3.7,13.9-12.8,19.8-14.1l-0.3-1.5 c-5.4,1.2-20.1,9.8-21,15.1c-5.5,0.2-40.2,2.2-40.2,26.2V78.5z M152.8,150.1c8.5-1,14.4-1.4,14.5-1.4l0.7,0v-3.5 c22-7.1,29.6-24,29.7-24.2l1.3-2.9l-2.4,2c-7.6,6.3-17,10.3-29.4,12.7c-5.7,0.7-11.1-1-15.6-5c-6.1-5.4-10-14.4-10-23.1V61.3 c2-4.1,9.2-3.4,9.2-3.4l0.1-1.5c-0.3,0-6.2-0.5-9.4,2.5v-3.6c0-22.6,33.5-24.5,38.8-24.7c1,10.9,11.7,31.9,20.9,38 c2.6,1.7,5,2.2,7,1.5c1.6,0,3.1-0.2,4.6-0.4c2.9,0.3,6.5,1.6,8.3,6.3c3.1,8-4.5,15-10,20.1l-0.8,0.7v31.5c0,9.4,14.4,17.9,22.9,22.1 c9.4,4.7,17.7,8.9,25.2,12.9c-11.2,1.1-29.7,24.2-44.4,68.2c-30-0.1-58.3-8.1-73.4-13.2l5.1-5.9c1.1-1,1.8-2.5,1.8-4 c0-1.5-0.6-3-1.7-4.1c-2.1-2-5.3-2-7.5-0.1l-9.1,10.3l0.2-0.5c-6.3-2.5-9.5-4.1-10.7-4.7C123.5,190,138.3,152.3,152.8,150.1z M162.2,352.7c1.8-1.8,2.5-4,2.8-5.2l11.2,12.6c0.7,0.8,0.9,1.9,0.5,2.9c-0.4,1-1.3,1.7-2.4,1.7c-0.8,0-1.7-0.3-2.2-0.9L162.2,352.7 z M171,364.9l-54.6,2.7c-0.9,0-1.7-0.3-2.2-1l-4.4-5c5.7,0,13.9-0.3,23.7-1.6l2.2-0.3c8.5-1.2,14-1.9,17.8-3.4 c3.4-0.7,6.1-1.6,7.6-2.6l9.8,11.1C171,364.8,171,364.9,171,364.9z M163.5,343.3c1.8-7.3-0.8-12.7-3.6-15c-0.2-6.8-3.6-10.9-9.9-12 c-0.5-3.1-2.2-5.8-4.7-7.6c-1.7-1.2-3.4-1.8-4.5-1.8c-2.3-8-13.1-8.4-17-8.3L86,255.9c0.5-1.5,1.2-2.7,2.1-3.7 c2.3-2.2,2.5-5.1,2.8-7.9c0.3-2.8,0.5-5.4,2.5-7.6c1.7-1.9,2.7-4.1,3.5-6.1c1.4-3.4,2.2-5,4.9-4.4c5.3,1.2,28.4,11.6,28.6,11.7 c4.5,2.1,6.8,1.9,6.9,1.9l-0.1-1.5c0,0-2.1,0.1-6.1-1.8c-0.2-0.1-1.9-0.9-4.4-2l6.4-7.5c3.9,1.9,13.1,6.6,15.1,9.9 c1.5,2.3,2.2,8.1,2.9,14.1c1,8.7,2.2,18.6,6.2,22.5c4.1,4,28.9,15.5,47.1,23.7l-33.8,50.3C168.3,346.3,166,344.9,163.5,343.3z M122.9,299.9l5.3,5.9c-0.7,0.9-2.2,2.4-4.2,3.7L69.5,248c-0.7-0.8-0.9-1.9-0.5-2.9c0.4-1,1.3-1.7,2.4-1.7c0.2,0,0.4,0,0.6,0 c0.6,0.1,1.2,0.4,1.6,0.9l0,0l48.2,54.4l-0.1,0L122.9,299.9z M110.8,227.9c2.2-1,6.2-2.7,9.5-3.2l-4.6,5.2 C114,229.3,112.4,228.6,110.8,227.9z M53.5,208.9c5.1-9.1,20.5-36.8,48.3-48c12.6-5.1,31.2-8.2,45.3-10.1 c-14.4,9.4-26.7,45-29.8,58.7l-0.1,0.5l0.5,0.3c0.1,0.1,3.1,1.8,11,4.9l-6.9,7.8c-4.6,0.2-11.5,3.4-12.9,4.1c-2.9-1.2-5.4-2-6.8-2.3 c-4-0.9-5.3,2.1-6.6,5.3c-0.8,1.8-1.7,3.9-3.2,5.6c-2.3,2.5-2.6,5.6-2.8,8.5c-0.2,2.7-0.5,5.2-2.3,7c-1,0.9-1.7,2.1-2.2,3.4l-4-4.5 L93.2,219l-1.4-0.6l-12.1,30.5l-5-5.6c-0.9-1-2.2-1.5-3.5-1.4l-36.8,2.5C43.1,227.8,50.7,213.9,53.5,208.9z M13.6,251.8 c-0.7-0.8-0.9-1.9-0.5-2.9c0.4-1,1.3-1.6,2.4-1.7l52.6-3.6c-0.2,0.3-0.4,0.6-0.5,0.9c-0.6,1.5-0.3,3.2,0.8,4.5l54.3,61.3 c-0.7,0.4-1.3,0.7-2.1,1c-3.4,1.3-7,2.3-9.2,2.9c1.6-2.2,3.8-6.1,3.3-10c-0.3-2.7-1.8-5-4.4-6.8c-2.3-1.6-5.3,1.1-8.8,4.2 c-1.2,1.1-2.5,2.3-3.8,3.3c-2.1,1.7-10.6,6.6-18,8.4c-1.6,0.4-6.8-0.2-13.2-1.1L13.6,251.8z M29.4,366.2 c-10.7-1.5-18.5-6.7-23.2-15.4c-7.9-14.9-5.7-38.6,5.7-62.1c3.4-7,7.3-14.8,11.6-23.2l40.6,46.4c-9.5-1.5-20.8-3.7-26.7-4.8 l-0.3,1.5c0.7,0.1,7.9,1.6,16.3,3.1c-6,29.6-2.5,50.8-1.6,55.3C44.1,367.2,36.3,367.1,29.4,366.2z M53.3,366.8 c-0.8-3.8-4.5-25.1,1.6-55c10.5,1.9,22.3,3.7,25.1,3c7.1-1.8,15.8-6.6,18.5-8.7c1.4-1.1,2.7-2.2,3.9-3.3c2.9-2.6,5.6-5,7-4.1 c2.3,1.5,3.5,3.4,3.8,5.7c0.6,5.2-4.3,10.6-4.3,10.7l-1.7,1.8l2.4-0.6c0.1,0,6-1.5,11.5-3.6c5.6-2.1,8.8-6.6,8.9-6.8l0.3-0.5 l-5.2-5.3c4.4,0.1,12.8,1.1,14.3,7.7c1.3,8-4.4,13-6.9,14.7c-4.2,3-5.4,3.1-5.4,3.2v1.5c0.3,0,1.8-0.2,6.3-3.4 c5.5-3.9,8.2-9.4,7.6-15.3c0.8,0.1,2.1,0.6,3.4,1.5c1.7,1.2,3.8,3.4,4.2,7.1c0.6,6.4-2.9,13.8-8.7,18.5l0.9,1.2 c5.9-4.7,9.6-12.2,9.3-18.8c5.3,1.1,8.1,4.7,8.2,10.8l0,0.4l0,0c0.3,6.4-2.6,12.3-7.5,15l0.7,1.3c5-2.8,8.2-8.6,8.3-15 c2.4,2.8,4.2,8.7,0.8,16.3c-3.8,8.6-7.1,9-25.3,11.5l-2.2,0.3c-19.6,2.7-32.5,1.2-32.6,1.2l-0.1,0l-0.1,0 C100.1,359.8,76.9,365.5,53.3,366.8z M93.3,362.8c4.1-0.8,6.7-1.5,7.3-1.6c0.6,0.1,3.1,0.3,7.1,0.4l5.3,6c0.8,0.9,2,1.5,3.2,1.5 c0.1,0,0.1,0,0.2,0l57.9-2.9c1.7-0.1,3.1-1.1,3.7-2.6c0.6-1.5,0.4-3.3-0.7-4.5l-10.7-12c17.2,10.9,26.1,16.9,34.7,22.7 c7.5,5.1,16,7.7,24.8,7.7c3,0,6-0.3,9-0.9c17.2-3.6,33.7-17.2,47.6-39.3l-1.3-0.8c-13.7,21.8-29.9,35.1-46.6,38.6 c-11.4,2.4-23,0.1-32.7-6.5c-7.8-5.3-15.9-10.8-30.4-20l33.9-50.5c9.9,4.4,17.6,7.8,18.5,8.1l0.6-1.4c-0.1-0.1-3-1.3-7.5-3.3 c2.1-4.4,4.8-11.8,8.1-20.9c11.4-31.1,30.4-83.1,54.4-89.6l-0.4-1.4c-24.8,6.7-44,59.2-55.4,90.5c-3.3,9.1-6,16.4-8.1,20.8 c-3.1-1.4-6.8-3-10.8-4.8l0,0l0,0c-18.2-8.2-43-19.7-46.9-23.5c-3.6-3.5-4.7-13.1-5.7-21.6c-0.8-6.5-1.5-12.2-3.1-14.8 c-2-3.2-9.1-7.1-15.4-10.3l5.7-6.6c15.1,5.2,44.2,13.5,75,13.5h0.5l0.2-0.5c15-44.9,34.7-69.7,45.1-67.6l0.1-0.4 c26.6,14.5,41,26.5,50.2,46.4c14.8,32.1,6.3,64.5-31.8,196.7c-7.4,1.8-109.7,25.6-181.4-4.2C97.1,400.2,93.4,380.5,93.3,362.8z M265.9,419.8c1.8,7.6,4.6,19.4,7.5,31.6c-15.7-0.7-21.6-16.6-23.8-27.4C254.9,422.8,260.4,421.4,265.9,419.8z M243.3,495.9 c-37.8,6.6-98.8,8.2-174.5-21.6c0.7-5.3,6.8-45.9,25.5-66.7c6.6,3.6,67.5,35.6,153.8,16.8c2.3,11.3,8.7,28.1,25.7,28.6 c2.8,11.9,5.6,24.1,7.5,33.1C271.2,489.6,258.5,493.2,243.3,495.9z M282.7,485.5c-4-18.8-11.7-51-15.3-66.2c5-1.5,10.1-3.1,15.3-5 c7,11.9,22,39.2,25,60C305.7,475.5,297,480.3,282.7,485.5z M166.9,90.7c-4.8,0-8.8-3.9-8.8-8.8V67.4h1.5v14.5c0,4,3.3,7.3,7.3,7.3 h1.4v1.5H166.9z M179,94.3c0,0.2,0.2,5.7-3.8,9.8c-2.7,2.8-6.6,4.2-11.7,4.2v-1.5c4.6,0,8.2-1.3,10.6-3.8c3.5-3.6,3.4-8.7,3.4-8.8 L179,94.3z M181.5,61.1l-1.2,0.9c0,0-3.1-4.1-10.9-4.1v-1.5C178,56.4,181.3,60.9,181.5,61.1z M180.5,69.1l0.2,1.5 c-0.6,0.1-1.3,0.1-1.9,0.1c-1,0-2-0.1-2.9-0.3c-0.8,1.5-2.3,2.5-4.1,2.5c-2.6,0-4.6-2.1-4.6-4.6c0-0.6,0.1-1.3,0.4-1.8 c-1.2-0.9-1.9-1.5-2-1.6l1-1.1C166.7,63.8,173.6,70.2,180.5,69.1z M157,69.1l0.2,1.5c-0.6,0.1-1.3,0.1-1.9,0.1c-1,0-2-0.1-2.9-0.3 c-0.8,1.5-2.3,2.5-4.1,2.5c-2.6,0-4.6-2.1-4.6-4.6c0-0.6,0.1-1.3,0.4-1.8c-1.2-0.9-1.9-1.5-2-1.6l1-1.1 C143.2,63.8,150.2,70.2,157,69.1z M218.2,104.8c0,0.1-1.5,13.6-1.1,19.1l-1.5,0.1c-0.4-5.7,1.1-18.8,1.1-19.4L218.2,104.8z M63.8,248.2l0.1,1.5l-46.1,2.7l-0.1-1.5L63.8,248.2z"/></g></svg>