<?xml version="1.0" encoding="UTF-8"?><svg xmlns="http://www.w3.org/2000/svg" xmlns:xlink="http://www.w3.org/1999/xlink" contentScriptType="text/ecmascript" fill="#000000" width="426.5" zoomAndPan="magnify" contentStyleType="text/css" viewBox="-0.1 -0.0 426.5 276.2" height="276.2" preserveAspectRatio="xMidYMid meet" version="1"><g data-name="Layer 2"><g id="change1_1"><path fill="#ffffff" d="M146.39,93.71h28.92v28.22H146.39Zm29,28.22h28.92V93.71H175.41Zm-58,28.47h28.92V122.17H117.37Zm58,0h28.92V122.17H175.4Zm29,0h28.92V122.17H204.42Zm-87.06,28.25v28.23h28.92V150.64H117.36Zm29,0v28.23H175.3V150.64H146.38Zm58,0v28.23h28.92V150.64H204.41Zm29-28v56.24h28.92V150.64ZM88.35,206.88h28.91V178.65H88.35Z"/></g><g id="change2_1"><path fill="#e2b75f" d="M117.26,150.64v28.22H88.35V150.64Zm58.14,28v28.23h28.91V178.65Zm-29-56.48V150.4H175.3V122.17Z"/></g><g id="change2_2"><path fill="#e2b75f" d="M157.89,32.71V60.93H129V32.71ZM89,62.71l3.4,3.54-3.14,5.46-4.9-1a18.52,18.52,0,0,1-8.67,5l-1.4,4.86-6.29,0-1.64-4.94a18.45,18.45,0,0,1-8.45-4.92l-4.9,1-3.14-5.46,3.4-3.53a18.7,18.7,0,0,1-.69-5,18.49,18.49,0,0,1,.64-4.85l-3.49-4,3.2-5.42,4.94,1.26a18.56,18.56,0,0,1,8.6-5l1.4-4.84h6.3l1.58,4.83a18.44,18.44,0,0,1,8.62,5l4.84-1.24,3.2,5.42L89,52.72a18.69,18.69,0,0,1,0,10ZM81.4,57.62A10.33,10.33,0,1,0,71.07,68,10.34,10.34,0,0,0,81.4,57.62Z"/></g><g id="change1_2"><path fill="#ffffff" d="M422.34,251.8l-10.14,6.44-6.72-9.43,10.14-6.44Z"/></g><g id="change3_1"><path fill="inherit" d="M412.2,258.61a.37.37,0,0,1-.31-.16L405.18,249a.37.37,0,0,1-.07-.29.35.35,0,0,1,.17-.24l10.14-6.43a.37.37,0,0,1,.51.1l6.71,9.43a.38.38,0,0,1-.1.53l-10.14,6.43A.36.36,0,0,1,412.2,258.61Zm-6.18-9.7,6.28,8.82,9.5-6-6.28-8.82Z"/></g><g id="change4_1"><path fill="#a36357" d="M64.22,184.7c-3.21-1-5.21-6.14-5.21-6.14.43-1.82,1.27-4,2-7.14-.69-1-3-4.72-1.9-6.68a2.7,2.7,0,0,1,2.63-1.14l1.39-7.82,18.13,4.12,0,.39c.09.54,2,13.24-3.24,17.69-1.79,1.53-4.17,1.91-7.09,1.12l-.09,3S67.43,185.68,64.22,184.7Z"/></g><g id="change3_2"><path fill="inherit" d="M59.26,154.72a2.45,2.45,0,0,1-.26-.16,13.34,13.34,0,0,1-1.26-.91c-1.86-1.47-4.62-4.3-3.26-7.34,2-4.42,8.3-4.61,9.39-4,1.67.94,2.61,1.69,3.18,6.13.06.48.11,1,.17,1.58,0,.09,0,.18,0,.28a20.43,20.43,0,0,1,5.76.08c3.58.72,13,4.78,8.43,11.88A15.34,15.34,0,0,1,71.3,161s-1.84-1.09-2.25,1.36a44.66,44.66,0,0,1-1.79,6.2s-1.78.19-2.65-2.19S59.29,164,59,167C59,167,55.58,161.67,59.26,154.72Z"/></g><g id="change1_3"><path fill="#ffffff" d="M67.83,150.48l-.48.12a20.13,20.13,0,0,0-8,4.39l-.32.28L58.7,155a15.36,15.36,0,0,1-1.31-.94l-.45-.36.36-.44A15.82,15.82,0,0,1,67,147.9l.58-.1.08.59c.06.46.11,1,.17,1.6Z"/></g><g id="change3_3"><path fill="inherit" d="M59.05,155.65a.36.36,0,0,1-.2-.06l-.36-.23c-.3-.19-.77-.52-1.34-1l-.44-.36a.35.35,0,0,1-.14-.25.36.36,0,0,1,.08-.27l.36-.45a16.13,16.13,0,0,1,9.88-5.53l.58-.1a.42.42,0,0,1,.29.07.41.41,0,0,1,.15.25l.07.59c.06.46.12,1,.18,1.62h0l0,.49a.36.36,0,0,1-.28.39l-.48.12a19.94,19.94,0,0,0-7.82,4.31l-.32.29A.38.38,0,0,1,59.05,155.65Zm-1.58-2,.15.13c.54.42,1,.73,1.28.92l.12.07.11-.09a20.58,20.58,0,0,1,8.13-4.48l.16,0V150c-.06-.61-.11-1.13-.17-1.58l0-.2-.2,0a15.48,15.48,0,0,0-9.42,5.26Z"/></g><g id="change1_4"><path fill="#ffffff" d="M292,267.34H280.89l-.57-11.76h11.14Z"/></g><g id="change1_5"><path fill="#ffffff" d="M235.94,255.58l-3.12,11.76H221.74l3.13-11.76Z"/></g><g id="change3_4"><path fill="inherit" d="M292,267.72H280.89a.38.38,0,0,1-.38-.36l-.57-11.76a.42.42,0,0,1,.1-.28.39.39,0,0,1,.28-.11h11.14a.37.37,0,0,1,.38.35l.57,11.76a.35.35,0,0,1-.1.28A.36.36,0,0,1,292,267.72ZM281.25,267h10.39l-.53-11h-10.4Zm-48.43.75H221.74a.38.38,0,0,1-.29-.15.34.34,0,0,1-.07-.32l3.13-11.76a.36.36,0,0,1,.36-.28h11.07a.37.37,0,0,1,.3.14.4.4,0,0,1,.07.33l-3.13,11.76A.38.38,0,0,1,232.82,267.72ZM222.23,267h10.3l2.93-11h-10.3Z"/></g><g id="change3_5"><path fill="inherit" d="M293.83,270.86a1.28,1.28,0,0,1-1.23,1.6H266.09a.72.72,0,0,1-.33-1.35l15-7.81c5.06,4.57,11.08,0,11.08,0Zm-60-7.56s-6,4.57-11.07,0l-15,7.81a.72.72,0,0,0,.32,1.35h26.51a1.28,1.28,0,0,0,1.23-1.6Z"/></g><g id="change1_6"><path fill="#ffffff" d="M175.4 150.64H204.32V178.85999999999999H175.4z"/></g><g id="change2_3"><path fill="#e2b75f" d="M185.33,236.7v28.22H156.42V236.7Z"/></g><g id="change3_6"><path fill="inherit" d="M221.05,214.93v28.23H192.14V214.93Zm-40.92,44.41V231.12a.38.38,0,0,0-.38-.38H150.83a.38.38,0,0,0-.37.38v28.22a.38.38,0,0,0,.37.38h28.92A.38.38,0,0,0,180.13,259.34Zm-28.92-27.85h28.17V259H151.21Z"/></g><g id="change3_7"><path fill="inherit" d="M262.35,150.26H233.71V122.17a.38.38,0,0,0-.37-.37H204.7V93.71a.38.38,0,0,0-.37-.38H146.39a.37.37,0,0,0-.37.38V121.8H117.37a.38.38,0,0,0-.38.37V150.4a.36.36,0,0,0,0,.1.59.59,0,0,0,0,.14v27.64H88.34a.38.38,0,0,0-.37.37v28.23a.38.38,0,0,0,.37.37h87a.38.38,0,0,0,.37-.37V179.24H204v27.64a.38.38,0,0,0,.38.37h57.93a.37.37,0,0,0,.37-.37V150.64A.37.37,0,0,0,262.35,150.26ZM262,151v27.27H233.81V151Zm-58-28.46V150H175.78V122.55ZM175,150.26H146.66V122.31H175Zm-57.29.75H145.9v27.27H117.74Zm29,0h28.16v27.27H146.76Zm58,0H233v27.27H204.79Zm0-28.46H233V150H204.8Zm-29-28.47H204v27.48H175.78Zm-29,0h28.16v27.48H146.77Zm-29,28.47h28.17V150H117.74Zm-.85,84H88.72V179h28.17Zm.85,0V179.24H145.9V206.5Zm29,0V179.24h28.16V206.5Zm57.18-28H175.77V151h28.17Zm.85,28V179.24H233V206.5Zm29,0V179.24H262V206.5Z"/></g><g id="change2_4"><path fill="#e2b75f" d="M316.48,37.9l-4.31,4.49,4,6.91L322.36,48a23.47,23.47,0,0,0,11,6.31l1.77,6.16,8,0,2.08-6.26A23.38,23.38,0,0,0,355.89,48l6.21,1.29,4-6.91-4.31-4.48a23.66,23.66,0,0,0,.07-12.53l4.42-5-4.06-6.88-6.26,1.6A23.51,23.51,0,0,0,345,8.75l-1.78-6.14h-8l-2,6.12A23.47,23.47,0,0,0,322.35,15l-6.14-1.57-4.06,6.88,4.31,4.89a23.22,23.22,0,0,0-.85,6.28A23.57,23.57,0,0,0,316.48,37.9Zm9.63-6.45A13.09,13.09,0,1,1,339.2,44.54,13.09,13.09,0,0,1,326.11,31.45Z"/></g><g id="change3_8"><path fill="inherit" d="M206.08,12.57V40.79H177.17V12.57ZM153.25,71V42.75a.38.38,0,0,0-.38-.37H124a.38.38,0,0,0-.37.37V71a.38.38,0,0,0,.37.37h28.92A.38.38,0,0,0,153.25,71ZM124.33,43.13H152.5V70.6H124.33ZM65.42,78.61l6.3,0a.36.36,0,0,0,.35-.27l1.34-4.66a18.91,18.91,0,0,0,8.5-4.88l4.7,1a.38.38,0,0,0,.4-.18l3.14-5.46a.38.38,0,0,0-.06-.45l-3.25-3.38a19,19,0,0,0,0-9.79l3.26-3.7a.39.39,0,0,0,0-.44L87,40.93a.38.38,0,0,0-.42-.17L81.91,42a19,19,0,0,0-8.44-4.88L72,32.44a.37.37,0,0,0-.36-.26H65.3a.37.37,0,0,0-.36.27l-1.35,4.64A18.93,18.93,0,0,0,55.17,42l-4.73-1.21a.39.39,0,0,0-.42.17l-3.19,5.43a.36.36,0,0,0,0,.44l3.36,3.81a18.91,18.91,0,0,0,0,9.68L47,63.67a.38.38,0,0,0-.05.45l3.13,5.46a.38.38,0,0,0,.4.18l4.71-1a18.89,18.89,0,0,0,8.28,4.83l1.57,4.74a.38.38,0,0,0,.36.26ZM55.25,68l-4.63,1-2.86-5L51,60.66a.36.36,0,0,0,.09-.36,18.23,18.23,0,0,1-.68-4.94A18.55,18.55,0,0,1,51,50.61a.38.38,0,0,0-.08-.34L47.61,46.5l2.92-4.94,4.67,1.19a.37.37,0,0,0,.36-.1A18.2,18.2,0,0,1,64,37.76a.37.37,0,0,0,.27-.26l1.33-4.57h5.74l1.5,4.57a.4.4,0,0,0,.26.25,18.17,18.17,0,0,1,8.45,4.87.35.35,0,0,0,.36.1l4.57-1.16,2.92,4.94-3.22,3.66a.38.38,0,0,0-.08.34,18.25,18.25,0,0,1,0,9.8.37.37,0,0,0,.09.36L89.36,64,86.5,69l-4.64-1a.35.35,0,0,0-.34.1A18.18,18.18,0,0,1,73,73a.37.37,0,0,0-.27.26l-1.32,4.59-5.74,0-1.55-4.68a.4.4,0,0,0-.26-.25,18.07,18.07,0,0,1-8.28-4.82.4.4,0,0,0-.27-.11Zm24-12.7A10.7,10.7,0,1,0,68.5,66,10.71,10.71,0,0,0,79.2,55.31Zm-.75,0a10,10,0,1,1-10-10A10,10,0,0,1,78.45,55.31ZM93.51,111.4a.38.38,0,0,1-.36-.25l-1-3a12.3,12.3,0,0,1-5.24-3.05l-2.93.61a.38.38,0,0,1-.4-.18l-2-3.49a.38.38,0,0,1,.06-.45l2-2.1a12.36,12.36,0,0,1,0-6.12L81.55,91a.38.38,0,0,1,0-.44l2-3.47a.37.37,0,0,1,.41-.17l3,.75a12.28,12.28,0,0,1,5.31-3.08l.84-2.9a.38.38,0,0,1,.36-.27h4a.38.38,0,0,1,.36.26l1,2.9a12.29,12.29,0,0,1,5.33,3.07l2.89-.73a.39.39,0,0,1,.42.17l2,3.47a.38.38,0,0,1,0,.44l-2,2.31a12.32,12.32,0,0,1,0,6.19l2,2.1a.36.36,0,0,1,.05.45l-2,3.49a.38.38,0,0,1-.4.18l-2.94-.61a12.16,12.16,0,0,1-5.36,3.08l-.84,2.91a.37.37,0,0,1-.36.27Zm-6.45-7.05a.36.36,0,0,1,.26.11,11.56,11.56,0,0,0,5.24,3.05.37.37,0,0,1,.26.24l1,2.9h3.47l.81-2.84a.39.39,0,0,1,.27-.26,11.44,11.44,0,0,0,5.37-3.08.41.41,0,0,1,.35-.11l2.87.6,1.72-3-2-2.06a.39.39,0,0,1-.09-.36A11.3,11.3,0,0,0,107,96.4a11.77,11.77,0,0,0-.41-3.07.33.33,0,0,1,.08-.34l2-2.27-1.77-3-2.82.72a.35.35,0,0,1-.36-.1,11.48,11.48,0,0,0-5.34-3.08.37.37,0,0,1-.26-.24l-.93-2.84H93.71L92.89,85a.37.37,0,0,1-.27.26,11.39,11.39,0,0,0-5.32,3.09.37.37,0,0,1-.36.1l-2.89-.74-1.76,3,2,2.34a.38.38,0,0,1,.08.34,11.49,11.49,0,0,0,0,6.12.36.36,0,0,1-.09.36l-2,2.06,1.73,3,2.87-.6Zm8.42-1a7,7,0,1,1,7-7A7,7,0,0,1,95.48,103.34Zm0-13.2a6.23,6.23,0,1,0,6.23,6.23A6.23,6.23,0,0,0,95.48,90.14Z"/></g><g id="change3_9"><path fill="inherit" d="M339.2,58.65h0l-8,0a.39.39,0,0,1-.36-.28l-1.71-6a23.82,23.82,0,0,1-10.82-6.21l-6,1.25a.39.39,0,0,1-.41-.18l-4-6.92a.39.39,0,0,1,.05-.45l4.17-4.33a23.63,23.63,0,0,1-.84-6.27,24.28,24.28,0,0,1,.81-6.19L308,18.36a.38.38,0,0,1-.05-.44L312,11.05a.37.37,0,0,1,.41-.17l5.93,1.51a24,24,0,0,1,10.75-6.2L331,.26a.38.38,0,0,1,.36-.26h8a.37.37,0,0,1,.36.27l1.73,5.94a23.89,23.89,0,0,1,10.71,6.21l6.06-1.54a.37.37,0,0,1,.41.17l4.06,6.87a.38.38,0,0,1-.05.44l-4.29,4.88a23.68,23.68,0,0,1,.78,6.05,24.12,24.12,0,0,1-.84,6.28l4.16,4.32a.38.38,0,0,1,.06.45l-4,6.92a.38.38,0,0,1-.4.18l-6-1.25a23.84,23.84,0,0,1-10.55,6.14l-2,6.07A.37.37,0,0,1,339.2,58.65Zm-7.7-.77,7.43,0,2-6a.37.37,0,0,1,.26-.24,23.23,23.23,0,0,0,10.55-6.14.4.4,0,0,1,.34-.11L358,46.65l3.7-6.44-4.12-4.28a.36.36,0,0,1-.09-.36,23.19,23.19,0,0,0,.07-12.33.33.33,0,0,1,.08-.34l4.24-4.83-3.77-6.4-6,1.53a.35.35,0,0,1-.36-.1A23.15,23.15,0,0,0,341,6.88a.35.35,0,0,1-.26-.26L339.07.75h-7.43l-1.92,5.87a.37.37,0,0,1-.26.24,23.15,23.15,0,0,0-10.75,6.21.36.36,0,0,1-.36.1l-5.87-1.5-3.77,6.4,4.12,4.69a.38.38,0,0,1,.08.34,23.16,23.16,0,0,0,0,12.47.39.39,0,0,1-.09.36l-4.12,4.28,3.7,6.44,5.95-1.24a.37.37,0,0,1,.34.11,23.15,23.15,0,0,0,10.82,6.21.37.37,0,0,1,.27.26Zm3.79-15.2a13.47,13.47,0,1,1,13.47-13.46A13.49,13.49,0,0,1,335.29,42.68Zm0-26.18A12.72,12.72,0,1,0,348,29.22,12.74,12.74,0,0,0,335.29,16.5ZM307.19,91h0l-5.1,0a.37.37,0,0,1-.36-.27L300.66,87A15.4,15.4,0,0,1,293.81,83l-3.78.79a.38.38,0,0,1-.4-.18l-2.54-4.43a.38.38,0,0,1,.05-.44l2.61-2.72a15.61,15.61,0,0,1-.51-4,15.16,15.16,0,0,1,.5-3.92l-2.62-3a.36.36,0,0,1,0-.43l2.59-4.4a.39.39,0,0,1,.42-.17l3.71,1a15.4,15.4,0,0,1,6.81-3.93l1.22-3.72a.37.37,0,0,1,.36-.26h5.1a.38.38,0,0,1,.36.27l1.08,3.72a15.36,15.36,0,0,1,6.78,3.94l3.8-1a.38.38,0,0,1,.42.17l2.59,4.4a.38.38,0,0,1,0,.43l-2.7,3.07a15.51,15.51,0,0,1,0,7.81l2.61,2.71a.36.36,0,0,1,.06.44l-2.55,4.43a.38.38,0,0,1-.4.18L315.49,83a15.33,15.33,0,0,1-6.68,3.89l-1.26,3.81A.38.38,0,0,1,307.19,91Zm-4.82-.77,4.55,0,1.24-3.75a.37.37,0,0,1,.26-.24,14.65,14.65,0,0,0,6.68-3.89.4.4,0,0,1,.34-.11l3.71.78,2.26-4-2.56-2.66a.39.39,0,0,1-.09-.36,14.66,14.66,0,0,0,0-7.81.38.38,0,0,1,.09-.35l2.64-3L319.22,61l-3.73,1a.39.39,0,0,1-.36-.1,14.63,14.63,0,0,0-6.79-3.95.37.37,0,0,1-.27-.26L307,54h-4.55l-1.2,3.66a.37.37,0,0,1-.26.24,14.54,14.54,0,0,0-6.81,3.94.41.41,0,0,1-.36.1L290.18,61l-2.32,3.92,2.57,2.92a.35.35,0,0,1,.08.35,15,15,0,0,0,0,7.9.37.37,0,0,1-.09.36l-2.56,2.66,2.26,4,3.71-.78a.41.41,0,0,1,.35.11,14.56,14.56,0,0,0,6.85,3.93.41.41,0,0,1,.27.26Zm2.32-9.44A8.75,8.75,0,1,1,313.44,72,8.76,8.76,0,0,1,304.69,80.78Zm0-16.74a8,8,0,1,0,8,8A8,8,0,0,0,304.69,64Z"/></g><g id="change1_7"><path fill="#ffffff" d="M299.7,133.22l-5.4,50.88,1.42,74.17H277.25l-6.82-75.88s2.84-50.3,2.84-51.15Z"/></g><g id="change3_10"><path fill="inherit" d="M295.72,258.65H277.25a.38.38,0,0,1-.38-.34l-6.82-75.88c0-.56,2.84-50.36,2.84-51.19A.4.4,0,0,1,273,131a.38.38,0,0,1,.29-.1l26.43,2a.43.43,0,0,1,.26.13.4.4,0,0,1,.08.28l-5.4,50.88,1.43,74.13a.4.4,0,0,1-.11.27A.39.39,0,0,1,295.72,258.65Zm-18.13-.75h17.75l-1.42-73.8,5.37-50.53-25.66-1.93c-.23,4.75-2.72,48.81-2.83,50.77Z"/></g><g id="change2_5"><path fill="#e2b75f" d="M252.24,144.33v13.88H239.45V144.33Z"/></g><g id="change2_6"><path fill="#e2b75f" d="M205.21,99.77v13H192.42v-13Z"/></g><g id="change1_8"><path fill="#ffffff" d="M247,174l12.79-41.6h29.17L240.16,258.13H221.4Z"/></g><g id="change3_11"><path fill="inherit" d="M240.16,258.51H221.4a.38.38,0,0,1-.3-.15A.41.41,0,0,1,221,258l25.58-84.12,12.79-41.6a.38.38,0,0,1,.36-.26h29.17a.38.38,0,0,1,.31.16.4.4,0,0,1,0,.35L240.51,258.27A.39.39,0,0,1,240.16,258.51Zm-18.25-.75h18l48.49-125H260.05l-12.71,41.33Z"/></g><g id="change1_9"><path fill="#ffffff" d="M232.94,125.32l-.05.31c-.21,1.39-2.21,13.55-7.51,13.7h-.06c-5.18,0-22.75-17.92-25.49-20.75H193l-9-10.8.31-.37a3.35,3.35,0,0,1,2.19-1.08,2.85,2.85,0,0,1,1.88.65,2.49,2.49,0,0,1,1.14-.58,3.83,3.83,0,0,1,2.82.65,2,2,0,0,1,.8-.35,3.54,3.54,0,0,1,2.74.91l.1.07.94,1.65a2.06,2.06,0,0,1,1.78.25,8.51,8.51,0,0,1,1.63,1.57c1.24-.14,5.47-.45,7.84,1.92,2.13,2.13,10.35,9.54,12.87,11.81l1.71-8.51Z"/></g><g id="change3_12"><path fill="inherit" d="M225.39,139.7c-5.3,0-22.1-17-25.72-20.74H193a.38.38,0,0,1-.29-.14l-9-10.8a.38.38,0,0,1,0-.49l.32-.36a3.61,3.61,0,0,1,2.45-1.21,3.11,3.11,0,0,1,1.89.55,3,3,0,0,1,1.07-.48,4,4,0,0,1,2.89.58,2.27,2.27,0,0,1,.74-.28,3.9,3.9,0,0,1,3,1l.09.07a.29.29,0,0,1,.1.12l.81,1.4a2.44,2.44,0,0,1,1.8.37,8.17,8.17,0,0,1,1.58,1.49c1.49-.15,5.58-.32,7.94,2,2.05,2,9.85,9.09,12.38,11.36l1.57-7.86a.36.36,0,0,1,.25-.28.37.37,0,0,1,.36.07l10.21,9a.37.37,0,0,1,.13.34l-.05.31C232.91,128,230.87,139.55,225.39,139.7Zm-32.23-21.49h6.67a.39.39,0,0,1,.27.11c9.22,9.52,21.35,20.64,25.22,20.64,4.1-.12,6.45-8.47,7.2-13.39v-.1L223,117.08,221.39,125a.37.37,0,0,1-.25.28.39.39,0,0,1-.37-.08c-2.47-2.23-10.72-9.66-12.89-11.83s-6.32-1.94-7.52-1.8a.37.37,0,0,1-.34-.14,8,8,0,0,0-1.55-1.49,1.68,1.68,0,0,0-1.46-.21.38.38,0,0,1-.44-.17l-.93-1.61a3.23,3.23,0,0,0-2.45-.84,1.43,1.43,0,0,0-.64.28.38.38,0,0,1-.43,0,3.49,3.49,0,0,0-2.54-.61,2.15,2.15,0,0,0-1,.5.36.36,0,0,1-.47,0,2.48,2.48,0,0,0-1.65-.57,2.87,2.87,0,0,0-1.91,1l-.11.12Z"/></g><g id="change2_7"><path fill="#e2b75f" d="M299.84,132.52c-16.55,21.4-42.78,9.3-42.78,9.3l-19.6-24.23-4.83,9.09-12.22-4.83,3.27-14.35a12.31,12.31,0,0,1,6.39-8.39l17.48-5.82c10.52-.56,16.2,2.56,16.2,2.56.58.53,13.41,8.39,13.41,8.39l-2,4C285.17,118.43,299.84,132.52,299.84,132.52Z"/></g><g id="change1_10"><path fill="#ffffff" d="M246.86,95.69v.12l-.07.11a8.63,8.63,0,0,1-4.59,3.51,15.65,15.65,0,0,1-3.69.4,19.31,19.31,0,0,1-2.15-.11l-.34,0-1.94-5c-2.82,1.15-5.24,1.07-7.2-.23-5.71-3.79-5.39-16.63-5.38-17.17l0-.39L239,70.64l2.34,7.59a2.73,2.73,0,0,1,2.75.81c1.35,1.81-.51,5.75-1.07,6.85C246.91,95.29,246.89,95.5,246.86,95.69Z"/></g><g id="change3_13"><path fill="inherit" d="M238.5,100.2a20.4,20.4,0,0,1-2.19-.11l-.34,0a.36.36,0,0,1-.31-.23l-1.8-4.6c-2.79,1-5.21.91-7.2-.41-5.89-3.91-5.56-16.94-5.54-17.49v-.39a.38.38,0,0,1,.25-.34l17.49-6.3a.37.37,0,0,1,.29,0,.39.39,0,0,1,.19.23l2.25,7.29a2.93,2.93,0,0,1,2.78,1c1.38,1.85-.14,5.46-1,7.09,3.88,9.34,3.85,9.53,3.81,9.83v.12a.34.34,0,0,1-.06.15l-.06.11a8.91,8.91,0,0,1-4.81,3.67A15.7,15.7,0,0,1,238.5,100.2Zm-2.22-.87.11,0c.16,0,1,.1,2.11.1a14.63,14.63,0,0,0,3.6-.39,8.2,8.2,0,0,0,4.36-3.34l0-.08c0-.32-1.2-3.28-3.83-9.6a.4.4,0,0,1,0-.32c1.17-2.27,2.07-5.16,1.11-6.45a2.4,2.4,0,0,0-2.4-.67.36.36,0,0,1-.41-.26l-2.22-7.22-16.88,6.09v.13c0,.53-.34,13.16,5.21,16.85,1.85,1.23,4.16,1.3,6.85.2a.37.37,0,0,1,.29,0,.38.38,0,0,1,.2.21Zm10.56-3.52h0Z"/></g><g id="change3_14"><path fill="inherit" d="M244.51,82.24c-.67-3.14-4.83-2.21-5.45.41s-2.5,2.64-2.5,2.64a46.69,46.69,0,0,1-2.69-6.3c-.75-2.53-2.55-1.14-2.55-1.14-2,2.71-4,3.6-5.7,3.76a5.07,5.07,0,0,1-4.85-2.68c-3.48-6.32,4.06-10.93,7.39-12,2.61-.86,8.78-1.93,13.35,1.45C248.46,73.47,244.51,82.24,244.51,82.24Z"/></g><g id="change4_2"><path fill="#a36357" d="M41.85,264.89H40.11l-1,6.16-25-2.27,7.39-6.54,2.5-.18-.25-1.65,14.09-6.56,5.59,5.31Z"/></g><g id="change3_15"><path fill="inherit" d="M26.29,262.25s-7.56,0-8.79,6.73L.84,271.9a.71.71,0,0,1-.56-1.26l21-16.12a1.27,1.27,0,0,1,1.95.52Z"/></g><g id="change2_8"><path fill="#e2b75f" d="M150.87,194.72l-12.47,2.84-2.78-12.17,12.47-2.84Z"/></g><g id="change4_3"><path fill="#a36357" d="M141.1,197.63l.13.62L128,199.43,96.55,222.35a5.19,5.19,0,0,1-6.65-.46L76.06,208.53l10.78-10.16,9.47,9.47,24.83-13.68,4.69-5.33a9.33,9.33,0,0,1,3.87-2.62l11.55-4.1-.14.94a6.45,6.45,0,0,1-5.41,5l-3.17,2.91a2.59,2.59,0,0,0,.34,2.07c.63.86,2,1.32,4,1.32A4.26,4.26,0,0,1,141.1,197.63Z"/></g><g id="change1_11"><path fill="#ffffff" d="M60.4,228.43s35.84,10.3,49.3,25.64c2.9,3.3.72,12.16-5.53,12.16l-54.85-3.69Z"/></g><g id="change3_16"><path fill="inherit" d="M104.17,266.61l-54.88-3.7a.37.37,0,0,1-.28-.16.36.36,0,0,1,0-.33L60,228.32a.39.39,0,0,1,.46-.25c.36.11,36.1,10.51,49.48,25.75,1.63,1.85,1.82,5.37.46,8.37A6.85,6.85,0,0,1,104.17,266.61ZM49.82,262.2l54.37,3.66a6.13,6.13,0,0,0,5.57-4c1.22-2.7,1.08-5.95-.34-7.56C96.89,240,64.37,230,60.64,228.9Z"/></g><g id="change2_9"><path fill="#e2b75f" d="M90.7,200.8,80.09,215.66l-6.42-6.16L72,233.25l-40.84.88L36.42,219l-10.54-7.41,4.78-11.24-2.36-.89,8.05-13.56a9.9,9.9,0,0,1,7-4.75L59,178.64l.2.34c0,.06,3,5.19,6.7,5.57,1.6.16,3.14-.59,4.6-2.25l.39-.44L82.11,192.5Z"/></g><g id="change1_12"><path fill="#ffffff" d="M50.17,231.84C63,232.7,94.5,250.32,99.34,258a14.38,14.38,0,0,1,2.23,10,5,5,0,0,1-5,4.21H34c-1.42-4.83,1.7-13.93,1.7-13.93-18.19-9.09-3-27.15-3-27.15Z"/></g><g id="change3_17"><path fill="inherit" d="M96.61,272.58H34a.37.37,0,0,1-.36-.27c-1.31-4.44,1.06-12.18,1.61-13.85-4.84-2.49-7.73-5.86-8.59-10-1.75-8.5,5.46-17.2,5.77-17.56a.36.36,0,0,1,.3-.14l17.48.73c12.79.85,44.66,18.67,49.47,26.32A14.81,14.81,0,0,1,101.94,268,5.4,5.4,0,0,1,96.61,272.58Zm-62.35-.75H96.61a4.65,4.65,0,0,0,4.59-3.9A14.05,14.05,0,0,0,99,258.19c-4.75-7.55-36.24-25.13-48.88-26l-17.28-.72c-.92,1.16-7.06,9.22-5.49,16.79.83,4,3.68,7.25,8.47,9.65a.38.38,0,0,1,.19.46C36,258.48,33.07,267.1,34.26,271.83Z"/></g><g id="change4_4"><path fill="#a36357" d="M77.42,242a1.2,1.2,0,0,1-1.33.22l-18.37-8.17L26.38,222.91a5.18,5.18,0,0,1-3.06-6.83L29.85,200l12.56,5.31-4,8.7,23,13.88,6.93,1.05a6.23,6.23,0,0,1,4.09,2.5l3.78,5.25,1.49,4A1.23,1.23,0,0,1,77.42,242Z"/></g><g id="change3_18"><path fill="inherit" d="M425.93,254.27a1.33,1.33,0,0,1-.19,2.11l-23.48,14.89a.75.75,0,0,1-1.05-1l8.9-15.36c7.05,1.21,9.81-6.22,9.81-6.22Z"/></g><g id="change3_19"><path fill="inherit" d="M357.17,104.6c3.08-3.46-.46-9.17-.11-13.76,1.1-14.37,15.64-14.57,15.64-14.57,12.68,1.39,13.22,12.53,13.4,17.66.37,10.07,4.39,12,7.29,15.43s5.49,12.32-.52,16.83c-13.53,10.16-35.81,7.26-40.05-2.37C350.25,118,351.9,110.53,357.17,104.6Z"/></g><g id="change5_1"><path fill="#f4e3e0" d="M364.82,112.27l1.41-8.41c-2.79-.36-4.71-1.53-5.7-3.48-2.91-5.72,3.3-16.11,3.57-16.55l.91-1.52.11,1.77c.42,7,10.38,7.82,10.48,7.82a2.81,2.81,0,0,1,2.66,1.49c.88,2-1.55,5.36-2.29,6.3l2.76,12.61Z"/></g><g id="change5_2"><path fill="#f4e3e0" d="M362.67,130.14,347.29,146.7a6,6,0,0,1-4.41,1.93,4.58,4.58,0,0,1-.64,0,6,6,0,0,1-4.55-2.89l-11.9-19.84,5.7-3.57,10.38,13,6.14-9.65Z"/></g><g id="change2_10"><path fill="#e2b75f" d="M418.7,244.62l-12.87,7.83L372,203.5l-1.24-4.88-3.93,10.9.35,23.11L350,235.73l-1.59-29.85L354.93,159l5.43-1.29-1-3.74,23.5-.56c6.15,15.1,7.55,45,7.55,45Z"/></g><g id="change1_13"><path fill="#ffffff" d="M389,165.61l0,.43-.41.09c-.17,0-16.85,3.66-21.73,4.33a42.49,42.49,0,0,1-5.7.38,43.63,43.63,0,0,1-10.81-1.3l-.47-.13,5.89-37.58-10.14-3.69,7.29-12.79a7.35,7.35,0,0,1,3.1-2.95c3-1.53,5.82-3.84,8.67-5.7,2.9,5.31,9,3.42,13.1.78l.31-.2.31.21C391.18,116.31,389.12,163.6,389,165.61Z"/></g><g id="change3_20"><path fill="inherit" d="M361.17,171.21a44,44,0,0,1-10.91-1.31l-.47-.13a.38.38,0,0,1-.27-.42l5.84-37.27-9.85-3.58a.34.34,0,0,1-.22-.23.37.37,0,0,1,0-.31l7.29-12.79a7.82,7.82,0,0,1,3.26-3.11,46,46,0,0,0,5.69-3.64c1-.68,2-1.39,2.94-2a.36.36,0,0,1,.3,0,.4.4,0,0,1,.24.18,5.72,5.72,0,0,0,3.66,3c3.42.86,7.37-1.36,8.91-2.35l.31-.2a.36.36,0,0,1,.41,0l.31.21c12.93,8.93,10.87,56.43,10.78,58.45l0,.42a.37.37,0,0,1-.3.35l-.41.09c-.16,0-16.9,3.67-21.76,4.34A43.16,43.16,0,0,1,361.17,171.21Zm-10.86-2.08.15.05a43.35,43.35,0,0,0,10.71,1.28,41.68,41.68,0,0,0,5.65-.37c4.83-.67,21.53-4.3,21.7-4.33l.13,0v-.14c.09-2,2.14-49.09-10.46-57.79h0l-.1-.07-.09.07c-1.63,1-5.8,3.38-9.51,2.45a6.32,6.32,0,0,1-3.93-3c-.86.58-1.74,1.2-2.59,1.8a46.38,46.38,0,0,1-5.78,3.7,7.07,7.07,0,0,0-2.95,2.81l-7.07,12.4,9.72,3.54a.38.38,0,0,1,.25.41ZM389,166h0Z"/></g><g id="change2_11"><path fill="#e2b75f" d="M352.55,144.54H310.87V102.12h41.68Z"/></g><g id="change5_3"><path fill="#f4e3e0" d="M383.08,133.64l-8.23,15.48a4.6,4.6,0,0,1-3.13,2.35,5,5,0,0,1-.94.1,4.61,4.61,0,0,1-2.87-1L346.2,133.18l-4.17-.89-6.28-3.14-.07-.19a2,2,0,0,1,0-1.75,1.27,1.27,0,0,1,.28-.29,2.17,2.17,0,0,1-.19-1.6,1.13,1.13,0,0,1,.37-.49,2,2,0,0,1,1-2,1.65,1.65,0,0,1-.23-1.47c.14-.31.49-.67,1.36-.67.17,0,.46,0,4.48,2.48l1.67.76-.8-1.33A2.46,2.46,0,0,1,342,119.9l.12-.58,4,1.1.11.1a36.42,36.42,0,0,1,4.3,5.23l0,.08.54,1.35L367,137.31l4.8-9.3Z"/></g><g id="change3_21"><path fill="inherit" d="M274.33,145.63a48.39,48.39,0,0,1-17.61-3.47.38.38,0,0,1,.31-.69c.27.13,27.19,11.84,42.45-8.88a.37.37,0,0,1,.52-.07.36.36,0,0,1,.08.52C292.76,143,282.84,145.63,274.33,145.63Z"/></g><g id="change1_14"><path fill="#ffffff" d="M293.51,120.51a5.81,5.81,0,0,1-1.71,4.33L266,150.38l-4.29,5-7.59,5.45H240.92a1.52,1.52,0,0,1-1.35-.79,1.55,1.55,0,0,1,0-1.57,2.75,2.75,0,0,1,1.77-1.22l8.84-1.77,2.85-3.56-2.7-1.47a1.55,1.55,0,0,1,.74-2.92h0l6.15.09,19.44-26.15-10.29-6.86,9.79-10.52,15.25,12.27A5.86,5.86,0,0,1,293.51,120.51Z"/></g><g id="change3_22"><path fill="inherit" d="M254.13,161.17H240.92a1.92,1.92,0,0,1-1.62-2.94,3.11,3.11,0,0,1,2-1.39L250,155.1,252.5,152l-2.31-1.25a1.89,1.89,0,0,1-.95-2.18,1.92,1.92,0,0,1,1.87-1.44l6,.08,19.09-25.68-10-6.64a.41.41,0,0,1-.17-.27.41.41,0,0,1,.1-.3l9.8-10.52a.37.37,0,0,1,.51,0L291.71,116h0a6.16,6.16,0,0,1,.35,9.07l-25.79,25.54L262,155.58l-7.66,5.52A.4.4,0,0,1,254.13,161.17Zm-3-13.3a1.18,1.18,0,0,0-.58,2.21l2.7,1.47a.35.35,0,0,1,.19.25.38.38,0,0,1-.08.31l-2.85,3.57a.36.36,0,0,1-.22.13l-8.84,1.77a2.38,2.38,0,0,0-1.52,1,1.17,1.17,0,0,0,1,1.79H254L261.5,155l4.23-4.89,25.8-25.57a5.39,5.39,0,0,0,1.6-4,5.44,5.44,0,0,0-1.9-3.91l-15-12L267,114.5l9.93,6.62a.37.37,0,0,1,.16.24.37.37,0,0,1-.07.29l-19.44,26.16a.39.39,0,0,1-.31.15Z"/></g><g id="change3_23"><path fill="inherit" d="M369.85,274.69c.09.83-11.48,1-15.64,1.09s-7.17.41-7-1.47c.1-1.25,3.45-2.3,6.17-2.95a32,32,0,0,0,7.3-2.71l.81-.42A30.62,30.62,0,0,0,356.19,249c-4.5-4.1-6.2-13.27-6.2-13.27l17.21-3.17s.46,7.67-1.19,13.1c-.25,2.54-1.63,17.28-.14,22.45h0C366.19,269.94,369.79,274.15,369.85,274.69Z"/></g></g></svg>