<?xml version="1.0" encoding="UTF-8"?><svg xmlns="http://www.w3.org/2000/svg" xmlns:xlink="http://www.w3.org/1999/xlink" contentScriptType="text/ecmascript" fill="#000000" width="352.6" zoomAndPan="magnify" contentStyleType="text/css" viewBox="0.0 0.0 352.6 501.5" height="501.5" preserveAspectRatio="xMidYMid meet" version="1"><g id="change1_1"><path fill="#6e4add" d="M351.8,33.4v434.8c0,18-14.6,32.6-32.6,32.6H115.3V0.8h203.9C337.2,0.8,351.8,15.4,351.8,33.4z"/></g><g id="change2_1"><path fill="#ffd880" d="M300.3,500.8H25.4c-13.6,0-24.6-11-24.6-24.6V25.4c0-13.6,11-24.6,24.6-24.6h274.9c13.6,0,24.6,11,24.6,24.6 v450.7C324.9,489.7,313.9,500.8,300.3,500.8z"/></g><g id="change3_1"><path fill="#4394e7" d="M297,435.6H28.7c-6.3,0-11.5-5.1-11.5-11.5V28.7c0-6.3,5.1-11.5,11.5-11.5H297c6.3,0,11.5,5.1,11.5,11.5 v395.4C308.5,430.4,303.4,435.6,297,435.6z"/></g><g id="change4_1"><path fill="#f2da1c" d="M73.1,420.8H33.5c-3.6,0-6.5-2.9-6.5-6.5v-34.5c0-3.6,2.9-6.5,6.5-6.5h39.6c3.6,0,6.5,2.9,6.5,6.5v34.5 C79.6,417.9,76.7,420.8,73.1,420.8z M152.6,414.3v-34.5c0-3.6-2.9-6.5-6.5-6.5h-39.6c-3.6,0-6.5,2.9-6.5,6.5v34.5 c0,3.6,2.9,6.5,6.5,6.5h39.6C149.7,420.8,152.6,417.9,152.6,414.3z M225.7,414.3v-34.5c0-3.6-2.9-6.5-6.5-6.5h-39.6 c-3.6,0-6.5,2.9-6.5,6.5v34.5c0,3.6,2.9,6.5,6.5,6.5h39.6C222.8,420.8,225.7,417.9,225.7,414.3z M298.7,414.3v-34.5 c0-3.6-2.9-6.5-6.5-6.5h-39.6c-3.6,0-6.5,2.9-6.5,6.5v34.5c0,3.6,2.9,6.5,6.5,6.5h39.6C295.8,420.8,298.7,417.9,298.7,414.3z"/></g><g id="change4_2"><path fill="#f2da1c" d="M251.6,286.6H74.1c-4.2,0-7.6-3.4-7.6-7.6V172.7c0-4.2,3.4-7.6,7.6-7.6h177.5c4.2,0,7.6,3.4,7.6,7.6V279 C259.2,283.2,255.8,286.6,251.6,286.6z"/></g><g id="change5_1"><path fill="#201139" d="M319.2,0h-18.9h-185H25.4C11.4,0,0,11.4,0,25.4v450.7c0,14,11.4,25.4,25.4,25.4h89.9h185h18.9 c18.4,0,33.4-15,33.4-33.4V33.4C352.5,15,337.6,0,319.2,0z M115.3,500H25.4c-13.2,0-23.9-10.7-23.9-23.9V25.4 c0-13.2,10.7-23.9,23.9-23.9h89.9h185c13.2,0,23.9,10.7,23.9,23.9v450.7c0,13.2-10.7,23.9-23.9,23.9H115.3z M351,468.1 c0,17.6-14.3,31.9-31.9,31.9h-10.3c9.8-3.5,16.8-12.9,16.8-23.9V25.4c0-11-7-20.4-16.8-23.9h10.3c17.6,0,31.9,14.3,31.9,31.9V468.1z M309.2,424.1V28.7c0-6.7-5.5-12.2-12.2-12.2H28.7c-6.7,0-12.2,5.5-12.2,12.2v395.4c0,6.7,5.5,12.2,12.2,12.2H297 C303.8,436.3,309.2,430.9,309.2,424.1z M297,434.8H28.7c-5.9,0-10.7-4.8-10.7-10.7V28.7C18,22.8,22.8,18,28.7,18H297 c5.9,0,10.7,4.8,10.7,10.7v395.4C307.7,430,302.9,434.8,297,434.8z M160,447.6c-11.6,0-21.1,9.5-21.1,21.1s9.5,21.1,21.1,21.1 s21.1-9.5,21.1-21.1S171.6,447.6,160,447.6z M160,488.3c-10.8,0-19.6-8.8-19.6-19.6s8.8-19.6,19.6-19.6s19.6,8.8,19.6,19.6 S170.8,488.3,160,488.3z M138.6,9.9V8.6c0-1.2,0.9-2.1,2.1-2.1h31.7c1.2,0,2.1,0.9,2.1,2.1V10c0,1.2-0.9,2.1-2.1,2.1h-31.7 C139.6,12,138.6,11.1,138.6,9.9z M181.5,9.3c0-1.5,1.2-2.8,2.8-2.8c1.5,0,2.8,1.2,2.8,2.8c0,1.5-1.2,2.8-2.8,2.8 C182.7,12,181.5,10.8,181.5,9.3z M73.1,372.6H33.5c-4,0-7.2,3.2-7.2,7.2v34.5c0,4,3.2,7.2,7.2,7.2h39.6c4,0,7.2-3.2,7.2-7.2v-34.5 C80.3,375.8,77.1,372.6,73.1,372.6z M78.8,414.3c0,3.2-2.6,5.7-5.7,5.7H33.5c-3.2,0-5.7-2.6-5.7-5.7v-34.5c0-3.2,2.6-5.7,5.7-5.7 h39.6c3.2,0,5.7,2.6,5.7,5.7C78.8,379.8,78.8,414.3,78.8,414.3z M146.2,372.6h-39.6c-4,0-7.2,3.2-7.2,7.2v34.5c0,4,3.2,7.2,7.2,7.2 h39.6c4,0,7.2-3.2,7.2-7.2v-34.5C153.4,375.8,150.2,372.6,146.2,372.6z M151.9,414.3c0,3.2-2.6,5.7-5.7,5.7h-39.6 c-3.2,0-5.7-2.6-5.7-5.7v-34.5c0-3.2,2.6-5.7,5.7-5.7h39.6c3.2,0,5.7,2.6,5.7,5.7V414.3z M219.2,372.6h-39.6c-4,0-7.2,3.2-7.2,7.2 v34.5c0,4,3.2,7.2,7.2,7.2h39.6c4,0,7.2-3.2,7.2-7.2v-34.5C226.5,375.8,223.2,372.6,219.2,372.6z M225,414.3c0,3.2-2.6,5.7-5.7,5.7 h-39.6c-3.2,0-5.7-2.6-5.7-5.7v-34.5c0-3.2,2.6-5.7,5.7-5.7h39.6c3.2,0,5.7,2.6,5.7,5.7L225,414.3L225,414.3z M292.2,372.6h-39.6 c-4,0-7.2,3.2-7.2,7.2v34.5c0,4,3.2,7.2,7.2,7.2h39.6c4,0,7.2-3.2,7.2-7.2v-34.5C299.4,375.8,296.2,372.6,292.2,372.6z M297.9,414.3 c0,3.2-2.6,5.7-5.7,5.7h-39.6c-3.2,0-5.7-2.6-5.7-5.7v-34.5c0-3.2,2.6-5.7,5.7-5.7h39.6c3.2,0,5.7,2.6,5.7,5.7V414.3z M63.5,408.1 c0.9,1.7,0.5,2.8-0.2,3.6c-0.8,0.9-3.2,2.2-5.4,1.9c-2.1-0.3-8.2-6.8-10.7-11.5s-4.8-11.7-4.7-16.1s2.9-5.3,4.5-5.6 c1.7-0.3,3.1-0.3,4.1,2.5s1.7,4.7,1.4,5.9s-1,1.8-1.8,2c-0.7,0.2-1.1,0.2-1.5,0.5c-1,0.8-1.3,3.6-0.1,6.3c1.2,2.7,4.4,6.8,5.9,5.9 s2.6-1.3,3.8-1.1C60,402.9,62.6,406.4,63.5,408.1z M142.3,386.8h-31.8c-1.2,0-2.1,0.9-2.1,2.1V408c0,1.2,0.9,2.1,2.1,2.1h31.8 c1.2,0,2.1-0.9,2.1-2.1v-19.1C144.4,387.8,143.4,386.8,142.3,386.8z M128.6,398c-0.7,0.4-1.5,0.7-2.4,0.7c-0.7,0-1.5-0.2-2.2-0.5 l-13.5-7.3l0.7-1.3l13.5,7.3c1,0.5,2.1,0.5,3-0.1l13.2-8l0.8,1.3L128.6,398z M216.3,394.9c0,6.7-7.5,12-16.8,12 c-2.1,0-4.1-0.3-6-0.8l-4,7.6v-9.2c-4.1-2.2-6.8-5.7-6.8-9.6c0-6.7,7.5-12,16.8-12S216.3,388.3,216.3,394.9z M272.4,380 c-9.4,0-17,7.6-17,17s7.6,17,17,17s17-7.6,17-17S281.8,380,272.4,380z M281.7,404.6l-10.9-7.1v-9.9h1.5v9.1l10.2,6.7L281.7,404.6z M74.1,287.3h177.5c4.6,0,8.4-3.7,8.4-8.4V172.7c0-4.6-3.7-8.4-8.4-8.4H74.1c-4.6,0-8.4,3.7-8.4,8.4V279 C65.8,283.6,69.5,287.3,74.1,287.3z M74.1,165.8h177.5c3.8,0,6.9,3.1,6.9,6.9v12.6H67.3v-12.6C67.3,168.9,70.3,165.8,74.1,165.8z M67.3,186.8h191.2V279c0,3.8-3.1,6.9-6.9,6.9H74.1c-3.8,0-6.9-3.1-6.9-6.9v-92.2H67.3z M242.2,182.7h10.2c1.3,0,2.3-1,2.3-2.3v-9.1 c0-1.3-1-2.3-2.3-2.3h-10.2c-1.3,0-2.3,1-2.3,2.3v9.1C239.9,181.7,240.9,182.7,242.2,182.7z M241.4,171.3c0-0.4,0.4-0.8,0.8-0.8 h10.2c0.4,0,0.8,0.4,0.8,0.8v9.1c0,0.4-0.4,0.8-0.8,0.8h-10.2c-0.4,0-0.8-0.4-0.8-0.8V171.3z M245.8,175.7l-3.4-2.6l0.9-1.2l3.7,2.8 l3.2-2.8l1,1.1l-3,2.6l3.4,2.6l-0.9,1.2l-3.6-2.8l-3.1,2.7l-1-1.1L245.8,175.7z M347.8,461.3v2.2c0,1.9-1.5,3.4-3.4,3.4h-12 c-1.9,0-3.4-1.5-3.4-3.4v-2.2c0-1.9,1.5-3.4,3.4-3.4h12C346.2,457.9,347.8,459.4,347.8,461.3z M347.8,440.9v2.2 c0,1.9-1.5,3.4-3.4,3.4h-12c-1.9,0-3.4-1.5-3.4-3.4v-2.2c0-1.9,1.5-3.4,3.4-3.4h12C346.2,437.5,347.8,439,347.8,440.9z M347.8,420.5 v2.2c0,1.9-1.5,3.4-3.4,3.4h-12c-1.9,0-3.4-1.5-3.4-3.4v-2.2c0-1.9,1.5-3.4,3.4-3.4h12C346.2,417,347.8,418.6,347.8,420.5z M347.8,400v2.2c0,1.9-1.5,3.4-3.4,3.4h-12c-1.9,0-3.4-1.5-3.4-3.4V400c0-1.9,1.5-3.4,3.4-3.4h12C346.2,396.6,347.8,398.1,347.8,400 z M332.4,376.2h12c1.9,0,3.4,1.5,3.4,3.4v2.2c0,1.9-1.5,3.4-3.4,3.4h-12c-1.9,0-3.4-1.5-3.4-3.4v-2.2 C328.9,377.7,330.5,376.2,332.4,376.2z"/></g></svg>