<?xml version="1.0" encoding="UTF-8"?><svg xmlns="http://www.w3.org/2000/svg" xmlns:xlink="http://www.w3.org/1999/xlink" contentScriptType="text/ecmascript" fill="#000000" width="455.2" zoomAndPan="magnify" contentStyleType="text/css" viewBox="0.0 -0.4 455.2 502.1" height="502.1" preserveAspectRatio="xMidYMid meet" version="1"><g id="change1_1"><path fill="#c282ed" d="M218.9,424.4c7.1,0.3,14.1,2.2,21.2,2.5c16,0.7,31.4-6.5,47.3-8.2c10.7-1.1,21.5,0.2,32.1,1.6 c19.4,2.5,40.1,5.3,55.6,17.3c0,0,19,22.7,25.4,61.2c0,0-93.8,0.2-230.3,2c0,0,2.1-36.4,27.1-70.6 C201.5,424.4,211.7,424.1,218.9,424.4z"/></g><g id="change2_1"><path fill="#f2da1c" d="M155.8,274.3c3.3-14.5,7.1-28.2,11.2-39.5c10-27.8,33.8-45.3,69.4-52.9c9.3-2,16-4.4,20.8-7.1 c10.2-5.6,75.9-3.3,81.4-0.2c7.8,4.3,19.6,6.4,31.5,9.3c18.9,4.5,46.4,11,61.6,42.1c11.5,23.5,18.5,82.3,21,119.6l-64.1,79l0.2,11.4 c0,0-85.1,11.7-200.9-3.5v-43.8L155.8,274.3z"/></g><g id="change3_1"><path fill="#201139" d="M369.4,32.1c-0.2,2-1.5,4.3-3.2,5.6c-0.9,0.7-1.8,1.1-2.6,1.2c0.4,2.1,0.4,4.1-1,5.6 c-0.6,0.6-1.4,1.1-2.5,1.4c-1.7,0.5-3.6,0.5-5.3,0.1c13.9,23.9,5.8,45.9-0.4,57c-8,14.3-19.2,22.8-25.5,22.8h-0.3l-0.2-0.2 l-71.2-55.5c-1.3,0.1-2.6-0.6-3.5-2c-3.7-5.7-3-22.7,6.5-36.6c7.9-11.5,23.8-23.9,55.1-17.7c0,0,0,0,0-0.1c0.7-2.8,1.6-5.7,3.6-7.8 c2-2,5.3-3.4,7.8-2.2c1.5-2.1,3.9-3.6,6.5-3.8c2.7-0.3,5.7,0.7,7.5,2.4c2-1.5,4.7-1.6,6.6-1.4c2.8,0.2,5.1,1.1,6.7,2.5 c1.6,1.4,3,3.8,2.9,5.9c3.1-0.6,6.5,0.2,8.9,2.3c2.7,2.3,4,6.1,3.4,9.6c-0.1,0.7-0.4,1.6-1.1,2.4c-0.3,0.3-0.8,0.8-1.4,1.2 C368.1,26.5,369.7,29.1,369.4,32.1z"/></g><g id="change4_1"><path fill="#d2eeff" d="M9.1,273.5H189c4.6,0,8.4,3.7,8.4,8.4v119.1h23.8c0.7,2.3,4.8,3.1,9.9,1.4c1.2-0.4,2.4-0.9,3.6-1.4h18 c3.8,2.5,8.4,3.9,14.4,4.2c0.5,1,0.8,2.1,0.8,3.3c0,4.2-3.4,7.5-7.5,7.5H189H9.1c-4.6,0-8.4-3.7-8.4-8.4V281.8 C0.7,277.2,4.5,273.5,9.1,273.5z"/></g><g id="change5_1"><path fill="#ffa780" d="M233,366.7c10.8-0.9,53.4,4.2,57.3,4.4c9.3,0.5,98.3-7,98.3-7c-0.5-5.5-1.1-12.1-1.8-19.4l66,0 c0.8,12.4,1.2,22.6,1,28.4c-0.6,23.2-14.5,52.1-59.9,51.6c-24.4-0.3-92-19.4-100.9-19.4c0,0-11.5,0-23,0c-11.5,0-18-3.5-23.7-10 c0,0-7.7,4.3-15.2,7c-6.5,2.3-11.6,0.2-9.5-3.7c0,0-7.1,2.3-7.9-3.8c0,0-5.9,2.8-7.7-4.8c0,0-4.3,2.3-5.1-2.3 C203.1,384.8,222,368.7,233,366.7z M16.9,415.6c0.4,7.5,10.6,3.2,12.8,6.2c0,8.2,19.1,20.9,34.5,20.9c24.2,0,92.3-11.2,103.8-13.3 c11.6-2.1,10.5-13.5,10.5-13.5l-108.8-0.2c-0.2-5.9-1.1-12.9-4.3-12.9c-4.3,0-4.6,6.7-4.4,12.9l-0.1,0c-0.2-9.1-0.7-20.7-5-20.7 c-5.7,0-5.5,10.2-5.2,20.7l-0.1,0c0-16.3-0.3-24.9-5.1-24.9c-6.1,0-5.4,9.5-5.2,24.9l-0.1,0c0-13.7-0.4-21.1-5.1-21.1 c-5.4,0-5.5,12-5.3,21.1L16.9,415.6z M291,205.7c37.6-0.4,41.6-25.3,53.1-28.5c0,0-16.2-3.6-15.2-20.4c-0.7-18,0.1-41.8,0.1-41.8 c5.9-5,14.3-15,11.8-23.4c-2.5-8.3-10.9-7-10.9-7c-2.5,0-2.9-4.2-3-6.7c-0.1-2.5,0.1-5.3-1.5-7.2c-1.7-2-4.8-2.1-6.8-3.7 c-1.9-1.5-2.6-4-3.9-6c-2.5-3.9-7.4-6.2-12-5.5c-1.6,0.2-3.2,0.8-4.8,0.6c-1.1-0.2-2-0.7-3-1.2c-2.6-1.3-5.5-2.4-8.4-2.5 c-2.9-0.1-6,0.9-8,3.1c-0.6,0.7-1.1,1.4-1.7,2c-2.9,2.3-7.7-0.3-10.6,1.9c-1.9,1.4-2.1,4.1-2.8,6.3c-0.7,2.2-4.1,5.1-6,3.8 c0,27.4,0.2,30.3,0,45.8c-0.1,8.7,4.5,20.8,12.1,29l0,2.9c0,0,0.1,4.6-0.1,9.6c0,0,0.1,0,0.1,0c0,0,0.9,12-12.1,18.1 C257.4,174.9,253.4,206.1,291,205.7z"/></g><g id="change3_2"><path fill="#201139" d="M311,78.9l-1.2,0.9c0,0-3.3-4.5-11.8-4.5v-1.5C307.3,73.8,310.8,78.7,311,78.9z M276.2,120.6l-1,1.1 c5.1,4.5,9.8,6,13.9,6c8.1,0,13.6-5.9,13.7-6l-1.1-1C301.1,121.1,290.2,132.9,276.2,120.6z M307.8,86c-0.1,0-7.1,3.3-15.1,0 l-0.6,1.4c1,0.4,2,0.7,3,1c0,0.2,0,0.3,0,0.5c0,2.9,2.3,5.2,5.2,5.2s5.2-2.3,5.2-5.2c0-0.2,0-0.3,0-0.5c1.8-0.4,2.9-1,3-1L307.8,86z M291,113.6h1.5v-1.5H291c-4.4,0-7.9-3.5-7.9-7.9V88.6h-1.5v15.6C281.6,109.4,285.8,113.6,291,113.6z M278.6,88.8c0-0.2,0-0.3,0-0.5 c1.8-0.4,2.9-1,3-1l-0.7-1.4c-0.1,0-7.1,3.3-15.2,0l-0.6,1.4c1,0.4,2,0.7,3,1c0,0.2,0,0.3,0,0.5c0,2.9,2.3,5.2,5.2,5.2 S278.6,91.7,278.6,88.8z M277.9,75.3l0.1-1.5c-0.4,0-9.1-0.8-11.6,4.7l1.4,0.6C269.9,74.6,277.9,75.3,277.9,75.3z M105.2,327.1 L105.2,327.1c0.4,0.5,0.8,1,1.2,1.6c13.8,20.2-27.8,36.6-35.5,29.1c-8.1-7.9,13.3-50.2,31.5-33.7v0l7.7-7.1l2.7,3.5L105.2,327.1z M74.4,352.2c-0.3,0.4-0.7,0.7-1.1,1c-0.4,0.4-0.6,0.9-0.3,1.4c0.3,0.4,1,0.6,1.4,0.3c0.5-0.4,1-0.9,1.5-1.4 C76.9,352.6,75.3,351.2,74.4,352.2z M77.8,342.5c-0.5,0.4-1,0.8-1.4,1.2c-1,0.8,0.1,2.6,1.1,1.7c0.5-0.4,1-0.8,1.4-1.2 C80,343.3,78.8,341.6,77.8,342.5z M95.6,332.9c0.5-0.4,1-0.8,1.5-1.1c1-0.8-0.1-2.5-1.1-1.7c-0.5,0.4-1,0.8-1.5,1.1 C93.4,332,94.6,333.7,95.6,332.9z M84.9,350.2c-0.5,0.3-0.9,0.7-1.4,1c-1.1,0.8,0.1,2.5,1.1,1.7c0.5-0.3,0.9-0.7,1.4-1 C87.1,351.1,85.9,349.4,84.9,350.2z M85,332.8c-0.7,0.4-1.5,0.8-2.2,1.3c-1.1,0.8,0,2.5,1.1,1.7c0.7-0.5,1.4-0.9,2.2-1.3 C87.3,333.9,86.2,332.2,85,332.8z M89.3,340.9c-0.4,0.3-0.8,0.6-1.2,0.9c-1,0.8,0.1,2.5,1.1,1.7c0.4-0.3,0.8-0.6,1.2-0.9 C91.5,341.8,90.3,340.1,89.3,340.9z M89.1,323.9c-0.3,0.3-0.6,0.6-0.9,1c-0.9,1,0.6,2.3,1.5,1.4c0.3-0.3,0.6-0.6,0.9-1 C91.6,324.3,90,322.9,89.1,323.9z M95.9,349.4c-0.7,0.4-1.3,0.8-2,1.3c-1.1,0.7,0,2.4,1.1,1.7c0.7-0.4,1.3-0.8,2-1.3 C98.2,350.4,97.1,348.7,95.9,349.4z M103,337.3c-0.5-0.3-1.1,0-1.4,0.5c-0.2,0.4-0.5,0.7-0.9,1c-1,0.8,0.1,2.6,1.1,1.7 c0.6-0.5,1.1-1.1,1.6-1.8C103.8,338.2,103.5,337.5,103,337.3z M54.2,428.9c-0.5-0.1-1.1-0.2-1.6-0.4c-0.8-0.2-1.6-0.5-2.5-0.5 c-1,0-2,0.3-2.9,0.6c-0.5,0.2-0.9,0.3-1.4,0.4c-1.9,0.4-4-0.2-4.9-1.5l-1.2,0.9c1.1,1.4,2.9,2.3,4.9,2.3c0.5,0,1.1-0.1,1.6-0.2 c0.5-0.1,1-0.3,1.5-0.5c0.8-0.3,1.6-0.5,2.4-0.5c0.7,0,1.4,0.2,2.1,0.4c0.6,0.2,1.2,0.4,1.8,0.4c2.5,0.3,4.8-0.9,6.7-1.9l-0.7-1.3 C57.9,428.3,56,429.2,54.2,428.9z M253.7,407.7h-15v1.9h15V407.7z M196.2,266.8l0.8-1.3c-4.8-2.9-8.9-7.3-11.5-12.3l-1.3,0.7 C186.8,259.2,191.1,263.8,196.2,266.8z M454.6,373.1c-0.7,25.4-16.6,52.3-59.3,52.3c-0.4,0-0.9,0-1.3,0c-1.3,0-2.8-0.1-4.4-0.2 l0.2,11.6l-0.7,0.1c-0.1,0-4.6,0.6-12.6,1.3c1.1,1.4,3.2,4.3,5.8,8.7l1,1.5l-0.1,0c6.1,10.4,14.3,27.7,18.1,50.4l0.1,0.9l-0.9,0 c-0.9,0-95.3,0.2-230.3,2l-0.8,0l0-0.8c0-0.3,1.7-30.2,21.4-62.1l0,0l0.9-1.4c0.7-1,1.3-2.1,2-3.1c-1.9-0.2-3.8-0.5-5.7-0.7 l-0.7-0.1l0-0.7c0,0,0-10.6,0-15.9h-8.1c0,2.8-0.9,11.6-11.1,13.5c-8.5,1.6-78.7,13.3-104,13.3c-15.8,0-34.7-13-35.2-21.4 c-0.7-0.8-2.5-0.8-4.4-0.9c-3.2-0.1-7.5-0.3-8.3-4.5H9.1c-5,0-9.1-4.1-9.1-9.1V281.8c0-5,4.1-9.1,9.1-9.1h146.3 c3.2-13.9,6.9-27.1,10.9-38.1c9.9-27.6,33.4-45.6,70-53.4c31.7-6.8,32.2-18.8,32.3-22.8c0.2-5.3,0.2-12.4,0.1-13.9 c-7.5-8.1-12.1-19.5-12.1-29.3V68.1l1.2,0.8c0.4,0.2,0.9,0.3,1.5,0.1c1.4-0.5,3-2.1,3.5-3.5c0.2-0.5,0.3-1.1,0.5-1.7 c0.5-1.9,1-3.8,2.6-5c1.7-1.3,3.8-1.2,5.8-1.1c1.8,0.1,3.6,0.2,4.8-0.8c0.4-0.3,0.7-0.7,1.1-1.2c0.2-0.2,0.4-0.5,0.6-0.7 c1.9-2.2,5.1-3.4,8.6-3.3c2.6,0.1,5.4,0.9,8.7,2.6l0.3,0.1c0.9,0.4,1.7,0.8,2.5,1c1,0.2,2.1-0.1,3.2-0.3c0.5-0.1,0.9-0.2,1.4-0.3 c4.9-0.7,10.1,1.6,12.7,5.8c0.4,0.7,0.8,1.4,1.2,2.1c0.7,1.5,1.4,2.8,2.6,3.7c0.8,0.6,1.8,1,2.9,1.4c1.4,0.5,2.9,1.1,4,2.3 c1.6,1.9,1.7,4.4,1.7,6.7c0,0.3,0,0.6,0,0.9c0.1,2.2,0.4,5.9,2.2,5.9c0.9-0.1,9.2-0.9,11.7,7.5c1.3,4.3-0.6,8.6-2.4,12.9l-0.1,0.3 c-2.2,5.1-7.8,9.7-9.2,10.8c-0.1,3.7-0.5,34.8,0.1,45.7c0.8,13,16.2,16.6,34.1,20.6c2.1,0.5,4.2,1,6.4,1.5 c18.6,4.4,46.7,11.1,62.1,42.5C447.4,256.2,455.2,348.1,454.6,373.1z M264.4,195.6c5.6,6.3,14.6,9.4,26.6,9.3 c25-0.3,35-11.5,42.3-19.8c3-3.4,5.7-6.4,8.8-7.9c-7.9-3.3-13.2-7.9-13.7-16c-0.7-11.7-0.1-45.9-0.1-46.2l0-0.4l0.3-0.2 c0.1-0.1,6.7-5.1,9-10.4l0.1-0.3c1.8-4.2,3.5-8.1,2.4-11.8c-2.2-7.5-9.8-6.5-10.1-6.4l-0.1,0c-2.3,0-3.6-2.5-3.7-7.4 c0-0.3,0-0.6,0-0.9c0-2.1-0.1-4.3-1.3-5.7c-0.8-0.9-2.1-1.4-3.4-1.9c-1.1-0.4-2.3-0.9-3.3-1.7c-1.4-1.1-2.2-2.7-3-4.2 c-0.4-0.7-0.7-1.4-1.1-2c-2.3-3.7-6.9-5.8-11.2-5.1c-0.4,0.1-0.9,0.2-1.3,0.3c-1.2,0.3-2.4,0.5-3.7,0.3c-1.1-0.2-2-0.6-3-1.1 l-0.3-0.1c-3.1-1.6-5.7-2.3-8.1-2.4c-3-0.1-5.7,0.9-7.4,2.8c-0.2,0.2-0.3,0.4-0.5,0.6c-0.4,0.5-0.8,1-1.3,1.4 c-1.7,1.3-3.8,1.2-5.8,1.1c-1.8-0.1-3.6-0.2-4.8,0.8c-1.2,0.9-1.6,2.5-2,4.2c-0.2,0.6-0.3,1.2-0.5,1.8c-0.6,1.8-2.6,3.8-4.4,4.4 c-0.6,0.2-1.1,0.3-1.6,0.2v44.8c0,15.4,11.9,34.9,27.9,37.9c7.9,1.5,24.9-1.2,28.7-10l1.4,0.6c-1,2.3-2.7,4.2-4.9,5.8 c-2.9,3.6-9.7,10.1-21.4,10.1c-11.2,0-17.5-4.2-19.5-5.8c0,1.6-0.1,3.2-0.1,4.7c-0.3,6.9-4.2,12.4-12,16.8 C257.9,177.5,257.5,187.8,264.4,195.6z M157,272.7h31.6h0.4h0.4c4.4,0,8,3.3,8.6,7.5c3.1-21.1,10.1-41.6,10.2-41.8l1.4,0.5 c-0.1,0.3-11.5,33.5-11.5,58.7v102.6h22.2c0-0.2,0-0.3,0-0.5c-1.4,0.2-3.5,0.3-5.2-0.8c-1.1-0.7-1.8-1.7-2.1-3.1 c-1,0.3-2.6,0.5-4.2-0.3c-1.6-0.8-2.7-2.3-3.4-4.6c-0.8,0.3-2.2,0.5-3.3,0c-1.1-0.5-1.7-1.6-2-3.1l-0.1-0.3l0.2-0.3 c2.2-2.7,21.4-19.2,32.6-21.2c8.3-0.7,34.6,2.1,48.8,3.5c4.5,0.5,7.8,0.8,8.7,0.9c7.3,0.4,71.5-4.8,97.5-6.9 c-2.3-26.5-8.5-87-8.6-87.6l1.5-0.2c0.1,0.5,4,39.2,6.8,68.3H452c-2.6-37.7-9.7-94.8-20.8-117.5c-15.1-30.8-42.8-37.4-61.1-41.7 c-2.1-0.5-4.3-1-6.4-1.5c-7.1-1.6-13.9-3.2-19.5-5.2c-3.5,1.1-6.2,4.2-9.7,8.1c-7.5,8.4-17.7,20-43.4,20.3c-0.2,0-0.5,0-0.7,0 c-12.1,0-21.2-3.3-27-9.8c-6.7-7.5-6.9-16.9-6.8-20.4c-5.1,2.6-11.8,4.8-19.9,6.5c-36,7.7-59.1,25.3-68.9,52.4 C163.9,246,160.1,259,157,272.7z M234.8,401.7c-1.1,0.5-2.3,0.9-3.5,1.3c-4.4,1.5-8.5,1.2-10.2-0.7c-0.2-0.2-0.3-0.4-0.4-0.6h-22.5 v5.9v0.4c0,3-1.5,5.7-3.8,7.2h66c3.7,0,6.8-3,6.8-6.8c0-0.9-0.2-1.7-0.5-2.6c-5.6-0.4-10.1-1.7-14.1-4.2H234.8z M250.3,400.2 c-1.5-1.1-2.8-2.4-4.2-3.9c-1.2,0.6-4.2,2.3-7.9,3.9H250.3z M28.9,420.3c0-0.9,0-1.8-0.1-2.9c0-0.3,0-0.5,0-0.8H17.8 c0.7,2.6,3.2,2.9,6.8,3C26.2,419.8,27.8,419.8,28.9,420.3z M177.8,416.7h-99c2.6,2,4.2,5.7,4.2,10.6h-1.5c0-6.6-2.8-10.6-7.3-10.6 h-3.7c0,1,0,2,0,3.1c0,3.5-0.8,6.4-0.8,6.6l-1.5-0.4c0,0,0.7-2.9,0.7-6.2c0-7.2-0.6-11.2-1.4-13.5l-0.6-1h0.2 c-0.7-1.6-1.5-1.8-1.9-1.8c-0.7,0-1.4,0.2-1.8,0.8c-2.1,2.2-1.9,8.6-1.7,13.7c0,1.4,0.1,2.7,0.1,3.8h-0.9l-0.7,0 c0-1.2-0.1-2.7-0.1-4.2c-0.1-6.7-0.3-17.1-2.5-20.7c-0.1-0.1-0.1-0.2-0.2-0.3l-0.7-0.7c-0.3-0.2-0.6-0.3-0.9-0.3 c-0.9,0-1.6,0.3-2.2,0.9c-0.2,0.2-0.4,0.5-0.6,0.8v0l-0.1,0.1c-0.1,0.2-0.2,0.5-0.4,0.7c-0.3,0.9-0.7,2.4-1,4.1 c-0.5,3.7-0.4,8.5-0.3,13.2c0,2.1,0.1,4.2,0.1,6.3h-0.2h-1.3h-0.2l0-3c0-5.3,0-10-0.1-13.9c-0.2-2.8-0.5-6.9-0.6-7.6 c-0.8-5.2-2.4-5.9-3.7-5.9c-1,0-1.8,0.3-2.4,0.9c-2.4,2.4-2.3,9.7-2.1,19.8c0.1,2.9,0.1,6.2,0.1,9.6h-0.2h-1.3h-0.2l0-2.6 c0-7.9,0-14.1-0.6-18.2c-0.8-5.1-2.3-5.7-3.8-5.7c-0.7,0-1.3,0.3-1.9,0.8c-3.1,3.2-2.8,14.1-2.6,21.3c0,1.6,0.1,3.1,0.1,4.4 c0,7.7,18.8,20.2,33.7,20.2c25.2,0,95.2-11.7,103.7-13.3C177.2,427,177.8,419.1,177.8,416.7z M183.7,415.2c-2.3-1.6-3.8-4.2-3.8-7.2 V281.4c0-3,1.5-5.7,3.8-7.2h-27.1c0,0.1,0,0.2-0.1,0.3l-1.3-0.3H9.1c-4.2,0-7.6,3.4-7.6,7.6v125.8c0,4.2,3.4,7.6,7.6,7.6h19.7 c-0.2-7.6-0.1-16.9,3.1-20.1c0.8-0.8,1.8-1.3,2.9-1.3c2.7,0,4,2,4.7,4.3c0.3-3.1,1-5.4,2.3-6.7c0.9-0.9,2.1-1.4,3.5-1.4 c1,0,1.9,0.3,2.5,0.9c1-0.2,2,0,2.8,0.6c1.1,0.9,1.8,2.4,2.1,3.9c0.8-0.7,1.8-1.1,3-1.1c1,0,1.8,0.5,2.5,1.3c2.8,0.6,4.7,5,5.3,6.9 c0.5-0.2,1.1-0.4,1.7-0.4c1.5,0,2.7,1.1,3.5,3.4c4,0.5,5.3,6.2,5.5,9.8H183.7z M188.6,415.2h0.4c4.2,0,7.6-3.4,7.6-7.6V281.8 c0-4.2-3.4-7.6-7.6-7.6h-0.4c-4,0-7.2,3.2-7.2,7.2V408C181.4,411.9,184.6,415.2,188.6,415.2z M179.5,464.9 c11.9,2.2,16.3-11.7,19.5-21.9c0.4-1.1,0.7-2.2,1-3.2c-2.5-0.3-5-0.7-7.6-1.1C186.8,447.9,182.6,456.8,179.5,464.9z M393.4,474.2 c-1.1,0.5-2.3,0.7-3.6,0.7c-1.6,0-3.2-0.4-4.9-1.1c-5.1-2.2-12-8.3-17.9-24.6c-7.4,0.3-17.4,0.6-29.8,0.6 c-31.6,0-78.4-1.9-135.7-9.8c-0.4,1.1-0.7,2.2-1.1,3.4c-2.9,9.4-7.3,23.2-18.3,23.2c-1,0-2-0.1-3.1-0.3c-6.3,17.1-7.7,30.3-8,33.6 c40.1-0.5,76.6-0.9,108.1-1.2c-0.4-4.3-2.2-25.1-1.7-39.3l1.5,0.1c-0.5,14.2,1.3,35.2,1.7,39.2c67.9-0.6,112.3-0.7,119.1-0.8 C398.1,489.2,395.9,481.2,393.4,474.2z M368.6,449.2c6.1,16.3,13,21.6,16.9,23.3c3.5,1.5,6.1,0.9,7.4,0.3 c-3.7-10.3-8-18.5-11.4-24.4C380.1,448.5,375.7,448.9,368.6,449.2z M388.2,435.4l-0.2-10.4c-16.6-1.6-44.1-8-64.9-12.8 c-14.4-3.4-26.8-6.3-30.1-6.3h-23c-0.6,0-1.2,0-1.8,0c0.2,0.8,0.4,1.6,0.4,2.5c0,4.6-3.7,8.3-8.3,8.3h-70.9H189h-0.2 c0,4.6,0,12.9,0,15.3c2.4,0.3,4.9,0.6,7.3,0.9c5.4,0.6,30.1,3.1,47.9,4.4c3.4,0.2,6.8,0.4,10.2,0.6c1.4,0.1,2.9,0.1,4.4,0.2 c6.2,0.3,12.3,0.6,18.5,0.8c0.1,0,10.7,0.3,20.1,0.4c7,0.1,13.7,0.1,20.1,0.1c11-0.2,23.6-0.5,38.1-1.2 C373.7,437.1,385.3,435.8,388.2,435.4z M452.1,345.5h-64.4c0.6,6.7,1.2,12.9,1.7,17.9c5.6-0.5,9.1-0.7,9.3-0.8l0.1,1.5 c-4,0.3-99.2,8.2-108.4,7.8c-1,0-4.3-0.4-8.8-0.9c-14.1-1.5-40.3-4.2-48.4-3.5c-10.5,1.9-28.4,17.1-31.4,20.4 c0.2,0.9,0.6,1.4,1.1,1.7c0.9,0.4,2,0.1,2.5-0.2c1.7-5.8,19.7-15.1,23.3-16.5l0.5,1.4c-4.4,1.7-21.5,11.1-22.5,15.6 c0.5,2.2,1.5,3.6,2.8,4.2c1.4,0.7,2.8,0.3,3.5,0.1c0.8-2.8,7.2-7.1,20.8-14.3l1.2-0.6l0.7,1.3l-1.2,0.6c-16.2,8.5-19.9,12-20.1,13.5 c0.2,1.3,0.7,2.3,1.6,2.9c1.7,1.1,4.4,0.5,5.1,0.3c3.3-4.2,19.1-11.2,19.8-11.5l0.6,1.4c-4.6,2-17,8-19.3,11.2 c-0.5,0.9-0.5,1.7,0,2.3c1.1,1.3,4.4,1.8,8.6,0.3c7.4-2.6,15-6.9,15.1-6.9c3.4-2.5,10.9-1.7,11.2-1.6l-0.2,1.5c-0.1,0-6.3-0.7-9.5,1 c5.9,6.4,12.5,9,22.6,9h23c3.5,0,15.4,2.8,30.5,6.3c23.4,5.5,55.5,12.9,70.5,13.1c0.5,0,0.9,0,1.4,0c52.3,0,57.5-38.8,57.8-50.8 C453.2,367.1,452.9,357.3,452.1,345.5z M230.2,406.7h-6.3c-1,0-1.8,0.8-1.8,1.8v0.3c0,1,0.8,1.8,1.8,1.8h6.3c1,0,1.8-0.8,1.8-1.8 v-0.3C232,407.5,231.2,406.7,230.2,406.7z M214,406.7h-6.3c-1,0-1.8,0.8-1.8,1.8v0.3c0,1,0.8,1.8,1.8,1.8h6.3c1,0,1.8-0.8,1.8-1.8 v-0.3C215.8,407.5,215,406.7,214,406.7z"/></g></svg>