<?xml version="1.0" encoding="UTF-8"?><svg xmlns="http://www.w3.org/2000/svg" xmlns:xlink="http://www.w3.org/1999/xlink" contentScriptType="text/ecmascript" fill="#000000" width="324.2" zoomAndPan="magnify" contentStyleType="text/css" viewBox="-8.7 -2.8 324.2 525.4" height="525.4" preserveAspectRatio="xMidYMid meet" version="1"><g id="change1_1"><path fill="#d2eeff" d="M224.1,438.9c3.2,13,3.5,40.7,3.5,40.7c-93.5,43-181.2,7.2-181.2,7.2l5.1-31.2c-1-10.6,2.2-22.2,7.4-31.5 c18.2-32.3,54.3-52.8,91.3-55.4c9.1-0.6,18.5-0.3,27,3c14,5.3,24.2,17.5,37.6,24.2c1.5,0.8,3.1,1.5,4.3,2.7c1,1.1,1.5,2.4,1.9,3.8 c1.1,3.9,1,8.1-0.4,12c-1.2,3.3-3.3,6.3-4.2,9.8C215.6,427.6,220.8,437.6,224.1,438.9z"/></g><g id="change2_1"><path fill="#7167ca" d="M83,143.6l9.2-5.2l51.7,14.8l8.1-10.8l31.8,30.1L213.1,309l-11.4,95l-7.3-1.3c0,0-29.4,9.4-53.2,7.3 c-23.8-2.1-27.5-24.1-27.5-24.1l-33.9-209L83,143.6z"/></g><g id="change3_1"><path fill="#f2da1c" d="M138.8,235c1.4,14.7,2.7,33,2.7,33s-3.5,26.7-0.2,34.7c3.9,9.5,9,14.7,9,14.7l-9.2,10.8h0v136.2 c-72.3,5.8-102.7-14.8-102.7-14.8C1.1,320.2-7,234.1,7.5,202.6C19.4,176.7,41,164.4,83,143.6C80.7,144.8,134.5,188.6,138.8,235z M298.9,278.2c-15.1-30.8-35.5-68.7-40.4-77.4c-4.8-8.7-20.1-36-47.3-46.9c-17.9-7.2-47.9-10.4-59.2-11.5l-0.4,0 c0,0,23.4,24.9,30.8,69.5c5.1,31.1,14,236.7,14,236.7s21.2-2.1,31.2-12.8c0,0,7.7-56.5,7.7-83.1c14,2.1,31.8,3.8,46.1,1.8 C313.2,350.1,315.5,312.2,298.9,278.2z"/></g><g id="change4_1"><path fill="#ffa780" d="M231.5,229.4c-9.5,0.8-15.1,1.5-15.1,1.5s4.8,0.6,7.8,2.6s14.5,12.7,11.5,17.2c-2.9,4.5-9.1,2.5-13.1-2.3 c-1.8-2.1-3.7-4.4-3.7-4.4l-11.3-0.9c0,0,3.2,3.6,6.2,7.1c3,3.5,7.9,12.3,5.8,16.4c-2.1,4.1-9,1.9-9,1.9s1.5,4.2-1.6,6.4 c-3.7,2.7-8-0.6-10.3-4.2c0,0-12.3,12.5-18.1,8.5l-4.4,7c0,0-12.2,15-26,31.3c-7.9-7.3-21.2-43.7-20.9-43.8c6.6-3,12.6-5.7,16.2-7.4 c7-3.4,13-7.1,16.4-10c0,0,8-7.2,17-15.3c0.1-0.2,0.3-0.4,0.5-0.5c2.2-2,4.6-19.1,7.6-21.5c3.9-3.2,10.3,2.4,9.3,6.3 c2.6-2.4,4.6-4.2,5.7-5.3c7.8-3.1,28.6-1.7,33.6-1.2C240.7,219.1,241,228.7,231.5,229.4z"/></g><g id="change1_2"><path fill="#d2eeff" d="M181.3,65.4c0,8.5-6.9,15.5-15.5,15.5s-15.5-6.9-15.5-15.5s6.9-15.5,15.5-15.5S181.3,56.9,181.3,65.4z M294.7,237.6l-54.2-3.7c-1.1-0.1-2.1,0.4-2.8,1.2l-99.5,112.4c-1.9,2.2-0.5,5.6,2.4,5.7l56.2,2.8c1,0.1,2.1-0.4,2.8-1.2l97.6-111.4 C299,241.1,297.6,237.8,294.7,237.6z"/></g><g id="change5_1"><path fill="#201139" d="M165.9,49.2c-8.9,0-16.2,7.3-16.2,16.2s7.3,16.2,16.2,16.2s16.2-7.3,16.2-16.2S174.8,49.2,165.9,49.2z M165.9,80.1c-8.1,0-14.7-6.6-14.7-14.7s6.6-14.7,14.7-14.7s14.7,6.6,14.7,14.7S174,80.1,165.9,80.1z M172.3,43L94.7,81.8l-0.4-0.5 c-0.1-0.2-14.9-18.2-10.5-43.5c1.3-7.6,6.6-15.1,14.1-20.1c4.7-3.1,9.6-4.7,13.2-4.2c0.4-2.4,2.8-5.3,6.4-7.8 c7.4-5.1,20.2-8.4,33.8-2.7c9.3,3.9,15,7,19.1,9.2c5,2.7,7.6,4,11.1,4h0.7l0,0.7C182.4,17.9,183.6,39.8,172.3,43z"/></g><g id="change4_2"><path fill="#ffa780" d="M212.2,348.2c0,0-12.5,1.5-31.8-1.1s-23.2-2.9-27.2-11.9s-0.8-15.6,2.2-17.8c0.1-7.1,3.9-10.6,9.5-11.4 c0.8-6.9,7.3-9.4,8.9-9c1.7-7.5,11.3-8.3,16.3-8.1l-5.8,5.9c0,0,3,4.3,8.3,6.3c5.3,2,11.1,3.4,11.1,3.4s-9.7-10.6-0.4-17 c2.5-1.7,6.7,3.5,11.4,7.2c2.4,1.9,10.8,6.6,17.7,8.3c0,0,4.8,1,24.8-3c6.9,32.9,1.5,55,1.5,55C239.6,354.4,212.2,348.2,212.2,348.2 z M138.7,173.2c18.9-1.1,18.3-17.1,16.3-26.8c-0.3-1.4-2.6-4-3.3-4c-2.6-0.2-4.2-0.3-4.2-0.3v-14c15.3,2,25.7-11,25.7-21.1 c0-14,0-35.4,0-60.1c0-16.2-39-19.6-39-19.6c-0.7,12.4-16.6,41.9-26.3,38.4c0,0-9.8-2.8-13.3,6.2c-3.3,8.4,4.8,15.6,10.4,20.7 c0,0,0,22.3,0,30.3c0,5.6-5.7,11.1-12.6,15.6C104.2,148.9,113.3,174.6,138.7,173.2z"/></g><g id="change5_2"><path fill="#201139" d="M259.2,200.4c-5-9-20.1-36.2-47.6-47.3c-20.7-8.3-57.8-11.4-63.3-11.8v-12.4c6.4,0.6,12.6-1.4,17.6-5.8 c4.9-4.3,8.1-10.7,8.1-16.2V46.8c0-1.5-0.3-2.8-0.9-4.1c10.5-3.9,9.3-24.9,9.3-25.8l0-0.7h-0.7c-3.5,0-6-1.3-11.1-4 C166.3,10,160.6,7,151.4,3c-13.6-5.8-26.4-2.4-33.8,2.7c-3.6,2.5-6,5.4-6.4,7.8c-3.7-0.5-8.5,0.9-13.2,4.1 c-5.8,3.8-12.6,11.2-14.1,20.3C79.6,62.2,93,79.7,94.2,81.2c2.1,4.4,6.2,8.2,9.6,11.4l0.3,0.2v29.9c0,8.6-15,17-21.4,20.2 c-43.7,21.6-64.1,33.8-75.8,59.3c-15.6,33.9-4,126.3,30.9,247.4l0.1,0.3l0.2,0.2c0.3,0.2,24.3,16,78.6,16c7.6,0,15.8-0.3,24.6-1 l0.7-0.1l0.2-54.4c0.9,0,2.6,0.1,5.1,0.1c9.7,0,30-0.9,47.4-7.3l-0.5-1.4c-21.8,8-48.1,7.3-52,7.1l0.2-56.1l-1.5,0l-0.4,110.6 C72.8,468.9,41.9,450.8,39,449C4.3,328.4-7.3,236.4,8.2,202.9c11.5-25.1,31.8-37.1,75.1-58.6c8.3-4.1,22.3-12.4,22.3-21.5V92.2 l-0.7-0.7c-5.4-5-12.7-11.7-9.7-19.5c3.2-8.2,12.1-5.8,12.4-5.7c2.1,0.8,4.4,0.3,7-1.4c9-5.9,19.3-26.2,20.3-36.8 c5.4,0.6,37.6,4.8,37.6,18.8v60.1c0,5.1-3,11-7.6,15.1c-4.8,4.2-10.9,6.1-17.2,5.3l-0.8-0.1v15.5l0.7,0c0.4,0,41.5,2.9,63.5,11.8 c27,10.9,42,37.8,46.9,46.6c2.8,4.9,10.4,19,19.1,35.6l1.3-0.7C269.5,219.4,261.9,205.4,259.2,200.4z M134.2,26.5l-0.8-0.1l0,0.8 c-0.5,9.8-11,30.7-19.7,36.4c-2.1,1.4-4,1.8-5.7,1.2c-0.1,0-10.5-2.9-14.2,6.6c-0.7,1.8-0.9,3.6-0.8,5.3 c-3.9-6.3-10.8-20.6-7.7-38.7c1.5-8.6,7.9-15.6,13.5-19.3c4.7-3.1,9.5-4.5,12.9-3.7l0.9,0.2l0-1c-0.1-2.1,2.2-5,5.8-7.4 c7.1-4.8,19.3-8.1,32.4-2.5c9.2,3.9,14.9,6.9,19,9.1c4.9,2.6,7.5,4,11,4.2c0.1,3.6,0.1,20.7-8.5,23.7 C165.2,29.5,135.6,26.6,134.2,26.5z M187.1,278.8l1.5-0.1c0.2,3.3,0.4,6.7,0.6,10.1l-1.5,0.1C187.5,285.5,187.3,282.1,187.1,278.8z"/></g><g id="change1_3"><path fill="#d2eeff" d="M173.2,46.8c0-18.6-15.9-31.4-33.3-29.2c-15.8,2-25.6,21.2-25.6,38.1l0,0c4.3,2.8,7.3,8.6,7.3,15.2 c0,9.4-6,17.1-13.5,17.1s-13.5-7.6-13.5-17.1c0-5.1,1.8-9.7,4.6-12.8l0,0c0-17.9,8.5-47.6,32.2-50.6 C174.9,1.9,173.2,46.8,173.2,46.8z"/></g><g id="change5_3"><path fill="#201139" d="M299.5,277.9c-3.4-6.9-7.3-14.7-11.6-23.1l9.7-11c1.1-1.2,1.3-2.9,0.7-4.4c-0.6-1.5-2-2.5-3.6-2.6l-54.2-3.7 c-1.3-0.1-2.6,0.4-3.4,1.4l-5,5.6c-2.8-3.3-6.1-6.2-7.6-7.2c-1.1-0.7-2.5-1.3-3.8-1.7c2.6-0.3,6.3-0.6,10.8-1c5.7-0.5,8.3-4,8.4-7.3 c0-2.7-1.7-4.8-4.1-5.1c-0.1,0-6.6-0.6-14.1-0.7c-0.7-4.2-1.9-8.3-3.5-12.3l-1.4,0.6c1.5,3.8,2.6,7.7,3.3,11.7 c-6.9,0-14.3,0.4-18.4,2l-0.2,0.1c-0.9,0.9-2.5,2.3-4.5,4.1c-0.4-1.9-1.8-3.7-3.4-4.8c-2.5-1.8-5.3-1.9-7.2-0.3 c-0.8,0.6-1.4,1.9-2.1,3.7c-0.5-4.5-0.9-7.9-1.3-10.3c-7.3-44.3-30.7-69.6-30.9-69.9l-1.1,1c0.1,0.1,1.3,1.4,3.2,3.9 c1.3,6,1.9,14.3-2.3,19.8c-2.7,3.6-7.2,5.6-13.3,5.9c-17.9,1-27.5-11.7-36-22.9c-3.4-4.4-6.5-8.6-10-11.6l-1,1.1 c3.3,2.9,6.4,7,9.8,11.4c8.4,11.1,17.9,23.6,35.2,23.6c0.7,0,1.4,0,2.1-0.1c6.5-0.4,11.4-2.6,14.4-6.5c3.9-5.1,4-12.1,3.1-18 c7.3,10.1,20.3,31.7,25.4,62.5c0.5,2.9,1,7.5,1.6,13.7c-0.4,1.5-0.9,3.1-1.3,5c-1,3.9-2.1,8.3-3,9.1l0,0.1 c-9.1,8.2-17.4,15.7-17.5,15.8c-3.3,2.9-9.4,6.6-16.2,9.9c-0.9,0.4-1.9,0.9-3.1,1.5c-0.3-4-1.4-19.4-2.6-32 c-3.4-36.3-36.3-70.5-50.3-85.1c-2.9-3-5.4-5.6-5.6-6.2c0.1,0.1,0,0.5-0.3,0.7l-0.7-1.3c-0.3,0.1-0.4,0.4-0.5,0.6 c-0.1,0.8,0.7,1.8,6,7.3c13.9,14.5,46.5,48.4,49.9,84.2c1.2,13.2,2.5,29.7,2.7,32.5c-10.8,5-29.9,13.3-39.6,17.5 c-1.7-3.9-3.6-9.7-5.8-16.3c-9-27.2-24-72.8-53.3-79.6l-0.3,1.5c28.4,6.6,43.3,51.7,52.2,78.6c2.2,6.7,4.1,12.5,5.8,16.4 c-2.8,1.2-4.5,2-4.6,2l0.6,1.4c0.3-0.1,18.1-7.8,33.2-14.5c1.8,6.3,13.4,35.4,20.4,42.8c-14.1,16.6-29.8,34.4-35.8,38.6 c-7.3,5.1-16.3,6.7-26.1,4.8c-18.4-3.7-37-19.2-52.5-43.8l-1.3,0.8c2.2,3.4,4.4,6.6,6.6,9.7c23.1,39.2,48,42.6,65.5,38.6 c17-3.8,31.4-25.7,34.5-30.7v8.4l-2.7,3.1c-1.1,1.2-1.4,2.9-0.7,4.4c0.6,1.5,2,2.5,3.7,2.6l50.8,2.5c0.8,16.7,1.6,32.7,2.3,46.6 c-4.3,1.4-26.8,8.5-52.1,6.9l-0.6,3.3c0,0,28.4,1.9,51.1-5.8l2.3,46.2c0,0,15,0.5,30.1-8.5c1.9,12.6,2.3,31,2.4,34.2 c-17.1,7.8-33.9,12.9-49.9,16.1c-0.2-6.6-1.5-43.9-5.1-56.6l-1.4,0.4c3.6,12.5,4.9,50.8,5,56.4c-28.4,5.5-54,5.1-73.3,3 c-14.2-1.5-26.4-4-35.7-6.4l2.5-12.6c1.4,0.8,4.3,2.1,7.6,2.1c1.2,0,2.4-0.2,3.6-0.6c4-1.3,7-4.8,9.2-10.3c14.1,2,31.2,2.7,49.8,0.1 v-6.5c0,0-44.1,5.3-86.9-8.6l0-0.1l-0.7-0.1c0,0,0,0,0,0l0,0l-0.7-0.1l-5.2,31.8l0.6,0.2c0.2,0.1,22.4,9,55.7,12.6 c8,0.9,17.1,1.4,27,1.4c28.2,0,63.2-4.7,99.1-21.2l0.4-0.2l0-0.5c0-0.3-0.4-27.3-3.5-40.4c1.2-0.9,2.3-1.9,3.3-2.9l0.2-0.2l0-0.2 c0.1-0.6,7.5-55.6,7.7-82.4c9.5,1.4,20.6,2.6,31.2,2.6c5,0,9.8-0.3,14.3-0.9c10.7-1.5,18.9-6.9,23.6-15.8 C313,324.6,310.8,301,299.5,277.9z M87.8,470.6c-2,4.9-4.7,8-8.1,9.1c-4.5,1.5-9.1-0.9-10.5-1.6l2.1-10.6 C76.2,468.6,81.7,469.7,87.8,470.6z M47.3,486.3l4.1-25c2.1,0.8,8.7,3.4,18.5,5.8l-5,24.7C55.3,489.3,49.1,487,47.3,486.3z M244.2,235.7c-0.1-0.3-0.3-0.6-0.5-0.9l51,3.5c1,0.1,1.9,0.7,2.3,1.7c0.4,1,0.2,2-0.5,2.8l-51.3,58.6c-6.2,0.9-11.3,1.5-12.8,1.1 c-7.1-1.8-15.3-6.6-17.4-8.2c-1.3-1-2.5-2.1-3.7-3.2c-3.4-3-6.3-5.6-8.6-4.1c-2.6,1.7-4,3.9-4.3,6.6c-0.4,3.8,1.7,7.6,3.2,9.7 c-2.2-0.6-5.6-1.6-8.8-2.8c-0.7-0.3-1.4-0.6-2-0.9l52.7-59.5C244.5,238.9,244.8,237.2,244.2,235.7z M238.3,235.5 c0.5-0.6,1.4-1,2.2-0.9c1,0.1,1.9,0.7,2.3,1.7c0.4,1,0.2,2-0.5,2.8l-52.9,59.7c-2.2-1.4-3.7-3.1-4.3-3.9L238.3,235.5z M173.1,296.2 c-1.1,0.1-2.8,0.6-4.4,1.8c-2.5,1.8-4.1,4.4-4.6,7.4c-1.4,0.2-2.6,0.6-3.7,1.2c8.9-10.7,15.7-19.1,16.5-20l4-6.4 c5.6,2.7,15.1-5.8,17.7-8.3c0.8,1.1,1.7,2,2.6,2.8l-12.1,13.5C184.7,288,175.3,288.7,173.1,296.2z M218.3,255.6 c-1.2-2.3-2.6-4.5-4-6c-1.9-2.1-3.8-4.3-5-5.7l9.2,0.8l3.5,4.1c0.4,0.5,0.8,0.9,1.2,1.3L218.3,255.6z M183.4,231 c1.2-4.7,2.7-10.4,4.1-11.6c2.1-1.7,4.6-0.1,5.4,0.4c1.9,1.3,3,3.4,2.8,4.9c-3.9,3.5-9,8.2-14,12.7 C182.1,235.8,182.7,233.6,183.4,231z M130.3,274c6.4-2.9,12.2-5.5,15.6-7.2c7-3.4,13-7.1,16.5-10.1c0.3-0.3,22.8-20.5,34.4-31.1 l0.1,0.1c0-0.1,0-0.2,0.1-0.2c2.4-2.2,4.4-4,5.5-5c7.2-2.8,26.3-1.8,33.1-1.1c1.9,0.2,2.8,2,2.8,3.6c0,2.6-2.2,5.4-7,5.8 c-8.7,0.7-14.2,1.4-15,1.5c-2.8-0.7-9.7-0.5-10-0.5l0,1.5c0,0,3.5-0.1,6.4,0.1l3.5,0.5c0,0,4.7,0.6,7.5,2.5c1.4,1,4.8,3.9,7.5,7.1 l-7,7.8c-0.4-0.4-0.7-0.7-1.1-1.1l-3.9-4.6l-13.5-1.1l1.2,1.4c0,0,3.2,3.6,6.2,7.1c1.3,1.5,2.9,3.9,4,6.2l-7.3,8.1 c-2-4.2-5.3-9.5-6.1-10.6c-1.1-1.5-6-4.9-6.6-5.3l-0.9,1.2c1.5,1,5.4,3.9,6.2,5c0.9,1.2,4.3,6.9,6.2,10.9l-6.6,7.3 c-1.1-0.8-2.1-2-2.9-3.2c-1.4-2.4-3.1-6.2-3.2-6.3l-1.4,0.6c0.1,0.2,1.6,3.5,3,5.9c-3.6,3.5-12.6,10.8-16.7,8l-0.6-0.4l-4.8,7.6 c-0.2,0.3-12,14.8-25.4,30.6C143,308.5,131.7,278.4,130.3,274z M141.9,328.5c4.5-5.2,9.1-10.6,13.4-15.7c-0.4,1.3-0.6,2.7-0.7,4.3 c-2.7,2.2-5.3,7.5-3.4,14.7l-9.2,10.4V328.5z M140.6,352.3c-1.1-0.1-1.9-0.7-2.3-1.6c-0.4-1-0.2-2,0.5-2.8l11.5-13 c0,1.4,0.3,3.9,1.9,6l-9.4,10.6C142.2,352.1,141.5,352.4,140.6,352.3z M143.8,352.5C143.9,352.5,143.9,352.5,143.8,352.5l9.3-10.5 c3.2,3,10.6,4.5,15.2,5.3c2.4,0.4,8.7,0.7,14.5,0.9c8.3,1,15.3,1.3,20.4,1.3l-4.2,4.8c-0.5,0.6-1.3,0.9-2.2,0.9L143.8,352.5z M226.9,435.4c-8.7,9.1-25.9,11.7-29.7,12.3c-0.3-6.1-2-46.1-4.3-91.2l3.9,0.2c0.1,0,0.1,0,0.2,0c1.2,0,2.3-0.5,3.1-1.4l5.1-5.8 c3.9-0.1,6.3-0.3,6.9-0.4c1.2,0.3,10.3,2.4,22.4,4.3C234.4,378.9,227.4,431.4,226.9,435.4z M212.3,347.5l-0.1,0l-0.1,0 c-0.1,0-12.6,1.5-31.6-1.1l-2.1-0.3c-17.6-2.4-20.8-2.9-24.5-11.2c-3.3-7.3-1.6-13,0.7-15.7c0.2,6.2,3.2,11.8,8.1,14.5l0.7-1.3 c-4.7-2.7-7.6-8.3-7.3-14.6l0,0l0-0.4c0.1-5.9,2.8-9.4,7.9-10.5c-0.2,6.5,3.3,13.7,9.1,18.3l0.9-1.2c-5.7-4.5-9.1-11.7-8.4-17.9 c0.4-3.6,2.4-5.7,4.1-6.9c1.3-0.9,2.5-1.3,3.3-1.5c-0.6,5.7,2,11.1,7.4,14.9c4.4,3.1,5.8,3.3,6.1,3.3l0.1-1.5c0,0-1.2-0.2-5.3-3.1 c-2.4-1.7-7.9-6.5-6.7-14.3c1.4-6.4,8.9-7.5,13.4-7.5l-4.6,5.1l0.3,0.5c0.1,0.2,3.2,4.6,8.7,6.6c5.3,2,11.1,3.4,11.2,3.5l2.4,0.6 l-1.7-1.8c0-0.1-4.8-5.3-4.2-10.3c0.3-2.2,1.5-4,3.7-5.5c1.3-0.9,3.9,1.5,6.7,4c1.2,1.1,2.5,2.2,3.8,3.2c2.6,2,11.1,6.7,18,8.5 c2.7,0.7,14.1-1.1,24.4-2.9c5.9,28.9,2.3,49.5,1.5,53.3C235.1,353,212.6,347.6,212.3,347.5z M303.7,338.7 c-4.5,8.5-12.1,13.5-22.5,15c-6.7,0.9-14.2,1-21.8,0.7c0.9-4.4,4.3-25-1.6-53.6c8.1-1.5,15.1-2.9,15.8-3l-0.3-1.5 c-5.6,1.1-16.6,3.2-25.8,4.7l39.4-45c4.2,8.2,8,15.7,11.3,22.5C309.3,301.3,311.4,324.3,303.7,338.7z M292.5,243.4l-44.7-2.6 l0.1-1.5l44.7,2.6L292.5,243.4z M121.7,121.4c0.2,0.1,18.3,5.4,25.8,5.9l0.7,0v10l-0.8-0.1c-17.2-1.6-26.4-14.6-26.5-14.7l-1.2-1.8 L121.7,121.4z M146.5,84.9h1.3c3.9,0,7-3.2,7-7V63.8h1.5v14.1c0,4.7-3.8,8.5-8.5,8.5h-1.3V84.9z M145.5,53.1v1.5 c-7.6,0-10.5,3.8-10.6,4l-1.2-0.9C133.8,57.5,137,53.1,145.5,53.1z M172.5,58c-1.8-4-8.9-3.4-9-3.4l-0.1-1.5c0.3,0,8.2-0.7,10.5,4.3 L172.5,58z M148,60.3l1,1.1c-0.1,0.1-0.8,0.7-2,1.6c0.2,0.5,0.4,1.1,0.4,1.7c0,2.5-2,4.5-4.5,4.5c-1.7,0-3.2-1-4-2.4 c-0.9,0.2-1.9,0.3-2.8,0.3c-0.6,0-1.2,0-1.8-0.1l0.2-1.5C141.3,66.5,148,60.3,148,60.3z M171.8,61.4c-0.1,0.1-0.8,0.7-2,1.6 c0.2,0.5,0.4,1.1,0.4,1.7c0,2.5-2,4.5-4.5,4.5c-1.7,0-3.2-1-4-2.4c-0.9,0.2-1.9,0.3-2.8,0.3c-0.6,0-1.2,0-1.8-0.1l0.2-1.5 c6.7,1.1,13.4-5.1,13.4-5.2L171.8,61.4z M152.3,100.1c-6.1,0-11.1-4.5-11.3-4.7l1-1.1c0,0,5,4.5,10.8,4.3c3-0.1,5.8-1.6,8.2-4.2 l1.1,1c-2.7,3-5.8,4.5-9.2,4.7C152.7,100.1,152.5,100.1,152.3,100.1z M108,88.7c7.8,0,14.2-8,14.2-17.8c0-6.7-2.9-12.5-7.3-15.5 c0.1-16.4,9.7-35.1,25-37c8.4-1,16.8,1.5,22.9,6.9c6.1,5.4,9.5,13.1,9.5,21.5l1.5,0c0-0.8,0.6-20.7-12.2-32.4 c-7.4-6.7-17.6-9.3-30.6-7.6c-23.8,3.1-32.8,32.9-32.8,51.1c-2.8,3.3-4.5,7.9-4.5,13C93.8,80.7,100.2,88.7,108,88.7z M131.4,8.3 c12.5-1.6,22.3,0.8,29.3,7.3c5.3,4.9,8.2,11.3,9.8,17.1c-1.6-3.2-3.9-6-6.6-8.5c-6.5-5.7-15.3-8.4-24.1-7.3 c-15.8,2-25.8,20.8-26.3,37.6c-1.7-0.9-3.5-1.4-5.5-1.4c-3,0-5.8,1.2-8.2,3.2C100.4,38.5,109.2,11.1,131.4,8.3z M108,54.6 c7,0,12.7,7.3,12.7,16.3S115,87.2,108,87.2s-12.7-7.3-12.7-16.3S101,54.6,108,54.6z M116.3,70.3c0-9.4-3.7-10.3-3.7-10.3l0.3-1.5 c0.2,0,4.9,1,4.9,11.8c0,8.4-4.8,12.1-6.9,13.4c-1.7,1-3.6,1.6-5.3,1.6c-1.1,0-2.2-0.2-3-0.7l0.7-1.3c1.7,0.9,4.5,0.6,6.9-0.8 C112,81.3,116.3,78,116.3,70.3z M100.4,69.9c0-3.8,2.3-6.9,5.2-6.9s5.2,3.1,5.2,6.9s-2.3,6.9-5.2,6.9S100.4,73.7,100.4,69.9z"/></g></svg>