<?xml version="1.0" encoding="UTF-8"?><svg xmlns="http://www.w3.org/2000/svg" xmlns:xlink="http://www.w3.org/1999/xlink" contentScriptType="text/ecmascript" fill="#000000" width="186.9" zoomAndPan="magnify" contentStyleType="text/css" viewBox="0.0 -2.8 186.9 504.3" height="504.3" preserveAspectRatio="xMidYMid meet" version="1"><g id="change1_1"><path fill="#d2eeff" d="M126,108.5c-15.7,6.9-33.5,6.4-50.6,5.7c-6.6-0.2-13.3-0.5-19.9-1.5c-6.2-0.9-11.9-3.9-17.9-5 c-6.9,0-13.3,0-19.5,0c-1.1-6,1.2-12.4,5.8-16.3c4.6-3.9,11.4-5.6,14.3-10.9c2.6-4.9,1-10.8,1.6-16.3c0.5-4.3,2.4-8.4,5.4-11.5 c4.2-4.3,10.3-6.7,13.5-11.8c2.2-3.5,2.6-7.8,2.8-11.9c0.2-4.1,0.2-8.4,1.7-12.2c1.5-3.9,4.8-7.3,8.9-7.6c2.7-7,17.8-11,30.7-6 c9.1,3.5,16.7,11.2,15.9,23.4c-0.2,3.3,0.4,6.8,2.3,9.6c2.1,3.1,5.8,4.6,8.5,7.2c3.2,3.1,4.7,7.7,4.1,12.1c-0.4,2.7-1.6,5.4-0.8,8 c0.9,2.9,3.8,4.5,6.1,6.5c2.2,1.8,4,4.1,5.2,6.6C150.2,88.6,136.5,103.9,126,108.5z"/></g><g id="change2_1"><path fill="#b76730" d="M131.7,473.2L131.7,473.2c-0.9-1-2.2-2.9-3.2-4.6c-1.1-1.9-3.3-2.8-5.5-2.3c-6.1,1.6-15.9,2.4-18.9,2.5 c-3.7,0.1-5.2-0.6-5.7-3.7L95,442.1l38.5-9.4c2,9.8,4.8,20.6,8.6,27.4c-2.7,1.7-7.6,3-10.6,3.8C129,464.5,127.8,468.3,131.7,473.2z M43,395.4C43,395.4,43,395.4,43,395.4l-15.7,17.2c0,0,0,0,0,0c-2.4,2.6,9.4,18.7,11.8,21.1c2.4,2.4,4.1,6.2,2,8.6 c0,0,1.4-1.3,2.9-1.3c1.5,0,2.5,1.3,2.5,1.3c2.1,2.6,6.1,6.5,8.6,7.9c0,0,0,0,0,0c0.2-1.1,0.5-2.1,0.9-3.2 c1.9-5.6,6.5-12.6,11.6-19.2L43,395.4z M124.2,148.4c0,0,4.8,7.6,8.6,10.8c6.7,5.7,18.4,4.5,22.5-4c3.8-7.9,12.9-41.1,12.9-41.1 c-1-1-1.6-2.5-2.3-3.8c-1.4-2.6-3.9-4.3-6.7-5.2c-2.8-0.9-5.7-1-8.6-0.9c-7.5,0.2-15,1.5-22.2,3.9c-2.4,0.8-4.9,1.8-6.8,3.4 c-4.8,4-5.8,11.1-4.8,17.3c0.6,3.9,2,7.8,4.2,11.1c0.6,0.9,1.2,1.7,1.6,2.7C123.1,144.8,122.2,147.3,124.2,148.4z"/></g><g id="change3_1"><path fill="#201139" d="M118.2,75.8c2.5,2.3,4.5,6.6,2.9,10.3c-1,2.4-3.4,4.2-7.1,5.6c-3.7,1.3-7.6,2-11.5,2c-0.2,0-0.4,0-0.6,0 c-1.4,0-3.2-0.1-4.9-0.8c-2.3-0.9-4.1-2.6-5.6-4.2c-1.3-1.4-2.9-3.3-3.8-5.7c-1.4-3.7-0.8-7.8-0.3-11.1c0.2-1.6,0.5-3.4,1.3-4.9 c0.4-0.8,1-1.4,1.5-2.1c0.5-0.6,0.9-1.2,1.3-1.8c0.6-1.1,0.9-2.4,1.3-3.8c0.3-1.4,0.6-2.8,1.4-4.1c1.4-2.5,6.4-8,9.9-7.3 c2.4,0.5,3,3,3.6,5.2c0.3,1.4,0.7,2.8,1.4,3.6c0.4,0.5,1,0.9,1.5,1.3c0.8,0.6,1.6,1.2,2.2,2c1.5,2,1.4,4.5,1.4,6.9 c-0.1,2.1-0.1,4.1,0.8,5.7c0.5,0.9,1.4,1.6,2.3,2.4C117.5,75.1,117.9,75.5,118.2,75.8z M167.3,113.9c-0.1,0.3-9.1,33.2-12.8,41 c-1.7,3.5-4.8,5.9-8.8,6.8c-4.4,0.9-9.2-0.2-12.5-3c-3.6-3.1-8.4-10.6-8.4-10.7l-1.3,0.8c0.2,0.3,4.9,7.7,8.7,11 c2.8,2.4,6.6,3.7,10.4,3.7c1.1,0,2.3-0.1,3.4-0.4c4.5-1,8-3.6,9.9-7.6c3.8-7.9,12.5-39.9,12.9-41.3L167.3,113.9z M102.6,3.6 c4.9,1.9,16.3,8,15.5,22.6c-0.2,2.8,0.1,6.7,2.4,10.1c1.3,1.9,3.3,3.3,5.1,4.6c1.2,0.8,2.4,1.7,3.5,2.7c3,2.9,4.5,7.3,3.9,11.5 c-0.1,0.7-0.3,1.5-0.5,2.2c-0.5,2-0.9,4-0.3,6.1c0.7,2.5,2.8,4.1,4.9,5.7c0.5,0.4,1,0.8,1.5,1.2c2.1,1.7,3.8,3.9,5,6.4 c0.9,1.8,2.2,5.3,1,8.7c-0.2,0.5-0.4,0.9-0.6,1.4c-0.2,0.5-0.5,1-0.7,1.6l1.4,0.5c0.2-0.5,0.4-0.9,0.6-1.4c0.2-0.5,0.5-1,0.7-1.5 c1-2.9,0.6-6.4-1.1-9.8c-1.3-2.6-3.2-5-5.4-6.9c-0.5-0.4-1-0.8-1.5-1.2c-1.9-1.5-3.7-2.9-4.3-4.9c-0.5-1.7-0.1-3.4,0.3-5.3 c0.2-0.8,0.4-1.6,0.5-2.3c0.7-4.6-1-9.5-4.3-12.8c-1.1-1.1-2.4-2-3.6-2.9c-1.8-1.3-3.6-2.5-4.7-4.2c-2-3-2.3-6.6-2.1-9.1 c0.7-11-5.3-19.8-16.4-24.1C90-2.8,74.9,1.4,71.6,8.3c-4.7,0.5-7.8,4.6-9.1,8c-1.4,3.6-1.5,7.4-1.7,11.1l-0.1,1.4 c-0.2,3.8-0.5,8.1-2.7,11.6c-1.8,2.9-4.6,4.9-7.5,7c-2,1.4-4.1,2.9-5.9,4.7c-3.1,3.2-5.1,7.5-5.6,12C38.8,66,38.9,68,39,69.9 c0.1,3.7,0.2,7.2-1.4,10.2c-1.7,3.1-4.9,5-8.3,6.9c-2,1.1-4.1,2.3-5.9,3.8c-4.8,4.1-7.2,10.8-6.1,17.1l0.1,0.6H38V107H18.7 c-0.8-5.6,1.4-11.4,5.7-15c1.7-1.4,3.7-2.6,5.6-3.7c3.4-1.9,6.9-3.9,8.8-7.5c1.8-3.4,1.7-7.2,1.6-10.9c-0.1-1.9-0.1-3.8,0.1-5.7 c0.5-4.2,2.3-8.1,5.2-11.1c1.7-1.7,3.7-3.2,5.6-4.5c2.9-2.1,6-4.3,7.9-7.4c2.3-3.8,2.7-8.3,2.9-12.3l0.1-1.4 c0.1-3.6,0.3-7.3,1.6-10.6c1.3-3.4,4.3-6.9,8.3-7.1l0.5,0l0.2-0.4C75.4,2.7,89.9-1.3,102.6,3.6z M131.7,85.4l1.5-0.1 c-0.2-2.8-1.9-5.3-3.8-7.9c-2-2.8-4.1-5.8-4.4-9.6l-1.5,0.1c0.3,4.2,2.7,7.5,4.7,10.3C129.9,80.7,131.5,83,131.7,85.4z M127.3,53.6 c-1.1,5.4,0,11.1,2.9,15.7l1.3-0.8c-2.7-4.3-3.7-9.6-2.7-14.6L127.3,53.6z"/></g><g id="change4_1"><path fill="#141c75" d="M131.7,473.2L131.7,473.2c-0.9-1-2.2-2.9-3.2-4.6c-1.1-1.9-3.3-2.8-5.5-2.3c-6.1,1.6-15.9,2.4-18.9,2.5 c-3.7,0.1-5.2-0.6-5.7-3.7l-1-6.6h0c0-0.1,20.8,0.8,40.4-8.6c0,0,0,0,0,0c1.2,3.8,2.6,7.3,4.2,10c-2.7,1.7-7.6,3-10.6,3.8 C129,464.5,127.8,468.3,131.7,473.2z M59.8,439.2c-13.2-7.7-25.2-30.7-26.5-33.1l-6,6.6c0,0,0,0,0,0c-2.4,2.6,9.4,18.7,11.8,21.1 c2.4,2.4,4.1,6.2,2,8.6c0,0,1.4-1.3,2.9-1.3c1.5,0,2.5,1.3,2.5,1.3c2.1,2.6,6.1,6.5,8.6,7.9c0,0,0,0,0,0c0.2-1.1,0.5-2.1,0.9-3.2 C56.8,444.6,58.1,441.9,59.8,439.2C59.8,439.2,59.8,439.2,59.8,439.2z M128.8,112l3.7-17.3c-3.3-10.6-15.5-19-24.5-21.7l-42.3-1 c-6.4,1.9-17.8,2.7-25,20.2c-5.1,12.2-2.9,28,6.2,54.1c5.6,16,11.9,28.4,11.9,28.4s35.4,7.1,62.4-6l4.9-33.6c2-3.2,3-11.8,2.4-21.6 L128.8,112z"/></g><g id="change1_2"><path fill="#d2eeff" d="M169.1,500.7c-9.6,0-16,0-28,0c-12,0-17.8-12.3-17.8-12.3v12.3H104l-5.5-35.5c0.5,3.1,2,3.9,5.7,3.7 c3-0.1,12.8-0.9,18.9-2.5c2.1-0.6,4.3,0.4,5.5,2.3c1,1.7,2.2,3.5,3.1,4.5l0,0c-4-4.9-2.8-8.7-0.3-9.4c3-0.8,8-2.1,10.6-3.8 c0.2,0.4,0.5,0.8,0.7,1.2c8.7,14,28.3,15.2,36.2,22.5C186.9,491.1,178.7,500.7,169.1,500.7z M55.1,450.1 C55.1,450.1,55.1,450.1,55.1,450.1c-2.5-1.3-6.5-5.3-8.6-7.9c0,0-1.1-1.3-2.5-1.3c-1.5,0-2.9,1.3-2.9,1.3c2.2-2.4,0.4-6.1-2-8.6 c-2.4-2.4-14.2-18.4-11.8-21.1c0,0,0,0,0,0L1,441.5l12.1,15l9.5-7.7c0,0-5.9,12.2,1.6,21.5c7.5,9.3,11.5,14.3,17.6,21.8 c6,7.5,18.7,7.8,19.4-2.9C61.9,479.2,52.1,464.7,55.1,450.1z M130.1,138.5l40.8-14.9l8.5-58c0.2-1.2-0.3-2.4-1.3-3.2l-1.9-1.4 l-42,10.6"/></g><g id="change5_1"><path fill="#c55ae9" d="M131.3,332.5c-0.1-0.3-0.2-0.7-0.4-1c0,0.3,0.1,0.7,0.1,1c3.2,23.4,12.7,93.6,12.7,93.6 c-32.7,24-61.5,13.9-61.5,13.9c-1.4-6.4-2.8-12.5-4-18.3l-7.7,8.9c-13.5-10.5-34.1-46.1-34.1-46.1c5.9-8.7,23-35.6,25.4-39.3 c-9.2-44.9-12.6-66.8-17.2-98.7c-5.1-34.6,0.3-57.5,14.2-71.8c0,0,35.4,7.1,62.4-6c0,0,27,15.6,25.6,126 C146.6,312.8,131.3,332.5,131.3,332.5z M140.2,80.5l-1.1,7.7c-0.1,0.8,0.6,1.4,1.3,1.2l8.5-2.3c0.4-0.1,0.7-0.5,0.8-0.9l1.3-9.2 c0.1-0.8-0.6-1.4-1.3-1.2l-7.1,1.9C141.3,78.1,140.4,79.2,140.2,80.5z"/></g><g id="change3_2"><path fill="#201139" d="M178.6,61.8l-2.2-1.6L134,70.9l0,0c0,0-0.1,0-0.1,0c-0.3,0.1-0.5,0.4-0.5,0.7l-2.3,18.1 c-5.3-8.8-16.9-16.1-24.6-18.4l-0.1,0H65.7l-0.2,0c-0.7,0.2-1.5,0.4-2.4,0.6c-6.6,1.7-16.6,4.2-23.2,20c-5,12.2-3.3,27.5,6.2,54.6 c5.6,15.8,11.9,28.4,11.9,28.5l0.2,0.3l0.4,0.1c0.2,0,9.8,1.9,22.7,1.9c12.1,0,27.2-1.6,40.2-8l0.4-0.2l4.9-33.8l2.6,3.4l0.3,0.4 l0.5-0.1l0,0.1l40.8-14.9l0.4-0.2l8.6-58.5C180.4,64.2,179.8,62.7,178.6,61.8z M125.5,134.7l-0.1,0.1l-4.8,33.4 c-25.1,12-57.5,6.5-61.3,5.9c-1-2.1-6.7-13.7-11.7-28c-9.4-26.7-11.1-41.7-6.2-53.5c6.3-15.1,15.8-17.5,22.1-19.1 c0.8-0.2,1.6-0.4,2.3-0.6h40.3c8,2.4,20.2,10.2,24.6,19.5l-2.1,15.9c-0.8-7-2.4-13.6-4.6-19.1l-1.4,0.6c2.6,6.6,4.4,15.1,4.9,23.7 l0,0l0,0.1c0,0.6,0.1,1.2,0.1,1.7l-2.3,18.1l0,0.3l0.3,0.4C125.7,134.4,125.6,134.6,125.5,134.7z M178.7,65.4l-8.4,57.6L131,137.3 l8.6-62.9l0.1-0.5l-3.3-2L176,61.9l1.7,1.2C178.4,63.6,178.8,64.5,178.7,65.4z"/></g><g id="change2_2"><path fill="#b76730" d="M75.1,66.7c1.2-3-1.6-6.6,0-9.3c0.9-1.6,3-2.2,4-3.7c1.5-2.1,1.4-5.4-0.3-7.4c-1.9-2.3-8.2-6.2-6.3-11 c1.6-4,6-2.8,6-2.8c4.4,1.6,11.6-11.7,11.9-17.3c0,0,17.6,0,17.6,11.1c0,11.1,0,15.4,0,21.7c0,6.3-4.7,13.5-11.6,12.6v6.3l9.8,5.2 c0,0,0.7,13.3-8.1,25.9C87.3,87.9,65.7,72.1,65.7,72.1c1.4-0.8,7-2.3,8.1-3.4C74.3,68.1,74.9,67.5,75.1,66.7z M147.9,111.1 c3.3-10.6,0.6-11.7-0.4-10.4c0.3-7.3-3.5-4.9-4.2-2.7c0.9-5.7-1.8-7.3-3.2-4.1c-1.4,3.2-7.4,11.1-10.1,11.6c0.8-5,0.1-9.7-2.3-9.9 c-2.4-0.3-2.7,1.4-3.2,4.1c-0.8,3.8-2.4,13.5-6,17.6s-25.2,18.2-25.2,18.2l-5.6-7.9c-5.3,6.3-17,19.7-21.9,25.3 c5.9,7.7,15.9,18.6,26,19.1c16.8,0.9,34.2-30.8,42-38.2c5.3-5,13-8.7,15.3-15.7C151.6,111.1,150,109.8,147.9,111.1z M178.8,82.5 c3.4-0.6,4.5-6.1-2.6-5.2c-5.3,0.7-7.1,3.6-6.8,5.8c0.2,1.4,1.9,0.8,1.9,0.8s-2,0.7-1.9,3c0,2.2,2.5,1.7,2.5,1.7s-2.8,1.2-2.5,3.3 c0.2,1.8,1.5,1.5,1.8,1.3c-0.7,0.3-2.2,1.8-1.8,3.9c0.4,2.1,5.5,0.5,8.3-0.6c2.8-1.1,1.5-4.7,0-4.8c3-0.9,3.6-3.9,1.7-4.4 C181.6,86.2,181.7,82.3,178.8,82.5z"/></g><g id="change3_3"><path fill="#201139" d="M141.1,85.3c0.2-0.9,1.2-1.6,2.1-1.6s1.4,0.7,1.2,1.6s-1.2,1.6-2.1,1.6S140.9,86.2,141.1,85.3z M176.2,76.5 c4.1-0.5,5.8,1,6,2.6c0.2,1.2-0.4,2.4-1.4,3.2c0.4,0.4,0.7,0.8,0.8,1.4c0.2,1.1,0,2.4-0.9,3.3c0.3,0.4,0.5,0.8,0.5,1.3 c0,1.1-0.6,2.3-2,3.2c0.4,0.5,0.7,1.2,0.8,1.9c0.2,1.6-0.6,3-2.1,3.6c-3.4,1.3-5.5,1.7-6.7,1.7c-0.8,0-1.3-0.2-1.7-0.4 c-0.5-0.3-0.8-0.7-0.9-1.3c-0.3-1.4,0.2-2.6,0.9-3.5c-0.5-0.4-0.7-0.9-0.9-1.7c-0.2-1.3,0.5-2.2,1.2-2.9c-0.1-0.1-0.2-0.1-0.3-0.2 c-0.4-0.3-0.9-0.9-0.9-1.9c0-1.1,0.3-1.9,0.8-2.4c-0.3-0.2-0.6-0.6-0.7-1.2c-0.2-1.2,0.1-2.4,0.9-3.4 C170.6,78.5,172.4,77,176.2,76.5z M178.7,93.8c-0.1-0.9-0.6-1.4-1-1.5l-0.3,0c-1.1,0-4.7,1-5.6,1.5l0,0c0,0-0.1,0.1-0.3,0.1 c-0.5,0.3-1.6,1.4-1.3,3c0,0.1,0.1,0.2,0.2,0.3c0.4,0.2,1.9,0.5,7.1-1.4C178.7,95.3,178.8,94.3,178.7,93.8z M179.8,88.5 c0-0.3-0.1-0.4-0.3-0.5c-0.6,0.2-1.5,0.3-3.1,0.5c-1.4,0.2-2.9,0.4-4.2,0.7c-0.3,0.2-2.2,1.1-2,2.5c0.1,0.4,0.2,0.7,0.3,0.8 c0.1,0.1,0.3,0,0.4,0c0.1,0,0.1,0,0.2-0.1c1-0.5,5-1.7,6.6-1.6C179.1,90.3,179.8,89.3,179.8,88.5z M180.2,84.1 c-0.2-0.7-0.6-1-1.3-0.9v0c-1,0-5.3,0.8-7.2,1.4c-0.1,0-1.5,0.6-1.4,2.2c0,0.6,0.2,0.7,0.3,0.8c0.4,0.3,1.1,0.2,1.3,0.2v0 c1.3-0.3,3-0.5,4.4-0.7c1-0.1,2.3-0.3,2.7-0.4l0.2-0.1C180,86.1,180.4,85,180.2,84.1z M176.4,78c-2.5,0.3-4.5,1.3-5.5,2.6 c-0.5,0.7-0.8,1.5-0.6,2.3c0,0.2,0.1,0.3,0.1,0.3c0.2,0.1,0.6,0,0.8,0l0.2,0.7l-0.2-0.7c2-0.6,6.2-1.4,7.6-1.4 c1.3-0.2,2.2-1.4,2-2.3C180.6,78.2,178.9,77.7,176.4,78z M176.5,65.6l-0.4-1.4l-35.1,9.5l0.4,1.4L176.5,65.6z M105.2,34.1 c1.1,0,2-0.9,2-2c0-1.1-0.9-2-2-2c-1.1,0-2,0.9-2,2C103.2,33.2,104.1,34.1,105.2,34.1z M142.7,82.2c0.9,0,1.8-0.7,2.1-1.6 c0.2-0.9-0.3-1.6-1.2-1.6s-1.8,0.7-2.1,1.6C141.3,81.4,141.8,82.2,142.7,82.2z M138.9,89.7c-0.5-0.4-0.7-1-0.6-1.6l1.1-7.7 c0.2-1.6,1.4-2.9,3-3.3l7.1-1.9c0.6-0.2,1.2,0,1.7,0.4c0.5,0.4,0.7,1,0.6,1.6l-1.2,8.3c-0.2,1.3-1.1,2.3-2.4,2.7l-7.6,2 c-0.2,0-0.3,0.1-0.5,0.1C139.7,90.2,139.3,90,138.9,89.7z M139.8,88.3c0,0.2,0.1,0.2,0.1,0.3c0,0,0.2,0.1,0.3,0.1l7.6-2 c0.7-0.2,1.2-0.7,1.3-1.4l1.2-8.3c0-0.2-0.1-0.2-0.1-0.3c0,0-0.1-0.1-0.2-0.1c0,0-0.1,0-0.1,0l-7.1,1.9c-1,0.3-1.7,1.1-1.9,2.1 L139.8,88.3z M28.8,107c-0.9-1.5-0.5-3.4,0.1-4.7c0.7-1.5,1.9-2.8,3.1-4l0.2-0.2c1.4-1.5,2.7-2.9,3.4-4.8l-1.4-0.5 c-0.6,1.6-1.8,2.9-3.1,4.3l-0.2,0.2c-1.2,1.3-2.5,2.7-3.3,4.4c-1,2.1-1,4.4,0,6.1L28.8,107z M115.9,335.9l-0.1,1.5 c0.2,0,0.4,0,0.6,0c2,0,4-0.7,5.5-1.9l-0.9-1.2C119.6,335.4,117.7,336,115.9,335.9z M63.1,156c-0.5-0.5-11.2-11.2-15.1-18.3l1.3-0.7 c3.3,6,12,15,14.3,17.4c8.5-9.7,23.6-27.1,25.9-30c-1.3-2.5-8.4-15.9-15.5-26.6c-4.3-6.6-9.7-10.7-14.8-11.5 c-2.5-0.4-4.6,0.2-6.2,1.5l-1-1.1c1.9-1.6,4.5-2.3,7.4-1.8C65,85.5,70.7,90,75.3,96.9c7.9,11.9,15.7,27,15.8,27.2l0.2,0.4l-0.2,0.4 c-0.2,0.3-1.1,1.4-2.3,2.9l4.8,6.8c3.5-2.3,21.3-14.1,24.4-17.7c3.1-3.5,4.8-12,5.6-16l0.2-1.2c0.6-2.7,1-5.1,4-4.7 c0.7,0.1,1.4,0.5,1.9,1.1c1.4,1.8,1.5,5.2,1.2,8.3c2.7-1.8,7.3-7.9,8.4-10.6c0.8-1.9,2-2.3,2.9-2c1.2,0.3,1.9,1.8,1.9,3.9 c0.6-0.4,1.2-0.6,1.8-0.5c1,0.2,2.1,1.1,2.2,4.5c0,0,0,0,0,0c0.2,0,0.5,0.1,0.7,0.2c1.7,0.9,1.7,4.5,0.1,10.2c0.6,0,1,0.2,1.3,0.4 c1.3,1,1.2,3.7-0.3,8.2c-1.7,5.2-6.1,8.6-10.5,11.9c-1.7,1.3-3.5,2.7-5.1,4.1c-2.1,1.9-4.8,5.7-8.1,10c-9,12-21.3,28.4-33.7,28.4 c-0.3,0-0.5,0-0.8,0c-9.8-0.5-19.5-10.3-26-18.7c-0.9,1-1.5,1.7-1.6,1.9l-0.5,0.6L63.1,156z M66.8,153c6.4,8.2,15.8,17.9,25.1,18.4 c11.9,0.7,24.2-15.8,33.2-27.8c3.3-4.4,6.1-8.1,8.3-10.2c1.6-1.5,3.4-2.9,5.2-4.2c4.1-3.2,8.4-6.4,9.9-11.2c1.8-5.6,0.8-6.5,0.8-6.5 c-0.1-0.1-0.4-0.1-0.9,0.2c-1,2.9-1.9,4.7-1.9,4.7l-1.3-0.7c0,0,1-1.8,1.9-4.8c2.3-7.6,1.4-9.7,1.1-9.9c0,0,0,0-0.1,0 c-0.8,4.6-5.5,11.2-5.7,11.4l-1.2-0.9c0-0.1,4.9-6.8,5.5-11c0.1-3.1-0.6-4-1-4.1c-0.5-0.1-1.5,0.7-1.8,1.7l0,0 c-1.2,5.2-6.1,10.2-6.3,10.4l-1.1-1c0,0,4.8-4.9,5.9-9.8c0.5-3.1-0.2-4.7-0.7-4.8c-0.2-0.1-0.6,0.2-1.1,1.2 c-1.3,3.1-7.5,11.4-10.6,12l-1,0.2l0.2-1.1c0.6-3.7,0.3-7.2-0.7-8.5c-0.3-0.3-0.5-0.5-0.8-0.5c-1.5-0.2-1.8,0.5-2.4,3.5l-0.2,1.2 c-0.9,4.5-2.5,12.9-5.9,16.7c-3.6,4.1-24.4,17.7-25.3,18.3l0,0l0,0c-1.5,1-2.8,2.3-2.8,2.3l-1.1-1c0-0.1,1-1.2,2.4-2.2l-4.6-6.5 C82.3,135.3,71.8,147.3,66.8,153z M182.3,493.4c-1.8,4.7-7.4,8.1-13.2,8.1h-28c-9,0-14.6-6.5-17-10.2v10.2h-20.6l-9-58.7 c-7.6-0.4-12.2-2-12.3-2l-0.4-0.1l-0.1-0.4c-1.3-5.8-2.5-11.4-3.7-16.8l-7.2,8.3l-0.6-0.4c-0.8-0.6-1.7-1.4-2.6-2.2 c-5.6,7.3-9.2,13.4-10.8,18.1c-3.2,9.3-0.3,18.9,2.4,27.4c1.7,5.4,3.2,10.4,2.9,14.7c-0.3,4.4-2.5,7.4-6.1,8.5 c-1,0.3-2.1,0.5-3.2,0.5c-4.1,0-8.5-2.1-11.4-5.7l-17.6-21.8c-5.7-7-4.1-15.5-2.8-19.7l-8,6.4L0,441.5l26.8-29.4c0,0,0,0,0,0l0,0 l15.3-16.8c-3.6-5.7-6-9.8-6.3-10.3l-0.2-0.4l0.3-0.4c5.7-8.4,22.3-34.5,25.2-39c-9.1-44.6-12.5-66.3-17.2-98.4 c-4.9-33.7-0.2-57.4,14.4-72.4l1.1,1c-2,2.1-3.8,4.3-5.4,6.7c1.6,0.4,5.2,1.3,10.2,2c0.5-2.6,1.3-5.9,2.2-8.3l1.4,0.5 c-1.3,3.3-2.3,8.8-2.7,10.8l4.9,0.6c0.4-1.8,1.6-6.9,2.8-11.4l1.4,0.4c-0.8,2.8-1.5,5.9-2.1,8.2c10.2,0.7,25.5,0.5,42.6-4.3 c-0.8-2.4-2.1-5.6-3-7.9l1.4-0.6c0.6,1.4,3.1,7.7,3.8,10.3l5.3-1.6c-0.6-2.1-2.5-8-3.9-10.6l1.3-0.7c1.1,2,2.4,5.7,3.3,8.4 c1.4-0.5,2.8-1,4.1-1.6c-3.4-5.3-6-6.9-6.1-7l0.8-1.3c1.1,0.6,27.3,17,25.9,126.7c-0.2,18-15,37.4-15.7,38.2l0,0l12.7,93.6l-0.4,0.3 c-3.3,2.4-6.6,4.5-9.8,6.3c2.6,12.9,5.8,22.5,9.1,27.8c5.2,8.4,14.6,12.1,22.8,15.4c5.2,2.1,10.1,4,13.3,6.9 C182.7,486.2,183.7,489.8,182.3,493.4z M54.3,450.5c-2.7-1.6-6.5-5.4-8.4-7.8c-0.7-0.9-1.6-1.2-2.6-0.9c-1.9,0.5-4.3,3.3-5,7.7 l-1.5-0.3c0.5-3.1,1.9-5.9,3.7-7.5c1.8-2,0.2-5.3-2-7.5c-1.3-1.3-10.9-13.6-12.1-19.5L2,441.5l11.2,13.9l11.5-9.3l-1.4,3 c-0.1,0.1-5.6,11.9,1.6,20.8l17.6,21.8c3.3,4.1,8.7,6.1,13,4.7c3-1,4.8-3.5,5.1-7.2c0.3-4-1.3-8.9-2.9-14.2 C55.3,467.4,52.7,459,54.3,450.5z M58.7,439.4c-12.1-7.5-23-27-25.6-32.1l-5.2,5.8c-1.7,1.9,8.5,16.8,11.7,20c2,2,3.5,4.8,3.1,7.2 c0.1,0,0.1-0.1,0.2-0.1c1.6-0.4,3,0.1,4.1,1.4c2,2.4,5.3,5.6,7.6,7.2c0.2-0.7,0.4-1.5,0.6-2.2C56,444.6,57.2,442.1,58.7,439.4z M65.3,429.6c-3-2.1-16.1-11.8-25.1-30l-6,6.6c2.1,4,13.2,24.5,25.3,32C61.1,435.5,63,432.6,65.3,429.6z M77.4,421.6 c-0.2-1-0.4-1.9-0.6-2.9l-19.5-64.9c-6.1,9.5-15.7,24.5-20,30.8c2.3,3.9,20.7,34.8,33.1,45.1L77.4,421.6z M143,425.9l-12.6-93.2 c-4.5-33-19.7-111.3-19.8-112.1l1.5-0.3c0.2,0.8,14.9,76.7,19.6,110.6c3.2-4.5,14.3-21.1,14.5-36.1c0.9-72.8-10.6-104.2-18.3-117.1 c-1.5,0.6-3,1.2-4.5,1.7c0.3,1,0.5,1.7,0.5,1.8l0.2,0.7l-8.4,2.5l-0.1-0.9c0-0.2-0.2-0.7-0.4-1.4c-12.9,3.6-24.8,4.7-34.3,4.7 c-3.4,0-6.5-0.1-9.2-0.3c-0.3,1.4-0.5,2.3-0.5,2.3l-0.1,0.7l-7.8-1l0.1-0.8c0-0.1,0.2-0.9,0.4-2.1c-5.6-0.8-9.4-1.8-10.7-2.1 c-9.2,14.6-11.7,35.4-7.7,63.1c4.7,32.2,8,53.9,17.2,98.6l0.2,0.1c0,0-0.1,0.1-0.1,0.2c4.8,23.4,11.2,53.2,20.3,94.1 C86.5,440.6,113.2,447.6,143,425.9z M98.2,457.9c6.6,0,23.2-0.9,38.8-8.2c-1.3-4-2.5-8.7-3.6-14c-3.6,2.1-18.3,10.2-36.9,11.2 L98.2,457.9z M99.3,465.1c0.4,2.4,1.2,3.2,4.9,3.1c3.4-0.1,12.8-0.9,18.7-2.5c2-0.5,4.1,0.1,5.5,1.6c0-0.4,0-0.8,0.1-1.2 c0.3-1.5,1.4-2.6,2.7-3c1.8-0.4,6.8-1.7,9.8-3.3c-1.3-2.4-2.5-5.3-3.6-8.7c-15.7,7.3-32.2,8.2-39.1,8.3L99.3,465.1z M178.5,484.4 c-2.9-2.7-7.7-4.6-12.8-6.7c-8.4-3.4-18-7.2-23.5-16c-0.1-0.2-0.2-0.4-0.4-0.6c-2.8,1.5-7.1,2.7-10.2,3.5c-0.8,0.2-1.4,0.9-1.6,1.8 c-0.2,0.7-0.4,2.9,2.1,6.1c0,0,0.1,0.1,0.1,0.1l0,0c0.8,1,1.9,2.1,3.3,3.3l-1,1.2c-1.4-1.1-2.5-2.3-3.4-3.4l0,0 c-0.8-0.9-1.9-2.4-3.2-4.7c-1-1.6-2.9-2.4-4.6-1.9c-6,1.6-15.6,2.4-19,2.5c-1.8,0.1-3.3-0.1-4.4-0.7l4.8,31h17.9v-14.8l1.4,3 c0.1,0.1,5.8,11.8,17.1,11.8h28c5.2,0,10.2-3,11.8-7.1C182.1,489.9,181.2,486.9,178.5,484.4z M92.4,43.5l-0.7,0l-0.7,0 c0,0.1-0.1,2.7,1.8,4.6c1.3,1.3,3.1,2,5.4,2v-1.5c-1.9,0-3.4-0.5-4.3-1.5C92.4,45.6,92.4,43.5,92.4,43.5z M123.2,329.2l-0.7-1.3 c-3.5,1.7-7.5,2.3-11.4,1.7L111,331c1,0.2,2.1,0.2,3.2,0.2C117.3,331.2,120.4,330.5,123.2,329.2z M92.4,32.1c0,1.1,0.9,2,2,2 c1.1,0,2-0.9,2-2c0-1.1-0.9-2-2-2C93.3,30.1,92.4,31,92.4,32.1z M101.8,38v-6.3h-1.5V38c0,1.5-1.2,2.8-2.8,2.8H97v1.5h0.6 C99.9,42.3,101.8,40.4,101.8,38z M95.6,28v-1.5c-4,0-5.6,2.2-5.7,2.3l1.2,0.9C91.2,29.5,92.4,28,95.6,28z M52.1,76.4 c-0.6-2.1-0.2-4.6,1-6.7c1-1.7,2.6-3.3,4.7-4.7c0.5-0.3,1.1-0.7,1.6-1c1.5-0.9,2.8-1.7,3.9-2.9c1.5-1.8,2.1-4.2,2.6-7l1.5,0.3 c-0.5,2.8-1.1,5.6-2.9,7.7c-1.2,1.4-2.7,2.3-4.2,3.2c-0.5,0.3-1,0.6-1.6,0.9c-1.9,1.2-3.3,2.7-4.2,4.2c-0.7,1.2-1.1,2.6-1.1,3.9 c1.3-0.7,3-1,4.8-0.7c1.3,0.2,2.6,0.6,3.9,1c0.5,0.2,1,0.3,1.6,0.5c2.1,0.6,4.1,0.9,6,0.8c-2.6-1.9-4.2-3.1-4.3-3.2l-1-0.7l1-0.6 c0.6-0.3,1.7-0.7,3-1.2c1.7-0.6,4.3-1.5,4.9-2.1c0.6-0.6,1-1.2,1.2-1.7c0.5-1.2,0.2-2.6-0.1-4.1c-0.4-1.8-0.8-3.7,0.2-5.3 c0.6-1,1.5-1.7,2.3-2.3c0.7-0.5,1.3-0.9,1.8-1.5c0,0,0,0,0,0c0.1-0.2,0.2-0.4,0.3-0.6l0,0c0.9-1.8,0.7-4.3-0.6-5.9 c-0.4-0.5-1-1.1-1.8-1.8c-2.6-2.4-6.3-5.8-4.6-10c1.4-3.7,5.1-3.7,6.9-3.2c0.6,0.2,1.4,0.1,2.2-0.5c3.8-2.5,8.5-11.8,8.7-16.1l0-0.5 c-0.1-0.7-0.8-1.5-1.2-1.9c-3.2-2.9-11-4.9-16.2-3.1l-0.5-1.4c5.7-2,14.1,0.2,17.7,3.4c1.2,1.1,1.6,2,1.7,2.8 c3.5,0.2,17.5,1.5,17.5,11.8V48c0,4.1-1.9,8.4-4.7,10.9c-2,1.8-4.3,2.6-6.8,2.5v4v1l9.7,5.2l0,0.4c0,0.6,0.6,13.7-8.3,26.4l-0.5,0.7 l-0.6-0.6c-7.1-6.7-19.1-15.9-26.3-21.4c-0.8,0.1-1.6,0.2-2.5,0.2c-1.8,0-3.7-0.3-5.6-0.9c-0.5-0.2-1.1-0.3-1.6-0.5 c-1.2-0.4-2.4-0.8-3.6-1c-1.8-0.3-3.4,0.1-4.4,0.9c0,0,0,0,0,0l-0.1,0c0,0-0.1,0.1-0.1,0.1l0,0L52.1,76.4z M73.2,76.7 c7.1,5.4,17.9,13.8,24.8,20.1c7.2-10.8,7.5-22,7.5-24.3l-9.8-5.2V65c-8.2-2.6-11.5-9.1-11.6-9.4L83,53.3l2.2,1.4 c2.2,1.4,8.4,4.9,11.2,5.2l0.2,0l0.7,0v0c2.1,0.1,4.1-0.6,5.8-2.1c2.6-2.3,4.2-6.1,4.2-9.8V29.1c-0.8-1.4-3.5-1.2-3.6-1.2l-0.1-1.5 c0.1,0,2.2-0.2,3.7,0.7v-0.8c0-9.1-13-10.2-16.1-10.4c-0.7,4.9-5.3,13.9-9.3,16.5c-1.3,0.8-2.4,1.1-3.5,0.7c-0.1,0-3.7-1-5,2.4 c-1.3,3.2,1.8,6,4.3,8.3c0.1,0.1,0.2,0.1,0.2,0.2l0,0c0.2,0.2,0.5,0.2,0.9-0.1c0.4-0.3,0.7-0.9,0.5-1.2l1.3-0.7 c0.6,1.1-0.1,2.4-1,3.1c-0.1,0.1-0.3,0.2-0.4,0.2c0.1,0.1,0.2,0.2,0.3,0.3c1.8,2.3,2,5.7,0.4,8.1c-1.2,2.2-0.9,5-0.4,7.5l0.2,0.9 c0.5,2.7,1,5.4,0.2,8.1C79,73.2,76.4,75.7,73.2,76.7z M71.7,75.6c0.2-0.1,0.5-0.1,0.7-0.2c3-0.9,5.3-3,6.1-5.6 c0.7-2.3,0.2-4.9-0.3-7.4L78,61.6c-0.3-1.7-0.6-3.7-0.3-5.7c-0.8,0.5-1.5,1.1-1.9,1.8c-0.7,1.2-0.4,2.7,0,4.3 c0.3,1.6,0.7,3.3,0.1,4.9c-0.4,0.9-1,1.7-1.5,2.2c-0.8,0.8-2.8,1.5-5.5,2.5c-0.6,0.2-1.1,0.4-1.6,0.6C68.2,73,69.7,74.2,71.7,75.6z"/></g></svg>