<?xml version="1.0" encoding="UTF-8"?><svg xmlns="http://www.w3.org/2000/svg" xmlns:xlink="http://www.w3.org/1999/xlink" contentScriptType="text/ecmascript" fill="#000000" width="293.8" zoomAndPan="magnify" contentStyleType="text/css" viewBox="0.0 0.0 293.8 81.2" height="81.2" preserveAspectRatio="xMidYMid meet" version="1"><g id="change1_1"><path fill="#c0c0c0" d="M0 0H293.8V81.2H0z"/></g><g id="change2_1"><path fill="#ffffff" d="M281.2 6.3L12.5 6.3 6.2 6.3 6.2 12.5 6.2 75 12.5 75 12.5 12.5 281.2 12.5z"/></g><g id="change3_1"><path opacity="0.3" d="M12.5 75L281.2 75 287.5 75 287.5 68.8 287.5 6.3 281.2 6.3 281.2 68.8 12.5 68.8z"/></g><g id="change3_2"><path d="M287.5,0H6.3H0v6.2V75v6.2h6.2h281.2h6.2V75V6.2V0H287.5z M287.5,75H6.3V6.2h281.2V75z M143.6,50.7V30.6h2.9v20.2H143.6z M143.6,30.6h-11.5v-2.9h11.5V30.6z M132.1,50.7h11.5v2.9h-11.5V50.7z M129.2,50.7V30.6h2.9v20.2H129.2z M161.6,53.6v-2.9h2.9v2.9 H161.6z M158.8,42.1h-2.9v-2.9h2.9V42.1z M161.6,39.2h-2.9v-2.9h2.9V39.2z M155.9,47.8v-2.9h2.9v2.9H155.9z M158.8,50.7v-2.9h2.9 v2.9H158.8z M153,53.6h-2.9V27.7h2.9v14.4h2.9v2.9H153V53.6z"/></g></svg>