<?xml version="1.0" encoding="UTF-8"?><svg xmlns="http://www.w3.org/2000/svg" xmlns:xlink="http://www.w3.org/1999/xlink" contentScriptType="text/ecmascript" fill="#000000" width="2390.8" zoomAndPan="magnify" contentStyleType="text/css" viewBox="0.0 0.0 2390.8 1882.2" height="1882.2" preserveAspectRatio="xMidYMid meet" version="1"><g><g><path fill="#1c3b5d" d="M 2390.785156 1882.230469 L 0 1882.230469 L 0 0 L 2390.785156 0 L 2390.785156 1882.230469"/></g><g><path fill="#22497d" d="M 2390.785156 1448.769531 L 2390.785156 433.460938 L 2373.523438 433.460938 L 2373.523438 515.570312 L 2341.34375 515.570312 L 2341.34375 433.460938 L 2289.332031 433.460938 L 2289.332031 487.253906 L 2205.140625 487.253906 L 2205.140625 569.363281 L 2130.863281 569.363281 L 2130.863281 433.460938 L 2071.433594 433.460938 L 2071.433594 512.734375 L 1989.722656 512.734375 L 1989.722656 433.460938 L 1932.78125 433.460938 L 1932.78125 507.070312 L 1863.449219 507.070312 L 1863.449219 433.460938 L 1781.738281 433.460938 L 1781.738281 467.4375 L 1667.828125 467.4375 L 1667.828125 433.460938 L 1598.496094 433.460938 L 1598.496094 532.554688 L 1531.644531 532.554688 L 1531.644531 433.460938 L 1479.648438 433.460938 L 1479.648438 487.253906 L 1383.074219 487.253906 L 1383.074219 552.375 L 1291.464844 552.375 L 1291.464844 461.769531 L 1229.5625 461.769531 L 1229.5625 509.90625 L 1175.082031 509.90625 L 1175.082031 453.28125 L 1098.324219 453.28125 L 1098.324219 521.230469 L 984.421875 521.230469 L 984.421875 433.460938 L 892.804688 433.460938 L 892.804688 475.929688 L 816.046875 475.929688 L 816.046875 433.460938 L 746.714844 433.460938 L 746.714844 473.097656 L 642.71875 473.097656 L 642.71875 543.882812 L 575.863281 543.882812 L 575.863281 433.460938 L 516.433594 433.460938 L 516.433594 492.917969 L 432.246094 492.917969 L 432.246094 433.460938 L 390.152344 433.460938 L 390.152344 470.269531 L 261.394531 470.269531 L 261.394531 560.867188 L 201.96875 560.867188 L 201.96875 433.460938 L 112.828125 433.460938 L 112.828125 484.425781 L 0 484.425781 L 0 1448.769531 L 2390.785156 1448.769531"/></g><g><path fill="#3d5d96" d="M 2390.785156 1882.230469 L 2390.785156 866.925781 L 2373.523438 866.925781 L 2373.523438 949.039062 L 2341.34375 949.039062 L 2341.34375 866.925781 L 2289.332031 866.925781 L 2289.332031 920.726562 L 2205.140625 920.726562 L 2205.140625 1002.828125 L 2130.863281 1002.828125 L 2130.863281 866.925781 L 2071.433594 866.925781 L 2071.433594 946.203125 L 1989.722656 946.203125 L 1989.722656 866.925781 L 1932.78125 866.925781 L 1932.78125 940.542969 L 1863.449219 940.542969 L 1863.449219 866.925781 L 1781.738281 866.925781 L 1781.738281 900.90625 L 1667.828125 900.90625 L 1667.828125 866.925781 L 1598.496094 866.925781 L 1598.496094 966.019531 L 1531.644531 966.019531 L 1531.644531 866.925781 L 1479.648438 866.925781 L 1479.648438 920.726562 L 1383.074219 920.726562 L 1383.074219 985.84375 L 1291.464844 985.84375 L 1291.464844 895.242188 L 1229.5625 895.242188 L 1229.5625 943.371094 L 1175.082031 943.371094 L 1175.082031 886.746094 L 1098.324219 886.746094 L 1098.324219 954.699219 L 984.421875 954.699219 L 984.421875 866.925781 L 892.804688 866.925781 L 892.804688 909.398438 L 816.046875 909.398438 L 816.046875 866.925781 L 746.714844 866.925781 L 746.714844 906.566406 L 642.71875 906.566406 L 642.71875 977.347656 L 575.863281 977.347656 L 575.863281 866.925781 L 516.433594 866.925781 L 516.433594 926.382812 L 432.246094 926.382812 L 432.246094 866.925781 L 390.152344 866.925781 L 390.152344 903.734375 L 261.394531 903.734375 L 261.394531 994.335938 L 201.96875 994.335938 L 201.96875 866.925781 L 112.828125 866.925781 L 112.828125 917.890625 L 0 917.890625 L 0 1882.230469 L 2390.785156 1882.230469"/></g><g><path fill="#8eca4d" d="M 2390.785156 1313.429688 L 1699.4375 1313.429688 L 1699.4375 1577.519531 L 2390.785156 1577.519531 L 2390.785156 1313.429688"/></g><g><path fill="#75a73f" d="M 2390.785156 1358.609375 L 2338.539062 1358.609375 L 2338.539062 1412.789062 L 2233.582031 1412.789062 L 2233.582031 1450.027344 L 2081.214844 1450.027344 L 2081.214844 1544.828125 L 2013.496094 1544.828125 L 2013.496094 1412.789062 L 1925.464844 1412.789062 L 1925.464844 1460.1875 L 1810.339844 1460.1875 L 1810.339844 1527.910156 L 1699.4375 1527.910156 L 1699.4375 1577.519531 L 2390.785156 1577.519531 L 2390.785156 1358.609375"/></g><g><path fill="#70402b" d="M 2390.785156 1577.519531 L 1699.4375 1577.519531 L 1699.4375 1882.230469 L 2390.785156 1882.230469 L 2390.785156 1577.519531"/></g><g><path fill="#874b32" d="M 2390.785156 1812.328125 L 2390.785156 1666.730469 L 2375.78125 1666.730469 L 2375.78125 1717.519531 L 2291.152344 1717.519531 L 2291.152344 1659.957031 L 2213.265625 1659.957031 L 2213.265625 1612.558594 L 2182.800781 1612.558594 L 2182.800781 1649.800781 L 2155.710938 1649.800781 L 2155.710938 1703.980469 L 2098.140625 1703.980469 L 2098.140625 1649.800781 L 2023.660156 1649.800781 L 2023.660156 1717.519531 L 1966.089844 1717.519531 L 1966.089844 1629.488281 L 1857.742188 1629.488281 L 1857.742188 1666.730469 L 1766.320312 1666.730469 L 1766.320312 1727.679688 L 1699.4375 1727.679688 L 1699.4375 1788.628906 L 1779.859375 1788.628906 L 1779.859375 1882.230469 L 1823.890625 1882.230469 L 1823.890625 1758.148438 L 1888.207031 1758.148438 L 1888.207031 1819.101562 L 1935.628906 1819.101562 L 1935.628906 1778.460938 L 2040.585938 1778.460938 L 2040.585938 1832.640625 L 2091.378906 1832.640625 L 2091.378906 1781.851562 L 2189.5625 1781.851562 L 2189.5625 1842.800781 L 2264.058594 1842.800781 L 2264.058594 1798.78125 L 2328.390625 1798.78125 L 2328.390625 1812.328125 L 2390.785156 1812.328125"/></g><g><path fill="#70402b" d="M 2225.960938 1707.871094 L 2181.101562 1707.871094 L 2181.101562 1751.890625 L 2225.960938 1751.890625 L 2225.960938 1707.871094"/></g><g><path fill="#70402b" d="M 2326.695312 1742.300781 L 2281.832031 1742.300781 L 2281.832031 1786.308594 L 2326.695312 1786.308594 L 2326.695312 1742.300781"/></g><g><path fill="#70402b" d="M 2136.230469 1751.890625 L 2091.367188 1751.890625 L 2091.367188 1795.898438 L 2136.230469 1795.898438 L 2136.230469 1751.890625"/></g><g><path fill="#70402b" d="M 1980.484375 1755.058594 L 1935.625 1755.058594 L 1935.625 1799.078125 L 1980.484375 1799.078125 L 1980.484375 1755.058594"/></g><g><path fill="#70402b" d="M 1901.476562 1663.847656 L 1856.609375 1663.847656 L 1856.609375 1707.871094 L 1901.476562 1707.871094 L 1901.476562 1663.847656"/></g><g><path fill="#70402b" d="M 1784.101562 1726.488281 L 1739.234375 1726.488281 L 1739.234375 1770.507812 L 1784.101562 1770.507812 L 1784.101562 1726.488281"/></g><g><path fill="#70402b" d="M 2220.027344 1536.890625 L 2165.863281 1536.890625 L 2165.863281 1580.902344 L 2220.027344 1580.902344 L 2220.027344 1536.890625"/></g><g><path fill="#70402b" d="M 1959.324219 1555.507812 L 1905.148438 1555.507812 L 1905.148438 1599.527344 L 1959.324219 1599.527344 L 1959.324219 1555.507812"/></g><g><path fill="#75a73f" d="M 2165.863281 1558.898438 L 2111.6875 1558.898438 L 2111.6875 1602.910156 L 2165.863281 1602.910156 L 2165.863281 1558.898438"/></g><g><path fill="#75a73f" d="M 2326.695312 1556.6875 L 2272.507812 1556.6875 L 2272.507812 1600.710938 L 2326.695312 1600.710938 L 2326.695312 1556.6875"/></g><g><path fill="#75a73f" d="M 2052.429688 1568.210938 L 1998.25 1568.210938 L 1998.25 1612.230469 L 2052.429688 1612.230469 L 2052.429688 1568.210938"/></g><g><path fill="#75a73f" d="M 1840.808594 1555.511719 L 1786.632812 1555.511719 L 1786.632812 1599.53125 L 1840.808594 1599.53125 L 1840.808594 1555.511719"/></g><g><path fill="#8eca4d" d="M 1741.964844 1577.519531 L 0 1577.519531 L 0 1313.433594 L 1741.964844 1313.433594 L 1741.964844 1577.519531"/></g><g><path fill="#75a73f" d="M 1692.109375 1382.320312 L 1692.109375 1422.941406 L 1658.265625 1422.941406 L 1658.265625 1463.582031 L 1580.390625 1463.582031 L 1580.390625 1497.441406 L 1505.890625 1497.441406 L 1505.890625 1439.882812 L 1472.035156 1439.882812 L 1472.035156 1422.941406 L 1404.3125 1422.941406 L 1404.3125 1402.632812 L 1343.363281 1402.632812 L 1343.363281 1453.421875 L 1312.894531 1453.421875 L 1312.894531 1527.910156 L 1279.039062 1527.910156 L 1279.039062 1453.421875 L 1224.859375 1453.421875 L 1224.859375 1385.699219 L 1187.625 1385.699219 L 1187.625 1480.5 L 1065.726562 1480.5 L 1065.726562 1389.089844 L 953.988281 1389.089844 L 953.988281 1456.800781 L 893.042969 1456.800781 L 893.042969 1490.660156 L 815.171875 1490.660156 L 815.171875 1446.652344 L 788.078125 1446.652344 L 788.078125 1466.960938 L 710.207031 1466.960938 L 710.207031 1358.609375 L 639.101562 1358.609375 L 639.101562 1412.792969 L 534.140625 1412.792969 L 534.140625 1450.03125 L 381.773438 1450.03125 L 381.773438 1544.839844 L 314.054688 1544.839844 L 314.054688 1412.792969 L 226.023438 1412.792969 L 226.023438 1460.191406 L 110.902344 1460.191406 L 110.902344 1527.910156 L 0 1527.910156 L 0 1577.519531 L 1741.964844 1577.519531 L 1741.964844 1382.320312 L 1692.109375 1382.320312"/></g><g><path fill="#70402b" d="M 1741.964844 1882.230469 L 0 1882.230469 L 0 1577.519531 L 1741.964844 1577.519531 L 1741.964844 1882.230469"/></g><g><path fill="#874b32" d="M 1685.34375 1734.449219 L 1741.964844 1734.449219 L 1741.964844 1703.972656 L 1705.660156 1703.972656 L 1705.660156 1609.171875 L 1610.859375 1609.171875 L 1610.859375 1663.339844 L 1505.890625 1663.339844 L 1505.890625 1577.519531 L 1468.65625 1577.519531 L 1468.65625 1649.800781 L 1421.25 1649.800781 L 1421.25 1676.890625 L 1360.304688 1676.890625 L 1360.304688 1649.800781 L 1268.878906 1649.800781 L 1268.878906 1690.429688 L 1180.847656 1690.429688 L 1180.847656 1577.519531 L 1163.921875 1577.519531 L 1163.921875 1643.03125 L 1058.957031 1643.03125 L 1058.957031 1714.132812 L 930.292969 1714.132812 L 930.292969 1659.960938 L 845.640625 1659.960938 L 845.640625 1629.492188 L 818.558594 1629.492188 L 818.558594 1734.449219 L 723.75 1734.449219 L 723.75 1666.730469 L 676.34375 1666.730469 L 676.34375 1717.519531 L 591.703125 1717.519531 L 591.703125 1659.960938 L 513.820312 1659.960938 L 513.820312 1612.558594 L 483.355469 1612.558594 L 483.355469 1649.800781 L 456.261719 1649.800781 L 456.261719 1703.972656 L 398.703125 1703.972656 L 398.703125 1649.800781 L 324.214844 1649.800781 L 324.214844 1717.519531 L 266.65625 1717.519531 L 266.65625 1629.492188 L 158.300781 1629.492188 L 158.300781 1666.730469 L 66.882812 1666.730469 L 66.882812 1727.679688 L 0 1727.679688 L 0 1788.628906 L 80.425781 1788.628906 L 80.425781 1882.230469 L 124.445312 1882.230469 L 124.445312 1758.148438 L 188.773438 1758.148438 L 188.773438 1819.101562 L 236.179688 1819.101562 L 236.179688 1778.460938 L 341.140625 1778.460938 L 341.140625 1832.640625 L 391.929688 1832.640625 L 391.929688 1781.851562 L 490.125 1781.851562 L 490.125 1842.800781 L 564.609375 1842.800781 L 564.609375 1798.78125 L 628.941406 1798.78125 L 628.941406 1812.328125 L 723.75 1812.328125 L 723.75 1778.460938 L 889.65625 1778.460938 L 889.65625 1758.148438 L 1096.199219 1758.148438 L 1096.199219 1832.640625 L 1126.675781 1832.640625 L 1126.675781 1792.011719 L 1292.582031 1792.011719 L 1292.582031 1882.230469 L 1356.914062 1882.230469 L 1356.914062 1734.449219 L 1424.636719 1734.449219 L 1424.636719 1805.550781 L 1475.421875 1805.550781 L 1475.421875 1754.761719 L 1593.929688 1754.761719 L 1593.929688 1856.339844 L 1675.191406 1856.339844 L 1675.191406 1812.328125 L 1685.34375 1812.328125 L 1685.34375 1734.449219"/></g><g><path fill="#95644d" d="M 1677.828125 1635.070312 L 1694.5625 1635.070312 L 1694.5625 1634.289062 C 1688.980469 1634.460938 1683.410156 1634.71875 1677.828125 1635.070312"/></g><g><path fill="#70402b" d="M 1577 1536.890625 L 1522.828125 1536.890625 L 1522.828125 1580.898438 L 1577 1580.898438 L 1577 1536.890625"/></g><g><path fill="#70402b" d="M 1038.640625 1536.890625 L 984.46875 1536.890625 L 984.46875 1580.898438 L 1038.640625 1580.898438 L 1038.640625 1536.890625"/></g><g><path fill="#70402b" d="M 754.230469 1536.890625 L 700.054688 1536.890625 L 700.054688 1580.898438 L 754.230469 1580.898438 L 754.230469 1536.890625"/></g><g><path fill="#70402b" d="M 526.523438 1707.871094 L 481.65625 1707.871094 L 481.65625 1751.890625 L 526.523438 1751.890625 L 526.523438 1707.871094"/></g><g><path fill="#70402b" d="M 627.25 1742.300781 L 582.390625 1742.300781 L 582.390625 1786.308594 L 627.25 1786.308594 L 627.25 1742.300781"/></g><g><path fill="#70402b" d="M 900.949219 1681.339844 L 856.085938 1681.339844 L 856.085938 1725.359375 L 900.949219 1725.359375 L 900.949219 1681.339844"/></g><g><path fill="#70402b" d="M 856.648438 1746.238281 L 811.789062 1746.238281 L 811.789062 1790.261719 L 856.648438 1790.261719 L 856.648438 1746.238281"/></g><g><path fill="#70402b" d="M 1024.25 1695.449219 L 979.390625 1695.449219 L 979.390625 1739.46875 L 1024.25 1739.46875 L 1024.25 1695.449219"/></g><g><path fill="#70402b" d="M 1159.691406 1707.871094 L 1114.820312 1707.871094 L 1114.820312 1751.890625 L 1159.691406 1751.890625 L 1159.691406 1707.871094"/></g><g><path fill="#70402b" d="M 1235.871094 1729.878906 L 1191.011719 1729.878906 L 1191.011719 1773.890625 L 1235.871094 1773.890625 L 1235.871094 1729.878906"/></g><g><path fill="#70402b" d="M 1341.679688 1673.449219 L 1296.820312 1673.449219 L 1296.820312 1717.460938 L 1341.679688 1717.460938 L 1341.679688 1673.449219"/></g><g><path fill="#70402b" d="M 1458.070312 1688.679688 L 1413.210938 1688.679688 L 1413.210938 1732.699219 L 1458.070312 1732.699219 L 1458.070312 1688.679688"/></g><g><path fill="#70402b" d="M 1638.65625 1673.449219 L 1593.789062 1673.449219 L 1593.789062 1717.460938 L 1638.65625 1717.460938 L 1638.65625 1673.449219"/></g><g><path fill="#70402b" d="M 1673.082031 1751.890625 L 1628.214844 1751.890625 L 1628.214844 1795.898438 L 1673.082031 1795.898438 L 1673.082031 1751.890625"/></g><g><path fill="#70402b" d="M 1567.691406 1729.878906 L 1522.828125 1729.878906 L 1522.828125 1773.890625 L 1567.691406 1773.890625 L 1567.691406 1729.878906"/></g><g><path fill="#70402b" d="M 1373.5 1801.550781 L 1328.640625 1801.550781 L 1328.640625 1845.558594 L 1373.5 1845.558594 L 1373.5 1801.550781"/></g><g><path fill="#70402b" d="M 436.792969 1751.890625 L 391.933594 1751.890625 L 391.933594 1795.898438 L 436.792969 1795.898438 L 436.792969 1751.890625"/></g><g><path fill="#70402b" d="M 281.042969 1755.058594 L 236.179688 1755.058594 L 236.179688 1799.078125 L 281.042969 1799.078125 L 281.042969 1755.058594"/></g><g><path fill="#70402b" d="M 202.035156 1663.851562 L 157.175781 1663.851562 L 157.175781 1707.871094 L 202.035156 1707.871094 L 202.035156 1663.851562"/></g><g><path fill="#70402b" d="M 84.660156 1726.488281 L 39.796875 1726.488281 L 39.796875 1770.511719 L 84.660156 1770.511719 L 84.660156 1726.488281"/></g><g><path fill="#70402b" d="M 520.59375 1536.890625 L 466.417969 1536.890625 L 466.417969 1580.898438 L 520.59375 1580.898438 L 520.59375 1536.890625"/></g><g><path fill="#70402b" d="M 1201.171875 1556.691406 L 1146.988281 1556.691406 L 1146.988281 1600.710938 L 1201.171875 1600.710938 L 1201.171875 1556.691406"/></g><g><path fill="#70402b" d="M 1378.160156 1555.511719 L 1323.980469 1555.511719 L 1323.980469 1599.53125 L 1378.160156 1599.53125 L 1378.160156 1555.511719"/></g><g><path fill="#70402b" d="M 259.882812 1555.511719 L 205.707031 1555.511719 L 205.707031 1599.53125 L 259.882812 1599.53125 L 259.882812 1555.511719"/></g><g><path fill="#75a73f" d="M 466.417969 1558.898438 L 412.242188 1558.898438 L 412.242188 1602.910156 L 466.417969 1602.910156 L 466.417969 1558.898438"/></g><g><path fill="#75a73f" d="M 627.25 1556.691406 L 573.074219 1556.691406 L 573.074219 1600.710938 L 627.25 1600.710938 L 627.25 1556.691406"/></g><g><path fill="#75a73f" d="M 838.871094 1568.210938 L 784.695312 1568.210938 L 784.695312 1612.230469 L 838.871094 1612.230469 L 838.871094 1568.210938"/></g><g><path fill="#75a73f" d="M 948.914062 1556.691406 L 894.738281 1556.691406 L 894.738281 1600.710938 L 948.914062 1600.710938 L 948.914062 1556.691406"/></g><g><path fill="#75a73f" d="M 1146.988281 1568.210938 L 1092.820312 1568.210938 L 1092.820312 1612.230469 L 1146.988281 1612.230469 L 1146.988281 1568.210938"/></g><g><path fill="#75a73f" d="M 1296.820312 1568.210938 L 1242.640625 1568.210938 L 1242.640625 1612.230469 L 1296.820312 1612.230469 L 1296.820312 1568.210938"/></g><g><path fill="#75a73f" d="M 1462.730469 1568.210938 L 1408.550781 1568.210938 L 1408.550781 1612.230469 L 1462.730469 1612.230469 L 1462.730469 1568.210938"/></g><g><path fill="#75a73f" d="M 1662.503906 1541.96875 L 1608.324219 1541.96875 L 1608.324219 1585.988281 L 1662.503906 1585.988281 L 1662.503906 1541.96875"/></g><g><path fill="#75a73f" d="M 352.992188 1568.210938 L 298.816406 1568.210938 L 298.816406 1612.230469 L 352.992188 1612.230469 L 352.992188 1568.210938"/></g><g><path fill="#75a73f" d="M 141.371094 1555.511719 L 87.195312 1555.511719 L 87.195312 1599.53125 L 141.371094 1599.53125 L 141.371094 1555.511719"/></g><g><path fill="#4d9544" d="M 396.367188 1309.449219 L 402.640625 1309.449219 L 402.640625 1296.730469 L 396.367188 1296.730469 L 396.367188 1309.449219"/></g><g><path fill="#4d9544" d="M 415.175781 1296.730469 L 421.445312 1296.730469 L 421.445312 1284.011719 L 415.175781 1284.011719 L 415.175781 1296.730469"/></g><g><path fill="#8eca4d" d="M 239.613281 1207.679688 L 245.878906 1207.679688 L 245.878906 1194.960938 L 239.613281 1194.960938 L 239.613281 1207.679688"/></g><g><path fill="#4d9544" d="M 89.128906 1182.230469 L 95.398438 1182.230469 L 95.398438 1169.511719 L 89.128906 1169.511719 L 89.128906 1182.230469"/></g><g><path fill="#4d9544" d="M 440.253906 1169.511719 L 446.527344 1169.511719 L 446.527344 1156.789062 L 440.253906 1156.789062 L 440.253906 1169.511719"/></g><g><path fill="#488959" d="M 408.90625 1156.789062 L 415.175781 1156.789062 L 415.175781 1144.070312 L 408.90625 1144.070312 L 408.90625 1156.789062"/></g><g><path fill="#8eca4d" d="M 126.746094 1156.789062 L 133.019531 1156.789062 L 133.019531 1144.070312 L 126.746094 1144.070312 L 126.746094 1156.789062"/></g><g><path fill="#4d9544" d="M 107.9375 1144.070312 L 114.210938 1144.070312 L 114.210938 1131.351562 L 107.9375 1131.351562 L 107.9375 1144.070312"/></g><g><path fill="#4d9544" d="M 95.398438 1233.121094 L 114.210938 1233.121094 L 114.210938 1245.839844 L 101.664062 1245.839844 L 101.664062 1284.011719 L 107.9375 1284.011719 L 107.9375 1296.730469 L 120.476562 1296.730469 L 120.476562 1309.449219 L 164.371094 1309.449219 L 164.371094 1309.890625 L 371.285156 1309.890625 L 371.285156 1309.449219 L 396.367188 1309.449219 L 396.367188 1296.730469 L 346.207031 1296.730469 L 346.207031 1284.011719 L 333.664062 1284.011719 L 333.664062 1271.289062 L 327.398438 1271.289062 L 327.398438 1258.558594 L 321.121094 1258.558594 L 321.121094 1284.011719 L 308.585938 1284.011719 L 308.585938 1296.730469 L 258.425781 1296.730469 L 258.425781 1284.011719 L 245.878906 1284.011719 L 245.878906 1271.289062 L 239.613281 1271.289062 L 239.613281 1258.558594 L 176.910156 1258.558594 L 176.910156 1245.839844 L 164.371094 1245.839844 L 164.371094 1233.121094 L 151.824219 1233.121094 L 151.824219 1194.960938 L 133.019531 1194.960938 L 133.019531 1182.230469 L 114.210938 1182.230469 L 114.210938 1169.511719 L 107.9375 1169.511719 L 107.9375 1156.789062 L 101.664062 1156.789062 L 101.664062 1169.511719 L 95.398438 1169.511719 L 95.398438 1182.230469 L 89.128906 1182.230469 L 89.128906 1220.398438 L 95.398438 1220.398438 L 95.398438 1233.121094"/></g><g><path fill="#4d9544" d="M 270.960938 1258.558594 L 264.691406 1258.558594 L 264.691406 1271.289062 L 283.503906 1271.289062 L 283.503906 1258.558594 L 270.960938 1258.558594"/></g><g><path fill="#4d9544" d="M 164.371094 1194.960938 L 164.371094 1182.230469 L 151.824219 1182.230469 L 151.824219 1194.960938 L 164.371094 1194.960938"/></g><g><path fill="#4d9544" d="M 321.121094 1182.230469 L 377.558594 1182.230469 L 377.558594 1169.511719 L 314.851562 1169.511719 L 314.851562 1182.230469 L 321.121094 1182.230469"/></g><g><path fill="#4d9544" d="M 208.265625 1144.070312 L 270.960938 1144.070312 L 270.960938 1131.351562 L 201.992188 1131.351562 L 201.992188 1144.070312 L 208.265625 1144.070312"/></g><g><path fill="#8eca4d" d="M 383.828125 1233.121094 L 371.285156 1233.121094 L 371.285156 1258.558594 L 390.09375 1258.558594 L 390.09375 1233.121094 L 383.828125 1233.121094"/></g><g><path fill="#8eca4d" d="M 183.183594 1233.121094 L 176.910156 1233.121094 L 176.910156 1258.558594 L 195.71875 1258.558594 L 195.71875 1233.121094 L 183.183594 1233.121094"/></g><g><path fill="#8eca4d" d="M 245.878906 1182.230469 L 239.613281 1182.230469 L 239.613281 1194.960938 L 245.878906 1194.960938 L 245.878906 1207.679688 L 258.425781 1207.679688 L 258.425781 1182.230469 L 245.878906 1182.230469"/></g><g><path fill="#8eca4d" d="M 314.851562 1105.898438 L 308.585938 1105.898438 L 308.585938 1118.621094 L 327.398438 1118.621094 L 327.398438 1105.898438 L 314.851562 1105.898438"/></g><g><path fill="#4d9544" d="M 120.476562 1118.621094 L 126.746094 1118.621094 L 126.746094 1105.898438 L 120.476562 1105.898438 L 120.476562 1118.621094"/></g><g><path fill="#8eca4d" d="M 333.664062 1093.179688 L 339.933594 1093.179688 L 339.933594 1080.460938 L 333.664062 1080.460938 L 333.664062 1093.179688"/></g><g><path fill="#49885b" d="M 145.558594 1093.179688 L 151.832031 1093.179688 L 151.832031 1080.460938 L 145.558594 1080.460938 L 145.558594 1093.179688"/></g><g><path fill="#4d9544" d="M 170.640625 1080.460938 L 176.910156 1080.460938 L 176.910156 1067.738281 L 170.640625 1067.738281 L 170.640625 1080.460938"/></g><g><path fill="#8eca4d" d="M 264.691406 1258.558594 L 283.503906 1258.558594 L 283.503906 1271.289062 L 264.691406 1271.289062 Z M 327.398438 1118.621094 L 308.585938 1118.621094 L 308.585938 1105.898438 L 327.398438 1105.898438 Z M 371.285156 1245.839844 L 371.285156 1233.121094 L 390.09375 1233.121094 L 390.09375 1258.558594 L 371.285156 1258.558594 Z M 214.53125 1131.351562 L 270.960938 1131.351562 L 270.960938 1144.070312 L 201.992188 1144.070312 L 201.992188 1131.351562 Z M 239.613281 1194.960938 L 239.613281 1182.230469 L 258.425781 1182.230469 L 258.425781 1207.679688 L 239.613281 1207.679688 Z M 314.851562 1169.511719 L 377.558594 1169.511719 L 377.558594 1182.230469 L 314.851562 1182.230469 Z M 433.988281 1169.511719 L 433.988281 1156.789062 L 408.90625 1156.789062 L 408.90625 1105.898438 L 402.640625 1105.898438 L 402.640625 1093.179688 L 390.09375 1093.179688 L 390.09375 1080.460938 L 339.933594 1080.460938 L 339.933594 1093.179688 L 333.664062 1093.179688 L 333.664062 1080.460938 L 339.933594 1080.460938 L 339.933594 1067.738281 L 333.664062 1067.738281 L 333.664062 1055.011719 L 321.121094 1055.011719 L 321.121094 1042.289062 L 264.691406 1042.289062 L 264.691406 1055.011719 L 258.425781 1055.011719 L 258.425781 1042.289062 L 220.800781 1042.289062 L 220.800781 1055.011719 L 201.992188 1055.011719 L 201.992188 1067.738281 L 195.71875 1067.738281 L 195.71875 1093.179688 L 183.183594 1093.179688 L 183.183594 1080.460938 L 151.824219 1080.460938 L 151.824219 1093.179688 L 133.019531 1093.179688 L 133.019531 1105.898438 L 126.746094 1105.898438 L 126.746094 1118.621094 L 120.476562 1118.621094 L 120.476562 1144.070312 L 133.019531 1144.070312 L 133.019531 1156.789062 L 107.9375 1156.789062 L 107.9375 1169.511719 L 114.210938 1169.511719 L 114.210938 1182.230469 L 133.019531 1182.230469 L 133.019531 1194.960938 L 151.824219 1194.960938 L 151.824219 1182.230469 L 164.371094 1182.230469 L 164.371094 1194.960938 L 151.824219 1194.960938 L 151.824219 1233.121094 L 164.371094 1233.121094 L 164.371094 1245.839844 L 176.910156 1245.839844 L 176.910156 1233.121094 L 195.71875 1233.121094 L 195.71875 1258.558594 L 239.613281 1258.558594 L 239.613281 1271.289062 L 245.878906 1271.289062 L 245.878906 1284.011719 L 258.425781 1284.011719 L 258.425781 1296.730469 L 308.585938 1296.730469 L 308.585938 1284.011719 L 321.121094 1284.011719 L 321.121094 1258.558594 L 327.398438 1258.558594 L 327.398438 1271.289062 L 333.664062 1271.289062 L 333.664062 1284.011719 L 346.207031 1284.011719 L 346.207031 1296.730469 L 415.175781 1296.730469 L 415.175781 1284.011719 L 427.71875 1284.011719 L 427.71875 1245.839844 L 421.445312 1245.839844 L 421.445312 1233.121094 L 427.71875 1233.121094 L 427.71875 1220.398438 L 440.253906 1220.398438 L 440.253906 1169.511719 L 433.988281 1169.511719"/></g><g><path fill="#4d9544" d="M 452.800781 1207.679688 L 452.800781 1169.511719 L 440.253906 1169.511719 L 440.253906 1207.679688 L 446.527344 1207.679688 L 446.527344 1182.230469 L 446.527344 1207.679688 L 440.253906 1207.679688 L 440.253906 1220.398438 L 452.800781 1220.398438 L 452.800781 1207.679688"/></g><g><path fill="#4d9544" d="M 314.851562 1029.570312 L 264.691406 1029.570312 L 264.691406 1042.289062 L 321.121094 1042.289062 L 321.121094 1029.570312 L 314.851562 1029.570312"/></g><g><path fill="#4d9544" d="M 120.476562 1309.449219 L 120.476562 1309.890625 L 158.105469 1309.890625 L 158.105469 1309.449219 L 120.476562 1309.449219 L 120.476562 1296.730469 L 107.9375 1296.730469 L 107.9375 1309.449219 L 120.476562 1309.449219"/></g><g><path fill="#4d9544" d="M 383.828125 1309.890625 L 383.828125 1309.449219 L 371.285156 1309.449219 L 371.285156 1309.890625 L 383.828125 1309.890625"/></g><g><path fill="#4d9544" d="M 402.640625 1296.730469 L 402.640625 1309.449219 L 415.175781 1309.449219 L 415.175781 1296.730469 L 402.640625 1296.730469"/></g><g><path fill="#4d9544" d="M 101.664062 1284.011719 L 101.664062 1245.839844 L 114.210938 1245.839844 L 114.210938 1233.121094 L 95.398438 1233.121094 L 95.398438 1245.839844 L 89.128906 1245.839844 L 89.128906 1284.011719 L 95.398438 1284.011719 L 95.398438 1296.730469 L 107.9375 1296.730469 L 107.9375 1284.011719 L 101.664062 1284.011719"/></g><g><path fill="#4d9544" d="M 427.71875 1220.398438 L 427.71875 1233.121094 L 421.445312 1233.121094 L 421.445312 1245.839844 L 427.71875 1245.839844 L 427.71875 1284.011719 L 421.445312 1284.011719 L 421.445312 1296.730469 L 433.988281 1296.730469 L 433.988281 1284.011719 L 440.253906 1284.011719 L 440.253906 1245.839844 L 433.988281 1245.839844 L 433.988281 1233.121094 L 440.253906 1233.121094 L 440.253906 1220.398438 L 427.71875 1220.398438"/></g><g><path fill="#4d9544" d="M 89.128906 1220.398438 L 89.128906 1169.511719 L 82.859375 1169.511719 L 82.859375 1182.230469 L 76.585938 1182.230469 L 76.585938 1220.398438 L 82.859375 1220.398438 L 82.859375 1233.121094 L 95.398438 1233.121094 L 95.398438 1220.398438 L 89.128906 1220.398438"/></g><g><path fill="#4d9544" d="M 433.988281 1156.789062 L 433.988281 1169.511719 L 440.253906 1169.511719 L 440.253906 1156.789062 L 433.988281 1156.789062"/></g><g><path fill="#4d9544" d="M 101.664062 1169.511719 L 101.664062 1156.789062 L 126.746094 1156.789062 L 126.746094 1144.070312 L 120.476562 1144.070312 L 120.476562 1105.898438 L 114.210938 1105.898438 L 114.210938 1118.621094 L 107.9375 1118.621094 L 107.9375 1131.351562 L 114.210938 1131.351562 L 114.210938 1144.070312 L 101.664062 1144.070312 L 101.664062 1156.789062 L 89.128906 1156.789062 L 89.128906 1169.511719 L 101.664062 1169.511719"/></g><g><path fill="#4d9544" d="M 427.71875 1144.070312 L 415.175781 1144.070312 L 415.175781 1156.789062 L 433.988281 1156.789062 L 433.988281 1144.070312 L 427.71875 1144.070312"/></g><g><path fill="#4d9544" d="M 421.445312 1131.351562 L 421.445312 1118.621094 L 415.175781 1118.621094 L 415.175781 1093.179688 L 408.90625 1093.179688 L 408.90625 1080.460938 L 390.09375 1080.460938 L 390.09375 1093.179688 L 402.640625 1093.179688 L 402.640625 1105.898438 L 408.90625 1105.898438 L 408.90625 1144.070312 L 415.175781 1144.070312 L 415.175781 1131.351562 L 421.445312 1131.351562"/></g><g><path fill="#4d9544" d="M 133.019531 1105.898438 L 133.019531 1093.179688 L 120.476562 1093.179688 L 120.476562 1105.898438 L 133.019531 1105.898438"/></g><g><path fill="#4d9544" d="M 145.558594 1093.179688 L 145.558594 1080.460938 L 133.019531 1080.460938 L 133.019531 1093.179688 L 145.558594 1093.179688"/></g><g><path fill="#4d9544" d="M 383.828125 1067.738281 L 346.199219 1067.738281 L 346.199219 1055.011719 L 339.933594 1055.011719 L 339.933594 1042.289062 L 321.121094 1042.289062 L 321.121094 1055.011719 L 333.664062 1055.011719 L 333.664062 1067.738281 L 339.933594 1067.738281 L 339.933594 1080.460938 L 390.09375 1080.460938 L 390.09375 1067.738281 L 383.828125 1067.738281"/></g><g><path fill="#4d9544" d="M 158.105469 1067.738281 L 151.824219 1067.738281 L 151.824219 1080.460938 L 170.640625 1080.460938 L 170.640625 1067.738281 L 158.105469 1067.738281"/></g><g><path fill="#4d9544" d="M 258.425781 1055.011719 L 264.691406 1055.011719 L 264.691406 1042.289062 L 258.425781 1042.289062 L 258.425781 1055.011719"/></g><g><path fill="#4d9544" d="M 208.265625 1042.289062 L 195.71875 1042.289062 L 195.71875 1055.011719 L 189.453125 1055.011719 L 189.453125 1067.738281 L 183.183594 1067.738281 L 183.183594 1093.179688 L 195.71875 1093.179688 L 195.71875 1067.738281 L 201.992188 1067.738281 L 201.992188 1055.011719 L 220.800781 1055.011719 L 220.800781 1042.289062 L 208.265625 1042.289062"/></g><g><path fill="#4d9544" d="M 239.613281 1042.289062 L 252.152344 1042.289062 L 252.152344 1029.570312 L 227.070312 1029.570312 L 227.070312 1042.289062 L 239.613281 1042.289062"/></g><g><path fill="#4d9544" d="M 1034.191406 1308.890625 L 1040.460938 1308.890625 L 1040.460938 1296.171875 L 1034.191406 1296.171875 L 1034.191406 1308.890625"/></g><g><path fill="#4d9544" d="M 1053 1296.171875 L 1059.269531 1296.171875 L 1059.269531 1283.449219 L 1053 1283.449219 L 1053 1296.171875"/></g><g><path fill="#8eca4d" d="M 877.433594 1207.121094 L 883.707031 1207.121094 L 883.707031 1194.398438 L 877.433594 1194.398438 L 877.433594 1207.121094"/></g><g><path fill="#4d9544" d="M 726.953125 1181.679688 L 733.21875 1181.679688 L 733.21875 1168.949219 L 726.953125 1168.949219 L 726.953125 1181.679688"/></g><g><path fill="#4d9544" d="M 1078.078125 1168.949219 L 1084.351562 1168.949219 L 1084.351562 1156.230469 L 1078.078125 1156.230469 L 1078.078125 1168.949219"/></g><g><path fill="#488959" d="M 1046.730469 1156.230469 L 1053 1156.230469 L 1053 1143.511719 L 1046.730469 1143.511719 L 1046.730469 1156.230469"/></g><g><path fill="#8eca4d" d="M 764.574219 1156.230469 L 770.84375 1156.230469 L 770.84375 1143.511719 L 764.574219 1143.511719 L 764.574219 1156.230469"/></g><g><path fill="#4d9544" d="M 745.765625 1143.511719 L 752.03125 1143.511719 L 752.03125 1130.789062 L 745.765625 1130.789062 L 745.765625 1143.511719"/></g><g><path fill="#4d9544" d="M 733.21875 1232.558594 L 752.03125 1232.558594 L 752.03125 1245.28125 L 739.492188 1245.28125 L 739.492188 1283.449219 L 745.765625 1283.449219 L 745.765625 1296.171875 L 758.300781 1296.171875 L 758.300781 1308.890625 L 802.191406 1308.890625 L 802.191406 1309.328125 L 1009.109375 1309.328125 L 1009.109375 1308.890625 L 1034.191406 1308.890625 L 1034.191406 1296.171875 L 984.027344 1296.171875 L 984.027344 1283.449219 L 971.488281 1283.449219 L 971.488281 1270.730469 L 965.21875 1270.730469 L 965.21875 1258.011719 L 958.949219 1258.011719 L 958.949219 1283.449219 L 946.40625 1283.449219 L 946.40625 1296.171875 L 896.246094 1296.171875 L 896.246094 1283.449219 L 883.703125 1283.449219 L 883.703125 1270.730469 L 877.433594 1270.730469 L 877.433594 1258.011719 L 814.734375 1258.011719 L 814.734375 1245.28125 L 802.191406 1245.28125 L 802.191406 1232.558594 L 789.652344 1232.558594 L 789.652344 1194.398438 L 770.84375 1194.398438 L 770.84375 1181.679688 L 752.03125 1181.679688 L 752.03125 1168.949219 L 745.765625 1168.949219 L 745.765625 1156.230469 L 739.492188 1156.230469 L 739.492188 1168.949219 L 733.21875 1168.949219 L 733.21875 1181.679688 L 726.953125 1181.679688 L 726.953125 1219.839844 L 733.21875 1219.839844 L 733.21875 1232.558594"/></g><g><path fill="#4d9544" d="M 908.785156 1258.011719 L 902.515625 1258.011719 L 902.515625 1270.730469 L 921.328125 1270.730469 L 921.328125 1258.011719 L 908.785156 1258.011719"/></g><g><path fill="#4d9544" d="M 802.191406 1194.398438 L 802.191406 1181.679688 L 789.652344 1181.679688 L 789.652344 1194.398438 L 802.191406 1194.398438"/></g><g><path fill="#4d9544" d="M 958.949219 1181.679688 L 1015.378906 1181.679688 L 1015.378906 1168.949219 L 952.675781 1168.949219 L 952.675781 1181.679688 L 958.949219 1181.679688"/></g><g><path fill="#4d9544" d="M 846.085938 1143.511719 L 908.785156 1143.511719 L 908.785156 1130.789062 L 839.8125 1130.789062 L 839.8125 1143.511719 L 846.085938 1143.511719"/></g><g><path fill="#8eca4d" d="M 1021.648438 1232.558594 L 1009.109375 1232.558594 L 1009.109375 1258.011719 L 1027.921875 1258.011719 L 1027.921875 1232.558594 L 1021.648438 1232.558594"/></g><g><path fill="#8eca4d" d="M 821.007812 1232.558594 L 814.734375 1232.558594 L 814.734375 1258.011719 L 833.539062 1258.011719 L 833.539062 1232.558594 L 821.007812 1232.558594"/></g><g><path fill="#8eca4d" d="M 883.707031 1181.679688 L 877.433594 1181.679688 L 877.433594 1194.398438 L 883.707031 1194.398438 L 883.707031 1207.121094 L 896.246094 1207.121094 L 896.246094 1181.679688 L 883.707031 1181.679688"/></g><g><path fill="#8eca4d" d="M 952.675781 1105.339844 L 946.40625 1105.339844 L 946.40625 1118.070312 L 965.21875 1118.070312 L 965.21875 1105.339844 L 952.675781 1105.339844"/></g><g><path fill="#4d9544" d="M 758.300781 1118.070312 L 764.574219 1118.070312 L 764.574219 1105.339844 L 758.300781 1105.339844 L 758.300781 1118.070312"/></g><g><path fill="#8eca4d" d="M 971.488281 1092.621094 L 977.757812 1092.621094 L 977.757812 1079.898438 L 971.488281 1079.898438 L 971.488281 1092.621094"/></g><g><path fill="#49885b" d="M 783.382812 1092.621094 L 789.652344 1092.621094 L 789.652344 1079.898438 L 783.382812 1079.898438 L 783.382812 1092.621094"/></g><g><path fill="#4d9544" d="M 808.460938 1079.898438 L 814.734375 1079.898438 L 814.734375 1067.179688 L 808.460938 1067.179688 L 808.460938 1079.898438"/></g><g><path fill="#8eca4d" d="M 902.515625 1258.011719 L 921.328125 1258.011719 L 921.328125 1270.730469 L 902.515625 1270.730469 Z M 965.21875 1118.070312 L 946.40625 1118.070312 L 946.40625 1105.339844 L 965.21875 1105.339844 Z M 1009.109375 1245.28125 L 1009.109375 1232.558594 L 1027.921875 1232.558594 L 1027.921875 1258.011719 L 1009.109375 1258.011719 Z M 852.355469 1130.789062 L 908.785156 1130.789062 L 908.785156 1143.511719 L 839.8125 1143.511719 L 839.8125 1130.789062 Z M 877.433594 1194.398438 L 877.433594 1181.679688 L 896.246094 1181.679688 L 896.246094 1207.121094 L 877.433594 1207.121094 Z M 952.675781 1168.949219 L 1015.378906 1168.949219 L 1015.378906 1181.679688 L 952.675781 1181.679688 Z M 1071.808594 1168.949219 L 1071.808594 1156.230469 L 1046.730469 1156.230469 L 1046.730469 1105.339844 L 1040.460938 1105.339844 L 1040.460938 1092.621094 L 1027.921875 1092.621094 L 1027.921875 1079.898438 L 977.757812 1079.898438 L 977.757812 1092.621094 L 971.488281 1092.621094 L 971.488281 1079.898438 L 977.757812 1079.898438 L 977.757812 1067.179688 L 971.488281 1067.179688 L 971.488281 1054.460938 L 958.949219 1054.460938 L 958.949219 1041.738281 L 902.515625 1041.738281 L 902.515625 1054.460938 L 896.246094 1054.460938 L 896.246094 1041.738281 L 858.625 1041.738281 L 858.625 1054.460938 L 839.8125 1054.460938 L 839.8125 1067.179688 L 833.539062 1067.179688 L 833.539062 1092.621094 L 821.007812 1092.621094 L 821.007812 1079.898438 L 789.652344 1079.898438 L 789.652344 1092.621094 L 770.84375 1092.621094 L 770.84375 1105.339844 L 764.574219 1105.339844 L 764.574219 1118.070312 L 758.300781 1118.070312 L 758.300781 1143.511719 L 770.84375 1143.511719 L 770.84375 1156.230469 L 745.765625 1156.230469 L 745.765625 1168.949219 L 752.03125 1168.949219 L 752.03125 1181.679688 L 770.84375 1181.679688 L 770.84375 1194.398438 L 789.652344 1194.398438 L 789.652344 1181.679688 L 802.191406 1181.679688 L 802.191406 1194.398438 L 789.652344 1194.398438 L 789.652344 1232.558594 L 802.191406 1232.558594 L 802.191406 1245.28125 L 814.734375 1245.28125 L 814.734375 1232.558594 L 833.539062 1232.558594 L 833.539062 1258.011719 L 877.433594 1258.011719 L 877.433594 1270.730469 L 883.707031 1270.730469 L 883.707031 1283.449219 L 896.246094 1283.449219 L 896.246094 1296.171875 L 946.40625 1296.171875 L 946.40625 1283.449219 L 958.949219 1283.449219 L 958.949219 1258.011719 L 965.21875 1258.011719 L 965.21875 1270.730469 L 971.488281 1270.730469 L 971.488281 1283.449219 L 984.027344 1283.449219 L 984.027344 1296.171875 L 1053 1296.171875 L 1053 1283.449219 L 1065.539062 1283.449219 L 1065.539062 1245.28125 L 1059.269531 1245.28125 L 1059.269531 1232.558594 L 1065.539062 1232.558594 L 1065.539062 1219.839844 L 1078.078125 1219.839844 L 1078.078125 1168.949219 L 1071.808594 1168.949219"/></g><g><path fill="#4d9544" d="M 1090.621094 1207.121094 L 1090.621094 1168.949219 L 1078.078125 1168.949219 L 1078.078125 1207.121094 L 1084.351562 1207.121094 L 1084.351562 1181.679688 L 1084.351562 1207.121094 L 1078.078125 1207.121094 L 1078.078125 1219.839844 L 1090.621094 1219.839844 L 1090.621094 1207.121094"/></g><g><path fill="#4d9544" d="M 952.675781 1029.011719 L 902.515625 1029.011719 L 902.515625 1041.738281 L 958.949219 1041.738281 L 958.949219 1029.011719 L 952.675781 1029.011719"/></g><g><path fill="#4d9544" d="M 758.300781 1308.890625 L 758.300781 1309.328125 L 795.925781 1309.328125 L 795.925781 1308.890625 L 758.300781 1308.890625 L 758.300781 1296.171875 L 745.765625 1296.171875 L 745.765625 1308.890625 L 758.300781 1308.890625"/></g><g><path fill="#4d9544" d="M 1021.648438 1309.328125 L 1021.648438 1308.890625 L 1009.109375 1308.890625 L 1009.109375 1309.328125 L 1021.648438 1309.328125"/></g><g><path fill="#4d9544" d="M 1040.460938 1296.171875 L 1040.460938 1308.890625 L 1053 1308.890625 L 1053 1296.171875 L 1040.460938 1296.171875"/></g><g><path fill="#4d9544" d="M 739.492188 1283.449219 L 739.492188 1245.28125 L 752.03125 1245.28125 L 752.03125 1232.558594 L 733.21875 1232.558594 L 733.21875 1245.28125 L 726.953125 1245.28125 L 726.953125 1283.449219 L 733.21875 1283.449219 L 733.21875 1296.171875 L 745.765625 1296.171875 L 745.765625 1283.449219 L 739.492188 1283.449219"/></g><g><path fill="#4d9544" d="M 1065.539062 1219.839844 L 1065.539062 1232.558594 L 1059.269531 1232.558594 L 1059.269531 1245.28125 L 1065.539062 1245.28125 L 1065.539062 1283.449219 L 1059.269531 1283.449219 L 1059.269531 1296.171875 L 1071.808594 1296.171875 L 1071.808594 1283.449219 L 1078.078125 1283.449219 L 1078.078125 1245.28125 L 1071.808594 1245.28125 L 1071.808594 1232.558594 L 1078.078125 1232.558594 L 1078.078125 1219.839844 L 1065.539062 1219.839844"/></g><g><path fill="#4d9544" d="M 726.953125 1219.839844 L 726.953125 1168.949219 L 720.683594 1168.949219 L 720.683594 1181.679688 L 714.410156 1181.679688 L 714.410156 1219.839844 L 720.683594 1219.839844 L 720.683594 1232.558594 L 733.21875 1232.558594 L 733.21875 1219.839844 L 726.953125 1219.839844"/></g><g><path fill="#4d9544" d="M 1071.808594 1156.230469 L 1071.808594 1168.949219 L 1078.078125 1168.949219 L 1078.078125 1156.230469 L 1071.808594 1156.230469"/></g><g><path fill="#4d9544" d="M 739.492188 1168.949219 L 739.492188 1156.230469 L 764.574219 1156.230469 L 764.574219 1143.511719 L 758.300781 1143.511719 L 758.300781 1105.339844 L 752.03125 1105.339844 L 752.03125 1118.070312 L 745.765625 1118.070312 L 745.765625 1130.789062 L 752.03125 1130.789062 L 752.03125 1143.511719 L 739.492188 1143.511719 L 739.492188 1156.230469 L 726.953125 1156.230469 L 726.953125 1168.949219 L 739.492188 1168.949219"/></g><g><path fill="#4d9544" d="M 1065.539062 1143.511719 L 1053 1143.511719 L 1053 1156.230469 L 1071.808594 1156.230469 L 1071.808594 1143.511719 L 1065.539062 1143.511719"/></g><g><path fill="#4d9544" d="M 1059.269531 1130.789062 L 1059.269531 1118.070312 L 1053 1118.070312 L 1053 1092.621094 L 1046.730469 1092.621094 L 1046.730469 1079.898438 L 1027.921875 1079.898438 L 1027.921875 1092.621094 L 1040.460938 1092.621094 L 1040.460938 1105.339844 L 1046.730469 1105.339844 L 1046.730469 1143.511719 L 1053 1143.511719 L 1053 1130.789062 L 1059.269531 1130.789062"/></g><g><path fill="#4d9544" d="M 770.84375 1105.339844 L 770.84375 1092.621094 L 758.300781 1092.621094 L 758.300781 1105.339844 L 770.84375 1105.339844"/></g><g><path fill="#4d9544" d="M 783.382812 1092.621094 L 783.382812 1079.898438 L 770.84375 1079.898438 L 770.84375 1092.621094 L 783.382812 1092.621094"/></g><g><path fill="#4d9544" d="M 1021.648438 1067.179688 L 984.027344 1067.179688 L 984.027344 1054.460938 L 977.757812 1054.460938 L 977.757812 1041.738281 L 958.949219 1041.738281 L 958.949219 1054.460938 L 971.488281 1054.460938 L 971.488281 1067.179688 L 977.757812 1067.179688 L 977.757812 1079.898438 L 1027.921875 1079.898438 L 1027.921875 1067.179688 L 1021.648438 1067.179688"/></g><g><path fill="#4d9544" d="M 795.925781 1067.179688 L 789.652344 1067.179688 L 789.652344 1079.898438 L 808.460938 1079.898438 L 808.460938 1067.179688 L 795.925781 1067.179688"/></g><g><path fill="#4d9544" d="M 896.246094 1054.460938 L 902.515625 1054.460938 L 902.515625 1041.738281 L 896.246094 1041.738281 L 896.246094 1054.460938"/></g><g><path fill="#4d9544" d="M 846.085938 1041.738281 L 833.539062 1041.738281 L 833.539062 1054.460938 L 827.273438 1054.460938 L 827.273438 1067.179688 L 821.007812 1067.179688 L 821.007812 1092.621094 L 833.539062 1092.621094 L 833.539062 1067.179688 L 839.8125 1067.179688 L 839.8125 1054.460938 L 858.625 1054.460938 L 858.625 1041.738281 L 846.085938 1041.738281"/></g><g><path fill="#4d9544" d="M 877.433594 1041.738281 L 889.980469 1041.738281 L 889.980469 1029.011719 L 864.894531 1029.011719 L 864.894531 1041.738281 L 877.433594 1041.738281"/></g><g><path fill="#4d9544" d="M 1631.488281 1308.960938 L 1637.757812 1308.960938 L 1637.757812 1296.230469 L 1631.488281 1296.230469 L 1631.488281 1308.960938"/></g><g><path fill="#4d9544" d="M 1650.296875 1296.230469 L 1656.570312 1296.230469 L 1656.570312 1283.511719 L 1650.296875 1283.511719 L 1650.296875 1296.230469"/></g><g><path fill="#8eca4d" d="M 1474.730469 1207.179688 L 1481.011719 1207.179688 L 1481.011719 1194.460938 L 1474.730469 1194.460938 L 1474.730469 1207.179688"/></g><g><path fill="#4d9544" d="M 1324.25 1181.738281 L 1330.519531 1181.738281 L 1330.519531 1169.011719 L 1324.25 1169.011719 L 1324.25 1181.738281"/></g><g><path fill="#4d9544" d="M 1675.382812 1169.007812 L 1681.65625 1169.007812 L 1681.65625 1156.289062 L 1675.382812 1156.289062 L 1675.382812 1169.007812"/></g><g><path fill="#488959" d="M 1644.027344 1156.292969 L 1650.292969 1156.292969 L 1650.292969 1143.574219 L 1644.027344 1143.574219 L 1644.027344 1156.292969"/></g><g><path fill="#8eca4d" d="M 1361.871094 1156.289062 L 1368.140625 1156.289062 L 1368.140625 1143.570312 L 1361.871094 1143.570312 L 1361.871094 1156.289062"/></g><g><path fill="#4d9544" d="M 1343.058594 1143.570312 L 1349.328125 1143.570312 L 1349.328125 1130.851562 L 1343.058594 1130.851562 L 1343.058594 1143.570312"/></g><g><path fill="#4d9544" d="M 1330.507812 1232.621094 L 1349.328125 1232.621094 L 1349.328125 1245.351562 L 1336.785156 1245.351562 L 1336.785156 1283.511719 L 1343.050781 1283.511719 L 1343.050781 1296.234375 L 1355.59375 1296.234375 L 1355.59375 1308.960938 L 1399.480469 1308.960938 L 1399.480469 1309.390625 L 1606.402344 1309.390625 L 1606.402344 1308.960938 L 1631.484375 1308.960938 L 1631.484375 1296.234375 L 1581.328125 1296.234375 L 1581.328125 1283.511719 L 1568.785156 1283.511719 L 1568.785156 1270.792969 L 1562.511719 1270.792969 L 1562.511719 1258.0625 L 1556.246094 1258.0625 L 1556.246094 1283.511719 L 1543.703125 1283.511719 L 1543.703125 1296.234375 L 1493.546875 1296.234375 L 1493.546875 1283.511719 L 1481.007812 1283.511719 L 1481.007812 1270.792969 L 1474.722656 1270.792969 L 1474.722656 1258.0625 L 1412.023438 1258.0625 L 1412.023438 1245.351562 L 1399.480469 1245.351562 L 1399.480469 1232.621094 L 1386.941406 1232.621094 L 1386.941406 1194.464844 L 1368.132812 1194.464844 L 1368.132812 1181.742188 L 1349.328125 1181.742188 L 1349.328125 1169.011719 L 1343.050781 1169.011719 L 1343.050781 1156.292969 L 1336.785156 1156.292969 L 1336.785156 1169.011719 L 1330.507812 1169.011719 L 1330.507812 1181.742188 L 1324.242188 1181.742188 L 1324.242188 1219.902344 L 1330.507812 1219.902344 L 1330.507812 1232.621094"/></g><g><path fill="#4d9544" d="M 1506.089844 1258.058594 L 1499.808594 1258.058594 L 1499.808594 1270.789062 L 1518.628906 1270.789062 L 1518.628906 1258.058594 L 1506.089844 1258.058594"/></g><g><path fill="#4d9544" d="M 1399.488281 1194.460938 L 1399.488281 1181.738281 L 1386.949219 1181.738281 L 1386.949219 1194.460938 L 1399.488281 1194.460938"/></g><g><path fill="#4d9544" d="M 1556.25 1181.738281 L 1612.679688 1181.738281 L 1612.679688 1169.011719 L 1549.980469 1169.011719 L 1549.980469 1181.738281 L 1556.25 1181.738281"/></g><g><path fill="#4d9544" d="M 1443.378906 1143.570312 L 1506.089844 1143.570312 L 1506.089844 1130.851562 L 1437.109375 1130.851562 L 1437.109375 1143.570312 L 1443.378906 1143.570312"/></g><g><path fill="#8eca4d" d="M 1618.949219 1232.621094 L 1606.410156 1232.621094 L 1606.410156 1258.058594 L 1625.21875 1258.058594 L 1625.21875 1232.621094 L 1618.949219 1232.621094"/></g><g><path fill="#8eca4d" d="M 1418.300781 1232.621094 L 1412.03125 1232.621094 L 1412.03125 1258.058594 L 1430.851562 1258.058594 L 1430.851562 1232.621094 L 1418.300781 1232.621094"/></g><g><path fill="#8eca4d" d="M 1481.011719 1181.738281 L 1474.730469 1181.738281 L 1474.730469 1194.460938 L 1481.011719 1194.460938 L 1481.011719 1207.179688 L 1493.550781 1207.179688 L 1493.550781 1181.738281 L 1481.011719 1181.738281"/></g><g><path fill="#8eca4d" d="M 1549.980469 1105.398438 L 1543.710938 1105.398438 L 1543.710938 1118.128906 L 1562.519531 1118.128906 L 1562.519531 1105.398438 L 1549.980469 1105.398438"/></g><g><path fill="#4d9544" d="M 1355.601562 1118.128906 L 1361.871094 1118.128906 L 1361.871094 1105.398438 L 1355.601562 1105.398438 L 1355.601562 1118.128906"/></g><g><path fill="#8eca4d" d="M 1568.789062 1092.679688 L 1575.058594 1092.679688 L 1575.058594 1079.960938 L 1568.789062 1079.960938 L 1568.789062 1092.679688"/></g><g><path fill="#49885b" d="M 1380.691406 1092.679688 L 1386.949219 1092.679688 L 1386.949219 1079.960938 L 1380.691406 1079.960938 L 1380.691406 1092.679688"/></g><g><path fill="#4d9544" d="M 1405.769531 1079.960938 L 1412.03125 1079.960938 L 1412.03125 1067.238281 L 1405.769531 1067.238281 L 1405.769531 1079.960938"/></g><g><path fill="#8eca4d" d="M 1499.8125 1258.0625 L 1518.632812 1258.0625 L 1518.632812 1270.789062 L 1499.8125 1270.789062 Z M 1562.523438 1118.128906 L 1543.714844 1118.128906 L 1543.714844 1105.398438 L 1562.523438 1105.398438 Z M 1606.410156 1245.351562 L 1606.410156 1232.621094 L 1625.21875 1232.621094 L 1625.21875 1258.0625 L 1606.410156 1258.0625 Z M 1449.644531 1130.851562 L 1506.09375 1130.851562 L 1506.09375 1143.570312 L 1437.105469 1143.570312 L 1437.105469 1130.851562 Z M 1474.722656 1194.460938 L 1474.722656 1181.738281 L 1493.554688 1181.738281 L 1493.554688 1207.179688 L 1474.722656 1207.179688 Z M 1549.984375 1169.011719 L 1612.679688 1169.011719 L 1612.679688 1181.738281 L 1549.984375 1181.738281 Z M 1669.109375 1169.011719 L 1669.109375 1156.289062 L 1644.03125 1156.289062 L 1644.03125 1105.398438 L 1637.761719 1105.398438 L 1637.761719 1092.679688 L 1625.21875 1092.679688 L 1625.21875 1079.960938 L 1575.0625 1079.960938 L 1575.0625 1092.679688 L 1568.792969 1092.679688 L 1568.792969 1079.960938 L 1575.0625 1079.960938 L 1575.0625 1067.242188 L 1568.792969 1067.242188 L 1568.792969 1054.519531 L 1556.253906 1054.519531 L 1556.253906 1041.800781 L 1499.8125 1041.800781 L 1499.8125 1054.519531 L 1493.554688 1054.519531 L 1493.554688 1041.800781 L 1455.925781 1041.800781 L 1455.925781 1054.519531 L 1437.105469 1054.519531 L 1437.105469 1067.242188 L 1430.847656 1067.242188 L 1430.847656 1092.679688 L 1418.296875 1092.679688 L 1418.296875 1079.960938 L 1386.945312 1079.960938 L 1386.945312 1092.679688 L 1368.136719 1092.679688 L 1368.136719 1105.398438 L 1361.867188 1105.398438 L 1361.867188 1118.128906 L 1355.597656 1118.128906 L 1355.597656 1143.570312 L 1368.136719 1143.570312 L 1368.136719 1156.289062 L 1343.058594 1156.289062 L 1343.058594 1169.011719 L 1349.328125 1169.011719 L 1349.328125 1181.738281 L 1368.136719 1181.738281 L 1368.136719 1194.460938 L 1386.945312 1194.460938 L 1386.945312 1181.738281 L 1399.488281 1181.738281 L 1399.488281 1194.460938 L 1386.945312 1194.460938 L 1386.945312 1232.621094 L 1399.488281 1232.621094 L 1399.488281 1245.351562 L 1412.027344 1245.351562 L 1412.027344 1232.621094 L 1430.847656 1232.621094 L 1430.847656 1258.0625 L 1474.722656 1258.0625 L 1474.722656 1270.789062 L 1481.003906 1270.789062 L 1481.003906 1283.511719 L 1493.554688 1283.511719 L 1493.554688 1296.230469 L 1543.714844 1296.230469 L 1543.714844 1283.511719 L 1556.253906 1283.511719 L 1556.253906 1258.0625 L 1562.523438 1258.0625 L 1562.523438 1270.789062 L 1568.792969 1270.789062 L 1568.792969 1283.511719 L 1581.332031 1283.511719 L 1581.332031 1296.230469 L 1650.300781 1296.230469 L 1650.300781 1283.511719 L 1662.839844 1283.511719 L 1662.839844 1245.351562 L 1656.570312 1245.351562 L 1656.570312 1232.621094 L 1662.839844 1232.621094 L 1662.839844 1219.898438 L 1675.378906 1219.898438 L 1675.378906 1169.011719 L 1669.109375 1169.011719"/></g><g><path fill="#4d9544" d="M 1687.914062 1207.183594 L 1687.914062 1169.011719 L 1675.375 1169.011719 L 1675.375 1207.183594 L 1681.636719 1207.183594 L 1681.636719 1181.742188 L 1681.636719 1207.183594 L 1675.375 1207.183594 L 1675.375 1219.902344 L 1687.914062 1219.902344 L 1687.914062 1207.183594"/></g><g><path fill="#4d9544" d="M 1549.980469 1029.070312 L 1499.808594 1029.070312 L 1499.808594 1041.800781 L 1556.25 1041.800781 L 1556.25 1029.070312 L 1549.980469 1029.070312"/></g><g><path fill="#4d9544" d="M 1355.601562 1308.960938 L 1355.601562 1309.390625 L 1393.21875 1309.390625 L 1393.21875 1308.960938 L 1355.601562 1308.960938 L 1355.601562 1296.230469 L 1343.058594 1296.230469 L 1343.058594 1308.960938 L 1355.601562 1308.960938"/></g><g><path fill="#4d9544" d="M 1618.949219 1309.390625 L 1618.949219 1308.960938 L 1606.410156 1308.960938 L 1606.410156 1309.390625 L 1618.949219 1309.390625"/></g><g><path fill="#4d9544" d="M 1637.75 1296.234375 L 1637.75 1308.960938 L 1650.292969 1308.960938 L 1650.292969 1296.234375 L 1637.75 1296.234375"/></g><g><path fill="#4d9544" d="M 1336.789062 1283.511719 L 1336.789062 1245.351562 L 1349.328125 1245.351562 L 1349.328125 1232.621094 L 1330.519531 1232.621094 L 1330.519531 1245.351562 L 1324.25 1245.351562 L 1324.25 1283.511719 L 1330.519531 1283.511719 L 1330.519531 1296.230469 L 1343.058594 1296.230469 L 1343.058594 1283.511719 L 1336.789062 1283.511719"/></g><g><path fill="#4d9544" d="M 1662.839844 1219.898438 L 1662.839844 1232.621094 L 1656.570312 1232.621094 L 1656.570312 1245.351562 L 1662.839844 1245.351562 L 1662.839844 1283.511719 L 1656.570312 1283.511719 L 1656.570312 1296.230469 L 1669.109375 1296.230469 L 1669.109375 1283.511719 L 1675.378906 1283.511719 L 1675.378906 1245.351562 L 1669.109375 1245.351562 L 1669.109375 1232.621094 L 1675.378906 1232.621094 L 1675.378906 1219.898438 L 1662.839844 1219.898438"/></g><g><path fill="#4d9544" d="M 1324.25 1219.898438 L 1324.25 1169.011719 L 1317.980469 1169.011719 L 1317.980469 1181.738281 L 1311.710938 1181.738281 L 1311.710938 1219.898438 L 1317.980469 1219.898438 L 1317.980469 1232.621094 L 1330.519531 1232.621094 L 1330.519531 1219.898438 L 1324.25 1219.898438"/></g><g><path fill="#4d9544" d="M 1669.109375 1156.289062 L 1669.109375 1169.011719 L 1675.378906 1169.011719 L 1675.378906 1156.289062 L 1669.109375 1156.289062"/></g><g><path fill="#4d9544" d="M 1336.789062 1169.011719 L 1336.789062 1156.289062 L 1361.871094 1156.289062 L 1361.871094 1143.570312 L 1355.601562 1143.570312 L 1355.601562 1105.398438 L 1349.328125 1105.398438 L 1349.328125 1118.128906 L 1343.058594 1118.128906 L 1343.058594 1130.851562 L 1349.328125 1130.851562 L 1349.328125 1143.570312 L 1336.789062 1143.570312 L 1336.789062 1156.289062 L 1324.25 1156.289062 L 1324.25 1169.011719 L 1336.789062 1169.011719"/></g><g><path fill="#4d9544" d="M 1662.835938 1143.574219 L 1650.292969 1143.574219 L 1650.292969 1156.292969 L 1669.105469 1156.292969 L 1669.105469 1143.574219 L 1662.835938 1143.574219"/></g><g><path fill="#4d9544" d="M 1656.570312 1130.851562 L 1656.570312 1118.128906 L 1650.296875 1118.128906 L 1650.296875 1092.679688 L 1644.027344 1092.679688 L 1644.027344 1079.960938 L 1625.214844 1079.960938 L 1625.214844 1092.679688 L 1637.757812 1092.679688 L 1637.757812 1105.402344 L 1644.027344 1105.402344 L 1644.027344 1143.570312 L 1650.296875 1143.570312 L 1650.296875 1130.851562 L 1656.570312 1130.851562"/></g><g><path fill="#4d9544" d="M 1368.140625 1105.398438 L 1368.140625 1092.679688 L 1355.601562 1092.679688 L 1355.601562 1105.398438 L 1368.140625 1105.398438"/></g><g><path fill="#4d9544" d="M 1380.691406 1092.679688 L 1380.691406 1079.960938 L 1368.140625 1079.960938 L 1368.140625 1092.679688 L 1380.691406 1092.679688"/></g><g><path fill="#4d9544" d="M 1618.949219 1067.238281 L 1581.328125 1067.238281 L 1581.328125 1054.519531 L 1575.058594 1054.519531 L 1575.058594 1041.800781 L 1556.25 1041.800781 L 1556.25 1054.519531 L 1568.789062 1054.519531 L 1568.789062 1067.238281 L 1575.058594 1067.238281 L 1575.058594 1079.960938 L 1625.21875 1079.960938 L 1625.21875 1067.238281 L 1618.949219 1067.238281"/></g><g><path fill="#4d9544" d="M 1393.21875 1067.238281 L 1386.949219 1067.238281 L 1386.949219 1079.960938 L 1405.769531 1079.960938 L 1405.769531 1067.238281 L 1393.21875 1067.238281"/></g><g><path fill="#4d9544" d="M 1493.550781 1054.519531 L 1499.808594 1054.519531 L 1499.808594 1041.800781 L 1493.550781 1041.800781 L 1493.550781 1054.519531"/></g><g><path fill="#4d9544" d="M 1443.378906 1041.800781 L 1430.851562 1041.800781 L 1430.851562 1054.519531 L 1424.570312 1054.519531 L 1424.570312 1067.238281 L 1418.300781 1067.238281 L 1418.300781 1092.679688 L 1430.851562 1092.679688 L 1430.851562 1067.238281 L 1437.109375 1067.238281 L 1437.109375 1054.519531 L 1455.929688 1054.519531 L 1455.929688 1041.800781 L 1443.378906 1041.800781"/></g><g><path fill="#4d9544" d="M 1474.730469 1041.800781 L 1487.269531 1041.800781 L 1487.269531 1029.070312 L 1462.191406 1029.070312 L 1462.191406 1041.800781 L 1474.730469 1041.800781"/></g><g><path fill="#4d9544" d="M 2269.308594 1308.390625 L 2275.578125 1308.390625 L 2275.578125 1295.679688 L 2269.308594 1295.679688 L 2269.308594 1308.390625"/></g><g><path fill="#4d9544" d="M 2288.125 1295.679688 L 2294.386719 1295.679688 L 2294.386719 1282.949219 L 2288.125 1282.949219 L 2288.125 1295.679688"/></g><g><path fill="#8eca4d" d="M 2112.570312 1206.617188 L 2118.835938 1206.617188 L 2118.835938 1193.898438 L 2112.570312 1193.898438 L 2112.570312 1206.617188"/></g><g><path fill="#4d9544" d="M 1962.074219 1181.179688 L 1968.355469 1181.179688 L 1968.355469 1168.457031 L 1962.074219 1168.457031 L 1962.074219 1181.179688"/></g><g><path fill="#4d9544" d="M 2313.199219 1168.457031 L 2319.472656 1168.457031 L 2319.472656 1155.738281 L 2313.199219 1155.738281 L 2313.199219 1168.457031"/></g><g><path fill="#488959" d="M 2281.851562 1155.742188 L 2288.113281 1155.742188 L 2288.113281 1143.011719 L 2281.851562 1143.011719 L 2281.851562 1155.742188"/></g><g><path fill="#8eca4d" d="M 1999.683594 1155.738281 L 2005.960938 1155.738281 L 2005.960938 1143.011719 L 1999.683594 1143.011719 L 1999.683594 1155.738281"/></g><g><path fill="#4d9544" d="M 1980.882812 1143.011719 L 1987.148438 1143.011719 L 1987.148438 1130.289062 L 1980.882812 1130.289062 L 1980.882812 1143.011719"/></g><g><path fill="#4d9544" d="M 1968.347656 1232.070312 L 1987.144531 1232.070312 L 1987.144531 1244.792969 L 1974.597656 1244.792969 L 1974.597656 1282.953125 L 1980.878906 1282.953125 L 1980.878906 1295.683594 L 1993.421875 1295.683594 L 1993.421875 1308.390625 L 2037.316406 1308.390625 L 2037.316406 1308.832031 L 2244.230469 1308.832031 L 2244.230469 1308.390625 L 2269.300781 1308.390625 L 2269.300781 1295.683594 L 2219.140625 1295.683594 L 2219.140625 1282.953125 L 2206.597656 1282.953125 L 2206.597656 1270.234375 L 2200.332031 1270.234375 L 2200.332031 1257.511719 L 2194.066406 1257.511719 L 2194.066406 1282.953125 L 2181.523438 1282.953125 L 2181.523438 1295.683594 L 2131.363281 1295.683594 L 2131.363281 1282.953125 L 2118.816406 1282.953125 L 2118.816406 1270.234375 L 2112.554688 1270.234375 L 2112.554688 1257.511719 L 2049.847656 1257.511719 L 2049.847656 1244.792969 L 2037.316406 1244.792969 L 2037.316406 1232.070312 L 2024.773438 1232.070312 L 2024.773438 1193.902344 L 2005.953125 1193.902344 L 2005.953125 1181.183594 L 1987.144531 1181.183594 L 1987.144531 1168.460938 L 1980.878906 1168.460938 L 1980.878906 1155.742188 L 1974.597656 1155.742188 L 1974.597656 1168.460938 L 1968.347656 1168.460938 L 1968.347656 1181.183594 L 1962.070312 1181.183594 L 1962.070312 1219.34375 L 1968.347656 1219.34375 L 1968.347656 1232.070312"/></g><g><path fill="#4d9544" d="M 2143.914062 1257.507812 L 2137.644531 1257.507812 L 2137.644531 1270.226562 L 2156.457031 1270.226562 L 2156.457031 1257.507812 L 2143.914062 1257.507812"/></g><g><path fill="#4d9544" d="M 2037.320312 1193.898438 L 2037.320312 1181.179688 L 2024.785156 1181.179688 L 2024.785156 1193.898438 L 2037.320312 1193.898438"/></g><g><path fill="#4d9544" d="M 2194.0625 1181.183594 L 2250.492188 1181.183594 L 2250.492188 1168.460938 L 2187.796875 1168.460938 L 2187.796875 1181.183594 L 2194.0625 1181.183594"/></g><g><path fill="#4d9544" d="M 2081.207031 1143.011719 L 2143.90625 1143.011719 L 2143.90625 1130.292969 L 2074.933594 1130.292969 L 2074.933594 1143.011719 L 2081.207031 1143.011719"/></g><g><path fill="#8eca4d" d="M 2256.78125 1232.070312 L 2244.230469 1232.070312 L 2244.230469 1257.507812 L 2263.042969 1257.507812 L 2263.042969 1232.070312 L 2256.78125 1232.070312"/></g><g><path fill="#8eca4d" d="M 2056.125 1232.070312 L 2049.855469 1232.070312 L 2049.855469 1257.511719 L 2068.664062 1257.511719 L 2068.664062 1232.070312 L 2056.125 1232.070312"/></g><g><path fill="#8eca4d" d="M 2118.832031 1181.179688 L 2112.554688 1181.179688 L 2112.554688 1193.898438 L 2118.832031 1193.898438 L 2118.832031 1206.617188 L 2131.371094 1206.617188 L 2131.371094 1181.179688 L 2118.832031 1181.179688"/></g><g><path fill="#8eca4d" d="M 2187.796875 1104.851562 L 2181.53125 1104.851562 L 2181.53125 1117.570312 L 2200.335938 1117.570312 L 2200.335938 1104.851562 L 2187.796875 1104.851562"/></g><g><path fill="#4d9544" d="M 1993.425781 1117.574219 L 1999.683594 1117.574219 L 1999.683594 1104.851562 L 1993.425781 1104.851562 L 1993.425781 1117.574219"/></g><g><path fill="#8eca4d" d="M 2206.617188 1092.128906 L 2212.886719 1092.128906 L 2212.886719 1079.398438 L 2206.617188 1079.398438 L 2206.617188 1092.128906"/></g><g><path fill="#49885b" d="M 2018.511719 1092.128906 L 2024.785156 1092.128906 L 2024.785156 1079.398438 L 2018.511719 1079.398438 L 2018.511719 1092.128906"/></g><g><path fill="#4d9544" d="M 2043.578125 1079.402344 L 2049.855469 1079.402344 L 2049.855469 1066.683594 L 2043.578125 1066.683594 L 2043.578125 1079.402344"/></g><g><path fill="#8eca4d" d="M 2137.636719 1257.511719 L 2156.453125 1257.511719 L 2156.453125 1270.230469 L 2137.636719 1270.230469 Z M 2200.335938 1117.570312 L 2181.53125 1117.570312 L 2181.53125 1104.851562 L 2200.335938 1104.851562 Z M 2244.226562 1244.789062 L 2244.226562 1232.070312 L 2263.03125 1232.070312 L 2263.03125 1257.511719 L 2244.226562 1257.511719 Z M 2087.484375 1130.289062 L 2143.910156 1130.289062 L 2143.910156 1143.011719 L 2074.9375 1143.011719 L 2074.9375 1130.289062 Z M 2112.558594 1193.902344 L 2112.558594 1181.179688 L 2131.363281 1181.179688 L 2131.363281 1206.621094 L 2112.558594 1206.621094 Z M 2187.804688 1168.460938 L 2250.5 1168.460938 L 2250.5 1181.179688 L 2187.804688 1181.179688 Z M 2306.941406 1168.460938 L 2306.941406 1155.742188 L 2281.863281 1155.742188 L 2281.863281 1104.851562 L 2275.578125 1104.851562 L 2275.578125 1092.128906 L 2263.03125 1092.128906 L 2263.03125 1079.402344 L 2212.878906 1079.402344 L 2212.878906 1092.128906 L 2206.605469 1092.128906 L 2206.605469 1079.402344 L 2212.878906 1079.402344 L 2212.878906 1066.679688 L 2206.605469 1066.679688 L 2206.605469 1053.960938 L 2194.074219 1053.960938 L 2194.074219 1041.230469 L 2137.636719 1041.230469 L 2137.636719 1053.960938 L 2131.363281 1053.960938 L 2131.363281 1041.230469 L 2093.742188 1041.230469 L 2093.742188 1053.960938 L 2074.9375 1053.960938 L 2074.9375 1066.679688 L 2068.667969 1066.679688 L 2068.667969 1092.128906 L 2056.136719 1092.128906 L 2056.136719 1079.402344 L 2024.773438 1079.402344 L 2024.773438 1092.128906 L 2005.953125 1092.128906 L 2005.953125 1104.851562 L 1999.683594 1104.851562 L 1999.683594 1117.570312 L 1993.421875 1117.570312 L 1993.421875 1143.011719 L 2005.953125 1143.011719 L 2005.953125 1155.742188 L 1980.878906 1155.742188 L 1980.878906 1168.460938 L 1987.152344 1168.460938 L 1987.152344 1181.179688 L 2005.953125 1181.179688 L 2005.953125 1193.902344 L 2024.773438 1193.902344 L 2024.773438 1181.179688 L 2037.316406 1181.179688 L 2037.316406 1193.902344 L 2024.773438 1193.902344 L 2024.773438 1232.070312 L 2037.316406 1232.070312 L 2037.316406 1244.789062 L 2049.863281 1244.789062 L 2049.863281 1232.070312 L 2068.667969 1232.070312 L 2068.667969 1257.511719 L 2112.558594 1257.511719 L 2112.558594 1270.230469 L 2118.832031 1270.230469 L 2118.832031 1282.949219 L 2131.363281 1282.949219 L 2131.363281 1295.679688 L 2181.53125 1295.679688 L 2181.53125 1282.949219 L 2194.074219 1282.949219 L 2194.074219 1257.511719 L 2200.335938 1257.511719 L 2200.335938 1270.230469 L 2206.605469 1270.230469 L 2206.605469 1282.949219 L 2219.152344 1282.949219 L 2219.152344 1295.679688 L 2288.121094 1295.679688 L 2288.121094 1282.949219 L 2300.652344 1282.949219 L 2300.652344 1244.789062 L 2294.394531 1244.789062 L 2294.394531 1232.070312 L 2300.652344 1232.070312 L 2300.652344 1219.339844 L 2313.199219 1219.339844 L 2313.199219 1168.460938 L 2306.941406 1168.460938"/></g><g><path fill="#4d9544" d="M 2325.734375 1206.621094 L 2325.734375 1168.460938 L 2313.191406 1168.460938 L 2313.191406 1206.621094 L 2319.46875 1206.621094 L 2319.46875 1181.183594 L 2319.46875 1206.621094 L 2313.191406 1206.621094 L 2313.191406 1219.339844 L 2325.734375 1219.339844 L 2325.734375 1206.621094"/></g><g><path fill="#4d9544" d="M 2187.804688 1028.515625 L 2137.652344 1028.515625 L 2137.652344 1041.226562 L 2194.078125 1041.226562 L 2194.078125 1028.515625 L 2187.804688 1028.515625"/></g><g><path fill="#4d9544" d="M 1993.425781 1308.390625 L 1993.425781 1308.832031 L 2031.046875 1308.832031 L 2031.046875 1308.390625 L 1993.425781 1308.390625 L 1993.425781 1295.679688 L 1980.878906 1295.679688 L 1980.878906 1308.390625 L 1993.425781 1308.390625"/></g><g><path fill="#4d9544" d="M 2256.785156 1308.828125 L 2256.785156 1308.386719 L 2244.238281 1308.386719 L 2244.238281 1308.828125 L 2256.785156 1308.828125"/></g><g><path fill="#4d9544" d="M 2275.578125 1295.683594 L 2275.578125 1308.390625 L 2288.113281 1308.390625 L 2288.113281 1295.683594 L 2275.578125 1295.683594"/></g><g><path fill="#4d9544" d="M 1974.605469 1282.949219 L 1974.605469 1244.789062 L 1987.148438 1244.789062 L 1987.148438 1232.070312 L 1968.351562 1232.070312 L 1968.351562 1244.789062 L 1962.070312 1244.789062 L 1962.070312 1282.949219 L 1968.351562 1282.949219 L 1968.351562 1295.679688 L 1980.882812 1295.679688 L 1980.882812 1282.949219 L 1974.605469 1282.949219"/></g><g><path fill="#4d9544" d="M 2300.652344 1219.339844 L 2300.652344 1232.070312 L 2294.394531 1232.070312 L 2294.394531 1244.789062 L 2300.652344 1244.789062 L 2300.652344 1282.949219 L 2294.394531 1282.949219 L 2294.394531 1295.679688 L 2306.941406 1295.679688 L 2306.941406 1282.949219 L 2313.199219 1282.949219 L 2313.199219 1244.789062 L 2306.941406 1244.789062 L 2306.941406 1232.070312 L 2313.199219 1232.070312 L 2313.199219 1219.339844 L 2300.652344 1219.339844"/></g><g><path fill="#4d9544" d="M 1962.074219 1219.339844 L 1962.074219 1168.457031 L 1955.808594 1168.457031 L 1955.808594 1181.179688 L 1949.542969 1181.179688 L 1949.542969 1219.339844 L 1955.808594 1219.339844 L 1955.808594 1232.070312 L 1968.355469 1232.070312 L 1968.355469 1219.339844 L 1962.074219 1219.339844"/></g><g><path fill="#4d9544" d="M 2306.941406 1155.742188 L 2306.941406 1168.460938 L 2313.199219 1168.460938 L 2313.199219 1155.742188 L 2306.941406 1155.742188"/></g><g><path fill="#4d9544" d="M 1974.609375 1168.460938 L 1974.609375 1155.742188 L 1999.683594 1155.742188 L 1999.683594 1143.011719 L 1993.425781 1143.011719 L 1993.425781 1104.851562 L 1987.144531 1104.851562 L 1987.144531 1117.574219 L 1980.878906 1117.574219 L 1980.878906 1130.292969 L 1987.144531 1130.292969 L 1987.144531 1143.011719 L 1974.609375 1143.011719 L 1974.609375 1155.742188 L 1962.070312 1155.742188 L 1962.070312 1168.460938 L 1974.609375 1168.460938"/></g><g><path fill="#4d9544" d="M 2300.65625 1143.011719 L 2288.117188 1143.011719 L 2288.117188 1155.738281 L 2306.9375 1155.738281 L 2306.9375 1143.011719 L 2300.65625 1143.011719"/></g><g><path fill="#4d9544" d="M 2294.386719 1130.289062 L 2294.386719 1117.570312 L 2288.125 1117.570312 L 2288.125 1092.128906 L 2281.859375 1092.128906 L 2281.859375 1079.402344 L 2263.039062 1079.402344 L 2263.039062 1092.128906 L 2275.582031 1092.128906 L 2275.582031 1104.851562 L 2281.859375 1104.851562 L 2281.859375 1143.011719 L 2288.125 1143.011719 L 2288.125 1130.289062 L 2294.386719 1130.289062"/></g><g><path fill="#4d9544" d="M 2005.960938 1104.851562 L 2005.960938 1092.128906 L 1993.429688 1092.128906 L 1993.429688 1104.851562 L 2005.960938 1104.851562"/></g><g><path fill="#4d9544" d="M 2018.511719 1092.128906 L 2018.511719 1079.398438 L 2005.964844 1079.398438 L 2005.964844 1092.128906 L 2018.511719 1092.128906"/></g><g><path fill="#4d9544" d="M 2256.78125 1066.679688 L 2219.15625 1066.679688 L 2219.15625 1053.957031 L 2212.882812 1053.957031 L 2212.882812 1041.226562 L 2194.070312 1041.226562 L 2194.070312 1053.957031 L 2206.621094 1053.957031 L 2206.621094 1066.679688 L 2212.882812 1066.679688 L 2212.882812 1079.398438 L 2263.042969 1079.398438 L 2263.042969 1066.679688 L 2256.78125 1066.679688"/></g><g><path fill="#4d9544" d="M 2031.058594 1066.675781 L 2024.789062 1066.675781 L 2024.789062 1079.398438 L 2043.597656 1079.398438 L 2043.597656 1066.675781 L 2031.058594 1066.675781"/></g><g><path fill="#4d9544" d="M 2131.378906 1053.957031 L 2137.648438 1053.957031 L 2137.648438 1041.226562 L 2131.378906 1041.226562 L 2131.378906 1053.957031"/></g><g><path fill="#4d9544" d="M 2081.214844 1041.230469 L 2068.664062 1041.230469 L 2068.664062 1053.960938 L 2062.394531 1053.960938 L 2062.394531 1066.679688 L 2056.128906 1066.679688 L 2056.128906 1092.128906 L 2068.664062 1092.128906 L 2068.664062 1066.679688 L 2074.945312 1066.679688 L 2074.945312 1053.960938 L 2093.75 1053.960938 L 2093.75 1041.230469 L 2081.214844 1041.230469"/></g><g><path fill="#4d9544" d="M 2112.554688 1041.230469 L 2125.097656 1041.230469 L 2125.097656 1028.519531 L 2100.011719 1028.519531 L 2100.011719 1041.230469 L 2112.554688 1041.230469"/></g><g><path fill="#914c28" d="M 456.75 918.484375 L 260.359375 918.484375 L 260.359375 1072.160156 L 456.75 1072.160156 L 456.75 918.484375"/></g><g><path fill="#a1532b" d="M 456.75 982.109375 L 439.238281 982.109375 L 439.238281 933.972656 L 366.550781 933.972656 L 366.550781 954.339844 L 305.226562 954.339844 L 305.226562 987.660156 L 260.359375 987.660156 L 260.359375 1020.980469 L 314.3125 1020.980469 L 314.3125 1072.160156 L 343.839844 1072.160156 L 343.839844 1004.320312 L 386.992188 1004.320312 L 386.992188 1037.640625 L 418.792969 1037.640625 L 418.792969 1015.429688 L 456.75 1015.429688 L 456.75 982.109375"/></g><g><path fill="#794125" d="M 448.890625 1002.628906 L 418.792969 1002.628906 L 418.792969 1026.699219 L 448.890625 1026.699219 L 448.890625 1002.628906"/></g><g><path fill="#794125" d="M 395.886719 952.761719 L 365.796875 952.761719 L 365.796875 976.828125 L 395.886719 976.828125 L 395.886719 952.761719"/></g><g><path fill="#794125" d="M 317.152344 987.011719 L 287.054688 987.011719 L 287.054688 1011.078125 L 317.152344 1011.078125 L 317.152344 987.011719"/></g><path fill="none" stroke-width="99.045" stroke-miterlimit="10" d="M 2603.59375 9135.78125 L 4567.5 9135.78125" transform="matrix(.1 0 0 -.1 0 1883)" stroke="#432317"/><path fill="none" stroke-width="99.045" stroke-miterlimit="10" d="M 2603.59375 8526.71875 L 4567.5 8526.71875" transform="matrix(.1 0 0 -.1 0 1883)" stroke="#432317"/><path fill="none" stroke-width="99.045" stroke-miterlimit="10" d="M 3618.75 9645.15625 L 3618.75 9135.78125" transform="matrix(.1 0 0 -.1 0 1883)" stroke="#432317"/><path fill="none" stroke-width="99.045" stroke-miterlimit="10" d="M 3618.75 8551.71875 L 3618.75 8108.398438" transform="matrix(.1 0 0 -.1 0 1883)" stroke="#432317"/><path fill="none" stroke-width="99.045" stroke-miterlimit="10" d="M 2987.773438 9127.5 L 2987.773438 8551.71875" transform="matrix(.1 0 0 -.1 0 1883)" stroke="#432317"/><path fill="none" stroke-width="99.045" stroke-miterlimit="10" d="M 4207.617188 9127.5 L 4207.617188 8551.71875" transform="matrix(.1 0 0 -.1 0 1883)" stroke="#432317"/><path fill="none" stroke-width="99.045" stroke-miterlimit="10" d="M 4567.5 9645.15625 L 2603.59375 9645.15625 L 2603.59375 8108.398438 L 4567.5 8108.398438 Z M 4567.5 9645.15625" transform="matrix(.1 0 0 -.1 0 1883)" stroke="#432317"/><g><path fill="#914c28" d="M 657.4375 918.484375 L 461.039062 918.484375 L 461.039062 1072.160156 L 657.4375 1072.160156 L 657.4375 918.484375"/></g><g><path fill="#a1532b" d="M 657.4375 982.109375 L 639.921875 982.109375 L 639.921875 933.972656 L 567.234375 933.972656 L 567.234375 954.339844 L 505.910156 954.339844 L 505.910156 987.660156 L 461.039062 987.660156 L 461.039062 1020.980469 L 514.992188 1020.980469 L 514.992188 1072.160156 L 544.523438 1072.160156 L 544.523438 1004.320312 L 587.679688 1004.320312 L 587.679688 1037.640625 L 619.476562 1037.640625 L 619.476562 1015.429688 L 657.4375 1015.429688 L 657.4375 982.109375"/></g><g><path fill="#794125" d="M 649.574219 1002.628906 L 619.476562 1002.628906 L 619.476562 1026.699219 L 649.574219 1026.699219 L 649.574219 1002.628906"/></g><g><path fill="#794125" d="M 596.574219 952.761719 L 566.480469 952.761719 L 566.480469 976.828125 L 596.574219 976.828125 L 596.574219 952.761719"/></g><g><path fill="#794125" d="M 517.835938 987.011719 L 487.738281 987.011719 L 487.738281 1011.078125 L 517.835938 1011.078125 L 517.835938 987.011719"/></g><path fill="none" stroke-width="99.045" stroke-miterlimit="10" d="M 4610.390625 9135.78125 L 6574.375 9135.78125" transform="matrix(.1 0 0 -.1 0 1883)" stroke="#432317"/><path fill="none" stroke-width="99.045" stroke-miterlimit="10" d="M 4610.390625 8526.71875 L 6574.375 8526.71875" transform="matrix(.1 0 0 -.1 0 1883)" stroke="#432317"/><path fill="none" stroke-width="99.045" stroke-miterlimit="10" d="M 5625.625 9645.15625 L 5625.625 9135.78125" transform="matrix(.1 0 0 -.1 0 1883)" stroke="#432317"/><path fill="none" stroke-width="99.045" stroke-miterlimit="10" d="M 5625.625 8551.71875 L 5625.625 8108.398438" transform="matrix(.1 0 0 -.1 0 1883)" stroke="#432317"/><path fill="none" stroke-width="99.045" stroke-miterlimit="10" d="M 4994.648438 9127.5 L 4994.648438 8551.71875" transform="matrix(.1 0 0 -.1 0 1883)" stroke="#432317"/><path fill="none" stroke-width="99.045" stroke-miterlimit="10" d="M 6214.453125 9127.5 L 6214.453125 8551.71875" transform="matrix(.1 0 0 -.1 0 1883)" stroke="#432317"/><path fill="none" stroke-width="99.045" stroke-miterlimit="10" d="M 6574.375 9645.15625 L 4610.390625 9645.15625 L 4610.390625 8108.398438 L 6574.375 8108.398438 Z M 6574.375 9645.15625" transform="matrix(.1 0 0 -.1 0 1883)" stroke="#432317"/><g><path fill="#914c28" d="M 1930.554688 987.769531 L 1734.171875 987.769531 L 1734.171875 1141.453125 L 1930.554688 1141.453125 L 1930.554688 987.769531"/></g><g><path fill="#a1532b" d="M 1930.554688 1051.390625 L 1913.050781 1051.390625 L 1913.050781 1003.261719 L 1840.351562 1003.261719 L 1840.351562 1023.621094 L 1779.035156 1023.621094 L 1779.035156 1056.941406 L 1734.171875 1056.941406 L 1734.171875 1090.261719 L 1788.121094 1090.261719 L 1788.121094 1141.453125 L 1817.648438 1141.453125 L 1817.648438 1073.601562 L 1860.808594 1073.601562 L 1860.808594 1106.921875 L 1892.597656 1106.921875 L 1892.597656 1084.710938 L 1930.554688 1084.710938 L 1930.554688 1051.390625"/></g><g><path fill="#794125" d="M 1922.699219 1071.921875 L 1892.597656 1071.921875 L 1892.597656 1095.980469 L 1922.699219 1095.980469 L 1922.699219 1071.921875"/></g><g><path fill="#794125" d="M 1869.707031 1022.046875 L 1839.621094 1022.046875 L 1839.621094 1046.105469 L 1869.707031 1046.105469 L 1869.707031 1022.046875"/></g><g><path fill="#794125" d="M 1790.960938 1056.300781 L 1760.867188 1056.300781 L 1760.867188 1080.359375 L 1790.960938 1080.359375 L 1790.960938 1056.300781"/></g><path fill="none" stroke-width="83.625" stroke-miterlimit="10" d="M 14641.898994 7128.471724 L 16299.991451 7128.471724" transform="matrix(.11844 0 0 -.11844 0 1883)" stroke="#432317"/><path fill="none" stroke-width="83.625" stroke-miterlimit="10" d="M 14641.898994 6614.296178 L 16299.991451 6614.296178" transform="matrix(.11844 0 0 -.11844 0 1883)" stroke="#432317"/><path fill="none" stroke-width="87.947" stroke-miterlimit="10" d="M 16300.015151 7949.23037 L 16300.015151 7496.861653" transform="matrix(.11262 0 0 -.11262 0 1883)" stroke="#432317"/><path fill="none" stroke-width="87.947" stroke-miterlimit="10" d="M 16300.015151 6978.208883 L 16300.015151 6584.597459" transform="matrix(.11262 0 0 -.11262 0 1883)" stroke="#432317"/><path fill="none" stroke-width="91.077" stroke-miterlimit="10" d="M 16300.012414 7756.105285 L 16300.012414 7226.641524" transform="matrix(.10875 0 0 -.10875 0 1883)" stroke="#432317"/><path fill="none" stroke-width="85.213" stroke-miterlimit="10" d="M 16300.009518 7256.730401 L 16300.009518 6761.353737" transform="matrix(.11623 0 0 -.11623 0 1883)" stroke="#432317"/><path fill="none" stroke-width="83.625" stroke-miterlimit="10" d="M 16299.991451 7558.578414 L 14641.898994 7558.578414 L 14641.898994 6261.002499 L 16299.991451 6261.002499 Z M 16299.991451 7558.578414" transform="matrix(.11844 0 0 -.11844 0 1883)" stroke="#432317"/><g><path fill="#914c28" d="M 2131.257812 987.761719 L 1934.855469 987.761719 L 1934.855469 1141.449219 L 2131.257812 1141.449219 L 2131.257812 987.761719"/></g><g><path fill="#a1532b" d="M 2131.257812 1051.386719 L 2113.738281 1051.386719 L 2113.738281 1003.257812 L 2041.050781 1003.257812 L 2041.050781 1023.617188 L 1979.730469 1023.617188 L 1979.730469 1056.9375 L 1934.855469 1056.9375 L 1934.855469 1090.257812 L 1988.804688 1090.257812 L 1988.804688 1141.449219 L 2018.339844 1141.449219 L 2018.339844 1073.597656 L 2061.5 1073.597656 L 2061.5 1106.917969 L 2093.300781 1106.917969 L 2093.300781 1084.707031 L 2131.257812 1084.707031 L 2131.257812 1051.386719"/></g><g><path fill="#794125" d="M 2123.382812 1071.917969 L 2093.292969 1071.917969 L 2093.292969 1095.980469 L 2123.382812 1095.980469 L 2123.382812 1071.917969"/></g><g><path fill="#794125" d="M 2070.394531 1022.050781 L 2040.289062 1022.050781 L 2040.289062 1046.109375 L 2070.394531 1046.109375 L 2070.394531 1022.050781"/></g><g><path fill="#794125" d="M 1991.648438 1056.300781 L 1961.554688 1056.300781 L 1961.554688 1080.359375 L 1991.648438 1080.359375 L 1991.648438 1056.300781"/></g><path fill="none" stroke-width="75.75" stroke-miterlimit="10" d="M 14797.903426 6457.208829 L 16300.001625 6457.208829" transform="matrix(.13075 0 0 -.13075 0 1883)" stroke="#432317"/><path fill="none" stroke-width="75.75" stroke-miterlimit="10" d="M 14797.903426 5991.453525 L 16300.001625 5991.453525" transform="matrix(.13075 0 0 -.13075 0 1883)" stroke="#432317"/><path fill="none" stroke-width="79.28" stroke-miterlimit="10" d="M 16299.997599 7165.830538 L 16299.997599 6758.074207" transform="matrix(.12493 0 0 -.12493 0 1883)" stroke="#432317"/><path fill="none" stroke-width="79.28" stroke-miterlimit="10" d="M 16299.997599 6290.534875 L 16299.997599 5935.682747" transform="matrix(.12493 0 0 -.12493 0 1883)" stroke="#432317"/><path fill="none" stroke-width="81.815" stroke-miterlimit="10" d="M 16299.994579 6967.328959 L 16299.994579 6491.680262" transform="matrix(.12106 0 0 -.12106 0 1883)" stroke="#432317"/><path fill="none" stroke-width="77.051" stroke-miterlimit="10" d="M 16299.987747 6561.681944 L 16299.987747 6113.726137" transform="matrix(.12854 0 0 -.12854 0 1883)" stroke="#432317"/><path fill="none" stroke-width="75.75" stroke-miterlimit="10" d="M 16300.001625 6846.84197 L 14797.903426 6846.84197 L 14797.903426 5671.429739 L 16300.001625 5671.429739 Z M 16300.001625 6846.84197" transform="matrix(.13075 0 0 -.13075 0 1883)" stroke="#432317"/></g></svg>