<?xml version="1.0" encoding="UTF-8"?><svg xmlns="http://www.w3.org/2000/svg" xmlns:xlink="http://www.w3.org/1999/xlink" contentScriptType="text/ecmascript" fill="#000000" width="361.7" zoomAndPan="magnify" contentStyleType="text/css" viewBox="31.7 139.1 361.7 147.0" height="147" preserveAspectRatio="xMidYMid meet" version="1"><g><g id="change1_1"><path fill="inherit" d="M 234.148438 208.003906 L 238.457031 208.003906 L 238.457031 203.695312 L 234.148438 203.695312 L 234.148438 208.003906"/></g><g id="change1_2"><path fill="inherit" d="M 229.84375 203.695312 L 234.148438 203.695312 L 234.148438 199.394531 L 229.84375 199.394531 L 229.84375 203.695312"/></g><g id="change2_1"><path fill="#ffffff" d="M 242.761719 212.308594 L 242.761719 208.003906 L 247.066406 208.003906 L 247.066406 203.695312 L 251.375 203.695312 L 251.375 208.003906 L 255.679688 208.003906 L 255.679688 203.695312 L 259.984375 203.695312 L 259.984375 199.394531 L 264.289062 199.394531 L 264.289062 195.089844 L 272.902344 195.089844 L 272.902344 199.394531 L 281.515625 199.394531 L 281.515625 195.089844 L 290.125 195.089844 L 290.125 199.394531 L 294.433594 199.394531 L 294.433594 203.695312 L 303.042969 203.695312 L 303.042969 208.003906 L 307.351562 208.003906 L 307.351562 212.308594 L 311.65625 212.308594 L 311.65625 220.917969 L 315.960938 220.917969 L 315.960938 229.527344 L 311.65625 229.527344 L 311.65625 233.835938 L 307.351562 233.835938 L 307.351562 225.226562 L 298.738281 225.226562 L 298.738281 220.917969 L 294.433594 220.917969 L 294.433594 212.308594 L 290.125 212.308594 L 290.125 208.003906 L 272.902344 208.003906 L 272.902344 203.695312 L 268.597656 203.695312 L 268.597656 208.003906 L 259.984375 208.003906 L 259.984375 216.613281 L 255.679688 216.613281 L 255.679688 212.308594 L 247.066406 212.308594 L 247.066406 216.613281 L 242.761719 216.613281 L 242.761719 225.226562 L 238.457031 225.226562 L 238.457031 229.527344 L 229.84375 229.527344 L 229.84375 220.917969 L 234.148438 220.917969 L 234.148438 216.613281 L 238.457031 216.613281 L 238.457031 212.308594 Z M 350.40625 220.917969 L 350.40625 216.613281 L 341.796875 216.613281 L 341.796875 212.308594 L 346.105469 212.308594 L 346.105469 208.003906 L 341.796875 208.003906 L 341.796875 199.394531 L 337.492188 199.394531 L 337.492188 195.089844 L 328.878906 195.089844 L 328.878906 186.476562 L 324.574219 186.476562 L 324.574219 169.257812 L 320.269531 169.257812 L 320.269531 164.949219 L 315.960938 164.949219 L 315.960938 160.644531 L 311.65625 160.644531 L 311.65625 156.339844 L 307.351562 156.339844 L 307.351562 152.035156 L 303.042969 152.035156 L 303.042969 147.730469 L 285.820312 147.730469 L 285.820312 152.035156 L 281.515625 152.035156 L 281.515625 156.339844 L 277.210938 156.339844 L 277.210938 160.644531 L 272.902344 160.644531 L 272.902344 173.5625 L 268.597656 173.5625 L 268.597656 182.171875 L 264.289062 182.171875 L 264.289062 177.863281 L 247.066406 177.863281 L 247.066406 182.171875 L 238.457031 182.171875 L 238.457031 190.78125 L 234.148438 190.78125 L 234.148438 199.394531 L 238.457031 199.394531 L 238.457031 208.003906 L 234.148438 208.003906 L 234.148438 203.695312 L 229.84375 203.695312 L 229.84375 199.394531 L 208.316406 199.394531 L 208.316406 203.695312 L 204.007812 203.695312 L 204.007812 208.003906 L 199.707031 208.003906 L 199.707031 216.613281 L 195.398438 216.613281 L 195.398438 229.527344 L 186.789062 229.527344 L 186.789062 233.835938 L 182.480469 233.835938 L 182.480469 246.75 L 186.789062 246.75 L 186.789062 251.054688 L 341.796875 251.054688 L 341.796875 246.75 L 346.105469 246.75 L 346.105469 242.445312 L 350.40625 242.445312 L 350.40625 233.835938 L 354.714844 233.835938 L 354.714844 220.917969 L 350.40625 220.917969"/></g><g id="change3_1"><path fill="#52a6c8" d="M 307.351562 233.835938 L 311.65625 233.835938 L 311.65625 229.527344 L 307.351562 229.527344 L 307.351562 233.835938"/></g><g id="change3_2"><path fill="#52a6c8" d="M 311.65625 225.226562 L 311.65625 229.527344 L 315.960938 229.527344 L 315.960938 220.917969 L 311.65625 220.917969 L 311.65625 225.226562"/></g><g id="change3_3"><path fill="#52a6c8" d="M 229.84375 225.226562 L 229.84375 229.527344 L 234.148438 229.527344 L 234.148438 220.917969 L 229.84375 220.917969 L 229.84375 225.226562"/></g><g id="change3_4"><path fill="#52a6c8" d="M 384.855469 216.613281 L 384.855469 212.308594 L 380.550781 212.308594 L 380.550781 208.003906 L 371.9375 208.003906 L 371.9375 203.695312 L 367.632812 203.695312 L 367.632812 212.308594 L 371.9375 212.308594 L 371.9375 216.613281 L 376.242188 216.613281 L 376.242188 225.226562 L 380.550781 225.226562 L 380.550781 233.835938 L 376.242188 233.835938 L 376.242188 242.445312 L 371.9375 242.445312 L 371.9375 246.75 L 367.632812 246.75 L 367.632812 251.054688 L 376.242188 251.054688 L 376.242188 246.75 L 380.550781 246.75 L 380.550781 242.445312 L 384.855469 242.445312 L 384.855469 238.140625 L 389.160156 238.140625 L 389.160156 216.613281 L 384.855469 216.613281"/></g><g id="change3_5"><path fill="#52a6c8" d="M 234.148438 220.917969 L 238.457031 220.917969 L 238.457031 216.613281 L 234.148438 216.613281 L 234.148438 220.917969"/></g><g id="change3_6"><path fill="#52a6c8" d="M 311.65625 212.308594 L 307.351562 212.308594 L 307.351562 208.003906 L 303.042969 208.003906 L 303.042969 203.695312 L 294.433594 203.695312 L 294.433594 208.003906 L 298.738281 208.003906 L 298.738281 212.308594 L 303.042969 212.308594 L 303.042969 216.613281 L 307.351562 216.613281 L 307.351562 220.917969 L 311.65625 220.917969 L 311.65625 212.308594"/></g><g id="change3_7"><path fill="#52a6c8" d="M 259.984375 216.613281 L 259.984375 212.308594 L 255.679688 212.308594 L 255.679688 216.613281 L 259.984375 216.613281"/></g><g id="change3_8"><path fill="#52a6c8" d="M 238.457031 216.613281 L 242.761719 216.613281 L 242.761719 212.308594 L 238.457031 212.308594 L 238.457031 216.613281"/></g><g id="change3_9"><path fill="#52a6c8" d="M 251.375 212.308594 L 255.679688 212.308594 L 255.679688 208.003906 L 251.375 208.003906 L 251.375 212.308594"/></g><g id="change3_10"><path fill="#52a6c8" d="M 242.761719 212.308594 L 247.066406 212.308594 L 247.066406 208.003906 L 242.761719 208.003906 L 242.761719 212.308594"/></g><g id="change3_11"><path fill="#52a6c8" d="M 255.679688 208.003906 L 259.984375 208.003906 L 259.984375 203.695312 L 255.679688 203.695312 L 255.679688 208.003906"/></g><g id="change3_12"><path fill="#52a6c8" d="M 247.066406 203.695312 L 247.066406 208.003906 L 251.375 208.003906 L 251.375 203.695312 L 247.066406 203.695312"/></g><g id="change3_13"><path fill="#52a6c8" d="M 363.324219 199.394531 L 363.324219 186.476562 L 359.019531 186.476562 L 359.019531 182.171875 L 354.714844 182.171875 L 354.714844 177.863281 L 337.492188 177.863281 L 337.492188 182.171875 L 346.105469 182.171875 L 346.105469 186.476562 L 350.40625 186.476562 L 350.40625 190.78125 L 354.714844 190.78125 L 354.714844 203.695312 L 350.40625 203.695312 L 350.40625 208.003906 L 346.105469 208.003906 L 346.105469 212.308594 L 341.796875 212.308594 L 341.796875 216.613281 L 350.40625 216.613281 L 350.40625 212.308594 L 354.714844 212.308594 L 354.714844 208.003906 L 359.019531 208.003906 L 359.019531 203.695312 L 367.632812 203.695312 L 367.632812 199.394531 L 363.324219 199.394531"/></g><g id="change3_14"><path fill="#52a6c8" d="M 290.125 199.394531 L 290.125 203.695312 L 294.433594 203.695312 L 294.433594 199.394531 L 290.125 199.394531"/></g><g id="change3_15"><path fill="#52a6c8" d="M 272.902344 199.394531 L 272.902344 208.003906 L 277.210938 208.003906 L 277.210938 203.695312 L 281.515625 203.695312 L 281.515625 199.394531 L 272.902344 199.394531"/></g><g id="change3_16"><path fill="#52a6c8" d="M 259.984375 203.695312 L 264.289062 203.695312 L 264.289062 199.394531 L 259.984375 199.394531 L 259.984375 203.695312"/></g><g id="change3_17"><path fill="#52a6c8" d="M 285.820312 195.089844 L 281.515625 195.089844 L 281.515625 199.394531 L 290.125 199.394531 L 290.125 195.089844 L 285.820312 195.089844"/></g><g id="change3_18"><path fill="#52a6c8" d="M 268.597656 195.089844 L 264.289062 195.089844 L 264.289062 199.394531 L 272.902344 199.394531 L 272.902344 195.089844 L 268.597656 195.089844"/></g><g id="change3_19"><path fill="#52a6c8" d="M 328.878906 190.78125 L 333.1875 190.78125 L 333.1875 186.476562 L 328.878906 186.476562 L 328.878906 190.78125"/></g><g id="change3_20"><path fill="#52a6c8" d="M 333.1875 186.476562 L 337.492188 186.476562 L 337.492188 182.171875 L 333.1875 182.171875 L 333.1875 186.476562"/></g><g id="change3_21"><path fill="#52a6c8" d="M 333.1875 173.5625 L 337.492188 173.5625 L 337.492188 164.949219 L 333.1875 164.949219 L 333.1875 173.5625"/></g><g id="change3_22"><path fill="#52a6c8" d="M 328.878906 160.644531 L 328.878906 164.949219 L 333.1875 164.949219 L 333.1875 156.339844 L 328.878906 156.339844 L 328.878906 152.035156 L 324.574219 152.035156 L 324.574219 147.730469 L 315.960938 147.730469 L 315.960938 143.425781 L 303.042969 143.425781 L 303.042969 147.730469 L 311.65625 147.730469 L 311.65625 152.035156 L 315.960938 152.035156 L 315.960938 156.339844 L 324.574219 156.339844 L 324.574219 160.644531 L 328.878906 160.644531"/></g><g id="change4_1"><path fill="#ade4f9" d="M 376.242188 225.226562 L 376.242188 216.613281 L 371.9375 216.613281 L 371.9375 212.308594 L 367.632812 212.308594 L 367.632812 203.695312 L 359.019531 203.695312 L 359.019531 208.003906 L 354.714844 208.003906 L 354.714844 212.308594 L 350.40625 212.308594 L 350.40625 220.917969 L 354.714844 220.917969 L 354.714844 233.835938 L 350.40625 233.835938 L 350.40625 242.445312 L 346.105469 242.445312 L 346.105469 246.75 L 341.796875 246.75 L 341.796875 251.054688 L 367.632812 251.054688 L 367.632812 246.75 L 371.9375 246.75 L 371.9375 242.445312 L 376.242188 242.445312 L 376.242188 233.835938 L 380.550781 233.835938 L 380.550781 225.226562 L 376.242188 225.226562"/></g><g id="change4_2"><path fill="#ade4f9" d="M 307.351562 216.613281 L 303.042969 216.613281 L 303.042969 212.308594 L 298.738281 212.308594 L 298.738281 208.003906 L 294.433594 208.003906 L 294.433594 203.695312 L 290.125 203.695312 L 290.125 199.394531 L 281.515625 199.394531 L 281.515625 203.695312 L 277.210938 203.695312 L 277.210938 208.003906 L 290.125 208.003906 L 290.125 212.308594 L 294.433594 212.308594 L 294.433594 220.917969 L 298.738281 220.917969 L 298.738281 225.226562 L 307.351562 225.226562 L 307.351562 229.527344 L 311.65625 229.527344 L 311.65625 220.917969 L 307.351562 220.917969 L 307.351562 216.613281"/></g><g id="change4_3"><path fill="#ade4f9" d="M 238.457031 220.917969 L 234.148438 220.917969 L 234.148438 229.527344 L 238.457031 229.527344 L 238.457031 225.226562 L 242.761719 225.226562 L 242.761719 216.613281 L 238.457031 216.613281 L 238.457031 220.917969"/></g><g id="change4_4"><path fill="#ade4f9" d="M 242.761719 216.613281 L 247.066406 216.613281 L 247.066406 212.308594 L 242.761719 212.308594 L 242.761719 216.613281"/></g><g id="change4_5"><path fill="#ade4f9" d="M 255.679688 212.308594 L 259.984375 212.308594 L 259.984375 208.003906 L 255.679688 208.003906 L 255.679688 212.308594"/></g><g id="change4_6"><path fill="#ade4f9" d="M 247.066406 212.308594 L 251.375 212.308594 L 251.375 208.003906 L 247.066406 208.003906 L 247.066406 212.308594"/></g><g id="change4_7"><path fill="#ade4f9" d="M 264.289062 199.394531 L 264.289062 203.695312 L 259.984375 203.695312 L 259.984375 208.003906 L 268.597656 208.003906 L 268.597656 203.695312 L 272.902344 203.695312 L 272.902344 199.394531 L 264.289062 199.394531"/></g><g id="change4_8"><path fill="#ade4f9" d="M 341.796875 199.394531 L 341.796875 208.003906 L 350.40625 208.003906 L 350.40625 203.695312 L 354.714844 203.695312 L 354.714844 190.78125 L 350.40625 190.78125 L 350.40625 186.476562 L 346.105469 186.476562 L 346.105469 182.171875 L 337.492188 182.171875 L 337.492188 186.476562 L 333.1875 186.476562 L 333.1875 190.78125 L 328.878906 190.78125 L 328.878906 195.089844 L 337.492188 195.089844 L 337.492188 199.394531 L 341.796875 199.394531"/></g><g id="change4_9"><path fill="#ade4f9" d="M 337.492188 182.171875 L 337.492188 173.5625 L 333.1875 173.5625 L 333.1875 164.949219 L 328.878906 164.949219 L 328.878906 160.644531 L 324.574219 160.644531 L 324.574219 156.339844 L 315.960938 156.339844 L 315.960938 152.035156 L 311.65625 152.035156 L 311.65625 147.730469 L 303.042969 147.730469 L 303.042969 152.035156 L 307.351562 152.035156 L 307.351562 156.339844 L 311.65625 156.339844 L 311.65625 160.644531 L 315.960938 160.644531 L 315.960938 164.949219 L 320.269531 164.949219 L 320.269531 169.257812 L 324.574219 169.257812 L 324.574219 186.476562 L 333.1875 186.476562 L 333.1875 182.171875 L 337.492188 182.171875"/></g><g id="change4_10"><path fill="#ade4f9" d="M 298.738281 143.425781 L 294.433594 143.425781 L 294.433594 147.730469 L 303.042969 147.730469 L 303.042969 143.425781 L 298.738281 143.425781"/></g><g id="change5_1"><path fill="#737373" d="M 367.632812 251.054688 L 186.789062 251.054688 L 186.789062 255.359375 L 376.242188 255.359375 L 376.242188 251.054688 L 367.632812 251.054688"/></g><g id="change5_2"><path fill="#737373" d="M 182.480469 246.75 L 182.480469 251.054688 L 186.789062 251.054688 L 186.789062 246.75 L 182.480469 246.75"/></g><g id="change5_3"><path fill="#737373" d="M 384.855469 242.445312 L 380.550781 242.445312 L 380.550781 246.75 L 376.242188 246.75 L 376.242188 251.054688 L 384.855469 251.054688 L 384.855469 246.75 L 389.160156 246.75 L 389.160156 238.140625 L 384.855469 238.140625 L 384.855469 242.445312"/></g><g id="change5_4"><path fill="#737373" d="M 182.480469 238.140625 L 182.480469 233.835938 L 178.175781 233.835938 L 178.175781 246.75 L 182.480469 246.75 L 182.480469 238.140625"/></g><g id="change5_5"><path fill="#737373" d="M 186.789062 229.527344 L 195.398438 229.527344 L 195.398438 216.613281 L 199.707031 216.613281 L 199.707031 208.003906 L 204.007812 208.003906 L 204.007812 203.695312 L 208.316406 203.695312 L 208.316406 199.394531 L 234.148438 199.394531 L 234.148438 190.78125 L 229.84375 190.78125 L 229.84375 195.089844 L 204.007812 195.089844 L 204.007812 199.394531 L 199.707031 199.394531 L 199.707031 203.695312 L 195.398438 203.695312 L 195.398438 212.308594 L 191.09375 212.308594 L 191.09375 225.226562 L 182.480469 225.226562 L 182.480469 233.835938 L 186.789062 233.835938 L 186.789062 229.527344"/></g><g id="change5_6"><path fill="#737373" d="M 389.160156 216.613281 L 389.160156 238.140625 L 393.464844 238.140625 L 393.464844 216.613281 L 389.160156 216.613281"/></g><g id="change5_7"><path fill="#737373" d="M 389.160156 216.613281 L 389.160156 212.308594 L 384.855469 212.308594 L 384.855469 216.613281 L 389.160156 216.613281"/></g><g id="change5_8"><path fill="#737373" d="M 384.855469 212.308594 L 384.855469 208.003906 L 380.550781 208.003906 L 380.550781 212.308594 L 384.855469 212.308594"/></g><g id="change5_9"><path fill="#737373" d="M 376.242188 208.003906 L 380.550781 208.003906 L 380.550781 203.695312 L 371.9375 203.695312 L 371.9375 208.003906 L 376.242188 208.003906"/></g><g id="change5_10"><path fill="#737373" d="M 371.9375 203.695312 L 371.9375 199.394531 L 367.632812 199.394531 L 367.632812 203.695312 L 371.9375 203.695312"/></g><g id="change5_11"><path fill="#737373" d="M 238.457031 203.695312 L 238.457031 199.394531 L 234.148438 199.394531 L 234.148438 203.695312 L 238.457031 203.695312"/></g><g id="change5_12"><path fill="#737373" d="M 363.324219 195.089844 L 363.324219 199.394531 L 367.632812 199.394531 L 367.632812 186.476562 L 363.324219 186.476562 L 363.324219 195.089844"/></g><g id="change5_13"><path fill="#737373" d="M 238.457031 186.476562 L 238.457031 182.171875 L 234.148438 182.171875 L 234.148438 190.78125 L 238.457031 190.78125 L 238.457031 186.476562"/></g><g id="change5_14"><path fill="#737373" d="M 363.324219 186.476562 L 363.324219 182.171875 L 359.019531 182.171875 L 359.019531 186.476562 L 363.324219 186.476562"/></g><g id="change5_15"><path fill="#737373" d="M 359.019531 182.171875 L 359.019531 177.863281 L 354.714844 177.863281 L 354.714844 182.171875 L 359.019531 182.171875"/></g><g id="change5_16"><path fill="#737373" d="M 247.066406 182.171875 L 247.066406 177.863281 L 264.289062 177.863281 L 264.289062 182.171875 L 268.597656 182.171875 L 268.597656 173.5625 L 272.902344 173.5625 L 272.902344 160.644531 L 277.210938 160.644531 L 277.210938 156.339844 L 281.515625 156.339844 L 281.515625 152.035156 L 285.820312 152.035156 L 285.820312 147.730469 L 294.433594 147.730469 L 294.433594 143.425781 L 315.960938 143.425781 L 315.960938 139.117188 L 290.125 139.117188 L 290.125 143.425781 L 281.515625 143.425781 L 281.515625 147.730469 L 277.210938 147.730469 L 277.210938 152.035156 L 272.902344 152.035156 L 272.902344 156.339844 L 268.597656 156.339844 L 268.597656 169.257812 L 264.289062 169.257812 L 264.289062 173.5625 L 242.761719 173.5625 L 242.761719 177.863281 L 238.457031 177.863281 L 238.457031 182.171875 L 247.066406 182.171875"/></g><g id="change5_17"><path fill="#737373" d="M 333.1875 164.949219 L 337.492188 164.949219 L 337.492188 177.863281 L 354.714844 177.863281 L 354.714844 173.5625 L 341.796875 173.5625 L 341.796875 160.644531 L 337.492188 160.644531 L 337.492188 156.339844 L 333.1875 156.339844 L 333.1875 164.949219"/></g><g id="change5_18"><path fill="#737373" d="M 333.1875 156.339844 L 333.1875 152.035156 L 328.878906 152.035156 L 328.878906 156.339844 L 333.1875 156.339844"/></g><g id="change5_19"><path fill="#737373" d="M 328.878906 152.035156 L 328.878906 147.730469 L 324.574219 147.730469 L 324.574219 152.035156 L 328.878906 152.035156"/></g><g id="change5_20"><path fill="#737373" d="M 320.269531 147.730469 L 324.574219 147.730469 L 324.574219 143.425781 L 315.960938 143.425781 L 315.960938 147.730469 L 320.269531 147.730469"/></g><g id="change1_3"><path fill="inherit" d="M 97.796875 230.1875 L 102.878906 230.1875 L 102.878906 225.109375 L 97.796875 225.109375 L 97.796875 230.1875"/></g><g id="change1_4"><path fill="inherit" d="M 92.714844 225.109375 L 97.796875 225.109375 L 97.796875 220.027344 L 92.714844 220.027344 L 92.714844 225.109375"/></g><g id="change2_2"><path fill="#ffffff" d="M 107.960938 235.269531 L 107.960938 230.1875 L 113.039062 230.1875 L 113.039062 225.109375 L 118.125 225.109375 L 118.125 230.1875 L 123.207031 230.1875 L 123.207031 225.109375 L 128.289062 225.109375 L 128.289062 220.027344 L 133.371094 220.027344 L 133.371094 214.945312 L 143.53125 214.945312 L 143.53125 220.027344 L 153.695312 220.027344 L 153.695312 214.945312 L 163.859375 214.945312 L 163.859375 220.027344 L 168.941406 220.027344 L 168.941406 225.109375 L 179.105469 225.109375 L 179.105469 230.1875 L 184.1875 230.1875 L 184.1875 235.269531 L 189.269531 235.269531 L 189.269531 245.433594 L 194.347656 245.433594 L 194.347656 255.597656 L 189.269531 255.597656 L 189.269531 260.675781 L 184.1875 260.675781 L 184.1875 250.515625 L 174.023438 250.515625 L 174.023438 245.433594 L 168.941406 245.433594 L 168.941406 235.269531 L 163.859375 235.269531 L 163.859375 230.1875 L 143.53125 230.1875 L 143.53125 225.109375 L 138.449219 225.109375 L 138.449219 230.1875 L 128.289062 230.1875 L 128.289062 240.351562 L 123.207031 240.351562 L 123.207031 235.269531 L 113.039062 235.269531 L 113.039062 240.351562 L 107.960938 240.351562 L 107.960938 250.515625 L 102.878906 250.515625 L 102.878906 255.597656 L 92.714844 255.597656 L 92.714844 245.433594 L 97.796875 245.433594 L 97.796875 240.351562 L 102.878906 240.351562 L 102.878906 235.269531 Z M 235.003906 245.433594 L 235.003906 240.351562 L 224.839844 240.351562 L 224.839844 235.269531 L 229.921875 235.269531 L 229.921875 230.1875 L 224.839844 230.1875 L 224.839844 220.027344 L 219.757812 220.027344 L 219.757812 214.945312 L 209.597656 214.945312 L 209.597656 204.785156 L 204.515625 204.785156 L 204.515625 184.460938 L 199.433594 184.460938 L 199.433594 179.378906 L 194.347656 179.378906 L 194.347656 174.300781 L 189.269531 174.300781 L 189.269531 169.21875 L 184.1875 169.21875 L 184.1875 164.136719 L 179.105469 164.136719 L 179.105469 159.058594 L 158.777344 159.058594 L 158.777344 164.136719 L 153.695312 164.136719 L 153.695312 169.21875 L 148.613281 169.21875 L 148.613281 174.300781 L 143.53125 174.300781 L 143.53125 189.539062 L 138.449219 189.539062 L 138.449219 199.703125 L 133.371094 199.703125 L 133.371094 194.621094 L 113.039062 194.621094 L 113.039062 199.703125 L 102.878906 199.703125 L 102.878906 209.863281 L 97.796875 209.863281 L 97.796875 220.027344 L 102.878906 220.027344 L 102.878906 230.1875 L 97.796875 230.1875 L 97.796875 225.109375 L 92.714844 225.109375 L 92.714844 220.027344 L 67.304688 220.027344 L 67.304688 225.109375 L 62.222656 225.109375 L 62.222656 230.1875 L 57.144531 230.1875 L 57.144531 240.351562 L 52.0625 240.351562 L 52.0625 255.597656 L 41.898438 255.597656 L 41.898438 260.675781 L 36.816406 260.675781 L 36.816406 275.921875 L 41.898438 275.921875 L 41.898438 281 L 224.839844 281 L 224.839844 275.921875 L 229.921875 275.921875 L 229.921875 270.835938 L 235.003906 270.835938 L 235.003906 260.675781 L 240.085938 260.675781 L 240.085938 245.433594 L 235.003906 245.433594"/></g><g id="change3_23"><path fill="#52a6c8" d="M 184.1875 260.675781 L 189.269531 260.675781 L 189.269531 255.597656 L 184.1875 255.597656 L 184.1875 260.675781"/></g><g id="change3_24"><path fill="#52a6c8" d="M 189.269531 250.515625 L 189.269531 255.597656 L 194.347656 255.597656 L 194.347656 245.433594 L 189.269531 245.433594 L 189.269531 250.515625"/></g><g id="change3_25"><path fill="#52a6c8" d="M 92.714844 250.515625 L 92.714844 255.597656 L 97.796875 255.597656 L 97.796875 245.433594 L 92.714844 245.433594 L 92.714844 250.515625"/></g><g id="change3_26"><path fill="#52a6c8" d="M 275.65625 240.351562 L 275.65625 235.269531 L 270.574219 235.269531 L 270.574219 230.1875 L 260.410156 230.1875 L 260.410156 225.109375 L 255.332031 225.109375 L 255.332031 235.269531 L 260.410156 235.269531 L 260.410156 240.351562 L 265.492188 240.351562 L 265.492188 250.515625 L 270.574219 250.515625 L 270.574219 260.675781 L 265.492188 260.675781 L 265.492188 270.835938 L 260.410156 270.835938 L 260.410156 275.921875 L 255.332031 275.921875 L 255.332031 281 L 265.492188 281 L 265.492188 275.921875 L 270.574219 275.921875 L 270.574219 270.835938 L 275.65625 270.835938 L 275.65625 265.757812 L 280.738281 265.757812 L 280.738281 240.351562 L 275.65625 240.351562"/></g><g id="change3_27"><path fill="#52a6c8" d="M 97.796875 245.433594 L 102.878906 245.433594 L 102.878906 240.351562 L 97.796875 240.351562 L 97.796875 245.433594"/></g><g id="change3_28"><path fill="#52a6c8" d="M 189.269531 235.269531 L 184.1875 235.269531 L 184.1875 230.1875 L 179.105469 230.1875 L 179.105469 225.109375 L 168.941406 225.109375 L 168.941406 230.1875 L 174.023438 230.1875 L 174.023438 235.269531 L 179.105469 235.269531 L 179.105469 240.351562 L 184.1875 240.351562 L 184.1875 245.433594 L 189.269531 245.433594 L 189.269531 235.269531"/></g><g id="change3_29"><path fill="#52a6c8" d="M 128.289062 240.351562 L 128.289062 235.269531 L 123.207031 235.269531 L 123.207031 240.351562 L 128.289062 240.351562"/></g><g id="change3_30"><path fill="#52a6c8" d="M 102.878906 240.351562 L 107.960938 240.351562 L 107.960938 235.269531 L 102.878906 235.269531 L 102.878906 240.351562"/></g><g id="change3_31"><path fill="#52a6c8" d="M 118.125 235.269531 L 123.207031 235.269531 L 123.207031 230.1875 L 118.125 230.1875 L 118.125 235.269531"/></g><g id="change3_32"><path fill="#52a6c8" d="M 107.960938 235.269531 L 113.039062 235.269531 L 113.039062 230.1875 L 107.960938 230.1875 L 107.960938 235.269531"/></g><g id="change3_33"><path fill="#52a6c8" d="M 123.207031 230.1875 L 128.289062 230.1875 L 128.289062 225.109375 L 123.207031 225.109375 L 123.207031 230.1875"/></g><g id="change3_34"><path fill="#52a6c8" d="M 113.039062 225.109375 L 113.039062 230.1875 L 118.125 230.1875 L 118.125 225.109375 L 113.039062 225.109375"/></g><g id="change3_35"><path fill="#52a6c8" d="M 250.25 220.027344 L 250.25 204.785156 L 245.167969 204.785156 L 245.167969 199.703125 L 240.085938 199.703125 L 240.085938 194.621094 L 219.757812 194.621094 L 219.757812 199.703125 L 229.921875 199.703125 L 229.921875 204.785156 L 235.003906 204.785156 L 235.003906 209.863281 L 240.085938 209.863281 L 240.085938 225.109375 L 235.003906 225.109375 L 235.003906 230.1875 L 229.921875 230.1875 L 229.921875 235.269531 L 224.839844 235.269531 L 224.839844 240.351562 L 235.003906 240.351562 L 235.003906 235.269531 L 240.085938 235.269531 L 240.085938 230.1875 L 245.167969 230.1875 L 245.167969 225.109375 L 255.332031 225.109375 L 255.332031 220.027344 L 250.25 220.027344"/></g><g id="change3_36"><path fill="#52a6c8" d="M 163.859375 220.027344 L 163.859375 225.109375 L 168.941406 225.109375 L 168.941406 220.027344 L 163.859375 220.027344"/></g><g id="change3_37"><path fill="#52a6c8" d="M 143.53125 220.027344 L 143.53125 230.1875 L 148.613281 230.1875 L 148.613281 225.109375 L 153.695312 225.109375 L 153.695312 220.027344 L 143.53125 220.027344"/></g><g id="change3_38"><path fill="#52a6c8" d="M 128.289062 225.109375 L 133.371094 225.109375 L 133.371094 220.027344 L 128.289062 220.027344 L 128.289062 225.109375"/></g><g id="change3_39"><path fill="#52a6c8" d="M 158.777344 214.945312 L 153.695312 214.945312 L 153.695312 220.027344 L 163.859375 220.027344 L 163.859375 214.945312 L 158.777344 214.945312"/></g><g id="change3_40"><path fill="#52a6c8" d="M 138.449219 214.945312 L 133.371094 214.945312 L 133.371094 220.027344 L 143.53125 220.027344 L 143.53125 214.945312 L 138.449219 214.945312"/></g><g id="change3_41"><path fill="#52a6c8" d="M 209.597656 209.863281 L 214.679688 209.863281 L 214.679688 204.785156 L 209.597656 204.785156 L 209.597656 209.863281"/></g><g id="change3_42"><path fill="#52a6c8" d="M 214.679688 204.785156 L 219.757812 204.785156 L 219.757812 199.703125 L 214.679688 199.703125 L 214.679688 204.785156"/></g><g id="change3_43"><path fill="#52a6c8" d="M 214.679688 189.539062 L 219.757812 189.539062 L 219.757812 179.378906 L 214.679688 179.378906 L 214.679688 189.539062"/></g><g id="change3_44"><path fill="#52a6c8" d="M 209.597656 174.300781 L 209.597656 179.378906 L 214.679688 179.378906 L 214.679688 169.21875 L 209.597656 169.21875 L 209.597656 164.136719 L 204.515625 164.136719 L 204.515625 159.058594 L 194.347656 159.058594 L 194.347656 153.976562 L 179.105469 153.976562 L 179.105469 159.058594 L 189.269531 159.058594 L 189.269531 164.136719 L 194.347656 164.136719 L 194.347656 169.21875 L 204.515625 169.21875 L 204.515625 174.300781 L 209.597656 174.300781"/></g><g id="change4_11"><path fill="#ade4f9" d="M 265.492188 250.515625 L 265.492188 240.351562 L 260.410156 240.351562 L 260.410156 235.269531 L 255.332031 235.269531 L 255.332031 225.109375 L 245.167969 225.109375 L 245.167969 230.1875 L 240.085938 230.1875 L 240.085938 235.269531 L 235.003906 235.269531 L 235.003906 245.433594 L 240.085938 245.433594 L 240.085938 260.675781 L 235.003906 260.675781 L 235.003906 270.835938 L 229.921875 270.835938 L 229.921875 275.921875 L 224.839844 275.921875 L 224.839844 281 L 255.332031 281 L 255.332031 275.921875 L 260.410156 275.921875 L 260.410156 270.835938 L 265.492188 270.835938 L 265.492188 260.675781 L 270.574219 260.675781 L 270.574219 250.515625 L 265.492188 250.515625"/></g><g id="change4_12"><path fill="#ade4f9" d="M 184.1875 240.351562 L 179.105469 240.351562 L 179.105469 235.269531 L 174.023438 235.269531 L 174.023438 230.1875 L 168.941406 230.1875 L 168.941406 225.109375 L 163.859375 225.109375 L 163.859375 220.027344 L 153.695312 220.027344 L 153.695312 225.109375 L 148.613281 225.109375 L 148.613281 230.1875 L 163.859375 230.1875 L 163.859375 235.269531 L 168.941406 235.269531 L 168.941406 245.433594 L 174.023438 245.433594 L 174.023438 250.515625 L 184.1875 250.515625 L 184.1875 255.597656 L 189.269531 255.597656 L 189.269531 245.433594 L 184.1875 245.433594 L 184.1875 240.351562"/></g><g id="change4_13"><path fill="#ade4f9" d="M 102.878906 245.433594 L 97.796875 245.433594 L 97.796875 255.597656 L 102.878906 255.597656 L 102.878906 250.515625 L 107.960938 250.515625 L 107.960938 240.351562 L 102.878906 240.351562 L 102.878906 245.433594"/></g><g id="change4_14"><path fill="#ade4f9" d="M 107.960938 240.351562 L 113.039062 240.351562 L 113.039062 235.269531 L 107.960938 235.269531 L 107.960938 240.351562"/></g><g id="change4_15"><path fill="#ade4f9" d="M 123.207031 235.269531 L 128.289062 235.269531 L 128.289062 230.1875 L 123.207031 230.1875 L 123.207031 235.269531"/></g><g id="change4_16"><path fill="#ade4f9" d="M 113.039062 235.269531 L 118.125 235.269531 L 118.125 230.1875 L 113.039062 230.1875 L 113.039062 235.269531"/></g><g id="change4_17"><path fill="#ade4f9" d="M 133.371094 220.027344 L 133.371094 225.109375 L 128.289062 225.109375 L 128.289062 230.1875 L 138.449219 230.1875 L 138.449219 225.109375 L 143.53125 225.109375 L 143.53125 220.027344 L 133.371094 220.027344"/></g><g id="change4_18"><path fill="#ade4f9" d="M 224.839844 220.027344 L 224.839844 230.1875 L 235.003906 230.1875 L 235.003906 225.109375 L 240.085938 225.109375 L 240.085938 209.863281 L 235.003906 209.863281 L 235.003906 204.785156 L 229.921875 204.785156 L 229.921875 199.703125 L 219.757812 199.703125 L 219.757812 204.785156 L 214.679688 204.785156 L 214.679688 209.863281 L 209.597656 209.863281 L 209.597656 214.945312 L 219.757812 214.945312 L 219.757812 220.027344 L 224.839844 220.027344"/></g><g id="change4_19"><path fill="#ade4f9" d="M 219.757812 199.703125 L 219.757812 189.539062 L 214.679688 189.539062 L 214.679688 179.378906 L 209.597656 179.378906 L 209.597656 174.300781 L 204.515625 174.300781 L 204.515625 169.21875 L 194.347656 169.21875 L 194.347656 164.136719 L 189.269531 164.136719 L 189.269531 159.058594 L 179.105469 159.058594 L 179.105469 164.136719 L 184.1875 164.136719 L 184.1875 169.21875 L 189.269531 169.21875 L 189.269531 174.300781 L 194.347656 174.300781 L 194.347656 179.378906 L 199.433594 179.378906 L 199.433594 184.460938 L 204.515625 184.460938 L 204.515625 204.785156 L 214.679688 204.785156 L 214.679688 199.703125 L 219.757812 199.703125"/></g><g id="change4_20"><path fill="#ade4f9" d="M 174.023438 153.976562 L 168.941406 153.976562 L 168.941406 159.058594 L 179.105469 159.058594 L 179.105469 153.976562 L 174.023438 153.976562"/></g><g id="change5_21"><path fill="#737373" d="M 255.332031 281 L 41.898438 281 L 41.898438 286.078125 L 265.492188 286.078125 L 265.492188 281 L 255.332031 281"/></g><g id="change5_22"><path fill="#737373" d="M 36.816406 275.921875 L 36.816406 281 L 41.898438 281 L 41.898438 275.921875 L 36.816406 275.921875"/></g><g id="change5_23"><path fill="#737373" d="M 275.65625 270.835938 L 270.574219 270.835938 L 270.574219 275.921875 L 265.492188 275.921875 L 265.492188 281 L 275.65625 281 L 275.65625 275.921875 L 280.738281 275.921875 L 280.738281 265.757812 L 275.65625 265.757812 L 275.65625 270.835938"/></g><g id="change5_24"><path fill="#737373" d="M 36.816406 265.757812 L 36.816406 260.675781 L 31.734375 260.675781 L 31.734375 275.921875 L 36.816406 275.921875 L 36.816406 265.757812"/></g><g id="change5_25"><path fill="#737373" d="M 41.898438 255.597656 L 52.0625 255.597656 L 52.0625 240.351562 L 57.144531 240.351562 L 57.144531 230.1875 L 62.222656 230.1875 L 62.222656 225.109375 L 67.304688 225.109375 L 67.304688 220.027344 L 97.796875 220.027344 L 97.796875 209.863281 L 92.714844 209.863281 L 92.714844 214.945312 L 62.222656 214.945312 L 62.222656 220.027344 L 57.144531 220.027344 L 57.144531 225.109375 L 52.0625 225.109375 L 52.0625 235.269531 L 46.980469 235.269531 L 46.980469 250.515625 L 36.816406 250.515625 L 36.816406 260.675781 L 41.898438 260.675781 L 41.898438 255.597656"/></g><g id="change5_26"><path fill="#737373" d="M 280.738281 240.351562 L 280.738281 265.757812 L 285.820312 265.757812 L 285.820312 240.351562 L 280.738281 240.351562"/></g><g id="change5_27"><path fill="#737373" d="M 280.738281 240.351562 L 280.738281 235.269531 L 275.65625 235.269531 L 275.65625 240.351562 L 280.738281 240.351562"/></g><g id="change5_28"><path fill="#737373" d="M 275.65625 235.269531 L 275.65625 230.1875 L 270.574219 230.1875 L 270.574219 235.269531 L 275.65625 235.269531"/></g><g id="change5_29"><path fill="#737373" d="M 265.492188 230.1875 L 270.574219 230.1875 L 270.574219 225.109375 L 260.410156 225.109375 L 260.410156 230.1875 L 265.492188 230.1875"/></g><g id="change5_30"><path fill="#737373" d="M 260.410156 225.109375 L 260.410156 220.027344 L 255.332031 220.027344 L 255.332031 225.109375 L 260.410156 225.109375"/></g><g id="change5_31"><path fill="#737373" d="M 102.878906 225.109375 L 102.878906 220.027344 L 97.796875 220.027344 L 97.796875 225.109375 L 102.878906 225.109375"/></g><g id="change5_32"><path fill="#737373" d="M 250.25 214.945312 L 250.25 220.027344 L 255.332031 220.027344 L 255.332031 204.785156 L 250.25 204.785156 L 250.25 214.945312"/></g><g id="change5_33"><path fill="#737373" d="M 102.878906 204.785156 L 102.878906 199.703125 L 97.796875 199.703125 L 97.796875 209.863281 L 102.878906 209.863281 L 102.878906 204.785156"/></g><g id="change5_34"><path fill="#737373" d="M 250.25 204.785156 L 250.25 199.703125 L 245.167969 199.703125 L 245.167969 204.785156 L 250.25 204.785156"/></g><g id="change5_35"><path fill="#737373" d="M 245.167969 199.703125 L 245.167969 194.621094 L 240.085938 194.621094 L 240.085938 199.703125 L 245.167969 199.703125"/></g><g id="change5_36"><path fill="#737373" d="M 113.039062 199.703125 L 113.039062 194.621094 L 133.371094 194.621094 L 133.371094 199.703125 L 138.449219 199.703125 L 138.449219 189.539062 L 143.53125 189.539062 L 143.53125 174.300781 L 148.613281 174.300781 L 148.613281 169.21875 L 153.695312 169.21875 L 153.695312 164.136719 L 158.777344 164.136719 L 158.777344 159.058594 L 168.941406 159.058594 L 168.941406 153.976562 L 194.347656 153.976562 L 194.347656 148.894531 L 163.859375 148.894531 L 163.859375 153.976562 L 153.695312 153.976562 L 153.695312 159.058594 L 148.613281 159.058594 L 148.613281 164.136719 L 143.53125 164.136719 L 143.53125 169.21875 L 138.449219 169.21875 L 138.449219 184.460938 L 133.371094 184.460938 L 133.371094 189.539062 L 107.960938 189.539062 L 107.960938 194.621094 L 102.878906 194.621094 L 102.878906 199.703125 L 113.039062 199.703125"/></g><g id="change5_37"><path fill="#737373" d="M 214.679688 179.378906 L 219.757812 179.378906 L 219.757812 194.621094 L 240.085938 194.621094 L 240.085938 189.539062 L 224.839844 189.539062 L 224.839844 174.300781 L 219.757812 174.300781 L 219.757812 169.21875 L 214.679688 169.21875 L 214.679688 179.378906"/></g><g id="change5_38"><path fill="#737373" d="M 214.679688 169.21875 L 214.679688 164.136719 L 209.597656 164.136719 L 209.597656 169.21875 L 214.679688 169.21875"/></g><g id="change5_39"><path fill="#737373" d="M 209.597656 164.136719 L 209.597656 159.058594 L 204.515625 159.058594 L 204.515625 164.136719 L 209.597656 164.136719"/></g><g id="change5_40"><path fill="#737373" d="M 199.433594 159.058594 L 204.515625 159.058594 L 204.515625 153.976562 L 194.347656 153.976562 L 194.347656 159.058594 L 199.433594 159.058594"/></g></g></svg>