<?xml version="1.0" encoding="UTF-8"?><svg xmlns="http://www.w3.org/2000/svg" xmlns:xlink="http://www.w3.org/1999/xlink" contentScriptType="text/ecmascript" fill="#000000" width="421.1" zoomAndPan="magnify" contentStyleType="text/css" viewBox="87.1 181.5 421.1 232.3" height="232.3" preserveAspectRatio="xMidYMid meet" version="1"><g><g id="change1_1"><path fill="#efc586" d="M 159.714844 268.601562 L 159.714844 283.121094 L 145.195312 283.121094 L 145.195312 268.601562 L 159.714844 268.601562"/></g><g id="change2_1"><path fill="#f9a72b" d="M 174.234375 268.601562 L 174.234375 283.121094 L 159.714844 283.121094 L 159.714844 268.601562 L 174.234375 268.601562"/></g><g id="change2_2"><path fill="#f9a72b" d="M 145.195312 355.71875 L 145.195312 370.238281 L 130.675781 370.238281 L 130.675781 355.71875 L 145.195312 355.71875"/></g><g id="change2_3"><path fill="#f9a72b" d="M 145.195312 341.199219 L 145.195312 355.71875 L 130.675781 355.71875 L 130.675781 341.199219 L 145.195312 341.199219"/></g><g id="change1_2"><path fill="#efc586" d="M 145.195312 370.238281 L 145.195312 384.761719 L 130.675781 384.761719 L 130.675781 370.238281 L 145.195312 370.238281"/></g><g id="change2_4"><path fill="#f9a72b" d="M 145.195312 326.679688 L 145.195312 341.199219 L 130.675781 341.199219 L 130.675781 326.679688 L 145.195312 326.679688"/></g><g id="change1_3"><path fill="#efc586" d="M 203.273438 370.238281 L 203.273438 384.761719 L 188.753906 384.761719 L 188.753906 370.238281 L 203.273438 370.238281"/></g><g id="change2_5"><path fill="#f9a72b" d="M 203.273438 326.679688 L 203.273438 341.199219 L 188.753906 341.199219 L 188.753906 326.679688 L 203.273438 326.679688"/></g><g id="change2_6"><path fill="#f9a72b" d="M 203.273438 355.71875 L 203.273438 370.238281 L 188.753906 370.238281 L 188.753906 355.71875 L 203.273438 355.71875"/></g><g id="change2_7"><path fill="#f9a72b" d="M 203.273438 341.199219 L 203.273438 355.71875 L 188.753906 355.71875 L 188.753906 341.199219 L 203.273438 341.199219"/></g><g id="change2_8"><path fill="#f9a72b" d="M 479.136719 312.160156 L 479.136719 326.679688 L 464.613281 326.679688 L 464.613281 312.160156 L 479.136719 312.160156"/></g><g id="change2_9"><path fill="#f9a72b" d="M 479.136719 326.679688 L 479.136719 341.199219 L 464.613281 341.199219 L 464.613281 326.679688 L 479.136719 326.679688"/></g><g id="change2_10"><path fill="#f9a72b" d="M 479.136719 283.121094 L 479.136719 297.640625 L 464.613281 297.640625 L 464.613281 283.121094 L 479.136719 283.121094"/></g><g id="change2_11"><path fill="#f9a72b" d="M 479.136719 268.601562 L 479.136719 283.121094 L 464.613281 283.121094 L 464.613281 268.601562 L 479.136719 268.601562"/></g><g id="change2_12"><path fill="#f9a72b" d="M 479.136719 297.640625 L 479.136719 312.160156 L 464.613281 312.160156 L 464.613281 297.640625 L 479.136719 297.640625"/></g><g id="change2_13"><path fill="#f9a72b" d="M 479.136719 254.089844 L 479.136719 268.601562 L 464.613281 268.601562 L 464.613281 254.089844 L 479.136719 254.089844"/></g><g id="change2_14"><path fill="#f9a72b" d="M 493.65625 283.121094 L 493.65625 297.640625 L 479.136719 297.640625 L 479.136719 283.121094 L 493.65625 283.121094"/></g><g id="change2_15"><path fill="#f9a72b" d="M 493.65625 297.640625 L 493.65625 312.160156 L 479.136719 312.160156 L 479.136719 297.640625 L 493.65625 297.640625"/></g><g id="change1_4"><path fill="#efc586" d="M 406.535156 225.050781 L 406.535156 239.570312 L 392.015625 239.570312 L 392.015625 225.050781 L 406.535156 225.050781"/></g><g id="change1_5"><path fill="#efc586" d="M 406.535156 210.53125 L 406.535156 225.050781 L 392.015625 225.050781 L 392.015625 210.53125 L 406.535156 210.53125"/></g><g id="change1_6"><path fill="#efc586" d="M 450.09375 254.089844 L 450.09375 268.601562 L 435.574219 268.601562 L 435.574219 254.089844 L 450.09375 254.089844"/></g><g id="change2_16"><path fill="#f9a72b" d="M 450.09375 239.570312 L 450.09375 254.089844 L 435.574219 254.089844 L 435.574219 239.570312 L 450.09375 239.570312"/></g><g id="change2_17"><path fill="#f9a72b" d="M 450.09375 210.53125 L 450.09375 225.050781 L 435.574219 225.050781 L 435.574219 210.53125 L 450.09375 210.53125"/></g><g id="change2_18"><path fill="#f9a72b" d="M 450.09375 225.050781 L 450.09375 239.570312 L 435.574219 239.570312 L 435.574219 225.050781 L 450.09375 225.050781"/></g><g id="change2_19"><path fill="#f9a72b" d="M 421.054688 225.050781 L 421.054688 239.570312 L 406.535156 239.570312 L 406.535156 225.050781 L 421.054688 225.050781"/></g><g id="change2_20"><path fill="#f9a72b" d="M 435.574219 239.570312 L 435.574219 254.089844 L 421.054688 254.089844 L 421.054688 239.570312 L 435.574219 239.570312"/></g><g id="change2_21"><path fill="#f9a72b" d="M 435.574219 196.011719 L 435.574219 210.53125 L 421.054688 210.53125 L 421.054688 196.011719 L 435.574219 196.011719"/></g><g id="change2_22"><path fill="#f9a72b" d="M 435.574219 225.050781 L 435.574219 239.570312 L 421.054688 239.570312 L 421.054688 225.050781 L 435.574219 225.050781"/></g><g id="change2_23"><path fill="#f9a72b" d="M 421.054688 239.570312 L 421.054688 254.089844 L 406.535156 254.089844 L 406.535156 239.570312 L 421.054688 239.570312"/></g><g id="change2_24"><path fill="#f9a72b" d="M 435.574219 210.53125 L 435.574219 225.050781 L 421.054688 225.050781 L 421.054688 210.53125 L 435.574219 210.53125"/></g><g id="change1_7"><path fill="#efc586" d="M 421.054688 196.011719 L 421.054688 210.53125 L 406.535156 210.53125 L 406.535156 196.011719 L 421.054688 196.011719"/></g><g id="change2_25"><path fill="#f9a72b" d="M 421.054688 210.53125 L 421.054688 225.050781 L 406.535156 225.050781 L 406.535156 210.53125 L 421.054688 210.53125"/></g><g id="change2_26"><path fill="#f9a72b" d="M 450.09375 370.238281 L 450.09375 384.761719 L 435.574219 384.761719 L 435.574219 370.238281 L 450.09375 370.238281"/></g><g id="change2_27"><path fill="#f9a72b" d="M 450.09375 355.71875 L 450.09375 370.238281 L 435.574219 370.238281 L 435.574219 355.71875 L 450.09375 355.71875"/></g><g id="change1_8"><path fill="#efc586" d="M 464.613281 297.640625 L 464.613281 312.160156 L 450.09375 312.160156 L 450.09375 297.640625 L 464.613281 297.640625"/></g><g id="change2_28"><path fill="#f9a72b" d="M 464.613281 355.71875 L 464.613281 370.238281 L 450.09375 370.238281 L 450.09375 355.71875 L 464.613281 355.71875"/></g><g id="change1_9"><path fill="#efc586" d="M 464.613281 326.679688 L 464.613281 341.199219 L 450.09375 341.199219 L 450.09375 326.679688 L 464.613281 326.679688"/></g><g id="change2_29"><path fill="#f9a72b" d="M 464.613281 225.050781 L 464.613281 239.570312 L 450.09375 239.570312 L 450.09375 225.050781 L 464.613281 225.050781"/></g><g id="change2_30"><path fill="#f9a72b" d="M 464.613281 341.199219 L 464.613281 355.71875 L 450.09375 355.71875 L 450.09375 341.199219 L 464.613281 341.199219"/></g><g id="change1_10"><path fill="#efc586" d="M 464.613281 268.601562 L 464.613281 283.121094 L 450.09375 283.121094 L 450.09375 268.601562 L 464.613281 268.601562"/></g><g id="change2_31"><path fill="#f9a72b" d="M 464.613281 254.089844 L 464.613281 268.601562 L 450.09375 268.601562 L 450.09375 254.089844 L 464.613281 254.089844"/></g><g id="change1_11"><path fill="#efc586" d="M 464.613281 312.160156 L 464.613281 326.679688 L 450.09375 326.679688 L 450.09375 312.160156 L 464.613281 312.160156"/></g><g id="change2_32"><path fill="#f9a72b" d="M 464.613281 239.570312 L 464.613281 254.089844 L 450.09375 254.089844 L 450.09375 239.570312 L 464.613281 239.570312"/></g><g id="change1_12"><path fill="#efc586" d="M 464.613281 283.121094 L 464.613281 297.640625 L 450.09375 297.640625 L 450.09375 283.121094 L 464.613281 283.121094"/></g><g id="change2_33"><path fill="#f9a72b" d="M 450.09375 341.199219 L 450.09375 355.71875 L 435.574219 355.71875 L 435.574219 341.199219 L 450.09375 341.199219"/></g><g id="change2_34"><path fill="#f9a72b" d="M 406.535156 297.640625 L 406.535156 312.160156 L 392.015625 312.160156 L 392.015625 297.640625 L 406.535156 297.640625"/></g><g id="change2_35"><path fill="#f9a72b" d="M 406.535156 283.121094 L 406.535156 297.640625 L 392.015625 297.640625 L 392.015625 283.121094 L 406.535156 283.121094"/></g><g id="change2_36"><path fill="#f9a72b" d="M 406.535156 254.089844 L 406.535156 268.601562 L 392.015625 268.601562 L 392.015625 254.089844 L 406.535156 254.089844"/></g><g id="change2_37"><path fill="#f9a72b" d="M 406.535156 384.761719 L 406.535156 399.28125 L 392.015625 399.28125 L 392.015625 384.761719 L 406.535156 384.761719"/></g><g id="change2_38"><path fill="#f9a72b" d="M 406.535156 326.679688 L 406.535156 341.199219 L 392.015625 341.199219 L 392.015625 326.679688 L 406.535156 326.679688"/></g><g id="change2_39"><path fill="#f9a72b" d="M 406.535156 312.160156 L 406.535156 326.679688 L 392.015625 326.679688 L 392.015625 312.160156 L 406.535156 312.160156"/></g><g id="change2_40"><path fill="#f9a72b" d="M 406.535156 341.199219 L 406.535156 355.71875 L 392.015625 355.71875 L 392.015625 341.199219 L 406.535156 341.199219"/></g><g id="change2_41"><path fill="#f9a72b" d="M 406.535156 268.601562 L 406.535156 283.121094 L 392.015625 283.121094 L 392.015625 268.601562 L 406.535156 268.601562"/></g><g id="change2_42"><path fill="#f9a72b" d="M 406.535156 355.71875 L 406.535156 370.238281 L 392.015625 370.238281 L 392.015625 355.71875 L 406.535156 355.71875"/></g><g id="change2_43"><path fill="#f9a72b" d="M 406.535156 370.238281 L 406.535156 384.761719 L 392.015625 384.761719 L 392.015625 370.238281 L 406.535156 370.238281"/></g><g id="change1_13"><path fill="#efc586" d="M 392.015625 254.089844 L 392.015625 268.601562 L 377.496094 268.601562 L 377.496094 254.089844 L 392.015625 254.089844"/></g><g id="change2_44"><path fill="#f9a72b" d="M 392.015625 341.199219 L 392.015625 355.71875 L 377.496094 355.71875 L 377.496094 341.199219 L 392.015625 341.199219"/></g><g id="change2_45"><path fill="#f9a72b" d="M 392.015625 326.679688 L 392.015625 341.199219 L 377.496094 341.199219 L 377.496094 326.679688 L 392.015625 326.679688"/></g><g id="change2_46"><path fill="#f9a72b" d="M 392.015625 355.71875 L 392.015625 370.238281 L 377.496094 370.238281 L 377.496094 355.71875 L 392.015625 355.71875"/></g><g id="change2_47"><path fill="#f9a72b" d="M 392.015625 283.121094 L 392.015625 297.640625 L 377.496094 297.640625 L 377.496094 283.121094 L 392.015625 283.121094"/></g><g id="change2_48"><path fill="#f9a72b" d="M 392.015625 297.640625 L 392.015625 312.160156 L 377.496094 312.160156 L 377.496094 297.640625 L 392.015625 297.640625"/></g><g id="change2_49"><path fill="#f9a72b" d="M 392.015625 268.601562 L 392.015625 283.121094 L 377.496094 283.121094 L 377.496094 268.601562 L 392.015625 268.601562"/></g><g id="change2_50"><path fill="#f9a72b" d="M 392.015625 312.160156 L 392.015625 326.679688 L 377.496094 326.679688 L 377.496094 312.160156 L 392.015625 312.160156"/></g><g id="change2_51"><path fill="#f9a72b" d="M 406.535156 239.570312 L 406.535156 254.089844 L 392.015625 254.089844 L 392.015625 239.570312 L 406.535156 239.570312"/></g><g id="change1_14"><path fill="#efc586" d="M 392.015625 239.570312 L 392.015625 254.089844 L 377.496094 254.089844 L 377.496094 239.570312 L 392.015625 239.570312"/></g><g id="change1_15"><path fill="#efc586" d="M 377.496094 268.601562 L 377.496094 283.121094 L 362.976562 283.121094 L 362.976562 268.601562 L 377.496094 268.601562"/></g><g id="change2_52"><path fill="#f9a72b" d="M 377.496094 326.679688 L 377.496094 341.199219 L 362.976562 341.199219 L 362.976562 326.679688 L 377.496094 326.679688"/></g><g id="change2_53"><path fill="#f9a72b" d="M 377.496094 283.121094 L 377.496094 297.640625 L 362.976562 297.640625 L 362.976562 283.121094 L 377.496094 283.121094"/></g><g id="change2_54"><path fill="#f9a72b" d="M 377.496094 312.160156 L 377.496094 326.679688 L 362.976562 326.679688 L 362.976562 312.160156 L 377.496094 312.160156"/></g><g id="change2_55"><path fill="#f9a72b" d="M 377.496094 297.640625 L 377.496094 312.160156 L 362.976562 312.160156 L 362.976562 297.640625 L 377.496094 297.640625"/></g><g id="change2_56"><path fill="#f9a72b" d="M 435.574219 384.761719 L 435.574219 399.28125 L 421.054688 399.28125 L 421.054688 384.761719 L 435.574219 384.761719"/></g><g id="change2_57"><path fill="#f9a72b" d="M 435.574219 355.71875 L 435.574219 370.238281 L 421.054688 370.238281 L 421.054688 355.71875 L 435.574219 355.71875"/></g><g id="change2_58"><path fill="#f9a72b" d="M 435.574219 370.238281 L 435.574219 384.761719 L 421.054688 384.761719 L 421.054688 370.238281 L 435.574219 370.238281"/></g><g id="change2_59"><path fill="#f9a72b" d="M 421.054688 384.761719 L 421.054688 399.28125 L 406.535156 399.28125 L 406.535156 384.761719 L 421.054688 384.761719"/></g><g id="change2_60"><path fill="#f9a72b" d="M 421.054688 355.71875 L 421.054688 370.238281 L 406.535156 370.238281 L 406.535156 355.71875 L 421.054688 355.71875"/></g><g id="change2_61"><path fill="#f9a72b" d="M 421.054688 370.238281 L 421.054688 384.761719 L 406.535156 384.761719 L 406.535156 370.238281 L 421.054688 370.238281"/></g><g id="change2_62"><path fill="#f9a72b" d="M 362.976562 312.160156 L 362.976562 326.679688 L 348.464844 326.679688 L 348.464844 312.160156 L 362.976562 312.160156"/></g><g id="change2_63"><path fill="#f9a72b" d="M 362.976562 297.640625 L 362.976562 312.160156 L 348.464844 312.160156 L 348.464844 297.640625 L 362.976562 297.640625"/></g><g id="change1_16"><path fill="#efc586" d="M 362.976562 283.121094 L 362.976562 297.640625 L 348.464844 297.640625 L 348.464844 283.121094 L 362.976562 283.121094"/></g><g id="change1_17"><path fill="#efc586" d="M 348.464844 283.121094 L 348.464844 297.640625 L 333.945312 297.640625 L 333.945312 283.121094 L 348.464844 283.121094"/></g><g id="change2_64"><path fill="#f9a72b" d="M 348.464844 312.160156 L 348.464844 326.679688 L 333.945312 326.679688 L 333.945312 312.160156 L 348.464844 312.160156"/></g><g id="change2_65"><path fill="#f9a72b" d="M 348.464844 297.640625 L 348.464844 312.160156 L 333.945312 312.160156 L 333.945312 297.640625 L 348.464844 297.640625"/></g><g id="change2_66"><path fill="#f9a72b" d="M 333.945312 312.160156 L 333.945312 326.679688 L 319.425781 326.679688 L 319.425781 312.160156 L 333.945312 312.160156"/></g><g id="change2_67"><path fill="#f9a72b" d="M 333.945312 297.640625 L 333.945312 312.160156 L 319.425781 312.160156 L 319.425781 297.640625 L 333.945312 297.640625"/></g><g id="change1_18"><path fill="#efc586" d="M 333.945312 283.121094 L 333.945312 297.640625 L 319.425781 297.640625 L 319.425781 283.121094 L 333.945312 283.121094"/></g><g id="change2_68"><path fill="#f9a72b" d="M 319.425781 312.160156 L 319.425781 326.679688 L 304.90625 326.679688 L 304.90625 312.160156 L 319.425781 312.160156"/></g><g id="change2_69"><path fill="#f9a72b" d="M 319.425781 297.640625 L 319.425781 312.160156 L 304.90625 312.160156 L 304.90625 297.640625 L 319.425781 297.640625"/></g><g id="change1_19"><path fill="#efc586" d="M 319.425781 283.121094 L 319.425781 297.640625 L 304.90625 297.640625 L 304.90625 283.121094 L 319.425781 283.121094"/></g><g id="change2_70"><path fill="#f9a72b" d="M 304.90625 297.640625 L 304.90625 312.160156 L 290.386719 312.160156 L 290.386719 297.640625 L 304.90625 297.640625"/></g><g id="change1_20"><path fill="#efc586" d="M 304.90625 283.121094 L 304.90625 297.640625 L 290.386719 297.640625 L 290.386719 283.121094 L 304.90625 283.121094"/></g><g id="change2_71"><path fill="#f9a72b" d="M 304.90625 312.160156 L 304.90625 326.679688 L 290.386719 326.679688 L 290.386719 312.160156 L 304.90625 312.160156"/></g><g id="change2_72"><path fill="#f9a72b" d="M 275.863281 312.160156 L 275.863281 326.679688 L 261.34375 326.679688 L 261.34375 312.160156 L 275.863281 312.160156"/></g><g id="change2_73"><path fill="#f9a72b" d="M 275.863281 297.640625 L 275.863281 312.160156 L 261.34375 312.160156 L 261.34375 297.640625 L 275.863281 297.640625"/></g><g id="change2_74"><path fill="#f9a72b" d="M 290.386719 312.160156 L 290.386719 326.679688 L 275.863281 326.679688 L 275.863281 312.160156 L 290.386719 312.160156"/></g><g id="change2_75"><path fill="#f9a72b" d="M 290.386719 297.640625 L 290.386719 312.160156 L 275.863281 312.160156 L 275.863281 297.640625 L 290.386719 297.640625"/></g><g id="change1_21"><path fill="#efc586" d="M 290.386719 283.121094 L 290.386719 297.640625 L 275.863281 297.640625 L 275.863281 283.121094 L 290.386719 283.121094"/></g><g id="change1_22"><path fill="#efc586" d="M 275.863281 283.121094 L 275.863281 297.640625 L 261.34375 297.640625 L 261.34375 283.121094 L 275.863281 283.121094"/></g><g id="change2_76"><path fill="#f9a72b" d="M 246.824219 312.160156 L 246.824219 326.679688 L 232.304688 326.679688 L 232.304688 312.160156 L 246.824219 312.160156"/></g><g id="change2_77"><path fill="#f9a72b" d="M 261.34375 297.640625 L 261.34375 312.160156 L 246.824219 312.160156 L 246.824219 297.640625 L 261.34375 297.640625"/></g><g id="change1_23"><path fill="#efc586" d="M 261.34375 283.121094 L 261.34375 297.640625 L 246.824219 297.640625 L 246.824219 283.121094 L 261.34375 283.121094"/></g><g id="change2_78"><path fill="#f9a72b" d="M 246.824219 297.640625 L 246.824219 312.160156 L 232.304688 312.160156 L 232.304688 297.640625 L 246.824219 297.640625"/></g><g id="change2_79"><path fill="#f9a72b" d="M 261.34375 312.160156 L 261.34375 326.679688 L 246.824219 326.679688 L 246.824219 312.160156 L 261.34375 312.160156"/></g><g id="change1_24"><path fill="#efc586" d="M 246.824219 283.121094 L 246.824219 297.640625 L 232.304688 297.640625 L 232.304688 283.121094 L 246.824219 283.121094"/></g><g id="change2_80"><path fill="#f9a72b" d="M 232.304688 297.640625 L 232.304688 312.160156 L 217.785156 312.160156 L 217.785156 297.640625 L 232.304688 297.640625"/></g><g id="change1_25"><path fill="#efc586" d="M 232.304688 283.121094 L 232.304688 297.640625 L 217.785156 297.640625 L 217.785156 283.121094 L 232.304688 283.121094"/></g><g id="change2_81"><path fill="#f9a72b" d="M 232.304688 312.160156 L 232.304688 326.679688 L 217.785156 326.679688 L 217.785156 312.160156 L 232.304688 312.160156"/></g><g id="change1_26"><path fill="#efc586" d="M 217.785156 283.121094 L 217.785156 297.640625 L 203.273438 297.640625 L 203.273438 283.121094 L 217.785156 283.121094"/></g><g id="change2_82"><path fill="#f9a72b" d="M 217.785156 297.640625 L 217.785156 312.160156 L 203.273438 312.160156 L 203.273438 297.640625 L 217.785156 297.640625"/></g><g id="change2_83"><path fill="#f9a72b" d="M 217.785156 312.160156 L 217.785156 326.679688 L 203.273438 326.679688 L 203.273438 312.160156 L 217.785156 312.160156"/></g><g id="change1_27"><path fill="#efc586" d="M 188.753906 283.121094 L 188.753906 297.640625 L 174.234375 297.640625 L 174.234375 283.121094 L 188.753906 283.121094"/></g><g id="change2_84"><path fill="#f9a72b" d="M 203.273438 312.160156 L 203.273438 326.679688 L 188.753906 326.679688 L 188.753906 312.160156 L 203.273438 312.160156"/></g><g id="change2_85"><path fill="#f9a72b" d="M 203.273438 297.640625 L 203.273438 312.160156 L 188.753906 312.160156 L 188.753906 297.640625 L 203.273438 297.640625"/></g><g id="change1_28"><path fill="#efc586" d="M 203.273438 283.121094 L 203.273438 297.640625 L 188.753906 297.640625 L 188.753906 283.121094 L 203.273438 283.121094"/></g><g id="change2_86"><path fill="#f9a72b" d="M 188.753906 312.160156 L 188.753906 326.679688 L 174.234375 326.679688 L 174.234375 312.160156 L 188.753906 312.160156"/></g><g id="change2_87"><path fill="#f9a72b" d="M 188.753906 297.640625 L 188.753906 312.160156 L 174.234375 312.160156 L 174.234375 297.640625 L 188.753906 297.640625"/></g><g id="change2_88"><path fill="#f9a72b" d="M 174.234375 312.160156 L 174.234375 326.679688 L 159.714844 326.679688 L 159.714844 312.160156 L 174.234375 312.160156"/></g><g id="change2_89"><path fill="#f9a72b" d="M 174.234375 283.121094 L 174.234375 297.640625 L 159.714844 297.640625 L 159.714844 283.121094 L 174.234375 283.121094"/></g><g id="change2_90"><path fill="#f9a72b" d="M 159.714844 283.121094 L 159.714844 297.640625 L 145.195312 297.640625 L 145.195312 283.121094 L 159.714844 283.121094"/></g><g id="change2_91"><path fill="#f9a72b" d="M 159.714844 297.640625 L 159.714844 312.160156 L 145.195312 312.160156 L 145.195312 297.640625 L 159.714844 297.640625"/></g><g id="change2_92"><path fill="#f9a72b" d="M 174.234375 297.640625 L 174.234375 312.160156 L 159.714844 312.160156 L 159.714844 297.640625 L 174.234375 297.640625"/></g><g id="change2_93"><path fill="#f9a72b" d="M 159.714844 312.160156 L 159.714844 326.679688 L 145.195312 326.679688 L 145.195312 312.160156 L 159.714844 312.160156"/></g><g id="change2_94"><path fill="#f9a72b" d="M 145.195312 312.160156 L 145.195312 326.679688 L 130.675781 326.679688 L 130.675781 312.160156 L 145.195312 312.160156"/></g><g id="change1_29"><path fill="#efc586" d="M 145.195312 283.121094 L 145.195312 297.640625 L 130.675781 297.640625 L 130.675781 283.121094 L 145.195312 283.121094"/></g><g id="change2_95"><path fill="#f9a72b" d="M 145.195312 297.640625 L 145.195312 312.160156 L 130.675781 312.160156 L 130.675781 297.640625 L 145.195312 297.640625"/></g><g id="change1_30"><path fill="#efc586" d="M 130.675781 283.121094 L 130.675781 297.640625 L 116.15625 297.640625 L 116.15625 283.121094 L 130.675781 283.121094"/></g><g id="change1_31"><path fill="#efc586" d="M 116.15625 312.160156 L 116.15625 326.679688 L 101.636719 326.679688 L 101.636719 312.160156 L 116.15625 312.160156"/></g><g id="change2_96"><path fill="#f9a72b" d="M 130.675781 312.160156 L 130.675781 326.679688 L 116.15625 326.679688 L 116.15625 312.160156 L 130.675781 312.160156"/></g><g id="change2_97"><path fill="#f9a72b" d="M 130.675781 297.640625 L 130.675781 312.160156 L 116.15625 312.160156 L 116.15625 297.640625 L 130.675781 297.640625"/></g><g id="change1_32"><path fill="#efc586" d="M 116.15625 283.121094 L 116.15625 297.640625 L 101.636719 297.640625 L 101.636719 283.121094 L 116.15625 283.121094"/></g><g id="change1_33"><path fill="#efc586" d="M 116.15625 297.640625 L 116.15625 312.160156 L 101.636719 312.160156 L 101.636719 297.640625 L 116.15625 297.640625"/></g><g id="change3_1"><path fill="#231f20" d="M 450.09375 326.679688 L 450.09375 341.199219 L 435.574219 341.199219 L 435.574219 326.679688 L 450.09375 326.679688"/></g><g id="change3_2"><path fill="#231f20" d="M 435.574219 341.199219 L 435.574219 355.71875 L 421.054688 355.71875 L 421.054688 341.199219 L 435.574219 341.199219"/></g><g id="change3_3"><path fill="#231f20" d="M 450.09375 312.160156 L 450.09375 326.679688 L 435.574219 326.679688 L 435.574219 312.160156 L 450.09375 312.160156"/></g><g id="change3_4"><path fill="#231f20" d="M 450.09375 297.640625 L 450.09375 312.160156 L 435.574219 312.160156 L 435.574219 297.640625 L 450.09375 297.640625"/></g><g id="change3_5"><path fill="#231f20" d="M 450.09375 283.121094 L 450.09375 297.640625 L 435.574219 297.640625 L 435.574219 283.121094 L 450.09375 283.121094"/></g><g id="change3_6"><path fill="#231f20" d="M 450.09375 268.601562 L 450.09375 283.121094 L 435.574219 283.121094 L 435.574219 268.601562 L 450.09375 268.601562"/></g><g id="change3_7"><path fill="#231f20" d="M 435.574219 254.089844 L 435.574219 268.601562 L 421.054688 268.601562 L 421.054688 254.089844 L 435.574219 254.089844"/></g><g id="change3_8"><path fill="#231f20" d="M 421.054688 254.089844 L 421.054688 268.601562 L 406.535156 268.601562 L 406.535156 254.089844 L 421.054688 254.089844"/></g><g id="change3_9"><path fill="#231f20" d="M 421.054688 341.199219 L 421.054688 355.71875 L 406.535156 355.71875 L 406.535156 341.199219 L 421.054688 341.199219"/></g><g id="change3_10"><path fill="#231f20" d="M 421.054688 312.160156 L 421.054688 326.679688 L 406.535156 326.679688 L 406.535156 312.160156 L 421.054688 312.160156"/></g><g id="change3_11"><path fill="#231f20" d="M 421.054688 297.640625 L 421.054688 312.160156 L 406.535156 312.160156 L 406.535156 297.640625 L 421.054688 297.640625"/></g><g id="change3_12"><path fill="#231f20" d="M 421.054688 326.679688 L 421.054688 341.199219 L 406.535156 341.199219 L 406.535156 326.679688 L 421.054688 326.679688"/></g><g id="change3_13"><path fill="#231f20" d="M 421.054688 283.121094 L 421.054688 297.640625 L 406.535156 297.640625 L 406.535156 283.121094 L 421.054688 283.121094"/></g><g id="change3_14"><path fill="#231f20" d="M 421.054688 268.601562 L 421.054688 283.121094 L 406.535156 283.121094 L 406.535156 268.601562 L 421.054688 268.601562"/></g><g id="change3_15"><path fill="#231f20" d="M 508.164062 297.640625 L 508.164062 312.160156 L 493.65625 312.160156 L 493.65625 297.640625 L 508.164062 297.640625"/></g><g id="change3_16"><path fill="#231f20" d="M 508.164062 283.121094 L 508.164062 297.640625 L 493.65625 297.640625 L 493.65625 283.121094 L 508.164062 283.121094"/></g><g id="change3_17"><path fill="#231f20" d="M 493.65625 326.679688 L 493.65625 341.199219 L 479.136719 341.199219 L 479.136719 326.679688 L 493.65625 326.679688"/></g><g id="change3_18"><path fill="#231f20" d="M 493.65625 312.160156 L 493.65625 326.679688 L 479.136719 326.679688 L 479.136719 312.160156 L 493.65625 312.160156"/></g><g id="change3_19"><path fill="#231f20" d="M 493.65625 268.601562 L 493.65625 283.121094 L 479.136719 283.121094 L 479.136719 268.601562 L 493.65625 268.601562"/></g><g id="change3_20"><path fill="#231f20" d="M 493.65625 254.089844 L 493.65625 268.601562 L 479.136719 268.601562 L 479.136719 254.089844 L 493.65625 254.089844"/></g><g id="change3_21"><path fill="#231f20" d="M 479.136719 355.71875 L 479.136719 370.238281 L 464.613281 370.238281 L 464.613281 355.71875 L 479.136719 355.71875"/></g><g id="change3_22"><path fill="#231f20" d="M 479.136719 341.199219 L 479.136719 355.71875 L 464.613281 355.71875 L 464.613281 341.199219 L 479.136719 341.199219"/></g><g id="change3_23"><path fill="#231f20" d="M 479.136719 239.570312 L 479.136719 254.089844 L 464.613281 254.089844 L 464.613281 239.570312 L 479.136719 239.570312"/></g><g id="change3_24"><path fill="#231f20" d="M 479.136719 225.050781 L 479.136719 239.570312 L 464.613281 239.570312 L 464.613281 225.050781 L 479.136719 225.050781"/></g><g id="change3_25"><path fill="#231f20" d="M 464.613281 370.238281 L 464.613281 384.761719 L 450.09375 384.761719 L 450.09375 370.238281 L 464.613281 370.238281"/></g><g id="change3_26"><path fill="#231f20" d="M 464.613281 210.53125 L 464.613281 225.050781 L 450.09375 225.050781 L 450.09375 210.53125 L 464.613281 210.53125"/></g><g id="change3_27"><path fill="#231f20" d="M 450.09375 384.761719 L 450.09375 399.28125 L 435.574219 399.28125 L 435.574219 384.761719 L 450.09375 384.761719"/></g><g id="change3_28"><path fill="#231f20" d="M 450.09375 196.011719 L 450.09375 210.53125 L 435.574219 210.53125 L 435.574219 196.011719 L 450.09375 196.011719"/></g><g id="change3_29"><path fill="#231f20" d="M 435.574219 399.28125 L 435.574219 413.789062 L 421.054688 413.789062 L 421.054688 399.28125 L 435.574219 399.28125"/></g><g id="change3_30"><path fill="#231f20" d="M 435.574219 181.488281 L 435.574219 196.011719 L 421.054688 196.011719 L 421.054688 181.488281 L 435.574219 181.488281"/></g><g id="change3_31"><path fill="#231f20" d="M 421.054688 399.28125 L 421.054688 413.789062 L 406.535156 413.789062 L 406.535156 399.28125 L 421.054688 399.28125"/></g><g id="change3_32"><path fill="#231f20" d="M 421.054688 181.488281 L 421.054688 196.011719 L 406.535156 196.011719 L 406.535156 181.488281 L 421.054688 181.488281"/></g><g id="change3_33"><path fill="#231f20" d="M 406.535156 399.28125 L 406.535156 413.789062 L 392.015625 413.789062 L 392.015625 399.28125 L 406.535156 399.28125"/></g><g id="change3_34"><path fill="#231f20" d="M 406.535156 196.011719 L 406.535156 210.53125 L 392.015625 210.53125 L 392.015625 196.011719 L 406.535156 196.011719"/></g><g id="change3_35"><path fill="#231f20" d="M 392.015625 384.761719 L 392.015625 399.28125 L 377.496094 399.28125 L 377.496094 384.761719 L 392.015625 384.761719"/></g><g id="change3_36"><path fill="#231f20" d="M 392.015625 370.238281 L 392.015625 384.761719 L 377.496094 384.761719 L 377.496094 370.238281 L 392.015625 370.238281"/></g><g id="change3_37"><path fill="#231f20" d="M 392.015625 225.050781 L 392.015625 239.570312 L 377.496094 239.570312 L 377.496094 225.050781 L 392.015625 225.050781"/></g><g id="change3_38"><path fill="#231f20" d="M 392.015625 210.53125 L 392.015625 225.050781 L 377.496094 225.050781 L 377.496094 210.53125 L 392.015625 210.53125"/></g><g id="change3_39"><path fill="#231f20" d="M 377.496094 355.71875 L 377.496094 370.238281 L 362.976562 370.238281 L 362.976562 355.71875 L 377.496094 355.71875"/></g><g id="change3_40"><path fill="#231f20" d="M 377.496094 341.199219 L 377.496094 355.71875 L 362.976562 355.71875 L 362.976562 341.199219 L 377.496094 341.199219"/></g><g id="change3_41"><path fill="#231f20" d="M 377.496094 254.089844 L 377.496094 268.601562 L 362.976562 268.601562 L 362.976562 254.089844 L 377.496094 254.089844"/></g><g id="change3_42"><path fill="#231f20" d="M 377.496094 239.570312 L 377.496094 254.089844 L 362.976562 254.089844 L 362.976562 239.570312 L 377.496094 239.570312"/></g><g id="change3_43"><path fill="#231f20" d="M 362.976562 326.679688 L 362.976562 341.199219 L 348.464844 341.199219 L 348.464844 326.679688 L 362.976562 326.679688"/></g><g id="change3_44"><path fill="#231f20" d="M 362.976562 268.601562 L 362.976562 283.121094 L 348.464844 283.121094 L 348.464844 268.601562 L 362.976562 268.601562"/></g><g id="change3_45"><path fill="#231f20" d="M 348.464844 326.679688 L 348.464844 341.199219 L 333.945312 341.199219 L 333.945312 326.679688 L 348.464844 326.679688"/></g><g id="change3_46"><path fill="#231f20" d="M 348.464844 268.601562 L 348.464844 283.121094 L 333.945312 283.121094 L 333.945312 268.601562 L 348.464844 268.601562"/></g><g id="change3_47"><path fill="#231f20" d="M 333.945312 326.679688 L 333.945312 341.199219 L 319.425781 341.199219 L 319.425781 326.679688 L 333.945312 326.679688"/></g><g id="change3_48"><path fill="#231f20" d="M 333.945312 268.601562 L 333.945312 283.121094 L 319.425781 283.121094 L 319.425781 268.601562 L 333.945312 268.601562"/></g><g id="change3_49"><path fill="#231f20" d="M 319.425781 326.679688 L 319.425781 341.199219 L 304.90625 341.199219 L 304.90625 326.679688 L 319.425781 326.679688"/></g><g id="change3_50"><path fill="#231f20" d="M 319.425781 268.601562 L 319.425781 283.121094 L 304.90625 283.121094 L 304.90625 268.601562 L 319.425781 268.601562"/></g><g id="change3_51"><path fill="#231f20" d="M 304.90625 326.679688 L 304.90625 341.199219 L 290.386719 341.199219 L 290.386719 326.679688 L 304.90625 326.679688"/></g><g id="change3_52"><path fill="#231f20" d="M 304.90625 268.601562 L 304.90625 283.121094 L 290.386719 283.121094 L 290.386719 268.601562 L 304.90625 268.601562"/></g><g id="change3_53"><path fill="#231f20" d="M 290.386719 326.679688 L 290.386719 341.199219 L 275.863281 341.199219 L 275.863281 326.679688 L 290.386719 326.679688"/></g><g id="change3_54"><path fill="#231f20" d="M 290.386719 268.601562 L 290.386719 283.121094 L 275.863281 283.121094 L 275.863281 268.601562 L 290.386719 268.601562"/></g><g id="change3_55"><path fill="#231f20" d="M 275.863281 326.679688 L 275.863281 341.199219 L 261.34375 341.199219 L 261.34375 326.679688 L 275.863281 326.679688"/></g><g id="change3_56"><path fill="#231f20" d="M 275.863281 268.601562 L 275.863281 283.121094 L 261.34375 283.121094 L 261.34375 268.601562 L 275.863281 268.601562"/></g><g id="change3_57"><path fill="#231f20" d="M 261.34375 326.679688 L 261.34375 341.199219 L 246.824219 341.199219 L 246.824219 326.679688 L 261.34375 326.679688"/></g><g id="change3_58"><path fill="#231f20" d="M 261.34375 268.601562 L 261.34375 283.121094 L 246.824219 283.121094 L 246.824219 268.601562 L 261.34375 268.601562"/></g><g id="change3_59"><path fill="#231f20" d="M 246.824219 326.679688 L 246.824219 341.199219 L 232.304688 341.199219 L 232.304688 326.679688 L 246.824219 326.679688"/></g><g id="change3_60"><path fill="#231f20" d="M 246.824219 268.601562 L 246.824219 283.121094 L 232.304688 283.121094 L 232.304688 268.601562 L 246.824219 268.601562"/></g><g id="change3_61"><path fill="#231f20" d="M 232.304688 326.679688 L 232.304688 341.199219 L 217.785156 341.199219 L 217.785156 326.679688 L 232.304688 326.679688"/></g><g id="change3_62"><path fill="#231f20" d="M 232.304688 268.601562 L 232.304688 283.121094 L 217.785156 283.121094 L 217.785156 268.601562 L 232.304688 268.601562"/></g><g id="change3_63"><path fill="#231f20" d="M 217.785156 370.238281 L 217.785156 384.761719 L 203.273438 384.761719 L 203.273438 370.238281 L 217.785156 370.238281"/></g><g id="change3_64"><path fill="#231f20" d="M 217.785156 355.71875 L 217.785156 370.238281 L 203.273438 370.238281 L 203.273438 355.71875 L 217.785156 355.71875"/></g><g id="change3_65"><path fill="#231f20" d="M 217.785156 341.199219 L 217.785156 355.71875 L 203.273438 355.71875 L 203.273438 341.199219 L 217.785156 341.199219"/></g><g id="change3_66"><path fill="#231f20" d="M 217.785156 326.679688 L 217.785156 341.199219 L 203.273438 341.199219 L 203.273438 326.679688 L 217.785156 326.679688"/></g><g id="change3_67"><path fill="#231f20" d="M 217.785156 268.601562 L 217.785156 283.121094 L 203.273438 283.121094 L 203.273438 268.601562 L 217.785156 268.601562"/></g><g id="change3_68"><path fill="#231f20" d="M 203.273438 384.761719 L 203.273438 399.28125 L 188.753906 399.28125 L 188.753906 384.761719 L 203.273438 384.761719"/></g><g id="change3_69"><path fill="#231f20" d="M 203.273438 268.601562 L 203.273438 283.121094 L 188.753906 283.121094 L 188.753906 268.601562 L 203.273438 268.601562"/></g><g id="change3_70"><path fill="#231f20" d="M 188.753906 370.238281 L 188.753906 384.761719 L 174.234375 384.761719 L 174.234375 370.238281 L 188.753906 370.238281"/></g><g id="change3_71"><path fill="#231f20" d="M 188.753906 355.71875 L 188.753906 370.238281 L 174.234375 370.238281 L 174.234375 355.71875 L 188.753906 355.71875"/></g><g id="change3_72"><path fill="#231f20" d="M 188.753906 341.199219 L 188.753906 355.71875 L 174.234375 355.71875 L 174.234375 341.199219 L 188.753906 341.199219"/></g><g id="change3_73"><path fill="#231f20" d="M 188.753906 326.679688 L 188.753906 341.199219 L 174.234375 341.199219 L 174.234375 326.679688 L 188.753906 326.679688"/></g><g id="change3_74"><path fill="#231f20" d="M 188.753906 268.601562 L 188.753906 283.121094 L 174.234375 283.121094 L 174.234375 268.601562 L 188.753906 268.601562"/></g><g id="change3_75"><path fill="#231f20" d="M 174.234375 326.679688 L 174.234375 341.199219 L 159.714844 341.199219 L 159.714844 326.679688 L 174.234375 326.679688"/></g><g id="change3_76"><path fill="#231f20" d="M 174.234375 254.089844 L 174.234375 268.601562 L 159.714844 268.601562 L 159.714844 254.089844 L 174.234375 254.089844"/></g><g id="change3_77"><path fill="#231f20" d="M 159.714844 370.238281 L 159.714844 384.761719 L 145.195312 384.761719 L 145.195312 370.238281 L 159.714844 370.238281"/></g><g id="change3_78"><path fill="#231f20" d="M 159.714844 355.71875 L 159.714844 370.238281 L 145.195312 370.238281 L 145.195312 355.71875 L 159.714844 355.71875"/></g><g id="change3_79"><path fill="#231f20" d="M 159.714844 341.199219 L 159.714844 355.71875 L 145.195312 355.71875 L 145.195312 341.199219 L 159.714844 341.199219"/></g><g id="change3_80"><path fill="#231f20" d="M 159.714844 326.679688 L 159.714844 341.199219 L 145.195312 341.199219 L 145.195312 326.679688 L 159.714844 326.679688"/></g><g id="change3_81"><path fill="#231f20" d="M 159.714844 254.089844 L 159.714844 268.601562 L 145.195312 268.601562 L 145.195312 254.089844 L 159.714844 254.089844"/></g><g id="change3_82"><path fill="#231f20" d="M 145.195312 384.761719 L 145.195312 399.28125 L 130.675781 399.28125 L 130.675781 384.761719 L 145.195312 384.761719"/></g><g id="change3_83"><path fill="#231f20" d="M 145.195312 268.601562 L 145.195312 283.121094 L 130.675781 283.121094 L 130.675781 268.601562 L 145.195312 268.601562"/></g><g id="change3_84"><path fill="#231f20" d="M 130.675781 370.238281 L 130.675781 384.761719 L 116.15625 384.761719 L 116.15625 370.238281 L 130.675781 370.238281"/></g><g id="change3_85"><path fill="#231f20" d="M 130.675781 355.71875 L 130.675781 370.238281 L 116.15625 370.238281 L 116.15625 355.71875 L 130.675781 355.71875"/></g><g id="change3_86"><path fill="#231f20" d="M 130.675781 341.199219 L 130.675781 355.71875 L 116.15625 355.71875 L 116.15625 341.199219 L 130.675781 341.199219"/></g><g id="change3_87"><path fill="#231f20" d="M 130.675781 326.679688 L 130.675781 341.199219 L 116.15625 341.199219 L 116.15625 326.679688 L 130.675781 326.679688"/></g><g id="change3_88"><path fill="#231f20" d="M 130.675781 268.601562 L 130.675781 283.121094 L 116.15625 283.121094 L 116.15625 268.601562 L 130.675781 268.601562"/></g><g id="change3_89"><path fill="#231f20" d="M 116.15625 326.679688 L 116.15625 341.199219 L 101.636719 341.199219 L 101.636719 326.679688 L 116.15625 326.679688"/></g><g id="change3_90"><path fill="#231f20" d="M 116.15625 268.601562 L 116.15625 283.121094 L 101.636719 283.121094 L 101.636719 268.601562 L 116.15625 268.601562"/></g><g id="change3_91"><path fill="#231f20" d="M 101.636719 312.160156 L 101.636719 326.679688 L 87.113281 326.679688 L 87.113281 312.160156 L 101.636719 312.160156"/></g><g id="change3_92"><path fill="#231f20" d="M 101.636719 297.640625 L 101.636719 312.160156 L 87.113281 312.160156 L 87.113281 297.640625 L 101.636719 297.640625"/></g><g id="change3_93"><path fill="#231f20" d="M 101.636719 283.121094 L 101.636719 297.640625 L 87.113281 297.640625 L 87.113281 283.121094 L 101.636719 283.121094"/></g></g></svg>