<?xml version="1.0" encoding="UTF-8"?><svg xmlns="http://www.w3.org/2000/svg" xmlns:xlink="http://www.w3.org/1999/xlink" contentScriptType="text/ecmascript" fill="#000000" width="452.2" zoomAndPan="magnify" contentStyleType="text/css" viewBox="-0.4 -0.4 452.2 409.9" height="409.9" data-name="Layer 1" preserveAspectRatio="xMidYMid meet" version="1"><g id="change1_1"><path fill="#ffca56" d="M451.37,155.13v28.19H437.26v14.09H423.17v14.08H409.08v14.1H395v14.09h-28.2v28.19h14.11v98.65H366.77V394.7H352.68v14.1H310.39V394.7h-28.2V380.61H268.1V366.52H254v-14.1H239.9V338.33H211.7v14.09H197.61v14.1H183.5v14.09H169.41V394.7h-28.2v14.1H98.92V394.7H84.81V366.52H70.72V267.87H84.81V239.68H56.63V225.59H42.52v-14.1H28.43V197.41H14.34V183.32H.23V155.13H14.34V141H28.43V126.94h28.2V112.85H84.81V98.75h56.4V84.67H155.3V56.48h14.11V42.39H183.5V28.29h14.11V14.2H211.7V.1h28.2V14.2H254V28.29H268.1v14.1h14.09V56.48h14.09V84.67h14.11V98.75h56.38v14.1H395v14.09h28.2V141h14.09v14.1Z"/></g><g id="change2_1"><path fill="#ffffff" d="M126.97 141.07L126.97 126.97 112.85 126.97 98.75 126.97 98.75 141.07 98.75 155.18 112.85 155.18 126.97 155.18 126.97 141.07z"/></g><g id="change2_2"><path fill="#ffffff" d="M183.38 239.82L183.38 225.72 183.38 211.6 169.28 211.6 155.17 211.6 155.17 225.72 155.17 239.82 141.07 239.82 126.97 239.82 126.97 253.92 126.97 268.03 141.07 268.03 155.17 268.03 155.17 282.13 155.17 296.25 169.28 296.25 183.38 296.25 183.38 282.13 183.38 268.03 197.5 268.03 211.6 268.03 211.6 253.92 211.6 239.82 197.5 239.82 183.38 239.82z"/></g><g id="change2_3"><path fill="#ffffff" d="M84.64 338.57L84.64 352.67 84.64 366.78 98.75 366.78 112.85 366.78 112.85 352.67 112.85 338.57 98.75 338.57 84.64 338.57z"/></g><g id="change2_4"><path fill="#ffffff" d="M197.5 56.43L183.38 56.43 183.38 70.53 197.5 70.53 211.6 70.53 211.6 56.43 211.6 42.33 197.5 42.33 197.5 56.43z"/></g><g id="change2_5"><path fill="#ffffff" d="M380.88 126.97L366.77 126.97 366.77 141.07 366.77 155.18 380.88 155.18 394.99 155.18 394.99 141.07 394.99 126.97 380.88 126.97z"/></g><g id="change2_6"><path fill="#ffffff" d="M310.35 310.35L310.35 324.45 310.35 338.57 324.45 338.57 338.57 338.57 338.57 324.45 338.57 310.35 324.45 310.35 310.35 310.35z"/></g><g id="change2_7"><path fill="#ffffff" d="M239.82 112.86L239.82 126.97 239.82 141.07 253.92 141.07 268.03 141.07 268.03 126.97 268.03 112.86 253.92 112.86 239.82 112.86z"/></g><g id="change2_8"><path fill="#ffffff" d="M310.35 225.72L310.35 211.6 296.24 211.6 282.13 211.6 282.13 225.72 282.13 239.82 296.24 239.82 310.35 239.82 310.35 225.72z"/></g><g id="change3_1"><path fill="#ffffff" d="M84.64 141.07L84.64 126.97 70.53 126.97 56.43 126.97 56.43 141.07 70.53 141.07 84.64 141.07z"/></g><g id="change3_2"><path fill="#ffffff" d="M155.17 84.65H169.29V98.75H155.17z"/></g><g id="change3_3"><path fill="#ffffff" d="M56.43 155.18L56.43 141.07 42.32 141.07 28.22 141.07 28.22 155.18 42.32 155.18 56.43 155.18z"/></g><g id="change3_4"><path fill="#ffffff" d="M141.07 98.75H155.17V112.87H141.07z"/></g><g id="change3_5"><path fill="#ffffff" d="M112.85 126.97L126.97 126.97 141.07 126.97 141.07 112.86 126.97 112.86 112.85 112.86 98.75 112.86 84.64 112.86 84.64 126.97 98.75 126.97 112.85 126.97z"/></g><g id="change3_6"><path fill="#ffffff" d="M42.32 197.5H56.44V211.6H42.32z"/></g><g id="change3_7"><path fill="#ffffff" d="M70.53 211.6L56.43 211.6 56.43 225.72 70.53 225.72 84.64 225.72 84.64 211.6 70.53 211.6z"/></g><g id="change3_8"><path fill="#ffffff" d="M28.22 155.18L14.12 155.18 14.12 169.28 14.12 183.4 28.22 183.4 28.22 169.28 28.22 155.18z"/></g><g id="change3_9"><path fill="#ffffff" d="M28.22 183.4H42.32V197.5H28.22z"/></g><g id="change3_10"><path fill="#ffffff" d="M296.23 98.75H310.35V112.87H296.23z"/></g><g id="change3_11"><path fill="#ffffff" d="M282.13 84.65H296.23V98.75H282.13z"/></g><g id="change3_12"><path fill="#ffffff" d="M268.03 84.65L282.13 84.65 282.13 70.53 282.13 56.43 268.03 56.43 268.03 70.53 268.03 84.65z"/></g><g id="change3_13"><path fill="#ffffff" d="M84.63 225.72H98.75V239.82H84.63z"/></g><g id="change3_14"><path fill="#ffffff" d="M324.45 126.97L338.57 126.97 352.67 126.97 366.77 126.97 366.77 112.86 352.67 112.86 338.57 112.86 324.45 112.86 310.35 112.86 310.35 126.97 324.45 126.97z"/></g><g id="change3_15"><path fill="#ffffff" d="M183.38 70.53L183.38 56.43 169.28 56.43 169.28 70.53 169.28 84.65 183.38 84.65 183.38 70.53z"/></g><g id="change3_16"><path fill="#ffffff" d="M253.92 42.33H268.03999999999996V56.43H253.92z"/></g><g id="change3_17"><path fill="#ffffff" d="M197.5 28.22H211.6V42.339999999999996H197.5z"/></g><g id="change3_18"><path fill="#ffffff" d="M183.38 42.33H197.5V56.43H183.38z"/></g><g id="change3_19"><path fill="#ffffff" d="M239.82 28.22L239.82 14.12 225.7 14.12 211.6 14.12 211.6 28.22 225.7 28.22 239.82 28.22z"/></g><g id="change3_20"><path fill="#ffffff" d="M239.82 28.22H253.92V42.339999999999996H239.82z"/></g><g id="change3_21"><path fill="#ffffff" d="M112.85 380.88L112.85 366.78 98.75 366.78 98.75 380.88 98.75 394.99 112.85 394.99 126.97 394.99 141.07 394.99 141.07 380.88 126.97 380.88 112.85 380.88z"/></g><g id="change3_22"><path fill="#ffffff" d="M366.77 211.6L366.77 225.72 380.88 225.72 394.99 225.72 394.99 211.6 380.88 211.6 366.77 211.6z"/></g><g id="change3_23"><path fill="#ffffff" d="M338.57 253.92L338.57 268.03 352.67 268.03 352.67 253.92 352.67 239.82 338.57 239.82 338.57 253.92z"/></g><g id="change3_24"><path fill="#ffffff" d="M84.64 282.13L84.64 296.25 84.64 310.35 84.64 324.45 84.64 338.57 98.75 338.57 98.75 324.45 98.75 310.35 98.75 296.25 98.75 282.13 98.75 268.03 84.64 268.03 84.64 282.13z"/></g><g id="change3_25"><path fill="#ffffff" d="M352.67 296.25L352.67 310.35 352.67 324.45 352.67 338.57 352.67 352.67 352.67 366.78 366.77 366.78 366.77 352.67 366.77 338.57 366.77 324.45 366.77 310.35 366.77 296.25 366.77 282.13 366.77 268.03 352.67 268.03 352.67 282.13 352.67 296.25z"/></g><g id="change3_26"><path fill="#ffffff" d="M296.24 366.78L282.13 366.78 282.13 380.88 296.24 380.88 310.35 380.88 310.35 366.78 296.24 366.78z"/></g><g id="change3_27"><path fill="#ffffff" d="M338.57 380.88L324.45 380.88 310.35 380.88 310.35 394.99 324.45 394.99 338.57 394.99 352.67 394.99 352.67 380.88 352.67 366.78 338.57 366.78 338.57 380.88z"/></g><g id="change3_28"><path fill="#ffffff" d="M394.98 197.5H409.1V211.6H394.98z"/></g><g id="change3_29"><path fill="#ffffff" d="M423.2 155.18L423.2 169.28 423.2 183.4 437.3 183.4 437.3 169.28 437.3 155.18 423.2 155.18z"/></g><g id="change3_30"><path fill="#ffffff" d="M409.1 141.07L394.99 141.07 394.99 155.18 409.1 155.18 423.2 155.18 423.2 141.07 409.1 141.07z"/></g><g id="change3_31"><path fill="#ffffff" d="M409.1 183.4H423.20000000000005V197.5H409.1z"/></g><g id="change3_32"><path fill="#ffffff" d="M352.67 225.72H366.77000000000004V239.82H352.67z"/></g><g id="change3_33"><path fill="#ffffff" d="M268.03 352.67H282.13V366.79H268.03z"/></g><g id="change3_34"><path fill="#ffffff" d="M169.28 352.67H183.38V366.79H169.28z"/></g><g id="change3_35"><path fill="#ffffff" d="M183.38 338.57H197.5V352.67H183.38z"/></g><g id="change3_36"><path fill="#ffffff" d="M98.75 268.03L112.85 268.03 112.85 253.92 112.85 239.82 98.75 239.82 98.75 253.92 98.75 268.03z"/></g><g id="change3_37"><path fill="#ffffff" d="M141.07 366.78L141.07 380.88 155.17 380.88 169.28 380.88 169.28 366.78 155.17 366.78 141.07 366.78z"/></g><g id="change3_38"><path fill="#ffffff" d="M253.92 338.57H268.03999999999996V352.67H253.92z"/></g><g id="change3_39"><path fill="#ffffff" d="M197.5 324.45H211.6V338.57H197.5z"/></g><g id="change3_40"><path fill="#ffffff" d="M239.82 324.45H253.92V338.57H239.82z"/></g><g id="change3_41"><path fill="#ffffff" d="M225.7 310.35L211.6 310.35 211.6 324.45 225.7 324.45 239.82 324.45 239.82 310.35 225.7 310.35z"/></g><g id="change4_1"><path fill="#191919" d="M437.7,154.78V140.67H423.6v-14.1H395.38V112.46H367.17V98.35H310.75V84.25H296.63V56h-14.1V41.93h-14.1V27.82H254.32V13.71h-14.1V-.4h-29V13.71H197.1V27.82H183V41.93h-14.1V56H154.77V84.25h-14.1v14.1H84.23v14.11H56v14.11H27.82v14.1H13.71v14.11H-.4v29H13.71v14.1h14.1V212h14.1v14.12H56v14.1h28.2v27.41H70.13v99.55h14.1v28.2H98.35V409.5h43.12V395.38h28.21v-14.1h14.1v-14.1H197.9V353.07H212V339h27.42v14.1h14.1v14.11h14.11v14.1h14.1v14.1H310V409.5h43.12V395.38h14.1v-28.2h14.11V267.63H367.17V240.22h28.21v-14.1H409.5V212h14.1V197.9h14.1V183.8h14.12v-29Zm-.8,14.5V183H422.8v14.1H408.7v14.1H394.58v14.12H366.37v14.1h-14.1v29h14.1v97.95h-14.1v28.2H310.75v-14.1H282.53v-14.1h-14.1V352.27H254.32v-14.1h-14.1V324.05h-29v14.12H197.1v14.1H183v14.11h-14.1v14.1H140.67v14.1H99.15v-28.2H85V268.43H99.15v-29H85v-14.1H56.83V211.2H42.72V197.1H28.61V183H14.52V155.58H28.61V141.47H56.83v-14.1H85v-14.1h56.44V99.15h14.1V85.05h14.11V56.83h14.1V42.73H197.9V28.62H212V14.52h27.42v14.1h14.1V42.73h14.11v14.1h14.1V85.05h14.1v14.1H310v14.12h56.42v14.1h28.21v14.1H422.8v14.11h14.1Z"/></g></svg>