<?xml version="1.0" encoding="UTF-8"?><svg xmlns="http://www.w3.org/2000/svg" xmlns:xlink="http://www.w3.org/1999/xlink" contentScriptType="text/ecmascript" fill="#000000" width="449.8" zoomAndPan="magnify" contentStyleType="text/css" viewBox="-1.7 -0.8 449.8 419.9" height="419.9" data-name="Layer 1" preserveAspectRatio="xMidYMid meet" version="1"><path fill="none" d="M180.72 30.36L210.18 30.69 239.95 31.02 239.95 31.02 210.18 30.69 180.72 30.36z"/><path fill="none" d="M239.62 60.79L269.43 61.12 239.62 60.79 239.62 60.79z"/><path fill="none" d="M268.76 120.69L269.1 90.92 269.43 61.12 269.1 90.92 268.76 120.69z"/><path fill="none" d="M268.66 129.9L268.76 120.69 268.66 129.9 268.66 129.9z"/><path fill="none" d="M29.36 222.38L29.52 207.39 29.85 177.62 59.62 177.95 59.62 177.95 29.85 177.62 29.52 207.39 29.36 222.38z"/><path fill="none" d="M179.83 80L180.05 60.13 180.05 60.13 179.83 80z"/><path fill="none" d="M59.29 207.72L59.29 207.72 88.11 208.04 59.29 207.72z"/><path fill="none" d="M89.61 158.41L89.72 148.48 89.72 148.48 89.61 158.41z"/><g id="change1_1"><path fill="#74a050" d="M417.07,182l.33-29.69L387.64,152l.33-29.65L358.25,122l-29.76-.33-29.72-.33.33-29.65L299.43,62l-29.72-.32-.33,29.68L269.05,121l-.1,8.9h0l.1-8.9.33-29.65.33-29.68-6.47-.08h0l6.47.08L270,32l-29.76-.33h0l-6.47-.07h0l6.47.07L240.61,2l-29.72-.33-29.76-.33-.32,29.48-6.47-.07V31l-23.26-.25-.32,29.45-6.47-.07v.2L121,60,120.7,89.5l-6.47-.07v.21L91,89.38l-.33,29.45-6.47-.07v.2l-23.26-.26-.32,29.45-6.47-.07v.21L30.84,148l-.33,29.48-6.46-.07v.2L.76,177.39.43,207,.1,236.73l29.75.32h0l-.33,29.66,29.73.33h0l-.33,29.65,29.72.33h0l-.33,29.68,29.76.33-.33,29.66,29.72.33-.33,29.65,29.72.33-.32,29.68,29.75.33,29.72.33.33-29.68,29.76.32.32-29.65,29.73.33.33-29.66.33-29.68,29.72.33,29.75.33,29.73.33.33-29.66,29.75.33.33-29.65,29.72.32.33-29.68.33-29.66ZM90.29,148.69h0l-.11,9.89ZM60.24,178,53.77,178h0l6.47.07ZM180.48,60.68h0l-.22,19.79Z"/></g><g id="change2_1"><path fill="#a8d67c" d="M60.07 177.56H89.84V207.33H60.07z" transform="rotate(-89.37 74.941 192.439)"/></g><g id="change2_2"><path fill="#a8d67c" d="M90.17 148.09H119.97V177.89000000000001H90.17z" transform="rotate(-89.37 105.057 162.992)"/></g><g id="change2_3"><path fill="#a8d67c" d="M120.3 118.65H150.07V148.42000000000002H120.3z" transform="rotate(-89.37 135.172 133.534)"/></g><g id="change2_4"><path fill="#a8d67c" d="M180.5 59.74H210.3V89.54H180.5z" transform="rotate(-89.37 195.388 74.644)"/></g><g id="change3_1"><path fill="#507335" d="M387.83 181.02L388.16 151.22 358.39 150.89 358.06 180.69 328.26 180.36 327.93 210.13 298.16 209.8 297.83 239.6 268.06 239.28 238.26 238.95 208.49 238.62 208.16 268.39 207.83 298.16 207.5 327.96 177.69 327.63 178.03 297.83 148.25 297.5 118.48 297.17 118.15 326.97 147.92 327.3 147.59 357.07 177.37 357.4 177.03 387.17 206.84 387.5 236.61 387.83 236.94 358.06 266.74 358.39 267.07 328.62 267.4 298.82 267.73 269.05 297.5 269.38 327.27 269.71 357.07 270.04 386.84 270.37 387.17 240.59 416.97 240.93 417.3 211.12 417.63 181.35 387.83 181.02z"/></g><g id="change4_1"><path fill="#000000" d="M418.08,181.17l.33-29.85L388.54,151l.33-29.83-30.32-.33-29.87-.33-29.33-.33.33-29.32L300,60.5l-29.83-.33.33-29.82L240.65,30,241,.17,210.65-.17,180.29-.51,180,29.35,150.13,29l-.33,29.82L120,58.51l-.33,29.85L89.78,88l-.33,29.82-29.83-.33-.33,29.82L29.46,147l-.33,29.85-29.86-.33-.34,30.32-.34,30.35,29.87.33-.34,29.83,29.84.33-.33,29.82,29.83.33-.34,29.85L117,328l-.33,29.82,29.83.33L146.16,388l29.83.33-.33,29.85,30.36.34,30.33.34.33-29.86,29.86.34.33-29.83,29.83.33.34-30.32.32-29.35,29.33.33,29.86.33,30.33.33.33-29.82,29.86.33.33-29.82,29.83.33.34-30.35.34-30.32Zm-1.34,30.31-.33,29.35-29.86-.33-.33,29.82L356.89,270,327,269.66l-29.83-.33L266.87,269l-.33,30.32-.34,29.85-.32,29.32L236,358.16,235.69,388l-29.33-.32L177,387.33l.33-29.82-29.83-.33.33-29.82L118,327l.33-29.85-29.86-.33L88.8,267,59,266.7l.33-29.82-29.83-.33.32-29.36.33-29.32L60,178.2l.33-29.85,29.83.33.33-29.82,29.86.33.33-29.82,29.83.33.33-29.85,29.83.33L181,30.36l29.36.32,29.33.33-.33,29.82,29.86.33-.32,29.35-.33,29.82-.34,30.32,30.33.34,29.83.33,29.86.33,29.33.32-.33,29.86,29.86.33Z"/></g><g id="change4_2"><path fill="#000000" d="M418.08,181.17h.24l.34-30.1-29.86-.33.33-29.82-30.58-.34-29.86-.33-29.08-.32.32-29.07.34-30.61-29.83-.33.33-29.82-29.86-.33.33-29.85L210.66-.42,180.05-.76l-.34,29.85-29.83-.33-.33,29.82-29.83-.33-.33,29.86-29.86-.33L89.2,117.6l-29.83-.33L59,147.09l-29.83-.33-.33,29.85L-1,176.28l-.34,30.57-.34,30.6,29.86.33-.33,29.82,29.83.33-.33,29.82,29.83.33-.33,29.86,29.86.33-.33,29.82,29.83.33-.33,29.82,29.83.33-.33,29.85,30.61.34,30.58.34.33-29.85,29.86.33.34-29.82,29.83.33.33-30.57.33-29.11,29.08.33,29.86.33,30.58.34.33-29.83,29.86.33.33-29.82,29.83.33.34-30.6.34-30.57-30.08-.33v.25h0v.25l29.58.32-.33,30.08-.33,30.1-29.83-.33-.33,29.82L387,271.08l-.33,29.82-30.08-.33-29.86-.33-29.58-.33-.32,29.6-.34,30.07-29.83-.33-.33,29.82-29.86-.33-.33,29.85L206,418.26l-30.11-.33.33-29.86-29.83-.33.33-29.82-29.83-.33.33-29.82-29.86-.33.33-29.85-29.83-.33.33-29.82-29.83-.33.33-29.82L-1.15,237l.33-30.1.33-30.08,29.86.33.33-29.85,29.83.33.34-29.82,29.83.33L90,88.28l29.86.33.33-29.85,29.83.33.33-29.82,29.83.33.33-29.85,30.11.33,30.08.33-.33,29.86,29.86.33-.33,29.82,29.83.33-.33,30.1-.33,29.57,29.58.33,29.86.33,30.08.33-.33,29.82,29.86.33-.33,29.85h.25Zm-1.34,30.31h-.25l-.32,29.11-29.86-.33L386,270.07l-29.08-.33L327,269.41l-29.83-.33-30.58-.33-.33,30.57L266,329.17l-.32,29.07-29.86-.33-.33,29.82-29.08-.32-29.11-.32.33-29.82-29.83-.33.33-29.83-29.83-.33.33-29.85-29.86-.33.33-29.82-29.83-.33.33-29.82-29.83-.33L30,207.2l.32-29.08,29.83.34.33-29.86,29.84.34.33-29.83,29.86.33.33-29.82,29.83.33L151,60.1l29.83.33.33-29.82,29.11.32,29.08.32-.33,29.82,29.86.34-.32,29.1-.33,29.82-.34,30.57,30.58.34,29.83.33,29.86.33,29.08.32L387,182.07l29.86.33-.32,29.07h.5l.33-29.57-29.86-.33.33-29.85-29.58-.33-29.86-.33-29.83-.33-30.09-.34.34-30.07.33-29.82.33-29.6-29.87-.33.33-29.82-29.57-.33L180.7,30.1l-.33,29.83-29.83-.33-.33,29.85-29.83-.33-.33,29.82-29.86-.33-.33,29.82L60,148.1,59.7,178l-29.83-.33-.33,29.57-.33,29.6,29.83.33-.33,29.82,29.83.34-.33,29.82,29.86.33-.33,29.85,29.83.33-.33,29.82,29.83.33-.33,29.82,29.62.33,29.58.33.33-29.82,29.86.32.32-29.57.33-29.85.34-30.07,30.08.33,29.83.33,29.86.33,29.58.33.33-29.82,29.86.33.33-29.6Z"/></g></svg>