<?xml version="1.0" encoding="UTF-8"?><svg xmlns="http://www.w3.org/2000/svg" xmlns:xlink="http://www.w3.org/1999/xlink" contentScriptType="text/ecmascript" fill="#000000" width="600" zoomAndPan="magnify" contentStyleType="text/css" viewBox="0.0 -0.0 600.0 372.4" height="372.4" preserveAspectRatio="xMidYMid meet" version="1"><defs><clipPath id="a"><path d="M 455 351 L 476 351 L 476 372.410156 L 455 372.410156 Z M 455 351"/></clipPath><clipPath id="b"><path d="M 434 351 L 456 351 L 456 372.410156 L 434 372.410156 Z M 434 351"/></clipPath><clipPath id="c"><path d="M 413 351 L 435 351 L 435 372.410156 L 413 372.410156 Z M 413 351"/></clipPath><clipPath id="d"><path d="M 393 351 L 414 351 L 414 372.410156 L 393 372.410156 Z M 393 351"/></clipPath><clipPath id="e"><path d="M 372 351 L 394 351 L 394 372.410156 L 372 372.410156 Z M 372 351"/></clipPath><clipPath id="f"><path d="M 351 351 L 373 351 L 373 372.410156 L 351 372.410156 Z M 351 351"/></clipPath><clipPath id="g"><path d="M 331 351 L 352 351 L 352 372.410156 L 331 372.410156 Z M 331 351"/></clipPath><clipPath id="h"><path d="M 310 351 L 332 351 L 332 372.410156 L 310 372.410156 Z M 310 351"/></clipPath><clipPath id="i"><path d="M 289 351 L 311 351 L 311 372.410156 L 289 372.410156 Z M 289 351"/></clipPath><clipPath id="j"><path d="M 268 351 L 290 351 L 290 372.410156 L 268 372.410156 Z M 268 351"/></clipPath><clipPath id="k"><path d="M 248 351 L 269 351 L 269 372.410156 L 248 372.410156 Z M 248 351"/></clipPath><clipPath id="l"><path d="M 227 351 L 249 351 L 249 372.410156 L 227 372.410156 Z M 227 351"/></clipPath><clipPath id="m"><path d="M 206 351 L 228 351 L 228 372.410156 L 206 372.410156 Z M 206 351"/></clipPath><clipPath id="n"><path d="M 186 351 L 207 351 L 207 372.410156 L 186 372.410156 Z M 186 351"/></clipPath><clipPath id="o"><path d="M 165 351 L 187 351 L 187 372.410156 L 165 372.410156 Z M 165 351"/></clipPath><clipPath id="p"><path d="M 144 351 L 166 351 L 166 372.410156 L 144 372.410156 Z M 144 351"/></clipPath><clipPath id="q"><path d="M 124 351 L 145 351 L 145 372.410156 L 124 372.410156 Z M 124 351"/></clipPath><clipPath id="r"><path d="M 103 351 L 125 351 L 125 372.410156 L 103 372.410156 Z M 103 351"/></clipPath><clipPath id="s"><path d="M 82 351 L 104 351 L 104 372.410156 L 82 372.410156 Z M 82 351"/></clipPath><clipPath id="t"><path d="M 62 351 L 83 351 L 83 372.410156 L 62 372.410156 Z M 62 351"/></clipPath><clipPath id="u"><path d="M 41 351 L 63 351 L 63 372.410156 L 41 372.410156 Z M 41 351"/></clipPath><clipPath id="v"><path d="M 20 351 L 42 351 L 42 372.410156 L 20 372.410156 Z M 20 351"/></clipPath><clipPath id="w"><path d="M 0 351 L 21 351 L 21 372.410156 L 0 372.410156 Z M 0 351"/></clipPath></defs><g><g id="change1_1"><path fill="#47170b" d="M 600 103.421875 L 600 124.15625 L 579.320312 124.15625 L 579.320312 103.421875 L 600 103.421875"/></g><g id="change1_2"><path fill="#47170b" d="M 600 82.75 L 600 103.421875 L 579.320312 103.421875 L 579.320312 82.75 L 600 82.75"/></g><g id="change1_3"><path fill="#47170b" d="M 600 62.074219 L 600 82.75 L 579.320312 82.75 L 579.320312 62.074219 L 600 62.074219"/></g><g id="change1_4"><path fill="#47170b" d="M 600 41.40625 L 600 62.074219 L 579.320312 62.074219 L 579.320312 41.40625 L 600 41.40625"/></g><g id="change1_5"><path fill="#47170b" d="M 600 20.671875 L 600 41.40625 L 579.320312 41.40625 L 579.320312 20.671875 L 600 20.671875"/></g><g id="change1_6"><path fill="#47170b" d="M 579.320312 124.15625 L 579.320312 144.828125 L 558.652344 144.828125 L 558.652344 124.15625 L 579.320312 124.15625"/></g><g id="change2_3"><path fill="#702412" d="M 579.320312 103.421875 L 579.320312 124.15625 L 558.652344 124.15625 L 558.652344 103.421875 L 579.320312 103.421875"/></g><g id="change2_4"><path fill="#702412" d="M 579.320312 82.75 L 579.320312 103.421875 L 558.652344 103.421875 L 558.652344 82.75 L 579.320312 82.75"/></g><g id="change2_5"><path fill="#702412" d="M 579.320312 62.074219 L 579.320312 82.75 L 558.652344 82.75 L 558.652344 62.074219 L 579.320312 62.074219"/></g><g id="change1_7"><path fill="#47170b" d="M 579.320312 41.40625 L 579.320312 62.074219 L 558.652344 62.074219 L 558.652344 41.40625 L 579.320312 41.40625"/></g><g id="change3_1"><path fill="#a64127" d="M 579.320312 20.671875 L 579.320312 41.40625 L 558.652344 41.40625 L 558.652344 20.671875 L 579.320312 20.671875"/></g><g id="change1_8"><path fill="#47170b" d="M 579.320312 -0.00390625 L 579.320312 20.671875 L 558.652344 20.671875 L 558.652344 -0.00390625 L 579.320312 -0.00390625"/></g><g id="change1_9"><path fill="#47170b" d="M 558.652344 144.828125 L 558.652344 165.5 L 537.917969 165.5 L 537.917969 144.828125 L 558.652344 144.828125"/></g><g id="change2_6"><path fill="#702412" d="M 558.652344 124.15625 L 558.652344 144.828125 L 537.917969 144.828125 L 537.917969 124.15625 L 558.652344 124.15625"/></g><g id="change2_7"><path fill="#702412" d="M 558.652344 103.421875 L 558.652344 124.15625 L 537.917969 124.15625 L 537.917969 103.421875 L 558.652344 103.421875"/></g><g id="change2_8"><path fill="#702412" d="M 558.652344 82.75 L 558.652344 103.421875 L 537.917969 103.421875 L 537.917969 82.75 L 558.652344 82.75"/></g><g id="change1_10"><path fill="#47170b" d="M 558.652344 62.074219 L 558.652344 82.75 L 537.917969 82.75 L 537.917969 62.074219 L 558.652344 62.074219"/></g><g id="change3_2"><path fill="#a64127" d="M 558.652344 41.40625 L 558.652344 62.074219 L 537.917969 62.074219 L 537.917969 41.40625 L 558.652344 41.40625"/></g><g id="change2_9"><path fill="#702412" d="M 558.652344 20.671875 L 558.652344 41.40625 L 537.917969 41.40625 L 537.917969 20.671875 L 558.652344 20.671875"/></g><g id="change1_11"><path fill="#47170b" d="M 558.652344 -0.00390625 L 558.652344 20.671875 L 537.917969 20.671875 L 537.917969 -0.00390625 L 558.652344 -0.00390625"/></g><g id="change1_12"><path fill="#47170b" d="M 537.917969 165.5 L 537.917969 186.171875 L 517.242188 186.171875 L 517.242188 165.5 L 537.917969 165.5"/></g><g id="change2_10"><path fill="#702412" d="M 537.917969 144.828125 L 537.917969 165.5 L 517.242188 165.5 L 517.242188 144.828125 L 537.917969 144.828125"/></g><g id="change2_11"><path fill="#702412" d="M 537.917969 124.15625 L 537.917969 144.828125 L 517.242188 144.828125 L 517.242188 124.15625 L 537.917969 124.15625"/></g><g id="change2_12"><path fill="#702412" d="M 537.917969 103.421875 L 537.917969 124.15625 L 517.242188 124.15625 L 517.242188 103.421875 L 537.917969 103.421875"/></g><g id="change1_13"><path fill="#47170b" d="M 537.917969 82.75 L 537.917969 103.421875 L 517.242188 103.421875 L 517.242188 82.75 L 537.917969 82.75"/></g><g id="change3_3"><path fill="#a64127" d="M 537.917969 62.074219 L 537.917969 82.75 L 517.242188 82.75 L 517.242188 62.074219 L 537.917969 62.074219"/></g><g id="change3_4"><path fill="#a64127" d="M 537.917969 41.40625 L 537.917969 62.074219 L 517.242188 62.074219 L 517.242188 41.40625 L 537.917969 41.40625"/></g><g id="change2_13"><path fill="#702412" d="M 537.917969 20.671875 L 537.917969 41.40625 L 517.242188 41.40625 L 517.242188 20.671875 L 537.917969 20.671875"/></g><g id="change1_14"><path fill="#47170b" d="M 537.917969 -0.00390625 L 537.917969 20.671875 L 517.242188 20.671875 L 517.242188 -0.00390625 L 537.917969 -0.00390625"/></g><g id="change1_15"><path fill="#47170b" d="M 517.242188 165.5 L 517.242188 186.171875 L 496.574219 186.171875 L 496.574219 165.5 L 517.242188 165.5"/></g><g id="change2_14"><path fill="#702412" d="M 517.242188 144.828125 L 517.242188 165.5 L 496.574219 165.5 L 496.574219 144.828125 L 517.242188 144.828125"/></g><g id="change2_15"><path fill="#702412" d="M 517.242188 124.15625 L 517.242188 144.828125 L 496.574219 144.828125 L 496.574219 124.15625 L 517.242188 124.15625"/></g><g id="change1_16"><path fill="#47170b" d="M 517.242188 103.421875 L 517.242188 124.15625 L 496.574219 124.15625 L 496.574219 103.421875 L 517.242188 103.421875"/></g><g id="change3_5"><path fill="#a64127" d="M 517.242188 82.75 L 517.242188 103.421875 L 496.574219 103.421875 L 496.574219 82.75 L 517.242188 82.75"/></g><g id="change2_16"><path fill="#702412" d="M 517.242188 62.074219 L 517.242188 82.75 L 496.574219 82.75 L 496.574219 62.074219 L 517.242188 62.074219"/></g><g id="change3_6"><path fill="#a64127" d="M 517.242188 41.40625 L 517.242188 62.074219 L 496.574219 62.074219 L 496.574219 41.40625 L 517.242188 41.40625"/></g><g id="change2_17"><path fill="#702412" d="M 517.242188 20.671875 L 517.242188 41.40625 L 496.574219 41.40625 L 496.574219 20.671875 L 517.242188 20.671875"/></g><g id="change1_17"><path fill="#47170b" d="M 517.242188 -0.00390625 L 517.242188 20.671875 L 496.574219 20.671875 L 496.574219 -0.00390625 L 517.242188 -0.00390625"/></g><g id="change1_18"><path fill="#47170b" d="M 496.574219 165.5 L 496.574219 186.171875 L 475.835938 186.171875 L 475.835938 165.5 L 496.574219 165.5"/></g><g id="change1_19"><path fill="#47170b" d="M 496.574219 144.828125 L 496.574219 165.5 L 475.835938 165.5 L 475.835938 144.828125 L 496.574219 144.828125"/></g><g id="change1_20"><path fill="#47170b" d="M 496.574219 124.15625 L 496.574219 144.828125 L 475.835938 144.828125 L 475.835938 124.15625 L 496.574219 124.15625"/></g><g id="change3_7"><path fill="#a64127" d="M 496.574219 103.421875 L 496.574219 124.15625 L 475.835938 124.15625 L 475.835938 103.421875 L 496.574219 103.421875"/></g><g id="change1_21"><path fill="#47170b" d="M 496.574219 82.75 L 496.574219 103.421875 L 475.835938 103.421875 L 475.835938 82.75 L 496.574219 82.75"/></g><g id="change2_18"><path fill="#702412" d="M 496.574219 62.074219 L 496.574219 82.75 L 475.835938 82.75 L 475.835938 62.074219 L 496.574219 62.074219"/></g><g id="change3_8"><path fill="#a64127" d="M 496.574219 41.40625 L 496.574219 62.074219 L 475.835938 62.074219 L 475.835938 41.40625 L 496.574219 41.40625"/></g><g id="change2_19"><path fill="#702412" d="M 496.574219 20.671875 L 496.574219 41.40625 L 475.835938 41.40625 L 475.835938 20.671875 L 496.574219 20.671875"/></g><g id="change1_22"><path fill="#47170b" d="M 496.574219 -0.00390625 L 496.574219 20.671875 L 475.835938 20.671875 L 475.835938 -0.00390625 L 496.574219 -0.00390625"/></g><g id="change4_32" clip-path="url(#a)"><path fill="#fea52a" d="M 475.835938 351.738281 L 475.835938 372.410156 L 455.167969 372.410156 L 455.167969 351.738281 L 475.835938 351.738281"/></g><g id="change2_20"><path fill="#702412" d="M 475.835938 331.003906 L 475.835938 351.738281 L 455.167969 351.738281 L 455.167969 331.003906 L 475.835938 331.003906"/></g><g id="change2_21"><path fill="#702412" d="M 475.835938 310.328125 L 475.835938 331.003906 L 455.167969 331.003906 L 455.167969 310.328125 L 475.835938 310.328125"/></g><g id="change2_22"><path fill="#702412" d="M 475.835938 289.660156 L 475.835938 310.328125 L 455.167969 310.328125 L 455.167969 289.660156 L 475.835938 289.660156"/></g><g id="change2_23"><path fill="#702412" d="M 475.835938 268.984375 L 475.835938 289.660156 L 455.167969 289.660156 L 455.167969 268.984375 L 475.835938 268.984375"/></g><g id="change2_24"><path fill="#702412" d="M 475.835938 248.25 L 475.835938 268.984375 L 455.167969 268.984375 L 455.167969 248.25 L 475.835938 248.25"/></g><g id="change2_25"><path fill="#702412" d="M 475.835938 227.578125 L 475.835938 248.25 L 455.167969 248.25 L 455.167969 227.578125 L 475.835938 227.578125"/></g><g id="change2_26"><path fill="#702412" d="M 475.835938 206.90625 L 475.835938 227.578125 L 455.167969 227.578125 L 455.167969 206.90625 L 475.835938 206.90625"/></g><g id="change2_27"><path fill="#702412" d="M 475.835938 186.171875 L 475.835938 206.90625 L 455.167969 206.90625 L 455.167969 186.171875 L 475.835938 186.171875"/></g><g id="change2_28"><path fill="#702412" d="M 475.835938 165.5 L 475.835938 186.171875 L 455.167969 186.171875 L 455.167969 165.5 L 475.835938 165.5"/></g><g id="change4_1"><path fill="#fea52a" d="M 475.835938 144.828125 L 475.835938 165.5 L 455.167969 165.5 L 455.167969 144.828125 L 475.835938 144.828125"/></g><g id="change1_23"><path fill="#47170b" d="M 475.835938 124.15625 L 475.835938 144.828125 L 455.167969 144.828125 L 455.167969 124.15625 L 475.835938 124.15625"/></g><g id="change1_24"><path fill="#47170b" d="M 475.835938 103.421875 L 475.835938 124.15625 L 455.167969 124.15625 L 455.167969 103.421875 L 475.835938 103.421875"/></g><g id="change1_25"><path fill="#47170b" d="M 475.835938 82.75 L 475.835938 103.421875 L 455.167969 103.421875 L 455.167969 82.75 L 475.835938 82.75"/></g><g id="change2_29"><path fill="#702412" d="M 475.835938 62.074219 L 475.835938 82.75 L 455.167969 82.75 L 455.167969 62.074219 L 475.835938 62.074219"/></g><g id="change3_9"><path fill="#a64127" d="M 475.835938 41.40625 L 475.835938 62.074219 L 455.167969 62.074219 L 455.167969 41.40625 L 475.835938 41.40625"/></g><g id="change2_30"><path fill="#702412" d="M 475.835938 20.671875 L 475.835938 41.40625 L 455.167969 41.40625 L 455.167969 20.671875 L 475.835938 20.671875"/></g><g id="change1_26"><path fill="#47170b" d="M 475.835938 -0.00390625 L 475.835938 20.671875 L 455.167969 20.671875 L 455.167969 -0.00390625 L 475.835938 -0.00390625"/></g><g id="change2_1" clip-path="url(#b)"><path fill="#702412" d="M 455.167969 351.738281 L 455.167969 372.410156 L 434.488281 372.410156 L 434.488281 351.738281 L 455.167969 351.738281"/></g><g id="change1_27"><path fill="#47170b" d="M 455.167969 331.003906 L 455.167969 351.738281 L 434.488281 351.738281 L 434.488281 331.003906 L 455.167969 331.003906"/></g><g id="change5_1"><path fill="#571b0c" d="M 455.167969 310.328125 L 455.167969 331.003906 L 434.488281 331.003906 L 434.488281 310.328125 L 455.167969 310.328125"/></g><g id="change1_28"><path fill="#47170b" d="M 455.167969 289.660156 L 455.167969 310.328125 L 434.488281 310.328125 L 434.488281 289.660156 L 455.167969 289.660156"/></g><g id="change5_2"><path fill="#571b0c" d="M 455.167969 268.984375 L 455.167969 289.660156 L 434.488281 289.660156 L 434.488281 268.984375 L 455.167969 268.984375"/></g><g id="change1_29"><path fill="#47170b" d="M 455.167969 248.25 L 455.167969 268.984375 L 434.488281 268.984375 L 434.488281 248.25 L 455.167969 248.25"/></g><g id="change5_3"><path fill="#571b0c" d="M 455.167969 227.578125 L 455.167969 248.25 L 434.488281 248.25 L 434.488281 227.578125 L 455.167969 227.578125"/></g><g id="change1_30"><path fill="#47170b" d="M 455.167969 206.90625 L 455.167969 227.578125 L 434.488281 227.578125 L 434.488281 206.90625 L 455.167969 206.90625"/></g><g id="change5_4"><path fill="#571b0c" d="M 455.167969 186.171875 L 455.167969 206.90625 L 434.488281 206.90625 L 434.488281 186.171875 L 455.167969 186.171875"/></g><g id="change1_31"><path fill="#47170b" d="M 455.167969 165.5 L 455.167969 186.171875 L 434.488281 186.171875 L 434.488281 165.5 L 455.167969 165.5"/></g><g id="change4_2"><path fill="#fea52a" d="M 455.167969 144.828125 L 455.167969 165.5 L 434.488281 165.5 L 434.488281 144.828125 L 455.167969 144.828125"/></g><g id="change1_32"><path fill="#47170b" d="M 455.167969 124.15625 L 455.167969 144.828125 L 434.488281 144.828125 L 434.488281 124.15625 L 455.167969 124.15625"/></g><g id="change1_33"><path fill="#47170b" d="M 455.167969 103.421875 L 455.167969 124.15625 L 434.488281 124.15625 L 434.488281 103.421875 L 455.167969 103.421875"/></g><g id="change1_34"><path fill="#47170b" d="M 455.167969 82.75 L 455.167969 103.421875 L 434.488281 103.421875 L 434.488281 82.75 L 455.167969 82.75"/></g><g id="change2_31"><path fill="#702412" d="M 455.167969 62.074219 L 455.167969 82.75 L 434.488281 82.75 L 434.488281 62.074219 L 455.167969 62.074219"/></g><g id="change3_10"><path fill="#a64127" d="M 455.167969 41.40625 L 455.167969 62.074219 L 434.488281 62.074219 L 434.488281 41.40625 L 455.167969 41.40625"/></g><g id="change2_32"><path fill="#702412" d="M 455.167969 20.671875 L 455.167969 41.40625 L 434.488281 41.40625 L 434.488281 20.671875 L 455.167969 20.671875"/></g><g id="change1_35"><path fill="#47170b" d="M 455.167969 -0.00390625 L 455.167969 20.671875 L 434.488281 20.671875 L 434.488281 -0.00390625 L 455.167969 -0.00390625"/></g><g id="change2_140" clip-path="url(#c)"><path fill="#702412" d="M 434.488281 351.738281 L 434.488281 372.410156 L 413.820312 372.410156 L 413.820312 351.738281 L 434.488281 351.738281"/></g><g id="change1_36"><path fill="#47170b" d="M 434.488281 331.003906 L 434.488281 351.738281 L 413.820312 351.738281 L 413.820312 331.003906 L 434.488281 331.003906"/></g><g id="change5_5"><path fill="#571b0c" d="M 434.488281 310.328125 L 434.488281 331.003906 L 413.820312 331.003906 L 413.820312 310.328125 L 434.488281 310.328125"/></g><g id="change1_37"><path fill="#47170b" d="M 434.488281 289.660156 L 434.488281 310.328125 L 413.820312 310.328125 L 413.820312 289.660156 L 434.488281 289.660156"/></g><g id="change5_6"><path fill="#571b0c" d="M 434.488281 268.984375 L 434.488281 289.660156 L 413.820312 289.660156 L 413.820312 268.984375 L 434.488281 268.984375"/></g><g id="change1_38"><path fill="#47170b" d="M 434.488281 248.25 L 434.488281 268.984375 L 413.820312 268.984375 L 413.820312 248.25 L 434.488281 248.25"/></g><g id="change5_7"><path fill="#571b0c" d="M 434.488281 227.578125 L 434.488281 248.25 L 413.820312 248.25 L 413.820312 227.578125 L 434.488281 227.578125"/></g><g id="change1_39"><path fill="#47170b" d="M 434.488281 206.90625 L 434.488281 227.578125 L 413.820312 227.578125 L 413.820312 206.90625 L 434.488281 206.90625"/></g><g id="change5_8"><path fill="#571b0c" d="M 434.488281 186.171875 L 434.488281 206.90625 L 413.820312 206.90625 L 413.820312 186.171875 L 434.488281 186.171875"/></g><g id="change1_40"><path fill="#47170b" d="M 434.488281 165.5 L 434.488281 186.171875 L 413.820312 186.171875 L 413.820312 165.5 L 434.488281 165.5"/></g><g id="change2_33"><path fill="#702412" d="M 434.488281 144.828125 L 434.488281 165.5 L 413.820312 165.5 L 413.820312 144.828125 L 434.488281 144.828125"/></g><g id="change6_1"><path fill="#fec447" d="M 434.488281 124.15625 L 434.488281 144.828125 L 413.820312 144.828125 L 413.820312 124.15625 L 434.488281 124.15625"/></g><g id="change1_41"><path fill="#47170b" d="M 434.488281 103.421875 L 434.488281 124.15625 L 413.820312 124.15625 L 413.820312 103.421875 L 434.488281 103.421875"/></g><g id="change1_42"><path fill="#47170b" d="M 434.488281 82.75 L 434.488281 103.421875 L 413.820312 103.421875 L 413.820312 82.75 L 434.488281 82.75"/></g><g id="change2_34"><path fill="#702412" d="M 434.488281 62.074219 L 434.488281 82.75 L 413.820312 82.75 L 413.820312 62.074219 L 434.488281 62.074219"/></g><g id="change3_11"><path fill="#a64127" d="M 434.488281 41.40625 L 434.488281 62.074219 L 413.820312 62.074219 L 413.820312 41.40625 L 434.488281 41.40625"/></g><g id="change2_35"><path fill="#702412" d="M 434.488281 20.671875 L 434.488281 41.40625 L 413.820312 41.40625 L 413.820312 20.671875 L 434.488281 20.671875"/></g><g id="change1_43"><path fill="#47170b" d="M 434.488281 -0.00390625 L 434.488281 20.671875 L 413.820312 20.671875 L 413.820312 -0.00390625 L 434.488281 -0.00390625"/></g><g id="change2_141" clip-path="url(#d)"><path fill="#702412" d="M 413.820312 351.738281 L 413.820312 372.410156 L 393.085938 372.410156 L 393.085938 351.738281 L 413.820312 351.738281"/></g><g id="change1_44"><path fill="#47170b" d="M 413.820312 331.003906 L 413.820312 351.738281 L 393.085938 351.738281 L 393.085938 331.003906 L 413.820312 331.003906"/></g><g id="change5_9"><path fill="#571b0c" d="M 413.820312 310.328125 L 413.820312 331.003906 L 393.085938 331.003906 L 393.085938 310.328125 L 413.820312 310.328125"/></g><g id="change1_45"><path fill="#47170b" d="M 413.820312 289.660156 L 413.820312 310.328125 L 393.085938 310.328125 L 393.085938 289.660156 L 413.820312 289.660156"/></g><g id="change5_10"><path fill="#571b0c" d="M 413.820312 268.984375 L 413.820312 289.660156 L 393.085938 289.660156 L 393.085938 268.984375 L 413.820312 268.984375"/></g><g id="change1_46"><path fill="#47170b" d="M 413.820312 248.25 L 413.820312 268.984375 L 393.085938 268.984375 L 393.085938 248.25 L 413.820312 248.25"/></g><g id="change5_11"><path fill="#571b0c" d="M 413.820312 227.578125 L 413.820312 248.25 L 393.085938 248.25 L 393.085938 227.578125 L 413.820312 227.578125"/></g><g id="change1_47"><path fill="#47170b" d="M 413.820312 206.90625 L 413.820312 227.578125 L 393.085938 227.578125 L 393.085938 206.90625 L 413.820312 206.90625"/></g><g id="change5_12"><path fill="#571b0c" d="M 413.820312 186.171875 L 413.820312 206.90625 L 393.085938 206.90625 L 393.085938 186.171875 L 413.820312 186.171875"/></g><g id="change1_48"><path fill="#47170b" d="M 413.820312 165.5 L 413.820312 186.171875 L 393.085938 186.171875 L 393.085938 165.5 L 413.820312 165.5"/></g><g id="change2_36"><path fill="#702412" d="M 413.820312 144.828125 L 413.820312 165.5 L 393.085938 165.5 L 393.085938 144.828125 L 413.820312 144.828125"/></g><g id="change4_3"><path fill="#fea52a" d="M 413.820312 124.15625 L 413.820312 144.828125 L 393.085938 144.828125 L 393.085938 124.15625 L 413.820312 124.15625"/></g><g id="change7_3"><path fill="#fee670" d="M 413.820312 103.421875 L 413.820312 124.15625 L 393.085938 124.15625 L 393.085938 103.421875 L 413.820312 103.421875"/></g><g id="change1_49"><path fill="#47170b" d="M 413.820312 82.75 L 413.820312 103.421875 L 393.085938 103.421875 L 393.085938 82.75 L 413.820312 82.75"/></g><g id="change2_37"><path fill="#702412" d="M 413.820312 62.074219 L 413.820312 82.75 L 393.085938 82.75 L 393.085938 62.074219 L 413.820312 62.074219"/></g><g id="change3_12"><path fill="#a64127" d="M 413.820312 41.40625 L 413.820312 62.074219 L 393.085938 62.074219 L 393.085938 41.40625 L 413.820312 41.40625"/></g><g id="change2_38"><path fill="#702412" d="M 413.820312 20.671875 L 413.820312 41.40625 L 393.085938 41.40625 L 393.085938 20.671875 L 413.820312 20.671875"/></g><g id="change1_50"><path fill="#47170b" d="M 413.820312 -0.00390625 L 413.820312 20.671875 L 393.085938 20.671875 L 393.085938 -0.00390625 L 413.820312 -0.00390625"/></g><g id="change2_2" clip-path="url(#e)"><path fill="#702412" d="M 393.085938 351.738281 L 393.085938 372.410156 L 372.414062 372.410156 L 372.414062 351.738281 L 393.085938 351.738281"/></g><g id="change1_51"><path fill="#47170b" d="M 393.085938 331.003906 L 393.085938 351.738281 L 372.414062 351.738281 L 372.414062 331.003906 L 393.085938 331.003906"/></g><g id="change5_13"><path fill="#571b0c" d="M 393.085938 310.328125 L 393.085938 331.003906 L 372.414062 331.003906 L 372.414062 310.328125 L 393.085938 310.328125"/></g><g id="change1_52"><path fill="#47170b" d="M 393.085938 289.660156 L 393.085938 310.328125 L 372.414062 310.328125 L 372.414062 289.660156 L 393.085938 289.660156"/></g><g id="change5_14"><path fill="#571b0c" d="M 393.085938 268.984375 L 393.085938 289.660156 L 372.414062 289.660156 L 372.414062 268.984375 L 393.085938 268.984375"/></g><g id="change1_53"><path fill="#47170b" d="M 393.085938 248.25 L 393.085938 268.984375 L 372.414062 268.984375 L 372.414062 248.25 L 393.085938 248.25"/></g><g id="change5_15"><path fill="#571b0c" d="M 393.085938 227.578125 L 393.085938 248.25 L 372.414062 248.25 L 372.414062 227.578125 L 393.085938 227.578125"/></g><g id="change1_54"><path fill="#47170b" d="M 393.085938 206.90625 L 393.085938 227.578125 L 372.414062 227.578125 L 372.414062 206.90625 L 393.085938 206.90625"/></g><g id="change5_16"><path fill="#571b0c" d="M 393.085938 186.171875 L 393.085938 206.90625 L 372.414062 206.90625 L 372.414062 186.171875 L 393.085938 186.171875"/></g><g id="change1_55"><path fill="#47170b" d="M 393.085938 165.5 L 393.085938 186.171875 L 372.414062 186.171875 L 372.414062 165.5 L 393.085938 165.5"/></g><g id="change2_39"><path fill="#702412" d="M 393.085938 144.828125 L 393.085938 165.5 L 372.414062 165.5 L 372.414062 144.828125 L 393.085938 144.828125"/></g><g id="change7_4"><path fill="#fee670" d="M 393.085938 124.15625 L 393.085938 144.828125 L 372.414062 144.828125 L 372.414062 124.15625 L 393.085938 124.15625"/></g><g id="change6_2"><path fill="#fec447" d="M 393.085938 103.421875 L 393.085938 124.15625 L 372.414062 124.15625 L 372.414062 103.421875 L 393.085938 103.421875"/></g><g id="change1_56"><path fill="#47170b" d="M 393.085938 82.75 L 393.085938 103.421875 L 372.414062 103.421875 L 372.414062 82.75 L 393.085938 82.75"/></g><g id="change2_40"><path fill="#702412" d="M 393.085938 62.074219 L 393.085938 82.75 L 372.414062 82.75 L 372.414062 62.074219 L 393.085938 62.074219"/></g><g id="change3_13"><path fill="#a64127" d="M 393.085938 41.40625 L 393.085938 62.074219 L 372.414062 62.074219 L 372.414062 41.40625 L 393.085938 41.40625"/></g><g id="change2_41"><path fill="#702412" d="M 393.085938 20.671875 L 393.085938 41.40625 L 372.414062 41.40625 L 372.414062 20.671875 L 393.085938 20.671875"/></g><g id="change1_57"><path fill="#47170b" d="M 393.085938 -0.00390625 L 393.085938 20.671875 L 372.414062 20.671875 L 372.414062 -0.00390625 L 393.085938 -0.00390625"/></g><g id="change4_31" clip-path="url(#f)"><path fill="#fea52a" d="M 372.414062 351.738281 L 372.414062 372.410156 L 351.746094 372.410156 L 351.746094 351.738281 L 372.414062 351.738281"/></g><g id="change2_42"><path fill="#702412" d="M 372.414062 331.003906 L 372.414062 351.738281 L 351.746094 351.738281 L 351.746094 331.003906 L 372.414062 331.003906"/></g><g id="change2_43"><path fill="#702412" d="M 372.414062 310.328125 L 372.414062 331.003906 L 351.746094 331.003906 L 351.746094 310.328125 L 372.414062 310.328125"/></g><g id="change2_44"><path fill="#702412" d="M 372.414062 289.660156 L 372.414062 310.328125 L 351.746094 310.328125 L 351.746094 289.660156 L 372.414062 289.660156"/></g><g id="change2_45"><path fill="#702412" d="M 372.414062 268.984375 L 372.414062 289.660156 L 351.746094 289.660156 L 351.746094 268.984375 L 372.414062 268.984375"/></g><g id="change2_46"><path fill="#702412" d="M 372.414062 248.25 L 372.414062 268.984375 L 351.746094 268.984375 L 351.746094 248.25 L 372.414062 248.25"/></g><g id="change2_47"><path fill="#702412" d="M 372.414062 227.578125 L 372.414062 248.25 L 351.746094 248.25 L 351.746094 227.578125 L 372.414062 227.578125"/></g><g id="change2_48"><path fill="#702412" d="M 372.414062 206.90625 L 372.414062 227.578125 L 351.746094 227.578125 L 351.746094 206.90625 L 372.414062 206.90625"/></g><g id="change2_49"><path fill="#702412" d="M 372.414062 186.171875 L 372.414062 206.90625 L 351.746094 206.90625 L 351.746094 186.171875 L 372.414062 186.171875"/></g><g id="change2_50"><path fill="#702412" d="M 372.414062 165.5 L 372.414062 186.171875 L 351.746094 186.171875 L 351.746094 165.5 L 372.414062 165.5"/></g><g id="change4_4"><path fill="#fea52a" d="M 372.414062 144.828125 L 372.414062 165.5 L 351.746094 165.5 L 351.746094 144.828125 L 372.414062 144.828125"/></g><g id="change6_3"><path fill="#fec447" d="M 372.414062 124.15625 L 372.414062 144.828125 L 351.746094 144.828125 L 351.746094 124.15625 L 372.414062 124.15625"/></g><g id="change7_5"><path fill="#fee670" d="M 372.414062 103.421875 L 372.414062 124.15625 L 351.746094 124.15625 L 351.746094 103.421875 L 372.414062 103.421875"/></g><g id="change4_5"><path fill="#fea52a" d="M 372.414062 82.75 L 372.414062 103.421875 L 351.746094 103.421875 L 351.746094 82.75 L 372.414062 82.75"/></g><g id="change2_51"><path fill="#702412" d="M 372.414062 62.074219 L 372.414062 82.75 L 351.746094 82.75 L 351.746094 62.074219 L 372.414062 62.074219"/></g><g id="change3_14"><path fill="#a64127" d="M 372.414062 41.40625 L 372.414062 62.074219 L 351.746094 62.074219 L 351.746094 41.40625 L 372.414062 41.40625"/></g><g id="change2_52"><path fill="#702412" d="M 372.414062 20.671875 L 372.414062 41.40625 L 351.746094 41.40625 L 351.746094 20.671875 L 372.414062 20.671875"/></g><g id="change1_58"><path fill="#47170b" d="M 372.414062 -0.00390625 L 372.414062 20.671875 L 351.746094 20.671875 L 351.746094 -0.00390625 L 372.414062 -0.00390625"/></g><g id="change7_2" clip-path="url(#g)"><path fill="#fee670" d="M 351.746094 351.738281 L 351.746094 372.410156 L 331.066406 372.410156 L 331.066406 351.738281 L 351.746094 351.738281"/></g><g id="change8_5"><path fill="#c74424" d="M 351.746094 331.003906 L 351.746094 351.738281 L 331.066406 351.738281 L 331.066406 331.003906 L 351.746094 331.003906"/></g><g id="change8_6"><path fill="#c74424" d="M 351.746094 310.328125 L 351.746094 331.003906 L 331.066406 331.003906 L 331.066406 310.328125 L 351.746094 310.328125"/></g><g id="change8_7"><path fill="#c74424" d="M 351.746094 289.660156 L 351.746094 310.328125 L 331.066406 310.328125 L 331.066406 289.660156 L 351.746094 289.660156"/></g><g id="change8_8"><path fill="#c74424" d="M 351.746094 268.984375 L 351.746094 289.660156 L 331.066406 289.660156 L 331.066406 268.984375 L 351.746094 268.984375"/></g><g id="change8_9"><path fill="#c74424" d="M 351.746094 248.25 L 351.746094 268.984375 L 331.066406 268.984375 L 331.066406 248.25 L 351.746094 248.25"/></g><g id="change8_10"><path fill="#c74424" d="M 351.746094 227.578125 L 351.746094 248.25 L 331.066406 248.25 L 331.066406 227.578125 L 351.746094 227.578125"/></g><g id="change8_11"><path fill="#c74424" d="M 351.746094 206.90625 L 351.746094 227.578125 L 331.066406 227.578125 L 331.066406 206.90625 L 351.746094 206.90625"/></g><g id="change8_12"><path fill="#c74424" d="M 351.746094 186.171875 L 351.746094 206.90625 L 331.066406 206.90625 L 331.066406 186.171875 L 351.746094 186.171875"/></g><g id="change8_13"><path fill="#c74424" d="M 351.746094 165.5 L 351.746094 186.171875 L 331.066406 186.171875 L 331.066406 165.5 L 351.746094 165.5"/></g><g id="change7_6"><path fill="#fee670" d="M 351.746094 144.828125 L 351.746094 165.5 L 331.066406 165.5 L 331.066406 144.828125 L 351.746094 144.828125"/></g><g id="change4_6"><path fill="#fea52a" d="M 351.746094 124.15625 L 351.746094 144.828125 L 331.066406 144.828125 L 331.066406 124.15625 L 351.746094 124.15625"/></g><g id="change6_4"><path fill="#fec447" d="M 351.746094 103.421875 L 351.746094 124.15625 L 331.066406 124.15625 L 331.066406 103.421875 L 351.746094 103.421875"/></g><g id="change6_5"><path fill="#fec447" d="M 351.746094 82.75 L 351.746094 103.421875 L 331.066406 103.421875 L 331.066406 82.75 L 351.746094 82.75"/></g><g id="change4_7"><path fill="#fea52a" d="M 351.746094 62.074219 L 351.746094 82.75 L 331.066406 82.75 L 331.066406 62.074219 L 351.746094 62.074219"/></g><g id="change3_15"><path fill="#a64127" d="M 351.746094 41.40625 L 351.746094 62.074219 L 331.066406 62.074219 L 331.066406 41.40625 L 351.746094 41.40625"/></g><g id="change2_53"><path fill="#702412" d="M 351.746094 20.671875 L 351.746094 41.40625 L 331.066406 41.40625 L 331.066406 20.671875 L 351.746094 20.671875"/></g><g id="change1_59"><path fill="#47170b" d="M 351.746094 -0.00390625 L 351.746094 20.671875 L 331.066406 20.671875 L 331.066406 -0.00390625 L 351.746094 -0.00390625"/></g><g id="change8_45" clip-path="url(#h)"><path fill="#c74424" d="M 331.066406 351.738281 L 331.066406 372.410156 L 310.335938 372.410156 L 310.335938 351.738281 L 331.066406 351.738281"/></g><g id="change2_54"><path fill="#702412" d="M 331.066406 331.003906 L 331.066406 351.738281 L 310.335938 351.738281 L 310.335938 331.003906 L 331.066406 331.003906"/></g><g id="change9_1"><path fill="#9e3117" d="M 331.066406 310.328125 L 331.066406 331.003906 L 310.335938 331.003906 L 310.335938 310.328125 L 331.066406 310.328125"/></g><g id="change2_55"><path fill="#702412" d="M 331.066406 289.660156 L 331.066406 310.328125 L 310.335938 310.328125 L 310.335938 289.660156 L 331.066406 289.660156"/></g><g id="change9_2"><path fill="#9e3117" d="M 331.066406 268.984375 L 331.066406 289.660156 L 310.335938 289.660156 L 310.335938 268.984375 L 331.066406 268.984375"/></g><g id="change2_56"><path fill="#702412" d="M 331.066406 248.25 L 331.066406 268.984375 L 310.335938 268.984375 L 310.335938 248.25 L 331.066406 248.25"/></g><g id="change9_3"><path fill="#9e3117" d="M 331.066406 227.578125 L 331.066406 248.25 L 310.335938 248.25 L 310.335938 227.578125 L 331.066406 227.578125"/></g><g id="change2_57"><path fill="#702412" d="M 331.066406 206.90625 L 331.066406 227.578125 L 310.335938 227.578125 L 310.335938 206.90625 L 331.066406 206.90625"/></g><g id="change9_4"><path fill="#9e3117" d="M 331.066406 186.171875 L 331.066406 206.90625 L 310.335938 206.90625 L 310.335938 186.171875 L 331.066406 186.171875"/></g><g id="change2_58"><path fill="#702412" d="M 331.066406 165.5 L 331.066406 186.171875 L 310.335938 186.171875 L 310.335938 165.5 L 331.066406 165.5"/></g><g id="change8_14"><path fill="#c74424" d="M 331.066406 144.828125 L 331.066406 165.5 L 310.335938 165.5 L 310.335938 144.828125 L 331.066406 144.828125"/></g><g id="change6_6"><path fill="#fec447" d="M 331.066406 124.15625 L 331.066406 144.828125 L 310.335938 144.828125 L 310.335938 124.15625 L 331.066406 124.15625"/></g><g id="change7_7"><path fill="#fee670" d="M 331.066406 103.421875 L 331.066406 124.15625 L 310.335938 124.15625 L 310.335938 103.421875 L 331.066406 103.421875"/></g><g id="change4_8"><path fill="#fea52a" d="M 331.066406 82.75 L 331.066406 103.421875 L 310.335938 103.421875 L 310.335938 82.75 L 331.066406 82.75"/></g><g id="change6_7"><path fill="#fec447" d="M 331.066406 62.074219 L 331.066406 82.75 L 310.335938 82.75 L 310.335938 62.074219 L 331.066406 62.074219"/></g><g id="change3_16"><path fill="#a64127" d="M 331.066406 41.40625 L 331.066406 62.074219 L 310.335938 62.074219 L 310.335938 41.40625 L 331.066406 41.40625"/></g><g id="change2_59"><path fill="#702412" d="M 331.066406 20.671875 L 331.066406 41.40625 L 310.335938 41.40625 L 310.335938 20.671875 L 331.066406 20.671875"/></g><g id="change1_60"><path fill="#47170b" d="M 331.066406 -0.00390625 L 331.066406 20.671875 L 310.335938 20.671875 L 310.335938 -0.00390625 L 331.066406 -0.00390625"/></g><g id="change8_43" clip-path="url(#i)"><path fill="#c74424" d="M 310.335938 351.738281 L 310.335938 372.410156 L 289.664062 372.410156 L 289.664062 351.738281 L 310.335938 351.738281"/></g><g id="change2_60"><path fill="#702412" d="M 310.335938 331.003906 L 310.335938 351.738281 L 289.664062 351.738281 L 289.664062 331.003906 L 310.335938 331.003906"/></g><g id="change9_5"><path fill="#9e3117" d="M 310.335938 310.328125 L 310.335938 331.003906 L 289.664062 331.003906 L 289.664062 310.328125 L 310.335938 310.328125"/></g><g id="change2_61"><path fill="#702412" d="M 310.335938 289.660156 L 310.335938 310.328125 L 289.664062 310.328125 L 289.664062 289.660156 L 310.335938 289.660156"/></g><g id="change9_6"><path fill="#9e3117" d="M 310.335938 268.984375 L 310.335938 289.660156 L 289.664062 289.660156 L 289.664062 268.984375 L 310.335938 268.984375"/></g><g id="change2_62"><path fill="#702412" d="M 310.335938 248.25 L 310.335938 268.984375 L 289.664062 268.984375 L 289.664062 248.25 L 310.335938 248.25"/></g><g id="change9_7"><path fill="#9e3117" d="M 310.335938 227.578125 L 310.335938 248.25 L 289.664062 248.25 L 289.664062 227.578125 L 310.335938 227.578125"/></g><g id="change2_63"><path fill="#702412" d="M 310.335938 206.90625 L 310.335938 227.578125 L 289.664062 227.578125 L 289.664062 206.90625 L 310.335938 206.90625"/></g><g id="change9_8"><path fill="#9e3117" d="M 310.335938 186.171875 L 310.335938 206.90625 L 289.664062 206.90625 L 289.664062 186.171875 L 310.335938 186.171875"/></g><g id="change2_64"><path fill="#702412" d="M 310.335938 165.5 L 310.335938 186.171875 L 289.664062 186.171875 L 289.664062 165.5 L 310.335938 165.5"/></g><g id="change8_15"><path fill="#c74424" d="M 310.335938 144.828125 L 310.335938 165.5 L 289.664062 165.5 L 289.664062 144.828125 L 310.335938 144.828125"/></g><g id="change7_8"><path fill="#fee670" d="M 310.335938 124.15625 L 310.335938 144.828125 L 289.664062 144.828125 L 289.664062 124.15625 L 310.335938 124.15625"/></g><g id="change6_8"><path fill="#fec447" d="M 310.335938 103.421875 L 310.335938 124.15625 L 289.664062 124.15625 L 289.664062 103.421875 L 310.335938 103.421875"/></g><g id="change4_9"><path fill="#fea52a" d="M 310.335938 82.75 L 310.335938 103.421875 L 289.664062 103.421875 L 289.664062 82.75 L 310.335938 82.75"/></g><g id="change6_9"><path fill="#fec447" d="M 310.335938 62.074219 L 310.335938 82.75 L 289.664062 82.75 L 289.664062 62.074219 L 310.335938 62.074219"/></g><g id="change3_17"><path fill="#a64127" d="M 310.335938 41.40625 L 310.335938 62.074219 L 289.664062 62.074219 L 289.664062 41.40625 L 310.335938 41.40625"/></g><g id="change2_65"><path fill="#702412" d="M 310.335938 20.671875 L 310.335938 41.40625 L 289.664062 41.40625 L 289.664062 20.671875 L 310.335938 20.671875"/></g><g id="change1_61"><path fill="#47170b" d="M 310.335938 -0.00390625 L 310.335938 20.671875 L 289.664062 20.671875 L 289.664062 -0.00390625 L 310.335938 -0.00390625"/></g><g id="change8_38" clip-path="url(#j)"><path fill="#c74424" d="M 289.664062 351.738281 L 289.664062 372.410156 L 268.988281 372.410156 L 268.988281 351.738281 L 289.664062 351.738281"/></g><g id="change2_66"><path fill="#702412" d="M 289.664062 331.003906 L 289.664062 351.738281 L 268.988281 351.738281 L 268.988281 331.003906 L 289.664062 331.003906"/></g><g id="change9_9"><path fill="#9e3117" d="M 289.664062 310.328125 L 289.664062 331.003906 L 268.988281 331.003906 L 268.988281 310.328125 L 289.664062 310.328125"/></g><g id="change2_67"><path fill="#702412" d="M 289.664062 289.660156 L 289.664062 310.328125 L 268.988281 310.328125 L 268.988281 289.660156 L 289.664062 289.660156"/></g><g id="change9_10"><path fill="#9e3117" d="M 289.664062 268.984375 L 289.664062 289.660156 L 268.988281 289.660156 L 268.988281 268.984375 L 289.664062 268.984375"/></g><g id="change2_68"><path fill="#702412" d="M 289.664062 248.25 L 289.664062 268.984375 L 268.988281 268.984375 L 268.988281 248.25 L 289.664062 248.25"/></g><g id="change9_11"><path fill="#9e3117" d="M 289.664062 227.578125 L 289.664062 248.25 L 268.988281 248.25 L 268.988281 227.578125 L 289.664062 227.578125"/></g><g id="change2_69"><path fill="#702412" d="M 289.664062 206.90625 L 289.664062 227.578125 L 268.988281 227.578125 L 268.988281 206.90625 L 289.664062 206.90625"/></g><g id="change9_12"><path fill="#9e3117" d="M 289.664062 186.171875 L 289.664062 206.90625 L 268.988281 206.90625 L 268.988281 186.171875 L 289.664062 186.171875"/></g><g id="change2_70"><path fill="#702412" d="M 289.664062 165.5 L 289.664062 186.171875 L 268.988281 186.171875 L 268.988281 165.5 L 289.664062 165.5"/></g><g id="change8_16"><path fill="#c74424" d="M 289.664062 144.828125 L 289.664062 165.5 L 268.988281 165.5 L 268.988281 144.828125 L 289.664062 144.828125"/></g><g id="change6_10"><path fill="#fec447" d="M 289.664062 124.15625 L 289.664062 144.828125 L 268.988281 144.828125 L 268.988281 124.15625 L 289.664062 124.15625"/></g><g id="change4_10"><path fill="#fea52a" d="M 289.664062 103.421875 L 289.664062 124.15625 L 268.988281 124.15625 L 268.988281 103.421875 L 289.664062 103.421875"/></g><g id="change6_11"><path fill="#fec447" d="M 289.664062 82.75 L 289.664062 103.421875 L 268.988281 103.421875 L 268.988281 82.75 L 289.664062 82.75"/></g><g id="change7_9"><path fill="#fee670" d="M 289.664062 62.074219 L 289.664062 82.75 L 268.988281 82.75 L 268.988281 62.074219 L 289.664062 62.074219"/></g><g id="change3_18"><path fill="#a64127" d="M 289.664062 41.40625 L 289.664062 62.074219 L 268.988281 62.074219 L 268.988281 41.40625 L 289.664062 41.40625"/></g><g id="change2_71"><path fill="#702412" d="M 289.664062 20.671875 L 289.664062 41.40625 L 268.988281 41.40625 L 268.988281 20.671875 L 289.664062 20.671875"/></g><g id="change1_62"><path fill="#47170b" d="M 289.664062 -0.00390625 L 289.664062 20.671875 L 268.988281 20.671875 L 268.988281 -0.00390625 L 289.664062 -0.00390625"/></g><g id="change8_39" clip-path="url(#k)"><path fill="#c74424" d="M 268.988281 351.738281 L 268.988281 372.410156 L 248.253906 372.410156 L 248.253906 351.738281 L 268.988281 351.738281"/></g><g id="change2_72"><path fill="#702412" d="M 268.988281 331.003906 L 268.988281 351.738281 L 248.253906 351.738281 L 248.253906 331.003906 L 268.988281 331.003906"/></g><g id="change9_13"><path fill="#9e3117" d="M 268.988281 310.328125 L 268.988281 331.003906 L 248.253906 331.003906 L 248.253906 310.328125 L 268.988281 310.328125"/></g><g id="change2_73"><path fill="#702412" d="M 268.988281 289.660156 L 268.988281 310.328125 L 248.253906 310.328125 L 248.253906 289.660156 L 268.988281 289.660156"/></g><g id="change9_14"><path fill="#9e3117" d="M 268.988281 268.984375 L 268.988281 289.660156 L 248.253906 289.660156 L 248.253906 268.984375 L 268.988281 268.984375"/></g><g id="change2_74"><path fill="#702412" d="M 268.988281 248.25 L 268.988281 268.984375 L 248.253906 268.984375 L 248.253906 248.25 L 268.988281 248.25"/></g><g id="change9_15"><path fill="#9e3117" d="M 268.988281 227.578125 L 268.988281 248.25 L 248.253906 248.25 L 248.253906 227.578125 L 268.988281 227.578125"/></g><g id="change2_75"><path fill="#702412" d="M 268.988281 206.90625 L 268.988281 227.578125 L 248.253906 227.578125 L 248.253906 206.90625 L 268.988281 206.90625"/></g><g id="change9_16"><path fill="#9e3117" d="M 268.988281 186.171875 L 268.988281 206.90625 L 248.253906 206.90625 L 248.253906 186.171875 L 268.988281 186.171875"/></g><g id="change2_76"><path fill="#702412" d="M 268.988281 165.5 L 268.988281 186.171875 L 248.253906 186.171875 L 248.253906 165.5 L 268.988281 165.5"/></g><g id="change8_17"><path fill="#c74424" d="M 268.988281 144.828125 L 268.988281 165.5 L 248.253906 165.5 L 248.253906 144.828125 L 268.988281 144.828125"/></g><g id="change4_11"><path fill="#fea52a" d="M 268.988281 124.15625 L 268.988281 144.828125 L 248.253906 144.828125 L 248.253906 124.15625 L 268.988281 124.15625"/></g><g id="change6_12"><path fill="#fec447" d="M 268.988281 103.421875 L 268.988281 124.15625 L 248.253906 124.15625 L 248.253906 103.421875 L 268.988281 103.421875"/></g><g id="change4_12"><path fill="#fea52a" d="M 268.988281 82.75 L 268.988281 103.421875 L 248.253906 103.421875 L 248.253906 82.75 L 268.988281 82.75"/></g><g id="change4_13"><path fill="#fea52a" d="M 268.988281 62.074219 L 268.988281 82.75 L 248.253906 82.75 L 248.253906 62.074219 L 268.988281 62.074219"/></g><g id="change3_19"><path fill="#a64127" d="M 268.988281 41.40625 L 268.988281 62.074219 L 248.253906 62.074219 L 248.253906 41.40625 L 268.988281 41.40625"/></g><g id="change2_77"><path fill="#702412" d="M 268.988281 20.671875 L 268.988281 41.40625 L 248.253906 41.40625 L 248.253906 20.671875 L 268.988281 20.671875"/></g><g id="change1_63"><path fill="#47170b" d="M 268.988281 -0.00390625 L 268.988281 20.671875 L 248.253906 20.671875 L 248.253906 -0.00390625 L 268.988281 -0.00390625"/></g><g id="change8_3" clip-path="url(#l)"><path fill="#c74424" d="M 248.253906 351.738281 L 248.253906 372.410156 L 227.585938 372.410156 L 227.585938 351.738281 L 248.253906 351.738281"/></g><g id="change2_78"><path fill="#702412" d="M 248.253906 331.003906 L 248.253906 351.738281 L 227.585938 351.738281 L 227.585938 331.003906 L 248.253906 331.003906"/></g><g id="change9_17"><path fill="#9e3117" d="M 248.253906 310.328125 L 248.253906 331.003906 L 227.585938 331.003906 L 227.585938 310.328125 L 248.253906 310.328125"/></g><g id="change2_79"><path fill="#702412" d="M 248.253906 289.660156 L 248.253906 310.328125 L 227.585938 310.328125 L 227.585938 289.660156 L 248.253906 289.660156"/></g><g id="change9_18"><path fill="#9e3117" d="M 248.253906 268.984375 L 248.253906 289.660156 L 227.585938 289.660156 L 227.585938 268.984375 L 248.253906 268.984375"/></g><g id="change2_80"><path fill="#702412" d="M 248.253906 248.25 L 248.253906 268.984375 L 227.585938 268.984375 L 227.585938 248.25 L 248.253906 248.25"/></g><g id="change9_19"><path fill="#9e3117" d="M 248.253906 227.578125 L 248.253906 248.25 L 227.585938 248.25 L 227.585938 227.578125 L 248.253906 227.578125"/></g><g id="change2_81"><path fill="#702412" d="M 248.253906 206.90625 L 248.253906 227.578125 L 227.585938 227.578125 L 227.585938 206.90625 L 248.253906 206.90625"/></g><g id="change9_20"><path fill="#9e3117" d="M 248.253906 186.171875 L 248.253906 206.90625 L 227.585938 206.90625 L 227.585938 186.171875 L 248.253906 186.171875"/></g><g id="change2_82"><path fill="#702412" d="M 248.253906 165.5 L 248.253906 186.171875 L 227.585938 186.171875 L 227.585938 165.5 L 248.253906 165.5"/></g><g id="change8_18"><path fill="#c74424" d="M 248.253906 144.828125 L 248.253906 165.5 L 227.585938 165.5 L 227.585938 144.828125 L 248.253906 144.828125"/></g><g id="change4_14"><path fill="#fea52a" d="M 248.253906 124.15625 L 248.253906 144.828125 L 227.585938 144.828125 L 227.585938 124.15625 L 248.253906 124.15625"/></g><g id="change7_10"><path fill="#fee670" d="M 248.253906 103.421875 L 248.253906 124.15625 L 227.585938 124.15625 L 227.585938 103.421875 L 248.253906 103.421875"/></g><g id="change4_15"><path fill="#fea52a" d="M 248.253906 82.75 L 248.253906 103.421875 L 227.585938 103.421875 L 227.585938 82.75 L 248.253906 82.75"/></g><g id="change6_13"><path fill="#fec447" d="M 248.253906 62.074219 L 248.253906 82.75 L 227.585938 82.75 L 227.585938 62.074219 L 248.253906 62.074219"/></g><g id="change4_16"><path fill="#fea52a" d="M 248.253906 41.40625 L 248.253906 62.074219 L 227.585938 62.074219 L 227.585938 41.40625 L 248.253906 41.40625"/></g><g id="change2_83"><path fill="#702412" d="M 248.253906 20.671875 L 248.253906 41.40625 L 227.585938 41.40625 L 227.585938 20.671875 L 248.253906 20.671875"/></g><g id="change1_64"><path fill="#47170b" d="M 248.253906 -0.00390625 L 248.253906 20.671875 L 227.585938 20.671875 L 227.585938 -0.00390625 L 248.253906 -0.00390625"/></g><g id="change8_4" clip-path="url(#m)"><path fill="#c74424" d="M 227.585938 351.738281 L 227.585938 372.410156 L 206.910156 372.410156 L 206.910156 351.738281 L 227.585938 351.738281"/></g><g id="change2_84"><path fill="#702412" d="M 227.585938 331.003906 L 227.585938 351.738281 L 206.910156 351.738281 L 206.910156 331.003906 L 227.585938 331.003906"/></g><g id="change9_21"><path fill="#9e3117" d="M 227.585938 310.328125 L 227.585938 331.003906 L 206.910156 331.003906 L 206.910156 310.328125 L 227.585938 310.328125"/></g><g id="change2_85"><path fill="#702412" d="M 227.585938 289.660156 L 227.585938 310.328125 L 206.910156 310.328125 L 206.910156 289.660156 L 227.585938 289.660156"/></g><g id="change9_22"><path fill="#9e3117" d="M 227.585938 268.984375 L 227.585938 289.660156 L 206.910156 289.660156 L 206.910156 268.984375 L 227.585938 268.984375"/></g><g id="change2_86"><path fill="#702412" d="M 227.585938 248.25 L 227.585938 268.984375 L 206.910156 268.984375 L 206.910156 248.25 L 227.585938 248.25"/></g><g id="change9_23"><path fill="#9e3117" d="M 227.585938 227.578125 L 227.585938 248.25 L 206.910156 248.25 L 206.910156 227.578125 L 227.585938 227.578125"/></g><g id="change2_87"><path fill="#702412" d="M 227.585938 206.90625 L 227.585938 227.578125 L 206.910156 227.578125 L 206.910156 206.90625 L 227.585938 206.90625"/></g><g id="change9_24"><path fill="#9e3117" d="M 227.585938 186.171875 L 227.585938 206.90625 L 206.910156 206.90625 L 206.910156 186.171875 L 227.585938 186.171875"/></g><g id="change2_88"><path fill="#702412" d="M 227.585938 165.5 L 227.585938 186.171875 L 206.910156 186.171875 L 206.910156 165.5 L 227.585938 165.5"/></g><g id="change8_19"><path fill="#c74424" d="M 227.585938 144.828125 L 227.585938 165.5 L 206.910156 165.5 L 206.910156 144.828125 L 227.585938 144.828125"/></g><g id="change4_17"><path fill="#fea52a" d="M 227.585938 124.15625 L 227.585938 144.828125 L 206.910156 144.828125 L 206.910156 124.15625 L 227.585938 124.15625"/></g><g id="change7_11"><path fill="#fee670" d="M 227.585938 103.421875 L 227.585938 124.15625 L 206.910156 124.15625 L 206.910156 103.421875 L 227.585938 103.421875"/></g><g id="change4_18"><path fill="#fea52a" d="M 227.585938 82.75 L 227.585938 103.421875 L 206.910156 103.421875 L 206.910156 82.75 L 227.585938 82.75"/></g><g id="change6_14"><path fill="#fec447" d="M 227.585938 62.074219 L 227.585938 82.75 L 206.910156 82.75 L 206.910156 62.074219 L 227.585938 62.074219"/></g><g id="change6_15"><path fill="#fec447" d="M 227.585938 41.40625 L 227.585938 62.074219 L 206.910156 62.074219 L 206.910156 41.40625 L 227.585938 41.40625"/></g><g id="change2_89"><path fill="#702412" d="M 227.585938 20.671875 L 227.585938 41.40625 L 206.910156 41.40625 L 206.910156 20.671875 L 227.585938 20.671875"/></g><g id="change1_65"><path fill="#47170b" d="M 227.585938 -0.00390625 L 227.585938 20.671875 L 206.910156 20.671875 L 206.910156 -0.00390625 L 227.585938 -0.00390625"/></g><g id="change8_46" clip-path="url(#n)"><path fill="#c74424" d="M 206.910156 351.738281 L 206.910156 372.410156 L 186.238281 372.410156 L 186.238281 351.738281 L 206.910156 351.738281"/></g><g id="change2_90"><path fill="#702412" d="M 206.910156 331.003906 L 206.910156 351.738281 L 186.238281 351.738281 L 186.238281 331.003906 L 206.910156 331.003906"/></g><g id="change9_25"><path fill="#9e3117" d="M 206.910156 310.328125 L 206.910156 331.003906 L 186.238281 331.003906 L 186.238281 310.328125 L 206.910156 310.328125"/></g><g id="change2_91"><path fill="#702412" d="M 206.910156 289.660156 L 206.910156 310.328125 L 186.238281 310.328125 L 186.238281 289.660156 L 206.910156 289.660156"/></g><g id="change9_26"><path fill="#9e3117" d="M 206.910156 268.984375 L 206.910156 289.660156 L 186.238281 289.660156 L 186.238281 268.984375 L 206.910156 268.984375"/></g><g id="change2_92"><path fill="#702412" d="M 206.910156 248.25 L 206.910156 268.984375 L 186.238281 268.984375 L 186.238281 248.25 L 206.910156 248.25"/></g><g id="change9_27"><path fill="#9e3117" d="M 206.910156 227.578125 L 206.910156 248.25 L 186.238281 248.25 L 186.238281 227.578125 L 206.910156 227.578125"/></g><g id="change2_93"><path fill="#702412" d="M 206.910156 206.90625 L 206.910156 227.578125 L 186.238281 227.578125 L 186.238281 206.90625 L 206.910156 206.90625"/></g><g id="change2_94"><path fill="#702412" d="M 206.910156 186.171875 L 206.910156 206.90625 L 186.238281 206.90625 L 186.238281 186.171875 L 206.910156 186.171875"/></g><g id="change5_17"><path fill="#571b0c" d="M 206.910156 165.5 L 206.910156 186.171875 L 186.238281 186.171875 L 186.238281 165.5 L 206.910156 165.5"/></g><g id="change8_20"><path fill="#c74424" d="M 206.910156 144.828125 L 206.910156 165.5 L 186.238281 165.5 L 186.238281 144.828125 L 206.910156 144.828125"/></g><g id="change6_16"><path fill="#fec447" d="M 206.910156 124.15625 L 206.910156 144.828125 L 186.238281 144.828125 L 186.238281 124.15625 L 206.910156 124.15625"/></g><g id="change4_19"><path fill="#fea52a" d="M 206.910156 103.421875 L 206.910156 124.15625 L 186.238281 124.15625 L 186.238281 103.421875 L 206.910156 103.421875"/></g><g id="change6_17"><path fill="#fec447" d="M 206.910156 82.75 L 206.910156 103.421875 L 186.238281 103.421875 L 186.238281 82.75 L 206.910156 82.75"/></g><g id="change7_12"><path fill="#fee670" d="M 206.910156 62.074219 L 206.910156 82.75 L 186.238281 82.75 L 186.238281 62.074219 L 206.910156 62.074219"/></g><g id="change4_20"><path fill="#fea52a" d="M 206.910156 41.40625 L 206.910156 62.074219 L 186.238281 62.074219 L 186.238281 41.40625 L 206.910156 41.40625"/></g><g id="change2_95"><path fill="#702412" d="M 206.910156 20.671875 L 206.910156 41.40625 L 186.238281 41.40625 L 186.238281 20.671875 L 206.910156 20.671875"/></g><g id="change1_66"><path fill="#47170b" d="M 206.910156 -0.00390625 L 206.910156 20.671875 L 186.238281 20.671875 L 186.238281 -0.00390625 L 206.910156 -0.00390625"/></g><g id="change8_48" clip-path="url(#o)"><path fill="#c74424" d="M 186.238281 351.738281 L 186.238281 372.410156 L 165.503906 372.410156 L 165.503906 351.738281 L 186.238281 351.738281"/></g><g id="change2_96"><path fill="#702412" d="M 186.238281 331.003906 L 186.238281 351.738281 L 165.503906 351.738281 L 165.503906 331.003906 L 186.238281 331.003906"/></g><g id="change9_28"><path fill="#9e3117" d="M 186.238281 310.328125 L 186.238281 331.003906 L 165.503906 331.003906 L 165.503906 310.328125 L 186.238281 310.328125"/></g><g id="change2_97"><path fill="#702412" d="M 186.238281 289.660156 L 186.238281 310.328125 L 165.503906 310.328125 L 165.503906 289.660156 L 186.238281 289.660156"/></g><g id="change9_29"><path fill="#9e3117" d="M 186.238281 268.984375 L 186.238281 289.660156 L 165.503906 289.660156 L 165.503906 268.984375 L 186.238281 268.984375"/></g><g id="change2_98"><path fill="#702412" d="M 186.238281 248.25 L 186.238281 268.984375 L 165.503906 268.984375 L 165.503906 248.25 L 186.238281 248.25"/></g><g id="change9_30"><path fill="#9e3117" d="M 186.238281 227.578125 L 186.238281 248.25 L 165.503906 248.25 L 165.503906 227.578125 L 186.238281 227.578125"/></g><g id="change2_99"><path fill="#702412" d="M 186.238281 206.90625 L 186.238281 227.578125 L 165.503906 227.578125 L 165.503906 206.90625 L 186.238281 206.90625"/></g><g id="change4_21"><path fill="#fea52a" d="M 186.238281 186.171875 L 186.238281 206.90625 L 165.503906 206.90625 L 165.503906 186.171875 L 186.238281 186.171875"/></g><g id="change6_18"><path fill="#fec447" d="M 186.238281 165.5 L 186.238281 186.171875 L 165.503906 186.171875 L 165.503906 165.5 L 186.238281 165.5"/></g><g id="change8_21"><path fill="#c74424" d="M 186.238281 144.828125 L 186.238281 165.5 L 165.503906 165.5 L 165.503906 144.828125 L 186.238281 144.828125"/></g><g id="change4_22"><path fill="#fea52a" d="M 186.238281 124.15625 L 186.238281 144.828125 L 165.503906 144.828125 L 165.503906 124.15625 L 186.238281 124.15625"/></g><g id="change6_19"><path fill="#fec447" d="M 186.238281 103.421875 L 186.238281 124.15625 L 165.503906 124.15625 L 165.503906 103.421875 L 186.238281 103.421875"/></g><g id="change4_23"><path fill="#fea52a" d="M 186.238281 82.75 L 186.238281 103.421875 L 165.503906 103.421875 L 165.503906 82.75 L 186.238281 82.75"/></g><g id="change4_24"><path fill="#fea52a" d="M 186.238281 62.074219 L 186.238281 82.75 L 165.503906 82.75 L 165.503906 62.074219 L 186.238281 62.074219"/></g><g id="change2_100"><path fill="#702412" d="M 186.238281 41.40625 L 186.238281 62.074219 L 165.503906 62.074219 L 165.503906 41.40625 L 186.238281 41.40625"/></g><g id="change1_67"><path fill="#47170b" d="M 186.238281 20.671875 L 186.238281 41.40625 L 165.503906 41.40625 L 165.503906 20.671875 L 186.238281 20.671875"/></g><g id="change8_44" clip-path="url(#p)"><path fill="#c74424" d="M 165.503906 351.738281 L 165.503906 372.410156 L 144.832031 372.410156 L 144.832031 351.738281 L 165.503906 351.738281"/></g><g id="change2_101"><path fill="#702412" d="M 165.503906 331.003906 L 165.503906 351.738281 L 144.832031 351.738281 L 144.832031 331.003906 L 165.503906 331.003906"/></g><g id="change9_31"><path fill="#9e3117" d="M 165.503906 310.328125 L 165.503906 331.003906 L 144.832031 331.003906 L 144.832031 310.328125 L 165.503906 310.328125"/></g><g id="change2_102"><path fill="#702412" d="M 165.503906 289.660156 L 165.503906 310.328125 L 144.832031 310.328125 L 144.832031 289.660156 L 165.503906 289.660156"/></g><g id="change9_32"><path fill="#9e3117" d="M 165.503906 268.984375 L 165.503906 289.660156 L 144.832031 289.660156 L 144.832031 268.984375 L 165.503906 268.984375"/></g><g id="change2_103"><path fill="#702412" d="M 165.503906 248.25 L 165.503906 268.984375 L 144.832031 268.984375 L 144.832031 248.25 L 165.503906 248.25"/></g><g id="change9_33"><path fill="#9e3117" d="M 165.503906 227.578125 L 165.503906 248.25 L 144.832031 248.25 L 144.832031 227.578125 L 165.503906 227.578125"/></g><g id="change2_104"><path fill="#702412" d="M 165.503906 206.90625 L 165.503906 227.578125 L 144.832031 227.578125 L 144.832031 206.90625 L 165.503906 206.90625"/></g><g id="change9_34"><path fill="#9e3117" d="M 165.503906 186.171875 L 165.503906 206.90625 L 144.832031 206.90625 L 144.832031 186.171875 L 165.503906 186.171875"/></g><g id="change2_105"><path fill="#702412" d="M 165.503906 165.5 L 165.503906 186.171875 L 144.832031 186.171875 L 144.832031 165.5 L 165.503906 165.5"/></g><g id="change8_22"><path fill="#c74424" d="M 165.503906 144.828125 L 165.503906 165.5 L 144.832031 165.5 L 144.832031 144.828125 L 165.503906 144.828125"/></g><g id="change4_25"><path fill="#fea52a" d="M 165.503906 124.15625 L 165.503906 144.828125 L 144.832031 144.828125 L 144.832031 124.15625 L 165.503906 124.15625"/></g><g id="change4_26"><path fill="#fea52a" d="M 165.503906 103.421875 L 165.503906 124.15625 L 144.832031 124.15625 L 144.832031 103.421875 L 165.503906 103.421875"/></g><g id="change6_20"><path fill="#fec447" d="M 165.503906 82.75 L 165.503906 103.421875 L 144.832031 103.421875 L 144.832031 82.75 L 165.503906 82.75"/></g><g id="change7_13"><path fill="#fee670" d="M 165.503906 62.074219 L 165.503906 82.75 L 144.832031 82.75 L 144.832031 62.074219 L 165.503906 62.074219"/></g><g id="change1_68"><path fill="#47170b" d="M 165.503906 41.40625 L 165.503906 62.074219 L 144.832031 62.074219 L 144.832031 41.40625 L 165.503906 41.40625"/></g><g id="change8_1" clip-path="url(#q)"><path fill="#c74424" d="M 144.832031 351.738281 L 144.832031 372.410156 L 124.160156 372.410156 L 124.160156 351.738281 L 144.832031 351.738281"/></g><g id="change2_106"><path fill="#702412" d="M 144.832031 331.003906 L 144.832031 351.738281 L 124.160156 351.738281 L 124.160156 331.003906 L 144.832031 331.003906"/></g><g id="change9_35"><path fill="#9e3117" d="M 144.832031 310.328125 L 144.832031 331.003906 L 124.160156 331.003906 L 124.160156 310.328125 L 144.832031 310.328125"/></g><g id="change2_107"><path fill="#702412" d="M 144.832031 289.660156 L 144.832031 310.328125 L 124.160156 310.328125 L 124.160156 289.660156 L 144.832031 289.660156"/></g><g id="change9_36"><path fill="#9e3117" d="M 144.832031 268.984375 L 144.832031 289.660156 L 124.160156 289.660156 L 124.160156 268.984375 L 144.832031 268.984375"/></g><g id="change2_108"><path fill="#702412" d="M 144.832031 248.25 L 144.832031 268.984375 L 124.160156 268.984375 L 124.160156 248.25 L 144.832031 248.25"/></g><g id="change9_37"><path fill="#9e3117" d="M 144.832031 227.578125 L 144.832031 248.25 L 124.160156 248.25 L 124.160156 227.578125 L 144.832031 227.578125"/></g><g id="change2_109"><path fill="#702412" d="M 144.832031 206.90625 L 144.832031 227.578125 L 124.160156 227.578125 L 124.160156 206.90625 L 144.832031 206.90625"/></g><g id="change9_38"><path fill="#9e3117" d="M 144.832031 186.171875 L 144.832031 206.90625 L 124.160156 206.90625 L 124.160156 186.171875 L 144.832031 186.171875"/></g><g id="change2_110"><path fill="#702412" d="M 144.832031 165.5 L 144.832031 186.171875 L 124.160156 186.171875 L 124.160156 165.5 L 144.832031 165.5"/></g><g id="change8_23"><path fill="#c74424" d="M 144.832031 144.828125 L 144.832031 165.5 L 124.160156 165.5 L 124.160156 144.828125 L 144.832031 144.828125"/></g><g id="change6_21"><path fill="#fec447" d="M 144.832031 124.15625 L 144.832031 144.828125 L 124.160156 144.828125 L 124.160156 124.15625 L 144.832031 124.15625"/></g><g id="change7_14"><path fill="#fee670" d="M 144.832031 103.421875 L 144.832031 124.15625 L 124.160156 124.15625 L 124.160156 103.421875 L 144.832031 103.421875"/></g><g id="change4_27"><path fill="#fea52a" d="M 144.832031 82.75 L 144.832031 103.421875 L 124.160156 103.421875 L 124.160156 82.75 L 144.832031 82.75"/></g><g id="change6_22"><path fill="#fec447" d="M 144.832031 62.074219 L 144.832031 82.75 L 124.160156 82.75 L 124.160156 62.074219 L 144.832031 62.074219"/></g><g id="change8_47" clip-path="url(#r)"><path fill="#c74424" d="M 124.160156 351.738281 L 124.160156 372.410156 L 103.488281 372.410156 L 103.488281 351.738281 L 124.160156 351.738281"/></g><g id="change2_111"><path fill="#702412" d="M 124.160156 331.003906 L 124.160156 351.738281 L 103.488281 351.738281 L 103.488281 331.003906 L 124.160156 331.003906"/></g><g id="change9_39"><path fill="#9e3117" d="M 124.160156 310.328125 L 124.160156 331.003906 L 103.488281 331.003906 L 103.488281 310.328125 L 124.160156 310.328125"/></g><g id="change2_112"><path fill="#702412" d="M 124.160156 289.660156 L 124.160156 310.328125 L 103.488281 310.328125 L 103.488281 289.660156 L 124.160156 289.660156"/></g><g id="change9_40"><path fill="#9e3117" d="M 124.160156 268.984375 L 124.160156 289.660156 L 103.488281 289.660156 L 103.488281 268.984375 L 124.160156 268.984375"/></g><g id="change2_113"><path fill="#702412" d="M 124.160156 248.25 L 124.160156 268.984375 L 103.488281 268.984375 L 103.488281 248.25 L 124.160156 248.25"/></g><g id="change9_41"><path fill="#9e3117" d="M 124.160156 227.578125 L 124.160156 248.25 L 103.488281 248.25 L 103.488281 227.578125 L 124.160156 227.578125"/></g><g id="change2_114"><path fill="#702412" d="M 124.160156 206.90625 L 124.160156 227.578125 L 103.488281 227.578125 L 103.488281 206.90625 L 124.160156 206.90625"/></g><g id="change9_42"><path fill="#9e3117" d="M 124.160156 186.171875 L 124.160156 206.90625 L 103.488281 206.90625 L 103.488281 186.171875 L 124.160156 186.171875"/></g><g id="change2_115"><path fill="#702412" d="M 124.160156 165.5 L 124.160156 186.171875 L 103.488281 186.171875 L 103.488281 165.5 L 124.160156 165.5"/></g><g id="change8_24"><path fill="#c74424" d="M 124.160156 144.828125 L 124.160156 165.5 L 103.488281 165.5 L 103.488281 144.828125 L 124.160156 144.828125"/></g><g id="change4_28"><path fill="#fea52a" d="M 124.160156 124.15625 L 124.160156 144.828125 L 103.488281 144.828125 L 103.488281 124.15625 L 124.160156 124.15625"/></g><g id="change6_23"><path fill="#fec447" d="M 124.160156 103.421875 L 124.160156 124.15625 L 103.488281 124.15625 L 103.488281 103.421875 L 124.160156 103.421875"/></g><g id="change7_15"><path fill="#fee670" d="M 124.160156 82.75 L 124.160156 103.421875 L 103.488281 103.421875 L 103.488281 82.75 L 124.160156 82.75"/></g><g id="change8_2" clip-path="url(#s)"><path fill="#c74424" d="M 103.488281 351.738281 L 103.488281 372.410156 L 82.753906 372.410156 L 82.753906 351.738281 L 103.488281 351.738281"/></g><g id="change2_116"><path fill="#702412" d="M 103.488281 331.003906 L 103.488281 351.738281 L 82.753906 351.738281 L 82.753906 331.003906 L 103.488281 331.003906"/></g><g id="change9_43"><path fill="#9e3117" d="M 103.488281 310.328125 L 103.488281 331.003906 L 82.753906 331.003906 L 82.753906 310.328125 L 103.488281 310.328125"/></g><g id="change2_117"><path fill="#702412" d="M 103.488281 289.660156 L 103.488281 310.328125 L 82.753906 310.328125 L 82.753906 289.660156 L 103.488281 289.660156"/></g><g id="change9_44"><path fill="#9e3117" d="M 103.488281 268.984375 L 103.488281 289.660156 L 82.753906 289.660156 L 82.753906 268.984375 L 103.488281 268.984375"/></g><g id="change2_118"><path fill="#702412" d="M 103.488281 248.25 L 103.488281 268.984375 L 82.753906 268.984375 L 82.753906 248.25 L 103.488281 248.25"/></g><g id="change9_45"><path fill="#9e3117" d="M 103.488281 227.578125 L 103.488281 248.25 L 82.753906 248.25 L 82.753906 227.578125 L 103.488281 227.578125"/></g><g id="change2_119"><path fill="#702412" d="M 103.488281 206.90625 L 103.488281 227.578125 L 82.753906 227.578125 L 82.753906 206.90625 L 103.488281 206.90625"/></g><g id="change9_46"><path fill="#9e3117" d="M 103.488281 186.171875 L 103.488281 206.90625 L 82.753906 206.90625 L 82.753906 186.171875 L 103.488281 186.171875"/></g><g id="change2_120"><path fill="#702412" d="M 103.488281 165.5 L 103.488281 186.171875 L 82.753906 186.171875 L 82.753906 165.5 L 103.488281 165.5"/></g><g id="change8_25"><path fill="#c74424" d="M 103.488281 144.828125 L 103.488281 165.5 L 82.753906 165.5 L 82.753906 144.828125 L 103.488281 144.828125"/></g><g id="change7_16"><path fill="#fee670" d="M 103.488281 124.15625 L 103.488281 144.828125 L 82.753906 144.828125 L 82.753906 124.15625 L 103.488281 124.15625"/></g><g id="change4_29"><path fill="#fea52a" d="M 103.488281 103.421875 L 103.488281 124.15625 L 82.753906 124.15625 L 82.753906 103.421875 L 103.488281 103.421875"/></g><g id="change8_40" clip-path="url(#t)"><path fill="#c74424" d="M 82.753906 351.738281 L 82.753906 372.410156 L 62.078125 372.410156 L 62.078125 351.738281 L 82.753906 351.738281"/></g><g id="change2_121"><path fill="#702412" d="M 82.753906 331.003906 L 82.753906 351.738281 L 62.078125 351.738281 L 62.078125 331.003906 L 82.753906 331.003906"/></g><g id="change9_47"><path fill="#9e3117" d="M 82.753906 310.328125 L 82.753906 331.003906 L 62.078125 331.003906 L 62.078125 310.328125 L 82.753906 310.328125"/></g><g id="change2_122"><path fill="#702412" d="M 82.753906 289.660156 L 82.753906 310.328125 L 62.078125 310.328125 L 62.078125 289.660156 L 82.753906 289.660156"/></g><g id="change9_48"><path fill="#9e3117" d="M 82.753906 268.984375 L 82.753906 289.660156 L 62.078125 289.660156 L 62.078125 268.984375 L 82.753906 268.984375"/></g><g id="change2_123"><path fill="#702412" d="M 82.753906 248.25 L 82.753906 268.984375 L 62.078125 268.984375 L 62.078125 248.25 L 82.753906 248.25"/></g><g id="change9_49"><path fill="#9e3117" d="M 82.753906 227.578125 L 82.753906 248.25 L 62.078125 248.25 L 62.078125 227.578125 L 82.753906 227.578125"/></g><g id="change2_124"><path fill="#702412" d="M 82.753906 206.90625 L 82.753906 227.578125 L 62.078125 227.578125 L 62.078125 206.90625 L 82.753906 206.90625"/></g><g id="change9_50"><path fill="#9e3117" d="M 82.753906 186.171875 L 82.753906 206.90625 L 62.078125 206.90625 L 62.078125 186.171875 L 82.753906 186.171875"/></g><g id="change2_125"><path fill="#702412" d="M 82.753906 165.5 L 82.753906 186.171875 L 62.078125 186.171875 L 62.078125 165.5 L 82.753906 165.5"/></g><g id="change8_26"><path fill="#c74424" d="M 82.753906 144.828125 L 82.753906 165.5 L 62.078125 165.5 L 62.078125 144.828125 L 82.753906 144.828125"/></g><g id="change6_24"><path fill="#fec447" d="M 82.753906 124.15625 L 82.753906 144.828125 L 62.078125 144.828125 L 62.078125 124.15625 L 82.753906 124.15625"/></g><g id="change4_30"><path fill="#fea52a" d="M 82.753906 103.421875 L 82.753906 124.15625 L 62.078125 124.15625 L 62.078125 103.421875 L 82.753906 103.421875"/></g><g id="change8_41" clip-path="url(#u)"><path fill="#c74424" d="M 62.078125 351.738281 L 62.078125 372.410156 L 41.40625 372.410156 L 41.40625 351.738281 L 62.078125 351.738281"/></g><g id="change2_126"><path fill="#702412" d="M 62.078125 331.003906 L 62.078125 351.738281 L 41.40625 351.738281 L 41.40625 331.003906 L 62.078125 331.003906"/></g><g id="change9_51"><path fill="#9e3117" d="M 62.078125 310.328125 L 62.078125 331.003906 L 41.40625 331.003906 L 41.40625 310.328125 L 62.078125 310.328125"/></g><g id="change2_127"><path fill="#702412" d="M 62.078125 289.660156 L 62.078125 310.328125 L 41.40625 310.328125 L 41.40625 289.660156 L 62.078125 289.660156"/></g><g id="change9_52"><path fill="#9e3117" d="M 62.078125 268.984375 L 62.078125 289.660156 L 41.40625 289.660156 L 41.40625 268.984375 L 62.078125 268.984375"/></g><g id="change2_128"><path fill="#702412" d="M 62.078125 248.25 L 62.078125 268.984375 L 41.40625 268.984375 L 41.40625 248.25 L 62.078125 248.25"/></g><g id="change9_53"><path fill="#9e3117" d="M 62.078125 227.578125 L 62.078125 248.25 L 41.40625 248.25 L 41.40625 227.578125 L 62.078125 227.578125"/></g><g id="change2_129"><path fill="#702412" d="M 62.078125 206.90625 L 62.078125 227.578125 L 41.40625 227.578125 L 41.40625 206.90625 L 62.078125 206.90625"/></g><g id="change9_54"><path fill="#9e3117" d="M 62.078125 186.171875 L 62.078125 206.90625 L 41.40625 206.90625 L 41.40625 186.171875 L 62.078125 186.171875"/></g><g id="change2_130"><path fill="#702412" d="M 62.078125 165.5 L 62.078125 186.171875 L 41.40625 186.171875 L 41.40625 165.5 L 62.078125 165.5"/></g><g id="change8_27"><path fill="#c74424" d="M 62.078125 144.828125 L 62.078125 165.5 L 41.40625 165.5 L 41.40625 144.828125 L 62.078125 144.828125"/></g><g id="change7_17"><path fill="#fee670" d="M 62.078125 124.15625 L 62.078125 144.828125 L 41.40625 144.828125 L 41.40625 124.15625 L 62.078125 124.15625"/></g><g id="change8_42" clip-path="url(#v)"><path fill="#c74424" d="M 41.40625 351.738281 L 41.40625 372.410156 L 20.671875 372.410156 L 20.671875 351.738281 L 41.40625 351.738281"/></g><g id="change2_131"><path fill="#702412" d="M 41.40625 331.003906 L 41.40625 351.738281 L 20.671875 351.738281 L 20.671875 331.003906 L 41.40625 331.003906"/></g><g id="change2_132"><path fill="#702412" d="M 41.40625 310.328125 L 41.40625 331.003906 L 20.671875 331.003906 L 20.671875 310.328125 L 41.40625 310.328125"/></g><g id="change2_133"><path fill="#702412" d="M 41.40625 289.660156 L 41.40625 310.328125 L 20.671875 310.328125 L 20.671875 289.660156 L 41.40625 289.660156"/></g><g id="change2_134"><path fill="#702412" d="M 41.40625 268.984375 L 41.40625 289.660156 L 20.671875 289.660156 L 20.671875 268.984375 L 41.40625 268.984375"/></g><g id="change2_135"><path fill="#702412" d="M 41.40625 248.25 L 41.40625 268.984375 L 20.671875 268.984375 L 20.671875 248.25 L 41.40625 248.25"/></g><g id="change2_136"><path fill="#702412" d="M 41.40625 227.578125 L 41.40625 248.25 L 20.671875 248.25 L 20.671875 227.578125 L 41.40625 227.578125"/></g><g id="change2_137"><path fill="#702412" d="M 41.40625 206.90625 L 41.40625 227.578125 L 20.671875 227.578125 L 20.671875 206.90625 L 41.40625 206.90625"/></g><g id="change2_138"><path fill="#702412" d="M 41.40625 186.171875 L 41.40625 206.90625 L 20.671875 206.90625 L 20.671875 186.171875 L 41.40625 186.171875"/></g><g id="change2_139"><path fill="#702412" d="M 41.40625 165.5 L 41.40625 186.171875 L 20.671875 186.171875 L 20.671875 165.5 L 41.40625 165.5"/></g><g id="change8_28"><path fill="#c74424" d="M 41.40625 144.828125 L 41.40625 165.5 L 20.671875 165.5 L 20.671875 144.828125 L 41.40625 144.828125"/></g><g id="change7_1" clip-path="url(#w)"><path fill="#fee670" d="M 20.671875 351.738281 L 20.671875 372.410156 L 0 372.410156 L 0 351.738281 L 20.671875 351.738281"/></g><g id="change8_29"><path fill="#c74424" d="M 20.671875 331.003906 L 20.671875 351.738281 L 0 351.738281 L 0 331.003906 L 20.671875 331.003906"/></g><g id="change8_30"><path fill="#c74424" d="M 20.671875 310.328125 L 20.671875 331.003906 L 0 331.003906 L 0 310.328125 L 20.671875 310.328125"/></g><g id="change8_31"><path fill="#c74424" d="M 20.671875 289.660156 L 20.671875 310.328125 L 0 310.328125 L 0 289.660156 L 20.671875 289.660156"/></g><g id="change8_32"><path fill="#c74424" d="M 20.671875 268.984375 L 20.671875 289.660156 L 0 289.660156 L 0 268.984375 L 20.671875 268.984375"/></g><g id="change8_33"><path fill="#c74424" d="M 20.671875 248.25 L 20.671875 268.984375 L 0 268.984375 L 0 248.25 L 20.671875 248.25"/></g><g id="change8_34"><path fill="#c74424" d="M 20.671875 227.578125 L 20.671875 248.25 L 0 248.25 L 0 227.578125 L 20.671875 227.578125"/></g><g id="change8_35"><path fill="#c74424" d="M 20.671875 206.90625 L 20.671875 227.578125 L 0 227.578125 L 0 206.90625 L 20.671875 206.90625"/></g><g id="change8_36"><path fill="#c74424" d="M 20.671875 186.171875 L 20.671875 206.90625 L 0 206.90625 L 0 186.171875 L 20.671875 186.171875"/></g><g id="change8_37"><path fill="#c74424" d="M 20.671875 165.5 L 20.671875 186.171875 L 0 186.171875 L 0 165.5 L 20.671875 165.5"/></g><g id="change7_18"><path fill="#fee670" d="M 20.671875 144.828125 L 20.671875 165.5 L 0 165.5 L 0 144.828125 L 20.671875 144.828125"/></g></g></svg>