<?xml version="1.0" encoding="UTF-8"?><svg xmlns="http://www.w3.org/2000/svg" xmlns:xlink="http://www.w3.org/1999/xlink" contentScriptType="text/ecmascript" fill="#000000" width="465.4" zoomAndPan="magnify" contentStyleType="text/css" viewBox="-0.2 -0.2 465.4 84.9" height="84.9" data-name="Layer 1" preserveAspectRatio="xMidYMid meet" version="1"><g id="change1_1"><path fill="#e25a56" d="M452.59,31.36V21h-10.5V10.56H84.49V.14H52.92V10.56H42.42V.14H10.87V10.56H.34V41.77H10.87v10.4h10.5V62.59H31.9V73H42.42v10.4h10.5V73H442.09V62.59h10.5V52.17h10.53V31.36ZM52.41,42.57H63v-21H73.56v21H63V53.06H52.41Z"/></g><g id="change2_1"><path fill="#a492aa" d="M444.48 31.21L444.48 20.64 433.41 20.64 422.83 20.64 412.27 20.64 401.69 20.64 391.12 20.64 380.56 20.64 369.98 20.64 359.41 20.64 348.83 20.64 338.27 20.64 327.2 20.64 327.2 32.21 337.77 32.21 337.77 42.29 337.77 52.35 327.2 52.35 327.2 63.93 338.27 63.93 348.83 63.93 359.41 63.93 369.98 63.93 380.56 63.93 391.12 63.93 401.69 63.93 412.27 63.93 422.83 63.93 433.41 63.93 444.48 63.93 444.48 53.35 455.04 53.35 455.04 42.29 455.04 31.21 444.48 31.21z"/></g><g id="change3_1"><path fill="#f3776e" d="M74,10.08H52.35V20.64H42.79V10.08H20.64V32.21H31.22V42.79H41.79V53.35H52.35V63.93H63.93V53.35H74.5V42.79H85.08V10.08ZM62.93,52.35H53.35V42.79h9.58ZM73.5,41.79H63.93V21.64H73.5V41.79Z"/></g><g id="change4_1"><path fill="#74a050" d="M317.62 31.21L317.62 20.64 306.56 20.64 295.98 20.64 285.41 20.64 274.85 20.64 264.27 20.64 253.7 20.64 243.13 20.64 232.56 20.64 221.99 20.64 211.42 20.64 200.85 20.64 190.28 20.64 179.71 20.64 169.14 20.64 158.56 20.64 148 20.64 137.43 20.64 126.85 20.64 116.29 20.64 105.71 20.64 94.64 20.64 94.64 31.71 94.64 41.79 84.08 41.79 84.08 52.35 73.5 52.35 73.5 63.93 84.58 63.93 95.14 63.93 105.71 63.93 116.29 63.93 126.85 63.93 137.43 63.93 148 63.93 158.56 63.93 169.14 63.93 179.71 63.93 190.28 63.93 200.85 63.93 211.42 63.93 221.99 63.93 232.56 63.93 243.13 63.93 253.7 63.93 264.27 63.93 274.85 63.93 285.41 63.93 295.98 63.93 306.56 63.93 317.62 63.93 317.62 53.35 328.2 53.35 328.2 42.29 328.2 31.21 317.62 31.21z"/></g><g id="change5_1"><path fill="#3d3b52" d="M454.69,31.56V21H444.13V10.43H84.73V-.15h-32V10.43H42.44V-.15h-32V10.43H-.15v32H10.43V53H21V63.58H31.57V74.15H42.14V84.71H53V74.15H444.13V63.58h10.56V53h10.58V31.56ZM73.85,42.14V52.7H63.28V63.28H52.7V73.85H42.44V63.28H31.87V52.7H21.29V42.14H10.73V10.73H42.14V21.29H53V10.73H84.43V42.14Zm253.7.15V52.7H317V63.28H74.15V53H84.73V42.44H95.29V21.29H317V31.86h10.58Zm126.84,0V52.7H443.83V63.28h-116V53h10.57V31.56H327.85V21.29h116V31.86h10.56Z"/></g></svg>