<?xml version="1.0" encoding="UTF-8"?><svg xmlns="http://www.w3.org/2000/svg" xmlns:xlink="http://www.w3.org/1999/xlink" contentScriptType="text/ecmascript" fill="#000000" width="433.3" zoomAndPan="magnify" contentStyleType="text/css" viewBox="-0.6 -0.6 433.3 433.3" height="433.3" data-name="Layer 1" preserveAspectRatio="xMidYMid meet" version="1"><g id="change1_1"><path fill="#ffca56" d="M414.53-.11H362.59V17.16H345.3V34.45H328V51.73H310.73V69H293.46V86.29H276.18v17.28H258.89v17.29H241.62v17.27H224.33v17.29H207.05V172.7H189.78V190H172.49v17.29H155.21v17.28H137.92v17.29H103.57V224.54H86.28V207.26H51.52v17.28H34.24V242H51.52V259.3H68.81v17.28H86.08v34.36H68.81v17.29H51.52v17.28H34.24v17.27H-.32v69.33H69V397.55H86.28V380.27h17.29V363h17.28V345.71h34.36V363h17.28v17.29h17.29v17.28h17.47V380.27h17.28V345.51H207.25V328.23H190V293.87h17.27V276.58h17.28V259.3h17.29V242h17.27V224.74h17.29V207.46h17.28V190.17h17.27V172.9h17.29V155.62H345.5V138.33h17.29V121.06h17.27V103.77h17.28V86.49h17.29V69.22H431.9V-.11ZM189.78,276.48h0Zm17.27-17.28h0Zm.1-69h0v17.19h0Zm17.18,51.76h0Zm17.29-17.29h0ZM259,155.52h0V138.33h0Zm17.29-17.29h0V121.06h0Zm69.12-86.3h0V69.12h0Zm17.19,51.74h0Zm.1-69h0V51.83h0Zm17.17,51.74h0Zm17.28-17.27h0Z"/></g><g id="change2_1"><path fill="#e4a211" d="M380.68,51.34V34.06H362.41V51.34H345.12V68.63H327.84V85.9H310.55v17.28H293.28v17.29H276v17.27H258.71V155H241.44v17.28H224.15v17.27H206.87v17.29H189.6v17.28H172.31v17.29H155v17.27H137.74V277H155v17.29h18.28V277H190.6V259.71h17.27V242.44h17.28V225.15h17.29V207.87h17.27V190.58H277V173.31h17.28V156h17.27V138.74h17.29V121.47h17.28V104.18h17.29V86.9h17.27V69.63H398V51.34ZM172.31,276H156V259.71h16.28Zm17.29-17.28H173.31V242.44H189.6Zm17.27-17.27H190.6V225.15h16.27Zm17.28-17.29H207.87V207.87h16.28Zm17.29-17.28H225.15V190.58h16.29Zm17.27-17.29H242.44V173.31h16.27ZM276,172.31H259.71V156H276ZM293.28,155H277V138.74h16.28Zm17.27-17.29H294.28V121.47h16.27Zm17.29-17.27H311.55V104.18h16.29Zm17.28-17.29H328.84V86.9h16.28ZM362.41,85.9H346.12V69.63h16.29Zm17.27-17.27H363.41V52.34h16.27Z"/></g><g id="change3_1"><path fill="#ffffff" d="M414.75,51.84V69.13H397.46V51.84ZM397.46,34.56V51.84h17.29V34.56Zm0-17.29V34.56h17.29V17.27ZM380.18,69.13V86.4h17.28V69.13Zm0-51.86V34.56h17.28V17.27ZM362.91,86.4v17.28h17.27V86.4Zm0-69.13V34.56h17.27V17.27Zm-17.29,86.41V121h17.29V103.68Zm0-69.12V51.84h17.29V34.56ZM328.34,121v17.27h17.28V121Zm0-69.13V69.13h17.28V51.84Zm-17.29,86.4v17.29h17.29V138.24Zm0-69.11V86.4h17.29V69.13Zm-17.27,86.4v17.28h17.27V155.53Zm0-69.13v17.28h17.27V86.4ZM276.5,172.81v17.27h17.28V172.81Zm0-69.13V121h17.28V103.68Zm-17.29,86.4v17.29H276.5V190.08Zm0-69.11v17.27H276.5V121Zm-17.27,86.4v17.28h17.27V207.37Zm0-69.13v17.29h17.27V138.24Zm-17.29,86.41v17.29h17.29V224.65Zm0-69.12v17.28h17.29V155.53Zm-17.28,86.41v17.27h17.28V241.94Zm0-69.13v17.27h17.28V172.81Zm-17.27,86.4v17.28h17.27V259.21Zm0-69.13v17.29h17.27V190.08Zm-17.29,86.41v17.29H190.1V276.49Zm0-69.12v17.28H190.1V207.37Zm-17.28,17.28v17.29h17.28V224.65Zm-17.29,17.29v17.27h17.29V241.94Z"/></g><g id="change4_1"><path fill="#d33c2d" d="M121.47,310.55v35.57H104.19v17.27H86.9v17.29H51.34V345.12H68.63V327.84H85.9V310.55h35.57Z"/></g><g id="change5_1"><path fill="#000000" d="M414.75-.65H362.26V16.62H345V33.91H327.69V51.19H310.4V68.48H293.13V85.75H275.85V103H258.56v17.29H241.29v17.27H224v17.29H206.72v17.28H189.45v17.27H172.16v17.29H154.88V224H137.59v17.29H104.34V224H87.05V206.72H51.19V224H33.91v18.59H51.19v17.27H68.48v17.28H85.75V310.4H68.48v17.29H51.19V345H33.91v17.27H-.65v70.43H69.78V398.11H87.05V380.83h17.29V363.54h17.28V346.27h33.26v17.27h17.28v17.29h17.29v17.28H208V380.83H225.3V345H208V327.69H190.75V294.43H208V277.14H225.3V259.86h17.29V242.59h17.27V225.3h17.29V208h17.28V190.73H311.7V173.46H329V156.18h17.28V138.89h17.29V121.62h17.27V104.33h17.28V87.05H415.4V69.78h17.27V-.65ZM51.19,414.08H17.94V380.83h16v17.28H51.19Zm69.13-85.74V345H103v17.27H85.75v17.29H52.49V346.27H69.78V329H87.05V311.7h33.27Zm86.4,17.93v33.26h-16V362.24H173.46V345H156.18V327.69H138.89V310.4H121.62V293.13H104.34V275.84H87.05V258.56H69.78V241.29H52.49v-16H85.75v17.29H103v17.27h17.28v17.28h17.27v17.29h17.29V311.7h17.28V329h17.29v17.28ZM414.1,51.84V68.48H396.81V85.75H379.53V103H362.26v17.29H345v17.27H327.69v17.29H310.4v17.28H293.13v17.27H275.85v17.29H258.56V224H241.29v17.29H224v17.27H206.72v17.28H189.45v17.29H156.18V275.84H138.89V242.59h17.29V225.3h17.28V208h17.29V190.73H208V173.46H225.3V156.18h17.29V138.89h17.27V121.62h17.29V104.33h17.28V87.05H311.7V69.78H329V52.49h17.28V35.21h17.29V17.92H414.1V51.84Z"/></g></svg>