<?xml version="1.0" encoding="UTF-8"?><svg xmlns="http://www.w3.org/2000/svg" xmlns:xlink="http://www.w3.org/1999/xlink" contentScriptType="text/ecmascript" fill="#000000" width="268.5" zoomAndPan="magnify" contentStyleType="text/css" viewBox="78.3 37.3 268.5 355.4" height="355.4" preserveAspectRatio="xMidYMid meet" version="1"><g><g id="change1_1"><path fill="#f79922" d="M 242.148438 51.320312 C 242.148438 54.828125 239.304688 57.675781 235.796875 57.675781 L 188.941406 57.675781 C 185.433594 57.675781 182.589844 54.828125 182.589844 51.320312 L 182.589844 45.234375 C 182.589844 41.726562 185.433594 38.882812 188.941406 38.882812 L 235.796875 38.882812 C 239.304688 38.882812 242.148438 41.726562 242.148438 45.234375 L 242.148438 51.320312"/></g><g id="change2_1"><path fill="#2e191a" d="M 242.148438 51.320312 L 240.5625 51.320312 C 240.558594 52.640625 240.03125 53.824219 239.164062 54.691406 C 238.296875 55.554688 237.117188 56.085938 235.796875 56.085938 L 188.941406 56.085938 C 187.621094 56.085938 186.4375 55.554688 185.570312 54.691406 C 184.707031 53.824219 184.175781 52.640625 184.175781 51.320312 L 184.175781 45.234375 C 184.175781 43.914062 184.707031 42.730469 185.570312 41.863281 C 186.4375 41 187.621094 40.46875 188.941406 40.46875 L 235.796875 40.46875 C 237.117188 40.46875 238.296875 41 239.164062 41.863281 C 240.03125 42.730469 240.558594 43.914062 240.5625 45.234375 L 240.5625 51.320312 L 243.738281 51.320312 L 243.738281 45.234375 C 243.738281 40.847656 240.183594 37.292969 235.796875 37.292969 L 188.941406 37.292969 C 184.554688 37.292969 181 40.847656 181 45.234375 L 181 51.320312 C 181 55.707031 184.554688 59.261719 188.941406 59.265625 L 235.796875 59.265625 C 240.183594 59.261719 243.738281 55.707031 243.738281 51.320312 L 242.148438 51.320312"/></g><g id="change3_1"><path fill="#804b3a" d="M 125.054688 186.195312 L 125.054688 51.71875 L 301.882812 51.71875 L 301.882812 186.195312 L 125.054688 186.195312"/></g><g id="change2_2"><path fill="#2e191a" d="M 305.0625 48.542969 L 121.878906 48.542969 L 121.878906 189.371094 L 305.0625 189.371094 Z M 298.707031 54.894531 L 298.707031 183.019531 L 128.230469 183.019531 L 128.230469 54.894531 L 298.707031 54.894531"/></g><g id="change4_1"><path fill="#552e25" d="M 137.320312 187.617188 C 136.535156 187.617188 135.902344 186.980469 135.902344 186.195312 L 135.902344 83.75 C 135.902344 82.964844 136.535156 82.328125 137.320312 82.328125 L 289.613281 82.328125 C 290.398438 82.328125 291.035156 82.964844 291.035156 83.75 L 291.035156 186.195312 C 291.035156 186.980469 290.398438 187.617188 289.613281 187.617188 L 137.320312 187.617188"/></g><g id="change2_3"><path fill="#2e191a" d="M 289.613281 80.90625 L 137.320312 80.90625 C 135.753906 80.90625 134.480469 82.179688 134.480469 83.75 L 134.480469 186.195312 C 134.480469 187.765625 135.753906 189.039062 137.320312 189.039062 L 289.613281 189.039062 C 291.183594 189.039062 292.457031 187.765625 292.457031 186.195312 L 292.457031 83.75 C 292.457031 82.179688 291.183594 80.90625 289.613281 80.90625 Z M 289.613281 83.75 L 289.613281 186.195312 L 137.320312 186.195312 L 137.320312 83.75 L 289.613281 83.75"/></g><g id="change3_2"><path fill="#804b3a" d="M 81.863281 221.140625 C 81.152344 221.140625 80.527344 220.667969 80.332031 219.984375 C 80.136719 219.304688 80.417969 218.574219 81.023438 218.195312 L 134.628906 184.84375 C 134.878906 184.6875 135.171875 184.601562 135.46875 184.601562 L 289.613281 184.601562 C 289.910156 184.601562 290.203125 184.6875 290.453125 184.84375 L 344.175781 218.195312 C 344.78125 218.570312 345.0625 219.300781 344.867188 219.984375 C 344.671875 220.667969 344.046875 221.140625 343.335938 221.140625 L 81.863281 221.140625"/></g><g id="change2_4"><path fill="#2e191a" d="M 289.613281 183.011719 L 135.46875 183.011719 C 134.875 183.011719 134.289062 183.179688 133.785156 183.492188 L 80.179688 216.847656 C 78.972656 217.597656 78.410156 219.058594 78.800781 220.421875 C 79.191406 221.789062 80.441406 222.730469 81.863281 222.730469 L 343.335938 222.730469 C 344.757812 222.730469 346.007812 221.789062 346.398438 220.421875 C 346.789062 219.054688 346.226562 217.59375 345.015625 216.84375 L 291.292969 183.488281 C 290.789062 183.175781 290.207031 183.011719 289.613281 183.011719 Z M 289.613281 186.195312 L 343.335938 219.550781 L 81.863281 219.550781 L 135.46875 186.195312 L 289.613281 186.195312"/></g><g id="change5_1"><path fill="#623629" d="M 95.871094 220.96875 C 95.234375 220.96875 94.679688 220.550781 94.503906 219.9375 C 94.332031 219.328125 94.582031 218.675781 95.121094 218.34375 L 142.980469 188.5625 C 143.207031 188.421875 143.46875 188.347656 143.730469 188.347656 L 281.363281 188.347656 C 281.628906 188.347656 281.886719 188.421875 282.113281 188.5625 L 330.078125 218.339844 C 330.617188 218.675781 330.871094 219.328125 330.695312 219.9375 C 330.519531 220.550781 329.964844 220.96875 329.328125 220.96875 L 95.871094 220.96875"/></g><g id="change2_5"><path fill="#2e191a" d="M 281.363281 186.925781 L 143.730469 186.925781 C 143.199219 186.925781 142.683594 187.074219 142.230469 187.355469 L 94.367188 217.136719 C 93.292969 217.804688 92.789062 219.109375 93.136719 220.328125 C 93.484375 221.550781 94.601562 222.390625 95.871094 222.390625 L 329.328125 222.390625 C 330.597656 222.390625 331.714844 221.550781 332.0625 220.328125 C 332.410156 219.105469 331.90625 217.804688 330.828125 217.132812 L 282.863281 187.351562 C 282.410156 187.074219 281.894531 186.925781 281.363281 186.925781 Z M 281.363281 189.769531 L 329.328125 219.550781 L 95.871094 219.550781 L 143.730469 189.769531 L 281.363281 189.769531"/></g><g id="change3_3"><path fill="#804b3a" d="M 81.464844 389.496094 L 81.464844 221.929688 L 343.535156 221.929688 L 343.535156 389.496094 L 81.464844 389.496094"/></g><g id="change2_6"><path fill="#2e191a" d="M 346.710938 218.753906 L 78.289062 218.753906 L 78.289062 392.671875 L 346.710938 392.671875 Z M 340.359375 225.109375 L 340.359375 386.320312 L 84.644531 386.320312 L 84.644531 225.109375 L 340.359375 225.109375"/></g><g id="change1_2"><path fill="#f79922" d="M 340.359375 348.199219 L 312.5625 348.199219 L 312.5625 225.109375 L 298.269531 225.109375 L 298.269531 348.199219 L 122.761719 348.199219 L 122.761719 225.109375 L 108.46875 225.109375 L 108.46875 348.199219 L 84.644531 348.199219 L 84.644531 359.320312 L 108.46875 359.320312 L 108.46875 386.320312 L 122.761719 386.320312 L 122.761719 359.320312 L 298.269531 359.320312 L 298.269531 386.320312 L 312.5625 386.320312 L 312.5625 359.320312 L 340.359375 359.320312 L 340.359375 348.199219"/></g><g id="change2_7"><path fill="#2e191a" d="M 340.359375 348.199219 L 340.359375 346.613281 L 314.152344 346.613281 L 314.152344 223.519531 L 296.679688 223.519531 L 296.679688 346.613281 L 124.351562 346.613281 L 124.351562 223.519531 L 106.878906 223.519531 L 106.878906 346.613281 L 83.054688 346.613281 L 83.054688 360.90625 L 106.878906 360.90625 L 106.878906 387.90625 L 124.351562 387.90625 L 124.351562 360.90625 L 296.679688 360.90625 L 296.679688 387.90625 L 314.152344 387.90625 L 314.152344 360.90625 L 341.945312 360.90625 L 341.945312 346.613281 L 340.359375 346.613281 L 340.359375 348.199219 L 338.769531 348.199219 L 338.769531 357.730469 L 310.976562 357.730469 L 310.976562 384.730469 L 299.855469 384.730469 L 299.855469 357.730469 L 121.171875 357.730469 L 121.171875 384.730469 L 110.054688 384.730469 L 110.054688 357.730469 L 86.230469 357.730469 L 86.230469 349.789062 L 110.054688 349.789062 L 110.054688 226.695312 L 121.171875 226.695312 L 121.171875 349.789062 L 299.855469 349.789062 L 299.855469 226.695312 L 310.976562 226.695312 L 310.976562 349.789062 L 340.359375 349.789062 L 340.359375 348.199219 L 338.769531 348.199219 L 340.359375 348.199219"/></g><g id="change1_3"><path fill="#f79922" d="M 340.359375 234.636719 L 84.644531 234.636719 L 84.644531 225.109375 L 340.359375 225.109375 L 340.359375 234.636719"/></g><g id="change2_8"><path fill="#2e191a" d="M 340.359375 234.636719 L 340.359375 233.046875 L 86.230469 233.046875 L 86.230469 226.695312 L 338.769531 226.695312 L 338.769531 234.636719 L 340.359375 234.636719 L 340.359375 233.046875 L 340.359375 234.636719 L 341.945312 234.636719 L 341.945312 223.519531 L 83.054688 223.519531 L 83.054688 236.226562 L 341.945312 236.226562 L 341.945312 234.636719 L 340.359375 234.636719"/></g><g id="change1_4"><path fill="#f79922" d="M 190.265625 298.167969 L 190.265625 252.902344 L 232.355469 252.902344 L 232.355469 298.167969 L 190.265625 298.167969"/></g><g id="change2_9"><path fill="#2e191a" d="M 233.941406 251.316406 L 188.675781 251.316406 L 188.675781 299.757812 L 233.941406 299.757812 Z M 230.765625 254.492188 L 230.765625 296.582031 L 191.855469 296.582031 L 191.855469 254.492188 L 230.765625 254.492188"/></g><g id="change1_5"><path fill="#f79922" d="M 227.191406 276.332031 C 227.191406 279.179688 224.882812 281.492188 222.03125 281.492188 L 201.382812 281.492188 C 198.53125 281.492188 196.222656 279.179688 196.222656 276.332031 C 196.222656 273.480469 198.53125 271.167969 201.382812 271.167969 L 222.03125 271.167969 C 224.882812 271.167969 227.191406 273.480469 227.191406 276.332031"/></g><g id="change2_10"><path fill="#2e191a" d="M 227.191406 276.332031 L 225.605469 276.332031 C 225.601562 277.320312 225.207031 278.203125 224.558594 278.855469 C 223.90625 279.507812 223.023438 279.902344 222.03125 279.902344 L 201.382812 279.902344 C 200.390625 279.902344 199.507812 279.507812 198.855469 278.855469 C 198.207031 278.203125 197.808594 277.320312 197.808594 276.332031 C 197.808594 275.339844 198.207031 274.453125 198.855469 273.804688 C 199.507812 273.152344 200.390625 272.757812 201.382812 272.757812 L 222.03125 272.757812 C 223.023438 272.757812 223.90625 273.152344 224.558594 273.804688 C 225.207031 274.453125 225.601562 275.339844 225.605469 276.332031 L 228.78125 276.332031 C 228.78125 272.601562 225.757812 269.582031 222.03125 269.578125 L 201.382812 269.578125 C 197.652344 269.582031 194.632812 272.601562 194.632812 276.332031 C 194.632812 280.058594 197.652344 283.078125 201.382812 283.078125 L 222.03125 283.078125 C 225.761719 283.078125 228.78125 280.058594 228.78125 276.332031 L 227.191406 276.332031"/></g><g id="change2_11"><path fill="#2e191a" d="M 142.3125 219.550781 L 145.152344 219.550781 L 145.152344 189.769531 L 142.3125 189.769531 Z M 142.3125 219.550781"/></g><g id="change2_12"><path fill="#2e191a" d="M 279.941406 219.152344 L 282.785156 219.152344 L 282.785156 189.769531 L 279.941406 189.769531 Z M 279.941406 219.152344"/></g><g id="change2_13"><path fill="#2e191a" d="M 134.609375 84.871094 L 152.808594 103.070312 L 152.808594 186.195312 L 155.984375 186.195312 L 155.984375 101.753906 L 136.855469 82.625 L 134.609375 84.871094"/></g><g id="change2_14"><path fill="#2e191a" d="M 289.867188 82.625 L 270.738281 101.753906 L 270.738281 186.195312 L 273.914062 186.195312 L 273.914062 103.070312 L 292.113281 84.871094 L 289.867188 82.628906"/></g><g id="change2_15"><path fill="#2e191a" d="M 154.394531 104 L 272.324219 104 L 272.324219 100.824219 L 154.394531 100.824219 Z M 154.394531 104"/></g><g id="change6_1"><path fill="#ffffff" d="M 284.855469 118.957031 C 289.59375 126.710938 284.859375 131.457031 283.546875 132.5625 C 291.011719 126.839844 297.113281 134.164062 297.113281 134.164062 C 297.113281 134.164062 291.253906 126.644531 298.433594 120.5625 C 297.070312 121.613281 291.429688 125.234375 284.855469 118.957031"/></g></g></svg>