<?xml version="1.0" encoding="UTF-8"?><svg xmlns="http://www.w3.org/2000/svg" xmlns:xlink="http://www.w3.org/1999/xlink" contentScriptType="text/ecmascript" fill="#000000" width="367.2" zoomAndPan="magnify" contentStyleType="text/css" viewBox="29.0 92.2 367.2 240.9" height="240.9" preserveAspectRatio="xMidYMid meet" version="1"><g><g><path fill="#5cc245" d="M 343.652344 238.730469 L 343.652344 230.464844 L 351.921875 230.464844 L 351.921875 222.195312 L 354.175781 222.195312 L 354.175781 199.648438 L 357.183594 199.648438 L 357.183594 175.46875 L 356.855469 175.46875 L 356.855469 137.027344 L 352.976562 137.027344 L 352.976562 122.863281 L 349.269531 122.863281 L 349.269531 110.050781 L 343.703125 110.050781 L 343.703125 104.65625 L 339.320312 104.65625 L 339.320312 99.933594 L 333.757812 99.933594 L 333.757812 96.898438 L 329.035156 96.898438 L 329.035156 94.878906 L 323.976562 94.878906 L 323.976562 92.171875 L 294.980469 92.171875 L 294.980469 94.878906 L 289.921875 94.878906 L 289.921875 96.898438 L 285.199219 96.898438 L 285.199219 99.933594 L 279.636719 99.933594 L 279.636719 104.65625 L 275.253906 104.65625 L 275.253906 110.050781 L 269.6875 110.050781 L 269.6875 122.863281 L 265.980469 122.863281 L 265.980469 137.027344 L 262.101562 137.027344 L 262.101562 175.46875 L 260.230469 175.46875 L 260.230469 214.679688 L 263.234375 214.679688 L 263.234375 225.953125 L 276.011719 225.953125 L 276.011719 238.730469 L 343.652344 238.730469"/></g><g><path fill="#3f9e4b" d="M 343.652344 238.730469 L 343.652344 230.464844 L 351.921875 230.464844 L 351.921875 222.195312 L 354.175781 222.195312 L 354.175781 199.648438 L 357.183594 199.648438 L 357.183594 175.46875 L 356.855469 175.46875 L 356.855469 137.027344 L 352.976562 137.027344 L 352.976562 122.863281 L 349.269531 122.863281 L 349.269531 110.050781 L 345.851562 110.050781 L 345.851562 120.027344 L 339.691406 120.027344 L 339.691406 143.832031 L 333.945312 143.832031 L 333.945312 161.476562 L 325.742188 161.476562 L 325.742188 184.867188 L 319.585938 184.867188 L 319.585938 197.589844 L 317.941406 197.589844 L 317.941406 214.414062 L 317.121094 214.414062 L 317.121094 219.75 L 312.605469 219.75 L 312.605469 225.085938 L 299.066406 225.085938 L 299.066406 219.75 L 291.679688 219.75 L 291.679688 214.414062 L 283.472656 214.414062 L 283.472656 197.589844 L 279.367188 197.589844 L 279.367188 161.476562 L 269.519531 161.476562 L 269.519531 159.015625 L 267.46875 159.015625 L 267.46875 148.34375 L 265.007812 148.34375 L 265.007812 137.027344 L 262.101562 137.027344 L 262.101562 175.46875 L 260.230469 175.46875 L 260.230469 214.679688 L 263.234375 214.679688 L 263.234375 225.953125 L 276.011719 225.953125 L 276.011719 238.730469 L 343.652344 238.730469"/></g><g><path fill="#368740" d="M 343.652344 230.464844 L 351.921875 230.464844 L 351.921875 222.195312 L 354.175781 222.195312 L 354.175781 199.648438 L 357.183594 199.648438 L 357.183594 175.46875 L 356.855469 175.46875 L 356.855469 142.15625 L 345.570312 142.15625 L 345.570312 208.636719 L 330.183594 208.636719 L 330.183594 220.332031 L 324.640625 220.332031 L 324.640625 238.730469 L 343.652344 238.730469 L 343.652344 230.464844"/></g><g><path fill="#82ce3a" d="M 327.121094 110.050781 L 309.480469 110.050781 L 309.480469 107.71875 L 304.8125 107.71875 L 304.8125 101.5625 L 297.371094 101.5625 L 297.371094 105.804688 L 287.164062 105.804688 L 287.164062 107.71875 L 282.648438 107.71875 L 282.648438 113.871094 L 300.859375 113.871094 L 300.859375 117.566406 L 293.882812 117.566406 L 293.882812 124.132812 L 309.480469 124.132812 L 309.480469 120.027344 L 313.988281 120.027344 L 313.988281 115.652344 L 321.910156 115.652344 L 321.910156 113.871094 L 327.121094 113.871094 L 327.121094 110.050781"/></g><g><path fill="#5cc245" d="M 396.214844 238.730469 L 396.214844 147.789062 L 393.878906 147.789062 L 393.878906 146.492188 L 390.636719 146.492188 L 390.636719 144.757812 L 372.039062 144.757812 L 372.039062 146.492188 L 368.796875 146.492188 L 368.796875 147.789062 L 365.769531 147.789062 L 365.769531 149.734375 L 362.203125 149.734375 L 362.203125 152.761719 L 359.394531 152.761719 L 359.394531 156.21875 L 355.824219 156.21875 L 355.824219 164.4375 L 353.445312 164.4375 L 353.445312 173.515625 L 350.960938 173.515625 L 350.960938 198.164062 L 349.757812 198.164062 L 349.757812 223.308594 L 351.6875 223.308594 L 351.6875 230.539062 L 359.878906 230.539062 L 359.878906 238.730469 L 396.214844 238.730469"/></g><g><path fill="#3f9e4b" d="M 396.214844 238.730469 L 396.214844 189.195312 L 391.765625 189.195312 L 391.765625 204.191406 L 387.816406 204.191406 L 387.816406 212.351562 L 386.765625 212.351562 L 386.765625 223.140625 L 386.238281 223.140625 L 386.238281 226.558594 L 383.34375 226.558594 L 383.34375 229.980469 L 374.660156 229.980469 L 374.660156 226.558594 L 369.925781 226.558594 L 369.925781 223.140625 L 364.660156 223.140625 L 364.660156 212.351562 L 362.03125 212.351562 L 362.03125 189.195312 L 355.71875 189.195312 L 355.71875 187.617188 L 354.398438 187.617188 L 354.398438 180.773438 L 352.820312 180.773438 L 352.820312 173.515625 L 350.960938 173.515625 L 350.960938 198.164062 L 349.757812 198.164062 L 349.757812 223.308594 L 351.6875 223.308594 L 351.6875 230.539062 L 359.878906 230.539062 L 359.878906 238.730469 L 396.214844 238.730469"/></g><g><path fill="#368740" d="M 396.214844 219.433594 L 394.609375 219.433594 L 394.609375 226.933594 L 391.058594 226.933594 L 391.058594 238.730469 L 396.214844 238.730469 L 396.214844 219.433594"/></g><g><path fill="#82ce3a" d="M 392.652344 156.21875 L 381.339844 156.21875 L 381.339844 154.722656 L 378.347656 154.722656 L 378.347656 150.777344 L 373.574219 150.777344 L 373.574219 153.5 L 367.03125 153.5 L 367.03125 154.722656 L 364.136719 154.722656 L 364.136719 158.671875 L 375.8125 158.671875 L 375.8125 161.039062 L 371.339844 161.039062 L 371.339844 165.25 L 381.339844 165.25 L 381.339844 162.617188 L 384.230469 162.617188 L 384.230469 159.8125 L 389.308594 159.8125 L 389.308594 158.671875 L 392.652344 158.671875 L 392.652344 156.21875"/></g><g><path fill="#5cc245" d="M 102.878906 238.730469 L 102.878906 235.089844 L 106.519531 235.089844 L 106.519531 231.449219 L 107.511719 231.449219 L 107.511719 221.523438 L 108.835938 221.523438 L 108.835938 210.878906 L 108.691406 210.878906 L 108.691406 193.953125 L 106.980469 193.953125 L 106.980469 187.71875 L 105.351562 187.71875 L 105.351562 182.074219 L 102.902344 182.074219 L 102.902344 179.699219 L 100.972656 179.699219 L 100.972656 177.621094 L 98.523438 177.621094 L 98.523438 176.285156 L 96.441406 176.285156 L 96.441406 175.394531 L 94.214844 175.394531 L 94.214844 174.207031 L 81.449219 174.207031 L 81.449219 175.394531 L 79.222656 175.394531 L 79.222656 176.285156 L 77.144531 176.285156 L 77.144531 177.621094 L 74.695312 177.621094 L 74.695312 179.699219 L 72.765625 179.699219 L 72.765625 182.074219 L 70.316406 182.074219 L 70.316406 187.71875 L 68.679688 187.71875 L 68.679688 193.953125 L 66.972656 193.953125 L 66.972656 210.878906 L 66.148438 210.878906 L 66.148438 228.140625 L 67.472656 228.140625 L 67.472656 233.105469 L 73.097656 233.105469 L 73.097656 238.730469 L 102.878906 238.730469"/></g><g><path fill="#3f9e4b" d="M 102.878906 238.730469 L 102.878906 235.089844 L 106.519531 235.089844 L 106.519531 231.449219 L 107.511719 231.449219 L 107.511719 221.523438 L 108.835938 221.523438 L 108.835938 210.878906 L 108.691406 210.878906 L 108.691406 193.953125 L 106.980469 193.953125 L 106.980469 187.71875 L 105.351562 187.71875 L 105.351562 182.074219 L 103.847656 182.074219 L 103.847656 186.46875 L 101.136719 186.46875 L 101.136719 196.949219 L 98.605469 196.949219 L 98.605469 204.71875 L 94.992188 204.71875 L 94.992188 215.015625 L 92.28125 215.015625 L 92.28125 220.617188 L 91.558594 220.617188 L 91.558594 228.023438 L 91.199219 228.023438 L 91.199219 230.371094 L 89.210938 230.371094 L 89.210938 232.722656 L 83.246094 232.722656 L 83.246094 230.371094 L 79.996094 230.371094 L 79.996094 228.023438 L 76.382812 228.023438 L 76.382812 220.617188 L 74.578125 220.617188 L 74.578125 204.71875 L 70.238281 204.71875 L 70.238281 203.632812 L 69.335938 203.632812 L 69.335938 198.9375 L 68.253906 198.9375 L 68.253906 193.953125 L 66.972656 193.953125 L 66.972656 210.878906 L 66.148438 210.878906 L 66.148438 228.140625 L 67.472656 228.140625 L 67.472656 233.105469 L 73.097656 233.105469 L 73.097656 238.730469 L 102.878906 238.730469"/></g><g><path fill="#368740" d="M 102.878906 235.089844 L 106.519531 235.089844 L 106.519531 231.449219 L 107.511719 231.449219 L 107.511719 221.523438 L 108.835938 221.523438 L 108.835938 210.878906 L 108.691406 210.878906 L 108.691406 196.210938 L 103.722656 196.210938 L 103.722656 225.480469 L 96.945312 225.480469 L 96.945312 230.628906 L 94.507812 230.628906 L 94.507812 238.730469 L 102.878906 238.730469 L 102.878906 235.089844"/></g><g><path fill="#82ce3a" d="M 95.597656 182.074219 L 87.832031 182.074219 L 87.832031 181.050781 L 85.777344 181.050781 L 85.777344 178.339844 L 82.503906 178.339844 L 82.503906 180.207031 L 78.007812 180.207031 L 78.007812 181.050781 L 76.023438 181.050781 L 76.023438 183.757812 L 84.035156 183.757812 L 84.035156 185.386719 L 80.96875 185.386719 L 80.96875 188.277344 L 87.832031 188.277344 L 87.832031 186.46875 L 89.820312 186.46875 L 89.820312 184.542969 L 93.304688 184.542969 L 93.304688 183.757812 L 95.597656 183.757812 L 95.597656 182.074219"/></g><g><path fill="#5cc245" d="M 65.246094 238.730469 L 65.246094 236.484375 L 67.488281 236.484375 L 67.488281 234.238281 L 68.101562 234.238281 L 68.101562 228.117188 L 68.917969 228.117188 L 68.917969 221.554688 L 68.832031 221.554688 L 68.832031 211.113281 L 67.777344 211.113281 L 67.777344 207.269531 L 66.769531 207.269531 L 66.769531 203.789062 L 65.257812 203.789062 L 65.257812 202.324219 L 64.070312 202.324219 L 64.070312 201.042969 L 62.558594 201.042969 L 62.558594 200.21875 L 61.277344 200.21875 L 61.277344 199.671875 L 59.902344 199.671875 L 59.902344 198.9375 L 52.03125 198.9375 L 52.03125 199.671875 L 50.65625 199.671875 L 50.65625 200.21875 L 49.371094 200.21875 L 49.371094 201.042969 L 47.863281 201.042969 L 47.863281 202.324219 L 46.671875 202.324219 L 46.671875 203.789062 L 45.160156 203.789062 L 45.160156 207.269531 L 44.15625 207.269531 L 44.15625 211.113281 L 43.101562 211.113281 L 43.101562 221.554688 L 42.59375 221.554688 L 42.59375 232.199219 L 43.410156 232.199219 L 43.410156 235.261719 L 46.878906 235.261719 L 46.878906 238.730469 L 65.246094 238.730469"/></g><g><path fill="#3f9e4b" d="M 65.246094 238.730469 L 65.246094 236.484375 L 67.488281 236.484375 L 67.488281 234.238281 L 68.101562 234.238281 L 68.101562 228.117188 L 68.917969 228.117188 L 68.917969 221.554688 L 68.832031 221.554688 L 68.832031 211.113281 L 67.777344 211.113281 L 67.777344 207.269531 L 66.769531 207.269531 L 66.769531 203.789062 L 65.84375 203.789062 L 65.84375 206.5 L 64.167969 206.5 L 64.167969 212.960938 L 62.609375 212.960938 L 62.609375 217.753906 L 60.382812 217.753906 L 60.382812 224.105469 L 58.710938 224.105469 L 58.710938 227.558594 L 58.265625 227.558594 L 58.265625 232.128906 L 58.042969 232.128906 L 58.042969 233.574219 L 56.816406 233.574219 L 56.816406 235.023438 L 53.140625 235.023438 L 53.140625 233.574219 L 51.132812 233.574219 L 51.132812 232.128906 L 48.90625 232.128906 L 48.90625 227.558594 L 47.789062 227.558594 L 47.789062 217.753906 L 45.113281 217.753906 L 45.113281 217.085938 L 44.558594 217.085938 L 44.558594 214.1875 L 43.890625 214.1875 L 43.890625 211.113281 L 43.101562 211.113281 L 43.101562 221.554688 L 42.59375 221.554688 L 42.59375 232.199219 L 43.410156 232.199219 L 43.410156 235.261719 L 46.878906 235.261719 L 46.878906 238.730469 L 65.246094 238.730469"/></g><g><path fill="#368740" d="M 65.246094 236.484375 L 67.488281 236.484375 L 67.488281 234.238281 L 68.101562 234.238281 L 68.101562 228.117188 L 68.917969 228.117188 L 68.917969 221.554688 L 68.832031 221.554688 L 68.832031 212.507812 L 65.765625 212.507812 L 65.765625 230.558594 L 61.589844 230.558594 L 61.589844 233.734375 L 60.085938 233.734375 L 60.085938 238.730469 L 65.246094 238.730469 L 65.246094 236.484375"/></g><g><path fill="#82ce3a" d="M 60.757812 203.789062 L 55.96875 203.789062 L 55.96875 203.15625 L 54.699219 203.15625 L 54.699219 201.484375 L 52.679688 201.484375 L 52.679688 202.636719 L 49.90625 202.636719 L 49.90625 203.15625 L 48.679688 203.15625 L 48.679688 204.828125 L 53.628906 204.828125 L 53.628906 205.832031 L 51.730469 205.832031 L 51.730469 207.613281 L 55.96875 207.613281 L 55.96875 206.5 L 57.191406 206.5 L 57.191406 205.3125 L 59.34375 205.3125 L 59.34375 204.828125 L 60.757812 204.828125 L 60.757812 203.789062"/></g><g><path fill="#5cc245" d="M 163.386719 238.730469 L 163.386719 236.824219 L 165.292969 236.824219 L 165.292969 234.914062 L 165.8125 234.914062 L 165.8125 229.714844 L 166.507812 229.714844 L 166.507812 224.136719 L 166.433594 224.136719 L 166.433594 215.269531 L 165.535156 215.269531 L 165.535156 212 L 164.683594 212 L 164.683594 209.042969 L 163.398438 209.042969 L 163.398438 207.800781 L 162.386719 207.800781 L 162.386719 206.710938 L 161.105469 206.710938 L 161.105469 206.011719 L 160.015625 206.011719 L 160.015625 205.542969 L 158.847656 205.542969 L 158.847656 204.921875 L 152.15625 204.921875 L 152.15625 205.542969 L 150.988281 205.542969 L 150.988281 206.011719 L 149.898438 206.011719 L 149.898438 206.710938 L 148.617188 206.710938 L 148.617188 207.800781 L 147.605469 207.800781 L 147.605469 209.042969 L 146.324219 209.042969 L 146.324219 212 L 145.46875 212 L 145.46875 215.269531 L 144.574219 215.269531 L 144.574219 224.136719 L 144.140625 224.136719 L 144.140625 233.183594 L 144.835938 233.183594 L 144.835938 235.78125 L 147.78125 235.78125 L 147.78125 238.730469 L 163.386719 238.730469"/></g><g><path fill="#3f9e4b" d="M 163.386719 238.730469 L 163.386719 236.824219 L 165.292969 236.824219 L 165.292969 234.914062 L 165.8125 234.914062 L 165.8125 229.714844 L 166.507812 229.714844 L 166.507812 224.136719 L 166.433594 224.136719 L 166.433594 215.269531 L 165.535156 215.269531 L 165.535156 212 L 164.683594 212 L 164.683594 209.042969 L 163.894531 209.042969 L 163.894531 211.347656 L 162.472656 211.347656 L 162.472656 216.839844 L 161.148438 216.839844 L 161.148438 220.90625 L 159.253906 220.90625 L 159.253906 226.304688 L 157.835938 226.304688 L 157.835938 229.238281 L 157.453125 229.238281 L 157.453125 233.121094 L 157.265625 233.121094 L 157.265625 234.351562 L 156.226562 234.351562 L 156.226562 235.582031 L 153.101562 235.582031 L 153.101562 234.351562 L 151.394531 234.351562 L 151.394531 233.121094 L 149.503906 233.121094 L 149.503906 229.238281 L 148.558594 229.238281 L 148.558594 220.90625 L 146.285156 220.90625 L 146.285156 220.339844 L 145.8125 220.339844 L 145.8125 217.878906 L 145.242188 217.878906 L 145.242188 215.269531 L 144.574219 215.269531 L 144.574219 224.136719 L 144.140625 224.136719 L 144.140625 233.183594 L 144.835938 233.183594 L 144.835938 235.78125 L 147.78125 235.78125 L 147.78125 238.730469 L 163.386719 238.730469"/></g><g><path fill="#368740" d="M 163.386719 236.824219 L 165.292969 236.824219 L 165.292969 234.914062 L 165.8125 234.914062 L 165.8125 229.714844 L 166.507812 229.714844 L 166.507812 224.136719 L 166.433594 224.136719 L 166.433594 216.453125 L 163.828125 216.453125 L 163.828125 231.789062 L 160.277344 231.789062 L 160.277344 234.484375 L 159 234.484375 L 159 238.730469 L 163.386719 238.730469 L 163.386719 236.824219"/></g><g><path fill="#82ce3a" d="M 159.570312 209.042969 L 155.503906 209.042969 L 155.503906 208.507812 L 154.425781 208.507812 L 154.425781 207.085938 L 152.710938 207.085938 L 152.710938 208.066406 L 150.355469 208.066406 L 150.355469 208.507812 L 149.3125 208.507812 L 149.3125 209.925781 L 153.515625 209.925781 L 153.515625 210.777344 L 151.90625 210.777344 L 151.90625 212.292969 L 155.503906 212.292969 L 155.503906 211.347656 L 156.542969 211.347656 L 156.542969 210.335938 L 158.371094 210.335938 L 158.371094 209.925781 L 159.570312 209.925781 L 159.570312 209.042969"/></g><g><path fill="#ad422b" d="M 225.84375 230.5625 L 225.84375 216.078125 L 217.054688 216.078125 L 217.054688 230.5625 L 225.84375 230.5625"/></g><g><path fill="#7f2f1e" d="M 225.84375 230.5625 L 225.84375 216.078125 L 223.085938 216.078125 L 223.085938 230.5625 L 225.84375 230.5625"/></g><g><path fill="#d1462b" d="M 219.300781 230.5625 L 219.300781 217.304688 L 217.5625 217.304688 L 217.5625 230.5625 L 219.300781 230.5625"/></g><g><path fill="#5cc245" d="M 238.503906 213.375 L 238.503906 208.703125 L 234.679688 208.703125 L 234.679688 205.710938 L 233.25 205.710938 L 233.25 196.132812 L 232.285156 196.132812 L 232.285156 192.605469 L 231.359375 192.605469 L 231.359375 189.414062 L 229.976562 189.414062 L 229.976562 188.070312 L 228.882812 188.070312 L 228.882812 186.894531 L 227.496094 186.894531 L 227.496094 186.136719 L 226.320312 186.136719 L 226.320312 185.632812 L 225.0625 185.632812 L 225.0625 184.960938 L 217.835938 184.960938 L 217.835938 185.632812 L 216.574219 185.632812 L 216.574219 186.136719 L 215.398438 186.136719 L 215.398438 186.894531 L 214.015625 186.894531 L 214.015625 188.070312 L 212.921875 188.070312 L 212.921875 189.414062 L 211.535156 189.414062 L 211.535156 192.605469 L 210.609375 192.605469 L 210.609375 196.132812 L 209.644531 196.132812 L 209.644531 205.710938 L 208.21875 205.710938 L 208.21875 208.703125 L 204.394531 208.703125 L 204.394531 213.375 L 202.253906 213.375 L 202.253906 221.472656 L 240.644531 221.472656 L 240.644531 213.375 L 238.503906 213.375"/></g><g><path fill="#3f9e4b" d="M 238.503906 213.375 L 238.503906 208.703125 L 234.679688 208.703125 L 234.679688 205.710938 L 233.25 205.710938 L 233.25 196.132812 L 232.285156 196.132812 L 232.285156 192.605469 L 231.359375 192.605469 L 231.359375 189.414062 L 230.511719 189.414062 L 230.511719 191.898438 L 228.976562 191.898438 L 228.976562 197.828125 L 227.546875 197.828125 L 227.546875 202.226562 L 225.5 202.226562 L 225.5 208.054688 L 223.96875 208.054688 L 223.96875 211.222656 L 223.558594 211.222656 L 223.558594 215.414062 L 223.351562 215.414062 L 223.351562 216.742188 L 222.230469 216.742188 L 222.230469 218.070312 L 218.855469 218.070312 L 218.855469 216.742188 L 217.015625 216.742188 L 217.015625 215.414062 L 214.96875 215.414062 L 214.96875 211.222656 L 213.945312 211.222656 L 213.945312 202.226562 L 211.492188 202.226562 L 211.492188 201.613281 L 210.980469 201.613281 L 210.980469 198.953125 L 210.367188 198.953125 L 210.367188 196.132812 L 209.644531 196.132812 L 209.644531 205.710938 L 208.21875 205.710938 L 208.21875 208.703125 L 204.394531 208.703125 L 204.394531 213.375 L 202.253906 213.375 L 202.253906 221.472656 L 240.644531 221.472656 L 240.644531 213.375 L 238.503906 213.375"/></g><g><path fill="#368740" d="M 238.503906 213.375 L 238.503906 208.703125 L 234.679688 208.703125 L 234.679688 205.710938 L 233.25 205.710938 L 233.25 197.410156 L 230.4375 197.410156 L 230.4375 213.972656 L 226.605469 213.972656 L 226.605469 216.886719 L 225.226562 216.886719 L 225.226562 221.472656 L 240.644531 221.472656 L 240.644531 213.375 L 238.503906 213.375"/></g><g><path fill="#368740" d="M 205.902344 217.039062 L 205.902344 214.894531 L 203.296875 214.894531 L 203.296875 213.375 L 202.253906 213.375 L 202.253906 221.472656 L 208.972656 221.472656 L 208.972656 217.039062 L 205.902344 217.039062"/></g><g><path fill="#82ce3a" d="M 225.84375 189.414062 L 221.445312 189.414062 L 221.445312 188.832031 L 220.285156 188.832031 L 220.285156 187.300781 L 218.433594 187.300781 L 218.433594 188.355469 L 215.890625 188.355469 L 215.890625 188.832031 L 214.765625 188.832031 L 214.765625 190.367188 L 219.300781 190.367188 L 219.300781 191.285156 L 217.5625 191.285156 L 217.5625 192.921875 L 221.445312 192.921875 L 221.445312 191.898438 L 222.570312 191.898438 L 222.570312 190.808594 L 224.546875 190.808594 L 224.546875 190.367188 L 225.84375 190.367188 L 225.84375 189.414062"/></g><g><path fill="#ad422b" d="M 216.4375 317.757812 L 28.984375 317.757812 L 28.984375 266.253906 L 216.4375 266.253906 L 216.4375 317.757812"/></g><g><path fill="#cd4a2f" d="M 64.640625 276.535156 L 42.074219 276.535156 L 42.074219 282.523438 L 43.273438 282.523438 L 43.273438 287.214844 L 47.46875 287.214844 L 47.46875 288.511719 L 48.464844 288.511719 L 48.464844 292.007812 L 50.257812 292.007812 L 50.257812 294.300781 L 56.84375 294.300781 L 56.84375 292.007812 L 60.339844 292.007812 L 60.339844 288.511719 L 61.839844 288.511719 L 61.839844 284.621094 L 63.730469 284.621094 L 63.730469 282.523438 L 64.640625 282.523438 L 64.640625 276.535156"/></g><g><path fill="#cd4a2f" d="M 92.101562 276.535156 L 69.535156 276.535156 L 69.535156 282.523438 L 70.734375 282.523438 L 70.734375 287.214844 L 74.933594 287.214844 L 74.933594 288.511719 L 75.921875 288.511719 L 75.921875 292.007812 L 77.71875 292.007812 L 77.71875 294.300781 L 84.308594 294.300781 L 84.308594 292.007812 L 87.800781 292.007812 L 87.800781 288.511719 L 89.296875 288.511719 L 89.296875 284.621094 L 91.195312 284.621094 L 91.195312 282.523438 L 92.101562 282.523438 L 92.101562 276.535156"/></g><g><path fill="#cd4a2f" d="M 119.5625 276.535156 L 97 276.535156 L 97 282.523438 L 98.195312 282.523438 L 98.195312 287.214844 L 102.394531 287.214844 L 102.394531 288.511719 L 103.386719 288.511719 L 103.386719 292.007812 L 105.183594 292.007812 L 105.183594 294.300781 L 111.769531 294.300781 L 111.769531 292.007812 L 115.265625 292.007812 L 115.265625 288.511719 L 116.761719 288.511719 L 116.761719 284.621094 L 118.65625 284.621094 L 118.65625 282.523438 L 119.5625 282.523438 L 119.5625 276.535156"/></g><g><path fill="#cd4a2f" d="M 147.023438 276.535156 L 124.460938 276.535156 L 124.460938 282.523438 L 125.65625 282.523438 L 125.65625 287.214844 L 129.855469 287.214844 L 129.855469 288.511719 L 130.847656 288.511719 L 130.847656 292.007812 L 132.644531 292.007812 L 132.644531 294.300781 L 139.230469 294.300781 L 139.230469 292.007812 L 142.726562 292.007812 L 142.726562 288.511719 L 144.222656 288.511719 L 144.222656 284.621094 L 146.117188 284.621094 L 146.117188 282.523438 L 147.023438 282.523438 L 147.023438 276.535156"/></g><g><path fill="#a33d28" d="M 155.160156 266.253906 L 155.160156 288.113281 L 149.367188 288.113281 L 149.367188 293.703125 L 143.183594 293.703125 L 143.183594 297.894531 L 111.242188 297.894531 L 111.242188 300.6875 L 101.660156 300.6875 L 101.660156 303.484375 L 87.488281 303.484375 L 87.488281 306.878906 L 76.710938 306.878906 L 76.710938 310.871094 L 60.140625 310.871094 L 60.140625 313.664062 L 42.375 313.664062 L 42.375 311.667969 L 41.378906 311.667969 L 41.378906 304.28125 L 39.976562 304.28125 L 39.976562 297.296875 L 36.78125 297.296875 L 36.78125 293.703125 L 33.589844 293.703125 L 33.589844 288.113281 L 28.984375 288.113281 L 28.984375 317.757812 L 216.4375 317.757812 L 216.4375 266.253906 L 155.160156 266.253906"/></g><g><path fill="#cd4a2f" d="M 174.488281 276.535156 L 151.925781 276.535156 L 151.925781 282.523438 L 153.121094 282.523438 L 153.121094 287.214844 L 157.320312 287.214844 L 157.320312 288.511719 L 158.3125 288.511719 L 158.3125 292.007812 L 160.105469 292.007812 L 160.105469 294.300781 L 166.695312 294.300781 L 166.695312 292.007812 L 170.1875 292.007812 L 170.1875 288.511719 L 171.6875 288.511719 L 171.6875 284.621094 L 173.582031 284.621094 L 173.582031 282.523438 L 174.488281 282.523438 L 174.488281 276.535156"/></g><g><path fill="#cd4a2f" d="M 201.949219 276.535156 L 179.386719 276.535156 L 179.386719 282.523438 L 180.585938 282.523438 L 180.585938 287.214844 L 184.78125 287.214844 L 184.78125 288.511719 L 185.773438 288.511719 L 185.773438 292.007812 L 187.570312 292.007812 L 187.570312 294.300781 L 194.15625 294.300781 L 194.15625 292.007812 L 197.648438 292.007812 L 197.648438 288.511719 L 199.148438 288.511719 L 199.148438 284.621094 L 201.046875 284.621094 L 201.046875 282.523438 L 201.949219 282.523438 L 201.949219 276.535156"/></g><g><path fill="#366f23" d="M 185.191406 236.035156 L 28.984375 236.035156 L 28.984375 277.421875 L 31.554688 277.421875 L 31.554688 280.988281 L 36.796875 280.988281 L 36.796875 283.773438 L 56.597656 283.773438 L 56.597656 280.988281 L 60.953125 280.988281 L 60.953125 277.421875 L 62.921875 277.421875 L 62.921875 280.988281 L 68.167969 280.988281 L 68.167969 283.773438 L 87.96875 283.773438 L 87.96875 280.988281 L 92.324219 280.988281 L 92.324219 277.421875 L 94.164062 277.421875 L 94.164062 280.988281 L 99.40625 280.988281 L 99.40625 283.773438 L 119.210938 283.773438 L 119.210938 280.988281 L 123.5625 280.988281 L 123.5625 277.421875 L 124.425781 277.421875 L 124.425781 280.988281 L 129.667969 280.988281 L 129.667969 283.773438 L 149.472656 283.773438 L 149.472656 280.988281 L 153.820312 280.988281 L 153.820312 277.421875 L 155.796875 277.421875 L 155.796875 280.988281 L 161.039062 280.988281 L 161.039062 283.773438 L 180.84375 283.773438 L 180.84375 280.988281 L 185.191406 280.988281 L 185.191406 277.421875 L 187.03125 277.421875 L 187.03125 280.988281 L 192.277344 280.988281 L 192.277344 283.773438 L 212.082031 283.773438 L 212.082031 280.988281 L 216.4375 280.988281 L 216.4375 236.035156 L 185.191406 236.035156"/></g><g><path fill="#4fa336" d="M 185.191406 229.328125 L 28.984375 229.328125 L 28.984375 275.425781 L 31.554688 275.425781 L 31.554688 270.714844 L 33.695312 270.714844 L 33.695312 272.214844 L 40.332031 272.214844 L 40.332031 274.78125 L 49.105469 274.78125 L 49.105469 273.710938 L 60.355469 273.710938 L 60.355469 275.425781 L 62.921875 275.425781 L 62.921875 270.714844 L 65.0625 270.714844 L 65.0625 272.214844 L 71.703125 272.214844 L 71.703125 274.78125 L 80.476562 274.78125 L 80.476562 273.710938 L 91.59375 273.710938 L 91.59375 275.425781 L 94.164062 275.425781 L 94.164062 270.714844 L 96.304688 270.714844 L 96.304688 272.214844 L 102.941406 272.214844 L 102.941406 274.78125 L 111.71875 274.78125 L 111.71875 273.710938 L 121.855469 273.710938 L 121.855469 275.425781 L 124.425781 275.425781 L 124.425781 270.714844 L 126.566406 270.714844 L 126.566406 272.214844 L 133.199219 272.214844 L 133.199219 274.78125 L 141.980469 274.78125 L 141.980469 273.710938 L 153.226562 273.710938 L 153.226562 275.425781 L 155.796875 275.425781 L 155.796875 270.714844 L 157.933594 270.714844 L 157.933594 272.214844 L 164.570312 272.214844 L 164.570312 274.78125 L 173.347656 274.78125 L 173.347656 273.710938 L 184.464844 273.710938 L 184.464844 275.425781 L 187.03125 275.425781 L 187.03125 270.714844 L 189.175781 270.714844 L 189.175781 272.214844 L 195.8125 272.214844 L 195.8125 274.78125 L 204.589844 274.78125 L 204.589844 273.710938 L 216.4375 273.710938 L 216.4375 229.328125 L 185.191406 229.328125"/></g><g><path fill="#6cab4e" d="M 185.191406 229.328125 L 28.984375 229.328125 L 28.984375 261.082031 L 34.65625 261.082031 L 34.65625 257.226562 L 39.046875 257.226562 L 39.046875 260.4375 L 43.328125 260.4375 L 43.328125 262.363281 L 60.953125 262.363281 L 60.953125 261.082031 L 66.027344 261.082031 L 66.027344 257.226562 L 70.414062 257.226562 L 70.414062 260.4375 L 74.699219 260.4375 L 74.699219 262.363281 L 92.324219 262.363281 L 92.324219 261.082031 L 97.269531 261.082031 L 97.269531 257.226562 L 101.65625 257.226562 L 101.65625 260.4375 L 105.9375 260.4375 L 105.9375 262.363281 L 123.5625 262.363281 L 123.5625 261.082031 L 127.527344 261.082031 L 127.527344 257.226562 L 131.917969 257.226562 L 131.917969 260.4375 L 136.199219 260.4375 L 136.199219 262.363281 L 153.820312 262.363281 L 153.820312 261.082031 L 158.894531 261.082031 L 158.894531 257.226562 L 163.285156 257.226562 L 163.285156 260.4375 L 167.566406 260.4375 L 167.566406 262.363281 L 185.191406 262.363281 L 185.191406 261.082031 L 190.140625 261.082031 L 190.140625 257.226562 L 194.527344 257.226562 L 194.527344 260.4375 L 198.8125 260.4375 L 198.8125 262.363281 L 216.4375 262.363281 L 216.4375 229.328125 L 185.191406 229.328125"/></g><g><path fill="#8eb346" d="M 200.449219 229.328125 L 28.984375 229.328125 L 28.984375 250.019531 L 44.96875 250.019531 L 44.96875 244.167969 L 51.246094 244.167969 L 51.246094 246.453125 L 53.828125 246.453125 L 53.828125 248.664062 L 60.355469 248.664062 L 60.355469 250.019531 L 76.339844 250.019531 L 76.339844 244.167969 L 82.617188 244.167969 L 82.617188 246.453125 L 85.195312 246.453125 L 85.195312 248.664062 L 91.59375 248.664062 L 91.59375 250.019531 L 107.578125 250.019531 L 107.578125 244.167969 L 113.859375 244.167969 L 113.859375 246.453125 L 116.4375 246.453125 L 116.4375 248.664062 L 121.855469 248.664062 L 121.855469 250.019531 L 137.839844 250.019531 L 137.839844 244.167969 L 144.117188 244.167969 L 144.117188 246.453125 L 146.695312 246.453125 L 146.695312 248.664062 L 153.226562 248.664062 L 153.226562 250.019531 L 169.210938 250.019531 L 169.210938 244.167969 L 175.488281 244.167969 L 175.488281 246.453125 L 178.066406 246.453125 L 178.066406 248.664062 L 184.464844 248.664062 L 184.464844 250.019531 L 200.449219 250.019531 L 200.449219 244.167969 L 206.730469 244.167969 L 206.730469 246.453125 L 209.308594 246.453125 L 209.308594 248.664062 L 216.4375 248.664062 L 216.4375 229.328125 L 200.449219 229.328125"/></g><g><path fill="#cd4a2f" d="M 38.78125 311.070312 L 28.984375 311.070312 L 28.984375 297.097656 L 38.78125 297.097656 L 38.78125 311.070312"/></g><g><path fill="#cd4a2f" d="M 42.074219 302.285156 L 32.28125 302.285156 L 32.28125 293.105469 L 42.074219 293.105469 L 42.074219 302.285156"/></g><g><path fill="#cd4a2f" d="M 45.96875 308.175781 L 36.167969 308.175781 L 36.167969 298.992188 L 45.96875 298.992188 L 45.96875 308.175781"/></g><g><path fill="#cd4a2f" d="M 46.566406 300.191406 L 36.769531 300.191406 L 36.769531 291.007812 L 46.566406 291.007812 L 46.566406 300.191406"/></g><g><path fill="#cd4a2f" d="M 43.679688 317.757812 L 33.882812 317.757812 L 33.882812 308.574219 L 43.679688 308.574219 L 43.679688 317.757812"/></g><g><path fill="#cd4a2f" d="M 47.46875 312.765625 L 37.675781 312.765625 L 37.675781 303.585938 L 47.46875 303.585938 L 47.46875 312.765625"/></g><g><path fill="#cd522f" d="M 42.574219 305.179688 L 33.882812 305.179688 L 33.882812 297.097656 L 42.574219 297.097656 L 42.574219 305.179688"/></g><g><path fill="#cd522f" d="M 40.277344 307.675781 L 31.792969 307.675781 L 31.792969 302.785156 L 40.277344 302.785156 L 40.277344 307.675781"/></g><g><path fill="#cd522f" d="M 43.273438 305.980469 L 38.226562 305.980469 L 38.226562 300.191406 L 43.273438 300.191406 L 43.273438 305.980469"/></g><g><path fill="#cd4a2f" d="M 65.742188 311.070312 L 55.949219 311.070312 L 55.949219 297.097656 L 65.742188 297.097656 L 65.742188 311.070312"/></g><g><path fill="#cd4a2f" d="M 69.035156 302.285156 L 59.242188 302.285156 L 59.242188 293.105469 L 69.035156 293.105469 L 69.035156 302.285156"/></g><g><path fill="#cd4a2f" d="M 72.929688 308.175781 L 63.136719 308.175781 L 63.136719 298.992188 L 72.929688 298.992188 L 72.929688 308.175781"/></g><g><path fill="#cd4a2f" d="M 73.53125 300.191406 L 63.730469 300.191406 L 63.730469 291.007812 L 73.53125 291.007812 L 73.53125 300.191406"/></g><g><path fill="#cd4a2f" d="M 70.644531 317.757812 L 60.84375 317.757812 L 60.84375 308.574219 L 70.644531 308.574219 L 70.644531 317.757812"/></g><g><path fill="#cd4a2f" d="M 74.433594 312.765625 L 64.640625 312.765625 L 64.640625 303.585938 L 74.433594 303.585938 L 74.433594 312.765625"/></g><g><path fill="#cd522f" d="M 69.535156 305.179688 L 60.84375 305.179688 L 60.84375 297.097656 L 69.535156 297.097656 L 69.535156 305.179688"/></g><g><path fill="#cd522f" d="M 67.238281 307.675781 L 58.757812 307.675781 L 58.757812 302.785156 L 67.238281 302.785156 L 67.238281 307.675781"/></g><g><path fill="#cd522f" d="M 70.234375 305.980469 L 65.191406 305.980469 L 65.191406 300.191406 L 70.234375 300.191406 L 70.234375 305.980469"/></g><g><path fill="#cd4a2f" d="M 92.707031 311.070312 L 82.910156 311.070312 L 82.910156 297.097656 L 92.707031 297.097656 L 92.707031 311.070312"/></g><g><path fill="#cd4a2f" d="M 96.003906 302.285156 L 86.207031 302.285156 L 86.207031 293.105469 L 96.003906 293.105469 L 96.003906 302.285156"/></g><g><path fill="#cd4a2f" d="M 99.894531 308.175781 L 90.097656 308.175781 L 90.097656 298.992188 L 99.894531 298.992188 L 99.894531 308.175781"/></g><g><path fill="#cd4a2f" d="M 100.492188 300.191406 L 90.699219 300.191406 L 90.699219 291.007812 L 100.492188 291.007812 L 100.492188 300.191406"/></g><g><path fill="#cd4a2f" d="M 97.605469 317.757812 L 87.808594 317.757812 L 87.808594 308.574219 L 97.605469 308.574219 L 97.605469 317.757812"/></g><g><path fill="#cd4a2f" d="M 101.398438 312.765625 L 91.601562 312.765625 L 91.601562 303.585938 L 101.398438 303.585938 L 101.398438 312.765625"/></g><g><path fill="#cd522f" d="M 96.5 305.179688 L 87.808594 305.179688 L 87.808594 297.097656 L 96.5 297.097656 L 96.5 305.179688"/></g><g><path fill="#cd522f" d="M 94.207031 307.675781 L 85.71875 307.675781 L 85.71875 302.785156 L 94.207031 302.785156 L 94.207031 307.675781"/></g><g><path fill="#cd522f" d="M 97.199219 305.980469 L 92.15625 305.980469 L 92.15625 300.191406 L 97.199219 300.191406 L 97.199219 305.980469"/></g><g><path fill="#cd4a2f" d="M 119.671875 311.070312 L 109.875 311.070312 L 109.875 297.097656 L 119.671875 297.097656 L 119.671875 311.070312"/></g><g><path fill="#cd4a2f" d="M 122.964844 302.285156 L 113.167969 302.285156 L 113.167969 293.105469 L 122.964844 293.105469 L 122.964844 302.285156"/></g><g><path fill="#cd4a2f" d="M 126.855469 308.175781 L 117.0625 308.175781 L 117.0625 298.992188 L 126.855469 298.992188 L 126.855469 308.175781"/></g><g><path fill="#cd4a2f" d="M 127.457031 300.191406 L 117.65625 300.191406 L 117.65625 291.007812 L 127.457031 291.007812 L 127.457031 300.191406"/></g><g><path fill="#cd4a2f" d="M 124.566406 317.757812 L 114.773438 317.757812 L 114.773438 308.574219 L 124.566406 308.574219 L 124.566406 317.757812"/></g><g><path fill="#cd4a2f" d="M 128.359375 312.765625 L 118.5625 312.765625 L 118.5625 303.585938 L 128.359375 303.585938 L 128.359375 312.765625"/></g><g><path fill="#cd522f" d="M 123.464844 305.179688 L 114.773438 305.179688 L 114.773438 297.097656 L 123.464844 297.097656 L 123.464844 305.179688"/></g><g><path fill="#cd522f" d="M 121.167969 307.675781 L 112.683594 307.675781 L 112.683594 302.785156 L 121.167969 302.785156 L 121.167969 307.675781"/></g><g><path fill="#cd522f" d="M 124.160156 305.980469 L 119.117188 305.980469 L 119.117188 300.191406 L 124.160156 300.191406 L 124.160156 305.980469"/></g><g><path fill="#cd4a2f" d="M 146.636719 311.070312 L 136.839844 311.070312 L 136.839844 297.097656 L 146.636719 297.097656 L 146.636719 311.070312"/></g><g><path fill="#cd4a2f" d="M 149.929688 302.285156 L 140.132812 302.285156 L 140.132812 293.105469 L 149.929688 293.105469 L 149.929688 302.285156"/></g><g><path fill="#cd4a2f" d="M 153.820312 308.175781 L 144.023438 308.175781 L 144.023438 298.992188 L 153.820312 298.992188 L 153.820312 308.175781"/></g><g><path fill="#cd4a2f" d="M 154.421875 300.191406 L 144.621094 300.191406 L 144.621094 291.007812 L 154.421875 291.007812 L 154.421875 300.191406"/></g><g><path fill="#cd4a2f" d="M 151.53125 317.757812 L 141.734375 317.757812 L 141.734375 308.574219 L 151.53125 308.574219 L 151.53125 317.757812"/></g><g><path fill="#cd4a2f" d="M 155.324219 312.765625 L 145.527344 312.765625 L 145.527344 303.585938 L 155.324219 303.585938 L 155.324219 312.765625"/></g><g><path fill="#cd522f" d="M 150.425781 305.179688 L 141.734375 305.179688 L 141.734375 297.097656 L 150.425781 297.097656 L 150.425781 305.179688"/></g><g><path fill="#cd522f" d="M 148.132812 307.675781 L 139.644531 307.675781 L 139.644531 302.785156 L 148.132812 302.785156 L 148.132812 307.675781"/></g><g><path fill="#cd522f" d="M 151.125 305.980469 L 146.078125 305.980469 L 146.078125 300.191406 L 151.125 300.191406 L 151.125 305.980469"/></g><g><path fill="#cd4a2f" d="M 173.597656 311.070312 L 163.800781 311.070312 L 163.800781 297.097656 L 173.597656 297.097656 L 173.597656 311.070312"/></g><g><path fill="#cd4a2f" d="M 176.890625 302.285156 L 167.097656 302.285156 L 167.097656 293.105469 L 176.890625 293.105469 L 176.890625 302.285156"/></g><g><path fill="#cd4a2f" d="M 180.78125 308.175781 L 170.988281 308.175781 L 170.988281 298.992188 L 180.78125 298.992188 L 180.78125 308.175781"/></g><g><path fill="#cd4a2f" d="M 181.382812 300.191406 L 171.585938 300.191406 L 171.585938 291.007812 L 181.382812 291.007812 L 181.382812 300.191406"/></g><g><path fill="#cd4a2f" d="M 178.492188 317.757812 L 168.699219 317.757812 L 168.699219 308.574219 L 178.492188 308.574219 L 178.492188 317.757812"/></g><g><path fill="#cd4a2f" d="M 182.285156 312.765625 L 172.492188 312.765625 L 172.492188 303.585938 L 182.285156 303.585938 L 182.285156 312.765625"/></g><g><path fill="#cd522f" d="M 177.390625 305.179688 L 168.699219 305.179688 L 168.699219 297.097656 L 177.390625 297.097656 L 177.390625 305.179688"/></g><g><path fill="#cd522f" d="M 175.09375 307.675781 L 166.609375 307.675781 L 166.609375 302.785156 L 175.09375 302.785156 L 175.09375 307.675781"/></g><g><path fill="#cd522f" d="M 178.089844 305.980469 L 173.046875 305.980469 L 173.046875 300.191406 L 178.089844 300.191406 L 178.089844 305.980469"/></g><g><path fill="#cd4a2f" d="M 200.5625 311.070312 L 190.765625 311.070312 L 190.765625 297.097656 L 200.5625 297.097656 L 200.5625 311.070312"/></g><g><path fill="#cd4a2f" d="M 203.855469 302.285156 L 194.058594 302.285156 L 194.058594 293.105469 L 203.855469 293.105469 L 203.855469 302.285156"/></g><g><path fill="#cd4a2f" d="M 207.746094 308.175781 L 197.949219 308.175781 L 197.949219 298.992188 L 207.746094 298.992188 L 207.746094 308.175781"/></g><g><path fill="#cd4a2f" d="M 208.347656 300.191406 L 198.550781 300.191406 L 198.550781 291.007812 L 208.347656 291.007812 L 208.347656 300.191406"/></g><g><path fill="#cd4a2f" d="M 205.460938 317.757812 L 195.660156 317.757812 L 195.660156 308.574219 L 205.460938 308.574219 L 205.460938 317.757812"/></g><g><path fill="#cd4a2f" d="M 209.25 312.765625 L 199.453125 312.765625 L 199.453125 303.585938 L 209.25 303.585938 L 209.25 312.765625"/></g><g><path fill="#cd522f" d="M 204.355469 305.179688 L 195.660156 305.179688 L 195.660156 297.097656 L 204.355469 297.097656 L 204.355469 305.179688"/></g><g><path fill="#cd522f" d="M 202.058594 307.675781 L 193.574219 307.675781 L 193.574219 302.785156 L 202.058594 302.785156 L 202.058594 307.675781"/></g><g><path fill="#cd522f" d="M 205.050781 305.980469 L 200.007812 305.980469 L 200.007812 300.191406 L 205.050781 300.191406 L 205.050781 305.980469"/></g><g><path fill="#52130f" d="M 216.4375 333.027344 L 28.984375 333.027344 L 28.984375 317.757812 L 216.4375 317.757812 L 216.4375 333.027344"/></g><g><path fill="#b9be51" d="M 216.4375 234.015625 L 28.984375 234.015625 L 28.984375 229.328125 L 216.4375 229.328125 L 216.4375 234.015625"/></g><g><path fill="#ad422b" d="M 396.214844 317.757812 L 208.765625 317.757812 L 208.765625 266.253906 L 396.214844 266.253906 L 396.214844 317.757812"/></g><g><path fill="#cd4a2f" d="M 244.421875 276.535156 L 221.855469 276.535156 L 221.855469 282.523438 L 223.054688 282.523438 L 223.054688 287.214844 L 227.253906 287.214844 L 227.253906 288.511719 L 228.242188 288.511719 L 228.242188 292.007812 L 230.039062 292.007812 L 230.039062 294.300781 L 236.628906 294.300781 L 236.628906 292.007812 L 240.121094 292.007812 L 240.121094 288.511719 L 241.617188 288.511719 L 241.617188 284.621094 L 243.515625 284.621094 L 243.515625 282.523438 L 244.421875 282.523438 L 244.421875 276.535156"/></g><g><path fill="#cd4a2f" d="M 271.882812 276.535156 L 249.316406 276.535156 L 249.316406 282.523438 L 250.515625 282.523438 L 250.515625 287.214844 L 254.714844 287.214844 L 254.714844 288.511719 L 255.703125 288.511719 L 255.703125 292.007812 L 257.503906 292.007812 L 257.503906 294.300781 L 264.089844 294.300781 L 264.089844 292.007812 L 267.582031 292.007812 L 267.582031 288.511719 L 269.078125 288.511719 L 269.078125 284.621094 L 270.976562 284.621094 L 270.976562 282.523438 L 271.882812 282.523438 L 271.882812 276.535156"/></g><g><path fill="#cd4a2f" d="M 299.347656 276.535156 L 276.777344 276.535156 L 276.777344 282.523438 L 277.976562 282.523438 L 277.976562 287.214844 L 282.179688 287.214844 L 282.179688 288.511719 L 283.167969 288.511719 L 283.167969 292.007812 L 284.964844 292.007812 L 284.964844 294.300781 L 291.550781 294.300781 L 291.550781 292.007812 L 295.046875 292.007812 L 295.046875 288.511719 L 296.542969 288.511719 L 296.542969 284.621094 L 298.4375 284.621094 L 298.4375 282.523438 L 299.347656 282.523438 L 299.347656 276.535156"/></g><g><path fill="#cd4a2f" d="M 326.808594 276.535156 L 304.238281 276.535156 L 304.238281 282.523438 L 305.4375 282.523438 L 305.4375 287.214844 L 309.640625 287.214844 L 309.640625 288.511719 L 310.628906 288.511719 L 310.628906 292.007812 L 312.425781 292.007812 L 312.425781 294.300781 L 319.011719 294.300781 L 319.011719 292.007812 L 322.507812 292.007812 L 322.507812 288.511719 L 324.003906 288.511719 L 324.003906 284.621094 L 325.898438 284.621094 L 325.898438 282.523438 L 326.808594 282.523438 L 326.808594 276.535156"/></g><g><path fill="#a33d28" d="M 334.941406 266.253906 L 334.941406 288.113281 L 329.148438 288.113281 L 329.148438 293.703125 L 322.964844 293.703125 L 322.964844 297.894531 L 291.023438 297.894531 L 291.023438 300.6875 L 281.441406 300.6875 L 281.441406 303.484375 L 267.269531 303.484375 L 267.269531 306.878906 L 256.488281 306.878906 L 256.488281 310.871094 L 239.921875 310.871094 L 239.921875 313.664062 L 222.152344 313.664062 L 222.152344 311.667969 L 221.15625 311.667969 L 221.15625 304.28125 L 219.757812 304.28125 L 219.757812 297.296875 L 216.5625 297.296875 L 216.5625 293.703125 L 213.371094 293.703125 L 213.371094 288.113281 L 208.765625 288.113281 L 208.765625 317.757812 L 396.214844 317.757812 L 396.214844 266.253906 L 334.941406 266.253906"/></g><g><path fill="#cd4a2f" d="M 354.269531 276.535156 L 331.703125 276.535156 L 331.703125 282.523438 L 332.902344 282.523438 L 332.902344 287.214844 L 337.101562 287.214844 L 337.101562 288.511719 L 338.09375 288.511719 L 338.09375 292.007812 L 339.886719 292.007812 L 339.886719 294.300781 L 346.476562 294.300781 L 346.476562 292.007812 L 349.96875 292.007812 L 349.96875 288.511719 L 351.46875 288.511719 L 351.46875 284.621094 L 353.363281 284.621094 L 353.363281 282.523438 L 354.269531 282.523438 L 354.269531 276.535156"/></g><g><path fill="#cd4a2f" d="M 381.730469 276.535156 L 359.164062 276.535156 L 359.164062 282.523438 L 360.363281 282.523438 L 360.363281 287.214844 L 364.5625 287.214844 L 364.5625 288.511719 L 365.554688 288.511719 L 365.554688 292.007812 L 367.351562 292.007812 L 367.351562 294.300781 L 373.9375 294.300781 L 373.9375 292.007812 L 377.433594 292.007812 L 377.433594 288.511719 L 378.929688 288.511719 L 378.929688 284.621094 L 380.824219 284.621094 L 380.824219 282.523438 L 381.730469 282.523438 L 381.730469 276.535156"/></g><g><path fill="#366f23" d="M 364.976562 236.035156 L 208.765625 236.035156 L 208.765625 277.421875 L 211.335938 277.421875 L 211.335938 280.988281 L 216.578125 280.988281 L 216.578125 283.773438 L 236.382812 283.773438 L 236.382812 280.988281 L 240.734375 280.988281 L 240.734375 277.421875 L 242.703125 277.421875 L 242.703125 280.988281 L 247.949219 280.988281 L 247.949219 283.773438 L 267.75 283.773438 L 267.75 280.988281 L 272.105469 280.988281 L 272.105469 277.421875 L 273.945312 277.421875 L 273.945312 280.988281 L 279.1875 280.988281 L 279.1875 283.773438 L 298.992188 283.773438 L 298.992188 280.988281 L 303.34375 280.988281 L 303.34375 277.421875 L 304.203125 277.421875 L 304.203125 280.988281 L 309.449219 280.988281 L 309.449219 283.773438 L 329.253906 283.773438 L 329.253906 280.988281 L 333.605469 280.988281 L 333.605469 277.421875 L 335.574219 277.421875 L 335.574219 280.988281 L 340.820312 280.988281 L 340.820312 283.773438 L 360.621094 283.773438 L 360.621094 280.988281 L 364.976562 280.988281 L 364.976562 277.421875 L 366.8125 277.421875 L 366.8125 280.988281 L 372.058594 280.988281 L 372.058594 283.773438 L 391.863281 283.773438 L 391.863281 280.988281 L 396.214844 280.988281 L 396.214844 236.035156 L 364.976562 236.035156"/></g><g><path fill="#4fa336" d="M 364.976562 229.328125 L 208.765625 229.328125 L 208.765625 275.425781 L 211.335938 275.425781 L 211.335938 270.714844 L 213.472656 270.714844 L 213.472656 272.214844 L 220.109375 272.214844 L 220.109375 274.78125 L 228.890625 274.78125 L 228.890625 273.710938 L 240.136719 273.710938 L 240.136719 275.425781 L 242.703125 275.425781 L 242.703125 270.714844 L 244.84375 270.714844 L 244.84375 272.214844 L 251.480469 272.214844 L 251.480469 274.78125 L 260.257812 274.78125 L 260.257812 273.710938 L 271.378906 273.710938 L 271.378906 275.425781 L 273.945312 275.425781 L 273.945312 270.714844 L 276.085938 270.714844 L 276.085938 272.214844 L 282.722656 272.214844 L 282.722656 274.78125 L 291.496094 274.78125 L 291.496094 273.710938 L 301.636719 273.710938 L 301.636719 275.425781 L 304.203125 275.425781 L 304.203125 270.714844 L 306.347656 270.714844 L 306.347656 272.214844 L 312.980469 272.214844 L 312.980469 274.78125 L 321.761719 274.78125 L 321.761719 273.710938 L 333.007812 273.710938 L 333.007812 275.425781 L 335.574219 275.425781 L 335.574219 270.714844 L 337.714844 270.714844 L 337.714844 272.214844 L 344.351562 272.214844 L 344.351562 274.78125 L 353.128906 274.78125 L 353.128906 273.710938 L 364.246094 273.710938 L 364.246094 275.425781 L 366.8125 275.425781 L 366.8125 270.714844 L 368.957031 270.714844 L 368.957031 272.214844 L 375.59375 272.214844 L 375.59375 274.78125 L 384.367188 274.78125 L 384.367188 273.710938 L 396.214844 273.710938 L 396.214844 229.328125 L 364.976562 229.328125"/></g><g><path fill="#6cab4e" d="M 364.976562 229.328125 L 208.765625 229.328125 L 208.765625 261.082031 L 214.4375 261.082031 L 214.4375 257.226562 L 218.824219 257.226562 L 218.824219 260.4375 L 223.105469 260.4375 L 223.105469 262.363281 L 240.734375 262.363281 L 240.734375 261.082031 L 245.808594 261.082031 L 245.808594 257.226562 L 250.195312 257.226562 L 250.195312 260.4375 L 254.476562 260.4375 L 254.476562 262.363281 L 272.105469 262.363281 L 272.105469 261.082031 L 277.050781 261.082031 L 277.050781 257.226562 L 281.4375 257.226562 L 281.4375 260.4375 L 285.71875 260.4375 L 285.71875 262.363281 L 303.34375 262.363281 L 303.34375 261.082031 L 307.308594 261.082031 L 307.308594 257.226562 L 311.695312 257.226562 L 311.695312 260.4375 L 315.980469 260.4375 L 315.980469 262.363281 L 333.605469 262.363281 L 333.605469 261.082031 L 338.679688 261.082031 L 338.679688 257.226562 L 343.066406 257.226562 L 343.066406 260.4375 L 347.347656 260.4375 L 347.347656 262.363281 L 364.976562 262.363281 L 364.976562 261.082031 L 369.921875 261.082031 L 369.921875 257.226562 L 374.308594 257.226562 L 374.308594 260.4375 L 378.589844 260.4375 L 378.589844 262.363281 L 396.214844 262.363281 L 396.214844 229.328125 L 364.976562 229.328125"/></g><g><path fill="#8eb346" d="M 380.230469 229.328125 L 208.765625 229.328125 L 208.765625 250.019531 L 224.75 250.019531 L 224.75 244.167969 L 231.027344 244.167969 L 231.027344 246.453125 L 233.605469 246.453125 L 233.605469 248.664062 L 240.136719 248.664062 L 240.136719 250.019531 L 256.117188 250.019531 L 256.117188 244.167969 L 262.398438 244.167969 L 262.398438 246.453125 L 264.976562 246.453125 L 264.976562 248.664062 L 271.378906 248.664062 L 271.378906 250.019531 L 287.359375 250.019531 L 287.359375 244.167969 L 293.640625 244.167969 L 293.640625 246.453125 L 296.21875 246.453125 L 296.21875 248.664062 L 301.636719 248.664062 L 301.636719 250.019531 L 317.621094 250.019531 L 317.621094 244.167969 L 323.898438 244.167969 L 323.898438 246.453125 L 326.480469 246.453125 L 326.480469 248.664062 L 333.007812 248.664062 L 333.007812 250.019531 L 348.988281 250.019531 L 348.988281 244.167969 L 355.269531 244.167969 L 355.269531 246.453125 L 357.847656 246.453125 L 357.847656 248.664062 L 364.246094 248.664062 L 364.246094 250.019531 L 380.230469 250.019531 L 380.230469 244.167969 L 386.511719 244.167969 L 386.511719 246.453125 L 389.089844 246.453125 L 389.089844 248.664062 L 396.214844 248.664062 L 396.214844 229.328125 L 380.230469 229.328125"/></g><g><path fill="#cd4a2f" d="M 218.5625 311.070312 L 208.765625 311.070312 L 208.765625 297.097656 L 218.5625 297.097656 L 218.5625 311.070312"/></g><g><path fill="#cd4a2f" d="M 221.855469 302.285156 L 212.058594 302.285156 L 212.058594 293.105469 L 221.855469 293.105469 L 221.855469 302.285156"/></g><g><path fill="#cd4a2f" d="M 225.746094 308.175781 L 215.949219 308.175781 L 215.949219 298.992188 L 225.746094 298.992188 L 225.746094 308.175781"/></g><g><path fill="#cd4a2f" d="M 226.347656 300.191406 L 216.550781 300.191406 L 216.550781 291.007812 L 226.347656 291.007812 L 226.347656 300.191406"/></g><g><path fill="#cd4a2f" d="M 223.460938 317.757812 L 213.664062 317.757812 L 213.664062 308.574219 L 223.460938 308.574219 L 223.460938 317.757812"/></g><g><path fill="#cd4a2f" d="M 227.253906 312.765625 L 217.457031 312.765625 L 217.457031 303.585938 L 227.253906 303.585938 L 227.253906 312.765625"/></g><g><path fill="#cd522f" d="M 222.355469 305.179688 L 213.664062 305.179688 L 213.664062 297.097656 L 222.355469 297.097656 L 222.355469 305.179688"/></g><g><path fill="#cd522f" d="M 220.058594 307.675781 L 211.574219 307.675781 L 211.574219 302.785156 L 220.058594 302.785156 L 220.058594 307.675781"/></g><g><path fill="#cd522f" d="M 223.054688 305.980469 L 218.011719 305.980469 L 218.011719 300.191406 L 223.054688 300.191406 L 223.054688 305.980469"/></g><g><path fill="#cd4a2f" d="M 245.523438 311.070312 L 235.730469 311.070312 L 235.730469 297.097656 L 245.523438 297.097656 L 245.523438 311.070312"/></g><g><path fill="#cd4a2f" d="M 248.816406 302.285156 L 239.019531 302.285156 L 239.019531 293.105469 L 248.816406 293.105469 L 248.816406 302.285156"/></g><g><path fill="#cd4a2f" d="M 252.710938 308.175781 L 242.914062 308.175781 L 242.914062 298.992188 L 252.710938 298.992188 L 252.710938 308.175781"/></g><g><path fill="#cd4a2f" d="M 253.308594 300.191406 L 243.515625 300.191406 L 243.515625 291.007812 L 253.308594 291.007812 L 253.308594 300.191406"/></g><g><path fill="#cd4a2f" d="M 250.425781 317.757812 L 240.628906 317.757812 L 240.628906 308.574219 L 250.425781 308.574219 L 250.425781 317.757812"/></g><g><path fill="#cd4a2f" d="M 254.21875 312.765625 L 244.421875 312.765625 L 244.421875 303.585938 L 254.21875 303.585938 L 254.21875 312.765625"/></g><g><path fill="#cd522f" d="M 249.316406 305.179688 L 240.628906 305.179688 L 240.628906 297.097656 L 249.316406 297.097656 L 249.316406 305.179688"/></g><g><path fill="#cd522f" d="M 247.019531 307.675781 L 238.539062 307.675781 L 238.539062 302.785156 L 247.019531 302.785156 L 247.019531 307.675781"/></g><g><path fill="#cd522f" d="M 250.015625 305.980469 L 244.972656 305.980469 L 244.972656 300.191406 L 250.015625 300.191406 L 250.015625 305.980469"/></g><g><path fill="#cd4a2f" d="M 272.488281 311.070312 L 262.691406 311.070312 L 262.691406 297.097656 L 272.488281 297.097656 L 272.488281 311.070312"/></g><g><path fill="#cd4a2f" d="M 275.78125 302.285156 L 265.984375 302.285156 L 265.984375 293.105469 L 275.78125 293.105469 L 275.78125 302.285156"/></g><g><path fill="#cd4a2f" d="M 279.675781 308.175781 L 269.878906 308.175781 L 269.878906 298.992188 L 279.675781 298.992188 L 279.675781 308.175781"/></g><g><path fill="#cd4a2f" d="M 280.273438 300.191406 L 270.480469 300.191406 L 270.480469 291.007812 L 280.273438 291.007812 L 280.273438 300.191406"/></g><g><path fill="#cd4a2f" d="M 277.386719 317.757812 L 267.589844 317.757812 L 267.589844 308.574219 L 277.386719 308.574219 L 277.386719 317.757812"/></g><g><path fill="#cd4a2f" d="M 281.179688 312.765625 L 271.382812 312.765625 L 271.382812 303.585938 L 281.179688 303.585938 L 281.179688 312.765625"/></g><g><path fill="#cd522f" d="M 276.277344 305.179688 L 267.589844 305.179688 L 267.589844 297.097656 L 276.277344 297.097656 L 276.277344 305.179688"/></g><g><path fill="#cd522f" d="M 273.984375 307.675781 L 265.503906 307.675781 L 265.503906 302.785156 L 273.984375 302.785156 L 273.984375 307.675781"/></g><g><path fill="#cd522f" d="M 276.980469 305.980469 L 271.933594 305.980469 L 271.933594 300.191406 L 276.980469 300.191406 L 276.980469 305.980469"/></g><g><path fill="#cd4a2f" d="M 299.449219 311.070312 L 289.652344 311.070312 L 289.652344 297.097656 L 299.449219 297.097656 L 299.449219 311.070312"/></g><g><path fill="#cd4a2f" d="M 302.742188 302.285156 L 292.949219 302.285156 L 292.949219 293.105469 L 302.742188 293.105469 L 302.742188 302.285156"/></g><g><path fill="#cd4a2f" d="M 306.640625 308.175781 L 296.84375 308.175781 L 296.84375 298.992188 L 306.640625 298.992188 L 306.640625 308.175781"/></g><g><path fill="#cd4a2f" d="M 307.234375 300.191406 L 297.441406 300.191406 L 297.441406 291.007812 L 307.234375 291.007812 L 307.234375 300.191406"/></g><g><path fill="#cd4a2f" d="M 304.351562 317.757812 L 294.554688 317.757812 L 294.554688 308.574219 L 304.351562 308.574219 L 304.351562 317.757812"/></g><g><path fill="#cd4a2f" d="M 308.144531 312.765625 L 298.347656 312.765625 L 298.347656 303.585938 L 308.144531 303.585938 L 308.144531 312.765625"/></g><g><path fill="#cd522f" d="M 303.242188 305.179688 L 294.554688 305.179688 L 294.554688 297.097656 L 303.242188 297.097656 L 303.242188 305.179688"/></g><g><path fill="#cd522f" d="M 300.949219 307.675781 L 292.464844 307.675781 L 292.464844 302.785156 L 300.949219 302.785156 L 300.949219 307.675781"/></g><g><path fill="#cd522f" d="M 303.941406 305.980469 L 298.898438 305.980469 L 298.898438 300.191406 L 303.941406 300.191406 L 303.941406 305.980469"/></g><g><path fill="#cd4a2f" d="M 326.414062 311.070312 L 316.617188 311.070312 L 316.617188 297.097656 L 326.414062 297.097656 L 326.414062 311.070312"/></g><g><path fill="#cd4a2f" d="M 329.710938 302.285156 L 319.914062 302.285156 L 319.914062 293.105469 L 329.710938 293.105469 L 329.710938 302.285156"/></g><g><path fill="#cd4a2f" d="M 333.601562 308.175781 L 323.804688 308.175781 L 323.804688 298.992188 L 333.601562 298.992188 L 333.601562 308.175781"/></g><g><path fill="#cd4a2f" d="M 334.199219 300.191406 L 324.402344 300.191406 L 324.402344 291.007812 L 334.199219 291.007812 L 334.199219 300.191406"/></g><g><path fill="#cd4a2f" d="M 331.3125 317.757812 L 321.519531 317.757812 L 321.519531 308.574219 L 331.3125 308.574219 L 331.3125 317.757812"/></g><g><path fill="#cd4a2f" d="M 335.105469 312.765625 L 325.3125 312.765625 L 325.3125 303.585938 L 335.105469 303.585938 L 335.105469 312.765625"/></g><g><path fill="#cd522f" d="M 330.207031 305.179688 L 321.519531 305.179688 L 321.519531 297.097656 L 330.207031 297.097656 L 330.207031 305.179688"/></g><g><path fill="#cd522f" d="M 327.910156 307.675781 L 319.429688 307.675781 L 319.429688 302.785156 L 327.910156 302.785156 L 327.910156 307.675781"/></g><g><path fill="#cd522f" d="M 330.90625 305.980469 L 325.859375 305.980469 L 325.859375 300.191406 L 330.90625 300.191406 L 330.90625 305.980469"/></g><g><path fill="#cd4a2f" d="M 353.378906 311.070312 L 343.582031 311.070312 L 343.582031 297.097656 L 353.378906 297.097656 L 353.378906 311.070312"/></g><g><path fill="#cd4a2f" d="M 356.671875 302.285156 L 346.878906 302.285156 L 346.878906 293.105469 L 356.671875 293.105469 L 356.671875 302.285156"/></g><g><path fill="#cd4a2f" d="M 360.5625 308.175781 L 350.769531 308.175781 L 350.769531 298.992188 L 360.5625 298.992188 L 360.5625 308.175781"/></g><g><path fill="#cd4a2f" d="M 361.164062 300.191406 L 351.367188 300.191406 L 351.367188 291.007812 L 361.164062 291.007812 L 361.164062 300.191406"/></g><g><path fill="#cd4a2f" d="M 358.273438 317.757812 L 348.480469 317.757812 L 348.480469 308.574219 L 358.273438 308.574219 L 358.273438 317.757812"/></g><g><path fill="#cd4a2f" d="M 362.066406 312.765625 L 352.269531 312.765625 L 352.269531 303.585938 L 362.066406 303.585938 L 362.066406 312.765625"/></g><g><path fill="#cd522f" d="M 357.171875 305.179688 L 348.480469 305.179688 L 348.480469 297.097656 L 357.171875 297.097656 L 357.171875 305.179688"/></g><g><path fill="#cd522f" d="M 354.875 307.675781 L 346.394531 307.675781 L 346.394531 302.785156 L 354.875 302.785156 L 354.875 307.675781"/></g><g><path fill="#cd522f" d="M 357.867188 305.980469 L 352.824219 305.980469 L 352.824219 300.191406 L 357.867188 300.191406 L 357.867188 305.980469"/></g><g><path fill="#cd4a2f" d="M 380.34375 311.070312 L 370.546875 311.070312 L 370.546875 297.097656 L 380.34375 297.097656 L 380.34375 311.070312"/></g><g><path fill="#cd4a2f" d="M 383.636719 302.285156 L 373.839844 302.285156 L 373.839844 293.105469 L 383.636719 293.105469 L 383.636719 302.285156"/></g><g><path fill="#cd4a2f" d="M 387.527344 308.175781 L 377.730469 308.175781 L 377.730469 298.992188 L 387.527344 298.992188 L 387.527344 308.175781"/></g><g><path fill="#cd4a2f" d="M 388.128906 300.191406 L 378.328125 300.191406 L 378.328125 291.007812 L 388.128906 291.007812 L 388.128906 300.191406"/></g><g><path fill="#cd4a2f" d="M 385.238281 317.757812 L 375.441406 317.757812 L 375.441406 308.574219 L 385.238281 308.574219 L 385.238281 317.757812"/></g><g><path fill="#cd4a2f" d="M 389.03125 312.765625 L 379.234375 312.765625 L 379.234375 303.585938 L 389.03125 303.585938 L 389.03125 312.765625"/></g><g><path fill="#cd522f" d="M 384.136719 305.179688 L 375.441406 305.179688 L 375.441406 297.097656 L 384.136719 297.097656 L 384.136719 305.179688"/></g><g><path fill="#cd522f" d="M 381.839844 307.675781 L 373.355469 307.675781 L 373.355469 302.785156 L 381.839844 302.785156 L 381.839844 307.675781"/></g><g><path fill="#cd522f" d="M 384.832031 305.980469 L 379.789062 305.980469 L 379.789062 300.191406 L 384.832031 300.191406 L 384.832031 305.980469"/></g><g><path fill="#52130f" d="M 396.214844 333.027344 L 208.765625 333.027344 L 208.765625 317.757812 L 396.214844 317.757812 L 396.214844 333.027344"/></g><g><path fill="#b9be51" d="M 396.214844 234.015625 L 208.765625 234.015625 L 208.765625 229.328125 L 396.214844 229.328125 L 396.214844 234.015625"/></g><g><path fill="#ad422b" d="M 188.113281 229.222656 L 176.464844 229.222656 L 176.464844 183.835938 L 188.113281 183.835938 L 188.113281 229.222656"/></g><g><path fill="#7f2f1e" d="M 184.453125 183.835938 L 184.453125 225.5625 L 179.441406 225.5625 L 179.441406 229.222656 L 188.113281 229.222656 L 188.113281 183.835938 L 184.453125 183.835938"/></g><g><path fill="#d1462b" d="M 177.140625 217.570312 L 179.441406 217.570312 L 179.441406 185.460938 L 177.140625 185.460938 L 177.140625 217.570312"/></g><g><path fill="#5cc245" d="M 204.886719 180.253906 L 204.886719 174.0625 L 199.820312 174.0625 L 199.820312 170.097656 L 197.929688 170.097656 L 197.929688 157.40625 L 196.648438 157.40625 L 196.648438 152.730469 L 195.425781 152.730469 L 195.425781 148.5 L 193.589844 148.5 L 193.589844 146.71875 L 192.140625 146.71875 L 192.140625 145.160156 L 190.304688 145.160156 L 190.304688 144.160156 L 188.742188 144.160156 L 188.742188 143.492188 L 187.074219 143.492188 L 187.074219 142.597656 L 177.5 142.597656 L 177.5 143.492188 L 175.828125 143.492188 L 175.828125 144.160156 L 174.273438 144.160156 L 174.273438 145.160156 L 172.4375 145.160156 L 172.4375 146.71875 L 170.988281 146.71875 L 170.988281 148.5 L 169.152344 148.5 L 169.152344 152.730469 L 167.929688 152.730469 L 167.929688 157.40625 L 166.644531 157.40625 L 166.644531 170.097656 L 164.753906 170.097656 L 164.753906 174.0625 L 159.6875 174.0625 L 159.6875 180.253906 L 156.851562 180.253906 L 156.851562 190.980469 L 207.726562 190.980469 L 207.726562 180.253906 L 204.886719 180.253906"/></g><g><path fill="#3f9e4b" d="M 204.886719 180.253906 L 204.886719 174.0625 L 199.820312 174.0625 L 199.820312 170.097656 L 197.929688 170.097656 L 197.929688 157.40625 L 196.648438 157.40625 L 196.648438 152.730469 L 195.425781 152.730469 L 195.425781 148.5 L 194.296875 148.5 L 194.296875 151.796875 L 192.265625 151.796875 L 192.265625 159.652344 L 190.367188 159.652344 L 190.367188 165.480469 L 187.65625 165.480469 L 187.65625 173.199219 L 185.625 173.199219 L 185.625 177.398438 L 185.082031 177.398438 L 185.082031 182.953125 L 184.8125 182.953125 L 184.8125 184.714844 L 183.320312 184.714844 L 183.320312 186.476562 L 178.851562 186.476562 L 178.851562 184.714844 L 176.410156 184.714844 L 176.410156 182.953125 L 173.703125 182.953125 L 173.703125 177.398438 L 172.347656 177.398438 L 172.347656 165.480469 L 169.097656 165.480469 L 169.097656 164.664062 L 168.417969 164.664062 L 168.417969 161.144531 L 167.605469 161.144531 L 167.605469 157.40625 L 166.644531 157.40625 L 166.644531 170.097656 L 164.753906 170.097656 L 164.753906 174.0625 L 159.6875 174.0625 L 159.6875 180.253906 L 156.851562 180.253906 L 156.851562 190.980469 L 207.726562 190.980469 L 207.726562 180.253906 L 204.886719 180.253906"/></g><g><path fill="#368740" d="M 204.886719 180.253906 L 204.886719 174.0625 L 199.820312 174.0625 L 199.820312 170.097656 L 197.929688 170.097656 L 197.929688 159.101562 L 194.203125 159.101562 L 194.203125 181.046875 L 189.121094 181.046875 L 189.121094 184.90625 L 187.292969 184.90625 L 187.292969 190.980469 L 207.726562 190.980469 L 207.726562 180.253906 L 204.886719 180.253906"/></g><g><path fill="#368740" d="M 161.6875 185.109375 L 161.6875 182.265625 L 158.234375 182.265625 L 158.234375 180.253906 L 156.851562 180.253906 L 156.851562 190.980469 L 165.753906 190.980469 L 165.753906 185.109375 L 161.6875 185.109375"/></g><g><path fill="#82ce3a" d="M 188.113281 148.5 L 182.285156 148.5 L 182.285156 147.730469 L 180.746094 147.730469 L 180.746094 145.699219 L 178.289062 145.699219 L 178.289062 147.101562 L 174.921875 147.101562 L 174.921875 147.730469 L 173.433594 147.730469 L 173.433594 149.761719 L 179.441406 149.761719 L 179.441406 150.980469 L 177.140625 150.980469 L 177.140625 153.148438 L 182.285156 153.148438 L 182.285156 151.796875 L 183.777344 151.796875 L 183.777344 150.351562 L 186.394531 150.351562 L 186.394531 149.761719 L 188.113281 149.761719 L 188.113281 148.5"/></g></g></svg>