<svg viewBox="0 0 96 96" xmlns="http://www.w3.org/2000/svg" xmlns:xlink="http://www.w3.org/1999/xlink" id="Icons_Meditation" overflow="hidden"><path d="M59.793 57.255C59.9627 58.2647 60.5132 59.171 61.331 59.787L74.044 69.363C75.7996 70.704 78.3098 70.368 79.6508 68.6124 80.9918 66.8568 80.6558 64.3466 78.9002 63.0056 78.8859 62.9946 78.8715 62.9838 78.857 62.973L67.418 54.356 64.9 39.338C64.7507 38.4652 64.3134 37.6675 63.658 37.072 63.4774 36.7541 63.2562 36.4609 63 36.2 60.5194 34.1909 57.6641 32.6952 54.6 31.8 52.4283 31.3368 50.2195 31.069 48 31 45.7653 31.0386 43.5458 31.3749 41.4 32 38.3033 32.8125 35.4312 34.3169 33 36.4 32.909 36.4956 32.8229 36.5957 32.742 36.7 31.8448 37.3114 31.2359 38.2623 31.056 39.333L28.533 54.356 17.094 62.973C15.3205 64.2901 14.9505 66.7956 16.2676 68.5692 17.5847 70.3427 20.0902 70.7127 21.8638 69.3956 21.8782 69.3848 21.8927 69.374 21.907 69.363L34.62 59.787C35.4378 59.171 35.9883 58.2647 36.158 57.255L37.9 46.869 38 47 38 72.47C44.6351 73.3871 51.3649 73.3871 58 72.47L58 46.8 58.03 46.759Z" fill="#096D3D"/><path d="M52.677 75.841 52.638 75.841C52.457 75.861 51.777 75.9 51.628 75.911 50.34 76.011 49.905 76.005 48 76.011 38.7183 76.0265 29.4707 74.8878 20.47 72.621 18.318 72.122 16.1689 73.4621 15.6699 75.6141 15.183 77.7142 16.4479 79.8224 18.53 80.381 28.1678 82.7923 38.0651 84.0114 48 84.011 51.2 84.011 56.737 84.626 56.737 79.961 56.7369 79.6241 56.697 79.2885 56.618 78.961 56.1641 77.1475 54.5463 75.8667 52.677 75.841Z" fill="#096D3D"/><path d="M80.38 75.531C79.844 73.3883 77.6728 72.0856 75.53 72.621 69.8032 73.9294 64.0129 74.9424 58.182 75.656 58.9039 76.4907 59.418 77.4845 59.682 78.556 59.8218 79.122 59.8923 79.703 59.892 80.286 59.8954 81.4444 59.6101 82.5855 59.062 83.606 65.2505 82.8556 71.395 81.7791 77.47 80.381 79.6126 79.845 80.9154 77.6738 80.38 75.531Z" fill="#096D3D"/><circle cx="48.021" cy="21" r="8" fill="#096D3D"/></svg>