<svg viewBox="0 0 1639.85 1809.05" xmlns="http://www.w3.org/2000/svg" xmlns:xlink="http://www.w3.org/1999/xlink" id="Animal" overflow="hidden"><defs></defs><path d="M205.72 403.46 1434.94 403.46 1483.83 953.54 1561.61 946.63 1506.38 325.38 1178.58 325.38 1126.53 0 513.31 0 461.25 325.37 132.66 325.37 91.19 947.49 169.1 952.67 205.72 403.46ZM579.92 78.09 1059.94 78.09 1099.5 325.37 540.35 325.37 579.91 78.09Z" stroke-width="0" fill="#07512E"/><path d="M1447.15 1730.96 217.93 1730.96 169.04 1180.88 91.25 1187.8 146.48 1809.05 1520.2 1809.05 1561.68 1186.93 1483.77 1181.75 1447.15 1730.96Z" stroke-width="0" fill="#07512E"/><rect x="312.35" y="546.62" width="78.09" height="286.32" stroke-width="0" fill="#07512E"/><rect x="546.62" y="546.62" width="78.09" height="286.32" stroke-width="0" fill="#07512E"/><rect x="780.88" y="546.62" width="78.09" height="286.32" stroke-width="0" fill="#07512E"/><rect x="1015.15" y="546.62" width="78.09" height="286.32" stroke-width="0" fill="#07512E"/><rect x="1249.41" y="546.62" width="78.09" height="286.32" stroke-width="0" fill="#07512E"/><rect x="312.35" y="1301.47" width="78.09" height="286.32" stroke-width="0" fill="#07512E"/><rect x="546.62" y="1301.47" width="78.09" height="286.32" stroke-width="0" fill="#07512E"/><rect x="780.88" y="1301.47" width="78.09" height="286.32" stroke-width="0" fill="#07512E"/><rect x="1015.15" y="1301.47" width="78.09" height="286.32" stroke-width="0" fill="#07512E"/><rect x="1249.41" y="1301.47" width="78.09" height="286.32" stroke-width="0" fill="#07512E"/><path d="M639.14 149.67 634.49 275.12 712.53 278.01 714.39 227.76 925.47 227.76 927.32 278.01 1005.36 275.12 1000.71 149.67 639.14 149.67Z" stroke-width="0" fill="#07512E"/><rect x="0" y="1028.16" width="1639.85" height="78.09" stroke-width="0" fill="#07512E"/></svg>