<svg viewBox="0 0 96 96" xmlns="http://www.w3.org/2000/svg" xmlns:xlink="http://www.w3.org/1999/xlink" id="Icons_ForSale" overflow="hidden"><path d="M48 12 47.998 12 6 51.953 10.54 55.833 47.998 20.25 48 20.25 85.458 55.833 89.998 51.953 48 12Z" fill="#07512E"/><path d="M48 25.766 18 54.266 18 84 55.5 84 55.5 69.9 48 69.9C46.8954 69.9 46 69.0046 46 67.9L46 56.5C46 55.3954 46.8954 54.5 48 54.5L55.5 54.5 55.5 53C55.5 52.1716 56.1716 51.5 57 51.5 57.8284 51.5 58.5 52.1716 58.5 53L58.5 54.5 66 54.5C67.1046 54.5 68 55.3954 68 56.5L68 67.9C68 69.0046 67.1046 69.9 66 69.9L58.5 69.9 58.5 84 78 84 78 54.264Z" fill="#07512E"/></svg>