<svg viewBox="0 0 96 96" xmlns="http://www.w3.org/2000/svg" xmlns:xlink="http://www.w3.org/1999/xlink" id="Icons_LeakyTap" overflow="hidden"><path d="M55.006 31 50.206 31 48.006 28.25 48.006 20 58.006 20 58.006 14 50.206 14 47.006 10 39.006 10 35.806 14 28.006 14 28.006 20 38.006 20 38.006 28.25 35.806 31 16.006 31 16.006 47 55.006 47C59.9743 47.0055 64.0005 51.0317 64.006 56L64.006 58 80.006 58 80.006 56C79.9906 42.1993 68.8067 31.0154 55.006 31Z" fill="#07512E"/><path d="M65.356 79.084C65.3104 82.8514 68.3275 85.9425 72.0949 85.9881 75.8623 86.0337 78.9534 83.0166 78.999 79.2492 78.9997 79.1941 78.9997 79.1391 78.999 79.084 79 74.693 72.178 65 72.178 65 72.178 65 65.356 74.721 65.356 79.084Z" fill="#07512E"/></svg>