<svg viewBox="0 0 96 96" xmlns="http://www.w3.org/2000/svg" xmlns:xlink="http://www.w3.org/1999/xlink" id="Icons_DogHouse" overflow="hidden"><g id="Icons"><path d="M48.002 19.202 78.245 47.553 82.745 43.752 48.002 11 12.908 44.104 17.408 47.905 48.002 19.202Z" fill="#07512E"/><path d="M71 81 71 46.657 48 24.8 25 46.661 25 81 11 81 11 85 85 85 85 81ZM39.878 47.125C39.7888 47.0567 39.7046 46.9822 39.626 46.902 39.228 46.4949 39.0051 45.9483 39.005 45.379 39.0028 44.811 39.2261 44.2654 39.626 43.862 40.0192 43.4618 40.5569 43.2365 41.118 43.237L41.124 43.237C41.6862 43.236 42.2247 43.4634 42.616 43.867 43.0142 44.2714 43.2354 44.8175 43.231 45.385 43.231 45.44 43.226 45.496 43.226 45.558L43.204 45.858 52.804 45.858 52.782 45.558C52.777 45.5005 52.775 45.4427 52.776 45.385 52.7744 44.818 52.9952 44.273 53.391 43.867 53.7828 43.4634 54.3215 43.2361 54.884 43.237L54.889 43.237C56.0619 43.2491 57.005 44.206 57 45.379 56.9999 45.9481 56.7774 46.4946 56.38 46.902 56.303 46.98 56.215 47.052 56.127 47.125L55.827 47.348 56.127 47.571C56.2167 47.639 56.3013 47.7135 56.38 47.794 56.7794 48.1956 57.0025 48.7396 57 49.306 56.9919 49.8729 56.7681 50.4154 56.374 50.823 55.9846 51.2264 55.4477 51.4539 54.887 51.453L54.882 51.453C54.3226 51.4525 53.7868 51.2273 53.395 50.828 52.9939 50.4234 52.7705 49.8757 52.774 49.306 52.773 49.2499 52.775 49.1939 52.78 49.138L52.813 48.832 43.176 48.832 43.209 49.138C43.2139 49.1919 43.2159 49.2459 43.215 49.3 43.2151 49.8708 42.9923 50.4191 42.594 50.828 42.2022 51.2273 41.6664 51.4525 41.107 51.453L41.1 51.453C40.5397 51.4521 40.0035 51.2249 39.613 50.823 38.7889 49.9778 38.7938 48.6282 39.624 47.789 39.7012 47.7088 39.7856 47.6359 39.876 47.571L40.176 47.348ZM41 66.7C41 62.9997 43.9997 60 47.7 60L48.3 60C52.0003 60 55 62.9997 55 66.7L55 81 41 81Z" fill="#07512E"/></g></svg>