<?xml version="1.0" encoding="UTF-8"?><svg xmlns="http://www.w3.org/2000/svg" xmlns:xlink="http://www.w3.org/1999/xlink" contentScriptType="text/ecmascript" fill="#ffffff" width="16.8" zoomAndPan="magnify" contentStyleType="text/css" viewBox="7.6 1.0 16.8 30.0" height="30" preserveAspectRatio="xMidYMid meet" version="1"><g id="change1_1"><path fill="inherit" d="M15.83008,6.86328h1.70996c0.55225,0,1-0.44727,1-1s-0.44775-1-1-1H17c0-0.55273-0.44775-1-1-1s-1,0.44727-1,1v0.1579 c-0.89716,0.33771-1.54004,1.19757-1.54004,2.21124v0.18066c0,1.30664,1.06299,2.37012,2.37012,2.37012h0.33984 c0.20752,0,0.37012,0.16211,0.37012,0.37012c0,0.20313-0.16602,0.36914-0.37012,0.36914h-1.70996c-0.55225,0-1,0.44727-1,1 s0.44775,1,1,1H15c0,0.55273,0.44775,1,1,1s1-0.44727,1-1V12.3645c0.89716-0.33771,1.54004-1.19751,1.54004-2.21118 c0-1.30664-1.06299-2.37012-2.37012-2.37012h-0.33984c-0.2041,0-0.37012-0.16602-0.37012-0.37012V7.23242 C15.45996,7.0293,15.62598,6.86328,15.83008,6.86328z"/><path fill="inherit" d="M20,23.4209h3.39307c0.55225,0,1-0.44727,1-1v-0.26758c0-2.75684-2.24316-5-5-5H17v-0.84021 c3.76984-0.49274,6.69287-3.71826,6.69287-7.62073C23.69287,4.45117,20.2417,1,16,1S8.30713,4.45117,8.30713,8.69238 c0,3.90247,2.92303,7.12799,6.69287,7.62073v2.32947h-2.39307c-2.75684,0-5,2.24316-5,5v0.26855c0,0.55273,0.44775,1,1,1H12 c1.12994,0,2.16174-0.39099,3-1.02557v1.50702h-1.09375c-2.33643,0-4.23682,1.90039-4.23682,4.2373V30c0,0.55273,0.44775,1,1,1 h10.66113c0.55225,0,1-0.44727,1-1v-0.37012c0-2.33691-1.90039-4.2373-4.23682-4.2373H17v-2.99725 C17.83826,23.02991,18.87006,23.4209,20,23.4209z M19.39307,19.15332c1.40186,0,2.58203,0.96582,2.90967,2.26758H20 c-1.40186,0-2.58203-0.96582-2.90967-2.26758H19.39307z M12,22.91113H9.69727c0.32715-1.30176,1.50781-2.26855,2.90967-2.26855 h2.30273C14.58252,21.94434,13.40186,22.91113,12,22.91113z M18.09375,27.39258c1.01465,0,1.87402,0.67969,2.14648,1.60742 h-8.48047c0.27246-0.92773,1.13184-1.60742,2.14648-1.60742H18.09375z M16,14.38574c-3.13916,0-5.69287-2.55371-5.69287-5.69336 C10.30713,5.55371,12.86084,3,16,3s5.69287,2.55371,5.69287,5.69238C21.69287,11.83203,19.13916,14.38574,16,14.38574z"/></g></svg>