<?xml version="1.0" encoding="UTF-8"?><svg xmlns="http://www.w3.org/2000/svg" xmlns:xlink="http://www.w3.org/1999/xlink" contentScriptType="text/ecmascript" fill="#000000" width="212.1" zoomAndPan="magnify" contentStyleType="text/css" viewBox="104.4 80.8 212.1 267.7" height="267.7" preserveAspectRatio="xMidYMid meet" version="1"><g id="change1_1"><path fill="#243484" d="M 164.015625 100.019531 L 164.015625 249.515625 C 154.34375 246.453125 141.945312 247.964844 130.703125 254.519531 C 112.644531 265.050781 104.421875 284.589844 112.339844 298.164062 C 120.253906 311.738281 141.308594 314.210938 159.371094 303.679688 C 173.3125 295.554688 181.355469 282.050781 180.667969 270.070312 L 180.75 270.070312 L 180.75 133.9375 L 299.140625 163.285156 L 299.140625 283.746094 C 289.46875 280.6875 277.070312 282.199219 265.832031 288.75 C 247.769531 299.277344 239.546875 318.820312 247.464844 332.394531 C 255.378906 345.96875 276.433594 348.441406 294.492188 337.914062 C 308.4375 329.78125 316.480469 316.285156 315.796875 304.304688 L 315.878906 304.304688 L 315.878906 118.40625 L 164.015625 80.757812 L 164.015625 100.019531"/></g></svg>