<?xml version="1.0" encoding="UTF-8"?><svg xmlns="http://www.w3.org/2000/svg" xmlns:xlink="http://www.w3.org/1999/xlink" contentScriptType="text/ecmascript" fill="#ffffff" width="30" zoomAndPan="magnify" contentStyleType="text/css" viewBox="1.0 3.0 30.0 25.8" height="25.8" preserveAspectRatio="xMidYMid meet" version="1"><g id="change1_1"><path fill="inherit" d="M28,9.13898h-7.67255l2.85126-4.45215c0.29785-0.46484,0.16309-1.08301-0.30273-1.38086 c-0.46484-0.29883-1.08398-0.16309-1.38086,0.30273l-3.54199,5.53027h-3.90625L10.50488,3.6087 c-0.29785-0.4668-0.91699-0.60156-1.38086-0.30273C8.6582,3.60382,8.52344,4.22198,8.82129,4.68683l2.85126,4.45215H4 c-1.6543,0-3,1.3457-3,3v13.71387c0,1.6543,1.3457,3,3,3h24c1.6543,0,3-1.3457,3-3V12.13898 C31,10.48468,29.6543,9.13898,28,9.13898z M29,25.85284c0,0.55176-0.44824,1-1,1H4c-0.55176,0-1-0.44824-1-1V14.99542h26V25.85284z M29,12.99542H3v-0.85645c0-0.55176,0.44824-1,1-1h24c0.55176,0,1,0.44824,1,1V12.99542z"/><path fill="inherit" d="M9.66309,25.67413c2.61914,0,4.75-2.13086,4.75-4.75s-2.13086-4.75-4.75-4.75s-4.75,2.13086-4.75,4.75 S7.04395,25.67413,9.66309,25.67413z M9.66309,18.17413c1.5166,0,2.75,1.2334,2.75,2.75s-1.2334,2.75-2.75,2.75 s-2.75-1.2334-2.75-2.75S8.14648,18.17413,9.66309,18.17413z"/><path fill="inherit" d="M19.4668,18.17413h6.62012c0.55273,0,1-0.44727,1-1s-0.44727-1-1-1H19.4668c-0.55273,0-1,0.44727-1,1 S18.91406,18.17413,19.4668,18.17413z"/><path fill="inherit" d="M19.4668,21.92413h6.62012c0.55273,0,1-0.44727,1-1s-0.44727-1-1-1H19.4668c-0.55273,0-1,0.44727-1,1 S18.91406,21.92413,19.4668,21.92413z"/><path fill="inherit" d="M19.4668,25.67413h6.62012c0.55273,0,1-0.44727,1-1s-0.44727-1-1-1H19.4668c-0.55273,0-1,0.44727-1,1 S18.91406,25.67413,19.4668,25.67413z"/></g></svg>