<?xml version="1.0" encoding="UTF-8"?><svg xmlns="http://www.w3.org/2000/svg" xmlns:xlink="http://www.w3.org/1999/xlink" contentScriptType="text/ecmascript" fill="#000000" width="500" zoomAndPan="magnify" contentStyleType="text/css" viewBox="0.0 -0.0 500.0 461.7" height="461.7" preserveAspectRatio="xMidYMid meet" version="1"><defs><clipPath id="a"><path d="M 0 48 L 500 48 L 500 461.648438 L 0 461.648438 Z M 0 48"/></clipPath><clipPath id="b"><path d="M 1 28 L 441 28 L 441 461.648438 L 1 461.648438 Z M 1 28"/></clipPath></defs><g><g id="change1_1" clip-path="url(#a)"><path fill="#ffffff" d="M 16.835938 134.171875 C 16.835938 134.171875 30.175781 141.691406 34.289062 142.117188 C 38.40625 142.546875 45.214844 137.296875 43.230469 132.613281 C 42.519531 130.941406 40.480469 127.832031 37.34375 124.585938 C 42.730469 124.96875 43.972656 120.296875 44.363281 115.726562 C 44.789062 110.792969 38.386719 100.859375 32.179688 94.746094 L 40.335938 79.144531 C 40.335938 79.144531 36.597656 72.078125 29.925781 71.9375 C 23.257812 71.796875 18.257812 76.777344 20.953125 83.585938 C 21.953125 86.117188 23.5625 88.683594 25.1875 90.914062 C 20.800781 89.886719 16.980469 90.894531 16.980469 90.894531 C 3.78125 95.578125 11.585938 105.9375 13.289062 107.921875 C 13.964844 108.710938 16.597656 111.230469 19.945312 114.078125 C 17.15625 113.390625 14.175781 113.078125 11.019531 113.316406 C 7.46875 113.582031 3.78125 116.292969 2.929688 121.828125 C 2.082031 127.363281 10.027344 131.761719 10.027344 131.761719 C 10.027344 131.761719 4.492188 131.617188 0.804688 139.421875 C -2.886719 147.226562 7.332031 155.03125 7.332031 155.03125 C 7.332031 155.03125 10.878906 146.09375 15.277344 142.6875 C 19.675781 139.28125 16.835938 134.171875 16.835938 134.171875 Z M 446.351562 322.324219 C 436.464844 320.394531 419.207031 318.539062 402.617188 317.042969 C 395.96875 345.714844 368.691406 423.0625 366.320312 459.394531 L 175.9375 461.390625 C 175.9375 461.390625 198.359375 360.488281 198.359375 336.464844 C 198.359375 317.792969 173.914062 290.824219 171.359375 289.972656 C 170.023438 289.527344 163.410156 277.511719 160.980469 259.007812 C 146.96875 253.925781 137.480469 244.070312 127.515625 241.019531 C 62.625 221.152344 65.792969 203.664062 35.460938 194.53125 C 30.441406 193.019531 25.917969 190.128906 22.703125 185.988281 C 2.769531 160.316406 36.332031 162.550781 60.457031 165.046875 C 64.074219 148.296875 74.753906 129.496094 83.183594 127.820312 C 83.476562 126.449219 84.03125 125.265625 84.945312 124.382812 C 91.117188 118.421875 93.460938 124.808594 98.144531 127.148438 C 102.535156 129.34375 104.238281 135.652344 103.96875 140.648438 C 104.171875 141.042969 104.265625 141.273438 104.265625 141.273438 C 104.265625 141.273438 104.066406 153.6875 99.460938 161.492188 C 98.425781 163.253906 97.257812 166.28125 95.78125 169.765625 C 117.851562 174.5625 144.585938 182.921875 148.371094 183.550781 C 151.574219 184.085938 169.992188 188.132812 183.292969 191.074219 C 195.828125 186.269531 217.957031 179.578125 245.742188 178.613281 C 251.605469 167.234375 251.953125 146.375 251.953125 146.375 C 251.953125 146.375 241.5625 139.914062 236.632812 125.375 C 227.335938 97.988281 234.078125 68.050781 234.078125 68.050781 C 249.898438 49.675781 280.191406 44.636719 296.085938 52.015625 C 311.976562 59.394531 322.050781 85.359375 321.769531 103.808594 C 321.484375 122.253906 312.6875 135.59375 312.402344 146.375 C 312.238281 152.535156 318.28125 169.535156 318.625 186.308594 C 355.152344 193.636719 384.453125 205.605469 401.132812 226.816406 L 410.59375 235.199219 L 370.835938 188.085938 L 370.4375 188.234375 L 357.597656 173.972656 C 357.597656 173.972656 340.78125 160.992188 338.226562 158.4375 C 335.671875 155.882812 332.90625 125.871094 332.90625 123.105469 C 332.90625 120.339844 329.570312 102.390625 333.117188 99.691406 C 336.664062 96.996094 341.0625 95.578125 346.03125 103.664062 C 350.996094 111.753906 351.140625 112.179688 351.140625 112.179688 C 351.140625 112.179688 357.382812 111.042969 360.222656 114.449219 C 360.222656 114.449219 372.421875 112.890625 377.957031 119.132812 C 383.492188 125.375 391.578125 153.46875 391.578125 153.46875 L 398.003906 162.5625 C 409.132812 169.917969 488.050781 223.5625 499.457031 272.671875 C 504.789062 295.621094 469.621094 326.863281 446.351562 322.324219"/></g><g id="change2_1"><path fill="#f2da1c" d="M 136.746094 17.152344 C 135.445312 18.84375 134.160156 20.144531 133.210938 21.726562 C 132.753906 22.519531 132.421875 23.367188 132.261719 24.246094 C 132.144531 24.683594 132.152344 25.117188 132.097656 25.582031 L 132.042969 27.074219 C 132.011719 28.078125 131.972656 29.101562 131.808594 30.191406 C 131.644531 31.269531 131.28125 32.46875 130.542969 33.472656 C 129.019531 35.496094 126.855469 36.300781 124.921875 37 C 124 37.328125 123.121094 37.644531 122.335938 38.078125 C 121.539062 38.492188 120.832031 38.996094 120.410156 39.578125 C 119.988281 40.15625 119.839844 40.804688 119.894531 41.597656 C 119.957031 42.382812 120.230469 43.257812 120.570312 44.128906 C 120.742188 44.5625 120.941406 45.003906 121.140625 45.441406 C 121.359375 46.03125 121.601562 46.65625 121.601562 47.382812 C 121.667969 48.839844 120.820312 50.15625 119.917969 50.898438 C 118.992188 51.671875 117.988281 52.152344 116.96875 52.492188 C 115.957031 52.808594 114.945312 53.234375 113.738281 52.597656 C 114.484375 51.496094 115.378906 51.265625 116.199219 50.769531 C 117 50.285156 117.769531 49.769531 118.320312 49.183594 C 118.890625 48.597656 119.15625 48.023438 119.125 47.449219 C 119.132812 47.15625 118.996094 46.839844 118.878906 46.488281 C 118.664062 46.011719 118.449219 45.539062 118.257812 45.039062 C 117.875 44.046875 117.519531 42.988281 117.421875 41.773438 C 117.308594 40.578125 117.625 39.144531 118.421875 38.109375 C 119.203125 37.070312 120.203125 36.417969 121.175781 35.90625 C 122.148438 35.375 123.167969 35.015625 124.132812 34.675781 C 125.921875 34.050781 127.699219 33.28125 128.648438 32.066406 C 129.617188 30.882812 129.707031 28.929688 129.894531 26.941406 C 129.851562 22.902344 132.363281 17.808594 136.746094 17.152344 Z M 28.605469 49.140625 C 28.78125 50.335938 28.660156 51.445312 28.414062 52.488281 C 28.152344 53.519531 27.984375 54.601562 26.8125 55.296875 C 26.261719 54.082031 26.535156 53.199219 26.542969 52.242188 C 26.550781 51.304688 26.515625 50.382812 26.308594 49.605469 C 26.105469 48.8125 25.757812 48.28125 25.253906 48.011719 C 25.007812 47.847656 24.667969 47.800781 24.304688 47.714844 C 23.789062 47.648438 23.273438 47.582031 22.746094 47.484375 C 21.699219 47.289062 20.613281 47.039062 19.527344 46.480469 C 18.449219 45.949219 17.394531 44.929688 16.929688 43.710938 C 16.457031 42.5 16.425781 41.308594 16.496094 40.210938 C 16.554688 39.105469 16.785156 38.046875 17 37.046875 C 17.410156 35.195312 17.683594 33.277344 17.148438 31.835938 C 16.648438 30.386719 15.03125 29.289062 13.4375 28.085938 C 9.976562 26.003906 6.957031 21.191406 8.695312 17.113281 C 9.457031 19.113281 9.886719 20.886719 10.738281 22.527344 C 11.171875 23.328125 11.722656 24.058594 12.386719 24.65625 C 12.695312 24.984375 13.070312 25.207031 13.4375 25.496094 L 14.675781 26.324219 C 15.515625 26.878906 16.367188 27.449219 17.210938 28.160156 C 18.042969 28.863281 18.875 29.804688 19.339844 30.957031 C 20.265625 33.316406 19.8125 35.578125 19.394531 37.59375 C 19.191406 38.550781 19 39.460938 18.957031 40.363281 C 18.890625 41.253906 18.953125 42.121094 19.222656 42.789062 C 19.496094 43.449219 19.96875 43.917969 20.671875 44.28125 C 21.375 44.644531 22.261719 44.871094 23.183594 45.035156 C 23.640625 45.121094 24.121094 45.179688 24.597656 45.242188 C 25.21875 45.363281 25.878906 45.484375 26.492188 45.863281 C 27.769531 46.574219 28.445312 47.984375 28.605469 49.140625 Z M 292.125 74.453125 C 279.777344 76.371094 277.570312 81.230469 276.816406 84.070312 C 273.390625 84.875 268.277344 85.121094 265.304688 84.441406 C 263.925781 81.5625 260.03125 77.019531 248.324219 76.726562 C 241.359375 76.554688 236.347656 76.796875 232.585938 77.597656 C 233.257812 71.695312 234.078125 68.050781 234.078125 68.050781 C 249.898438 49.675781 280.191406 44.636719 296.085938 52.015625 C 303.523438 55.46875 309.6875 62.996094 314.109375 71.917969 C 309.285156 71.375 302.414062 72.855469 292.125 74.453125 Z M 310.542969 34.859375 C 307.4375 34.238281 292.535156 13.746094 277.632812 13.746094 C 262.726562 13.746094 246.582031 35.480469 246.582031 35.480469 C 246.582031 35.480469 205.285156 43.246094 197.523438 63.117188 C 189.761719 82.988281 214.601562 112.175781 214.601562 112.175781 C 223.28125 121.285156 231.910156 128.230469 240.3125 133.46875 C 238.941406 131.113281 237.664062 128.425781 236.632812 125.375 C 235.222656 121.222656 234.183594 117.007812 233.433594 112.847656 C 236.28125 113.808594 239.628906 114.152344 243.539062 113.605469 C 261.960938 111.027344 265.976562 101.277344 266.300781 91.894531 C 269.398438 91.175781 273.460938 91.375 276.230469 91.660156 C 277.726562 100.972656 282.917969 110.222656 301.613281 110.410156 C 312.160156 110.515625 318.4375 104.117188 321.398438 96.605469 C 321.675781 99.089844 321.804688 101.507812 321.769531 103.808594 C 321.492188 121.527344 313.386719 134.527344 312.496094 145.085938 C 318.78125 143.527344 323.648438 141.730469 326.691406 140.742188 C 329.058594 139.972656 331.578125 138.574219 334.113281 136.636719 C 333.378906 130.046875 332.90625 124.25 332.90625 123.105469 C 332.90625 120.339844 329.570312 102.390625 333.117188 99.691406 C 336.664062 96.996094 341.0625 95.578125 346.03125 103.664062 C 350.996094 111.753906 351.140625 112.179688 351.140625 112.179688 C 351.140625 112.179688 351.210938 112.167969 351.316406 112.152344 C 354.835938 102.976562 356.804688 92.035156 355.878906 79.882812 C 353.394531 47.28125 313.648438 35.480469 310.542969 34.859375"/></g><g id="change3_1"><path fill="#f93822" d="M 107.871094 82.257812 L 92.226562 122.730469 C 90.25 121.515625 88.097656 121.339844 84.945312 124.382812 C 81.515625 127.695312 83.042969 135.203125 85.078125 141.21875 L 66.839844 188.40625 C 65.59375 191.621094 62.136719 193.394531 58.796875 192.523438 L 7.90625 179.257812 C 6.277344 178.835938 4.867188 177.820312 3.945312 176.414062 L 2.75 174.597656 C 1.53125 172.738281 1.296875 170.402344 2.125 168.34375 L 8.691406 152.011719 C 10.117188 149.09375 12.53125 144.8125 15.277344 142.6875 C 19.675781 139.28125 16.835938 134.171875 16.835938 134.171875 C 16.835938 134.171875 30.175781 141.691406 34.289062 142.117188 C 38.40625 142.546875 45.214844 137.296875 43.230469 132.613281 C 42.519531 130.941406 40.480469 127.832031 37.34375 124.585938 C 42.730469 124.96875 43.972656 120.296875 44.363281 115.726562 C 44.789062 110.761719 38.304688 100.730469 32.0625 94.628906 C 31.988281 94.554688 31.910156 94.5 31.835938 94.429688 L 44.613281 62.644531 C 45.859375 59.546875 49.171875 57.816406 52.425781 58.5625 L 101.605469 69.835938 C 103.710938 70.320312 105.460938 71.773438 106.316406 73.757812 L 107.769531 77.117188 C 108.476562 78.75 108.515625 80.597656 107.871094 82.257812"/></g><g id="change4_1" clip-path="url(#b)"><path fill="#312e5f" d="M 354.234375 228.558594 L 353.527344 228.371094 C 353.058594 228.257812 352.585938 228.152344 352.109375 228.070312 C 351.164062 227.902344 350.214844 227.824219 349.265625 227.714844 C 347.367188 227.515625 345.476562 227.246094 343.566406 227.296875 C 341.664062 227.300781 339.753906 227.488281 337.847656 227.609375 C 336.890625 227.667969 335.941406 227.628906 334.988281 227.648438 C 334.511719 227.65625 334.03125 227.699219 333.554688 227.761719 L 332.835938 227.882812 C 332.597656 227.925781 332.355469 228.089844 332.09375 228.757812 C 332.308594 229.445312 332.539062 229.628906 332.773438 229.6875 L 333.480469 229.859375 C 333.953125 229.953125 334.429688 230.03125 334.902344 230.070312 C 335.851562 230.160156 336.804688 230.1875 337.75 230.3125 C 339.644531 230.5625 341.539062 230.886719 343.4375 231.023438 C 345.335938 231.207031 347.246094 231.070312 349.152344 231.003906 C 350.105469 230.960938 351.058594 230.953125 352.015625 230.847656 C 352.492188 230.804688 352.96875 230.730469 353.449219 230.648438 L 354.167969 230.511719 C 354.40625 230.484375 354.648438 230.320312 354.914062 229.5625 C 354.703125 228.78125 354.472656 228.601562 354.234375 228.558594 Z M 362.15625 179.039062 L 358.265625 174.714844 C 355.90625 173.09375 353.144531 170.972656 350.507812 168.449219 C 345.582031 164.585938 339.660156 159.871094 338.226562 158.4375 C 335.671875 155.882812 332.90625 125.871094 332.90625 123.105469 C 332.90625 120.339844 329.570312 102.390625 333.117188 99.691406 C 333.339844 99.523438 333.5625 99.359375 333.792969 99.203125 C 330.105469 81.351562 324.320312 64.015625 314.957031 55.5625 C 297.914062 40.179688 286.761719 35 261.277344 41.191406 C 231.5 48.421875 226.488281 71.140625 225.691406 80.601562 C 228.382812 78.449219 232.125 77.289062 238.164062 76.863281 C 244.027344 73.808594 253.496094 70.40625 266.144531 70.886719 L 271.820312 51.308594 L 279.199219 70.035156 C 279.199219 70.035156 295.8125 70.039062 309.453125 71.902344 C 314.65625 71.511719 318.101562 72.191406 320.59375 75.148438 C 324.898438 80.265625 324.75 94.378906 317.644531 103.121094 C 317.453125 112.917969 316.535156 124.171875 314.316406 136.53125 C 313.324219 139.824219 312.605469 142.886719 312.445312 145.765625 C 311.671875 149.226562 310.777344 152.769531 309.78125 156.367188 C 309.785156 155.578125 309.785156 154.792969 309.769531 154.003906 C 309.75 153.195312 309.683594 152.386719 309.582031 151.578125 C 309.535156 151.175781 309.457031 150.769531 309.394531 150.367188 C 309.332031 149.96875 309.132812 149.5625 308.429688 149.214844 C 307.777344 149.660156 307.628906 150.050781 307.59375 150.449219 L 307.484375 151.632812 C 307.429688 152.421875 307.375 153.207031 307.34375 153.992188 C 307.296875 155.566406 307.214844 157.140625 307.054688 158.703125 C 306.6875 161.835938 306.074219 164.917969 305.488281 167.976562 C 305.136719 169.726562 304.792969 171.472656 304.417969 173.214844 C 303.167969 176.664062 301.816406 180.15625 300.339844 183.695312 C 300.339844 183.695312 300.792969 183.550781 301.550781 183.28125 C 301.496094 183.441406 301.445312 183.601562 301.386719 183.753906 L 301.003906 184.871094 C 300.859375 185.238281 300.839844 185.660156 301.335938 186.390625 C 302.1875 186.40625 302.523438 186.117188 302.738281 185.769531 L 303.4375 184.75 C 303.910156 184.070312 304.3125 183.351562 304.675781 182.613281 C 304.789062 182.40625 304.894531 182.191406 304.996094 181.980469 C 308.417969 180.609375 313.226562 178.445312 317.730469 175.589844 C 318.214844 179.101562 318.550781 182.710938 318.625 186.308594 C 322.355469 187.058594 326.011719 187.851562 329.585938 188.703125 C 332.296875 179.738281 334.535156 169.929688 334.535156 169.929688 C 334.535156 169.929688 353.164062 180.195312 362.15625 179.039062 Z M 245.742188 178.613281 C 251.605469 167.234375 251.953125 146.375 251.953125 146.375 C 251.953125 146.375 241.5625 139.914062 236.632812 125.375 C 235.222656 121.21875 234.183594 117.007812 233.433594 112.847656 C 228.296875 111.113281 224.820312 107.339844 222.777344 102.972656 C 217.882812 120.746094 209.316406 139.636719 221.023438 180.714844 C 221.023438 180.714844 208.535156 179.578125 203.144531 172.769531 C 200.121094 168.953125 200.222656 176.273438 204.835938 184.34375 C 216.199219 181.523438 230.070312 179.15625 245.742188 178.613281 Z M 208.691406 192.226562 C 203.117188 186.859375 196.910156 187.625 196.652344 187.660156 C 195.632812 187.796875 194.925781 188.726562 195.054688 189.746094 C 195.183594 190.765625 196.117188 191.492188 197.136719 191.363281 C 197.332031 191.34375 201.925781 190.84375 206.179688 194.992188 C 210.425781 199.136719 215.042969 208.757812 212.917969 231.050781 C 210.386719 257.660156 202.679688 277.066406 191.773438 284.300781 C 187.570312 287.089844 183.058594 287.847656 178.730469 286.488281 C 177.746094 286.179688 176.695312 286.726562 176.386719 287.710938 C 176.078125 288.695312 176.625 289.742188 177.609375 290.050781 C 179.394531 290.613281 181.195312 290.890625 182.996094 290.890625 C 186.683594 290.890625 190.359375 289.722656 193.839844 287.414062 C 205.863281 279.441406 213.957031 259.550781 216.640625 231.40625 C 218.464844 212.234375 215.792969 199.050781 208.691406 192.226562 Z M 387.058594 247.6875 C 386.507812 246.8125 385.355469 246.550781 384.480469 247.101562 C 383.609375 247.648438 383.347656 248.804688 383.894531 249.675781 C 384.058594 249.9375 400.238281 275.886719 401.0625 296.855469 C 401.550781 309.320312 391.105469 360.738281 382.710938 402.050781 C 374.777344 441.078125 371.605469 457.261719 372.148438 460.164062 C 372.3125 461.054688 373.085938 461.648438 373.960938 461.648438 C 374.066406 461.648438 374.171875 461.640625 374.273438 461.625 C 375.273438 461.464844 375.957031 460.492188 375.824219 459.488281 C 375.4375 456.617188 380.992188 429.257812 386.371094 402.796875 C 394.808594 361.285156 405.304688 309.621094 404.796875 296.710938 C 403.9375 274.753906 387.746094 248.78125 387.058594 247.6875 Z M 247.613281 224.324219 C 245.222656 217.871094 242.472656 211.574219 239.4375 205.425781 C 237.921875 202.351562 236.308594 199.328125 234.605469 196.355469 C 233.742188 194.875 232.894531 193.386719 232.003906 191.925781 C 231.125 190.457031 230.101562 189.0625 228.636719 187.953125 C 228.941406 189.765625 229.644531 191.308594 230.4375 192.8125 C 231.246094 194.308594 232.011719 195.824219 232.789062 197.332031 C 234.289062 200.382812 235.828125 203.40625 237.265625 206.480469 C 240.171875 212.609375 242.855469 218.84375 245.066406 225.234375 C 247.234375 231.625 249.023438 238.160156 249.855469 244.765625 C 250.632812 251.332031 250.636719 258.179688 250.027344 264.804688 C 249.464844 271.464844 248.175781 278.046875 246.027344 284.328125 C 245.433594 285.878906 244.949219 287.472656 244.238281 288.972656 L 243.238281 291.253906 L 242.109375 293.464844 C 241.394531 294.964844 240.472656 296.347656 239.648438 297.785156 C 238.707031 299.148438 237.847656 300.574219 236.800781 301.863281 C 234.828125 304.53125 232.570312 306.988281 230.15625 309.273438 C 227.730469 311.542969 225.164062 313.679688 222.398438 315.554688 C 219.636719 317.417969 216.761719 319.152344 213.746094 320.609375 C 212.234375 321.339844 210.703125 322.019531 209.140625 322.628906 C 207.5625 323.210938 206.046875 323.878906 204.5625 324.996094 C 206.40625 325.375 208.148438 325.003906 209.789062 324.46875 C 211.441406 323.933594 213.066406 323.320312 214.671875 322.660156 C 217.875 321.324219 220.980469 319.734375 223.917969 317.859375 C 229.804688 314.132812 235.085938 309.390625 239.402344 303.875 C 243.796875 298.40625 247.085938 292.109375 249.507812 285.550781 C 250.097656 283.90625 250.601562 282.226562 251.117188 280.558594 C 251.511719 278.855469 251.972656 277.167969 252.308594 275.457031 C 252.59375 273.738281 252.972656 272.027344 253.179688 270.300781 C 253.359375 268.570312 253.640625 266.847656 253.738281 265.113281 C 254.222656 258.148438 254.09375 251.273438 253.125 244.3125 C 252.046875 237.402344 250.007812 230.769531 247.613281 224.324219 Z M 218.933594 96.53125 C 219.261719 97.472656 219.515625 98.441406 219.941406 99.335938 C 220.15625 99.785156 220.402344 100.21875 220.648438 100.648438 L 221.035156 101.289062 C 221.148438 101.507812 221.386719 101.679688 222.183594 101.632812 C 222.828125 101.136719 222.914062 100.863281 222.875 100.628906 L 222.804688 99.914062 C 222.75 99.445312 222.6875 98.980469 222.601562 98.523438 C 222.453125 97.609375 222.308594 96.710938 222.144531 95.820312 C 222.007812 94.925781 221.980469 94.027344 221.882812 93.148438 C 221.921875 92.277344 221.734375 91.398438 221.773438 90.550781 C 221.695312 88.839844 221.75 87.132812 222.261719 85.53125 C 222.539062 84.742188 222.96875 84.019531 223.480469 83.382812 C 223.722656 83.046875 223.984375 82.730469 224.25 82.402344 C 224.386719 82.25 224.511719 82.066406 224.660156 81.921875 C 224.8125 81.765625 224.863281 81.527344 224.785156 80.8125 C 224.277344 80.300781 223.921875 80.304688 223.675781 80.410156 C 223.414062 80.511719 223.179688 80.640625 222.933594 80.769531 C 222.472656 81.054688 222.023438 81.378906 221.660156 81.777344 C 220.890625 82.546875 220.34375 83.480469 219.800781 84.40625 C 218.757812 86.273438 218.109375 88.402344 218.046875 90.484375 C 217.941406 91.542969 218.089844 92.558594 218.203125 93.585938 C 218.433594 94.574219 218.648438 95.570312 218.933594 96.53125 Z M 336.398438 103.578125 C 336.640625 104.300781 336.898438 105.015625 337.1875 105.714844 C 337.773438 107.109375 338.375 108.5 338.9375 109.90625 C 340.019531 112.738281 341.03125 115.601562 342.222656 118.386719 C 343.359375 121.195312 344.796875 123.867188 346.167969 126.570312 C 346.863281 127.917969 347.527344 129.277344 348.277344 130.601562 C 348.648438 131.265625 349.042969 131.917969 349.441406 132.566406 L 350.0625 133.535156 C 350.25 133.867188 350.5625 134.140625 351.421875 134.171875 C 351.972656 133.515625 351.972656 133.101562 351.847656 132.742188 L 351.527344 131.640625 C 351.300781 130.910156 351.070312 130.183594 350.816406 129.46875 C 350.316406 128.035156 349.730469 126.636719 349.175781 125.226562 C 348.046875 122.414062 346.980469 119.570312 345.621094 116.859375 C 344.308594 114.128906 342.820312 111.476562 341.402344 108.792969 C 340.710938 107.445312 340.0625 106.074219 339.398438 104.714844 C 339.0625 104.03125 338.695312 103.367188 338.3125 102.710938 L 337.707031 101.738281 C 337.507812 101.414062 337.191406 101.140625 336.417969 101.074219 C 335.953125 101.703125 335.953125 102.117188 336.0625 102.484375 Z M 350.066406 118.777344 C 350.460938 120.359375 350.886719 122.027344 351.933594 123.554688 C 352.457031 124.304688 353.109375 125.058594 354.019531 125.601562 C 354.136719 125.671875 354.261719 125.726562 354.382812 125.785156 C 354.363281 125.949219 354.347656 126.113281 354.347656 126.269531 C 354.339844 126.671875 354.417969 127.039062 354.449219 127.425781 C 354.539062 128.179688 354.523438 128.949219 354.800781 129.652344 C 355.023438 130.367188 355.429688 131.054688 355.707031 131.78125 C 355.851562 132.144531 355.890625 132.523438 355.980469 132.894531 C 356.023438 133.078125 356.105469 133.261719 356.195312 133.445312 L 356.359375 133.714844 C 356.414062 133.808594 356.601562 133.882812 357.273438 133.960938 C 357.945312 133.839844 358.121094 133.714844 358.160156 133.609375 L 358.285156 133.289062 C 358.351562 133.074219 358.390625 132.863281 358.398438 132.652344 C 358.40625 132.234375 358.355469 131.824219 358.386719 131.402344 C 358.4375 130.5625 358.566406 129.6875 358.441406 128.855469 C 358.375 128.007812 357.972656 127.238281 357.601562 126.476562 C 357.59375 126.460938 357.582031 126.441406 357.574219 126.425781 C 358.507812 126.339844 359.351562 126.035156 360.035156 125.597656 C 360.378906 125.402344 360.65625 125.148438 360.929688 124.894531 L 360.902344 125.164062 C 360.890625 125.34375 360.878906 125.527344 360.894531 125.6875 C 360.90625 126.027344 361 126.320312 361.054688 126.648438 C 361.183594 127.28125 361.21875 127.957031 361.546875 128.53125 C 361.820312 129.125 362.292969 129.667969 362.652344 130.257812 C 362.839844 130.550781 362.929688 130.871094 363.070312 131.179688 C 363.144531 131.332031 363.246094 131.476562 363.367188 131.617188 L 363.574219 131.820312 C 363.644531 131.886719 363.839844 131.921875 364.511719 131.832031 C 365.140625 131.578125 365.292969 131.445312 365.316406 131.347656 L 365.390625 131.054688 C 365.417969 130.867188 365.429688 130.683594 365.402344 130.507812 C 365.359375 130.15625 365.253906 129.824219 365.238281 129.464844 C 365.195312 128.742188 365.242188 127.988281 365.0625 127.289062 C 364.933594 126.578125 364.492188 125.96875 364.078125 125.347656 C 363.898438 125.089844 363.71875 124.828125 363.496094 124.585938 C 363.539062 124.582031 363.582031 124.578125 363.621094 124.578125 C 364.390625 124.496094 365.136719 124.300781 365.832031 124.019531 C 366.527344 123.734375 367.167969 123.367188 367.742188 122.925781 C 367.75 122.921875 367.757812 122.914062 367.769531 122.90625 C 367.847656 123.054688 367.933594 123.199219 368.011719 123.347656 C 368.4375 124.125 368.796875 124.925781 369.117188 125.738281 C 369.441406 126.550781 369.730469 127.367188 370.019531 128.167969 C 370.183594 128.566406 370.304688 128.96875 370.457031 129.363281 C 370.613281 129.777344 370.546875 130.125 371.535156 130.554688 C 371.996094 130.328125 372.222656 130.0625 372.316406 129.800781 C 372.390625 129.546875 372.347656 129.304688 372.359375 129.050781 C 372.351562 128.558594 372.300781 128.070312 372.226562 127.597656 C 372.070312 126.648438 371.785156 125.75 371.480469 124.867188 C 370.855469 123.101562 370.285156 121.363281 369.550781 119.605469 C 369.496094 119.476562 369.425781 119.351562 369.332031 119.238281 C 368.8125 118.605469 367.882812 118.511719 367.246094 119.027344 L 366.910156 119.304688 C 366.660156 119.511719 366.203125 119.851562 365.8125 120.058594 C 365.398438 120.277344 364.984375 120.46875 364.5625 120.597656 C 364.140625 120.722656 363.722656 120.785156 363.304688 120.824219 C 363.09375 120.816406 362.886719 120.84375 362.675781 120.8125 L 362.375 120.796875 C 362.3125 120.785156 362.246094 120.78125 362.195312 120.765625 C 361.980469 120.738281 361.808594 120.707031 361.570312 120.519531 C 361.34375 120.335938 361.109375 119.996094 360.921875 119.578125 C 360.742188 119.160156 360.574219 118.683594 360.402344 118.171875 L 360.136719 117.386719 C 359.96875 117.105469 360.289062 116.878906 359.085938 116.507812 C 357.835938 116.726562 358.144531 117.097656 357.980469 117.410156 C 357.890625 117.734375 357.84375 118.066406 357.800781 118.402344 C 357.734375 119.078125 357.765625 119.777344 357.933594 120.496094 C 358.097656 121.214844 358.363281 121.976562 358.890625 122.714844 C 358.960938 122.816406 359.050781 122.910156 359.132812 123.007812 C 359.054688 123.027344 358.976562 123.050781 358.898438 123.0625 C 358.285156 123.1875 357.75 123.28125 357.300781 123.175781 C 356.421875 123 355.769531 122.265625 354.925781 121.328125 C 354.128906 120.363281 353.269531 119.179688 352.613281 117.863281 C 352.28125 117.207031 352.070312 116.496094 351.824219 115.796875 C 351.707031 115.441406 351.558594 115.097656 351.398438 114.75 L 351.136719 114.234375 C 351.054688 114.0625 350.84375 113.921875 350.144531 113.847656 C 349.515625 114.152344 349.378906 114.390625 349.371094 114.597656 L 349.355469 115.214844 C 349.363281 115.621094 349.402344 116.027344 349.480469 116.421875 C 349.640625 117.210938 349.882812 117.980469 350.066406 118.777344 Z M 335.972656 122.871094 C 336.507812 122.996094 336.972656 123.277344 337.402344 123.671875 C 337.828125 124.066406 338.210938 124.59375 338.554688 125.152344 C 338.722656 125.441406 338.867188 125.757812 339.023438 126.054688 L 339.5 127.0625 C 340.121094 128.417969 340.664062 129.804688 341.121094 131.210938 C 341.566406 132.585938 341.972656 134.101562 342.152344 135.371094 C 342.175781 135.515625 342.214844 135.667969 342.277344 135.808594 L 342.3125 135.890625 C 343.496094 138.605469 344.828125 141.25 346.183594 143.886719 L 346.226562 143.96875 C 346.503906 144.503906 347.050781 144.878906 347.695312 144.902344 C 349.429688 144.972656 351.273438 145.132812 353.054688 145.359375 C 354.847656 145.597656 356.632812 145.898438 358.355469 146.386719 C 360.097656 146.835938 361.75 147.511719 363.28125 148.316406 C 363.671875 148.507812 364.0625 148.703125 364.40625 148.941406 C 364.757812 149.175781 365.164062 149.367188 365.476562 149.636719 C 365.796875 149.902344 366.152344 150.148438 366.464844 150.429688 C 366.765625 150.71875 367.15625 150.917969 367.953125 150.988281 C 368.207031 150.304688 368.058594 149.746094 367.8125 149.285156 C 367.515625 148.867188 367.160156 148.503906 366.828125 148.109375 C 366.109375 147.402344 365.320312 146.738281 364.472656 146.246094 C 362.78125 145.195312 360.953125 144.492188 359.136719 143.871094 C 357.308594 143.269531 355.476562 142.699219 353.605469 142.292969 C 352.09375 141.953125 350.589844 141.6875 349.035156 141.476562 C 347.980469 139.109375 346.898438 136.75 345.703125 134.445312 C 345.34375 132.839844 344.867188 131.472656 344.308594 130.050781 C 343.707031 128.546875 343.019531 127.089844 342.246094 125.679688 C 341.519531 124.332031 340.519531 122.707031 338.933594 121.628906 C 338.125 121.097656 337.117188 120.738281 336.101562 120.761719 C 335.601562 120.789062 335.097656 120.84375 334.652344 121.050781 C 334.222656 121.265625 333.847656 121.699219 333.828125 122.394531 C 334.457031 122.667969 334.808594 122.800781 335.121094 122.820312 C 335.425781 122.816406 335.703125 122.816406 335.972656 122.871094 Z M 253.851562 34.851562 C 254.394531 34.71875 254.945312 34.613281 255.496094 34.5 L 258.789062 33.816406 C 260.984375 33.367188 263.191406 32.957031 265.429688 32.742188 C 269.902344 32.3125 274.394531 32.289062 278.863281 32.40625 C 279.980469 32.429688 281.097656 32.519531 282.214844 32.554688 C 283.332031 32.582031 284.449219 32.640625 285.5625 32.722656 L 288.921875 32.933594 L 292.265625 33.308594 C 294.507812 33.496094 296.699219 33.988281 298.941406 34.257812 C 300.0625 34.402344 301.160156 34.652344 302.28125 34.820312 L 303.964844 35.082031 C 304.519531 35.1875 305.109375 35.164062 305.875 34.5625 C 305.53125 33.679688 305.019531 33.371094 304.472656 33.195312 L 302.839844 32.609375 C 301.742188 32.25 300.660156 31.808594 299.53125 31.558594 C 297.289062 31 295.046875 30.398438 292.753906 30.054688 L 289.324219 29.457031 L 285.867188 29.046875 L 284.132812 28.847656 L 282.390625 28.769531 C 281.230469 28.730469 280.066406 28.671875 278.90625 28.679688 C 274.253906 28.699219 269.613281 29.246094 265.054688 30.0625 C 263.90625 30.238281 262.769531 30.457031 261.636719 30.699219 C 260.496094 30.90625 259.363281 31.171875 258.238281 31.453125 C 257.113281 31.742188 256.003906 32.082031 254.910156 32.484375 C 254.363281 32.691406 253.824219 32.902344 253.285156 33.136719 C 252.75 33.359375 252.242188 33.722656 251.953125 34.5625 C 252.730469 34.992188 253.300781 34.976562 253.851562 34.851562 Z M 278.078125 134.734375 C 277.59375 134.394531 277.085938 134.089844 276.539062 133.855469 C 275.472656 133.324219 274.285156 132.914062 273.0625 132.902344 C 271.839844 132.851562 270.628906 133.199219 269.5 133.5625 C 268.933594 133.75 268.363281 133.890625 267.816406 134.113281 C 267.542969 134.234375 267.28125 134.382812 267.039062 134.570312 C 266.921875 134.664062 266.804688 134.773438 266.6875 134.878906 C 266.578125 134.980469 266.507812 135.222656 266.710938 135.875 C 267.152344 136.402344 267.316406 136.523438 267.449219 136.515625 L 267.828125 136.511719 C 268.074219 136.492188 268.324219 136.480469 268.550781 136.425781 C 269.019531 136.34375 269.480469 136.214844 269.964844 136.230469 C 270.929688 136.242188 271.855469 136.472656 272.75 136.617188 C 273.199219 136.703125 273.644531 136.765625 274.101562 136.808594 C 274.328125 136.84375 274.5625 136.84375 274.800781 136.859375 L 275.496094 136.976562 C 275.972656 137.023438 276.414062 137.210938 276.921875 137.261719 L 277.683594 137.367188 L 278.089844 137.398438 C 278.21875 137.429688 278.414062 137.324219 278.914062 136.726562 C 279.179688 136.007812 279.144531 135.777344 279.035156 135.683594 L 278.734375 135.34375 C 278.523438 135.132812 278.324219 134.898438 278.078125 134.734375 Z M 263.492188 126.699219 L 262.640625 126.675781 C 262.355469 126.664062 262.050781 126.773438 261.605469 127.363281 C 261.71875 128.09375 261.980469 128.328125 262.257812 128.441406 C 262.535156 128.546875 262.816406 128.664062 263.101562 128.761719 C 263.671875 128.945312 264.246094 129.109375 264.828125 129.214844 C 265.996094 129.445312 267.179688 129.5625 268.359375 129.738281 C 270.71875 130.085938 273.136719 130.316406 275.566406 130.148438 C 278.007812 130.03125 280.394531 129.289062 282.675781 128.394531 L 284.359375 127.636719 C 284.921875 127.386719 285.4375 127.027344 285.957031 126.703125 C 286.480469 126.382812 286.980469 126.023438 287.425781 125.585938 L 287.996094 125.050781 C 288.222656 125.21875 288.398438 125.402344 288.648438 125.542969 C 288.761719 125.617188 288.90625 125.679688 289.058594 125.746094 L 289.273438 125.839844 C 289.328125 125.882812 289.519531 125.855469 290.265625 125.660156 C 290.945312 125.316406 291.074219 125.144531 291.0625 125.042969 L 291.078125 124.695312 C 291.070312 124.484375 291.050781 124.269531 291.003906 124.066406 C 290.914062 123.679688 290.730469 123.339844 290.566406 123.011719 C 290.230469 122.359375 289.902344 121.691406 289.339844 121.28125 C 288.8125 120.828125 288.132812 120.558594 287.523438 120.238281 C 287.21875 120.085938 286.976562 119.859375 286.6875 119.683594 C 286.546875 119.59375 286.382812 119.535156 286.203125 119.488281 L 285.917969 119.441406 C 285.824219 119.425781 285.644531 119.511719 285.15625 119.984375 C 284.800781 120.558594 284.742188 120.746094 284.769531 120.832031 L 284.855469 121.09375 C 284.921875 121.253906 285.003906 121.398438 285.101562 121.519531 C 285.300781 121.761719 285.539062 121.964844 285.703125 122.242188 C 285.976562 122.671875 286.1875 123.148438 286.445312 123.5625 L 286.226562 123.648438 C 285.730469 123.886719 285.199219 124.054688 284.683594 124.234375 C 284.160156 124.402344 283.675781 124.640625 283.15625 124.800781 L 281.601562 125.285156 C 279.496094 125.835938 277.351562 126.113281 275.1875 126.445312 C 273.015625 126.722656 270.800781 127.007812 268.546875 127.039062 C 267.421875 127.050781 266.304688 126.929688 265.183594 126.816406 C 264.625 126.761719 264.0625 126.726562 263.492188 126.699219 Z M 269.78125 104.460938 L 270.023438 103.441406 C 270.683594 100.699219 271.023438 97.890625 271.4375 95.101562 C 271.632812 93.703125 271.863281 92.3125 272 90.902344 C 272.074219 90.199219 272.121094 89.488281 272.160156 88.777344 L 272.207031 87.710938 C 272.238281 87.355469 272.140625 86.980469 271.449219 86.484375 C 270.625 86.683594 270.390625 86.996094 270.285156 87.335938 L 269.925781 88.339844 C 269.695312 89.011719 269.46875 89.6875 269.273438 90.367188 C 268.867188 91.722656 268.554688 93.097656 268.207031 94.46875 C 267.535156 97.207031 266.792969 99.933594 266.367188 102.722656 L 266.203125 103.777344 C 266.136719 104.214844 266.101562 104.652344 266.09375 105.09375 C 266.097656 105.972656 266.234375 106.847656 266.492188 107.671875 C 267.015625 109.324219 268.023438 110.785156 269.332031 111.839844 C 269.652344 112.109375 269.992188 112.351562 270.34375 112.574219 L 270.882812 112.886719 L 271.355469 113.132812 L 273.21875 114.128906 C 273.84375 114.453125 274.488281 114.746094 275.140625 115.027344 L 276.132812 115.421875 C 276.460938 115.554688 276.855469 115.574219 277.496094 115.160156 C 277.523438 114.394531 277.304688 114.070312 277.019531 113.851562 L 276.175781 113.203125 C 275.601562 112.785156 275.019531 112.386719 274.417969 112.015625 L 272.605469 110.925781 L 272.15625 110.648438 L 271.800781 110.398438 C 271.570312 110.222656 271.351562 110.039062 271.148438 109.835938 C 270.367188 108.988281 269.863281 107.933594 269.691406 106.855469 C 269.601562 106.320312 269.589844 105.773438 269.652344 105.246094 C 269.679688 104.980469 269.726562 104.71875 269.78125 104.460938 Z M 86.019531 182.28125 L 85.242188 183.128906 L 84.492188 183.972656 L 83.667969 184.757812 L 82.082031 186.347656 L 80.386719 187.820312 C 79.84375 188.332031 79.203125 188.734375 78.601562 189.179688 C 77.992188 189.609375 77.402344 190.0625 76.75 190.4375 C 76.109375 190.828125 75.484375 191.234375 74.863281 191.648438 L 72.917969 192.785156 C 70.308594 194.261719 67.605469 195.683594 64.75 196.796875 C 63.3125 197.324219 61.84375 197.765625 60.355469 198.140625 L 58.136719 198.769531 L 57.03125 199.105469 C 56.65625 199.214844 56.3125 199.433594 56 200.152344 C 56.464844 200.785156 56.898438 200.902344 57.300781 200.886719 C 57.703125 200.867188 58.109375 200.867188 58.511719 200.835938 C 59.3125 200.765625 60.109375 200.667969 60.898438 200.507812 C 62.46875 200.195312 64.019531 199.789062 65.574219 199.371094 C 68.683594 198.566406 71.78125 197.546875 74.695312 196.0625 C 77.65625 194.65625 80.226562 192.515625 82.59375 190.261719 L 84.300781 188.488281 C 84.839844 187.871094 85.320312 187.195312 85.804688 186.535156 L 86.515625 185.535156 L 87.097656 184.449219 L 87.652344 183.355469 C 87.851562 183.003906 87.9375 182.570312 87.5 181.847656 C 86.621094 181.773438 86.265625 181.988281 86.019531 182.28125 Z M 96.636719 151.128906 C 96.171875 150.695312 95.714844 150.265625 95.304688 149.78125 C 94.878906 149.316406 94.445312 148.871094 94.003906 148.4375 C 93.582031 147.980469 93.207031 147.484375 92.804688 147.011719 C 91.238281 145.089844 90.003906 142.949219 88.800781 140.792969 C 87.613281 138.625 86.484375 136.367188 85.675781 133.953125 C 85.507812 133.34375 85.324219 132.738281 85.171875 132.121094 C 85.046875 131.496094 84.902344 130.878906 84.792969 130.253906 C 84.671875 129.628906 84.53125 129.007812 84.398438 128.382812 L 84.179688 127.445312 C 84.109375 127.128906 83.925781 126.832031 83.242188 126.511719 C 82.570312 126.84375 82.40625 127.207031 82.378906 127.546875 C 82.355469 127.886719 82.316406 128.230469 82.308594 128.570312 C 82.289062 129.253906 82.316406 129.933594 82.390625 130.609375 C 82.464844 131.246094 82.5625 131.882812 82.667969 132.515625 L 63.125 182.949219 C 62.234375 185.242188 57.953125 186.636719 55.410156 186.003906 L 9 174.078125 C 8.96875 174.070312 8.882812 174.054688 8.847656 174.046875 C 8.761719 174.03125 6.769531 173.601562 5.34375 170.441406 C 4.921875 169.5 3.8125 169.078125 2.875 169.503906 C 1.933594 169.925781 1.511719 171.03125 1.9375 171.972656 C 4.050781 176.667969 7.355469 177.566406 8.140625 177.71875 L 54.492188 189.625 C 55.222656 189.808594 56.015625 189.894531 56.828125 189.894531 C 60.742188 189.894531 65.234375 187.847656 66.609375 184.296875 L 84.148438 139.046875 C 84.515625 140.21875 84.949219 141.375 85.484375 142.492188 C 86.058594 143.757812 86.800781 144.941406 87.605469 146.078125 C 88.015625 146.644531 88.496094 147.15625 88.9375 147.691406 L 89.613281 148.484375 L 90.359375 149.214844 C 90.863281 149.695312 91.34375 150.199219 91.863281 150.652344 C 92.40625 151.089844 92.957031 151.511719 93.519531 151.910156 C 94.058594 152.339844 94.675781 152.664062 95.296875 152.972656 L 96.222656 153.429688 C 96.519531 153.59375 96.894531 153.648438 97.574219 153.1875 C 97.71875 152.34375 97.558594 152.023438 97.316406 151.808594 Z M 321.769531 188.945312 C 321.378906 189.488281 321.203125 189.960938 321.0625 190.417969 C 320.886719 190.867188 320.761719 191.289062 320.703125 191.726562 C 320.53125 192.128906 320.425781 192.546875 320.222656 192.917969 C 319.972656 193.261719 319.832031 193.664062 319.507812 193.949219 C 318.40625 195.222656 316.757812 195.984375 315.007812 196.496094 C 311.445312 197.453125 307.5 197.460938 303.632812 197.183594 C 299.746094 196.867188 295.859375 196.238281 292.015625 195.402344 C 288.175781 194.550781 284.335938 193.632812 280.570312 192.480469 C 278.6875 191.925781 276.8125 191.332031 274.972656 190.671875 C 274.054688 190.339844 273.148438 189.988281 272.257812 189.621094 L 269.53125 188.433594 C 265.816406 186.804688 262.011719 185.390625 258.15625 184.160156 C 254.3125 182.90625 250.421875 181.785156 246.464844 180.921875 C 244.492188 180.480469 242.492188 180.136719 240.488281 179.867188 C 239.480469 179.746094 238.472656 179.644531 237.460938 179.5625 C 236.453125 179.484375 235.410156 179.53125 234.359375 180.148438 C 235.308594 180.886719 236.253906 181.179688 237.226562 181.351562 C 238.199219 181.527344 239.167969 181.734375 240.136719 181.9375 C 242.070312 182.367188 244.003906 182.773438 245.921875 183.269531 C 249.761719 184.21875 253.558594 185.351562 257.269531 186.71875 C 260.976562 188.105469 264.613281 189.664062 268.148438 191.429688 L 270.882812 192.738281 C 271.824219 193.167969 272.769531 193.574219 273.722656 193.953125 C 275.621094 194.714844 277.539062 195.398438 279.472656 196.035156 C 287.230469 198.46875 295.238281 200.074219 303.441406 200.46875 C 307.53125 200.597656 311.738281 200.535156 315.855469 199.125 C 317.886719 198.433594 319.941406 197.234375 321.296875 195.308594 C 321.679688 194.871094 321.863281 194.292969 322.132812 193.785156 C 322.355469 193.253906 322.457031 192.683594 322.609375 192.136719 C 322.664062 191.582031 322.695312 191.011719 322.589844 190.46875 C 322.410156 189.929688 322.195312 189.398438 321.769531 188.945312 Z M 439.730469 277.996094 C 439.570312 277.777344 439.390625 277.585938 439.199219 277.402344 L 438.683594 276.773438 C 438.003906 275.917969 437.285156 275.121094 436.667969 274.203125 C 436.046875 273.296875 435.367188 272.453125 434.746094 271.535156 L 432.882812 268.816406 C 430.40625 265.167969 428.0625 261.410156 425.773438 257.617188 L 412.175781 234.746094 L 412.109375 234.640625 C 411.890625 234.273438 411.519531 234 411.0625 233.921875 C 410.226562 233.773438 409.433594 234.328125 409.28125 235.164062 C 408.871094 237.484375 408.679688 239.742188 408.503906 242.007812 C 408.308594 244.265625 408.179688 246.519531 408.042969 248.769531 C 407.902344 251.019531 407.835938 253.273438 407.796875 255.523438 C 407.792969 256.652344 407.796875 257.777344 407.828125 258.902344 C 407.855469 260.03125 407.785156 261.15625 408.675781 262.304688 C 409.621094 261.207031 409.628906 260.089844 409.734375 258.972656 L 410.039062 255.628906 L 410.542969 248.9375 C 410.703125 246.710938 410.9375 244.492188 411.199219 242.285156 C 411.296875 241.589844 411.398438 240.894531 411.503906 240.199219 C 412.886719 242.839844 414.292969 245.464844 415.761719 248.058594 C 417.988281 251.933594 420.289062 255.773438 422.761719 259.507812 C 425.226562 263.25 427.753906 266.953125 430.441406 270.566406 C 431.855469 272.324219 433.210938 274.128906 434.789062 275.769531 C 435.527344 276.625 436.398438 277.398438 437.207031 278.199219 C 437.980469 279 438.945312 279.820312 440.390625 279.757812 C 440.289062 278.972656 440.039062 278.445312 439.730469 277.996094 Z M 389.617188 245.808594 L 390.136719 245.40625 C 390.476562 245.136719 390.808594 244.859375 391.117188 244.566406 C 391.75 243.984375 392.308594 243.347656 392.890625 242.726562 C 394.039062 241.480469 395.246094 240.277344 396.199219 238.871094 C 397.191406 237.5 398.035156 236.011719 398.9375 234.566406 C 399.390625 233.84375 399.917969 233.183594 400.398438 232.484375 C 400.640625 232.136719 400.855469 231.765625 401.054688 231.382812 L 401.332031 230.796875 C 401.425781 230.597656 401.417969 230.324219 401.015625 229.738281 C 400.351562 229.484375 400.082031 229.542969 399.914062 229.679688 L 399.40625 230.089844 C 399.082031 230.371094 398.773438 230.667969 398.492188 230.984375 C 397.925781 231.617188 397.40625 232.285156 396.8125 232.894531 C 395.621094 234.109375 394.371094 235.28125 393.269531 236.566406 C 392.132812 237.824219 391.246094 239.28125 390.304688 240.695312 C 389.839844 241.40625 389.351562 242.097656 388.933594 242.847656 C 388.722656 243.21875 388.53125 243.605469 388.347656 244 L 388.082031 244.597656 C 387.980469 244.785156 387.980469 245.058594 388.457031 245.699219 C 389.191406 246.011719 389.460938 245.949219 389.617188 245.808594 Z M 377.125 238.757812 C 377.742188 239.632812 378.390625 240.488281 379.046875 241.347656 C 379.378906 241.769531 379.671875 242.210938 379.988281 242.644531 C 380.285156 243.089844 380.695312 243.464844 381.644531 243.574219 C 382.058594 242.738281 381.929688 242.171875 381.6875 241.675781 C 381.453125 241.171875 381.242188 240.652344 380.992188 240.160156 C 380.488281 239.183594 379.988281 238.199219 379.4375 237.246094 C 378.339844 235.347656 377.152344 233.503906 375.941406 231.683594 C 373.894531 228.628906 371.832031 225.582031 369.597656 222.675781 C 369.667969 222.601562 369.703125 222.539062 369.703125 222.488281 L 369.761719 222.101562 L 369.824219 221.359375 C 369.855469 220.875 369.800781 220.421875 369.824219 219.953125 C 369.824219 219.027344 369.992188 218.125 369.910156 217.21875 C 369.878906 216.3125 369.714844 215.363281 369.742188 214.402344 C 369.746094 213.925781 369.867188 213.46875 369.949219 213 C 369.996094 212.769531 370.007812 212.527344 370.015625 212.28125 L 369.996094 211.902344 C 369.992188 211.769531 369.863281 211.609375 369.300781 211.222656 C 368.636719 211.066406 368.40625 211.136719 368.316406 211.246094 C 368.222656 211.355469 368.121094 211.464844 368.035156 211.578125 C 367.867188 211.808594 367.730469 212.050781 367.628906 212.304688 C 367.421875 212.8125 367.292969 213.339844 367.09375 213.851562 C 366.703125 214.878906 366.285156 215.949219 366.1875 217.070312 C 366.121094 217.515625 366.136719 217.964844 366.175781 218.40625 C 364.113281 215.933594 361.980469 213.515625 359.863281 211.09375 L 355.652344 206.109375 C 354.945312 205.285156 354.210938 204.484375 353.457031 203.695312 L 352.308594 202.53125 C 351.921875 202.144531 351.441406 201.835938 350.570312 201.855469 C 350.398438 202.707031 350.609375 203.234375 350.917969 203.683594 L 351.839844 205.027344 C 352.46875 205.914062 353.105469 206.789062 353.773438 207.644531 C 355.109375 209.347656 356.449219 211.050781 357.753906 212.785156 C 360.320312 216.277344 362.789062 219.84375 365.367188 223.3125 C 367.917969 226.804688 370.652344 230.148438 373.257812 233.585938 Z M 193.128906 265.34375 C 195.039062 265.367188 196.945312 265.375 198.855469 265.3125 C 199.804688 265.277344 200.761719 265.191406 201.710938 265.109375 L 203.136719 264.964844 C 203.613281 264.933594 204.089844 264.769531 204.5625 264.007812 C 204.089844 263.230469 203.621094 263.050781 203.152344 263.011719 L 201.742188 262.828125 C 200.800781 262.722656 199.863281 262.617188 198.925781 262.550781 C 197.054688 262.332031 195.179688 262.226562 193.3125 262.054688 L 182.148438 260.855469 C 178.4375 260.460938 174.703125 260.144531 171.015625 259.523438 L 168.273438 258.976562 L 165.5625 258.300781 L 162.851562 257.636719 L 161.5 257.308594 C 161.046875 257.1875 160.570312 257.191406 159.867188 257.621094 C 160.023438 258.4375 160.429688 258.78125 160.863281 258.996094 L 162.179688 259.621094 C 163.070312 260 163.972656 260.347656 164.890625 260.632812 C 166.726562 261.210938 168.585938 261.683594 170.441406 262.167969 C 174.144531 263.171875 177.898438 264.011719 181.691406 264.550781 C 185.480469 265.160156 189.316406 265.230469 193.128906 265.34375 Z M 258.488281 149.425781 C 257.976562 149.152344 257.445312 148.992188 256.496094 149.214844 C 256.480469 150.195312 256.941406 150.726562 257.453125 151.085938 C 257.960938 151.464844 258.484375 151.820312 259.023438 152.15625 C 260.105469 152.808594 261.230469 153.40625 262.414062 153.859375 C 264.753906 154.835938 267.242188 155.390625 269.742188 155.726562 C 272.238281 156.070312 274.789062 156.121094 277.304688 155.925781 C 279.820312 155.769531 282.289062 155.289062 284.691406 154.640625 C 289.515625 153.382812 294.066406 151.292969 298.320312 148.769531 C 300.4375 147.488281 302.511719 146.113281 304.429688 144.523438 C 305.347656 143.675781 306.304688 142.875 307.089844 141.890625 C 307.484375 141.398438 307.917969 140.953125 308.257812 140.417969 C 308.613281 139.902344 308.878906 139.300781 308.714844 138.429688 C 307.785156 138.492188 307.292969 138.824219 306.890625 139.242188 C 306.507812 139.679688 306.019531 140.023438 305.597656 140.417969 C 305.175781 140.816406 304.730469 141.191406 304.269531 141.550781 C 303.816406 141.914062 303.378906 142.296875 302.914062 142.644531 C 301.054688 144.050781 299.085938 145.316406 297.007812 146.402344 C 292.800781 148.480469 288.316406 149.980469 283.785156 151.027344 C 279.238281 152.054688 274.683594 152.820312 270.082031 152.457031 C 267.792969 152.285156 265.527344 151.878906 263.320312 151.25 C 262.21875 150.929688 261.132812 150.558594 260.0625 150.128906 C 259.527344 149.914062 259.003906 149.683594 258.488281 149.425781 Z M 60.613281 94.734375 C 62.089844 95.261719 63.851562 94.613281 64.550781 93.285156 C 65.25 91.953125 64.617188 90.449219 63.144531 89.917969 C 61.667969 89.390625 59.90625 90.039062 59.207031 91.367188 C 58.507812 92.699219 59.136719 94.207031 60.613281 94.734375 Z M 64.027344 87.105469 C 66.148438 87.867188 68.683594 86.933594 69.6875 85.019531 C 70.691406 83.109375 69.785156 80.945312 67.664062 80.183594 C 65.542969 79.425781 63.007812 80.359375 62.003906 82.269531 C 61 84.179688 61.90625 86.347656 64.027344 87.105469 Z M 58.820312 95.890625 C 61.480469 97.386719 65.054688 96.289062 66.382812 93.761719 C 66.859375 92.851562 66.972656 91.898438 66.777344 91.019531 C 66.597656 90.207031 67.207031 89.382812 68.109375 89.054688 C 70.191406 88.296875 71.914062 86.679688 72.460938 84.464844 C 72.988281 82.304688 72.054688 80.0625 70.097656 78.820312 C 66.539062 76.5625 61.566406 78.003906 59.75 81.460938 C 58.898438 83.078125 58.910156 84.808594 59.617188 86.253906 C 60.007812 87.050781 59.816406 88.050781 58.96875 88.585938 C 58.03125 89.179688 57.289062 90.039062 56.921875 91.109375 C 56.296875 92.929688 57.078125 94.914062 58.820312 95.890625 Z M 52.042969 92.761719 L 59.039062 77.023438 C 60.070312 74.707031 62.625 73.480469 65.074219 74.128906 L 73.15625 76.257812 C 76.238281 77.070312 77.855469 80.457031 76.550781 83.363281 L 69.449219 99.1875 C 68.402344 101.515625 65.8125 102.730469 63.355469 102.046875 L 55.382812 99.832031 C 52.34375 98.988281 50.765625 95.640625 52.042969 92.761719 Z M 21.257812 165.777344 L 44.035156 171.738281 C 44.191406 171.777344 44.351562 171.800781 44.507812 171.800781 C 45.335938 171.800781 46.09375 171.242188 46.316406 170.402344 C 46.574219 169.402344 45.976562 168.382812 44.980469 168.121094 L 22.207031 162.164062 C 21.203125 161.902344 20.183594 162.5 19.925781 163.496094 C 19.664062 164.496094 20.261719 165.515625 21.257812 165.777344 Z M 107.191406 79.578125 L 90.730469 122.058594 C 89.441406 121.710938 88.011719 121.945312 86.257812 123.261719 L 103.707031 78.230469 C 104.078125 77.269531 105.160156 76.789062 106.125 77.164062 C 107.085938 77.535156 107.566406 78.617188 107.191406 79.578125"/></g><g id="change5_1"><path fill="#f93822" d="M 248.117188 48.917969 C 247.589844 49.257812 247.066406 49.609375 246.589844 50.007812 C 245.628906 50.804688 244.753906 51.691406 243.894531 52.59375 C 242.183594 54.402344 240.570312 56.3125 239.101562 58.335938 C 237.628906 60.363281 236.386719 62.558594 235.320312 64.835938 C 234.851562 66.011719 234.355469 67.164062 234.019531 68.386719 C 233.585938 69.558594 233.363281 70.851562 233.863281 72.203125 C 235 71.203125 235.246094 70.085938 235.734375 68.992188 C 236.144531 67.882812 236.71875 66.835938 237.253906 65.785156 C 238.394531 63.703125 239.695312 61.71875 241.097656 59.792969 C 242.53125 57.890625 244.0625 56.050781 245.703125 54.308594 L 248.199219 51.722656 C 248.605469 51.28125 248.992188 50.816406 249.375 50.34375 C 249.742188 49.847656 250.234375 49.527344 250.144531 48.449219 C 249.101562 48.132812 248.667969 48.609375 248.117188 48.917969 Z M 221.777344 120.132812 C 221.445312 120.96875 221.105469 121.804688 220.855469 122.660156 C 220.332031 124.375 219.921875 126.117188 219.558594 127.867188 C 218.8125 131.367188 218.222656 134.910156 217.878906 138.488281 C 217.507812 142.0625 217.40625 145.6875 217.789062 149.300781 C 217.847656 150.203125 217.996094 151.101562 218.171875 152 C 218.34375 152.894531 218.445312 153.796875 218.742188 154.671875 C 219.023438 155.542969 219.171875 156.453125 219.617188 157.265625 C 220.078125 158.078125 220.601562 158.859375 221.316406 159.492188 C 221.375 158.480469 221.238281 157.617188 221.039062 156.78125 C 220.871094 155.941406 220.707031 155.09375 220.511719 154.261719 C 220.285156 153.4375 220.246094 152.566406 220.132812 151.714844 C 220.023438 150.859375 219.933594 150.007812 219.933594 149.136719 C 219.714844 145.6875 219.988281 142.203125 220.320312 138.738281 C 220.664062 135.265625 221.25 131.808594 221.992188 128.386719 L 223.128906 123.253906 C 223.304688 122.390625 223.460938 121.527344 223.59375 120.652344 C 223.722656 119.773438 224.035156 118.964844 223.453125 117.851562 C 222.320312 118.421875 222.144531 119.3125 221.777344 120.132812 Z M 272.804688 15.539062 C 272.351562 15.53125 271.917969 15.660156 271.476562 15.75 C 270.644531 16.011719 269.808594 16.304688 269.039062 16.683594 C 267.503906 17.449219 266.050781 18.351562 264.742188 19.402344 C 263.417969 20.429688 262.171875 21.535156 260.96875 22.6875 C 260.371094 23.261719 259.773438 23.839844 259.25 24.488281 C 258.988281 24.8125 258.765625 25.171875 258.550781 25.539062 C 258.367188 25.933594 258.019531 26.1875 258.421875 27.09375 C 259.359375 27.390625 259.566406 27.046875 259.941406 26.84375 C 260.285156 26.617188 260.625 26.386719 260.933594 26.128906 C 261.546875 25.609375 262.113281 25.042969 262.691406 24.488281 C 263.851562 23.386719 265.054688 22.34375 266.277344 21.339844 C 267.511719 20.339844 268.761719 19.394531 270.070312 18.570312 C 270.714844 18.136719 271.386719 17.796875 272.070312 17.464844 C 272.414062 17.335938 272.769531 17.246094 273.101562 17.019531 C 273.433594 16.84375 273.765625 16.628906 274.167969 16.148438 C 273.761719 15.761719 273.277344 15.613281 272.804688 15.539062 Z M 162.609375 87.492188 C 161.152344 88.863281 159.792969 90.269531 158.285156 90.515625 C 156.769531 90.800781 154.929688 90.203125 153.171875 89.488281 C 152.222656 89.105469 151.21875 88.699219 150.140625 88.453125 C 149.070312 88.199219 147.890625 88.023438 146.617188 88.289062 C 145.335938 88.539062 144.152344 89.402344 143.445312 90.378906 C 142.714844 91.351562 142.28125 92.382812 141.914062 93.378906 C 141.726562 93.882812 141.574219 94.378906 141.421875 94.878906 C 141.277344 95.21875 141.171875 95.546875 140.96875 95.761719 C 140.617188 96.210938 140.035156 96.46875 139.21875 96.53125 C 138.417969 96.605469 137.503906 96.484375 136.578125 96.316406 C 135.636719 96.144531 134.8125 95.730469 133.527344 96.066406 C 134.011719 97.339844 135.050781 97.6875 136.019531 98.117188 C 137.007812 98.539062 138.082031 98.84375 139.285156 98.871094 C 140.453125 98.914062 141.960938 98.484375 142.875 97.347656 C 143.351562 96.804688 143.582031 96.175781 143.808594 95.585938 C 143.953125 95.128906 144.089844 94.664062 144.253906 94.226562 C 144.570312 93.34375 144.941406 92.507812 145.417969 91.878906 C 145.898438 91.246094 146.4375 90.859375 147.136719 90.703125 C 147.839844 90.550781 148.703125 90.636719 149.574219 90.851562 C 150.453125 91.046875 151.320312 91.390625 152.230469 91.753906 C 154.144531 92.507812 156.296875 93.335938 158.777344 92.824219 C 159.992188 92.558594 161.0625 91.898438 161.894531 91.195312 C 162.738281 90.488281 163.445312 89.746094 164.132812 89.011719 L 165.160156 87.929688 C 165.507812 87.617188 165.792969 87.289062 166.167969 87.035156 C 166.867188 86.484375 167.679688 86.066406 168.542969 85.773438 C 170.304688 85.210938 172.125 85.089844 174.222656 84.679688 C 170.5 82.273438 165.246094 84.433594 162.609375 87.492188 Z M 76.125 5.40625 C 75.917969 6.296875 75.847656 7.207031 75.953125 8.09375 C 75.96875 8.546875 76.101562 8.960938 76.1875 9.421875 L 76.570312 10.863281 C 76.832031 11.832031 77.09375 12.824219 77.253906 13.914062 C 77.414062 14.992188 77.417969 16.246094 77.003906 17.421875 C 76.140625 19.800781 74.304688 21.199219 72.660156 22.433594 C 71.871094 23.019531 71.125 23.578125 70.5 24.222656 C 69.859375 24.851562 69.332031 25.542969 69.09375 26.222656 C 68.863281 26.898438 68.90625 27.558594 69.195312 28.300781 C 69.480469 29.035156 69.996094 29.792969 70.582031 30.523438 C 70.867188 30.890625 71.191406 31.253906 71.507812 31.617188 C 71.890625 32.113281 72.304688 32.640625 72.515625 33.335938 C 73.003906 34.710938 72.582031 36.214844 71.933594 37.1875 C 71.277344 38.199219 70.453125 38.953125 69.578125 39.574219 C 68.703125 40.175781 67.859375 40.878906 66.523438 40.621094 C 66.910156 39.347656 67.699219 38.867188 68.339844 38.152344 C 68.964844 37.453125 69.546875 36.738281 69.90625 36.015625 C 70.277344 35.289062 70.363281 34.660156 70.167969 34.125 C 70.089844 33.839844 69.867188 33.578125 69.652344 33.273438 C 69.304688 32.882812 68.964844 32.492188 68.632812 32.074219 C 67.976562 31.234375 67.328125 30.328125 66.882812 29.191406 C 66.421875 28.082031 66.308594 26.617188 66.765625 25.394531 C 67.210938 24.171875 67.976562 23.257812 68.753906 22.484375 C 69.53125 21.691406 70.402344 21.050781 71.222656 20.441406 C 72.753906 19.324219 74.226562 18.066406 74.78125 16.628906 C 75.363281 15.214844 74.875 13.320312 74.476562 11.363281 C 73.253906 7.511719 74.167969 1.90625 78.167969 -0.00390625 C 77.417969 2 76.566406 3.617188 76.125 5.40625"/></g></g></svg>