<?xml version="1.0" encoding="UTF-8"?><svg xmlns="http://www.w3.org/2000/svg" xmlns:xlink="http://www.w3.org/1999/xlink" contentScriptType="text/ecmascript" fill="#000000" width="442" zoomAndPan="magnify" contentStyleType="text/css" viewBox="44.1 37.6 442.0 440.0" height="440" preserveAspectRatio="xMidYMid meet" version="1"><g fill="#f1e510" id="change1_1"><path fill="inherit" d="M 346.699219 74.933594 C 353.683594 89.515625 365.519531 101.355469 380.101562 108.335938 C 365.519531 115.316406 353.683594 127.152344 346.699219 141.734375 C 339.71875 127.152344 327.882812 115.316406 313.292969 108.335938 C 327.882812 101.355469 339.71875 89.515625 346.699219 74.933594 Z M 282.839844 115.230469 C 314.25 115.230469 339.808594 140.78125 339.808594 172.1875 C 339.808594 176 342.890625 179.082031 346.699219 179.082031 C 350.511719 179.082031 353.59375 176 353.59375 172.1875 C 353.59375 140.78125 379.144531 115.230469 410.554688 115.230469 C 414.363281 115.230469 417.449219 112.144531 417.449219 108.335938 C 417.449219 104.523438 414.363281 101.441406 410.554688 101.441406 C 379.144531 101.441406 353.59375 75.890625 353.59375 44.480469 C 353.59375 40.671875 350.511719 37.589844 346.699219 37.589844 C 342.890625 37.589844 339.808594 40.671875 339.808594 44.480469 C 339.808594 75.890625 314.25 101.441406 282.839844 101.441406 C 279.03125 101.441406 275.945312 104.523438 275.945312 108.335938 C 275.945312 112.144531 279.03125 115.230469 282.839844 115.230469"/><path fill="inherit" d="M 99.625 364.433594 C 94.554688 355.265625 86.960938 347.667969 77.789062 342.597656 C 86.960938 337.53125 94.554688 329.933594 99.625 320.765625 C 104.695312 329.933594 112.289062 337.53125 121.457031 342.597656 C 112.289062 347.667969 104.695312 355.265625 99.625 364.433594 Z M 148.234375 335.703125 C 125.234375 335.703125 106.519531 316.996094 106.519531 293.996094 C 106.519531 290.183594 103.433594 287.101562 99.625 287.101562 C 95.8125 287.101562 92.730469 290.183594 92.730469 293.996094 C 92.730469 316.996094 74.011719 335.703125 51.015625 335.703125 C 47.203125 335.703125 44.121094 338.789062 44.121094 342.597656 C 44.121094 346.410156 47.203125 349.492188 51.015625 349.492188 C 74.011719 349.492188 92.730469 368.210938 92.730469 391.210938 C 92.730469 395.019531 95.8125 398.105469 99.625 398.105469 C 103.433594 398.105469 106.519531 395.019531 106.519531 391.210938 C 106.519531 368.210938 125.234375 349.492188 148.234375 349.492188 C 152.046875 349.492188 155.128906 346.410156 155.128906 342.597656 C 155.128906 338.789062 152.046875 335.703125 148.234375 335.703125"/><path fill="inherit" d="M 395.203125 401.738281 C 339.410156 457.519531 268.675781 477.5625 237.53125 446.417969 L 229.15625 438.042969 C 233.226562 438.628906 237.386719 439.058594 241.773438 439.058594 C 251.574219 439.058594 262.125 437.589844 273.234375 434.628906 C 306.007812 425.882812 340.121094 404.996094 369.289062 375.824219 C 398.460938 346.660156 419.347656 312.542969 428.09375 279.769531 C 432.378906 263.707031 433.417969 248.882812 431.535156 235.722656 L 439.882812 244.066406 C 471.03125 275.21875 450.988281 345.953125 395.203125 401.738281 Z M 205.425781 307.6875 C 207.65625 303.523438 210.132812 299.359375 212.753906 295.195312 C 215.878906 290.238281 219.328125 285.308594 222.980469 280.40625 C 225.929688 276.453125 229.042969 272.542969 232.328125 268.664062 C 236.800781 263.382812 241.46875 258.15625 246.546875 253.082031 C 259.992188 239.636719 274.316406 228.386719 288.734375 219.308594 C 292.902344 216.6875 297.0625 214.335938 301.226562 212.101562 C 323.339844 200.238281 345.183594 193.71875 363.988281 193.71875 C 380.257812 193.71875 394.261719 198.445312 404.21875 208.402344 C 418.800781 222.984375 422.542969 247.070312 414.769531 276.207031 C 406.640625 306.679688 387.023438 338.59375 359.539062 366.074219 C 332.058594 393.558594 300.144531 413.179688 269.671875 421.304688 C 240.53125 429.082031 216.449219 425.324219 201.867188 410.753906 C 180.378906 389.265625 183.265625 348.945312 205.425781 307.6875 Z M 149.191406 256.859375 C 111.59375 219.257812 97.269531 170.054688 117.910156 149.410156 L 119.558594 147.765625 C 118.164062 175.832031 134.140625 211.382812 164.398438 241.644531 C 178.894531 256.140625 194.589844 267.199219 210.109375 274.792969 C 206.316406 280.058594 202.722656 285.359375 199.5 290.703125 C 182.644531 284.003906 164.929688 272.597656 149.191406 256.859375 Z M 142.875 124.445312 C 149.304688 118.015625 158.503906 114.980469 169.261719 114.980469 C 193.039062 114.980469 224.433594 129.832031 250.320312 155.71875 C 265.800781 171.199219 277.382812 188.667969 284.269531 205.972656 C 267.945312 215.804688 251.816406 228.308594 236.796875 243.332031 C 230.300781 249.828125 224.375 256.5625 218.824219 263.398438 C 203.371094 256.382812 187.964844 245.710938 174.148438 231.894531 C 136.554688 194.296875 122.234375 145.089844 142.875 124.445312 Z M 449.628906 234.316406 L 413.96875 198.652344 C 388.644531 173.339844 342.671875 175.242188 296.46875 199.152344 C 289.023438 181.242188 276.910156 162.8125 260.070312 145.972656 C 215.722656 101.617188 159.957031 87.875 133.125 114.699219 L 108.160156 139.664062 C 81.339844 166.484375 95.082031 222.246094 139.441406 266.605469 C 156.285156 283.449219 174.71875 295.542969 192.632812 302.980469 C 168.703125 349.1875 166.785156 395.175781 192.117188 420.503906 L 227.78125 456.167969 C 240.148438 468.535156 257.425781 474.410156 277.265625 474.410156 C 316.019531 474.410156 364.496094 451.945312 404.953125 411.488281 C 466.117188 350.320312 486.160156 270.84375 449.628906 234.316406"/></g></svg>