<?xml version="1.0" encoding="UTF-8"?><svg xmlns="http://www.w3.org/2000/svg" xmlns:xlink="http://www.w3.org/1999/xlink" contentScriptType="text/ecmascript" fill="#000000" width="421.9" zoomAndPan="magnify" contentStyleType="text/css" viewBox="-3.7 -1.2 421.9 496.8" height="496.8" preserveAspectRatio="xMidYMid meet" version="1"><defs><clipPath id="a"><path d="M 30 0 L 418.210938 0 L 418.210938 495.660156 L 30 495.660156 Z M 30 0"/></clipPath></defs><g><g id="change1_1"><path fill="#ffffff" d="M 120.5625 316.449219 C 115.507812 316.53125 110.746094 313.980469 108.101562 309.671875 C 104.496094 303.796875 101.800781 296.804688 99.523438 289.796875 C 99.535156 289.792969 99.546875 289.785156 99.558594 289.78125 C 116.160156 317.03125 269.417969 306.972656 269.417969 306.972656 L 272.09375 313.980469 Z M 191.820312 198.332031 C 192.175781 198.125 192.40625 197.824219 192.554688 197.472656 C 192.578125 199.214844 192.636719 201.910156 192.78125 204.421875 C 191.707031 202.984375 190.617188 201.480469 189.511719 199.921875 C 190.351562 199.292969 191.191406 198.703125 191.820312 198.332031 Z M 192.933594 192.996094 C 192.800781 193.871094 192.695312 194.570312 192.628906 195.019531 C 192.441406 194.105469 192.140625 193.371094 192.140625 193.371094 C 192.429688 193.257812 192.683594 193.128906 192.933594 192.996094 Z M 199.410156 212.882812 C 199.34375 212.804688 199.273438 212.71875 199.207031 212.636719 C 199.3125 212.671875 199.417969 212.707031 199.527344 212.742188 C 199.488281 212.789062 199.449219 212.835938 199.410156 212.882812 Z M 351.152344 405.941406 L 351.816406 405.691406 L 340.542969 336.191406 C 344.269531 334.050781 348.503906 331.4375 353.578125 328.09375 C 374.699219 314.171875 358.378906 293.054688 343.5 294.011719 C 342.816406 294.058594 342.03125 294.222656 341.191406 294.460938 C 352.316406 268.59375 366.839844 232.003906 363.5 224.414062 C 360.523438 217.648438 340.3125 211.953125 323.238281 208.269531 C 321.664062 187.019531 318.285156 164.65625 311.339844 150.492188 C 296.960938 121.1875 262.378906 139.933594 253.738281 148.894531 C 245.921875 157 234.132812 170.757812 222.359375 184.894531 C 221.816406 183.878906 221.339844 183.214844 221.339844 183.214844 C 221.339844 183.214844 221.261719 182.894531 220.21875 179.933594 C 219.179688 176.972656 218.460938 178.332031 218.140625 174.652344 C 217.820312 170.972656 214.140625 170.171875 214.140625 170.171875 C 214.140625 170.171875 217.261719 166.414062 217.339844 164.972656 C 217.421875 163.535156 215.261719 160.652344 212.140625 160.574219 C 209.492188 160.507812 201.148438 166.308594 198.679688 168.070312 C 197.304688 166.296875 192.664062 162.046875 190.21875 160.894531 C 187.5 159.613281 183.199219 160.273438 183.199219 160.273438 C 183.199219 160.273438 174.859375 162.792969 173.136719 163.429688 C 172.296875 163.742188 171.253906 164.398438 170.105469 165.269531 C 164.171875 147.859375 163.574219 123.789062 149.898438 113.535156 C 140.546875 106.519531 126.566406 101.132812 112.289062 97.507812 C 115.652344 94.128906 118.9375 88.472656 120.621094 79.453125 C 124.140625 60.574219 122.539062 22.175781 122.539062 22.175781 C 113.261719 -0.546875 91.5 -1.183594 67.820312 10.65625 C 44.140625 22.492188 60.25 67.671875 61.101562 73.054688 C 62.425781 81.445312 61.617188 88.347656 59.988281 93.792969 C 41.84375 99.367188 10.726562 106.53125 2.21875 133.535156 C -3.667969 152.222656 3.140625 180.621094 11.117188 201.714844 C 11.574219 203.179688 12.300781 205.371094 13.273438 207.945312 C 5.746094 207.480469 -1.113281 214.203125 0.40625 222.507812 C 4.839844 246.761719 12.828125 283.660156 24.140625 309.851562 C 35.660156 336.53125 76.65625 359.195312 99.035156 369.929688 C 108.199219 374.324219 118.246094 376.574219 128.410156 376.574219 L 295.960938 376.574219 L 312.617188 420.25 L 314.078125 419.710938 C 316.765625 429.5 320.4375 441.761719 322.699219 444.734375 C 337.578125 464.25 364.617188 439.613281 364.617188 439.613281 L 351.152344 405.941406"/></g><g id="change2_1" clip-path="url(#a)"><path fill="#8c9cbc" d="M 65.722656 67.484375 L 66.546875 66.449219 C 62.929688 64.550781 60.566406 58.015625 61.882812 51.613281 C 63.019531 46.085938 67.402344 47.628906 70.261719 49.328125 C 71.929688 50.320312 73.035156 52.039062 73.277344 53.964844 C 73.410156 55.035156 73.527344 56.324219 73.566406 57.664062 L 76.390625 54.128906 C 77.277344 53.019531 77.480469 51.554688 76.910156 50.285156 C 75.789062 47.792969 73.984375 43.289062 73.1875 38.679688 C 73.4375 38.820312 73.582031 38.894531 73.582031 38.894531 C 73.582031 38.894531 119.179688 49.453125 125.179688 36.492188 C 131.179688 23.535156 135.738281 -0.707031 90.378906 0.015625 C 73.761719 0.277344 58.257812 10.625 54.511719 18.214844 C 41.46875 26.261719 52.941406 54.503906 58.761719 66.792969 C 60.027344 69.457031 63.847656 69.832031 65.722656 67.484375 Z M 117.339844 57.730469 C 116.820312 56.238281 115.1875 55.449219 113.691406 55.972656 C 112.199219 56.492188 111.410156 58.125 111.933594 59.621094 C 112.453125 61.113281 114.085938 61.902344 115.582031 61.378906 C 117.074219 60.859375 117.863281 59.226562 117.339844 57.730469 Z M 91.941406 55.679688 C 90.449219 56.199219 89.660156 57.832031 90.183594 59.324219 C 90.703125 60.820312 92.335938 61.609375 93.832031 61.085938 C 95.324219 60.566406 96.109375 58.933594 95.589844 57.4375 C 95.070312 55.945312 93.433594 55.15625 91.941406 55.679688 Z M 119.917969 47.957031 C 120.082031 47.90625 120.246094 47.835938 120.414062 47.761719 L 120.664062 47.640625 C 120.746094 47.621094 120.828125 47.476562 120.953125 46.875 C 120.90625 46.261719 120.816406 46.109375 120.726562 46.078125 L 120.457031 45.941406 C 120.277344 45.859375 120.097656 45.785156 119.914062 45.738281 C 119.550781 45.628906 119.183594 45.605469 118.8125 45.5625 C 118.078125 45.488281 117.324219 45.402344 116.601562 45.601562 C 115.871094 45.757812 115.179688 46.109375 114.503906 46.433594 L 113.472656 46.859375 C 113.304688 46.933594 113.144531 47.039062 112.996094 47.167969 L 112.78125 47.378906 C 112.714844 47.445312 112.679688 47.613281 112.808594 48.140625 C 113.101562 48.605469 113.230469 48.710938 113.320312 48.714844 L 113.589844 48.734375 C 113.761719 48.734375 113.929688 48.726562 114.089844 48.695312 C 114.40625 48.621094 114.722656 48.554688 115.050781 48.527344 C 115.714844 48.507812 116.382812 48.578125 117.027344 48.546875 C 117.671875 48.550781 118.296875 48.324219 118.941406 48.1875 C 119.265625 48.113281 119.59375 48.066406 119.917969 47.957031 Z M 114.023438 82.902344 C 114.28125 82.382812 114.484375 81.847656 114.640625 81.296875 C 114.796875 80.761719 114.980469 80.179688 114.390625 79.5 C 113.589844 79.859375 113.449219 80.292969 113.226562 80.746094 C 112.992188 81.1875 112.746094 81.613281 112.476562 82.015625 C 111.945312 82.828125 111.316406 83.550781 110.59375 84.132812 C 109.148438 85.324219 107.238281 85.742188 105.34375 85.542969 C 103.410156 85.347656 101.59375 84.722656 100.3125 83.636719 C 99.65625 83.101562 99.164062 82.414062 98.730469 81.667969 C 98.644531 81.511719 98.5625 81.339844 98.484375 81.164062 C 99.207031 81.339844 99.929688 81.488281 100.664062 81.601562 C 102.183594 81.878906 103.734375 81.941406 105.277344 81.917969 C 106.820312 81.886719 108.359375 81.675781 109.851562 81.304688 C 110.601562 81.132812 111.339844 80.898438 112.0625 80.640625 C 112.78125 80.398438 113.515625 80.027344 113.898438 79.101562 C 112.957031 78.816406 112.292969 78.9375 111.605469 79.128906 C 110.914062 79.285156 110.21875 79.421875 109.515625 79.496094 C 108.109375 79.660156 106.695312 79.707031 105.289062 79.660156 C 103.886719 79.5625 102.484375 79.4375 101.109375 79.136719 C 99.726562 78.871094 98.378906 78.445312 97.046875 77.984375 L 97.03125 77.980469 C 96.890625 77.929688 96.734375 77.90625 96.578125 77.90625 C 95.839844 77.921875 95.253906 78.527344 95.265625 79.265625 C 95.289062 80.65625 95.578125 81.777344 96.089844 82.957031 C 96.585938 84.121094 97.433594 85.144531 98.417969 85.953125 C 100.453125 87.585938 102.980469 88.035156 105.261719 87.996094 C 107.585938 87.996094 110.058594 87.246094 111.875 85.667969 C 112.792969 84.898438 113.496094 83.925781 114.023438 82.902344 Z M 101.921875 70.265625 C 101.648438 70.433594 101.390625 70.621094 101.128906 70.808594 C 100.855469 70.976562 100.609375 71.1875 100.609375 71.898438 C 101.175781 72.320312 101.496094 72.25 101.792969 72.132812 C 102.097656 72.03125 102.402344 71.9375 102.699219 71.820312 C 103.300781 71.597656 103.875 71.328125 104.457031 71.070312 C 105.601562 70.523438 106.757812 69.992188 107.941406 69.519531 C 108.339844 69.359375 108.609375 68.957031 108.582031 68.503906 L 108.570312 68.308594 C 108.414062 65.695312 108.285156 63.082031 107.722656 60.527344 L 106.929688 56.691406 C 106.777344 56.054688 106.628906 55.417969 106.4375 54.789062 C 106.34375 54.472656 106.242188 54.15625 106.132812 53.84375 C 105.996094 53.535156 106.089844 53.191406 105.164062 52.996094 C 104.335938 53.445312 104.519531 53.75 104.480469 54.085938 C 104.464844 54.417969 104.453125 54.746094 104.453125 55.074219 C 104.449219 55.734375 104.492188 56.390625 104.523438 57.042969 L 104.859375 60.945312 C 105.027344 63.300781 105.554688 65.601562 106.09375 67.902344 C 105.261719 68.386719 104.417969 68.855469 103.570312 69.304688 C 103.015625 69.617188 102.457031 69.917969 101.921875 70.265625 Z M 97.347656 49.777344 L 97.757812 49.867188 C 97.882812 49.917969 98.070312 49.855469 98.519531 49.421875 C 98.730469 48.835938 98.675781 48.628906 98.566406 48.53125 L 98.25 48.195312 C 98.03125 47.988281 97.808594 47.777344 97.566406 47.601562 C 97.085938 47.234375 96.558594 46.953125 96.027344 46.671875 C 94.960938 46.128906 93.820312 45.589844 92.546875 45.488281 C 91.285156 45.351562 89.964844 45.523438 88.734375 45.941406 C 88.125 46.179688 87.5 46.363281 86.953125 46.726562 C 86.675781 46.894531 86.40625 47.074219 86.203125 47.332031 L 85.898438 47.714844 C 85.800781 47.839844 85.765625 48.050781 86.019531 48.53125 C 86.492188 48.84375 86.679688 48.882812 86.804688 48.835938 L 87.167969 48.703125 C 87.386719 48.589844 87.628906 48.535156 87.847656 48.445312 C 88.269531 48.226562 88.746094 48.140625 89.207031 48.054688 C 90.171875 48 91.121094 48.234375 92.074219 48.429688 C 93.015625 48.664062 94.027344 48.816406 95.035156 49.109375 L 96.550781 49.578125 C 96.8125 49.648438 97.078125 49.71875 97.347656 49.777344 Z M 215.160156 137.644531 C 213.761719 137.644531 212.253906 139.007812 211.730469 140.746094 C 211.417969 141.785156 211.515625 142.753906 212.003906 143.414062 C 212.359375 143.894531 212.890625 144.160156 213.507812 144.160156 L 213.519531 144.160156 C 214.917969 144.160156 216.425781 142.800781 216.949219 141.058594 C 217.261719 140.023438 217.160156 139.050781 216.675781 138.394531 C 216.320312 137.914062 215.785156 137.648438 215.160156 137.644531 Z M 280.722656 288.433594 L 282.074219 299.085938 C 282.214844 300.203125 282.332031 301.324219 282.449219 302.445312 C 287.335938 299.183594 308.214844 285.371094 311.179688 285.371094 C 311.949219 285.371094 313.035156 285.933594 314.351562 286.765625 L 314.300781 285.957031 C 314.03125 282.941406 313.707031 279.929688 313.53125 276.914062 C 313.320312 273.894531 313.363281 270.871094 313.34375 267.84375 C 313.34375 266.332031 313.320312 264.820312 313.375 263.308594 C 313.386719 262.550781 313.433594 261.792969 313.480469 261.035156 L 313.53125 260.335938 C 313.171875 260.253906 312.816406 260.171875 312.453125 260.105469 C 308.503906 259.394531 304.417969 259.460938 300.410156 260.085938 C 296.402344 260.707031 292.433594 261.769531 288.601562 263.210938 C 285.023438 264.519531 281.484375 266.140625 278.21875 268.019531 C 279.054688 274.824219 279.8125 281.640625 280.722656 288.433594 Z M 332.796875 414.210938 L 313.277344 421.484375 C 312.5625 421.75 311.765625 421.417969 311.445312 420.734375 L 311.4375 420.714844 C 309.035156 415.546875 306.703125 410.339844 304.628906 405.03125 C 302.5 399.746094 300.558594 394.382812 298.707031 388.996094 C 298.457031 388.238281 298.210938 387.480469 297.960938 386.726562 L 296.777344 476.199219 L 277.578125 476.199219 L 276.265625 376.574219 L 294.71875 376.574219 C 294.320312 375.285156 293.933594 373.992188 293.558594 372.699219 C 292.765625 369.960938 292.003906 367.214844 291.351562 364.4375 C 291.023438 363.050781 290.726562 361.65625 290.429688 360.261719 C 290.222656 359.324219 290.03125 358.371094 290.046875 357.382812 C 288.363281 357.664062 286.714844 357.789062 285.027344 357.773438 C 283.265625 357.746094 281.476562 357.546875 279.722656 357.039062 C 278.453125 356.679688 277.203125 356.101562 276.097656 355.300781 C 275.980469 355.308594 275.882812 355.3125 275.820312 355.292969 C 275.277344 355.136719 274.734375 354.546875 274.253906 353.535156 C 273.285156 352.304688 272.644531 350.847656 272.378906 349.382812 C 272.21875 348.488281 272.144531 347.59375 272.152344 346.710938 C 272.144531 346.011719 272.28125 345.308594 272.675781 344.660156 C 272.429688 336.167969 274.300781 322.632812 281.039062 304.179688 C 280.773438 302.566406 280.484375 300.957031 280.242188 299.339844 L 278.675781 288.714844 C 277.683594 281.621094 276.515625 274.554688 275.449219 267.476562 C 275.371094 266.945312 275.625 266.4375 276.054688 266.164062 C 279.742188 263.847656 283.550781 262 287.542969 260.417969 C 291.550781 258.921875 295.703125 257.710938 299.992188 257.148438 C 304.273438 256.582031 308.679688 256.59375 312.96875 257.480469 C 315.109375 257.921875 317.195312 258.617188 319.203125 259.492188 C 320.546875 260.089844 321.824219 260.808594 323.054688 261.605469 C 323.136719 259.496094 323.222656 257.386719 323.347656 255.277344 L 323.570312 251.039062 C 323.640625 249.625 323.671875 248.210938 324.460938 246.8125 C 325.191406 248.242188 325.171875 249.65625 325.1875 251.070312 L 325.253906 255.3125 C 325.3125 258.140625 325.300781 260.96875 325.308594 263.796875 C 325.3125 264.433594 324.796875 264.953125 324.15625 264.953125 C 323.917969 264.957031 323.695312 264.882812 323.515625 264.761719 L 323.441406 264.714844 C 321.773438 263.605469 320.050781 262.566406 318.199219 261.804688 C 317.238281 261.417969 316.265625 261.074219 315.273438 260.78125 L 315.300781 260.960938 C 315.40625 261.714844 315.511719 262.464844 315.582031 263.21875 C 315.753906 264.726562 315.855469 266.234375 315.972656 267.742188 C 316.191406 270.757812 316.476562 273.769531 316.507812 276.792969 C 316.570312 279.816406 316.484375 282.84375 316.460938 285.871094 L 316.492188 288.191406 C 320.859375 291.167969 326.796875 295.273438 332.460938 294.011719 C 341.097656 292.09375 361.738281 292.253906 356.777344 307.933594 C 354.113281 316.351562 294.398438 348.230469 279.199219 354.304688 C 280.988281 354.960938 283.03125 355.179688 285.023438 355.144531 C 286.605469 355.109375 288.222656 354.929688 289.746094 354.605469 C 290 354.546875 290.453125 354.394531 290.839844 354.28125 L 292.027344 353.90625 L 294.410156 353.144531 L 303.914062 350.007812 C 310.253906 347.917969 316.554688 345.695312 322.785156 343.285156 L 327.414062 341.371094 L 331.996094 339.355469 C 333.515625 338.660156 335.03125 337.964844 336.574219 337.316406 L 338.851562 336.273438 C 339.613281 335.925781 340.421875 335.671875 341.417969 335.773438 C 340.925781 336.632812 340.238281 337.140625 339.507812 337.554688 L 337.304688 338.796875 C 335.824219 339.597656 334.316406 340.351562 332.8125 341.101562 C 329.773438 342.550781 326.699219 343.921875 323.617188 345.277344 C 317.472656 348.03125 311.21875 350.53125 304.886719 352.820312 C 301.699219 353.914062 298.523438 355.027344 295.28125 355.957031 L 292.851562 356.660156 L 291.632812 357 C 291.402344 357.058594 291.191406 357.121094 290.953125 357.1875 C 291.378906 358.070312 291.636719 358.988281 291.878906 359.914062 C 292.253906 361.277344 292.632812 362.636719 293.046875 363.992188 C 293.832031 366.710938 294.632812 369.421875 295.46875 372.125 C 295.925781 373.613281 296.398438 375.09375 296.882812 376.574219 L 298.09375 376.574219 L 298.050781 380.085938 C 298.976562 382.800781 299.941406 385.503906 300.960938 388.1875 C 303 393.46875 305.0625 398.738281 307.296875 403.933594 C 308.382812 406.546875 309.566406 409.117188 310.660156 411.722656 L 313.574219 418.25 L 331.960938 411.890625 C 335.242188 410.753906 338.535156 409.660156 341.835938 408.570312 L 346.796875 406.980469 C 348.464844 406.492188 350.027344 405.714844 351.980469 406.011719 C 350.664062 407.484375 348.960938 407.878906 347.363281 408.5625 L 342.523438 410.492188 C 339.289062 411.75 336.050781 413.003906 332.796875 414.210938 Z M 256.847656 263.199219 C 254.277344 262.945312 251.707031 262.773438 249.144531 262.746094 C 244.007812 262.628906 238.890625 262.792969 233.78125 263.03125 C 223.5625 263.519531 213.375 264.328125 203.226562 265.453125 C 193.082031 266.609375 182.964844 267.953125 172.863281 269.417969 L 157.710938 271.542969 C 155.1875 271.917969 152.664062 272.296875 150.152344 272.738281 L 146.378906 273.386719 C 145.125 273.609375 143.878906 273.925781 142.699219 274.652344 C 144.039062 275.003906 145.320312 274.953125 146.585938 274.8125 L 150.382812 274.371094 C 152.917969 274.097656 155.445312 273.773438 157.972656 273.453125 L 173.140625 271.5625 C 183.269531 270.441406 193.402344 269.375 203.535156 268.410156 C 213.667969 267.421875 223.792969 266.375 233.933594 265.65625 C 244.089844 264.972656 254.1875 264.574219 264.300781 265.371094 C 263.800781 264.890625 263.203125 264.558594 262.597656 264.25 C 261.980469 264.027344 261.34375 263.867188 260.699219 263.738281 C 259.417969 263.503906 258.132812 263.339844 256.847656 263.199219 Z M 47.039062 105.929688 L 49.078125 107.550781 C 50.441406 108.632812 51.851562 109.648438 53.28125 110.632812 C 56.144531 112.605469 59.089844 114.449219 62.101562 116.199219 C 68.085938 119.753906 74.402344 122.890625 81.253906 124.804688 C 84.683594 125.699219 88.257812 126.328125 91.90625 126.183594 C 95.539062 125.996094 99.246094 125.105469 102.425781 123.039062 C 105.554688 120.921875 107.851562 117.585938 108.679688 114.019531 C 109.167969 112.253906 109.347656 110.441406 109.339844 108.652344 C 109.339844 107.757812 109.292969 106.867188 109.203125 105.980469 C 109.125 105.101562 108.902344 104.203125 108.140625 103.453125 C 107.691406 104.402344 107.621094 105.230469 107.648438 106.070312 C 107.652344 106.90625 107.621094 107.746094 107.542969 108.574219 C 107.40625 110.234375 107.058594 111.859375 106.5625 113.398438 C 105.609375 116.511719 103.632812 119.148438 101 120.832031 C 98.304688 122.453125 95.054688 123.167969 91.820312 123.238281 C 88.554688 123.242188 85.246094 122.773438 82.007812 121.925781 C 75.492188 120.304688 69.203125 117.507812 63.164062 114.3125 C 60.164062 112.667969 57.234375 110.886719 54.351562 109.027344 L 51.449219 107.132812 C 51.765625 107.007812 52.070312 106.855469 52.382812 106.71875 C 53.097656 106.347656 53.8125 105.929688 54.421875 105.398438 C 55.695312 104.390625 56.757812 103.140625 57.644531 101.816406 C 59.40625 99.15625 60.660156 96.21875 61.355469 93.195312 C 62.085938 90.179688 62.359375 87.105469 62.507812 84.066406 C 62.59375 82.542969 62.679688 81.027344 62.691406 79.507812 C 62.691406 78.746094 62.675781 77.988281 62.609375 77.226562 L 62.488281 76.089844 C 62.445312 75.710938 62.296875 75.328125 61.738281 74.972656 C 61.214844 75.367188 61.082031 75.738281 61.046875 76.109375 L 60.933594 77.21875 L 60.761719 79.4375 C 60.664062 80.914062 60.554688 82.390625 60.355469 83.855469 C 59.921875 86.78125 59.257812 89.65625 58.472656 92.445312 C 57.65625 95.214844 56.804688 97.972656 55.414062 100.421875 C 54.722656 101.648438 53.875 102.753906 52.9375 103.765625 C 52.46875 104.277344 51.953125 104.738281 51.410156 105.179688 C 51.132812 105.382812 50.867188 105.625 50.570312 105.808594 C 50.398438 105.90625 50.246094 106.042969 50.125 106.265625 L 50.042969 106.214844 L 47.90625 104.777344 C 47.191406 104.296875 46.433594 103.882812 45.417969 103.773438 C 45.757812 104.738281 46.371094 105.375 47.039062 105.929688 Z M 77.367188 88.324219 C 75.980469 86.769531 74.714844 85.105469 73.507812 83.398438 L 71.703125 80.828125 L 70.804688 79.535156 C 70.515625 79.097656 70.144531 78.71875 69.417969 78.492188 C 69.179688 79.21875 69.324219 79.761719 69.550781 80.246094 L 70.269531 81.699219 C 70.773438 82.652344 71.324219 83.578125 71.910156 84.480469 C 73.082031 86.289062 74.363281 88.023438 75.710938 89.714844 C 78.382812 93.101562 81.394531 96.339844 85.078125 98.824219 C 86.925781 100.035156 88.878906 101.15625 91.003906 101.898438 C 93.121094 102.644531 95.34375 103.121094 97.585938 103.277344 C 99.832031 103.46875 102.09375 103.222656 104.253906 102.703125 C 104.789062 102.558594 105.328125 102.425781 105.855469 102.257812 L 107.394531 101.640625 C 107.910156 101.453125 108.402344 101.214844 108.886719 100.953125 C 109.378906 100.71875 109.835938 100.378906 110.058594 99.613281 C 109.308594 99.265625 108.785156 99.332031 108.300781 99.511719 C 107.816406 99.683594 107.320312 99.839844 106.816406 99.941406 L 105.324219 100.296875 C 104.816406 100.359375 104.320312 100.453125 103.820312 100.539062 C 101.820312 100.792969 99.808594 100.945312 97.824219 100.660156 C 93.851562 100.179688 90.117188 98.535156 86.71875 96.339844 C 83.296875 94.164062 80.164062 91.40625 77.367188 88.324219 Z M 189.472656 201.652344 C 189.390625 201.71875 189.304688 201.78125 189.222656 201.847656 C 189.386719 202.046875 189.53125 202.257812 189.664062 202.46875 L 189.59375 202.222656 C 189.535156 202.039062 189.5 201.847656 189.472656 201.652344 Z M 190.335938 172.667969 C 190.242188 172.710938 190.144531 172.757812 190.050781 172.796875 C 190.199219 172.816406 190.351562 172.839844 190.5 172.859375 C 190.445312 172.796875 190.390625 172.734375 190.335938 172.667969 Z M 200.550781 195.589844 C 200.546875 195.589844 200.546875 195.578125 200.546875 195.574219 C 200.539062 195.59375 200.535156 195.601562 200.550781 195.589844 Z M 200.539062 195.417969 C 200.542969 195.433594 200.554688 195.46875 200.5625 195.492188 C 200.566406 195.464844 200.5625 195.4375 200.539062 195.417969 Z M 210.613281 211.988281 L 210.71875 211.878906 C 210.691406 211.894531 210.605469 211.9375 210.613281 211.988281 Z M 110.621094 227.605469 C 102.710938 229.335938 94.761719 230.894531 86.738281 231.976562 C 82.746094 232.625 78.710938 232.96875 74.691406 233.402344 C 72.679688 233.621094 70.65625 233.691406 68.640625 233.828125 C 66.617188 233.890625 64.621094 234.316406 62.539062 233.535156 C 64.472656 232.382812 66.488281 232.441406 68.480469 232.136719 C 70.472656 231.878906 72.472656 231.679688 74.453125 231.339844 C 78.425781 230.746094 82.40625 230.226562 86.359375 229.515625 C 94.289062 228.265625 102.136719 226.546875 109.933594 224.683594 L 115.777344 223.253906 L 121.585938 221.699219 C 125.457031 220.660156 129.316406 219.574219 133.140625 218.363281 C 140.773438 215.957031 148.4375 213.402344 155.6875 210.113281 L 155.714844 210.101562 C 155.851562 210.039062 156.003906 210.007812 156.148438 210.011719 C 160.472656 210.058594 164.804688 208.847656 168.886719 207.164062 C 170.925781 206.296875 172.945312 205.359375 174.898438 204.277344 C 176.1875 203.601562 177.367188 202.792969 178.671875 202.125 C 178.519531 202.09375 178.367188 202.066406 178.214844 202.03125 L 178.164062 202.019531 C 177.808594 201.941406 177.589844 201.585938 177.667969 201.234375 C 177.703125 201.085938 177.785156 200.960938 177.890625 200.871094 C 178.351562 200.496094 178.800781 200.25 179.277344 199.996094 C 179.746094 199.742188 180.25 199.558594 180.75 199.394531 C 181.761719 199.078125 182.835938 198.972656 183.859375 199.09375 C 182.867188 199.386719 181.953125 199.761719 181.109375 200.246094 C 180.710938 200.453125 180.339844 200.699219 179.96875 200.945312 L 183.363281 201.472656 C 184.175781 201.585938 185.003906 201.695312 185.78125 201.753906 C 185.960938 201.769531 186.191406 201.78125 186.269531 201.761719 C 186.34375 201.757812 186.480469 201.710938 186.613281 201.648438 C 186.890625 201.527344 187.207031 201.308594 187.511719 201.082031 C 188.769531 200.144531 189.851562 198.894531 191.464844 197.886719 C 192.277344 197.613281 192.304688 196.347656 192.058594 195.144531 C 191.867188 195.058594 191.679688 194.96875 191.503906 194.863281 C 191.089844 194.601562 190.671875 194.335938 190.230469 194.113281 C 189.332031 193.699219 188.398438 193.371094 187.527344 192.992188 C 186.640625 192.65625 185.859375 192.121094 185.011719 191.746094 C 184.589844 191.566406 184.15625 191.386719 183.734375 191.222656 C 183.523438 191.144531 183.308594 191.003906 183.09375 190.925781 L 182.761719 190.777344 C 182.648438 190.746094 182.546875 190.589844 182.421875 189.972656 C 182.546875 189.371094 182.695312 189.234375 182.835938 189.214844 L 183.265625 189.113281 C 183.558594 189.042969 183.835938 189.042969 184.125 189.035156 C 184.710938 189.007812 185.25 189.144531 185.800781 189.238281 C 186.894531 189.464844 187.964844 189.773438 188.886719 190.34375 C 189.828125 190.882812 190.632812 191.613281 191.425781 192.3125 L 192.449219 193.136719 C 193.472656 191.972656 194.488281 190.773438 195.378906 189.554688 C 195.40625 189.515625 195.441406 189.46875 195.472656 189.425781 C 195.496094 188.917969 195.554688 188.414062 195.703125 187.824219 C 195.734375 187.703125 195.785156 187.589844 195.851562 187.492188 C 195.816406 187.019531 195.765625 186.511719 195.738281 185.976562 C 195.503906 185.972656 195.269531 185.96875 195.039062 185.9375 C 194.421875 185.847656 193.808594 185.746094 193.1875 185.679688 C 191.9375 185.578125 190.675781 185.535156 189.445312 185.34375 C 188.207031 185.191406 187.019531 184.789062 185.820312 184.4375 C 185.222656 184.253906 184.617188 184.101562 184.03125 183.871094 C 183.734375 183.761719 183.445312 183.628906 183.15625 183.492188 L 182.722656 183.269531 C 182.574219 183.21875 182.453125 183.039062 182.421875 182.414062 C 182.691406 181.847656 182.875 181.734375 183.03125 181.738281 L 183.515625 181.703125 C 183.835938 181.691406 184.152344 181.679688 184.46875 181.691406 C 185.101562 181.707031 185.71875 181.796875 186.339844 181.859375 C 187.578125 182 188.832031 182.085938 190.03125 182.425781 C 191.242188 182.722656 192.421875 183.167969 193.613281 183.558594 C 194.210938 183.738281 194.816406 183.882812 195.421875 184.035156 C 195.550781 184.070312 195.671875 184.125 195.800781 184.167969 C 195.910156 183.425781 196.144531 182.667969 196.539062 181.996094 C 197.1875 180.980469 197.574219 180.636719 197.765625 179.945312 C 198.179688 178.679688 197.675781 177.015625 196.898438 175.800781 C 196.867188 175.75 196.851562 175.699219 196.828125 175.652344 L 196.285156 175.710938 C 195.847656 175.753906 195.40625 175.789062 194.972656 175.804688 C 194.097656 175.839844 193.230469 175.800781 192.359375 175.789062 C 190.621094 175.75 188.878906 175.765625 187.15625 175.527344 C 185.429688 175.328125 183.71875 174.976562 182 174.6875 C 181.140625 174.558594 180.277344 174.460938 179.414062 174.359375 C 178.984375 174.300781 178.554688 174.214844 178.128906 174.117188 L 177.488281 173.945312 C 177.277344 173.890625 177.070312 173.726562 176.898438 173.175781 C 177.160156 172.65625 177.390625 172.53125 177.609375 172.511719 L 178.265625 172.445312 C 178.703125 172.421875 179.140625 172.410156 179.574219 172.425781 C 180.441406 172.464844 181.308594 172.515625 182.179688 172.53125 C 183.410156 172.53125 184.640625 172.515625 185.867188 172.53125 C 186.015625 172.394531 186.171875 172.273438 186.332031 172.167969 C 186.75 171.898438 187.152344 171.597656 187.527344 171.257812 C 188.289062 170.585938 189.058594 169.929688 189.941406 169.472656 L 190.128906 169.378906 C 190.796875 169.035156 191.617188 169.292969 191.964844 169.960938 C 192.277344 170.550781 192.535156 171.175781 192.828125 171.777344 C 192.976562 172.078125 193.101562 172.394531 193.195312 172.730469 C 193.238281 172.902344 193.285156 173.070312 193.3125 173.25 C 193.3125 173.257812 193.316406 173.269531 193.316406 173.277344 C 193.929688 173.367188 194.546875 173.460938 195.15625 173.589844 C 195.585938 173.675781 196.011719 173.785156 196.4375 173.898438 L 197.074219 174.082031 C 197.089844 174.082031 197.105469 174.09375 197.121094 174.097656 C 197.8125 172.558594 198.257812 170.734375 198.308594 169.046875 C 198.28125 168.015625 198.242188 167.957031 197.320312 167.363281 C 196.453125 166.847656 195.4375 166.25 194.550781 165.582031 C 193.648438 164.941406 192.792969 164.136719 192.023438 163.457031 C 191.300781 162.78125 190.476562 162.25 189.632812 161.816406 C 188.777344 161.386719 187.871094 161.109375 186.949219 161.007812 C 186.066406 160.894531 185.019531 160.984375 184.34375 161.222656 L 184.308594 161.234375 C 184.246094 161.257812 184.175781 161.277344 184.109375 161.289062 C 182.140625 161.644531 180.148438 162.035156 178.226562 162.507812 C 177.277344 162.753906 176.289062 163 175.539062 163.351562 C 174.6875 163.761719 173.835938 164.21875 173.003906 164.75 C 169.671875 166.839844 166.539062 169.382812 163.664062 172.113281 C 162.234375 173.480469 160.859375 174.921875 159.703125 176.449219 C 159.070312 177.246094 158.769531 177.878906 158.007812 178.964844 C 157.304688 179.914062 156.480469 180.671875 155.632812 181.371094 C 152.1875 184.074219 148.40625 185.773438 144.441406 187.238281 C 144.3125 187.285156 144.179688 187.308594 144.050781 187.3125 L 143.992188 187.3125 C 137.085938 187.425781 130.179688 187.429688 123.269531 187.476562 L 102.550781 187.59375 L 61.167969 187.734375 C 57.796875 188.023438 54.515625 189.050781 51.484375 190.648438 C 48.457031 192.28125 45.695312 194.441406 43.226562 196.917969 C 40.757812 199.394531 38.566406 202.171875 36.605469 205.101562 C 34.605469 208.03125 33.125 211.203125 30.859375 214.09375 C 31.378906 210.402344 33.347656 207.28125 35.207031 204.195312 C 37.136719 201.136719 39.308594 198.207031 41.816406 195.550781 C 44.316406 192.890625 47.167969 190.511719 50.386719 188.65625 C 52.007812 187.75 53.714844 186.980469 55.488281 186.382812 C 57.277344 185.816406 59.125 185.457031 60.996094 185.257812 L 61.0625 185.253906 L 61.089844 185.253906 L 102.527344 184.753906 L 123.25 184.550781 C 130.070312 184.492188 136.894531 184.394531 143.71875 184.398438 C 147.304688 183.117188 150.964844 181.460938 153.886719 179.199219 C 154.609375 178.613281 155.296875 177.988281 155.804688 177.304688 C 156.230469 176.746094 156.894531 175.574219 157.539062 174.792969 C 158.859375 173.09375 160.320312 171.605469 161.835938 170.179688 C 164.886719 167.359375 168.132812 164.804688 171.714844 162.625 C 172.609375 162.078125 173.550781 161.582031 174.539062 161.128906 C 175.640625 160.648438 176.652344 160.433594 177.664062 160.183594 C 179.695312 159.71875 181.695312 159.355469 183.730469 159.019531 L 183.496094 159.085938 C 183.777344 158.992188 184.046875 158.925781 184.3125 158.871094 L 192.078125 137.726562 C 192.546875 136.445312 193.730469 135.566406 195.09375 135.484375 C 195.09375 135.484375 219.351562 134.050781 219.355469 134.050781 C 220.089844 134.050781 220.625 134.566406 220.664062 135.222656 C 220.683594 135.550781 220.574219 135.871094 220.351562 136.121094 C 220.132812 136.371094 219.824219 136.519531 219.492188 136.539062 L 195.238281 137.972656 C 194.867188 137.996094 194.546875 138.234375 194.417969 138.585938 L 187.011719 158.753906 C 187.082031 158.761719 187.148438 158.761719 187.21875 158.769531 C 188.421875 158.921875 189.574219 159.304688 190.621094 159.847656 C 191.664062 160.398438 192.640625 161.0625 193.46875 161.855469 C 194.296875 162.59375 194.992188 163.261719 195.824219 163.867188 C 196.644531 164.488281 197.46875 164.984375 198.433594 165.566406 C 198.898438 165.867188 199.523438 166.234375 199.972656 166.992188 C 200.402344 167.757812 200.402344 168.488281 200.398438 169.089844 C 200.316406 170.738281 200.015625 172.277344 199.464844 173.792969 C 200.109375 173.695312 200.761719 173.648438 201.382812 173.578125 C 201.621094 173.511719 202.382812 173.164062 202.945312 172.867188 C 203.550781 172.546875 204.199219 172.265625 204.847656 171.96875 C 206.144531 171.382812 207.515625 170.875 208.855469 170.296875 C 209.515625 169.996094 210.15625 169.65625 210.804688 169.320312 C 211.128906 169.15625 211.46875 169.015625 211.8125 168.886719 L 212.34375 168.710938 C 212.519531 168.652344 212.746094 168.6875 213.179688 169.054688 C 213.296875 169.609375 213.214844 169.828125 213.074219 169.953125 L 212.660156 170.335938 C 212.371094 170.574219 212.078125 170.800781 211.773438 171 L 209.90625 172.1875 C 208.691406 173.03125 207.488281 173.914062 206.171875 174.632812 C 205.515625 174.992188 204.839844 175.335938 204.105469 175.589844 C 203.316406 175.839844 202.726562 176.109375 201.503906 176.203125 C 200.757812 176.164062 200.050781 176.136719 199.324219 176.050781 C 199.503906 176.480469 199.648438 176.925781 199.757812 177.402344 C 199.984375 178.386719 200.027344 179.484375 199.691406 180.527344 C 199.421875 181.570312 198.539062 182.53125 198.265625 182.996094 C 197.90625 183.601562 197.734375 184.289062 197.699219 185.058594 C 197.683594 185.359375 197.699219 185.683594 197.71875 186.011719 C 198.421875 185.492188 199.132812 184.984375 199.871094 184.519531 C 201.113281 183.722656 202.390625 182.964844 203.6875 182.234375 C 205.082031 181.371094 206.492188 180.765625 207.832031 180.089844 C 208.503906 179.746094 209.191406 179.445312 209.886719 179.148438 C 210.238281 179.019531 210.589844 178.882812 210.953125 178.773438 C 211.316406 178.667969 211.628906 178.445312 212.300781 178.972656 C 212.296875 179.828125 211.9375 179.929688 211.632812 180.152344 C 211.324219 180.371094 211.011719 180.570312 210.695312 180.773438 C 210.054688 181.148438 209.414062 181.523438 208.765625 181.871094 C 207.46875 182.589844 206.230469 183.386719 205.203125 184.269531 C 204.027344 185.207031 202.824219 186.117188 201.59375 186.984375 C 200.503906 187.773438 199.347656 188.464844 198.195312 189.15625 C 198.117188 189.484375 198.050781 189.859375 198.027344 190.195312 C 197.972656 190.738281 198.023438 191.277344 198.089844 191.8125 C 198.160156 192.347656 198.316406 192.867188 198.527344 193.382812 C 198.527344 193.390625 198.535156 193.398438 198.539062 193.40625 C 198.578125 193.363281 198.621094 193.320312 198.660156 193.28125 C 199.042969 192.910156 199.421875 192.636719 199.796875 192.40625 C 200.554688 191.9375 201.304688 191.597656 202.058594 191.296875 C 202.8125 190.996094 203.566406 190.742188 204.324219 190.511719 L 205.46875 190.1875 C 205.84375 190.082031 206.296875 189.988281 206.496094 189.914062 C 207.847656 189.40625 209.257812 188.730469 210.640625 188.117188 C 211.339844 187.8125 212.039062 187.503906 212.753906 187.230469 L 213.832031 186.832031 C 214.191406 186.699219 214.597656 186.65625 215.179688 186.972656 C 215.078125 187.628906 214.796875 187.921875 214.46875 188.128906 L 213.488281 188.738281 C 212.832031 189.136719 212.15625 189.496094 211.480469 189.855469 C 210.105469 190.558594 208.769531 191.230469 207.308594 191.917969 C 206.804688 192.144531 206.507812 192.21875 206.160156 192.359375 L 205.136719 192.773438 C 204.453125 193.054688 203.785156 193.367188 203.148438 193.699219 C 202.511719 194.023438 201.894531 194.382812 201.382812 194.769531 C 201.003906 195.007812 200.679688 195.382812 200.574219 195.53125 C 200.609375 195.636719 200.652344 195.765625 200.691406 195.867188 C 200.804688 196.179688 200.9375 196.46875 201.0625 196.730469 C 201.332031 197.257812 201.621094 197.574219 201.875 197.730469 C 202.136719 197.875 202.578125 197.941406 203.15625 197.808594 C 203.722656 197.691406 204.460938 197.425781 205.144531 197.171875 C 206.542969 196.644531 207.980469 196.027344 209.527344 195.605469 C 210.296875 195.378906 211.109375 195.222656 211.941406 195.148438 C 212.359375 195.113281 212.789062 195.117188 213.21875 195.140625 C 213.644531 195.15625 214.117188 195.339844 214.378906 196.015625 C 213.886719 196.554688 213.601562 196.667969 213.257812 196.703125 C 212.925781 196.765625 212.59375 196.835938 212.257812 196.945312 C 211.589844 197.140625 210.929688 197.410156 210.257812 197.6875 C 208.917969 198.277344 207.574219 198.9375 206.15625 199.597656 C 205.429688 199.925781 204.75 200.25 203.835938 200.519531 C 202.949219 200.785156 201.773438 200.890625 200.632812 200.402344 C 199.484375 199.894531 198.785156 198.9375 198.367188 198.113281 C 198.148438 197.695312 197.992188 197.277344 197.851562 196.871094 C 197.777344 196.648438 197.726562 196.503906 197.652344 196.226562 C 197.59375 195.871094 197.539062 195.476562 197.601562 195.140625 C 197.347656 194.902344 197.09375 194.664062 196.886719 194.378906 C 196.40625 193.796875 196.066406 193.101562 195.832031 192.378906 C 195.804688 192.304688 195.785156 192.222656 195.761719 192.144531 C 195.125 192.921875 194.472656 193.679688 193.800781 194.421875 C 193.976562 195.160156 194.066406 195.878906 194.019531 196.695312 C 193.976562 197.191406 193.878906 197.726562 193.601562 198.253906 C 193.449219 198.519531 193.265625 198.769531 193.023438 198.984375 C 192.816406 199.175781 192.433594 199.390625 192.34375 199.441406 C 191.730469 199.789062 191.132812 200.269531 190.511719 200.785156 C 190.765625 201.074219 190.9375 201.386719 191.066406 201.714844 L 191.8125 203.429688 C 192.320312 204.566406 192.875 205.675781 193.417969 206.773438 C 193.976562 207.859375 194.597656 208.910156 195.257812 209.824219 C 195.589844 210.289062 195.953125 210.65625 196.289062 210.933594 C 196.621094 211.128906 197.082031 211.34375 197.621094 211.496094 C 199.785156 212.105469 202.308594 212.265625 204.722656 212.304688 C 205.941406 212.316406 207.160156 212.292969 208.351562 212.222656 C 208.941406 212.1875 209.539062 212.128906 210.054688 212.035156 C 210.347656 211.992188 210.539062 211.929688 210.710938 211.882812 C 210.722656 211.878906 210.71875 211.878906 210.71875 211.878906 L 210.933594 211.660156 C 214.476562 208.265625 217.566406 204.398438 219.761719 200.046875 C 220.796875 197.84375 221.5625 195.519531 221.953125 193.132812 C 222.042969 192.535156 222.160156 191.941406 222.191406 191.335938 C 222.253906 190.734375 222.316406 190.132812 222.320312 189.53125 C 222.351562 188.925781 222.324219 188.320312 222.285156 187.71875 C 222.242188 187.109375 222.277344 186.527344 222.617188 185.773438 C 223.324219 186.226562 223.589844 186.886719 223.714844 187.527344 C 223.828125 188.171875 223.929688 188.828125 223.96875 189.480469 C 224.109375 190.792969 224.019531 192.109375 223.863281 193.414062 C 223.527344 196.015625 222.730469 198.527344 221.734375 200.933594 C 219.710938 205.746094 216.628906 210.050781 213.039062 213.761719 L 212.707031 214.117188 C 212.445312 214.335938 212 214.605469 211.785156 214.671875 C 211.355469 214.820312 210.941406 214.929688 210.605469 214.976562 C 209.886719 215.113281 209.226562 215.175781 208.558594 215.222656 C 207.234375 215.316406 205.933594 215.332031 204.632812 215.25 C 202.027344 215.09375 199.464844 214.863281 196.804688 213.992188 C 196.40625 213.859375 196 213.6875 195.585938 213.46875 C 196.386719 214.648438 197.230469 215.792969 198.125 216.894531 C 199.039062 218.082031 200.089844 219.15625 201.109375 220.246094 C 202.230469 221.238281 203.269531 222.316406 204.476562 223.195312 C 206.679688 225.039062 209.171875 226.464844 211.671875 227.824219 C 215.832031 227.679688 219.992188 227.535156 224.15625 227.472656 C 228.4375 227.359375 232.722656 227.402344 237.007812 227.363281 L 249.855469 227.34375 C 251.992188 227.355469 254.136719 227.371094 256.277344 227.4375 L 259.207031 227.507812 C 258.105469 223.691406 257.027344 219.867188 256.007812 216.027344 C 256.003906 216.023438 255.992188 216.019531 255.984375 216.011719 L 255.09375 215.402344 C 254.527344 214.964844 254.027344 214.460938 253.515625 213.960938 C 252.984375 213.476562 252.566406 212.914062 252.117188 212.363281 C 251.664062 211.820312 251.246094 211.25 250.867188 210.664062 C 249.261719 208.355469 247.882812 205.914062 246.867188 203.335938 C 245.808594 200.773438 245.050781 198.113281 244.351562 195.460938 C 243.980469 194.136719 243.597656 192.824219 243.269531 191.492188 C 243.105469 190.828125 242.964844 190.15625 242.851562 189.480469 L 242.714844 188.453125 C 242.671875 188.113281 242.722656 187.746094 243.179688 187.292969 C 243.78125 187.503906 243.996094 187.792969 244.113281 188.113281 L 244.476562 189.058594 C 244.71875 189.691406 244.910156 190.332031 245.125 190.972656 C 245.53125 192.253906 245.933594 193.535156 246.40625 194.792969 C 247.371094 197.300781 248.488281 199.742188 249.601562 202.152344 C 250.734375 204.546875 251.75 206.996094 253.085938 209.253906 C 253.398438 209.835938 253.738281 210.390625 254.113281 210.921875 C 254.441406 211.371094 254.714844 211.875 255.050781 212.320312 C 254.09375 208.609375 253.171875 204.867188 252.566406 200.980469 C 251.785156 195.925781 251.746094 190.804688 252.050781 185.746094 C 252.339844 180.679688 253.066406 175.652344 254.195312 170.722656 C 254.75 168.257812 255.421875 165.816406 256.226562 163.421875 C 256.625 162.222656 257.039062 161.027344 257.492188 159.847656 C 257.941406 158.671875 258.515625 157.519531 259.5 156.574219 C 259.523438 157.9375 259.214844 159.132812 258.851562 160.324219 C 258.472656 161.503906 258.132812 162.699219 257.804688 163.898438 C 257.175781 166.300781 256.570312 168.703125 256.078125 171.136719 C 255.074219 175.988281 254.410156 180.914062 254.210938 185.851562 C 254.070312 190.785156 254.269531 195.742188 255.171875 200.566406 C 256.023438 205.355469 257.460938 210.164062 258.808594 214.984375 L 262.460938 228.117188 C 262.539062 228.160156 262.617188 228.203125 262.699219 228.253906 C 262.640625 228.292969 262.585938 228.324219 262.527344 228.359375 L 266.847656 243.902344 L 270.917969 258.359375 L 272.890625 265.609375 L 273.867188 269.234375 C 274.195312 270.441406 274.445312 271.675781 274.21875 273.054688 C 273.257812 272.039062 272.777344 270.875 272.375 269.6875 L 271.171875 266.128906 C 270.371094 263.753906 269.558594 261.382812 268.804688 258.992188 C 267.257812 254.226562 265.796875 249.433594 264.324219 244.644531 C 262.746094 239.472656 261.179688 234.296875 259.667969 229.105469 C 259.609375 229.105469 259.550781 229.109375 259.488281 229.113281 L 256.28125 229.3125 C 254.144531 229.457031 252.003906 229.554688 249.863281 229.644531 L 237.03125 230.101562 C 232.757812 230.226562 228.480469 230.429688 224.203125 230.476562 C 219.925781 230.570312 215.648438 230.578125 211.367188 230.589844 L 211.285156 230.589844 C 211.078125 230.589844 210.878906 230.535156 210.710938 230.4375 C 207.960938 228.867188 205.273438 227.167969 202.941406 225.039062 C 201.707031 224.054688 200.65625 222.871094 199.527344 221.78125 C 198.511719 220.582031 197.410156 219.460938 196.488281 218.191406 C 194.566406 215.722656 192.851562 213.089844 191.453125 210.296875 C 190.742188 208.90625 190.136719 207.464844 189.589844 206.007812 C 189.1875 204.804688 188.613281 203.625 188.660156 202.28125 C 188.601562 202.324219 188.546875 202.371094 188.484375 202.414062 C 188.117188 202.671875 187.742188 202.929688 187.257812 203.136719 C 187.011719 203.234375 186.75 203.335938 186.410156 203.359375 C 186.074219 203.390625 185.886719 203.355469 185.652344 203.335938 C 184.777344 203.246094 183.960938 203.113281 183.132812 202.976562 C 182.09375 202.792969 181.0625 202.605469 180.03125 202.40625 C 178.796875 203.761719 177.199219 204.65625 175.691406 205.636719 C 173.742188 206.835938 171.734375 207.957031 169.621094 208.878906 C 165.5 210.703125 161.035156 212.023438 156.382812 212.085938 C 149.039062 215.472656 141.59375 218.390625 133.980469 220.953125 C 126.304688 223.535156 118.519531 225.800781 110.621094 227.605469 Z M 170.886719 169.722656 L 171.285156 169.660156 C 171.550781 169.609375 171.8125 169.550781 172.0625 169.476562 C 172.566406 169.332031 173.039062 169.121094 173.523438 168.9375 C 174.484375 168.550781 175.46875 168.214844 176.335938 167.652344 C 177.21875 167.121094 178.03125 166.460938 178.875 165.851562 C 179.300781 165.558594 179.746094 165.300781 180.1875 165.03125 C 180.40625 164.894531 180.609375 164.730469 180.808594 164.554688 L 181.09375 164.273438 C 181.191406 164.175781 181.234375 163.988281 181.101562 163.453125 C 180.734375 163.039062 180.554688 162.96875 180.421875 162.996094 L 180.027344 163.074219 C 179.769531 163.136719 179.519531 163.214844 179.28125 163.316406 C 178.8125 163.527344 178.347656 163.746094 177.863281 163.9375 C 176.886719 164.289062 175.878906 164.585938 174.945312 165.015625 C 173.988281 165.414062 173.15625 166.035156 172.296875 166.609375 C 171.871094 166.90625 171.429688 167.175781 171.027344 167.511719 C 170.820312 167.675781 170.628906 167.859375 170.4375 168.046875 L 170.15625 168.34375 C 170.054688 168.425781 170.011719 168.617188 170.179688 169.214844 C 170.578125 169.691406 170.761719 169.761719 170.886719 169.722656 Z M 101.003906 291.671875 C 100.746094 291.773438 100.496094 291.882812 100.25 291.996094 C 102.375 298.253906 104.875 304.410156 108.101562 309.671875 C 110.746094 313.980469 115.507812 316.53125 120.5625 316.449219 L 272.09375 313.980469 L 269.417969 306.972656 C 269.417969 306.972656 123.441406 316.546875 101.003906 291.671875 Z M 215.179688 440.679688 L 234.378906 440.679688 L 235.226562 376.574219 L 214.332031 376.574219 Z M 51.5 443.558594 L 70.699219 443.558594 L 71.867188 355.289062 C 64.519531 350.828125 57.03125 345.796875 50.136719 340.3125 Z M 133.101562 479.078125 L 152.300781 479.078125 L 153.652344 376.574219 L 131.746094 376.574219 Z M 413.097656 494.011719 C 404.113281 501.257812 328.957031 482.453125 320.5 479.285156 C 316.777344 477.894531 314.597656 474.027344 315.328125 470.121094 L 320.148438 444.425781 C 320.277344 443.71875 320.523438 443.058594 320.820312 442.433594 C 320.832031 442.246094 320.863281 442.058594 320.9375 441.851562 C 320.988281 441.867188 321.023438 441.890625 321.070312 441.90625 C 322.335938 439.675781 324.605469 438.109375 327.257812 437.808594 L 355.476562 434.59375 C 357.820312 434.328125 360.160156 435.082031 361.90625 436.671875 C 370.851562 444.824219 396.378906 467.050781 407.65625 473.53125 C 417.011719 478.90625 423.019531 486.011719 413.097656 494.011719"/></g><g id="change3_1"><path fill="#545b69" d="M 214.753906 139.53125 C 214.167969 139.527344 213.507812 140.140625 213.277344 140.898438 C 213.050781 141.65625 213.339844 142.273438 213.925781 142.277344 C 214.511719 142.28125 215.171875 141.667969 215.402344 140.910156 C 215.628906 140.152344 215.339844 139.535156 214.753906 139.53125 Z M 215.171875 138.144531 C 213.992188 138.140625 212.664062 139.371094 212.207031 140.894531 C 211.75 142.414062 212.332031 143.65625 213.507812 143.660156 C 214.6875 143.667969 216.011719 142.4375 216.472656 140.914062 C 216.929688 139.390625 216.347656 138.152344 215.171875 138.144531 Z M 183.730469 159.019531 C 182.761719 159.179688 181.796875 159.347656 180.835938 159.527344 C 185.128906 146.714844 189.230469 135.074219 190.285156 134.09375 C 192.699219 131.855469 218.554688 131.855469 218.554688 131.855469 C 218.554688 131.855469 222.347656 132.371094 220.449219 136.851562 C 219.632812 138.792969 216 149.289062 212.148438 160.574219 C 212.144531 160.574219 212.140625 160.574219 212.140625 160.574219 C 209.859375 160.515625 203.371094 164.800781 200.027344 167.121094 C 200.007812 167.078125 199.996094 167.035156 199.972656 166.992188 C 199.523438 166.234375 198.898438 165.867188 198.433594 165.566406 C 197.46875 164.984375 196.644531 164.488281 195.824219 163.867188 C 194.992188 163.261719 194.296875 162.59375 193.46875 161.855469 C 192.640625 161.0625 191.664062 160.398438 190.621094 159.847656 C 189.574219 159.304688 188.421875 158.921875 187.21875 158.769531 C 186.976562 158.742188 186.734375 158.726562 186.496094 158.714844 L 193.949219 138.410156 C 194.144531 137.875 194.640625 137.507812 195.210938 137.472656 L 219.464844 136.039062 C 219.875 136.015625 220.191406 135.660156 220.164062 135.25 C 220.140625 134.839844 219.789062 134.511719 219.375 134.550781 L 195.121094 135.984375 C 193.960938 136.050781 192.949219 136.804688 192.546875 137.898438 L 184.882812 158.777344 C 184.4375 158.835938 183.980469 158.925781 183.496094 159.085938 Z M 392.378906 486.46875 C 383.761719 485.402344 375.273438 483.328125 366.777344 481.234375 C 358.269531 479.191406 349.820312 476.828125 341.351562 474.515625 L 328.699219 470.851562 C 326.589844 470.242188 324.484375 469.628906 322.359375 469.074219 L 319.179688 468.210938 C 318.117188 467.929688 317.027344 467.734375 315.816406 467.933594 C 316.707031 468.777344 317.71875 469.226562 318.757812 469.585938 L 321.878906 470.648438 C 323.953125 471.371094 326.046875 472.035156 328.140625 472.695312 L 340.734375 476.589844 C 349.113281 479.234375 357.511719 481.867188 366.042969 484.117188 C 374.558594 486.351562 383.234375 488.226562 392.097656 489.082031 C 396.527344 489.476562 401.019531 489.660156 405.507812 489.070312 C 407.746094 488.785156 409.984375 488.257812 412.109375 487.375 C 413.167969 486.921875 414.214844 486.417969 415.160156 485.738281 C 416.140625 485.125 416.960938 484.179688 417.257812 482.972656 C 409.925781 487.824219 400.910156 487.367188 392.378906 486.46875 Z M 340.238281 294.121094 C 341.1875 293.980469 342.132812 294.078125 343.085938 294.015625 C 344.039062 293.988281 344.96875 294.183594 345.921875 294.25 C 346.859375 294.390625 347.757812 294.699219 348.691406 294.910156 C 349.574219 295.257812 350.453125 295.566406 351.65625 295.453125 C 351.066406 294.496094 350.183594 293.871094 349.238281 293.453125 C 348.261719 293.136719 347.289062 292.722656 346.277344 292.492188 C 345.261719 292.328125 344.238281 292.039062 343.203125 291.984375 C 342.175781 291.949219 341.125 291.824219 340.097656 291.917969 C 335.953125 292.085938 331.9375 293.15625 328.148438 294.609375 C 320.558594 297.550781 313.625 301.796875 307.191406 306.582031 C 300.78125 311.414062 294.777344 316.71875 289.058594 322.289062 C 286.164062 325.039062 283.324219 327.839844 280.566406 330.722656 C 279.191406 332.164062 277.824219 333.617188 276.523438 335.128906 L 274.5625 337.390625 C 273.921875 338.15625 273.347656 338.984375 273.097656 340.09375 C 274.164062 339.707031 274.925781 339.066406 275.625 338.363281 L 277.722656 336.257812 L 281.941406 332.074219 C 284.757812 329.285156 287.609375 326.539062 290.53125 323.867188 C 296.4375 318.597656 302.550781 313.566406 308.949219 308.980469 C 315.332031 304.394531 321.949219 300.078125 329.113281 297.054688 C 332.695312 295.554688 336.445312 294.496094 340.238281 294.121094 Z M 277.632812 313.664062 C 277.617188 312.84375 276.957031 312.144531 276.113281 312.199219 L 120.539062 314.953125 C 120.46875 314.957031 120.398438 314.957031 120.324219 314.957031 C 115.859375 314.957031 111.679688 312.648438 109.375 308.890625 C 105.941406 303.296875 103.332031 296.613281 101.121094 289.882812 C 108.367188 288.269531 138.6875 279.984375 169.992188 248.832031 C 184.28125 234.613281 206.589844 229.476562 221.296875 230.699219 C 222.117188 230.789062 222.839844 230.160156 222.90625 229.339844 C 222.976562 228.515625 222.367188 227.792969 221.546875 227.726562 C 206.175781 226.433594 182.851562 231.824219 167.886719 246.714844 C 136.59375 277.855469 106.457031 285.683594 100.203125 287.027344 C 99.320312 284.199219 98.492188 281.390625 97.695312 278.683594 C 97.164062 276.882812 96.644531 275.121094 96.128906 273.417969 C 91.351562 257.679688 86.371094 245.582031 65.648438 233.179688 L 19.09375 208.109375 C 18.363281 207.71875 17.460938 207.992188 17.070312 208.71875 C 16.679688 209.441406 16.949219 210.347656 17.675781 210.742188 L 64.171875 235.777344 C 83.917969 247.59375 88.6875 259.195312 93.269531 274.285156 C 93.785156 275.980469 94.300781 277.734375 94.828125 279.527344 C 97.84375 289.769531 101.261719 301.378906 106.828125 310.453125 C 109.675781 315.089844 114.828125 317.945312 120.328125 317.945312 C 120.414062 317.945312 120.503906 317.945312 120.589844 317.941406 L 276.164062 315.1875 C 276.988281 315.171875 277.648438 314.492188 277.632812 313.664062 Z M 324.617188 248.949219 C 324.632812 248.949219 324.644531 248.949219 324.65625 248.949219 C 325.484375 248.925781 326.132812 248.238281 326.109375 247.414062 L 325.152344 211.414062 C 325.128906 210.605469 324.464844 209.960938 323.660156 209.960938 C 323.644531 209.960938 323.632812 209.960938 323.617188 209.960938 C 322.792969 209.980469 322.144531 210.667969 322.164062 211.492188 L 323.125 247.492188 C 323.148438 248.304688 323.8125 248.949219 324.617188 248.949219 Z M 19.941406 127.859375 C 20.109375 127.789062 24.070312 126.148438 29.800781 129.023438 C 35.496094 131.882812 42.957031 139.222656 49.996094 157.128906 C 42.214844 148.265625 34.039062 146.261719 33.597656 146.160156 C 32.792969 145.964844 31.996094 146.472656 31.808594 147.273438 C 31.621094 148.074219 32.117188 148.878906 32.917969 149.066406 C 33.046875 149.097656 45.59375 152.238281 53.792969 168.027344 C 55.140625 172.382812 56.460938 177.199219 57.726562 182.519531 C 57.890625 183.207031 58.503906 183.667969 59.179688 183.667969 C 59.292969 183.667969 59.410156 183.652344 59.527344 183.625 C 60.328125 183.433594 60.824219 182.628906 60.632812 181.828125 C 59.414062 176.707031 58.140625 172.039062 56.835938 167.78125 C 56.835938 167.550781 56.78125 167.320312 56.671875 167.097656 C 56.628906 167.015625 56.585938 166.929688 56.542969 166.847656 C 48.117188 139.917969 38.246094 129.847656 30.980469 126.277344 C 23.992188 122.839844 18.941406 125.039062 18.726562 125.132812 C 17.980469 125.46875 17.648438 126.34375 17.980469 127.09375 C 18.308594 127.84375 19.191406 128.183594 19.941406 127.859375 Z M 139.414062 123.257812 C 139.082031 122.503906 139.421875 121.621094 140.175781 121.285156 C 140.925781 120.957031 141.8125 121.292969 142.144531 122.050781 L 162.304688 167.648438 C 162.636719 168.402344 162.296875 169.285156 161.542969 169.621094 C 161.347656 169.707031 161.140625 169.746094 160.941406 169.746094 C 160.367188 169.746094 159.820312 169.414062 159.574219 168.859375 L 139.414062 123.257812"/></g><g id="change4_1"><path fill="#a7b7d8" d="M 315.96875 182.28125 C 315.953125 181.070312 315.996094 179.855469 315.78125 178.664062 C 315.605469 177.472656 315.28125 176.289062 315.015625 175.105469 C 314.898438 174.511719 314.816406 173.914062 314.722656 173.316406 C 314.675781 173.019531 314.597656 172.722656 314.503906 172.429688 L 314.34375 171.992188 C 314.285156 171.847656 314.128906 171.710938 313.578125 171.613281 C 313.058594 171.816406 312.929688 171.980469 312.90625 172.136719 L 312.835938 172.597656 C 312.804688 172.902344 312.785156 173.207031 312.792969 173.511719 C 312.820312 174.113281 312.859375 174.714844 312.863281 175.320312 C 312.835938 176.535156 312.753906 177.757812 312.816406 178.960938 C 312.84375 180.171875 313.125 181.355469 313.351562 182.542969 C 313.472656 183.136719 313.566406 183.734375 313.734375 184.324219 C 313.8125 184.621094 313.914062 184.910156 314.023438 185.203125 L 314.195312 185.640625 C 314.234375 185.789062 314.398438 185.925781 315.019531 186.015625 C 315.609375 185.804688 315.742188 185.636719 315.75 185.484375 L 315.835938 185.023438 C 315.882812 184.714844 315.925781 184.40625 315.945312 184.101562 C 315.992188 183.492188 315.96875 182.890625 315.96875 182.28125 Z M 311.160156 160.328125 C 311.066406 159.472656 311.089844 158.589844 310.867188 157.746094 C 310.65625 156.90625 310.464844 156.050781 310.226562 155.210938 C 310.105469 154.789062 310.007812 154.363281 309.867188 153.945312 L 309.355469 152.730469 C 308.175781 149.402344 306.019531 146.390625 303.375 143.996094 C 300.699219 141.609375 297.429688 140 294.082031 139.027344 C 292.402344 138.558594 290.714844 138.117188 288.992188 137.90625 C 288.132812 137.789062 287.269531 137.714844 286.398438 137.722656 C 285.96875 137.710938 285.527344 137.757812 285.097656 137.769531 C 284.667969 137.796875 284.21875 137.9375 283.820312 138.492188 C 284.261719 139.023438 284.652344 139.160156 285.0625 139.210938 C 285.46875 139.273438 285.871094 139.3125 286.277344 139.394531 C 287.085938 139.523438 287.890625 139.644531 288.691406 139.808594 C 289.492188 139.9375 290.277344 140.164062 291.070312 140.335938 C 291.851562 140.550781 292.613281 140.832031 293.382812 141.074219 C 296.40625 142.25 299.109375 144.039062 301.375 146.203125 C 301.65625 146.476562 301.984375 146.707031 302.242188 147 L 303.011719 147.894531 C 303.503906 148.503906 304.089844 149.039062 304.503906 149.714844 L 305.859375 151.664062 C 306.246094 152.355469 306.582031 153.078125 306.949219 153.789062 L 307.492188 154.859375 C 307.644531 155.230469 307.761719 155.621094 307.894531 156 C 308.148438 156.765625 308.445312 157.519531 308.726562 158.285156 C 309 159.050781 309.152344 159.859375 309.390625 160.648438 L 309.714844 161.84375 C 309.8125 162.246094 310.015625 162.628906 310.699219 162.972656 C 311.238281 162.492188 311.304688 162.046875 311.257812 161.621094 Z M 69.917969 262.234375 C 69.777344 261.824219 69.625 261.414062 69.425781 261.035156 C 69.066406 260.25 68.613281 259.515625 68.148438 258.792969 C 67.222656 257.34375 66.234375 255.910156 64.980469 254.734375 C 63.757812 253.527344 62.378906 252.496094 60.980469 251.519531 C 60.292969 251.015625 59.621094 250.503906 58.921875 250.019531 C 58.570312 249.78125 58.199219 249.570312 57.8125 249.378906 L 57.222656 249.113281 C 57.027344 249.027344 56.761719 249.027344 56.300781 249.371094 C 56.191406 249.941406 56.273438 250.164062 56.417969 250.3125 L 56.851562 250.75 C 57.148438 251.03125 57.445312 251.3125 57.757812 251.570312 C 58.386719 252.082031 59.003906 252.609375 59.589844 253.171875 C 60.734375 254.324219 61.757812 255.585938 62.816406 256.785156 C 63.851562 258.003906 64.996094 259.121094 66.027344 260.347656 C 66.558594 260.953125 67.03125 261.59375 67.546875 262.21875 L 68.339844 263.144531 L 68.75 263.609375 C 68.871094 263.773438 69.101562 263.875 69.738281 263.773438 C 70.175781 263.308594 70.199219 263.050781 70.117188 262.855469 Z M 43.671875 241.160156 C 42.980469 240.53125 42.289062 239.894531 41.546875 239.339844 C 40.109375 238.160156 38.59375 237.101562 37.09375 236.019531 C 34.09375 233.867188 31.046875 231.785156 27.902344 229.867188 C 24.753906 227.949219 21.515625 226.1875 18.300781 224.390625 L 13.527344 221.625 C 12.722656 221.175781 11.921875 220.722656 11.097656 220.308594 L 9.855469 219.699219 C 9.4375 219.5 8.972656 219.382812 8.300781 219.613281 C 8.417969 220.316406 8.738281 220.667969 9.113281 220.9375 L 10.234375 221.746094 C 10.984375 222.277344 11.757812 222.777344 12.527344 223.277344 L 17.171875 226.238281 C 20.226562 228.28125 23.238281 230.382812 26.3125 232.386719 C 29.375 234.402344 32.53125 236.269531 35.636719 238.203125 L 40.265625 241.132812 L 42.578125 242.582031 C 42.960938 242.824219 43.355469 243.0625 43.710938 243.324219 C 44.070312 243.59375 44.492188 243.769531 45.261719 243.613281 C 45.324219 242.863281 45.046875 242.449219 44.703125 242.121094 C 44.371094 241.777344 44.019531 241.472656 43.671875 241.160156 Z M 98.28125 3.082031 L 98.046875 2.960938 C 97.886719 2.886719 97.730469 2.820312 97.574219 2.773438 C 97.261719 2.675781 96.949219 2.652344 96.636719 2.601562 C 96.015625 2.515625 95.390625 2.371094 94.773438 2.484375 C 94.152344 2.5625 93.539062 2.785156 92.925781 2.953125 C 92.617188 3.019531 92.308594 3.054688 92 3.09375 C 91.84375 3.121094 91.691406 3.175781 91.539062 3.242188 L 91.308594 3.367188 C 91.234375 3.40625 91.160156 3.554688 91.097656 4.09375 C 91.195312 4.628906 91.277344 4.769531 91.355469 4.808594 L 91.59375 4.917969 C 91.75 4.976562 91.90625 5.019531 92.0625 5.03125 C 92.371094 5.054688 92.683594 5.066406 92.996094 5.113281 C 93.621094 5.242188 94.246094 5.429688 94.867188 5.464844 C 95.492188 5.539062 96.105469 5.355469 96.722656 5.230469 C 97.03125 5.15625 97.339844 5.113281 97.644531 4.996094 C 97.796875 4.941406 97.953125 4.863281 98.105469 4.78125 L 98.332031 4.644531 C 98.410156 4.617188 98.480469 4.464844 98.539062 3.855469 C 98.441406 3.25 98.359375 3.101562 98.28125 3.082031 Z M 85.089844 4.292969 L 84.089844 4.1875 C 83.417969 4.097656 82.746094 4.109375 82.078125 4.15625 C 80.726562 4.160156 79.410156 4.421875 78.085938 4.65625 C 75.480469 5.242188 72.878906 6.003906 70.519531 7.25 C 68.148438 8.46875 65.964844 9.988281 63.886719 11.589844 C 62.835938 12.382812 61.785156 13.167969 60.789062 14.023438 C 60.289062 14.445312 59.804688 14.890625 59.351562 15.367188 C 59.121094 15.601562 58.90625 15.859375 58.6875 16.101562 C 58.46875 16.351562 58.316406 16.679688 58.460938 17.292969 C 59.070312 17.464844 59.390625 17.359375 59.652344 17.175781 L 60.441406 16.640625 L 61.988281 15.53125 C 63.003906 14.777344 64.035156 14.039062 65.109375 13.375 C 67.277344 12.066406 69.550781 10.976562 71.808594 9.933594 C 74.089844 8.925781 76.355469 7.941406 78.722656 7.210938 C 79.914062 6.886719 81.113281 6.566406 82.332031 6.347656 C 82.941406 6.226562 83.546875 6.070312 84.167969 6.007812 L 85.097656 5.855469 C 85.410156 5.820312 85.71875 5.675781 86.058594 5.054688 C 85.757812 4.445312 85.421875 4.316406 85.089844 4.292969 Z M 187.238281 120.933594 C 187.132812 120.75 187.019531 120.574219 186.886719 120.425781 C 186.613281 120.125 186.332031 119.835938 186.074219 119.519531 C 185.589844 118.859375 185.136719 118.160156 184.585938 117.570312 C 184.0625 116.953125 183.359375 116.523438 182.699219 116.050781 C 182.359375 115.820312 182.042969 115.570312 181.675781 115.375 C 181.492188 115.277344 181.296875 115.191406 181.097656 115.109375 L 180.785156 115 C 180.695312 114.949219 180.519531 114.988281 180.03125 115.363281 C 179.691406 115.878906 179.664062 116.054688 179.722656 116.144531 L 179.855469 116.445312 C 179.949219 116.636719 180.046875 116.828125 180.160156 117.003906 C 180.378906 117.355469 180.652344 117.65625 180.90625 117.976562 C 181.421875 118.601562 181.902344 119.269531 182.554688 119.75 C 183.183594 120.261719 183.910156 120.660156 184.601562 121.101562 C 184.9375 121.332031 185.246094 121.59375 185.5625 121.84375 C 185.722656 121.964844 185.90625 122.066406 186.09375 122.160156 L 186.394531 122.277344 C 186.496094 122.320312 186.667969 122.28125 187.109375 121.957031 C 187.402344 121.496094 187.425781 121.320312 187.378906 121.222656 Z M 208.273438 103.035156 C 208.230469 102.835938 208.164062 102.636719 208.09375 102.433594 L 207.972656 102.132812 C 207.949219 102.03125 207.804688 101.925781 207.199219 101.808594 C 206.589844 101.890625 206.4375 101.984375 206.410156 102.082031 L 206.273438 102.378906 C 206.1875 102.574219 206.109375 102.769531 206.054688 102.96875 C 205.933594 103.363281 205.886719 103.761719 205.8125 104.15625 C 205.683594 104.949219 205.496094 105.742188 205.566406 106.539062 C 205.597656 107.335938 205.777344 108.140625 205.902344 108.941406 C 205.945312 109.339844 205.953125 109.738281 205.976562 110.136719 C 205.988281 110.335938 206.03125 110.539062 206.089844 110.738281 L 206.195312 111.039062 C 206.234375 111.140625 206.375 111.246094 206.90625 111.359375 C 207.449219 111.277344 207.597656 111.183594 207.636719 111.085938 L 207.765625 110.789062 C 207.832031 110.59375 207.886719 110.394531 207.914062 110.195312 C 207.960938 109.800781 207.992188 109.402344 208.0625 109.007812 C 208.234375 108.214844 208.464844 107.425781 208.542969 106.628906 C 208.660156 105.835938 208.523438 105.035156 208.441406 104.238281 C 208.394531 103.835938 208.371094 103.4375 208.273438 103.035156 Z M 196.660156 114.402344 C 196.460938 113.820312 196.261719 113.234375 196.027344 112.664062 C 195.59375 111.515625 195.09375 110.394531 194.609375 109.269531 C 193.621094 107.023438 192.695312 104.746094 191.539062 102.582031 C 190.417969 100.402344 189.160156 98.289062 187.953125 96.152344 L 186.234375 92.898438 C 185.941406 92.359375 185.648438 91.820312 185.316406 91.300781 L 184.808594 90.527344 C 184.640625 90.265625 184.378906 90.050781 183.757812 90.015625 C 183.402344 90.527344 183.414062 90.863281 183.511719 91.15625 L 183.808594 92.035156 C 184.015625 92.613281 184.257812 93.179688 184.503906 93.742188 L 186.007812 97.097656 C 186.949219 99.367188 187.839844 101.660156 188.863281 103.886719 C 189.855469 106.132812 191.078125 108.261719 192.242188 110.421875 C 192.832031 111.496094 193.40625 112.582031 194.046875 113.632812 C 194.347656 114.167969 194.6875 114.683594 195.023438 115.203125 L 195.542969 115.972656 C 195.703125 116.234375 195.960938 116.449219 196.648438 116.453125 C 197.066406 115.910156 197.054688 115.574219 196.945312 115.285156 Z M 227.242188 107.949219 C 226.671875 107.714844 226.492188 107.71875 226.421875 107.792969 L 226.152344 107.980469 C 225.980469 108.113281 225.8125 108.242188 225.660156 108.390625 C 225.355469 108.671875 225.113281 108.996094 224.851562 109.308594 C 224.332031 109.9375 223.769531 110.535156 223.425781 111.269531 C 223.046875 111.980469 222.796875 112.773438 222.492188 113.535156 C 222.328125 113.910156 222.136719 114.261719 221.949219 114.621094 C 221.859375 114.804688 221.796875 115 221.742188 115.203125 L 221.683594 115.523438 C 221.660156 115.628906 221.734375 115.792969 222.136719 116.160156 C 222.644531 116.359375 222.820312 116.351562 222.90625 116.285156 L 223.164062 116.089844 C 223.324219 115.953125 223.472656 115.808594 223.597656 115.648438 C 223.839844 115.320312 224.070312 114.992188 224.328125 114.679688 C 224.882812 114.074219 225.480469 113.496094 225.953125 112.839844 C 226.460938 112.207031 226.746094 111.4375 227.082031 110.695312 C 227.242188 110.320312 227.429688 109.960938 227.546875 109.5625 C 227.609375 109.363281 227.65625 109.15625 227.695312 108.941406 L 227.746094 108.617188 C 227.777344 108.519531 227.707031 108.355469 227.242188 107.949219 Z M 245.351562 131.277344 L 245.035156 131.199219 C 244.828125 131.15625 244.617188 131.117188 244.414062 131.097656 C 244.003906 131.054688 243.605469 131.085938 243.203125 131.089844 C 242.398438 131.113281 241.585938 131.082031 240.816406 131.308594 C 240.039062 131.488281 239.285156 131.824219 238.527344 132.097656 C 238.140625 132.21875 237.753906 132.304688 237.363281 132.402344 C 237.171875 132.453125 236.984375 132.535156 236.796875 132.628906 L 236.523438 132.792969 C 236.429688 132.847656 236.355469 133.003906 236.34375 133.550781 C 236.527344 134.066406 236.652344 134.191406 236.753906 134.214844 L 237.066406 134.28125 C 237.277344 134.3125 237.480469 134.328125 237.679688 134.316406 C 238.078125 134.28125 238.476562 134.238281 238.875 134.230469 C 239.6875 134.246094 240.507812 134.320312 241.300781 134.246094 C 242.101562 134.210938 242.859375 133.921875 243.628906 133.6875 C 244.011719 133.5625 244.402344 133.460938 244.777344 133.289062 C 244.964844 133.210938 245.148438 133.105469 245.332031 132.996094 L 245.605469 132.820312 C 245.699219 132.78125 245.773438 132.617188 245.773438 132 C 245.578125 131.417969 245.453125 131.285156 245.351562 131.277344 Z M 252.835938 106.726562 C 252.917969 107.34375 252.757812 107.640625 252.535156 107.855469 L 251.875 108.503906 C 251.429688 108.929688 250.957031 109.320312 250.484375 109.714844 L 247.621094 112.023438 C 245.753906 113.617188 243.925781 115.261719 242 116.78125 C 240.101562 118.332031 238.046875 119.679688 236.027344 121.078125 C 235.015625 121.769531 234.015625 122.476562 232.96875 123.128906 C 232.457031 123.464844 231.921875 123.773438 231.386719 124.082031 L 230.574219 124.53125 C 230.3125 124.695312 229.984375 124.769531 229.371094 124.464844 C 229.242188 123.789062 229.40625 123.492188 229.632812 123.285156 L 230.285156 122.628906 C 230.730469 122.199219 231.171875 121.765625 231.636719 121.367188 C 232.546875 120.535156 233.5 119.765625 234.441406 118.980469 C 236.339844 117.421875 238.195312 115.8125 240.203125 114.40625 C 242.195312 112.972656 244.273438 111.660156 246.316406 110.296875 L 249.320312 108.175781 C 249.828125 107.828125 250.335938 107.480469 250.863281 107.167969 L 251.667969 106.707031 C 251.9375 106.550781 252.265625 106.476562 252.835938 106.726562"/></g></g></svg>