<svg viewBox="0 0 96 96" xmlns="http://www.w3.org/2000/svg" xmlns:xlink="http://www.w3.org/1999/xlink" id="Icons_Footprints" overflow="hidden"><g><path d="M22.2 52.3C22.2 52.3 21.8 56.4 22.2 61.3L22.4 63.3C22.7 67.8 27.5 69.8 31.3 69.4L33.3 69.2C37.1 68.9 40 65.5 39.7 61.7L39.5 59.7C39.1 54.8 37.8 50.8 37.8 50.8L22.2 52.3Z" fill="#205382" fill-rule="evenodd" clip-rule="evenodd"/><path d="M21 46.5 37.1 45.1C36 31.8 49 25.5 40.2 9.6 40.2 9.6 40.2 9.6 40.2 9.6 37.9 5.5 34.8 4 30.8 4 26.5 4 22.3 6.4 20.1 11.5 16.6 21.1 16.4 33.8 21 46.5Z" fill="#205382" fill-rule="evenodd" clip-rule="evenodd"/><path d="M73.8 74.8C73.8 74.8 74.2 78.9 73.8 83.8L73.6 85.8C73.3 90.3 68.5 92.3 64.7 91.9L62.7 91.7C58.9 91.4 56 88 56.3 84.2L56.5 82.2C56.9 77.3 58.2 73.3 58.2 73.3L73.8 74.8Z" fill="#205382" fill-rule="evenodd" clip-rule="evenodd"/><path d="M75 69 58.9 67.6C60 54.4 47 48 55.8 32.1 55.8 32.1 55.8 32.1 55.8 32.1 58.1 28 61.2 26.5 65.2 26.5 69.5 26.5 73.7 28.9 75.9 34 79.4 43.6 79.6 56.3 75 69Z" fill="#205382" fill-rule="evenodd" clip-rule="evenodd"/></g></svg>