<svg viewBox="0 0 96 96" xmlns="http://www.w3.org/2000/svg" xmlns:xlink="http://www.w3.org/1999/xlink" id="Icons_Shield1_M" overflow="hidden"><g id="Icons"><path d="M78.532 21.9C67.9145 21.0421 58.02 16.1804 50.853 8.3 49.5003 6.73096 47.1318 6.55556 45.5628 7.90823 45.4227 8.02898 45.2917 8.15993 45.171 8.3 38.0047 16.18 28.1084 21.0377 17.491 21.887 15.5163 22.0786 14.0145 23.7461 14.03 25.73L14.03 35.414C14.03 56.476 27.385 75.742 45.921 87.663 47.1929 88.4869 48.8301 88.4869 50.102 87.663 68.639 75.746 81.993 56.49 81.993 35.428L81.993 25.745C82.0133 23.7589 80.5093 22.088 78.532 21.9ZM79.993 35.427C79.993 54.612 68.415 73.512 49.021 85.984 48.4078 86.3839 47.6162 86.3839 47.003 85.984 27.609 73.513 16.03 54.609 16.03 35.418L16.03 25.734C16.0122 24.7913 16.7151 23.9902 17.652 23.885 28.7779 23.0041 39.1492 17.9136 46.652 9.651 47.2624 8.89879 48.367 8.78381 49.1192 9.3942 49.2135 9.47068 49.2995 9.55674 49.376 9.651 56.8804 17.9129 67.2501 23.0062 78.376 23.895 79.3137 23.9997 80.0172 24.8016 79.999 25.745Z" stroke="#00B050" fill="#00B050"/></g></svg>