<svg viewBox="0 0 96 96" xmlns="http://www.w3.org/2000/svg" xmlns:xlink="http://www.w3.org/1999/xlink" id="Icons_FlipCalendar_M" overflow="hidden"><style>
.MsftOfcThm_Accent1_lumMod_60_lumOff_40_Fill_v2 {
 fill:#9DC3E6; 
}
</style>
<g id="Icons"><path d="M68 15C68 14.4477 67.5523 14 67 14 66.4477 14 66 14.4477 66 15L66 20 30 20 30 15C30 14.4477 29.5523 14 29 14 28.4477 14 28 14.4477 28 15L28 20 14 20 14 82 82 82 82 20 68 20ZM80 80 16 80 16 37 80 37ZM80 22 80 35 16 35 16 22 28 22 28 26C28 26.5523 28.4477 27 29 27 29.5523 27 30 26.5523 30 26L30 22 66 22 66 26C66 26.5523 66.4477 27 67 27 67.5523 27 68 26.5523 68 26L68 22Z" class="MsftOfcThm_Accent1_lumMod_60_lumOff_40_Fill_v2" fill="#9DC3E6"/></g></svg>