<svg viewBox="0 0 96 96" xmlns="http://www.w3.org/2000/svg" xmlns:xlink="http://www.w3.org/1999/xlink" id="Icons_DetectiveMale" overflow="hidden"><g id="Icons"><path d="M60.5 59 68.5 49 59.844 43.721C62.5166 40.7899 63.9987 36.9666 64 33L64 30 67.352 30C68.8153 30.0285 70.0246 28.8654 70.0531 27.4021 70.0569 27.2067 70.0391 27.0115 70 26.82 69.7202 25.5433 68.5661 24.6503 67.26 24.7L63 24.7 58.59 11.49C58.2766 9.14151 56.1188 7.49174 53.7703 7.80511 52.8006 7.9345 51.9044 8.39138 51.23 9.1 49.4701 10.9703 46.5273 11.0598 44.657 9.3 44.617 9.26267 44.578 9.22467 44.54 9.186L44.24 8.886C42.5365 7.23926 39.8206 7.28526 38.1739 8.98874 37.5253 9.65965 37.1132 10.5237 37 11.45L32 24.7 27.74 24.7C26.4525 24.6748 25.3264 25.5623 25.05 26.82 24.757 28.2539 25.6818 29.6539 27.1157 29.9469 27.1158 29.947 27.1159 29.947 27.116 29.947 27.2918 29.9821 27.4707 29.9999 27.65 30L32 30 32 33C32.0013 36.9683 33.4849 40.7929 36.16 43.724L27.5 49 35.5 59 32.5 61 43.26 88 52.74 88 63.5 61ZM36 30 60 30 60 33C60 39.6274 54.6274 45 48 45 41.3726 45 36 39.6274 36 33ZM51.2 76.25 50.32 58.75 45.68 58.75 44.8 76.25 40.454 47.1C45.1491 49.623 50.7945 49.6324 55.498 47.125Z" fill="#0071C4"/><path d="M30.046 60.235 31.394 59.335 32.579 58.545 27.879 52.665C24.9719 53.8708 22.2459 55.4737 19.779 57.428 17.4393 59.2509 16.0501 62.0345 16 65L16 82.57 16.89 83.164C20.9 85.835 30.5 87.411 41.071 87.9L30.646 61.74Z" fill="#0071C4"/><path d="M80 64.962C79.9471 62.0261 78.5763 59.2697 76.267 57.456 73.7902 55.4922 71.0532 53.8812 68.134 52.669L63.434 58.546 64.619 59.336 65.968 60.236 65.368 61.741 54.928 87.92C65.765 87.458 75.528 85.852 79.195 83.1L79.995 82.5Z" fill="#0071C4"/><path d="M44.004 50.75 45.554 56.75 50.454 56.75 52.004 50.75 44.004 50.75Z" fill="#0071C4"/></g></svg>