<svg viewBox="0 0 96 96" xmlns="http://www.w3.org/2000/svg" xmlns:xlink="http://www.w3.org/1999/xlink" id="Icons_ArtistMale" overflow="hidden"><g id="Icons"><path d="M20.7 49.5 20.2 49.7C19.3 50.1 18.7 50.7 18.8 51.4L20.7 57.8 30.6 79.4C31.1 80.4 32.3 80.8 33.3 80.3 34.2 79.9 34.6 78.8 34.3 77.9L26 55.5 22.8 49.6C22.2 49.2 21.4 49.1 20.7 49.5Z" stroke-width="3" fill="#0071C4"/><path d="M37.4 48.8 32.5 50.8C30.6 51.5 28.8 52.2 27 53L27.8 54.5 27.9 54.6 27.9 54.7 28.6 56.6C30.3 55.8 32 55.2 33.8 54.5L33.8 54.5 33.9 54.4C34.6 54.2 35.2 53.9 35.9 53.7L46.7 63.3C47.5 64 48.6 64 49.4 63.3L60.2 53.7C60.9 53.9 61.5 54.2 62.2 54.4L62.4 54.5 62.4 54.5C66.6 56 70.6 57.7 73.9 60.4 74.3 60.7 74.6 61.1 74.9 61.5 76.6 61.8 78.2 62.2 79.8 62.9 79.3 60.7 78.1 58.7 76.3 57.3 72.6 54.2 68.2 52.3 63.5 50.7L58.6 48.7C58.2 48.5 58 48.2 58 47.8L58 45.4C61.8 42.4 64 37.8 64 32.9L64 32.3 64.4 32.5C64.9 32.7 65.5 32.4 65.7 31.9L65.9 31.2C69.5 33 70.6 31.9 71.1 30 71.8 27.4 62.3 19.5 54.3 15 54 14.8 53.6 14.6 53.3 14.5 53.9 14.1 54.6 13.8 55.3 13.5 55.8 13.3 56.1 12.8 55.9 12.2 55.7 11.7 55.2 11.4 54.7 11.6 53.4 12 52.2 12.7 51.2 13.6 45 11.5 39.7 13.6 35.5 13.4 31.3 13.2 29.5 13.3 28.4 15.3 27 17.8 28.9 21.6 31.5 22.5L31.3 23.2C31.2 23.7 31.5 24.3 32 24.4L32 24.4 32 24.5 28 29.1C29.3 29.3 30.7 29.3 32 29.1L32 33C32 37.8 34.2 42.4 38 45.5L38 48C38 48.3 37.8 48.7 37.4 48.8ZM48 59.3 39.8 52C41.2 51.1 42 49.5 42 47.9L42 47.8C45.8 49.4 50.2 49.4 54 47.8L54 47.9C54 49.5 54.8 51.1 56.2 52L48 59.3ZM36 33 36 28.2C38.1 27.6 40.1 26.7 42.1 25.6L40 29C43.6 28.9 47 27.9 50.1 26 53.3 26.9 56.4 28.2 59.3 29.8L60 30.2 60 33C60 39.6 54.6 45 48 45 41.4 45 36 39.6 36 33L36 33Z" stroke-width="3" fill="#0071C4"/><path d="M20 80.3 20 65C20 64.1 20.2 63.3 20.6 62.5L18.8 58.5 18.7 58.4 18.7 58.3C17 60.2 16.1 62.5 16 65L16 82.6 16.9 83.2C21.8 86.5 35.1 88.1 48.3 88.1 52.3 88.1 56.4 87.9 60.1 87.6 58.1 86.7 56.2 85.4 54.6 83.9 41.2 84.4 25.7 83.2 20 80.3Z" stroke-width="3" fill="#0071C4"/><path d="M19.5 47.4C22.1 46.3 23.3 43.4 22.2 40.8 21.4 38.9 19.6 38.6 18.1 37.7 16.4 36.8 15.3 35 15.5 33 11.4 35.4 11.4 40.9 12.9 44.6 13.9 47.3 16.9 48.5 19.5 47.4 19.5 47.4 19.5 47.4 19.5 47.4Z" stroke-width="3" fill="#0071C4"/></g><path d="M70.4 63.3C60.5 63.3 62 67.2 63 68.1L65.2 70.3C66.6 71.7 64.9 73.4 63.3 72.7L57.8 70.3C54 68.6 52.9 73.3 52.9 75.6 52.9 82.4 60.7 87.9 70.4 87.9 80.1 87.9 87.9 82.4 87.9 75.6 87.9 68.8 80 63.3 70.4 63.3ZM81.3 69.4C82.5 69.4 83.5 70.1 83.5 70.9 83.5 71.7 82.5 72.4 81.3 72.4 80.1 72.4 79.1 71.7 79.1 70.9 79.1 70.1 80.1 69.4 81.3 69.4ZM64.2 84.7C63 84.7 62 84 62 83.2 62 82.4 63 81.7 64.2 81.7 65.4 81.7 66.4 82.4 66.4 83.2 66.4 84 65.5 84.7 64.2 84.7ZM70.4 85.6C69.2 85.6 68.2 84.9 68.2 84.1 68.2 83.3 69.2 82.6 70.4 82.6 71.6 82.6 72.6 83.3 72.6 84.1 72.6 84.9 71.6 85.6 70.4 85.6ZM76.5 84.3C75.3 84.3 74.3 83.6 74.3 82.8 74.3 82 75.3 81.3 76.5 81.3 77.7 81.3 78.7 82 78.7 82.8 78.7 83.6 77.7 84.3 76.5 84.3ZM76.5 69.4C75.3 69.4 74.3 68.7 74.3 67.9 74.3 67.1 75.3 66.4 76.5 66.4 77.7 66.4 78.7 67.1 78.7 67.9 78.7 68.7 77.7 69.4 76.5 69.4ZM81.3 81.6C80.1 81.6 79.1 80.9 79.1 80.1 79.1 79.3 80.1 78.6 81.3 78.6 82.5 78.6 83.5 79.3 83.5 80.1 83.5 80.9 82.5 81.6 81.3 81.6ZM83.5 76.8C82.3 76.8 81.3 76.1 81.3 75.3 81.3 74.5 82.3 73.8 83.5 73.8 84.7 73.8 85.7 74.5 85.7 75.3 85.7 76.1 84.7 76.8 83.5 76.8Z" stroke-width="3" fill="#0071C4"/></svg>