<svg viewBox="0 0 96 96" xmlns="http://www.w3.org/2000/svg" xmlns:xlink="http://www.w3.org/1999/xlink" id="Icons_AdhesiveBandage" overflow="hidden"><path d="M82.584 13.423C76.8731 7.72089 67.6815 7.53694 61.747 13.006L12.97 61.734C7.3479 67.8575 7.7544 77.3793 13.8779 83.0014 19.6412 88.2927 28.4972 88.2864 34.253 82.987L83.03 34.259C88.4916 28.3173 88.2948 19.1255 82.584 13.423ZM38.565 48.91C37.7813 49.6939 36.5105 49.694 35.7267 48.9103 34.9428 48.1266 34.9427 46.8559 35.7263 46.072 36.51 45.2881 37.7808 45.288 38.5647 46.0717 38.5648 46.0718 38.5649 46.0719 38.565 46.072 39.3487 46.8551 39.3492 48.1252 38.5661 48.9089 38.5657 48.9093 38.5654 48.9096 38.565 48.91ZM44.241 54.587C43.4573 55.3709 42.1865 55.371 41.4027 54.5873 40.6188 53.8036 40.6187 52.5329 41.4023 51.749 42.186 50.9651 43.4568 50.965 44.2407 51.7487 44.2408 51.7488 44.2409 51.7489 44.241 51.749 45.0247 52.5321 45.0252 53.8022 44.2421 54.5859 44.2417 54.5863 44.2414 54.5866 44.241 54.587ZM44.241 43.234C43.4573 44.0179 42.1865 44.018 41.4027 43.2343 40.6188 42.4506 40.6187 41.1799 41.4023 40.396 42.186 39.6121 43.4568 39.612 44.2407 40.3957 44.2408 40.3958 44.2409 40.3959 44.241 40.396 45.0247 41.1791 45.0252 42.4492 44.2421 43.2329 44.2417 43.2333 44.2414 43.2336 44.241 43.234ZM49.917 60.263C49.1333 61.0469 47.8625 61.047 47.0787 60.2633 46.2948 59.4796 46.2947 58.2089 47.0783 57.425 47.862 56.6411 49.1328 56.641 49.9167 57.4247 49.9168 57.4248 49.9169 57.4249 49.917 57.425 50.7007 58.2081 50.7012 59.4782 49.9181 60.2619 49.9177 60.2623 49.9174 60.2626 49.917 60.263ZM49.917 48.91C49.1333 49.6939 47.8625 49.694 47.0787 48.9103 46.2948 48.1266 46.2947 46.8559 47.0783 46.072 47.862 45.2881 49.1328 45.288 49.9167 46.0717 49.9168 46.0718 49.9169 46.0719 49.917 46.072 50.7007 46.8551 50.7012 48.1252 49.9181 48.9089 49.9177 48.9093 49.9174 48.9096 49.917 48.91ZM49.917 37.558C49.1333 38.3419 47.8625 38.342 47.0787 37.5583 46.2948 36.7746 46.2947 35.5039 47.0783 34.72 47.862 33.9361 49.1328 33.936 49.9167 34.7197 49.9168 34.7198 49.9169 34.7199 49.917 34.72 50.7007 35.5031 50.7012 36.7732 49.9181 37.5569 49.9177 37.5573 49.9174 37.5576 49.917 37.558ZM55.594 54.587C54.8103 55.3709 53.5395 55.371 52.7557 54.5873 51.9718 53.8036 51.9717 52.5329 52.7553 51.749 53.539 50.9651 54.8098 50.965 55.5937 51.7487 55.5938 51.7488 55.5939 51.7489 55.594 51.749 56.3777 52.5321 56.3782 53.8022 55.5951 54.5859 55.5947 54.5863 55.5944 54.5866 55.594 54.587ZM55.594 43.234C54.8103 44.0179 53.5395 44.018 52.7557 43.2343 51.9718 42.4506 51.9717 41.1799 52.7553 40.396 53.539 39.6121 54.8098 39.612 55.5937 40.3957 55.5938 40.3958 55.5939 40.3959 55.594 40.396 56.3777 41.1791 56.3782 42.4492 55.5951 43.2329 55.5947 43.2333 55.5944 43.2336 55.594 43.234ZM61.27 48.91C60.4863 49.6939 59.2155 49.694 58.4317 48.9103 57.6478 48.1266 57.6477 46.8559 58.4313 46.072 59.215 45.2881 60.4858 45.288 61.2697 46.0717 61.2698 46.0718 61.2699 46.0719 61.27 46.072 62.0537 46.8551 62.0542 48.1252 61.2711 48.9089 61.2707 48.9093 61.2704 48.9096 61.27 48.91Z" stroke-width="3" fill="#0071C4"/></svg>