<svg viewBox="0 0 96 96" xmlns="http://www.w3.org/2000/svg" xmlns:xlink="http://www.w3.org/1999/xlink" id="Icons_Coffin" overflow="hidden"><path d="M18.451 72.216 23.379 80.726 39.804 86.654 34.876 78.145 18.451 72.216Z" stroke-width="3" fill="#0071C4"/><path d="M17 68.502 35.501 75.18 75.146 34.588 75.144 12.555 56.325 5.136 34.339 19.054 17 68.502Z" stroke-width="3" fill="#0071C4"/><path d="M82.406 24.479 78.144 17.118 78.146 34.796 82.408 42.157 82.406 24.479Z" stroke-width="3" fill="#0071C4"/><path d="M82.04 47.507 76.338 37.66 37.768 77.153 43.47 87 82.04 47.507Z" stroke-width="3" fill="#0071C4"/><path d="M24.242 85C23.073 84.966 21.09 86.466 21.006 87.561 20.9387 88.6989 21.5831 89.7595 22.624 90.224 23.5537 90.4429 24.5271 90.3845 25.424 90.056 26.355 89.631 26.8801 88.6295 26.7 87.622 26.45 86.6 25.422 85.034 24.242 85Z" stroke-width="3" fill="#0071C4"/><path d="M53.488 87C52.32 86.966 50.336 88.466 50.252 89.561 50.1847 90.6989 50.8291 91.7595 51.87 92.224 52.7997 92.4429 53.7731 92.3845 54.67 92.056 55.6036 91.6328 56.1312 90.6301 55.951 89.621 55.7 88.6 54.668 87.034 53.488 87Z" stroke-width="3" fill="#0071C4"/><path d="M67.6 85.3C66.6 85.888 65.487 87.824 65.823 88.527 66.3377 89.2946 67.3112 89.6096 68.178 89.289 69.045 88.9358 69.8284 88.4051 70.478 87.731 71.034 87.106 71.245 86.08 70.653 85.597 69.7657 84.9484 68.5956 84.8346 67.6 85.3Z" stroke-width="3" fill="#0071C4"/><path d="M16.137 77.805C15.204 77.493 13.343 77.857 13.08 78.464 12.8737 79.2212 13.2125 80.0213 13.9 80.4 14.6092 80.7567 15.3851 80.961 16.178 81 16.888 81.009 17.662 80.572 17.641 79.924 17.5633 78.9964 16.987 78.1845 16.137 77.805Z" stroke-width="3" fill="#0071C4"/><path d="M66.04 73.628C64.34 73.05 60.804 74.167 60.22 75.607 59.636 77.047 60.269 79.286 61.472 79.939 62.7426 80.6578 64.1835 81.0206 65.643 80.989 67.1308 80.8979 68.346 79.7665 68.543 78.289 68.6 76.8 67.755 74.213 66.04 73.628Z" stroke-width="3" fill="#0071C4"/></svg>