<svg viewBox="0 0 96 96" xmlns="http://www.w3.org/2000/svg" xmlns:xlink="http://www.w3.org/1999/xlink" id="Icons_ClenchedFist" overflow="hidden"><style>
.MsftOfcResponsive_Fill_0070c0 {
 fill:#0070C0; 
}
</style>
<path d="M34 31.9 34 26C34 23.2 31.8 21 29 21 26.2 21 24 23.2 24 26L24 31.9C24 34.7 26.2 36.9 29 36.9 31.8 36.9 34 34.6 34 31.9Z" class="MsftOfcResponsive_Fill_0070c0" fill="#0070C0"/><path d="M43.4 33.5 46 33.5 46 23C46 20.2 43.8 18 41 18 38.2 18 36 20.2 36 23L36 35C36 36.2 36.4 37.3 37.2 38.2 38 35.4 40.5 33.5 43.4 33.5Z" class="MsftOfcResponsive_Fill_0070c0" fill="#0070C0"/><path d="M55 46.5C50.6 47 47.5 51 48 55.4L46 55.6C45.7 53 46.5 50.3 48.1 48.2 48.6 47.5 49.2 46.9 49.9 46.4L43.4 46.4C40.1 46.4 37.3 43.9 36.9 40.6 35.5 39.6 34.5 38.1 34.1 36.5 31.9 39 28.3 39.5 25.5 37.9 26.3 46.3 28.5 57.6 34.9 60.9L34.9 79.4 62.5 79.4 62.5 62.4C63.1 62 63.7 61.6 64.3 61.2 69.2 57.7 72 52 71.9 46L71.9 46C71.9 40.2 67.2 35.5 61.4 35.5 61.4 35.5 61.4 35.5 61.4 35.5L43.6 35.5C41.2 35.5 39.2 37.2 38.9 39.6 38.7 42.1 40.5 44.3 42.9 44.5 43 44.5 43.2 44.5 43.3 44.5L55.8 44.5 55.8 46.5 55 46.5Z" class="MsftOfcResponsive_Fill_0070c0" fill="#0070C0"/><path d="M58 31 58 21C58 18.2 55.8 16 53 16 50.2 16 48 18.2 48 21L48 33.5 58 33.5 58 31Z" class="MsftOfcResponsive_Fill_0070c0" fill="#0070C0"/><path d="M67.7 35.2C69.2 34.3 70 32.7 70 31L70 22C70 19.2 67.8 17 65 17 62.2 17 60 19.2 60 22L60 31C60 31.9 60.2 32.8 60.7 33.5L61.4 33.5C63.6 33.5 65.8 34.1 67.7 35.2Z" class="MsftOfcResponsive_Fill_0070c0" fill="#0070C0"/></svg>