<svg width="512" height="512" viewBox="0 0 62 62" xmlns="http://www.w3.org/2000/svg" xmlns:xlink="http://www.w3.org/1999/xlink" id="_x33_0" overflow="hidden"><style>
.MsftOfcThm_Text1_Fill_v2 {
 fill:#414042; 
}
</style>
<g><path d="M12 52 6 52C4.897 52 4 52.897 4 54L4 56C4 57.103 4.897 58 6 58L12 58C13.103 58 14 57.103 14 56L14 54C14 52.897 13.103 52 12 52ZM6 56 6 54 12 54 12.001 56Z" class="MsftOfcThm_Text1_Fill_v2" stroke="none" stroke-width="1" fill="#414042" fill-opacity="1"/><path d="M60 32 54 32C52.897 32 52 32.897 52 34L52 38 46 38 46 3C46 1.346 44.654 0 43 0L13 0C11.346 0 10 1.346 10 3L10 36 2 36C0.897 36 0 36.897 0 38L0 62 62 62 62 34C62 32.897 61.103 32 60 32ZM52 40 52 60 46 60 46 46 46 40ZM36 60 30 60 30 52 36 52ZM38 52 38 46 44 46 44 60 38 60ZM10 38 16 38 16 42.382 13 40.882 10 42.382ZM24 60 2 60 2 38 8 38 8 45.618 13 43.118 18 45.618 18 38 24 38ZM24 36 12 36 12 3C12 2.449 12.449 2 13 2L43 2C43.551 2 44 2.449 44 3L44 40 44 44 38 44C36.897 44 36 44.897 36 46L36 50 30 50C28.897 50 28 50.897 28 52L28 60 26 60 26 38C26 36.897 25.103 36 24 36ZM60 60 54 60 54 40 54 34 60 34Z" class="MsftOfcThm_Text1_Fill_v2" stroke="none" stroke-width="1" fill="#414042" fill-opacity="1"/><path d="M54 21.899 54 24 56 24 56 22 60 22 60 19C60 16.243 57.757 14 55 14 53.346 14 52 12.654 52 11L52 10 55 10C56.654 10 58 11.346 58 13L58 14 60 14 60 13C60 10.586 58.279 8.566 56 8.101L56 6 54 6 54 8 50 8 50 11C50 13.757 52.243 16 55 16 56.654 16 58 17.346 58 19L58 20 55 20C53.346 20 52 18.654 52 17L52 16 50 16 50 17C50 19.414 51.721 21.434 54 21.899Z" class="MsftOfcThm_Text1_Fill_v2" stroke="none" stroke-width="1" fill="#414042" fill-opacity="1"/><path d="M2 32 4 32C5.103 32 6 31.103 6 30L6 28C6 26.897 5.103 26 4 26L2 26C0.897 26 0 26.897 0 28L0 30C0 31.103 0.897 32 2 32ZM2 28 4 28 4.001 30 2 30Z" class="MsftOfcThm_Text1_Fill_v2" stroke="none" stroke-width="1" fill="#414042" fill-opacity="1"/><path d="M2 24 4 24C5.103 24 6 23.103 6 22L6 20C6 18.897 5.103 18 4 18L2 18C0.897 18 0 18.897 0 20L0 22C0 23.103 0.897 24 2 24ZM2 20 4 20 4.001 22 2 22Z" class="MsftOfcThm_Text1_Fill_v2" stroke="none" stroke-width="1" fill="#414042" fill-opacity="1"/><path d="M2 16 4 16C5.103 16 6 15.103 6 14L6 12C6 10.897 5.103 10 4 10L2 10C0.897 10 0 10.897 0 12L0 14C0 15.103 0.897 16 2 16ZM2 12 4 12 4.001 14 2 14Z" class="MsftOfcThm_Text1_Fill_v2" stroke="none" stroke-width="1" fill="#414042" fill-opacity="1"/><path d="M42 12 42 6C42 4.897 41.103 4 40 4L16 4C14.897 4 14 4.897 14 6L14 12C14 13.103 14.897 14 16 14L40 14C41.103 14 42 13.103 42 12ZM16 6 40 6 40.001 12 16 12Z" class="MsftOfcThm_Text1_Fill_v2" stroke="none" stroke-width="1" fill="#414042" fill-opacity="1"/><path d="M20 26 16 26C14.897 26 14 26.897 14 28L14 32C14 33.103 14.897 34 16 34L20 34C21.103 34 22 33.103 22 32L22 28C22 26.897 21.103 26 20 26ZM16 32 16 28 20 28 20.001 32Z" class="MsftOfcThm_Text1_Fill_v2" stroke="none" stroke-width="1" fill="#414042" fill-opacity="1"/><path d="M20 16 16 16C14.897 16 14 16.897 14 18L14 22C14 23.103 14.897 24 16 24L20 24C21.103 24 22 23.103 22 22L22 18C22 16.897 21.103 16 20 16ZM16 22 16 18 20 18 20.001 22Z" class="MsftOfcThm_Text1_Fill_v2" stroke="none" stroke-width="1" fill="#414042" fill-opacity="1"/><path d="M30 34C31.103 34 32 33.103 32 32L32 28C32 26.897 31.103 26 30 26L26 26C24.897 26 24 26.897 24 28L24 32C24 33.103 24.897 34 26 34ZM26 28 30 28 30.001 32 26 32Z" class="MsftOfcThm_Text1_Fill_v2" stroke="none" stroke-width="1" fill="#414042" fill-opacity="1"/><path d="M30 16 26 16C24.897 16 24 16.897 24 18L24 22C24 23.103 24.897 24 26 24L30 24C31.103 24 32 23.103 32 22L32 18C32 16.897 31.103 16 30 16ZM26 22 26 18 30 18 30.001 22Z" class="MsftOfcThm_Text1_Fill_v2" stroke="none" stroke-width="1" fill="#414042" fill-opacity="1"/><path d="M40 26 36 26C34.897 26 34 26.897 34 28L34 40C34 41.103 34.897 42 36 42L40 42C41.103 42 42 41.103 42 40L42 28C42 26.897 41.103 26 40 26ZM36 40 36 28 40 28 40.001 40Z" class="MsftOfcThm_Text1_Fill_v2" stroke="none" stroke-width="1" fill="#414042" fill-opacity="1"/><path d="M40 16 36 16C34.897 16 34 16.897 34 18L34 22C34 23.103 34.897 24 36 24L40 24C41.103 24 42 23.103 42 22L42 18C42 16.897 41.103 16 40 16ZM36 22 36 18 40 18 40.001 22Z" class="MsftOfcThm_Text1_Fill_v2" stroke="none" stroke-width="1" fill="#414042" fill-opacity="1"/></g></svg>