<svg width="682.667" height="682.667" viewBox="0 0 682.667 682.667" xmlns="http://www.w3.org/2000/svg" xmlns:xlink="http://www.w3.org/1999/xlink" id="svg363" xml:space="preserve" overflow="hidden"><style>
.MsftOfcThm_Background1_Stroke_v2 {
 stroke:#FFFFFF; 
}
</style>
<defs id="defs367"><clipPath id="clipPath377"><path d="M0 512 512 512 512 0 0 0Z" id="path375"/></clipPath></defs><g id="g369" transform="matrix(1.33333 0 0 -1.33333 0 682.667)"><g id="g371"><g id="g373" clip-path="url(#clipPath377)"><g id="g379" transform="translate(64.2012 184.623)"><path d="M0 0C17.234 0 31.322 14.06 31.322 31.323 31.322 48.558 17.234 62.646 0 62.646-17.263 62.646-31.322 48.558-31.322 31.323-31.322 14.06-17.263 0 0 0Z" id="path381" class="MsftOfcThm_Background1_Stroke_v2" stroke="#FFFFFF" stroke-width="15.0009" stroke-linecap="round" stroke-linejoin="round" stroke-miterlimit="10" stroke-opacity="1" fill="none"/></g><g id="g383" transform="translate(224.668 215.946)"><path d="M0 0-129.145 0" id="path385" class="MsftOfcThm_Background1_Stroke_v2" stroke="#FFFFFF" stroke-width="15.0009" stroke-linecap="round" stroke-linejoin="round" stroke-miterlimit="10" stroke-opacity="1" fill="none"/></g><g id="g387" transform="translate(255.99 184.623)"><path d="M0 0C17.263 0 31.322 14.06 31.322 31.323 31.322 48.558 17.263 62.646 0 62.646-17.234 62.646-31.322 48.558-31.322 31.323-31.322 14.06-17.234 0 0 0Z" id="path389" class="MsftOfcThm_Background1_Stroke_v2" stroke="#FFFFFF" stroke-width="15.0009" stroke-linecap="round" stroke-linejoin="round" stroke-miterlimit="10" stroke-opacity="1" fill="none"/></g><g id="g391" transform="translate(416.485 215.946)"><path d="M0 0-129.173 0" id="path393" class="MsftOfcThm_Background1_Stroke_v2" stroke="#FFFFFF" stroke-width="15.0009" stroke-linecap="round" stroke-linejoin="round" stroke-miterlimit="10" stroke-opacity="1" fill="none"/></g><g id="g395" transform="translate(447.808 184.623)"><path d="M0 0C17.234 0 31.322 14.06 31.322 31.323 31.322 48.558 17.234 62.646 0 62.646-17.263 62.646-31.322 48.558-31.322 31.323-31.322 14.06-17.263 0 0 0Z" id="path397" class="MsftOfcThm_Background1_Stroke_v2" stroke="#FFFFFF" stroke-width="15.0009" stroke-linecap="round" stroke-linejoin="round" stroke-miterlimit="10" stroke-opacity="1" fill="none"/></g><g id="g399" transform="translate(246.324 294.977)"><path d="M0 0-12.444 14.287C-23.612 29.055-36.113 43.342-42.405 61.002-57.344 102.984-34.979 143.775 9.666 143.775 54.34 143.775 76.676 102.984 61.737 61.002 55.474 43.342 42.944 29.055 31.776 14.287L19.36 0C13.465-6.803 5.896-6.803 0 0Z" id="path401" class="MsftOfcThm_Background1_Stroke_v2" stroke="#FFFFFF" stroke-width="15.0009" stroke-linecap="round" stroke-linejoin="round" stroke-miterlimit="10" stroke-opacity="1" fill="none"/></g><g id="g403" transform="translate(255.99 358.672)"><path d="M0 0C12.813 0 23.187 10.318 23.187 23.018 23.187 35.745 12.813 46.035 0 46.035-12.813 46.035-23.187 35.745-23.187 23.018-23.187 10.318-12.813 0 0 0Z" id="path405" class="MsftOfcThm_Background1_Stroke_v2" stroke="#FFFFFF" stroke-width="15.0009" stroke-linecap="round" stroke-linejoin="round" stroke-miterlimit="10" stroke-opacity="1" fill="none"/></g><g id="g407" transform="translate(91.8379 316.464)"><path d="M0 0C-1.842-2.381-3.713-4.791-5.527-7.2L-17.971-21.487C-23.867-28.29-31.436-28.29-37.331-21.487L-49.747-7.2C-60.915 7.568-73.444 21.855-79.709 39.515-94.676 81.497-72.311 122.288-27.637 122.288 17.008 122.288 39.373 81.497 24.435 39.515 22.734 34.753 20.608 30.274 18.17 25.937" id="path409" class="MsftOfcThm_Background1_Stroke_v2" stroke="#FFFFFF" stroke-width="15.0009" stroke-linecap="round" stroke-linejoin="round" stroke-miterlimit="10" stroke-opacity="1" fill="none"/></g><g id="g411" transform="translate(64.2012 358.672)"><path d="M0 0C12.784 0 23.187 10.318 23.187 23.018 23.187 35.745 12.784 46.035 0 46.035-12.813 46.035-23.187 35.745-23.187 23.018-23.187 10.318-12.813 0 0 0Z" id="path413" class="MsftOfcThm_Background1_Stroke_v2" stroke="#FFFFFF" stroke-width="15.0009" stroke-linecap="round" stroke-linejoin="round" stroke-miterlimit="10" stroke-opacity="1" fill="none"/></g><g id="g415" transform="translate(479.13 215.946)"><path d="M0 0 25.37 0" id="path417" class="MsftOfcThm_Background1_Stroke_v2" stroke="#FFFFFF" stroke-width="15.0009" stroke-linecap="round" stroke-linejoin="round" stroke-miterlimit="10" stroke-opacity="1" fill="none"/></g><g id="g419" transform="translate(7.5088 215.946)"><path d="M0 0 25.37 0" id="path421" class="MsftOfcThm_Background1_Stroke_v2" stroke="#FFFFFF" stroke-width="15.0009" stroke-linecap="round" stroke-linejoin="round" stroke-miterlimit="10" stroke-opacity="1" fill="none"/></g><g id="g423" transform="translate(64.2012 289.903)"><path d="M0 0 0-42.634" id="path425" class="MsftOfcThm_Background1_Stroke_v2" stroke="#FFFFFF" stroke-width="15.0009" stroke-linecap="round" stroke-linejoin="round" stroke-miterlimit="10" stroke-opacity="1" fill="none"/></g><g id="g427" transform="translate(255.99 289.903)"><path d="M0 0 0-42.634" id="path429" class="MsftOfcThm_Background1_Stroke_v2" stroke="#FFFFFF" stroke-width="15.0009" stroke-linecap="round" stroke-linejoin="round" stroke-miterlimit="10" stroke-opacity="1" fill="none"/></g><g id="g431" transform="translate(74.2354 143.548)"><path d="M0 0-22.081 0" id="path433" class="MsftOfcThm_Background1_Stroke_v2" stroke="#FFFFFF" stroke-width="15.0009" stroke-linecap="round" stroke-linejoin="round" stroke-miterlimit="10" stroke-opacity="1" fill="none"/></g><g id="g435" transform="translate(91.7529 108.37)"><path d="M0 0-57.146 0" id="path437" class="MsftOfcThm_Background1_Stroke_v2" stroke="#FFFFFF" stroke-width="15.0009" stroke-linecap="round" stroke-linejoin="round" stroke-miterlimit="10" stroke-opacity="1" fill="none"/></g><g id="g439" transform="translate(269.029 143.548)"><path d="M0 0-22.081 0" id="path441" class="MsftOfcThm_Background1_Stroke_v2" stroke="#FFFFFF" stroke-width="15.0009" stroke-linecap="round" stroke-linejoin="round" stroke-miterlimit="10" stroke-opacity="1" fill="none"/></g><g id="g443" transform="translate(286.547 108.37)"><path d="M0 0-57.146 0" id="path445" class="MsftOfcThm_Background1_Stroke_v2" stroke="#FFFFFF" stroke-width="15.0009" stroke-linecap="round" stroke-linejoin="round" stroke-miterlimit="10" stroke-opacity="1" fill="none"/></g><g id="g447" transform="translate(463.823 143.548)"><path d="M0 0-22.081 0" id="path449" class="MsftOfcThm_Background1_Stroke_v2" stroke="#FFFFFF" stroke-width="15.0009" stroke-linecap="round" stroke-linejoin="round" stroke-miterlimit="10" stroke-opacity="1" fill="none"/></g><g id="g451" transform="translate(481.341 108.37)"><path d="M0 0-57.146 0" id="path453" class="MsftOfcThm_Background1_Stroke_v2" stroke="#FFFFFF" stroke-width="15.0009" stroke-linecap="round" stroke-linejoin="round" stroke-miterlimit="10" stroke-opacity="1" fill="none"/></g><g id="g455" transform="translate(91.7529 73.2197)"><path d="M0 0-57.146 0" id="path457" class="MsftOfcThm_Background1_Stroke_v2" stroke="#FFFFFF" stroke-width="15.0009" stroke-linecap="round" stroke-linejoin="round" stroke-miterlimit="10" stroke-opacity="1" fill="none"/></g><g id="g459" transform="translate(286.547 73.2197)"><path d="M0 0-57.146 0" id="path461" class="MsftOfcThm_Background1_Stroke_v2" stroke="#FFFFFF" stroke-width="15.0009" stroke-linecap="round" stroke-linejoin="round" stroke-miterlimit="10" stroke-opacity="1" fill="none"/></g><g id="g463" transform="translate(481.341 73.2197)"><path d="M0 0-57.146 0" id="path465" class="MsftOfcThm_Background1_Stroke_v2" stroke="#FFFFFF" stroke-width="15.0009" stroke-linecap="round" stroke-linejoin="round" stroke-miterlimit="10" stroke-opacity="1" fill="none"/></g><g id="g467" transform="translate(447.808 358.672)"><path d="M0 0C12.784 0 23.187 10.318 23.187 23.018 23.187 35.745 12.784 46.035 0 46.035-12.813 46.035-23.187 35.745-23.187 23.018-23.187 10.318-12.813 0 0 0Z" id="path469" class="MsftOfcThm_Background1_Stroke_v2" stroke="#FFFFFF" stroke-width="15.0009" stroke-linecap="round" stroke-linejoin="round" stroke-miterlimit="10" stroke-opacity="1" fill="none"/></g><g id="g471" transform="translate(447.808 289.903)"><path d="M0 0 0-42.634" id="path473" class="MsftOfcThm_Background1_Stroke_v2" stroke="#FFFFFF" stroke-width="15.0009" stroke-linecap="round" stroke-linejoin="round" stroke-miterlimit="10" stroke-opacity="1" fill="none"/></g><g id="g475" transform="translate(475.445 316.464)"><path d="M0 0C-1.843-2.381-3.713-4.791-5.527-7.2L-17.972-21.487C-23.867-28.29-31.436-28.29-37.332-21.487L-49.747-7.2C-60.916 7.568-73.444 21.855-79.709 39.515-94.676 81.497-72.311 122.288-27.638 122.288 17.008 122.288 39.373 81.497 24.435 39.515 22.733 34.753 20.607 30.274 18.17 25.937" id="path477" class="MsftOfcThm_Background1_Stroke_v2" stroke="#FFFFFF" stroke-width="15.0009" stroke-linecap="round" stroke-linejoin="round" stroke-miterlimit="10" stroke-opacity="1" fill="none"/></g></g></g></g></svg>