<svg width="512" height="512" viewBox="0 0 60 60" xmlns="http://www.w3.org/2000/svg" xmlns:xlink="http://www.w3.org/1999/xlink" id="Icons" overflow="hidden"><style>
.MsftOfcThm_Text1_Fill_v2 {
 fill:#000000; 
}
</style>
<path d="M35.7 44.717C38.3104 42.6758 38.7717 38.9049 36.7305 36.2945 34.6892 33.6842 30.9184 33.2228 28.308 35.264 25.6976 37.3053 25.2363 41.0762 27.2775 43.6865 27.5779 44.0706 27.9239 44.4167 28.308 44.717 24.5052 46.2307 22.0071 49.907 22 54L22 58C22 59.1046 22.8954 60 24 60L40 60C41.1046 60 42 59.1046 42 58L42 54C41.9942 49.909 39.4996 46.2332 35.7 44.717ZM28 40C28 37.7909 29.7909 36 32 36 34.2091 36 36 37.7909 36 40 36 42.2091 34.2091 44 32 44 29.7909 44 28 42.2091 28 40ZM40 58 24 58 24 54C24 49.5817 27.5817 46 32 46 36.4183 46 40 49.5817 40 54Z" class="MsftOfcThm_Text1_Fill_v2"/><path d="M2 42 20 42C21.1046 42 22 41.1046 22 40L22 37C22 36.987 21.993 36.977 21.993 36.964 21.9888 36.8587 21.9679 36.7547 21.931 36.656 21.922 36.634 21.917 36.611 21.907 36.59 21.897 36.569 21.901 36.565 21.895 36.553L20 32.764 20 23C20 21.8954 19.1046 21 18 21L4 21C2.89543 21 2 21.8954 2 23L2 32.764 0.105 36.553C0.099 36.565 0.098 36.578 0.092 36.59 0.086 36.602 0.078 36.634 0.069 36.656 0.0321199 36.7547 0.0111913 36.8587 0.007 36.964 0.007 36.976 6.07153e-18 36.987 6.07153e-18 37L6.07153e-18 40C0 41.1046 0.895431 42 2 42ZM2 40 2 38 20 38 20 40ZM19.382 36 2.618 36 3.618 34 18.382 34ZM4 23 18 23 18 32 4 32Z" class="MsftOfcThm_Text1_Fill_v2"/><path d="M18 18 20.556 18C21.6411 19.9021 24.0626 20.5644 25.9647 19.4793 26.5813 19.1275 27.0922 18.6166 27.444 18L32.556 18C33.6411 19.9021 36.0626 20.5644 37.9647 19.4793 38.5813 19.1275 39.0922 18.6166 39.444 18L42 18C43.1046 18 44 17.1046 44 16L44 14C43.9979 13.2887 43.6168 12.6324 43 12.278L43 6C43 3.79086 41.2091 2 39 2L34 2C34 0.895431 33.1046 0 32 0L19 0C17.8954 0 17 0.895431 17 2L17 12.278C16.3832 12.6324 16.0021 13.2887 16 14L16 16C16 17.1046 16.8954 18 18 18ZM18 16 18 14 20.556 14C20.1961 14.6053 20.0041 15.2957 20 16ZM24 18C22.8954 18 22 17.1046 22 16 22 14.8954 22.8954 14 24 14 25.1046 14 26 14.8954 26 16 26 17.1046 25.1046 18 24 18ZM28 16C27.9959 15.2957 27.8039 14.6053 27.444 14L32.556 14C32.1961 14.6053 32.0041 15.2957 32 16ZM36 18C34.8954 18 34 17.1046 34 16 34 14.8954 34.8954 14 36 14 37.1046 14 38 14.8954 38 16 38 17.1046 37.1046 18 36 18ZM42 16 40 16C39.9959 15.2957 39.8039 14.6053 39.444 14L42 14ZM41 6 41 7 38 7 38 4 39 4C40.1046 4 41 4.89543 41 6ZM36 4 36 7C36 8.10457 36.8954 9 38 9L41 9 41 12 34 12 34 4ZM32 2 32 12 19 12 19 2Z" class="MsftOfcThm_Text1_Fill_v2"/><path d="M53.976 23.647C54.6318 22.921 54.9965 21.9784 55 21L55 19C55 17.8954 54.1046 17 53 17L49 17C47.8954 17 47 17.8954 47 19L47 21C47.0035 21.9784 47.3682 22.921 48.024 23.647 44.522 25.193 42 29.372 42 34.286 42 39.824 45.28 43 51 43 56.72 43 60 39.824 60 34.286 60 29.372 57.478 25.193 53.976 23.647ZM49 21 49 19 53 19 53 21C53 22.1046 52.1046 23 51 23 49.8954 23 49 22.1046 49 21ZM51 41C46.355 41 44 38.741 44 34.286 44 29.166 47.141 25 51 25 54.859 25 58 29.166 58 34.286 58 38.741 55.645 41 51 41Z" class="MsftOfcThm_Text1_Fill_v2"/><path d="M7.293 25.293 6.293 26.293C5.89575 26.6767 5.88475 27.3097 6.26842 27.707 6.6521 28.1042 7.28517 28.1153 7.68242 27.7316 7.69076 27.7235 7.69895 27.7153 7.707 27.707L8.707 26.707C9.09068 26.3097 9.07968 25.6767 8.68242 25.293 8.2949 24.9187 7.68052 24.9187 7.293 25.293Z" class="MsftOfcThm_Text1_Fill_v2"/><path d="M13.293 25.293 10.293 28.293C9.89575 28.6767 9.88474 29.3097 10.2684 29.707 10.6521 30.1042 11.2852 30.1153 11.6824 29.7316 11.6908 29.7235 11.699 29.7153 11.707 29.707L14.707 26.707C15.0907 26.3097 15.0797 25.6767 14.6824 25.293 14.2949 24.9187 13.6805 24.9187 13.293 25.293Z" class="MsftOfcThm_Text1_Fill_v2"/><path d="M51 32C50.4477 31.9995 50.0004 31.5513 50.001 30.999 50.0015 30.4467 50.4497 29.9995 51.0019 30 51.3589 30.0003 51.6885 30.1909 51.867 30.5 52.1576 30.9697 52.7739 31.1149 53.2435 30.8243 53.6933 30.546 53.8486 29.9657 53.598 29.5 53.2359 28.8912 52.6697 28.4306 52 28.2L52 28C52 27.4477 51.5523 27 51 27 50.4477 27 50 27.4477 50 28L50 28.184C48.4409 28.7332 47.6222 30.4422 48.1713 32.0013 48.5938 33.2009 49.7282 34.0024 51 34 51.5523 34.0005 51.9996 34.4487 51.999 35.001 51.9985 35.5533 51.5503 36.0005 50.9981 36 50.6411 35.9996 50.3115 35.8091 50.133 35.5 49.8424 35.0303 49.2261 34.8851 48.7565 35.1757 48.3067 35.4539 48.1514 36.0343 48.402 36.5 48.7646 37.1091 49.3315 37.5698 50.002 37.8L50.002 38C50.002 38.5523 50.4497 39 51.002 39 51.5543 39 52.002 38.5523 52.002 38L52.002 37.816C53.5611 37.2669 54.3798 35.5578 53.8307 33.9987 53.4079 32.7984 52.2725 31.9967 51 32Z" class="MsftOfcThm_Text1_Fill_v2"/><path d="M49.456 12.773 48.856 12.715C48.3051 12.6759 47.8268 13.0907 47.7876 13.6416 47.7499 14.1726 48.1347 14.64 48.663 14.705L51.649 14.995C51.6822 14.9987 51.7156 15.0004 51.749 15 52.2622 14.9995 52.6917 14.6106 52.743 14.1L53.033 11.114C53.0997 10.5658 52.7092 10.0673 52.161 10.0006 51.6127 9.93398 51.1143 10.3244 51.0476 10.8726 51.0457 10.8884 51.0442 10.9042 51.043 10.92L50.987 11.494C49.6701 9.99077 48.1949 8.63392 46.587 7.447 46.1419 7.1195 45.5155 7.21486 45.188 7.66 44.8605 8.10514 44.9559 8.7315 45.401 9.059 46.8815 10.1486 48.2409 11.3937 49.456 12.773Z" class="MsftOfcThm_Text1_Fill_v2"/><path d="M5.365 18.9C5.85985 19.1452 6.45978 18.9428 6.705 18.448 8.04003 15.7682 9.83183 13.3416 12 11.277L12 11.829C12 12.3813 12.4477 12.829 13 12.829 13.5523 12.829 14 12.3813 14 11.829L14 9C14 8.44771 13.5523 8 13 8L10.172 8C9.61971 8 9.172 8.44771 9.172 9 9.172 9.55229 9.61971 10 10.172 10L10.449 10C8.18858 12.1863 6.31684 14.7415 4.914 17.556 4.6668 18.0499 4.86677 18.6506 5.36064 18.8978 5.36209 18.8986 5.36355 18.8993 5.365 18.9Z" class="MsftOfcThm_Text1_Fill_v2"/><path d="M11.469 45.749C11.5727 45.2065 11.2169 44.6827 10.6745 44.5791 10.6743 44.5791 10.6742 44.579 10.674 44.579L7.727 44.018C7.18443 43.9148 6.66098 44.2711 6.55782 44.8136 6.55754 44.8151 6.55727 44.8165 6.557 44.818L6 47.76C5.89685 48.3026 6.25306 48.826 6.79563 48.9292 6.79708 48.9295 6.79854 48.9297 6.8 48.93 6.8624 48.941 6.92563 48.9467 6.989 48.947 7.46835 48.9464 7.87988 48.6058 7.97 48.135L8.107 47.416C10.904 50.9371 14.5047 53.736 18.607 55.578 18.7349 55.6357 18.8737 55.6653 19.014 55.665 19.5663 55.6656 20.0145 55.2183 20.015 54.666 20.0155 54.2712 19.7835 53.9131 19.423 53.752 15.7298 52.094 12.4727 49.6 9.909 46.467L10.309 46.544C10.8482 46.6415 11.3654 46.287 11.469 45.749Z" class="MsftOfcThm_Text1_Fill_v2"/><path d="M45.489 48.5C44.9412 48.4329 44.4426 48.8223 44.375 49.37L44.008 52.348C43.9409 52.8958 44.3303 53.3943 44.878 53.462L47.855 53.828C47.8961 53.8336 47.9375 53.8363 47.979 53.836 48.5313 53.8332 48.9767 53.3832 48.9739 52.8309 48.9713 52.3293 48.5976 51.9073 48.1 51.844L47.565 51.778C49.4425 50.2693 51.1189 48.5261 52.553 46.591 52.8811 46.1464 52.7866 45.5201 52.342 45.192 51.8974 44.8639 51.2711 44.9584 50.943 45.403 49.6042 47.2108 48.0375 48.8383 46.282 50.245L46.359 49.614C46.4261 49.0662 46.0367 48.5676 45.489 48.5Z" class="MsftOfcThm_Text1_Fill_v2"/></svg>