<svg width="681.333" height="681.333" viewBox="-57 0 511 511.998" xmlns="http://www.w3.org/2000/svg" xmlns:xlink="http://www.w3.org/1999/xlink" overflow="hidden"><style>
.MsftOfcThm_Background1_Fill_v2 {
 fill:#FFFFFF; 
}
</style>
<path d="M372.465 33.1328 292.738 33.1328 261.809 2.20312C261.566 1.96094 261.305 1.74219 261.035 1.53516 260.98 1.49219 260.926 1.45312 260.867 1.41016 260.598 1.21875 260.32 1.03906 260.023 0.882812 260.008 0.871094 259.992 0.867188 259.977 0.855469 259.695 0.710938 259.406 0.585938 259.105 0.476562 259.051 0.453125 258.992 0.429688 258.934 0.410156 258.621 0.304688 258.301 0.210938 257.973 0.144531 257.953 0.140625 257.934 0.140625 257.914 0.136719 257.621 0.0820312 257.324 0.046875 257.02 0.0273438 256.926 0.0195312 256.832 0.015625 256.738 0.0117188 256.656 0.0078125 256.578 -1.09288e-16 256.5 -1.09288e-16L41.1328 -1.09288e-16C27.8633 -1.09288e-16 17.0664 10.7969 17.0664 24.0664L17.0664 150.602C17.0664 150.926 17.0938 151.242 17.1328 151.555 6.63281 167.227 0.5 186.062 0.5 206.301 0.5 226.281 6.4375 245.234 17.0664 261.129L17.0664 399.168C17.0664 403.309 20.4219 406.668 24.5664 406.668 28.707 406.668 32.0664 403.309 32.0664 399.168L32.0664 278.672C37.5156 283.707 43.582 288.172 50.1992 291.949L50.1992 313.984 50.1992 313.988 50.1992 335.473 49.4141 335.473C45.2734 335.473 41.9141 338.832 41.9141 342.973 41.9141 347.117 45.2734 350.473 49.4141 350.473L50.1992 350.473 50.1992 355.965C50.1992 366.762 57.5195 375.875 67.457 378.617 70.5352 393.273 83.5586 404.312 99.1172 404.312 114.676 404.312 127.699 393.273 130.773 378.617 140.711 375.875 148.031 366.762 148.031 355.969L148.031 350.477 148.816 350.477C152.957 350.477 156.316 347.117 156.316 342.977 156.316 338.832 152.957 335.477 148.816 335.477L148.031 335.477 148.031 291.953C178.805 274.387 197.734 241.98 197.734 206.305 197.734 151.926 153.492 107.688 99.1172 107.688 73.2461 107.688 49.6758 117.707 32.0664 134.059L32.0664 24.0664C32.0664 19.0664 36.1328 15 41.1328 15L248.996 15 248.996 90.332C248.996 103.605 259.797 114.398 273.066 114.398L348.398 114.398 348.398 454.797C348.398 459.797 344.332 463.867 339.332 463.867L41.1328 463.867C36.1328 463.867 32.0664 459.797 32.0664 454.797L32.0664 429.164C32.0664 425.023 28.707 421.664 24.5664 421.664 20.4258 421.664 17.0664 425.023 17.0664 429.164L17.0664 454.797C17.0664 468.07 27.8633 478.867 41.1328 478.867L50.1992 478.867 50.1992 487.93C50.1992 501.203 60.9961 511.996 74.2656 511.996L372.465 511.996C385.734 511.996 396.531 501.199 396.531 487.93L396.531 57.1992C396.531 43.9297 385.734 33.1328 372.465 33.1328ZM99.1172 389.316C92.2383 389.316 86.3008 385.281 83.4961 379.469L114.734 379.469C111.93 385.281 105.992 389.316 99.1172 389.316ZM133.031 355.969C133.031 360.652 129.219 364.469 124.531 364.469L124.004 364.469C123.992 364.469 123.98 364.465 123.965 364.465 123.953 364.465 123.941 364.469 123.926 364.469L74.3047 364.469C74.2891 364.469 74.2773 364.465 74.2656 364.465 74.2539 364.465 74.2383 364.469 74.2266 364.469L73.6992 364.469C69.0117 364.469 65.1992 360.652 65.1992 355.969L65.1992 350.477 133.031 350.477ZM65.1992 335.477 65.1992 321.484 133.031 321.484 133.031 335.477ZM90.0469 251.566 95.7617 254.426C96.8164 254.953 97.9688 255.219 99.1172 255.219 100.266 255.219 101.414 254.953 102.469 254.426L108.184 251.57 108.184 306.484 90.0469 306.484ZM99.1172 122.688C145.223 122.688 182.734 160.195 182.734 206.301 182.734 237.875 165.254 266.422 137.117 280.805 134.609 282.09 133.031 284.668 133.031 287.484L133.031 306.484 123.184 306.484 123.184 231.152C123.184 227.008 119.824 223.652 115.684 223.652 111.543 223.652 108.184 227.008 108.184 231.152L108.184 234.801 99.1172 239.332 90.0508 234.797 90.0508 231.152C90.0508 227.008 86.6914 223.652 82.5508 223.652 78.4062 223.652 75.0508 227.008 75.0508 231.152L75.0508 306.484 65.1992 306.484 65.1992 287.48C65.1992 284.664 63.6211 282.086 61.1133 280.805 32.9766 266.422 15.5 237.871 15.5 206.301 15.5 160.195 53.0117 122.688 99.1172 122.688ZM273.066 99.3984C268.066 99.3984 264 95.332 264 90.332L264 25.6055 337.793 99.3984ZM381.531 487.934C381.531 492.934 377.465 497 372.465 497L74.2656 497C69.2656 497 65.1992 492.934 65.1992 487.934L65.1992 478.867 339.332 478.867C352.602 478.867 363.398 468.07 363.398 454.801L363.398 106.898C363.398 106.816 363.391 106.734 363.387 106.648 363.383 106.562 363.379 106.477 363.371 106.387 363.352 106.074 363.316 105.766 363.258 105.465 363.258 105.453 363.254 105.441 363.254 105.43 363.188 105.098 363.094 104.781 362.988 104.465 362.969 104.406 362.945 104.348 362.922 104.289 362.812 103.992 362.691 103.707 362.547 103.434 362.535 103.41 362.527 103.391 362.516 103.371 362.359 103.078 362.184 102.805 361.992 102.535 361.945 102.473 361.902 102.414 361.855 102.355 361.656 102.094 361.441 101.84 361.211 101.605 361.207 101.602 361.203 101.598 361.203 101.598L307.738 48.1328 372.465 48.1328C377.465 48.1328 381.531 52.1992 381.531 57.1992Z" class="MsftOfcThm_Background1_Fill_v2" stroke="none" stroke-width="1" fill="#FFFFFF" fill-opacity="1"/><path d="M322.766 445.734C326.91 445.734 330.266 442.375 330.266 438.234L330.266 405.102C330.266 400.957 326.91 397.602 322.766 397.602 318.621 397.602 315.266 400.957 315.266 405.102L315.266 430.734 289.633 430.734C285.488 430.734 282.133 434.09 282.133 438.234 282.133 442.379 285.488 445.734 289.633 445.734Z" class="MsftOfcThm_Background1_Fill_v2" stroke="none" stroke-width="1" fill="#FFFFFF" fill-opacity="1"/><path d="M215.867 289.133C215.867 293.277 219.223 296.633 223.367 296.633L256.5 296.633C260.645 296.633 264 293.277 264 289.133L264 256C264 251.855 260.645 248.5 256.5 248.5L223.367 248.5C219.223 248.5 215.867 251.855 215.867 256ZM230.867 263.5 249 263.5 249 281.633 230.867 281.633Z" class="MsftOfcThm_Background1_Fill_v2" stroke="none" stroke-width="1" fill="#FFFFFF" fill-opacity="1"/><path d="M223.367 230.367 256.5 230.367C260.645 230.367 264 227.012 264 222.867L264 189.734C264 185.59 260.645 182.234 256.5 182.234L223.367 182.234C219.223 182.234 215.867 185.59 215.867 189.734L215.867 222.867C215.867 227.012 219.223 230.367 223.367 230.367ZM230.867 197.234 249 197.234 249 215.367 230.867 215.367Z" class="MsftOfcThm_Background1_Fill_v2" stroke="none" stroke-width="1" fill="#FFFFFF" fill-opacity="1"/><path d="M215.867 355.398C215.867 359.543 219.223 362.898 223.367 362.898L256.5 362.898C260.645 362.898 264 359.543 264 355.398L264 322.266C264 318.121 260.645 314.766 256.5 314.766L223.367 314.766C219.223 314.766 215.867 318.121 215.867 322.266ZM230.867 329.766 249 329.766 249 347.898 230.867 347.898Z" class="MsftOfcThm_Background1_Fill_v2" stroke="none" stroke-width="1" fill="#FFFFFF" fill-opacity="1"/></svg>