<svg width="682.667" height="682.667" viewBox="0 0 512 512" xmlns="http://www.w3.org/2000/svg" xmlns:xlink="http://www.w3.org/1999/xlink" overflow="hidden"><style>
.MsftOfcThm_Background1_Fill_v2 {
 fill:#FFFFFF; 
}
</style>
<path d="M75.2969 434.48C84.3672 434.48 92.8945 430.949 99.3086 424.535 102.277 421.562 102.277 416.75 99.3086 413.781 96.3398 410.812 91.5234 410.812 88.5547 413.781 81.2461 421.09 69.3516 421.09 62.043 413.781 59.0703 410.812 54.2578 410.812 51.2891 413.781 48.3203 416.75 48.3203 421.566 51.2891 424.535 57.6992 430.949 66.2266 434.48 75.2969 434.48Z" class="MsftOfcThm_Background1_Fill_v2" fill="#FFFFFF"/><path d="M89.5938 280.328C84.918 279.426 80.1055 278.969 75.293 278.969 33.7773 278.969 0 312.75 0 354.27L0 400.367C0 420.512 7.96875 438.816 20.8945 452.344 7.52734 466.289 0 484.84 0 504.395 0 508.594 3.40625 512 7.60547 512L142.988 512C147.188 512 150.594 508.594 150.594 504.395 150.594 484.859 143.18 466.469 129.711 452.383 135.148 446.707 139.73 440.16 143.203 432.938 145.023 429.152 143.426 424.609 139.641 422.789 135.859 420.973 131.316 422.566 129.496 426.352 121.277 443.457 105.285 455.801 86.7148 459.371 82.9883 460.086 79.1484 460.453 75.2969 460.453 42.1641 460.453 15.2109 433.496 15.2109 400.367L15.2109 369.41C25.6602 364.582 35.5898 355.758 40.543 345.266 54.4062 355.348 83.5742 370.336 135.387 371.75L135.387 400.367C135.387 404.566 138.793 407.973 142.992 407.973 147.191 407.973 150.594 404.566 150.594 400.367L150.594 354.27C150.594 334.16 142.762 315.25 128.539 301.023 117.84 290.324 104.371 283.168 89.5938 280.328ZM89.5898 474.305C99.9336 472.316 109.633 468.152 118.129 462.266 127.457 471.754 133.277 483.789 134.91 496.793L15.6875 496.793C17.3398 483.754 23.2188 471.645 32.4766 462.25 44.6445 470.695 59.3984 475.66 75.2969 475.66 80.1094 475.66 84.9219 475.203 89.5898 474.305ZM135.387 356.539C66.4297 354.531 42.3164 326.832 42.1133 326.59 40.082 324.09 36.6992 323.145 33.668 324.219 30.6328 325.297 28.6055 328.168 28.6055 331.383 28.6055 338.258 23.0117 346.348 15.2695 351.883 16.5273 319.852 42.9648 294.176 75.2969 294.176 79.1445 294.176 82.9844 294.543 86.7188 295.262 98.5039 297.527 109.246 303.238 117.785 311.777 129.137 323.133 135.387 338.223 135.387 354.27Z" class="MsftOfcThm_Background1_Fill_v2" fill="#FFFFFF"/><path d="M53.4102 379.199C53.4102 375 50.0078 371.598 45.8086 371.598 41.6094 371.598 38.2031 375 38.2031 379.199L38.2031 395.84C38.2031 400.039 41.6094 403.445 45.8086 403.445 50.0078 403.445 53.4102 400.039 53.4102 395.84Z" class="MsftOfcThm_Background1_Fill_v2" fill="#FFFFFF"/><path d="M112.391 395.84 112.391 379.199C112.391 375 108.988 371.594 104.789 371.594 100.59 371.594 97.1836 375 97.1836 379.199L97.1836 395.84C97.1836 400.039 100.59 403.441 104.789 403.441 108.988 403.441 112.391 400.039 112.391 395.84Z" class="MsftOfcThm_Background1_Fill_v2" fill="#FFFFFF"/><path d="M231.625 145.562C238.035 151.977 246.562 155.512 255.633 155.512 264.703 155.512 273.23 151.977 279.645 145.562 282.613 142.594 282.613 137.781 279.645 134.812 276.676 131.84 271.859 131.84 268.891 134.812 261.582 142.121 249.688 142.121 242.379 134.812 239.406 131.84 234.594 131.84 231.625 134.812 228.652 137.781 228.652 142.598 231.625 145.562Z" class="MsftOfcThm_Background1_Fill_v2" fill="#FFFFFF"/><path d="M187.941 233.031 323.324 233.031C327.523 233.031 330.93 229.625 330.93 225.426 330.93 205.891 323.512 187.496 310.047 173.414 323.059 159.777 330.93 141.352 330.93 121.398L330.93 75.2969C330.93 63.1875 327.984 51.1445 322.41 40.4727 320.465 36.7539 315.867 35.3125 312.148 37.2578 308.426 39.2031 306.984 43.7969 308.93 47.5195 313.438 56.1445 315.723 65.4922 315.723 75.3008L315.723 77.5703C246.77 75.5625 222.656 47.8633 222.449 47.6211 220.418 45.1211 217.039 44.1719 214.004 45.25 210.969 46.3281 208.945 49.1992 208.945 52.4141 208.945 59.2891 203.348 67.3789 195.605 72.918 196.863 40.8828 223.301 15.207 255.633 15.207 259.48 15.207 263.324 15.5703 267.055 16.293 275.422 17.8984 283.207 21.2109 290.199 26.1367 293.633 28.5547 298.375 27.7305 300.793 24.3008 303.211 20.8672 302.391 16.125 298.957 13.7031 290.191 7.52734 280.422 3.375 269.93 1.35938 265.254 0.457031 260.445 0 255.633 0 214.113 0 180.34 33.7773 180.34 75.2969L180.34 121.398C180.34 141.539 188.305 159.848 201.234 173.371 187.863 187.32 180.336 205.871 180.336 225.426 180.336 229.625 183.742 233.031 187.941 233.031ZM195.547 90.4414C205.992 85.6133 215.926 76.7891 220.879 66.2969 234.742 76.375 263.906 91.3672 315.723 92.7812L315.723 121.398C315.723 150.164 295.254 174.98 267.051 180.402 263.32 181.121 259.477 181.484 255.629 181.484 222.5 181.484 195.543 154.527 195.543 121.398L195.543 90.4414ZM212.812 183.281C224.98 191.727 239.734 196.691 255.633 196.691 260.441 196.691 265.254 196.234 269.926 195.336 280.445 193.312 290.098 189.125 298.477 183.309 307.801 192.797 313.613 204.828 315.246 217.824L196.023 217.824C197.676 204.781 203.555 192.676 212.812 183.281Z" class="MsftOfcThm_Background1_Fill_v2" fill="#FFFFFF"/><path d="M226.145 124.473C230.344 124.473 233.746 121.07 233.746 116.867L233.746 100.23C233.746 96.0312 230.344 92.625 226.145 92.625 221.945 92.625 218.539 96.0312 218.539 100.23L218.539 116.871C218.539 121.07 221.945 124.473 226.145 124.473Z" class="MsftOfcThm_Background1_Fill_v2" fill="#FFFFFF"/><path d="M285.125 124.473C289.324 124.473 292.73 121.07 292.73 116.867L292.73 100.23C292.73 96.0312 289.324 92.625 285.125 92.625 280.926 92.625 277.52 96.0312 277.52 100.23L277.52 116.871C277.52 121.07 280.926 124.473 285.125 124.473Z" class="MsftOfcThm_Background1_Fill_v2" fill="#FFFFFF"/><path d="M449.227 413.781C441.918 421.09 430.023 421.09 422.715 413.781 419.742 410.812 414.93 410.812 411.961 413.781 408.988 416.75 408.988 421.566 411.961 424.535 418.371 430.949 426.898 434.48 435.969 434.48 445.043 434.48 453.566 430.949 459.98 424.535 462.953 421.562 462.953 416.75 459.98 413.781 457.012 410.812 452.195 410.812 449.227 413.781Z" class="MsftOfcThm_Background1_Fill_v2" fill="#FFFFFF"/><path d="M511.266 354.27C511.266 334.16 503.434 315.25 489.211 301.023 478.512 290.324 465.043 283.168 450.266 280.324 445.59 279.426 440.777 278.969 435.965 278.969 394.449 278.969 360.672 312.746 360.672 354.27L360.672 400.367C360.672 420.512 368.641 438.816 381.566 452.34 368.195 466.289 360.668 484.84 360.668 504.395 360.668 508.594 364.074 512 368.273 512L503.656 512C507.859 512 511.262 508.594 511.262 504.395 511.262 484.859 503.848 466.465 490.379 452.383 503.395 438.746 511.266 420.32 511.266 400.367ZM435.969 294.176C439.816 294.176 443.656 294.543 447.391 295.262 459.176 297.527 469.918 303.238 478.457 311.777 489.809 323.133 496.059 338.223 496.059 354.27L496.059 356.539C427.102 354.531 402.992 326.832 402.785 326.59 400.754 324.09 397.371 323.145 394.34 324.219 391.309 325.297 389.281 328.168 389.281 331.383 389.281 338.258 383.688 346.352 375.941 351.887 377.199 319.852 403.633 294.176 435.969 294.176ZM376.359 496.793C378.012 483.754 383.891 471.645 393.148 462.25 405.316 470.695 420.07 475.66 435.969 475.66 440.781 475.66 445.59 475.203 450.262 474.305 460.781 472.281 470.43 468.094 478.812 462.277 488.137 471.766 493.949 483.797 495.582 496.793ZM447.387 459.371C443.66 460.086 439.816 460.453 435.969 460.453 402.836 460.453 375.879 433.496 375.879 400.367L375.879 369.41C386.328 364.582 396.262 355.758 401.215 345.266 415.078 355.348 444.246 370.336 496.059 371.75L496.059 400.367C496.059 429.133 475.59 453.945 447.387 459.371Z" class="MsftOfcThm_Background1_Fill_v2" fill="#FFFFFF"/><path d="M414.086 395.84 414.086 379.199C414.086 375 410.68 371.594 406.48 371.594 402.281 371.594 398.875 375 398.875 379.199L398.875 395.84C398.875 400.039 402.281 403.441 406.48 403.441 410.68 403.441 414.086 400.039 414.086 395.84Z" class="MsftOfcThm_Background1_Fill_v2" fill="#FFFFFF"/><path d="M465.461 371.598C461.258 371.598 457.855 375 457.855 379.199L457.855 395.84C457.855 400.039 461.258 403.445 465.461 403.445 469.66 403.445 473.062 400.039 473.062 395.84L473.062 379.199C473.062 375 469.66 371.598 465.461 371.598Z" class="MsftOfcThm_Background1_Fill_v2" fill="#FFFFFF"/><path d="M349.297 400.527 263.422 347.605 263.422 256C263.422 251.801 260.016 248.395 255.816 248.395 251.617 248.395 248.211 251.801 248.211 256L248.211 347.605 162.336 400.527C158.762 402.73 157.648 407.414 159.852 410.988 162.055 414.562 166.738 415.676 170.316 413.473L255.816 360.781 341.316 413.473C342.562 414.238 343.938 414.605 345.301 414.605 347.852 414.605 350.344 413.32 351.781 410.988 353.984 407.414 352.871 402.73 349.297 400.527Z" class="MsftOfcThm_Background1_Fill_v2" fill="#FFFFFF"/></svg>