<svg width="512" height="512" viewBox="0 0 96 96" xmlns="http://www.w3.org/2000/svg" xmlns:xlink="http://www.w3.org/1999/xlink" id="Icon" overflow="hidden"><style>
.MsftOfcThm_Background1_Fill_v2 {
 fill:#FFFFFF; 
}
</style>
<path d="M91 42C91 37.589 87.411 34 83 34L55.707 34 59.726 20.941C60.669 17.876 60.118 14.639 58.212 12.059 56.306 9.479 53.375 8 50.168 8L49.747 8C47.283 8 45.033 9.545 44.146 11.846L39.022 25.172C36.874 30.755 33.428 35.748 29 39.743L29 38C29 34.691 26.309 32 23 32L11 32C7.691 32 5 34.691 5 38L5 82C5 85.309 7.691 88 11 88L23 88C26.309 88 29 85.309 29 82L29 79.446 32.63 81.52C37.758 84.451 43.591 86 49.498 86L71 86C75.411 86 79 82.411 79 78 79 76.351 78.498 74.818 77.64 73.543 80.756 72.449 83 69.485 83 66 83 64.351 82.498 62.818 81.64 61.543 84.756 60.449 87 57.485 87 54 87 52.351 86.498 50.818 85.64 49.543 88.756 48.449 91 45.485 91 42ZM25 82C25 83.103 24.103 84 23 84L11 84C9.897 84 9 83.103 9 82L9 38C9 36.897 9.897 36 11 36L23 36C24.103 36 25 36.897 25 38ZM83 46 69 46C67.896 46 67 46.896 67 48 67 49.104 67.896 50 69 50L79 50C81.206 50 83 51.794 83 54 83 56.206 81.206 58 79 58L67 58C65.896 58 65 58.896 65 60 65 61.104 65.896 62 67 62L75 62C77.206 62 79 63.794 79 66 79 68.206 77.206 70 75 70L65 70C63.896 70 63 70.896 63 72 63 73.104 63.896 74 65 74L71 74C73.206 74 75 75.794 75 78 75 80.206 73.206 82 71 82L49.498 82C44.286 82 39.14 80.634 34.614 78.048L29 74.84 29 44.961 29.791 44.328C35.601 39.681 40.084 33.554 42.756 26.608L47.88 13.282C48.176 12.516 48.926 12 49.747 12L50.168 12C52.092 12 53.852 12.888 54.995 14.436 56.138 15.984 56.469 17.926 55.903 19.765L51.883 32.825C51.506 34.051 51.728 35.346 52.489 36.378 53.253 37.408 54.426 38 55.708 38L83 38C85.206 38 87 39.794 87 42 87 44.206 85.206 46 83 46Z" id="Like" class="MsftOfcThm_Background1_Fill_v2" stroke="none" stroke-width="1" fill="#FFFFFF" fill-opacity="1"/></svg>