<svg viewBox="0 0 1064 2147" xmlns="http://www.w3.org/2000/svg" xmlns:xlink="http://www.w3.org/1999/xlink" id="_Слой_2" overflow="hidden"><defs></defs><path d="M1047.37 339.5 1045.35 339.5 1045.35 127.36C1045.35 57.02 988.33 0 917.99 0L146.01 0C75.67 0 18.65 57.02 18.65 127.36L18.65 339.5 16.63 339.5C7.45 339.5 0 346.94 0 356.13L0 502.88C0 512.06 7.44 519.51 16.63 519.51L18.65 519.51 18.65 554.51 16.63 554.51C7.45 554.51 0 561.95 0 571.14L0 717.89C0 727.07 7.44 734.52 16.63 734.52L18.65 734.52 18.65 2019.66C18.65 2090 75.67 2147.02 146.01 2147.02L917.99 2147.02C988.33 2147.02 1045.35 2090 1045.35 2019.66L1045.35 609.5 1047.37 609.5C1056.55 609.5 1064 602.06 1064 592.87L1064 356.12C1064 346.94 1056.55 339.49 1047.37 339.49Z" stroke-width="0" fill="#333343"/></svg>