<svg viewBox="0 0 450.64 1796.19" xmlns="http://www.w3.org/2000/svg" xmlns:xlink="http://www.w3.org/1999/xlink" id="_Слой_2" overflow="hidden"><defs></defs><g><path d="M63.5 5 2.5 5C1.12 5 0 3.88 0 2.5 0 1.12 1.12 0 2.5 0L63.5 0C64.88 0 66 1.12 66 2.5 66 3.88 64.88 5 63.5 5Z" stroke-width="0" fill="#3E3D51"/><path d="M63.5 27.5 2.5 27.5C1.12 27.5 0 26.38 0 25 0 23.62 1.12 22.5 2.5 22.5L63.5 22.5C64.88 22.5 66 23.62 66 25 66 26.38 64.88 27.5 63.5 27.5Z" stroke-width="0" fill="#3E3D51"/><path d="M63.5 50 2.5 50C1.12 50 0 48.88 0 47.5 0 46.12 1.12 45 2.5 45L63.5 45C64.88 45 66 46.12 66 47.5 66 48.88 64.88 50 63.5 50Z" stroke-width="0" fill="#3E3D51"/></g><g><path d="M312.98 1765.19C304.56 1765.19 297.7 1772.04 297.7 1780.47 297.7 1788.9 304.55 1795.75 312.98 1795.75 321.41 1795.75 328.26 1788.9 328.26 1780.47 328.26 1772.04 321.41 1765.19 312.98 1765.19Z" stroke-width="0" fill="#31BCAD"/><path d="M374.17 1795.96C365.75 1795.96 358.89 1789.11 358.89 1780.68 358.89 1772.25 365.74 1765.4 374.17 1765.4 382.6 1765.4 389.45 1772.25 389.45 1780.68 389.45 1789.11 382.6 1795.96 374.17 1795.96ZM374.17 1770.41C368.5 1770.41 363.89 1775.02 363.89 1780.69 363.89 1786.36 368.5 1790.97 374.17 1790.97 379.84 1790.97 384.45 1786.36 384.45 1780.69 384.45 1775.02 379.84 1770.41 374.17 1770.41Z" stroke-width="0" fill="#31BCAD"/><path d="M435.36 1796.19C426.94 1796.19 420.08 1789.34 420.08 1780.91 420.08 1772.48 426.93 1765.63 435.36 1765.63 443.79 1765.63 450.64 1772.48 450.64 1780.91 450.64 1789.34 443.79 1796.19 435.36 1796.19ZM435.36 1770.64C429.69 1770.64 425.08 1775.25 425.08 1780.92 425.08 1786.59 429.69 1791.2 435.36 1791.2 441.03 1791.2 445.64 1786.59 445.64 1780.92 445.64 1775.25 441.03 1770.64 435.36 1770.64Z" stroke-width="0" fill="#31BCAD"/></g></svg>