<svg viewBox="0 0 407.04 468.68" xmlns="http://www.w3.org/2000/svg" xmlns:xlink="http://www.w3.org/1999/xlink" id="OBJECTS" overflow="hidden"><defs></defs><path d="M389.96 184.04C322.38 210.99 263.31 254.44 383.11 354.36 246.36 286.72 237.63 361.31 233.07 468.68 197.29 340.29 143.1 306.91 12.55 377.59 94.14 265.44 128.32 231.6 6.36 112.84 6.36 112.84 179.21 224.92 178.92 22.29 198.84 191.99 292.64 95.9 316.91 57.74 291.82 106.76 245.35 188.44 389.96 184.05Z" stroke-width="0" fill="#FFBB0F"/><path d="M196.04 149.7C196.78 180.59 219.2 199.88 256.34 178.08 209.98 223.22 287.3 219.2 287.3 219.2 249.22 229.05 212.24 242.07 215.49 334.44 215.49 334.44 208.7 242.07 117.7 299.29 117.7 299.29 199.42 253.93 139.81 205.57 196.55 214.02 196.04 149.7 196.04 149.7Z" stroke-width="0" fill="#FF822F"/><path d="M197.65 168.63C198.22 192.48 215.53 207.38 244.22 190.55 208.42 225.41 268.13 222.3 268.13 222.3 238.72 229.91 210.17 239.96 212.68 311.29 212.68 311.29 207.44 239.96 137.17 284.15 137.17 284.15 200.28 249.13 154.24 211.78 198.05 218.3 197.66 168.64 197.66 168.64Z" stroke-width="0" fill="#FFFFFF"/><path d="M133.55 311.28 51.12 392.22C51.12 392.22 103.48 361.54 133.55 311.28Z" stroke-width="0" fill="#FF822F"/><path d="M179.91 331.12 198.17 435.99C198.17 435.99 200.51 364.45 179.91 331.12Z" stroke-width="0" fill="#FF822F"/><path d="M222.51 359.6 246 417.11C246 417.11 229.06 393.93 222.51 359.6Z" stroke-width="0" fill="#FF822F"/><path d="M175.58 124.53 137.15 0C137.15 0 147.65 60.53 175.58 124.53Z" stroke-width="0" fill="#FF822F"/><path d="M198.24 116.92 198.24 54.14C198.24 54.14 206.53 86.99 198.24 116.92Z" stroke-width="0" fill="#FF822F"/><path d="M295.3 194.74 407.04 156.43C407.04 156.43 351.97 166.81 295.3 194.74Z" stroke-width="0" fill="#FF822F"/><path d="M287.19 298.47 361.67 390.15C361.67 390.15 332.94 342.03 287.19 298.47Z" stroke-width="0" fill="#FF822F"/><path d="M308.96 219.66 351.89 219.15C351.89 219.15 328.11 225.93 308.96 219.66Z" stroke-width="0" fill="#FF822F"/><path d="M92.34 200.49 0 162.02C0 162.02 55.38 198.27 92.34 200.5Z" stroke-width="0" fill="#FF822F"/><path d="M102.96 168.63 51.13 116.93C51.13 116.93 87.8 142.52 102.96 168.63Z" stroke-width="0" fill="#FF822F"/><path d="M102.96 289.71C108.15 288.41 39.11 320.84 39.11 320.84 39.11 320.84 61.33 300.1 102.96 289.71Z" stroke-width="0" fill="#FF822F"/></svg>