<svg viewBox="0 0 1038.89 440.49" xmlns="http://www.w3.org/2000/svg" xmlns:xlink="http://www.w3.org/1999/xlink" id="OBJECTS" overflow="hidden"><defs></defs><g><path d="M932.41 214.35C887.9 201.92 764.57 162.41 682.61 145.28 477.94 102.54 110.05 51.8 91.36 52.92 69.77 54.25 48.35 59.31 29.97 70.51 27.69 71.89 25.44 73.38 23.26 74.96 20.78 76.74 18.15 79.16 15.42 81.87 12.62 84.65 9.66 87.73 6.7 90.7-4.02 101.48-1.58 122.41 11.82 131.75 23.81 140.11 95.93 169.15 148.65 176.77 168.45 179.62 252.44 192.75 351.72 208.09 363.63 214.9 393.45 230.41 432.46 250.33L432.49 250.33C432.7 250.43 432.94 250.57 433.19 250.7 455.15 261.89 480.02 274.5 506.25 287.75 506.46 287.85 506.7 287.95 506.94 288.09 545.05 307.34 585.98 327.87 624.94 347.36 695.55 382.73 759.72 414.66 789.13 429.26 800.34 434.82 812 438.59 823.83 440.5L840.42 439.14 843.26 438.92C846.07 438.67 846.58 434.38 843.99 432.73L600.63 275.46C589.89 268.53 580.41 259.09 572.9 247.82L568.49 241.21C664.88 255.67 741.91 266.64 750.65 266.1 811.33 262.35 929.5 253.98 939.92 245.05 940.05 244.92 940.19 244.82 940.32 244.69 949.77 236.26 944.89 217.82 932.41 214.35Z" stroke-width="0" fill="#9EBCFC"/><path d="M406.45 97.22 515.05 115.68 559.44 3.84 554.56 2.88 548.42 1.68 548.39 1.68 543.78 0.75 542.55 0.51C536-0.8 529.46 0.46 524.04 4.12L407 82.95 389.95 94.43 401.7 96.43 406.45 97.23Z" stroke-width="0" fill="#9EBCFC"/><g><path d="M559.44 3.84 515.04 115.68 389.95 94.42 407 82.94C437.91 87.4 468.3 76.93 493.81 59.72 516.5 44.42 535.91 24 554.56 2.88L559.44 3.84Z" stroke-width="0" fill="#6C93EE"/><path d="M624.94 347.36C585.98 327.87 545.05 307.34 506.94 288.09 506.7 287.96 506.46 287.85 506.25 287.75 480.02 274.5 455.15 261.89 433.19 250.7 432.95 250.57 432.71 250.43 432.49 250.33L432.46 250.33C384.62 225.89 350.59 208.1 346.48 204.85 336.62 197 338.13 191.51 341.55 188.17 343.38 187.25 345.25 186.46 347.13 185.77 348.42 185.28 349.71 184.82 351 184.4L544.89 218.74C548.64 219.4 552.28 221.15 555.42 223.77 543.55 221.73 531.61 221.22 519.94 222.35 514.67 222.85 508.98 223.95 505.92 228.59 502.45 233.83 503.65 241.99 507.09 248.01 510.53 254.02 515.83 258.39 520.95 262.58 555.61 290.83 590.27 319.08 624.93 347.36Z" stroke-width="0" fill="#6C93EE"/></g></g><g><path d="M844.66 438.32C815.32 422.79 764.36 397.6 707.51 370.04 578.86 307.71 404.31 223.12 363.45 186.61L358.17 185.68C391.91 220.61 566.33 305.11 706.6 373.07 762.49 400.15 811 423.66 840.41 439.13L843.25 438.91 844.65 438.32Z" stroke-width="0" fill="#F0C753"/><path d="M548.4 1.67 406.45 97.22 401.7 96.42 543.78 0.74 548.4 1.67Z" stroke-width="0" fill="#F0C753"/><path d="M844.35 246.8 68.53 133.5 68.61 130.2 844.43 243.5 844.35 246.8Z" stroke-width="0" fill="#F0C753"/><g><path d="M56.09 84.46C55.52 89.12 54.74 92.97 53.98 103.32 41.41 103.34 25.55 92.82 15.43 81.87 18.15 79.16 20.79 76.74 23.27 74.96 25.45 73.38 27.7 71.89 29.98 70.51 37.02 76.01 49 81.48 56.09 84.46Z" stroke-width="0" fill="#2A3DBB"/><path d="M99.94 125.96 96.4 125.39C94.59 125.1 93.19 123.2 93.26 121.15L93.64 110.67C93.71 108.62 95.24 107.19 97.04 107.48L100.58 108.05C102.39 108.34 103.79 110.24 103.72 112.29L103.34 122.77C103.27 124.82 101.74 126.25 99.94 125.96Z" stroke-width="0" fill="#2A3DBB"/><path d="M115.66 128.5 112.12 127.93C110.31 127.64 108.91 125.74 108.98 123.69L109.36 113.21C109.43 111.16 110.96 109.73 112.76 110.02L116.3 110.59C118.11 110.88 119.51 112.78 119.44 114.83L119.06 125.31C118.99 127.36 117.46 128.79 115.66 128.5Z" stroke-width="0" fill="#2A3DBB"/><path d="M132.97 131.29 129.43 130.72C127.62 130.43 126.22 128.53 126.29 126.48L126.67 116C126.74 113.95 128.27 112.52 130.07 112.81L133.61 113.38C135.42 113.67 136.82 115.57 136.75 117.62L136.37 128.1C136.3 130.15 134.77 131.58 132.97 131.29Z" stroke-width="0" fill="#2A3DBB"/><path d="M148.69 133.83 145.15 133.26C143.34 132.97 141.94 131.07 142.01 129.02L142.39 118.54C142.46 116.49 143.99 115.06 145.79 115.35L149.33 115.92C151.14 116.21 152.54 118.11 152.47 120.16L152.09 130.64C152.02 132.69 150.49 134.12 148.69 133.83Z" stroke-width="0" fill="#2A3DBB"/><path d="M165.71 136.57 162.17 136C160.36 135.71 158.96 133.81 159.03 131.76L159.41 121.28C159.48 119.23 161.01 117.8 162.81 118.09L166.35 118.66C168.16 118.95 169.56 120.85 169.49 122.9L169.11 133.38C169.04 135.43 167.51 136.86 165.71 136.57Z" stroke-width="0" fill="#2A3DBB"/><path d="M181.42 139.11 177.88 138.54C176.07 138.25 174.67 136.35 174.74 134.3L175.12 123.82C175.19 121.77 176.72 120.34 178.52 120.63L182.06 121.2C183.87 121.49 185.27 123.39 185.2 125.44L184.82 135.92C184.75 137.97 183.22 139.4 181.42 139.11Z" stroke-width="0" fill="#2A3DBB"/><path d="M198.74 141.9 195.2 141.33C193.39 141.04 191.99 139.14 192.06 137.09L192.44 126.61C192.51 124.56 194.04 123.13 195.84 123.42L199.38 123.99C201.19 124.28 202.59 126.18 202.52 128.23L202.14 138.71C202.07 140.76 200.54 142.19 198.74 141.9Z" stroke-width="0" fill="#2A3DBB"/><path d="M214.45 144.43 210.91 143.86C209.1 143.57 207.7 141.67 207.77 139.62L208.15 129.14C208.22 127.09 209.75 125.66 211.55 125.95L215.09 126.52C216.9 126.81 218.3 128.71 218.23 130.76L217.85 141.24C217.78 143.29 216.25 144.72 214.45 144.43Z" stroke-width="0" fill="#2A3DBB"/><path d="M276.26 151.51 272.72 150.94C270.91 150.65 269.51 148.75 269.58 146.7L269.96 136.22C270.03 134.17 271.56 132.74 273.36 133.03L276.9 133.6C278.71 133.89 280.11 135.79 280.04 137.84L279.66 148.32C279.59 150.37 278.06 151.8 276.26 151.51Z" stroke-width="0" fill="#2A3DBB"/><path d="M291.98 154.04 288.44 153.47C286.63 153.18 285.23 151.28 285.3 149.23L285.68 138.75C285.75 136.7 287.28 135.27 289.08 135.56L292.62 136.13C294.43 136.42 295.83 138.32 295.76 140.37L295.38 150.85C295.31 152.9 293.78 154.33 291.98 154.04Z" stroke-width="0" fill="#2A3DBB"/><path d="M309.29 156.83 305.75 156.26C303.94 155.97 302.54 154.07 302.61 152.02L302.99 141.54C303.06 139.49 304.59 138.06 306.39 138.35L309.93 138.92C311.74 139.21 313.14 141.11 313.07 143.16L312.69 153.64C312.62 155.69 311.09 157.12 309.29 156.83Z" stroke-width="0" fill="#2A3DBB"/><path d="M325.01 159.37 321.47 158.8C319.66 158.51 318.26 156.61 318.33 154.56L318.71 144.08C318.78 142.03 320.31 140.6 322.11 140.89L325.65 141.46C327.46 141.75 328.86 143.65 328.79 145.7L328.41 156.18C328.34 158.23 326.81 159.66 325.01 159.37Z" stroke-width="0" fill="#2A3DBB"/><path d="M342.02 162.11 338.48 161.54C336.67 161.25 335.27 159.35 335.34 157.3L335.72 146.82C335.79 144.77 337.32 143.34 339.12 143.63L342.66 144.2C344.47 144.49 345.87 146.39 345.8 148.44L345.42 158.92C345.35 160.97 343.82 162.4 342.02 162.11Z" stroke-width="0" fill="#2A3DBB"/><path d="M357.74 164.65 354.2 164.08C352.39 163.79 350.99 161.89 351.06 159.84L351.44 149.36C351.51 147.31 353.04 145.88 354.84 146.17L358.38 146.74C360.19 147.03 361.59 148.93 361.52 150.98L361.14 161.46C361.07 163.51 359.54 164.94 357.74 164.65Z" stroke-width="0" fill="#2A3DBB"/><path d="M375.06 167.44 371.52 166.87C369.71 166.58 368.31 164.68 368.38 162.63L368.76 152.15C368.83 150.1 370.36 148.67 372.16 148.96L375.7 149.53C377.51 149.82 378.91 151.72 378.84 153.77L378.46 164.25C378.39 166.3 376.86 167.73 375.06 167.44Z" stroke-width="0" fill="#2A3DBB"/><path d="M390.77 169.98 387.23 169.41C385.42 169.12 384.02 167.22 384.09 165.17L384.47 154.69C384.54 152.64 386.07 151.21 387.87 151.5L391.41 152.07C393.22 152.36 394.62 154.26 394.55 156.31L394.17 166.79C394.1 168.84 392.57 170.27 390.77 169.98Z" stroke-width="0" fill="#2A3DBB"/><path d="M482.74 184.81 479.2 184.24C477.39 183.95 475.99 182.05 476.06 180L476.44 169.52C476.51 167.47 478.04 166.04 479.84 166.33L483.38 166.9C485.19 167.19 486.59 169.09 486.52 171.14L486.14 181.62C486.07 183.67 484.54 185.1 482.74 184.81Z" stroke-width="0" fill="#2A3DBB"/><path d="M498.45 187.35 494.91 186.78C493.1 186.49 491.7 184.59 491.77 182.54L492.15 172.06C492.22 170.01 493.75 168.58 495.55 168.87L499.09 169.44C500.9 169.73 502.3 171.63 502.23 173.68L501.85 184.16C501.78 186.21 500.25 187.64 498.45 187.35Z" stroke-width="0" fill="#2A3DBB"/><path d="M515.77 190.14 512.23 189.57C510.42 189.28 509.02 187.38 509.09 185.33L509.47 174.85C509.54 172.8 511.07 171.37 512.87 171.66L516.41 172.23C518.22 172.52 519.62 174.42 519.55 176.47L519.17 186.95C519.1 189 517.57 190.43 515.77 190.14Z" stroke-width="0" fill="#2A3DBB"/><path d="M531.49 192.68 527.95 192.11C526.14 191.82 524.74 189.92 524.81 187.87L525.19 177.39C525.26 175.34 526.79 173.91 528.59 174.2L532.13 174.77C533.94 175.06 535.34 176.96 535.27 179.01L534.89 189.49C534.82 191.54 533.29 192.97 531.49 192.68Z" stroke-width="0" fill="#2A3DBB"/><path d="M548.5 195.42 544.96 194.85C543.15 194.56 541.75 192.66 541.82 190.61L542.2 180.13C542.27 178.08 543.8 176.65 545.6 176.94L549.14 177.51C550.95 177.8 552.35 179.7 552.28 181.75L551.9 192.23C551.83 194.28 550.3 195.71 548.5 195.42Z" stroke-width="0" fill="#2A3DBB"/><path d="M564.22 197.96 560.68 197.39C558.87 197.1 557.47 195.2 557.54 193.15L557.92 182.67C557.99 180.62 559.52 179.19 561.32 179.48L564.86 180.05C566.67 180.34 568.07 182.24 568 184.29L567.62 194.77C567.55 196.82 566.02 198.25 564.22 197.96Z" stroke-width="0" fill="#2A3DBB"/><path d="M581.53 200.75 577.99 200.18C576.18 199.89 574.78 197.99 574.85 195.94L575.23 185.46C575.3 183.41 576.83 181.98 578.63 182.27L582.17 182.84C583.98 183.13 585.38 185.03 585.31 187.08L584.93 197.56C584.86 199.61 583.33 201.04 581.53 200.75Z" stroke-width="0" fill="#2A3DBB"/><path d="M597.25 203.28 593.71 202.71C591.9 202.42 590.5 200.52 590.57 198.47L590.95 187.99C591.02 185.94 592.55 184.51 594.35 184.8L597.89 185.37C599.7 185.66 601.1 187.56 601.03 189.61L600.65 200.09C600.58 202.14 599.05 203.57 597.25 203.28Z" stroke-width="0" fill="#2A3DBB"/><path d="M616.92 206.46 613.38 205.89C611.57 205.6 610.17 203.7 610.24 201.65L610.62 191.17C610.69 189.12 612.22 187.69 614.02 187.98L617.56 188.55C619.37 188.84 620.77 190.74 620.7 192.79L620.32 203.27C620.25 205.32 618.72 206.75 616.92 206.46Z" stroke-width="0" fill="#2A3DBB"/><path d="M632.64 208.99 629.1 208.42C627.29 208.13 625.89 206.23 625.96 204.18L626.34 193.7C626.41 191.65 627.94 190.22 629.74 190.51L633.28 191.08C635.09 191.37 636.49 193.27 636.42 195.32L636.04 205.8C635.97 207.85 634.44 209.28 632.64 208.99Z" stroke-width="0" fill="#2A3DBB"/><path d="M649.95 211.79 646.41 211.22C644.6 210.93 643.2 209.03 643.27 206.98L643.65 196.5C643.72 194.45 645.25 193.02 647.05 193.31L650.59 193.88C652.4 194.17 653.8 196.07 653.73 198.12L653.35 208.6C653.28 210.65 651.75 212.08 649.95 211.79Z" stroke-width="0" fill="#2A3DBB"/><path d="M665.67 214.32 662.13 213.75C660.32 213.46 658.92 211.56 658.99 209.51L659.37 199.03C659.44 196.98 660.97 195.55 662.77 195.84L666.31 196.41C668.12 196.7 669.52 198.6 669.45 200.65L669.07 211.13C669 213.18 667.47 214.61 665.67 214.32Z" stroke-width="0" fill="#2A3DBB"/><path d="M682.69 217.07 679.15 216.5C677.34 216.21 675.94 214.31 676.01 212.26L676.39 201.78C676.46 199.73 677.99 198.3 679.79 198.59L683.33 199.16C685.14 199.45 686.54 201.35 686.47 203.4L686.09 213.88C686.02 215.93 684.49 217.36 682.69 217.07Z" stroke-width="0" fill="#2A3DBB"/><path d="M698.4 219.6 694.86 219.03C693.05 218.74 691.65 216.84 691.72 214.79L692.1 204.31C692.17 202.26 693.7 200.83 695.5 201.12L699.04 201.69C700.85 201.98 702.25 203.88 702.18 205.93L701.8 216.41C701.73 218.46 700.2 219.89 698.4 219.6Z" stroke-width="0" fill="#2A3DBB"/><path d="M715.72 222.39 712.18 221.82C710.37 221.53 708.97 219.63 709.04 217.58L709.42 207.1C709.49 205.05 711.02 203.62 712.82 203.91L716.36 204.48C718.17 204.77 719.57 206.67 719.5 208.72L719.12 219.2C719.05 221.25 717.52 222.68 715.72 222.39Z" stroke-width="0" fill="#2A3DBB"/><path d="M731.43 224.93 727.89 224.36C726.08 224.07 724.68 222.17 724.75 220.12L725.13 209.64C725.2 207.59 726.73 206.16 728.53 206.45L732.07 207.02C733.88 207.31 735.28 209.21 735.21 211.26L734.83 221.74C734.76 223.79 733.23 225.22 731.43 224.93Z" stroke-width="0" fill="#2A3DBB"/></g></g><g><g><path d="M472.81 290.77 472.87 291.17 459.48 285.09 459.44 285.26C457.03 278.82 452.29 273.56 446.42 271.03L402.08 251.84 433.25 251.14 433.19 250.71C455.15 261.9 480.02 274.51 506.25 287.76L472.81 290.78Z" stroke-width="0" fill="#5880E8"/><g><path d="M990.67 10.68 924.54 141.66 893.33 203.52 728.28 159.5 741.69 150.4 940.17 15.28C948.54 9.57 958.48 7.14 968.65 8.24L990.66 10.68Z" stroke-width="0" fill="#6C93EE"/><path d="M924.54 141.66 893.33 203.52 728.28 159.5 741.69 150.4C803.31 169.93 868.4 166.81 924.55 141.66Z" stroke-width="0" fill="#5880E8"/></g><g><path d="M1038.89 293.65 1017.56 293.52C1007.7 293.46 997.78 291.5 988.19 287.71L930.11 264.81 819.82 221.3 903.99 227.69 911.37 231.3 1038.9 293.66Z" stroke-width="0" fill="#6C93EE"/><path d="M930.1 264.8 819.81 221.29 903.98 227.68 911.36 231.29C910.89 231.92 910.52 232.65 910.24 233.41 907.97 239.52 910.47 247.36 914.69 252.71 918.92 258.06 924.57 261.49 930.1 264.79Z" stroke-width="0" fill="#5880E8"/></g></g><g><g><path d="M460.22 320.95C459.19 323.91 457.8 326.63 455.91 328.98 455.02 330.14 453.98 331.17 452.82 332.12 451.4 332.44 427.54 337.35 402.28 330.27 404.64 328.02 405.83 318.97 406.47 311.35 408.08 291.69 407.32 260.69 403.78 251.04L410.13 253.78 447.1 269.79C452.5 272.15 456.89 277.04 459.11 283.02 459.52 284.15 459.88 285.32 460.12 286.52 462.05 295.59 463.92 309.85 460.21 320.94Z" stroke-width="0" fill="#9EBCFC"/><path d="M455.91 328.98C455.02 330.14 453.98 331.17 452.82 332.12 451.4 332.44 427.54 337.35 402.28 330.27 404.64 328.02 405.83 318.97 406.47 311.35 408.08 291.69 407.32 260.69 403.78 251.04L410.13 253.78C408.47 269.75 412.53 287.05 421.19 300.99 429.59 314.53 442.27 324.69 455.92 328.97Z" stroke-width="0" fill="#6C93EE"/></g><g><path d="M479.53 315.48C478.99 317.01 478.13 318.17 476.88 318.73 474.57 319.78 463.95 320.68 460.22 320.96 463.93 309.86 462.06 295.6 460.13 286.54 459.89 285.34 459.53 284.17 459.12 283.04L460.92 283.85 473.23 289.42C475.93 290.67 478.04 293.45 478.74 296.68 479.92 302.18 481.25 310.68 479.54 315.49Z" stroke-width="0" fill="#4B5AEA"/><path d="M479.53 315.48C478.99 317.01 478.13 318.17 476.88 318.73 474.57 319.78 463.95 320.68 460.22 320.96 463.93 309.86 462.06 295.6 460.13 286.54 459.89 285.34 459.53 284.17 459.12 283.04L460.92 283.85 461.35 284.55C462.35 290.05 463.42 295.58 465.52 300.76 467.65 305.9 471 310.75 475.45 313.31 476.79 314.08 478.22 314.66 479.53 315.5Z" stroke-width="0" fill="#2A3DBB"/></g><g><path d="M406.31 311.2C405.38 322.74 403.71 329.6 401.73 330.04 395.27 331.43 370.89 325.36 365.25 323.92 368.75 320.89 370.86 302.96 370.95 285.31 371.02 267.72 369.06 249.35 365.56 245.38 371.38 245.29 396.54 245.03 402.3 249.02 402.56 249.21 402.84 249.53 403.1 250.01L403.43 250.71C406.82 258.62 408.04 289.9 406.29 311.2Z" stroke-width="0" fill="#2A3DBB"/><g><path d="M371.35 285.24C371.26 308.38 368.13 323.64 365.21 323.62L365.12 323.62C363.84 323.48 362.45 320.01 361.34 314.27 361.22 313.5 361.07 312.7 360.94 311.87 359.76 304.27 359.17 294.28 359.2 283.76 359.26 270.18 360.36 259.33 361.87 252.68 362.9 247.99 364.13 245.4 365.34 245.41L365.46 245.41C368.38 245.83 371.45 261.93 371.35 285.23Z" stroke-width="0" fill="#89A7E9"/><path d="M371.35 285.24C371.26 308.38 368.13 323.64 365.21 323.62L365.12 323.62C363.84 323.48 362.45 320.01 361.34 314.27 361.36 314.2 361.39 314.14 361.41 314.07 364.53 303.5 367.36 292.67 367.8 281.25 368.03 274.56 367.4 267.7 365.59 261.1 364.72 257.9 363.29 255.29 361.86 252.69 362.89 248 364.12 245.41 365.33 245.42L365.45 245.42C368.37 245.84 371.44 261.94 371.34 285.24Z" stroke-width="0" fill="#4B5AEA"/></g></g></g></g></svg>