<svg viewBox="0 0 871.48 679.32" xmlns="http://www.w3.org/2000/svg" xmlns:xlink="http://www.w3.org/1999/xlink" overflow="hidden"><defs></defs><g id="Tail"><g><g><path d="M364.91 579.45C359.96 577.47 43.12 343.18 29.77 329.82 16.42 316.47 18.84 294.31 18.84 294.31L10.09 287.63C10.09 287.63-3 429.87 0.64 446.61 4.28 463.36 94.46 552.38 94.46 552.38L109.9 520.79 128.63 496.45 130.1 483.36 142.24 468.83 128.62 509.93C128.62 509.93 117.94 523.03 119.38 535.07 120.82 547.11 113.53 565.89 113.53 565.89L228.55 672.61 408.51 670.85 364.9 579.45Z" stroke-width="0" fill="#407BFF"/><path d="M408.53 670.85 228.56 672.6 227.5 671.63 170.77 619 113.53 565.88C113.53 565.88 120.8 547.12 119.38 535.06 117.95 523.02 128.61 509.93 128.61 509.93L142.23 468.83 130.08 483.35 128.61 496.45 109.9 520.8 94.46 552.38C94.46 552.38 88.27 546.26 79.06 536.94 53.12 510.67 3.34 458.96 0.65 446.6-3.01 429.87 10.11 287.64 10.11 287.64L18.86 294.31C18.86 294.31 16.42 316.47 29.77 329.82 35.55 335.57 97.64 382.34 166.87 433.87 196.56 455.99 227.56 478.98 255.98 499.97 315.08 543.6 363.04 578.68 364.93 579.44L408.08 669.86 408.54 670.85Z" stroke-width="0" fill="#FFFFFF" opacity="0.3"/></g><path d="M408.07 669.86 227.5 671.63 170.77 619 113.53 565.88C113.53 565.88 120.8 547.12 119.38 535.06 117.95 523.02 128.61 509.93 128.61 509.93L142.23 468.83 130.08 483.35 128.61 496.45 109.9 520.8 94.46 552.38C94.46 552.38 88.27 546.26 79.06 536.94 81.57 533.95 84.01 530.91 86.47 527.87 91.46 521.66 96.64 515.63 102.03 509.76 107.62 503.68 113.7 498.02 119.2 491.88 120.67 490.25 122.03 488.47 122.79 486.38 123.46 484.54 123.57 482.54 124.08 480.65 125.76 474.37 131.42 470.62 135.89 466.27 138.45 463.81 140.61 460.95 143.02 458.35 145.62 455.57 148.31 452.87 151.05 450.18 156.37 444.96 161.36 439.46 166.58 434.16 166.67 434.07 166.76 433.98 166.86 433.88 196.55 456 227.55 478.99 255.97 499.98 315.07 543.61 363.03 578.69 364.92 579.45L408.07 669.87Z" stroke-width="0" opacity="0.1"/><path d="M217.28 672.61C200.89 650.45 176.93 632.53 222.4 594.46 267.87 556.39 187.52 528.44 205.79 488.94 224.06 449.44 262.74 457.54 247.91 422.57 233.08 387.59 195.21 387.65 210.93 356.05 226.64 324.45 196.14 296.39 196.14 296.39 196.14 296.39 224.59 316.67 223.68 336.66 222.77 356.66 211.82 363.18 231.47 379.89 251.12 396.6 282.19 418.51 278.9 439.12 275.6 459.74 284.73 491.47 299.93 477.85 315.13 464.23 351.31 464.19 375.95 488.38 400.6 512.57 396.11 663.83 396.11 663.83L217.29 672.6Z" stroke-width="0" fill="#263238"/><path d="M217.28 672.61C200.89 650.45 176.93 632.53 222.4 594.46 267.87 556.39 187.52 528.44 205.79 488.94 224.06 449.44 262.74 457.54 247.91 422.57 233.08 387.59 195.21 387.65 210.93 356.05 226.64 324.45 196.14 296.39 196.14 296.39 196.14 296.39 224.59 316.67 223.68 336.66 222.77 356.66 211.82 363.18 231.47 379.89 251.12 396.6 282.19 418.51 278.9 439.12 275.6 459.74 284.73 491.47 299.93 477.85 315.13 464.23 351.31 464.19 375.95 488.38 400.6 512.57 396.11 663.83 396.11 663.83L217.29 672.6Z" stroke-width="0" fill="#FFFFFF" opacity="0.6"/><path d="M217.28 657.08C203.44 635.32 214.26 592.02 255.24 573.56 296.22 555.1 312.44 585.88 312.44 585.88 312.44 585.88 298.36 549.02 265.88 560.76 265.88 560.76 256.58 529.33 282.2 514.19 282.2 514.19 255.25 527.29 255.25 550.43 255.25 550.43 233.41 554.88 227.61 525.52 221.81 496.15 254.88 479.36 272.17 484.38 272.17 484.38 249.83 468.55 227.61 470.76 227.61 470.76 247.1 443.77 267.15 456.39 287.2 469.01 281.22 487.46 281.22 487.46L292.49 494.39C292.49 494.39 313.97 473.01 335.54 479.27 357.11 485.53 381.69 562.75 353.94 587.44 353.94 587.44 405.86 639.49 353.94 657.09 302.02 674.69 217.29 657.09 217.29 657.09Z" stroke-width="0" fill="#FFFFFF" opacity="0.2"/><g><g><path d="M323.57 400.67C324.07 401.66 324.42 402.73 324.61 403.76 325.17 407.07 324.23 410.57 321.93 413.19 315.09 420.85 301.55 433.44 284.47 435.99 281.41 436.45 278.36 435.28 276.39 432.98 276.13 432.68 275.88 432.34 275.65 432 275.44 431.7 275.24 431.34 275.01 431 267.89 419.92 251.64 393.28 239.67 364.3 229.64 340.04 222.67 314.17 226.52 294.35 227.37 290.03 239.4 296.65 255.55 311.23 261.62 316.68 268.27 323.25 275.12 330.79 291.8 349.16 309.73 373.19 323.56 400.67Z" stroke-width="0" fill="#407BFF"/><path d="M323.57 400.67C324.07 401.66 324.42 402.73 324.61 403.76 325.17 407.07 324.23 410.57 321.93 413.19 315.09 420.85 301.55 433.44 284.47 435.99 281.41 436.45 278.36 435.28 276.39 432.98 276.13 432.68 275.88 432.34 275.65 432 275.44 431.7 275.24 431.34 275.01 431 267.89 419.92 251.64 393.28 239.67 364.3 229.64 340.04 222.67 314.17 226.52 294.35 227.37 290.03 239.4 296.65 255.55 311.23 261.62 316.68 268.27 323.25 275.12 330.79 291.8 349.16 309.73 373.19 323.56 400.67Z" stroke-width="0" fill="#FFFFFF" opacity="0.3"/><path d="M323.57 400.67C324.07 401.66 324.42 402.73 324.61 403.76 325.17 407.07 324.23 410.57 321.93 413.19 315.09 420.85 301.55 433.44 284.47 435.99 281.41 436.45 278.36 435.28 276.39 432.98 276.13 432.68 275.88 432.34 275.65 432 275.44 431.7 275.24 431.34 275.01 431 282.15 419.17 310.84 406.24 310.84 406.24 310.84 406.24 275.99 348.67 255.55 311.23 261.62 316.68 268.27 323.25 275.12 330.79 291.8 349.16 309.73 373.19 323.56 400.67Z" stroke-width="0" opacity="0.1"/></g><g><path d="M278.19 335.64C278.44 330.32 278.44 326.41 275.11 323.07 273.73 321.69 272.88 320.45 272.37 319.41 272.42 325.6 272.49 336.28 272.35 339.46 272.14 344.02 267.98 344.02 266.62 346.36 265.26 348.71 266.62 363.3 266.62 363.3L258.86 356.88 258.86 365.76 260.31 378.6 261.92 390.89 255.34 413.24C254.37 416.51 251.5 418.28 248.6 418.28 246.28 418.28 243.93 417.15 242.55 414.8L266.62 148.87 293.92 282.28 278.2 335.63Z" stroke-width="0" fill="#407BFF"/><path d="M293.91 282.31 292.61 286.7 278.21 335.65C278.45 330.32 278.45 326.41 275.12 323.08 273.74 321.7 272.88 320.45 272.37 319.41 272.42 325.61 272.49 336.27 272.35 339.46 272.16 344.02 267.98 344.02 266.63 346.36 265.28 348.72 266.63 363.3 266.63 363.3L258.86 356.88 258.86 365.76 260.31 378.62 261.93 390.9 255.34 413.24C254.38 416.52 251.5 418.28 248.61 418.28 246.32 418.28 244 417.19 242.63 414.9 242.58 414.83 242.56 414.8 242.56 414.8L266.64 148.89 293.93 282.31Z" stroke-width="0" fill="#FFFFFF" opacity="0.2"/><path d="M278.2 335.65C278.44 330.32 278.44 326.41 275.11 323.08 273.73 321.7 272.87 320.45 272.36 319.41 272.41 325.61 272.48 336.27 272.34 339.46 272.15 344.02 267.97 344.02 266.62 346.36 265.27 348.72 266.62 363.3 266.62 363.3L258.85 356.88 258.85 365.76 260.3 378.62 261.92 390.9 255.33 413.24C254.37 416.52 251.49 418.28 248.6 418.28 246.31 418.28 243.99 417.19 242.62 414.9 243.22 415.48 246.96 418.9 250.05 414.8 253.43 410.36 258.2 391.57 258.2 391.57L255.09 354.75 258.2 342.11 260.61 350.7 267.56 340.21C267.56 340.21 268.69 334.25 268.69 333.84 268.69 333.53 272.36 310.9 272.36 310.9L277.76 316.35C277.76 316.35 288.52 288.63 292.6 286.7L278.2 335.65Z" stroke-width="0" opacity="0.1"/></g><g><path d="M499.14 679.26C392.61 326.27 313.95 146.68 287.66 91.35 285.08 85.92 276.98 87.54 276.64 93.55 264.85 305.1 324.2 577.21 349.05 679.27L499.13 679.27Z" stroke-width="0" fill="#407BFF"/><path d="M499.14 679.25 349.06 679.25C336.4 627.26 314.77 530.79 298.18 420.94 290.68 371.21 284.19 318.73 280.02 266.4 276.22 218.62 274.36 170.82 275.42 125.16 275.67 114.48 276.09 103.94 276.66 93.54 276.98 87.53 285.08 85.92 287.66 91.35 291.46 99.34 296.34 109.85 302.25 123.11 317.83 158.09 340.5 211.97 368.9 287.64 386.51 334.59 406.37 390.38 428.09 455.25 449.98 520.59 473.77 595.18 499.14 679.25Z" stroke-width="0" fill="#FFFFFF" opacity="0.4"/></g><g><path d="M379.08 118.74C383.89 106.75 448.74 181.11 475.88 276.4 477.5 282.1 475.47 288.2 470.76 291.8 460.29 299.82 440.15 312.45 417.96 311.55 413.47 311.37 409.51 308.55 407.82 304.37 397.01 277.57 357.47 172.53 379.07 118.74Z" stroke-width="0" fill="#407BFF"/><path d="M476.44 280.57C476.37 284.87 474.32 289.06 470.78 291.8 460.31 299.83 440.17 312.44 417.99 311.55 414.01 311.39 410.46 309.18 408.53 305.8 408.28 305.36 408.05 304.88 407.84 304.37 401.86 289.57 387.13 250.93 378.77 210.22 372 177.19 369.43 142.83 379.09 118.74 381.99 111.54 406.57 135.52 431.61 176.51 448.23 203.71 465.07 238.39 475.89 276.41 476.28 277.79 476.47 279.19 476.44 280.58Z" stroke-width="0" fill="#FFFFFF" opacity="0.4"/><path d="M476.44 280.57C476.37 284.87 474.32 289.06 470.78 291.8 460.31 299.83 440.17 312.44 417.99 311.55 414.01 311.39 410.46 309.18 408.53 305.8 409.15 296.69 452 267.67 474.01 278.9 474.98 279.41 475.78 279.96 476.45 280.58Z" stroke-width="0" opacity="0.1"/><path d="M439.57 286.81C478.9 269.97 487.68 287.27 447.55 302.29 407.42 317.31 400.24 303.66 439.57 286.81Z" stroke-width="0" fill="#263238"/><path d="M431.6 176.5C415.7 182.92 395.65 193.88 378.76 210.22 371.99 177.19 369.42 142.83 379.08 118.74 381.98 111.54 406.56 135.52 431.6 176.51Z" stroke-width="0" opacity="0.1"/></g><path d="M305.14 260.99C305.14 260.99 294.92 264.33 280.01 266.4 276.21 218.62 274.35 170.82 275.41 125.16 280.17 128.11 283.65 130.18 283.65 130.18 283.65 130.18 310.44 238.05 305.14 260.99Z" stroke-width="0" opacity="0.1"/><path d="M283.64 130.17 82.83 102.91 86.74 133.19C87.76 141.1 92.56 148.03 99.6 151.78L305.15 260.98 305.15 260.98C305.15 253.93 304.53 246.89 303.28 239.95L283.64 130.18Z" stroke-width="0" fill="#407BFF"/><path d="M305.14 260.99 99.6 151.79C92.56 148.04 87.75 141.11 86.74 133.19L82.83 102.9 102.65 105.59 109.32 106.49 283.65 130.17 303.28 239.95C304.52 246.88 305.14 253.92 305.14 260.99Z" stroke-width="0" fill="#FFFFFF" opacity="0.5"/><path d="M293.91 237.88C293.91 237.88 114.72 146.44 110.6 140.39 108.14 136.75 104.87 119.13 102.64 105.59L109.31 106.49C112.28 119.15 115.52 132.68 116.54 135.51 118.5 141.1 291.49 225.79 291.49 225.79L293.91 237.87Z" stroke-width="0" fill="#407BFF"/><path d="M368.89 287.64C314.48 241.29 297.11 125.16 297.11 125.16L302.24 123.11C317.82 158.09 340.49 211.97 368.89 287.64Z" stroke-width="0" opacity="0.1"/><path d="M302.24 123.12 491.03 0 500.99 37.59C502.74 44.19 501.16 51.23 496.76 56.45L338.7 243.93 338.7 243.93C334.66 239.97 331.77 235 330.33 229.53L302.25 123.12Z" stroke-width="0" fill="#407BFF"/><path d="M496.76 56.46 338.7 243.93C334.67 239.97 331.77 235 330.32 229.52L302.24 123.1 478.19 8.38 480.22 7.04 491.03 0 501 37.58C502.75 44.19 501.16 51.23 496.77 56.45Z" stroke-width="0" fill="#FFFFFF" opacity="0.5"/><g opacity="0.1"><path d="M484.58 51.33C477.4 59.13 338.51 217.84 337.13 219.45L335.38 217.93C336.78 216.32 475.7 57.59 482.9 49.77 487.39 44.91 482.39 23.07 478.18 8.39L480.21 7.05C484.17 20.58 490.29 45.16 484.58 51.33Z" stroke-width="0"/></g></g><path d="M499.14 679.25 349.06 679.25C336.4 627.26 314.77 530.79 298.18 420.94 327.02 422.53 378.64 429.2 428.09 455.25 449.98 520.59 473.77 595.18 499.14 679.25Z" stroke-width="0" opacity="0.1"/><path d="M293.91 679.26 309.5 636.61C309.5 636.61 353.94 649.41 358.16 650.77 362.39 652.12 378.55 652.61 379.12 656.92 379.69 661.23 408.52 670.85 408.52 670.85L415.02 652.79C415.02 652.79 439.2 655.71 443.58 656.19 447.97 656.67 468 664.86 468 664.86L488.14 636.6 520.7 659.79C520.7 659.79 556.04 679.12 551.63 679.25 547.21 679.38 293.91 679.25 293.91 679.25Z" stroke-width="0" fill="#407BFF"/><path d="M293.91 679.26 309.5 636.61C309.5 636.61 353.94 649.41 358.16 650.77 362.39 652.12 378.55 652.61 379.12 656.92 379.69 661.23 408.52 670.85 408.52 670.85L415.02 652.79C415.02 652.79 439.2 655.71 443.58 656.19 447.97 656.67 468 664.86 468 664.86L488.14 636.6 520.7 659.79C520.7 659.79 556.04 679.12 551.63 679.25 547.21 679.38 293.91 679.25 293.91 679.25Z" stroke-width="0" fill="#FFFFFF" opacity="0.6"/><path d="M196.66 679.26 242.54 642.06 292.97 664.36 320.51 679.26 196.66 679.26Z" stroke-width="0" fill="#407BFF"/><path d="M196.66 679.26 242.54 642.06 292.97 664.36 320.51 679.26 196.66 679.26Z" stroke-width="0" fill="#FFFFFF" opacity="0.5"/></g></g><g id="Cabin"><g><g><path d="M680.27 338.98C661.4 281.93 685.97 252.27 722.85 255.56 759.73 258.86 771.65 211.07 739.59 186.41 707.53 161.74 713.9 148.26 727.1 143.47 740.3 138.68 739.81 98.18 717.59 90.51 695.38 82.84 688.82 55.98 720.63 47.56 720.63 47.56 694.08 59.58 708.43 72.67 728.78 91.23 787.52 105.79 769.98 135.59 752.44 165.39 735.19 172.86 764.45 183.69 793.71 194.52 859.26 278.86 813.13 300.42 813.13 300.42 854.25 332.89 832.48 372.96 810.71 413.03 763.23 405.5 763.23 405.5L680.26 338.98Z" stroke-width="0" fill="#263238"/><path d="M680.27 338.98C661.4 281.93 685.97 252.27 722.85 255.56 759.73 258.86 771.65 211.07 739.59 186.41 707.53 161.74 713.9 148.26 727.1 143.47 740.3 138.68 739.81 98.18 717.59 90.51 695.38 82.84 688.82 55.98 720.63 47.56 720.63 47.56 694.08 59.58 708.43 72.67 728.78 91.23 787.52 105.79 769.98 135.59 752.44 165.39 735.19 172.86 764.45 183.69 793.71 194.52 859.26 278.86 813.13 300.42 813.13 300.42 854.25 332.89 832.48 372.96 810.71 413.03 763.23 405.5 763.23 405.5L680.26 338.98Z" stroke-width="0" fill="#FFFFFF" opacity="0.6"/><path d="M680.27 323.19C683.92 269.95 692.05 269.64 727.1 270.92 762.15 272.2 763.23 296.9 763.23 296.9 763.23 296.9 738.18 288.82 727.1 296.9 727.1 296.9 785.56 298.91 792.06 329.26 792.06 329.26 792.63 309.76 777.93 303.33 777.93 303.33 802.88 292.16 819.2 329.26 835.53 366.36 801.22 398.94 763.23 381.03 725.23 363.12 680.26 323.19 680.26 323.19Z" stroke-width="0" fill="#FFFFFF" opacity="0.2"/><path d="M746.87 261.45C750.01 260.68 775.89 270.23 774.29 288.9 774.29 288.9 800.05 289.37 806.59 294.9 806.59 294.9 822.24 292.24 815.56 267.97 808.88 243.69 779.75 238.76 779.75 238.76 779.75 238.76 795.53 233.35 802.21 238.52 808.89 243.69 806.59 236.28 806.59 236.28 806.59 236.28 790.4 213.43 782.04 208.23 773.68 203.03 764.45 204.81 764.45 204.81 764.45 204.81 763.49 193.94 777.32 198.85 777.32 198.85 764.53 186.57 756.97 204.81 756.97 204.81 767.01 217.51 767.61 226.96 767.61 226.96 779.75 219.93 787.03 223.92 787.03 223.92 765.52 235.06 763.23 242.71 760.93 250.36 764.45 255.22 764.45 255.22 764.45 255.22 778.73 251.11 784.61 270.63 784.61 270.63 774.9 259.25 756.97 259.25 747.17 259.25 746.87 261.46 746.87 261.46Z" stroke-width="0" fill="#FFFFFF" opacity="0.2"/></g><path d="M535.59 578.5 512.51 620.02 508.2 646.67C508.2 646.67 505.02 654.52 495.92 654.52 486.82 654.52 480.66 650.72 481.21 659.03 481.76 667.34 463.44 677.63 463.44 677.63L715.81 677.63 629.85 593.99 535.59 578.51Z" stroke-width="0" fill="#263238"/><path d="M524.9 675.25 538.13 657.9 566.94 662.74 576.65 675.25 582.49 672.69 589.63 647.05 637.35 634.91 698.65 670.89 701.62 677.61 516.56 677.61 524.9 675.25Z" stroke-width="0" fill="#FFFFFF" opacity="0.2"/><path d="M637.35 614.34C634.32 612.73 601.54 622.08 599.11 620.75 596.68 619.41 591.08 612.92 589.63 614.34 588.18 615.76 576.65 614.34 576.65 614.34L562.08 623 558.44 647.05 554.19 637.62 554.19 623.01C554.19 623.01 555.85 612.31 551.38 614.35 546.91 616.39 543.88 614.35 543.88 614.35L538.13 621.78 536.21 634.92 527.63 631.25 527.63 588.79 576.65 572.99 637.35 604.06 637.35 614.36Z" stroke-width="0" fill="#FFFFFF" opacity="0.2"/><path d="M521.41 576.12 613.09 325.61 675.81 310.9 710.54 310.9 724.16 325.61 753.74 336.68 765.04 340.33 776.52 354.05 786.46 373.85C786.46 373.85 796.5 362.67 798.45 373.85 800.4 385.03 814.41 411.79 810.33 406.21 806.25 400.64 747.13 608.32 747.13 608.32L760.75 639.58C760.75 639.58 740.91 631.91 747.13 646.58 753.35 661.25 778.67 659.19 778.67 659.19L786.46 677.61 675.81 677.61 665.76 665.93 665.76 654.27 627.03 640.34 616.13 615.41 584.9 604.36 553.36 599.9 531.16 604.36 521.41 615.41 506.81 611.28 521.41 576.13Z" stroke-width="0" fill="#407BFF"/><path d="M810.34 406.21C806.27 400.64 747.14 608.32 747.14 608.32L760.76 639.57C760.76 639.57 740.92 631.91 747.14 646.57 753.35 661.25 778.67 659.18 778.67 659.18L786.47 677.61 675.82 677.61 665.76 665.92 665.76 654.25 627.05 640.33 616.14 615.41 584.91 604.34 553.36 599.9 531.17 604.34 521.41 615.41 506.82 611.27 521.41 576.1 613.1 325.59 675.81 310.88 710.54 310.88 724.16 325.59 753.76 336.66 765.04 340.32 776.52 354.04 786.46 373.86C786.46 373.86 796.49 362.68 798.45 373.86 800.41 385.04 814.4 411.79 810.33 406.22Z" stroke-width="0" fill="#FFFFFF" opacity="0.5"/><path d="M658.95 539.49C659.96 539.63 660.79 539.79 661.51 539.97 658.4 539.46 656.91 539.23 658.95 539.49Z" stroke-width="0" opacity="0.1"/><path d="M810.34 406.21C806.27 400.64 747.14 608.32 747.14 608.32L760.76 639.57C760.76 639.57 740.92 631.91 747.14 646.57 753.35 661.25 778.67 659.18 778.67 659.18L786.47 677.61 675.82 677.61 665.76 665.92 665.76 654.25 627.05 640.33 616.14 615.41 584.91 604.34 553.36 599.9 531.17 604.34 521.41 615.41 506.82 611.27 517.15 604.85 521.41 608.05 531.12 598.87 545.09 593.99 556.62 593.99 586.35 598.87 616.08 609.99 634.31 623.15C634.31 623.15 668.9 641.17 668.9 642.11 668.9 643.05 673.13 650.88 673.13 650.88L697.41 648.65C697.41 648.65 702.27 642.37 706.52 642.11 710.78 641.86 716.23 638.84 716.23 638.84L726.54 634.63C726.54 634.63 717.45 618.98 706.52 614.33 695.59 609.7 682.24 602.55 669.49 593.99 656.74 585.43 640.35 579.7 631.86 575.58 623.37 571.46 584.52 565.11 584.52 565.11 584.52 565.11 602.13 565.92 608.2 565.96 614.25 566.01 626.4 562.28 631.26 565.96 636.12 569.64 644.61 575.83 652.5 578.5 660.39 581.17 673.74 586.95 681.01 590.72 688.31 594.52 691.34 598.98 699.84 600.71 708.33 602.41 713.19 602.48 718.67 607.61 724.12 612.74 730.8 618.73 736.87 623.01 742.92 627.29 749.62 635.16 747.78 631.23 745.96 627.29 748.4 603.84 741.11 600.71 733.84 597.56 739.91 593.28 723.5 584.78 707.11 576.31 702.26 570.26 692.55 562.36 682.84 554.47 684.06 548.16 674.35 545.24 666.16 542.78 665.37 540.96 661.49 539.97 668.16 541.07 682.39 543.51 685.29 545.24 689.55 547.79 696.82 557.64 698.64 558.8 700.46 559.93 707.75 565.41 713.83 569.04 719.88 572.68 718.69 571.94 724.74 576.54 730.82 581.17 734.45 583.05 738.09 587.26 741.75 591.47 744.17 593.98 744.17 593.98L796.55 416.26C796.55 416.26 801.84 420.31 789.09 408.78 776.34 397.25 766.63 386.04 766.63 386.04L759.36 369.33C759.36 369.33 778.16 386.98 781.2 389.38 784.24 391.8 786.65 397 790.31 397.73 793.95 398.47 795.86 402.7 797.63 404.52 799.4 406.34 809.74 412.41 802.44 400.29 795.17 388.14 792.13 375.39 792.13 375.39L783.02 378.91C783.02 378.91 774.41 372.37 774.46 369.34 774.53 366.3 758.74 342.02 758.74 342.02L725.97 331.71C725.97 331.71 712.62 342.62 712.62 340.8 712.62 338.98 718.07 328.67 718.07 328.67L709.58 317.3 675.82 310.88 710.55 310.88 724.17 325.59 753.77 336.66 765.05 340.32 776.53 354.04 786.47 373.86C786.47 373.86 796.5 362.68 798.46 373.86 800.42 385.04 814.41 411.79 810.34 406.22Z" stroke-width="0" opacity="0.1"/><g><path d="M731.58 497.28 730.36 501.33 721.64 530.03C721.64 530.03 701.78 514.08 684.75 507.13 683.76 506.74 682.79 506.37 681.83 506.03L691.01 477.49C691.01 477.49 712.46 482.46 731.58 497.28Z" stroke-width="0" fill="#263238"/><path d="M716.32 554.77C716.41 555.53 716.18 556.57 715.81 557.69 715.17 559.67 714.04 561.99 713.23 563.81 712.17 567.29 711 571.13 709.94 574.65 711.48 578.61 712.13 585.37 706.07 584.11 702.07 583.28 696.04 577.14 692.42 574.86 685.7 570.67 676.43 563.58 668.19 563.45 668.03 563.43 667.87 563.43 667.71 563.43 667.43 563.43 667.13 563.43 666.9 563.27 666.67 563.11 666.6 562.81 666.53 562.53 665.13 555.9 672.33 544.88 679.88 546.97 682.83 547.8 682.37 542.83 683.82 541.1 686.03 538.5 687.39 538.8 690.59 539.44 697.56 540.84 704.7 545.17 710.52 549.06 713.05 550.74 716.02 552.17 716.32 554.77Z" stroke-width="0" fill="#263238"/><path d="M702.56 614.12C701.34 616.86 697.93 621.16 700.07 623.21 692.94 616.4 686.38 609.86 678.58 603.72 677.96 603.24 677.29 602.73 676.51 602.64 675.45 602.53 674.46 603.17 673.47 603.54 670.06 604.83 665.83 603.15 662.58 604.3 662.05 604.48 661.54 604.76 661.06 605.13 661.34 603.96 661.27 601.61 661.24 599.05 661.19 594.36 661.24 588.95 663.75 588.79 666.28 588.63 670.38 590.95 672.7 591.85 680.82 594.98 688.21 599.1 695.65 603.61 698.66 605.43 703.18 608.74 702.97 612.75 702.95 613.14 702.79 613.6 702.56 614.13Z" stroke-width="0" fill="#263238"/><path d="M751.35 435.28 750.13 439.28 741.41 468.02C741.41 468.02 721.55 452.07 704.52 445.12 703.53 444.71 702.56 444.34 701.62 444.02L710.8 415.46C710.8 415.46 732.23 420.45 751.35 435.28Z" stroke-width="0" fill="#263238"/><path d="M768.93 382.49 767.71 386.52 758.99 415.22C758.99 415.22 739.11 399.27 722.08 392.34 721.11 391.93 720.15 391.56 719.2 391.24L728.38 362.68C728.38 362.68 749.81 367.67 768.93 382.5Z" stroke-width="0" fill="#263238"/><path d="M725.11 518.57 725.11 518.59 721.63 530.03C721.63 530.03 701.77 514.08 684.74 507.13L692.36 483.43C692.36 483.43 698.18 484.79 706.47 488.17L707.55 496.66 711.39 493.62 711.39 501.65 704.51 503.74 704.51 512.58 712.61 512.58 715.81 518.56 725.11 518.56Z" stroke-width="0" fill="#FFFFFF" opacity="0.4"/><path d="M715.82 557.69C715.18 559.67 714.05 561.99 713.24 563.81L702.98 555.66 696.83 549.15 691.35 558.79 689.44 548.8 682.03 558.79 670.27 558.79C672.8 554.74 676.94 551.72 681.25 552.92 684.17 553.73 683.71 548.75 685.16 547.03 687.37 544.45 688.73 544.75 691.95 545.4 698.9 546.8 706.03 551.13 711.86 555 713.22 555.9 714.69 556.73 715.82 557.69Z" stroke-width="0" fill="#FFFFFF" opacity="0.4"/><path d="M750.13 439.29 748.15 445.8 744.05 441.08 737.49 446.67 726.49 439.58 719.19 429.04 713.21 432.05 716.34 441.74 713.21 444.5 713.21 449.26C710.31 447.69 707.36 446.29 704.51 445.12L712.13 421.42C712.13 421.42 731.69 425.95 750.13 439.28Z" stroke-width="0" fill="#FFFFFF" opacity="0.4"/><path d="M767.71 386.51 766.84 389.39 752.39 389.39 751.35 382.72 744.05 385.04 739.31 378.43 731.58 394.98 730.36 379.91 728.75 386.88 726.98 394.52C725.32 393.71 723.69 392.98 722.08 392.33L729.72 368.6C729.72 368.6 749.28 373.16 767.72 386.51Z" stroke-width="0" fill="#FFFFFF" opacity="0.4"/></g><path d="M800.75 381.8 786.22 394.99 727.58 587.07 727.33 606.26 719.21 623.22C719.21 623.22 728.39 626.79 726.58 634.63 724.77 642.47 726.41 649.48 726.5 650.83 726.59 652.18 726.5 664.29 726.5 664.29L731.6 672.68 738.73 675.24C738.73 675.24 731.75 670.84 731.6 661.81 731.45 652.78 732.36 645.33 731.6 642.68 730.84 640.03 732.36 640.74 731.6 634.32 730.84 627.9 726.5 620 726.5 620L731.6 610.66 731.6 588.77C731.6 588.77 738.73 574.73 739.34 572.48 739.95 570.23 790.33 397.73 790.33 397.73L803.72 389.38 800.76 381.78Z" stroke-width="0" fill="#407BFF"/><g><path d="M863.14 565.96 811.08 561.64 808.97 584.28 792.58 584.28 792.58 614.35 774.46 619.06 774.46 650.84 754.95 654.89 757.19 675.26 811.08 670.92C811.08 670.92 859.04 626.77 863.14 565.96Z" stroke-width="0" fill="#263238"/><path d="M863.14 565.96 811.08 561.64 808.97 584.28 792.58 584.28 792.58 614.35 774.46 619.06 774.46 650.84 754.95 654.89 757.19 675.26 811.08 670.92C811.08 670.92 859.04 626.77 863.14 565.96Z" stroke-width="0" fill="#FFFFFF" opacity="0.2"/><path d="M752.38 679.32C752.38 679.32 806.43 638.38 818.86 558.79L871.34 563.81C871.34 563.81 876.34 640.21 827.86 677.6L752.38 679.31Z" stroke-width="0" fill="#407BFF"/><path d="M827.85 677.62 752.39 679.32C752.39 679.32 806.43 638.38 818.85 558.79L871.32 563.81C871.32 563.81 876.34 640.22 827.85 677.61Z" stroke-width="0" fill="#FFFFFF" opacity="0.6"/><path d="M827.85 677.62 752.39 679.32C752.39 679.32 806.43 638.38 818.85 558.79L871.32 563.81 821.26 562.96C821.26 611.22 771.18 668.57 771.18 668.57L780.89 664.47C780.89 664.47 792.12 664.01 796.54 664.47 800.96 664.93 820.34 668.57 820.34 668.57L788.03 668.57 778.46 672.46C778.46 672.46 788.93 673.13 790.2 672.6 791.47 672.05 808.06 673.57 813.97 672.69 819.88 671.79 827.85 677.61 827.85 677.61Z" stroke-width="0" opacity="0.1"/><path d="M832.18 582.08C832.18 582.08 829.45 608.37 822.62 618.44L852.66 621.32C852.66 621.32 860.24 599.77 861.23 587.06L832.17 582.08Z" stroke-width="0" fill="#263238"/><path d="M861.24 587.06C860.25 599.79 852.66 621.33 852.66 621.33L850.24 621.1 839.84 620.11 822.62 618.45C827.32 611.52 830.08 596.93 831.32 588.49 831.57 586.86 831.76 585.45 831.9 584.37 832.08 582.92 832.18 582.09 832.18 582.09L861.25 587.06Z" stroke-width="0" fill="#263238"/><path d="M858.09 588.88C857.28 599.21 852.13 615.42 850.24 621.1L839.84 620.11C840.39 619.37 840.83 618.61 840.83 618.45 840.83 618.15 842.88 614.17 842.88 614.17L846.31 614.17 844.7 612.58C843.11 610.99 843.8 611.43 843.8 611.43 843.8 611.43 844.03 607.56 844.47 606L848.04 605.08C848.04 605.08 846.31 603.03 845.62 601.7 844.93 600.39 845.85 601.19 846.75 598.25 847.67 595.28 846.75 598.25 847.67 597.33 848.57 596.43 847.67 597.33 846.52 595.77 845.39 594.2 843.57 592.57 843.57 592.57L840.6 595.77 836.96 595.77C836.96 595.77 836.5 591.88 836.96 590.96 837.42 590.06 833.55 595.06 833.55 595.75 833.34 595.4 832.28 591.88 831.32 588.5 831.57 586.87 831.76 585.46 831.9 584.38L858.09 588.89Z" stroke-width="0" fill="#FFFFFF" opacity="0.4"/></g></g></g><g id="Cockpit"><g><g><path d="M674.18 675.04C674.18 675.04 692.89 661.63 695.29 662.79 697.69 663.95 704.39 666.13 710.46 668.14 716.53 670.15 724.57 675.04 724.57 675.04 724.57 675.04 731.73 674.47 734.75 675.04 737.77 675.61 755.64 679.25 755.64 679.25L662.67 679.25 674.17 675.04Z" stroke-width="0" fill="#407BFF"/><path d="M613.64 679.28 638.26 654.7 632 642.21 570.22 679.28 613.64 679.28Z" stroke-width="0" fill="#407BFF"/><path d="M674.18 675.04C674.18 675.04 692.89 661.63 695.29 662.79 697.69 663.95 704.39 666.13 710.46 668.14 716.53 670.15 724.57 675.04 724.57 675.04 724.57 675.04 731.73 674.47 734.75 675.04 737.77 675.61 755.64 679.25 755.64 679.25L662.67 679.25 674.17 675.04Z" stroke-width="0" fill="#FFFFFF" opacity="0.4"/><path d="M613.64 679.28 638.26 654.7 632 642.21 570.22 679.28 613.64 679.28Z" stroke-width="0" fill="#FFFFFF" opacity="0.4"/><path d="M625.51 679.28 671.61 679.28 660.9 666.57 629.38 662.68 612.01 662.68 598.47 679.28 625.51 679.28Z" stroke-width="0" fill="#407BFF"/><path d="M479.26 668.88 484.72 652.16C484.72 652.16 492.91 644.65 495.65 646.32 498.38 647.98 524.94 663.39 524.94 663.39L575.92 672.38 586.88 679.28 485.65 679.28 479.28 668.88Z" stroke-width="0" fill="#407BFF"/><path d="M625.51 679.28 671.61 679.28 660.9 666.57 629.38 662.68 612.01 662.68 598.47 679.28 625.51 679.28Z" stroke-width="0" fill="#FFFFFF" opacity="0.5"/><path d="M479.26 668.88 484.72 652.16C484.72 652.16 492.91 644.65 495.65 646.32 498.38 647.98 524.94 663.39 524.94 663.39L575.92 672.38 586.88 679.28 485.65 679.28 479.28 668.88Z" stroke-width="0" fill="#FFFFFF" opacity="0.5"/></g><g><path d="M418.99 515.77C418.99 515.77 384.18 464 447.03 453.39 509.88 442.79 533.91 412.74 499.13 391.35 464.35 369.95 500.77 335.73 511.7 335.36 522.63 334.98 571.43 294.71 524.27 269.51 477.1 244.31 486.9 200.68 486.9 200.68 486.9 200.68 488.03 236.93 511.7 247.9 535.37 258.88 579.66 250.1 584.83 297.28 590 344.46 549.49 373.89 568.84 381.03 588.18 388.16 637.27 471.86 609.09 497.38 580.9 522.91 554.03 511.15 591.94 550.75 629.85 590.35 554.42 671.61 554.42 671.61L397.69 671.61 418.99 515.76Z" stroke-width="0" fill="#263238"/><path d="M418.99 515.77C418.99 515.77 384.18 464 447.03 453.39 509.88 442.79 533.91 412.74 499.13 391.35 464.35 369.95 500.77 335.73 511.7 335.36 522.63 334.98 571.43 294.71 524.27 269.51 477.1 244.31 486.9 200.68 486.9 200.68 486.9 200.68 488.03 236.93 511.7 247.9 535.37 258.88 579.66 250.1 584.83 297.28 590 344.46 549.49 373.89 568.84 381.03 588.18 388.16 637.27 471.86 609.09 497.38 580.9 522.91 554.03 511.15 591.94 550.75 629.85 590.35 554.42 671.61 554.42 671.61L397.69 671.61 418.99 515.76Z" stroke-width="0" fill="#FFFFFF" opacity="0.6"/><path d="M413.71 497.38C413.71 497.38 412.53 476.89 452.56 469.4 492.59 461.91 498.36 505.21 498.36 505.21 498.36 505.21 499.88 478.62 489.86 470.72 489.86 470.72 513.57 452.22 538.13 470.72 562.69 489.22 555.41 524.15 555.41 524.15 555.41 524.15 527.64 496.04 485.06 524.15 485.06 524.15 545.7 500.09 566.94 542 588.18 583.9 566.94 610.7 566.94 610.7 566.94 610.7 530.33 576.68 511.71 587.09 511.71 587.09 510.93 539.83 456.69 537.74 456.69 537.74 464.12 500.08 413.71 497.38Z" stroke-width="0" fill="#FFFFFF" opacity="0.2"/><path d="M422.03 553.86C422.03 553.86 452.99 537.02 482.12 553.86 511.25 570.7 501.24 627.6 501.24 627.6 501.24 627.6 516.72 611.22 511.71 598.48 511.71 598.48 542.67 586.64 554.05 613.05 565.43 639.45 552.23 668.21 549.95 667.26 547.67 666.31 433.16 659.1 433.16 659.1L422.03 553.87Z" stroke-width="0" fill="#FFFFFF" opacity="0.2"/><path d="M511.71 453.26C519.45 452.8 563.61 439.9 551.31 414.71 551.31 414.71 572.71 444.15 537.65 457.35 537.65 457.35 574.52 477.53 570.88 506.36 570.88 506.36 596.83 496.5 600.47 471.46 604.11 446.42 593.19 420.86 572.25 417.78 572.25 417.78 581.35 412.28 591.82 423.2 591.82 423.2 578.16 394.07 564.51 387.69 550.85 381.32 535.38 398.16 535.38 398.16 535.38 398.16 536.14 383.5 550.86 381.32 550.86 381.32 545.85 360.4 529.92 359.02 529.92 359.02 536.75 355.82 543.58 362.65 543.58 362.65 576.36 322.74 562.24 296.72 562.24 296.72 566.36 312.12 558.61 323.5 550.86 334.88 527.64 342.62 527.64 342.62 527.64 342.62 531.74 343.52 530.83 351.27 530.83 351.27 526 338.8 511.71 341.26 497.42 343.72 499.15 356.74 499.15 356.74 499.15 356.74 505.79 352.21 513.53 359.03 513.53 359.03 494.41 350.37 489.86 367.67 485.31 384.97 505.79 392.01 515.35 385.3 515.35 385.3 514.89 378.17 521.27 378.15 521.27 378.15 515.81 380.41 519.45 388.61 519.45 388.61 511.71 394.91 514.44 401.55 517.17 408.19 521.72 407.9 521.72 407.9 521.72 407.9 529.91 401.24 535.83 407.9 535.83 407.9 527.18 407.25 519.9 414.71 512.62 422.17 525.36 436.14 525.36 436.14 525.36 436.14 510.81 448.7 490.31 452.34 490.31 452.34 507.15 453.03 524.45 445.63L511.7 453.25Z" stroke-width="0" fill="#FFFFFF" opacity="0.2"/></g><path d="M440.69 548.8C441.9 549 468 529.41 468 529.41L477.1 544.43 464.35 590.35 474.06 607.04 472.85 631.6 492.88 639.07 495.92 650.89 516.16 656.45 522.02 660.8 533.55 667.27 541.44 667.27 566.93 675.84 149.39 675.84 422.48 541.63 440.69 548.82Z" stroke-width="0" fill="#263238"/><path d="M483.48 673.97C483.48 673.97 487.58 607.41 461.17 544.42L465.27 538.73C465.27 538.73 489.85 581.15 489.85 673.97L483.48 673.97Z" stroke-width="0" fill="#263238"/><path d="M483.48 673.97C483.48 673.97 487.58 607.41 461.17 544.42L465.27 538.73C465.27 538.73 489.85 581.15 489.85 673.97L483.48 673.97Z" stroke-width="0" fill="#FFFFFF" opacity="0.2"/><path d="M370.13 483.3C370.13 483.3 445.24 477.79 495.77 485.55L491.22 488.3C491.22 488.3 396.99 488.2 376.05 492.12 355.11 496.04 370.13 483.29 370.13 483.29Z" stroke-width="0" fill="#263238"/><path d="M370.13 483.3C370.13 483.3 445.24 477.79 495.77 485.55L491.22 488.3C491.22 488.3 396.99 488.2 376.05 492.12 355.11 496.04 370.13 483.29 370.13 483.29Z" stroke-width="0" fill="#FFFFFF" opacity="0.2"/><path d="M405.24 643.42 464.82 622.15 508.52 567.22 511.71 572.92 470.28 627.6 396.76 669.05 405.24 643.42Z" stroke-width="0" fill="#263238"/><path d="M405.24 643.42 464.82 622.15 508.52 567.22 511.71 572.92 470.28 627.6 396.76 669.05 405.24 643.42Z" stroke-width="0" fill="#FFFFFF" opacity="0.3"/><g><path d="M225.57 511.83 240.39 523.82 217.63 583.63C217.63 583.63 373.62 576.02 383.03 572.68 392.44 569.34 414.59 566.03 413.68 558.73 412.77 551.43 384.55 494.08 384.55 494.08 384.55 494.08 265.07 490.43 225.57 511.83Z" stroke-width="0" fill="#263238"/><g><path d="M224.4 540.03 222.69 541.63 223.55 541.34 222.69 543.18 224.4 541.61 223.78 543.18 225.2 540.89 224.4 540.03Z" stroke-width="0" fill="#263238"/><path d="M252.34 544.43C251.92 544.43 251.49 544.39 251.06 544.32 237.95 542.13 242.04 514.9 242.22 513.74L244.49 514.09C244.45 514.35 240.55 540.23 251.43 542.04 252.96 542.29 254.37 541.92 255.77 540.88 263.44 535.19 266.4 513.07 266.43 512.85L268.71 513.15C268.59 514.1 265.59 536.47 257.14 542.74 255.63 543.86 254.02 544.43 252.34 544.43Z" stroke-width="0" fill="#263238"/><path d="M225.08 542 223.38 540.45C232.97 529.88 233.1 514.63 233.1 514.48L235.4 514.48C235.4 515.14 235.28 530.76 225.09 542Z" stroke-width="0" fill="#263238"/><g opacity="0.2"><path d="M252.34 544.43C251.92 544.43 251.49 544.39 251.06 544.32 237.95 542.13 242.04 514.9 242.22 513.74L244.49 514.09C244.45 514.35 240.55 540.23 251.43 542.04 252.96 542.29 254.37 541.92 255.77 540.88 263.44 535.19 266.4 513.07 266.43 512.85L268.71 513.15C268.59 514.1 265.59 536.47 257.14 542.74 255.63 543.86 254.02 544.43 252.34 544.43Z" stroke-width="0" fill="#FFFFFF"/></g><g opacity="0.2"><path d="M225.08 542 223.38 540.45C232.97 529.88 233.1 514.63 233.1 514.48L235.4 514.48C235.4 515.14 235.28 530.76 225.09 542Z" stroke-width="0" fill="#FFFFFF"/></g><path d="M236.23 548.8C235.97 548.8 235.74 548.76 235.55 548.71 229.44 547.12 229.86 523.2 230.14 515.91L232.44 516C231.91 530.06 233.17 545.71 236.13 546.48 236.18 546.49 236.34 546.54 236.68 546.33 240.33 544.12 245.44 527.13 247.81 516.94L250.05 517.46C249.4 520.25 243.55 544.86 237.88 548.3 237.26 548.67 236.7 548.79 236.23 548.79Z" stroke-width="0" fill="#263238"/><path d="M266.2 574.86 263.97 574.29C270.09 550.38 260.71 512.98 260.61 512.61L262.84 512.04C263.24 513.59 272.46 550.39 266.2 574.86Z" stroke-width="0" fill="#263238"/><g opacity="0.3"><path d="M236.23 548.8C235.97 548.8 235.74 548.76 235.55 548.71 229.44 547.12 229.86 523.2 230.14 515.91L232.44 516C231.91 530.06 233.17 545.71 236.13 546.48 236.18 546.49 236.34 546.54 236.68 546.33 240.33 544.12 245.44 527.13 247.81 516.94L250.05 517.46C249.4 520.25 243.55 544.86 237.88 548.3 237.26 548.67 236.7 548.79 236.23 548.79Z" stroke-width="0" fill="#FFFFFF"/></g><g opacity="0.3"><path d="M266.2 574.86 263.97 574.29C270.09 550.38 260.71 512.98 260.61 512.61L262.84 512.04C263.24 513.59 272.46 550.39 266.2 574.86Z" stroke-width="0" fill="#FFFFFF"/></g></g><g><path d="M203.67 577.15 205.19 567.21C205.19 567.21 214.14 562.58 214.9 562.31 215.66 562.05 230.53 562.31 230.53 562.31L235.84 568.85 233.87 583.62 203.67 577.14Z" stroke-width="0" fill="#263238"/><path d="M203.67 577.15 205.19 567.21C205.19 567.21 214.14 562.58 214.9 562.31 215.66 562.05 230.53 562.31 230.53 562.31L235.84 568.85 233.87 583.62 203.67 577.14Z" stroke-width="0" fill="#FFFFFF" opacity="0.2"/><path d="M230.53 562.32 222.52 569.34 226.53 582.06 233.87 583.63 235.84 568.86 230.53 562.32Z" stroke-width="0" opacity="0.2"/></g><g><path d="M236.2 578.48 236.88 568.45C236.88 568.45 245.42 563.09 246.15 562.76 246.88 562.43 261.73 561.46 261.73 561.46L267.57 567.53 266.84 582.42 236.21 578.48Z" stroke-width="0" fill="#263238"/><path d="M236.2 578.48 236.88 568.45C236.88 568.45 245.42 563.09 246.15 562.76 246.88 562.43 261.73 561.46 261.73 561.46L267.57 567.53 266.84 582.42 236.21 578.48Z" stroke-width="0" fill="#FFFFFF" opacity="0.2"/><path d="M261.73 561.46 254.39 569.34 236.89 568.45 246.15 562.76 261.73 561.46Z" stroke-width="0" fill="#FFFFFF" opacity="0.2"/></g><g><path d="M227.37 513.28C227.37 513.28 267.25 503.1 305.49 505.6L299.34 572.97C299.34 572.97 215.58 586.85 176.43 578.43L186.5 568.84 192.82 574.33 197.37 572.05 202.15 574.1 203.06 572.51 208.75 575.85 207.84 572.06 213.3 574.79 218.99 574.79 223.31 574.11 227.63 570.01 229.68 572.06 230.82 574.11 235.6 574.79 246.07 574.56 250.02 573.19 250.02 570.46 255.18 571.83 263.37 571.37 263.6 564.31 277.26 565.45 279.99 560.21 280.22 551.56 286.37 551.1 282.96 548.6 287.74 545.64 290.93 541.77 288.65 535.84 288.88 530.39 295.48 522.65 286.6 529.25 281.14 528.34C281.14 528.34 280.68 528.11 280.46 526.75 280.23 525.38 280.23 521.74 280.23 520.83 280.23 519.92 280.46 515.82 280.46 515.82L277.96 515.59 275 513.77 276.59 519.69 274.54 517.19 272.26 514.91 264.29 518.78 258.83 527.2 252.23 528.57 251.77 516.51 249.04 527.89 241.72 529.94 238.11 516.74 231.28 526.3 231.05 522.43 228.32 522.89 224.93 525.85 220.36 524.48 227.37 513.26Z" stroke-width="0" fill="#263238"/><path d="M227.37 513.28C227.37 513.28 267.25 503.1 305.49 505.6L299.34 572.97C299.34 572.97 215.58 586.85 176.43 578.43L186.5 568.84 192.82 574.33 197.37 572.05 202.15 574.1 203.06 572.51 208.75 575.85 207.84 572.06 213.3 574.79 218.99 574.79 223.31 574.11 227.63 570.01 229.68 572.06 230.82 574.11 235.6 574.79 246.07 574.56 250.02 573.19 250.02 570.46 255.18 571.83 263.37 571.37 263.6 564.31 277.26 565.45 279.99 560.21 280.22 551.56 286.37 551.1 282.96 548.6 287.74 545.64 290.93 541.77 288.65 535.84 288.88 530.39 295.48 522.65 286.6 529.25 281.14 528.34C281.14 528.34 280.68 528.11 280.46 526.75 280.23 525.38 280.23 521.74 280.23 520.83 280.23 519.92 280.46 515.82 280.46 515.82L277.96 515.59 275 513.77 276.59 519.69 274.54 517.19 272.26 514.91 264.29 518.78 258.83 527.2 252.23 528.57 251.77 516.51 249.04 527.89 241.72 529.94 238.11 516.74 231.28 526.3 231.05 522.43 228.32 522.89 224.93 525.85 220.36 524.48 227.37 513.26Z" stroke-width="0" fill="#FFFFFF" opacity="0.4"/><path d="M220.36 524.5 224.93 524.88 227.18 521.69 227.18 517.44 228.7 521.16 231.89 521.16 231.89 522.6 237.2 516.23 235.68 513.65C235.68 513.65 237.5 516.23 238.26 515.77 239.02 515.31 240.95 513.65 240.95 513.65L239.32 516.53 242.51 528.06 247.67 526.54 250.4 516.22 248.28 515.01 246.61 516.38 248.73 513.65 250.4 514.86 252.37 513.65 252.37 511.07 254.19 513.35 260.41 512.14 254.34 514.42C254.34 514.42 253.13 516.09 253.28 516.54 253.43 517 252.82 526.25 252.82 526.25L257.98 525.49 261.32 518.51 269.51 514.26 272.54 512.89C272.54 512.89 274.06 515.32 274.06 514.86L274.06 511.07 272.09 509.4 275.12 509.4 276.03 511.07 278.91 512.89 282.1 506.37C282.1 506.37 249.08 508.07 227.35 513.29L220.34 524.51Z" stroke-width="0" fill="#FFFFFF" opacity="0.2"/><path d="M186.5 568.86 192.89 575.87 192.13 578.45 194.1 575.87 197.44 573.66 201.84 575.87 200.78 578.15 202.6 577.09 203.66 578.46 203.66 573.67 208.97 577.1C208.97 577.1 207.3 580.59 207.76 580.13 208.22 579.67 210.49 577.85 210.49 577.85L212.46 579.22 210.18 575.88 209.88 574.52 213.07 575.88 213.07 577.7 214.28 575.88 221.41 575.88 221.41 576.49 220.35 577.98 217.62 579.38 222.32 578.32 222.32 576.65C222.32 576.65 224.79 576.35 224.92 576.8 225.05 577.26 225.81 578.47 225.81 578.47L225.81 575.89 224.92 575.28 227.17 572.7 228.69 573.31 230.51 575.89 229.75 578.77 231.87 575.89 244.01 576.35 244.01 578.17 245.22 575.89 249.47 574.53 252.05 577.41 251.22 574.53 252.05 572.55 254.78 573.61 257.51 572.55 257.51 575.18 258.72 574.83 260.09 575.89 259.48 573.92 260.09 572.86 263.73 572.4 266.01 574.53 264.8 571.19 266.01 567.24 270.87 567.24 266.77 582.87 168.14 587.12 175.12 581.18 176.41 578.47 186.48 568.88Z" stroke-width="0" fill="#FFFFFF" opacity="0.2"/></g><path d="M313.46 505.21 356.71 506.36 365.59 564.1 307.55 572.91 307.55 557.73 313.7 562.32 318.02 548.8 320.3 561.45 321.67 551.35 323.72 553.17C323.72 553.17 326.91 558.35 327.36 558.72 327.81 559.09 329.41 563.13 329.86 561.45 330.31 559.77 331.23 550.67 331.23 550.67 331.23 550.67 332.37 550.9 333.28 551.81 334.19 552.72 339.43 556.13 339.43 556.13L338.5 547.48C338.5 547.48 341.93 548.06 342.61 548.79 343.29 549.52 346.93 547.48 346.48 546.79 346.02 546.11 345.17 541.99 345.17 541.99 345.17 541.99 343.96 539.62 345.33 540.02 346.71 540.42 348.07 537.46 348.07 537.46 348.07 537.46 350.57 537.2 351.26 535.85 351.94 534.5 353.08 532.35 353.08 532.35L349.67 528.05 352.17 522.21 343.07 528.23 344.21 519.93 345.34 514.47C345.34 514.47 342.62 512.35 341.94 512.84 341.26 513.33 338.26 516.06 338.51 517.2 338.75 518.34 336.59 520.61 336.59 520.61L332.38 520.61 326.46 514.46 325.09 523.79 321.22 514.46 313.66 521.78 309.52 515.9 313.47 505.19Z" stroke-width="0" fill="#FFFFFF" opacity="0.4"/><path d="M362.62 506.37 376.96 507.43 396.76 556.37 372.86 562.32 372.41 552.95 376.28 555.46 379.69 552.72 384.24 552.72 386.06 547.26 379.69 543.45 384.47 543.18 381.97 540.03 382.19 534.34 379.69 525.87 376.5 534.34 373.77 525.87 371.72 531.5 368.99 530.64 369.22 512.86 367.45 518.58 361.48 512.86 362.62 506.37Z" stroke-width="0" fill="#FFFFFF" opacity="0.4"/></g><path d="M457.55 583.42C457.46 582.96 457.34 582.52 457.2 582.11L457.18 582.11C457.02 581.63 456.86 581.14 456.65 580.71 456.63 580.64 456.6 580.59 456.56 580.55 456.38 580.09 456.12 579.68 455.87 579.26 451.01 571.85 455.87 567.29 455.87 567.29L455.18 562.32 453.43 549.66C453.43 549.66 458.91 533.83 453.43 529.41 447.98 524.97 445.19 519.12 445.19 519.12L425.38 485.66 406.09 485.57 409.13 473.6C409.13 473.6 280.46 475.56 250.03 492.13 242.53 496.2 234.06 503.36 225.57 511.83 237.42 508.45 262.46 503.48 308.01 502.92L302.14 569.87C252.77 576.52 197.84 581.65 173.19 575.88 173.19 575.88 173.12 575.93 172.96 576.02 172.59 576.23 171.76 576.71 170.54 577.45 170.26 577.61 169.99 577.77 169.69 577.96 169.34 578.17 168.98 578.37 168.59 578.63 168.22 578.86 167.83 579.09 167.44 579.32 165.48 580.47 163.09 581.94 160.35 583.65 159.15 584.41 157.89 585.22 156.55 586.04L156.53 586.04C156.53 586.04 153.75 585.72 150.64 585.81 150.23 585.81 149.81 585.86 149.4 585.88 148.5 585.95 147.6 586.04 146.78 586.2 146.39 586.27 146 586.36 145.63 586.48 145.58 586.5 145.54 586.5 145.49 586.53 145.17 586.62 144.85 586.74 144.55 586.88 143.77 587.2 143.12 587.64 142.73 588.22 142.66 588.31 142.59 588.4 142.55 588.5 142.5 588.59 142.46 588.68 142.43 588.78 142.31 589.06 142.25 589.38 142.25 589.72 142.25 590.18 142.25 590.62 142.23 591.03 142.21 591.77 142.14 592.41 142.02 592.99 141.97 593.29 141.88 593.57 141.79 593.82 141.74 593.98 141.7 594.12 141.61 594.23 140.87 595.68 139.22 596.07 135.72 595.1 135.42 595.01 135.1 594.94 134.8 594.89 134.41 594.8 134.02 594.75 133.63 594.73 133.08 594.66 132.55 594.66 132.02 594.71 131.79 594.73 131.54 594.76 131.31 594.8 130.85 594.87 130.41 594.96 130 595.1 129.79 595.17 129.59 595.24 129.38 595.33 129.17 595.4 128.99 595.49 128.8 595.58 128.22 595.88 127.7 596.22 127.26 596.64 127.1 596.78 126.94 596.94 126.78 597.12 126.53 597.4 126.3 597.72 126.11 598.02 125.99 598.2 125.9 598.39 125.81 598.57 125.44 599.26 125.21 600.04 125.14 600.89 125.12 601.14 125.09 601.4 125.09 601.65L125.09 602.18C125.09 602.34 125.07 602.5 125.04 602.66 125.02 602.78 124.99 602.87 124.97 602.98 124.92 603.1 124.9 603.21 124.83 603.33 124.35 604.5 123.08 605.65 121.47 606.71 121.26 606.87 121.03 607.01 120.8 607.12 120.73 607.19 120.64 607.24 120.55 607.28 120.18 607.51 119.79 607.74 119.4 607.95L119.38 607.95C118.9 608.2 118.39 608.48 117.88 608.73 117.37 608.98 116.84 609.24 116.32 609.47 116.07 609.61 115.79 609.72 115.54 609.84 113.95 610.58 112.39 611.24 111.01 611.84 110.55 612.05 110.11 612.25 109.7 612.44 108.46 613.02 107.47 613.52 106.89 613.98 106.77 614.07 106.68 614.16 106.57 614.28 105.79 615.04 104.91 616.33 104.04 617.89 103.88 618.17 103.72 618.47 103.56 618.76L103.08 619.66C100.78 623.96 98.43 629.19 96.91 630.71 96.17 631.4 95.46 632.11 94.77 632.8 94.68 632.89 94.59 632.98 94.49 633.08 92.79 634.78 91.18 636.49 89.68 638.19 89.17 638.74 88.67 639.32 88.21 639.87 88.14 639.94 88.09 639.99 88.05 640.05 87.61 640.56 87.2 641.04 86.81 641.55 84 644.98 81.7 648.32 80.07 651.54 79.84 651.98 79.61 652.41 79.43 652.85 79.2 653.36 78.97 653.89 78.76 654.39 78.58 654.83 78.41 655.24 78.28 655.68 78.26 655.77 78.23 655.86 78.19 655.93 78.03 656.41 77.89 656.9 77.78 657.38 77.64 657.86 77.55 658.35 77.46 658.83 77.37 659.27 77.3 659.68 77.25 660.12 77.25 660.24 77.23 660.37 77.23 660.49 77.18 660.95 77.16 661.39 77.16 661.82 77.16 664.95 78.15 667.8 80.36 670.34L301.57 675.7 307.74 675.84 402.61 678.14 409.77 659.8 445.26 632.76 445.26 619.53 447.1 616.4C447.38 615.96 448.02 614.88 448.76 613.62L449.61 612.19C449.79 611.87 450 611.52 450.19 611.2 450.56 610.6 450.9 610 451.23 609.47 451.37 609.19 451.53 608.92 451.69 608.69 451.76 608.57 451.83 608.46 451.9 608.34 451.95 608.22 452.02 608.11 452.08 608.02 452.22 607.77 452.33 607.56 452.43 607.4 452.57 607.17 452.64 607.05 452.64 607.05L455.95 601.46C455.95 601.46 459.33 591.13 457.63 583.44ZM309.5 568.85 315.3 502.87C328.23 502.87 342.73 503.19 358.91 504L367.45 559.88C351.8 562.53 331.41 565.79 309.5 568.86ZM374.24 558.72 364.07 504.27C368.65 504.52 373.35 504.8 378.18 505.12L397.7 554.53C397.7 554.53 388.7 556.23 374.25 558.72Z" stroke-width="0" fill="#407BFF"/><path d="M457.55 583.42C457.46 582.96 457.34 582.52 457.2 582.11L457.18 582.11C457.02 581.63 456.86 581.14 456.65 580.71 456.63 580.64 456.6 580.59 456.56 580.55 456.38 580.09 456.12 579.68 455.87 579.26 451.01 571.85 455.87 567.29 455.87 567.29L455.18 562.32 453.43 549.66C453.43 549.66 458.91 533.83 453.43 529.41 447.98 524.97 445.19 519.12 445.19 519.12L425.38 485.66 406.09 485.57 409.13 473.6C409.13 473.6 280.46 475.56 250.03 492.13 242.53 496.2 234.06 503.36 225.57 511.83 237.42 508.45 262.46 503.48 308.01 502.92L302.14 569.87C252.77 576.52 197.84 581.65 173.19 575.88 173.19 575.88 173.12 575.93 172.96 576.02 172.59 576.23 171.76 576.71 170.54 577.45 170.26 577.61 169.99 577.77 169.69 577.96 169.34 578.17 168.98 578.37 168.59 578.63 168.22 578.86 167.83 579.09 167.44 579.32 165.48 580.47 163.09 581.94 160.35 583.65 159.15 584.41 157.89 585.22 156.55 586.04L156.53 586.04C156.53 586.04 153.75 585.72 150.64 585.81 150.23 585.81 149.81 585.86 149.4 585.88 148.5 585.95 147.6 586.04 146.78 586.2 146.39 586.27 146 586.36 145.63 586.48 145.58 586.5 145.54 586.5 145.49 586.53 145.17 586.62 144.85 586.74 144.55 586.88 143.77 587.2 143.12 587.64 142.73 588.22 142.66 588.31 142.59 588.4 142.55 588.5 142.5 588.59 142.46 588.68 142.43 588.78 142.31 589.06 142.25 589.38 142.25 589.72 142.25 590.18 142.25 590.62 142.23 591.03 142.21 591.77 142.14 592.41 142.02 592.99 141.97 593.29 141.88 593.57 141.79 593.82 141.74 593.96 141.67 594.1 141.61 594.23 140.87 595.68 139.22 596.07 135.72 595.1 135.42 595.01 135.1 594.94 134.8 594.89 134.41 594.8 134.02 594.75 133.63 594.73 133.08 594.66 132.55 594.66 132.02 594.71 131.79 594.73 131.54 594.76 131.31 594.8 130.85 594.87 130.41 594.96 130 595.1 129.79 595.17 129.59 595.24 129.38 595.33 129.17 595.4 128.99 595.49 128.8 595.58 128.22 595.88 127.7 596.22 127.26 596.64 127.1 596.78 126.94 596.94 126.78 597.12 126.53 597.4 126.3 597.72 126.11 598.02 125.99 598.2 125.9 598.39 125.81 598.57 125.44 599.26 125.21 600.04 125.14 600.89 125.12 601.14 125.09 601.4 125.09 601.65L125.09 602.18C125.09 602.34 125.07 602.5 125.04 602.66 125.02 602.78 124.99 602.87 124.97 602.98 124.92 603.1 124.9 603.21 124.83 603.33 124.35 604.5 123.08 605.65 121.47 606.71 121.26 606.87 121.03 607.01 120.8 607.12 120.73 607.19 120.64 607.24 120.55 607.28 120.18 607.51 119.79 607.74 119.4 607.95L119.38 607.95C118.9 608.2 118.39 608.48 117.88 608.73 117.37 608.98 116.84 609.24 116.32 609.47 116.07 609.61 115.79 609.72 115.54 609.84 113.95 610.58 112.39 611.24 111.01 611.84 110.55 612.05 110.11 612.25 109.7 612.44 108.46 613.02 107.47 613.52 106.89 613.98 106.77 614.07 106.68 614.16 106.57 614.28 105.79 615.04 104.91 616.33 104.04 617.89 103.88 618.17 103.72 618.47 103.56 618.76L103.08 619.66C100.78 623.96 98.43 629.19 96.91 630.71 96.17 631.4 95.46 632.11 94.77 632.8 94.68 632.89 94.59 632.98 94.49 633.08 92.79 634.78 91.18 636.49 89.68 638.19 89.17 638.74 88.67 639.32 88.21 639.87 88.14 639.94 88.09 639.99 88.05 640.05 87.61 640.56 87.2 641.04 86.81 641.55 84 644.98 81.7 648.32 80.07 651.54 79.84 651.98 79.61 652.41 79.43 652.85 79.2 653.36 78.97 653.89 78.76 654.39 78.58 654.83 78.41 655.24 78.28 655.68 78.26 655.77 78.23 655.86 78.19 655.93 78.03 656.41 77.89 656.9 77.78 657.38 77.64 657.86 77.55 658.35 77.46 658.83 77.37 659.27 77.3 659.68 77.25 660.12 77.25 660.24 77.23 660.37 77.23 660.49 77.18 660.95 77.16 661.39 77.16 661.82 77.16 664.95 78.15 667.8 80.36 670.34L301.57 675.7 307.74 675.84 402.61 678.14 409.77 659.8 445.26 632.76 445.26 619.53 445.35 619.39 447.1 616.4C447.38 615.96 448.02 614.88 448.76 613.62L449.61 612.19C449.79 611.87 450 611.52 450.19 611.2 450.56 610.6 450.9 610 451.23 609.47 451.37 609.19 451.53 608.92 451.69 608.69 451.76 608.57 451.83 608.46 451.9 608.34 451.95 608.22 452.02 608.11 452.08 608.02 452.22 607.77 452.33 607.56 452.43 607.4 452.57 607.17 452.64 607.05 452.64 607.05L455.95 601.46C455.95 601.46 459.33 591.13 457.63 583.44ZM309.5 568.85 315.3 502.87C328.23 502.87 342.73 503.19 358.91 504L367.45 559.88C351.8 562.53 331.41 565.79 309.5 568.86ZM374.24 558.72 364.07 504.27C368.65 504.52 373.35 504.8 378.18 505.12L397.7 554.53C397.7 554.53 388.7 556.23 374.25 558.72Z" stroke-width="0" fill="#FFFFFF" opacity="0.7"/><path d="M274.08 643.42 299.58 645.31C299.58 645.31 293.25 646.62 284.5 648.44 284.18 648.51 283.85 648.58 283.52 648.64 279.24 653.46 272.33 651.15 268.53 652.13 268.04 652.16 267.59 652.19 267.13 652.23 265.87 652.34 264.62 652.51 263.37 652.82 263.03 652.89 262.69 652.96 262.36 653.03 247.17 656.18 233.11 659.1 233.11 659.1 233.11 659.1 238.49 655.26 249.92 648.57 250.15 648.43 250.39 648.3 250.63 648.16 251.62 641.95 263.13 648.86 264.06 640.69 264.35 640.47 264.67 640.29 264.99 640.11 267.75 638.62 270.69 637.05 273.83 635.42 274.09 635.28 274.35 635.15 274.62 635 278.85 630.82 283.07 628.54 287.2 628.14 287.58 628.1 287.95 628.08 288.32 628.08 293.04 625.84 297.65 628.15 300.01 622.43 300.32 622.28 300.64 622.13 300.95 621.98 336.6 605.14 387.26 584.12 455.17 562.32L455.86 567.29C455.86 567.29 451 571.85 455.86 579.26 456.41 580.11 456.85 581.08 457.17 582.11 426.97 588.1 368.19 601.79 309.19 626.96 308.93 627.07 308.66 627.18 308.4 627.3 304.54 632.75 299.94 632.75 294.19 633.61 293.92 633.73 293.66 633.85 293.4 633.98 293.11 634.11 292.84 634.24 292.55 634.36 288.43 632.75 283.83 635.05 282.53 639.15 282.28 639.29 282.02 639.42 281.76 639.54 279.19 640.81 276.62 642.11 274.06 643.42Z" stroke-width="0" fill="#407BFF"/><path d="M300.48 595.74C233.12 601.65 149.39 585.87 149.39 585.87 152.96 585.62 156.52 586.03 156.52 586.03L156.54 586.03C157.88 585.2 159.14 584.4 160.34 583.64 193.11 594.09 300.47 595.75 300.47 595.75Z" stroke-width="0" opacity="0.1"/><path d="M131.28 594.77C132.61 594.54 134.13 594.63 135.7 595.07 139.52 596.13 141.13 595.58 141.78 593.78 145.28 594.91 151.58 596.13 162.93 597.07 190.78 599.39 193.98 600.75 205.35 603.03 216.74 605.31 227.14 604.85 240.61 606.67 253.87 608.47 146.16 603.63 131.29 594.77Z" stroke-width="0" opacity="0.1"/><path d="M284.55 627.61C271.8 623.05 244.94 620.04 218.08 619.51 195.76 619.05 138.15 610.72 119.37 607.93 122.61 606.16 125.17 604.16 125.05 602.02 130.99 602.55 141.07 603.77 148.87 607.04 158.88 611.23 192.57 616.22 208.5 616.68 224.45 617.14 286.95 615.39 309.19 626.97 331.42 638.55 402.44 644.46 405.18 647.18 407.9 649.92 297.29 632.17 284.54 627.62Z" stroke-width="0" opacity="0.1"/><path d="M165.73 645.31C165.73 645.31 137.98 638.54 136.13 638.54 134.28 638.54 116.11 635.8 116.11 635.8L94.45 633.06C95.23 632.28 96.04 631.47 96.87 630.69 98.62 628.96 101.43 622.38 104 617.87 110.93 623.28 119.65 629.95 122.02 631.26 126.12 633.52 157.53 637.61 157.53 637.61L165.72 645.3Z" stroke-width="0" opacity="0.1"/><path d="M447.03 616.38 445.19 619.51 445.19 632.74 409.7 659.78 402.54 678.12 307.67 675.82C309.26 673.17 310.27 670.9 309.49 669.93 307.3 667.21 251.77 640.47 251.77 640.47L243.58 635.8C244.94 635.8 287.72 649.31 294.1 653.24 300.47 657.2 324.59 667.67 324.59 667.67L397.68 673.98C397.68 673.98 407 655.32 408.36 654.88 409.72 654.47 438.39 635.8 438.39 635.8 438.39 635.8 438.85 621.42 440.23 621.55 441.59 621.69 446.19 617.78 447.02 616.37Z" stroke-width="0" opacity="0.1"/><path d="M301.52 675.69 80.31 670.33C78.1 667.8 77.11 664.94 77.11 661.81 77.11 660.84 77.2 659.83 77.41 658.82 80.91 662.55 85.37 666.76 87.58 666.76 91.54 666.76 111.12 669.04 112.48 669.04 113.84 669.04 145.25 666.3 145.25 666.3 145.25 666.3 150.7 658.73 156.18 661.15 161.63 663.59 192.13 669.04 192.13 669.04 192.13 669.04 205.8 668.58 208.98 669.04 212.18 669.5 224.01 668.12 228.57 669.04 233.13 669.94 236.3 669.22 247.23 669.13 258.16 669.04 268.17 670.86 273.17 669.5 276.55 668.58 291.88 672.81 301.52 675.69Z" stroke-width="0" opacity="0.1"/><g><path d="M232.58 673.11C232.58 673.11 251.29 659.7 253.69 660.86 256.09 662.02 262.79 664.2 268.86 666.21 274.93 668.22 282.97 673.11 282.97 673.11 282.97 673.11 290.13 672.54 293.15 673.11 296.17 673.68 314.04 677.32 314.04 677.32L221.07 677.32 232.57 673.11Z" stroke-width="0" fill="#407BFF"/><path d="M172.04 677.35 196.66 652.77 190.4 640.28 128.62 677.35 172.04 677.35Z" stroke-width="0" fill="#407BFF"/><path d="M232.58 673.11C232.58 673.11 251.29 659.7 253.69 660.86 256.09 662.02 262.79 664.2 268.86 666.21 274.93 668.22 282.97 673.11 282.97 673.11 282.97 673.11 290.13 672.54 293.15 673.11 296.17 673.68 314.04 677.32 314.04 677.32L221.07 677.32 232.57 673.11Z" stroke-width="0" fill="#FFFFFF" opacity="0.4"/><path d="M172.04 677.35 196.66 652.77 190.4 640.28 128.62 677.35 172.04 677.35Z" stroke-width="0" fill="#FFFFFF" opacity="0.4"/><path d="M183.91 677.35 230.01 677.35 219.3 664.64 187.78 660.75 170.41 660.75 156.87 677.35 183.91 677.35Z" stroke-width="0" fill="#407BFF"/><path d="M37.66 666.95 43.12 650.23C43.12 650.23 51.31 642.72 54.05 644.39 56.78 646.05 83.34 661.46 83.34 661.46L134.32 670.45 145.28 677.35 44.04 677.35 37.67 666.95Z" stroke-width="0" fill="#407BFF"/><path d="M183.91 677.35 230.01 677.35 219.3 664.64 187.78 660.75 170.41 660.75 156.87 677.35 183.91 677.35Z" stroke-width="0" fill="#FFFFFF" opacity="0.5"/><path d="M37.66 666.95 43.12 650.23C43.12 650.23 51.31 642.72 54.05 644.39 56.78 646.05 83.34 661.46 83.34 661.46L134.32 670.45 145.28 677.35 44.04 677.35 37.67 666.95Z" stroke-width="0" fill="#FFFFFF" opacity="0.5"/></g><path d="M453.43 529.41C453.43 529.41 430.97 528.97 425.95 528.65 420.96 528.3 441.9 522.9 441.9 522.9L425.95 489.51 415.02 488.93 384.55 494.09 398.27 485.57 409.13 473.6 406.09 485.57 425.38 485.66 445.19 519.12C445.19 519.12 447.98 524.97 453.43 529.41Z" stroke-width="0" opacity="0.1"/><path d="M455.87 601.44 452.56 607.03C452.56 607.03 452.49 607.15 452.35 607.38 452.26 607.54 452.14 607.75 452 608 451.93 608.09 451.86 608.21 451.82 608.32 451.75 608.43 451.68 608.55 451.61 608.67 451.45 608.9 451.29 609.18 451.15 609.45 450.83 609.98 450.48 610.58 450.11 611.18 449.93 611.5 449.72 611.85 449.53 612.17L448.68 613.6C447.94 614.87 447.3 615.95 447.02 616.38L445.27 619.37 405.23 613.96 447.02 610.69 453.42 597.07 453.42 583.63 449.78 577.16 452.54 565.4 449.78 556.29 441.89 558.73 452.55 544.42 452.55 540.05 453.42 529.42C458.9 533.84 453.42 549.67 453.42 549.67L455.17 562.33 455.86 567.3C455.86 567.3 451 571.86 455.86 579.27 456.11 579.68 456.37 580.1 456.55 580.56 456.6 580.61 456.62 580.65 456.64 580.72 456.85 581.16 457.01 581.64 457.17 582.12L457.19 582.12C457.33 582.53 457.44 582.97 457.54 583.43 459.24 591.12 455.86 601.45 455.86 601.45Z" stroke-width="0" opacity="0.1"/><g><path d="M447.03 679.32 498.35 679.32 486.82 650.88 464.36 638.77 440.69 650.88 431.64 660.75 418.99 669.05 415.02 677.35 447.03 679.32Z" stroke-width="0" fill="#407BFF"/><path d="M521.42 675.82C521.42 675.82 501.39 628.52 503.82 627.91 506.25 627.3 512.11 618.8 512.52 616.38 512.93 613.95 509.79 602.62 509.79 602.62 509.79 602.62 518.39 583.57 521.42 581.16 524.45 578.75 529.92 575.87 529.92 575.87 529.92 575.87 569.98 632.03 576.66 677.32L516.17 679.33 521.42 675.83Z" stroke-width="0" fill="#407BFF"/><path d="M498.36 679.32 447.03 679.32 415.02 677.34 418.98 669.06 431.64 660.75 440.68 650.88 464.36 638.77 486.83 650.88 498.36 679.32Z" stroke-width="0" fill="#FFFFFF" opacity="0.6"/><path d="M516.17 679.32 521.42 675.82C521.42 675.82 501.4 628.5 503.81 627.9 506.25 627.3 512.12 618.79 512.51 616.37 512.92 613.95 509.79 602.61 509.79 602.61 509.79 602.61 518.37 583.55 521.41 581.14 524.31 578.86 529.42 576.1 529.88 575.87L529.9 575.85C529.9 575.85 569.97 632.03 576.64 677.32L516.16 679.32Z" stroke-width="0" fill="#FFFFFF" opacity="0.7"/><path d="M486.83 650.88 498.36 679.33 447.04 679.33 415.03 677.35C415.03 677.35 423.29 673.46 425.39 673.99 427.51 674.5 462.1 674.36 463.46 673.99 464.84 673.6 482.12 669.06 482.12 669.06L481.22 655.39 474.85 650.88 467.55 650.88 464.37 638.77 486.83 650.88Z" stroke-width="0" opacity="0.1"/><path d="M536.21 647.2C537.31 649.06 538 650.4 538.1 650.88 538.28 652.03 537.57 650.37 536.21 647.2Z" stroke-width="0" opacity="0.1"/><path d="M516.17 679.32 521.42 675.82C521.42 675.82 501.4 628.5 503.81 627.9 506.25 627.3 512.12 618.79 512.51 616.37 512.92 613.95 509.79 602.61 509.79 602.61 509.79 602.61 518.37 583.55 521.41 581.14 524.31 578.86 529.42 576.1 529.88 575.87 529.47 576.45 522.61 585.77 521.71 587.08 520.81 588.46 513.06 601.72 513.06 601.72L516.72 610.7C516.72 610.7 521.71 615.28 527.63 627.59 531.13 634.86 534.3 642.62 536.21 647.2 531.26 638.73 518.07 619.38 518.07 619.38 518.07 619.38 516.71 627.14 515.33 627.6 513.97 628.08 513.97 629.23 513.05 630.71 512.15 632.18 517.61 641.62 518.07 645.32 518.53 649.03 525.55 674 525.55 674L576.64 677.34 516.16 679.34Z" stroke-width="0" opacity="0.1"/></g></g></g></svg>