<svg viewBox="0 0 96 96" xmlns="http://www.w3.org/2000/svg" xmlns:xlink="http://www.w3.org/1999/xlink" id="Icons_Shirt" overflow="hidden"><style>
.MsftOfcThm_Background1_Fill_v2 {
 fill:#FFFFFF; 
}
</style>
<path d="M91.2 29.7 76.6 15.4C76.2 15 75.7 14.7 75.2 14.5L61.6 9.4C60.9 9.1 60 9.3 59.5 9.9 56.6 12.9 52.5 14.8 48 14.8 43.5 14.8 39.4 12.9 36.5 9.9 36 9.3 35.1 9.2 34.4 9.4L20.8 14.5C20.3 14.7 19.8 15 19.4 15.4L4.8 29.7C4 30.6 4.1 32 5 32.7L18.4 42.8C19.2 43.4 20.3 43.4 21 42.7L26 38 26 86.7 70 86.7 70 38.1 75 42.8C75.7 43.5 76.9 43.5 77.6 42.9L91 32.7C91.9 32 92 30.6 91.2 29.7Z" class="MsftOfcThm_Background1_Fill_v2" fill="#FFFFFF"/></svg>